<?xml version="1.0" standalone="no"?>
<!DOCTYPE svg PUBLIC "-//W3C//DTD SVG 1.1//EN" "http://www.w3.org/Graphics/SVG/1.1/DTD/svg11.dtd" >
<svg xmlns="http://www.w3.org/2000/svg" xmlns:xlink="http://www.w3.org/1999/xlink" version="1.1">
<metadata>
Created by FontForge 20201107 at Wed Dec 24 15:01:15 2025
 By 
Copyright (c) The Font Bureau, Inc., 2003. All rights reserved.
</metadata>
<defs>
<font id="AntennaComp-RegularItalic" horiz-adv-x="487" >
  <font-face 
    font-family="AntennaComp RegularItalic"
    font-weight="400"
    font-style="italic"
    font-stretch="normal"
    units-per-em="2048"
    panose-1="2 0 5 8 0 0 0 2 0 4"
    ascent="1638"
    descent="-410"
    x-height="1137"
    cap-height="1518"
    bbox="-135 -377 1630 1849"
    underline-thickness="102"
    underline-position="-204"
    slope="-6"
    unicode-range="U+0020-FB02"
  />
<missing-glyph horiz-adv-x="176" 
 />
    <glyph glyph-name="fi" unicode="fi" horiz-adv-x="602" 
d="M45 997l12 140h84l21 182q12 130 60 180.5t165 50.5q23 0 29 -2l-15 -145h-6q-46 0 -63 -20.5t-25 -79.5l-18 -166h84l-13 -140h-86l-135 -1294h-147l135 1294h-82zM315 0l117 1137h152l-119 -1137h-150zM449 1274l22 213h150l-23 -213h-149z" />
    <glyph glyph-name="fl" unicode="fl" horiz-adv-x="636" 
d="M45 997l12 140h84l21 182q12 130 60 180.5t165 50.5q23 0 29 -2l-15 -145h-6q-46 0 -63 -20.5t-25 -79.5l-18 -166h84l-13 -140h-86l-135 -1294h-147l135 1294h-82zM473 -2q-96 0 -122 49t-15 162l141 1339h150l-140 -1335q-5 -42 1.5 -55t33.5 -13h21l-15 -145
q-8 -2 -55 -2z" />
    <glyph glyph-name="f_f_l" unicode="ffl" horiz-adv-x="925" 
d="M279 -297l135 1294h-144l-135 -1294h-151l137 1294h-80l12 140h82l21 182q14 131 62 181t165 50q23 0 29 -2l-15 -145h-8q-46 0 -63 -20.5t-23 -79.5l-18 -166h143l21 182q12 130 60 180.5t165 50.5q23 0 31 -2l-15 -145h-8q-48 0 -64 -20t-22 -80l-18 -166h84l-15 -140
h-84l-135 -1294h-149zM762 -2q-67 0 -99.5 24t-38.5 70.5t1 116.5l139 1339h149l-139 -1335q-5 -41 2 -54.5t33 -13.5h20l-14 -145q-10 -2 -53 -2z" />
    <glyph glyph-name="f_f_i" unicode="ffi" horiz-adv-x="892" 
d="M283 -297l135 1294h-144l-135 -1294h-147l135 1294h-82l12 140h84l21 182q12 130 60 180.5t165 50.5q23 0 29 -2l-15 -145h-6q-46 0 -63 -20.5t-25 -79.5l-18 -166h143l21 182q14 131 62 181t165 50q21 0 29 -2l-17 -145h-4q-46 0 -64 -21t-26 -79l-18 -166h84l-13 -140
h-86l-133 -1294h-149zM606 0l119 1137h149l-116 -1137h-152zM741 1274l21 217h151l-22 -217h-150z" />
    <glyph glyph-name="f_j" unicode="fj" horiz-adv-x="595" 
d="M41 997l12 140h82l21 182q14 131 62 181t165 50q23 0 29 -2l-15 -145h-8q-46 0 -63 -20.5t-23 -79.5l-18 -166h84l-15 -140h-84l-135 -1294h-151l137 1294h-80zM231 -297l15 143q33 0 41.5 11t13.5 51l129 1229h150l-131 -1248q-11 -104 -58 -145t-160 -41zM442 1274
l25 217h151l-24 -217h-152z" />
    <glyph glyph-name="f_f" unicode="ff" horiz-adv-x="653" 
d="M279 -297l135 1294h-144l-135 -1294h-151l137 1294h-80l12 140h82l21 182q14 131 62 181t165 50q23 0 29 -2l-15 -145h-8q-46 0 -63 -20.5t-23 -79.5l-18 -166h143l21 182q12 130 64 180.5t177 50.5q31 0 39 -2l-14 -145h-25q-53 0 -70.5 -20t-23.5 -80l-18 -166h108
l-14 -140h-109l-135 -1294h-149z" />
    <glyph glyph-name=".notdef" horiz-adv-x="176" 
 />
    <glyph glyph-name=".null" horiz-adv-x="0" 
 />
    <glyph glyph-name="nonmarkingreturn" horiz-adv-x="682" 
 />
    <glyph glyph-name="space" unicode=" " horiz-adv-x="176" 
 />
    <glyph glyph-name="space" unicode="&#xa0;" horiz-adv-x="176" 
 />
    <glyph glyph-name="exclam" unicode="!" horiz-adv-x="360" 
d="M76 424l102 1094h166l-131 -1094h-137zM16 0l23 227h166l-23 -227h-166z" />
    <glyph glyph-name="quotedbl" unicode="&#x22;" horiz-adv-x="524" 
d="M106 952l52 566h151l-65 -566h-138zM322 952l51 566h153l-67 -566h-137z" />
    <glyph glyph-name="numbersign" unicode="#" horiz-adv-x="610" 
d="M53 0l51 502h-90l17 149h90l18 183h-88l15 149h90l53 535h143l-57 -535h72l55 535h139l-53 -535h90l-16 -149h-90l-19 -183h88l-16 -149h-88l-51 -502h-142l51 502h-71l-51 -502h-140zM252 639h84l22 207h-84z" />
    <glyph glyph-name="dollar" unicode="$" horiz-adv-x="471" 
d="M57 -188l19 184q-59 3 -119 18l49 142q66 -17 117 -17q71 0 88 39t2 156l-107 805q-9 68 -9 119t10 105t41.5 91t84.5 55l21 181h131l-18 -168q34 -2 108 -17l-45 -145q-38 12 -90 12q-46 0 -68 -25.5t-22 -67.5t6 -95l102 -791q20 -157 13 -220q-15 -129 -129 -164
q-16 -6 -35 -9l-19 -188h-131z" />
    <glyph glyph-name="percent" unicode="%" horiz-adv-x="1021" 
d="M205 580q-92 0 -127 42t-35 146q0 76 23 295q26 248 45 319q26 99 86 128q37 18 98 18q92 0 128 -42t36 -145q0 -86 -25 -294q-26 -248 -46 -320q-28 -101 -89 -130q-36 -17 -94 -17zM213 705q18 0 27.5 8t19.5 48t18 100.5t21 187.5q23 228 23 276q0 45 -8.5 59.5
t-28.5 14.5q-33 0 -46 -53t-38 -289q-23 -203 -23 -279q0 -44 7.5 -58.5t27.5 -14.5zM727 -10q-91 0 -126.5 43t-35.5 147q0 58 25 295q9 84 13.5 123t12.5 97.5t15.5 83t20 60t26.5 48t35 28t47 19.5t61 4q92 0 127 -41.5t35 -144.5q0 -87 -25 -295q-26 -246 -45 -317
q-27 -102 -87 -132q-38 -18 -99 -18zM739 117q18 0 27.5 8t19.5 47.5t17 100t20 186.5q25 252 25 278q0 43 -9.5 58.5t-29.5 15.5q-17 0 -26.5 -8t-19 -48t-17.5 -101t-21 -187q-23 -232 -23 -279q0 -43 8.5 -57t28.5 -14zM207 0l469 1518h139l-469 -1518h-139z" />
    <glyph glyph-name="ampersand" unicode="&#x26;" horiz-adv-x="667" 
d="M207 -8q-131 0 -187.5 53.5t-56.5 177.5q0 127 32.5 244.5t77 199.5t111.5 175q-45 179 -45 329q0 204 51 281q50 76 166 76q112 0 153.5 -48t41.5 -155q0 -147 -52 -272.5t-151 -264.5q3 -10 39 -122l45 -152l70 373h129l-88 -463q-19 -89 -39 -154l82 -270h-160l-20 70
q-69 -78 -199 -78zM221 125q51 0 83 19.5t58 78.5l-106 379q-19 56 -27 82q-116 -214 -116 -440q0 -63 23 -91t85 -28zM281 1178q0 -109 26 -230q105 168 105 365q0 45 -12 63.5t-44 18.5q-43 0 -57 -33q-18 -42 -18 -184z" />
    <glyph glyph-name="quotesingle" unicode="'" horiz-adv-x="309" 
d="M106 952l52 566h155l-67 -566h-140z" />
    <glyph glyph-name="parenleft" unicode="(" horiz-adv-x="438" 
d="M145 -307q-90 244 -90 573q0 156 21 359q57 568 264 934l117 -68q-36 -71 -63.5 -137t-61.5 -171t-61.5 -246t-45.5 -310q-18 -202 -18 -351q0 -309 67 -516z" />
    <glyph glyph-name="parenright" unicode=")" horiz-adv-x="438" 
d="M72 -307l-119 67q35 69 63 136t62.5 172t62 247.5t45.5 311.5q19 214 19 352q0 301 -68 512l131 68q88 -243 88 -574q0 -162 -20 -358q-57 -568 -264 -934z" />
    <glyph glyph-name="asterisk" unicode="*" horiz-adv-x="555" 
d="M352 891l-123 12l33 223l-143 -102l-68 109l182 73l-159 129l86 97l121 -134l12 228l125 -17l-35 -223l147 105l68 -107l-188 -94l165 -113l-86 -94l-122 133z" />
    <glyph glyph-name="plus" unicode="+" horiz-adv-x="600" 
d="M188 410l29 260h-143l16 147h143l25 256h152l-29 -256h143l-14 -147h-143l-29 -260h-150z" />
    <glyph glyph-name="comma" unicode="," horiz-adv-x="272" 
d="M4 -195l-45 82q50 33 62 48.5t16 64.5h-64l25 229h166l-19 -174q-12 -119 -38 -166.5t-103 -83.5z" />
    <glyph glyph-name="hyphen" unicode="-" horiz-adv-x="360" 
d="M18 575l15 148h286l-14 -148h-287z" />
    <glyph glyph-name="hyphen" unicode="&#xad;" horiz-adv-x="360" 
d="M18 575l15 148h286l-14 -148h-287z" />
    <glyph glyph-name="period" unicode="." horiz-adv-x="272" 
d="M-27 0l25 229h166l-23 -229h-168z" />
    <glyph glyph-name="slash" unicode="/" 
d="M-84 0l498 1518h155l-495 -1518h-158z" />
    <glyph glyph-name="zero" unicode="0" horiz-adv-x="569" 
d="M215 -10q-115 0 -159 56t-44 192q0 131 45 534q4 39 12 112q45 417 89 530.5t198 113.5q116 0 159.5 -56.5t43.5 -191.5q0 -127 -45 -535q-6 -55 -17 -153q-43 -398 -85 -500t-197 -102zM221 135q37 0 54 32q25 47 51 272q8 67 34 315q48 435 48 518q0 63 -13.5 83.5
t-46.5 20.5q-53 0 -70.5 -77t-57.5 -455q-6 -52 -9 -80q-45 -408 -45 -522q0 -64 12 -85.5t43 -21.5z" />
    <glyph glyph-name="one" unicode="1" horiz-adv-x="366" 
d="M49 0l146 1368h-113l16 150h264l-159 -1518h-154z" />
    <glyph glyph-name="two" unicode="2" horiz-adv-x="454" 
d="M-57 0l16 141l346 1037q17 50 24.5 82.5t6.5 62t-19.5 43.5t-54.5 14q-53 0 -117 -22l-53 137q79 33 203 33q105 0 149.5 -45.5t44.5 -130.5q0 -54 -11.5 -103.5t-39.5 -132.5l-325 -973h249l-16 -143h-403z" />
    <glyph glyph-name="three" unicode="3" horiz-adv-x="454" 
d="M96 -10q-110 0 -170 28l60 138q59 -23 110 -23q66 0 88.5 59t42.5 250q20 187 16 229q-5 50 -42 63q-23 8 -78 9h-39l18 148h37q31 0 52 3.5t37 17t25 29t16.5 49.5t11.5 67t10 94q8 74 10.5 106t-1.5 67.5t-20 46.5t-47 11q-59 0 -104 -14l-43 137q82 23 184 23
q101 0 144 -48.5t43 -152.5q0 -17 -13 -149q-19 -182 -37.5 -249.5t-68.5 -94.5q35 -14 47 -46t12 -96q0 -76 -20 -264q-10 -90 -18.5 -148t-23 -111.5t-33.5 -84t-48 -53.5t-67 -32t-91 -9z" />
    <glyph glyph-name="four" unicode="4" horiz-adv-x="555" 
d="M-12 322l14 129l346 1067h148l-342 -1059h112l76 440h111l-47 -440h92l-15 -137h-92l-33 -322h-141l33 322h-262z" />
    <glyph glyph-name="five" unicode="5" horiz-adv-x="481" 
d="M141 -10q-104 0 -192 30l57 136q63 -23 121 -23q71 0 93 61t46 295q4 49 10.5 114.5t9.5 99t3 55.5q0 49 -14.5 65.5t-51.5 16.5q-22 0 -38.5 -6t-22.5 -11t-19 -18l-98 20l88 693h350l-16 -150h-217l-53 -401q33 26 102 26q81 0 113 -44.5t32 -151.5q0 -58 -26 -318
q-11 -107 -20.5 -174t-24.5 -127.5t-32.5 -92t-46.5 -55.5t-65 -32t-88 -8z" />
    <glyph glyph-name="six" unicode="6" horiz-adv-x="548" 
d="M211 -10q-104 0 -152.5 56.5t-48.5 191.5q0 31 3 75.5t6.5 80t11.5 114.5t12 125q43 423 58 518q31 199 91 274q58 73 185 88q45 5 108 5h33l-14 -150h-31q-37 0 -62.5 -2t-49 -11t-37.5 -19t-28 -35t-21.5 -48.5t-16.5 -70t-14.5 -90t-14.5 -117.5q36 41 133 41
q82 0 116 -44t34 -143q0 -59 -23 -276q-30 -282 -50 -365q-31 -128 -97 -169q-48 -29 -131 -29zM219 131q18 0 29.5 4.5t22.5 23.5t18 44t15.5 79.5t15.5 115.5t18 165q20 177 20 223q0 52 -12.5 69t-44.5 17q-19 0 -31.5 -4t-23 -18.5t-17 -32.5t-14 -57.5t-12.5 -80.5
t-13 -114q-26 -246 -26 -338q0 -59 11.5 -77.5t43.5 -18.5z" />
    <glyph glyph-name="seven" unicode="7" horiz-adv-x="462" 
d="M90 1368l14 150h408l-14 -134l-338 -1384h-160l340 1368h-250z" />
    <glyph glyph-name="eight" unicode="8" horiz-adv-x="542" 
d="M197 -10q-107 0 -155 49.5t-48 159.5q0 62 18 233q24 218 36 273q25 107 83 139q-41 33 -41 133q0 23 16 207q8 72 16 117.5t20.5 88t28 66t40.5 41.5t58 24.5t79 6.5q103 0 147 -45.5t44 -143.5q0 -28 -15 -178q-19 -168 -36.5 -237t-57.5 -93q51 -33 51 -157
q0 -75 -18 -262q-7 -71 -12.5 -115t-14 -92t-17.5 -75t-23.5 -54.5t-31.5 -41t-42 -25t-55 -15.5t-70 -4zM205 125q51 0 66 43.5t35 224.5q3 27 5 41q19 215 19 240q0 47 -13.5 66.5t-44.5 19.5q-49 0 -64 -47t-33 -227q-3 -31 -5 -48q-20 -188 -20 -231q0 -46 12 -64
t43 -18zM287 899q44 0 57 39t31 203q14 143 14 176q0 43 -10.5 58.5t-38.5 15.5q-43 0 -56.5 -40.5t-31.5 -205.5q-14 -151 -14 -180q0 -37 11 -51.5t38 -14.5z" />
    <glyph glyph-name="nine" unicode="9" horiz-adv-x="548" 
d="M31 2l14 141h29q37 0 63 2t49 11.5t37.5 20t28 36t21.5 49.5t17 71.5t14.5 91.5t14.5 118q-39 -43 -133 -43q-82 0 -115.5 44t-33.5 144q0 70 22 277q30 283 51 367q31 127 98 167q47 29 130 29q104 0 152.5 -56.5t48.5 -189.5q0 -31 -3 -76t-6.5 -80t-11.5 -116
t-12 -125q-43 -422 -58 -519q-32 -198 -92 -272q-59 -73 -187 -87q-45 -5 -106 -5h-32zM248 647q18 0 30.5 4t23 18t17 32t13.5 56.5t12.5 80t13.5 112.5q27 280 27 334q0 59 -12.5 77.5t-44.5 18.5q-27 0 -41.5 -11t-28 -63.5t-22.5 -124.5t-25 -229q-21 -191 -21 -225
q0 -48 13 -64t45 -16z" />
    <glyph glyph-name="colon" unicode=":" horiz-adv-x="282" 
d="M-20 0l24 229h164l-25 -229h-163zM76 907l22 230h166l-24 -230h-164z" />
    <glyph glyph-name="semicolon" unicode=";" horiz-adv-x="282" 
d="M76 907l22 230h166l-24 -230h-164zM10 -195l-41 84q34 23 44 31.5t18.5 27t11.5 52.5h-63l24 229h164l-18 -174q-12 -120 -37.5 -167t-102.5 -83z" />
    <glyph glyph-name="less" unicode="&#x3c;" horiz-adv-x="600" 
d="M428 350l-344 330l10 117l416 327l-21 -174l-251 -213l208 -211z" />
    <glyph glyph-name="equal" unicode="=" horiz-adv-x="600" 
d="M90 801l14 147h433l-15 -147h-432zM59 500l15 147h432l-17 -147h-430z" />
    <glyph glyph-name="greater" unicode="&#x3e;" horiz-adv-x="600" 
d="M88 350l18 174l254 213l-208 213l18 174l344 -327l-12 -117z" />
    <glyph glyph-name="question" unicode="?" horiz-adv-x="479" 
d="M111 424q10 112 14.5 152.5t17.5 99.5t37 127l135 385q17 48 23.5 80t3.5 59t-23 40t-57 13q-65 0 -121 -18l-47 137q74 29 191 29q213 0 213 -168q0 -36 -7 -73t-14.5 -60t-30.5 -90l-124 -369q-31 -91 -42.5 -157.5t-21.5 -186.5h-147zM61 0l23 209h164l-23 -209h-164z
" />
    <glyph glyph-name="at" unicode="@" horiz-adv-x="839" 
d="M328 -297q-184 0 -256 87.5t-72 293.5q0 152 41 534q13 123 22 205.5t21.5 171.5t24 145t27.5 116t33 94t41 69t50.5 52.5t62 32t75.5 19.5t91 5q97 0 159.5 -19.5t99 -65.5t51 -111t14.5 -165q0 -150 -37 -499l-45 -426q-10 -87 -36.5 -124.5t-100.5 -37.5
q-91 0 -113 49q-47 -47 -157 -47q-91 0 -124.5 39t-33.5 137q0 63 31 352q35 335 66.5 427.5t131.5 92.5q91 0 125 -43l21 33l118 -6l-92 -872q-6 -49 1 -67.5t34 -18.5q25 0 33.5 17t13.5 73l47 430q37 346 37 483q0 165 -53 228t-195 63q-40 0 -71.5 -4.5t-60 -18
t-49 -28.5t-40 -47.5t-32.5 -63t-26.5 -86t-23 -105.5t-20.5 -133.5t-19 -158t-20 -189.5q-4 -46 -13 -131.5t-12.5 -126.5t-8.5 -99t-7 -99t-2 -76q0 -175 54.5 -240t205.5 -65h192l-6 -76h-198zM360 207q49 0 64.5 55.5t39.5 292.5q3 31 5 47q25 262 25 301
q0 55 -12.5 73.5t-49.5 18.5q-15 0 -22.5 -2.5t-17 -16t-15 -35.5t-13 -69t-14 -109t-16.5 -161q-27 -267 -27 -311q0 -56 11 -70t42 -14z" />
    <glyph glyph-name="A" unicode="A" horiz-adv-x="557" 
d="M-70 0l338 1524h176l23 -1524h-158l2 324h-164l-63 -324h-154zM180 473h131l2 498l6 200l-38 -200z" />
    <glyph glyph-name="B" unicode="B" horiz-adv-x="557" 
d="M-18 0l161 1518h189q127 0 175 -51t48 -164q0 -46 -14 -179q-15 -157 -40.5 -234.5t-84.5 -103.5q41 -18 58.5 -60.5t17.5 -115.5q0 -72 -17 -215q-24 -222 -77 -308.5t-185 -86.5h-231zM150 141h55q64 0 84 52t39 221q14 100 14 166q0 64 -20 91t-70 27h-45zM223 848h49
q60 0 81.5 50.5t37.5 205.5q12 129 12 164q0 59 -18.5 82.5t-65.5 23.5h-38z" />
    <glyph glyph-name="C" unicode="C" horiz-adv-x="434" 
d="M229 -10q-139 0 -186 60.5t-47 209.5q0 103 43 516q37 368 51 451q29 178 86 237q62 62 193 62q84 0 141 -17l-47 -145q-42 10 -96 10q-77 0 -99.5 -82t-64.5 -475q-4 -36 -6 -55q-43 -391 -43 -492q0 -81 20 -107t74 -26q48 0 86 10l22 -137q-41 -20 -127 -20z" />
    <glyph glyph-name="D" unicode="D" horiz-adv-x="583" 
d="M-16 0l159 1518h228q116 0 166.5 -60.5t50.5 -204.5q0 -125 -43 -508q-38 -373 -60 -492.5t-73 -180.5q-56 -72 -191 -72h-237zM154 137h59q59 0 80 37q29 36 46.5 141.5t53.5 438.5q41 420 41 485q0 80 -21.5 108.5t-62.5 28.5h-67z" />
    <glyph glyph-name="E" unicode="E" horiz-adv-x="471" 
d="M-16 0l159 1518h369l-16 -150h-215l-56 -520h209l-14 -146h-211l-59 -559h217l-15 -143h-368z" />
    <glyph glyph-name="F" unicode="F" horiz-adv-x="436" 
d="M-16 0l159 1518h361l-15 -150h-208l-58 -532h203l-14 -148h-203l-72 -688h-153z" />
    <glyph glyph-name="G" unicode="G" horiz-adv-x="542" 
d="M221 -8q-134 0 -179.5 55t-45.5 209q0 119 43 520q40 382 57 476q29 161 84 216q55 58 185 58q110 0 190 -25l-49 -143q-59 18 -135 18q-85 0 -109.5 -85t-67.5 -491q-3 -25 -4 -38q-43 -423 -43 -506q0 -75 17.5 -103t62.5 -28q50 0 65.5 48.5t36.5 242.5q6 54 9 84
l24 211h-108l18 143h252l-39 -352q-12 -119 -19.5 -176.5t-21 -128.5t-29 -99.5t-43 -58.5t-63 -38.5t-88.5 -8.5z" />
    <glyph glyph-name="H" unicode="H" horiz-adv-x="610" 
d="M-16 0l159 1518h154l-70 -658h179l69 658h154l-160 -1518h-154l74 702h-180l-72 -702h-153z" />
    <glyph glyph-name="I" unicode="I" horiz-adv-x="288" 
d="M-12 0l159 1518h154l-160 -1518h-153z" />
    <glyph glyph-name="J" unicode="J" horiz-adv-x="333" 
d="M0 0h-68l17 145h24q54 0 72 18.5t23 65.5l135 1289h153l-135 -1303q-12 -110 -64 -162.5t-157 -52.5z" />
    <glyph glyph-name="K" unicode="K" horiz-adv-x="542" 
d="M-20 0l161 1518h154l-66 -605l215 605h152l-215 -582l76 -936h-156l-47 694l-68 -207l-51 -487h-155z" />
    <glyph glyph-name="L" unicode="L" horiz-adv-x="432" 
d="M-16 0l159 1518h154l-147 -1375h202l-12 -143h-356z" />
    <glyph glyph-name="M" unicode="M" horiz-adv-x="731" 
d="M-18 0l161 1518h207l-6 -787l-6 -217l39 215l162 789h211l-160 -1518h-150l84 788l27 252l-49 -252l-160 -788h-123l4 801l6 239l-24 -239l-84 -801h-139z" />
    <glyph glyph-name="N" unicode="N" horiz-adv-x="604" 
d="M-18 0l161 1518h168l54 -627l16 -264l96 891h146l-160 -1518h-148l-67 758l-17 235l-104 -993h-145z" />
    <glyph glyph-name="O" unicode="O" horiz-adv-x="579" 
d="M219 -10q-133 0 -180 59t-47 209q0 108 45 518q40 390 62 497q28 140 79 193q54 62 180 62q134 0 180 -60t46 -211q0 -112 -43 -512q-38 -377 -63 -513t-79 -189q-53 -53 -180 -53zM227 135q26 0 40.5 5t28.5 25.5t22.5 54t18.5 99t19.5 150t23.5 216.5q5 44 7 67
q5 49 14.5 140.5t13.5 127.5t9 90.5t6.5 85.5t1.5 57q0 72 -17.5 96.5t-62.5 24.5q-70 0 -90.5 -76.5t-60.5 -462.5q-5 -48 -8 -73q-43 -420 -43 -504q0 -73 16.5 -98t60.5 -25z" />
    <glyph glyph-name="P" unicode="P" horiz-adv-x="548" 
d="M-16 0l159 1518h191q131 0 181 -60t50 -188q0 -68 -18 -223q-7 -73 -13.5 -122t-17 -101.5t-23 -85.5t-31.5 -64.5t-44 -48.5t-58.5 -27t-76.5 -10h-84l-62 -588h-153zM213 729h57q62 0 82.5 59.5t42.5 255.5q17 153 17 211q0 66 -19.5 94.5t-70.5 28.5h-39z" />
    <glyph glyph-name="Q" unicode="Q" horiz-adv-x="579" 
d="M303 -287q-122 0 -162 52t-26 188l4 51q-73 18 -100 76t-27 178q0 108 45 518q40 392 62 500q28 138 79 192q54 60 180 60q134 0 180 -60t46 -211q0 -112 -43 -512q-39 -381 -63 -513t-79 -185q-48 -45 -145 -51l-4 -57q-6 -53 8.5 -71t63.5 -18h34l-12 -137h-41z
M227 135q26 0 40.5 5t28.5 25.5t22.5 54t18.5 99t19.5 150t23.5 216.5q5 44 7 67q5 49 14.5 140.5t13.5 127.5t9 90.5t6.5 85.5t1.5 57q0 72 -17.5 96.5t-62.5 24.5q-70 0 -90.5 -76.5t-60.5 -462.5q-5 -48 -8 -73q-43 -420 -43 -504q0 -74 17 -98.5t60 -24.5z" />
    <glyph glyph-name="R" unicode="R" horiz-adv-x="548" 
d="M272 0l-39 608h-36l-64 -608h-149l159 1518h197q125 0 172 -59.5t47 -188.5q0 -89 -12 -209q-22 -191 -54 -286.5t-112 -137.5l43 -637h-152zM211 750h57q61 0 82.5 62.5t40.5 246.5q17 146 17 201q0 63 -18.5 90.5t-63.5 27.5h-47z" />
    <glyph glyph-name="S" unicode="S" horiz-adv-x="477" 
d="M139 -12q-111 0 -188 18l49 146q63 -17 135 -17q69 0 92.5 40.5t5.5 152.5l-131 809q-14 82 -14 139q0 113 62 182.5t184 69.5q100 0 160 -17l-50 -149q-43 12 -96 12q-73 0 -93 -48t-5 -140l127 -789q18 -123 18 -161q0 -113 -61 -180.5t-195 -67.5z" />
    <glyph glyph-name="T" unicode="T" horiz-adv-x="477" 
d="M78 0l147 1370h-145l14 148h449l-17 -148h-147l-143 -1370h-158z" />
    <glyph glyph-name="U" unicode="U" horiz-adv-x="600" 
d="M227 -10q-116 0 -167.5 46t-52.5 133.5t13 215.5l117 1133h154l-119 -1135q-15 -153 -9 -190q8 -49 51 -56q11 -2 24 -2q44 0 66 26.5t29.5 64t18.5 140.5q1 11 2 17l119 1135h150l-119 -1133q-7 -65 -12 -103.5t-15 -86t-22 -74t-32 -55.5t-46.5 -43t-64 -23.5
t-85.5 -9.5z" />
    <glyph glyph-name="V" unicode="V" horiz-adv-x="552" 
d="M100 -6l-10 1524h156l-6 -893l-7 -299l58 295l176 897h156l-330 -1524h-193z" />
    <glyph glyph-name="W" unicode="W" horiz-adv-x="827" 
d="M82 -6l24 1524h160l-22 -693l-11 -313l56 313l129 693h153l-10 -705l-6 -305l51 305l119 705h147l-280 -1524h-160v735l2 244l-45 -242l-145 -737h-162z" />
    <glyph glyph-name="X" unicode="X" horiz-adv-x="544" 
d="M313 0l-71 516l-166 -516h-150l277 809l-97 709h150l57 -433l140 433h147l-248 -727l107 -791h-146z" />
    <glyph glyph-name="Y" unicode="Y" horiz-adv-x="520" 
d="M106 0l52 510l-74 1008h158l28 -703l179 703h153l-293 -1026l-51 -492h-152z" />
    <glyph glyph-name="Z" unicode="Z" horiz-adv-x="483" 
d="M-53 0l14 123l389 1245h-241l12 150h403l-12 -136l-383 -1239h262l-14 -143h-430z" />
    <glyph glyph-name="bracketleft" unicode="[" horiz-adv-x="456" 
d="M-12 -297l192 1845h281l-12 -133h-132l-165 -1585h133l-13 -127h-284z" />
    <glyph glyph-name="backslash" unicode="\" 
d="M260 0l-176 1518h145l177 -1518h-146z" />
    <glyph glyph-name="bracketright" unicode="]" horiz-adv-x="456" 
d="M-27 -297l15 127h137l166 1585h-133l14 133h283l-193 -1845h-289z" />
    <glyph glyph-name="asciicircum" unicode="^" 
d="M100 1243l144 250h151l90 -250h-120l-58 143l-82 -143h-125z" />
    <glyph glyph-name="underscore" unicode="_" horiz-adv-x="374" 
d="M-135 -229l10 112h438l-10 -112h-438z" />
    <glyph glyph-name="grave" unicode="`" 
d="M260 1243l-104 250h163l62 -250h-121z" />
    <glyph glyph-name="a" unicode="a" horiz-adv-x="512" 
d="M115 -8q-79 0 -110.5 45.5t-31.5 140.5q0 63 13 180q11 99 21.5 164.5t28 119t38.5 83.5t55 50.5t75 28t101 9.5q13 129 7 154q-6 30 -41 33q-8 1 -17 1q-62 0 -113 -14l-32 139q67 23 174 23q91 0 131.5 -30.5t46 -98.5t-7.5 -178l-64 -619q-7 -51 -0.5 -65.5
t39.5 -14.5l-14 -143q-10 -2 -45 -2q-53 0 -72 9.5t-27 33.5q-41 -49 -155 -49zM164 129q50 0 63.5 40t34.5 241q1 11 2 16l27 248q-32 -1 -51 -4.5t-36.5 -17.5t-26.5 -31t-18 -57t-14.5 -83.5t-13.5 -120.5q-12 -105 -12 -153q0 -43 10 -60.5t35 -17.5z" />
    <glyph glyph-name="b" unicode="b" horiz-adv-x="542" 
d="M262 -10q-103 0 -139 47l-23 -41l-129 6l164 1546h148l-45 -442q40 43 135 43q75 0 113 -46.5t38 -148.5q0 -95 -35 -395q-30 -284 -49 -384.5t-61 -141.5q-24 -25 -50 -34t-67 -9zM217 129q57 0 73.5 59t46.5 351q2 17 3 26q29 284 29 342q0 56 -13.5 74t-48.5 18
q-25 0 -39.5 -8.5t-26.5 -35.5t-19.5 -66.5t-16.5 -114t-19 -164.5q-2 -27 -4 -41q-28 -261 -28 -336q0 -60 14 -82t49 -22z" />
    <glyph glyph-name="c" unicode="c" horiz-adv-x="395" 
d="M180 -8q-114 0 -155 58t-41 179q0 89 28 359q30 287 51 373q30 119 95 157q46 27 129 27q71 0 127 -17l-52 -141q-38 10 -69 10q-60 0 -78.5 -66t-48.5 -360q-29 -288 -29 -335q0 -55 15 -79t53 -24q43 0 74 8l22 -131q-47 -18 -121 -18z" />
    <glyph glyph-name="d" unicode="d" horiz-adv-x="542" 
d="M133 -10q-153 0 -153 196q0 128 34 396q29 279 49 381t64 145q44 41 117 41q98 0 133 -41l47 440h149l-161 -1544l-125 -6v47q-16 -22 -56.5 -38.5t-97.5 -16.5zM197 129q57 0 75 66.5t48 346.5q1 10 2 15q28 294 28 338q0 59 -14 80.5t-49 21.5q-56 0 -72 -55.5
t-45 -324.5q-4 -35 -6 -54q-5 -57 -14 -145.5t-12 -129t-3 -69.5q0 -55 13.5 -72.5t48.5 -17.5z" />
    <glyph glyph-name="e" unicode="e" horiz-adv-x="471" 
d="M180 -10q-106 0 -152 55.5t-46 179.5q0 110 30 359q28 268 46.5 364.5t62.5 145.5q49 55 153 55q108 0 145.5 -49t37.5 -160q0 -26 -3 -67t-6.5 -75.5t-11 -111t-12.5 -121.5l-6 -71h-266q-19 -198 -19 -258q0 -61 17 -82t51 -21q49 0 123 19l32 -134q-69 -28 -176 -28z
M227 989q-20 -24 -31.5 -95t-29.5 -261h123q26 266 26 293q0 43 -9.5 59t-37.5 16q-29 0 -41 -12z" />
    <glyph glyph-name="f" unicode="f" horiz-adv-x="366" 
d="M45 997l12 140h84l21 182q12 131 62.5 181t178.5 50q31 0 37 -2l-14 -145h-23q-53 0 -70.5 -20t-25.5 -80l-18 -166h108l-14 -140h-109l-135 -1294h-147l135 1294h-82z" />
    <glyph glyph-name="g" unicode="g" horiz-adv-x="514" 
d="M229 408q-35 0 -51 2q-14 -32 -14 -68q0 -25 15.5 -38.5t53.5 -24.5q120 -33 158 -73t35 -134q-6 -215 -60.5 -297t-205.5 -82q-132 0 -185.5 52.5t-48.5 158.5q6 144 33.5 218t95.5 105q-18 32 -18 84q0 85 39 144q-43 46 -43 155q0 64 12 181q9 88 19.5 143t27 100.5
t42 68.5t62.5 34.5t91 11.5q29 0 63 -6l193 35l-13 -123h-71q24 -47 24 -140q0 -44 -10 -157q-11 -111 -25 -174t-42 -105.5t-68.5 -56.5t-108.5 -14zM233 539q47 0 62 39.5t33 191.5q12 108 12 158q0 45 -12 63.5t-45 18.5q-48 0 -61 -37.5t-32 -192.5q-14 -106 -14 -168
q0 -40 12.5 -56.5t44.5 -16.5zM203 139q-27 8 -56 19q-42 -23 -57 -74t-20 -154q-3 -54 16 -80t76 -26q70 0 91.5 41.5t27.5 175.5q1 45 -15.5 64.5t-62.5 33.5z" />
    <glyph glyph-name="h" unicode="h" horiz-adv-x="548" 
d="M-29 0l164 1548h148l-50 -442q43 43 138 43q74 0 109 -30.5t38 -86.5t-4 -135l-96 -897h-150l88 846q12 92 4.5 122.5t-51.5 30.5q-49 0 -70 -46t-36 -185l-80 -768h-152z" />
    <glyph glyph-name="i" unicode="i" horiz-adv-x="262" 
d="M-27 0l123 1137h150l-119 -1137h-154zM111 1274l22 213h150l-23 -213h-149z" />
    <glyph glyph-name="j" unicode="j" horiz-adv-x="262" 
d="M-102 -297l12 143q33 0 41.5 11t13.5 51l131 1229h150l-131 -1248q-11 -104 -57.5 -145t-159.5 -41zM111 1274l22 213h150l-23 -213h-149z" />
    <glyph glyph-name="k" unicode="k" horiz-adv-x="493" 
d="M-29 0l164 1548h146l-88 -829l169 418h146l-189 -457l95 -680h-150l-61 463l-49 -119l-35 -344h-148z" />
    <glyph glyph-name="l" unicode="l" horiz-adv-x="301" 
d="M135 -2q-93 0 -121 49.5t-18 161.5l141 1339h152l-139 -1335q-5 -42 0.5 -55t31.5 -13h23l-15 -145q-10 -2 -55 -2z" />
    <glyph glyph-name="m" unicode="m" horiz-adv-x="835" 
d="M-29 0l121 1128l125 9l2 -45q35 57 146 57q59 0 90 -13.5t45 -43.5q47 57 159 57q72 0 106.5 -29.5t38 -85.5t-4.5 -137l-97 -897h-149l90 844q12 91 5 123t-50 32q-50 0 -71 -47.5t-33 -185.5l-82 -766h-148l88 844q14 91 7.5 123t-52.5 32q-49 0 -69.5 -47.5
t-34.5 -185.5l-82 -766h-150z" />
    <glyph glyph-name="n" unicode="n" horiz-adv-x="548" 
d="M-29 0l121 1128l125 9l2 -45q33 57 152 57q74 0 109 -30.5t38 -86.5t-4 -135l-96 -897h-150l88 846q12 92 4.5 122.5t-51.5 30.5q-49 0 -70 -46t-36 -185l-80 -768h-152z" />
    <glyph glyph-name="o" unicode="o" horiz-adv-x="522" 
d="M190 -10q-119 0 -162.5 53.5t-43.5 181.5q0 105 28 363q30 285 50 368q29 124 94 163q48 30 135 30q120 0 165.5 -57t45.5 -183q0 -83 -31 -352q-31 -294 -50 -378q-28 -119 -89 -158q-48 -31 -142 -31zM197 129q60 0 77 60t47 346q2 19 3 28q26 276 26 336
q0 59 -14 79.5t-51 20.5q-56 0 -73 -57t-44 -309q-4 -39 -6 -60q-6 -65 -14.5 -149t-12.5 -128t-4 -71q0 -56 15 -76t51 -20z" />
    <glyph glyph-name="p" unicode="p" horiz-adv-x="542" 
d="M-57 -297l149 1425l125 9l2 -45q43 57 154 57q75 0 113 -46.5t38 -148.5q0 -95 -35 -395q-30 -284 -49 -384.5t-61 -141.5q-41 -41 -117 -41q-99 0 -135 39l-35 -328h-149zM217 129q25 0 38 6t25 28.5t18.5 63t15.5 112.5t19 174q3 34 5 52q31 273 31 342q0 56 -13.5 74
t-48.5 18q-25 0 -39.5 -8.5t-26.5 -35.5t-19.5 -66.5t-16.5 -114t-19 -164.5q-2 -27 -4 -41q-28 -261 -28 -336q0 -60 14 -82t49 -22z" />
    <glyph glyph-name="q" unicode="q" horiz-adv-x="542" 
d="M231 -297l35 324q-46 -37 -133 -37q-77 0 -114 44.5t-37 151.5q0 81 32 396q29 279 49 381t64 145q41 41 117 41q101 0 139 -49l20 39l125 -9l-147 -1427h-150zM197 129q57 0 75 64.5t46 325.5q3 25 4 38q28 261 28 338q0 59 -14 80.5t-49 21.5q-25 0 -38 -6t-25 -29
t-18.5 -62t-15.5 -112.5t-19 -172.5q-3 -34 -5 -52q-31 -276 -31 -344q0 -55 13.5 -72.5t48.5 -17.5z" />
    <glyph glyph-name="r" unicode="r" horiz-adv-x="337" 
d="M-29 0l121 1128l125 9v-50q43 53 152 56l-15 -148q-81 -4 -107.5 -48t-41.5 -189l-80 -758h-154z" />
    <glyph glyph-name="s" unicode="s" horiz-adv-x="403" 
d="M109 -10q-112 0 -179 18l50 137q58 -16 104 -16q58 0 77.5 34t2.5 120l-101 518q-18 97 -18 135q0 95 48.5 154t154.5 59q97 0 151 -14l-49 -142q-36 8 -82 8q-51 0 -65.5 -38.5t0.5 -98.5l100 -520q3 -15 6.5 -35.5t5.5 -30t4 -23.5t2.5 -27t0.5 -29q0 -209 -213 -209z
" />
    <glyph glyph-name="t" unicode="t" horiz-adv-x="380" 
d="M217 -2q-113 0 -149 53t-23 166l82 780h-82l12 140h88l48 270l131 41l-33 -311h106l-16 -140h-107l-77 -768q-6 -51 5 -67.5t54 -16.5h35l-15 -145q-12 -2 -59 -2z" />
    <glyph glyph-name="u" unicode="u" horiz-adv-x="538" 
d="M197 -10q-100 0 -147 35t-52 102.5t6 165.5l88 844h150l-86 -834q-16 -100 -8.5 -137t59.5 -37q49 0 62.5 29t23.5 126q1 14 2 21l88 832h143l-86 -844q-7 -59 -12.5 -93t-16.5 -74t-26.5 -61t-41 -40.5t-61.5 -27t-85 -7.5z" />
    <glyph glyph-name="v" unicode="v" horiz-adv-x="458" 
d="M57 -8l-12 1145h154l-6 -633l-9 -213l39 211l123 635h148l-250 -1145h-187z" />
    <glyph glyph-name="w" unicode="w" horiz-adv-x="712" 
d="M39 -8l14 1145h142l-13 -488l-8 -248l51 248l105 488h133l2 -498v-238l43 238l94 498h135l-235 -1145h-148l-4 543v196l-39 -196l-118 -543h-154z" />
    <glyph glyph-name="x" unicode="x" horiz-adv-x="471" 
d="M-80 0l221 610l-86 527h148l49 -306l104 306h138l-201 -553l96 -584h-145l-60 360l-125 -360h-139z" />
    <glyph glyph-name="y" unicode="y" horiz-adv-x="464" 
d="M-39 -297l14 143h25q38 0 48 8.5t20 41.5l14 75l-37 1166h152l4 -521l-2 -223l45 221l110 523h144l-299 -1274q-22 -91 -69 -125.5t-134 -34.5h-35z" />
    <glyph glyph-name="z" unicode="z" horiz-adv-x="399" 
d="M-63 0l10 106l295 891h-187l13 140h352l-12 -107l-297 -899h204l-12 -131h-366z" />
    <glyph glyph-name="braceleft" unicode="{" horiz-adv-x="485" 
d="M203 -299q-100 0 -139.5 49t-26.5 176q7 66 51 273t49 266q6 59 -12 74.5t-84 15.5l14 141q67 0 89 16t28 74q6 56 5.5 267t6.5 278q13 126 61 171.5t150 45.5h101l-15 -133h-51q-49 0 -68 -21t-28 -91q-6 -55 -8 -264t-9 -279q-5 -53 -21.5 -84.5t-51.5 -48.5
q59 -32 47 -135q-7 -67 -50 -278.5t-48 -270.5q-7 -71 7 -92t64 -21h53l-14 -129h-100z" />
    <glyph glyph-name="bar" unicode="|" horiz-adv-x="337" 
d="M92 -297v1847h150v-1847h-150z" />
    <glyph glyph-name="braceright" unicode="}" horiz-adv-x="485" 
d="M-37 -299l12 129h54q51 0 70 21t28 92q4 52 5 264.5t9 284.5q9 103 74 135q-31 17 -41.5 48.5t-5.5 84.5q7 70 50.5 279t49.5 264q7 69 -8.5 90.5t-64.5 21.5h-52l15 133h98q101 0 140.5 -48.5t25.5 -174.5q-6 -69 -50 -276.5t-50 -262.5q-6 -59 12 -74.5t84 -15.5
l-15 -141q-67 0 -88.5 -16t-27.5 -74q-5 -56 -5 -267t-6 -280q-15 -125 -63 -171t-150 -46h-100z" />
    <glyph glyph-name="asciitilde" unicode="~" 
d="M102 823q10 101 38.5 137.5t72.5 36.5q38 0 87.5 -25.5t59.5 -25.5q15 0 21.5 10t9.5 41h113q-8 -104 -35.5 -139t-77.5 -35q-36 0 -84.5 27t-58.5 27q-28 0 -33 -54h-113z" />
    <glyph glyph-name="exclamdown" unicode="&#xa1;" horiz-adv-x="360" 
d="M16 0l131 1096h136l-101 -1096h-166zM156 1290l24 228h166l-24 -228h-166z" />
    <glyph glyph-name="cent" unicode="&#xa2;" horiz-adv-x="434" 
d="M88 -199l21 203q-60 22 -82.5 77t-22.5 148q0 97 31 359q29 286 49 371q30 120 94 158q21 13 49 20l19 180h131l-19 -174q36 -2 78 -15l-51 -139q-38 10 -70 10q-61 0 -80 -66.5t-49 -361.5q-28 -278 -28 -335q0 -56 14.5 -81.5t52.5 -25.5q30 0 76 8l21 -127
q-29 -13 -84 -16l-21 -193h-129z" />
    <glyph glyph-name="sterling" unicode="&#xa3;" horiz-adv-x="546" 
d="M270 -4q-92 0 -145 27q-59 -23 -172 -23l14 143q31 0 47.5 1t31.5 8.5t20.5 15.5t10.5 31.5t5.5 46.5l1.5 69l12 398h-69l12 129h61l15 393q5 162 57 227.5t184 65.5q102 0 172 -33l-69 -133q-40 18 -99 18q-58 0 -78 -34.5t-22 -110.5l-12 -393h137l-10 -129h-131
l-13 -408q-4 -127 -16 -174q12 -2 37 -2q39 0 51 21.5t21 105.5l8 74h125l-11 -86q-15 -152 -48 -200t-128 -48z" />
    <glyph glyph-name="currency" unicode="&#xa4;" horiz-adv-x="550" 
d="M31 797l12 129h96q28 261 49 362t66 158q59 82 192 82q71 0 134 -19l-45 -143q-46 12 -89 12q-71 0 -98.5 -86t-58.5 -366h172l-15 -129h-170q-4 -24 -4 -35q-3 -24 -6 -45h172l-14 -127h-170q-23 -227 -23 -316q0 -82 19.5 -110.5t68.5 -28.5q32 0 80 12l31 -133
q-68 -22 -127 -22q-131 0 -177 61t-46 205q0 117 22 332h-96l14 127h97q3 27 6 57q0 15 2 23h-94z" />
    <glyph glyph-name="yen" unicode="&#xa5;" horiz-adv-x="548" 
d="M25 399l12 127h141l6 62l-71 930h153l19 -678l157 678h154l-272 -955l-5 -37h138l-11 -127h-141l-8 -77h141l-14 -129h-139l-21 -193h-141l20 193h-141l16 129h138l8 77h-139z" />
    <glyph glyph-name="brokenbar" unicode="&#xa6;" horiz-adv-x="337" 
d="M92 791v757h150v-757h-150zM92 -297v760h150v-760h-150z" />
    <glyph glyph-name="section" unicode="&#xa7;" horiz-adv-x="536" 
d="M18 0l15 141q68 0 90.5 21.5t28.5 85.5l14 135q-70 11 -103.5 53t-33.5 133q0 51 18 217q23 213 58.5 293.5t125.5 94.5l11 114q15 135 73.5 182.5t206.5 47.5l-18 -140q-67 0 -89 -22t-30 -86l-10 -94q70 -11 104.5 -54t34.5 -131q0 -49 -18 -215q-10 -93 -18.5 -148
t-22 -105t-32 -75.5t-45.5 -42t-67 -22.5l-16 -154q-12 -134 -70.5 -181.5t-206.5 -47.5zM242 492q23 0 37 7t25 22t18.5 51.5t13.5 80.5t14 125q17 150 17 191q0 56 -14.5 74t-51.5 18q-18 0 -30 -3.5t-23 -16.5t-17.5 -29.5t-13 -52t-12 -75t-12.5 -106.5
q-15 -169 -15 -196q0 -53 14.5 -71.5t49.5 -18.5z" />
    <glyph glyph-name="dieresis" unicode="&#xa8;" 
d="M127 1243l20 191h129l-20 -191h-129zM332 1243l20 191h131l-22 -191h-129z" />
    <glyph glyph-name="copyright" unicode="&#xa9;" horiz-adv-x="655" 
d="M344 260q-80 0 -115 35q-37 39 -46 135t-9 324t8.5 319.5t46.5 132.5q36 39 117 39q44 0 94 -10l-22 -102q-31 8 -70 8q-46 0 -56.5 -68.5t-10.5 -322.5q0 -255 11.5 -322.5t57.5 -67.5q37 0 70 11l22 -92q-51 -19 -98 -19zM328 -8q-115 0 -181 57q-66 60 -90 219
t-24 492q0 315 22 472.5t80 223.5q59 70 193 70q135 0 194 -74q57 -66 79 -223.5t22 -468.5q0 -325 -24 -484.5t-87 -222.5q-61 -61 -184 -61zM328 66q50 0 83.5 11.5t59 45t39.5 79.5t23 130.5t11.5 181t2.5 246.5q0 151 -2.5 247.5t-11.5 180.5t-23 129.5t-39.5 78.5
t-59 44.5t-83.5 11.5t-83.5 -11.5t-59 -44.5t-39.5 -78.5t-23 -129.5t-11.5 -180.5t-2.5 -247.5t2.5 -246.5t11 -180.5t22.5 -130.5t39.5 -79.5t59.5 -45.5t84 -11.5z" />
    <glyph glyph-name="ordfeminine" unicode="&#xaa;" horiz-adv-x="475" 
d="M176 592q-64 0 -90.5 40t-26.5 118q0 56 13 145q8 74 15 120.5t19.5 90t29 67.5t43 43.5t61 27.5t84.5 11q3 35 4.5 55.5t1.5 40t-2.5 28.5t-7.5 16.5t-13 9.5t-20 2q-54 0 -97 -14l-30 114q52 21 147 21q75 0 107.5 -24.5t37 -80t-5.5 -145.5l-53 -498q-3 -39 3.5 -50
t33.5 -11l-14 -121q-8 -2 -41 -2q-42 0 -62 11t-24 38q-13 -30 -38.5 -41.5t-74.5 -11.5zM215 705q40 0 50 35t26 202l20 205q-64 -3 -83 -48t-35 -206q-11 -78 -11 -127q0 -34 7 -47.5t26 -13.5zM43 369l12 116h307l-12 -116h-307z" />
    <glyph glyph-name="guillemotleft" unicode="&#xab;" horiz-adv-x="630" 
d="M111 0l-66 567l182 570h135l-176 -570l58 -567h-133zM340 0l-64 567l183 570h133l-176 -570l57 -567h-133z" />
    <glyph glyph-name="logicalnot" unicode="&#xac;" horiz-adv-x="1703" 
d="M258 246q-88 105 -136 237t-48 277q0 144 48 276t136 236q6 -4 14 -12q-85 -103 -131.5 -231.5t-46.5 -268.5q0 -285 180 -500zM467 432q-117 143 -117 328q0 183 115 327q3 -2 8 -7t8 -7q-110 -136 -110 -313q0 -182 110 -314zM541 498q-92 116 -92 262t92 262
q3 -2 8 -7t8 -7q-88 -109 -88 -248t88 -248q-3 -2 -8 -7t-8 -7zM647 592q-57 72 -57 168q0 97 57 166l15 -15q-52 -69 -52 -151q0 -84 54 -154q-3 -2 -8.5 -7t-8.5 -7zM715 655q-33 48 -33 105q0 56 33 104q3 -2 8 -7t8 -7q-29 -44 -29 -90t29 -90q-3 -2 -16 -15zM774 709
q-14 25 -14 51t14 51l12 -10q-10 -20 -10 -41t10 -41q-4 -4 -12 -10zM852 123q-236 0 -412 158l2.5 2.5l5 5l5.5 5.5t2 1q171 -152 397 -152q227 0 395 152q2 -3 7.5 -8t7.5 -8q-177 -156 -410 -156zM852 664q-31 0 -55 18l12 12q21 -14 43 -14q26 0 43 14q4 -4 10 -12
q-21 -18 -53 -18zM987 653q-7 10 -14 15q28 42 28 92q0 51 -28 90l2.5 2.5t5 4.5t5.5 5t1 2q35 -44 35 -104t-35 -107zM598 551q-72 91 -72 209q0 119 74 209l14 -15q-67 -87 -67 -194q0 -108 67 -195q-10 -10 -16 -14zM852 -35q-145 0 -278 52.5t-238 146.5l14 16
q102 -92 231 -143t271 -51q285 0 500 192q0 1 3.5 -2.5t6.5 -7.5l4 -4q-104 -95 -236 -147t-278 -52zM852 248q-189 0 -330 125l15 16q134 -121 315 -121q182 0 313 121q2 -3 7.5 -8t7.5 -8q-138 -125 -328 -125zM852 348q-145 0 -264 101l14 14q108 -94 250 -94
q143 0 248 94q2 -3 7 -8.5t7 -8.5q-112 -98 -262 -98zM852 428q-116 0 -211 78l14 16q86 -73 197 -73t197 73q4 -4 12 -16q-91 -78 -209 -78zM852 543q-77 0 -135 49l14 16q51 -45 121 -45q68 0 119 45q2 -3 7 -8t7 -8q-58 -49 -133 -49zM733 911q-4 3 -7 6.5t-6 6.5l-3 4
q58 49 135 49t135 -49l-16 -17q-51 45 -119 45t-119 -45zM1167 1130q-134 121 -315 121q-179 0 -313 -118l-15 14q141 125 328 125q189 0 330 -125q-4 -6 -15 -17zM930 709l-12 10q10 20 10 41t-10 41l12 10q14 -25 14 -51t-14 -51zM958 682q-10 10 -16 14q21 32 21 64
t-21 63l16 15q25 -36 25 -78t-25 -78zM1020 627q-6 4 -16 14q38 50 38 119t-38 119l14 14q45 -57 45 -133q0 -71 -43 -133zM1106 551q-3 2 -8 7t-8 7q67 87 67 195t-70 194l17 15q74 -90 74 -209q0 -118 -72 -209zM1163 498q-10 10 -16 14q88 109 88 248t-88 248l16 14
q92 -116 92 -262t-92 -262zM1237 432q-6 4 -16 14q112 134 112 314q0 182 -112 313l16 14q117 -139 117 -327q0 -189 -117 -328zM1329 350q-2 2 -7 6t-7 6q141 175 141 398q0 227 -143 395l16 14q148 -179 148 -409q0 -231 -148 -410zM1446 246q-6 6 -16 14q180 215 180 500
t-180 500l16 14q88 -105 136 -237t48 -277q0 -144 -48 -276t-136 -238zM375 348q-148 182 -148 412q0 229 146 409q2 -2 7.5 -6.5t8.5 -7.5q-141 -170 -141 -395q0 -228 141 -398zM684 627q-43 59 -43 133t43 133q6 -4 16 -14q-38 -50 -38 -119q0 -67 38 -117zM745 682
q-24 34 -24 78t24 78q2 -3 4.5 -5.5t6 -5.5t4.5 -4q-19 -34 -19 -63q0 -30 19 -64zM809 825l-10 13q21 18 53 18t53 -18l-10 -13q-23 15 -43 15q-25 0 -43 -15zM786 852l-14 14q37 29 80 29q41 0 78 -29q-8 -8 -12 -14q-28 25 -66 25q-34 0 -66 -25zM760 881l-15 16
q45 39 107 39q61 0 106 -39l-14 -16q-37 34 -92 34t-92 -34zM604 1057l-14 16q112 98 262 98q151 0 262 -100q1 0 -2 -3.5t-6 -7.5l-4 -3q-108 94 -250 94q-143 0 -248 -94zM852 492q-100 0 -170 61l14 16q70 -57 156 -57q87 0 154 57l14 -14q-73 -63 -168 -63zM852 584
q-61 0 -109 39l15 16q47 -35 94 -35q51 0 92 35l14 -16q-45 -39 -106 -39zM852 625q-43 0 -82 28l14 15q36 -25 68 -25q34 0 66 25l14 -15q-36 -28 -80 -28zM698 950l-14 15q73 63 168 63q98 0 168 -61l-14 -17q-68 58 -154 58q-87 0 -154 -58zM655 997l-14 17q91 78 211 78
q119 0 209 -80l-12 -15q-83 74 -197 74q-110 0 -197 -74zM1249 1223q-166 153 -397 153q-227 0 -397 -151l-15 14q179 158 412 158t412 -158zM352 1339l-14 17q104 95 236 146.5t278 51.5q145 0 278 -52t238 -146l-14 -17q-102 93 -231 144t-271 51t-270 -51t-230 -144z
M1057 594l-15 14q52 69 52 152t-54 153l17 15q57 -72 57 -168q0 -97 -57 -166z" />
    <glyph glyph-name="registered" unicode="&#xae;" horiz-adv-x="655" 
d="M328 -8q-115 0 -181 57q-66 60 -90 219t-24 492q0 315 22 472.5t80 223.5q59 70 193 70q135 0 194 -74q57 -66 79 -223.5t22 -468.5q0 -325 -24 -484.5t-87 -222.5q-61 -61 -184 -61zM328 66q50 0 83.5 11.5t59 45t39.5 79.5t23 130.5t11.5 181t2.5 246.5
q0 151 -2.5 247.5t-11.5 180.5t-23 129.5t-39.5 78.5t-59 44.5t-83.5 11.5t-83.5 -11.5t-59 -44.5t-39.5 -78.5t-23 -129.5t-11.5 -180.5t-2.5 -247.5t2.5 -246.5t11 -180.5t22.5 -130.5t39.5 -79.5t59.5 -45.5t84 -11.5zM369 289l-66 385h-20v-385h-95v940h144q39 0 65 -12
t41.5 -31.5t23.5 -57t10.5 -76t2.5 -100.5q0 -118 -15 -178t-65 -86l70 -399h-96zM283 758h39q39 0 48 37t9 151q0 42 -0.5 64t-2 48t-5 38t-10 23.5t-16 15.5t-23.5 4h-39v-381z" />
    <glyph glyph-name="macron" unicode="&#xaf;" 
d="M125 1245l14 137h342l-16 -137h-340z" />
    <glyph glyph-name="macron" unicode="&#x2c9;" 
d="M125 1245l14 137h342l-16 -137h-340z" />
    <glyph glyph-name="degree" unicode="&#xb0;" horiz-adv-x="489" 
d="M227 582q-92 0 -130 43.5t-38 152.5q0 46 23 281q8 79 14 129t15 102.5t17.5 83t21.5 61t28.5 45.5t37.5 27.5t47.5 16.5t60.5 4q96 0 133 -44t37 -153q0 -77 -23 -282q-9 -80 -15 -130.5t-15 -103.5t-17.5 -82.5t-22 -60t-28.5 -44.5t-37 -26.5t-48 -16t-61 -3.5z
M240 711q16 0 26 4t19.5 20t15 36t12.5 63.5t12.5 89.5t14.5 127q20 205 20 252q0 52 -10.5 69t-38.5 17q-16 0 -26 -4t-19.5 -19.5t-15 -35.5t-12.5 -63t-12.5 -89.5t-14.5 -126.5q-21 -215 -21 -252q0 -52 11 -70t39 -18z" />
    <glyph glyph-name="plusminus" unicode="&#xb1;" horiz-adv-x="925" 
d="M279 -297l135 1294h-144l-135 -1294h-151l137 1294h-80l12 140h82l21 182q14 131 62 181t165 50q23 0 29 -2l-15 -145h-8q-46 0 -63 -20.5t-23 -79.5l-18 -166h143l21 182q12 130 60 180.5t165 50.5q23 0 31 -2l-15 -145h-8q-48 0 -64 -20t-22 -80l-18 -166h84l-15 -140
h-84l-135 -1294h-149zM762 -2q-67 0 -99.5 24t-38.5 70.5t1 116.5l139 1339h149l-139 -1335q-5 -41 2 -54.5t33 -13.5h20l-14 -145q-10 -2 -53 -2z" />
    <glyph glyph-name="twosuperior" unicode="&#xb2;" horiz-adv-x="456" 
d="M57 567l11 111l233 622q16 43 16 66q0 22 -13 31.5t-42 9.5q-50 0 -84 -12l-28 108q44 21 133 21q86 0 122.5 -28.5t36.5 -92.5q0 -65 -32 -152l-213 -573h170l-11 -111h-299z" />
    <glyph glyph-name="threesuperior" unicode="&#xb3;" horiz-adv-x="440" 
d="M168 561q-72 0 -127 21l43 110q51 -14 76 -14q48 0 61.5 28t24.5 140q4 40 6 62.5t3 44.5t-2.5 31.5t-7.5 18.5t-15.5 11.5t-22.5 4t-31 1.5h-31l13 117h39q53 0 67 23t23 124q10 76 3 99.5t-46 23.5q-49 0 -80 -8l-19 110q56 15 129 15q90 0 117 -37q33 -40 17 -178
q-12 -112 -23 -154t-41 -61q32 -17 35 -74t-12 -178q-12 -112 -25.5 -165t-44.5 -79q-40 -37 -129 -37z" />
    <glyph glyph-name="acute" unicode="&#xb4;" 
d="M207 1243l117 250h165l-159 -250h-123z" />
    <glyph glyph-name="mu" unicode="&#xb5;" horiz-adv-x="542" 
d="M-59 -297l151 1434h150l-84 -801q-12 -136 -6 -166q14 -39 53 -41q51 0 66.5 32.5t27.5 160.5l86 815h147l-88 -830q-7 -74 -15 -119.5t-24 -87.5t-41.5 -63.5t-66 -34t-98.5 -12.5q-52 0 -76 24l-31 -311h-151z" />
    <glyph glyph-name="mu" unicode="&#x3bc;" horiz-adv-x="542" 
d="M-59 -297l151 1434h150l-84 -801q-12 -136 -6 -166q14 -39 53 -41q51 0 66.5 32.5t27.5 160.5l86 815h147l-88 -830q-7 -74 -15 -119.5t-24 -87.5t-41.5 -63.5t-66 -34t-98.5 -12.5q-52 0 -76 24l-31 -311h-151z" />
    <glyph glyph-name="paragraph" unicode="&#xb6;" horiz-adv-x="555" 
d="M86 0l66 623q-53 27 -75 85t-22 152q0 43 17 217q6 62 11 102.5t13 87.5t17.5 77t23.5 61.5t32 50t41.5 34t54.5 22t69 6.5h239l-159 -1518h-142l62 604h-43l-64 -604h-141zM287 729h63l66 649h-62q-25 0 -42.5 -6.5t-31 -26t-22 -40.5t-16.5 -63.5t-13 -82t-12 -108.5
q-14 -159 -14 -187q0 -72 19 -103.5t65 -31.5z" />
    <glyph glyph-name="periodcentered" unicode="&#xb7;" horiz-adv-x="272" 
d="M37 596l24 231h166l-24 -231h-166z" />
    <glyph glyph-name="periodcentered" unicode="&#x2219;" horiz-adv-x="272" 
d="M37 596l24 231h166l-24 -231h-166z" />
    <glyph glyph-name="cedilla" unicode="&#xb8;" 
d="M156 -377q-67 0 -125 19l37 92q35 -13 73 -13q37 0 48.5 14t17.5 66q4 45 -9 56.5t-53 9.5l-30 29l30 120h91l-27 -92q56 3 79.5 -26.5t16.5 -110.5q-12 -100 -43 -132t-106 -32z" />
    <glyph glyph-name="onesuperior" unicode="&#xb9;" horiz-adv-x="389" 
d="M125 567l88 832h-74l13 119h202l-100 -951h-129z" />
    <glyph glyph-name="ordmasculine" unicode="&#xba;" horiz-adv-x="479" 
d="M238 588q-104 0 -140.5 44.5t-36.5 151.5q0 80 23 285q8 78 13 120.5t13.5 97t15.5 81.5t19.5 60t26 47.5t34 29t45 19t56.5 4.5q99 0 134.5 -45.5t35.5 -151.5q0 -98 -20 -278q-8 -77 -14 -124t-14 -100t-16 -82t-20 -60.5t-25.5 -47t-33 -29t-43 -18t-53.5 -4.5z
M233 707q14 0 23.5 4t18 19t14.5 36t13 64t13 93.5t15 133.5q22 225 22 260q0 53 -10.5 70.5t-36.5 17.5q-22 0 -33.5 -9t-22.5 -51t-18 -101t-20 -187q-23 -188 -23 -264q0 -52 10 -69t35 -17zM39 369l14 116h316l-13 -116h-317z" />
    <glyph glyph-name="guillemotright" unicode="&#xbb;" horiz-adv-x="630" 
d="M0 0l176 567l-55 570h131l63 -570l-180 -567h-135zM231 0l175 567l-58 570h135l62 -570l-183 -567h-131z" />
    <glyph glyph-name="onequarter" unicode="&#xbc;" horiz-adv-x="860" 
d="M102 0l469 1518h138l-469 -1518h-138zM406 182l10 105l229 665h119l-225 -659h65l60 229h79l-24 -229h55l-10 -111h-57l-19 -182h-117l19 182h-184zM90 567l88 832h-72l13 119h203l-101 -951h-131z" />
    <glyph glyph-name="onehalf" unicode="&#xbd;" horiz-adv-x="905" 
d="M102 0l469 1518h138l-469 -1518h-138zM90 567l88 832h-72l13 119h203l-101 -951h-131zM467 0l12 111l234 622q16 54 16 66q0 22 -13 31.5t-42 9.5q-52 0 -84 -11l-31 107q41 20 133 20q87 0 124.5 -28t37.5 -92q0 -66 -33 -152l-213 -573h170l-10 -111h-301z" />
    <glyph glyph-name="threequarters" unicode="&#xbe;" horiz-adv-x="927" 
d="M168 0l469 1518h137l-469 -1518h-137zM475 182l10 105l228 665h116l-225 -659h66l57 229h80l-25 -229h60l-13 -111h-59l-18 -182h-117l20 182h-180zM143 561q-71 0 -127 21l43 110q51 -14 78 -14q46 0 60 28t26 140q6 56 7.5 82.5t0.5 49.5t-11.5 29.5t-23 9.5t-40.5 3
h-35l12 117h39q52 0 66.5 23.5t23.5 123.5q11 76 4 99.5t-47 23.5q-51 0 -80 -8l-18 110q56 15 129 15q92 0 117 -37q19 -22 22 -68t-4 -110q-11 -109 -23.5 -152.5t-42.5 -62.5q33 -17 36 -73.5t-13 -178.5q-10 -111 -23.5 -164.5t-44.5 -79.5q-43 -37 -131 -37z" />
    <glyph glyph-name="questiondown" unicode="&#xbf;" horiz-adv-x="479" 
d="M195 -10q-213 0 -213 168q0 52 10 93t41 130l125 369q30 90 41.5 156t21.5 188h148q-14 -151 -25 -216.5t-45 -162.5l-135 -385q-17 -48 -23.5 -80.5t-3.5 -59.5t23 -40t57 -13q62 0 121 19l47 -138q-72 -28 -190 -28zM231 1309l23 209h164l-23 -209h-164z" />
    <glyph glyph-name="Agrave" unicode="&#xc0;" horiz-adv-x="557" 
d="M-70 0l338 1524h176l23 -1524h-158l2 324h-164l-63 -324h-154zM180 473h131l2 498l6 200l-38 -200zM330 1595l-104 250h163l62 -250h-121z" />
    <glyph glyph-name="Aacute" unicode="&#xc1;" horiz-adv-x="557" 
d="M-70 0l338 1524h176l23 -1524h-158l2 324h-164l-63 -324h-154zM180 473h131l2 498l6 200l-38 -200zM277 1595l117 250h165l-159 -250h-123z" />
    <glyph glyph-name="Acircumflex" unicode="&#xc2;" horiz-adv-x="557" 
d="M-70 0l338 1524h176l23 -1524h-158l2 324h-164l-63 -324h-154zM180 473h131l2 498l6 200l-38 -200zM170 1595l144 250h151l90 -250h-120l-58 143l-82 -143h-125z" />
    <glyph glyph-name="Atilde" unicode="&#xc3;" horiz-adv-x="557" 
d="M-70 0l338 1524h176l23 -1524h-158l2 324h-164l-63 -324h-154zM180 473h131l2 498l6 200l-38 -200zM172 1595q10 101 38.5 137.5t72.5 36.5q38 0 87.5 -25.5t59.5 -25.5q15 0 21.5 10t9.5 41h113q-8 -104 -35.5 -139t-77.5 -35q-36 0 -84.5 26.5t-58.5 26.5
q-15 0 -22.5 -11t-10.5 -42h-113z" />
    <glyph glyph-name="Adieresis" unicode="&#xc4;" horiz-adv-x="557" 
d="M-70 0l338 1524h176l23 -1524h-158l2 324h-164l-63 -324h-154zM180 473h131l2 498l6 200l-38 -200zM197 1595l20 191h129l-20 -191h-129zM402 1595l20 191h131l-22 -191h-129z" />
    <glyph glyph-name="Aring" unicode="&#xc5;" horiz-adv-x="557" 
d="M-70 0l328 1485q-28 37 -14 145q4 44 10.5 71.5t20.5 52.5t40 36.5t66 11.5q57 0 84.5 -24t29.5 -64.5t-3 -93.5q-10 -108 -48 -141l23 -1479h-158l2 324h-164l-63 -324h-154zM180 473h131l2 498l6 200l-38 -200zM358 1526q27 0 37.5 19.5t16.5 76.5q5 60 -1 80t-34 20
t-37 -20t-14 -80q-7 -56 -1.5 -76t33.5 -20z" />
    <glyph glyph-name="AE" unicode="&#xc6;" horiz-adv-x="780" 
d="M-72 0l430 1518h461l-16 -150h-215l-53 -520h200l-16 -146h-201l-57 -559h215l-14 -143h-367l37 350h-158l-92 -350h-154zM209 477h137l90 864z" />
    <glyph glyph-name="Ccedilla" unicode="&#xc7;" horiz-adv-x="434" 
d="M133 -377q-67 0 -125 19l37 92q35 -13 74 -13q37 0 48 13.5t17 66.5q4 45 -8.5 56.5t-52.5 9.5l-31 29l27 106q-71 21 -97 81.5t-26 176.5q0 103 43 516q37 368 51 451q29 178 86 237q62 62 193 62q84 0 141 -17l-47 -145q-42 10 -96 10q-77 0 -99.5 -82t-64.5 -475
q-4 -36 -6 -55q-43 -391 -43 -492q0 -81 20 -107t74 -26q48 0 86 10l22 -137q-41 -20 -127 -20h-24l-19 -66q56 3 80 -26.5t17 -110.5q-12 -99 -43.5 -131.5t-106.5 -32.5z" />
    <glyph glyph-name="Egrave" unicode="&#xc8;" horiz-adv-x="471" 
d="M-16 0l159 1518h369l-16 -150h-215l-56 -520h209l-14 -146h-211l-59 -559h217l-15 -143h-368zM289 1595l-104 250h163l62 -250h-121z" />
    <glyph glyph-name="Eacute" unicode="&#xc9;" horiz-adv-x="471" 
d="M236 1595l116 250h166l-160 -250h-122zM-16 0l159 1518h369l-16 -150h-215l-56 -520h209l-14 -146h-211l-59 -559h217l-15 -143h-368z" />
    <glyph glyph-name="Ecircumflex" unicode="&#xca;" horiz-adv-x="471" 
d="M129 1595l143 250h152l90 -250h-121l-57 144l-82 -144h-125zM-16 0l159 1518h369l-16 -150h-215l-56 -520h209l-14 -146h-211l-59 -559h217l-15 -143h-368z" />
    <glyph glyph-name="Edieresis" unicode="&#xcb;" horiz-adv-x="471" 
d="M156 1595l20 191h129l-20 -191h-129zM360 1595l21 191h131l-23 -191h-129zM-16 0l159 1518h369l-16 -150h-215l-56 -520h209l-14 -146h-211l-59 -559h217l-15 -143h-368z" />
    <glyph glyph-name="Igrave" unicode="&#xcc;" horiz-adv-x="288" 
d="M174 1595l-80 252h162l41 -252h-123zM-14 0l159 1518h154l-160 -1518h-153z" />
    <glyph glyph-name="Iacute" unicode="&#xcd;" horiz-adv-x="288" 
d="M164 1595l94 252h170l-139 -252h-125zM-14 0l159 1518h154l-160 -1518h-153z" />
    <glyph glyph-name="Icircumflex" unicode="&#xce;" horiz-adv-x="288" 
d="M-14 0l159 1518h154l-160 -1518h-153zM39 1595l143 250h152l90 -250h-121l-57 144l-82 -144h-125z" />
    <glyph glyph-name="Idieresis" unicode="&#xcf;" horiz-adv-x="288" 
d="M-14 0l159 1518h154l-160 -1518h-153zM66 1595l20 191h129l-20 -191h-129zM270 1595l21 191h131l-23 -191h-129z" />
    <glyph glyph-name="Eth" unicode="&#xd0;" horiz-adv-x="583" 
d="M0 709l18 135h54l71 674h228q116 0 166.5 -60.5t50.5 -204.5q0 -125 -43 -508q-38 -373 -60 -492.5t-73 -180.5q-56 -72 -191 -72h-237l73 709h-57zM154 137h59q59 0 80 37q29 36 46.5 141.5t53.5 438.5q41 420 41 485q0 80 -21.5 108.5t-62.5 28.5h-67l-56 -532h88
l-14 -135h-88z" />
    <glyph glyph-name="Ntilde" unicode="&#xd1;" horiz-adv-x="604" 
d="M-18 0l161 1518h168l54 -627l16 -264l96 891h146l-160 -1518h-148l-67 758l-17 235l-104 -993h-145zM196 1595q10 101 38.5 137.5t72.5 36.5q38 0 87.5 -25.5t59.5 -25.5q15 0 21.5 10t9.5 41h113q-8 -104 -35.5 -139t-77.5 -35q-36 0 -84.5 26.5t-58.5 26.5
q-15 0 -22.5 -11t-10.5 -42h-113z" />
    <glyph glyph-name="Ograve" unicode="&#xd2;" horiz-adv-x="579" 
d="M219 -10q-133 0 -180 59t-47 209q0 108 45 518q40 390 62 497q28 140 79 193q54 62 180 62q134 0 180 -60t46 -211q0 -112 -43 -512q-38 -377 -63 -513t-79 -189q-53 -53 -180 -53zM227 135q26 0 40.5 5t28.5 25.5t22.5 54t18.5 99t19.5 150t23.5 216.5q5 44 7 67
q5 49 14.5 140.5t13.5 127.5t9 90.5t6.5 85.5t1.5 57q0 72 -17.5 96.5t-62.5 24.5q-70 0 -90.5 -76.5t-60.5 -462.5q-5 -48 -8 -73q-43 -420 -43 -504q0 -73 16.5 -98t60.5 -25zM342 1595l-104 250h163l62 -250h-121z" />
    <glyph glyph-name="Oacute" unicode="&#xd3;" horiz-adv-x="579" 
d="M289 1595l117 250h165l-159 -250h-123zM219 -10q-133 0 -180 59t-47 209q0 108 45 518q40 390 62 497q28 140 79 193q54 62 180 62q134 0 180 -60t46 -211q0 -112 -43 -512q-38 -377 -63 -513t-79 -189q-53 -53 -180 -53zM227 135q26 0 40.5 5t28.5 25.5t22.5 54t18.5 99
t19.5 150t23.5 216.5q5 44 7 67q5 49 14.5 140.5t13.5 127.5t9 90.5t6.5 85.5t1.5 57q0 72 -17.5 96.5t-62.5 24.5q-70 0 -90.5 -76.5t-60.5 -462.5q-5 -48 -8 -73q-43 -420 -43 -504q0 -73 16.5 -98t60.5 -25z" />
    <glyph glyph-name="Ocircumflex" unicode="&#xd4;" horiz-adv-x="579" 
d="M182 1595l144 250h151l90 -250h-121l-57 144l-82 -144h-125zM219 -10q-133 0 -180 59t-47 209q0 108 45 518q40 390 62 497q28 140 79 193q54 62 180 62q134 0 180 -60t46 -211q0 -112 -43 -512q-38 -377 -63 -513t-79 -189q-53 -53 -180 -53zM227 135q26 0 40.5 5
t28.5 25.5t22.5 54t18.5 99t19.5 150t23.5 216.5q5 44 7 67q5 49 14.5 140.5t13.5 127.5t9 90.5t6.5 85.5t1.5 57q0 72 -17.5 96.5t-62.5 24.5q-70 0 -90.5 -76.5t-60.5 -462.5q-5 -48 -8 -73q-43 -420 -43 -504q0 -73 16.5 -98t60.5 -25z" />
    <glyph glyph-name="Otilde" unicode="&#xd5;" horiz-adv-x="579" 
d="M219 -10q-133 0 -180 59t-47 209q0 108 45 518q40 390 62 497q28 140 79 193q54 62 180 62q134 0 180 -60t46 -211q0 -112 -43 -512q-38 -377 -63 -513t-79 -189q-53 -53 -180 -53zM227 135q26 0 40.5 5t28.5 25.5t22.5 54t18.5 99t19.5 150t23.5 216.5q5 44 7 67
q5 49 14.5 140.5t13.5 127.5t9 90.5t6.5 85.5t1.5 57q0 72 -17.5 96.5t-62.5 24.5q-70 0 -90.5 -76.5t-60.5 -462.5q-5 -48 -8 -73q-43 -420 -43 -504q0 -73 16.5 -98t60.5 -25zM184 1595q10 101 38.5 137.5t72.5 36.5q38 0 87.5 -25.5t59.5 -25.5q15 0 21.5 10t9.5 41h113
q-8 -104 -35.5 -139t-77.5 -35q-36 0 -84.5 26.5t-58.5 26.5q-15 0 -22.5 -11t-10.5 -42h-113z" />
    <glyph glyph-name="Odieresis" unicode="&#xd6;" horiz-adv-x="579" 
d="M209 1595l20 191h129l-20 -191h-129zM414 1595l20 191h131l-22 -191h-129zM219 -10q-133 0 -180 59t-47 209q0 108 45 518q40 390 62 497q28 140 79 193q54 62 180 62q134 0 180 -60t46 -211q0 -112 -43 -512q-38 -377 -63 -513t-79 -189q-53 -53 -180 -53zM227 135
q26 0 40.5 5t28.5 25.5t22.5 54t18.5 99t19.5 150t23.5 216.5q5 44 7 67q5 49 14.5 140.5t13.5 127.5t9 90.5t6.5 85.5t1.5 57q0 72 -17.5 96.5t-62.5 24.5q-70 0 -90.5 -76.5t-60.5 -462.5q-5 -48 -8 -73q-43 -420 -43 -504q0 -73 16.5 -98t60.5 -25z" />
    <glyph glyph-name="multiply" unicode="&#xd7;" horiz-adv-x="600" 
d="M145 520l-84 90l148 133l-119 131l100 91l117 -134l148 134l82 -91l-148 -133l119 -131l-98 -90l-119 131z" />
    <glyph glyph-name="Oslash" unicode="&#xd8;" horiz-adv-x="579" 
d="M217 -10q-39 0 -55 2l-19 -76h-120l28 121q-31 29 -43 82t-12 139q0 115 41 518q37 360 61.5 496.5t77.5 193.5q56 62 184 62q24 0 56 -4l20 80h123l-33 -123q60 -57 60 -224q0 -93 -45 -512q-41 -404 -62 -510q-28 -143 -80 -192q-30 -30 -72.5 -41.5t-109.5 -11.5z
M225 117q49 0 70 28q32 42 57 230q13 95 43 377q6 65 19.5 194.5t17.5 179.5l-244 -1005q20 -4 37 -4zM186 762q-8 -74 -21.5 -194.5t-17.5 -166.5l242 988q-10 4 -35 4q-49 0 -70 -27q-31 -41 -56 -223q-12 -98 -42 -381z" />
    <glyph glyph-name="Ugrave" unicode="&#xd9;" horiz-adv-x="600" 
d="M227 -10q-116 0 -167.5 46t-52.5 133.5t13 215.5l117 1133h154l-119 -1135q-15 -153 -9 -190q8 -49 51 -56q11 -2 24 -2q44 0 66 26.5t29.5 64t18.5 140.5q1 11 2 17l119 1135h150l-119 -1133q-7 -65 -12 -103.5t-15 -86t-22 -74t-32 -55.5t-46.5 -43t-64 -23.5
t-85.5 -9.5zM352 1595l-104 250h163l62 -250h-121z" />
    <glyph glyph-name="Uacute" unicode="&#xda;" horiz-adv-x="600" 
d="M299 1595l117 250h166l-160 -250h-123zM227 -10q-116 0 -167.5 46t-52.5 133.5t13 215.5l117 1133h154l-119 -1135q-15 -153 -9 -190q8 -49 51 -56q11 -2 24 -2q44 0 66 26.5t29.5 64t18.5 140.5q1 11 2 17l119 1135h150l-119 -1133q-7 -65 -12 -103.5t-15 -86t-22 -74
t-32 -55.5t-46.5 -43t-64 -23.5t-85.5 -9.5z" />
    <glyph glyph-name="Ucircumflex" unicode="&#xdb;" horiz-adv-x="600" 
d="M193 1595l143 250h151l91 -250h-121l-58 144l-82 -144h-124zM227 -10q-116 0 -167.5 46t-52.5 133.5t13 215.5l117 1133h154l-119 -1135q-15 -153 -9 -190q8 -49 51 -56q11 -2 24 -2q44 0 66 26.5t29.5 64t18.5 140.5q1 11 2 17l119 1135h150l-119 -1133
q-7 -65 -12 -103.5t-15 -86t-22 -74t-32 -55.5t-46.5 -43t-64 -23.5t-85.5 -9.5z" />
    <glyph glyph-name="Udieresis" unicode="&#xdc;" horiz-adv-x="600" 
d="M219 1595l21 191h129l-21 -191h-129zM424 1595l20 191h131l-22 -191h-129zM227 -10q-116 0 -167.5 46t-52.5 133.5t13 215.5l117 1133h154l-119 -1135q-15 -153 -9 -190q8 -49 51 -56q11 -2 24 -2q44 0 66 26.5t29.5 64t18.5 140.5q1 11 2 17l119 1135h150l-119 -1133
q-7 -65 -12 -103.5t-15 -86t-22 -74t-32 -55.5t-46.5 -43t-64 -23.5t-85.5 -9.5z" />
    <glyph glyph-name="Yacute" unicode="&#xdd;" horiz-adv-x="520" 
d="M106 0l52 510l-74 1008h158l28 -703l179 703h153l-293 -1026l-51 -492h-152zM260 1595l117 250h165l-159 -250h-123z" />
    <glyph glyph-name="Thorn" unicode="&#xde;" horiz-adv-x="550" 
d="M-16 0l159 1518h154l-31 -263h41q131 0 180.5 -59.5t49.5 -187.5q0 -63 -15 -224q-8 -66 -13.5 -107.5t-14 -91t-18 -79t-23.5 -62t-32 -50.5t-42 -34t-54.5 -22t-68.5 -6h-86l-33 -332h-153zM184 465h60q61 0 82 61t41 256q16 144 16 209q0 66 -19 94.5t-69 28.5h-43z
" />
    <glyph glyph-name="germandbls" unicode="&#xdf;" horiz-adv-x="544" 
d="M-59 -297l172 1618q12 130 67 185t182 55q107 0 148 -42.5t41 -158.5q0 -80 -14 -209q-19 -180 -39.5 -250.5t-61.5 -95.5q33 -21 47.5 -57t14.5 -107q0 -57 -17 -242q-10 -97 -19.5 -158t-25.5 -109t-32 -71.5t-47.5 -38.5t-64.5 -18.5t-89 -3.5h-23l17 135h18
q26 0 38.5 3t28 16.5t24 45t18 85t18.5 139.5q10 105 10 184q0 71 -15 93t-58 22h-21l14 137h17q20 0 31.5 2t22.5 12.5t17 25.5t13 48.5t12 73t12 108.5q17 163 17 205q0 53 -14 70.5t-50 17.5q-51 0 -67 -24.5t-23 -85.5l-168 -1610h-151z" />
    <glyph glyph-name="agrave" unicode="&#xe0;" horiz-adv-x="512" 
d="M115 -8q-79 0 -110.5 45.5t-31.5 140.5q0 63 13 180q11 99 21.5 164.5t28 119t38.5 83.5t55 50.5t75 28t101 9.5q13 129 7 154q-6 30 -41 33q-8 1 -17 1q-62 0 -113 -14l-32 139q67 23 174 23q91 0 131.5 -30.5t46 -98.5t-7.5 -178l-64 -619q-7 -51 -0.5 -65.5
t39.5 -14.5l-14 -143q-10 -2 -45 -2q-53 0 -72 9.5t-27 33.5q-41 -49 -155 -49zM164 129q50 0 63.5 40t34.5 241q1 11 2 16l27 248q-32 -1 -51 -4.5t-36.5 -17.5t-26.5 -31t-18 -57t-14.5 -83.5t-13.5 -120.5q-12 -105 -12 -153q0 -43 10 -60.5t35 -17.5zM270 1243l-104 250
h163l62 -250h-121z" />
    <glyph glyph-name="aacute" unicode="&#xe1;" horiz-adv-x="512" 
d="M115 -8q-79 0 -110.5 45.5t-31.5 140.5q0 63 13 180q11 99 21.5 164.5t28 119t38.5 83.5t55 50.5t75 28t101 9.5q13 129 7 154q-6 30 -41 33q-8 1 -17 1q-62 0 -113 -14l-32 139q67 23 174 23q91 0 131.5 -30.5t46 -98.5t-7.5 -178l-64 -619q-7 -51 -0.5 -65.5
t39.5 -14.5l-14 -143q-10 -2 -45 -2q-53 0 -72 9.5t-27 33.5q-41 -49 -155 -49zM164 129q50 0 63.5 40t34.5 241q1 11 2 16l27 248q-32 -1 -51 -4.5t-36.5 -17.5t-26.5 -31t-18 -57t-14.5 -83.5t-13.5 -120.5q-12 -105 -12 -153q0 -43 10 -60.5t35 -17.5zM217 1243l117 250
h165l-159 -250h-123z" />
    <glyph glyph-name="acircumflex" unicode="&#xe2;" horiz-adv-x="512" 
d="M115 -8q-79 0 -110.5 45.5t-31.5 140.5q0 63 13 180q11 99 21.5 164.5t28 119t38.5 83.5t55 50.5t75 28t101 9.5q13 129 7 154q-6 30 -41 33q-8 1 -17 1q-62 0 -113 -14l-32 139q67 23 174 23q91 0 131.5 -30.5t46 -98.5t-7.5 -178l-64 -619q-7 -51 -0.5 -65.5
t39.5 -14.5l-14 -143q-10 -2 -45 -2q-53 0 -72 9.5t-27 33.5q-41 -49 -155 -49zM164 129q50 0 63.5 40t34.5 241q1 11 2 16l27 248q-32 -1 -51 -4.5t-36.5 -17.5t-26.5 -31t-18 -57t-14.5 -83.5t-13.5 -120.5q-12 -105 -12 -153q0 -43 10 -60.5t35 -17.5zM110 1243l144 250
h151l90 -250h-120l-58 143l-82 -143h-125z" />
    <glyph glyph-name="atilde" unicode="&#xe3;" horiz-adv-x="512" 
d="M115 -8q-79 0 -110.5 45.5t-31.5 140.5q0 63 13 180q11 99 21.5 164.5t28 119t38.5 83.5t55 50.5t75 28t101 9.5q13 129 7 154q-6 30 -41 33q-8 1 -17 1q-62 0 -113 -14l-32 139q67 23 174 23q91 0 131.5 -30.5t46 -98.5t-7.5 -178l-64 -619q-7 -51 -0.5 -65.5
t39.5 -14.5l-14 -143q-10 -2 -45 -2q-53 0 -72 9.5t-27 33.5q-41 -49 -155 -49zM164 129q50 0 63.5 40t34.5 241q1 11 2 16l27 248q-32 -1 -51 -4.5t-36.5 -17.5t-26.5 -31t-18 -57t-14.5 -83.5t-13.5 -120.5q-12 -105 -12 -153q0 -43 10 -60.5t35 -17.5zM112 1243
q10 101 38.5 137.5t72.5 36.5q38 0 87.5 -25.5t59.5 -25.5q15 0 21.5 10t9.5 41h113q-8 -104 -35.5 -139t-77.5 -35q-36 0 -84.5 26.5t-58.5 26.5q-15 0 -22.5 -11t-10.5 -42h-113z" />
    <glyph glyph-name="adieresis" unicode="&#xe4;" horiz-adv-x="512" 
d="M115 -8q-79 0 -110.5 45.5t-31.5 140.5q0 63 13 180q11 99 21.5 164.5t28 119t38.5 83.5t55 50.5t75 28t101 9.5q13 129 7 154q-6 30 -41 33q-8 1 -17 1q-62 0 -113 -14l-32 139q67 23 174 23q91 0 131.5 -30.5t46 -98.5t-7.5 -178l-64 -619q-7 -51 -0.5 -65.5
t39.5 -14.5l-14 -143q-10 -2 -45 -2q-53 0 -72 9.5t-27 33.5q-41 -49 -155 -49zM164 129q50 0 63.5 40t34.5 241q1 11 2 16l27 248q-32 -1 -51 -4.5t-36.5 -17.5t-26.5 -31t-18 -57t-14.5 -83.5t-13.5 -120.5q-12 -105 -12 -153q0 -43 10 -60.5t35 -17.5zM137 1243l20 191
h129l-20 -191h-129zM342 1243l20 191h131l-22 -191h-129z" />
    <glyph glyph-name="aring" unicode="&#xe5;" horiz-adv-x="512" 
d="M115 -8q-79 0 -110.5 45.5t-31.5 140.5q0 63 13 180q11 99 21.5 164.5t28 119t38.5 83.5t55 50.5t75 28t101 9.5q13 129 7 154q-6 30 -41 33q-8 1 -17 1q-62 0 -113 -14l-32 139q67 23 174 23q91 0 131.5 -30.5t46 -98.5t-7.5 -178l-64 -619q-7 -51 -0.5 -65.5
t39.5 -14.5l-14 -143q-10 -2 -45 -2q-53 0 -72 9.5t-27 33.5q-41 -49 -155 -49zM164 129q50 0 63.5 40t34.5 241q1 11 2 16l27 248q-32 -1 -51 -4.5t-36.5 -17.5t-26.5 -31t-18 -57t-14.5 -83.5t-13.5 -120.5q-12 -105 -12 -153q0 -43 10 -60.5t35 -17.5zM307 1239
q-56 0 -83 24t-29 64t3 92q4 44 10.5 71.5t21 52.5t40.5 36.5t66 11.5q57 0 84.5 -24t29 -64.5t-3.5 -93.5q-7 -88 -34.5 -129t-104.5 -41zM313 1315q27 0 37 19t16 77q5 61 -0.5 80.5t-33.5 19.5t-37.5 -20t-14.5 -80q-7 -55 -1 -75.5t34 -20.5z" />
    <glyph glyph-name="ae" unicode="&#xe6;" horiz-adv-x="731" 
d="M115 -8q-77 0 -109.5 46t-32.5 140q0 63 13 180q11 99 21.5 164t28 118t38 82.5t54.5 50t74.5 27.5t100.5 9q13 133 8 158q-7 30 -38 33q-8 1 -17 1q-61 0 -115 -14l-35 139q67 23 175 23q94 0 133 -39q45 39 121 39q107 0 143.5 -49t36.5 -160q0 -68 -31 -375l-8 -71
h-266q-19 -198 -19 -258q0 -63 16.5 -84t51.5 -21q63 0 125 19l32 -132q-74 -28 -178 -28q-113 0 -149 67q-27 -34 -67 -49.5t-107 -15.5zM164 129q50 0 63.5 40t34.5 241q1 11 2 16l25 250q-37 -1 -58.5 -9t-38 -23.5t-27 -55.5t-17.5 -88.5t-17 -139.5q-12 -105 -12 -153
q0 -43 9.5 -60.5t35.5 -17.5zM485 989q-18 -24 -29.5 -94.5t-31.5 -261.5h123q26 232 26 293q0 44 -9 59.5t-38 15.5t-41 -12z" />
    <glyph glyph-name="ccedilla" unicode="&#xe7;" horiz-adv-x="395" 
d="M113 -377q-67 0 -125 19l37 92q35 -13 73 -13q37 0 48.5 14t17.5 66q4 45 -9 56.5t-53 9.5l-30 29l26 106q-65 19 -89.5 74.5t-24.5 152.5q0 89 28 359q30 287 51 373q30 119 95 157q46 27 129 27q71 0 127 -17l-52 -141q-38 10 -69 10q-60 0 -78.5 -66t-48.5 -360
q-29 -288 -29 -335q0 -55 15 -79t53 -24q43 0 74 8l22 -131q-47 -18 -117 -18l-18 -68q56 3 79.5 -26.5t16.5 -110.5q-12 -100 -43 -132t-106 -32z" />
    <glyph glyph-name="egrave" unicode="&#xe8;" horiz-adv-x="471" 
d="M180 -10q-106 0 -152 55.5t-46 179.5q0 110 30 359q28 268 46.5 364.5t62.5 145.5q49 55 153 55q108 0 145.5 -49t37.5 -160q0 -26 -3 -67t-6.5 -75.5t-11 -111t-12.5 -121.5l-6 -71h-266q-19 -198 -19 -258q0 -61 17 -82t51 -21q49 0 123 19l32 -134q-69 -28 -176 -28z
M227 989q-20 -24 -31.5 -95t-29.5 -261h123q26 266 26 293q0 43 -9.5 59t-37.5 16q-29 0 -41 -12zM254 1243l-104 250h163l62 -250h-121z" />
    <glyph glyph-name="eacute" unicode="&#xe9;" horiz-adv-x="471" 
d="M201 1243l116 250h166l-159 -250h-123zM180 -10q-106 0 -152 55.5t-46 179.5q0 110 30 359q28 268 46.5 364.5t62.5 145.5q49 55 153 55q108 0 145.5 -49t37.5 -160q0 -26 -3 -67t-6.5 -75.5t-11 -111t-12.5 -121.5l-6 -71h-266q-19 -198 -19 -258q0 -61 17 -82t51 -21
q49 0 123 19l32 -134q-69 -28 -176 -28zM227 989q-20 -24 -31.5 -95t-29.5 -261h123q26 266 26 293q0 43 -9.5 59t-37.5 16q-29 0 -41 -12z" />
    <glyph glyph-name="ecircumflex" unicode="&#xea;" horiz-adv-x="471" 
d="M94 1243l144 250h151l90 -250h-121l-57 143l-82 -143h-125zM180 -10q-106 0 -152 55.5t-46 179.5q0 110 30 359q28 268 46.5 364.5t62.5 145.5q49 55 153 55q108 0 145.5 -49t37.5 -160q0 -26 -3 -67t-6.5 -75.5t-11 -111t-12.5 -121.5l-6 -71h-266q-19 -198 -19 -258
q0 -61 17 -82t51 -21q49 0 123 19l32 -134q-69 -28 -176 -28zM227 989q-20 -24 -31.5 -95t-29.5 -261h123q26 266 26 293q0 43 -9.5 59t-37.5 16q-29 0 -41 -12z" />
    <glyph glyph-name="edieresis" unicode="&#xeb;" horiz-adv-x="471" 
d="M121 1243l20 191h129l-20 -191h-129zM326 1243l20 191h131l-22 -191h-129zM180 -10q-106 0 -152 55.5t-46 179.5q0 110 30 359q28 268 46.5 364.5t62.5 145.5q49 55 153 55q108 0 145.5 -49t37.5 -160q0 -26 -3 -67t-6.5 -75.5t-11 -111t-12.5 -121.5l-6 -71h-266
q-19 -198 -19 -258q0 -61 17 -82t51 -21q49 0 123 19l32 -134q-69 -28 -176 -28zM227 989q-20 -24 -31.5 -95t-29.5 -261h123q26 266 26 293q0 43 -9.5 59t-37.5 16q-29 0 -41 -12z" />
    <glyph glyph-name="igrave" unicode="&#xec;" horiz-adv-x="262" 
d="M123 1243l-80 250h164l37 -250h-121zM-27 0l123 1137h150l-119 -1137h-154z" />
    <glyph glyph-name="iacute" unicode="&#xed;" horiz-adv-x="262" 
d="M113 1243l98 250h170l-141 -250h-127zM-27 0l123 1137h150l-119 -1137h-154z" />
    <glyph glyph-name="icircumflex" unicode="&#xee;" horiz-adv-x="262" 
d="M-4 1243l137 250h150l82 -250h-121l-47 141l-76 -141h-125zM-27 0l123 1137h150l-119 -1137h-154z" />
    <glyph glyph-name="idieresis" unicode="&#xef;" horiz-adv-x="262" 
d="M16 1243l21 191h129l-21 -191h-129zM221 1243l21 191h131l-23 -191h-129zM-27 0l123 1137h150l-119 -1137h-154z" />
    <glyph glyph-name="eth" unicode="&#xf0;" horiz-adv-x="522" 
d="M240 1225l12 121l80 24q-13 65 -43 148l127 41q26 -77 41 -152l118 37l-12 -119l-86 -27q26 -197 21 -403q-3 -105 -27 -336q-11 -100 -17.5 -156t-17 -124t-20 -101.5t-24.5 -73t-32.5 -55.5t-43 -33t-55.5 -21.5t-71 -4.5q-117 0 -160.5 59.5t-43.5 190.5q0 65 26 344
q9 90 16 147t16.5 118.5t19 97.5t23 72.5t29.5 55t38 34t48.5 21t61.5 5.5q71 0 105 -31q-3 67 -17 156zM197 129q57 0 75.5 67t50.5 361q1 4 1 6q24 237 24 324q0 64 -14 88t-49 24q-29 0 -44 -10t-29 -61t-23.5 -125.5t-26.5 -235.5q-27 -267 -27 -327q0 -62 14 -86.5
t48 -24.5z" />
    <glyph glyph-name="ntilde" unicode="&#xf1;" horiz-adv-x="548" 
d="M-29 0l121 1128l125 9l2 -45q33 57 152 57q74 0 109 -30.5t38 -86.5t-4 -135l-96 -897h-150l88 846q12 92 4.5 122.5t-51.5 30.5q-49 0 -70 -46t-36 -185l-80 -768h-152zM133 1243q10 101 38.5 137.5t72.5 36.5q38 0 87.5 -25.5t59.5 -25.5q15 0 21.5 10t9.5 41h113
q-8 -104 -35.5 -139t-77.5 -35q-36 0 -84.5 26.5t-58.5 26.5q-15 0 -22.5 -11t-10.5 -42h-113z" />
    <glyph glyph-name="ograve" unicode="&#xf2;" horiz-adv-x="522" 
d="M190 -10q-119 0 -162.5 53.5t-43.5 181.5q0 105 28 363q30 285 50 368q29 124 94 163q48 30 135 30q120 0 165.5 -57t45.5 -183q0 -83 -31 -352q-31 -294 -50 -378q-28 -119 -89 -158q-48 -31 -142 -31zM197 129q60 0 77 60t47 346q2 19 3 28q26 276 26 336
q0 59 -14 79.5t-51 20.5q-56 0 -73 -57t-44 -309q-4 -39 -6 -60q-6 -65 -14.5 -149t-12.5 -128t-4 -71q0 -56 15 -76t51 -20zM276 1243l-104 250h163l62 -250h-121z" />
    <glyph glyph-name="oacute" unicode="&#xf3;" horiz-adv-x="522" 
d="M223 1243l117 250h166l-160 -250h-123zM190 -10q-119 0 -162.5 53.5t-43.5 181.5q0 105 28 363q30 285 50 368q29 124 94 163q48 30 135 30q120 0 165.5 -57t45.5 -183q0 -83 -31 -352q-31 -294 -50 -378q-28 -119 -89 -158q-48 -31 -142 -31zM197 129q60 0 77 60t47 346
q2 19 3 28q26 276 26 336q0 59 -14 79.5t-51 20.5q-56 0 -73 -57t-44 -309q-4 -39 -6 -60q-6 -65 -14.5 -149t-12.5 -128t-4 -71q0 -56 15 -76t51 -20z" />
    <glyph glyph-name="ocircumflex" unicode="&#xf4;" horiz-adv-x="522" 
d="M117 1243l143 250h152l90 -250h-121l-57 143l-82 -143h-125zM190 -10q-119 0 -162.5 53.5t-43.5 181.5q0 105 28 363q30 285 50 368q29 124 94 163q48 30 135 30q120 0 165.5 -57t45.5 -183q0 -83 -31 -352q-31 -294 -50 -378q-28 -119 -89 -158q-48 -31 -142 -31z
M197 129q60 0 77 60t47 346q2 19 3 28q26 276 26 336q0 59 -14 79.5t-51 20.5q-56 0 -73 -57t-44 -309q-4 -39 -6 -60q-6 -65 -14.5 -149t-12.5 -128t-4 -71q0 -56 15 -76t51 -20z" />
    <glyph glyph-name="otilde" unicode="&#xf5;" horiz-adv-x="522" 
d="M190 -10q-119 0 -162.5 53.5t-43.5 181.5q0 105 28 363q30 285 50 368q29 124 94 163q48 30 135 30q120 0 165.5 -57t45.5 -183q0 -83 -31 -352q-31 -294 -50 -378q-28 -119 -89 -158q-48 -31 -142 -31zM197 129q60 0 77 60t47 346q2 19 3 28q26 276 26 336
q0 59 -14 79.5t-51 20.5q-56 0 -73 -57t-44 -309q-4 -39 -6 -60q-6 -65 -14.5 -149t-12.5 -128t-4 -71q0 -56 15 -76t51 -20zM118 1243q10 101 38.5 137.5t72.5 36.5q38 0 87.5 -25.5t59.5 -25.5q15 0 21.5 10t9.5 41h113q-8 -104 -35.5 -139t-77.5 -35q-36 0 -84.5 26.5
t-58.5 26.5q-15 0 -22.5 -11t-10.5 -42h-113z" />
    <glyph glyph-name="odieresis" unicode="&#xf6;" horiz-adv-x="522" 
d="M143 1243l21 191h129l-21 -191h-129zM348 1243l21 191h131l-23 -191h-129zM190 -10q-119 0 -162.5 53.5t-43.5 181.5q0 105 28 363q30 285 50 368q29 124 94 163q48 30 135 30q120 0 165.5 -57t45.5 -183q0 -83 -31 -352q-31 -294 -50 -378q-28 -119 -89 -158
q-48 -31 -142 -31zM197 129q60 0 77 60t47 346q2 19 3 28q26 276 26 336q0 59 -14 79.5t-51 20.5q-56 0 -73 -57t-44 -309q-4 -39 -6 -60q-6 -65 -14.5 -149t-12.5 -128t-4 -71q0 -56 15 -76t51 -20z" />
    <glyph glyph-name="divide" unicode="&#xf7;" horiz-adv-x="600" 
d="M190 387l17 164h145l-16 -164h-146zM76 670l14 145h434l-14 -145h-434zM248 928l16 166h144l-17 -166h-143z" />
    <glyph glyph-name="oslash" unicode="&#xf8;" horiz-adv-x="522" 
d="M205 -10q-41 0 -76 6l-23 -82h-124l41 135q-39 49 -39 174q0 67 28 363q30 291 51 378q30 120 94 158q46 27 128 27q37 0 67 -6l25 80h125l-41 -138q41 -52 41 -174q0 -80 -31 -352q-31 -299 -51 -383q-28 -121 -89 -158q-44 -28 -126 -28zM197 117q33 0 50 10.5
t32.5 62.5t25.5 130t27 243q3 29 7.5 73.5t7.5 76t5 55.5l-194 -645q15 -6 39 -6zM154 573q-7 -64 -21 -190l189 623q-15 6 -37 6q-32 0 -49 -11.5t-32 -64t-24.5 -128t-25.5 -235.5z" />
    <glyph glyph-name="ugrave" unicode="&#xf9;" horiz-adv-x="538" 
d="M197 -10q-100 0 -147 35t-52 102.5t6 165.5l88 844h150l-86 -834q-16 -100 -8.5 -137t59.5 -37q49 0 62.5 29t23.5 126q1 14 2 21l88 832h143l-86 -844q-7 -59 -12.5 -93t-16.5 -74t-26.5 -61t-41 -40.5t-61.5 -27t-85 -7.5zM285 1243l-104 250h163l62 -250h-121z" />
    <glyph glyph-name="uacute" unicode="&#xfa;" horiz-adv-x="538" 
d="M231 1243l117 250h166l-160 -250h-123zM197 -10q-100 0 -147 35t-52 102.5t6 165.5l88 844h150l-86 -834q-16 -100 -8.5 -137t59.5 -37q49 0 62.5 29t23.5 126q1 14 2 21l88 832h143l-86 -844q-7 -59 -12.5 -93t-16.5 -74t-26.5 -61t-41 -40.5t-61.5 -27t-85 -7.5z" />
    <glyph glyph-name="ucircumflex" unicode="&#xfb;" horiz-adv-x="538" 
d="M125 1243l143 250h152l90 -250h-121l-57 143l-82 -143h-125zM197 -10q-100 0 -147 35t-52 102.5t6 165.5l88 844h150l-86 -834q-16 -100 -8.5 -137t59.5 -37q49 0 62.5 29t23.5 126q1 14 2 21l88 832h143l-86 -844q-7 -59 -12.5 -93t-16.5 -74t-26.5 -61t-41 -40.5
t-61.5 -27t-85 -7.5z" />
    <glyph glyph-name="udieresis" unicode="&#xfc;" horiz-adv-x="538" 
d="M152 1243l20 191h129l-20 -191h-129zM356 1243l21 191h131l-23 -191h-129zM197 -10q-100 0 -147 35t-52 102.5t6 165.5l88 844h150l-86 -834q-16 -100 -8.5 -137t59.5 -37q49 0 62.5 29t23.5 126q1 14 2 21l88 832h143l-86 -844q-7 -59 -12.5 -93t-16.5 -74t-26.5 -61
t-41 -40.5t-61.5 -27t-85 -7.5z" />
    <glyph glyph-name="yacute" unicode="&#xfd;" horiz-adv-x="464" 
d="M-39 -297l14 143h25q38 0 48 8.5t20 41.5l14 75l-37 1166h152l4 -521l-2 -223l45 221l110 523h144l-299 -1274q-22 -91 -69 -125.5t-134 -34.5h-35zM197 1243l117 250h165l-159 -250h-123z" />
    <glyph glyph-name="thorn" unicode="&#xfe;" horiz-adv-x="542" 
d="M-59 -297l194 1845h148l-45 -440q47 41 135 41q75 0 112 -46.5t37 -148.5q0 -67 -30 -395q-29 -275 -49.5 -380t-63.5 -146q-39 -41 -117 -41q-96 0 -135 39l-35 -328h-151zM217 129q56 0 72 55.5t45 326.5q4 35 6 54q5 51 11 117t9.5 99.5t6 68.5t2.5 57q0 56 -13 74
t-47 18q-58 0 -76.5 -67.5t-48.5 -345.5q-1 -11 -2 -17q-5 -54 -14 -139t-12.5 -126t-3.5 -71q0 -60 14.5 -82t50.5 -22z" />
    <glyph glyph-name="ydieresis" unicode="&#xff;" horiz-adv-x="464" 
d="M-39 -297l14 143h25q38 0 48 8.5t20 41.5l14 75l-37 1166h152l4 -521l-2 -223l45 221l110 523h144l-299 -1274q-22 -91 -69 -125.5t-134 -34.5h-35zM117 1243l20 191h129l-20 -191h-129zM322 1243l20 191h131l-22 -191h-129z" />
    <glyph glyph-name="dotlessi" unicode="&#x131;" horiz-adv-x="262" 
d="M-27 0l123 1137h150l-119 -1137h-154z" />
    <glyph glyph-name="Lslash" unicode="&#x141;" horiz-adv-x="434" 
d="M4 705l12 137l60 32l67 644h154l-59 -555l108 61l-16 -139l-109 -60l-71 -682h204l-14 -143h-356l77 735z" />
    <glyph glyph-name="lslash" unicode="&#x142;" horiz-adv-x="382" 
d="M43 901l12 139l76 41l49 467h152l-41 -381l90 50l-16 -138l-89 -49l-83 -817q-5 -42 0.5 -55t31.5 -13h23l-15 -145q-10 -2 -55 -2q-96 0 -122 49t-15 162l76 733z" />
    <glyph glyph-name="OE" unicode="&#x152;" horiz-adv-x="768" 
d="M213 0q-117 0 -167 59t-50 203q0 126 43 512q38 362 60.5 483.5t70.5 184.5q61 76 192 76h443l-14 -150h-216l-55 -520h211l-16 -146h-211l-58 -559h218l-17 -143h-434zM236 137h65l131 1239h-59q-60 0 -84 -39q-28 -39 -44.5 -146.5t-49.5 -430.5q-43 -389 -43 -486
q0 -81 21 -109t63 -28z" />
    <glyph glyph-name="oe" unicode="&#x153;" horiz-adv-x="774" 
d="M190 -10q-119 0 -163.5 54t-44.5 181q0 121 30 363q30 285 50 368q29 124 94 163q48 30 135 30q110 0 151 -53q25 28 55 40.5t83 12.5q107 0 142.5 -48.5t35.5 -160.5q0 -99 -31 -375l-8 -71h-264q-21 -218 -21 -258q0 -62 17.5 -83.5t52.5 -21.5q58 0 123 21l32 -132
q-64 -30 -174 -30q-101 0 -139 47q-47 -47 -156 -47zM197 129q26 0 40 6t26.5 29.5t19 62t15.5 112.5t19 172q3 34 5 52q28 264 28 336q0 59 -14 79.5t-53 20.5q-55 0 -71 -54.5t-43 -309.5q-5 -40 -7 -62q-31 -307 -31 -348q0 -56 15 -76t51 -20zM532 989q-19 -24 -31 -94
t-32 -262h123q26 243 26 293q0 44 -9 59.5t-38 15.5q-27 0 -39 -12z" />
    <glyph glyph-name="Scaron" unicode="&#x160;" horiz-adv-x="477" 
d="M250 1595l-90 254h123l55 -143l84 143h123l-146 -254h-149zM139 -12q-111 0 -188 18l49 146q63 -17 135 -17q69 0 92.5 40.5t5.5 152.5l-131 809q-14 82 -14 139q0 113 62 182.5t184 69.5q100 0 160 -17l-50 -149q-43 12 -96 12q-73 0 -93 -48t-5 -140l127 -789
q18 -123 18 -161q0 -113 -61 -180.5t-195 -67.5z" />
    <glyph glyph-name="scaron" unicode="&#x161;" horiz-adv-x="403" 
d="M178 1243l-90 254h123l55 -143l84 143h123l-145 -254h-150zM109 -10q-112 0 -179 18l50 137q58 -16 104 -16q58 0 77.5 34t2.5 120l-101 518q-18 97 -18 135q0 95 48.5 154t154.5 59q97 0 151 -14l-49 -142q-36 8 -82 8q-51 0 -65.5 -38.5t0.5 -98.5l100 -520
q3 -15 6.5 -35.5t5.5 -30t4 -23.5t2.5 -27t0.5 -29q0 -209 -213 -209z" />
    <glyph glyph-name="Ydieresis" unicode="&#x178;" horiz-adv-x="520" 
d="M106 0l52 510l-74 1008h158l28 -703l179 703h153l-293 -1026l-51 -492h-152zM180 1595l20 191h129l-20 -191h-129zM385 1595l20 191h131l-22 -191h-129z" />
    <glyph glyph-name="Zcaron" unicode="&#x17d;" horiz-adv-x="483" 
d="M254 1595l-90 254h123l55 -143l84 143h123l-146 -254h-149zM-53 0l14 123l389 1245h-241l12 150h403l-12 -136l-383 -1239h262l-14 -143h-430z" />
    <glyph glyph-name="zcaron" unicode="&#x17e;" horiz-adv-x="399" 
d="M178 1243l-90 254h123l55 -143l84 143h123l-145 -254h-150zM-63 0l10 106l295 891h-187l13 140h352l-12 -107l-297 -899h204l-12 -131h-366z" />
    <glyph glyph-name="florin" unicode="&#x192;" horiz-adv-x="536" 
d="M61 786l17 138h96l37 364q14 132 58.5 181t164.5 49h45l-16 -148h-17q-50 0 -65 -19.5t-21 -80.5l-36 -346h131l-17 -138h-129l-112 -1083h-148l111 1083h-99z" />
    <glyph glyph-name="circumflex" unicode="&#x2c6;" 
d="M100 1243l144 250h151l90 -250h-120l-58 143l-82 -143h-125z" />
    <glyph glyph-name="caron" unicode="&#x2c7;" 
d="M219 1243l-90 254h123l55 -143l84 143h123l-145 -254h-150z" />
    <glyph glyph-name="breve" unicode="&#x2d8;" 
d="M307 1239q-110 0 -139.5 49.5t-15.5 181.5h110q-10 -60 -2 -90t45 -30q38 0 51.5 26.5t20.5 93.5h112q-16 -131 -53 -181t-129 -50z" />
    <glyph glyph-name="dotaccent" unicode="&#x2d9;" 
d="M219 1245l25 221h149l-24 -221h-150z" />
    <glyph glyph-name="ring" unicode="&#x2da;" 
d="M297 1239q-56 0 -83 24t-29 64t3 92q4 44 10.5 71.5t21 52.5t40.5 36.5t66 11.5q57 0 84.5 -24t29 -64.5t-3.5 -93.5q-7 -88 -34.5 -129t-104.5 -41zM303 1315q27 0 37 19t16 77q5 61 -0.5 80.5t-33.5 19.5t-37.5 -20t-14.5 -80q-7 -55 -1 -75.5t34 -20.5z" />
    <glyph glyph-name="ogonek" unicode="&#x2db;" horiz-adv-x="493" 
d="M219 -358h-33q-101 0 -134.5 42t-24.5 136q10 97 110 190h107q-56 -60 -79.5 -99.5t-27.5 -84.5q-6 -52 10.5 -69t71.5 -17h10z" />
    <glyph glyph-name="tilde" unicode="&#x2dc;" 
d="M102 1243q10 101 38.5 137.5t72.5 36.5q38 0 87.5 -25.5t59.5 -25.5q15 0 21.5 10t9.5 41h113q-8 -104 -35.5 -139t-77.5 -35q-36 0 -84.5 26.5t-58.5 26.5q-15 0 -22.5 -11t-10.5 -42h-113z" />
    <glyph glyph-name="hungarumlaut" unicode="&#x2dd;" 
d="M113 1243l69 254h154l-105 -254h-118zM346 1243l70 254h153l-106 -254h-117z" />
    <glyph glyph-name="Delta" unicode="&#x394;" horiz-adv-x="595" 
d="M41 997l12 140h82l21 182q14 131 62 181t165 50q23 0 29 -2l-15 -145h-8q-46 0 -63 -20.5t-23 -79.5l-18 -166h84l-15 -140h-84l-135 -1294h-151l137 1294h-80zM231 -297l15 143q33 0 41.5 11t13.5 51l129 1229h150l-131 -1248q-11 -104 -58 -145t-160 -41zM442 1274
l25 217h151l-24 -217h-152z" />
    <glyph glyph-name="Delta" unicode="&#x2206;" horiz-adv-x="595" 
d="M41 997l12 140h82l21 182q14 131 62 181t165 50q23 0 29 -2l-15 -145h-8q-46 0 -63 -20.5t-23 -79.5l-18 -166h84l-15 -140h-84l-135 -1294h-151l137 1294h-80zM231 -297l15 143q33 0 41.5 11t13.5 51l129 1229h150l-131 -1248q-11 -104 -58 -145t-160 -41zM442 1274
l25 217h151l-24 -217h-152z" />
    <glyph glyph-name="Omega" unicode="&#x3a9;" horiz-adv-x="1703" 
d="M258 246q-88 105 -136 237t-48 277q0 144 48 276t136 236q6 -4 14 -12q-85 -103 -131.5 -231.5t-46.5 -268.5q0 -285 180 -500zM467 432q-117 143 -117 328q0 183 115 327q3 -2 8 -7t8 -7q-110 -136 -110 -313q0 -182 110 -314zM541 498q-92 116 -92 262t92 262
q3 -2 8 -7t8 -7q-88 -109 -88 -248t88 -248q-3 -2 -8 -7t-8 -7zM647 592q-57 72 -57 168q0 97 57 166l15 -15q-52 -69 -52 -151q0 -84 54 -154q-3 -2 -8.5 -7t-8.5 -7zM715 655q-33 48 -33 105q0 56 33 104q3 -2 8 -7t8 -7q-29 -44 -29 -90t29 -90q-3 -2 -16 -15zM774 709
q-14 25 -14 51t14 51l12 -10q-10 -20 -10 -41t10 -41q-4 -4 -12 -10zM852 123q-236 0 -412 158l2.5 2.5l5 5l5.5 5.5t2 1q171 -152 397 -152q227 0 395 152q2 -3 7.5 -8t7.5 -8q-177 -156 -410 -156zM852 664q-31 0 -55 18l12 12q21 -14 43 -14q26 0 43 14q4 -4 10 -12
q-21 -18 -53 -18zM987 653q-7 10 -14 15q28 42 28 92q0 51 -28 90l2.5 2.5t5 4.5t5.5 5t1 2q35 -44 35 -104t-35 -107zM598 551q-72 91 -72 209q0 119 74 209l14 -15q-67 -87 -67 -194q0 -108 67 -195q-10 -10 -16 -14zM852 -35q-145 0 -278 52.5t-238 146.5l14 16
q102 -92 231 -143t271 -51q285 0 500 192q0 1 3.5 -2.5t6.5 -7.5l4 -4q-104 -95 -236 -147t-278 -52zM852 248q-189 0 -330 125l15 16q134 -121 315 -121q182 0 313 121q2 -3 7.5 -8t7.5 -8q-138 -125 -328 -125zM852 348q-145 0 -264 101l14 14q108 -94 250 -94
q143 0 248 94q2 -3 7 -8.5t7 -8.5q-112 -98 -262 -98zM852 428q-116 0 -211 78l14 16q86 -73 197 -73t197 73q4 -4 12 -16q-91 -78 -209 -78zM852 543q-77 0 -135 49l14 16q51 -45 121 -45q68 0 119 45q2 -3 7 -8t7 -8q-58 -49 -133 -49zM733 911q-4 3 -7 6.5t-6 6.5l-3 4
q58 49 135 49t135 -49l-16 -17q-51 45 -119 45t-119 -45zM1167 1130q-134 121 -315 121q-179 0 -313 -118l-15 14q141 125 328 125q189 0 330 -125q-4 -6 -15 -17zM930 709l-12 10q10 20 10 41t-10 41l12 10q14 -25 14 -51t-14 -51zM958 682q-10 10 -16 14q21 32 21 64
t-21 63l16 15q25 -36 25 -78t-25 -78zM1020 627q-6 4 -16 14q38 50 38 119t-38 119l14 14q45 -57 45 -133q0 -71 -43 -133zM1106 551q-3 2 -8 7t-8 7q67 87 67 195t-70 194l17 15q74 -90 74 -209q0 -118 -72 -209zM1163 498q-10 10 -16 14q88 109 88 248t-88 248l16 14
q92 -116 92 -262t-92 -262zM1237 432q-6 4 -16 14q112 134 112 314q0 182 -112 313l16 14q117 -139 117 -327q0 -189 -117 -328zM1329 350q-2 2 -7 6t-7 6q141 175 141 398q0 227 -143 395l16 14q148 -179 148 -409q0 -231 -148 -410zM1446 246q-6 6 -16 14q180 215 180 500
t-180 500l16 14q88 -105 136 -237t48 -277q0 -144 -48 -276t-136 -238zM375 348q-148 182 -148 412q0 229 146 409q2 -2 7.5 -6.5t8.5 -7.5q-141 -170 -141 -395q0 -228 141 -398zM684 627q-43 59 -43 133t43 133q6 -4 16 -14q-38 -50 -38 -119q0 -67 38 -117zM745 682
q-24 34 -24 78t24 78q2 -3 4.5 -5.5t6 -5.5t4.5 -4q-19 -34 -19 -63q0 -30 19 -64zM809 825l-10 13q21 18 53 18t53 -18l-10 -13q-23 15 -43 15q-25 0 -43 -15zM786 852l-14 14q37 29 80 29q41 0 78 -29q-8 -8 -12 -14q-28 25 -66 25q-34 0 -66 -25zM760 881l-15 16
q45 39 107 39q61 0 106 -39l-14 -16q-37 34 -92 34t-92 -34zM604 1057l-14 16q112 98 262 98q151 0 262 -100q1 0 -2 -3.5t-6 -7.5l-4 -3q-108 94 -250 94q-143 0 -248 -94zM852 492q-100 0 -170 61l14 16q70 -57 156 -57q87 0 154 57l14 -14q-73 -63 -168 -63zM852 584
q-61 0 -109 39l15 16q47 -35 94 -35q51 0 92 35l14 -16q-45 -39 -106 -39zM852 625q-43 0 -82 28l14 15q36 -25 68 -25q34 0 66 25l14 -15q-36 -28 -80 -28zM698 950l-14 15q73 63 168 63q98 0 168 -61l-14 -17q-68 58 -154 58q-87 0 -154 -58zM655 997l-14 17q91 78 211 78
q119 0 209 -80l-12 -15q-83 74 -197 74q-110 0 -197 -74zM1249 1223q-166 153 -397 153q-227 0 -397 -151l-15 14q179 158 412 158t412 -158zM352 1339l-14 17q104 95 236 146.5t278 51.5q145 0 278 -52t238 -146l-14 -17q-102 93 -231 144t-271 51t-270 -51t-230 -144z
M1057 594l-15 14q52 69 52 152t-54 153l17 15q57 -72 57 -168q0 -97 -57 -166z" />
    <glyph glyph-name="Omega" unicode="&#x2126;" horiz-adv-x="1703" 
d="M258 246q-88 105 -136 237t-48 277q0 144 48 276t136 236q6 -4 14 -12q-85 -103 -131.5 -231.5t-46.5 -268.5q0 -285 180 -500zM467 432q-117 143 -117 328q0 183 115 327q3 -2 8 -7t8 -7q-110 -136 -110 -313q0 -182 110 -314zM541 498q-92 116 -92 262t92 262
q3 -2 8 -7t8 -7q-88 -109 -88 -248t88 -248q-3 -2 -8 -7t-8 -7zM647 592q-57 72 -57 168q0 97 57 166l15 -15q-52 -69 -52 -151q0 -84 54 -154q-3 -2 -8.5 -7t-8.5 -7zM715 655q-33 48 -33 105q0 56 33 104q3 -2 8 -7t8 -7q-29 -44 -29 -90t29 -90q-3 -2 -16 -15zM774 709
q-14 25 -14 51t14 51l12 -10q-10 -20 -10 -41t10 -41q-4 -4 -12 -10zM852 123q-236 0 -412 158l2.5 2.5l5 5l5.5 5.5t2 1q171 -152 397 -152q227 0 395 152q2 -3 7.5 -8t7.5 -8q-177 -156 -410 -156zM852 664q-31 0 -55 18l12 12q21 -14 43 -14q26 0 43 14q4 -4 10 -12
q-21 -18 -53 -18zM987 653q-7 10 -14 15q28 42 28 92q0 51 -28 90l2.5 2.5t5 4.5t5.5 5t1 2q35 -44 35 -104t-35 -107zM598 551q-72 91 -72 209q0 119 74 209l14 -15q-67 -87 -67 -194q0 -108 67 -195q-10 -10 -16 -14zM852 -35q-145 0 -278 52.5t-238 146.5l14 16
q102 -92 231 -143t271 -51q285 0 500 192q0 1 3.5 -2.5t6.5 -7.5l4 -4q-104 -95 -236 -147t-278 -52zM852 248q-189 0 -330 125l15 16q134 -121 315 -121q182 0 313 121q2 -3 7.5 -8t7.5 -8q-138 -125 -328 -125zM852 348q-145 0 -264 101l14 14q108 -94 250 -94
q143 0 248 94q2 -3 7 -8.5t7 -8.5q-112 -98 -262 -98zM852 428q-116 0 -211 78l14 16q86 -73 197 -73t197 73q4 -4 12 -16q-91 -78 -209 -78zM852 543q-77 0 -135 49l14 16q51 -45 121 -45q68 0 119 45q2 -3 7 -8t7 -8q-58 -49 -133 -49zM733 911q-4 3 -7 6.5t-6 6.5l-3 4
q58 49 135 49t135 -49l-16 -17q-51 45 -119 45t-119 -45zM1167 1130q-134 121 -315 121q-179 0 -313 -118l-15 14q141 125 328 125q189 0 330 -125q-4 -6 -15 -17zM930 709l-12 10q10 20 10 41t-10 41l12 10q14 -25 14 -51t-14 -51zM958 682q-10 10 -16 14q21 32 21 64
t-21 63l16 15q25 -36 25 -78t-25 -78zM1020 627q-6 4 -16 14q38 50 38 119t-38 119l14 14q45 -57 45 -133q0 -71 -43 -133zM1106 551q-3 2 -8 7t-8 7q67 87 67 195t-70 194l17 15q74 -90 74 -209q0 -118 -72 -209zM1163 498q-10 10 -16 14q88 109 88 248t-88 248l16 14
q92 -116 92 -262t-92 -262zM1237 432q-6 4 -16 14q112 134 112 314q0 182 -112 313l16 14q117 -139 117 -327q0 -189 -117 -328zM1329 350q-2 2 -7 6t-7 6q141 175 141 398q0 227 -143 395l16 14q148 -179 148 -409q0 -231 -148 -410zM1446 246q-6 6 -16 14q180 215 180 500
t-180 500l16 14q88 -105 136 -237t48 -277q0 -144 -48 -276t-136 -238zM375 348q-148 182 -148 412q0 229 146 409q2 -2 7.5 -6.5t8.5 -7.5q-141 -170 -141 -395q0 -228 141 -398zM684 627q-43 59 -43 133t43 133q6 -4 16 -14q-38 -50 -38 -119q0 -67 38 -117zM745 682
q-24 34 -24 78t24 78q2 -3 4.5 -5.5t6 -5.5t4.5 -4q-19 -34 -19 -63q0 -30 19 -64zM809 825l-10 13q21 18 53 18t53 -18l-10 -13q-23 15 -43 15q-25 0 -43 -15zM786 852l-14 14q37 29 80 29q41 0 78 -29q-8 -8 -12 -14q-28 25 -66 25q-34 0 -66 -25zM760 881l-15 16
q45 39 107 39q61 0 106 -39l-14 -16q-37 34 -92 34t-92 -34zM604 1057l-14 16q112 98 262 98q151 0 262 -100q1 0 -2 -3.5t-6 -7.5l-4 -3q-108 94 -250 94q-143 0 -248 -94zM852 492q-100 0 -170 61l14 16q70 -57 156 -57q87 0 154 57l14 -14q-73 -63 -168 -63zM852 584
q-61 0 -109 39l15 16q47 -35 94 -35q51 0 92 35l14 -16q-45 -39 -106 -39zM852 625q-43 0 -82 28l14 15q36 -25 68 -25q34 0 66 25l14 -15q-36 -28 -80 -28zM698 950l-14 15q73 63 168 63q98 0 168 -61l-14 -17q-68 58 -154 58q-87 0 -154 -58zM655 997l-14 17q91 78 211 78
q119 0 209 -80l-12 -15q-83 74 -197 74q-110 0 -197 -74zM1249 1223q-166 153 -397 153q-227 0 -397 -151l-15 14q179 158 412 158t412 -158zM352 1339l-14 17q104 95 236 146.5t278 51.5q145 0 278 -52t238 -146l-14 -17q-102 93 -231 144t-271 51t-270 -51t-230 -144z
M1057 594l-15 14q52 69 52 152t-54 153l17 15q57 -72 57 -168q0 -97 -57 -166z" />
    <glyph glyph-name="pi" unicode="&#x3c0;" horiz-adv-x="655" 
d="M328 -8q-115 0 -181 57q-66 60 -90 219t-24 492q0 315 22 472.5t80 223.5q59 70 193 70q135 0 194 -74q57 -66 79 -223.5t22 -468.5q0 -325 -24 -484.5t-87 -222.5q-61 -61 -184 -61zM328 66q50 0 83.5 11.5t59 45t39.5 79.5t23 130.5t11.5 181t2.5 246.5
q0 151 -2.5 247.5t-11.5 180.5t-23 129.5t-39.5 78.5t-59 44.5t-83.5 11.5t-83.5 -11.5t-59 -44.5t-39.5 -78.5t-23 -129.5t-11.5 -180.5t-2.5 -247.5t2.5 -246.5t11 -180.5t22.5 -130.5t39.5 -79.5t59.5 -45.5t84 -11.5zM186 266v973h152q35 0 60.5 -7t42 -25.5t26.5 -39
t14.5 -58.5t6 -72t1.5 -91q0 -69 -2 -108.5t-10 -81.5t-24 -62.5t-43.5 -33.5t-69.5 -13h-51v-381h-103zM289 739h41q40 0 49.5 38.5t9.5 162.5t-9.5 163.5t-49.5 39.5h-41v-404z" />
    <glyph glyph-name="endash" unicode="&#x2013;" horiz-adv-x="593" 
d="M18 575l15 148h522l-16 -148h-521z" />
    <glyph glyph-name="emdash" unicode="&#x2014;" horiz-adv-x="761" 
d="M18 575l15 148h690l-16 -148h-689z" />
    <glyph glyph-name="quoteleft" unicode="&#x2018;" horiz-adv-x="272" 
d="M88 1085l21 193q11 116 37.5 163t105.5 87l41 -84q-36 -24 -46.5 -33.5t-17.5 -26t-10 -51.5h62l-27 -248h-166z" />
    <glyph glyph-name="quoteright" unicode="&#x2019;" horiz-adv-x="272" 
d="M135 1075l-39 82q35 24 45.5 34t18.5 27t12 52h-63l26 248h166l-20 -195q-12 -116 -39.5 -162t-106.5 -86z" />
    <glyph glyph-name="quotesinglbase" unicode="&#x201a;" horiz-adv-x="272" 
d="M4 -195l-45 82q50 33 62 48.5t16 64.5h-64l27 250h166l-21 -195q-12 -118 -38 -164.5t-103 -85.5z" />
    <glyph glyph-name="quotedblleft" unicode="&#x201c;" horiz-adv-x="493" 
d="M88 1085l21 193q7 81 20 122.5t39.5 69t81.5 54.5l39 -80q-48 -33 -59 -48t-17 -63h63l-24 -248h-164zM309 1085l21 193q12 116 38 161.5t105 84.5l37 -80q-48 -33 -59 -48t-17 -63h66l-27 -248h-164z" />
    <glyph glyph-name="quotedblright" unicode="&#x201d;" horiz-adv-x="489" 
d="M133 1079l-37 78q35 24 45.5 34t18.5 27t12 52h-63l26 248h162l-21 -195q-12 -117 -37 -161t-106 -83zM356 1079l-39 78q46 32 57 48t17 65h-61l26 248h162l-20 -195q-12 -116 -37.5 -160t-104.5 -84z" />
    <glyph glyph-name="quotedblbase" unicode="&#x201e;" horiz-adv-x="489" 
d="M2 -190l-43 77q50 33 62 48.5t16 64.5h-64l27 250h164l-21 -195q-12 -117 -37.5 -161t-103.5 -84zM223 -190l-41 77q49 33 60.5 48.5t15.5 64.5h-61l24 250h164l-20 -195q-8 -81 -21.5 -123t-40 -68t-80.5 -54z" />
    <glyph glyph-name="dagger" unicode="&#x2020;" horiz-adv-x="524" 
d="M68 969l16 147h141l45 432h150l-45 -432h143l-16 -147h-144l-131 -1268h-149l131 1268h-141z" />
    <glyph glyph-name="daggerdbl" unicode="&#x2021;" horiz-adv-x="522" 
d="M78 -299l45 432h-146l19 150h141l72 686h-141l16 147h141l45 432h150l-45 -432h143l-16 -147h-142l-73 -686h143l-16 -150h-142l-45 -432h-149z" />
    <glyph glyph-name="bullet" unicode="&#x2022;" horiz-adv-x="356" 
d="M47 451l37 346h199l-37 -346h-199z" />
    <glyph glyph-name="ellipsis" unicode="&#x2026;" horiz-adv-x="770" 
d="M-27 0l25 229h166l-23 -229h-168zM225 0l25 229h166l-23 -229h-168zM471 0l25 229h163l-20 -229h-168z" />
    <glyph glyph-name="perthousand" unicode="&#x2030;" horiz-adv-x="1431" 
d="M205 580q-92 0 -127 42t-35 146q0 76 23 295q26 248 45 319q26 99 86 128q37 18 98 18q92 0 128 -42t36 -145q0 -86 -25 -294q-26 -248 -46 -320q-28 -101 -89 -130q-36 -17 -94 -17zM213 705q18 0 27.5 8t19.5 48t18 100.5t21 187.5q23 228 23 276q0 45 -8.5 59.5
t-28.5 14.5q-33 0 -46 -53t-38 -289q-23 -203 -23 -279q0 -44 7.5 -58.5t27.5 -14.5zM727 -10q-91 0 -126.5 43t-35.5 147q0 58 25 295q9 84 13.5 123t12.5 97.5t15.5 83t20 60t26.5 48t35 28t47 19.5t61 4q92 0 127 -41.5t35 -144.5q0 -87 -25 -295q-26 -246 -45 -317
q-27 -102 -87 -132q-38 -18 -99 -18zM739 117q18 0 27.5 8t19.5 47.5t17 100t20 186.5q25 252 25 278q0 43 -9.5 58.5t-29.5 15.5q-17 0 -26.5 -8t-19 -48t-17.5 -101t-21 -187q-23 -232 -23 -279q0 -43 8.5 -57t28.5 -14zM1141 -10q-92 0 -128 43t-36 147q0 86 22 295
q27 248 47 319q27 98 87 126q37 18 98 18q91 0 126.5 -41.5t35.5 -144.5q0 -76 -23 -295q-28 -247 -46 -317q-27 -102 -87 -132q-37 -18 -96 -18zM1149 117q18 0 27.5 8t19.5 47.5t17 100t20 186.5q24 211 24 278q0 44 -8.5 59t-29.5 15q-32 0 -44.5 -53.5t-37.5 -290.5
q-23 -203 -23 -279q0 -44 7 -57.5t28 -13.5zM207 0l469 1518h139l-469 -1518h-139z" />
    <glyph glyph-name="guilsinglleft" unicode="&#x2039;" horiz-adv-x="407" 
d="M111 0l-66 567l182 570h142l-176 -570l55 -567h-137z" />
    <glyph glyph-name="guilsinglright" unicode="&#x203a;" horiz-adv-x="407" 
d="M0 0l174 567l-53 570h137l64 -570l-183 -567h-139z" />
    <glyph glyph-name="fraction" unicode="&#x2044;" horiz-adv-x="483" 
d="M-80 0l508 1518h137l-506 -1518h-139z" />
    <glyph glyph-name="fraction" unicode="&#x2215;" horiz-adv-x="483" 
d="M-80 0l508 1518h137l-506 -1518h-139z" />
    <glyph glyph-name="Euro" unicode="&#x20ac;" horiz-adv-x="550" 
d="M31 797l12 129h96q28 261 49 362t66 158q59 82 192 82q71 0 134 -19l-45 -143q-46 12 -89 12q-71 0 -98.5 -86t-58.5 -366h172l-15 -129h-170q-4 -24 -4 -35q-3 -24 -6 -45h172l-14 -127h-170q-23 -227 -23 -316q0 -82 19.5 -110.5t68.5 -28.5q32 0 80 12l31 -133
q-68 -22 -127 -22q-131 0 -177 61t-46 205q0 117 22 332h-96l14 127h97q3 27 6 57q0 15 2 23h-94z" />
    <glyph glyph-name="trademark" unicode="&#x2122;" horiz-adv-x="864" 
d="M94 532l90 877h-94l10 109h310l-11 -109h-98l-92 -877h-115zM334 532l102 986h142l2 -660l141 660h143l-102 -986h-109l68 658l-137 -658h-80l-2 660l-70 -660h-98z" />
    <glyph glyph-name="partialdiff" unicode="&#x2202;" horiz-adv-x="1703" 
d="M258 246q-88 105 -136 237t-48 277q0 144 48 276t136 236q6 -4 14 -12q-85 -103 -131.5 -231.5t-46.5 -268.5q0 -285 180 -500zM467 432q-117 143 -117 328q0 183 115 327q3 -2 8 -7t8 -7q-110 -136 -110 -313q0 -182 110 -314zM541 498q-92 116 -92 262t92 262
q3 -2 8 -7t8 -7q-88 -109 -88 -248t88 -248q-3 -2 -8 -7t-8 -7zM647 592q-57 72 -57 168q0 97 57 166l15 -15q-52 -69 -52 -151q0 -84 54 -154q-3 -2 -8.5 -7t-8.5 -7zM715 655q-33 48 -33 105q0 56 33 104q3 -2 8 -7t8 -7q-29 -44 -29 -90t29 -90q-3 -2 -16 -15zM774 709
q-14 25 -14 51t14 51l12 -10q-10 -20 -10 -41t10 -41q-4 -4 -12 -10zM852 123q-236 0 -412 158l2.5 2.5l5 5l5.5 5.5t2 1q171 -152 397 -152q227 0 395 152q2 -3 7.5 -8t7.5 -8q-177 -156 -410 -156zM852 664q-31 0 -55 18l12 12q21 -14 43 -14q26 0 43 14q4 -4 10 -12
q-21 -18 -53 -18zM987 653q-7 10 -14 15q28 42 28 92q0 51 -28 90l2.5 2.5t5 4.5t5.5 5t1 2q35 -44 35 -104t-35 -107zM598 551q-72 91 -72 209q0 119 74 209l14 -15q-67 -87 -67 -194q0 -108 67 -195q-10 -10 -16 -14zM852 -35q-145 0 -278 52.5t-238 146.5l14 16
q102 -92 231 -143t271 -51q285 0 500 192q0 1 3.5 -2.5t6.5 -7.5l4 -4q-104 -95 -236 -147t-278 -52zM852 248q-189 0 -330 125l15 16q134 -121 315 -121q182 0 313 121q2 -3 7.5 -8t7.5 -8q-138 -125 -328 -125zM852 348q-145 0 -264 101l14 14q108 -94 250 -94
q143 0 248 94q2 -3 7 -8.5t7 -8.5q-112 -98 -262 -98zM852 428q-116 0 -211 78l14 16q86 -73 197 -73t197 73q4 -4 12 -16q-91 -78 -209 -78zM852 543q-77 0 -135 49l14 16q51 -45 121 -45q68 0 119 45q2 -3 7 -8t7 -8q-58 -49 -133 -49zM733 911q-4 3 -7 6.5t-6 6.5l-3 4
q58 49 135 49t135 -49l-16 -17q-51 45 -119 45t-119 -45zM1167 1130q-134 121 -315 121q-179 0 -313 -118l-15 14q141 125 328 125q189 0 330 -125q-4 -6 -15 -17zM930 709l-12 10q10 20 10 41t-10 41l12 10q14 -25 14 -51t-14 -51zM958 682q-10 10 -16 14q21 32 21 64
t-21 63l16 15q25 -36 25 -78t-25 -78zM1020 627q-6 4 -16 14q38 50 38 119t-38 119l14 14q45 -57 45 -133q0 -71 -43 -133zM1106 551q-3 2 -8 7t-8 7q67 87 67 195t-70 194l17 15q74 -90 74 -209q0 -118 -72 -209zM1163 498q-10 10 -16 14q88 109 88 248t-88 248l16 14
q92 -116 92 -262t-92 -262zM1237 432q-6 4 -16 14q112 134 112 314q0 182 -112 313l16 14q117 -139 117 -327q0 -189 -117 -328zM1329 350q-2 2 -7 6t-7 6q141 175 141 398q0 227 -143 395l16 14q148 -179 148 -409q0 -231 -148 -410zM1446 246q-6 6 -16 14q180 215 180 500
t-180 500l16 14q88 -105 136 -237t48 -277q0 -144 -48 -276t-136 -238zM375 348q-148 182 -148 412q0 229 146 409q2 -2 7.5 -6.5t8.5 -7.5q-141 -170 -141 -395q0 -228 141 -398zM684 627q-43 59 -43 133t43 133q6 -4 16 -14q-38 -50 -38 -119q0 -67 38 -117zM745 682
q-24 34 -24 78t24 78q2 -3 4.5 -5.5t6 -5.5t4.5 -4q-19 -34 -19 -63q0 -30 19 -64zM809 825l-10 13q21 18 53 18t53 -18l-10 -13q-23 15 -43 15q-25 0 -43 -15zM786 852l-14 14q37 29 80 29q41 0 78 -29q-8 -8 -12 -14q-28 25 -66 25q-34 0 -66 -25zM760 881l-15 16
q45 39 107 39q61 0 106 -39l-14 -16q-37 34 -92 34t-92 -34zM604 1057l-14 16q112 98 262 98q151 0 262 -100q1 0 -2 -3.5t-6 -7.5l-4 -3q-108 94 -250 94q-143 0 -248 -94zM852 492q-100 0 -170 61l14 16q70 -57 156 -57q87 0 154 57l14 -14q-73 -63 -168 -63zM852 584
q-61 0 -109 39l15 16q47 -35 94 -35q51 0 92 35l14 -16q-45 -39 -106 -39zM852 625q-43 0 -82 28l14 15q36 -25 68 -25q34 0 66 25l14 -15q-36 -28 -80 -28zM698 950l-14 15q73 63 168 63q98 0 168 -61l-14 -17q-68 58 -154 58q-87 0 -154 -58zM655 997l-14 17q91 78 211 78
q119 0 209 -80l-12 -15q-83 74 -197 74q-110 0 -197 -74zM1249 1223q-166 153 -397 153q-227 0 -397 -151l-15 14q179 158 412 158t412 -158zM352 1339l-14 17q104 95 236 146.5t278 51.5q145 0 278 -52t238 -146l-14 -17q-102 93 -231 144t-271 51t-270 -51t-230 -144z
M1057 594l-15 14q52 69 52 152t-54 153l17 15q57 -72 57 -168q0 -97 -57 -166z" />
    <glyph glyph-name="product" unicode="&#x220f;" horiz-adv-x="1703" 
d="M258 246q-88 105 -136 237t-48 277q0 144 48 276t136 236q6 -4 14 -12q-85 -103 -131.5 -231.5t-46.5 -268.5q0 -285 180 -500zM467 432q-117 143 -117 328q0 183 115 327q3 -2 8 -7t8 -7q-110 -136 -110 -313q0 -182 110 -314zM541 498q-92 116 -92 262t92 262
q3 -2 8 -7t8 -7q-88 -109 -88 -248t88 -248q-3 -2 -8 -7t-8 -7zM647 592q-57 72 -57 168q0 97 57 166l15 -15q-52 -69 -52 -151q0 -84 54 -154q-3 -2 -8.5 -7t-8.5 -7zM715 655q-33 48 -33 105q0 56 33 104q3 -2 8 -7t8 -7q-29 -44 -29 -90t29 -90q-3 -2 -16 -15zM774 709
q-14 25 -14 51t14 51l12 -10q-10 -20 -10 -41t10 -41q-4 -4 -12 -10zM852 123q-236 0 -412 158l2.5 2.5l5 5l5.5 5.5t2 1q171 -152 397 -152q227 0 395 152q2 -3 7.5 -8t7.5 -8q-177 -156 -410 -156zM852 664q-31 0 -55 18l12 12q21 -14 43 -14q26 0 43 14q4 -4 10 -12
q-21 -18 -53 -18zM987 653q-7 10 -14 15q28 42 28 92q0 51 -28 90l2.5 2.5t5 4.5t5.5 5t1 2q35 -44 35 -104t-35 -107zM598 551q-72 91 -72 209q0 119 74 209l14 -15q-67 -87 -67 -194q0 -108 67 -195q-10 -10 -16 -14zM852 -35q-145 0 -278 52.5t-238 146.5l14 16
q102 -92 231 -143t271 -51q285 0 500 192q0 1 3.5 -2.5t6.5 -7.5l4 -4q-104 -95 -236 -147t-278 -52zM852 248q-189 0 -330 125l15 16q134 -121 315 -121q182 0 313 121q2 -3 7.5 -8t7.5 -8q-138 -125 -328 -125zM852 348q-145 0 -264 101l14 14q108 -94 250 -94
q143 0 248 94q2 -3 7 -8.5t7 -8.5q-112 -98 -262 -98zM852 428q-116 0 -211 78l14 16q86 -73 197 -73t197 73q4 -4 12 -16q-91 -78 -209 -78zM852 543q-77 0 -135 49l14 16q51 -45 121 -45q68 0 119 45q2 -3 7 -8t7 -8q-58 -49 -133 -49zM733 911q-4 3 -7 6.5t-6 6.5l-3 4
q58 49 135 49t135 -49l-16 -17q-51 45 -119 45t-119 -45zM1167 1130q-134 121 -315 121q-179 0 -313 -118l-15 14q141 125 328 125q189 0 330 -125q-4 -6 -15 -17zM930 709l-12 10q10 20 10 41t-10 41l12 10q14 -25 14 -51t-14 -51zM958 682q-10 10 -16 14q21 32 21 64
t-21 63l16 15q25 -36 25 -78t-25 -78zM1020 627q-6 4 -16 14q38 50 38 119t-38 119l14 14q45 -57 45 -133q0 -71 -43 -133zM1106 551q-3 2 -8 7t-8 7q67 87 67 195t-70 194l17 15q74 -90 74 -209q0 -118 -72 -209zM1163 498q-10 10 -16 14q88 109 88 248t-88 248l16 14
q92 -116 92 -262t-92 -262zM1237 432q-6 4 -16 14q112 134 112 314q0 182 -112 313l16 14q117 -139 117 -327q0 -189 -117 -328zM1329 350q-2 2 -7 6t-7 6q141 175 141 398q0 227 -143 395l16 14q148 -179 148 -409q0 -231 -148 -410zM1446 246q-6 6 -16 14q180 215 180 500
t-180 500l16 14q88 -105 136 -237t48 -277q0 -144 -48 -276t-136 -238zM375 348q-148 182 -148 412q0 229 146 409q2 -2 7.5 -6.5t8.5 -7.5q-141 -170 -141 -395q0 -228 141 -398zM684 627q-43 59 -43 133t43 133q6 -4 16 -14q-38 -50 -38 -119q0 -67 38 -117zM745 682
q-24 34 -24 78t24 78q2 -3 4.5 -5.5t6 -5.5t4.5 -4q-19 -34 -19 -63q0 -30 19 -64zM809 825l-10 13q21 18 53 18t53 -18l-10 -13q-23 15 -43 15q-25 0 -43 -15zM786 852l-14 14q37 29 80 29q41 0 78 -29q-8 -8 -12 -14q-28 25 -66 25q-34 0 -66 -25zM760 881l-15 16
q45 39 107 39q61 0 106 -39l-14 -16q-37 34 -92 34t-92 -34zM604 1057l-14 16q112 98 262 98q151 0 262 -100q1 0 -2 -3.5t-6 -7.5l-4 -3q-108 94 -250 94q-143 0 -248 -94zM852 492q-100 0 -170 61l14 16q70 -57 156 -57q87 0 154 57l14 -14q-73 -63 -168 -63zM852 584
q-61 0 -109 39l15 16q47 -35 94 -35q51 0 92 35l14 -16q-45 -39 -106 -39zM852 625q-43 0 -82 28l14 15q36 -25 68 -25q34 0 66 25l14 -15q-36 -28 -80 -28zM698 950l-14 15q73 63 168 63q98 0 168 -61l-14 -17q-68 58 -154 58q-87 0 -154 -58zM655 997l-14 17q91 78 211 78
q119 0 209 -80l-12 -15q-83 74 -197 74q-110 0 -197 -74zM1249 1223q-166 153 -397 153q-227 0 -397 -151l-15 14q179 158 412 158t412 -158zM352 1339l-14 17q104 95 236 146.5t278 51.5q145 0 278 -52t238 -146l-14 -17q-102 93 -231 144t-271 51t-270 -51t-230 -144z
M1057 594l-15 14q52 69 52 152t-54 153l17 15q57 -72 57 -168q0 -97 -57 -166z" />
    <glyph glyph-name="summation" unicode="&#x2211;" horiz-adv-x="1703" 
d="M258 246q-88 105 -136 237t-48 277q0 144 48 276t136 236q6 -4 14 -12q-85 -103 -131.5 -231.5t-46.5 -268.5q0 -285 180 -500zM467 432q-117 143 -117 328q0 183 115 327q3 -2 8 -7t8 -7q-110 -136 -110 -313q0 -182 110 -314zM541 498q-92 116 -92 262t92 262
q3 -2 8 -7t8 -7q-88 -109 -88 -248t88 -248q-3 -2 -8 -7t-8 -7zM647 592q-57 72 -57 168q0 97 57 166l15 -15q-52 -69 -52 -151q0 -84 54 -154q-3 -2 -8.5 -7t-8.5 -7zM715 655q-33 48 -33 105q0 56 33 104q3 -2 8 -7t8 -7q-29 -44 -29 -90t29 -90q-3 -2 -16 -15zM774 709
q-14 25 -14 51t14 51l12 -10q-10 -20 -10 -41t10 -41q-4 -4 -12 -10zM852 123q-236 0 -412 158l2.5 2.5l5 5l5.5 5.5t2 1q171 -152 397 -152q227 0 395 152q2 -3 7.5 -8t7.5 -8q-177 -156 -410 -156zM852 664q-31 0 -55 18l12 12q21 -14 43 -14q26 0 43 14q4 -4 10 -12
q-21 -18 -53 -18zM987 653q-7 10 -14 15q28 42 28 92q0 51 -28 90l2.5 2.5t5 4.5t5.5 5t1 2q35 -44 35 -104t-35 -107zM598 551q-72 91 -72 209q0 119 74 209l14 -15q-67 -87 -67 -194q0 -108 67 -195q-10 -10 -16 -14zM852 -35q-145 0 -278 52.5t-238 146.5l14 16
q102 -92 231 -143t271 -51q285 0 500 192q0 1 3.5 -2.5t6.5 -7.5l4 -4q-104 -95 -236 -147t-278 -52zM852 248q-189 0 -330 125l15 16q134 -121 315 -121q182 0 313 121q2 -3 7.5 -8t7.5 -8q-138 -125 -328 -125zM852 348q-145 0 -264 101l14 14q108 -94 250 -94
q143 0 248 94q2 -3 7 -8.5t7 -8.5q-112 -98 -262 -98zM852 428q-116 0 -211 78l14 16q86 -73 197 -73t197 73q4 -4 12 -16q-91 -78 -209 -78zM852 543q-77 0 -135 49l14 16q51 -45 121 -45q68 0 119 45q2 -3 7 -8t7 -8q-58 -49 -133 -49zM733 911q-4 3 -7 6.5t-6 6.5l-3 4
q58 49 135 49t135 -49l-16 -17q-51 45 -119 45t-119 -45zM1167 1130q-134 121 -315 121q-179 0 -313 -118l-15 14q141 125 328 125q189 0 330 -125q-4 -6 -15 -17zM930 709l-12 10q10 20 10 41t-10 41l12 10q14 -25 14 -51t-14 -51zM958 682q-10 10 -16 14q21 32 21 64
t-21 63l16 15q25 -36 25 -78t-25 -78zM1020 627q-6 4 -16 14q38 50 38 119t-38 119l14 14q45 -57 45 -133q0 -71 -43 -133zM1106 551q-3 2 -8 7t-8 7q67 87 67 195t-70 194l17 15q74 -90 74 -209q0 -118 -72 -209zM1163 498q-10 10 -16 14q88 109 88 248t-88 248l16 14
q92 -116 92 -262t-92 -262zM1237 432q-6 4 -16 14q112 134 112 314q0 182 -112 313l16 14q117 -139 117 -327q0 -189 -117 -328zM1329 350q-2 2 -7 6t-7 6q141 175 141 398q0 227 -143 395l16 14q148 -179 148 -409q0 -231 -148 -410zM1446 246q-6 6 -16 14q180 215 180 500
t-180 500l16 14q88 -105 136 -237t48 -277q0 -144 -48 -276t-136 -238zM375 348q-148 182 -148 412q0 229 146 409q2 -2 7.5 -6.5t8.5 -7.5q-141 -170 -141 -395q0 -228 141 -398zM684 627q-43 59 -43 133t43 133q6 -4 16 -14q-38 -50 -38 -119q0 -67 38 -117zM745 682
q-24 34 -24 78t24 78q2 -3 4.5 -5.5t6 -5.5t4.5 -4q-19 -34 -19 -63q0 -30 19 -64zM809 825l-10 13q21 18 53 18t53 -18l-10 -13q-23 15 -43 15q-25 0 -43 -15zM786 852l-14 14q37 29 80 29q41 0 78 -29q-8 -8 -12 -14q-28 25 -66 25q-34 0 -66 -25zM760 881l-15 16
q45 39 107 39q61 0 106 -39l-14 -16q-37 34 -92 34t-92 -34zM604 1057l-14 16q112 98 262 98q151 0 262 -100q1 0 -2 -3.5t-6 -7.5l-4 -3q-108 94 -250 94q-143 0 -248 -94zM852 492q-100 0 -170 61l14 16q70 -57 156 -57q87 0 154 57l14 -14q-73 -63 -168 -63zM852 584
q-61 0 -109 39l15 16q47 -35 94 -35q51 0 92 35l14 -16q-45 -39 -106 -39zM852 625q-43 0 -82 28l14 15q36 -25 68 -25q34 0 66 25l14 -15q-36 -28 -80 -28zM698 950l-14 15q73 63 168 63q98 0 168 -61l-14 -17q-68 58 -154 58q-87 0 -154 -58zM655 997l-14 17q91 78 211 78
q119 0 209 -80l-12 -15q-83 74 -197 74q-110 0 -197 -74zM1249 1223q-166 153 -397 153q-227 0 -397 -151l-15 14q179 158 412 158t412 -158zM352 1339l-14 17q104 95 236 146.5t278 51.5q145 0 278 -52t238 -146l-14 -17q-102 93 -231 144t-271 51t-270 -51t-230 -144z
M1057 594l-15 14q52 69 52 152t-54 153l17 15q57 -72 57 -168q0 -97 -57 -166z" />
    <glyph glyph-name="minus" unicode="&#x2212;" horiz-adv-x="600" 
d="M76 670l14 145h434l-14 -145h-434z" />
    <glyph glyph-name="radical" unicode="&#x221a;" horiz-adv-x="559" 
d="M86 -8l-41 868h154l-2 -586l280 1244h148l-383 -1526h-156z" />
    <glyph glyph-name="infinity" unicode="&#x221e;" horiz-adv-x="892" 
d="M283 -297l135 1294h-144l-135 -1294h-147l135 1294h-82l12 140h84l21 182q12 130 60 180.5t165 50.5q23 0 29 -2l-15 -145h-6q-46 0 -63 -20.5t-25 -79.5l-18 -166h143l21 182q14 131 62 181t165 50q21 0 29 -2l-17 -145h-4q-46 0 -64 -21t-26 -79l-18 -166h84l-13 -140
h-86l-133 -1294h-149zM606 0l119 1137h149l-116 -1137h-152zM741 1274l21 217h151l-22 -217h-150z" />
    <glyph glyph-name="integral" unicode="&#x222b;" horiz-adv-x="1703" 
d="M258 246q-88 105 -136 237t-48 277q0 144 48 276t136 236q6 -4 14 -12q-85 -103 -131.5 -231.5t-46.5 -268.5q0 -285 180 -500zM467 432q-117 143 -117 328q0 183 115 327q3 -2 8 -7t8 -7q-110 -136 -110 -313q0 -182 110 -314zM541 498q-92 116 -92 262t92 262
q3 -2 8 -7t8 -7q-88 -109 -88 -248t88 -248q-3 -2 -8 -7t-8 -7zM647 592q-57 72 -57 168q0 97 57 166l15 -15q-52 -69 -52 -151q0 -84 54 -154q-3 -2 -8.5 -7t-8.5 -7zM715 655q-33 48 -33 105q0 56 33 104q3 -2 8 -7t8 -7q-29 -44 -29 -90t29 -90q-3 -2 -16 -15zM774 709
q-14 25 -14 51t14 51l12 -10q-10 -20 -10 -41t10 -41q-4 -4 -12 -10zM852 123q-236 0 -412 158l2.5 2.5l5 5l5.5 5.5t2 1q171 -152 397 -152q227 0 395 152q2 -3 7.5 -8t7.5 -8q-177 -156 -410 -156zM852 664q-31 0 -55 18l12 12q21 -14 43 -14q26 0 43 14q4 -4 10 -12
q-21 -18 -53 -18zM987 653q-7 10 -14 15q28 42 28 92q0 51 -28 90l2.5 2.5t5 4.5t5.5 5t1 2q35 -44 35 -104t-35 -107zM598 551q-72 91 -72 209q0 119 74 209l14 -15q-67 -87 -67 -194q0 -108 67 -195q-10 -10 -16 -14zM852 -35q-145 0 -278 52.5t-238 146.5l14 16
q102 -92 231 -143t271 -51q285 0 500 192q0 1 3.5 -2.5t6.5 -7.5l4 -4q-104 -95 -236 -147t-278 -52zM852 248q-189 0 -330 125l15 16q134 -121 315 -121q182 0 313 121q2 -3 7.5 -8t7.5 -8q-138 -125 -328 -125zM852 348q-145 0 -264 101l14 14q108 -94 250 -94
q143 0 248 94q2 -3 7 -8.5t7 -8.5q-112 -98 -262 -98zM852 428q-116 0 -211 78l14 16q86 -73 197 -73t197 73q4 -4 12 -16q-91 -78 -209 -78zM852 543q-77 0 -135 49l14 16q51 -45 121 -45q68 0 119 45q2 -3 7 -8t7 -8q-58 -49 -133 -49zM733 911q-4 3 -7 6.5t-6 6.5l-3 4
q58 49 135 49t135 -49l-16 -17q-51 45 -119 45t-119 -45zM1167 1130q-134 121 -315 121q-179 0 -313 -118l-15 14q141 125 328 125q189 0 330 -125q-4 -6 -15 -17zM930 709l-12 10q10 20 10 41t-10 41l12 10q14 -25 14 -51t-14 -51zM958 682q-10 10 -16 14q21 32 21 64
t-21 63l16 15q25 -36 25 -78t-25 -78zM1020 627q-6 4 -16 14q38 50 38 119t-38 119l14 14q45 -57 45 -133q0 -71 -43 -133zM1106 551q-3 2 -8 7t-8 7q67 87 67 195t-70 194l17 15q74 -90 74 -209q0 -118 -72 -209zM1163 498q-10 10 -16 14q88 109 88 248t-88 248l16 14
q92 -116 92 -262t-92 -262zM1237 432q-6 4 -16 14q112 134 112 314q0 182 -112 313l16 14q117 -139 117 -327q0 -189 -117 -328zM1329 350q-2 2 -7 6t-7 6q141 175 141 398q0 227 -143 395l16 14q148 -179 148 -409q0 -231 -148 -410zM1446 246q-6 6 -16 14q180 215 180 500
t-180 500l16 14q88 -105 136 -237t48 -277q0 -144 -48 -276t-136 -238zM375 348q-148 182 -148 412q0 229 146 409q2 -2 7.5 -6.5t8.5 -7.5q-141 -170 -141 -395q0 -228 141 -398zM684 627q-43 59 -43 133t43 133q6 -4 16 -14q-38 -50 -38 -119q0 -67 38 -117zM745 682
q-24 34 -24 78t24 78q2 -3 4.5 -5.5t6 -5.5t4.5 -4q-19 -34 -19 -63q0 -30 19 -64zM809 825l-10 13q21 18 53 18t53 -18l-10 -13q-23 15 -43 15q-25 0 -43 -15zM786 852l-14 14q37 29 80 29q41 0 78 -29q-8 -8 -12 -14q-28 25 -66 25q-34 0 -66 -25zM760 881l-15 16
q45 39 107 39q61 0 106 -39l-14 -16q-37 34 -92 34t-92 -34zM604 1057l-14 16q112 98 262 98q151 0 262 -100q1 0 -2 -3.5t-6 -7.5l-4 -3q-108 94 -250 94q-143 0 -248 -94zM852 492q-100 0 -170 61l14 16q70 -57 156 -57q87 0 154 57l14 -14q-73 -63 -168 -63zM852 584
q-61 0 -109 39l15 16q47 -35 94 -35q51 0 92 35l14 -16q-45 -39 -106 -39zM852 625q-43 0 -82 28l14 15q36 -25 68 -25q34 0 66 25l14 -15q-36 -28 -80 -28zM698 950l-14 15q73 63 168 63q98 0 168 -61l-14 -17q-68 58 -154 58q-87 0 -154 -58zM655 997l-14 17q91 78 211 78
q119 0 209 -80l-12 -15q-83 74 -197 74q-110 0 -197 -74zM1249 1223q-166 153 -397 153q-227 0 -397 -151l-15 14q179 158 412 158t412 -158zM352 1339l-14 17q104 95 236 146.5t278 51.5q145 0 278 -52t238 -146l-14 -17q-102 93 -231 144t-271 51t-270 -51t-230 -144z
M1057 594l-15 14q52 69 52 152t-54 153l17 15q57 -72 57 -168q0 -97 -57 -166z" />
    <glyph glyph-name="approxequal" unicode="&#x2248;" horiz-adv-x="600" 
d="M68 502q10 109 40 144.5t85 35.5q29 0 100 -25.5t84 -25.5q14 0 21 10.5t10 40.5h110q-8 -109 -36 -143.5t-85 -34.5q-31 0 -102 24.5t-82 24.5q-14 0 -21.5 -10.5t-11.5 -40.5h-112zM76 758q10 108 40.5 145t84.5 37q29 0 100 -26.5t84 -26.5q14 0 20 10.5t9 42.5h112
q-6 -76 -22.5 -116.5t-39 -52t-61.5 -11.5q-29 0 -101 25.5t-83 25.5q-13 0 -20 -11t-11 -42h-112z" />
    <glyph glyph-name="notequal" unicode="&#x2260;" horiz-adv-x="653" 
d="M279 -297l135 1294h-144l-135 -1294h-151l137 1294h-80l12 140h82l21 182q14 131 62 181t165 50q23 0 29 -2l-15 -145h-8q-46 0 -63 -20.5t-23 -79.5l-18 -166h143l21 182q12 130 64 180.5t177 50.5q31 0 39 -2l-14 -145h-25q-53 0 -70.5 -20t-23.5 -80l-18 -166h108
l-14 -140h-109l-135 -1294h-149z" />
    <glyph glyph-name="lessequal" unicode="&#x2264;" horiz-adv-x="600" 
d="M428 350l-344 330l10 117l416 327l-21 -174l-251 -213l208 -211zM31 184l14 148h381l-16 -148h-379z" />
    <glyph glyph-name="greaterequal" unicode="&#x2265;" horiz-adv-x="600" 
d="M88 350l18 174l254 213l-208 213l18 174l344 -327l-12 -117zM70 184l18 148h379l-16 -148h-381z" />
    <glyph glyph-name="lozenge" unicode="&#x25ca;" horiz-adv-x="665" 
d="M-16 -297l139 1294h-82l12 140h84l19 182q14 131 62 181t165 50q23 0 29 -2l-15 -145h-8q-46 0 -63 -20.5t-23 -79.5l-18 -166h145l43 270l133 41l-35 -311h109l-14 -140h-107l-82 -768q-5 -51 6.5 -67.5t53.5 -16.5h36l-14 -145q-12 -2 -59 -2q-115 0 -150 52.5
t-22 166.5l82 780h-138l-137 -1294h-151z" />
    <glyph glyph-name="apple" unicode="&#xf8ff;" horiz-adv-x="1703" 
d="M258 246q-88 105 -136 237t-48 277q0 144 48 276t136 236q6 -4 14 -12q-85 -103 -131.5 -231.5t-46.5 -268.5q0 -285 180 -500zM467 432q-117 143 -117 328q0 183 115 327q3 -2 8 -7t8 -7q-110 -136 -110 -313q0 -182 110 -314zM541 498q-92 116 -92 262t92 262
q3 -2 8 -7t8 -7q-88 -109 -88 -248t88 -248q-3 -2 -8 -7t-8 -7zM647 592q-57 72 -57 168q0 97 57 166l15 -15q-52 -69 -52 -151q0 -84 54 -154q-3 -2 -8.5 -7t-8.5 -7zM715 655q-33 48 -33 105q0 56 33 104q3 -2 8 -7t8 -7q-29 -44 -29 -90t29 -90q-3 -2 -16 -15zM774 709
q-14 25 -14 51t14 51l12 -10q-10 -20 -10 -41t10 -41q-4 -4 -12 -10zM852 123q-236 0 -412 158l2.5 2.5l5 5l5.5 5.5t2 1q171 -152 397 -152q227 0 395 152q2 -3 7.5 -8t7.5 -8q-177 -156 -410 -156zM852 664q-31 0 -55 18l12 12q21 -14 43 -14q26 0 43 14q4 -4 10 -12
q-21 -18 -53 -18zM987 653q-7 10 -14 15q28 42 28 92q0 51 -28 90l2.5 2.5t5 4.5t5.5 5t1 2q35 -44 35 -104t-35 -107zM598 551q-72 91 -72 209q0 119 74 209l14 -15q-67 -87 -67 -194q0 -108 67 -195q-10 -10 -16 -14zM852 -35q-145 0 -278 52.5t-238 146.5l14 16
q102 -92 231 -143t271 -51q285 0 500 192q0 1 3.5 -2.5t6.5 -7.5l4 -4q-104 -95 -236 -147t-278 -52zM852 248q-189 0 -330 125l15 16q134 -121 315 -121q182 0 313 121q2 -3 7.5 -8t7.5 -8q-138 -125 -328 -125zM852 348q-145 0 -264 101l14 14q108 -94 250 -94
q143 0 248 94q2 -3 7 -8.5t7 -8.5q-112 -98 -262 -98zM852 428q-116 0 -211 78l14 16q86 -73 197 -73t197 73q4 -4 12 -16q-91 -78 -209 -78zM852 543q-77 0 -135 49l14 16q51 -45 121 -45q68 0 119 45q2 -3 7 -8t7 -8q-58 -49 -133 -49zM733 911q-4 3 -7 6.5t-6 6.5l-3 4
q58 49 135 49t135 -49l-16 -17q-51 45 -119 45t-119 -45zM1167 1130q-134 121 -315 121q-179 0 -313 -118l-15 14q141 125 328 125q189 0 330 -125q-4 -6 -15 -17zM930 709l-12 10q10 20 10 41t-10 41l12 10q14 -25 14 -51t-14 -51zM958 682q-10 10 -16 14q21 32 21 64
t-21 63l16 15q25 -36 25 -78t-25 -78zM1020 627q-6 4 -16 14q38 50 38 119t-38 119l14 14q45 -57 45 -133q0 -71 -43 -133zM1106 551q-3 2 -8 7t-8 7q67 87 67 195t-70 194l17 15q74 -90 74 -209q0 -118 -72 -209zM1163 498q-10 10 -16 14q88 109 88 248t-88 248l16 14
q92 -116 92 -262t-92 -262zM1237 432q-6 4 -16 14q112 134 112 314q0 182 -112 313l16 14q117 -139 117 -327q0 -189 -117 -328zM1329 350q-2 2 -7 6t-7 6q141 175 141 398q0 227 -143 395l16 14q148 -179 148 -409q0 -231 -148 -410zM1446 246q-6 6 -16 14q180 215 180 500
t-180 500l16 14q88 -105 136 -237t48 -277q0 -144 -48 -276t-136 -238zM375 348q-148 182 -148 412q0 229 146 409q2 -2 7.5 -6.5t8.5 -7.5q-141 -170 -141 -395q0 -228 141 -398zM684 627q-43 59 -43 133t43 133q6 -4 16 -14q-38 -50 -38 -119q0 -67 38 -117zM745 682
q-24 34 -24 78t24 78q2 -3 4.5 -5.5t6 -5.5t4.5 -4q-19 -34 -19 -63q0 -30 19 -64zM809 825l-10 13q21 18 53 18t53 -18l-10 -13q-23 15 -43 15q-25 0 -43 -15zM786 852l-14 14q37 29 80 29q41 0 78 -29q-8 -8 -12 -14q-28 25 -66 25q-34 0 -66 -25zM760 881l-15 16
q45 39 107 39q61 0 106 -39l-14 -16q-37 34 -92 34t-92 -34zM604 1057l-14 16q112 98 262 98q151 0 262 -100q1 0 -2 -3.5t-6 -7.5l-4 -3q-108 94 -250 94q-143 0 -248 -94zM852 492q-100 0 -170 61l14 16q70 -57 156 -57q87 0 154 57l14 -14q-73 -63 -168 -63zM852 584
q-61 0 -109 39l15 16q47 -35 94 -35q51 0 92 35l14 -16q-45 -39 -106 -39zM852 625q-43 0 -82 28l14 15q36 -25 68 -25q34 0 66 25l14 -15q-36 -28 -80 -28zM698 950l-14 15q73 63 168 63q98 0 168 -61l-14 -17q-68 58 -154 58q-87 0 -154 -58zM655 997l-14 17q91 78 211 78
q119 0 209 -80l-12 -15q-83 74 -197 74q-110 0 -197 -74zM1249 1223q-166 153 -397 153q-227 0 -397 -151l-15 14q179 158 412 158t412 -158zM352 1339l-14 17q104 95 236 146.5t278 51.5q145 0 278 -52t238 -146l-14 -17q-102 93 -231 144t-271 51t-270 -51t-230 -144z
M1057 594l-15 14q52 69 52 152t-54 153l17 15q57 -72 57 -168q0 -97 -57 -166z" />
    </font>
</defs>
</svg>
