<?xml version="1.0" standalone="no"?>
<!DOCTYPE svg PUBLIC "-//W3C//DTD SVG 1.1//EN" "http://www.w3.org/Graphics/SVG/1.1/DTD/svg11.dtd" >
<svg xmlns="http://www.w3.org/2000/svg" xmlns:xlink="http://www.w3.org/1999/xlink" version="1.1">
<metadata>
Created by FontForge 20201107 at Wed Dec 24 15:01:13 2025
 By 
Copyright (c) The Font Bureau, Inc., 2003. All rights reserved.
</metadata>
<defs>
<font id="AntennaComp-ThinItalic" horiz-adv-x="378" >
  <font-face 
    font-family="AntennaComp ThinItalic"
    font-weight="100"
    font-style="italic"
    font-stretch="normal"
    units-per-em="2048"
    panose-1="2 0 5 8 0 0 0 2 0 4"
    ascent="1638"
    descent="-410"
    x-height="1110"
    cap-height="1518"
    bbox="-125 -338 1630 1835"
    underline-thickness="102"
    underline-position="-204"
    slope="-6"
    unicode-range="U+0020-FB02"
  />
<missing-glyph horiz-adv-x="167" 
 />
    <glyph glyph-name="fi" unicode="fi" horiz-adv-x="423" 
d="M55 1065l4 45h72l29 264q9 96 39.5 135t107.5 39h10l-4 -47h-4q-58 0 -76 -26t-26 -101l-29 -264h94l-4 -45h-94l-143 -1362h-47l143 1362h-72zM233 0l117 1110h47l-116 -1110h-48zM369 1288l18 164h47l-18 -164h-47z" />
    <glyph glyph-name="fl" unicode="fl" horiz-adv-x="458" 
d="M55 1065l4 45h72l29 264q9 96 39.5 135t107.5 39h10l-4 -47h-4q-58 0 -76 -26t-26 -101l-29 -264h94l-4 -45h-94l-143 -1362h-47l143 1362h-72zM336 0q-62 0 -78.5 33t-9.5 106l147 1409h47l-147 -1409q-6 -59 1.5 -75.5t39.5 -16.5h10l-4 -47h-6z" />
    <glyph glyph-name="f_f_l" unicode="ffl" horiz-adv-x="675" 
d="M201 -297l143 1362h-170l-143 -1362h-47l143 1362h-72l4 45h72l29 264q9 96 39.5 135t107.5 39h10l-4 -47h-4q-58 0 -76 -26t-26 -101l-29 -264h170l29 264q9 96 39.5 135t107.5 39h11l-5 -47h-4q-58 0 -76 -26t-26 -101l-29 -264h94l-4 -45h-94l-143 -1362h-47zM553 0
q-62 0 -78.5 33t-9.5 106l147 1409h47l-147 -1409q-6 -59 1.5 -75.5t39.5 -16.5h10l-4 -47h-6z" />
    <glyph glyph-name="f_f_i" unicode="ffi" horiz-adv-x="641" 
d="M201 -297l143 1362h-170l-143 -1362h-47l143 1362h-72l4 45h72l29 264q9 96 39.5 135t107.5 39h10l-4 -47h-4q-58 0 -76 -26t-26 -101l-29 -264h170l29 264q9 96 39.5 135t107.5 39h11l-5 -47h-4q-58 0 -76 -26t-26 -101l-29 -264h94l-4 -45h-94l-143 -1362h-47zM451 0
l116 1110h47l-116 -1110h-47zM586 1288l18 164h47l-18 -164h-47z" />
    <glyph glyph-name="f_j" unicode="fj" horiz-adv-x="423" 
d="M55 1065l4 45h72l29 264q9 96 39.5 135t107.5 39h10l-4 -47h-4q-58 0 -76 -26t-26 -101l-29 -264h94l-4 -45h-94l-143 -1362h-47l143 1362h-72zM166 -297l4 47q25 1 32.5 11.5t10.5 41.5l137 1307h47l-137 -1305q-5 -53 -23 -77.5t-71 -24.5zM369 1288l18 164h47
l-18 -164h-47z" />
    <glyph glyph-name="f_f" unicode="ff" horiz-adv-x="466" 
d="M201 -297l143 1362h-170l-143 -1362h-47l143 1362h-72l4 45h72l29 264q9 96 39.5 135t107.5 39h10l-4 -47h-4q-58 0 -76 -26t-26 -101l-29 -264h170l29 264q9 96 39.5 135t107.5 39h11l-5 -47h-4q-58 0 -76 -26t-26 -101l-29 -264h94l-4 -45h-94l-143 -1362h-47z" />
    <glyph glyph-name=".notdef" horiz-adv-x="167" 
 />
    <glyph glyph-name=".null" horiz-adv-x="0" 
 />
    <glyph glyph-name="nonmarkingreturn" horiz-adv-x="682" 
 />
    <glyph glyph-name="space" unicode=" " horiz-adv-x="167" 
 />
    <glyph glyph-name="space" unicode="&#xa0;" horiz-adv-x="167" 
 />
    <glyph glyph-name="exclam" unicode="!" horiz-adv-x="249" 
d="M68 393l108 1125h60l-130 -1125h-38zM14 0l13 123h57l-12 -123h-58z" />
    <glyph glyph-name="quotedbl" unicode="&#x22;" horiz-adv-x="303" 
d="M104 1014l48 504h47l-60 -504h-35zM217 1014l47 504h47l-59 -504h-35z" />
    <glyph glyph-name="numbersign" unicode="#" horiz-adv-x="407" 
d="M43 0l63 600h-77l6 45h76l22 219h-76l6 45h76l64 609h45l-64 -609h72l63 609h46l-64 -609h76l-6 -45h-76l-23 -219h76l-6 -45h-76l-61 -600h-45l63 600h-73l-62 -600h-45zM156 645h71l23 219h-72z" />
    <glyph glyph-name="dollar" unicode="$" horiz-adv-x="321" 
d="M25 -184l16 176q-34 2 -78 10l17 47q54 -12 94 -12q46 0 67 14.5t29 60t2 140.5l-68 1005q-9 133 14 192.5t85 70.5l18 182h47l-18 -178q46 -2 86 -13l-14 -45q-37 11 -78 11q-46 0 -68.5 -25.5t-25 -72.5t1.5 -113l67 -1006q8 -150 -15.5 -208t-115.5 -62l-16 -174h-47z
" />
    <glyph glyph-name="percent" unicode="%" horiz-adv-x="618" 
d="M131 614q-49 0 -69.5 27.5t-20.5 106.5q0 88 27 331q32 296 54.5 370.5t90.5 74.5q50 0 70 -26.5t20 -104.5q0 -88 -27 -334q-32 -296 -54.5 -370.5t-90.5 -74.5zM131 659q21 0 31.5 9.5t22 58t20 117t24.5 219.5q29 271 29 330q0 52 -10 69t-35 17q-21 0 -31.5 -9.5
t-22 -57.5t-20 -117t-24.5 -220q-27 -249 -27 -327q0 -52 9.5 -70.5t33.5 -18.5zM406 -8q-50 0 -70.5 27t-20.5 106q0 89 27 332q32 296 54.5 370t90.5 74q50 0 70.5 -26.5t20.5 -104.5q0 -88 -27 -334q-32 -295 -54.5 -369.5t-90.5 -74.5zM406 37q21 0 31.5 9.5t22 57.5
t20 117t24.5 219q28 261 28 330q0 52 -10 69t-35 17q-21 0 -31.5 -9t-22 -57t-20 -117t-24.5 -220q-27 -249 -27 -328q0 -52 10 -70t34 -18zM100 0l371 1518h47l-371 -1518h-47z" />
    <glyph glyph-name="ampersand" unicode="&#x26;" horiz-adv-x="440" 
d="M102 -6q-81 0 -112 40t-31 132q0 100 15.5 195.5t47 186t60 155t72.5 153.5q-37 198 -37 354q0 187 24 244q27 72 111 72q68 0 91.5 -32t23.5 -114q0 -139 -40.5 -263t-121.5 -279q4 -20 11.5 -56t13.5 -64t10 -52l47 -244l80 500h47l-86 -545q-10 -50 -15 -86l58 -291
h-49l-33 168q-25 -96 -66 -135t-121 -39zM102 39q48 0 75 18t48 70t41 156l-73 374q-5 25 -14 71t-11 56q-75 -154 -118.5 -301.5t-43.5 -316.5q0 -68 21 -97.5t75 -29.5zM164 1208q0 -114 29 -299q63 124 94.5 235.5t31.5 235.5q0 59 -14 80t-53 21q-52 0 -68 -45
q-20 -52 -20 -228z" />
    <glyph glyph-name="quotesingle" unicode="'" horiz-adv-x="190" 
d="M104 1014l48 504h47l-60 -504h-35z" />
    <glyph glyph-name="parenleft" unicode="(" horiz-adv-x="276" 
d="M98 -297q-57 223 -57 514q0 191 22 408q58 554 228 923l45 -14q-165 -343 -225 -909q-23 -224 -23 -402q0 -295 55 -506z" />
    <glyph glyph-name="parenright" unicode=")" horiz-adv-x="276" 
d="M-43 -297l-45 14q165 342 225 910q23 224 23 403q0 289 -56 504l46 14q57 -207 57 -514q0 -180 -23 -407q-58 -558 -227 -924z" />
    <glyph glyph-name="asterisk" unicode="*" horiz-adv-x="339" 
d="M217 1034l-43 4l27 215l-138 -71l-18 39l143 57l-127 86l25 37l119 -98l18 217l43 -7l-28 -215l145 74l18 -39l-151 -59l135 -88l-25 -37l-127 98z" />
    <glyph glyph-name="plus" unicode="+" horiz-adv-x="409" 
d="M156 502l24 231h-106l4 45h106l25 228h47l-25 -228h105l-4 -45h-105l-24 -231h-47z" />
    <glyph glyph-name="comma" unicode="," horiz-adv-x="163" 
d="M-29 -104l-8 34q20 6 25.5 16t9.5 54h-25l13 123h57l-12 -123q-6 -56 -17 -75.5t-43 -28.5z" />
    <glyph glyph-name="hyphen" unicode="-" horiz-adv-x="301" 
d="M20 580l5 45h223l-4 -45h-224z" />
    <glyph glyph-name="hyphen" unicode="&#xad;" horiz-adv-x="301" 
d="M20 580l5 45h223l-4 -45h-224z" />
    <glyph glyph-name="period" unicode="." horiz-adv-x="163" 
d="M-27 0l13 123h57l-12 -123h-58z" />
    <glyph glyph-name="slash" unicode="/" horiz-adv-x="303" 
d="M-80 0l418 1518h45l-418 -1518h-45z" />
    <glyph glyph-name="zero" unicode="0" horiz-adv-x="372" 
d="M113 -8q-61 0 -87 36t-26 130q0 122 55 610q52 470 63 537q23 153 61 192q26 27 81 27q63 0 88 -35.5t25 -130.5q0 -88 -56 -613q-8 -72 -21 -197q-40 -379 -67 -467.5t-116 -88.5zM113 37q42 0 60 34q27 48 53 270q6 53 44 411q5 44 14 129.5t12.5 119t10 94.5t9 89
t5.5 66.5t4 62.5t1 45q0 70 -15 95.5t-51 25.5q-42 0 -61 -34q-27 -49 -53 -274q-7 -62 -44 -407q-55 -512 -55 -606q0 -69 15.5 -95t50.5 -26z" />
    <glyph glyph-name="one" unicode="1" horiz-adv-x="243" 
d="M37 0l156 1473h-99l4 45h146l-160 -1518h-47z" />
    <glyph glyph-name="two" unicode="2" horiz-adv-x="294" 
d="M-57 0l4 43l313 1212q10 39 15 61.5t10 52.5t2.5 46.5t-9.5 33t-23.5 23.5t-41.5 7q-41 0 -98 -17l-15 41q58 21 113 21q123 0 123 -117q0 -19 -4 -43.5t-6.5 -36.5t-11.5 -45t-9 -35l-309 -1202h188l-4 -45h-237z" />
    <glyph glyph-name="three" unicode="3" horiz-adv-x="299" 
d="M37 -8q-59 0 -100 16l16 43q41 -14 84 -14q64 0 85 70t46 313q27 258 26 307q-1 68 -33 85q-19 10 -71 11h-27l7 45h20q82 0 104 51.5t43 253.5l3 27q21 154 13.5 216.5t-60.5 62.5q-45 0 -87 -13l-14 43q49 15 101 15q61 0 84.5 -33t23.5 -109q0 -46 -14 -186
q-19 -181 -36 -251t-58 -97q28 -14 37.5 -43.5t9.5 -85.5q0 -58 -25 -303q-6 -56 -9 -89t-8.5 -76t-9.5 -67t-10.5 -54t-13 -45.5t-16 -34t-20 -27t-24.5 -17t-30.5 -11.5t-36.5 -3z" />
    <glyph glyph-name="four" unicode="4" horiz-adv-x="364" 
d="M-12 344l4 45l325 1129h45l-325 -1129h135l68 510h32l-53 -510h84l-4 -45h-86l-35 -344h-47l37 344h-180z" />
    <glyph glyph-name="five" unicode="5" horiz-adv-x="305" 
d="M57 -8q-68 0 -100 16l16 43q37 -14 84 -14q65 0 87 76t51 360q30 307 30 352q0 51 -12.5 68.5t-44.5 17.5q-26 0 -42.5 -7t-22.5 -14t-17 -24l-43 6l82 646h197l-7 -45h-147l-70 -537q23 20 70 20q58 0 81 -27t23 -104q0 -50 -30 -356q-9 -85 -14.5 -137t-13.5 -107
t-14.5 -84.5t-17 -60.5t-21 -44t-27 -25t-34.5 -15.5t-43 -3.5z" />
    <glyph glyph-name="six" unicode="6" horiz-adv-x="354" 
d="M104 -8q-22 0 -37 4.5t-32 19t-26 49.5t-9 89q0 66 37 434q55 547 58 570q26 221 66 289q34 58 106 68q24 3 59 3h28l-4 -45h-24q-30 0 -48.5 -2t-37.5 -12.5t-29.5 -23.5t-23 -45.5t-19.5 -66t-16 -97.5t-16 -129t-17 -169q8 21 34.5 36t63.5 15q58 0 81.5 -29.5
t23.5 -105.5q0 -36 -23 -256q-36 -339 -48 -408q-24 -131 -71 -167q-28 -21 -76 -21zM111 37q42 0 61 36q28 51 55 281q8 74 25 234q22 222 22 254q0 54 -14.5 73t-50.5 19q-24 0 -40 -9t-28.5 -28.5t-22 -63t-17 -97.5t-17.5 -148q-37 -352 -37 -434q0 -69 15 -93t49 -24z
" />
    <glyph glyph-name="seven" unicode="7" horiz-adv-x="272" 
d="M92 1473l4 45h230l-4 -41l-304 -1477h-47l303 1473h-182z" />
    <glyph glyph-name="eight" unicode="8" horiz-adv-x="354" 
d="M102 -8q-62 0 -87 30t-25 109q0 60 26 299l7.5 77.5t7 70.5t6 59.5t7 54t8 43.5t10 38.5t13 29t16.5 25t20 16.5q-23 23 -23 94q0 38 21 236q24 209 30 239q16 79 54 99q22 12 61 12q57 0 78.5 -28.5t21.5 -98.5q0 -52 -20 -240q-21 -176 -33.5 -237.5t-38.5 -81.5
q33 -33 33 -121q0 -75 -25 -305q-30 -290 -54.5 -355t-113.5 -65zM102 37q58 0 75 51.5t40 272.5q4 36 6 55q25 259 25 301q0 57 -14.5 79.5t-49.5 22.5q-58 0 -75.5 -58t-40.5 -288q-3 -32 -5 -49q-26 -269 -26 -293q0 -53 14.5 -73.5t50.5 -20.5zM188 862q48 0 62 41
t32 213q3 29 5 45q20 188 20 236q0 45 -11.5 63.5t-41.5 18.5q-47 0 -61 -44t-31 -204q-4 -40 -6 -62q-21 -198 -21 -231q0 -43 12 -59.5t41 -16.5z" />
    <glyph glyph-name="nine" unicode="9" horiz-adv-x="354" 
d="M-2 0l4 45h25q30 0 48 2t37.5 12.5t30 23t22.5 45t19 66t16 97t16 128t17 169.5q-10 -21 -36.5 -36t-61.5 -15q-58 0 -81 29.5t-23 105.5q0 45 22 256q36 339 48 408q24 131 71 167q28 21 76 21q22 0 37 -4.5t32 -19t26 -49.5t9 -89q0 -66 -37 -434q-56 -553 -56 -560
q-27 -226 -66 -295q-33 -58 -103 -69q-26 -4 -63 -4h-29zM143 582q24 0 40 9t28.5 28.5t22 63t17 97.5t17.5 148q37 352 37 434q0 69 -14.5 93t-48.5 24q-59 0 -81 -89t-61 -462q-22 -222 -22 -254q0 -54 14.5 -73t50.5 -19z" />
    <glyph glyph-name="colon" unicode=":" horiz-adv-x="172" 
d="M-23 0l13 123h57l-12 -123h-58zM82 987l12 123h58l-13 -123h-57z" />
    <glyph glyph-name="semicolon" unicode=";" horiz-adv-x="172" 
d="M82 987l12 123h58l-13 -123h-57zM-25 -104l-8 34q20 6 25.5 16t9.5 54h-25l13 123h57l-12 -123q-6 -56 -17 -75.5t-43 -28.5z" />
    <glyph glyph-name="less" unicode="&#x3c;" horiz-adv-x="409" 
d="M274 465l-208 266l4 49l266 267l-8 -66l-224 -225l177 -226z" />
    <glyph glyph-name="equal" unicode="=" horiz-adv-x="409" 
d="M78 799l4 45h262l-4 -45h-262zM57 602l4 45h263l-5 -45h-262z" />
    <glyph glyph-name="greater" unicode="&#x3e;" horiz-adv-x="409" 
d="M74 465l6 65l225 226l-178 225l8 66l209 -267l-4 -49z" />
    <glyph glyph-name="question" unicode="?" horiz-adv-x="327" 
d="M84 393q19 214 55 346l144 529q13 51 18.5 83.5t3.5 64.5t-21 47.5t-55 15.5q-63 0 -110 -19l-17 43q57 21 127 21q67 0 95 -30t30 -85q0 -59 -26 -154l-144 -526q-33 -126 -53 -336h-47zM43 0l12 123h58l-13 -123h-57z" />
    <glyph glyph-name="at" unicode="@" horiz-adv-x="653" 
d="M242 -297q-140 0 -189 64t-49 247q0 164 47 602q13 128 22 209t21 173.5t21 146t22.5 115t26.5 93.5t31.5 67t38 50.5t46 30t56 19t67.5 4.5q123 0 169 -62.5t46 -242.5q0 -178 -45 -603l-45 -421q-6 -58 -26 -83.5t-68 -25.5q-63 0 -74 47q-30 -51 -104 -51
q-63 0 -86 31t-23 127q-1 23 0.5 50t5 65.5t6 66.5t9 87t10.5 93q34 329 52 404q20 85 60 104q20 10 56 10q81 0 100 -59l15 49l35 -2l-95 -903q-5 -43 2 -61.5t35 -18.5q22 0 31 14.5t12 50.5l45 426q49 475 49 605q0 103 -17.5 159t-53.5 77.5t-101 21.5
q-148 0 -196.5 -148t-108.5 -715q-49 -475 -49 -606q0 -155 39.5 -208.5t153.5 -53.5h172l-4 -45h-168zM262 127q63 0 82 71.5t48 372.5q2 20 3 31q5 50 11.5 116t10 102.5t6.5 75.5t3 65q0 69 -16.5 91.5t-63.5 22.5q-27 0 -39.5 -8t-27 -58.5t-25 -138.5t-29.5 -268
q-30 -307 -30 -366q0 -51 7.5 -74.5t19.5 -29t40 -5.5z" />
    <glyph glyph-name="A" unicode="A" horiz-adv-x="362" 
d="M-63 0l299 1522h47l-17 -1522h-45l4 430h-159l-84 -430h-45zM74 473h151l8 651l7 201l-37 -201z" />
    <glyph glyph-name="B" unicode="B" horiz-adv-x="387" 
d="M-14 0l159 1518h82q88 0 122 -43t34 -142q0 -39 -16 -207q-18 -169 -42.5 -244.5t-78.5 -101.5q39 -19 55 -62t16 -114q0 -82 -16 -213q-6 -50 -9 -76.5t-9 -66.5t-10.5 -60.5t-11.5 -49.5t-14.5 -43.5t-18 -33.5t-23 -27.5t-28.5 -18t-35 -12.5t-42 -3h-114zM37 45h63
q28 0 48.5 8t36 31t25 44.5t18 70.5t13.5 85.5t13 110.5q16 134 16 209q0 81 -24.5 118.5t-89.5 37.5h-43zM117 805h53q75 0 102 66t47 262q17 180 17 200q0 74 -24 107t-85 33h-39z" />
    <glyph glyph-name="C" unicode="C" horiz-adv-x="294" 
d="M135 -8q-80 0 -111.5 41.5t-31.5 159.5q0 116 49 577q44 425 58 511q26 162 69 206q37 37 108 37q56 0 93 -11l-15 -43q-36 9 -78 9q-23 0 -38 -4.5t-29 -15.5t-24 -33.5t-19 -55.5t-17 -85.5t-16.5 -118t-18.5 -158.5t-22 -203q-3 -26 -4 -39q-49 -441 -49 -573
q0 -92 21 -124t75 -32q34 0 64 6l8 -43q-28 -8 -72 -8z" />
    <glyph glyph-name="D" unicode="D" horiz-adv-x="411" 
d="M-12 0l159 1518h127q70 0 108 -43t38 -160q0 -100 -49 -565q-43 -402 -61 -513.5t-54 -168.5q-44 -68 -141 -68h-127zM41 45h74q72 0 102 49q30 45 48.5 164t58.5 496q49 478 49 561q0 91 -26 124.5t-73 33.5h-84z" />
    <glyph glyph-name="E" unicode="E" horiz-adv-x="348" 
d="M-14 0l159 1518h232l-4 -45h-185l-71 -668h180l-4 -45h-180l-76 -715h186l-4 -45h-233z" />
    <glyph glyph-name="F" unicode="F" horiz-adv-x="311" 
d="M-14 0l159 1518h230l-4 -45h-183l-71 -668h178l-4 -45h-178l-80 -760h-47z" />
    <glyph glyph-name="G" unicode="G" horiz-adv-x="374" 
d="M133 -8q-81 0 -111 41.5t-30 159.5q0 124 49 577q45 440 64 542q24 134 63 175q37 37 108 37q60 0 113 -17l-14 -43q-51 15 -99 15q-23 0 -38 -4.5t-29 -15.5t-24 -33.5t-19 -55.5t-17 -85.5t-16.5 -118t-18.5 -158.5t-22 -203q-3 -26 -4 -39q-49 -453 -49 -573
q0 -92 20 -124t74 -32q60 0 79 68t45 320q7 67 11 105l25 230h-121l6 45h166l-29 -279q-31 -311 -42 -373q-21 -112 -64 -142q-28 -19 -76 -19z" />
    <glyph glyph-name="H" unicode="H" horiz-adv-x="444" 
d="M-14 0l159 1518h48l-76 -713h219l76 713h47l-160 -1518h-47l80 760h-219l-80 -760h-47z" />
    <glyph glyph-name="I" unicode="I" horiz-adv-x="194" 
d="M-6 0l160 1518h47l-160 -1518h-47z" />
    <glyph glyph-name="J" unicode="J" horiz-adv-x="225" 
d="M-57 0h-6l4 47h2q65 0 83 20t23 72l146 1379h47l-146 -1375q-3 -33 -8.5 -54.5t-20.5 -44t-46 -33.5t-78 -11z" />
    <glyph glyph-name="K" unicode="K" horiz-adv-x="348" 
d="M-14 0l159 1518h48l-80 -752l252 752h47l-197 -584l45 -934h-45l-41 825l-80 -239l-61 -586h-47z" />
    <glyph glyph-name="L" unicode="L" horiz-adv-x="317" 
d="M-14 0l159 1518h48l-156 -1473h188l-4 -45h-235z" />
    <glyph glyph-name="M" unicode="M" horiz-adv-x="509" 
d="M-14 0l159 1518h64l-12 -1170l-4 -178l32 172l236 1176h63l-159 -1518h-48l109 1030l29 258l-52 -258l-206 -1030h-45l10 1051l4 237l-25 -241l-110 -1047h-45z" />
    <glyph glyph-name="N" unicode="N" horiz-adv-x="434" 
d="M-14 0l159 1518h64l53 -1090l6 -184l135 1274h46l-160 -1518h-45l-62 1198l-6 182l-145 -1380h-45z" />
    <glyph glyph-name="O" unicode="O" horiz-adv-x="413" 
d="M135 -8q-80 0 -111.5 41.5t-31.5 159.5q0 114 49 577q42 405 63.5 538t63.5 179q34 37 111 37q83 0 114 -40.5t31 -158.5q0 -85 -51 -580q-42 -407 -63.5 -540.5t-65.5 -177.5q-35 -35 -109 -35zM135 37q84 0 110 97.5t75 563.5q4 34 6 52q51 485 51 575t-21.5 122
t-76.5 32q-84 0 -110 -97.5t-75 -563.5q-4 -34 -6 -52q-49 -463 -49 -573q0 -92 21 -124t75 -32z" />
    <glyph glyph-name="P" unicode="P" 
d="M-14 0l159 1518h82q92 0 128 -46.5t36 -150.5q0 -65 -18 -231q-6 -53 -9 -83t-8.5 -71t-10 -63.5t-12 -52.5t-14.5 -45.5t-17.5 -34.5t-22.5 -28.5t-27.5 -18.5t-34 -12t-41.5 -3h-72l-71 -678h-47zM109 723h67q20 0 35.5 4.5t28.5 17.5t22.5 26t17.5 40t13.5 49.5
t11.5 65.5t10.5 76t10.5 92q18 166 18 227q0 80 -26 116t-91 36h-39z" />
    <glyph glyph-name="Q" unicode="Q" horiz-adv-x="413" 
d="M205 -240q-77 0 -102 34t-15 134l6 70q-56 6 -79 49t-23 146q0 114 49 577q42 405 63.5 538t63.5 179q34 37 111 37q83 0 114 -40.5t31 -158.5q0 -85 -51 -580q-42 -406 -63.5 -539t-65.5 -177q-32 -32 -103 -35l-8 -84q-6 -66 8 -85.5t64 -19.5h8l-4 -45h-4zM135 37
q84 0 110 97.5t75 563.5q4 34 6 52q51 485 51 575t-21.5 122t-76.5 32q-84 0 -110 -97.5t-75 -563.5q-4 -34 -6 -52q-49 -463 -49 -573q0 -92 21 -124t75 -32z" />
    <glyph glyph-name="R" unicode="R" horiz-adv-x="380" 
d="M190 0l-34 698h-50l-73 -698h-47l159 1518h95q86 0 118.5 -45.5t32.5 -147.5q0 -81 -16 -225q-8 -76 -13.5 -121t-15 -95.5t-21 -78.5t-28.5 -54t-40 -38t-54 -15l35 -698h-48zM111 743h67q26 0 46 8.5t34.5 30.5t24.5 47t18.5 71t14 89.5t12.5 114.5q16 144 16 221
t-22.5 112.5t-81.5 35.5h-52z" />
    <glyph glyph-name="S" unicode="S" horiz-adv-x="323" 
d="M76 -10q-51 0 -109 12l17 47q54 -12 94 -12q44 0 67.5 13.5t36 62t4.5 139.5l-88 1005q-4 54 -4 72q0 104 39.5 149.5t114.5 45.5q51 0 90 -13l-14 -45q-46 11 -76 11q-69 0 -91 -53t-12 -158l88 -1006q5 -73 5 -76q0 -103 -38 -148.5t-124 -45.5z" />
    <glyph glyph-name="T" unicode="T" horiz-adv-x="323" 
d="M57 0l156 1473h-121l4 45h291l-4 -45h-123l-156 -1473h-47z" />
    <glyph glyph-name="U" unicode="U" horiz-adv-x="444" 
d="M147 -8q-77 0 -110 41.5t-31 115t11 174.5q1 8 1 13l125 1182h47l-124 -1182q-19 -170 -13 -219q9 -66 63 -77q13 -3 31 -3q33 0 55.5 11.5t36.5 32t23 57t15 80t13 106.5q1 8 1 12l125 1182h45l-125 -1182q-19 -173 -35 -227q-29 -92 -102 -111q-23 -6 -52 -6z" />
    <glyph glyph-name="V" unicode="V" horiz-adv-x="362" 
d="M80 -4l16 1522h45l-12 -1045l-6 -283l51 277l207 1051h45l-299 -1522h-47z" />
    <glyph glyph-name="W" unicode="W" horiz-adv-x="561" 
d="M68 -4l28 1522h45l-20 -1037l-6 -221l37 221l180 1037h47l-21 -1045l-6 -213l35 211l182 1047h43l-264 -1522h-43l23 1143l4 143l-23 -141l-198 -1145h-43z" />
    <glyph glyph-name="X" unicode="X" horiz-adv-x="350" 
d="M215 0l-49 672l-193 -672h-43l226 791l-54 727h45l46 -603l172 603h43l-207 -721l59 -797h-45z" />
    <glyph glyph-name="Y" unicode="Y" horiz-adv-x="335" 
d="M63 0l56 545l-35 973h45l31 -840l209 840h43l-246 -990l-55 -528h-48z" />
    <glyph glyph-name="Z" unicode="Z" horiz-adv-x="350" 
d="M-39 0l4 45l367 1428h-205l4 45h250l-4 -45l-367 -1428h226l-5 -45h-270z" />
    <glyph glyph-name="bracketleft" unicode="[" horiz-adv-x="307" 
d="M-25 -297l193 1845h149l-4 -45h-102l-184 -1755h106l-4 -45h-154z" />
    <glyph glyph-name="backslash" unicode="\" horiz-adv-x="303" 
d="M178 0l-98 1518h45l98 -1518h-45z" />
    <glyph glyph-name="bracketright" unicode="]" horiz-adv-x="307" 
d="M-25 -297l5 45h106l184 1755h-102l4 45h150l-193 -1845h-154z" />
    <glyph glyph-name="asciicircum" unicode="^" 
d="M113 1235l127 221h43l77 -221h-43l-61 174l-96 -174h-47z" />
    <glyph glyph-name="underscore" unicode="_" horiz-adv-x="288" 
d="M-125 -190l4 43h340l-4 -43h-340z" />
    <glyph glyph-name="grave" unicode="`" 
d="M238 1235l-72 221h49l66 -221h-43z" />
    <glyph glyph-name="a" unicode="a" horiz-adv-x="354" 
d="M76 -6q-55 0 -77 30.5t-22 110.5q0 57 17 213q8 80 14.5 131.5t15.5 103t18 81t22.5 57.5t28.5 41.5t38 24.5t49 15t62 5l2 6q18 173 17 202q-3 46 -33 55q-11 3 -31 3q-42 0 -78 -8l-10 43q38 10 88 10q62 0 87 -26t23.5 -81.5t-11.5 -140.5q-5 -42 -7 -65l-70 -666
q-6 -60 1.5 -77t41.5 -17l-6 -45h-4q-35 0 -51.5 11.5t-22.5 39.5q-18 -33 -41 -45t-61 -12zM76 39q63 0 81 57t48 342l33 324q-38 -2 -62 -7t-45 -23.5t-32.5 -42.5t-22.5 -75.5t-18 -110.5t-17 -159q-16 -154 -16 -211q0 -53 11.5 -73.5t39.5 -20.5z" />
    <glyph glyph-name="b" unicode="b" horiz-adv-x="389" 
d="M131 -8q-79 0 -100 61l-19 -55l-32 2l161 1548h47l-49 -485q11 25 38.5 40t64.5 15q63 0 93 -34t30 -128q0 -93 -35 -405q-32 -297 -49 -393t-52 -131q-22 -22 -42.5 -28.5t-55.5 -6.5zM131 37q71 0 91.5 72.5t56.5 415.5q3 22 4 34q34 338 34 397q0 70 -17 93.5
t-60 23.5q-72 0 -95 -84t-59 -424q-35 -345 -35 -399q0 -73 18 -101t62 -28z" />
    <glyph glyph-name="c" unicode="c" horiz-adv-x="266" 
d="M102 -8q-68 0 -93 44t-25 126q0 78 34 409q38 368 67 457.5t122 89.5q35 0 76 -12l-15 -43q-33 10 -61 10t-44.5 -9.5t-30.5 -42t-22.5 -83t-19.5 -144.5t-23 -215q-1 -9 -1 -14q-35 -341 -35 -403q0 -61 15 -93t56 -32q32 0 62 6l8 -43q-36 -8 -70 -8z" />
    <glyph glyph-name="d" unicode="d" horiz-adv-x="389" 
d="M106 -8q-63 0 -92.5 34t-29.5 128q0 102 34 405q32 297 49 393t52 131q22 22 42.5 28.5t55.5 6.5q80 0 98 -53l52 483h47l-162 -1546l-33 -2l2 66q-14 -34 -44 -54t-71 -20zM109 37q71 0 94 82t58 418q1 5 1 8q35 345 35 399q0 73 -18 101t-62 28q-70 0 -90.5 -71.5
t-55.5 -404.5q-3 -30 -5 -46q-35 -348 -35 -397q0 -69 17.5 -93t60.5 -24z" />
    <glyph glyph-name="e" unicode="e" horiz-adv-x="321" 
d="M106 -8q-58 0 -90 36.5t-32 133.5q0 55 34 403q31 300 46.5 392t46.5 128q26 33 84 33q64 0 86 -33.5t22 -113.5q0 -60 -37 -412l-2 -20h-201q-32 -333 -32 -377q0 -71 20 -98t55 -27q41 0 82 10l11 -41q-41 -14 -93 -14zM147 1057q-25 -29 -38.5 -116.5t-40.5 -356.5
h153q35 342 35 387q0 56 -12 79t-49 23q-35 0 -48 -16z" />
    <glyph glyph-name="f" unicode="f" horiz-adv-x="249" 
d="M55 1065l4 45h72l29 264q9 96 39.5 135t107.5 39h10l-4 -47h-4q-58 0 -76 -26t-26 -101l-29 -264h94l-4 -45h-94l-143 -1362h-47l143 1362h-72z" />
    <glyph glyph-name="g" unicode="g" horiz-adv-x="360" 
d="M150 389q-27 0 -39 2q-35 -45 -35 -96q0 -28 18.5 -44.5t65.5 -39.5q41 -19 60.5 -35t32 -53t9.5 -98q-9 -194 -44 -263t-138 -69q-50 0 -81.5 14.5t-46 42.5t-19 59.5t-1.5 75.5q10 159 37 228.5t107 91.5q-47 35 -47 90q0 66 41 117q-39 34 -39 131q0 41 18 225
q8 81 13.5 124.5t14.5 90t18 67t25 39t36.5 24t50.5 5.5q34 0 61 -10l109 8l-4 -43h-68q23 -39 23 -115q0 -54 -17 -217q-10 -94 -17.5 -146.5t-18.5 -98.5t-27.5 -66t-39.5 -30.5t-58 -10.5zM150 434q56 0 74 55.5t40 255.5q17 163 17 213q0 62 -16 88.5t-58 26.5
q-55 0 -72 -53.5t-39 -255.5q-18 -180 -18 -221q0 -58 16.5 -83.5t55.5 -25.5zM139 170q-2 0 -10 4q-39 -5 -64.5 -18t-41 -35t-23.5 -53t-12 -71t-7 -89q0 -15 -1 -23q-5 -72 14.5 -109.5t85.5 -37.5q77 0 101.5 56t33.5 231q3 49 -6.5 78t-24 40.5t-45.5 26.5z" />
    <glyph glyph-name="h" unicode="h" horiz-adv-x="393" 
d="M-20 0l161 1548h47l-53 -489q30 59 107 59q65 0 91 -26.5t24.5 -78t-9.5 -126.5l-94 -887h-47l94 887q12 115 8 139q-6 38 -43 45q-11 2 -26 2q-64 0 -89 -63t-45 -248l-79 -762h-47z" />
    <glyph glyph-name="i" unicode="i" horiz-adv-x="174" 
d="M-16 0l116 1110h47l-116 -1110h-47zM119 1288l18 164h47l-18 -164h-47z" />
    <glyph glyph-name="j" unicode="j" horiz-adv-x="174" 
d="M-84 -297l4 47q25 1 32.5 11.5t10.5 41.5l137 1307h47l-137 -1305q-5 -53 -23 -77.5t-71 -24.5zM119 1288l18 164h47l-18 -164h-47z" />
    <glyph glyph-name="k" unicode="k" horiz-adv-x="313" 
d="M-20 0l161 1548h47l-98 -938l182 500h47l-176 -479l90 -631h-45l-77 543l-39 -107l-45 -436h-47z" />
    <glyph glyph-name="l" unicode="l" horiz-adv-x="208" 
d="M86 0q-62 0 -78.5 33t-9.5 106l147 1409h48l-148 -1409q-6 -59 1.5 -75.5t39.5 -16.5h10l-4 -47h-6z" />
    <glyph glyph-name="m" unicode="m" horiz-adv-x="614" 
d="M-20 0l116 1104l33 2l-2 -62q26 74 115 74q48 0 74.5 -16.5t33.5 -57.5q26 74 115 74q64 0 90 -26.5t23 -78t-11 -126.5l-94 -887h-47l94 887q12 116 10 134q-3 41 -36 49q-13 3 -31 3q-64 0 -88.5 -63t-44.5 -248l-80 -762h-47l94 887q12 116 10 134q-3 41 -36 49
q-13 3 -31 3q-64 0 -89 -63t-45 -248l-79 -762h-47z" />
    <glyph glyph-name="n" unicode="n" horiz-adv-x="393" 
d="M-20 0l116 1104l33 2l-2 -62q26 74 115 74q65 0 91 -26.5t24.5 -78t-9.5 -126.5l-94 -887h-47l94 887q12 115 8 139q-6 38 -43 45q-11 2 -26 2q-64 0 -89 -63t-45 -248l-79 -762h-47z" />
    <glyph glyph-name="o" unicode="o" horiz-adv-x="372" 
d="M115 -8q-73 0 -102 36t-29 134q0 71 34 409q38 370 68 458.5t129 88.5q74 0 102.5 -37.5t28.5 -136.5q0 -84 -33 -397q-35 -335 -52 -413q-22 -100 -66 -126q-27 -16 -80 -16zM115 37q72 0 93 74.5t56 420.5q1 13 2 19q33 322 33 393q0 73 -18.5 101t-65.5 28
q-70 0 -91 -73t-54 -399q-3 -22 -4 -34q-35 -355 -35 -405q0 -72 18.5 -98.5t65.5 -26.5z" />
    <glyph glyph-name="p" unicode="p" horiz-adv-x="389" 
d="M-51 -297l147 1401l33 2l-2 -62q27 74 115 74q63 0 93 -34t30 -128q0 -93 -35 -405q-32 -297 -49 -393t-52 -131q-22 -22 -42.5 -28.5t-55.5 -6.5q-75 0 -98 53l-37 -342h-47zM131 37q71 0 91.5 72.5t56.5 415.5q3 22 4 34q34 338 34 397q0 70 -17 93.5t-60 23.5
q-72 0 -95 -84t-59 -424q-35 -345 -35 -399q0 -73 18 -101t62 -28z" />
    <glyph glyph-name="q" unicode="q" horiz-adv-x="389" 
d="M172 -297l35 340q-31 -51 -101 -51q-63 0 -92.5 34t-29.5 128q0 102 34 405q32 297 49 393t52 131q22 22 42.5 28.5t55.5 6.5q83 0 102 -65l15 55l33 -2l-148 -1403h-47zM109 37q71 0 94 82t58 418q1 5 1 8q35 345 35 399q0 73 -18 101t-62 28q-70 0 -90.5 -71.5
t-55.5 -404.5q-3 -30 -5 -46q-35 -348 -35 -397q0 -69 17.5 -93t60.5 -24z" />
    <glyph glyph-name="r" unicode="r" horiz-adv-x="233" 
d="M-20 0l116 1104l33 2l-2 -66q35 69 129 74l-4 -45q-75 -4 -100 -60t-46 -247l-79 -762h-47z" />
    <glyph glyph-name="s" unicode="s" horiz-adv-x="268" 
d="M43 -8q-57 0 -102 10l14 45q50 -10 88 -10q60 0 81 40.5t9 147.5l-82 676q-4 46 -4 66q0 151 127 151q53 0 86 -8l-14 -43q-27 6 -72 6q-56 0 -71 -42.5t-5 -121.5l80 -673q6 -47 6 -86q0 -78 -33 -118t-108 -40z" />
    <glyph glyph-name="t" unicode="t" horiz-adv-x="262" 
d="M152 0q-78 0 -104 35t-17 119l96 911h-72l4 45h72l37 311l45 21l-35 -332h94l-4 -45h-94l-96 -911q-6 -64 7 -85.5t67 -21.5h8l-4 -47h-4z" />
    <glyph glyph-name="u" unicode="u" horiz-adv-x="380" 
d="M115 -8q-64 0 -92.5 29.5t-27 81.5t8.5 122l92 885h47l-92 -885q-12 -112 -8 -138q8 -44 54 -49q8 -1 18 -1q61 0 78.5 34t27.5 131q1 15 2 23l92 885h45l-92 -885q-13 -121 -23 -151q-21 -64 -82 -77q-21 -5 -48 -5z" />
    <glyph glyph-name="v" unicode="v" horiz-adv-x="286" 
d="M41 -2l8 1112h45l-4 -754l-4 -166l31 164l149 756h45l-221 -1112h-49z" />
    <glyph glyph-name="w" unicode="w" horiz-adv-x="532" 
d="M41 -2l10 1112h45l-6 -764l-4 -158l31 158l162 764h45l-5 -772l-4 -150l29 148l164 774h43l-236 -1112h-45l6 793l5 141l-27 -141l-168 -793h-45z" />
    <glyph glyph-name="x" unicode="x" horiz-adv-x="321" 
d="M-68 0l189 604l-51 506h45l41 -399l125 399h45l-160 -508l63 -602h-45l-51 494l-153 -494h-48z" />
    <glyph glyph-name="y" unicode="y" horiz-adv-x="286" 
d="M-57 -297l4 47h4q31 0 39 7t14 35q1 6 2 9l35 179l8 1130h45l-4 -629l-6 -305l57 303l125 631h45l-262 -1321q-9 -46 -27.5 -66t-70.5 -20h-8z" />
    <glyph glyph-name="z" unicode="z" horiz-adv-x="278" 
d="M-49 0l4 45l283 1020h-164l4 45h207l-4 -45l-283 -1020h172l-4 -45h-215z" />
    <glyph glyph-name="braceleft" unicode="{" horiz-adv-x="329" 
d="M125 -297q-53 0 -77.5 11t-35 51t-2.5 122q8 72 53.5 316t51.5 307q6 60 -7 77t-65 17l4 43q53 0 69.5 17t22.5 77t13 304t14 319q7 63 17 99t29 55t41.5 24.5t63.5 5.5h27l-4 -45h-27q-36 0 -53 -8.5t-28.5 -37.5t-18.5 -93q-7 -67 -13.5 -311t-13.5 -312
q-5 -51 -17 -77t-40 -39q45 -17 33 -115q-7 -70 -52.5 -314t-52.5 -309q-2 -48 -3 -75.5t10 -41.5t24.5 -18t40.5 -4h27l-4 -45h-27z" />
    <glyph glyph-name="bar" unicode="|" horiz-adv-x="210" 
d="M82 -297v1845h47v-1845h-47z" />
    <glyph glyph-name="braceright" unicode="}" horiz-adv-x="329" 
d="M-43 -297l4 45h27q53 0 72 24t28 115q7 67 13.5 311t13.5 312q6 53 19 79.5t38 35.5q-24 13 -31 38.5t-2 77.5q7 70 52.5 314t52.5 309q3 48 4 75.5t-10 41.5t-25 18t-41 4h-27l5 45h26q53 0 78 -11t35.5 -51t1.5 -122q-7 -75 -53 -319t-52 -304t7 -77t65 -17l-4 -43
q-53 0 -69.5 -17t-22.5 -77q-5 -56 -11.5 -300.5t-15.5 -322.5q-8 -82 -26 -122t-44.5 -51t-80.5 -11h-27z" />
    <glyph glyph-name="asciitilde" unicode="~" 
d="M123 909q12 99 70 99q26 0 58.5 -27t43.5 -27q12 0 15.5 9.5t6.5 44.5h45q-6 -57 -22 -77t-45 -20q-26 0 -58.5 27t-43.5 27q-18 0 -25 -56h-45z" />
    <glyph glyph-name="exclamdown" unicode="&#xa1;" horiz-adv-x="249" 
d="M14 0l129 1124h39l-108 -1124h-60zM166 1395l12 123h58l-13 -123h-57z" />
    <glyph glyph-name="cent" unicode="&#xa2;" horiz-adv-x="307" 
d="M63 -199l19 195q-49 10 -66.5 52t-17.5 114q0 68 35 409q35 352 62 445.5t106 99.5l20 195h45l-20 -195q27 -3 55 -12l-20 -41q-27 10 -60 10q-28 0 -44.5 -9.5t-30.5 -42t-22.5 -83t-19.5 -144.5t-23 -215q-1 -9 -1 -14q-35 -341 -35 -403q0 -60 15.5 -92.5t56.5 -32.5
q27 0 59 8l10 -43l-25 -5t-34 -5l-18 -191h-46z" />
    <glyph glyph-name="sterling" unicode="&#xa3;" horiz-adv-x="352" 
d="M125 -2q-44 0 -78 20q-30 -18 -104 -18l4 45h28t22 3t17.5 3.5t13 8.5t9.5 11t6.5 17.5t5 22t3 30t2 35.5t1.5 45l23 535h-53l4 45h51l22 532q9 191 140 191q61 0 114 -23l-22 -41q-45 19 -92 19q-48 0 -67 -37.5t-23 -102.5l-25 -538h121l-4 -45h-119l-23 -535
q-7 -132 -24 -168q18 -10 47 -10q37 0 50 21.5t22 99.5l8 74h45l-8 -74q-12 -103 -35 -134.5t-82 -31.5z" />
    <glyph glyph-name="currency" unicode="&#xa4;" horiz-adv-x="382" 
d="M31 809l4 43h74q35 340 53.5 445t52.5 159q42 68 119 68q47 0 84 -11l-15 -43q-36 9 -69 9q-22 0 -38.5 -8t-30.5 -24.5t-25 -43.5t-20 -62.5t-17 -84t-15 -106t-15 -131t-16 -156.5q-1 -7 -1 -11h155l-4 -43h-155q-1 -8 -2.5 -23.5t-2.5 -23.5l-6 -60h154l-4 -43h-156
q-39 -367 -39 -469q0 -87 20 -120t68 -33q32 0 64 8l10 -43q-35 -10 -74 -10q-74 0 -104.5 42.5t-30.5 155.5q0 29 2 65t6.5 87t8 89.5t11 112.5t11.5 115h-74l4 43h74q1 9 4 30.5t4 33.5q1 7 2 21.5t2 21.5h-73z" />
    <glyph glyph-name="yen" unicode="&#xa5;" horiz-adv-x="339" 
d="M8 393l4 43h99l18 170v912h43v-754l158 754h43l-199 -938h-2l-14 -144h100l-4 -43h-100l-13 -106h103l-4 -43h-103l-24 -244h-47l24 244h-96l4 43h96l12 106h-98z" />
    <glyph glyph-name="brokenbar" unicode="&#xa6;" horiz-adv-x="210" 
d="M82 784v764h47v-764h-47zM82 -297v764h47v-764h-47z" />
    <glyph glyph-name="section" unicode="&#xa7;" horiz-adv-x="393" 
d="M4 0l4 47q59 0 81 27.5t28 99.5l18 186q-52 5 -73 39.5t-21 120.5q0 81 22 277q10 93 16.5 146t16.5 107t19.5 79.5t25.5 48t36 30t48 9.5l13 126q9 98 43 136.5t116 38.5l-6 -48q-58 0 -78 -26.5t-28 -100.5l-15 -129q47 -6 67.5 -40t20.5 -115q0 -66 -20 -271
q-29 -267 -55 -344t-101 -84l-18 -186q-9 -100 -43 -137t-117 -37zM160 406q22 0 36.5 5t27 24t20.5 41.5t16.5 72.5t14.5 101t16 143q20 205 20 266q0 67 -15.5 89.5t-55.5 22.5q-22 0 -36.5 -4.5t-27 -22.5t-20 -40t-16 -70.5t-14.5 -99.5t-15 -141q-23 -209 -23 -273
q0 -67 16 -90.5t56 -23.5z" />
    <glyph glyph-name="dieresis" unicode="&#xa8;" 
d="M143 1235l15 123h47l-15 -123h-47zM287 1235l14 123h47l-14 -123h-47z" />
    <glyph glyph-name="copyright" unicode="&#xa9;" horiz-adv-x="507" 
d="M260 238q-49 0 -70 24q-33 33 -42 134.5t-9 351.5q0 251 8.5 349t42.5 134q26 26 70 26q41 0 74 -8l-10 -45q-38 6 -64 6q-50 0 -62 -85t-12 -377q0 -298 12 -381.5t62 -83.5q29 0 62 10l12 -43q-38 -12 -74 -12zM256 -8q-83 0 -127 39q-61 54 -81.5 211t-20.5 518
q0 339 18 494t70 216q46 54 141 54t141 -54q52 -61 70 -216t18 -494q0 -357 -20 -514.5t-80 -212.5q-44 -41 -129 -41zM256 35q41 0 68 11t49 43.5t34 80.5t20 134t10.5 191.5t2.5 264.5t-2.5 264t-10.5 190.5t-20 133t-34 80t-49 43t-68 10.5t-68 -10.5t-49 -43t-34 -80
t-20 -133t-10.5 -190.5t-2.5 -264t2.5 -264.5t10.5 -191.5t20 -134t34 -80.5t49 -43.5t68 -11z" />
    <glyph glyph-name="ordfeminine" unicode="&#xaa;" horiz-adv-x="342" 
d="M143 604q-46 0 -65 30t-19 99q0 56 13 170q6 59 10.5 93.5t11 76t13 63.5t17 47.5t23 38t30.5 24.5t40 17t51 7q16 135 10.5 173t-45.5 38q-17 0 -67 -11l-10 41q33 13 82 13q51 0 71.5 -21.5t20 -67t-8.5 -116.5q-4 -34 -6 -53l-57 -541q-5 -43 2 -56.5t35 -13.5l-6 -47
h-13q-55 0 -57 41q-8 -27 -26.5 -36t-49.5 -9zM143 647q46 0 58 36.5t29 206.5q5 48 8 75l26 262q-27 -2 -45 -8.5t-33 -23.5t-23.5 -37.5t-17 -62.5t-13.5 -85t-13 -117q-13 -130 -13 -172q0 -41 8.5 -57.5t28.5 -16.5zM43 436l6 47h191l-7 -47h-190z" />
    <glyph glyph-name="guillemotleft" unicode="&#xab;" horiz-adv-x="413" 
d="M90 0l-37 555l154 555h45l-154 -555l37 -555h-45zM213 0l-37 555l154 555h45l-154 -555l37 -555h-45z" />
    <glyph glyph-name="logicalnot" unicode="&#xac;" horiz-adv-x="1703" 
d="M258 246q-88 105 -136 237t-48 277q0 144 48 276t136 236q6 -4 14 -12q-85 -103 -131.5 -231.5t-46.5 -268.5q0 -285 180 -500zM467 432q-117 143 -117 328q0 183 115 327q3 -2 8 -7t8 -7q-110 -136 -110 -313q0 -182 110 -314zM541 498q-92 116 -92 262t92 262
q3 -2 8 -7t8 -7q-88 -109 -88 -248t88 -248q-3 -2 -8 -7t-8 -7zM647 592q-57 72 -57 168q0 97 57 166l15 -15q-52 -69 -52 -151q0 -84 54 -154q-3 -2 -8.5 -7t-8.5 -7zM715 655q-33 48 -33 105q0 56 33 104q3 -2 8 -7t8 -7q-29 -44 -29 -90t29 -90q-3 -2 -16 -15zM774 709
q-14 25 -14 51t14 51l12 -10q-10 -20 -10 -41t10 -41q-4 -4 -12 -10zM852 123q-236 0 -412 158l2.5 2.5l5 5l5.5 5.5t2 1q171 -152 397 -152q227 0 395 152q2 -3 7.5 -8t7.5 -8q-177 -156 -410 -156zM852 664q-31 0 -55 18l12 12q21 -14 43 -14q26 0 43 14q4 -4 10 -12
q-21 -18 -53 -18zM987 653q-7 10 -14 15q28 42 28 92q0 51 -28 90l2.5 2.5t5 4.5t5.5 5t1 2q35 -44 35 -104t-35 -107zM598 551q-72 91 -72 209q0 119 74 209l14 -15q-67 -87 -67 -194q0 -108 67 -195q-10 -10 -16 -14zM852 -35q-145 0 -278 52.5t-238 146.5l14 16
q102 -92 231 -143t271 -51q285 0 500 192q0 1 3.5 -2.5t6.5 -7.5l4 -4q-104 -95 -236 -147t-278 -52zM852 248q-189 0 -330 125l15 16q134 -121 315 -121q182 0 313 121q2 -3 7.5 -8t7.5 -8q-138 -125 -328 -125zM852 348q-145 0 -264 101l14 14q108 -94 250 -94
q143 0 248 94q2 -3 7 -8.5t7 -8.5q-112 -98 -262 -98zM852 428q-116 0 -211 78l14 16q86 -73 197 -73t197 73q4 -4 12 -16q-91 -78 -209 -78zM852 543q-77 0 -135 49l14 16q51 -45 121 -45q68 0 119 45q2 -3 7 -8t7 -8q-58 -49 -133 -49zM733 911q-4 3 -7 6.5t-6 6.5l-3 4
q58 49 135 49t135 -49l-16 -17q-51 45 -119 45t-119 -45zM1167 1130q-134 121 -315 121q-179 0 -313 -118l-15 14q141 125 328 125q189 0 330 -125q-4 -6 -15 -17zM930 709l-12 10q10 20 10 41t-10 41l12 10q14 -25 14 -51t-14 -51zM958 682q-10 10 -16 14q21 32 21 64
t-21 63l16 15q25 -36 25 -78t-25 -78zM1020 627q-6 4 -16 14q38 50 38 119t-38 119l14 14q45 -57 45 -133q0 -71 -43 -133zM1106 551q-3 2 -8 7t-8 7q67 87 67 195t-70 194l17 15q74 -90 74 -209q0 -118 -72 -209zM1163 498q-10 10 -16 14q88 109 88 248t-88 248l16 14
q92 -116 92 -262t-92 -262zM1237 432q-6 4 -16 14q112 134 112 314q0 182 -112 313l16 14q117 -139 117 -327q0 -189 -117 -328zM1329 350q-2 2 -7 6t-7 6q141 175 141 398q0 227 -143 395l16 14q148 -179 148 -409q0 -231 -148 -410zM1446 246q-6 6 -16 14q180 215 180 500
t-180 500l16 14q88 -105 136 -237t48 -277q0 -144 -48 -276t-136 -238zM375 348q-148 182 -148 412q0 229 146 409q2 -2 7.5 -6.5t8.5 -7.5q-141 -170 -141 -395q0 -228 141 -398zM684 627q-43 59 -43 133t43 133q6 -4 16 -14q-38 -50 -38 -119q0 -67 38 -117zM745 682
q-24 34 -24 78t24 78q2 -3 4.5 -5.5t6 -5.5t4.5 -4q-19 -34 -19 -63q0 -30 19 -64zM809 825l-10 13q21 18 53 18t53 -18l-10 -13q-23 15 -43 15q-25 0 -43 -15zM786 852l-14 14q37 29 80 29q41 0 78 -29q-8 -8 -12 -14q-28 25 -66 25q-34 0 -66 -25zM760 881l-15 16
q45 39 107 39q61 0 106 -39l-14 -16q-37 34 -92 34t-92 -34zM604 1057l-14 16q112 98 262 98q151 0 262 -100q1 0 -2 -3.5t-6 -7.5l-4 -3q-108 94 -250 94q-143 0 -248 -94zM852 492q-100 0 -170 61l14 16q70 -57 156 -57q87 0 154 57l14 -14q-73 -63 -168 -63zM852 584
q-61 0 -109 39l15 16q47 -35 94 -35q51 0 92 35l14 -16q-45 -39 -106 -39zM852 625q-43 0 -82 28l14 15q36 -25 68 -25q34 0 66 25l14 -15q-36 -28 -80 -28zM698 950l-14 15q73 63 168 63q98 0 168 -61l-14 -17q-68 58 -154 58q-87 0 -154 -58zM655 997l-14 17q91 78 211 78
q119 0 209 -80l-12 -15q-83 74 -197 74q-110 0 -197 -74zM1249 1223q-166 153 -397 153q-227 0 -397 -151l-15 14q179 158 412 158t412 -158zM352 1339l-14 17q104 95 236 146.5t278 51.5q145 0 278 -52t238 -146l-14 -17q-102 93 -231 144t-271 51t-270 -51t-230 -144z
M1057 594l-15 14q52 69 52 152t-54 153l17 15q57 -72 57 -168q0 -97 -57 -166z" />
    <glyph glyph-name="registered" unicode="&#xae;" horiz-adv-x="507" 
d="M256 -8q-83 0 -127 39q-61 54 -81.5 211t-20.5 518q0 339 18 494t70 216q46 54 141 54t141 -54q52 -61 70 -216t18 -494q0 -357 -20 -514.5t-80 -212.5q-44 -41 -129 -41zM256 35q41 0 68 11t49 43.5t34 80.5t20 134t10.5 191.5t2.5 264.5t-2.5 264t-10.5 190.5t-20 133
t-34 80t-49 43t-68 10.5t-68 -10.5t-49 -43t-34 -80t-20 -133t-10.5 -190.5t-2.5 -264t2.5 -264.5t10.5 -191.5t20 -134t34 -80.5t49 -43.5t68 -11zM303 248l-74 457h-28v-457h-47v1009h92q28 0 48 -6.5t32.5 -24.5t20 -35.5t10.5 -55t4 -67.5t1 -87q0 -145 -14 -203.5
t-69 -70.5l71 -459h-47zM201 752h45q17 0 29.5 5t20 19.5t12 28.5t6.5 45.5t2.5 56t0.5 74.5t-0.5 74.5t-2.5 56.5t-6.5 46t-12 29t-20 20t-29.5 5h-45v-460z" />
    <glyph glyph-name="macron" unicode="&#xaf;" 
d="M137 1235l6 43h203l-6 -43h-203z" />
    <glyph glyph-name="macron" unicode="&#x2c9;" 
d="M137 1235l6 43h203l-6 -43h-203z" />
    <glyph glyph-name="degree" unicode="&#xb0;" horiz-adv-x="372" 
d="M176 616q-57 0 -81.5 31t-24.5 119q0 45 24 307q10 105 18 170t18.5 120t21 83t27.5 47.5t35.5 25t47.5 5.5q59 0 83 -30t24 -118q0 -84 -25 -311q-13 -122 -22.5 -192t-22 -127t-29 -81.5t-38.5 -36.5t-56 -12zM176 662q19 0 31.5 5t24 23.5t18.5 42t15.5 75t15 108
t16.5 153.5q25 234 25 307q0 61 -13 82t-47 21q-19 0 -31.5 -5t-24 -23.5t-18.5 -42.5t-15.5 -75.5t-15 -108.5t-16.5 -155q-24 -252 -24 -303q0 -62 13.5 -83t45.5 -21z" />
    <glyph glyph-name="plusminus" unicode="&#xb1;" horiz-adv-x="675" 
d="M201 -297l143 1362h-170l-143 -1362h-47l143 1362h-72l4 45h72l29 264q9 96 39.5 135t107.5 39h10l-4 -47h-4q-58 0 -76 -26t-26 -101l-29 -264h170l29 264q9 96 39.5 135t107.5 39h11l-5 -47h-4q-58 0 -76 -26t-26 -101l-29 -264h94l-4 -45h-94l-143 -1362h-47zM553 0
q-62 0 -78.5 33t-9.5 106l147 1409h47l-147 -1409q-6 -59 1.5 -75.5t39.5 -16.5h10l-4 -47h-6z" />
    <glyph glyph-name="twosuperior" unicode="&#xb2;" horiz-adv-x="321" 
d="M61 639l5 43l192 692q10 42 10 62q0 22 -10.5 32.5t-36.5 10.5q-36 0 -61 -11l-17 39q38 15 80 15q49 0 69.5 -19.5t20.5 -60.5q0 -30 -12 -76l-190 -684h120l-4 -43h-166z" />
    <glyph glyph-name="threesuperior" unicode="&#xb3;" horiz-adv-x="323" 
d="M121 635q-34 0 -74 14l21 41q40 -12 55 -12q42 0 54 33t26 170q18 163 12 192q-5 27 -31 31q-9 2 -26 2h-27l4 43h31q43 0 54.5 28t23.5 156q12 89 7 116.5t-42 27.5q-30 0 -55 -7l-9 41q31 9 68 9q52 0 70 -21q14 -17 14.5 -57t-8.5 -109q-10 -103 -19 -143.5t-30 -59.5
q22 -14 23 -63t-11 -143q-2 -28 -4 -43q-16 -154 -26 -186q-9 -26 -23 -40q-26 -20 -78 -20z" />
    <glyph glyph-name="acute" unicode="&#xb4;" 
d="M195 1235l114 221h51l-120 -221h-45z" />
    <glyph glyph-name="mu" unicode="&#xb5;" horiz-adv-x="380" 
d="M-51 -297l147 1407h47l-88 -838q-14 -144 -10 -177q7 -50 48 -57q8 -1 18 -1q62 0 80 35t32 174l92 864h45l-90 -860q-5 -48 -8 -73t-8.5 -58t-12.5 -48.5t-18 -34t-26.5 -26t-36.5 -13t-49 -5.5q-64 0 -82 35l-33 -324h-47z" />
    <glyph glyph-name="mu" unicode="&#x3bc;" horiz-adv-x="380" 
d="M-51 -297l147 1407h47l-88 -838q-14 -144 -10 -177q7 -50 48 -57q8 -1 18 -1q62 0 80 35t32 174l92 864h45l-90 -860q-5 -48 -8 -73t-8.5 -58t-12.5 -48.5t-18 -34t-26.5 -26t-36.5 -13t-49 -5.5q-64 0 -82 35l-33 -324h-47z" />
    <glyph glyph-name="paragraph" unicode="&#xb6;" 
d="M92 0l72 680q-58 12 -81.5 61t-23.5 144q0 36 17 223q7 63 11.5 102t12 85t14.5 72t18.5 55t25 44t32 28.5t41.5 18.5t52 5h110l-160 -1518h-47l70 678h-45l-72 -678h-47zM205 723h57l78 750h-57q-29 0 -50 -8.5t-37 -31t-26 -47.5t-19 -74t-14.5 -94t-13.5 -122
q-17 -198 -17 -211q0 -85 22 -123.5t77 -38.5z" />
    <glyph glyph-name="periodcentered" unicode="&#xb7;" horiz-adv-x="163" 
d="M37 600l12 123h57l-12 -123h-57z" />
    <glyph glyph-name="periodcentered" unicode="&#x2219;" horiz-adv-x="163" 
d="M37 600l12 123h57l-12 -123h-57z" />
    <glyph glyph-name="cedilla" unicode="&#xb8;" 
d="M98 -338q-40 0 -75 12l18 43q23 -10 55 -10q38 0 49 15.5t19 78.5q4 46 -6.5 57.5t-38.5 8.5l-31 22l37 127h41l-33 -110q49 6 66.5 -19.5t11.5 -89.5q-9 -85 -30.5 -110t-82.5 -25z" />
    <glyph glyph-name="onesuperior" unicode="&#xb9;" horiz-adv-x="284" 
d="M119 639l88 836h-60l5 43h104l-92 -879h-45z" />
    <glyph glyph-name="ordmasculine" unicode="&#xba;" horiz-adv-x="350" 
d="M160 600q-57 0 -81 31.5t-24 120.5q0 69 27 317q11 102 18.5 166t18 119.5t21 84.5t27 50.5t35 28t46.5 6.5q57 0 79.5 -31t22.5 -121q0 -29 -9 -146t-15 -167q-12 -104 -20.5 -169.5t-19 -121.5t-21 -85t-26.5 -49.5t-34 -27t-45 -6.5zM160 645q13 0 22.5 3t18.5 13
t15.5 22.5t13 38t12 53.5t12 74.5t12 95t13.5 120.5q24 222 24 307q0 64 -12 85.5t-43 21.5q-18 0 -30.5 -5t-23.5 -24t-18 -43.5t-15.5 -77t-15 -109.5t-16.5 -155q-27 -257 -27 -313q0 -62 13.5 -84.5t44.5 -22.5zM35 436l6 47h203l-6 -47h-203z" />
    <glyph glyph-name="guillemotright" unicode="&#xbb;" horiz-adv-x="413" 
d="M-4 0l151 555l-34 555h45l35 -555l-152 -555h-45zM119 0l151 555l-34 555h45l34 -555l-151 -555h-45z" />
    <glyph glyph-name="onequarter" unicode="&#xbc;" horiz-adv-x="491" 
d="M23 0l370 1518h45l-370 -1518h-45zM184 182l4 43l203 654h41l-201 -654h82l37 254h31l-27 -254h45l-4 -43h-45l-18 -182h-43l18 182h-123zM84 639l88 836h-59l4 43h104l-92 -879h-45z" />
    <glyph glyph-name="onehalf" unicode="&#xbd;" horiz-adv-x="512" 
d="M23 0l370 1518h45l-370 -1518h-45zM84 639l88 836h-59l4 43h104l-92 -879h-45zM221 0l4 43l193 692q10 42 10 62q0 22 -10.5 32.5t-36.5 10.5q-37 0 -62 -11l-16 39q38 15 80 15q49 0 69.5 -19.5t20.5 -60.5q0 -29 -12 -76l-191 -684h121l-4 -43h-166z" />
    <glyph glyph-name="threequarters" unicode="&#xbe;" horiz-adv-x="542" 
d="M74 0l370 1518h45l-370 -1518h-45zM238 182l4 43l202 654h41l-200 -654h75l37 254h31l-27 -254h52l-4 -43h-52l-18 -182h-43l18 182h-116zM88 635q-34 0 -74 14l21 41q40 -12 55 -12q42 0 54 33t26 170q18 163 12 192q-5 27 -31 31q-9 2 -26 2h-27l4 43h31q43 0 54.5 28
t23.5 156q12 89 7 116.5t-42 27.5q-30 0 -55 -7l-8 41q31 9 67 9q52 0 70 -21q14 -17 14.5 -57t-8.5 -109q-10 -103 -19 -143.5t-30 -59.5q22 -14 23 -63t-11 -143q-2 -28 -4 -43q-16 -154 -26 -186q-9 -26 -23 -40q-26 -20 -78 -20z" />
    <glyph glyph-name="questiondown" unicode="&#xbf;" horiz-adv-x="327" 
d="M98 -6q-125 0 -125 121q0 52 27 147l143 526q35 132 54 336h47q-19 -208 -56 -346l-143 -528q-14 -51 -19 -83.5t-3.5 -64.5t20.5 -47.5t55 -15.5q66 0 111 18l16 -43q-54 -20 -127 -20zM215 1395l12 123h58l-13 -123h-57z" />
    <glyph glyph-name="Agrave" unicode="&#xc0;" horiz-adv-x="362" 
d="M-63 0l299 1522h47l-17 -1522h-45l4 430h-159l-84 -430h-45zM74 473h151l8 651l7 201l-37 -201zM271 1614l-72 221h49l66 -221h-43z" />
    <glyph glyph-name="Aacute" unicode="&#xc1;" horiz-adv-x="362" 
d="M-63 0l299 1522h47l-17 -1522h-45l4 430h-159l-84 -430h-45zM74 473h151l8 651l7 201l-37 -201zM228 1614l114 221h51l-120 -221h-45z" />
    <glyph glyph-name="Acircumflex" unicode="&#xc2;" horiz-adv-x="362" 
d="M-63 0l299 1522h47l-17 -1522h-45l4 430h-159l-84 -430h-45zM74 473h151l8 651l7 201l-37 -201zM146 1614l127 221h43l77 -221h-43l-61 174l-96 -174h-47z" />
    <glyph glyph-name="Atilde" unicode="&#xc3;" horiz-adv-x="362" 
d="M-63 0l299 1522h47l-17 -1522h-45l4 430h-159l-84 -430h-45zM74 473h151l8 651l7 201l-37 -201zM156 1614q12 98 70 98q26 0 58.5 -26.5t43.5 -26.5q12 0 15.5 9t6.5 44h45q-6 -57 -22 -76.5t-45 -19.5q-26 0 -58.5 26.5t-43.5 26.5q-18 0 -25 -55h-45z" />
    <glyph glyph-name="Adieresis" unicode="&#xc4;" horiz-adv-x="362" 
d="M-63 0l299 1522h47l-17 -1522h-45l4 430h-159l-84 -430h-45zM74 473h151l8 651l7 201l-37 -201zM176 1614l15 123h47l-15 -123h-47zM320 1614l14 123h47l-14 -123h-47z" />
    <glyph glyph-name="Aring" unicode="&#xc5;" horiz-adv-x="362" 
d="M-63 0l290 1485q-32 10 -40 47t1 90q4 39 8.5 59t14 40.5t26.5 29t44 8.5q52 0 64 -33.5t3 -107.5q-7 -65 -19 -95t-46 -38l-17 -1485h-45l4 430h-159l-84 -430h-45zM74 473h151l8 651l7 201l-37 -201zM258 1524q23 0 32 18t15 78t1.5 79t-27.5 19t-32.5 -19t-15.5 -79
t-1 -78t28 -18z" />
    <glyph glyph-name="AE" unicode="&#xc6;" horiz-adv-x="585" 
d="M-53 0l397 1518h270l-4 -45h-184l-72 -668h166l-4 -45h-166l-76 -715h187l-4 -45h-234l45 428h-164l-112 -428h-45zM115 471h157l107 1008z" />
    <glyph glyph-name="Ccedilla" unicode="&#xc7;" horiz-adv-x="294" 
d="M57 -338q-40 0 -75 12l18 43q23 -10 55 -10q38 0 49 15.5t19 78.5q4 46 -6.5 57.5t-38.5 8.5l-31 22l31 109q-46 11 -66 55t-20 140q0 116 49 577q44 425 58 511q26 162 69 206q37 37 108 37q56 0 93 -11l-15 -43q-36 9 -78 9q-23 0 -38 -4.5t-29 -15.5t-24 -33.5
t-19 -55.5t-17 -85.5t-16.5 -118t-18.5 -158.5t-22 -203q-3 -26 -4 -39q-49 -441 -49 -573q0 -92 21 -124t75 -32q34 0 64 6l8 -43q-28 -8 -72 -8h-18l-25 -86q49 6 66.5 -19.5t11.5 -89.5q-9 -85 -30.5 -110t-82.5 -25z" />
    <glyph glyph-name="Egrave" unicode="&#xc8;" horiz-adv-x="348" 
d="M-14 0l159 1518h232l-4 -45h-185l-71 -668h180l-4 -45h-180l-76 -715h186l-4 -45h-233zM265 1614l-72 221h49l66 -221h-43z" />
    <glyph glyph-name="Eacute" unicode="&#xc9;" horiz-adv-x="348" 
d="M-14 0l159 1518h232l-4 -45h-185l-71 -668h180l-4 -45h-180l-76 -715h186l-4 -45h-233zM222 1614l114 221h51l-120 -221h-45z" />
    <glyph glyph-name="Ecircumflex" unicode="&#xca;" horiz-adv-x="348" 
d="M-14 0l159 1518h232l-4 -45h-185l-71 -668h180l-4 -45h-180l-76 -715h186l-4 -45h-233zM140 1614l127 221h43l77 -221h-43l-61 174l-96 -174h-47z" />
    <glyph glyph-name="Edieresis" unicode="&#xcb;" horiz-adv-x="348" 
d="M-14 0l159 1518h232l-4 -45h-185l-71 -668h180l-4 -45h-180l-76 -715h186l-4 -45h-233zM170 1614l15 123h47l-15 -123h-47zM314 1614l14 123h47l-14 -123h-47z" />
    <glyph glyph-name="Igrave" unicode="&#xcc;" horiz-adv-x="194" 
d="M162 1614l-47 221h49l41 -221h-43zM-6 0l160 1518h47l-160 -1518h-47z" />
    <glyph glyph-name="Iacute" unicode="&#xcd;" horiz-adv-x="194" 
d="M164 1614l94 221h51l-100 -221h-45zM-6 0l160 1518h47l-160 -1518h-47z" />
    <glyph glyph-name="Icircumflex" unicode="&#xce;" horiz-adv-x="194" 
d="M-6 0l160 1518h47l-160 -1518h-47zM60 1614l127 221h43l77 -221h-43l-61 174l-96 -174h-47z" />
    <glyph glyph-name="Idieresis" unicode="&#xcf;" horiz-adv-x="194" 
d="M-6 0l160 1518h47l-160 -1518h-47zM90 1614l15 123h47l-15 -123h-47zM234 1614l14 123h47l-14 -123h-47z" />
    <glyph glyph-name="Eth" unicode="&#xd0;" horiz-adv-x="411" 
d="M10 766l6 45h58l73 707h127q70 0 108 -43t38 -160q0 -100 -49 -565q-43 -402 -61 -513.5t-54 -168.5q-44 -68 -141 -68h-127l80 766h-58zM41 45h74q72 0 102 49q30 45 48.5 164t58.5 496q49 478 49 561q0 91 -26 124.5t-73 33.5h-84l-69 -662h98l-6 -45h-98z" />
    <glyph glyph-name="Ntilde" unicode="&#xd1;" horiz-adv-x="434" 
d="M-14 0l159 1518h64l53 -1090l6 -184l135 1274h46l-160 -1518h-45l-62 1198l-6 182l-145 -1380h-45zM193 1614q12 98 70 98q26 0 58.5 -26.5t43.5 -26.5q12 0 15.5 9t6.5 44h45q-6 -57 -22 -76.5t-45 -19.5q-26 0 -58.5 26.5t-43.5 26.5q-18 0 -25 -55h-45z" />
    <glyph glyph-name="Ograve" unicode="&#xd2;" horiz-adv-x="413" 
d="M135 -8q-80 0 -111.5 41.5t-31.5 159.5q0 114 49 577q42 405 63.5 538t63.5 179q34 37 111 37q83 0 114 -40.5t31 -158.5q0 -85 -51 -580q-42 -407 -63.5 -540.5t-65.5 -177.5q-35 -35 -109 -35zM135 37q84 0 110 97.5t75 563.5q4 34 6 52q51 485 51 575t-21.5 122
t-76.5 32q-84 0 -110 -97.5t-75 -563.5q-4 -34 -6 -52q-49 -463 -49 -573q0 -92 21 -124t75 -32zM297 1614l-72 221h49l66 -221h-43z" />
    <glyph glyph-name="Oacute" unicode="&#xd3;" horiz-adv-x="413" 
d="M135 -8q-80 0 -111.5 41.5t-31.5 159.5q0 114 49 577q42 405 63.5 538t63.5 179q34 37 111 37q83 0 114 -40.5t31 -158.5q0 -85 -51 -580q-42 -407 -63.5 -540.5t-65.5 -177.5q-35 -35 -109 -35zM135 37q84 0 110 97.5t75 563.5q4 34 6 52q51 485 51 575t-21.5 122
t-76.5 32q-84 0 -110 -97.5t-75 -563.5q-4 -34 -6 -52q-49 -463 -49 -573q0 -92 21 -124t75 -32zM254 1614l114 221h51l-120 -221h-45z" />
    <glyph glyph-name="Ocircumflex" unicode="&#xd4;" horiz-adv-x="413" 
d="M135 -8q-80 0 -111.5 41.5t-31.5 159.5q0 114 49 577q42 405 63.5 538t63.5 179q34 37 111 37q83 0 114 -40.5t31 -158.5q0 -85 -51 -580q-42 -407 -63.5 -540.5t-65.5 -177.5q-35 -35 -109 -35zM135 37q84 0 110 97.5t75 563.5q4 34 6 52q51 485 51 575t-21.5 122
t-76.5 32q-84 0 -110 -97.5t-75 -563.5q-4 -34 -6 -52q-49 -463 -49 -573q0 -92 21 -124t75 -32zM172 1614l127 221h43l77 -221h-43l-61 174l-96 -174h-47z" />
    <glyph glyph-name="Otilde" unicode="&#xd5;" horiz-adv-x="413" 
d="M135 -8q-80 0 -111.5 41.5t-31.5 159.5q0 114 49 577q42 405 63.5 538t63.5 179q34 37 111 37q83 0 114 -40.5t31 -158.5q0 -85 -51 -580q-42 -407 -63.5 -540.5t-65.5 -177.5q-35 -35 -109 -35zM135 37q84 0 110 97.5t75 563.5q4 34 6 52q51 485 51 575t-21.5 122
t-76.5 32q-84 0 -110 -97.5t-75 -563.5q-4 -34 -6 -52q-49 -463 -49 -573q0 -92 21 -124t75 -32zM182 1614q12 98 70 98q26 0 58.5 -26.5t43.5 -26.5q12 0 15.5 9t6.5 44h45q-6 -57 -22 -76.5t-45 -19.5q-26 0 -58.5 26.5t-43.5 26.5q-18 0 -25 -55h-45z" />
    <glyph glyph-name="Odieresis" unicode="&#xd6;" horiz-adv-x="413" 
d="M135 -8q-80 0 -111.5 41.5t-31.5 159.5q0 114 49 577q42 405 63.5 538t63.5 179q34 37 111 37q83 0 114 -40.5t31 -158.5q0 -85 -51 -580q-42 -407 -63.5 -540.5t-65.5 -177.5q-35 -35 -109 -35zM135 37q84 0 110 97.5t75 563.5q4 34 6 52q51 485 51 575t-21.5 122
t-76.5 32q-84 0 -110 -97.5t-75 -563.5q-4 -34 -6 -52q-49 -463 -49 -573q0 -92 21 -124t75 -32zM202 1614l15 123h47l-15 -123h-47zM346 1614l14 123h47l-14 -123h-47z" />
    <glyph glyph-name="multiply" unicode="&#xd7;" horiz-adv-x="409" 
d="M84 621l-25 26l119 107l-96 108l31 27l94 -109l121 109l22 -27l-119 -108l97 -107l-29 -26l-98 106z" />
    <glyph glyph-name="Oslash" unicode="&#xd8;" horiz-adv-x="413" 
d="M135 -8q-48 0 -78 12l-20 -88h-47l26 125q-24 47 -24 152q0 114 49 577q42 405 63.5 538t63.5 179q34 37 111 37q42 0 75 -13l21 93h47l-29 -123q31 -39 31 -156q0 -85 -51 -580q-42 -407 -63.5 -540.5t-65.5 -177.5q-35 -35 -109 -35zM135 37q84 0 110 97.5t75 563.5
q4 34 6 52q51 485 51 575q0 32 -4 68l-305 -1334q19 -22 67 -22zM39 193q0 -44 2 -62l303 1327q-21 21 -65 21q-84 0 -110 -97.5t-75 -563.5q-4 -34 -6 -52q-49 -463 -49 -573z" />
    <glyph glyph-name="Ugrave" unicode="&#xd9;" horiz-adv-x="444" 
d="M147 -8q-77 0 -110 41.5t-31 115t11 174.5q1 8 1 13l125 1182h47l-124 -1182q-19 -170 -13 -219q9 -66 63 -77q13 -3 31 -3q33 0 55.5 11.5t36.5 32t23 57t15 80t13 106.5q1 8 1 12l125 1182h45l-125 -1182q-19 -173 -35 -227q-29 -92 -102 -111q-23 -6 -52 -6zM312 1614
l-72 221h49l66 -221h-43z" />
    <glyph glyph-name="Uacute" unicode="&#xda;" horiz-adv-x="444" 
d="M147 -8q-77 0 -110 41.5t-31 115t11 174.5q1 8 1 13l125 1182h47l-124 -1182q-19 -170 -13 -219q9 -66 63 -77q13 -3 31 -3q33 0 55.5 11.5t36.5 32t23 57t15 80t13 106.5q1 8 1 12l125 1182h45l-125 -1182q-19 -173 -35 -227q-29 -92 -102 -111q-23 -6 -52 -6zM269 1614
l114 221h51l-120 -221h-45z" />
    <glyph glyph-name="Ucircumflex" unicode="&#xdb;" horiz-adv-x="444" 
d="M147 -8q-77 0 -110 41.5t-31 115t11 174.5q1 8 1 13l125 1182h47l-124 -1182q-19 -170 -13 -219q9 -66 63 -77q13 -3 31 -3q33 0 55.5 11.5t36.5 32t23 57t15 80t13 106.5q1 8 1 12l125 1182h45l-125 -1182q-19 -173 -35 -227q-29 -92 -102 -111q-23 -6 -52 -6zM187 1614
l127 221h43l77 -221h-43l-61 174l-96 -174h-47z" />
    <glyph glyph-name="Udieresis" unicode="&#xdc;" horiz-adv-x="444" 
d="M147 -8q-77 0 -110 41.5t-31 115t11 174.5q1 8 1 13l125 1182h47l-124 -1182q-19 -170 -13 -219q9 -66 63 -77q13 -3 31 -3q33 0 55.5 11.5t36.5 32t23 57t15 80t13 106.5q1 8 1 12l125 1182h45l-125 -1182q-19 -173 -35 -227q-29 -92 -102 -111q-23 -6 -52 -6zM217 1614
l15 123h47l-15 -123h-47zM361 1614l14 123h47l-14 -123h-47z" />
    <glyph glyph-name="Yacute" unicode="&#xdd;" horiz-adv-x="335" 
d="M63 0l56 545l-35 973h45l31 -840l209 840h43l-246 -990l-55 -528h-48zM215 1614l114 221h51l-120 -221h-45z" />
    <glyph glyph-name="Thorn" unicode="&#xde;" 
d="M-14 0l159 1518h48l-33 -301h37q92 0 127.5 -46.5t35.5 -150.5q0 -66 -18 -232q-26 -246 -59.5 -328.5t-137.5 -82.5h-73l-39 -377h-47zM78 422h67q20 0 35.5 4.5t28.5 17.5t22.5 26t17.5 40t13.5 49.5t11.5 65.5t10.5 76t10.5 92q18 166 18 227q0 80 -25.5 115.5
t-90.5 35.5h-41z" />
    <glyph glyph-name="germandbls" unicode="&#xdf;" horiz-adv-x="374" 
d="M-51 -297l174 1669q10 99 38 137.5t107 38.5q63 0 89 -30.5t26 -120.5q0 -50 -21 -258q-20 -188 -36.5 -260t-51.5 -97q43 -32 43 -157q0 -72 -16 -238q-8 -73 -15.5 -128t-17 -96t-16.5 -68.5t-20.5 -46t-22.5 -28t-27.5 -14.5t-30 -5.5t-36.5 -0.5h-29l6 45h23
q23 0 33.5 1.5t26.5 11.5t24 30.5t18.5 59t19 97.5t17.5 146q16 166 16 234q0 83 -15.5 109t-59.5 26h-25l6 45h19q25 0 38.5 6t26 22t21 56.5t16 97t18.5 156.5q21 208 21 254q0 63 -15.5 84.5t-52.5 21.5q-56 0 -73 -28t-25 -107l-174 -1665h-47z" />
    <glyph glyph-name="agrave" unicode="&#xe0;" horiz-adv-x="354" 
d="M76 -6q-55 0 -77 30.5t-22 110.5q0 57 17 213q8 80 14.5 131.5t15.5 103t18 81t22.5 57.5t28.5 41.5t38 24.5t49 15t62 5l2 6q18 173 17 202q-3 46 -33 55q-11 3 -31 3q-42 0 -78 -8l-10 43q38 10 88 10q62 0 87 -26t23.5 -81.5t-11.5 -140.5q-5 -42 -7 -65l-70 -666
q-6 -60 1.5 -77t41.5 -17l-6 -45h-4q-35 0 -51.5 11.5t-22.5 39.5q-18 -33 -41 -45t-61 -12zM76 39q63 0 81 57t48 342l33 324q-38 -2 -62 -7t-45 -23.5t-32.5 -42.5t-22.5 -75.5t-18 -110.5t-17 -159q-16 -154 -16 -211q0 -53 11.5 -73.5t39.5 -20.5zM226 1235l-72 221h49
l66 -221h-43z" />
    <glyph glyph-name="aacute" unicode="&#xe1;" horiz-adv-x="354" 
d="M76 -6q-55 0 -77 30.5t-22 110.5q0 57 17 213q8 80 14.5 131.5t15.5 103t18 81t22.5 57.5t28.5 41.5t38 24.5t49 15t62 5l2 6q18 173 17 202q-3 46 -33 55q-11 3 -31 3q-42 0 -78 -8l-10 43q38 10 88 10q62 0 87 -26t23.5 -81.5t-11.5 -140.5q-5 -42 -7 -65l-70 -666
q-6 -60 1.5 -77t41.5 -17l-6 -45h-4q-35 0 -51.5 11.5t-22.5 39.5q-18 -33 -41 -45t-61 -12zM76 39q63 0 81 57t48 342l33 324q-38 -2 -62 -7t-45 -23.5t-32.5 -42.5t-22.5 -75.5t-18 -110.5t-17 -159q-16 -154 -16 -211q0 -53 11.5 -73.5t39.5 -20.5zM183 1235l114 221h51
l-120 -221h-45z" />
    <glyph glyph-name="acircumflex" unicode="&#xe2;" horiz-adv-x="354" 
d="M76 -6q-55 0 -77 30.5t-22 110.5q0 57 17 213q8 80 14.5 131.5t15.5 103t18 81t22.5 57.5t28.5 41.5t38 24.5t49 15t62 5l2 6q18 173 17 202q-3 46 -33 55q-11 3 -31 3q-42 0 -78 -8l-10 43q38 10 88 10q62 0 87 -26t23.5 -81.5t-11.5 -140.5q-5 -42 -7 -65l-70 -666
q-6 -60 1.5 -77t41.5 -17l-6 -45h-4q-35 0 -51.5 11.5t-22.5 39.5q-18 -33 -41 -45t-61 -12zM76 39q63 0 81 57t48 342l33 324q-38 -2 -62 -7t-45 -23.5t-32.5 -42.5t-22.5 -75.5t-18 -110.5t-17 -159q-16 -154 -16 -211q0 -53 11.5 -73.5t39.5 -20.5zM101 1235l127 221h43
l77 -221h-43l-61 174l-96 -174h-47z" />
    <glyph glyph-name="atilde" unicode="&#xe3;" horiz-adv-x="354" 
d="M76 -6q-55 0 -77 30.5t-22 110.5q0 57 17 213q8 80 14.5 131.5t15.5 103t18 81t22.5 57.5t28.5 41.5t38 24.5t49 15t62 5l2 6q18 173 17 202q-3 46 -33 55q-11 3 -31 3q-42 0 -78 -8l-10 43q38 10 88 10q62 0 87 -26t23.5 -81.5t-11.5 -140.5q-5 -42 -7 -65l-70 -666
q-6 -60 1.5 -77t41.5 -17l-6 -45h-4q-35 0 -51.5 11.5t-22.5 39.5q-18 -33 -41 -45t-61 -12zM76 39q63 0 81 57t48 342l33 324q-38 -2 -62 -7t-45 -23.5t-32.5 -42.5t-22.5 -75.5t-18 -110.5t-17 -159q-16 -154 -16 -211q0 -53 11.5 -73.5t39.5 -20.5zM111 1235q12 98 70 98
q26 0 58.5 -26.5t43.5 -26.5q12 0 15.5 9t6.5 44h45q-6 -57 -22 -76.5t-45 -19.5q-26 0 -58.5 26.5t-43.5 26.5q-18 0 -25 -55h-45z" />
    <glyph glyph-name="adieresis" unicode="&#xe4;" horiz-adv-x="354" 
d="M76 -6q-55 0 -77 30.5t-22 110.5q0 57 17 213q8 80 14.5 131.5t15.5 103t18 81t22.5 57.5t28.5 41.5t38 24.5t49 15t62 5l2 6q18 173 17 202q-3 46 -33 55q-11 3 -31 3q-42 0 -78 -8l-10 43q38 10 88 10q62 0 87 -26t23.5 -81.5t-11.5 -140.5q-5 -42 -7 -65l-70 -666
q-6 -60 1.5 -77t41.5 -17l-6 -45h-4q-35 0 -51.5 11.5t-22.5 39.5q-18 -33 -41 -45t-61 -12zM76 39q63 0 81 57t48 342l33 324q-38 -2 -62 -7t-45 -23.5t-32.5 -42.5t-22.5 -75.5t-18 -110.5t-17 -159q-16 -154 -16 -211q0 -53 11.5 -73.5t39.5 -20.5zM131 1235l15 123h47
l-15 -123h-47zM275 1235l14 123h47l-14 -123h-47z" />
    <glyph glyph-name="aring" unicode="&#xe5;" horiz-adv-x="354" 
d="M76 -6q-55 0 -77 30.5t-22 110.5q0 57 17 213q8 80 14.5 131.5t15.5 103t18 81t22.5 57.5t28.5 41.5t38 24.5t49 15t62 5l2 6q18 173 17 202q-3 46 -33 55q-11 3 -31 3q-42 0 -78 -8l-10 43q38 10 88 10q62 0 87 -26t23.5 -81.5t-11.5 -140.5q-5 -42 -7 -65l-70 -666
q-6 -60 1.5 -77t41.5 -17l-6 -45h-4q-35 0 -51.5 11.5t-22.5 39.5q-18 -33 -41 -45t-61 -12zM76 39q63 0 81 57t48 342l33 324q-38 -2 -62 -7t-45 -23.5t-32.5 -42.5t-22.5 -75.5t-18 -110.5t-17 -159q-16 -154 -16 -211q0 -53 11.5 -73.5t39.5 -20.5zM228 1231
q-52 0 -63.5 32.5t-4.5 106.5q4 31 6.5 48t9 37t15.5 29.5t24 16t37 6.5q36 0 53.5 -17.5t18.5 -49t-4 -74.5q-7 -72 -24.5 -103.5t-67.5 -31.5zM230 1272q23 0 32 18t15 78t1 79t-28 19t-32 -19t-15 -79t-1 -78t28 -18z" />
    <glyph glyph-name="ae" unicode="&#xe6;" horiz-adv-x="520" 
d="M76 -6q-55 0 -77 30.5t-22 110.5q0 57 17 213q11 105 20 169.5t23 120.5t29.5 84t41.5 49t56.5 27.5t77.5 8.5l2 6q18 173 17 202q-3 46 -33 55q-11 3 -31 3q-48 0 -78 -10l-15 43q40 12 93 12q82 0 100 -53q6 12 14 20q26 33 82 33q64 0 86.5 -33.5t22.5 -113.5
q0 -60 -37 -412l-2 -20h-201q-33 -344 -33 -377q0 -125 76 -125q43 0 82 10l10 -41q-46 -14 -92 -14q-90 0 -112 84q-30 -82 -117 -82zM76 39q63 0 81 57t48 342l33 324q-37 -2 -60 -7.5t-44 -23t-33 -43t-23.5 -75.5t-19.5 -111t-17 -158q-16 -154 -16 -211
q0 -53 11.5 -73.5t39.5 -20.5zM346 1057q-25 -29 -39.5 -118t-40.5 -355h154q35 342 35 387q0 55 -12.5 78.5t-49.5 23.5q-34 0 -47 -16z" />
    <glyph glyph-name="ccedilla" unicode="&#xe7;" horiz-adv-x="266" 
d="M43 -338q-41 0 -76 12l19 43q23 -10 55 -10q38 0 49 15.5t19 78.5q4 46 -7 57.5t-39 8.5l-30 22l30 107q-46 11 -62.5 53.5t-16.5 112.5q0 78 34 409q38 368 67 457.5t122 89.5q35 0 76 -12l-15 -43q-33 10 -61 10t-44.5 -9.5t-30.5 -42t-22.5 -83t-19.5 -144.5t-23 -215
q-1 -9 -1 -14q-35 -341 -35 -403q0 -61 15 -93t56 -32q32 0 62 6l8 -43q-36 -8 -70 -8l-24 -86q49 6 66.5 -19.5t11.5 -89.5q-9 -85 -30.5 -110t-82.5 -25z" />
    <glyph glyph-name="egrave" unicode="&#xe8;" horiz-adv-x="321" 
d="M106 -8q-58 0 -90 36.5t-32 133.5q0 55 34 403q31 300 46.5 392t46.5 128q26 33 84 33q64 0 86 -33.5t22 -113.5q0 -60 -37 -412l-2 -20h-201q-32 -333 -32 -377q0 -71 20 -98t55 -27q41 0 82 10l11 -41q-41 -14 -93 -14zM147 1057q-25 -29 -38.5 -116.5t-40.5 -356.5
h153q35 342 35 387q0 56 -12 79t-49 23q-35 0 -48 -16zM209 1235l-72 221h49l66 -221h-43z" />
    <glyph glyph-name="eacute" unicode="&#xe9;" horiz-adv-x="321" 
d="M106 -8q-58 0 -90 36.5t-32 133.5q0 55 34 403q31 300 46.5 392t46.5 128q26 33 84 33q64 0 86 -33.5t22 -113.5q0 -60 -37 -412l-2 -20h-201q-32 -333 -32 -377q0 -71 20 -98t55 -27q41 0 82 10l11 -41q-41 -14 -93 -14zM147 1057q-25 -29 -38.5 -116.5t-40.5 -356.5
h153q35 342 35 387q0 56 -12 79t-49 23q-35 0 -48 -16zM166 1235l114 221h51l-120 -221h-45z" />
    <glyph glyph-name="ecircumflex" unicode="&#xea;" horiz-adv-x="321" 
d="M106 -8q-58 0 -90 36.5t-32 133.5q0 55 34 403q31 300 46.5 392t46.5 128q26 33 84 33q64 0 86 -33.5t22 -113.5q0 -60 -37 -412l-2 -20h-201q-32 -333 -32 -377q0 -71 20 -98t55 -27q41 0 82 10l11 -41q-41 -14 -93 -14zM147 1057q-25 -29 -38.5 -116.5t-40.5 -356.5
h153q35 342 35 387q0 56 -12 79t-49 23q-35 0 -48 -16zM84 1235l127 221h43l77 -221h-43l-61 174l-96 -174h-47z" />
    <glyph glyph-name="edieresis" unicode="&#xeb;" horiz-adv-x="321" 
d="M106 -8q-58 0 -90 36.5t-32 133.5q0 55 34 403q31 300 46.5 392t46.5 128q26 33 84 33q64 0 86 -33.5t22 -113.5q0 -60 -37 -412l-2 -20h-201q-32 -333 -32 -377q0 -71 20 -98t55 -27q41 0 82 10l11 -41q-41 -14 -93 -14zM147 1057q-25 -29 -38.5 -116.5t-40.5 -356.5
h153q35 342 35 387q0 56 -12 79t-49 23q-35 0 -48 -16zM114 1235l15 123h47l-15 -123h-47zM258 1235l14 123h47l-14 -123h-47z" />
    <glyph glyph-name="igrave" unicode="&#xec;" horiz-adv-x="174" 
d="M109 1235l-43 221h49l37 -221h-43zM-16 0l116 1110h47l-116 -1110h-47z" />
    <glyph glyph-name="iacute" unicode="&#xed;" horiz-adv-x="174" 
d="M115 1235l98 221h51l-104 -221h-45zM-16 0l116 1110h47l-116 -1110h-47z" />
    <glyph glyph-name="icircumflex" unicode="&#xee;" horiz-adv-x="174" 
d="M23 1235l116 221h43l68 -221h-43l-51 170l-86 -170h-47zM-16 0l116 1110h47l-116 -1110h-47z" />
    <glyph glyph-name="idieresis" unicode="&#xef;" horiz-adv-x="174" 
d="M-16 0l116 1110h47l-116 -1110h-47zM41 1235l15 123h47l-15 -123h-47zM185 1235l14 123h47l-14 -123h-47z" />
    <glyph glyph-name="eth" unicode="&#xf0;" horiz-adv-x="372" 
d="M190 1268l5 47l84 35q-13 84 -39 186l45 12q27 -127 34 -180l101 43l-4 -47l-90 -39q24 -182 16 -418q-2 -85 -29 -358q-10 -98 -17 -158.5t-16 -124t-16.5 -98.5t-18.5 -71t-22.5 -52t-28 -30.5t-35.5 -18.5t-44 -4q-70 0 -98.5 43t-28.5 149q0 91 30 381
q14 130 24 212.5t23 149t25 100.5t31.5 56.5t40 28.5t53.5 6q55 0 84 -26q-3 114 -16 215zM115 37q66 0 90 88t61 428q29 277 29 371q0 83 -18.5 116t-61.5 33q-17 0 -28.5 -3t-23.5 -13.5t-20 -25.5t-16.5 -44t-15 -63.5t-14.5 -90.5t-15 -119t-16 -153q-31 -300 -31 -377
q0 -82 18 -114.5t62 -32.5z" />
    <glyph glyph-name="ntilde" unicode="&#xf1;" horiz-adv-x="393" 
d="M-20 0l116 1104l33 2l-2 -62q26 74 115 74q65 0 91 -26.5t24.5 -78t-9.5 -126.5l-94 -887h-47l94 887q12 115 8 139q-6 38 -43 45q-11 2 -26 2q-64 0 -89 -63t-45 -248l-79 -762h-47zM131 1235q12 98 70 98q26 0 58.5 -26.5t43.5 -26.5q12 0 15.5 9t6.5 44h45
q-6 -57 -22 -76.5t-45 -19.5q-26 0 -58.5 26.5t-43.5 26.5q-18 0 -25 -55h-45z" />
    <glyph glyph-name="ograve" unicode="&#xf2;" horiz-adv-x="372" 
d="M115 -8q-73 0 -102 36t-29 134q0 71 34 409q38 370 68 458.5t129 88.5q74 0 102.5 -37.5t28.5 -136.5q0 -84 -33 -397q-35 -335 -52 -413q-22 -100 -66 -126q-27 -16 -80 -16zM115 37q72 0 93 74.5t56 420.5q1 13 2 19q33 322 33 393q0 73 -18.5 101t-65.5 28
q-70 0 -91 -73t-54 -399q-3 -22 -4 -34q-35 -355 -35 -405q0 -72 18.5 -98.5t65.5 -26.5zM236 1235l-72 221h49l66 -221h-43z" />
    <glyph glyph-name="oacute" unicode="&#xf3;" horiz-adv-x="372" 
d="M115 -8q-73 0 -102 36t-29 134q0 71 34 409q38 370 68 458.5t129 88.5q74 0 102.5 -37.5t28.5 -136.5q0 -84 -33 -397q-35 -335 -52 -413q-22 -100 -66 -126q-27 -16 -80 -16zM115 37q72 0 93 74.5t56 420.5q1 13 2 19q33 322 33 393q0 73 -18.5 101t-65.5 28
q-70 0 -91 -73t-54 -399q-3 -22 -4 -34q-35 -355 -35 -405q0 -72 18.5 -98.5t65.5 -26.5zM193 1235l114 221h51l-120 -221h-45z" />
    <glyph glyph-name="ocircumflex" unicode="&#xf4;" horiz-adv-x="372" 
d="M115 -8q-73 0 -102 36t-29 134q0 71 34 409q38 370 68 458.5t129 88.5q74 0 102.5 -37.5t28.5 -136.5q0 -84 -33 -397q-35 -335 -52 -413q-22 -100 -66 -126q-27 -16 -80 -16zM115 37q72 0 93 74.5t56 420.5q1 13 2 19q33 322 33 393q0 73 -18.5 101t-65.5 28
q-70 0 -91 -73t-54 -399q-3 -22 -4 -34q-35 -355 -35 -405q0 -72 18.5 -98.5t65.5 -26.5zM111 1235l127 221h43l77 -221h-43l-61 174l-96 -174h-47z" />
    <glyph glyph-name="otilde" unicode="&#xf5;" horiz-adv-x="372" 
d="M115 -8q-73 0 -102 36t-29 134q0 71 34 409q38 370 68 458.5t129 88.5q74 0 102.5 -37.5t28.5 -136.5q0 -84 -33 -397q-35 -335 -52 -413q-22 -100 -66 -126q-27 -16 -80 -16zM115 37q72 0 93 74.5t56 420.5q1 13 2 19q33 322 33 393q0 73 -18.5 101t-65.5 28
q-70 0 -91 -73t-54 -399q-3 -22 -4 -34q-35 -355 -35 -405q0 -72 18.5 -98.5t65.5 -26.5zM121 1235q12 98 70 98q26 0 58.5 -26.5t43.5 -26.5q12 0 15.5 9t6.5 44h45q-6 -57 -22 -76.5t-45 -19.5q-26 0 -58.5 26.5t-43.5 26.5q-18 0 -25 -55h-45z" />
    <glyph glyph-name="odieresis" unicode="&#xf6;" horiz-adv-x="372" 
d="M115 -8q-73 0 -102 36t-29 134q0 71 34 409q38 370 68 458.5t129 88.5q74 0 102.5 -37.5t28.5 -136.5q0 -84 -33 -397q-35 -335 -52 -413q-22 -100 -66 -126q-27 -16 -80 -16zM115 37q72 0 93 74.5t56 420.5q1 13 2 19q33 322 33 393q0 73 -18.5 101t-65.5 28
q-70 0 -91 -73t-54 -399q-3 -22 -4 -34q-35 -355 -35 -405q0 -72 18.5 -98.5t65.5 -26.5zM141 1235l15 123h47l-15 -123h-47zM285 1235l14 123h47l-14 -123h-47z" />
    <glyph glyph-name="divide" unicode="&#xf7;" horiz-adv-x="409" 
d="M158 502l10 98h43l-10 -98h-43zM74 733l4 43h258l-4 -43h-258zM199 901l10 98h43l-10 -98h-43z" />
    <glyph glyph-name="oslash" unicode="&#xf8;" horiz-adv-x="372" 
d="M115 -8q-59 0 -88 20l-27 -94h-47l43 141q-12 37 -12 103q0 71 34 409q38 370 68 458.5t129 88.5q59 0 86 -22l29 96h47l-43 -143q12 -37 12 -105q0 -84 -33 -397q-35 -335 -52 -413q-22 -100 -66 -126q-27 -16 -80 -16zM115 37q72 0 93 74.5t56 420.5q1 13 2 19
q33 313 33 387l-256 -866q16 -35 72 -35zM66 567q-35 -341 -35 -395l256 862q-16 39 -72 39q-70 0 -91 -73t-54 -399q-3 -22 -4 -34z" />
    <glyph glyph-name="ugrave" unicode="&#xf9;" horiz-adv-x="380" 
d="M115 -8q-64 0 -92.5 29.5t-27 81.5t8.5 122l92 885h47l-92 -885q-12 -112 -8 -138q8 -44 54 -49q8 -1 18 -1q61 0 78.5 34t27.5 131q1 15 2 23l92 885h45l-92 -885q-13 -121 -23 -151q-21 -64 -82 -77q-21 -5 -48 -5zM240 1235l-72 221h49l66 -221h-43z" />
    <glyph glyph-name="uacute" unicode="&#xfa;" horiz-adv-x="380" 
d="M115 -8q-64 0 -92.5 29.5t-27 81.5t8.5 122l92 885h47l-92 -885q-12 -112 -8 -138q8 -44 54 -49q8 -1 18 -1q61 0 78.5 34t27.5 131q1 15 2 23l92 885h45l-92 -885q-13 -121 -23 -151q-21 -64 -82 -77q-21 -5 -48 -5zM197 1235l114 221h51l-120 -221h-45z" />
    <glyph glyph-name="ucircumflex" unicode="&#xfb;" horiz-adv-x="380" 
d="M115 -8q-64 0 -92.5 29.5t-27 81.5t8.5 122l92 885h47l-92 -885q-12 -112 -8 -138q8 -44 54 -49q8 -1 18 -1q61 0 78.5 34t27.5 131q1 15 2 23l92 885h45l-92 -885q-13 -121 -23 -151q-21 -64 -82 -77q-21 -5 -48 -5zM115 1235l127 221h43l77 -221h-43l-61 174l-96 -174
h-47z" />
    <glyph glyph-name="udieresis" unicode="&#xfc;" horiz-adv-x="380" 
d="M115 -8q-64 0 -92.5 29.5t-27 81.5t8.5 122l92 885h47l-92 -885q-12 -112 -8 -138q8 -44 54 -49q8 -1 18 -1q61 0 78.5 34t27.5 131q1 15 2 23l92 885h45l-92 -885q-13 -121 -23 -151q-21 -64 -82 -77q-21 -5 -48 -5zM145 1235l15 123h47l-15 -123h-47zM289 1235l14 123
h47l-14 -123h-47z" />
    <glyph glyph-name="yacute" unicode="&#xfd;" horiz-adv-x="286" 
d="M-57 -297l4 47h4q31 0 39 7t14 35q1 6 2 9l35 179l8 1130h45l-4 -629l-6 -305l57 303l125 631h45l-262 -1321q-9 -46 -27.5 -66t-70.5 -20h-8zM150 1235l114 221h51l-120 -221h-45z" />
    <glyph glyph-name="thorn" unicode="&#xfe;" horiz-adv-x="389" 
d="M-51 -297l192 1845h47l-49 -481q36 51 103 51q63 0 93 -34t30 -128q0 -93 -35 -405q-32 -297 -49 -393t-52 -131q-22 -22 -42.5 -28.5t-55.5 -6.5q-75 0 -98 53l-37 -342h-47zM131 37q71 0 91.5 72.5t56.5 415.5q3 22 4 34q34 338 34 397q0 70 -17 93.5t-60 23.5
q-72 0 -95 -84t-59 -424q-35 -345 -35 -399q0 -73 18 -101t62 -28z" />
    <glyph glyph-name="ydieresis" unicode="&#xff;" horiz-adv-x="286" 
d="M-57 -297l4 47h4q31 0 39 7t14 35q1 6 2 9l35 179l8 1130h45l-4 -629l-6 -305l57 303l125 631h45l-262 -1321q-9 -46 -27.5 -66t-70.5 -20h-8zM98 1235l15 123h47l-15 -123h-47zM242 1235l14 123h47l-14 -123h-47z" />
    <glyph glyph-name="dotlessi" unicode="&#x131;" horiz-adv-x="174" 
d="M-16 0l116 1110h47l-116 -1110h-47z" />
    <glyph glyph-name="Lslash" unicode="&#x141;" horiz-adv-x="317" 
d="M2 674l4 49l60 33l79 762h48l-78 -736l121 66l-7 -49l-120 -68l-72 -686h188l-4 -45h-235l73 705z" />
    <glyph glyph-name="lslash" unicode="&#x142;" horiz-adv-x="290" 
d="M55 993l4 49l78 43l49 463h47l-47 -436l103 55l-6 -49l-101 -55l-96 -924q-6 -59 1.5 -75.5t39.5 -16.5h10l-4 -47h-6q-62 0 -78.5 33t-9.5 106l94 897z" />
    <glyph glyph-name="OE" unicode="&#x152;" horiz-adv-x="577" 
d="M137 0q-70 0 -107.5 43t-37.5 160q0 100 49 565q43 402 61 513.5t54 168.5q44 68 141 68h309l-4 -45h-184l-72 -668h180l-4 -45h-180l-76 -715h187l-4 -45h-312zM137 45h84l150 1428h-74q-72 0 -102 -50q-30 -45 -48.5 -164t-58.5 -495q-49 -478 -49 -561
q0 -91 25.5 -124.5t72.5 -33.5z" />
    <glyph glyph-name="oe" unicode="&#x153;" horiz-adv-x="571" 
d="M115 -8q-73 0 -102 36t-29 134q0 71 34 409q38 370 68 458.5t129 88.5q54 0 82 -19.5t37 -64.5q11 31 28 51q26 33 82 33q64 0 86.5 -33.5t22.5 -113.5q0 -60 -37 -412l-2 -20h-201q-32 -333 -32 -377q0 -71 20 -98t55 -27q43 0 82 10l11 -41q-43 -14 -93 -14
q-43 0 -72 19t-40 69q-18 -52 -46.5 -70t-82.5 -18zM115 37q72 0 93 74.5t56 420.5q1 13 2 19q33 322 33 393q0 73 -18.5 101t-65.5 28q-70 0 -91 -73t-54 -399q-3 -22 -4 -34q-35 -355 -35 -405q0 -72 18.5 -98.5t65.5 -26.5zM397 1057q-25 -29 -39.5 -118t-40.5 -355h154
q35 342 35 387q0 55 -12.5 78.5t-49.5 23.5q-34 0 -47 -16z" />
    <glyph glyph-name="Scaron" unicode="&#x160;" horiz-adv-x="323" 
d="M76 -10q-51 0 -109 12l17 47q54 -12 94 -12q44 0 67.5 13.5t36 62t4.5 139.5l-88 1005q-4 54 -4 72q0 104 39.5 149.5t114.5 45.5q51 0 90 -13l-14 -45q-46 11 -76 11q-69 0 -91 -53t-12 -158l88 -1006q5 -73 5 -76q0 -103 -38 -148.5t-124 -45.5zM231 1614l-78 221h43
l62 -174l96 174h47l-127 -221h-43z" />
    <glyph glyph-name="scaron" unicode="&#x161;" horiz-adv-x="268" 
d="M43 -8q-57 0 -102 10l14 45q50 -10 88 -10q60 0 81 40.5t9 147.5l-82 676q-4 46 -4 66q0 151 127 151q53 0 86 -8l-14 -43q-27 6 -72 6q-56 0 -71 -42.5t-5 -121.5l80 -673q6 -47 6 -86q0 -78 -33 -118t-108 -40zM162 1235l-78 221h43l62 -174l96 174h47l-127 -221h-43z
" />
    <glyph glyph-name="Ydieresis" unicode="&#x178;" horiz-adv-x="335" 
d="M63 0l56 545l-35 973h45l31 -840l209 840h43l-246 -990l-55 -528h-48zM163 1614l15 123h47l-15 -123h-47zM307 1614l14 123h47l-14 -123h-47z" />
    <glyph glyph-name="Zcaron" unicode="&#x17d;" horiz-adv-x="350" 
d="M-39 0l4 45l367 1428h-205l4 45h250l-4 -45l-367 -1428h226l-5 -45h-270zM244 1614l-78 221h43l62 -174l96 174h47l-127 -221h-43z" />
    <glyph glyph-name="zcaron" unicode="&#x17e;" horiz-adv-x="278" 
d="M-49 0l4 45l283 1020h-164l4 45h207l-4 -45l-283 -1020h172l-4 -45h-215zM168 1235l-78 221h43l62 -174l96 174h47l-127 -221h-43z" />
    <glyph glyph-name="florin" unicode="&#x192;" horiz-adv-x="364" 
d="M37 860l6 45h90l45 438q9 99 36 137t99 38h15l-6 -48h-7q-53 0 -67.5 -24.5t-22.5 -102.5l-45 -438h113l-6 -45h-111l-117 -1157h-47l117 1157h-92z" />
    <glyph glyph-name="circumflex" unicode="&#x2c6;" 
d="M113 1235l127 221h43l77 -221h-43l-61 174l-96 -174h-47z" />
    <glyph glyph-name="caron" unicode="&#x2c7;" 
d="M217 1235l-78 221h43l62 -174l96 174h47l-127 -221h-43z" />
    <glyph glyph-name="breve" unicode="&#x2d8;" 
d="M244 1231q-60 0 -75 35t-7 112h47q-8 -54 -2 -79t35 -25q30 0 41 22.5t18 81.5h47q-8 -78 -29 -112.5t-75 -34.5z" />
    <glyph glyph-name="dotaccent" unicode="&#x2d9;" 
d="M215 1235l18 164h48l-19 -164h-47z" />
    <glyph glyph-name="ring" unicode="&#x2da;" 
d="M240 1231q-52 0 -63.5 32.5t-4.5 106.5q4 31 6.5 48t9 37t15.5 29.5t24 16t37 6.5q36 0 53.5 -17.5t18.5 -49t-4 -74.5q-7 -72 -24.5 -103.5t-67.5 -31.5zM242 1272q23 0 32 18t15 78t1 79t-28 19t-32 -19t-15 -79t-1 -78t28 -18z" />
    <glyph glyph-name="ogonek" unicode="&#x2db;" 
d="M137 -317h-6q-87 0 -116 34t-21 109q7 78 115 182h55q-66 -63 -92 -103.5t-31 -82.5q-6 -54 12 -74t80 -20h8z" />
    <glyph glyph-name="tilde" unicode="&#x2dc;" 
d="M123 1235q12 98 70 98q26 0 58.5 -26.5t43.5 -26.5q12 0 15.5 9t6.5 44h45q-6 -57 -22 -76.5t-45 -19.5q-26 0 -58.5 26.5t-43.5 26.5q-18 0 -25 -55h-45z" />
    <glyph glyph-name="hungarumlaut" unicode="&#x2dd;" 
d="M127 1235l63 221h54l-70 -221h-47zM293 1235l63 221h54l-70 -221h-47z" />
    <glyph glyph-name="Delta" unicode="&#x394;" horiz-adv-x="423" 
d="M55 1065l4 45h72l29 264q9 96 39.5 135t107.5 39h10l-4 -47h-4q-58 0 -76 -26t-26 -101l-29 -264h94l-4 -45h-94l-143 -1362h-47l143 1362h-72zM166 -297l4 47q25 1 32.5 11.5t10.5 41.5l137 1307h47l-137 -1305q-5 -53 -23 -77.5t-71 -24.5zM369 1288l18 164h47
l-18 -164h-47z" />
    <glyph glyph-name="Delta" unicode="&#x2206;" horiz-adv-x="423" 
d="M55 1065l4 45h72l29 264q9 96 39.5 135t107.5 39h10l-4 -47h-4q-58 0 -76 -26t-26 -101l-29 -264h94l-4 -45h-94l-143 -1362h-47l143 1362h-72zM166 -297l4 47q25 1 32.5 11.5t10.5 41.5l137 1307h47l-137 -1305q-5 -53 -23 -77.5t-71 -24.5zM369 1288l18 164h47
l-18 -164h-47z" />
    <glyph glyph-name="Omega" unicode="&#x3a9;" horiz-adv-x="1703" 
d="M258 246q-88 105 -136 237t-48 277q0 144 48 276t136 236q6 -4 14 -12q-85 -103 -131.5 -231.5t-46.5 -268.5q0 -285 180 -500zM467 432q-117 143 -117 328q0 183 115 327q3 -2 8 -7t8 -7q-110 -136 -110 -313q0 -182 110 -314zM541 498q-92 116 -92 262t92 262
q3 -2 8 -7t8 -7q-88 -109 -88 -248t88 -248q-3 -2 -8 -7t-8 -7zM647 592q-57 72 -57 168q0 97 57 166l15 -15q-52 -69 -52 -151q0 -84 54 -154q-3 -2 -8.5 -7t-8.5 -7zM715 655q-33 48 -33 105q0 56 33 104q3 -2 8 -7t8 -7q-29 -44 -29 -90t29 -90q-3 -2 -16 -15zM774 709
q-14 25 -14 51t14 51l12 -10q-10 -20 -10 -41t10 -41q-4 -4 -12 -10zM852 123q-236 0 -412 158l2.5 2.5l5 5l5.5 5.5t2 1q171 -152 397 -152q227 0 395 152q2 -3 7.5 -8t7.5 -8q-177 -156 -410 -156zM852 664q-31 0 -55 18l12 12q21 -14 43 -14q26 0 43 14q4 -4 10 -12
q-21 -18 -53 -18zM987 653q-7 10 -14 15q28 42 28 92q0 51 -28 90l2.5 2.5t5 4.5t5.5 5t1 2q35 -44 35 -104t-35 -107zM598 551q-72 91 -72 209q0 119 74 209l14 -15q-67 -87 -67 -194q0 -108 67 -195q-10 -10 -16 -14zM852 -35q-145 0 -278 52.5t-238 146.5l14 16
q102 -92 231 -143t271 -51q285 0 500 192q0 1 3.5 -2.5t6.5 -7.5l4 -4q-104 -95 -236 -147t-278 -52zM852 248q-189 0 -330 125l15 16q134 -121 315 -121q182 0 313 121q2 -3 7.5 -8t7.5 -8q-138 -125 -328 -125zM852 348q-145 0 -264 101l14 14q108 -94 250 -94
q143 0 248 94q2 -3 7 -8.5t7 -8.5q-112 -98 -262 -98zM852 428q-116 0 -211 78l14 16q86 -73 197 -73t197 73q4 -4 12 -16q-91 -78 -209 -78zM852 543q-77 0 -135 49l14 16q51 -45 121 -45q68 0 119 45q2 -3 7 -8t7 -8q-58 -49 -133 -49zM733 911q-4 3 -7 6.5t-6 6.5l-3 4
q58 49 135 49t135 -49l-16 -17q-51 45 -119 45t-119 -45zM1167 1130q-134 121 -315 121q-179 0 -313 -118l-15 14q141 125 328 125q189 0 330 -125q-4 -6 -15 -17zM930 709l-12 10q10 20 10 41t-10 41l12 10q14 -25 14 -51t-14 -51zM958 682q-10 10 -16 14q21 32 21 64
t-21 63l16 15q25 -36 25 -78t-25 -78zM1020 627q-6 4 -16 14q38 50 38 119t-38 119l14 14q45 -57 45 -133q0 -71 -43 -133zM1106 551q-3 2 -8 7t-8 7q67 87 67 195t-70 194l17 15q74 -90 74 -209q0 -118 -72 -209zM1163 498q-10 10 -16 14q88 109 88 248t-88 248l16 14
q92 -116 92 -262t-92 -262zM1237 432q-6 4 -16 14q112 134 112 314q0 182 -112 313l16 14q117 -139 117 -327q0 -189 -117 -328zM1329 350q-2 2 -7 6t-7 6q141 175 141 398q0 227 -143 395l16 14q148 -179 148 -409q0 -231 -148 -410zM1446 246q-6 6 -16 14q180 215 180 500
t-180 500l16 14q88 -105 136 -237t48 -277q0 -144 -48 -276t-136 -238zM375 348q-148 182 -148 412q0 229 146 409q2 -2 7.5 -6.5t8.5 -7.5q-141 -170 -141 -395q0 -228 141 -398zM684 627q-43 59 -43 133t43 133q6 -4 16 -14q-38 -50 -38 -119q0 -67 38 -117zM745 682
q-24 34 -24 78t24 78q2 -3 4.5 -5.5t6 -5.5t4.5 -4q-19 -34 -19 -63q0 -30 19 -64zM809 825l-10 13q21 18 53 18t53 -18l-10 -13q-23 15 -43 15q-25 0 -43 -15zM786 852l-14 14q37 29 80 29q41 0 78 -29q-8 -8 -12 -14q-28 25 -66 25q-34 0 -66 -25zM760 881l-15 16
q45 39 107 39q61 0 106 -39l-14 -16q-37 34 -92 34t-92 -34zM604 1057l-14 16q112 98 262 98q151 0 262 -100q1 0 -2 -3.5t-6 -7.5l-4 -3q-108 94 -250 94q-143 0 -248 -94zM852 492q-100 0 -170 61l14 16q70 -57 156 -57q87 0 154 57l14 -14q-73 -63 -168 -63zM852 584
q-61 0 -109 39l15 16q47 -35 94 -35q51 0 92 35l14 -16q-45 -39 -106 -39zM852 625q-43 0 -82 28l14 15q36 -25 68 -25q34 0 66 25l14 -15q-36 -28 -80 -28zM698 950l-14 15q73 63 168 63q98 0 168 -61l-14 -17q-68 58 -154 58q-87 0 -154 -58zM655 997l-14 17q91 78 211 78
q119 0 209 -80l-12 -15q-83 74 -197 74q-110 0 -197 -74zM1249 1223q-166 153 -397 153q-227 0 -397 -151l-15 14q179 158 412 158t412 -158zM352 1339l-14 17q104 95 236 146.5t278 51.5q145 0 278 -52t238 -146l-14 -17q-102 93 -231 144t-271 51t-270 -51t-230 -144z
M1057 594l-15 14q52 69 52 152t-54 153l17 15q57 -72 57 -168q0 -97 -57 -166z" />
    <glyph glyph-name="Omega" unicode="&#x2126;" horiz-adv-x="1703" 
d="M258 246q-88 105 -136 237t-48 277q0 144 48 276t136 236q6 -4 14 -12q-85 -103 -131.5 -231.5t-46.5 -268.5q0 -285 180 -500zM467 432q-117 143 -117 328q0 183 115 327q3 -2 8 -7t8 -7q-110 -136 -110 -313q0 -182 110 -314zM541 498q-92 116 -92 262t92 262
q3 -2 8 -7t8 -7q-88 -109 -88 -248t88 -248q-3 -2 -8 -7t-8 -7zM647 592q-57 72 -57 168q0 97 57 166l15 -15q-52 -69 -52 -151q0 -84 54 -154q-3 -2 -8.5 -7t-8.5 -7zM715 655q-33 48 -33 105q0 56 33 104q3 -2 8 -7t8 -7q-29 -44 -29 -90t29 -90q-3 -2 -16 -15zM774 709
q-14 25 -14 51t14 51l12 -10q-10 -20 -10 -41t10 -41q-4 -4 -12 -10zM852 123q-236 0 -412 158l2.5 2.5l5 5l5.5 5.5t2 1q171 -152 397 -152q227 0 395 152q2 -3 7.5 -8t7.5 -8q-177 -156 -410 -156zM852 664q-31 0 -55 18l12 12q21 -14 43 -14q26 0 43 14q4 -4 10 -12
q-21 -18 -53 -18zM987 653q-7 10 -14 15q28 42 28 92q0 51 -28 90l2.5 2.5t5 4.5t5.5 5t1 2q35 -44 35 -104t-35 -107zM598 551q-72 91 -72 209q0 119 74 209l14 -15q-67 -87 -67 -194q0 -108 67 -195q-10 -10 -16 -14zM852 -35q-145 0 -278 52.5t-238 146.5l14 16
q102 -92 231 -143t271 -51q285 0 500 192q0 1 3.5 -2.5t6.5 -7.5l4 -4q-104 -95 -236 -147t-278 -52zM852 248q-189 0 -330 125l15 16q134 -121 315 -121q182 0 313 121q2 -3 7.5 -8t7.5 -8q-138 -125 -328 -125zM852 348q-145 0 -264 101l14 14q108 -94 250 -94
q143 0 248 94q2 -3 7 -8.5t7 -8.5q-112 -98 -262 -98zM852 428q-116 0 -211 78l14 16q86 -73 197 -73t197 73q4 -4 12 -16q-91 -78 -209 -78zM852 543q-77 0 -135 49l14 16q51 -45 121 -45q68 0 119 45q2 -3 7 -8t7 -8q-58 -49 -133 -49zM733 911q-4 3 -7 6.5t-6 6.5l-3 4
q58 49 135 49t135 -49l-16 -17q-51 45 -119 45t-119 -45zM1167 1130q-134 121 -315 121q-179 0 -313 -118l-15 14q141 125 328 125q189 0 330 -125q-4 -6 -15 -17zM930 709l-12 10q10 20 10 41t-10 41l12 10q14 -25 14 -51t-14 -51zM958 682q-10 10 -16 14q21 32 21 64
t-21 63l16 15q25 -36 25 -78t-25 -78zM1020 627q-6 4 -16 14q38 50 38 119t-38 119l14 14q45 -57 45 -133q0 -71 -43 -133zM1106 551q-3 2 -8 7t-8 7q67 87 67 195t-70 194l17 15q74 -90 74 -209q0 -118 -72 -209zM1163 498q-10 10 -16 14q88 109 88 248t-88 248l16 14
q92 -116 92 -262t-92 -262zM1237 432q-6 4 -16 14q112 134 112 314q0 182 -112 313l16 14q117 -139 117 -327q0 -189 -117 -328zM1329 350q-2 2 -7 6t-7 6q141 175 141 398q0 227 -143 395l16 14q148 -179 148 -409q0 -231 -148 -410zM1446 246q-6 6 -16 14q180 215 180 500
t-180 500l16 14q88 -105 136 -237t48 -277q0 -144 -48 -276t-136 -238zM375 348q-148 182 -148 412q0 229 146 409q2 -2 7.5 -6.5t8.5 -7.5q-141 -170 -141 -395q0 -228 141 -398zM684 627q-43 59 -43 133t43 133q6 -4 16 -14q-38 -50 -38 -119q0 -67 38 -117zM745 682
q-24 34 -24 78t24 78q2 -3 4.5 -5.5t6 -5.5t4.5 -4q-19 -34 -19 -63q0 -30 19 -64zM809 825l-10 13q21 18 53 18t53 -18l-10 -13q-23 15 -43 15q-25 0 -43 -15zM786 852l-14 14q37 29 80 29q41 0 78 -29q-8 -8 -12 -14q-28 25 -66 25q-34 0 -66 -25zM760 881l-15 16
q45 39 107 39q61 0 106 -39l-14 -16q-37 34 -92 34t-92 -34zM604 1057l-14 16q112 98 262 98q151 0 262 -100q1 0 -2 -3.5t-6 -7.5l-4 -3q-108 94 -250 94q-143 0 -248 -94zM852 492q-100 0 -170 61l14 16q70 -57 156 -57q87 0 154 57l14 -14q-73 -63 -168 -63zM852 584
q-61 0 -109 39l15 16q47 -35 94 -35q51 0 92 35l14 -16q-45 -39 -106 -39zM852 625q-43 0 -82 28l14 15q36 -25 68 -25q34 0 66 25l14 -15q-36 -28 -80 -28zM698 950l-14 15q73 63 168 63q98 0 168 -61l-14 -17q-68 58 -154 58q-87 0 -154 -58zM655 997l-14 17q91 78 211 78
q119 0 209 -80l-12 -15q-83 74 -197 74q-110 0 -197 -74zM1249 1223q-166 153 -397 153q-227 0 -397 -151l-15 14q179 158 412 158t412 -158zM352 1339l-14 17q104 95 236 146.5t278 51.5q145 0 278 -52t238 -146l-14 -17q-102 93 -231 144t-271 51t-270 -51t-230 -144z
M1057 594l-15 14q52 69 52 152t-54 153l17 15q57 -72 57 -168q0 -97 -57 -166z" />
    <glyph glyph-name="pi" unicode="&#x3c0;" horiz-adv-x="507" 
d="M256 -8q-83 0 -127 39q-61 54 -81.5 211t-20.5 518q0 339 18 494t70 216q46 54 141 54t141 -54q52 -61 70 -216t18 -494q0 -357 -20 -514.5t-80 -212.5q-44 -41 -129 -41zM256 35q41 0 68 11t49 43.5t34 80.5t20 134t10.5 191.5t2.5 264.5t-2.5 264t-10.5 190.5t-20 133
t-34 80t-49 43t-68 10.5t-68 -10.5t-49 -43t-34 -80t-20 -133t-10.5 -190.5t-2.5 -264t2.5 -264.5t10.5 -191.5t20 -134t34 -80.5t49 -43.5t68 -11zM160 244v1009h92q28 0 48 -6.5t33 -24t20 -36t10.5 -56t4.5 -69.5t1 -90t-1 -90t-4.5 -70.5t-11 -57t-20 -36.5t-32.5 -24.5
t-48 -6.5h-45v-442h-47zM207 733h45q18 0 30 5t20 20t12.5 29.5t6.5 47t2.5 59t0.5 77.5q0 50 -0.5 76.5t-2.5 58.5t-6.5 47t-12.5 30t-20.5 20t-29.5 5h-45v-475z" />
    <glyph glyph-name="endash" unicode="&#x2013;" horiz-adv-x="425" 
d="M20 580l5 45h350l-4 -45h-351z" />
    <glyph glyph-name="emdash" unicode="&#x2014;" horiz-adv-x="548" 
d="M20 580l5 45h471l-4 -45h-472z" />
    <glyph glyph-name="quoteleft" unicode="&#x2018;" horiz-adv-x="163" 
d="M106 1270l17 143q5 57 15.5 76.5t43.5 28.5l6 -35q-18 -6 -23 -16t-9 -54h24l-16 -143h-58z" />
    <glyph glyph-name="quoteright" unicode="&#x2019;" horiz-adv-x="163" 
d="M115 1270l-6 35q18 6 23 15.5t11 53.5h-24l14 144h57l-14 -144q-6 -57 -17 -76t-44 -28z" />
    <glyph glyph-name="quotesinglbase" unicode="&#x201a;" horiz-adv-x="163" 
d="M-29 -104l-8 34q20 6 25.5 16t9.5 54h-25l15 143h57l-14 -143q-6 -56 -17 -75.5t-43 -28.5z" />
    <glyph glyph-name="quotedblleft" unicode="&#x201c;" horiz-adv-x="278" 
d="M106 1270l17 143q5 57 15.5 76.5t43.5 28.5l6 -35q-18 -6 -23 -16t-9 -54h24l-16 -143h-58zM217 1270l16 143q5 56 16 76t44 29l6 -35q-18 -6 -23.5 -16t-9.5 -54h25l-17 -143h-57z" />
    <glyph glyph-name="quotedblright" unicode="&#x201d;" horiz-adv-x="274" 
d="M115 1270l-6 35q18 6 23 15.5t11 53.5h-24l14 144h57l-14 -144q-6 -57 -17 -76t-44 -28zM225 1270l-6 35q18 6 23.5 16t11.5 53h-25l15 144h57l-14 -144q-6 -56 -17.5 -75.5t-44.5 -28.5z" />
    <glyph glyph-name="quotedblbase" unicode="&#x201e;" horiz-adv-x="274" 
d="M-29 -104l-8 34q20 6 25.5 16t9.5 54h-25l15 143h57l-14 -143q-6 -56 -17 -75.5t-43 -28.5zM82 -104l-8 34q20 6 25.5 16t9.5 54h-25l14 143h58l-15 -143q-6 -57 -16.5 -76t-42.5 -28z" />
    <glyph glyph-name="dagger" unicode="&#x2020;" horiz-adv-x="358" 
d="M78 1065l4 45h111l45 438h47l-47 -438h112l-4 -45h-113l-141 -1364h-47l141 1364h-108z" />
    <glyph glyph-name="daggerdbl" unicode="&#x2021;" horiz-adv-x="356" 
d="M45 -297l45 436h-110l4 45h110l94 881h-110l4 45h111l45 438h47l-45 -438h110l-4 -45h-110l-95 -881h111l-4 -45h-111l-45 -436h-47z" />
    <glyph glyph-name="bullet" unicode="&#x2022;" horiz-adv-x="237" 
d="M45 508l25 229h94l-25 -229h-94z" />
    <glyph glyph-name="ellipsis" unicode="&#x2026;" horiz-adv-x="438" 
d="M-27 0l13 123h57l-12 -123h-58zM117 0l12 123h57l-12 -123h-57zM248 0l12 123h57l-12 -123h-57z" />
    <glyph glyph-name="perthousand" unicode="&#x2030;" horiz-adv-x="872" 
d="M131 614q-49 0 -69.5 27.5t-20.5 106.5q0 88 27 331q32 296 54.5 370.5t90.5 74.5q50 0 70 -26.5t20 -104.5q0 -88 -27 -334q-32 -296 -54.5 -370.5t-90.5 -74.5zM131 659q21 0 31.5 9.5t22 58t20 117t24.5 219.5q29 271 29 330q0 52 -10 69t-35 17q-21 0 -31.5 -9.5
t-22 -57.5t-20 -117t-24.5 -220q-27 -249 -27 -327q0 -52 9.5 -70.5t33.5 -18.5zM406 -8q-50 0 -70.5 27t-20.5 106q0 89 27 332q32 296 54.5 370t90.5 74q50 0 70.5 -26.5t20.5 -104.5q0 -88 -27 -334q-32 -295 -54.5 -369.5t-90.5 -74.5zM406 37q21 0 31.5 9.5t22 57.5
t20 117t24.5 219q28 261 28 330q0 52 -10 69t-35 17q-21 0 -31.5 -9t-22 -57t-20 -117t-24.5 -220q-27 -249 -27 -328q0 -52 10 -70t34 -18zM659 -8q-50 0 -70 27t-20 106q0 89 27 332q32 296 54.5 370t90.5 74q50 0 70 -26.5t20 -104.5q0 -97 -26 -334q-32 -294 -55 -369
t-91 -75zM659 37q21 0 31.5 9.5t22 57t20.5 117.5t25 219q28 261 28 330q0 52 -10 69t-35 17q-21 0 -31.5 -9t-22 -57t-20 -117t-24.5 -220q-27 -249 -27 -328q0 -52 9.5 -70t33.5 -18zM100 0l371 1518h47l-371 -1518h-47z" />
    <glyph glyph-name="guilsinglleft" unicode="&#x2039;" horiz-adv-x="290" 
d="M90 0l-37 555l154 555h45l-154 -555l37 -555h-45z" />
    <glyph glyph-name="guilsinglright" unicode="&#x203a;" horiz-adv-x="290" 
d="M-4 0l151 555l-34 555h45l35 -555l-152 -555h-45z" />
    <glyph glyph-name="fraction" unicode="&#x2044;" horiz-adv-x="317" 
d="M-80 0l432 1518h45l-432 -1518h-45z" />
    <glyph glyph-name="fraction" unicode="&#x2215;" horiz-adv-x="317" 
d="M-80 0l432 1518h45l-432 -1518h-45z" />
    <glyph glyph-name="Euro" unicode="&#x20ac;" horiz-adv-x="382" 
d="M31 809l4 43h74q35 340 53.5 445t52.5 159q42 68 119 68q47 0 84 -11l-15 -43q-36 9 -69 9q-22 0 -38.5 -8t-30.5 -24.5t-25 -43.5t-20 -62.5t-17 -84t-15 -106t-15 -131t-16 -156.5q-1 -7 -1 -11h155l-4 -43h-155q-1 -8 -2.5 -23.5t-2.5 -23.5l-6 -60h154l-4 -43h-156
q-39 -367 -39 -469q0 -87 20 -120t68 -33q32 0 64 8l10 -43q-35 -10 -74 -10q-74 0 -104.5 42.5t-30.5 155.5q0 29 2 65t6.5 87t8 89.5t11 112.5t11.5 115h-74l4 43h74q1 9 4 30.5t4 33.5q1 7 2 21.5t2 21.5h-73z" />
    <glyph glyph-name="trademark" unicode="&#x2122;" horiz-adv-x="616" 
d="M82 578l94 897h-74l4 43h193l-4 -43h-74l-94 -897h-45zM221 578l98 940h64l-4 -758l156 758h65l-98 -940h-47l77 743l-149 -743h-45l4 745l-78 -745h-43z" />
    <glyph glyph-name="partialdiff" unicode="&#x2202;" horiz-adv-x="1703" 
d="M258 246q-88 105 -136 237t-48 277q0 144 48 276t136 236q6 -4 14 -12q-85 -103 -131.5 -231.5t-46.5 -268.5q0 -285 180 -500zM467 432q-117 143 -117 328q0 183 115 327q3 -2 8 -7t8 -7q-110 -136 -110 -313q0 -182 110 -314zM541 498q-92 116 -92 262t92 262
q3 -2 8 -7t8 -7q-88 -109 -88 -248t88 -248q-3 -2 -8 -7t-8 -7zM647 592q-57 72 -57 168q0 97 57 166l15 -15q-52 -69 -52 -151q0 -84 54 -154q-3 -2 -8.5 -7t-8.5 -7zM715 655q-33 48 -33 105q0 56 33 104q3 -2 8 -7t8 -7q-29 -44 -29 -90t29 -90q-3 -2 -16 -15zM774 709
q-14 25 -14 51t14 51l12 -10q-10 -20 -10 -41t10 -41q-4 -4 -12 -10zM852 123q-236 0 -412 158l2.5 2.5l5 5l5.5 5.5t2 1q171 -152 397 -152q227 0 395 152q2 -3 7.5 -8t7.5 -8q-177 -156 -410 -156zM852 664q-31 0 -55 18l12 12q21 -14 43 -14q26 0 43 14q4 -4 10 -12
q-21 -18 -53 -18zM987 653q-7 10 -14 15q28 42 28 92q0 51 -28 90l2.5 2.5t5 4.5t5.5 5t1 2q35 -44 35 -104t-35 -107zM598 551q-72 91 -72 209q0 119 74 209l14 -15q-67 -87 -67 -194q0 -108 67 -195q-10 -10 -16 -14zM852 -35q-145 0 -278 52.5t-238 146.5l14 16
q102 -92 231 -143t271 -51q285 0 500 192q0 1 3.5 -2.5t6.5 -7.5l4 -4q-104 -95 -236 -147t-278 -52zM852 248q-189 0 -330 125l15 16q134 -121 315 -121q182 0 313 121q2 -3 7.5 -8t7.5 -8q-138 -125 -328 -125zM852 348q-145 0 -264 101l14 14q108 -94 250 -94
q143 0 248 94q2 -3 7 -8.5t7 -8.5q-112 -98 -262 -98zM852 428q-116 0 -211 78l14 16q86 -73 197 -73t197 73q4 -4 12 -16q-91 -78 -209 -78zM852 543q-77 0 -135 49l14 16q51 -45 121 -45q68 0 119 45q2 -3 7 -8t7 -8q-58 -49 -133 -49zM733 911q-4 3 -7 6.5t-6 6.5l-3 4
q58 49 135 49t135 -49l-16 -17q-51 45 -119 45t-119 -45zM1167 1130q-134 121 -315 121q-179 0 -313 -118l-15 14q141 125 328 125q189 0 330 -125q-4 -6 -15 -17zM930 709l-12 10q10 20 10 41t-10 41l12 10q14 -25 14 -51t-14 -51zM958 682q-10 10 -16 14q21 32 21 64
t-21 63l16 15q25 -36 25 -78t-25 -78zM1020 627q-6 4 -16 14q38 50 38 119t-38 119l14 14q45 -57 45 -133q0 -71 -43 -133zM1106 551q-3 2 -8 7t-8 7q67 87 67 195t-70 194l17 15q74 -90 74 -209q0 -118 -72 -209zM1163 498q-10 10 -16 14q88 109 88 248t-88 248l16 14
q92 -116 92 -262t-92 -262zM1237 432q-6 4 -16 14q112 134 112 314q0 182 -112 313l16 14q117 -139 117 -327q0 -189 -117 -328zM1329 350q-2 2 -7 6t-7 6q141 175 141 398q0 227 -143 395l16 14q148 -179 148 -409q0 -231 -148 -410zM1446 246q-6 6 -16 14q180 215 180 500
t-180 500l16 14q88 -105 136 -237t48 -277q0 -144 -48 -276t-136 -238zM375 348q-148 182 -148 412q0 229 146 409q2 -2 7.5 -6.5t8.5 -7.5q-141 -170 -141 -395q0 -228 141 -398zM684 627q-43 59 -43 133t43 133q6 -4 16 -14q-38 -50 -38 -119q0 -67 38 -117zM745 682
q-24 34 -24 78t24 78q2 -3 4.5 -5.5t6 -5.5t4.5 -4q-19 -34 -19 -63q0 -30 19 -64zM809 825l-10 13q21 18 53 18t53 -18l-10 -13q-23 15 -43 15q-25 0 -43 -15zM786 852l-14 14q37 29 80 29q41 0 78 -29q-8 -8 -12 -14q-28 25 -66 25q-34 0 -66 -25zM760 881l-15 16
q45 39 107 39q61 0 106 -39l-14 -16q-37 34 -92 34t-92 -34zM604 1057l-14 16q112 98 262 98q151 0 262 -100q1 0 -2 -3.5t-6 -7.5l-4 -3q-108 94 -250 94q-143 0 -248 -94zM852 492q-100 0 -170 61l14 16q70 -57 156 -57q87 0 154 57l14 -14q-73 -63 -168 -63zM852 584
q-61 0 -109 39l15 16q47 -35 94 -35q51 0 92 35l14 -16q-45 -39 -106 -39zM852 625q-43 0 -82 28l14 15q36 -25 68 -25q34 0 66 25l14 -15q-36 -28 -80 -28zM698 950l-14 15q73 63 168 63q98 0 168 -61l-14 -17q-68 58 -154 58q-87 0 -154 -58zM655 997l-14 17q91 78 211 78
q119 0 209 -80l-12 -15q-83 74 -197 74q-110 0 -197 -74zM1249 1223q-166 153 -397 153q-227 0 -397 -151l-15 14q179 158 412 158t412 -158zM352 1339l-14 17q104 95 236 146.5t278 51.5q145 0 278 -52t238 -146l-14 -17q-102 93 -231 144t-271 51t-270 -51t-230 -144z
M1057 594l-15 14q52 69 52 152t-54 153l17 15q57 -72 57 -168q0 -97 -57 -166z" />
    <glyph glyph-name="product" unicode="&#x220f;" horiz-adv-x="1703" 
d="M258 246q-88 105 -136 237t-48 277q0 144 48 276t136 236q6 -4 14 -12q-85 -103 -131.5 -231.5t-46.5 -268.5q0 -285 180 -500zM467 432q-117 143 -117 328q0 183 115 327q3 -2 8 -7t8 -7q-110 -136 -110 -313q0 -182 110 -314zM541 498q-92 116 -92 262t92 262
q3 -2 8 -7t8 -7q-88 -109 -88 -248t88 -248q-3 -2 -8 -7t-8 -7zM647 592q-57 72 -57 168q0 97 57 166l15 -15q-52 -69 -52 -151q0 -84 54 -154q-3 -2 -8.5 -7t-8.5 -7zM715 655q-33 48 -33 105q0 56 33 104q3 -2 8 -7t8 -7q-29 -44 -29 -90t29 -90q-3 -2 -16 -15zM774 709
q-14 25 -14 51t14 51l12 -10q-10 -20 -10 -41t10 -41q-4 -4 -12 -10zM852 123q-236 0 -412 158l2.5 2.5l5 5l5.5 5.5t2 1q171 -152 397 -152q227 0 395 152q2 -3 7.5 -8t7.5 -8q-177 -156 -410 -156zM852 664q-31 0 -55 18l12 12q21 -14 43 -14q26 0 43 14q4 -4 10 -12
q-21 -18 -53 -18zM987 653q-7 10 -14 15q28 42 28 92q0 51 -28 90l2.5 2.5t5 4.5t5.5 5t1 2q35 -44 35 -104t-35 -107zM598 551q-72 91 -72 209q0 119 74 209l14 -15q-67 -87 -67 -194q0 -108 67 -195q-10 -10 -16 -14zM852 -35q-145 0 -278 52.5t-238 146.5l14 16
q102 -92 231 -143t271 -51q285 0 500 192q0 1 3.5 -2.5t6.5 -7.5l4 -4q-104 -95 -236 -147t-278 -52zM852 248q-189 0 -330 125l15 16q134 -121 315 -121q182 0 313 121q2 -3 7.5 -8t7.5 -8q-138 -125 -328 -125zM852 348q-145 0 -264 101l14 14q108 -94 250 -94
q143 0 248 94q2 -3 7 -8.5t7 -8.5q-112 -98 -262 -98zM852 428q-116 0 -211 78l14 16q86 -73 197 -73t197 73q4 -4 12 -16q-91 -78 -209 -78zM852 543q-77 0 -135 49l14 16q51 -45 121 -45q68 0 119 45q2 -3 7 -8t7 -8q-58 -49 -133 -49zM733 911q-4 3 -7 6.5t-6 6.5l-3 4
q58 49 135 49t135 -49l-16 -17q-51 45 -119 45t-119 -45zM1167 1130q-134 121 -315 121q-179 0 -313 -118l-15 14q141 125 328 125q189 0 330 -125q-4 -6 -15 -17zM930 709l-12 10q10 20 10 41t-10 41l12 10q14 -25 14 -51t-14 -51zM958 682q-10 10 -16 14q21 32 21 64
t-21 63l16 15q25 -36 25 -78t-25 -78zM1020 627q-6 4 -16 14q38 50 38 119t-38 119l14 14q45 -57 45 -133q0 -71 -43 -133zM1106 551q-3 2 -8 7t-8 7q67 87 67 195t-70 194l17 15q74 -90 74 -209q0 -118 -72 -209zM1163 498q-10 10 -16 14q88 109 88 248t-88 248l16 14
q92 -116 92 -262t-92 -262zM1237 432q-6 4 -16 14q112 134 112 314q0 182 -112 313l16 14q117 -139 117 -327q0 -189 -117 -328zM1329 350q-2 2 -7 6t-7 6q141 175 141 398q0 227 -143 395l16 14q148 -179 148 -409q0 -231 -148 -410zM1446 246q-6 6 -16 14q180 215 180 500
t-180 500l16 14q88 -105 136 -237t48 -277q0 -144 -48 -276t-136 -238zM375 348q-148 182 -148 412q0 229 146 409q2 -2 7.5 -6.5t8.5 -7.5q-141 -170 -141 -395q0 -228 141 -398zM684 627q-43 59 -43 133t43 133q6 -4 16 -14q-38 -50 -38 -119q0 -67 38 -117zM745 682
q-24 34 -24 78t24 78q2 -3 4.5 -5.5t6 -5.5t4.5 -4q-19 -34 -19 -63q0 -30 19 -64zM809 825l-10 13q21 18 53 18t53 -18l-10 -13q-23 15 -43 15q-25 0 -43 -15zM786 852l-14 14q37 29 80 29q41 0 78 -29q-8 -8 -12 -14q-28 25 -66 25q-34 0 -66 -25zM760 881l-15 16
q45 39 107 39q61 0 106 -39l-14 -16q-37 34 -92 34t-92 -34zM604 1057l-14 16q112 98 262 98q151 0 262 -100q1 0 -2 -3.5t-6 -7.5l-4 -3q-108 94 -250 94q-143 0 -248 -94zM852 492q-100 0 -170 61l14 16q70 -57 156 -57q87 0 154 57l14 -14q-73 -63 -168 -63zM852 584
q-61 0 -109 39l15 16q47 -35 94 -35q51 0 92 35l14 -16q-45 -39 -106 -39zM852 625q-43 0 -82 28l14 15q36 -25 68 -25q34 0 66 25l14 -15q-36 -28 -80 -28zM698 950l-14 15q73 63 168 63q98 0 168 -61l-14 -17q-68 58 -154 58q-87 0 -154 -58zM655 997l-14 17q91 78 211 78
q119 0 209 -80l-12 -15q-83 74 -197 74q-110 0 -197 -74zM1249 1223q-166 153 -397 153q-227 0 -397 -151l-15 14q179 158 412 158t412 -158zM352 1339l-14 17q104 95 236 146.5t278 51.5q145 0 278 -52t238 -146l-14 -17q-102 93 -231 144t-271 51t-270 -51t-230 -144z
M1057 594l-15 14q52 69 52 152t-54 153l17 15q57 -72 57 -168q0 -97 -57 -166z" />
    <glyph glyph-name="summation" unicode="&#x2211;" horiz-adv-x="1703" 
d="M258 246q-88 105 -136 237t-48 277q0 144 48 276t136 236q6 -4 14 -12q-85 -103 -131.5 -231.5t-46.5 -268.5q0 -285 180 -500zM467 432q-117 143 -117 328q0 183 115 327q3 -2 8 -7t8 -7q-110 -136 -110 -313q0 -182 110 -314zM541 498q-92 116 -92 262t92 262
q3 -2 8 -7t8 -7q-88 -109 -88 -248t88 -248q-3 -2 -8 -7t-8 -7zM647 592q-57 72 -57 168q0 97 57 166l15 -15q-52 -69 -52 -151q0 -84 54 -154q-3 -2 -8.5 -7t-8.5 -7zM715 655q-33 48 -33 105q0 56 33 104q3 -2 8 -7t8 -7q-29 -44 -29 -90t29 -90q-3 -2 -16 -15zM774 709
q-14 25 -14 51t14 51l12 -10q-10 -20 -10 -41t10 -41q-4 -4 -12 -10zM852 123q-236 0 -412 158l2.5 2.5l5 5l5.5 5.5t2 1q171 -152 397 -152q227 0 395 152q2 -3 7.5 -8t7.5 -8q-177 -156 -410 -156zM852 664q-31 0 -55 18l12 12q21 -14 43 -14q26 0 43 14q4 -4 10 -12
q-21 -18 -53 -18zM987 653q-7 10 -14 15q28 42 28 92q0 51 -28 90l2.5 2.5t5 4.5t5.5 5t1 2q35 -44 35 -104t-35 -107zM598 551q-72 91 -72 209q0 119 74 209l14 -15q-67 -87 -67 -194q0 -108 67 -195q-10 -10 -16 -14zM852 -35q-145 0 -278 52.5t-238 146.5l14 16
q102 -92 231 -143t271 -51q285 0 500 192q0 1 3.5 -2.5t6.5 -7.5l4 -4q-104 -95 -236 -147t-278 -52zM852 248q-189 0 -330 125l15 16q134 -121 315 -121q182 0 313 121q2 -3 7.5 -8t7.5 -8q-138 -125 -328 -125zM852 348q-145 0 -264 101l14 14q108 -94 250 -94
q143 0 248 94q2 -3 7 -8.5t7 -8.5q-112 -98 -262 -98zM852 428q-116 0 -211 78l14 16q86 -73 197 -73t197 73q4 -4 12 -16q-91 -78 -209 -78zM852 543q-77 0 -135 49l14 16q51 -45 121 -45q68 0 119 45q2 -3 7 -8t7 -8q-58 -49 -133 -49zM733 911q-4 3 -7 6.5t-6 6.5l-3 4
q58 49 135 49t135 -49l-16 -17q-51 45 -119 45t-119 -45zM1167 1130q-134 121 -315 121q-179 0 -313 -118l-15 14q141 125 328 125q189 0 330 -125q-4 -6 -15 -17zM930 709l-12 10q10 20 10 41t-10 41l12 10q14 -25 14 -51t-14 -51zM958 682q-10 10 -16 14q21 32 21 64
t-21 63l16 15q25 -36 25 -78t-25 -78zM1020 627q-6 4 -16 14q38 50 38 119t-38 119l14 14q45 -57 45 -133q0 -71 -43 -133zM1106 551q-3 2 -8 7t-8 7q67 87 67 195t-70 194l17 15q74 -90 74 -209q0 -118 -72 -209zM1163 498q-10 10 -16 14q88 109 88 248t-88 248l16 14
q92 -116 92 -262t-92 -262zM1237 432q-6 4 -16 14q112 134 112 314q0 182 -112 313l16 14q117 -139 117 -327q0 -189 -117 -328zM1329 350q-2 2 -7 6t-7 6q141 175 141 398q0 227 -143 395l16 14q148 -179 148 -409q0 -231 -148 -410zM1446 246q-6 6 -16 14q180 215 180 500
t-180 500l16 14q88 -105 136 -237t48 -277q0 -144 -48 -276t-136 -238zM375 348q-148 182 -148 412q0 229 146 409q2 -2 7.5 -6.5t8.5 -7.5q-141 -170 -141 -395q0 -228 141 -398zM684 627q-43 59 -43 133t43 133q6 -4 16 -14q-38 -50 -38 -119q0 -67 38 -117zM745 682
q-24 34 -24 78t24 78q2 -3 4.5 -5.5t6 -5.5t4.5 -4q-19 -34 -19 -63q0 -30 19 -64zM809 825l-10 13q21 18 53 18t53 -18l-10 -13q-23 15 -43 15q-25 0 -43 -15zM786 852l-14 14q37 29 80 29q41 0 78 -29q-8 -8 -12 -14q-28 25 -66 25q-34 0 -66 -25zM760 881l-15 16
q45 39 107 39q61 0 106 -39l-14 -16q-37 34 -92 34t-92 -34zM604 1057l-14 16q112 98 262 98q151 0 262 -100q1 0 -2 -3.5t-6 -7.5l-4 -3q-108 94 -250 94q-143 0 -248 -94zM852 492q-100 0 -170 61l14 16q70 -57 156 -57q87 0 154 57l14 -14q-73 -63 -168 -63zM852 584
q-61 0 -109 39l15 16q47 -35 94 -35q51 0 92 35l14 -16q-45 -39 -106 -39zM852 625q-43 0 -82 28l14 15q36 -25 68 -25q34 0 66 25l14 -15q-36 -28 -80 -28zM698 950l-14 15q73 63 168 63q98 0 168 -61l-14 -17q-68 58 -154 58q-87 0 -154 -58zM655 997l-14 17q91 78 211 78
q119 0 209 -80l-12 -15q-83 74 -197 74q-110 0 -197 -74zM1249 1223q-166 153 -397 153q-227 0 -397 -151l-15 14q179 158 412 158t412 -158zM352 1339l-14 17q104 95 236 146.5t278 51.5q145 0 278 -52t238 -146l-14 -17q-102 93 -231 144t-271 51t-270 -51t-230 -144z
M1057 594l-15 14q52 69 52 152t-54 153l17 15q57 -72 57 -168q0 -97 -57 -166z" />
    <glyph glyph-name="minus" unicode="&#x2212;" horiz-adv-x="409" 
d="M74 733l4 43h258l-4 -43h-258z" />
    <glyph glyph-name="radical" unicode="&#x221a;" horiz-adv-x="358" 
d="M53 -2l-2 801h43l-2 -654l289 1373h41l-320 -1520h-49z" />
    <glyph glyph-name="infinity" unicode="&#x221e;" horiz-adv-x="641" 
d="M201 -297l143 1362h-170l-143 -1362h-47l143 1362h-72l4 45h72l29 264q9 96 39.5 135t107.5 39h10l-4 -47h-4q-58 0 -76 -26t-26 -101l-29 -264h170l29 264q9 96 39.5 135t107.5 39h11l-5 -47h-4q-58 0 -76 -26t-26 -101l-29 -264h94l-4 -45h-94l-143 -1362h-47zM451 0
l116 1110h47l-116 -1110h-47zM586 1288l18 164h47l-18 -164h-47z" />
    <glyph glyph-name="integral" unicode="&#x222b;" horiz-adv-x="1703" 
d="M258 246q-88 105 -136 237t-48 277q0 144 48 276t136 236q6 -4 14 -12q-85 -103 -131.5 -231.5t-46.5 -268.5q0 -285 180 -500zM467 432q-117 143 -117 328q0 183 115 327q3 -2 8 -7t8 -7q-110 -136 -110 -313q0 -182 110 -314zM541 498q-92 116 -92 262t92 262
q3 -2 8 -7t8 -7q-88 -109 -88 -248t88 -248q-3 -2 -8 -7t-8 -7zM647 592q-57 72 -57 168q0 97 57 166l15 -15q-52 -69 -52 -151q0 -84 54 -154q-3 -2 -8.5 -7t-8.5 -7zM715 655q-33 48 -33 105q0 56 33 104q3 -2 8 -7t8 -7q-29 -44 -29 -90t29 -90q-3 -2 -16 -15zM774 709
q-14 25 -14 51t14 51l12 -10q-10 -20 -10 -41t10 -41q-4 -4 -12 -10zM852 123q-236 0 -412 158l2.5 2.5l5 5l5.5 5.5t2 1q171 -152 397 -152q227 0 395 152q2 -3 7.5 -8t7.5 -8q-177 -156 -410 -156zM852 664q-31 0 -55 18l12 12q21 -14 43 -14q26 0 43 14q4 -4 10 -12
q-21 -18 -53 -18zM987 653q-7 10 -14 15q28 42 28 92q0 51 -28 90l2.5 2.5t5 4.5t5.5 5t1 2q35 -44 35 -104t-35 -107zM598 551q-72 91 -72 209q0 119 74 209l14 -15q-67 -87 -67 -194q0 -108 67 -195q-10 -10 -16 -14zM852 -35q-145 0 -278 52.5t-238 146.5l14 16
q102 -92 231 -143t271 -51q285 0 500 192q0 1 3.5 -2.5t6.5 -7.5l4 -4q-104 -95 -236 -147t-278 -52zM852 248q-189 0 -330 125l15 16q134 -121 315 -121q182 0 313 121q2 -3 7.5 -8t7.5 -8q-138 -125 -328 -125zM852 348q-145 0 -264 101l14 14q108 -94 250 -94
q143 0 248 94q2 -3 7 -8.5t7 -8.5q-112 -98 -262 -98zM852 428q-116 0 -211 78l14 16q86 -73 197 -73t197 73q4 -4 12 -16q-91 -78 -209 -78zM852 543q-77 0 -135 49l14 16q51 -45 121 -45q68 0 119 45q2 -3 7 -8t7 -8q-58 -49 -133 -49zM733 911q-4 3 -7 6.5t-6 6.5l-3 4
q58 49 135 49t135 -49l-16 -17q-51 45 -119 45t-119 -45zM1167 1130q-134 121 -315 121q-179 0 -313 -118l-15 14q141 125 328 125q189 0 330 -125q-4 -6 -15 -17zM930 709l-12 10q10 20 10 41t-10 41l12 10q14 -25 14 -51t-14 -51zM958 682q-10 10 -16 14q21 32 21 64
t-21 63l16 15q25 -36 25 -78t-25 -78zM1020 627q-6 4 -16 14q38 50 38 119t-38 119l14 14q45 -57 45 -133q0 -71 -43 -133zM1106 551q-3 2 -8 7t-8 7q67 87 67 195t-70 194l17 15q74 -90 74 -209q0 -118 -72 -209zM1163 498q-10 10 -16 14q88 109 88 248t-88 248l16 14
q92 -116 92 -262t-92 -262zM1237 432q-6 4 -16 14q112 134 112 314q0 182 -112 313l16 14q117 -139 117 -327q0 -189 -117 -328zM1329 350q-2 2 -7 6t-7 6q141 175 141 398q0 227 -143 395l16 14q148 -179 148 -409q0 -231 -148 -410zM1446 246q-6 6 -16 14q180 215 180 500
t-180 500l16 14q88 -105 136 -237t48 -277q0 -144 -48 -276t-136 -238zM375 348q-148 182 -148 412q0 229 146 409q2 -2 7.5 -6.5t8.5 -7.5q-141 -170 -141 -395q0 -228 141 -398zM684 627q-43 59 -43 133t43 133q6 -4 16 -14q-38 -50 -38 -119q0 -67 38 -117zM745 682
q-24 34 -24 78t24 78q2 -3 4.5 -5.5t6 -5.5t4.5 -4q-19 -34 -19 -63q0 -30 19 -64zM809 825l-10 13q21 18 53 18t53 -18l-10 -13q-23 15 -43 15q-25 0 -43 -15zM786 852l-14 14q37 29 80 29q41 0 78 -29q-8 -8 -12 -14q-28 25 -66 25q-34 0 -66 -25zM760 881l-15 16
q45 39 107 39q61 0 106 -39l-14 -16q-37 34 -92 34t-92 -34zM604 1057l-14 16q112 98 262 98q151 0 262 -100q1 0 -2 -3.5t-6 -7.5l-4 -3q-108 94 -250 94q-143 0 -248 -94zM852 492q-100 0 -170 61l14 16q70 -57 156 -57q87 0 154 57l14 -14q-73 -63 -168 -63zM852 584
q-61 0 -109 39l15 16q47 -35 94 -35q51 0 92 35l14 -16q-45 -39 -106 -39zM852 625q-43 0 -82 28l14 15q36 -25 68 -25q34 0 66 25l14 -15q-36 -28 -80 -28zM698 950l-14 15q73 63 168 63q98 0 168 -61l-14 -17q-68 58 -154 58q-87 0 -154 -58zM655 997l-14 17q91 78 211 78
q119 0 209 -80l-12 -15q-83 74 -197 74q-110 0 -197 -74zM1249 1223q-166 153 -397 153q-227 0 -397 -151l-15 14q179 158 412 158t412 -158zM352 1339l-14 17q104 95 236 146.5t278 51.5q145 0 278 -52t238 -146l-14 -17q-102 93 -231 144t-271 51t-270 -51t-230 -144z
M1057 594l-15 14q52 69 52 152t-54 153l17 15q57 -72 57 -168q0 -97 -57 -166z" />
    <glyph glyph-name="approxequal" unicode="&#x2248;" horiz-adv-x="409" 
d="M74 768q12 98 69 98q26 0 75.5 -26.5t60.5 -26.5q12 0 15.5 9t6.5 44h45q-6 -57 -22 -76.5t-45 -19.5q-26 0 -75.5 26.5t-60.5 26.5q-9 0 -14.5 -11t-9.5 -44h-45zM55 578q12 98 70 98q26 0 75 -26.5t60 -26.5q12 0 16 9.5t7 43.5h45q-6 -57 -22 -76.5t-46 -19.5
q-26 0 -75 26.5t-60 26.5q-18 0 -25 -55h-45z" />
    <glyph glyph-name="notequal" unicode="&#x2260;" horiz-adv-x="466" 
d="M201 -297l143 1362h-170l-143 -1362h-47l143 1362h-72l4 45h72l29 264q9 96 39.5 135t107.5 39h10l-4 -47h-4q-58 0 -76 -26t-26 -101l-29 -264h170l29 264q9 96 39.5 135t107.5 39h11l-5 -47h-4q-58 0 -76 -26t-26 -101l-29 -264h94l-4 -45h-94l-143 -1362h-47z" />
    <glyph glyph-name="lessequal" unicode="&#x2264;" horiz-adv-x="409" 
d="M274 465l-208 266l4 49l266 267l-8 -66l-224 -225l177 -226zM18 301l7 45h237l-6 -45h-238z" />
    <glyph glyph-name="greaterequal" unicode="&#x2265;" horiz-adv-x="409" 
d="M74 465l6 65l225 226l-178 225l8 66l209 -267l-4 -49zM55 301l6 45h238l-6 -45h-238z" />
    <glyph glyph-name="lozenge" unicode="&#x25ca;" horiz-adv-x="475" 
d="M-16 -297l143 1362h-72l4 45h72l29 264q9 96 39.5 135t107.5 39h10l-4 -47h-4q-58 0 -76 -26t-26 -101l-29 -264h166l37 311l45 21l-35 -332h94l-4 -45h-94l-96 -911q-6 -64 7 -85.5t67 -21.5h8l-4 -47h-4q-78 0 -104 35t-17 119l96 911h-166l-143 -1362h-47z" />
    <glyph glyph-name="apple" unicode="&#xf8ff;" horiz-adv-x="1703" 
d="M258 246q-88 105 -136 237t-48 277q0 144 48 276t136 236q6 -4 14 -12q-85 -103 -131.5 -231.5t-46.5 -268.5q0 -285 180 -500zM467 432q-117 143 -117 328q0 183 115 327q3 -2 8 -7t8 -7q-110 -136 -110 -313q0 -182 110 -314zM541 498q-92 116 -92 262t92 262
q3 -2 8 -7t8 -7q-88 -109 -88 -248t88 -248q-3 -2 -8 -7t-8 -7zM647 592q-57 72 -57 168q0 97 57 166l15 -15q-52 -69 -52 -151q0 -84 54 -154q-3 -2 -8.5 -7t-8.5 -7zM715 655q-33 48 -33 105q0 56 33 104q3 -2 8 -7t8 -7q-29 -44 -29 -90t29 -90q-3 -2 -16 -15zM774 709
q-14 25 -14 51t14 51l12 -10q-10 -20 -10 -41t10 -41q-4 -4 -12 -10zM852 123q-236 0 -412 158l2.5 2.5l5 5l5.5 5.5t2 1q171 -152 397 -152q227 0 395 152q2 -3 7.5 -8t7.5 -8q-177 -156 -410 -156zM852 664q-31 0 -55 18l12 12q21 -14 43 -14q26 0 43 14q4 -4 10 -12
q-21 -18 -53 -18zM987 653q-7 10 -14 15q28 42 28 92q0 51 -28 90l2.5 2.5t5 4.5t5.5 5t1 2q35 -44 35 -104t-35 -107zM598 551q-72 91 -72 209q0 119 74 209l14 -15q-67 -87 -67 -194q0 -108 67 -195q-10 -10 -16 -14zM852 -35q-145 0 -278 52.5t-238 146.5l14 16
q102 -92 231 -143t271 -51q285 0 500 192q0 1 3.5 -2.5t6.5 -7.5l4 -4q-104 -95 -236 -147t-278 -52zM852 248q-189 0 -330 125l15 16q134 -121 315 -121q182 0 313 121q2 -3 7.5 -8t7.5 -8q-138 -125 -328 -125zM852 348q-145 0 -264 101l14 14q108 -94 250 -94
q143 0 248 94q2 -3 7 -8.5t7 -8.5q-112 -98 -262 -98zM852 428q-116 0 -211 78l14 16q86 -73 197 -73t197 73q4 -4 12 -16q-91 -78 -209 -78zM852 543q-77 0 -135 49l14 16q51 -45 121 -45q68 0 119 45q2 -3 7 -8t7 -8q-58 -49 -133 -49zM733 911q-4 3 -7 6.5t-6 6.5l-3 4
q58 49 135 49t135 -49l-16 -17q-51 45 -119 45t-119 -45zM1167 1130q-134 121 -315 121q-179 0 -313 -118l-15 14q141 125 328 125q189 0 330 -125q-4 -6 -15 -17zM930 709l-12 10q10 20 10 41t-10 41l12 10q14 -25 14 -51t-14 -51zM958 682q-10 10 -16 14q21 32 21 64
t-21 63l16 15q25 -36 25 -78t-25 -78zM1020 627q-6 4 -16 14q38 50 38 119t-38 119l14 14q45 -57 45 -133q0 -71 -43 -133zM1106 551q-3 2 -8 7t-8 7q67 87 67 195t-70 194l17 15q74 -90 74 -209q0 -118 -72 -209zM1163 498q-10 10 -16 14q88 109 88 248t-88 248l16 14
q92 -116 92 -262t-92 -262zM1237 432q-6 4 -16 14q112 134 112 314q0 182 -112 313l16 14q117 -139 117 -327q0 -189 -117 -328zM1329 350q-2 2 -7 6t-7 6q141 175 141 398q0 227 -143 395l16 14q148 -179 148 -409q0 -231 -148 -410zM1446 246q-6 6 -16 14q180 215 180 500
t-180 500l16 14q88 -105 136 -237t48 -277q0 -144 -48 -276t-136 -238zM375 348q-148 182 -148 412q0 229 146 409q2 -2 7.5 -6.5t8.5 -7.5q-141 -170 -141 -395q0 -228 141 -398zM684 627q-43 59 -43 133t43 133q6 -4 16 -14q-38 -50 -38 -119q0 -67 38 -117zM745 682
q-24 34 -24 78t24 78q2 -3 4.5 -5.5t6 -5.5t4.5 -4q-19 -34 -19 -63q0 -30 19 -64zM809 825l-10 13q21 18 53 18t53 -18l-10 -13q-23 15 -43 15q-25 0 -43 -15zM786 852l-14 14q37 29 80 29q41 0 78 -29q-8 -8 -12 -14q-28 25 -66 25q-34 0 -66 -25zM760 881l-15 16
q45 39 107 39q61 0 106 -39l-14 -16q-37 34 -92 34t-92 -34zM604 1057l-14 16q112 98 262 98q151 0 262 -100q1 0 -2 -3.5t-6 -7.5l-4 -3q-108 94 -250 94q-143 0 -248 -94zM852 492q-100 0 -170 61l14 16q70 -57 156 -57q87 0 154 57l14 -14q-73 -63 -168 -63zM852 584
q-61 0 -109 39l15 16q47 -35 94 -35q51 0 92 35l14 -16q-45 -39 -106 -39zM852 625q-43 0 -82 28l14 15q36 -25 68 -25q34 0 66 25l14 -15q-36 -28 -80 -28zM698 950l-14 15q73 63 168 63q98 0 168 -61l-14 -17q-68 58 -154 58q-87 0 -154 -58zM655 997l-14 17q91 78 211 78
q119 0 209 -80l-12 -15q-83 74 -197 74q-110 0 -197 -74zM1249 1223q-166 153 -397 153q-227 0 -397 -151l-15 14q179 158 412 158t412 -158zM352 1339l-14 17q104 95 236 146.5t278 51.5q145 0 278 -52t238 -146l-14 -17q-102 93 -231 144t-271 51t-270 -51t-230 -144z
M1057 594l-15 14q52 69 52 152t-54 153l17 15q57 -72 57 -168q0 -97 -57 -166z" />
    </font>
</defs>
</svg>
