<?xml version="1.0" standalone="no"?>
<!DOCTYPE svg PUBLIC "-//W3C//DTD SVG 1.1//EN" "http://www.w3.org/Graphics/SVG/1.1/DTD/svg11.dtd" >
<svg xmlns="http://www.w3.org/2000/svg" xmlns:xlink="http://www.w3.org/1999/xlink" version="1.1">
<metadata>
Created by FontForge 20201107 at Wed Dec 24 15:02:17 2025
 By 
Copyright (c) The Font Bureau, Inc., 2003. All rights reserved.
</metadata>
<defs>
<font id="Antenna-BlackItalic" horiz-adv-x="1208" >
  <font-face 
    font-family="Antenna BlackItalic"
    font-weight="900"
    font-style="italic"
    font-stretch="normal"
    units-per-em="2048"
    panose-1="2 0 5 3 0 0 0 2 0 4"
    ascent="1638"
    descent="-410"
    x-height="1174"
    cap-height="1518"
    bbox="-313 -537 3631 2019"
    underline-thickness="102"
    underline-position="-204"
    slope="-12"
    unicode-range="U+0020-FB02"
  />
<missing-glyph horiz-adv-x="419" 
 />
    <glyph glyph-name="fi" unicode="fi" horiz-adv-x="1542" 
d="M59 829l74 345h219l15 63q32 151 93.5 236.5t170.5 125t289 39.5q94 0 149 -6l-70 -329h-71q-85 0 -118.5 -23t-45.5 -82l-6 -24h215l-74 -345h-213l-248 -1167h-405l248 1167h-222zM848 0l250 1174h405l-250 -1174h-405zM1114 1260l70 329h409l-69 -329h-410z" />
    <glyph glyph-name="fl" unicode="fl" horiz-adv-x="1634" 
d="M59 829l74 345h219l15 63q32 151 93.5 236.5t170.5 125t289 39.5q78 0 149 -6l-70 -329h-71q-85 0 -118.5 -23t-45.5 -82l-6 -24h215l-74 -345h-213l-248 -1167h-405l248 1167h-222zM1208 -4q-187 0 -252.5 103t-15.5 337l246 1153h405l-243 -1147q-14 -63 2 -83.5
t80 -20.5h34l-71 -334q-62 -8 -185 -8z" />
    <glyph glyph-name="f_f_l" unicode="ffl" horiz-adv-x="2375" 
d="M774 -338l248 1167h-336l-248 -1167h-405l248 1167h-222l74 345h219l15 63q32 151 93.5 236.5t170.5 125t289 39.5q78 0 149 -6l-70 -329h-71q-85 0 -118.5 -23t-45.5 -82l-6 -24h336l14 63q32 151 93.5 236.5t170.5 125t289 39.5q79 0 149 -6l-69 -329h-72
q-85 0 -118.5 -23t-45.5 -82l-6 -24h215l-74 -345h-213l-247 -1167h-406zM1950 -4q-188 0 -253.5 103t-15.5 337l246 1153h406l-244 -1147q-14 -63 2 -83.5t80 -20.5h35l-72 -334q-62 -8 -184 -8z" />
    <glyph glyph-name="f_f_i" unicode="ffi" horiz-adv-x="2283" 
d="M774 -338l248 1167h-336l-248 -1167h-405l248 1167h-222l74 345h219l15 63q32 151 93.5 236.5t170.5 125t289 39.5q78 0 149 -6l-70 -329h-71q-85 0 -118.5 -23t-45.5 -82l-6 -24h336l14 63q32 151 93.5 236.5t170.5 125t289 39.5q79 0 149 -6l-69 -329h-72
q-85 0 -118.5 -23t-45.5 -82l-6 -24h215l-74 -345h-213l-247 -1167h-406zM1589 0l250 1174h406l-250 -1174h-406zM1855 1260l70 329h410l-70 -329h-410z" />
    <glyph glyph-name="f_j" unicode="fj" horiz-adv-x="1542" 
d="M59 829l74 345h219l15 63q32 151 93.5 236.5t170.5 125t289 39.5q78 0 149 -6l-70 -329h-71q-85 0 -118.5 -23t-45.5 -82l-6 -24h215l-74 -345h-213l-248 -1167h-405l248 1167h-222zM657 -348l66 305h31q59 0 76.5 23t37.5 112l230 1082h405l-237 -1123
q-19 -90 -40.5 -153.5t-51 -108t-61 -71.5t-79.5 -41.5t-97 -19.5t-122 -5h-158zM1114 1260l70 329h409l-69 -329h-410z" />
    <glyph glyph-name="f_f" unicode="ff" horiz-adv-x="1712" 
d="M774 -338l248 1167h-336l-248 -1167h-405l248 1167h-222l74 345h219l15 63q32 151 93.5 236.5t170.5 125t289 39.5q78 0 149 -6l-70 -329h-71q-85 0 -118.5 -23t-45.5 -82l-6 -24h336l14 63q32 151 93.5 236.5t170.5 125t289 39.5q120 0 190 -6l-69 -329h-113
q-85 0 -118.5 -23t-45.5 -82l-6 -24h256l-74 -345h-254l-247 -1167h-406z" />
    <glyph glyph-name=".notdef" horiz-adv-x="419" 
 />
    <glyph glyph-name=".null" horiz-adv-x="0" 
 />
    <glyph glyph-name="nonmarkingreturn" horiz-adv-x="682" 
 />
    <glyph glyph-name="space" unicode=" " horiz-adv-x="419" 
 />
    <glyph glyph-name="space" unicode="&#xa0;" horiz-adv-x="419" 
 />
    <glyph glyph-name="exclam" unicode="!" horiz-adv-x="868" 
d="M41 0l92 432h459l-92 -432h-459zM197 510l176 1008h444l-256 -1008h-364z" />
    <glyph glyph-name="quotedbl" unicode="&#x22;" horiz-adv-x="1288" 
d="M182 752l142 766h421l-186 -766h-377zM725 752l139 766h424l-188 -766h-375z" />
    <glyph glyph-name="numbersign" unicode="#" horiz-adv-x="1630" 
d="M203 0l67 315h-252l76 353h250l21 106h-250l75 352h248l82 392h387l-82 -392h138l79 392h388l-80 -392h262l-76 -352h-260l-21 -106h261l-76 -353h-258l-68 -315h-387l68 315h-138l-65 -315h-389zM694 645h201l31 152h-201z" />
    <glyph glyph-name="dollar" unicode="$" horiz-adv-x="1388" 
d="M307 -193l45 211q-275 43 -444 179l229 280q117 -80 227.5 -119t276.5 -39q129 0 175 32.5t46 107.5q0 60 -51 87t-201 58q-78 16 -136 33t-121.5 49t-103.5 73t-66.5 105.5t-26.5 145.5q0 124 39.5 218.5t111.5 153t161.5 91t201.5 43.5l32 153h373l-37 -168
q231 -38 338 -127l-235 -299q-68 46 -172.5 78.5t-231.5 32.5q-57 0 -94 -9t-55 -27.5t-24.5 -39t-6.5 -51.5q0 -33 14 -55.5t49.5 -39t77 -28.5t116.5 -30q14 -3 22 -5q58 -14 92.5 -23.5t85.5 -28t81.5 -36.5t66 -47.5t55 -64.5t32.5 -83.5t13 -107.5q0 -226 -141.5 -357
t-399.5 -151l-41 -195h-373z" />
    <glyph glyph-name="percent" unicode="%" horiz-adv-x="2615" 
d="M561 514q-228 0 -347.5 108.5t-119.5 301.5q0 128 33.5 233t89 175t130 118.5t154.5 70t165 21.5q224 0 345.5 -113.5t121.5 -306.5q0 -144 -47 -261t-127 -192t-182.5 -115t-215.5 -40zM592 815q57 0 98 43.5t59.5 107.5t18.5 140q0 127 -127 127q-77 0 -129.5 -74.5
t-52.5 -216.5q0 -63 31 -95t102 -32zM1954 -23q-228 0 -347.5 108.5t-119.5 301.5q0 128 33 233t88.5 175.5t130 119t154.5 70t165 21.5q224 0 345.5 -113.5t121.5 -306.5q0 -144 -47 -261t-126.5 -192t-182 -115.5t-215.5 -40.5zM1985 279q84 0 130 86t46 204
q0 127 -127 127q-78 0 -130.5 -74.5t-52.5 -215.5q0 -63 31.5 -95t102.5 -32zM532 0l1174 1518h375l-1174 -1518h-375z" />
    <glyph glyph-name="ampersand" unicode="&#x26;" horiz-adv-x="1798" 
d="M629 -18q-326 0 -486.5 96.5t-160.5 296.5q0 95 23 172.5t60 130.5t92 94.5t110.5 66t125.5 44.5q-22 86 -22 168q0 109 30 195t79.5 140.5t117.5 90.5t138.5 50.5t148.5 14.5q220 0 332 -99t112 -272q0 -85 -21 -155t-55.5 -119t-87.5 -89t-108 -66t-125 -48
q9 -10 24 -28t21 -25q58 -68 123 -127q122 146 227 410l311 -101q-111 -289 -243 -469q49 -8 123 -8h51l-74 -346h-29q-131 0 -226.5 15.5t-180.5 54.5q-183 -88 -430 -88zM670 299q40 0 84 6q-54 57 -131 150q-55 64 -103 143q-64 -28 -97.5 -68.5t-33.5 -103.5
q0 -127 281 -127zM760 1077q0 -56 26 -129q183 50 183 176q0 44 -27.5 65t-71.5 21q-110 0 -110 -133z" />
    <glyph glyph-name="quotesingle" unicode="'" horiz-adv-x="747" 
d="M182 754l142 766h421l-186 -766h-377z" />
    <glyph glyph-name="parenleft" unicode="(" horiz-adv-x="1114" 
d="M362 -401q-97 122 -166 313.5t-69 429.5q0 160 40 328t107.5 313.5t154.5 276.5t181.5 230t188.5 161l256 -203q-224 -195 -367 -495.5t-143 -626.5q0 -165 47 -319t104 -245z" />
    <glyph glyph-name="parenright" unicode=")" horiz-adv-x="1114" 
d="M260 -401l-256 202q224 195 367 496t143 627q0 164 -47 318t-105 245l334 164q97 -122 166.5 -314t69.5 -430q0 -199 -61 -407t-159.5 -379t-216 -307.5t-235.5 -214.5z" />
    <glyph glyph-name="asterisk" unicode="*" horiz-adv-x="1284" 
d="M715 428l-305 66l100 292l-291 -127l-96 316l313 59l-260 185l213 247l215 -235l29 309l307 -63l-102 -299l297 131l96 -312l-318 -65l265 -182l-213 -244l-220 233z" />
    <glyph glyph-name="plus" unicode="+" horiz-adv-x="1507" 
d="M426 164l80 377h-377l78 362h377l78 373h403l-78 -373h375l-78 -362h-375l-80 -377h-403z" />
    <glyph glyph-name="comma" unicode="," horiz-adv-x="657" 
d="M-25 -360l-53 194q137 48 176.5 78t51.5 88h-213l94 442h458l-77 -370q-16 -74 -32.5 -125t-42.5 -93.5t-53.5 -70t-76.5 -53.5t-99.5 -45t-132.5 -45z" />
    <glyph glyph-name="hyphen" unicode="-" horiz-adv-x="841" 
d="M12 514l78 360h711l-78 -360h-711z" />
    <glyph glyph-name="hyphen" unicode="&#xad;" horiz-adv-x="841" 
d="M12 514l78 360h711l-78 -360h-711z" />
    <glyph glyph-name="period" unicode="." horiz-adv-x="657" 
d="M-63 0l94 442h458l-94 -442h-458z" />
    <glyph glyph-name="slash" unicode="/" horiz-adv-x="1259" 
d="M-172 0l1171 1518h433l-1172 -1518h-432z" />
    <glyph glyph-name="zero" unicode="0" horiz-adv-x="1585" 
d="M696 -23q-622 0 -622 558q0 129 35 290q34 160 87.5 282t122.5 204.5t158.5 134t190 74t223.5 22.5q314 0 467 -146t153 -423q0 -134 -34 -291q-42 -198 -114.5 -337t-174 -218.5t-220.5 -114.5t-272 -35zM729 330q134 0 207.5 88t120.5 309q28 131 28 217
q0 118 -54.5 174t-178.5 56q-132 0 -204.5 -86t-119.5 -306q-28 -131 -28 -219q0 -118 53.5 -175.5t175.5 -57.5z" />
    <glyph glyph-name="one" unicode="1" horiz-adv-x="894" 
d="M137 0l246 1153h-242l78 365h641l-323 -1518h-400z" />
    <glyph glyph-name="two" unicode="2" horiz-adv-x="1337" 
d="M-98 0l67 315l570 385q84 57 130 89t90.5 67.5t63.5 55.5t35 47t19.5 49t3.5 55q0 59 -49.5 92t-176.5 33q-72 0 -185 -19.5t-185 -48.5l-119 320q251 102 547 102q587 0 587 -391q0 -67 -10.5 -124.5t-27 -103.5t-49.5 -91t-64.5 -79t-86.5 -76.5t-101 -74t-121 -80.5
l-285 -186h584l-72 -336h-1165z" />
    <glyph glyph-name="three" unicode="3" horiz-adv-x="1347" 
d="M584 -25q-445 0 -713 201l244 295q215 -160 473 -160q39 0 67.5 3.5t58 15.5t48 32t30 55.5t11.5 84.5q0 73 -48 106t-163 33h-275l66 317h322q93 0 136.5 29.5t43.5 118.5q0 47 -44 68.5t-161 21.5q-86 0 -197 -20t-178 -52l-151 310q107 58 274 83t330 25
q274 0 413.5 -86.5t139.5 -251.5q0 -93 -19 -164t-55 -117t-77.5 -74.5t-96.5 -47.5q143 -68 143 -293q0 -121 -31 -214t-85.5 -153t-134.5 -97.5t-170 -53t-201 -15.5z" />
    <glyph glyph-name="four" unicode="4" horiz-adv-x="1427" 
d="M-55 274l65 299l860 945h453l-844 -922h281l170 397h282l-84 -397h220l-70 -322h-219l-58 -274h-372l57 274h-741z" />
    <glyph glyph-name="five" unicode="5" horiz-adv-x="1372" 
d="M621 -23q-218 0 -404.5 58.5t-282.5 140.5l244 295q101 -81 229.5 -119.5t258.5 -38.5q94 0 147 46t53 163q0 100 -59 136t-176 36q-92 0 -199 -43l-317 101l204 766h1041l-74 -347h-692l-53 -196q122 51 258 51q73 0 129.5 -6t115.5 -22.5t101 -48t76.5 -79.5
t51.5 -121.5t17 -168.5q0 -121 -21.5 -215.5t-64 -160t-99 -110.5t-134.5 -70.5t-161.5 -36t-188.5 -10.5z" />
    <glyph glyph-name="six" unicode="6" horiz-adv-x="1492" 
d="M696 -23q-170 0 -295 39t-200 112.5t-110.5 170.5t-35.5 221q0 112 27 238q33 154 77 269t106 200t136 140.5t175 89.5t214.5 47.5t262.5 13.5h321l-74 -347h-268q-119 0 -206 -15t-136.5 -36t-82.5 -58.5t-46 -68t-26 -78.5q44 55 144.5 83t231.5 28q130 0 224 -26
t149.5 -75.5t81 -116t25.5 -153.5q0 -324 -181 -501t-514 -177zM709 307q80 0 133.5 17t83 52.5t41.5 81t12 109.5q0 72 -55.5 109t-194.5 37q-62 0 -105.5 -8.5t-82.5 -31t-58.5 -69t-19.5 -117.5q0 -84 60.5 -132t185.5 -48z" />
    <glyph glyph-name="seven" unicode="7" horiz-adv-x="1222" 
d="M51 0l746 1171h-699l74 347h1153l-63 -293l-762 -1225h-449z" />
    <glyph glyph-name="eight" unicode="8" horiz-adv-x="1519" 
d="M659 -37q-146 0 -261 23t-188 61t-120.5 92t-66.5 110.5t-19 121.5q0 163 76.5 274.5t249.5 173.5q-74 43 -98.5 110t-24.5 158q0 74 18.5 138.5t63.5 123.5t113.5 101t175.5 67t243 25q153 0 269.5 -19.5t188.5 -52t117 -80.5t62 -99.5t17 -114.5t-12 -118t-38.5 -107.5
t-76 -91.5t-117.5 -58q89 -44 119 -113.5t30 -179.5q0 -116 -39.5 -212t-122 -172t-225 -118.5t-334.5 -42.5zM705 268q131 0 196.5 58.5t65.5 169.5q0 163 -277 163q-264 0 -264 -229q0 -162 279 -162zM827 936q127 0 180.5 40.5t53.5 131.5q0 59 -52.5 93t-183.5 34
q-128 0 -178.5 -39.5t-50.5 -130.5q0 -60 51.5 -94.5t179.5 -34.5z" />
    <glyph glyph-name="nine" unicode="9" horiz-adv-x="1492" 
d="M121 0l72 336h266q119 0 206.5 15t137.5 36.5t84 59t47.5 68.5t26.5 79q-44 -55 -144.5 -83t-232.5 -28q-480 0 -480 381q0 324 181 501t514 177q170 0 295 -39t200 -112.5t110.5 -170.5t35.5 -221q0 -111 -27 -237q-39 -184 -97 -314.5t-135.5 -218t-188 -138t-241 -71
t-309.5 -20.5h-321zM764 788q62 0 105.5 8.5t82.5 31t58.5 69t19.5 117.5q0 84 -60.5 132t-185.5 48q-80 0 -133.5 -17t-83 -52.5t-41.5 -81t-12 -109.5q0 -72 55.5 -109t194.5 -37z" />
    <glyph glyph-name="colon" unicode=":" horiz-adv-x="698" 
d="M-43 0l90 428h459l-90 -428h-459zM117 748l90 426h459l-91 -426h-458z" />
    <glyph glyph-name="semicolon" unicode=";" horiz-adv-x="698" 
d="M-6 -360l-53 194q136 48 175.5 77.5t51.5 88.5h-211l90 428h459l-76 -356q-16 -74 -32 -125t-42 -93.5t-54 -70t-76.5 -53.5t-99 -45t-132.5 -45zM117 748l90 426h459l-91 -426h-458z" />
    <glyph glyph-name="less" unicode="&#x3c;" horiz-adv-x="1507" 
d="M1053 98l-856 475l57 273l1059 473l-78 -367l-584 -241l482 -242z" />
    <glyph glyph-name="equal" unicode="=" horiz-adv-x="1507" 
d="M86 279l76 360h1130l-75 -360h-1131zM199 805l75 358h1131l-76 -358h-1130z" />
    <glyph glyph-name="greater" unicode="&#x3e;" horiz-adv-x="1507" 
d="M172 98l78 369l586 240l-482 243l78 369l860 -475l-59 -275z" />
    <glyph glyph-name="question" unicode="?" horiz-adv-x="1476" 
d="M436 459q15 120 35.5 192.5t64.5 127.5t109 86.5t174 58.5q129 31 166 59t37 98q0 30 -18.5 51t-75 35.5t-152.5 14.5q-192 -3 -393 -70l-125 334q113 50 282 73t318 23q598 0 598 -362q0 -209 -85.5 -315.5t-291.5 -164.5q-56 -16 -92 -28.5t-63.5 -29t-42.5 -30.5
t-25.5 -39.5t-15 -48.5t-9.5 -65h-395zM305 0l82 381h459l-82 -381h-459z" />
    <glyph glyph-name="at" unicode="@" horiz-adv-x="2154" 
d="M1079 -338q-138 0 -252.5 13.5t-219 45t-185.5 81t-146.5 123t-108.5 169.5t-66 221.5t-23 278.5q0 950 954 950q170 0 309 -27.5t263 -94.5t208.5 -173.5t133.5 -271.5t49 -381q0 -160 -23.5 -264t-77 -166t-131 -86.5t-196.5 -24.5q-275 0 -355 142q-71 -65 -154 -94
t-229 -29q-399 0 -399 420q0 93 17.5 182t57.5 174t98.5 148.5t147.5 102t197 38.5q109 0 179 -13t101 -30.5t68 -51.5l88 74l232 -22l-133 -623q-31 -127 -4 -175t145 -48q23 0 41.5 2t34 9t26.5 13.5t20 21.5t15 27t10 36.5t6 44t3.5 55t1.5 63v74.5q0 146 -24 260.5
t-72 195.5t-112 137.5t-150.5 89t-181 46.5t-210.5 14q-92 0 -171 -10t-156 -34t-138 -61.5t-113.5 -96t-88 -135t-55 -180t-19.5 -228.5q0 -168 37 -294t102.5 -208t166 -133t216.5 -71.5t264 -20.5q134 0 280 30.5t245 79.5l88 -184q-265 -131 -611 -131zM948 377
q177 0 213 198q8 39 8 93q0 74 -39.5 112.5t-138.5 38.5q-92 0 -139 -87t-47 -222q0 -63 31 -98t112 -35z" />
    <glyph glyph-name="A" unicode="A" horiz-adv-x="1624" 
d="M-143 0l907 1528h412l251 -1528h-421l-31 197h-561l-109 -197h-448zM608 545h314l-64 444z" />
    <glyph glyph-name="B" unicode="B" horiz-adv-x="1558" 
d="M-23 0l324 1518h604q176 0 299.5 -21.5t196 -64t105 -100t32.5 -136.5q0 -181 -75.5 -284.5t-196.5 -137.5q89 -31 127.5 -98t38.5 -174q0 -122 -30.5 -210t-85 -144t-143.5 -89t-193 -46t-247 -13h-756zM463 326h358q180 0 180 157q0 55 -42 84t-146 29h-293zM588 920
h315q98 0 140 40.5t42 116.5q0 101 -194 101h-248z" />
    <glyph glyph-name="C" unicode="C" horiz-adv-x="1562" 
d="M776 -23q-735 0 -735 594q0 131 29 267q35 166 99.5 292t143 203t180.5 125t201.5 66t216.5 18q121 0 222 -15.5t170 -39t126.5 -58.5t92 -67t65.5 -72l-346 -280q-110 143 -336 143q-171 0 -269.5 -87t-139.5 -280q-19 -87 -19 -155q0 -132 78 -203.5t260 -71.5
q189 0 344 125l240 -301q-121 -105 -267.5 -154t-355.5 -49z" />
    <glyph glyph-name="D" unicode="D" horiz-adv-x="1617" 
d="M-23 0l324 1518h406q466 0 670 -129.5t204 -425.5q0 -140 -35 -295q-21 -99 -49.5 -181t-61 -146t-74.5 -114t-85 -85.5t-98.5 -61t-108.5 -41t-122 -24.5t-131.5 -12t-143.5 -3h-695zM479 369h203q79 0 135 6t101.5 22t75 39.5t53.5 65t39.5 91.5t31.5 124
q25 125 25 182q0 123 -84.5 180.5t-286.5 57.5h-129z" />
    <glyph glyph-name="E" unicode="E" horiz-adv-x="1437" 
d="M-23 0l324 1518h1188l-82 -383h-764l-39 -185h744l-80 -370h-744l-45 -213h772l-77 -367h-1197z" />
    <glyph glyph-name="F" unicode="F" horiz-adv-x="1347" 
d="M-23 0l324 1518h1126l-81 -383h-703l-49 -226h682l-80 -377h-682l-113 -532h-424z" />
    <glyph glyph-name="G" unicode="G" horiz-adv-x="1638" 
d="M786 -23q-198 0 -342.5 40.5t-232 118.5t-129 186t-41.5 249q0 114 29 267q136 704 848 704q247 0 422.5 -70t256.5 -182l-346 -280q-37 44 -74.5 72t-111.5 49.5t-176 21.5q-95 0 -167 -27.5t-117.5 -79.5t-73.5 -114.5t-44 -145.5q-18 -101 -18 -155q0 -148 79 -222.5
t267 -74.5q145 0 213.5 42.5t93.5 162.5l4 24h-364l74 342h774l-64 -307q-38 -182 -97 -301.5t-153 -191t-215 -100t-295 -28.5z" />
    <glyph glyph-name="H" unicode="H" horiz-adv-x="1689" 
d="M-23 0l324 1518h424l-117 -545h561l117 545h426l-323 -1518h-426l122 575h-561l-123 -575h-424z" />
    <glyph glyph-name="I" unicode="I" horiz-adv-x="751" 
d="M2 0l324 1518h424l-324 -1518h-424z" />
    <glyph glyph-name="J" unicode="J" horiz-adv-x="948" 
d="M-125 0l78 367h164q113 0 160.5 34t66.5 121l213 996h424l-223 -1053q-26 -122 -74 -210.5t-103 -138t-129 -78t-137 -36.5t-143 -8q-183 0 -297 6z" />
    <glyph glyph-name="K" unicode="K" horiz-adv-x="1572" 
d="M926 0l-240 610l-205 -204l-86 -406h-418l324 1518h418l-113 -529l518 529h498l-604 -600l354 -918h-446z" />
    <glyph glyph-name="L" unicode="L" horiz-adv-x="1253" 
d="M-23 0l324 1518h424l-246 -1151h674l-78 -367h-1098z" />
    <glyph glyph-name="M" unicode="M" horiz-adv-x="2029" 
d="M-23 0l324 1518h557l123 -883l502 883h567l-324 -1518h-413l188 891l-520 -891h-297l-139 893l-189 -893h-379z" />
    <glyph glyph-name="N" unicode="N" horiz-adv-x="1689" 
d="M-23 0l324 1518h455l372 -834l179 834h405l-323 -1518h-392l-419 918l-195 -918h-406z" />
    <glyph glyph-name="O" unicode="O" horiz-adv-x="1746" 
d="M815 -25q-237 0 -408 68t-267.5 210t-96.5 349q0 112 27 244q26 122 68.5 222t94.5 171.5t118.5 125.5t134 87t147 54t152.5 28.5t155 7.5q174 0 313.5 -38t240.5 -113t155.5 -193.5t54.5 -273.5q0 -111 -27 -240q-151 -709 -862 -709zM821 348q189 0 287.5 91t136.5 276
q19 101 19 149q0 65 -17.5 115.5t-56 90.5t-107.5 61.5t-165 21.5q-189 0 -286.5 -88t-135.5 -272q-17 -87 -17 -150q0 -295 342 -295z" />
    <glyph glyph-name="P" unicode="P" horiz-adv-x="1570" 
d="M-23 0l324 1518h649q633 0 633 -422q0 -118 -21.5 -217t-72.5 -186.5t-128.5 -148t-196 -95.5t-269.5 -35h-416l-88 -414h-414zM553 764h330q129 0 192.5 56.5t63.5 195.5q0 70 -57 105.5t-191 35.5h-254z" />
    <glyph glyph-name="Q" unicode="Q" horiz-adv-x="1746" 
d="M891 -424q-210 0 -314.5 47t-125.5 149t24 263q-432 120 -432 567q-3 99 27 244q26 122 68.5 222t94.5 171.5t118.5 125.5t134 87t147 54t152.5 28.5t155 7.5q360 0 562 -159t202 -459q0 -111 -27 -240q-26 -120 -68 -218.5t-92.5 -168.5t-115 -123.5t-130 -86.5
t-142 -53.5t-146 -28.5t-147.5 -9q-10 -51 13.5 -63.5t113.5 -12.5h172l-72 -338q-80 -6 -172 -6zM821 348q189 0 287.5 91t136.5 276q19 101 19 149q0 65 -17.5 115.5t-56 90.5t-107.5 61.5t-165 21.5q-189 0 -286.5 -88t-135.5 -272q-17 -87 -17 -150q0 -295 342 -295z
" />
    <glyph glyph-name="R" unicode="R" horiz-adv-x="1595" 
d="M895 0l-147 455h-261l-96 -455h-414l324 1518h619q657 0 657 -406q0 -516 -412 -627l160 -485h-430zM563 807h322q133 0 190.5 51.5t57.5 163.5q0 74 -61.5 104.5t-190.5 30.5h-244z" />
    <glyph glyph-name="S" unicode="S" horiz-adv-x="1517" 
d="M713 -23q-273 0 -479.5 68.5t-335.5 169.5l272 299q103 -83 250.5 -134.5t314.5 -51.5q134 0 185 21t51 83q0 56 -45.5 79t-200.5 61q-37 9 -57 14q-73 18 -121 32t-106.5 36t-95.5 44t-75.5 55t-59.5 71.5t-34.5 90.5t-13.5 115q0 512 647 512q459 0 711 -190l-283 -316
q-69 54 -187 96t-259 42q-115 0 -155 -22t-40 -85q0 -19 7 -33.5t25.5 -27t36.5 -21t54.5 -18.5t63.5 -16t79 -17q67 -14 116 -25.5t109 -31t102.5 -40.5t86 -52.5t70 -68.5t43 -87t16.5 -109q0 -281 -173 -412t-519 -131z" />
    <glyph glyph-name="T" unicode="T" horiz-adv-x="1423" 
d="M338 0l242 1135h-484l82 383h1393l-82 -383h-483l-242 -1135h-426z" />
    <glyph glyph-name="U" unicode="U" horiz-adv-x="1671" 
d="M739 -31q-132 0 -236.5 18t-175.5 51t-121 75.5t-77 97t-39 108.5t-12 117q0 96 24 213l187 869h426l-178 -844q-21 -96 -21 -150q0 -91 60 -135.5t210 -44.5q82 0 135 14t89 50t56 87.5t38 137.5l188 885h412l-207 -965q-15 -70 -30.5 -122.5t-44 -117t-64.5 -111
t-93.5 -93t-129.5 -75.5t-173 -47t-223 -18z" />
    <glyph glyph-name="V" unicode="V" horiz-adv-x="1624" 
d="M442 -10l-252 1528h437l133 -965l545 965h456l-907 -1528h-412z" />
    <glyph glyph-name="W" unicode="W" horiz-adv-x="2174" 
d="M297 -10l-102 1528h440l27 -766l385 766h415l62 -766l352 766h428l-754 -1528h-366l-72 891l-448 -891h-367z" />
    <glyph glyph-name="X" unicode="X" horiz-adv-x="1632" 
d="M973 0l-225 485l-404 -485h-475l721 827l-318 691h445l184 -400l328 400h475l-645 -742l360 -776h-446z" />
    <glyph glyph-name="Y" unicode="Y" horiz-adv-x="1579" 
d="M414 0l110 526l-356 992h442l203 -603l453 603h467l-787 -998l-108 -520h-424z" />
    <glyph glyph-name="Z" unicode="Z" horiz-adv-x="1404" 
d="M-111 0l68 313l887 822h-678l82 383h1239l-74 -347l-870 -804h721l-78 -367h-1297z" />
    <glyph glyph-name="bracketleft" unicode="[" horiz-adv-x="1114" 
d="M-25 -338l410 1927h741l-73 -348h-330l-264 -1241h336l-72 -338h-748z" />
    <glyph glyph-name="backslash" unicode="\" horiz-adv-x="1259" 
d="M696 0l-524 1518h391l524 -1518h-391z" />
    <glyph glyph-name="bracketright" unicode="]" horiz-adv-x="1114" 
d="M-78 -338l72 338h336l264 1241h-328l74 348h739l-409 -1927h-748z" />
    <glyph glyph-name="asciicircum" unicode="^" 
d="M188 1075l406 406h414l233 -406h-369l-122 154l-189 -154h-373z" />
    <glyph glyph-name="underscore" unicode="_" horiz-adv-x="927" 
d="M-313 -360l63 299h1079l-63 -299h-1079z" />
    <glyph glyph-name="grave" unicode="`" 
d="M604 1280l-323 406h473l192 -406h-342z" />
    <glyph glyph-name="a" unicode="a" horiz-adv-x="1327" 
d="M406 -18q-130 0 -220.5 24.5t-141.5 72.5t-73 110.5t-22 146.5q0 97 34 170.5t91 119t141 73.5t173 38.5t198 10.5h198q1 5 4 18t3 20q0 32 -37 48t-148 16q-74 0 -161.5 -18t-145.5 -46l-141 301q81 48 220.5 80.5t295.5 32.5q191 0 305.5 -33t160 -97t49 -158.5
t-27.5 -217.5l-57 -270q-14 -52 -2 -71t76 -19l-72 -330q-48 -10 -174 -10q-90 0 -137 20.5t-72 85.5q-94 -118 -317 -118zM524 307q101 0 138.5 28t60.5 130l8 39h-192q-185 0 -185 -111q0 -46 38.5 -66t131.5 -20z" />
    <glyph glyph-name="b" unicode="b" horiz-adv-x="1390" 
d="M721 -18q-288 0 -402 100l-81 -96l-285 28l336 1575h403l-102 -473q123 84 299 84q121 0 208.5 -33.5t135.5 -94t70 -134.5t22 -166t-29 -237q-21 -102 -51 -182.5t-77 -151.5t-108.5 -118t-147 -74t-191.5 -27zM659 324q56 0 95 17t63.5 52.5t38.5 73t27 96.5
q16 86 16 121q0 70 -39 108.5t-135 38.5q-109 0 -165 -52.5t-81 -174.5q-14 -60 -14 -121q0 -77 44.5 -118t149.5 -41z" />
    <glyph glyph-name="c" unicode="c" horiz-adv-x="1185" 
d="M569 -18q-571 0 -571 460q0 88 22 213q18 97 50.5 176.5t87 149.5t128 117.5t178 74.5t234.5 27q195 0 314 -53.5t198 -157.5l-331 -262q-22 31 -42 49.5t-66.5 35.5t-111.5 17q-99 0 -154 -55.5t-77 -179.5q-12 -66 -12 -109q0 -77 43 -119t147 -42q61 0 109 16t114 70
l213 -254q-206 -174 -473 -174z" />
    <glyph glyph-name="d" unicode="d" horiz-adv-x="1390" 
d="M428 -18q-121 0 -208.5 33.5t-135.5 94t-70 134.5t-22 166q0 97 28 237q21 102 51 182.5t77.5 151.5t109 118t147 74t191.5 27q104 0 178 -16.5t104 -34t62 -45.5l107 485h407l-336 -1575l-315 -28l-10 100q-119 -104 -365 -104zM592 328q109 0 165 52.5t81 174.5
q14 60 14 121q0 77 -45 118.5t-150 41.5q-56 0 -95 -17t-63.5 -53t-38 -73.5t-26.5 -96.5q-12 -64 -12 -121q0 -70 37 -108.5t133 -38.5z" />
    <glyph glyph-name="e" unicode="e" horiz-adv-x="1253" 
d="M563 -23q-565 0 -565 467q0 86 22 211q53 264 215 404.5t457 140.5q135 0 233.5 -29.5t154.5 -83t82 -121t26 -151.5q0 -165 -49 -366h-752q20 -146 227 -146q88 0 178.5 22.5t145.5 59.5l158 -279q-114 -76 -246.5 -102.5t-286.5 -26.5zM645 864q-91 0 -142.5 -44
t-80.5 -132h387q4 36 4 53q0 60 -36.5 91.5t-131.5 31.5z" />
    <glyph glyph-name="f" unicode="f" horiz-adv-x="970" 
d="M59 829l74 345h219l15 63q32 151 93.5 236.5t170.5 125t289 39.5q120 0 190 -6l-70 -329h-112q-85 0 -118.5 -23t-45.5 -82l-6 -24h256l-74 -345h-254l-248 -1167h-405l248 1167h-222z" />
    <glyph glyph-name="g" unicode="g" horiz-adv-x="1372" 
d="M645 432q-101 0 -184 12q-6 -18 -6 -36q0 -30 17 -42.5t67 -13.5q341 -9 478.5 -78t137.5 -227q0 -103 -34 -177.5t-90.5 -119.5t-147 -71.5t-186 -36t-224.5 -9.5q-351 0 -498 65t-147 222q0 72 26 128t71.5 91t98 55.5t113.5 28.5q-47 50 -47 139q0 104 94 187
q-100 81 -100 221q0 233 139.5 331.5t454.5 98.5q47 0 74 -2l614 135l-55 -305h-170q36 -41 59 -98.5t23 -118.5q0 -201 -138 -290t-440 -89zM489 -111q135 0 185.5 22t50.5 85q0 47 -57 67.5t-213 20.5q-106 0 -148.5 -18.5t-42.5 -79.5q0 -97 225 -97zM649 659
q92 0 130 31.5t38 112.5q0 46 -38 70t-134 24q-89 0 -125.5 -29.5t-36.5 -111.5q0 -47 37 -72t129 -25z" />
    <glyph glyph-name="h" unicode="h" horiz-adv-x="1366" 
d="M-49 0l338 1589h403l-102 -473q46 39 119 61.5t155 22.5q91 0 160 -14.5t114.5 -38.5t74 -63t42 -81t14 -99.5t-6.5 -111t-21 -122.5l-143 -670h-406l133 625q6 30 9 46.5t4 40t-3 37t-14 29t-28 23t-45.5 13t-65.5 5.5q-94 0 -131.5 -40t-54.5 -124l-140 -655h-405z" />
    <glyph glyph-name="i" unicode="i" horiz-adv-x="657" 
d="M-37 0l250 1174h405l-249 -1174h-406zM229 1260l70 329h410l-70 -329h-410z" />
    <glyph glyph-name="j" unicode="j" horiz-adv-x="657" 
d="M-227 -348l65 305h31q59 0 77 23t38 112l229 1082h405l-237 -1123q-19 -90 -40.5 -153.5t-51 -108t-61 -71.5t-79.5 -41.5t-97 -19.5t-122 -5h-157zM229 1260l70 329h410l-70 -329h-410z" />
    <glyph glyph-name="k" unicode="k" horiz-adv-x="1263" 
d="M-49 0l338 1589h401l-164 -766l346 351h449l-469 -467l250 -707h-422l-141 397l-129 -129l-58 -268h-401z" />
    <glyph glyph-name="l" unicode="l" horiz-adv-x="749" 
d="M324 -4q-188 0 -253.5 103t-15.5 337l246 1153h406l-244 -1147q-14 -63 2 -83.5t80 -20.5h35l-72 -334q-62 -8 -184 -8z" />
    <glyph glyph-name="m" unicode="m" horiz-adv-x="2060" 
d="M-49 0l244 1151l321 25l10 -89q64 56 140.5 84.5t185.5 28.5q132 0 215.5 -25t134.5 -100q122 125 367 125q91 0 159.5 -14.5t112.5 -38.5t71.5 -63.5t39 -80.5t11 -99.5t-7.5 -110.5t-22 -123l-143 -670h-406l134 625q5 23 6.5 32.5t5 30t3 29t-1 24.5t-5.5 23t-12 18.5
t-18.5 16t-26.5 10.5t-36 8t-47 2q-40 0 -69 -8.5t-45.5 -20.5t-29 -36.5t-18 -43.5t-12.5 -55l-139 -655h-405l133 625q19 92 13 124q-13 62 -112 69q-15 1 -32 1q-40 0 -69 -8.5t-45.5 -20.5t-29 -36.5t-18 -43.5t-12.5 -55l-140 -655h-405z" />
    <glyph glyph-name="n" unicode="n" horiz-adv-x="1366" 
d="M-49 0l244 1151l321 25l10 -89q129 113 338 113q91 0 160 -14.5t114.5 -38.5t74 -63t42 -81t14 -99.5t-6.5 -111t-21 -122.5l-143 -670h-406l133 625q6 30 9 46.5t4 40t-3 37t-14 29t-28 23t-45.5 13t-65.5 5.5q-94 0 -131.5 -40t-54.5 -124l-140 -655h-405z" />
    <glyph glyph-name="o" unicode="o" horiz-adv-x="1345" 
d="M578 -23q-299 0 -439.5 127.5t-140.5 352.5q0 88 22 198q62 286 229 415.5t449 129.5q298 0 438 -124.5t140 -346.5q0 -74 -25 -203q-60 -287 -226 -418t-447 -131zM602 324q59 0 100.5 15.5t68.5 47.5t42.5 71.5t28.5 98.5q14 68 14 111q0 78 -41 120.5t-143 42.5
q-60 0 -102.5 -15.5t-70 -48.5t-43 -73t-28.5 -100q-14 -68 -14 -111q0 -76 42 -117.5t146 -41.5z" />
    <glyph glyph-name="p" unicode="p" horiz-adv-x="1390" 
d="M-121 -338l316 1489l321 25l10 -95q63 55 147 87t216 32q121 0 208.5 -33.5t135.5 -94t70 -134.5t22 -166t-29 -237q-21 -102 -51 -182.5t-77 -151.5t-108.5 -118t-147 -74t-191.5 -27q-112 0 -187 15t-103 31t-60 44l-86 -410h-406zM659 324q56 0 95 17t63.5 52.5
t38.5 73t27 96.5q16 86 16 121q0 70 -39 108.5t-135 38.5q-109 0 -165 -52.5t-81 -174.5q-14 -60 -14 -121q0 -77 44.5 -118t149.5 -41z" />
    <glyph glyph-name="q" unicode="q" horiz-adv-x="1390" 
d="M637 -338l82 387q-108 -67 -291 -67q-121 0 -208.5 33.5t-135.5 94t-70 134.5t-22 166q0 97 28 237q21 102 51 182.5t77.5 151.5t109 118t147 74t191.5 27q164 0 254 -25t147 -83l88 84l275 -25l-313 -1489h-410zM592 328q109 0 165 52.5t81 174.5q14 60 14 121
q0 77 -45 118.5t-150 41.5q-56 0 -95 -17t-63.5 -53t-38 -73.5t-26.5 -96.5q-12 -64 -12 -121q0 -70 37 -108.5t133 -38.5z" />
    <glyph glyph-name="r" unicode="r" horiz-adv-x="833" 
d="M-49 0l244 1151l321 25l12 -107q41 58 134.5 87.5t216.5 31.5l-82 -391q-91 -1 -147 -12t-90.5 -40.5t-50.5 -66.5t-30 -103l-123 -575h-405z" />
    <glyph glyph-name="s" unicode="s" horiz-adv-x="1185" 
d="M498 -18q-184 0 -344 54.5t-263 143.5l234 258q76 -57 199 -101t217 -44q69 0 92.5 10t23.5 43q0 7 -3 13.5t-10 12t-14 10t-20 9t-23 7.5t-28.5 7t-30.5 6.5t-34 7t-35 7.5q-44 9 -74.5 16.5t-73.5 22t-73 30.5t-62.5 41t-52 54.5t-32.5 71t-13 90.5q0 124 40 212
t117.5 139t177.5 74t232 23q159 0 297 -40.5t234 -102.5l-238 -287q-170 94 -334 94q-66 0 -87 -12.5t-21 -44.5q0 -29 37.5 -43.5t148.5 -38.5q50 -11 81.5 -19.5t77 -23.5t73.5 -31t60.5 -41t50.5 -54.5t30 -71t12 -91.5q0 -115 -38.5 -196t-115 -127.5t-177.5 -67
t-238 -20.5z" />
    <glyph glyph-name="t" unicode="t" horiz-adv-x="976" 
d="M59 829l74 345h209l119 251l327 68l-67 -319h256l-74 -345h-256l-78 -370q-15 -67 4.5 -94t108.5 -27h117l-72 -338q-91 -6 -207 -6q-174 0 -264 49.5t-108 148t12 246.5l84 391h-185z" />
    <glyph glyph-name="u" unicode="u" horiz-adv-x="1347" 
d="M563 -23q-237 0 -359.5 67.5t-150 211.5t22.5 367l119 551h405l-123 -580q-7 -33 -10.5 -53.5t-7 -48.5t-2 -45t5.5 -37.5t15 -32.5t27 -23t40.5 -15.5t56.5 -4.5q42 0 72 10t49 25.5t34 47t23 60.5t19 80l131 617h399l-135 -633q-30 -139 -63.5 -230.5t-80.5 -159.5
t-115.5 -104.5t-156.5 -53t-215 -16.5z" />
    <glyph glyph-name="v" unicode="v" horiz-adv-x="1286" 
d="M276 -12l-192 1186h424l78 -672l362 672h430l-698 -1186h-404z" />
    <glyph glyph-name="w" unicode="w" horiz-adv-x="1890" 
d="M205 -12l-94 1186h421l21 -543l278 543h416l60 -543l239 543h410l-598 -1186h-375l-65 649l-338 -649h-375z" />
    <glyph glyph-name="x" unicode="x" horiz-adv-x="1247" 
d="M647 0l-135 307l-248 -307h-438l547 629l-238 545h428l107 -248l198 248h439l-494 -574l262 -600h-428z" />
    <glyph glyph-name="y" unicode="y" horiz-adv-x="1212" 
d="M96 -350q-88 0 -174 4l66 303h86q72 0 103.5 6t43.5 17.5t29 44.5l10 24l-176 1125h428l68 -574l305 574h420l-701 -1217q-74 -129 -134 -190.5t-145 -89t-229 -27.5z" />
    <glyph glyph-name="z" unicode="z" horiz-adv-x="1105" 
d="M-135 0l57 268l604 561h-452l73 345h1002l-57 -271l-611 -579h510l-69 -324h-1057z" />
    <glyph glyph-name="braceleft" unicode="{" horiz-adv-x="1189" 
d="M543 -338q-226 0 -329 55.5t-103 171.5q0 68 49 176t98 203t49 131q0 41 -49 51.5t-197 10.5l70 330q80 0 121.5 2t79.5 8.5t53 21.5t23 38t8 61q0 34 -10.5 133t-10.5 151q0 186 112.5 284.5t297.5 98.5h403l-73 -348h-211q-70 0 -99.5 -19t-29.5 -75q0 -21 8 -108.5
t8 -139.5q0 -36 -3 -63.5t-14.5 -62.5t-31.5 -60.5t-57.5 -49t-88.5 -36.5q117 -36 117 -138q0 -44 -27 -113.5t-60 -129t-60 -118t-27 -81.5q0 -28 22.5 -37.5t77.5 -9.5h211l-71 -338h-256z" />
    <glyph glyph-name="bar" unicode="|" horiz-adv-x="831" 
d="M213 -338v1927h412v-1927h-412z" />
    <glyph glyph-name="braceright" unicode="}" horiz-adv-x="1189" 
d="M-76 -338l72 338h211q68 0 99.5 23.5t31.5 80.5q0 21 -8 108.5t-8 139.5q0 36 3 63.5t14.5 63t31.5 61t57 49t88 36.5q-117 36 -117 137q0 44 27 112t59 126t59 114.5t27 79.5q0 28 -22.5 37.5t-77.5 9.5h-211l74 348h256q226 0 329 -55.5t103 -171.5q0 -53 -31 -133.5
t-67.5 -147.5t-67.5 -133.5t-31 -95.5q0 -40 48.5 -50.5t197.5 -10.5l-70 -330q-66 0 -103.5 -1t-74.5 -5.5t-53.5 -12.5t-30.5 -23.5t-18 -36t-4 -52.5q0 -34 10 -133.5t10 -151.5q0 -186 -112 -284.5t-297 -98.5h-404z" />
    <glyph glyph-name="asciitilde" unicode="~" 
d="M938 705q-57 0 -116 18t-99 39t-85.5 39t-78.5 18q-77 0 -162 -98l-196 188q184 221 372 221q57 0 116 -18t99 -39t85.5 -39t78.5 -18q77 0 162 98l197 -188q-184 -221 -373 -221z" />
    <glyph glyph-name="exclamdown" unicode="&#xa1;" horiz-adv-x="868" 
d="M49 0l256 1008h365l-176 -1008h-445zM274 1085l93 433h458l-92 -433h-459z" />
    <glyph glyph-name="cent" unicode="&#xa2;" horiz-adv-x="1200" 
d="M258 -193l45 213q-305 90 -305 422q0 88 22 213q88 470 529 529l31 139h385l-33 -154q174 -45 278 -180l-331 -262q-22 31 -42 49.5t-66.5 35.5t-111.5 17q-99 0 -154 -55.5t-77 -179.5q-12 -66 -12 -109q0 -77 43 -119t147 -42q61 0 109 16t114 70l213 -254
q-165 -138 -360 -160l-39 -189h-385z" />
    <glyph glyph-name="sterling" unicode="&#xa3;" horiz-adv-x="1398" 
d="M838 -12q-253 0 -430 102q-170 -105 -508 -90l69 326q84 0 140 6.5t88 16t51 32t26 41t15 57.5q8 46 2 135h-262l63 308h174v61q0 267 145.5 414t432.5 147q170 0 295 -33.5t239 -91.5l-219 -325q-67 39 -162 64.5t-174 25.5q-42 0 -72.5 -12t-48 -32t-27.5 -52.5
t-13 -65.5t-3 -80v-20h312l-64 -308h-239q0 -65 -13 -125q-11 -49 -34 -124q97 -39 202 -39q33 0 52.5 4.5t33.5 12.5t23.5 31t16 46.5t16.5 73.5l12 63h350l-24 -119q-27 -131 -65.5 -217t-95.5 -138t-129.5 -73.5t-174.5 -21.5z" />
    <glyph glyph-name="currency" unicode="&#xa4;" horiz-adv-x="1486" 
d="M53 778l47 226h222q85 255 263 396.5t429 141.5q166 0 298.5 -36t217.5 -95l-236 -317q-40 25 -71.5 41t-91.5 31.5t-127 15.5q-180 0 -271 -178h385l-47 -226h-407q-6 -40 -9 -82h398l-47 -225h-349q37 -149 220 -149q147 0 249 57l166 -295q-85 -55 -211.5 -82
t-255.5 -27q-271 0 -410 131.5t-159 364.5h-268l47 225h225q4 56 8 82h-215z" />
    <glyph glyph-name="yen" unicode="&#xa5;" horiz-adv-x="1417" 
d="M96 459l47 227h344l-313 832h426l158 -500l372 500h437l-674 -832h342l-47 -227h-344l-19 -80h344l-47 -227h-344l-33 -152h-401l33 152h-346l47 227h346l18 80h-346z" />
    <glyph glyph-name="brokenbar" unicode="&#xa6;" horiz-adv-x="831" 
d="M213 -338v803h412v-803h-412zM213 786v803h412v-803h-412z" />
    <glyph glyph-name="section" unicode="&#xa7;" horiz-adv-x="1304" 
d="M250 -6q-152 0 -225 6l65 311h113q89 0 120 21t46 90q-248 69 -248 285q0 354 395 397q18 77 42 137t65 114.5t96 89.5t135.5 56t183.5 21q152 0 226 -6l-70 -330h-113q-91 0 -122 -22t-44 -83v-2q132 -37 196.5 -114t64.5 -183q0 -100 -30 -173.5t-86.5 -117.5
t-128.5 -67.5t-165 -30.5q-23 -94 -57.5 -162t-93 -124t-149.5 -84.5t-216 -28.5zM668 623q94 0 136 26t42 96q0 49 -48.5 75t-166.5 26q-99 0 -140.5 -23t-41.5 -96q0 -104 219 -104z" />
    <glyph glyph-name="dieresis" unicode="&#xa8;" 
d="M293 1280l67 317h365l-68 -317h-364zM774 1280l68 317h364l-67 -317h-365z" />
    <glyph glyph-name="copyright" unicode="&#xa9;" horiz-adv-x="1632" 
d="M831 289q-257 0 -374 122.5t-117 360.5q0 125 36.5 218t104.5 150t159.5 85t207.5 28q135 0 226.5 -35.5t160.5 -109.5l-180 -180q-41 43 -89.5 64.5t-119.5 21.5q-125 0 -183.5 -62t-58.5 -184q0 -121 55.5 -183.5t188.5 -62.5q75 0 122.5 22.5t98.5 69.5l172 -168
q-70 -74 -164 -115.5t-246 -41.5zM815 -25q-149 0 -274 40t-214 111.5t-151.5 170.5t-92.5 215.5t-30 247.5q0 164 48.5 305t141 248.5t240 169t332.5 61.5t331.5 -61.5t239 -169t141 -248.5t48.5 -305t-48.5 -305t-141 -249t-239 -169.5t-331.5 -61.5zM815 115
q132 0 236.5 34t174 92.5t115.5 141.5t66 176t20 201t-20 201t-66 176t-115.5 141.5t-174 92.5t-236.5 34t-237.5 -34t-175 -92.5t-115.5 -141.5t-66 -176t-20 -201t20 -201t66 -176t115.5 -141.5t175 -92.5t237.5 -34z" />
    <glyph glyph-name="ordfeminine" unicode="&#xaa;" horiz-adv-x="1251" 
d="M465 555q-100 0 -170 19.5t-107 56.5t-53 81t-16 101q0 68 14.5 121.5t39 91t63 65t80 44t97.5 26t107 12.5t117 3h158q1 3 2.5 9.5t2.5 11.5t1 9q0 17 -12 27t-48.5 16t-101.5 6q-50 0 -120 -15t-116 -36l-114 246q65 40 175.5 66t242.5 26q155 0 247.5 -26.5t129.5 -78
t39.5 -128t-21.5 -176.5l-47 -220q-5 -25 -6 -41.5t14 -24.5t51 -7l-57 -267q-33 -8 -142 -8q-99 0 -137 33q-21 18 -33 53q-44 -44 -118 -70t-162 -26zM84 201l59 284h820l-60 -284h-819zM586 819q71 0 106 24t53 103l7 33h-129q-95 0 -136 -20.5t-41 -71.5q0 -38 29 -53
t111 -15z" />
    <glyph glyph-name="guillemotleft" unicode="&#xab;" horiz-adv-x="1662" 
d="M358 0l-184 586l434 588h353l-402 -588l152 -586h-353zM877 0l-185 586l434 588h355l-402 -588l152 -586h-354z" />
    <glyph glyph-name="logicalnot" unicode="&#xac;" horiz-adv-x="1703" 
d="M258 246q-88 105 -136 237t-48 277q0 144 48 276t136 236q6 -4 14 -12q-85 -103 -131.5 -231.5t-46.5 -268.5q0 -285 180 -500zM467 432q-117 143 -117 328q0 183 115 327q3 -2 8 -7t8 -7q-110 -136 -110 -313q0 -182 110 -314zM541 498q-92 116 -92 262t92 262
q3 -2 8 -7t8 -7q-88 -109 -88 -248t88 -248q-3 -2 -8 -7t-8 -7zM647 592q-57 72 -57 168q0 97 57 166l15 -15q-52 -69 -52 -151q0 -84 54 -154q-3 -2 -8.5 -7t-8.5 -7zM715 655q-33 48 -33 105q0 56 33 104q3 -2 8 -7t8 -7q-29 -44 -29 -90t29 -90q-3 -2 -16 -15zM774 709
q-14 25 -14 51t14 51l12 -10q-10 -20 -10 -41t10 -41q-4 -4 -12 -10zM852 123q-236 0 -412 158l2.5 2.5l5 5l5.5 5.5t2 1q171 -152 397 -152q227 0 395 152q2 -3 7.5 -8t7.5 -8q-177 -156 -410 -156zM852 664q-31 0 -55 18l12 12q21 -14 43 -14q26 0 43 14q4 -4 10 -12
q-21 -18 -53 -18zM987 653q-7 10 -14 15q28 42 28 92q0 51 -28 90l2.5 2.5t5 4.5t5.5 5t1 2q35 -44 35 -104t-35 -107zM598 551q-72 91 -72 209q0 119 74 209l14 -15q-67 -87 -67 -194q0 -108 67 -195q-10 -10 -16 -14zM852 -35q-145 0 -278 52.5t-238 146.5l14 16
q102 -92 231 -143t271 -51q285 0 500 192q0 1 3.5 -2.5t6.5 -7.5l4 -4q-104 -95 -236 -147t-278 -52zM852 248q-189 0 -330 125l15 16q134 -121 315 -121q182 0 313 121q2 -3 7.5 -8t7.5 -8q-138 -125 -328 -125zM852 348q-145 0 -264 101l14 14q108 -94 250 -94
q143 0 248 94q2 -3 7 -8.5t7 -8.5q-112 -98 -262 -98zM852 428q-116 0 -211 78l14 16q86 -73 197 -73t197 73q4 -4 12 -16q-91 -78 -209 -78zM852 543q-77 0 -135 49l14 16q51 -45 121 -45q68 0 119 45q2 -3 7 -8t7 -8q-58 -49 -133 -49zM733 911q-4 3 -7 6.5t-6 6.5l-3 4
q58 49 135 49t135 -49l-16 -17q-51 45 -119 45t-119 -45zM1167 1130q-134 121 -315 121q-179 0 -313 -118l-15 14q141 125 328 125q189 0 330 -125q-4 -6 -15 -17zM930 709l-12 10q10 20 10 41t-10 41l12 10q14 -25 14 -51t-14 -51zM958 682q-10 10 -16 14q21 32 21 64
t-21 63l16 15q25 -36 25 -78t-25 -78zM1020 627q-6 4 -16 14q38 50 38 119t-38 119l14 14q45 -57 45 -133q0 -71 -43 -133zM1106 551q-3 2 -8 7t-8 7q67 87 67 195t-70 194l17 15q74 -90 74 -209q0 -118 -72 -209zM1163 498q-10 10 -16 14q88 109 88 248t-88 248l16 14
q92 -116 92 -262t-92 -262zM1237 432q-6 4 -16 14q112 134 112 314q0 182 -112 313l16 14q117 -139 117 -327q0 -189 -117 -328zM1329 350q-2 2 -7 6t-7 6q141 175 141 398q0 227 -143 395l16 14q148 -179 148 -409q0 -231 -148 -410zM1446 246q-6 6 -16 14q180 215 180 500
t-180 500l16 14q88 -105 136 -237t48 -277q0 -144 -48 -276t-136 -238zM375 348q-148 182 -148 412q0 229 146 409q2 -2 7.5 -6.5t8.5 -7.5q-141 -170 -141 -395q0 -228 141 -398zM684 627q-43 59 -43 133t43 133q6 -4 16 -14q-38 -50 -38 -119q0 -67 38 -117zM745 682
q-24 34 -24 78t24 78q2 -3 4.5 -5.5t6 -5.5t4.5 -4q-19 -34 -19 -63q0 -30 19 -64zM809 825l-10 13q21 18 53 18t53 -18l-10 -13q-23 15 -43 15q-25 0 -43 -15zM786 852l-14 14q37 29 80 29q41 0 78 -29q-8 -8 -12 -14q-28 25 -66 25q-34 0 -66 -25zM760 881l-15 16
q45 39 107 39q61 0 106 -39l-14 -16q-37 34 -92 34t-92 -34zM604 1057l-14 16q112 98 262 98q151 0 262 -100q1 0 -2 -3.5t-6 -7.5l-4 -3q-108 94 -250 94q-143 0 -248 -94zM852 492q-100 0 -170 61l14 16q70 -57 156 -57q87 0 154 57l14 -14q-73 -63 -168 -63zM852 584
q-61 0 -109 39l15 16q47 -35 94 -35q51 0 92 35l14 -16q-45 -39 -106 -39zM852 625q-43 0 -82 28l14 15q36 -25 68 -25q34 0 66 25l14 -15q-36 -28 -80 -28zM698 950l-14 15q73 63 168 63q98 0 168 -61l-14 -17q-68 58 -154 58q-87 0 -154 -58zM655 997l-14 17q91 78 211 78
q119 0 209 -80l-12 -15q-83 74 -197 74q-110 0 -197 -74zM1249 1223q-166 153 -397 153q-227 0 -397 -151l-15 14q179 158 412 158t412 -158zM352 1339l-14 17q104 95 236 146.5t278 51.5q145 0 278 -52t238 -146l-14 -17q-102 93 -231 144t-271 51t-270 -51t-230 -144z
M1057 594l-15 14q52 69 52 152t-54 153l17 15q57 -72 57 -168q0 -97 -57 -166z" />
    <glyph glyph-name="registered" unicode="&#xae;" horiz-adv-x="1632" 
d="M815 -25q-149 0 -274 40t-214 111.5t-151.5 170.5t-92.5 215.5t-30 247.5q0 164 48.5 305t141 248.5t240 169t332.5 61.5t331.5 -61.5t239 -169t141 -248.5t48.5 -305t-48.5 -305t-141 -249t-239 -169.5t-331.5 -61.5zM815 115q132 0 236.5 34t174 92.5t115.5 141.5
t66 176t20 201t-20 201t-66 176t-115.5 141.5t-174 92.5t-236.5 34t-237.5 -34t-175 -92.5t-115.5 -141.5t-66 -176t-20 -201t20 -201t66 -176t115.5 -141.5t175 -92.5t237.5 -34zM981 313l-143 269h-168v-269h-240v891h449q81 0 143 -10.5t101.5 -32.5t65.5 -47.5
t38.5 -63.5t17 -72t4.5 -81q0 -49 -5.5 -86t-22 -78t-51.5 -71.5t-89 -49.5l160 -299h-260zM670 786h200q79 0 105 20.5t26 82.5q0 63 -25.5 82.5t-107.5 19.5h-198v-205z" />
    <glyph glyph-name="macron" unicode="&#xaf;" 
d="M254 1280l68 322h921l-67 -322h-922z" />
    <glyph glyph-name="macron" unicode="&#x2c9;" 
d="M254 1280l68 322h921l-67 -322h-922z" />
    <glyph glyph-name="degree" unicode="&#xb0;" horiz-adv-x="1165" 
d="M586 535q-124 0 -218.5 34.5t-149 94.5t-81 134t-26.5 160q0 255 165 419.5t441 164.5q119 0 209 -35.5t143 -97.5t79 -137t26 -162q0 -251 -164.5 -413t-423.5 -162zM614 825q112 0 171 68t59 178q0 70 -42 114t-138 44q-112 0 -170 -69.5t-58 -178.5q0 -70 41.5 -113
t136.5 -43z" />
    <glyph glyph-name="plusminus" unicode="&#xb1;" horiz-adv-x="2375" 
d="M774 -338l248 1167h-336l-248 -1167h-405l248 1167h-222l74 345h219l15 63q32 151 93.5 236.5t170.5 125t289 39.5q78 0 149 -6l-70 -329h-71q-85 0 -118.5 -23t-45.5 -82l-6 -24h336l14 63q32 151 93.5 236.5t170.5 125t289 39.5q79 0 149 -6l-69 -329h-72
q-85 0 -118.5 -23t-45.5 -82l-6 -24h215l-74 -345h-213l-247 -1167h-406zM1950 -4q-188 0 -253.5 103t-15.5 337l246 1153h406l-244 -1147q-14 -63 2 -83.5t80 -20.5h35l-72 -334q-62 -8 -184 -8z" />
    <glyph glyph-name="twosuperior" unicode="&#xb2;" horiz-adv-x="1116" 
d="M63 483l46 215l387 263q159 108 196 146.5t37 98.5q0 36 -35.5 51t-109.5 15q-50 0 -127 -13t-127 -32l-88 237q174 70 372 70q443 0 443 -266q0 -64 -13 -114.5t-33 -87.5t-64.5 -77.5t-86.5 -70.5t-119 -80l-163 -107h368l-49 -248h-834z" />
    <glyph glyph-name="threesuperior" unicode="&#xb3;" horiz-adv-x="1116" 
d="M547 467q-332 0 -504 135l174 217q144 -108 322 -108q137 0 137 114q0 43 -34 62.5t-112 19.5h-188l51 242h219q64 0 91.5 14t27.5 60q0 32 -30.5 45.5t-102.5 13.5q-60 0 -135.5 -13.5t-120.5 -35.5l-109 227q71 40 194.5 57t238.5 17q188 0 292.5 -59.5t104.5 -169.5
q0 -122 -45.5 -185.5t-124.5 -91.5q98 -46 98 -199q0 -362 -444 -362z" />
    <glyph glyph-name="acute" unicode="&#xb4;" 
d="M471 1280l365 406h497l-495 -406h-367z" />
    <glyph glyph-name="mu" unicode="&#xb5;" horiz-adv-x="1353" 
d="M-121 -338l322 1512h405l-123 -580q-25 -120 -22 -161q7 -77 89 -94q27 -5 62 -5q53 0 86 11t53.5 45.5t28.5 60.5t22 93q2 9 3 13l131 617h399l-135 -633q-36 -168 -86.5 -276.5t-127.5 -173t-175 -89.5t-242 -25q-129 0 -207 48l-77 -363h-406z" />
    <glyph glyph-name="mu" unicode="&#x3bc;" horiz-adv-x="1353" 
d="M-121 -338l322 1512h405l-123 -580q-25 -120 -22 -161q7 -77 89 -94q27 -5 62 -5q53 0 86 11t53.5 45.5t28.5 60.5t22 93q2 9 3 13l131 617h399l-135 -633q-36 -168 -86.5 -276.5t-127.5 -173t-175 -89.5t-242 -25q-129 0 -207 48l-77 -363h-406z" />
    <glyph glyph-name="paragraph" unicode="&#xb6;" horiz-adv-x="1452" 
d="M264 0l103 485q-143 51 -203 145.5t-60 225.5q0 160 35.5 278t116 206.5t219 133t336.5 44.5h662l-324 -1518h-381l92 434h-123l-92 -434h-381zM754 754h174l88 413h-260q-116 0 -175 -61.5t-59 -196.5q0 -80 54 -117.5t178 -37.5z" />
    <glyph glyph-name="periodcentered" unicode="&#xb7;" horiz-adv-x="657" 
d="M55 561l97 455h458l-96 -455h-459z" />
    <glyph glyph-name="periodcentered" unicode="&#x2219;" horiz-adv-x="657" 
d="M55 561l97 455h458l-96 -455h-459z" />
    <glyph glyph-name="cedilla" unicode="&#xb8;" 
d="M387 -537q-202 0 -344 91l135 182q105 -68 203 -68q18 0 27.5 0.5t24.5 4.5t23 11t14.5 22t6.5 36q0 29 -28.5 44.5t-65 16t-70.5 -1.5l-59 41l74 172h219l-39 -98q40 -4 68.5 -8.5t61 -16t53 -29t34.5 -47t14 -69.5q0 -56 -13.5 -101t-33.5 -74t-52 -50.5t-60.5 -32
t-67.5 -16.5t-65 -7.5t-60 -1.5z" />
    <glyph glyph-name="onesuperior" unicode="&#xb9;" horiz-adv-x="827" 
d="M221 483l164 766h-164l55 269h492l-221 -1035h-326z" />
    <glyph glyph-name="ordmasculine" unicode="&#xba;" horiz-adv-x="1230" 
d="M657 553q-501 0 -501 387q3 276 147.5 439t382.5 163q504 0 504 -389q0 -278 -144 -439t-389 -161zM655 834q94 0 144.5 71.5t50.5 198.5q0 66 -36.5 102.5t-125.5 36.5q-92 0 -143 -74.5t-51 -201.5q0 -64 36.5 -98.5t124.5 -34.5zM61 197l62 284h866l-61 -284h-867z
" />
    <glyph glyph-name="guillemotright" unicode="&#xbb;" horiz-adv-x="1662" 
d="M111 0l401 588l-152 586h353l184 -586l-434 -588h-352zM629 0l401 588l-151 586h354l184 -586l-434 -588h-354z" />
    <glyph glyph-name="onequarter" unicode="&#xbc;" horiz-adv-x="2293" 
d="M1153 170l47 219l586 645h344l-576 -628h158l100 208h234l-45 -208h151l-51 -236h-149l-35 -170h-295l35 170h-504zM287 0l1173 1518h352l-1171 -1518h-354zM166 485l164 764h-166l57 269h492l-221 -1033h-326z" />
    <glyph glyph-name="onehalf" unicode="&#xbd;" horiz-adv-x="2400" 
d="M166 485l164 764h-166l57 269h492l-221 -1033h-326zM287 0l1173 1518h352l-1171 -1518h-354zM1290 0l45 215l387 262q159 108 196.5 147t37.5 99q0 36 -35.5 50.5t-110.5 14.5q-50 0 -127 -13t-127 -32l-88 238q174 70 373 70q208 0 325.5 -70t117.5 -197
q0 -64 -13 -114.5t-33 -87.5t-64.5 -77.5t-86.5 -70.5t-119 -80l-164 -106h369l-49 -248h-834z" />
    <glyph glyph-name="threequarters" unicode="&#xbe;" horiz-adv-x="2631" 
d="M547 469q-332 0 -504 135l174 217q144 -108 322 -108q137 0 137 114q0 43 -34 62.5t-112 19.5h-188l51 242h219q64 0 91.5 14t27.5 60q0 32 -30.5 45.5t-102.5 13.5q-60 0 -135.5 -13.5t-120.5 -35.5l-109 227q71 40 194.5 57t238.5 17q188 0 292.5 -59.5t104.5 -169.5
q0 -122 -45.5 -185.5t-124.5 -91.5q98 -46 98 -199q0 -362 -444 -362zM1493 170l47 219l586 645h344l-576 -628h158l100 208h234l-45 -208h151l-51 -236h-149l-35 -170h-295l35 170h-504zM627 0l1173 1518h352l-1173 -1518h-352z" />
    <glyph glyph-name="questiondown" unicode="&#xbf;" horiz-adv-x="1476" 
d="M618 -25q-598 0 -598 363q0 209 85.5 315t291.5 164q56 16 92 28.5t63.5 29t42.5 30.5t25.5 40t15 49t9.5 65h395q-15 -120 -35.5 -192.5t-64.5 -127.5t-109 -86.5t-174 -58.5q-128 -31 -165 -59t-37 -99q0 -30 18 -50.5t74.5 -35t152.5 -14.5q193 3 394 70l125 -334
q-113 -50 -283 -73.5t-318 -23.5zM631 1137l82 381h458l-81 -381h-459z" />
    <glyph glyph-name="Agrave" unicode="&#xc0;" horiz-adv-x="1624" 
d="M-143 0l907 1528h412l251 -1528h-421l-31 197h-561l-109 -197h-448zM608 545h314l-64 444zM876 1595l-323 406h473l192 -406h-342z" />
    <glyph glyph-name="Aacute" unicode="&#xc1;" horiz-adv-x="1624" 
d="M-143 0l907 1528h412l251 -1528h-421l-31 197h-561l-109 -197h-448zM608 545h314l-64 444zM743 1595l365 406h497l-495 -406h-367z" />
    <glyph glyph-name="Acircumflex" unicode="&#xc2;" horiz-adv-x="1624" 
d="M-143 0l907 1528h412l251 -1528h-421l-31 197h-561l-109 -197h-448zM608 545h314l-64 444zM460 1595l406 406h414l233 -406h-369l-122 154l-189 -154h-373z" />
    <glyph glyph-name="Atilde" unicode="&#xc3;" horiz-adv-x="1624" 
d="M-143 0l907 1528h412l251 -1528h-421l-31 197h-561l-109 -197h-448zM608 545h314l-64 444zM1210 1593q-73 0 -146 29t-132.5 57.5t-100.5 28.5q-76 0 -162 -99l-196 189q184 221 372 221q73 0 146 -29t132.5 -57.5t100.5 -28.5q76 0 162 99l197 -189q-184 -221 -373 -221
z" />
    <glyph glyph-name="Adieresis" unicode="&#xc4;" horiz-adv-x="1624" 
d="M-143 0l907 1528h412l251 -1528h-421l-31 197h-561l-109 -197h-448zM608 545h314l-64 444zM565 1595l67 317h365l-68 -317h-364zM1046 1595l68 317h364l-67 -317h-365z" />
    <glyph glyph-name="Aring" unicode="&#xc5;" horiz-adv-x="1624" 
d="M-143 0l852 1434q-54 66 -54 163q0 177 96.5 283.5t258.5 106.5q147 0 223 -77t76 -194q0 -193 -117 -293l235 -1423h-421l-31 197h-561l-109 -197h-448zM608 545h314l-64 444zM965 1532q68 0 106.5 43t38.5 117q0 100 -115 100q-64 0 -101.5 -46t-37.5 -120
q0 -42 26.5 -68t82.5 -26z" />
    <glyph glyph-name="AE" unicode="&#xc6;" horiz-adv-x="2392" 
d="M-176 0l1233 1518h1386l-82 -383h-743l-39 -185h723l-80 -370h-723l-45 -213h752l-78 -367h-1157l45 217h-561l-176 -217h-455zM733 559h357l124 592z" />
    <glyph glyph-name="Ccedilla" unicode="&#xc7;" horiz-adv-x="1562" 
d="M563 -537q-202 0 -344 91l135 182q105 -68 203 -68q18 0 27.5 0.5t24.5 4.5t23 11t14.5 22t6.5 36q0 29 -28.5 44.5t-65 16t-70.5 -1.5l-59 41l70 162q-459 100 -459 567q0 131 29 267q35 166 99.5 292t143 203t180.5 125t201.5 66t216.5 18q121 0 222 -15.5t170 -39
t126.5 -58.5t92 -67t65.5 -72l-346 -280q-110 143 -336 143q-171 0 -269.5 -87t-139.5 -280q-19 -87 -19 -155q0 -132 78 -203.5t260 -71.5q189 0 344 125l240 -301q-121 -105 -267.5 -154t-355.5 -49q-37 0 -67 3l-25 -64q40 -4 68.5 -8.5t61 -16t53 -29t34.5 -47t14 -69.5
q0 -56 -13.5 -101t-33.5 -74t-52 -50.5t-60.5 -32t-67.5 -16.5t-65 -7.5t-60 -1.5z" />
    <glyph glyph-name="Egrave" unicode="&#xc8;" horiz-adv-x="1437" 
d="M-23 0l324 1518h1188l-82 -383h-764l-39 -185h744l-80 -370h-744l-45 -213h772l-77 -367h-1197zM784 1595l-323 406h473l192 -406h-342z" />
    <glyph glyph-name="Eacute" unicode="&#xc9;" horiz-adv-x="1437" 
d="M-23 0l324 1518h1188l-82 -383h-764l-39 -185h744l-80 -370h-744l-45 -213h772l-77 -367h-1197zM651 1595l365 406h497l-495 -406h-367z" />
    <glyph glyph-name="Ecircumflex" unicode="&#xca;" horiz-adv-x="1437" 
d="M-23 0l324 1518h1188l-82 -383h-764l-39 -185h744l-80 -370h-744l-45 -213h772l-77 -367h-1197zM368 1595l406 406h414l233 -406h-369l-122 154l-189 -154h-373z" />
    <glyph glyph-name="Edieresis" unicode="&#xcb;" horiz-adv-x="1437" 
d="M-23 0l324 1518h1188l-82 -383h-764l-39 -185h744l-80 -370h-744l-45 -213h772l-77 -367h-1197zM473 1595l67 317h365l-68 -317h-364zM954 1595l68 317h364l-67 -317h-365z" />
    <glyph glyph-name="Igrave" unicode="&#xcc;" horiz-adv-x="751" 
d="M393 1595l-274 406h473l143 -406h-342zM2 0l324 1518h424l-324 -1518h-424z" />
    <glyph glyph-name="Iacute" unicode="&#xcd;" horiz-adv-x="751" 
d="M365 1595l309 406h497l-440 -406h-366zM2 0l324 1518h424l-324 -1518h-424z" />
    <glyph glyph-name="Icircumflex" unicode="&#xce;" horiz-adv-x="751" 
d="M2 0l324 1518h424l-324 -1518h-424zM26 1595l406 406h414l233 -406h-369l-122 154l-189 -154h-373z" />
    <glyph glyph-name="Idieresis" unicode="&#xcf;" horiz-adv-x="751" 
d="M2 0l324 1518h424l-324 -1518h-424zM131 1595l67 317h365l-68 -317h-364zM612 1595l68 317h364l-67 -317h-365z" />
    <glyph glyph-name="Eth" unicode="&#xd0;" horiz-adv-x="1617" 
d="M-37 590l72 334h139l127 594h406q466 0 670 -129.5t204 -425.5q0 -140 -35 -295q-21 -99 -49.5 -181t-61 -146t-74.5 -114t-85 -85.5t-98.5 -61t-108.5 -41t-122 -24.5t-131.5 -12t-143.5 -3h-695l125 590h-139zM479 369h203q79 0 135 6t101.5 22t75 39.5t53.5 65
t39.5 91.5t31.5 124q25 125 25 182q0 84 -37 134t-134.5 77t-266.5 27h-62l-45 -213h250l-72 -334h-250z" />
    <glyph glyph-name="Ntilde" unicode="&#xd1;" horiz-adv-x="1689" 
d="M-23 0l324 1518h455l372 -834l179 834h405l-323 -1518h-392l-419 918l-195 -918h-406zM1243 1593q-73 0 -146 29t-132.5 57.5t-100.5 28.5q-76 0 -162 -99l-196 189q184 221 372 221q73 0 146 -29t132.5 -57.5t100.5 -28.5q76 0 162 99l197 -189q-184 -221 -373 -221z
" />
    <glyph glyph-name="Ograve" unicode="&#xd2;" horiz-adv-x="1746" 
d="M815 -25q-237 0 -408 68t-267.5 210t-96.5 349q0 112 27 244q26 122 68.5 222t94.5 171.5t118.5 125.5t134 87t147 54t152.5 28.5t155 7.5q174 0 313.5 -38t240.5 -113t155.5 -193.5t54.5 -273.5q0 -111 -27 -240q-151 -709 -862 -709zM821 348q189 0 287.5 91t136.5 276
q19 101 19 149q0 65 -17.5 115.5t-56 90.5t-107.5 61.5t-165 21.5q-189 0 -286.5 -88t-135.5 -272q-17 -87 -17 -150q0 -295 342 -295zM938 1595l-323 406h473l192 -406h-342z" />
    <glyph glyph-name="Oacute" unicode="&#xd3;" horiz-adv-x="1746" 
d="M815 -25q-237 0 -408 68t-267.5 210t-96.5 349q0 112 27 244q26 122 68.5 222t94.5 171.5t118.5 125.5t134 87t147 54t152.5 28.5t155 7.5q174 0 313.5 -38t240.5 -113t155.5 -193.5t54.5 -273.5q0 -111 -27 -240q-151 -709 -862 -709zM821 348q189 0 287.5 91t136.5 276
q19 101 19 149q0 65 -17.5 115.5t-56 90.5t-107.5 61.5t-165 21.5q-189 0 -286.5 -88t-135.5 -272q-17 -87 -17 -150q0 -295 342 -295zM805 1595l365 406h497l-495 -406h-367z" />
    <glyph glyph-name="Ocircumflex" unicode="&#xd4;" horiz-adv-x="1746" 
d="M815 -25q-237 0 -408 68t-267.5 210t-96.5 349q0 112 27 244q26 122 68.5 222t94.5 171.5t118.5 125.5t134 87t147 54t152.5 28.5t155 7.5q174 0 313.5 -38t240.5 -113t155.5 -193.5t54.5 -273.5q0 -111 -27 -240q-151 -709 -862 -709zM821 348q189 0 287.5 91t136.5 276
q19 101 19 149q0 65 -17.5 115.5t-56 90.5t-107.5 61.5t-165 21.5q-189 0 -286.5 -88t-135.5 -272q-17 -87 -17 -150q0 -295 342 -295zM522 1595l406 406h414l233 -406h-369l-122 154l-189 -154h-373z" />
    <glyph glyph-name="Otilde" unicode="&#xd5;" horiz-adv-x="1746" 
d="M815 -25q-237 0 -408 68t-267.5 210t-96.5 349q0 112 27 244q26 122 68.5 222t94.5 171.5t118.5 125.5t134 87t147 54t152.5 28.5t155 7.5q174 0 313.5 -38t240.5 -113t155.5 -193.5t54.5 -273.5q0 -111 -27 -240q-151 -709 -862 -709zM821 348q189 0 287.5 91t136.5 276
q19 101 19 149q0 65 -17.5 115.5t-56 90.5t-107.5 61.5t-165 21.5q-189 0 -286.5 -88t-135.5 -272q-17 -87 -17 -150q0 -295 342 -295zM1272 1593q-73 0 -146 29t-132.5 57.5t-100.5 28.5q-76 0 -162 -99l-196 189q184 221 372 221q73 0 146 -29t132.5 -57.5t100.5 -28.5
q76 0 162 99l197 -189q-184 -221 -373 -221z" />
    <glyph glyph-name="Odieresis" unicode="&#xd6;" horiz-adv-x="1746" 
d="M815 -25q-237 0 -408 68t-267.5 210t-96.5 349q0 112 27 244q26 122 68.5 222t94.5 171.5t118.5 125.5t134 87t147 54t152.5 28.5t155 7.5q174 0 313.5 -38t240.5 -113t155.5 -193.5t54.5 -273.5q0 -111 -27 -240q-151 -709 -862 -709zM821 348q189 0 287.5 91t136.5 276
q19 101 19 149q0 65 -17.5 115.5t-56 90.5t-107.5 61.5t-165 21.5q-189 0 -286.5 -88t-135.5 -272q-17 -87 -17 -150q0 -295 342 -295zM627 1595l67 317h365l-68 -317h-364zM1108 1595l68 317h364l-67 -317h-365z" />
    <glyph glyph-name="multiply" unicode="&#xd7;" horiz-adv-x="1507" 
d="M332 170l-193 256l359 295l-234 293l305 256l232 -295l356 295l193 -256l-357 -293l232 -293l-301 -256l-232 295z" />
    <glyph glyph-name="Oslash" unicode="&#xd8;" horiz-adv-x="1746" 
d="M815 -25q-204 0 -371 52l-90 -111h-340l199 244q-170 156 -170 442q-3 99 27 244q26 122 68.5 222t94.5 171.5t118.5 125.5t134 87t147 54t152.5 28.5t155 7.5q211 0 360 -51l93 113h338l-197 -244q170 -156 170 -436q0 -111 -27 -240q-151 -709 -862 -709zM819 328
q198 0 301.5 95.5t143.5 289.5q20 110 20 157q0 100 -37 162l-565 -692q59 -12 137 -12zM459 637q0 -101 33 -160l557 684q-60 13 -129 13q-198 0 -300.5 -93t-142.5 -286q-18 -95 -18 -158z" />
    <glyph glyph-name="Ugrave" unicode="&#xd9;" horiz-adv-x="1671" 
d="M739 -31q-132 0 -236.5 18t-175.5 51t-121 75.5t-77 97t-39 108.5t-12 117q0 96 24 213l187 869h426l-178 -844q-21 -96 -21 -150q0 -91 60 -135.5t210 -44.5q82 0 135 14t89 50t56 87.5t38 137.5l188 885h412l-207 -965q-15 -70 -30.5 -122.5t-44 -117t-64.5 -111
t-93.5 -93t-129.5 -75.5t-173 -47t-223 -18zM901 1595l-323 406h473l192 -406h-342z" />
    <glyph glyph-name="Uacute" unicode="&#xda;" horiz-adv-x="1671" 
d="M739 -31q-132 0 -236.5 18t-175.5 51t-121 75.5t-77 97t-39 108.5t-12 117q0 96 24 213l187 869h426l-178 -844q-21 -96 -21 -150q0 -91 60 -135.5t210 -44.5q82 0 135 14t89 50t56 87.5t38 137.5l188 885h412l-207 -965q-15 -70 -30.5 -122.5t-44 -117t-64.5 -111
t-93.5 -93t-129.5 -75.5t-173 -47t-223 -18zM768 1595l365 406h497l-495 -406h-367z" />
    <glyph glyph-name="Ucircumflex" unicode="&#xdb;" horiz-adv-x="1671" 
d="M739 -31q-132 0 -236.5 18t-175.5 51t-121 75.5t-77 97t-39 108.5t-12 117q0 96 24 213l187 869h426l-178 -844q-21 -96 -21 -150q0 -91 60 -135.5t210 -44.5q82 0 135 14t89 50t56 87.5t38 137.5l188 885h412l-207 -965q-15 -70 -30.5 -122.5t-44 -117t-64.5 -111
t-93.5 -93t-129.5 -75.5t-173 -47t-223 -18zM485 1595l406 406h414l233 -406h-369l-122 154l-189 -154h-373z" />
    <glyph glyph-name="Udieresis" unicode="&#xdc;" horiz-adv-x="1671" 
d="M739 -31q-132 0 -236.5 18t-175.5 51t-121 75.5t-77 97t-39 108.5t-12 117q0 96 24 213l187 869h426l-178 -844q-21 -96 -21 -150q0 -91 60 -135.5t210 -44.5q82 0 135 14t89 50t56 87.5t38 137.5l188 885h412l-207 -965q-15 -70 -30.5 -122.5t-44 -117t-64.5 -111
t-93.5 -93t-129.5 -75.5t-173 -47t-223 -18zM590 1595l67 317h365l-68 -317h-364zM1071 1595l68 317h364l-67 -317h-365z" />
    <glyph glyph-name="Yacute" unicode="&#xdd;" horiz-adv-x="1579" 
d="M414 0l110 526l-356 992h442l203 -603l453 603h467l-787 -998l-108 -520h-424zM721 1595l365 406h497l-495 -406h-367z" />
    <glyph glyph-name="Thorn" unicode="&#xde;" horiz-adv-x="1570" 
d="M-23 0l326 1518h412l-37 -179h235q633 0 633 -421q0 -118 -21.5 -217t-72.5 -186.5t-128.5 -148t-196 -95.5t-269.5 -35h-416l-51 -236h-414zM516 586h330q129 0 192.5 55t63.5 186q0 77 -56.5 114.5t-191.5 37.5h-254z" />
    <glyph glyph-name="germandbls" unicode="&#xdf;" horiz-adv-x="1423" 
d="M-121 -338l303 1419q19 91 46.5 164t76 143.5t113.5 118t162.5 76.5t220.5 29q530 0 530 -357q0 -108 -24 -196t-76 -152t-127 -88q105 -32 158 -101t53 -192t-26 -213.5t-74.5 -150.5t-127 -96t-174 -51t-223.5 -15h-231l73 344h134q140 0 198 42t58 142
q0 40 -25.5 62.5t-94 34.5t-192.5 12l60 274q141 -1 195.5 44.5t54.5 154.5q0 107 -160 107q-81 0 -124.5 -44.5t-66.5 -150.5l-288 -1360h-402z" />
    <glyph glyph-name="agrave" unicode="&#xe0;" horiz-adv-x="1327" 
d="M406 -18q-130 0 -220.5 24.5t-141.5 72.5t-73 110.5t-22 146.5q0 97 34 170.5t91 119t141 73.5t173 38.5t198 10.5h198q1 5 4 18t3 20q0 32 -37 48t-148 16q-74 0 -161.5 -18t-145.5 -46l-141 301q81 48 220.5 80.5t295.5 32.5q191 0 305.5 -33t160 -97t49 -158.5
t-27.5 -217.5l-57 -270q-14 -52 -2 -71t76 -19l-72 -330q-48 -10 -174 -10q-90 0 -137 20.5t-72 85.5q-94 -118 -317 -118zM524 307q101 0 138.5 28t60.5 130l8 39h-192q-185 0 -185 -111q0 -46 38.5 -66t131.5 -20zM663 1280l-323 406h473l192 -406h-342z" />
    <glyph glyph-name="aacute" unicode="&#xe1;" horiz-adv-x="1327" 
d="M406 -18q-130 0 -220.5 24.5t-141.5 72.5t-73 110.5t-22 146.5q0 97 34 170.5t91 119t141 73.5t173 38.5t198 10.5h198q1 5 4 18t3 20q0 32 -37 48t-148 16q-74 0 -161.5 -18t-145.5 -46l-141 301q81 48 220.5 80.5t295.5 32.5q191 0 305.5 -33t160 -97t49 -158.5
t-27.5 -217.5l-57 -270q-14 -52 -2 -71t76 -19l-72 -330q-48 -10 -174 -10q-90 0 -137 20.5t-72 85.5q-94 -118 -317 -118zM524 307q101 0 138.5 28t60.5 130l8 39h-192q-185 0 -185 -111q0 -46 38.5 -66t131.5 -20zM530 1280l365 406h497l-495 -406h-367z" />
    <glyph glyph-name="acircumflex" unicode="&#xe2;" horiz-adv-x="1327" 
d="M406 -18q-130 0 -220.5 24.5t-141.5 72.5t-73 110.5t-22 146.5q0 97 34 170.5t91 119t141 73.5t173 38.5t198 10.5h198q1 5 4 18t3 20q0 32 -37 48t-148 16q-74 0 -161.5 -18t-145.5 -46l-141 301q81 48 220.5 80.5t295.5 32.5q191 0 305.5 -33t160 -97t49 -158.5
t-27.5 -217.5l-57 -270q-14 -52 -2 -71t76 -19l-72 -330q-48 -10 -174 -10q-90 0 -137 20.5t-72 85.5q-94 -118 -317 -118zM524 307q101 0 138.5 28t60.5 130l8 39h-192q-185 0 -185 -111q0 -46 38.5 -66t131.5 -20zM247 1280l406 406h414l233 -406h-369l-122 154l-189 -154
h-373z" />
    <glyph glyph-name="atilde" unicode="&#xe3;" horiz-adv-x="1327" 
d="M406 -18q-130 0 -220.5 24.5t-141.5 72.5t-73 110.5t-22 146.5q0 97 34 170.5t91 119t141 73.5t173 38.5t198 10.5h198q1 5 4 18t3 20q0 32 -37 48t-148 16q-74 0 -161.5 -18t-145.5 -46l-141 301q81 48 220.5 80.5t295.5 32.5q191 0 305.5 -33t160 -97t49 -158.5
t-27.5 -217.5l-57 -270q-14 -52 -2 -71t76 -19l-72 -330q-48 -10 -174 -10q-90 0 -137 20.5t-72 85.5q-94 -118 -317 -118zM524 307q101 0 138.5 28t60.5 130l8 39h-192q-185 0 -185 -111q0 -46 38.5 -66t131.5 -20zM997 1278q-73 0 -146 29t-132.5 57.5t-100.5 28.5
q-76 0 -162 -99l-196 189q184 221 372 221q73 0 146 -29t132.5 -57.5t100.5 -28.5q76 0 162 99l197 -189q-184 -221 -373 -221z" />
    <glyph glyph-name="adieresis" unicode="&#xe4;" horiz-adv-x="1327" 
d="M406 -18q-130 0 -220.5 24.5t-141.5 72.5t-73 110.5t-22 146.5q0 97 34 170.5t91 119t141 73.5t173 38.5t198 10.5h198q1 5 4 18t3 20q0 32 -37 48t-148 16q-74 0 -161.5 -18t-145.5 -46l-141 301q81 48 220.5 80.5t295.5 32.5q191 0 305.5 -33t160 -97t49 -158.5
t-27.5 -217.5l-57 -270q-14 -52 -2 -71t76 -19l-72 -330q-48 -10 -174 -10q-90 0 -137 20.5t-72 85.5q-94 -118 -317 -118zM524 307q101 0 138.5 28t60.5 130l8 39h-192q-185 0 -185 -111q0 -46 38.5 -66t131.5 -20zM352 1280l67 317h365l-68 -317h-364zM833 1280l68 317
h364l-67 -317h-365z" />
    <glyph glyph-name="aring" unicode="&#xe5;" horiz-adv-x="1327" 
d="M406 -18q-130 0 -220.5 24.5t-141.5 72.5t-73 110.5t-22 146.5q0 97 34 170.5t91 119t141 73.5t173 38.5t198 10.5h198q1 5 4 18t3 20q0 32 -37 48t-148 16q-74 0 -161.5 -18t-145.5 -46l-141 301q81 48 220.5 80.5t295.5 32.5q191 0 305.5 -33t160 -97t49 -158.5
t-27.5 -217.5l-57 -270q-14 -52 -2 -71t76 -19l-72 -330q-48 -10 -174 -10q-90 0 -137 20.5t-72 85.5q-94 -118 -317 -118zM524 307q101 0 138.5 28t60.5 130l8 39h-192q-185 0 -185 -111q0 -46 38.5 -66t131.5 -20zM807 1257q-149 0 -223 72.5t-74 186.5q0 177 96 283
t258 106q147 0 223 -77t76 -194q0 -175 -98 -276t-258 -101zM819 1450q68 0 106.5 43t38.5 117q0 100 -114 100q-64 0 -102 -46t-38 -120q0 -42 26.5 -68t82.5 -26z" />
    <glyph glyph-name="ae" unicode="&#xe6;" horiz-adv-x="1964" 
d="M1274 -23q-305 0 -430 142q-63 -65 -161.5 -101t-276.5 -36q-109 0 -190 17.5t-131.5 47.5t-81.5 76t-42.5 97t-11.5 116q0 74 20 134t53 102.5t82.5 74t103 50.5t120 31t127.5 16t131 4h198q1 5 4 18t3 20q0 31 -39.5 47.5t-145.5 16.5q-72 0 -159.5 -18t-145.5 -46
l-143 301q82 48 218 80.5t298 32.5q274 0 387 -74q139 74 342 74q136 0 235 -30t154 -84t80.5 -121t25.5 -150q0 -165 -49 -366h-751q20 -146 227 -146q88 0 178.5 22.5t145.5 59.5l157 -279q-114 -76 -246 -102.5t-286 -26.5zM524 307q101 0 138.5 28t60.5 130l8 39h-192
q-185 0 -185 -111q0 -42 37 -64t133 -22zM1356 864q-91 0 -142.5 -44t-80.5 -132h387q4 36 4 53q0 60 -36.5 91.5t-131.5 31.5z" />
    <glyph glyph-name="ccedilla" unicode="&#xe7;" horiz-adv-x="1185" 
d="M375 -537q-202 0 -344 91l135 182q105 -68 203 -68q18 0 27.5 0.5t24.5 4.5t23 11t14.5 22t6.5 36q0 29 -28.5 44.5t-65 16t-70.5 -1.5l-59 41l71 170q-315 87 -315 430q0 88 22 213q18 97 50.5 176.5t87 149.5t128 117.5t178 74.5t234.5 27q195 0 314 -53.5t198 -157.5
l-331 -262q-22 31 -42 49.5t-66.5 35.5t-111.5 17q-99 0 -154 -55.5t-77 -179.5q-12 -66 -12 -109q0 -77 43 -119t147 -42q61 0 109 16t114 70l213 -254q-206 -174 -473 -174q-33 0 -47 2l-26 -68q40 -4 68.5 -8.5t61 -16t53 -29t34.5 -47t14 -69.5q0 -56 -13.5 -101
t-33.5 -74t-52 -50.5t-60.5 -32t-67.5 -16.5t-65 -7.5t-60 -1.5z" />
    <glyph glyph-name="egrave" unicode="&#xe8;" horiz-adv-x="1253" 
d="M563 -23q-565 0 -565 467q0 86 22 211q53 264 215 404.5t457 140.5q135 0 233.5 -29.5t154.5 -83t82 -121t26 -151.5q0 -165 -49 -366h-752q20 -146 227 -146q88 0 178.5 22.5t145.5 59.5l158 -279q-114 -76 -246.5 -102.5t-286.5 -26.5zM645 864q-91 0 -142.5 -44
t-80.5 -132h387q4 36 4 53q0 60 -36.5 91.5t-131.5 31.5zM627 1280l-323 406h473l192 -406h-342z" />
    <glyph glyph-name="eacute" unicode="&#xe9;" horiz-adv-x="1253" 
d="M563 -23q-565 0 -565 467q0 86 22 211q53 264 215 404.5t457 140.5q135 0 233.5 -29.5t154.5 -83t82 -121t26 -151.5q0 -165 -49 -366h-752q20 -146 227 -146q88 0 178.5 22.5t145.5 59.5l158 -279q-114 -76 -246.5 -102.5t-286.5 -26.5zM645 864q-91 0 -142.5 -44
t-80.5 -132h387q4 36 4 53q0 60 -36.5 91.5t-131.5 31.5zM494 1280l365 406h497l-495 -406h-367z" />
    <glyph glyph-name="ecircumflex" unicode="&#xea;" horiz-adv-x="1253" 
d="M563 -23q-565 0 -565 467q0 86 22 211q53 264 215 404.5t457 140.5q135 0 233.5 -29.5t154.5 -83t82 -121t26 -151.5q0 -165 -49 -366h-752q20 -146 227 -146q88 0 178.5 22.5t145.5 59.5l158 -279q-114 -76 -246.5 -102.5t-286.5 -26.5zM645 864q-91 0 -142.5 -44
t-80.5 -132h387q4 36 4 53q0 60 -36.5 91.5t-131.5 31.5zM211 1280l406 406h414l233 -406h-369l-122 154l-189 -154h-373z" />
    <glyph glyph-name="edieresis" unicode="&#xeb;" horiz-adv-x="1253" 
d="M563 -23q-565 0 -565 467q0 86 22 211q53 264 215 404.5t457 140.5q135 0 233.5 -29.5t154.5 -83t82 -121t26 -151.5q0 -165 -49 -366h-752q20 -146 227 -146q88 0 178.5 22.5t145.5 59.5l158 -279q-114 -76 -246.5 -102.5t-286.5 -26.5zM645 864q-91 0 -142.5 -44
t-80.5 -132h387q4 36 4 53q0 60 -36.5 91.5t-131.5 31.5zM316 1280l67 317h365l-68 -317h-364zM797 1280l68 317h364l-67 -317h-365z" />
    <glyph glyph-name="igrave" unicode="&#xec;" horiz-adv-x="657" 
d="M260 1280l-256 406h473l125 -406h-342zM-37 0l250 1174h405l-249 -1174h-406z" />
    <glyph glyph-name="iacute" unicode="&#xed;" horiz-adv-x="657" 
d="M242 1280l317 406h498l-449 -406h-366zM-37 0l250 1174h405l-249 -1174h-406z" />
    <glyph glyph-name="icircumflex" unicode="&#xee;" horiz-adv-x="657" 
d="M-47 1280l364 406h414l193 -406h-369l-82 154l-147 -154h-373zM-37 0l250 1174h405l-249 -1174h-406z" />
    <glyph glyph-name="idieresis" unicode="&#xef;" horiz-adv-x="657" 
d="M57 1280l68 317h334l-68 -317h-334zM487 1280l68 317h334l-68 -317h-334zM-37 0l250 1174h405l-249 -1174h-406z" />
    <glyph glyph-name="eth" unicode="&#xf0;" horiz-adv-x="1349" 
d="M616 1116l54 258l100 17q-24 54 -65 135l425 121q41 -65 80 -183l289 49l-55 -258l-176 -30q26 -177 26 -332q0 -239 -47 -408q-39 -145 -95 -243t-136 -157t-179.5 -83.5t-234.5 -24.5q-165 0 -284.5 35.5t-188.5 101.5t-101 150t-32 191q0 104 22 200q47 210 176 313
t369 103q124 0 189 -14.5t116 -52.5q-6 82 -20 151zM602 324q59 0 99 12t65.5 38.5t40 58.5t27.5 83q14 65 14 96q0 68 -41 107t-143 39q-60 0 -101 -12.5t-67 -40t-40.5 -59.5t-27.5 -83q-14 -61 -14 -98q0 -141 188 -141z" />
    <glyph glyph-name="ntilde" unicode="&#xf1;" horiz-adv-x="1366" 
d="M-49 0l244 1151l321 25l10 -89q129 113 338 113q91 0 160 -14.5t114.5 -38.5t74 -63t42 -81t14 -99.5t-6.5 -111t-21 -122.5l-143 -670h-406l133 625q6 30 9 46.5t4 40t-3 37t-14 29t-28 23t-45.5 13t-65.5 5.5q-94 0 -131.5 -40t-54.5 -124l-140 -655h-405zM1016 1278
q-73 0 -146 29t-132.5 57.5t-100.5 28.5q-76 0 -162 -99l-196 189q184 221 372 221q73 0 146 -29t132.5 -57.5t100.5 -28.5q76 0 162 99l197 -189q-184 -221 -373 -221z" />
    <glyph glyph-name="ograve" unicode="&#xf2;" horiz-adv-x="1345" 
d="M578 -23q-299 0 -439.5 127.5t-140.5 352.5q0 88 22 198q62 286 229 415.5t449 129.5q298 0 438 -124.5t140 -346.5q0 -74 -25 -203q-60 -287 -226 -418t-447 -131zM602 324q59 0 100.5 15.5t68.5 47.5t42.5 71.5t28.5 98.5q14 68 14 111q0 78 -41 120.5t-143 42.5
q-60 0 -102.5 -15.5t-70 -48.5t-43 -73t-28.5 -100q-14 -68 -14 -111q0 -76 42 -117.5t146 -41.5zM672 1280l-323 406h473l192 -406h-342z" />
    <glyph glyph-name="oacute" unicode="&#xf3;" horiz-adv-x="1345" 
d="M578 -23q-299 0 -439.5 127.5t-140.5 352.5q0 88 22 198q62 286 229 415.5t449 129.5q298 0 438 -124.5t140 -346.5q0 -74 -25 -203q-60 -287 -226 -418t-447 -131zM602 324q59 0 100.5 15.5t68.5 47.5t42.5 71.5t28.5 98.5q14 68 14 111q0 78 -41 120.5t-143 42.5
q-60 0 -102.5 -15.5t-70 -48.5t-43 -73t-28.5 -100q-14 -68 -14 -111q0 -76 42 -117.5t146 -41.5zM539 1280l365 406h497l-495 -406h-367z" />
    <glyph glyph-name="ocircumflex" unicode="&#xf4;" horiz-adv-x="1345" 
d="M578 -23q-299 0 -439.5 127.5t-140.5 352.5q0 88 22 198q62 286 229 415.5t449 129.5q298 0 438 -124.5t140 -346.5q0 -74 -25 -203q-60 -287 -226 -418t-447 -131zM602 324q59 0 100.5 15.5t68.5 47.5t42.5 71.5t28.5 98.5q14 68 14 111q0 78 -41 120.5t-143 42.5
q-60 0 -102.5 -15.5t-70 -48.5t-43 -73t-28.5 -100q-14 -68 -14 -111q0 -76 42 -117.5t146 -41.5zM256 1280l406 406h414l233 -406h-369l-122 154l-189 -154h-373z" />
    <glyph glyph-name="otilde" unicode="&#xf5;" horiz-adv-x="1345" 
d="M578 -23q-299 0 -439.5 127.5t-140.5 352.5q0 88 22 198q62 286 229 415.5t449 129.5q298 0 438 -124.5t140 -346.5q0 -74 -25 -203q-60 -287 -226 -418t-447 -131zM602 324q59 0 100.5 15.5t68.5 47.5t42.5 71.5t28.5 98.5q14 68 14 111q0 78 -41 120.5t-143 42.5
q-60 0 -102.5 -15.5t-70 -48.5t-43 -73t-28.5 -100q-14 -68 -14 -111q0 -76 42 -117.5t146 -41.5zM1006 1278q-73 0 -146 29t-132.5 57.5t-100.5 28.5q-76 0 -162 -99l-196 189q184 221 372 221q73 0 146 -29t132.5 -57.5t100.5 -28.5q76 0 162 99l197 -189
q-184 -221 -373 -221z" />
    <glyph glyph-name="odieresis" unicode="&#xf6;" horiz-adv-x="1345" 
d="M578 -23q-299 0 -439.5 127.5t-140.5 352.5q0 88 22 198q62 286 229 415.5t449 129.5q298 0 438 -124.5t140 -346.5q0 -74 -25 -203q-60 -287 -226 -418t-447 -131zM602 324q59 0 100.5 15.5t68.5 47.5t42.5 71.5t28.5 98.5q14 68 14 111q0 78 -41 120.5t-143 42.5
q-60 0 -102.5 -15.5t-70 -48.5t-43 -73t-28.5 -100q-14 -68 -14 -111q0 -76 42 -117.5t146 -41.5zM361 1280l67 317h365l-68 -317h-364zM842 1280l68 317h364l-67 -317h-365z" />
    <glyph glyph-name="divide" unicode="&#xf7;" horiz-adv-x="1507" 
d="M422 131l67 322h396l-68 -322h-395zM129 541l78 362h1155l-78 -362h-1155zM604 991l68 322h395l-68 -322h-395z" />
    <glyph glyph-name="oslash" unicode="&#xf8;" horiz-adv-x="1345" 
d="M578 -23q-168 0 -295 43l-97 -110h-278l196 227q-106 117 -106 320q0 88 22 198q62 286 229 415.5t449 129.5q167 0 291 -43l96 111h283l-199 -228q107 -116 107 -311q0 -74 -25 -203q-60 -287 -226 -418t-447 -131zM598 299q65 0 110.5 16.5t75.5 52t47.5 79t30.5 108.5
q17 73 17 121q0 14 -5 49l-362 -418q33 -8 86 -8zM391 473v-27l350 404q-30 6 -65 6q-127 0 -184 -63.5t-84 -196.5q-17 -91 -17 -123z" />
    <glyph glyph-name="ugrave" unicode="&#xf9;" horiz-adv-x="1347" 
d="M563 -23q-237 0 -359.5 67.5t-150 211.5t22.5 367l119 551h405l-123 -580q-7 -33 -10.5 -53.5t-7 -48.5t-2 -45t5.5 -37.5t15 -32.5t27 -23t40.5 -15.5t56.5 -4.5q42 0 72 10t49 25.5t34 47t23 60.5t19 80l131 617h399l-135 -633q-30 -139 -63.5 -230.5t-80.5 -159.5
t-115.5 -104.5t-156.5 -53t-215 -16.5zM674 1280l-323 406h473l192 -406h-342z" />
    <glyph glyph-name="uacute" unicode="&#xfa;" horiz-adv-x="1347" 
d="M563 -23q-237 0 -359.5 67.5t-150 211.5t22.5 367l119 551h405l-123 -580q-7 -33 -10.5 -53.5t-7 -48.5t-2 -45t5.5 -37.5t15 -32.5t27 -23t40.5 -15.5t56.5 -4.5q42 0 72 10t49 25.5t34 47t23 60.5t19 80l131 617h399l-135 -633q-30 -139 -63.5 -230.5t-80.5 -159.5
t-115.5 -104.5t-156.5 -53t-215 -16.5zM541 1280l365 406h497l-495 -406h-367z" />
    <glyph glyph-name="ucircumflex" unicode="&#xfb;" horiz-adv-x="1347" 
d="M563 -23q-237 0 -359.5 67.5t-150 211.5t22.5 367l119 551h405l-123 -580q-7 -33 -10.5 -53.5t-7 -48.5t-2 -45t5.5 -37.5t15 -32.5t27 -23t40.5 -15.5t56.5 -4.5q42 0 72 10t49 25.5t34 47t23 60.5t19 80l131 617h399l-135 -633q-30 -139 -63.5 -230.5t-80.5 -159.5
t-115.5 -104.5t-156.5 -53t-215 -16.5zM258 1280l406 406h414l233 -406h-369l-122 154l-189 -154h-373z" />
    <glyph glyph-name="udieresis" unicode="&#xfc;" horiz-adv-x="1347" 
d="M563 -23q-237 0 -359.5 67.5t-150 211.5t22.5 367l119 551h405l-123 -580q-7 -33 -10.5 -53.5t-7 -48.5t-2 -45t5.5 -37.5t15 -32.5t27 -23t40.5 -15.5t56.5 -4.5q42 0 72 10t49 25.5t34 47t23 60.5t19 80l131 617h399l-135 -633q-30 -139 -63.5 -230.5t-80.5 -159.5
t-115.5 -104.5t-156.5 -53t-215 -16.5zM363 1280l67 317h365l-68 -317h-364zM844 1280l68 317h364l-67 -317h-365z" />
    <glyph glyph-name="yacute" unicode="&#xfd;" horiz-adv-x="1212" 
d="M96 -350q-88 0 -174 4l66 303h86q72 0 103.5 6t43.5 17.5t29 44.5l10 24l-176 1125h428l68 -574l305 574h420l-701 -1217q-74 -129 -134 -190.5t-145 -89t-229 -27.5zM473 1280l365 406h497l-495 -406h-367z" />
    <glyph glyph-name="thorn" unicode="&#xfe;" horiz-adv-x="1390" 
d="M-121 -338l410 1927h403l-102 -473q2 1 19 12t29.5 18t40 18.5t54.5 18t68.5 12t87.5 5.5q121 0 208.5 -33.5t135.5 -94t70 -134.5t22 -166t-29 -237q-21 -102 -51 -182.5t-77 -151.5t-108.5 -118t-147 -74t-191.5 -27q-112 0 -187 15t-103 31t-60 44l-86 -410h-406z
M659 324q56 0 95 17t63.5 52.5t38.5 73t27 96.5q16 86 16 121q0 70 -39 108.5t-135 38.5q-109 0 -165 -52.5t-81 -174.5q-14 -60 -14 -121q0 -77 44.5 -118t149.5 -41z" />
    <glyph glyph-name="ydieresis" unicode="&#xff;" horiz-adv-x="1212" 
d="M96 -350q-88 0 -174 4l66 303h86q72 0 103.5 6t43.5 17.5t29 44.5l10 24l-176 1125h428l68 -574l305 574h420l-701 -1217q-74 -129 -134 -190.5t-145 -89t-229 -27.5zM295 1280l67 317h365l-68 -317h-364zM776 1280l68 317h364l-67 -317h-365z" />
    <glyph glyph-name="dotlessi" unicode="&#x131;" horiz-adv-x="657" 
d="M-37 0l250 1174h405l-249 -1174h-406z" />
    <glyph glyph-name="Lslash" unicode="&#x141;" horiz-adv-x="1294" 
d="M-59 479l71 340l156 76l133 623h424l-84 -390l277 136l-72 -340l-277 -138l-90 -419h715l-78 -367h-1139l119 555z" />
    <glyph glyph-name="lslash" unicode="&#x142;" horiz-adv-x="882" 
d="M14 592l74 340l184 94l121 563h406l-70 -329l186 96l-73 -340l-187 -96l-100 -478q-14 -63 2 -83.5t80 -20.5h35l-72 -334q-62 -8 -184 -8q-188 0 -253.5 103t-15.5 337l54 250z" />
    <glyph glyph-name="OE" unicode="&#x152;" horiz-adv-x="2543" 
d="M815 -25q-368 0 -570 158t-202 469q-3 99 27 244q26 122 68.5 222t94.5 171.5t118.5 125.5t134 87t147 54t152.5 28.5t155 7.5q330 0 504 -133l24 109h1127l-82 -383h-744l-38 -185h723l-80 -370h-723l-45 -213h751l-78 -367h-1134l12 59q-140 -84 -342 -84zM821 348
q189 0 287.5 91t136.5 276q19 101 19 149q0 65 -17.5 115.5t-56 90.5t-107.5 61.5t-165 21.5q-189 0 -286.5 -88t-135.5 -272q-17 -87 -17 -150q0 -295 342 -295z" />
    <glyph glyph-name="oe" unicode="&#x153;" horiz-adv-x="2086" 
d="M1397 -23q-283 0 -408 119q-148 -119 -411 -119q-299 0 -439.5 127.5t-140.5 352.5q0 88 22 198q62 286 229 415.5t449 129.5q280 0 414 -121q149 121 414 121q114 0 201.5 -21.5t142 -57.5t89.5 -86.5t48.5 -104t13.5 -115.5q0 -165 -49 -366h-751q20 -146 227 -146
q88 0 178.5 22.5t145.5 59.5l157 -279q-114 -76 -246 -102.5t-286 -26.5zM602 324q59 0 100.5 15.5t68.5 47.5t42.5 71.5t28.5 98.5q14 68 14 111q0 78 -41 120.5t-143 42.5q-60 0 -102.5 -15.5t-70 -48.5t-43 -73t-28.5 -100q-14 -68 -14 -111q0 -76 42 -117.5t146 -41.5z
M1479 864q-91 0 -143 -44t-81 -132h387q5 45 5 53q0 60 -36.5 91.5t-131.5 31.5z" />
    <glyph glyph-name="Scaron" unicode="&#x160;" horiz-adv-x="1517" 
d="M713 -23q-273 0 -479.5 68.5t-335.5 169.5l272 299q103 -83 250.5 -134.5t314.5 -51.5q134 0 185 21t51 83q0 56 -45.5 79t-200.5 61q-37 9 -57 14q-73 18 -121 32t-106.5 36t-95.5 44t-75.5 55t-59.5 71.5t-34.5 90.5t-13.5 115q0 512 647 512q459 0 711 -190l-283 -316
q-69 54 -187 96t-259 42q-115 0 -155 -22t-40 -85q0 -19 7 -33.5t25.5 -27t36.5 -21t54.5 -18.5t63.5 -16t79 -17q67 -14 116 -25.5t109 -31t102.5 -40.5t86 -52.5t70 -68.5t43 -87t16.5 -109q0 -281 -173 -412t-519 -131zM727 1595l-234 406h369l123 -154l188 154h373
l-405 -406h-414z" />
    <glyph glyph-name="scaron" unicode="&#x161;" horiz-adv-x="1185" 
d="M498 -18q-184 0 -344 54.5t-263 143.5l234 258q76 -57 199 -101t217 -44q69 0 92.5 10t23.5 43q0 7 -3 13.5t-10 12t-14 10t-20 9t-23 7.5t-28.5 7t-30.5 6.5t-34 7t-35 7.5q-44 9 -74.5 16.5t-73.5 22t-73 30.5t-62.5 41t-52 54.5t-32.5 71t-13 90.5q0 124 40 212
t117.5 139t177.5 74t232 23q159 0 297 -40.5t234 -102.5l-238 -287q-170 94 -334 94q-66 0 -87 -12.5t-21 -44.5q0 -29 37.5 -43.5t148.5 -38.5q50 -11 81.5 -19.5t77 -23.5t73.5 -31t60.5 -41t50.5 -54.5t30 -71t12 -91.5q0 -115 -38.5 -196t-115 -127.5t-177.5 -67
t-238 -20.5zM496 1280l-234 406h369l123 -154l188 154h373l-405 -406h-414z" />
    <glyph glyph-name="Ydieresis" unicode="&#x178;" horiz-adv-x="1579" 
d="M414 0l110 526l-356 992h442l203 -603l453 603h467l-787 -998l-108 -520h-424zM543 1595l67 317h365l-68 -317h-364zM1024 1595l68 317h364l-67 -317h-365z" />
    <glyph glyph-name="Zcaron" unicode="&#x17d;" horiz-adv-x="1404" 
d="M-111 0l68 313l887 822h-678l82 383h1239l-74 -347l-870 -804h721l-78 -367h-1297zM672 1595l-234 406h369l123 -154l188 154h373l-405 -406h-414z" />
    <glyph glyph-name="zcaron" unicode="&#x17e;" horiz-adv-x="1105" 
d="M-135 0l57 268l604 561h-452l73 345h1002l-57 -271l-611 -579h510l-69 -324h-1057zM457 1280l-234 406h369l123 -154l188 154h373l-405 -406h-414z" />
    <glyph glyph-name="florin" unicode="&#x192;" horiz-adv-x="1347" 
d="M172 608l76 350h258l43 201q15 72 33.5 122t56 98t91.5 76.5t140 45.5t203 17h238l-78 -361h-135q-88 0 -121.5 -27t-46.5 -94l-17 -78h279l-76 -350h-278l-205 -948h-406l203 948h-258z" />
    <glyph glyph-name="circumflex" unicode="&#x2c6;" 
d="M188 1280l406 406h414l233 -406h-369l-122 154l-189 -154h-373z" />
    <glyph glyph-name="caron" unicode="&#x2c7;" 
d="M508 1280l-234 406h369l123 -154l188 154h373l-405 -406h-414z" />
    <glyph glyph-name="breve" unicode="&#x2d8;" 
d="M764 1260q-109 0 -187.5 23t-125.5 62t-73 101.5t-34 129.5t-6 159l299 32q0 -119 28.5 -158.5t120.5 -39.5q81 0 127.5 41.5t83.5 156.5l283 -51q-60 -215 -191.5 -335.5t-324.5 -120.5z" />
    <glyph glyph-name="dotaccent" unicode="&#x2d9;" 
d="M508 1280l67 322h412l-67 -322h-412z" />
    <glyph glyph-name="ring" unicode="&#x2da;" 
d="M748 1257q-149 0 -223 72.5t-74 186.5q0 177 96 283t258 106q147 0 223 -77t76 -194q0 -175 -98 -276t-258 -101zM760 1450q68 0 106.5 43t38.5 117q0 100 -114 100q-64 0 -102 -46t-38 -120q0 -42 26.5 -68t82.5 -26z" />
    <glyph glyph-name="ogonek" unicode="&#x2db;" 
d="M434 -512q-189 0 -265.5 46t-76.5 136q0 56 24 107t57.5 86.5t81 67.5t84.5 49.5t77 33.5h219q-133 -83 -193.5 -139.5t-60.5 -112.5q0 -29 29 -43t98 -14q77 0 170 35l78 -189q-123 -63 -322 -63z" />
    <glyph glyph-name="tilde" unicode="&#x2dc;" 
d="M938 1278q-73 0 -146 29t-132.5 57.5t-100.5 28.5q-76 0 -162 -99l-196 189q184 221 372 221q73 0 146 -29t132.5 -57.5t100.5 -28.5q76 0 162 99l197 -189q-184 -221 -373 -221z" />
    <glyph glyph-name="hungarumlaut" unicode="&#x2dd;" 
d="M186 1280l344 406h465l-475 -406h-334zM784 1280l344 406h465l-475 -406h-334z" />
    <glyph glyph-name="Delta" unicode="&#x394;" horiz-adv-x="1542" 
d="M59 829l74 345h219l15 63q32 151 93.5 236.5t170.5 125t289 39.5q78 0 149 -6l-70 -329h-71q-85 0 -118.5 -23t-45.5 -82l-6 -24h215l-74 -345h-213l-248 -1167h-405l248 1167h-222zM657 -348l66 305h31q59 0 76.5 23t37.5 112l230 1082h405l-237 -1123
q-19 -90 -40.5 -153.5t-51 -108t-61 -71.5t-79.5 -41.5t-97 -19.5t-122 -5h-158zM1114 1260l70 329h409l-69 -329h-410z" />
    <glyph glyph-name="Delta" unicode="&#x2206;" horiz-adv-x="1542" 
d="M59 829l74 345h219l15 63q32 151 93.5 236.5t170.5 125t289 39.5q78 0 149 -6l-70 -329h-71q-85 0 -118.5 -23t-45.5 -82l-6 -24h215l-74 -345h-213l-248 -1167h-405l248 1167h-222zM657 -348l66 305h31q59 0 76.5 23t37.5 112l230 1082h405l-237 -1123
q-19 -90 -40.5 -153.5t-51 -108t-61 -71.5t-79.5 -41.5t-97 -19.5t-122 -5h-158zM1114 1260l70 329h409l-69 -329h-410z" />
    <glyph glyph-name="Omega" unicode="&#x3a9;" horiz-adv-x="1703" 
d="M258 246q-88 105 -136 237t-48 277q0 144 48 276t136 236q6 -4 14 -12q-85 -103 -131.5 -231.5t-46.5 -268.5q0 -285 180 -500zM467 432q-117 143 -117 328q0 183 115 327q3 -2 8 -7t8 -7q-110 -136 -110 -313q0 -182 110 -314zM541 498q-92 116 -92 262t92 262
q3 -2 8 -7t8 -7q-88 -109 -88 -248t88 -248q-3 -2 -8 -7t-8 -7zM647 592q-57 72 -57 168q0 97 57 166l15 -15q-52 -69 -52 -151q0 -84 54 -154q-3 -2 -8.5 -7t-8.5 -7zM715 655q-33 48 -33 105q0 56 33 104q3 -2 8 -7t8 -7q-29 -44 -29 -90t29 -90q-3 -2 -16 -15zM774 709
q-14 25 -14 51t14 51l12 -10q-10 -20 -10 -41t10 -41q-4 -4 -12 -10zM852 123q-236 0 -412 158l2.5 2.5l5 5l5.5 5.5t2 1q171 -152 397 -152q227 0 395 152q2 -3 7.5 -8t7.5 -8q-177 -156 -410 -156zM852 664q-31 0 -55 18l12 12q21 -14 43 -14q26 0 43 14q4 -4 10 -12
q-21 -18 -53 -18zM987 653q-7 10 -14 15q28 42 28 92q0 51 -28 90l2.5 2.5t5 4.5t5.5 5t1 2q35 -44 35 -104t-35 -107zM598 551q-72 91 -72 209q0 119 74 209l14 -15q-67 -87 -67 -194q0 -108 67 -195q-10 -10 -16 -14zM852 -35q-145 0 -278 52.5t-238 146.5l14 16
q102 -92 231 -143t271 -51q285 0 500 192q0 1 3.5 -2.5t6.5 -7.5l4 -4q-104 -95 -236 -147t-278 -52zM852 248q-189 0 -330 125l15 16q134 -121 315 -121q182 0 313 121q2 -3 7.5 -8t7.5 -8q-138 -125 -328 -125zM852 348q-145 0 -264 101l14 14q108 -94 250 -94
q143 0 248 94q2 -3 7 -8.5t7 -8.5q-112 -98 -262 -98zM852 428q-116 0 -211 78l14 16q86 -73 197 -73t197 73q4 -4 12 -16q-91 -78 -209 -78zM852 543q-77 0 -135 49l14 16q51 -45 121 -45q68 0 119 45q2 -3 7 -8t7 -8q-58 -49 -133 -49zM733 911q-4 3 -7 6.5t-6 6.5l-3 4
q58 49 135 49t135 -49l-16 -17q-51 45 -119 45t-119 -45zM1167 1130q-134 121 -315 121q-179 0 -313 -118l-15 14q141 125 328 125q189 0 330 -125q-4 -6 -15 -17zM930 709l-12 10q10 20 10 41t-10 41l12 10q14 -25 14 -51t-14 -51zM958 682q-10 10 -16 14q21 32 21 64
t-21 63l16 15q25 -36 25 -78t-25 -78zM1020 627q-6 4 -16 14q38 50 38 119t-38 119l14 14q45 -57 45 -133q0 -71 -43 -133zM1106 551q-3 2 -8 7t-8 7q67 87 67 195t-70 194l17 15q74 -90 74 -209q0 -118 -72 -209zM1163 498q-10 10 -16 14q88 109 88 248t-88 248l16 14
q92 -116 92 -262t-92 -262zM1237 432q-6 4 -16 14q112 134 112 314q0 182 -112 313l16 14q117 -139 117 -327q0 -189 -117 -328zM1329 350q-2 2 -7 6t-7 6q141 175 141 398q0 227 -143 395l16 14q148 -179 148 -409q0 -231 -148 -410zM1446 246q-6 6 -16 14q180 215 180 500
t-180 500l16 14q88 -105 136 -237t48 -277q0 -144 -48 -276t-136 -238zM375 348q-148 182 -148 412q0 229 146 409q2 -2 7.5 -6.5t8.5 -7.5q-141 -170 -141 -395q0 -228 141 -398zM684 627q-43 59 -43 133t43 133q6 -4 16 -14q-38 -50 -38 -119q0 -67 38 -117zM745 682
q-24 34 -24 78t24 78q2 -3 4.5 -5.5t6 -5.5t4.5 -4q-19 -34 -19 -63q0 -30 19 -64zM809 825l-10 13q21 18 53 18t53 -18l-10 -13q-23 15 -43 15q-25 0 -43 -15zM786 852l-14 14q37 29 80 29q41 0 78 -29q-8 -8 -12 -14q-28 25 -66 25q-34 0 -66 -25zM760 881l-15 16
q45 39 107 39q61 0 106 -39l-14 -16q-37 34 -92 34t-92 -34zM604 1057l-14 16q112 98 262 98q151 0 262 -100q1 0 -2 -3.5t-6 -7.5l-4 -3q-108 94 -250 94q-143 0 -248 -94zM852 492q-100 0 -170 61l14 16q70 -57 156 -57q87 0 154 57l14 -14q-73 -63 -168 -63zM852 584
q-61 0 -109 39l15 16q47 -35 94 -35q51 0 92 35l14 -16q-45 -39 -106 -39zM852 625q-43 0 -82 28l14 15q36 -25 68 -25q34 0 66 25l14 -15q-36 -28 -80 -28zM698 950l-14 15q73 63 168 63q98 0 168 -61l-14 -17q-68 58 -154 58q-87 0 -154 -58zM655 997l-14 17q91 78 211 78
q119 0 209 -80l-12 -15q-83 74 -197 74q-110 0 -197 -74zM1249 1223q-166 153 -397 153q-227 0 -397 -151l-15 14q179 158 412 158t412 -158zM352 1339l-14 17q104 95 236 146.5t278 51.5q145 0 278 -52t238 -146l-14 -17q-102 93 -231 144t-271 51t-270 -51t-230 -144z
M1057 594l-15 14q52 69 52 152t-54 153l17 15q57 -72 57 -168q0 -97 -57 -166z" />
    <glyph glyph-name="Omega" unicode="&#x2126;" horiz-adv-x="1703" 
d="M258 246q-88 105 -136 237t-48 277q0 144 48 276t136 236q6 -4 14 -12q-85 -103 -131.5 -231.5t-46.5 -268.5q0 -285 180 -500zM467 432q-117 143 -117 328q0 183 115 327q3 -2 8 -7t8 -7q-110 -136 -110 -313q0 -182 110 -314zM541 498q-92 116 -92 262t92 262
q3 -2 8 -7t8 -7q-88 -109 -88 -248t88 -248q-3 -2 -8 -7t-8 -7zM647 592q-57 72 -57 168q0 97 57 166l15 -15q-52 -69 -52 -151q0 -84 54 -154q-3 -2 -8.5 -7t-8.5 -7zM715 655q-33 48 -33 105q0 56 33 104q3 -2 8 -7t8 -7q-29 -44 -29 -90t29 -90q-3 -2 -16 -15zM774 709
q-14 25 -14 51t14 51l12 -10q-10 -20 -10 -41t10 -41q-4 -4 -12 -10zM852 123q-236 0 -412 158l2.5 2.5l5 5l5.5 5.5t2 1q171 -152 397 -152q227 0 395 152q2 -3 7.5 -8t7.5 -8q-177 -156 -410 -156zM852 664q-31 0 -55 18l12 12q21 -14 43 -14q26 0 43 14q4 -4 10 -12
q-21 -18 -53 -18zM987 653q-7 10 -14 15q28 42 28 92q0 51 -28 90l2.5 2.5t5 4.5t5.5 5t1 2q35 -44 35 -104t-35 -107zM598 551q-72 91 -72 209q0 119 74 209l14 -15q-67 -87 -67 -194q0 -108 67 -195q-10 -10 -16 -14zM852 -35q-145 0 -278 52.5t-238 146.5l14 16
q102 -92 231 -143t271 -51q285 0 500 192q0 1 3.5 -2.5t6.5 -7.5l4 -4q-104 -95 -236 -147t-278 -52zM852 248q-189 0 -330 125l15 16q134 -121 315 -121q182 0 313 121q2 -3 7.5 -8t7.5 -8q-138 -125 -328 -125zM852 348q-145 0 -264 101l14 14q108 -94 250 -94
q143 0 248 94q2 -3 7 -8.5t7 -8.5q-112 -98 -262 -98zM852 428q-116 0 -211 78l14 16q86 -73 197 -73t197 73q4 -4 12 -16q-91 -78 -209 -78zM852 543q-77 0 -135 49l14 16q51 -45 121 -45q68 0 119 45q2 -3 7 -8t7 -8q-58 -49 -133 -49zM733 911q-4 3 -7 6.5t-6 6.5l-3 4
q58 49 135 49t135 -49l-16 -17q-51 45 -119 45t-119 -45zM1167 1130q-134 121 -315 121q-179 0 -313 -118l-15 14q141 125 328 125q189 0 330 -125q-4 -6 -15 -17zM930 709l-12 10q10 20 10 41t-10 41l12 10q14 -25 14 -51t-14 -51zM958 682q-10 10 -16 14q21 32 21 64
t-21 63l16 15q25 -36 25 -78t-25 -78zM1020 627q-6 4 -16 14q38 50 38 119t-38 119l14 14q45 -57 45 -133q0 -71 -43 -133zM1106 551q-3 2 -8 7t-8 7q67 87 67 195t-70 194l17 15q74 -90 74 -209q0 -118 -72 -209zM1163 498q-10 10 -16 14q88 109 88 248t-88 248l16 14
q92 -116 92 -262t-92 -262zM1237 432q-6 4 -16 14q112 134 112 314q0 182 -112 313l16 14q117 -139 117 -327q0 -189 -117 -328zM1329 350q-2 2 -7 6t-7 6q141 175 141 398q0 227 -143 395l16 14q148 -179 148 -409q0 -231 -148 -410zM1446 246q-6 6 -16 14q180 215 180 500
t-180 500l16 14q88 -105 136 -237t48 -277q0 -144 -48 -276t-136 -238zM375 348q-148 182 -148 412q0 229 146 409q2 -2 7.5 -6.5t8.5 -7.5q-141 -170 -141 -395q0 -228 141 -398zM684 627q-43 59 -43 133t43 133q6 -4 16 -14q-38 -50 -38 -119q0 -67 38 -117zM745 682
q-24 34 -24 78t24 78q2 -3 4.5 -5.5t6 -5.5t4.5 -4q-19 -34 -19 -63q0 -30 19 -64zM809 825l-10 13q21 18 53 18t53 -18l-10 -13q-23 15 -43 15q-25 0 -43 -15zM786 852l-14 14q37 29 80 29q41 0 78 -29q-8 -8 -12 -14q-28 25 -66 25q-34 0 -66 -25zM760 881l-15 16
q45 39 107 39q61 0 106 -39l-14 -16q-37 34 -92 34t-92 -34zM604 1057l-14 16q112 98 262 98q151 0 262 -100q1 0 -2 -3.5t-6 -7.5l-4 -3q-108 94 -250 94q-143 0 -248 -94zM852 492q-100 0 -170 61l14 16q70 -57 156 -57q87 0 154 57l14 -14q-73 -63 -168 -63zM852 584
q-61 0 -109 39l15 16q47 -35 94 -35q51 0 92 35l14 -16q-45 -39 -106 -39zM852 625q-43 0 -82 28l14 15q36 -25 68 -25q34 0 66 25l14 -15q-36 -28 -80 -28zM698 950l-14 15q73 63 168 63q98 0 168 -61l-14 -17q-68 58 -154 58q-87 0 -154 -58zM655 997l-14 17q91 78 211 78
q119 0 209 -80l-12 -15q-83 74 -197 74q-110 0 -197 -74zM1249 1223q-166 153 -397 153q-227 0 -397 -151l-15 14q179 158 412 158t412 -158zM352 1339l-14 17q104 95 236 146.5t278 51.5q145 0 278 -52t238 -146l-14 -17q-102 93 -231 144t-271 51t-270 -51t-230 -144z
M1057 594l-15 14q52 69 52 152t-54 153l17 15q57 -72 57 -168q0 -97 -57 -166z" />
    <glyph glyph-name="pi" unicode="&#x3c0;" horiz-adv-x="1632" 
d="M815 -25q-149 0 -274 40t-214 111.5t-151.5 170.5t-92.5 215.5t-30 247.5q0 164 48.5 305t141 248.5t240 169t332.5 61.5t331.5 -61.5t239 -169t141 -248.5t48.5 -305t-48.5 -305t-141 -249t-239 -169.5t-331.5 -61.5zM815 115q132 0 236.5 34t174 92.5t115.5 141.5
t66 176t20 201t-20 201t-66 176t-115.5 141.5t-174 92.5t-236.5 34t-237.5 -34t-175 -92.5t-115.5 -141.5t-66 -176t-20 -201t20 -201t66 -176t115.5 -141.5t175 -92.5t237.5 -34zM430 291v936h469q83 0 147.5 -11t108 -32.5t72.5 -49.5t44.5 -67.5t22 -79.5t6.5 -92
q0 -63 -8.5 -110t-34.5 -94t-70.5 -77t-121.5 -48.5t-182 -18.5h-199v-256h-254zM684 762h211q83 0 113 26t30 95q0 70 -29.5 95.5t-115.5 25.5h-209v-242z" />
    <glyph glyph-name="endash" unicode="&#x2013;" horiz-adv-x="1538" 
d="M10 514l78 360h1409l-78 -360h-1409z" />
    <glyph glyph-name="emdash" unicode="&#x2014;" horiz-adv-x="1972" 
d="M10 514l78 360h1845l-78 -360h-1845z" />
    <glyph glyph-name="quoteleft" unicode="&#x2018;" horiz-adv-x="657" 
d="M82 688l65 305q15 72 27 117.5t29 95t38 81t51 65t71.5 60t95 53t125.5 55.5l73 -197q-137 -57 -178.5 -91.5t-56.5 -103.5h213l-94 -440h-459z" />
    <glyph glyph-name="quoteright" unicode="&#x2019;" horiz-adv-x="657" 
d="M217 686l-74 195q138 57 179.5 91t56.5 103h-213l94 443h459l-66 -308q-14 -64 -24 -104t-25 -86.5t-30.5 -75t-39 -61.5t-51 -55.5t-67.5 -48t-88 -47.5t-111 -46z" />
    <glyph glyph-name="quotesinglbase" unicode="&#x201a;" horiz-adv-x="657" 
d="M-12 -391l-72 196q135 55 177 90t57 105h-213l94 442h458l-65 -309q-14 -66 -25 -108t-28 -90.5t-37.5 -81t-51.5 -68.5t-72 -63.5t-95.5 -56t-126.5 -56.5z" />
    <glyph glyph-name="quotedblleft" unicode="&#x201c;" horiz-adv-x="1206" 
d="M88 709l64 299q17 82 30 130t35 101.5t48 86t69.5 68t101 64t139.5 60.5l70 -191q-134 -56 -173 -88.5t-54 -99.5h207l-90 -430h-447zM651 709l64 299q15 71 26 113.5t27.5 91t36.5 79t49 63.5t68.5 58.5t92 51.5t122.5 53l71 -191q-134 -56 -174 -88.5t-55 -99.5h207
l-90 -430h-445z" />
    <glyph glyph-name="quotedblright" unicode="&#x201d;" horiz-adv-x="1206" 
d="M219 709l-72 190q135 58 176 91t54 100h-209l92 428h447l-64 -297q-15 -71 -26 -114t-27.5 -91.5t-36.5 -79t-49 -63.5t-69.5 -58.5t-92.5 -51.5t-123 -54zM782 709l-73 190q135 58 175.5 91t53.5 100h-207l92 428h445l-64 -297q-15 -71 -26 -114t-27.5 -91.5t-36.5 -79
t-49 -63.5t-69 -58.5t-91.5 -51.5t-122.5 -54z" />
    <glyph glyph-name="quotedblbase" unicode="&#x201e;" horiz-adv-x="1206" 
d="M-12 -379l-72 189q134 56 174 88.5t55 101.5h-208l90 428h446l-61 -297q-14 -65 -24.5 -105t-27.5 -88t-36.5 -79t-49.5 -66.5t-69.5 -62t-93 -54.5t-123.5 -55zM553 -379l-76 189q135 56 175 89t55 101h-207l90 428h444l-61 -297q-11 -50 -19 -82.5t-20 -72.5t-24 -66.5
t-29.5 -57.5t-38.5 -53.5t-49.5 -47.5t-63.5 -45.5t-78.5 -42t-97.5 -42.5z" />
    <glyph glyph-name="dagger" unicode="&#x2020;" horiz-adv-x="1284" 
d="M207 -340l233 1102h-356l78 364h356l98 463h402l-98 -463h358l-78 -364h-358l-234 -1102h-401z" />
    <glyph glyph-name="daggerdbl" unicode="&#x2021;" horiz-adv-x="1284" 
d="M207 -340l98 463h-356l78 364h356l57 275h-356l78 364h356l98 463h402l-98 -463h358l-78 -364h-358l-58 -275h359l-78 -364h-358l-99 -463h-401z" />
    <glyph glyph-name="bullet" unicode="&#x2022;" horiz-adv-x="843" 
d="M84 352l115 541h503l-114 -541h-504z" />
    <glyph glyph-name="ellipsis" unicode="&#x2026;" horiz-adv-x="1892" 
d="M-63 0l94 442h458l-94 -442h-458zM555 0l94 442h459l-94 -442h-459zM1174 0l94 442h456l-94 -442h-456z" />
    <glyph glyph-name="perthousand" unicode="&#x2030;" horiz-adv-x="3721" 
d="M561 514q-228 0 -347.5 108.5t-119.5 301.5q0 128 33.5 233t89 175t130 118.5t154.5 70t165 21.5q224 0 345.5 -113.5t121.5 -306.5q0 -144 -47 -261t-127 -192t-182.5 -115t-215.5 -40zM592 815q57 0 98 43.5t59.5 107.5t18.5 140q0 127 -127 127q-77 0 -129.5 -74.5
t-52.5 -216.5q0 -63 31 -95t102 -32zM1954 -23q-228 0 -347.5 108.5t-119.5 301.5q0 128 33 233t88.5 175.5t130 119t154.5 70t165 21.5q224 0 345.5 -113.5t121.5 -306.5q0 -144 -47 -261t-126.5 -192t-182 -115.5t-215.5 -40.5zM1985 279q84 0 130 86t46 204
q0 127 -127 127q-78 0 -130.5 -74.5t-52.5 -215.5q0 -63 31.5 -95t102.5 -32zM3060 -23q-228 0 -347.5 108.5t-119.5 301.5q0 128 33 233t88.5 175.5t130 119t154.5 70t165 21.5q224 0 345.5 -113.5t121.5 -306.5q0 -144 -47 -261t-126.5 -192t-182 -115.5t-215.5 -40.5z
M3090 279q84 0 130.5 86t46.5 204q0 127 -127 127q-78 0 -130.5 -74.5t-52.5 -215.5q0 -63 31 -95t102 -32zM532 0l1174 1518h375l-1174 -1518h-375z" />
    <glyph glyph-name="guilsinglleft" unicode="&#x2039;" horiz-adv-x="1060" 
d="M311 0l-184 586l434 588h363l-402 -588l152 -586h-363z" />
    <glyph glyph-name="guilsinglright" unicode="&#x203a;" horiz-adv-x="1060" 
d="M63 0l402 588l-152 586h363l184 -586l-434 -588h-363z" />
    <glyph glyph-name="fraction" unicode="&#x2044;" horiz-adv-x="1202" 
d="M-162 0l1174 1518h354l-1173 -1518h-355z" />
    <glyph glyph-name="fraction" unicode="&#x2215;" horiz-adv-x="1202" 
d="M-162 0l1174 1518h354l-1173 -1518h-355z" />
    <glyph glyph-name="Euro" unicode="&#x20ac;" horiz-adv-x="1486" 
d="M53 778l47 226h222q85 255 263 396.5t429 141.5q166 0 298.5 -36t217.5 -95l-236 -317q-40 25 -71.5 41t-91.5 31.5t-127 15.5q-180 0 -271 -178h385l-47 -226h-407q-6 -40 -9 -82h398l-47 -225h-349q37 -149 220 -149q147 0 249 57l166 -295q-85 -55 -211.5 -82
t-255.5 -27q-271 0 -410 131.5t-159 364.5h-268l47 225h225q4 56 8 82h-215z" />
    <glyph glyph-name="trademark" unicode="&#x2122;" horiz-adv-x="2310" 
d="M999 567l203 951h340l88 -566l330 566h340l-203 -951h-293l97 459l-261 -459h-192l-66 461l-98 -461h-285zM336 567l145 686h-295l58 265h891l-58 -265h-295l-145 -686h-301z" />
    <glyph glyph-name="partialdiff" unicode="&#x2202;" horiz-adv-x="1703" 
d="M258 246q-88 105 -136 237t-48 277q0 144 48 276t136 236q6 -4 14 -12q-85 -103 -131.5 -231.5t-46.5 -268.5q0 -285 180 -500zM467 432q-117 143 -117 328q0 183 115 327q3 -2 8 -7t8 -7q-110 -136 -110 -313q0 -182 110 -314zM541 498q-92 116 -92 262t92 262
q3 -2 8 -7t8 -7q-88 -109 -88 -248t88 -248q-3 -2 -8 -7t-8 -7zM647 592q-57 72 -57 168q0 97 57 166l15 -15q-52 -69 -52 -151q0 -84 54 -154q-3 -2 -8.5 -7t-8.5 -7zM715 655q-33 48 -33 105q0 56 33 104q3 -2 8 -7t8 -7q-29 -44 -29 -90t29 -90q-3 -2 -16 -15zM774 709
q-14 25 -14 51t14 51l12 -10q-10 -20 -10 -41t10 -41q-4 -4 -12 -10zM852 123q-236 0 -412 158l2.5 2.5l5 5l5.5 5.5t2 1q171 -152 397 -152q227 0 395 152q2 -3 7.5 -8t7.5 -8q-177 -156 -410 -156zM852 664q-31 0 -55 18l12 12q21 -14 43 -14q26 0 43 14q4 -4 10 -12
q-21 -18 -53 -18zM987 653q-7 10 -14 15q28 42 28 92q0 51 -28 90l2.5 2.5t5 4.5t5.5 5t1 2q35 -44 35 -104t-35 -107zM598 551q-72 91 -72 209q0 119 74 209l14 -15q-67 -87 -67 -194q0 -108 67 -195q-10 -10 -16 -14zM852 -35q-145 0 -278 52.5t-238 146.5l14 16
q102 -92 231 -143t271 -51q285 0 500 192q0 1 3.5 -2.5t6.5 -7.5l4 -4q-104 -95 -236 -147t-278 -52zM852 248q-189 0 -330 125l15 16q134 -121 315 -121q182 0 313 121q2 -3 7.5 -8t7.5 -8q-138 -125 -328 -125zM852 348q-145 0 -264 101l14 14q108 -94 250 -94
q143 0 248 94q2 -3 7 -8.5t7 -8.5q-112 -98 -262 -98zM852 428q-116 0 -211 78l14 16q86 -73 197 -73t197 73q4 -4 12 -16q-91 -78 -209 -78zM852 543q-77 0 -135 49l14 16q51 -45 121 -45q68 0 119 45q2 -3 7 -8t7 -8q-58 -49 -133 -49zM733 911q-4 3 -7 6.5t-6 6.5l-3 4
q58 49 135 49t135 -49l-16 -17q-51 45 -119 45t-119 -45zM1167 1130q-134 121 -315 121q-179 0 -313 -118l-15 14q141 125 328 125q189 0 330 -125q-4 -6 -15 -17zM930 709l-12 10q10 20 10 41t-10 41l12 10q14 -25 14 -51t-14 -51zM958 682q-10 10 -16 14q21 32 21 64
t-21 63l16 15q25 -36 25 -78t-25 -78zM1020 627q-6 4 -16 14q38 50 38 119t-38 119l14 14q45 -57 45 -133q0 -71 -43 -133zM1106 551q-3 2 -8 7t-8 7q67 87 67 195t-70 194l17 15q74 -90 74 -209q0 -118 -72 -209zM1163 498q-10 10 -16 14q88 109 88 248t-88 248l16 14
q92 -116 92 -262t-92 -262zM1237 432q-6 4 -16 14q112 134 112 314q0 182 -112 313l16 14q117 -139 117 -327q0 -189 -117 -328zM1329 350q-2 2 -7 6t-7 6q141 175 141 398q0 227 -143 395l16 14q148 -179 148 -409q0 -231 -148 -410zM1446 246q-6 6 -16 14q180 215 180 500
t-180 500l16 14q88 -105 136 -237t48 -277q0 -144 -48 -276t-136 -238zM375 348q-148 182 -148 412q0 229 146 409q2 -2 7.5 -6.5t8.5 -7.5q-141 -170 -141 -395q0 -228 141 -398zM684 627q-43 59 -43 133t43 133q6 -4 16 -14q-38 -50 -38 -119q0 -67 38 -117zM745 682
q-24 34 -24 78t24 78q2 -3 4.5 -5.5t6 -5.5t4.5 -4q-19 -34 -19 -63q0 -30 19 -64zM809 825l-10 13q21 18 53 18t53 -18l-10 -13q-23 15 -43 15q-25 0 -43 -15zM786 852l-14 14q37 29 80 29q41 0 78 -29q-8 -8 -12 -14q-28 25 -66 25q-34 0 -66 -25zM760 881l-15 16
q45 39 107 39q61 0 106 -39l-14 -16q-37 34 -92 34t-92 -34zM604 1057l-14 16q112 98 262 98q151 0 262 -100q1 0 -2 -3.5t-6 -7.5l-4 -3q-108 94 -250 94q-143 0 -248 -94zM852 492q-100 0 -170 61l14 16q70 -57 156 -57q87 0 154 57l14 -14q-73 -63 -168 -63zM852 584
q-61 0 -109 39l15 16q47 -35 94 -35q51 0 92 35l14 -16q-45 -39 -106 -39zM852 625q-43 0 -82 28l14 15q36 -25 68 -25q34 0 66 25l14 -15q-36 -28 -80 -28zM698 950l-14 15q73 63 168 63q98 0 168 -61l-14 -17q-68 58 -154 58q-87 0 -154 -58zM655 997l-14 17q91 78 211 78
q119 0 209 -80l-12 -15q-83 74 -197 74q-110 0 -197 -74zM1249 1223q-166 153 -397 153q-227 0 -397 -151l-15 14q179 158 412 158t412 -158zM352 1339l-14 17q104 95 236 146.5t278 51.5q145 0 278 -52t238 -146l-14 -17q-102 93 -231 144t-271 51t-270 -51t-230 -144z
M1057 594l-15 14q52 69 52 152t-54 153l17 15q57 -72 57 -168q0 -97 -57 -166z" />
    <glyph glyph-name="product" unicode="&#x220f;" horiz-adv-x="1703" 
d="M258 246q-88 105 -136 237t-48 277q0 144 48 276t136 236q6 -4 14 -12q-85 -103 -131.5 -231.5t-46.5 -268.5q0 -285 180 -500zM467 432q-117 143 -117 328q0 183 115 327q3 -2 8 -7t8 -7q-110 -136 -110 -313q0 -182 110 -314zM541 498q-92 116 -92 262t92 262
q3 -2 8 -7t8 -7q-88 -109 -88 -248t88 -248q-3 -2 -8 -7t-8 -7zM647 592q-57 72 -57 168q0 97 57 166l15 -15q-52 -69 -52 -151q0 -84 54 -154q-3 -2 -8.5 -7t-8.5 -7zM715 655q-33 48 -33 105q0 56 33 104q3 -2 8 -7t8 -7q-29 -44 -29 -90t29 -90q-3 -2 -16 -15zM774 709
q-14 25 -14 51t14 51l12 -10q-10 -20 -10 -41t10 -41q-4 -4 -12 -10zM852 123q-236 0 -412 158l2.5 2.5l5 5l5.5 5.5t2 1q171 -152 397 -152q227 0 395 152q2 -3 7.5 -8t7.5 -8q-177 -156 -410 -156zM852 664q-31 0 -55 18l12 12q21 -14 43 -14q26 0 43 14q4 -4 10 -12
q-21 -18 -53 -18zM987 653q-7 10 -14 15q28 42 28 92q0 51 -28 90l2.5 2.5t5 4.5t5.5 5t1 2q35 -44 35 -104t-35 -107zM598 551q-72 91 -72 209q0 119 74 209l14 -15q-67 -87 -67 -194q0 -108 67 -195q-10 -10 -16 -14zM852 -35q-145 0 -278 52.5t-238 146.5l14 16
q102 -92 231 -143t271 -51q285 0 500 192q0 1 3.5 -2.5t6.5 -7.5l4 -4q-104 -95 -236 -147t-278 -52zM852 248q-189 0 -330 125l15 16q134 -121 315 -121q182 0 313 121q2 -3 7.5 -8t7.5 -8q-138 -125 -328 -125zM852 348q-145 0 -264 101l14 14q108 -94 250 -94
q143 0 248 94q2 -3 7 -8.5t7 -8.5q-112 -98 -262 -98zM852 428q-116 0 -211 78l14 16q86 -73 197 -73t197 73q4 -4 12 -16q-91 -78 -209 -78zM852 543q-77 0 -135 49l14 16q51 -45 121 -45q68 0 119 45q2 -3 7 -8t7 -8q-58 -49 -133 -49zM733 911q-4 3 -7 6.5t-6 6.5l-3 4
q58 49 135 49t135 -49l-16 -17q-51 45 -119 45t-119 -45zM1167 1130q-134 121 -315 121q-179 0 -313 -118l-15 14q141 125 328 125q189 0 330 -125q-4 -6 -15 -17zM930 709l-12 10q10 20 10 41t-10 41l12 10q14 -25 14 -51t-14 -51zM958 682q-10 10 -16 14q21 32 21 64
t-21 63l16 15q25 -36 25 -78t-25 -78zM1020 627q-6 4 -16 14q38 50 38 119t-38 119l14 14q45 -57 45 -133q0 -71 -43 -133zM1106 551q-3 2 -8 7t-8 7q67 87 67 195t-70 194l17 15q74 -90 74 -209q0 -118 -72 -209zM1163 498q-10 10 -16 14q88 109 88 248t-88 248l16 14
q92 -116 92 -262t-92 -262zM1237 432q-6 4 -16 14q112 134 112 314q0 182 -112 313l16 14q117 -139 117 -327q0 -189 -117 -328zM1329 350q-2 2 -7 6t-7 6q141 175 141 398q0 227 -143 395l16 14q148 -179 148 -409q0 -231 -148 -410zM1446 246q-6 6 -16 14q180 215 180 500
t-180 500l16 14q88 -105 136 -237t48 -277q0 -144 -48 -276t-136 -238zM375 348q-148 182 -148 412q0 229 146 409q2 -2 7.5 -6.5t8.5 -7.5q-141 -170 -141 -395q0 -228 141 -398zM684 627q-43 59 -43 133t43 133q6 -4 16 -14q-38 -50 -38 -119q0 -67 38 -117zM745 682
q-24 34 -24 78t24 78q2 -3 4.5 -5.5t6 -5.5t4.5 -4q-19 -34 -19 -63q0 -30 19 -64zM809 825l-10 13q21 18 53 18t53 -18l-10 -13q-23 15 -43 15q-25 0 -43 -15zM786 852l-14 14q37 29 80 29q41 0 78 -29q-8 -8 -12 -14q-28 25 -66 25q-34 0 -66 -25zM760 881l-15 16
q45 39 107 39q61 0 106 -39l-14 -16q-37 34 -92 34t-92 -34zM604 1057l-14 16q112 98 262 98q151 0 262 -100q1 0 -2 -3.5t-6 -7.5l-4 -3q-108 94 -250 94q-143 0 -248 -94zM852 492q-100 0 -170 61l14 16q70 -57 156 -57q87 0 154 57l14 -14q-73 -63 -168 -63zM852 584
q-61 0 -109 39l15 16q47 -35 94 -35q51 0 92 35l14 -16q-45 -39 -106 -39zM852 625q-43 0 -82 28l14 15q36 -25 68 -25q34 0 66 25l14 -15q-36 -28 -80 -28zM698 950l-14 15q73 63 168 63q98 0 168 -61l-14 -17q-68 58 -154 58q-87 0 -154 -58zM655 997l-14 17q91 78 211 78
q119 0 209 -80l-12 -15q-83 74 -197 74q-110 0 -197 -74zM1249 1223q-166 153 -397 153q-227 0 -397 -151l-15 14q179 158 412 158t412 -158zM352 1339l-14 17q104 95 236 146.5t278 51.5q145 0 278 -52t238 -146l-14 -17q-102 93 -231 144t-271 51t-270 -51t-230 -144z
M1057 594l-15 14q52 69 52 152t-54 153l17 15q57 -72 57 -168q0 -97 -57 -166z" />
    <glyph glyph-name="summation" unicode="&#x2211;" horiz-adv-x="1703" 
d="M258 246q-88 105 -136 237t-48 277q0 144 48 276t136 236q6 -4 14 -12q-85 -103 -131.5 -231.5t-46.5 -268.5q0 -285 180 -500zM467 432q-117 143 -117 328q0 183 115 327q3 -2 8 -7t8 -7q-110 -136 -110 -313q0 -182 110 -314zM541 498q-92 116 -92 262t92 262
q3 -2 8 -7t8 -7q-88 -109 -88 -248t88 -248q-3 -2 -8 -7t-8 -7zM647 592q-57 72 -57 168q0 97 57 166l15 -15q-52 -69 -52 -151q0 -84 54 -154q-3 -2 -8.5 -7t-8.5 -7zM715 655q-33 48 -33 105q0 56 33 104q3 -2 8 -7t8 -7q-29 -44 -29 -90t29 -90q-3 -2 -16 -15zM774 709
q-14 25 -14 51t14 51l12 -10q-10 -20 -10 -41t10 -41q-4 -4 -12 -10zM852 123q-236 0 -412 158l2.5 2.5l5 5l5.5 5.5t2 1q171 -152 397 -152q227 0 395 152q2 -3 7.5 -8t7.5 -8q-177 -156 -410 -156zM852 664q-31 0 -55 18l12 12q21 -14 43 -14q26 0 43 14q4 -4 10 -12
q-21 -18 -53 -18zM987 653q-7 10 -14 15q28 42 28 92q0 51 -28 90l2.5 2.5t5 4.5t5.5 5t1 2q35 -44 35 -104t-35 -107zM598 551q-72 91 -72 209q0 119 74 209l14 -15q-67 -87 -67 -194q0 -108 67 -195q-10 -10 -16 -14zM852 -35q-145 0 -278 52.5t-238 146.5l14 16
q102 -92 231 -143t271 -51q285 0 500 192q0 1 3.5 -2.5t6.5 -7.5l4 -4q-104 -95 -236 -147t-278 -52zM852 248q-189 0 -330 125l15 16q134 -121 315 -121q182 0 313 121q2 -3 7.5 -8t7.5 -8q-138 -125 -328 -125zM852 348q-145 0 -264 101l14 14q108 -94 250 -94
q143 0 248 94q2 -3 7 -8.5t7 -8.5q-112 -98 -262 -98zM852 428q-116 0 -211 78l14 16q86 -73 197 -73t197 73q4 -4 12 -16q-91 -78 -209 -78zM852 543q-77 0 -135 49l14 16q51 -45 121 -45q68 0 119 45q2 -3 7 -8t7 -8q-58 -49 -133 -49zM733 911q-4 3 -7 6.5t-6 6.5l-3 4
q58 49 135 49t135 -49l-16 -17q-51 45 -119 45t-119 -45zM1167 1130q-134 121 -315 121q-179 0 -313 -118l-15 14q141 125 328 125q189 0 330 -125q-4 -6 -15 -17zM930 709l-12 10q10 20 10 41t-10 41l12 10q14 -25 14 -51t-14 -51zM958 682q-10 10 -16 14q21 32 21 64
t-21 63l16 15q25 -36 25 -78t-25 -78zM1020 627q-6 4 -16 14q38 50 38 119t-38 119l14 14q45 -57 45 -133q0 -71 -43 -133zM1106 551q-3 2 -8 7t-8 7q67 87 67 195t-70 194l17 15q74 -90 74 -209q0 -118 -72 -209zM1163 498q-10 10 -16 14q88 109 88 248t-88 248l16 14
q92 -116 92 -262t-92 -262zM1237 432q-6 4 -16 14q112 134 112 314q0 182 -112 313l16 14q117 -139 117 -327q0 -189 -117 -328zM1329 350q-2 2 -7 6t-7 6q141 175 141 398q0 227 -143 395l16 14q148 -179 148 -409q0 -231 -148 -410zM1446 246q-6 6 -16 14q180 215 180 500
t-180 500l16 14q88 -105 136 -237t48 -277q0 -144 -48 -276t-136 -238zM375 348q-148 182 -148 412q0 229 146 409q2 -2 7.5 -6.5t8.5 -7.5q-141 -170 -141 -395q0 -228 141 -398zM684 627q-43 59 -43 133t43 133q6 -4 16 -14q-38 -50 -38 -119q0 -67 38 -117zM745 682
q-24 34 -24 78t24 78q2 -3 4.5 -5.5t6 -5.5t4.5 -4q-19 -34 -19 -63q0 -30 19 -64zM809 825l-10 13q21 18 53 18t53 -18l-10 -13q-23 15 -43 15q-25 0 -43 -15zM786 852l-14 14q37 29 80 29q41 0 78 -29q-8 -8 -12 -14q-28 25 -66 25q-34 0 -66 -25zM760 881l-15 16
q45 39 107 39q61 0 106 -39l-14 -16q-37 34 -92 34t-92 -34zM604 1057l-14 16q112 98 262 98q151 0 262 -100q1 0 -2 -3.5t-6 -7.5l-4 -3q-108 94 -250 94q-143 0 -248 -94zM852 492q-100 0 -170 61l14 16q70 -57 156 -57q87 0 154 57l14 -14q-73 -63 -168 -63zM852 584
q-61 0 -109 39l15 16q47 -35 94 -35q51 0 92 35l14 -16q-45 -39 -106 -39zM852 625q-43 0 -82 28l14 15q36 -25 68 -25q34 0 66 25l14 -15q-36 -28 -80 -28zM698 950l-14 15q73 63 168 63q98 0 168 -61l-14 -17q-68 58 -154 58q-87 0 -154 -58zM655 997l-14 17q91 78 211 78
q119 0 209 -80l-12 -15q-83 74 -197 74q-110 0 -197 -74zM1249 1223q-166 153 -397 153q-227 0 -397 -151l-15 14q179 158 412 158t412 -158zM352 1339l-14 17q104 95 236 146.5t278 51.5q145 0 278 -52t238 -146l-14 -17q-102 93 -231 144t-271 51t-270 -51t-230 -144z
M1057 594l-15 14q52 69 52 152t-54 153l17 15q57 -72 57 -168q0 -97 -57 -166z" />
    <glyph glyph-name="minus" unicode="&#x2212;" horiz-adv-x="1507" 
d="M129 541l78 362h1155l-78 -362h-1155z" />
    <glyph glyph-name="radical" unicode="&#x221a;" horiz-adv-x="1445" 
d="M246 -12l-174 966h420l75 -477l600 1041h410l-907 -1530h-424z" />
    <glyph glyph-name="infinity" unicode="&#x221e;" horiz-adv-x="2283" 
d="M774 -338l248 1167h-336l-248 -1167h-405l248 1167h-222l74 345h219l15 63q32 151 93.5 236.5t170.5 125t289 39.5q78 0 149 -6l-70 -329h-71q-85 0 -118.5 -23t-45.5 -82l-6 -24h336l14 63q32 151 93.5 236.5t170.5 125t289 39.5q79 0 149 -6l-69 -329h-72
q-85 0 -118.5 -23t-45.5 -82l-6 -24h215l-74 -345h-213l-247 -1167h-406zM1589 0l250 1174h406l-250 -1174h-406zM1855 1260l70 329h410l-70 -329h-410z" />
    <glyph glyph-name="integral" unicode="&#x222b;" horiz-adv-x="1703" 
d="M258 246q-88 105 -136 237t-48 277q0 144 48 276t136 236q6 -4 14 -12q-85 -103 -131.5 -231.5t-46.5 -268.5q0 -285 180 -500zM467 432q-117 143 -117 328q0 183 115 327q3 -2 8 -7t8 -7q-110 -136 -110 -313q0 -182 110 -314zM541 498q-92 116 -92 262t92 262
q3 -2 8 -7t8 -7q-88 -109 -88 -248t88 -248q-3 -2 -8 -7t-8 -7zM647 592q-57 72 -57 168q0 97 57 166l15 -15q-52 -69 -52 -151q0 -84 54 -154q-3 -2 -8.5 -7t-8.5 -7zM715 655q-33 48 -33 105q0 56 33 104q3 -2 8 -7t8 -7q-29 -44 -29 -90t29 -90q-3 -2 -16 -15zM774 709
q-14 25 -14 51t14 51l12 -10q-10 -20 -10 -41t10 -41q-4 -4 -12 -10zM852 123q-236 0 -412 158l2.5 2.5l5 5l5.5 5.5t2 1q171 -152 397 -152q227 0 395 152q2 -3 7.5 -8t7.5 -8q-177 -156 -410 -156zM852 664q-31 0 -55 18l12 12q21 -14 43 -14q26 0 43 14q4 -4 10 -12
q-21 -18 -53 -18zM987 653q-7 10 -14 15q28 42 28 92q0 51 -28 90l2.5 2.5t5 4.5t5.5 5t1 2q35 -44 35 -104t-35 -107zM598 551q-72 91 -72 209q0 119 74 209l14 -15q-67 -87 -67 -194q0 -108 67 -195q-10 -10 -16 -14zM852 -35q-145 0 -278 52.5t-238 146.5l14 16
q102 -92 231 -143t271 -51q285 0 500 192q0 1 3.5 -2.5t6.5 -7.5l4 -4q-104 -95 -236 -147t-278 -52zM852 248q-189 0 -330 125l15 16q134 -121 315 -121q182 0 313 121q2 -3 7.5 -8t7.5 -8q-138 -125 -328 -125zM852 348q-145 0 -264 101l14 14q108 -94 250 -94
q143 0 248 94q2 -3 7 -8.5t7 -8.5q-112 -98 -262 -98zM852 428q-116 0 -211 78l14 16q86 -73 197 -73t197 73q4 -4 12 -16q-91 -78 -209 -78zM852 543q-77 0 -135 49l14 16q51 -45 121 -45q68 0 119 45q2 -3 7 -8t7 -8q-58 -49 -133 -49zM733 911q-4 3 -7 6.5t-6 6.5l-3 4
q58 49 135 49t135 -49l-16 -17q-51 45 -119 45t-119 -45zM1167 1130q-134 121 -315 121q-179 0 -313 -118l-15 14q141 125 328 125q189 0 330 -125q-4 -6 -15 -17zM930 709l-12 10q10 20 10 41t-10 41l12 10q14 -25 14 -51t-14 -51zM958 682q-10 10 -16 14q21 32 21 64
t-21 63l16 15q25 -36 25 -78t-25 -78zM1020 627q-6 4 -16 14q38 50 38 119t-38 119l14 14q45 -57 45 -133q0 -71 -43 -133zM1106 551q-3 2 -8 7t-8 7q67 87 67 195t-70 194l17 15q74 -90 74 -209q0 -118 -72 -209zM1163 498q-10 10 -16 14q88 109 88 248t-88 248l16 14
q92 -116 92 -262t-92 -262zM1237 432q-6 4 -16 14q112 134 112 314q0 182 -112 313l16 14q117 -139 117 -327q0 -189 -117 -328zM1329 350q-2 2 -7 6t-7 6q141 175 141 398q0 227 -143 395l16 14q148 -179 148 -409q0 -231 -148 -410zM1446 246q-6 6 -16 14q180 215 180 500
t-180 500l16 14q88 -105 136 -237t48 -277q0 -144 -48 -276t-136 -238zM375 348q-148 182 -148 412q0 229 146 409q2 -2 7.5 -6.5t8.5 -7.5q-141 -170 -141 -395q0 -228 141 -398zM684 627q-43 59 -43 133t43 133q6 -4 16 -14q-38 -50 -38 -119q0 -67 38 -117zM745 682
q-24 34 -24 78t24 78q2 -3 4.5 -5.5t6 -5.5t4.5 -4q-19 -34 -19 -63q0 -30 19 -64zM809 825l-10 13q21 18 53 18t53 -18l-10 -13q-23 15 -43 15q-25 0 -43 -15zM786 852l-14 14q37 29 80 29q41 0 78 -29q-8 -8 -12 -14q-28 25 -66 25q-34 0 -66 -25zM760 881l-15 16
q45 39 107 39q61 0 106 -39l-14 -16q-37 34 -92 34t-92 -34zM604 1057l-14 16q112 98 262 98q151 0 262 -100q1 0 -2 -3.5t-6 -7.5l-4 -3q-108 94 -250 94q-143 0 -248 -94zM852 492q-100 0 -170 61l14 16q70 -57 156 -57q87 0 154 57l14 -14q-73 -63 -168 -63zM852 584
q-61 0 -109 39l15 16q47 -35 94 -35q51 0 92 35l14 -16q-45 -39 -106 -39zM852 625q-43 0 -82 28l14 15q36 -25 68 -25q34 0 66 25l14 -15q-36 -28 -80 -28zM698 950l-14 15q73 63 168 63q98 0 168 -61l-14 -17q-68 58 -154 58q-87 0 -154 -58zM655 997l-14 17q91 78 211 78
q119 0 209 -80l-12 -15q-83 74 -197 74q-110 0 -197 -74zM1249 1223q-166 153 -397 153q-227 0 -397 -151l-15 14q179 158 412 158t412 -158zM352 1339l-14 17q104 95 236 146.5t278 51.5q145 0 278 -52t238 -146l-14 -17q-102 93 -231 144t-271 51t-270 -51t-230 -144z
M1057 594l-15 14q52 69 52 152t-54 153l17 15q57 -72 57 -168q0 -97 -57 -166z" />
    <glyph glyph-name="approxequal" unicode="&#x2248;" horiz-adv-x="1507" 
d="M293 262l-197 189q184 221 373 221q73 0 156 -29t153 -57.5t111 -28.5q77 0 162 98l196 -188q-184 -221 -373 -221q-73 0 -156 28.5t-152.5 57t-110.5 28.5q-77 0 -162 -98zM408 791l-197 188q184 221 373 221q73 0 156 -29t153 -57.5t111 -28.5q75 0 161 99l197 -189
q-184 -221 -373 -221q-73 0 -156 29t-153 57.5t-111 28.5q-76 0 -161 -98z" />
    <glyph glyph-name="notequal" unicode="&#x2260;" horiz-adv-x="1712" 
d="M774 -338l248 1167h-336l-248 -1167h-405l248 1167h-222l74 345h219l15 63q32 151 93.5 236.5t170.5 125t289 39.5q78 0 149 -6l-70 -329h-71q-85 0 -118.5 -23t-45.5 -82l-6 -24h336l14 63q32 151 93.5 236.5t170.5 125t289 39.5q120 0 190 -6l-69 -329h-113
q-85 0 -118.5 -23t-45.5 -82l-6 -24h256l-74 -345h-254l-247 -1167h-406z" />
    <glyph glyph-name="lessequal" unicode="&#x2264;" horiz-adv-x="1507" 
d="M72 0l73 348h564l-504 266l53 252l1055 453l-78 -367l-580 -221l486 -221l-74 -350h-2l-33 -160h-960z" />
    <glyph glyph-name="greaterequal" unicode="&#x2265;" horiz-adv-x="1507" 
d="M152 0l73 348l35 162l580 221l-486 221l78 367l862 -453l-53 -252l-618 -266h563l-74 -348h-960z" />
    <glyph glyph-name="lozenge" unicode="&#x25ca;" horiz-adv-x="1722" 
d="M59 829l74 345h219l15 63q32 151 93.5 236.5t170.5 125t289 39.5q100 0 170 -6l-70 -329h-92q-85 0 -118.5 -23t-45.5 -82l-6 -24h329l119 251l328 68l-68 -319h256l-73 -345h-256l-78 -370q-9 -40 -7 -67t29.5 -40.5t89.5 -13.5h117l-71 -338q-91 -6 -207 -6
q-174 0 -264.5 49.5t-108.5 148t12 246.5l84 391h-303l-248 -1167h-405l248 1167h-222z" />
    <glyph glyph-name="apple" unicode="&#xf8ff;" horiz-adv-x="1703" 
d="M258 246q-88 105 -136 237t-48 277q0 144 48 276t136 236q6 -4 14 -12q-85 -103 -131.5 -231.5t-46.5 -268.5q0 -285 180 -500zM467 432q-117 143 -117 328q0 183 115 327q3 -2 8 -7t8 -7q-110 -136 -110 -313q0 -182 110 -314zM541 498q-92 116 -92 262t92 262
q3 -2 8 -7t8 -7q-88 -109 -88 -248t88 -248q-3 -2 -8 -7t-8 -7zM647 592q-57 72 -57 168q0 97 57 166l15 -15q-52 -69 -52 -151q0 -84 54 -154q-3 -2 -8.5 -7t-8.5 -7zM715 655q-33 48 -33 105q0 56 33 104q3 -2 8 -7t8 -7q-29 -44 -29 -90t29 -90q-3 -2 -16 -15zM774 709
q-14 25 -14 51t14 51l12 -10q-10 -20 -10 -41t10 -41q-4 -4 -12 -10zM852 123q-236 0 -412 158l2.5 2.5l5 5l5.5 5.5t2 1q171 -152 397 -152q227 0 395 152q2 -3 7.5 -8t7.5 -8q-177 -156 -410 -156zM852 664q-31 0 -55 18l12 12q21 -14 43 -14q26 0 43 14q4 -4 10 -12
q-21 -18 -53 -18zM987 653q-7 10 -14 15q28 42 28 92q0 51 -28 90l2.5 2.5t5 4.5t5.5 5t1 2q35 -44 35 -104t-35 -107zM598 551q-72 91 -72 209q0 119 74 209l14 -15q-67 -87 -67 -194q0 -108 67 -195q-10 -10 -16 -14zM852 -35q-145 0 -278 52.5t-238 146.5l14 16
q102 -92 231 -143t271 -51q285 0 500 192q0 1 3.5 -2.5t6.5 -7.5l4 -4q-104 -95 -236 -147t-278 -52zM852 248q-189 0 -330 125l15 16q134 -121 315 -121q182 0 313 121q2 -3 7.5 -8t7.5 -8q-138 -125 -328 -125zM852 348q-145 0 -264 101l14 14q108 -94 250 -94
q143 0 248 94q2 -3 7 -8.5t7 -8.5q-112 -98 -262 -98zM852 428q-116 0 -211 78l14 16q86 -73 197 -73t197 73q4 -4 12 -16q-91 -78 -209 -78zM852 543q-77 0 -135 49l14 16q51 -45 121 -45q68 0 119 45q2 -3 7 -8t7 -8q-58 -49 -133 -49zM733 911q-4 3 -7 6.5t-6 6.5l-3 4
q58 49 135 49t135 -49l-16 -17q-51 45 -119 45t-119 -45zM1167 1130q-134 121 -315 121q-179 0 -313 -118l-15 14q141 125 328 125q189 0 330 -125q-4 -6 -15 -17zM930 709l-12 10q10 20 10 41t-10 41l12 10q14 -25 14 -51t-14 -51zM958 682q-10 10 -16 14q21 32 21 64
t-21 63l16 15q25 -36 25 -78t-25 -78zM1020 627q-6 4 -16 14q38 50 38 119t-38 119l14 14q45 -57 45 -133q0 -71 -43 -133zM1106 551q-3 2 -8 7t-8 7q67 87 67 195t-70 194l17 15q74 -90 74 -209q0 -118 -72 -209zM1163 498q-10 10 -16 14q88 109 88 248t-88 248l16 14
q92 -116 92 -262t-92 -262zM1237 432q-6 4 -16 14q112 134 112 314q0 182 -112 313l16 14q117 -139 117 -327q0 -189 -117 -328zM1329 350q-2 2 -7 6t-7 6q141 175 141 398q0 227 -143 395l16 14q148 -179 148 -409q0 -231 -148 -410zM1446 246q-6 6 -16 14q180 215 180 500
t-180 500l16 14q88 -105 136 -237t48 -277q0 -144 -48 -276t-136 -238zM375 348q-148 182 -148 412q0 229 146 409q2 -2 7.5 -6.5t8.5 -7.5q-141 -170 -141 -395q0 -228 141 -398zM684 627q-43 59 -43 133t43 133q6 -4 16 -14q-38 -50 -38 -119q0 -67 38 -117zM745 682
q-24 34 -24 78t24 78q2 -3 4.5 -5.5t6 -5.5t4.5 -4q-19 -34 -19 -63q0 -30 19 -64zM809 825l-10 13q21 18 53 18t53 -18l-10 -13q-23 15 -43 15q-25 0 -43 -15zM786 852l-14 14q37 29 80 29q41 0 78 -29q-8 -8 -12 -14q-28 25 -66 25q-34 0 -66 -25zM760 881l-15 16
q45 39 107 39q61 0 106 -39l-14 -16q-37 34 -92 34t-92 -34zM604 1057l-14 16q112 98 262 98q151 0 262 -100q1 0 -2 -3.5t-6 -7.5l-4 -3q-108 94 -250 94q-143 0 -248 -94zM852 492q-100 0 -170 61l14 16q70 -57 156 -57q87 0 154 57l14 -14q-73 -63 -168 -63zM852 584
q-61 0 -109 39l15 16q47 -35 94 -35q51 0 92 35l14 -16q-45 -39 -106 -39zM852 625q-43 0 -82 28l14 15q36 -25 68 -25q34 0 66 25l14 -15q-36 -28 -80 -28zM698 950l-14 15q73 63 168 63q98 0 168 -61l-14 -17q-68 58 -154 58q-87 0 -154 -58zM655 997l-14 17q91 78 211 78
q119 0 209 -80l-12 -15q-83 74 -197 74q-110 0 -197 -74zM1249 1223q-166 153 -397 153q-227 0 -397 -151l-15 14q179 158 412 158t412 -158zM352 1339l-14 17q104 95 236 146.5t278 51.5q145 0 278 -52t238 -146l-14 -17q-102 93 -231 144t-271 51t-270 -51t-230 -144z
M1057 594l-15 14q52 69 52 152t-54 153l17 15q57 -72 57 -168q0 -97 -57 -166z" />
    </font>
</defs>
</svg>
