<?xml version="1.0" standalone="no"?>
<!DOCTYPE svg PUBLIC "-//W3C//DTD SVG 1.1//EN" "http://www.w3.org/Graphics/SVG/1.1/DTD/svg11.dtd" >
<svg xmlns="http://www.w3.org/2000/svg" xmlns:xlink="http://www.w3.org/1999/xlink" version="1.1">
<metadata>
Created by FontForge 20201107 at Wed Dec 24 15:01:22 2025
 By 
Copyright (c) The Font Bureau, Inc., 2003. All rights reserved.
</metadata>
<defs>
<font id="AntennaCond-ThinItalic" horiz-adv-x="925" >
  <font-face 
    font-family="AntennaCond ThinItalic"
    font-weight="100"
    font-style="italic"
    font-stretch="normal"
    units-per-em="2048"
    panose-1="2 0 5 6 0 0 0 2 0 4"
    ascent="1638"
    descent="-410"
    x-height="1110"
    cap-height="1518"
    bbox="-227 -397 2079 1897"
    underline-thickness="102"
    underline-position="-204"
    slope="-10"
    unicode-range="U+0020-FB02"
  />
<missing-glyph horiz-adv-x="391" 
 />
    <glyph glyph-name="fi" unicode="fi" horiz-adv-x="890" 
d="M106 1061l11 49h162l38 213q12 64 28.5 107t45.5 77.5t75.5 51t113.5 16.5h94l-10 -49h-84q-48 0 -83.5 -11.5t-56.5 -28.5t-36 -48.5t-22 -57.5t-15 -71l-35 -199h260l-10 -49h-260l-244 -1385h-51l243 1385h-164zM565 0l197 1110h51l-197 -1110h-51zM793 1288l30 170
h51l-30 -170h-51z" />
    <glyph glyph-name="fl" unicode="fl" horiz-adv-x="983" 
d="M106 1061l11 49h162l38 213q12 64 28.5 107t45.5 77.5t75.5 51t113.5 16.5h94l-10 -49h-84q-48 0 -83.5 -11.5t-56.5 -28.5t-36 -48.5t-22 -57.5t-15 -71l-35 -199h260l-10 -49h-260l-244 -1385h-51l243 1385h-164zM764 0q-57 0 -93.5 10.5t-54.5 25.5t-23.5 44.5t-3 55
t10.5 69.5l244 1370h51l-246 -1385q-9 -49 -8 -80t31.5 -46t101.5 -15l-8 -49h-2z" />
    <glyph glyph-name="f_f_l" unicode="ffl" horiz-adv-x="1466" 
d="M510 -324l244 1385h-432l-244 -1385h-51l243 1385h-164l11 49h162l38 213q12 64 28.5 107t45.5 77.5t75.5 51t113.5 16.5h94l-10 -49h-84q-48 0 -83.5 -11.5t-56.5 -28.5t-36 -48.5t-22 -57.5t-15 -71l-35 -199h430l39 213q12 64 28 107t45 77.5t75.5 51t113.5 16.5h94
l-10 -49h-84q-48 0 -83.5 -11.5t-56.5 -28.5t-36 -48.5t-22 -57.5t-15 -71l-35 -199h260l-10 -49h-260l-244 -1385h-51zM1247 0q-57 0 -93.5 10.5t-54.5 25.5t-23.5 44.5t-3 55t10.5 69.5l244 1370h51l-245 -1385q-9 -49 -8.5 -80t31 -46t101.5 -15l-8 -49h-2z" />
    <glyph glyph-name="f_f_i" unicode="ffi" horiz-adv-x="1374" 
d="M510 -324l244 1385h-432l-244 -1385h-51l243 1385h-164l11 49h162l38 213q12 64 28.5 107t45.5 77.5t75.5 51t113.5 16.5h94l-10 -49h-84q-48 0 -83.5 -11.5t-56.5 -28.5t-36 -48.5t-22 -57.5t-15 -71l-35 -199h430l39 213q12 64 28 107t45 77.5t75.5 51t113.5 16.5h94
l-10 -49h-84q-48 0 -83.5 -11.5t-56.5 -28.5t-36 -48.5t-22 -57.5t-15 -71l-35 -199h260l-10 -49h-260l-244 -1385h-51zM1049 0l196 1110h51l-196 -1110h-51zM1276 1288l31 170h51l-31 -170h-51z" />
    <glyph glyph-name="f_j" unicode="fj" horiz-adv-x="890" 
d="M106 1061l11 49h162l38 213q12 64 28.5 107t45.5 77.5t75.5 51t113.5 16.5h94l-10 -49h-84q-48 0 -83.5 -11.5t-56.5 -28.5t-36 -48.5t-22 -57.5t-15 -71l-35 -199h260l-10 -49h-260l-244 -1385h-51l243 1385h-164zM377 -324l8 50h10q75 0 104.5 30t43.5 115l219 1239h51
l-221 -1249q-18 -103 -57.5 -144t-137.5 -41h-20zM793 1288l30 170h51l-30 -170h-51z" />
    <glyph glyph-name="f_f" unicode="ff" horiz-adv-x="1040" 
d="M510 -324l244 1385h-432l-244 -1385h-51l243 1385h-164l11 49h162l38 213q12 64 28.5 107t45.5 77.5t75.5 51t113.5 16.5h94l-10 -49h-84q-48 0 -83.5 -11.5t-56.5 -28.5t-36 -48.5t-22 -57.5t-15 -71l-35 -199h430l39 213q12 64 28 107t45 77.5t75.5 51t113.5 16.5h94
l-10 -49h-84q-48 0 -83.5 -11.5t-56.5 -28.5t-36 -48.5t-22 -57.5t-15 -71l-35 -199h260l-10 -49h-260l-244 -1385h-51z" />
    <glyph glyph-name=".notdef" horiz-adv-x="391" 
 />
    <glyph glyph-name=".null" horiz-adv-x="0" 
 />
    <glyph glyph-name="nonmarkingreturn" horiz-adv-x="682" 
 />
    <glyph glyph-name="space" unicode=" " horiz-adv-x="391" 
 />
    <glyph glyph-name="space" unicode="&#xa0;" horiz-adv-x="391" 
 />
    <glyph glyph-name="exclam" unicode="!" horiz-adv-x="532" 
d="M90 0l23 129h86l-23 -129h-86zM180 383l193 1135h59l-209 -1135h-43z" />
    <glyph glyph-name="quotedbl" unicode="&#x22;" horiz-adv-x="663" 
d="M215 1014l86 504h51l-94 -504h-43zM496 1014l86 504h51l-94 -504h-43z" />
    <glyph glyph-name="numbersign" unicode="#" horiz-adv-x="1079" 
d="M195 0l96 543h-211l8 49h211l61 348h-215l11 49h213l94 529h51l-94 -529h295l94 529h51l-94 -529h233l-10 -49h-231l-62 -348h236l-8 -49h-236l-96 -543h-51l96 543h-295l-96 -543h-51zM350 592h295l62 348h-295z" />
    <glyph glyph-name="dollar" unicode="$" horiz-adv-x="1013" 
d="M319 -184l33 186q-196 13 -319 115l30 39q115 -94 299 -105l132 737q-60 42 -97.5 74t-71.5 73t-49.5 86.5t-15.5 100.5q0 181 90 287t268 109l35 184h49l-34 -186q147 -7 268 -78l-27 -43q-111 66 -252 71l-114 -653q71 -48 114 -83.5t83 -81.5t57.5 -98.5t17.5 -117.5
q0 -203 -107.5 -317.5t-291.5 -114.5h-15l-32 -184h-50zM764 432q0 54 -15 98.5t-48.5 84t-71 71.5t-97.5 74l-124 -711h8q161 0 254.5 101.5t93.5 281.5zM311 1122q0 -86 46 -148t145 -132l112 626q-151 -4 -227 -95.5t-76 -250.5z" />
    <glyph glyph-name="percent" unicode="%" horiz-adv-x="1544" 
d="M330 610q-109 0 -162 65t-53 202q0 85 22 217q30 168 75.5 266t104 136t144.5 38q113 0 167 -63.5t54 -200.5q0 -89 -25 -223q-29 -168 -74 -264.5t-104.5 -134.5t-148.5 -38zM330 659q111 0 173.5 86t102.5 310q25 134 25 215q0 112 -41.5 163.5t-128.5 51.5
q-108 0 -170 -90.5t-103 -309.5q-22 -129 -22 -208q0 -112 40 -165t124 -53zM1079 -14q-109 0 -162 64.5t-53 201.5q0 79 23 217q30 168 75.5 266t103.5 136t144 38q113 0 167.5 -63.5t54.5 -200.5q0 -89 -25 -223q-29 -168 -74.5 -264.5t-105 -134t-148.5 -37.5zM1079 35
q111 0 174 85.5t103 309.5q24 129 24 215q0 112 -41.5 163.5t-128.5 51.5q-108 0 -169.5 -90t-102.5 -309q-23 -135 -23 -209q0 -112 40 -164.5t124 -52.5zM299 0l897 1518h51l-897 -1518h-51z" />
    <glyph glyph-name="ampersand" unicode="&#x26;" horiz-adv-x="1185" 
d="M373 -10q-99 0 -168.5 24.5t-106.5 69.5t-53 97.5t-16 119.5q0 102 23.5 183t75.5 149t112.5 120.5t156.5 120.5q-69 150 -69 302q0 168 61.5 265t188.5 97q223 0 223 -203q0 -50 -10 -95.5t-23.5 -80.5t-42 -72.5t-50.5 -62t-64.5 -59t-69 -54t-78.5 -55.5
q32 -66 119 -209l202 -340q49 81 93.5 197.5t71 205t63.5 230.5l49 -12q-41 -154 -68 -246t-76 -215.5t-104 -208.5l156 -258h-58l-129 213q-162 -223 -409 -223zM373 39q228 0 381 221l-215 358q-80 133 -121 211q-91 -64 -146.5 -112.5t-103 -111t-68 -136t-20.5 -168.5
q0 -262 293 -262zM379 1176q0 -131 65 -277q61 43 97.5 71.5t81.5 72t69 83.5t41 94t17 115q0 72 -39 113t-133 41q-100 0 -149.5 -84t-49.5 -229z" />
    <glyph glyph-name="quotesingle" unicode="'" horiz-adv-x="382" 
d="M215 1014l86 504h51l-94 -504h-43z" />
    <glyph glyph-name="parenleft" unicode="(" horiz-adv-x="700" 
d="M338 -342q-84 116 -140.5 290.5t-56.5 397.5q0 191 45.5 383t121 351t170.5 288t198 211l33 -39q-99 -79 -190.5 -203.5t-164.5 -278t-117 -340.5t-44 -372q0 -216 53 -382.5t133 -276.5z" />
    <glyph glyph-name="parenright" unicode=")" horiz-adv-x="700" 
d="M-23 -342l-32 39q99 79 190.5 203.5t164.5 278t117 340.5t44 372q0 216 -53.5 382t-133.5 277l41 29q84 -116 140.5 -290.5t56.5 -397.5q0 -191 -45.5 -383t-121 -351t-170.5 -288t-198 -211z" />
    <glyph glyph-name="asterisk" unicode="*" horiz-adv-x="864" 
d="M442 743l-47 9l68 348l-313 -117l-15 43l314 109l-259 213l31 36l254 -221l55 353l48 -9l-66 -350l315 121l17 -43l-318 -113l260 -211l-30 -39l-256 222z" />
    <glyph glyph-name="plus" unicode="+" horiz-adv-x="1056" 
d="M422 299l70 395h-322l8 49h322l69 394h52l-70 -394h323l-8 -49h-323l-70 -395h-51z" />
    <glyph glyph-name="comma" unicode="," horiz-adv-x="333" 
d="M-35 -162l-14 35q44 23 60.5 47.5t25.5 79.5h-47l22 129h88l-22 -129q-12 -69 -35 -103t-78 -59z" />
    <glyph glyph-name="hyphen" unicode="-" horiz-adv-x="735" 
d="M66 575l8 50h544l-8 -50h-544z" />
    <glyph glyph-name="hyphen" unicode="&#xad;" horiz-adv-x="735" 
d="M66 575l8 50h544l-8 -50h-544z" />
    <glyph glyph-name="period" unicode="." horiz-adv-x="333" 
d="M-10 0l22 129h88l-22 -129h-88z" />
    <glyph glyph-name="slash" unicode="/" horiz-adv-x="704" 
d="M-135 0l923 1518h52l-924 -1518h-51z" />
    <glyph glyph-name="zero" unicode="0" horiz-adv-x="1056" 
d="M438 -14q-186 0 -267 92t-81 295q0 148 47 420q38 218 79.5 355.5t100.5 225.5t133 123t181 35q178 0 257 -93t79 -296q0 -165 -47 -420q-51 -287 -112.5 -445t-148 -225t-221.5 -67zM438 35q118 0 194 63t131.5 212t104.5 421q47 255 47 412q0 177 -66.5 258.5
t-217.5 81.5q-97 0 -164 -35t-119 -121t-88 -213t-72 -330q-47 -273 -47 -411q0 -177 69.5 -257.5t227.5 -80.5z" />
    <glyph glyph-name="one" unicode="1" horiz-adv-x="528" 
d="M152 0l258 1468h-240l10 50h291l-268 -1518h-51z" />
    <glyph glyph-name="two" unicode="2" horiz-adv-x="876" 
d="M-37 0l8 47l355 426q244 294 314 392q113 159 140 283q13 59 13 128q0 103 -58.5 155t-195.5 52q-144 0 -265 -56l-22 46q130 59 287 59q165 0 235 -64t70 -192q0 -177 -88 -321t-384 -500l-12 -15l-325 -391h602l-10 -49h-664z" />
    <glyph glyph-name="three" unicode="3" horiz-adv-x="862" 
d="M295 -14q-109 0 -184.5 23t-143.5 63l29 43q66 -38 132 -59t167 -21q70 0 121.5 17.5t95.5 59t74.5 115t50.5 181.5q16 106 16 151q0 55 -13 96t-45 75.5t-93 52.5t-150 18h-98l8 49h164q77 0 131.5 20t89.5 61t55 93t33 127q13 73 13 121q0 119 -58.5 165t-189.5 46
q-129 0 -250 -56l-23 46q130 59 273 59q158 0 228.5 -56.5t70.5 -203.5q0 -59 -13 -129q-25 -138 -78 -217t-161 -107q87 -32 122.5 -97.5t35.5 -162.5q0 -47 -17 -160q-22 -121 -56.5 -202t-85 -127t-110.5 -65t-141 -19z" />
    <glyph glyph-name="four" unicode="4" horiz-adv-x="978" 
d="M31 399l10 50l719 1069h57l-721 -1069h494l100 514h43l-92 -514h225l-10 -50h-223l-70 -399h-51l70 399h-551z" />
    <glyph glyph-name="five" unicode="5" horiz-adv-x="897" 
d="M338 -14q-219 0 -356 86l28 43q130 -80 328 -80q76 0 126.5 14t98.5 57t81 128.5t56 220.5q21 133 21 194q0 149 -68 206.5t-221 57.5q-64 0 -128.5 -23t-110.5 -59l-43 11l153 676h561l-10 -50h-510l-129 -565q103 60 217 60q180 0 260 -68.5t80 -245.5q0 -76 -20 -203
q-17 -100 -39.5 -175t-52.5 -125t-62.5 -82t-76 -49t-85 -23t-98.5 -6z" />
    <glyph glyph-name="six" unicode="6" horiz-adv-x="985" 
d="M414 -14q-191 0 -269.5 80.5t-78.5 246.5q0 115 32 299q61 342 97 467q62 212 171 309q130 115 396 128q38 2 80 2h35l-11 -50h-24q-90 0 -161 -8t-129 -27t-101 -44t-78.5 -67t-60.5 -86.5t-47 -112t-38 -134t-34 -162.5q64 95 148 131.5t191 36.5q122 0 195.5 -35
t102.5 -95t30 -152q0 -96 -20 -205q-24 -140 -54.5 -233t-79.5 -160.5t-120 -98t-172 -30.5zM414 35q88 0 150 28t105 90.5t69.5 146t49.5 212.5q21 123 21 188q0 122 -63 184t-214 62q-154 0 -253.5 -85.5t-135.5 -287.5q-26 -153 -26 -247q0 -147 67.5 -219t229.5 -72z
" />
    <glyph glyph-name="seven" unicode="7" horiz-adv-x="739" 
d="M72 0l716 1468h-620l10 50h676l-8 -43l-719 -1475h-55z" />
    <glyph glyph-name="eight" unicode="8" horiz-adv-x="1003" 
d="M416 -14q-106 0 -180 23.5t-114 68.5t-57.5 100t-17.5 127q0 466 318 539q-140 62 -140 243q0 99 20.5 178t64 140t117.5 94t175 33q93 0 158.5 -21t101 -60.5t51 -87t15.5 -108.5q0 -360 -250 -428q164 -62 164 -280q0 -121 -23.5 -220t-73 -177t-133 -121t-196.5 -43z
M416 35q99 0 173 39t117 110t64 161.5t21 201.5q0 126 -68.5 196t-235.5 70q-89 0 -157.5 -28.5t-111.5 -75t-70.5 -113.5t-38.5 -138t-11 -153q0 -61 15 -107.5t50 -84.5t98.5 -58t154.5 -20zM553 860q324 0 324 395q0 106 -62 167t-213 61q-88 0 -152 -29.5t-101.5 -84
t-55 -124.5t-17.5 -158q0 -106 62.5 -166.5t214.5 -60.5z" />
    <glyph glyph-name="nine" unicode="9" horiz-adv-x="987" 
d="M109 0l10 49h24q90 0 161 8t129 27t101.5 44t79 67t60 86.5t47 112t38.5 134.5t34 162q-64 -95 -148 -131.5t-192 -36.5q-179 0 -252.5 71t-75.5 212q0 96 20 205q24 140 54.5 233t79.5 160.5t120 98t172 30.5q191 0 270 -81t79 -247q0 -109 -33 -299q-61 -342 -97 -467
q-63 -212 -171 -308q-130 -115 -396 -128q-38 -2 -80 -2h-34zM453 571q154 0 253.5 85.5t135.5 287.5q26 153 26 248q0 147 -67.5 219t-229.5 72q-88 0 -150 -28t-105 -90.5t-69.5 -146t-49.5 -212.5q-21 -122 -21 -189q0 -122 63 -184t214 -62z" />
    <glyph glyph-name="colon" unicode=":" horiz-adv-x="366" 
d="M6 0l23 129h88l-23 -129h-88zM178 981l25 129h88l-25 -129h-88z" />
    <glyph glyph-name="semicolon" unicode=";" horiz-adv-x="366" 
d="M178 981l25 129h88l-25 -129h-88zM-18 -162l-15 35q44 23 60.5 47.5t25.5 79.5h-47l23 129h88l-23 -129q-13 -69 -35 -103t-77 -59z" />
    <glyph glyph-name="less" unicode="&#x3c;" horiz-adv-x="1050" 
d="M750 287l-605 397l9 49l743 397l-8 -55l-696 -368l565 -367z" />
    <glyph glyph-name="equal" unicode="=" horiz-adv-x="1058" 
d="M145 508l9 49h682l-9 -49h-682zM203 842l10 49h682l-10 -49h-682z" />
    <glyph glyph-name="greater" unicode="&#x3e;" horiz-adv-x="1056" 
d="M137 287l8 57l697 367l-566 368l9 51l604 -397l-8 -49z" />
    <glyph glyph-name="question" unicode="?" 
d="M328 383q8 57 11.5 82.5t12 67t16 60.5t22.5 51.5t32 53.5t44 52.5t59.5 62t78.5 70.5q116 100 168.5 185t52.5 214q0 201 -258 201q-64 0 -146.5 -19t-135.5 -45l-23 45q56 27 145.5 47.5t159.5 20.5q310 0 310 -250q0 -75 -16 -136t-52 -113.5t-74 -92t-102 -94.5
q-66 -57 -106 -99t-65.5 -76t-40 -77.5t-22 -80.5t-17.5 -108q-2 -15 -3 -22h-51zM242 0l22 129h86l-22 -129h-86z" />
    <glyph glyph-name="at" unicode="@" horiz-adv-x="1685" 
d="M696 -338q-147 0 -256.5 32t-191 103t-123 193t-41.5 295q0 160 37 366q28 159 68 287.5t85.5 219.5t103 158.5t115 108.5t127 65.5t134 33t141.5 8.5q161 0 278.5 -32t203.5 -104.5t128.5 -194.5t42.5 -296q0 -160 -37 -366q-27 -149 -55.5 -243.5t-65 -142t-73 -63.5
t-90.5 -16q-205 0 -215 182q-56 -94 -128.5 -137t-189.5 -43q-152 0 -213 83t-61 232q0 97 26 246q14 75 27.5 129.5t34 114.5t48 101t64.5 75.5t88.5 51.5t114.5 17q256 0 297 -204l39 192l45 -2l-129 -717q-26 -147 8.5 -209.5t143.5 -62.5q59 0 96 30.5t71.5 124
t65.5 269.5q37 214 37 358q0 160 -39.5 273t-118.5 179.5t-187.5 96t-256.5 29.5q-108 0 -193 -19.5t-170 -74.5t-149 -147t-119 -242.5t-92 -356.5q-37 -197 -37 -358q0 -159 38 -271.5t113 -178t175 -95t235 -29.5q233 0 461 80l17 -47q-238 -82 -478 -82zM694 125
q50 0 91.5 8.5t74 27.5t57.5 40.5t44.5 56.5t33.5 66t26.5 78.5t20 84.5t17.5 93q26 149 26 227q0 64 -11 109.5t-39 84t-81 57.5t-131 19q-47 0 -86.5 -12t-68.5 -31.5t-53 -52.5t-41 -67t-31.5 -84t-24 -94t-20.5 -105q-27 -162 -27 -240q0 -128 48.5 -197t174.5 -69z" />
    <glyph glyph-name="A" unicode="A" horiz-adv-x="1058" 
d="M-80 0l723 1526h43l180 -1526h-49l-51 424h-594l-201 -424h-51zM193 469h569l-113 963z" />
    <glyph glyph-name="B" unicode="B" horiz-adv-x="1032" 
d="M18 0l269 1518h293q219 0 318 -66t99 -227q0 -49 -10 -111q-15 -83 -40.5 -142.5t-60.5 -95.5t-73 -56t-88 -32q89 -31 131.5 -97.5t42.5 -180.5q0 -64 -12 -129q-21 -115 -61 -192t-98 -117t-122 -56t-149 -16h-439zM78 49h379q77 0 132.5 12.5t107 47.5t86 104.5
t53.5 175.5q12 68 12 121q0 150 -84.5 206t-278.5 56h-280zM215 821h387q66 0 113.5 11t94 41.5t78 92.5t48.5 156q10 62 10 103q0 133 -87 188t-279 55h-250z" />
    <glyph glyph-name="C" unicode="C" horiz-adv-x="935" 
d="M459 -14q-113 0 -194 31t-129.5 90.5t-70.5 139t-22 183.5q0 160 39 371q26 148 57 257t77 202t106.5 150.5t144 89.5t190.5 32q206 0 332 -90l-28 -41q-119 82 -304 82q-119 0 -206.5 -44t-148 -136.5t-99.5 -213.5t-70 -296q-39 -211 -39 -363q0 -190 85.5 -292.5
t279.5 -102.5q169 0 293 71l26 -43q-133 -77 -319 -77z" />
    <glyph glyph-name="D" unicode="D" horiz-adv-x="1101" 
d="M18 0l269 1518h317q104 0 183 -22.5t130 -61.5t83.5 -97.5t45.5 -124.5t13 -149q0 -141 -39 -350q-18 -101 -35.5 -178.5t-44 -154.5t-58.5 -132.5t-76 -104.5t-99 -79t-127 -47t-160 -17h-402zM80 49h340q93 0 166.5 20t128 62.5t94 96.5t70 135t50.5 163t40 195
q39 209 39 342q0 93 -19.5 163.5t-64 126.5t-125 85.5t-195.5 29.5h-274z" />
    <glyph glyph-name="E" unicode="E" horiz-adv-x="944" 
d="M18 0l269 1518h688l-10 -50h-637l-113 -649h596l-10 -49h-596l-127 -721h643l-8 -49h-695z" />
    <glyph glyph-name="F" unicode="F" horiz-adv-x="890" 
d="M18 0l269 1518h688l-10 -50h-637l-113 -649h596l-10 -49h-596l-135 -770h-52z" />
    <glyph glyph-name="G" unicode="G" horiz-adv-x="1062" 
d="M459 -14q-220 0 -318 110t-98 342q0 146 39 363q31 174 73 301t92 209.5t115 132t135 69t160 19.5q140 0 222 -28t141 -74l-31 -39q-53 42 -127.5 67t-204.5 25q-145 0 -242 -64.5t-166 -215.5t-116 -410q-39 -207 -39 -355q0 -206 87 -304.5t278 -98.5q107 0 175 26.5
t121 101t87.5 191.5t70.5 316l15 80h-424l10 49h475l-24 -137q-25 -139 -50 -239t-57 -177.5t-68 -125.5t-86.5 -79t-108.5 -43t-136 -12z" />
    <glyph glyph-name="H" unicode="H" horiz-adv-x="1153" 
d="M18 0l269 1518h51l-123 -699h748l122 699h52l-269 -1518h-51l135 770h-747l-135 -770h-52z" />
    <glyph glyph-name="I" unicode="I" horiz-adv-x="370" 
d="M27 0l268 1518h51l-268 -1518h-51z" />
    <glyph glyph-name="J" unicode="J" horiz-adv-x="634" 
d="M-84 0l8 49h139q142 0 209 63.5t90 196.5l213 1209h52l-215 -1219q-27 -154 -106.5 -226.5t-239.5 -72.5h-150z" />
    <glyph glyph-name="K" unicode="K" horiz-adv-x="1040" 
d="M18 0l269 1518h51l-154 -863l840 863h59l-563 -580l316 -938h-52l-301 899l-311 -317l-102 -582h-52z" />
    <glyph glyph-name="L" unicode="L" horiz-adv-x="884" 
d="M18 0l269 1518h51l-260 -1469h631l-9 -49h-682z" />
    <glyph glyph-name="M" unicode="M" horiz-adv-x="1337" 
d="M18 0l269 1518h57l205 -1438l713 1438h59l-268 -1518h-52l246 1393l-690 -1393h-45l-199 1393l-245 -1393h-50z" />
    <glyph glyph-name="N" unicode="N" horiz-adv-x="1146" 
d="M18 0l269 1518h61l481 -1420l252 1420h49l-268 -1518h-49l-491 1444l-254 -1444h-50z" />
    <glyph glyph-name="O" unicode="O" horiz-adv-x="1167" 
d="M477 -14q-123 0 -209.5 33t-134.5 96.5t-69 143t-21 183.5q0 145 39 357q18 100 36 177t44.5 156t59 136.5t77.5 109.5t100.5 84.5t128 51t160.5 18.5q100 0 176 -23t124.5 -62.5t79.5 -99t43.5 -127t12.5 -151.5q0 -143 -39 -358q-18 -100 -36 -176.5t-44.5 -155
t-58.5 -135t-77.5 -108t-101 -83t-128.5 -49.5t-162 -18zM477 35q80 0 147 17t117.5 47t92 78t71 101.5t54.5 127.5t41.5 146.5t33.5 166.5q39 215 39 350q0 75 -11 135.5t-38 113.5t-70 88.5t-110.5 56t-155.5 20.5q-79 0 -145.5 -17.5t-117 -48t-91.5 -79.5t-71 -103.5
t-54.5 -129.5t-41.5 -147.5t-34 -166.5q-39 -212 -39 -349q0 -93 18.5 -164t60.5 -127.5t118.5 -86t185.5 -29.5z" />
    <glyph glyph-name="P" unicode="P" horiz-adv-x="1036" 
d="M18 0l269 1518h325q418 0 418 -320q0 -39 -16 -133q-37 -205 -141.5 -296t-276.5 -91h-408l-118 -678h-52zM199 727h397q153 0 243.5 81.5t123.5 266.5q14 75 14 121q0 130 -85.5 201t-279.5 71h-282z" />
    <glyph glyph-name="Q" unicode="Q" horiz-adv-x="1167" 
d="M621 -313q-286 0 -228 268l8 37q-101 10 -172 46.5t-111 97.5t-57.5 135.5t-17.5 170.5q0 145 39 357q18 100 36 177t44.5 156t59 136.5t77.5 109.5t100.5 84.5t128 51t160.5 18.5q100 0 176 -23t124.5 -62.5t79.5 -99t43.5 -127t12.5 -151.5q0 -143 -39 -358
q-18 -100 -36 -176t-44.5 -154.5t-58.5 -135t-77.5 -107.5t-101 -82.5t-128.5 -49.5t-162 -18h-24l-9 -43q-46 -209 177 -209h77l-10 -49h-67zM477 35q80 0 147 17t117.5 47t92 78t71 101.5t54.5 127.5t41.5 146.5t33.5 166.5q39 215 39 350q0 75 -11 135.5t-38 113.5
t-70 88.5t-110.5 56t-155.5 20.5q-79 0 -145.5 -17.5t-117 -48t-91.5 -79.5t-71 -103.5t-54.5 -129.5t-41.5 -147.5t-34 -166.5q-39 -212 -39 -349q0 -93 18.5 -164t60.5 -127.5t118.5 -86t185.5 -29.5z" />
    <glyph glyph-name="R" unicode="R" horiz-adv-x="1052" 
d="M735 0l-200 684h-345l-120 -684h-52l269 1518h344q109 0 186 -24t120 -70t62 -103t19 -131q0 -55 -10 -127q-36 -198 -140.5 -287.5t-279.5 -91.5l200 -684h-53zM199 733h379q161 0 254 79t124 259q11 79 11 119q0 133 -75.5 205.5t-260.5 72.5h-301z" />
    <glyph glyph-name="S" unicode="S" horiz-adv-x="972" 
d="M373 -14q-72 0 -137.5 11.5t-118 32.5t-83.5 37t-67 39l29 41q173 -112 377 -112q173 0 277 93.5t104 274.5q0 50 -14.5 95t-36.5 78.5t-62 71.5t-74.5 64t-91.5 66q-60 42 -90 64.5t-72 60.5t-62 70t-35 76.5t-15 95.5q0 172 107.5 279.5t285.5 107.5q194 0 338 -80
l-25 -43q-129 74 -313 74q-161 0 -251.5 -93t-90.5 -245q0 -51 13 -90t48 -79t75.5 -72.5t115.5 -86.5q55 -39 85 -62t71 -57.5t62.5 -62.5t43 -65t30.5 -78t9 -89q0 -103 -34 -184t-93 -131t-136.5 -76t-168.5 -26z" />
    <glyph glyph-name="T" unicode="T" horiz-adv-x="1021" 
d="M352 0l258 1468h-434l10 50h920l-10 -50h-434l-259 -1468h-51z" />
    <glyph glyph-name="U" unicode="U" horiz-adv-x="1153" 
d="M500 -14q-222 0 -319 88.5t-97 255.5q0 74 16 168l181 1020h51l-182 -1024q-15 -82 -15 -156q0 -70 17.5 -123t57.5 -95t113 -63.5t177 -21.5q99 0 170.5 27.5t118 84t74 130.5t46.5 180l189 1061h49l-189 -1065q-21 -120 -52 -202t-83 -144t-131.5 -91.5t-191.5 -29.5z
" />
    <glyph glyph-name="V" unicode="V" horiz-adv-x="1058" 
d="M373 -8l-180 1526h49l168 -1432l677 1432h50l-723 -1526h-41z" />
    <glyph glyph-name="W" unicode="W" horiz-adv-x="1644" 
d="M305 -8l-100 1526h47l92 -1414l596 1414h43l92 -1414l596 1414h45l-643 -1526h-37l-92 1429l-602 -1429h-37z" />
    <glyph glyph-name="X" unicode="X" horiz-adv-x="1015" 
d="M756 0l-252 741l-512 -741h-53l548 791l-245 727h51l229 -676l467 676h53l-503 -727l268 -791h-51z" />
    <glyph glyph-name="Y" unicode="Y" horiz-adv-x="1007" 
d="M346 0l103 596l-277 922h51l260 -873l570 873h51l-602 -920l-105 -598h-51z" />
    <glyph glyph-name="Z" unicode="Z" horiz-adv-x="985" 
d="M-49 0l8 49l983 1419h-704l10 50h764l-8 -45l-990 -1424h756l-8 -49h-811z" />
    <glyph glyph-name="bracketleft" unicode="[" horiz-adv-x="684" 
d="M16 -324l336 1899h305l-10 -49h-254l-317 -1800h260l-8 -50h-312z" />
    <glyph glyph-name="backslash" unicode="\" horiz-adv-x="704" 
d="M520 0l-387 1518h49l387 -1518h-49z" />
    <glyph glyph-name="bracketright" unicode="]" horiz-adv-x="684" 
d="M-14 -324l8 50h256l317 1800h-258l10 49h310l-336 -1899h-307z" />
    <glyph glyph-name="asciicircum" unicode="^" 
d="M285 1276l284 283h56l182 -283h-53l-164 242l-250 -242h-55z" />
    <glyph glyph-name="underscore" unicode="_" horiz-adv-x="710" 
d="M-227 -195l8 50h829l-8 -50h-829z" />
    <glyph glyph-name="grave" unicode="`" 
d="M575 1235l-198 283h59l191 -283h-52z" />
    <glyph glyph-name="a" unicode="a" horiz-adv-x="931" 
d="M283 -10q-279 0 -279 258q0 116 24.5 200t68 136.5t112.5 83t146.5 42t183.5 11.5h149q7 41 11 65t7.5 59.5t2.5 56.5t-5.5 48.5t-15 44t-27.5 34t-41.5 27t-58 15.5t-76.5 6q-143 0 -237 -47l-23 45q105 51 260 51q63 0 110 -10.5t78.5 -28t50 -48.5t27 -63t7.5 -80.5
t-6.5 -93t-16.5 -108.5l-90 -510q-17 -80 -3 -107.5t81 -27.5l-8 -49h-15q-75 0 -98.5 38.5t-13.5 115.5q-47 -86 -130 -125t-175 -39zM283 39q54 0 103 14.5t99 49t87 103t55 165.5l53 301h-141q-84 0 -146.5 -7t-119.5 -24.5t-95.5 -48.5t-67 -77.5t-42 -113t-13.5 -153.5
q0 -209 228 -209z" />
    <glyph glyph-name="b" unicode="b" horiz-adv-x="960" 
d="M47 -2l-45 2l279 1575h51l-111 -623q105 174 338 174q87 0 147.5 -25t93.5 -72.5t47.5 -106.5t14.5 -136q0 -114 -28 -268q-18 -98 -36.5 -167.5t-51 -142.5t-74 -118t-106 -73.5t-146.5 -28.5q-151 0 -229 57.5t-101 165.5zM420 37q72 0 127.5 25.5t92 66t65 107.5
t44.5 132t33 158q29 163 29 260q0 137 -57 214t-195 77q-62 0 -112.5 -13.5t-87.5 -35.5t-67 -59.5t-49.5 -75t-36.5 -93.5t-27.5 -103t-22.5 -115q-29 -178 -29 -248q0 -68 13.5 -119t45 -92.5t90.5 -63.5t144 -22z" />
    <glyph glyph-name="c" unicode="c" horiz-adv-x="768" 
d="M354 -14q-175 0 -249 89.5t-74 254.5q0 107 26 260q48 273 146 404.5t289 131.5q156 0 247 -61l-28 -41q-79 53 -219 53q-71 0 -127.5 -23t-96 -63t-70.5 -104.5t-51 -136t-38 -168.5q-27 -155 -27 -252q0 -142 62.5 -218.5t209.5 -76.5q106 0 205 37l19 -47
q-108 -39 -224 -39z" />
    <glyph glyph-name="d" unicode="d" horiz-adv-x="960" 
d="M332 -14q-87 0 -147.5 25.5t-93.5 73.5t-47.5 107t-14.5 136q0 114 28 268q18 98 36.5 167.5t51 142.5t74 118t106 73.5t146.5 28.5q282 0 330 -223l119 672h51l-279 -1573l-41 -2l21 168q-105 -182 -340 -182zM332 35q62 0 112.5 14t87.5 35.5t67 59.5t49.5 75.5
t36.5 94t27.5 103.5t22.5 115q29 178 29 248q0 68 -13.5 119t-45 92.5t-90.5 63.5t-144 22q-72 0 -127.5 -25.5t-92 -66t-65 -107.5t-44.5 -132t-33 -158q-29 -163 -29 -260q0 -137 57 -215t195 -78z" />
    <glyph glyph-name="e" unicode="e" horiz-adv-x="866" 
d="M371 -14q-96 0 -163.5 24.5t-105 72t-53.5 108t-16 141.5q0 119 24 260q22 130 54.5 224t82.5 166t123 108t170 36q168 0 234.5 -69t66.5 -197q0 -87 -40 -299h-644q-20 -120 -20 -229q0 -143 64.5 -220t222.5 -77q107 0 231 47l19 -49q-135 -47 -250 -47zM487 1077
q-70 0 -126 -23.5t-94 -62.5t-68.5 -101t-49.5 -127t-36 -153h592q32 172 32 250q0 104 -55.5 160.5t-194.5 56.5z" />
    <glyph glyph-name="f" unicode="f" horiz-adv-x="557" 
d="M106 1061l11 49h162l38 213q12 64 28.5 107t45.5 77.5t75.5 51t113.5 16.5h94l-10 -49h-84q-48 0 -83.5 -11.5t-56.5 -28.5t-36 -48.5t-22 -57.5t-15 -71l-35 -199h260l-10 -49h-260l-244 -1385h-51l243 1385h-164z" />
    <glyph glyph-name="g" unicode="g" horiz-adv-x="872" 
d="M391 401q-97 0 -164 31q-69 -49 -69 -117q0 -46 30.5 -68t96.5 -22q215 0 299 -54t84 -177q0 -170 -96.5 -251t-297.5 -81q-202 0 -288 60t-86 178q0 115 63.5 200t194.5 111q-52 37 -52 104q0 81 80 144q-84 66 -84 215q0 107 22 188.5t56.5 130.5t83 80t96 42t101.5 11
q41 0 76 -6l311 10l-8 -49h-199q104 -70 104 -233q0 -106 -21.5 -187t-55.5 -129.5t-82 -78.5t-95 -41t-100 -11zM391 451q45 0 85 9.5t81.5 36.5t70.5 70t47.5 115t18.5 166q0 229 -233 229q-46 0 -86.5 -10t-82 -37.5t-71.5 -71.5t-48.5 -116.5t-18.5 -167.5
q0 -223 237 -223zM274 -289q179 0 260.5 66.5t81.5 216.5q0 105 -79 145.5t-252 40.5q-77 0 -137 -17t-96.5 -44.5t-60 -65.5t-32 -75t-8.5 -78q0 -94 73.5 -141.5t249.5 -47.5z" />
    <glyph glyph-name="h" unicode="h" horiz-adv-x="937" 
d="M2 0l279 1575h51l-113 -633q99 184 307 184q70 0 122 -12.5t85 -32t52.5 -53.5t27.5 -65.5t6.5 -81t-6.5 -87.5t-16 -96l-123 -698h-51l125 711q10 57 14.5 95t5.5 80t-7 68.5t-24 52t-44 39.5t-69.5 22.5t-97.5 8.5q-70 0 -124 -21.5t-92.5 -60.5t-68 -104t-49.5 -140
t-38 -180l-101 -571h-51z" />
    <glyph glyph-name="i" unicode="i" horiz-adv-x="333" 
d="M8 0l197 1110h51l-197 -1110h-51zM236 1288l30 170h51l-30 -170h-51z" />
    <glyph glyph-name="j" unicode="j" horiz-adv-x="333" 
d="M-180 -324l8 50h10q75 0 104.5 30t43.5 115l219 1239h51l-221 -1249q-18 -103 -57.5 -144t-137.5 -41h-20zM236 1288l30 170h51l-30 -170h-51z" />
    <glyph glyph-name="k" unicode="k" horiz-adv-x="790" 
d="M2 0l279 1575h51l-201 -1126l584 661h59l-430 -487l272 -623h-53l-254 584l-192 -217l-64 -367h-51z" />
    <glyph glyph-name="l" unicode="l" horiz-adv-x="425" 
d="M209 0h-2q-57 0 -93.5 10.5t-54.5 25.5t-23.5 44.5t-3 55t10.5 69.5l244 1370h51l-246 -1385q-9 -49 -8 -80t31.5 -46t101.5 -15z" />
    <glyph glyph-name="m" unicode="m" horiz-adv-x="1486" 
d="M2 0l195 1106l41 2l-21 -168q97 186 299 186q134 0 205 -49t78 -166q44 102 124.5 158.5t192.5 56.5q68 0 118.5 -12.5t82 -32t50.5 -53.5t26.5 -65.5t5.5 -81t-7 -87.5t-16 -96l-123 -698h-51l125 711q20 118 20.5 199.5t-54 124t-177.5 42.5q-68 0 -120 -21.5
t-89.5 -60.5t-66.5 -104t-48.5 -140t-37.5 -180l-101 -571h-51l125 711q20 118 20.5 199.5t-54 124t-177.5 42.5q-68 0 -120 -21.5t-89.5 -60.5t-66.5 -104t-48.5 -140t-37.5 -180l-101 -571h-51z" />
    <glyph glyph-name="n" unicode="n" horiz-adv-x="937" 
d="M2 0l195 1106l41 2l-21 -168q97 186 309 186q70 0 122 -12.5t85 -32t52.5 -53.5t27.5 -65.5t6.5 -81t-6.5 -87.5t-16 -96l-123 -698h-51l125 711q10 57 14.5 95t5.5 80t-7 68.5t-24 52t-44 39.5t-69.5 22.5t-97.5 8.5q-70 0 -124 -21.5t-92.5 -60.5t-68 -104t-49.5 -140
t-38 -180l-101 -571h-51z" />
    <glyph glyph-name="o" unicode="o" horiz-adv-x="935" 
d="M360 -14q-93 0 -158.5 27t-101.5 77.5t-51.5 112t-15.5 141.5q0 100 24 244q17 98 38 173t57 146.5t83 117.5t116.5 73.5t158.5 27.5q93 0 158.5 -26t102 -74.5t52 -108.5t15.5 -137q0 -98 -29 -258q-12 -70 -25 -125.5t-32.5 -113t-43.5 -100t-57.5 -81.5t-74.5 -63.5
t-96 -38.5t-120 -14zM360 35q79 0 141 25.5t102.5 67t71.5 108t49 134t34 160.5q28 154 28 250q0 67 -13.5 118t-43.5 93t-85.5 64t-133.5 22q-81 0 -144.5 -28t-104 -72t-72 -113t-48.5 -133t-32 -151q-25 -146 -25 -236q0 -69 13.5 -122.5t43.5 -97t85.5 -66.5t133.5 -23z
" />
    <glyph glyph-name="p" unicode="p" horiz-adv-x="960" 
d="M-53 -324l250 1430l41 2l-19 -158q105 176 340 176q87 0 147.5 -25t93.5 -72.5t47.5 -106.5t14.5 -136q0 -114 -28 -268q-18 -98 -36.5 -167.5t-51 -142.5t-74 -118t-106 -73.5t-146.5 -28.5q-151 0 -229 57.5t-101 165.5l-92 -535h-51zM420 37q72 0 127.5 25.5t92 66
t65 107.5t44.5 132t33 158q29 163 29 260q0 137 -57 214t-195 77q-62 0 -112.5 -13.5t-87.5 -35.5t-67 -59.5t-49.5 -75t-36.5 -93.5t-27.5 -103t-22.5 -115q-29 -178 -29 -248q0 -68 13.5 -119t45 -92.5t90.5 -63.5t144 -22z" />
    <glyph glyph-name="q" unicode="q" horiz-adv-x="960" 
d="M584 -324l86 486q-107 -176 -338 -176q-87 0 -147.5 25.5t-93.5 73.5t-47.5 107t-14.5 136q0 114 28 268q18 98 36.5 167.5t51 142.5t74 118t106 73.5t146.5 28.5q151 0 229 -57.5t101 -165.5l45 223l45 -2l-256 -1448h-51zM332 35q62 0 112.5 14t87.5 35.5t67 59.5
t49.5 75.5t36.5 94t27.5 103.5t22.5 115q29 178 29 248q0 68 -13.5 119t-45 92.5t-90.5 63.5t-144 22q-72 0 -127.5 -25.5t-92 -66t-65 -107.5t-44.5 -132t-33 -158q-29 -163 -29 -260q0 -137 57 -215t195 -78z" />
    <glyph glyph-name="r" unicode="r" horiz-adv-x="516" 
d="M2 0l195 1106l41 2l-25 -186q40 87 125 141.5t213 54.5l-8 -49q-60 0 -109 -15t-84.5 -38.5t-65 -63t-48 -77.5t-35.5 -94t-26.5 -101t-20.5 -109l-101 -571h-51z" />
    <glyph glyph-name="s" unicode="s" horiz-adv-x="684" 
d="M233 -14q-109 0 -176.5 22t-124.5 60l29 41q51 -34 112 -54t160 -20q108 0 181 64t73 200q0 78 -42.5 132t-139.5 126q-49 37 -70.5 54.5t-55.5 49t-48 54.5t-25.5 55.5t-11.5 67.5q0 136 78.5 212t208.5 76q156 0 252 -61l-27 -41q-84 53 -225 53q-109 0 -172.5 -62.5
t-63.5 -176.5q0 -34 13.5 -65.5t45.5 -64t57 -53.5t75 -59q106 -79 154.5 -142.5t48.5 -154.5q0 -83 -26 -145.5t-71 -98t-97.5 -52.5t-111.5 -17z" />
    <glyph glyph-name="t" unicode="t" horiz-adv-x="626" 
d="M106 1061l11 49h162l69 348l45 8l-63 -356h274l-10 -49h-272l-144 -821q-19 -102 2.5 -146.5t116.5 -44.5h119l-8 -49h-111q-89 0 -131.5 30t-46 85.5t9.5 134.5l141 811h-164z" />
    <glyph glyph-name="u" unicode="u" horiz-adv-x="907" 
d="M354 -14q-94 0 -156.5 19.5t-96 51t-45.5 84.5t-9.5 107t16.5 133l130 729h51l-129 -729q-7 -41 -11 -69t-6 -64t3 -59.5t14.5 -50.5t29 -43.5t47.5 -31.5t69 -21.5t93 -6.5q65 0 111.5 12t77.5 33t52.5 60.5t34.5 83.5t25 112l138 774h49l-137 -774q-11 -64 -22.5 -108
t-29.5 -87t-42.5 -69t-60 -47t-84 -30t-112.5 -9z" />
    <glyph glyph-name="v" unicode="v" horiz-adv-x="780" 
d="M229 -6l-133 1116h49l123 -1034l492 1034h51l-530 -1116h-52z" />
    <glyph glyph-name="w" unicode="w" horiz-adv-x="1323" 
d="M205 -6l-109 1116h49l99 -1026l456 1026h50l90 -1026l465 1026h49l-506 -1116h-49l-90 1024l-455 -1024h-49z" />
    <glyph glyph-name="x" unicode="x" horiz-adv-x="784" 
d="M551 0l-197 532l-385 -532h-55l420 584l-193 526h52l176 -479l346 479h55l-383 -530l215 -580h-51z" />
    <glyph glyph-name="y" unicode="y" horiz-adv-x="768" 
d="M-66 -324l9 50h59q54 0 84.5 22t58.5 82l78 168l-127 1112h49l119 -1028l486 1028h49l-611 -1294q-37 -77 -78.5 -108.5t-107.5 -31.5h-68z" />
    <glyph glyph-name="z" unicode="z" horiz-adv-x="722" 
d="M-72 0l9 49l704 1012h-494l11 49h549l-9 -47l-706 -1014h543l-9 -49h-598z" />
    <glyph glyph-name="braceleft" unicode="{" horiz-adv-x="741" 
d="M319 -324q-116 0 -169.5 39t-53.5 127q0 76 51 220t101.5 277t50.5 181t-41 64t-141 16l8 49q53 0 85 2.5t59.5 13t41.5 26.5t24 47.5t12.5 70t2.5 100.5q0 43 -2 138t-2 139q0 116 15.5 191t52 119.5t89 61.5t134.5 17h84l-10 -49h-74q-71 0 -114.5 -14.5t-72.5 -52.5
t-40 -100t-11 -161q0 -40 2 -132.5t2 -135.5q0 -152 -23 -215.5t-91 -89.5q61 -25 61 -95q0 -47 -31.5 -144t-70 -190.5t-70 -194t-31.5 -153.5q0 -66 41.5 -94t130.5 -28h74l-8 -50h-66z" />
    <glyph glyph-name="bar" unicode="|" horiz-adv-x="462" 
d="M201 -324v1899h51v-1899h-51z" />
    <glyph glyph-name="braceright" unicode="}" horiz-adv-x="741" 
d="M-25 -324l11 50h73q94 0 143.5 28t72 97.5t22.5 201.5q0 40 -2 132.5t-2 136.5q0 151 23.5 215t91.5 90q-62 25 -62 94q0 47 31.5 144t70 190.5t70 194t31.5 153.5q0 66 -42 94.5t-130 28.5h-74l8 49h66q116 0 169.5 -39t53.5 -127q0 -76 -51 -220t-101.5 -277
t-50.5 -181q0 -47 41.5 -63.5t141.5 -16.5l-9 -49q-53 0 -85 -2.5t-59.5 -13t-41.5 -26.5t-24 -47.5t-12.5 -70t-2.5 -100.5q0 -43 2 -137.5t2 -138.5q0 -116 -15.5 -191t-52 -119.5t-89.5 -62t-134 -17.5h-84z" />
    <glyph glyph-name="asciitilde" unicode="~" 
d="M332 922l-43 26q68 101 155 101q44 0 117.5 -39t104.5 -39q63 0 118 90l43 -27q-69 -112 -161 -112q-32 0 -64 12t-54.5 26.5t-51 26.5t-52.5 12q-60 0 -112 -77z" />
    <glyph glyph-name="exclamdown" unicode="&#xa1;" horiz-adv-x="534" 
d="M102 0l211 1135h43l-192 -1135h-62zM336 1389l22 129h88l-22 -129h-88z" />
    <glyph glyph-name="cent" unicode="&#xa2;" horiz-adv-x="768" 
d="M354 -12h-12l-33 -187h-49l33 191q-141 14 -201.5 101t-60.5 237q0 107 26 260q48 273 146 403.5t289 130.5l34 187h49l-34 -189q124 -8 198 -57l-28 -41q-67 45 -181 51l-184 -1040h8q109 0 203 47l23 -45q-101 -49 -226 -49zM82 330q0 -130 50.5 -205t170.5 -88
l182 1040q-87 -1 -150.5 -35t-106.5 -102.5t-70 -152.5t-49 -205q-27 -155 -27 -252z" />
    <glyph glyph-name="sterling" unicode="&#xa3;" horiz-adv-x="837" 
d="M496 -8q-162 0 -297 104q-36 -57 -102 -76.5t-185 -19.5l10 49q64 0 105 5.5t75.5 23t53 45.5t32 79t17.5 116t4 163q0 50 -3 153.5t-3 119.5h-162l8 49h154v119q0 126 8 214.5t30 168t60.5 126.5t101 74t150.5 27q204 0 336 -86l-29 -41q-116 78 -307 78
q-63 0 -110.5 -16t-80 -50t-54 -79t-33.5 -111.5t-16.5 -137.5t-4.5 -167v-119h381l-8 -49h-371q4 -184 4 -273q0 -237 -37 -338q131 -102 273 -102q67 0 96.5 38.5t40.5 121.5l18 116h54l-21 -124q-8 -52 -19 -85.5t-31.5 -61.5t-54 -41t-83.5 -13z" />
    <glyph glyph-name="currency" unicode="&#xa4;" horiz-adv-x="993" 
d="M94 893l8 47h166q33 159 70 265t91 182t127 110.5t173 34.5q183 0 305 -82l-28 -41q-110 74 -277 74q-172 0 -260.5 -125.5t-149.5 -417.5h496l-8 -47h-498q-6 -35 -18 -109q-22 -117 -23 -125h498l-8 -47h-496q-18 -135 -18 -239q0 -171 65.5 -254.5t218.5 -83.5
q114 0 236 61l22 -43q-131 -67 -258 -67q-181 0 -258 96t-77 291q0 107 18 239h-166l8 47h164q4 25 13 76t10 58q3 17 18 100h-164z" />
    <glyph glyph-name="yen" unicode="&#xa5;" horiz-adv-x="894" 
d="M47 479l8 47h326l18 107l-221 885h51l207 -820l498 820h55l-538 -887l-19 -105h326l-8 -47h-326l-41 -233h326l-9 -47h-325l-35 -199h-51l35 199h-326l8 47h326l41 233h-326z" />
    <glyph glyph-name="brokenbar" unicode="&#xa6;" horiz-adv-x="462" 
d="M199 -324v789h51v-789h-51zM199 786v789h51v-789h-51z" />
    <glyph glyph-name="section" unicode="&#xa7;" horiz-adv-x="841" 
d="M422 504h-25l-49 -283q-22 -123 -80 -183.5t-180 -60.5h-84l10 50h74q58 0 97 15.5t61.5 48.5t33.5 66t21 87l45 262q-248 24 -248 219q0 309 314 309h26l47 262q22 123 80 183.5t180 60.5h84l-10 -49h-74q-58 0 -97 -15.5t-61.5 -48.5t-33.5 -66t-21 -87l-43 -244
q259 -24 259 -223q0 -74 -19 -129t-49 -87.5t-74 -52.5t-87.5 -27t-96.5 -7zM422 551q57 0 101.5 10.5t86 37t64 79.5t22.5 129q0 180 -284 180q-52 0 -95 -11.5t-82.5 -39t-62 -81.5t-22.5 -130q0 -174 272 -174z" />
    <glyph glyph-name="dieresis" unicode="&#xa8;" 
d="M362 1235l27 147h51l-26 -147h-52zM682 1235l27 147h51l-27 -147h-51z" />
    <glyph glyph-name="copyright" unicode="&#xa9;" horiz-adv-x="1363" 
d="M696 217q-89 0 -152.5 26t-101 69.5t-59 116.5t-28.5 150t-7 187q0 77 3.5 135.5t12.5 118t25.5 102.5t42.5 81t62.5 61.5t87 37t114.5 13.5q143 0 234 -60l-29 -38q-82 51 -205 51q-76 0 -130.5 -24t-87 -64t-51.5 -106.5t-25.5 -137.5t-6.5 -170t6.5 -170t25.5 -137.5
t51.5 -106.5t87 -64t130.5 -24q78 0 129 15t99 47l26 -41q-56 -36 -111 -52t-143 -16zM684 -23q-131 0 -230.5 36.5t-164.5 101.5t-105.5 164.5t-57.5 215t-17 263.5q0 149 17 265.5t57.5 216t105.5 164.5t164 101.5t231 36.5t231.5 -36.5t165.5 -101.5t107 -164.5
t58.5 -216.5t17.5 -265q0 -147 -17.5 -263.5t-58.5 -215.5t-107 -164t-166 -101.5t-231 -36.5zM684 25q150 0 255 51t164.5 150.5t85 228.5t25.5 303q0 140 -15.5 249.5t-53 203t-97.5 155t-151.5 95.5t-212.5 34q-120 0 -211 -34t-150.5 -95.5t-96.5 -155t-52.5 -203
t-15.5 -249.5q0 -139 15.5 -247.5t52.5 -201.5t96.5 -154.5t150.5 -95.5t211 -34z" />
    <glyph glyph-name="ordfeminine" unicode="&#xaa;" horiz-adv-x="792" 
d="M342 608q-225 0 -225 209q0 94 20 162.5t55 111t91 67.5t119 34.5t149 9.5h111q23 131 17 177q-10 80 -94 99q-31 7 -73 7q-118 0 -195 -39l-22 45q83 41 213 41q60 0 102 -10.5t67 -33t38 -50t14.5 -71t-3 -84.5t-15.5 -101l-74 -416q-12 -64 -2 -83t65 -19l-6 -48h-12
q-112 0 -98 117q-71 -125 -242 -125zM342 655q224 0 270 263l41 237h-102q-104 0 -170 -12.5t-117 -48.5t-73.5 -103.5t-22.5 -173.5q1 -89 43.5 -125.5t130.5 -36.5zM53 354l8 47h531l-8 -47h-531z" />
    <glyph glyph-name="guillemotleft" unicode="&#xab;" horiz-adv-x="983" 
d="M254 0l-139 555l336 555h49l-334 -555l137 -555h-49zM618 0l-139 555l336 555h49l-334 -555l138 -555h-50z" />
    <glyph glyph-name="logicalnot" unicode="&#xac;" horiz-adv-x="1703" 
d="M258 246q-88 105 -136 237t-48 277q0 144 48 276t136 236q6 -4 14 -12q-85 -103 -131.5 -231.5t-46.5 -268.5q0 -285 180 -500zM467 432q-117 143 -117 328q0 183 115 327q3 -2 8 -7t8 -7q-110 -136 -110 -313q0 -182 110 -314zM541 498q-92 116 -92 262t92 262
q3 -2 8 -7t8 -7q-88 -109 -88 -248t88 -248q-3 -2 -8 -7t-8 -7zM647 592q-57 72 -57 168q0 97 57 166l15 -15q-52 -69 -52 -151q0 -84 54 -154q-3 -2 -8.5 -7t-8.5 -7zM715 655q-33 48 -33 105q0 56 33 104q3 -2 8 -7t8 -7q-29 -44 -29 -90t29 -90q-3 -2 -16 -15zM774 709
q-14 25 -14 51t14 51l12 -10q-10 -20 -10 -41t10 -41q-4 -4 -12 -10zM852 123q-236 0 -412 158l2.5 2.5l5 5l5.5 5.5t2 1q171 -152 397 -152q227 0 395 152q2 -3 7.5 -8t7.5 -8q-177 -156 -410 -156zM852 664q-31 0 -55 18l12 12q21 -14 43 -14q26 0 43 14q4 -4 10 -12
q-21 -18 -53 -18zM987 653q-7 10 -14 15q28 42 28 92q0 51 -28 90l2.5 2.5t5 4.5t5.5 5t1 2q35 -44 35 -104t-35 -107zM598 551q-72 91 -72 209q0 119 74 209l14 -15q-67 -87 -67 -194q0 -108 67 -195q-10 -10 -16 -14zM852 -35q-145 0 -278 52.5t-238 146.5l14 16
q102 -92 231 -143t271 -51q285 0 500 192q0 1 3.5 -2.5t6.5 -7.5l4 -4q-104 -95 -236 -147t-278 -52zM852 248q-189 0 -330 125l15 16q134 -121 315 -121q182 0 313 121q2 -3 7.5 -8t7.5 -8q-138 -125 -328 -125zM852 348q-145 0 -264 101l14 14q108 -94 250 -94
q143 0 248 94q2 -3 7 -8.5t7 -8.5q-112 -98 -262 -98zM852 428q-116 0 -211 78l14 16q86 -73 197 -73t197 73q4 -4 12 -16q-91 -78 -209 -78zM852 543q-77 0 -135 49l14 16q51 -45 121 -45q68 0 119 45q2 -3 7 -8t7 -8q-58 -49 -133 -49zM733 911q-4 3 -7 6.5t-6 6.5l-3 4
q58 49 135 49t135 -49l-16 -17q-51 45 -119 45t-119 -45zM1167 1130q-134 121 -315 121q-179 0 -313 -118l-15 14q141 125 328 125q189 0 330 -125q-4 -6 -15 -17zM930 709l-12 10q10 20 10 41t-10 41l12 10q14 -25 14 -51t-14 -51zM958 682q-10 10 -16 14q21 32 21 64
t-21 63l16 15q25 -36 25 -78t-25 -78zM1020 627q-6 4 -16 14q38 50 38 119t-38 119l14 14q45 -57 45 -133q0 -71 -43 -133zM1106 551q-3 2 -8 7t-8 7q67 87 67 195t-70 194l17 15q74 -90 74 -209q0 -118 -72 -209zM1163 498q-10 10 -16 14q88 109 88 248t-88 248l16 14
q92 -116 92 -262t-92 -262zM1237 432q-6 4 -16 14q112 134 112 314q0 182 -112 313l16 14q117 -139 117 -327q0 -189 -117 -328zM1329 350q-2 2 -7 6t-7 6q141 175 141 398q0 227 -143 395l16 14q148 -179 148 -409q0 -231 -148 -410zM1446 246q-6 6 -16 14q180 215 180 500
t-180 500l16 14q88 -105 136 -237t48 -277q0 -144 -48 -276t-136 -238zM375 348q-148 182 -148 412q0 229 146 409q2 -2 7.5 -6.5t8.5 -7.5q-141 -170 -141 -395q0 -228 141 -398zM684 627q-43 59 -43 133t43 133q6 -4 16 -14q-38 -50 -38 -119q0 -67 38 -117zM745 682
q-24 34 -24 78t24 78q2 -3 4.5 -5.5t6 -5.5t4.5 -4q-19 -34 -19 -63q0 -30 19 -64zM809 825l-10 13q21 18 53 18t53 -18l-10 -13q-23 15 -43 15q-25 0 -43 -15zM786 852l-14 14q37 29 80 29q41 0 78 -29q-8 -8 -12 -14q-28 25 -66 25q-34 0 -66 -25zM760 881l-15 16
q45 39 107 39q61 0 106 -39l-14 -16q-37 34 -92 34t-92 -34zM604 1057l-14 16q112 98 262 98q151 0 262 -100q1 0 -2 -3.5t-6 -7.5l-4 -3q-108 94 -250 94q-143 0 -248 -94zM852 492q-100 0 -170 61l14 16q70 -57 156 -57q87 0 154 57l14 -14q-73 -63 -168 -63zM852 584
q-61 0 -109 39l15 16q47 -35 94 -35q51 0 92 35l14 -16q-45 -39 -106 -39zM852 625q-43 0 -82 28l14 15q36 -25 68 -25q34 0 66 25l14 -15q-36 -28 -80 -28zM698 950l-14 15q73 63 168 63q98 0 168 -61l-14 -17q-68 58 -154 58q-87 0 -154 -58zM655 997l-14 17q91 78 211 78
q119 0 209 -80l-12 -15q-83 74 -197 74q-110 0 -197 -74zM1249 1223q-166 153 -397 153q-227 0 -397 -151l-15 14q179 158 412 158t412 -158zM352 1339l-14 17q104 95 236 146.5t278 51.5q145 0 278 -52t238 -146l-14 -17q-102 93 -231 144t-271 51t-270 -51t-230 -144z
M1057 594l-15 14q52 69 52 152t-54 153l17 15q57 -72 57 -168q0 -97 -57 -166z" />
    <glyph glyph-name="registered" unicode="&#xae;" horiz-adv-x="1363" 
d="M684 -23q-131 0 -230.5 36.5t-164.5 101.5t-105.5 164.5t-57.5 215t-17 263.5q0 149 17 265.5t57.5 216t105.5 164.5t164 101.5t231 36.5t231.5 -36.5t165.5 -101.5t107 -164.5t58.5 -216.5t17.5 -265q0 -147 -17.5 -263.5t-58.5 -215.5t-107 -164t-166 -101.5
t-231 -36.5zM684 25q150 0 255 51t164.5 150.5t85 228.5t25.5 303q0 140 -15.5 249.5t-53 203t-97.5 155t-151.5 95.5t-212.5 34q-120 0 -211 -34t-150.5 -95.5t-96.5 -155t-52.5 -203t-15.5 -249.5q0 -139 15.5 -247.5t52.5 -201.5t96.5 -154.5t150.5 -95.5t211 -34z
M942 229l-227 478h-242v-478h-49v1069h303q148 0 214.5 -68t66.5 -226q0 -149 -57 -218.5t-183 -78.5l225 -478h-51zM473 752h254q124 0 177.5 57.5t53.5 194.5q0 135 -53.5 191t-177.5 56h-254v-499z" />
    <glyph glyph-name="macron" unicode="&#xaf;" 
d="M295 1235l8 47h504l-8 -47h-504z" />
    <glyph glyph-name="macron" unicode="&#x2c9;" 
d="M295 1235l8 47h504l-8 -47h-504z" />
    <glyph glyph-name="degree" unicode="&#xb0;" horiz-adv-x="870" 
d="M434 594q-149 0 -210.5 71t-61.5 203q0 85 24 219q15 88 32 150.5t45 121.5t65.5 95t93.5 57t129 21q147 0 207.5 -73.5t60.5 -207.5q0 -94 -22 -217q-16 -88 -33 -150.5t-45.5 -120.5t-65.5 -93t-92 -55.5t-127 -20.5zM434 643q63 0 110 19t78.5 49.5t55 84.5t38 109
t29.5 137q23 128 23 209q0 111 -48.5 171.5t-168.5 60.5q-64 0 -112 -19.5t-79 -50.5t-55 -86.5t-38 -110t-29 -137.5q-25 -139 -25 -211q0 -108 49.5 -166.5t171.5 -58.5z" />
    <glyph glyph-name="plusminus" unicode="&#xb1;" horiz-adv-x="1466" 
d="M510 -324l244 1385h-432l-244 -1385h-51l243 1385h-164l11 49h162l38 213q12 64 28.5 107t45.5 77.5t75.5 51t113.5 16.5h94l-10 -49h-84q-48 0 -83.5 -11.5t-56.5 -28.5t-36 -48.5t-22 -57.5t-15 -71l-35 -199h430l39 213q12 64 28 107t45 77.5t75.5 51t113.5 16.5h94
l-10 -49h-84q-48 0 -83.5 -11.5t-56.5 -28.5t-36 -48.5t-22 -57.5t-15 -71l-35 -199h260l-10 -49h-260l-244 -1385h-51zM1247 0q-57 0 -93.5 10.5t-54.5 25.5t-23.5 44.5t-3 55t10.5 69.5l244 1370h51l-245 -1385q-9 -49 -8.5 -80t31 -46t101.5 -15l-8 -49h-2z" />
    <glyph glyph-name="twosuperior" unicode="&#xb2;" horiz-adv-x="645" 
d="M106 639l7 41l204 246q161 194 190 234q65 91 76 167q3 23 3 51q0 54 -33.5 79.5t-114.5 25.5q-87 0 -153 -31l-19 39q77 35 172 35q106 0 149.5 -36t43.5 -112q0 -43 -8.5 -79t-23 -69.5t-53 -86t-78 -101.5t-118.5 -143l-182 -217h344l-10 -43h-396z" />
    <glyph glyph-name="threesuperior" unicode="&#xb3;" horiz-adv-x="624" 
d="M297 631q-115 0 -197 53l25 37q73 -47 172 -47q209 0 209 280q0 79 -37 110.5t-141 31.5h-58l9 41h94q55 0 93 17.5t57.5 50.5t27.5 72.5t8 92.5q0 67 -32.5 90t-110.5 23q-80 0 -146 -31l-18 39q77 35 164 35q103 0 145.5 -31t42.5 -125q0 -213 -131 -258
q43 -20 60.5 -56.5t17.5 -101.5q0 -68 -12.5 -123t-40 -101.5t-79 -72.5t-122.5 -26z" />
    <glyph glyph-name="acute" unicode="&#xb4;" 
d="M463 1235l293 283h65l-301 -283h-57z" />
    <glyph glyph-name="mu" unicode="&#xb5;" horiz-adv-x="913" 
d="M-53 -324l252 1434h51l-129 -729q-7 -41 -11 -69t-6 -64t3 -59.5t14.5 -50.5t29 -43.5t47.5 -31.5t69 -21.5t93 -6.5q81 0 133.5 16.5t85.5 57t50.5 91.5t32.5 136l137 774h49l-137 -774q-11 -64 -22.5 -108t-29.5 -87t-42.5 -69t-60 -47t-84 -30t-112.5 -9
q-240 0 -284 135l-78 -445h-51z" />
    <glyph glyph-name="mu" unicode="&#x3bc;" horiz-adv-x="913" 
d="M-53 -324l252 1434h51l-129 -729q-7 -41 -11 -69t-6 -64t3 -59.5t14.5 -50.5t29 -43.5t47.5 -31.5t69 -21.5t93 -6.5q81 0 133.5 16.5t85.5 57t50.5 91.5t32.5 136l137 774h49l-137 -774q-11 -64 -22.5 -108t-29.5 -87t-42.5 -69t-60 -47t-84 -30t-112.5 -9
q-240 0 -284 135l-78 -445h-51z" />
    <glyph glyph-name="paragraph" unicode="&#xb6;" horiz-adv-x="923" 
d="M326 0l120 680q-158 13 -231.5 86.5t-73.5 214.5q0 46 15 145q20 115 55.5 193t90 121t118.5 60.5t151 17.5h324l-268 -1518h-52l119 678h-196l-121 -678h-51zM532 727h173l131 741h-265q-77 0 -132.5 -15.5t-103.5 -54t-79.5 -108t-48.5 -172.5q-14 -93 -14 -137
q0 -131 81 -192.5t258 -61.5z" />
    <glyph glyph-name="periodcentered" unicode="&#xb7;" horiz-adv-x="333" 
d="M90 573l23 129h88l-23 -129h-88z" />
    <glyph glyph-name="periodcentered" unicode="&#x2219;" horiz-adv-x="333" 
d="M90 573l23 129h88l-23 -129h-88z" />
    <glyph glyph-name="cedilla" unicode="&#xb8;" 
d="M336 -397q-92 0 -180 41l22 45q80 -37 158 -37q74 0 108.5 31t34.5 98q0 45 -33.5 62.5t-109.5 17.5l-31 26l45 129h49l-39 -108q170 0 170 -127q0 -93 -47 -135.5t-147 -42.5z" />
    <glyph glyph-name="onesuperior" unicode="&#xb9;" horiz-adv-x="444" 
d="M213 639l147 836h-137l8 43h183l-156 -879h-45z" />
    <glyph glyph-name="ordmasculine" unicode="&#xba;" horiz-adv-x="792" 
d="M387 604q-146 0 -206 78t-60 213q0 86 20 199q14 80 31 140.5t46 119t67 96t94.5 60t128.5 22.5q76 0 129.5 -21t83 -60.5t42.5 -88t13 -111.5q0 -88 -24 -211q-14 -82 -30 -141t-44 -118t-65 -95.5t-94.5 -59t-131.5 -22.5zM387 653q63 0 111.5 21t80.5 54t56 87.5
t38 107.5t27 128q25 129 25 200q0 109 -49 170.5t-168 61.5q-60 0 -108 -20.5t-81 -54.5t-58 -87t-40 -108.5t-28 -127.5q-21 -119 -21 -190q0 -242 215 -242zM43 354l8 47h567l-8 -47h-567z" />
    <glyph glyph-name="guillemotright" unicode="&#xbb;" horiz-adv-x="983" 
d="M47 0l336 555l-139 555h51l137 -555l-334 -555h-51zM414 0l334 555l-138 555h49l140 -555l-336 -555h-49z" />
    <glyph glyph-name="onequarter" unicode="&#xbc;" horiz-adv-x="1208" 
d="M117 0l897 1518h53l-897 -1518h-53zM553 217l8 43l418 619h49l-418 -619h269l63 297h35l-53 -297h131l-8 -43h-132l-36 -217h-45l36 217h-317zM238 639l147 836h-137l8 43h182l-155 -879h-45z" />
    <glyph glyph-name="onehalf" unicode="&#xbd;" horiz-adv-x="1320" 
d="M117 0l897 1518h53l-897 -1518h-53zM238 639l147 836h-137l8 43h182l-155 -879h-45zM651 0l6 41l205 246q160 193 191 236q64 90 74 167q3 22 3 49q0 54 -33 79.5t-114 25.5q-88 0 -154 -31l-18 39q77 35 172 35q106 0 149.5 -36t43.5 -112q0 -43 -8.5 -79t-23 -69.5
t-53 -86t-78 -101.5t-118.5 -143l-182 -217h344l-10 -43h-396z" />
    <glyph glyph-name="threequarters" unicode="&#xbe;" horiz-adv-x="1323" 
d="M227 0l897 1518h54l-897 -1518h-54zM305 631q-114 0 -196 53l24 37q73 -47 172 -47q209 0 209 280q0 79 -37 110.5t-141 31.5h-57l8 41h94q55 0 93 17.5t57.5 50.5t27.5 72.5t8 92.5q0 67 -32.5 90t-110.5 23q-79 0 -145 -31l-19 39q77 35 164 35q103 0 145.5 -31
t42.5 -125q0 -213 -131 -258q43 -20 60.5 -56.5t17.5 -101.5q0 -68 -12.5 -123t-40 -101.5t-79 -72.5t-122.5 -26zM666 217l8 43l418 619h49l-418 -619h268l64 297h35l-54 -297h131l-8 -43h-131l-37 -217h-45l37 217h-317z" />
    <glyph glyph-name="questiondown" unicode="&#xbf;" horiz-adv-x="987" 
d="M422 -14q-309 0 -309 250q0 61 12 113.5t30.5 92.5t52 82t66 73.5t82.5 74.5q66 57 106 99t65.5 76t40 77.5t22 80.5t17.5 108q2 15 3 22h52q-8 -56 -12 -82.5t-12 -67t-16 -60t-22.5 -52t-32 -53.5t-44.5 -52.5t-59.5 -62t-78.5 -70.5q-116 -100 -168.5 -185t-52.5 -214
q0 -201 258 -201q65 0 148 19t135 44l22 -45q-55 -27 -144.5 -47t-160.5 -20zM639 1389l23 129h86l-23 -129h-86z" />
    <glyph glyph-name="Agrave" unicode="&#xc0;" horiz-adv-x="1058" 
d="M-80 0l723 1526h43l180 -1526h-49l-51 424h-594l-201 -424h-51zM193 469h569l-113 963zM708 1614l-198 283h59l191 -283h-52z" />
    <glyph glyph-name="Aacute" unicode="&#xc1;" horiz-adv-x="1058" 
d="M-80 0l723 1526h43l180 -1526h-49l-51 424h-594l-201 -424h-51zM193 469h569l-113 963zM596 1614l293 283h65l-301 -283h-57z" />
    <glyph glyph-name="Acircumflex" unicode="&#xc2;" horiz-adv-x="1058" 
d="M-80 0l723 1526h43l180 -1526h-49l-51 424h-594l-201 -424h-51zM193 469h569l-113 963zM418 1614l284 283h56l182 -283h-53l-164 242l-250 -242h-55z" />
    <glyph glyph-name="Atilde" unicode="&#xc3;" horiz-adv-x="1058" 
d="M-80 0l723 1526h43l180 -1526h-49l-51 424h-594l-201 -424h-51zM193 469h569l-113 963zM465 1614l-43 27q67 100 155 100q44 0 117.5 -39t104.5 -39q63 0 118 90l43 -26q-70 -113 -161 -113q-50 0 -118.5 39t-103.5 39q-59 0 -112 -78z" />
    <glyph glyph-name="Adieresis" unicode="&#xc4;" horiz-adv-x="1058" 
d="M-80 0l723 1526h43l180 -1526h-49l-51 424h-594l-201 -424h-51zM193 469h569l-113 963zM495 1614l27 147h51l-26 -147h-52zM815 1614l27 147h51l-27 -147h-51z" />
    <glyph glyph-name="Aring" unicode="&#xc5;" horiz-adv-x="1058" 
d="M-80 0l703 1483q-58 10 -85.5 50.5t-27.5 100.5q0 109 52 176.5t143 67.5q80 0 116.5 -43t36.5 -115q0 -99 -45 -163t-123 -74l176 -1483h-49l-51 424h-594l-201 -424h-51zM193 469h569l-113 963zM664 1528q66 0 105.5 53.5t39.5 138.5q0 50 -25 80.5t-79 30.5
q-67 0 -106.5 -55t-39.5 -142q0 -47 25.5 -76.5t79.5 -29.5z" />
    <glyph glyph-name="AE" unicode="&#xc6;" horiz-adv-x="1603" 
d="M-94 0l1007 1518h721l-10 -50h-637l-113 -649h596l-10 -49h-596l-127 -721h643l-8 -49h-694l74 424h-508l-281 -424h-57zM272 469h488l176 997z" />
    <glyph glyph-name="Ccedilla" unicode="&#xc7;" horiz-adv-x="935" 
d="M340 -397q-92 0 -180 41l22 45q80 -37 158 -37q74 0 108.5 31t34.5 98q0 45 -33.5 62.5t-109.5 17.5l-31 26l37 109q-160 27 -231.5 137.5t-71.5 296.5q0 160 39 371q26 148 57 257t77 202t106.5 150.5t144 89.5t190.5 32q206 0 332 -90l-28 -41q-119 82 -304 82
q-119 0 -206.5 -44t-148 -136.5t-99.5 -213.5t-70 -296q-39 -211 -39 -363q0 -190 85.5 -292.5t279.5 -102.5q169 0 293 71l26 -43q-133 -77 -319 -77q-26 0 -66 4l-28 -82q170 0 170 -127q0 -93 -47 -135.5t-148 -42.5z" />
    <glyph glyph-name="Egrave" unicode="&#xc8;" horiz-adv-x="944" 
d="M18 0l269 1518h688l-10 -50h-637l-113 -649h596l-10 -49h-596l-127 -721h643l-8 -49h-695zM651 1614l-198 283h59l191 -283h-52z" />
    <glyph glyph-name="Eacute" unicode="&#xc9;" horiz-adv-x="944" 
d="M18 0l269 1518h688l-10 -50h-637l-113 -649h596l-10 -49h-596l-127 -721h643l-8 -49h-695zM539 1614l293 283h65l-301 -283h-57z" />
    <glyph glyph-name="Ecircumflex" unicode="&#xca;" horiz-adv-x="944" 
d="M18 0l269 1518h688l-10 -50h-637l-113 -649h596l-10 -49h-596l-127 -721h643l-8 -49h-695zM361 1614l284 283h56l182 -283h-53l-164 242l-250 -242h-55z" />
    <glyph glyph-name="Edieresis" unicode="&#xcb;" horiz-adv-x="944" 
d="M18 0l269 1518h688l-10 -50h-637l-113 -649h596l-10 -49h-596l-127 -721h643l-8 -49h-695zM438 1614l27 147h51l-26 -147h-52zM758 1614l27 147h51l-27 -147h-51z" />
    <glyph glyph-name="Igrave" unicode="&#xcc;" horiz-adv-x="370" 
d="M297 1614l-133 282h59l125 -282h-51zM27 0l268 1518h51l-268 -1518h-51zM27 0l268 1518h51l-268 -1518h-51z" />
    <glyph glyph-name="Iacute" unicode="&#xcd;" horiz-adv-x="370" 
d="M307 1614l236 282h65l-243 -282h-58zM27 0l268 1518h51l-268 -1518h-51z" />
    <glyph glyph-name="Icircumflex" unicode="&#xce;" horiz-adv-x="370" 
d="M27 0l268 1518h51l-268 -1518h-51zM72 1614l284 283h56l182 -283h-53l-164 242l-250 -242h-55z" />
    <glyph glyph-name="Idieresis" unicode="&#xcf;" horiz-adv-x="370" 
d="M27 0l268 1518h51l-268 -1518h-51zM149 1614l27 147h51l-26 -147h-52zM469 1614l27 147h51l-27 -147h-51z" />
    <glyph glyph-name="Eth" unicode="&#xd0;" horiz-adv-x="1101" 
d="M8 774l8 47h148l123 697h317q104 0 183 -22.5t130 -61.5t83.5 -97.5t45.5 -124.5t13 -149q0 -141 -39 -350q-18 -101 -35.5 -178.5t-44 -154.5t-58.5 -132.5t-76 -104.5t-99 -79t-127 -47t-160 -17h-402l138 774h-148zM80 49h340q93 0 166.5 20t128 62.5t94 96.5t70 135
t50.5 163t40 195q39 209 39 342q0 93 -19.5 163.5t-64 126.5t-125 85.5t-195.5 29.5h-274l-115 -647h293l-8 -47h-293z" />
    <glyph glyph-name="Ntilde" unicode="&#xd1;" horiz-adv-x="1146" 
d="M18 0l269 1518h61l481 -1420l252 1420h49l-268 -1518h-49l-491 1444l-254 -1444h-50zM510 1614l-43 27q67 100 155 100q44 0 117.5 -39t104.5 -39q63 0 118 90l43 -26q-70 -113 -161 -113q-50 0 -118.5 39t-103.5 39q-59 0 -112 -78z" />
    <glyph glyph-name="Ograve" unicode="&#xd2;" horiz-adv-x="1167" 
d="M477 -14q-123 0 -209.5 33t-134.5 96.5t-69 143t-21 183.5q0 145 39 357q18 100 36 177t44.5 156t59 136.5t77.5 109.5t100.5 84.5t128 51t160.5 18.5q100 0 176 -23t124.5 -62.5t79.5 -99t43.5 -127t12.5 -151.5q0 -143 -39 -358q-18 -100 -36 -176.5t-44.5 -155
t-58.5 -135t-77.5 -108t-101 -83t-128.5 -49.5t-162 -18zM477 35q80 0 147 17t117.5 47t92 78t71 101.5t54.5 127.5t41.5 146.5t33.5 166.5q39 215 39 350q0 75 -11 135.5t-38 113.5t-70 88.5t-110.5 56t-155.5 20.5q-79 0 -145.5 -17.5t-117 -48t-91.5 -79.5t-71 -103.5
t-54.5 -129.5t-41.5 -147.5t-34 -166.5q-39 -212 -39 -349q0 -93 18.5 -164t60.5 -127.5t118.5 -86t185.5 -29.5zM763 1614l-198 283h59l191 -283h-52z" />
    <glyph glyph-name="Oacute" unicode="&#xd3;" horiz-adv-x="1167" 
d="M477 -14q-123 0 -209.5 33t-134.5 96.5t-69 143t-21 183.5q0 145 39 357q18 100 36 177t44.5 156t59 136.5t77.5 109.5t100.5 84.5t128 51t160.5 18.5q100 0 176 -23t124.5 -62.5t79.5 -99t43.5 -127t12.5 -151.5q0 -143 -39 -358q-18 -100 -36 -176.5t-44.5 -155
t-58.5 -135t-77.5 -108t-101 -83t-128.5 -49.5t-162 -18zM477 35q80 0 147 17t117.5 47t92 78t71 101.5t54.5 127.5t41.5 146.5t33.5 166.5q39 215 39 350q0 75 -11 135.5t-38 113.5t-70 88.5t-110.5 56t-155.5 20.5q-79 0 -145.5 -17.5t-117 -48t-91.5 -79.5t-71 -103.5
t-54.5 -129.5t-41.5 -147.5t-34 -166.5q-39 -212 -39 -349q0 -93 18.5 -164t60.5 -127.5t118.5 -86t185.5 -29.5zM651 1614l293 283h65l-301 -283h-57z" />
    <glyph glyph-name="Ocircumflex" unicode="&#xd4;" horiz-adv-x="1167" 
d="M477 -14q-123 0 -209.5 33t-134.5 96.5t-69 143t-21 183.5q0 145 39 357q18 100 36 177t44.5 156t59 136.5t77.5 109.5t100.5 84.5t128 51t160.5 18.5q100 0 176 -23t124.5 -62.5t79.5 -99t43.5 -127t12.5 -151.5q0 -143 -39 -358q-18 -100 -36 -176.5t-44.5 -155
t-58.5 -135t-77.5 -108t-101 -83t-128.5 -49.5t-162 -18zM477 35q80 0 147 17t117.5 47t92 78t71 101.5t54.5 127.5t41.5 146.5t33.5 166.5q39 215 39 350q0 75 -11 135.5t-38 113.5t-70 88.5t-110.5 56t-155.5 20.5q-79 0 -145.5 -17.5t-117 -48t-91.5 -79.5t-71 -103.5
t-54.5 -129.5t-41.5 -147.5t-34 -166.5q-39 -212 -39 -349q0 -93 18.5 -164t60.5 -127.5t118.5 -86t185.5 -29.5zM473 1614l284 283h56l182 -283h-53l-164 242l-250 -242h-55z" />
    <glyph glyph-name="Otilde" unicode="&#xd5;" horiz-adv-x="1167" 
d="M477 -14q-123 0 -209.5 33t-134.5 96.5t-69 143t-21 183.5q0 145 39 357q18 100 36 177t44.5 156t59 136.5t77.5 109.5t100.5 84.5t128 51t160.5 18.5q100 0 176 -23t124.5 -62.5t79.5 -99t43.5 -127t12.5 -151.5q0 -143 -39 -358q-18 -100 -36 -176.5t-44.5 -155
t-58.5 -135t-77.5 -108t-101 -83t-128.5 -49.5t-162 -18zM477 35q80 0 147 17t117.5 47t92 78t71 101.5t54.5 127.5t41.5 146.5t33.5 166.5q39 215 39 350q0 75 -11 135.5t-38 113.5t-70 88.5t-110.5 56t-155.5 20.5q-79 0 -145.5 -17.5t-117 -48t-91.5 -79.5t-71 -103.5
t-54.5 -129.5t-41.5 -147.5t-34 -166.5q-39 -212 -39 -349q0 -93 18.5 -164t60.5 -127.5t118.5 -86t185.5 -29.5zM520 1614l-43 27q67 100 155 100q44 0 117.5 -39t104.5 -39q63 0 118 90l43 -26q-70 -113 -161 -113q-50 0 -118.5 39t-103.5 39q-59 0 -112 -78z" />
    <glyph glyph-name="Odieresis" unicode="&#xd6;" horiz-adv-x="1167" 
d="M477 -14q-123 0 -209.5 33t-134.5 96.5t-69 143t-21 183.5q0 145 39 357q18 100 36 177t44.5 156t59 136.5t77.5 109.5t100.5 84.5t128 51t160.5 18.5q100 0 176 -23t124.5 -62.5t79.5 -99t43.5 -127t12.5 -151.5q0 -143 -39 -358q-18 -100 -36 -176.5t-44.5 -155
t-58.5 -135t-77.5 -108t-101 -83t-128.5 -49.5t-162 -18zM477 35q80 0 147 17t117.5 47t92 78t71 101.5t54.5 127.5t41.5 146.5t33.5 166.5q39 215 39 350q0 75 -11 135.5t-38 113.5t-70 88.5t-110.5 56t-155.5 20.5q-79 0 -145.5 -17.5t-117 -48t-91.5 -79.5t-71 -103.5
t-54.5 -129.5t-41.5 -147.5t-34 -166.5q-39 -212 -39 -349q0 -93 18.5 -164t60.5 -127.5t118.5 -86t185.5 -29.5zM550 1614l27 147h51l-26 -147h-52zM870 1614l27 147h51l-27 -147h-51z" />
    <glyph glyph-name="multiply" unicode="&#xd7;" horiz-adv-x="1056" 
d="M213 428l-27 33l303 258l-213 260l35 33l215 -260l305 260l27 -33l-305 -260l215 -258l-35 -33l-215 260z" />
    <glyph glyph-name="Oslash" unicode="&#xd8;" horiz-adv-x="1167" 
d="M477 -14q-163 0 -260 57l-70 -127h-55l84 156q-133 106 -133 370q0 145 39 357q18 100 36 177t44.5 156t59 136.5t77.5 109.5t100.5 84.5t128 51t160.5 18.5q160 0 260 -59l72 131h57l-90 -158q137 -110 137 -377q0 -143 -39 -358q-18 -100 -36 -176.5t-44.5 -155
t-58.5 -135t-77.5 -108t-101 -83t-128.5 -49.5t-162 -18zM477 35q80 0 147 17t117.5 47t92 78t71 101.5t54.5 127.5t41.5 146.5t33.5 166.5q39 215 39 350q0 231 -112 330l-721 -1309q90 -55 237 -55zM94 442q0 -228 111 -325l719 1310q-91 56 -236 56q-79 0 -145.5 -17.5
t-117 -48t-91.5 -79.5t-71 -103.5t-54.5 -129.5t-41.5 -147.5t-34 -166.5q-39 -212 -39 -349z" />
    <glyph glyph-name="Ugrave" unicode="&#xd9;" horiz-adv-x="1153" 
d="M500 -14q-222 0 -319 88.5t-97 255.5q0 74 16 168l181 1020h51l-182 -1024q-15 -82 -15 -156q0 -70 17.5 -123t57.5 -95t113 -63.5t177 -21.5q99 0 170.5 27.5t118 84t74 130.5t46.5 180l189 1061h49l-189 -1065q-21 -120 -52 -202t-83 -144t-131.5 -91.5t-191.5 -29.5z
M755 1614l-198 283h59l191 -283h-52z" />
    <glyph glyph-name="Uacute" unicode="&#xda;" horiz-adv-x="1153" 
d="M500 -14q-222 0 -319 88.5t-97 255.5q0 74 16 168l181 1020h51l-182 -1024q-15 -82 -15 -156q0 -70 17.5 -123t57.5 -95t113 -63.5t177 -21.5q99 0 170.5 27.5t118 84t74 130.5t46.5 180l189 1061h49l-189 -1065q-21 -120 -52 -202t-83 -144t-131.5 -91.5t-191.5 -29.5z
M643 1614l293 283h65l-301 -283h-57z" />
    <glyph glyph-name="Ucircumflex" unicode="&#xdb;" horiz-adv-x="1153" 
d="M500 -14q-222 0 -319 88.5t-97 255.5q0 74 16 168l181 1020h51l-182 -1024q-15 -82 -15 -156q0 -70 17.5 -123t57.5 -95t113 -63.5t177 -21.5q99 0 170.5 27.5t118 84t74 130.5t46.5 180l189 1061h49l-189 -1065q-21 -120 -52 -202t-83 -144t-131.5 -91.5t-191.5 -29.5z
M465 1614l284 283h56l182 -283h-53l-164 242l-250 -242h-55z" />
    <glyph glyph-name="Udieresis" unicode="&#xdc;" horiz-adv-x="1153" 
d="M500 -14q-222 0 -319 88.5t-97 255.5q0 74 16 168l181 1020h51l-182 -1024q-15 -82 -15 -156q0 -70 17.5 -123t57.5 -95t113 -63.5t177 -21.5q99 0 170.5 27.5t118 84t74 130.5t46.5 180l189 1061h49l-189 -1065q-21 -120 -52 -202t-83 -144t-131.5 -91.5t-191.5 -29.5z
M542 1614l27 147h51l-26 -147h-52zM862 1614l27 147h51l-27 -147h-51z" />
    <glyph glyph-name="Yacute" unicode="&#xdd;" horiz-adv-x="1007" 
d="M346 0l103 596l-277 922h51l260 -873l570 873h51l-602 -920l-105 -598h-51zM572 1614l293 283h65l-301 -283h-57z" />
    <glyph glyph-name="Thorn" unicode="&#xde;" horiz-adv-x="995" 
d="M18 0l269 1518h51l-51 -287h274q221 0 318.5 -74t97.5 -237q0 -71 -14 -142q-20 -115 -56.5 -192t-91 -119t-118.5 -59t-152 -17h-408l-67 -391h-52zM147 440h398q78 0 134 15t103.5 52.5t79 107t49.5 173.5q15 76 15 132q0 136 -86 199t-279 63h-282z" />
    <glyph glyph-name="germandbls" unicode="&#xdf;" horiz-adv-x="962" 
d="M-53 -324l270 1555q31 185 119.5 265.5t241.5 80.5q164 0 238.5 -69.5t74.5 -215.5q0 -55 -14 -141q-27 -147 -78 -226.5t-131 -109.5q166 -64 166 -291q0 -61 -13 -141q-38 -213 -132.5 -298.5t-293.5 -84.5h-172l10 49h162q174 -1 257.5 75.5t117.5 266.5q12 74 12 133
q0 133 -70 201t-233 68h-28l8 49h80q118 0 186.5 71t99.5 246q15 92 15 133q0 121 -62.5 178.5t-199.5 57.5q-131 0 -206 -71.5t-104 -233.5l-270 -1547h-51z" />
    <glyph glyph-name="agrave" unicode="&#xe0;" horiz-adv-x="931" 
d="M283 -10q-279 0 -279 258q0 116 24.5 200t68 136.5t112.5 83t146.5 42t183.5 11.5h149q7 41 11 65t7.5 59.5t2.5 56.5t-5.5 48.5t-15 44t-27.5 34t-41.5 27t-58 15.5t-76.5 6q-143 0 -237 -47l-23 45q105 51 260 51q63 0 110 -10.5t78.5 -28t50 -48.5t27 -63t7.5 -80.5
t-6.5 -93t-16.5 -108.5l-90 -510q-17 -80 -3 -107.5t81 -27.5l-8 -49h-15q-75 0 -98.5 38.5t-13.5 115.5q-47 -86 -130 -125t-175 -39zM283 39q54 0 103 14.5t99 49t87 103t55 165.5l53 301h-141q-84 0 -146.5 -7t-119.5 -24.5t-95.5 -48.5t-67 -77.5t-42 -113t-13.5 -153.5
q0 -209 228 -209zM577 1235l-198 283h59l191 -283h-52z" />
    <glyph glyph-name="aacute" unicode="&#xe1;" horiz-adv-x="931" 
d="M283 -10q-279 0 -279 258q0 116 24.5 200t68 136.5t112.5 83t146.5 42t183.5 11.5h149q7 41 11 65t7.5 59.5t2.5 56.5t-5.5 48.5t-15 44t-27.5 34t-41.5 27t-58 15.5t-76.5 6q-143 0 -237 -47l-23 45q105 51 260 51q63 0 110 -10.5t78.5 -28t50 -48.5t27 -63t7.5 -80.5
t-6.5 -93t-16.5 -108.5l-90 -510q-17 -80 -3 -107.5t81 -27.5l-8 -49h-15q-75 0 -98.5 38.5t-13.5 115.5q-47 -86 -130 -125t-175 -39zM283 39q54 0 103 14.5t99 49t87 103t55 165.5l53 301h-141q-84 0 -146.5 -7t-119.5 -24.5t-95.5 -48.5t-67 -77.5t-42 -113t-13.5 -153.5
q0 -209 228 -209zM465 1235l293 283h65l-301 -283h-57z" />
    <glyph glyph-name="acircumflex" unicode="&#xe2;" horiz-adv-x="931" 
d="M283 -10q-279 0 -279 258q0 116 24.5 200t68 136.5t112.5 83t146.5 42t183.5 11.5h149q7 41 11 65t7.5 59.5t2.5 56.5t-5.5 48.5t-15 44t-27.5 34t-41.5 27t-58 15.5t-76.5 6q-143 0 -237 -47l-23 45q105 51 260 51q63 0 110 -10.5t78.5 -28t50 -48.5t27 -63t7.5 -80.5
t-6.5 -93t-16.5 -108.5l-90 -510q-17 -80 -3 -107.5t81 -27.5l-8 -49h-15q-75 0 -98.5 38.5t-13.5 115.5q-47 -86 -130 -125t-175 -39zM283 39q54 0 103 14.5t99 49t87 103t55 165.5l53 301h-141q-84 0 -146.5 -7t-119.5 -24.5t-95.5 -48.5t-67 -77.5t-42 -113t-13.5 -153.5
q0 -209 228 -209zM287 1235l284 283h56l182 -283h-53l-164 242l-250 -242h-55z" />
    <glyph glyph-name="atilde" unicode="&#xe3;" horiz-adv-x="931" 
d="M283 -10q-279 0 -279 258q0 116 24.5 200t68 136.5t112.5 83t146.5 42t183.5 11.5h149q7 41 11 65t7.5 59.5t2.5 56.5t-5.5 48.5t-15 44t-27.5 34t-41.5 27t-58 15.5t-76.5 6q-143 0 -237 -47l-23 45q105 51 260 51q63 0 110 -10.5t78.5 -28t50 -48.5t27 -63t7.5 -80.5
t-6.5 -93t-16.5 -108.5l-90 -510q-17 -80 -3 -107.5t81 -27.5l-8 -49h-15q-75 0 -98.5 38.5t-13.5 115.5q-47 -86 -130 -125t-175 -39zM283 39q54 0 103 14.5t99 49t87 103t55 165.5l53 301h-141q-84 0 -146.5 -7t-119.5 -24.5t-95.5 -48.5t-67 -77.5t-42 -113t-13.5 -153.5
q0 -209 228 -209zM334 1235l-43 27q67 100 155 100q44 0 117.5 -39t104.5 -39q63 0 118 90l43 -26q-70 -113 -161 -113q-50 0 -118.5 39t-103.5 39q-59 0 -112 -78z" />
    <glyph glyph-name="adieresis" unicode="&#xe4;" horiz-adv-x="931" 
d="M283 -10q-279 0 -279 258q0 116 24.5 200t68 136.5t112.5 83t146.5 42t183.5 11.5h149q7 41 11 65t7.5 59.5t2.5 56.5t-5.5 48.5t-15 44t-27.5 34t-41.5 27t-58 15.5t-76.5 6q-143 0 -237 -47l-23 45q105 51 260 51q63 0 110 -10.5t78.5 -28t50 -48.5t27 -63t7.5 -80.5
t-6.5 -93t-16.5 -108.5l-90 -510q-17 -80 -3 -107.5t81 -27.5l-8 -49h-15q-75 0 -98.5 38.5t-13.5 115.5q-47 -86 -130 -125t-175 -39zM283 39q54 0 103 14.5t99 49t87 103t55 165.5l53 301h-141q-84 0 -146.5 -7t-119.5 -24.5t-95.5 -48.5t-67 -77.5t-42 -113t-13.5 -153.5
q0 -209 228 -209zM364 1235l27 147h51l-26 -147h-52zM684 1235l27 147h51l-27 -147h-51z" />
    <glyph glyph-name="aring" unicode="&#xe5;" horiz-adv-x="931" 
d="M283 -10q-279 0 -279 258q0 116 24.5 200t68 136.5t112.5 83t146.5 42t183.5 11.5h149q7 41 11 65t7.5 59.5t2.5 56.5t-5.5 48.5t-15 44t-27.5 34t-41.5 27t-58 15.5t-76.5 6q-143 0 -237 -47l-23 45q105 51 260 51q63 0 110 -10.5t78.5 -28t50 -48.5t27 -63t7.5 -80.5
t-6.5 -93t-16.5 -108.5l-90 -510q-17 -80 -3 -107.5t81 -27.5l-8 -49h-15q-75 0 -98.5 38.5t-13.5 115.5q-47 -86 -130 -125t-175 -39zM283 39q54 0 103 14.5t99 49t87 103t55 165.5l53 301h-141q-84 0 -146.5 -7t-119.5 -24.5t-95.5 -48.5t-67 -77.5t-42 -113t-13.5 -153.5
q0 -209 228 -209zM563 1276q66 0 106 53.5t40 138.5q0 50 -25.5 80.5t-79.5 30.5q-67 0 -106 -54.5t-39 -142.5q0 -47 25 -76.5t79 -29.5zM563 1229q-80 0 -116.5 42t-36.5 111q0 109 51.5 176.5t142.5 67.5q80 0 117 -43t37 -115q0 -107 -52.5 -173t-142.5 -66z" />
    <glyph glyph-name="ae" unicode="&#xe6;" horiz-adv-x="1474" 
d="M979 -14q-162 0 -239 67t-93 195q-49 -129 -144.5 -193.5t-219.5 -64.5q-276 0 -279 258q0 116 24.5 200t68 136.5t112.5 83t146.5 42t183.5 11.5h149q7 41 11 65t7.5 59.5t2.5 56.5t-5.5 48.5t-15 44t-27.5 34t-41.5 27t-58 15.5t-76.5 6q-143 0 -237 -47l-23 45
q105 51 260 51q151 0 211 -56t60 -169q55 111 136.5 168t203.5 57q168 0 234.5 -69t66.5 -197q0 -82 -41 -299h-643q-21 -126 -21 -229q0 -143 64.5 -220t222.5 -77q125 0 229 51l23 -45q-113 -55 -252 -55zM283 39q54 0 103 14.5t99 49t87 103t55 165.5l53 301h-141
q-84 0 -146.5 -7t-119.5 -24.5t-95.5 -48.5t-67 -77.5t-42 -113t-13.5 -153.5q3 -209 228 -209zM1096 1077q-70 0 -126 -23.5t-94.5 -62.5t-69 -101t-49.5 -127t-36 -153h592q33 177 33 250q0 104 -55.5 160.5t-194.5 56.5z" />
    <glyph glyph-name="ccedilla" unicode="&#xe7;" horiz-adv-x="768" 
d="M256 -397q-92 0 -180 41l22 45q80 -37 158 -37q74 0 108.5 31t34.5 98q0 45 -33.5 62.5t-109.5 17.5l-31 26l37 107q-124 22 -177.5 108.5t-53.5 227.5q0 107 26 260q48 273 146 404.5t289 131.5q156 0 247 -61l-28 -41q-79 53 -219 53q-71 0 -127.5 -23t-96 -63
t-70.5 -104.5t-51 -136t-38 -168.5q-27 -155 -27 -252q0 -142 62.5 -218.5t209.5 -76.5q106 0 205 37l19 -47q-108 -39 -224 -39q-8 0 -23 1t-22 1l-28 -80q170 0 170 -127q0 -93 -47 -135.5t-148 -42.5z" />
    <glyph glyph-name="egrave" unicode="&#xe8;" horiz-adv-x="866" 
d="M371 -14q-96 0 -163.5 24.5t-105 72t-53.5 108t-16 141.5q0 119 24 260q22 130 54.5 224t82.5 166t123 108t170 36q168 0 234.5 -69t66.5 -197q0 -87 -40 -299h-644q-20 -120 -20 -229q0 -143 64.5 -220t222.5 -77q107 0 231 47l19 -49q-135 -47 -250 -47zM487 1077
q-70 0 -126 -23.5t-94 -62.5t-68.5 -101t-49.5 -127t-36 -153h592q32 172 32 250q0 104 -55.5 160.5t-194.5 56.5zM544 1235l-198 283h59l191 -283h-52z" />
    <glyph glyph-name="eacute" unicode="&#xe9;" horiz-adv-x="866" 
d="M371 -14q-96 0 -163.5 24.5t-105 72t-53.5 108t-16 141.5q0 119 24 260q22 130 54.5 224t82.5 166t123 108t170 36q168 0 234.5 -69t66.5 -197q0 -87 -40 -299h-644q-20 -120 -20 -229q0 -143 64.5 -220t222.5 -77q107 0 231 47l19 -49q-135 -47 -250 -47zM487 1077
q-70 0 -126 -23.5t-94 -62.5t-68.5 -101t-49.5 -127t-36 -153h592q32 172 32 250q0 104 -55.5 160.5t-194.5 56.5zM432 1235l293 283h65l-301 -283h-57z" />
    <glyph glyph-name="ecircumflex" unicode="&#xea;" horiz-adv-x="866" 
d="M371 -14q-96 0 -163.5 24.5t-105 72t-53.5 108t-16 141.5q0 119 24 260q22 130 54.5 224t82.5 166t123 108t170 36q168 0 234.5 -69t66.5 -197q0 -87 -40 -299h-644q-20 -120 -20 -229q0 -143 64.5 -220t222.5 -77q107 0 231 47l19 -49q-135 -47 -250 -47zM487 1077
q-70 0 -126 -23.5t-94 -62.5t-68.5 -101t-49.5 -127t-36 -153h592q32 172 32 250q0 104 -55.5 160.5t-194.5 56.5zM254 1235l284 283h56l182 -283h-53l-164 242l-250 -242h-55z" />
    <glyph glyph-name="edieresis" unicode="&#xeb;" horiz-adv-x="866" 
d="M371 -14q-96 0 -163.5 24.5t-105 72t-53.5 108t-16 141.5q0 119 24 260q22 130 54.5 224t82.5 166t123 108t170 36q168 0 234.5 -69t66.5 -197q0 -87 -40 -299h-644q-20 -120 -20 -229q0 -143 64.5 -220t222.5 -77q107 0 231 47l19 -49q-135 -47 -250 -47zM487 1077
q-70 0 -126 -23.5t-94 -62.5t-68.5 -101t-49.5 -127t-36 -153h592q32 172 32 250q0 104 -55.5 160.5t-194.5 56.5zM331 1235l27 147h51l-26 -147h-52zM651 1235l27 147h51l-27 -147h-51z" />
    <glyph glyph-name="igrave" unicode="&#xec;" horiz-adv-x="333" 
d="M209 1235l-129 283h59l121 -283h-51zM8 0l197 1110h51l-197 -1110h-51z" />
    <glyph glyph-name="iacute" unicode="&#xed;" horiz-adv-x="333" 
d="M217 1235l242 283h65l-250 -283h-57zM8 0l197 1110h51l-197 -1110h-51z" />
    <glyph glyph-name="icircumflex" unicode="&#xee;" horiz-adv-x="333" 
d="M8 1235l264 283h56l161 -283h-53l-143 242l-230 -242h-55zM8 0l197 1110h51l-197 -1110h-51z" />
    <glyph glyph-name="idieresis" unicode="&#xef;" horiz-adv-x="333" 
d="M76 1235l26 147h52l-27 -147h-51zM375 1235l26 147h52l-27 -147h-51zM8 0l197 1110h51l-197 -1110h-51z" />
    <glyph glyph-name="eth" unicode="&#xf0;" horiz-adv-x="935" 
d="M508 1290l8 51l199 64q-49 75 -121 129l33 37q86 -64 137 -150l211 70l-8 -51l-181 -60q74 -145 74 -370q0 -194 -51 -488q-18 -101 -37 -173.5t-52.5 -145t-78 -117t-112.5 -72.5t-156 -28q-79 0 -139 18t-98 48.5t-62 76t-33.5 96t-9.5 113.5q0 93 26 256
q18 100 37 172.5t53 144.5t78.5 116t112.5 71.5t156 27.5q258 0 313 -192q9 273 -70 430zM373 35q56 0 102.5 13t81.5 35.5t64 58.5t49 74.5t37 92t28 103t23 114.5q26 156 26 246q0 69 -13.5 121t-45 95t-90 66t-141.5 23q-78 0 -137.5 -26t-98.5 -67t-69 -108.5
t-46.5 -133t-33.5 -158.5q-27 -162 -27 -244q0 -69 13.5 -121.5t45.5 -95.5t90.5 -65.5t141.5 -22.5z" />
    <glyph glyph-name="ntilde" unicode="&#xf1;" horiz-adv-x="937" 
d="M2 0l195 1106l41 2l-21 -168q97 186 309 186q70 0 122 -12.5t85 -32t52.5 -53.5t27.5 -65.5t6.5 -81t-6.5 -87.5t-16 -96l-123 -698h-51l125 711q10 57 14.5 95t5.5 80t-7 68.5t-24 52t-44 39.5t-69.5 22.5t-97.5 8.5q-70 0 -124 -21.5t-92.5 -60.5t-68 -104t-49.5 -140
t-38 -180l-101 -571h-51zM338 1235l-43 27q67 100 155 100q44 0 117.5 -39t104.5 -39q63 0 118 90l43 -26q-70 -113 -161 -113q-50 0 -118.5 39t-103.5 39q-59 0 -112 -78z" />
    <glyph glyph-name="ograve" unicode="&#xf2;" horiz-adv-x="935" 
d="M360 -14q-93 0 -158.5 27t-101.5 77.5t-51.5 112t-15.5 141.5q0 100 24 244q17 98 38 173t57 146.5t83 117.5t116.5 73.5t158.5 27.5q93 0 158.5 -26t102 -74.5t52 -108.5t15.5 -137q0 -98 -29 -258q-12 -70 -25 -125.5t-32.5 -113t-43.5 -100t-57.5 -81.5t-74.5 -63.5
t-96 -38.5t-120 -14zM360 35q79 0 141 25.5t102.5 67t71.5 108t49 134t34 160.5q28 154 28 250q0 67 -13.5 118t-43.5 93t-85.5 64t-133.5 22q-81 0 -144.5 -28t-104 -72t-72 -113t-48.5 -133t-32 -151q-25 -146 -25 -236q0 -69 13.5 -122.5t43.5 -97t85.5 -66.5t133.5 -23z
M579 1235l-198 283h59l191 -283h-52z" />
    <glyph glyph-name="oacute" unicode="&#xf3;" horiz-adv-x="935" 
d="M360 -14q-93 0 -158.5 27t-101.5 77.5t-51.5 112t-15.5 141.5q0 100 24 244q17 98 38 173t57 146.5t83 117.5t116.5 73.5t158.5 27.5q93 0 158.5 -26t102 -74.5t52 -108.5t15.5 -137q0 -98 -29 -258q-12 -70 -25 -125.5t-32.5 -113t-43.5 -100t-57.5 -81.5t-74.5 -63.5
t-96 -38.5t-120 -14zM360 35q79 0 141 25.5t102.5 67t71.5 108t49 134t34 160.5q28 154 28 250q0 67 -13.5 118t-43.5 93t-85.5 64t-133.5 22q-81 0 -144.5 -28t-104 -72t-72 -113t-48.5 -133t-32 -151q-25 -146 -25 -236q0 -69 13.5 -122.5t43.5 -97t85.5 -66.5t133.5 -23z
M467 1235l293 283h65l-301 -283h-57z" />
    <glyph glyph-name="ocircumflex" unicode="&#xf4;" horiz-adv-x="935" 
d="M360 -14q-93 0 -158.5 27t-101.5 77.5t-51.5 112t-15.5 141.5q0 100 24 244q17 98 38 173t57 146.5t83 117.5t116.5 73.5t158.5 27.5q93 0 158.5 -26t102 -74.5t52 -108.5t15.5 -137q0 -98 -29 -258q-12 -70 -25 -125.5t-32.5 -113t-43.5 -100t-57.5 -81.5t-74.5 -63.5
t-96 -38.5t-120 -14zM360 35q79 0 141 25.5t102.5 67t71.5 108t49 134t34 160.5q28 154 28 250q0 67 -13.5 118t-43.5 93t-85.5 64t-133.5 22q-81 0 -144.5 -28t-104 -72t-72 -113t-48.5 -133t-32 -151q-25 -146 -25 -236q0 -69 13.5 -122.5t43.5 -97t85.5 -66.5t133.5 -23z
M289 1235l284 283h56l182 -283h-53l-164 242l-250 -242h-55z" />
    <glyph glyph-name="otilde" unicode="&#xf5;" horiz-adv-x="935" 
d="M360 -14q-93 0 -158.5 27t-101.5 77.5t-51.5 112t-15.5 141.5q0 100 24 244q17 98 38 173t57 146.5t83 117.5t116.5 73.5t158.5 27.5q93 0 158.5 -26t102 -74.5t52 -108.5t15.5 -137q0 -98 -29 -258q-12 -70 -25 -125.5t-32.5 -113t-43.5 -100t-57.5 -81.5t-74.5 -63.5
t-96 -38.5t-120 -14zM360 35q79 0 141 25.5t102.5 67t71.5 108t49 134t34 160.5q28 154 28 250q0 67 -13.5 118t-43.5 93t-85.5 64t-133.5 22q-81 0 -144.5 -28t-104 -72t-72 -113t-48.5 -133t-32 -151q-25 -146 -25 -236q0 -69 13.5 -122.5t43.5 -97t85.5 -66.5t133.5 -23z
M336 1235l-43 27q67 100 155 100q44 0 117.5 -39t104.5 -39q63 0 118 90l43 -26q-70 -113 -161 -113q-50 0 -118.5 39t-103.5 39q-59 0 -112 -78z" />
    <glyph glyph-name="odieresis" unicode="&#xf6;" horiz-adv-x="935" 
d="M360 -14q-93 0 -158.5 27t-101.5 77.5t-51.5 112t-15.5 141.5q0 100 24 244q17 98 38 173t57 146.5t83 117.5t116.5 73.5t158.5 27.5q93 0 158.5 -26t102 -74.5t52 -108.5t15.5 -137q0 -98 -29 -258q-12 -70 -25 -125.5t-32.5 -113t-43.5 -100t-57.5 -81.5t-74.5 -63.5
t-96 -38.5t-120 -14zM360 35q79 0 141 25.5t102.5 67t71.5 108t49 134t34 160.5q28 154 28 250q0 67 -13.5 118t-43.5 93t-85.5 64t-133.5 22q-81 0 -144.5 -28t-104 -72t-72 -113t-48.5 -133t-32 -151q-25 -146 -25 -236q0 -69 13.5 -122.5t43.5 -97t85.5 -66.5t133.5 -23z
M366 1235l27 147h51l-26 -147h-52zM686 1235l27 147h51l-27 -147h-51z" />
    <glyph glyph-name="divide" unicode="&#xf7;" horiz-adv-x="1056" 
d="M414 330l22 121h82l-22 -121h-82zM170 696l8 47h696l-8 -47h-696zM530 987l21 121h82l-21 -121h-82z" />
    <glyph glyph-name="oslash" unicode="&#xf8;" horiz-adv-x="935" 
d="M360 -14q-133 0 -210 55l-76 -127h-56l95 160q-80 89 -80 270q0 100 24 244q17 98 38 173t57 146.5t83 117.5t116.5 73.5t158.5 27.5q129 0 205 -51l71 119h56l-90 -150q86 -83 86 -264q0 -98 -29 -258q-12 -70 -25 -125.5t-32.5 -113t-43.5 -100t-57.5 -81.5
t-74.5 -63.5t-96 -38.5t-120 -14zM360 35q79 0 141 25.5t102.5 67t71.5 108t49 134t34 160.5q28 154 28 250q0 146 -63 217l-549 -909q65 -53 186 -53zM84 344q0 -151 59 -223l545 907q-68 49 -178 49q-81 0 -144.5 -28t-104 -72t-72 -113t-48.5 -133t-32 -151
q-25 -146 -25 -236z" />
    <glyph glyph-name="ugrave" unicode="&#xf9;" horiz-adv-x="907" 
d="M354 -14q-94 0 -156.5 19.5t-96 51t-45.5 84.5t-9.5 107t16.5 133l130 729h51l-129 -729q-7 -41 -11 -69t-6 -64t3 -59.5t14.5 -50.5t29 -43.5t47.5 -31.5t69 -21.5t93 -6.5q65 0 111.5 12t77.5 33t52.5 60.5t34.5 83.5t25 112l138 774h49l-137 -774q-11 -64 -22.5 -108
t-29.5 -87t-42.5 -69t-60 -47t-84 -30t-112.5 -9zM565 1235l-198 283h59l191 -283h-52z" />
    <glyph glyph-name="uacute" unicode="&#xfa;" horiz-adv-x="907" 
d="M354 -14q-94 0 -156.5 19.5t-96 51t-45.5 84.5t-9.5 107t16.5 133l130 729h51l-129 -729q-7 -41 -11 -69t-6 -64t3 -59.5t14.5 -50.5t29 -43.5t47.5 -31.5t69 -21.5t93 -6.5q65 0 111.5 12t77.5 33t52.5 60.5t34.5 83.5t25 112l138 774h49l-137 -774q-11 -64 -22.5 -108
t-29.5 -87t-42.5 -69t-60 -47t-84 -30t-112.5 -9zM453 1235l293 283h65l-301 -283h-57z" />
    <glyph glyph-name="ucircumflex" unicode="&#xfb;" horiz-adv-x="907" 
d="M354 -14q-94 0 -156.5 19.5t-96 51t-45.5 84.5t-9.5 107t16.5 133l130 729h51l-129 -729q-7 -41 -11 -69t-6 -64t3 -59.5t14.5 -50.5t29 -43.5t47.5 -31.5t69 -21.5t93 -6.5q65 0 111.5 12t77.5 33t52.5 60.5t34.5 83.5t25 112l138 774h49l-137 -774q-11 -64 -22.5 -108
t-29.5 -87t-42.5 -69t-60 -47t-84 -30t-112.5 -9zM275 1235l284 283h56l182 -283h-53l-164 242l-250 -242h-55z" />
    <glyph glyph-name="udieresis" unicode="&#xfc;" horiz-adv-x="907" 
d="M354 -14q-94 0 -156.5 19.5t-96 51t-45.5 84.5t-9.5 107t16.5 133l130 729h51l-129 -729q-7 -41 -11 -69t-6 -64t3 -59.5t14.5 -50.5t29 -43.5t47.5 -31.5t69 -21.5t93 -6.5q65 0 111.5 12t77.5 33t52.5 60.5t34.5 83.5t25 112l138 774h49l-137 -774q-11 -64 -22.5 -108
t-29.5 -87t-42.5 -69t-60 -47t-84 -30t-112.5 -9zM352 1235l27 147h51l-26 -147h-52zM672 1235l27 147h51l-27 -147h-51z" />
    <glyph glyph-name="yacute" unicode="&#xfd;" horiz-adv-x="768" 
d="M-66 -324l9 50h59q54 0 84.5 22t58.5 82l78 168l-127 1112h49l119 -1028l486 1028h49l-611 -1294q-37 -77 -78.5 -108.5t-107.5 -31.5h-68zM383 1235l293 283h65l-301 -283h-57z" />
    <glyph glyph-name="thorn" unicode="&#xfe;" horiz-adv-x="960" 
d="M-53 -324l334 1899h51l-111 -623q105 174 338 174q87 0 147.5 -25t93.5 -72.5t47.5 -106.5t14.5 -136q0 -114 -28 -268q-18 -98 -36.5 -167.5t-51 -142.5t-74 -118t-106 -73.5t-146.5 -28.5q-151 0 -229 57.5t-101 165.5l-92 -535h-51zM420 37q72 0 127.5 25.5t92 66
t65 107.5t44.5 132t33 158q29 163 29 260q0 137 -57 214t-195 77q-62 0 -112.5 -13.5t-87.5 -35.5t-67 -59.5t-49.5 -75t-36.5 -93.5t-27.5 -103t-22.5 -115q-29 -178 -29 -248q0 -68 13.5 -119t45 -92.5t90.5 -63.5t144 -22z" />
    <glyph glyph-name="ydieresis" unicode="&#xff;" horiz-adv-x="768" 
d="M-66 -324l9 50h59q54 0 84.5 22t58.5 82l78 168l-127 1112h49l119 -1028l486 1028h49l-611 -1294q-37 -77 -78.5 -108.5t-107.5 -31.5h-68zM282 1235l27 147h51l-26 -147h-52zM602 1235l27 147h51l-27 -147h-51z" />
    <glyph glyph-name="dotlessi" unicode="&#x131;" horiz-adv-x="333" 
d="M8 0l197 1110h51l-197 -1110h-51z" />
    <glyph glyph-name="Lslash" unicode="&#x141;" horiz-adv-x="884" 
d="M-6 694l8 47l160 76l125 701h51l-121 -674l320 149l-11 -47l-317 -151l-131 -746h631l-9 -49h-682l136 770z" />
    <glyph glyph-name="lslash" unicode="&#x142;" horiz-adv-x="548" 
d="M72 920l8 49l199 102l90 504h51l-84 -473l221 115l-8 -50l-223 -114l-152 -863q-9 -49 -8 -80t31.5 -46t101.5 -15l-8 -49h-2q-57 0 -93.5 10.5t-54.5 25.5t-23.5 44.5t-3 55t10.5 69.5l145 817z" />
    <glyph glyph-name="OE" unicode="&#x152;" horiz-adv-x="1824" 
d="M477 -14q-123 0 -209.5 33t-134.5 96.5t-69 143t-21 183.5q0 145 39 357q18 100 36 177t44.5 156t59 136.5t77.5 109.5t100.5 84.5t128 51t160.5 18.5q209 0 307.5 -94t118.5 -267l62 347h684l-11 -50h-637l-112 -649h596l-10 -49h-596l-127 -721h643l-9 -49h-690l47 270
q-68 -140 -181.5 -212t-295.5 -72zM477 35q80 0 147 17t117.5 47t92 78t71 101.5t54.5 127.5t41.5 146.5t33.5 166.5v4l2 10q37 195 37 336q0 75 -11 135.5t-38 113.5t-70 88.5t-110.5 56t-155.5 20.5q-79 0 -145.5 -17.5t-117 -48t-91.5 -79.5t-71 -103.5t-54.5 -129.5
t-41.5 -147.5t-34 -166.5q-39 -212 -39 -349q0 -93 18.5 -164t60.5 -127.5t118.5 -86t185.5 -29.5z" />
    <glyph glyph-name="oe" unicode="&#x153;" horiz-adv-x="1576" 
d="M1081 -14q-174 0 -249.5 78.5t-83.5 226.5q-48 -148 -138.5 -226.5t-249.5 -78.5q-93 0 -158.5 27t-101.5 77.5t-51.5 112t-15.5 141.5q0 100 24 244q17 98 38 173t57 146.5t83 117.5t116.5 73.5t158.5 27.5q85 0 146.5 -22t97.5 -63t54 -92.5t23 -117.5
q52 146 139.5 220.5t227.5 74.5q168 0 234.5 -69t66.5 -197q0 -82 -41 -299h-643q-20 -120 -20 -229q0 -143 64 -220t222 -77q126 0 230 51l22 -45q-113 -55 -252 -55zM360 35q79 0 141 25.5t102.5 67t71.5 108t49 134t34 160.5q28 154 28 250q0 67 -13.5 118t-43.5 93
t-85.5 64t-133.5 22q-81 0 -144.5 -28t-104 -72t-72 -113t-48.5 -133t-32 -151q-25 -146 -25 -236q0 -69 13.5 -122.5t43.5 -97t85.5 -66.5t133.5 -23zM1198 1077q-70 0 -126 -23.5t-94.5 -62.5t-69 -101t-49.5 -127t-36 -153h592q33 177 33 250q0 104 -55.5 160.5
t-194.5 56.5z" />
    <glyph glyph-name="Scaron" unicode="&#x160;" horiz-adv-x="972" 
d="M373 -14q-72 0 -137.5 11.5t-118 32.5t-83.5 37t-67 39l29 41q173 -112 377 -112q173 0 277 93.5t104 274.5q0 50 -14.5 95t-36.5 78.5t-62 71.5t-74.5 64t-91.5 66q-60 42 -90 64.5t-72 60.5t-62 70t-35 76.5t-15 95.5q0 172 107.5 279.5t285.5 107.5q194 0 338 -80
l-25 -43q-129 74 -313 74q-161 0 -251.5 -93t-90.5 -245q0 -51 13 -90t48 -79t75.5 -72.5t115.5 -86.5q55 -39 85 -62t71 -57.5t62.5 -62.5t43 -65t30.5 -78t9 -89q0 -103 -34 -184t-93 -131t-136.5 -76t-168.5 -26zM610 1614l-182 283h53l164 -242l250 242h55l-285 -283
h-55z" />
    <glyph glyph-name="scaron" unicode="&#x161;" horiz-adv-x="684" 
d="M233 -14q-109 0 -176.5 22t-124.5 60l29 41q51 -34 112 -54t160 -20q108 0 181 64t73 200q0 78 -42.5 132t-139.5 126q-49 37 -70.5 54.5t-55.5 49t-48 54.5t-25.5 55.5t-11.5 67.5q0 136 78.5 212t208.5 76q156 0 252 -61l-27 -41q-84 53 -225 53q-109 0 -172.5 -62.5
t-63.5 -176.5q0 -34 13.5 -65.5t45.5 -64t57 -53.5t75 -59q106 -79 154.5 -142.5t48.5 -154.5q0 -83 -26 -145.5t-71 -98t-97.5 -52.5t-111.5 -17zM399 1235l-182 283h53l164 -242l250 242h55l-285 -283h-55z" />
    <glyph glyph-name="Ydieresis" unicode="&#x178;" horiz-adv-x="1007" 
d="M346 0l103 596l-277 922h51l260 -873l570 873h51l-602 -920l-105 -598h-51zM471 1614l27 147h51l-26 -147h-52zM791 1614l27 147h51l-27 -147h-51z" />
    <glyph glyph-name="Zcaron" unicode="&#x17d;" horiz-adv-x="985" 
d="M-49 0l8 49l983 1419h-704l10 50h764l-8 -45l-990 -1424h756l-8 -49h-811zM616 1614l-182 283h53l164 -242l250 242h55l-285 -283h-55z" />
    <glyph glyph-name="zcaron" unicode="&#x17e;" horiz-adv-x="722" 
d="M-72 0l9 49l704 1012h-494l11 49h549l-9 -47l-706 -1014h543l-9 -49h-598zM418 1235l-182 283h53l164 -242l250 242h55l-285 -283h-55z" />
    <glyph glyph-name="florin" unicode="&#x192;" horiz-adv-x="770" 
d="M129 860l10 47h191l59 336q23 125 37 163q34 89 119 107q25 5 55 5h76l-10 -50h-66q-36 0 -62 -13t-40.5 -25.5t-26.5 -48.5t-15.5 -51.5t-11.5 -64.5q-3 -15 -4 -22l-59 -336h287l-11 -47h-284l-209 -1184h-51l209 1184h-193z" />
    <glyph glyph-name="circumflex" unicode="&#x2c6;" 
d="M285 1235l284 283h56l182 -283h-53l-164 242l-250 -242h-55z" />
    <glyph glyph-name="caron" unicode="&#x2c7;" 
d="M520 1235l-182 283h53l164 -242l250 242h55l-285 -283h-55z" />
    <glyph glyph-name="breve" unicode="&#x2d8;" 
d="M573 1229q-61 0 -106.5 13t-71 31.5t-42 48.5t-22 55t-9.5 59l51 6q4 -35 11.5 -59t27 -50.5t60 -40.5t101.5 -14q90 0 145 50t79 122l49 -14q-13 -40 -34.5 -74.5t-54 -65.5t-80 -49t-104.5 -18z" />
    <glyph glyph-name="dotaccent" unicode="&#x2d9;" 
d="M522 1235l31 170h51l-31 -170h-51z" />
    <glyph glyph-name="ring" unicode="&#x2da;" 
d="M561 1276q66 0 106 53.5t40 138.5q0 50 -25.5 80.5t-79.5 30.5q-67 0 -106 -54.5t-39 -142.5q0 -47 25 -76.5t79 -29.5zM561 1229q-80 0 -116.5 42t-36.5 111q0 109 51.5 176.5t142.5 67.5q80 0 117 -43t37 -115q0 -107 -52.5 -173t-142.5 -66z" />
    <glyph glyph-name="ogonek" unicode="&#x2db;" 
d="M297 -391q-182 0 -182 127q0 51 19.5 95t55.5 78.5t68 57t74 45.5h74q-240 -135 -240 -276q0 -78 131 -78h39l-10 -49h-29z" />
    <glyph glyph-name="tilde" unicode="&#x2dc;" 
d="M332 1235l-43 27q67 100 155 100q44 0 117.5 -39t104.5 -39q63 0 118 90l43 -26q-70 -113 -161 -113q-50 0 -118.5 39t-103.5 39q-59 0 -112 -78z" />
    <glyph glyph-name="hungarumlaut" unicode="&#x2dd;" 
d="M307 1235l293 283h64l-302 -283h-55zM629 1235l293 283h63l-301 -283h-55z" />
    <glyph glyph-name="Delta" unicode="&#x394;" horiz-adv-x="890" 
d="M106 1061l11 49h162l38 213q12 64 28.5 107t45.5 77.5t75.5 51t113.5 16.5h94l-10 -49h-84q-48 0 -83.5 -11.5t-56.5 -28.5t-36 -48.5t-22 -57.5t-15 -71l-35 -199h260l-10 -49h-260l-244 -1385h-51l243 1385h-164zM377 -324l8 50h10q75 0 104.5 30t43.5 115l219 1239h51
l-221 -1249q-18 -103 -57.5 -144t-137.5 -41h-20zM793 1288l30 170h51l-30 -170h-51z" />
    <glyph glyph-name="Delta" unicode="&#x2206;" horiz-adv-x="890" 
d="M106 1061l11 49h162l38 213q12 64 28.5 107t45.5 77.5t75.5 51t113.5 16.5h94l-10 -49h-84q-48 0 -83.5 -11.5t-56.5 -28.5t-36 -48.5t-22 -57.5t-15 -71l-35 -199h260l-10 -49h-260l-244 -1385h-51l243 1385h-164zM377 -324l8 50h10q75 0 104.5 30t43.5 115l219 1239h51
l-221 -1249q-18 -103 -57.5 -144t-137.5 -41h-20zM793 1288l30 170h51l-30 -170h-51z" />
    <glyph glyph-name="Omega" unicode="&#x3a9;" horiz-adv-x="1703" 
d="M258 246q-88 105 -136 237t-48 277q0 144 48 276t136 236q6 -4 14 -12q-85 -103 -131.5 -231.5t-46.5 -268.5q0 -285 180 -500zM467 432q-117 143 -117 328q0 183 115 327q3 -2 8 -7t8 -7q-110 -136 -110 -313q0 -182 110 -314zM541 498q-92 116 -92 262t92 262
q3 -2 8 -7t8 -7q-88 -109 -88 -248t88 -248q-3 -2 -8 -7t-8 -7zM647 592q-57 72 -57 168q0 97 57 166l15 -15q-52 -69 -52 -151q0 -84 54 -154q-3 -2 -8.5 -7t-8.5 -7zM715 655q-33 48 -33 105q0 56 33 104q3 -2 8 -7t8 -7q-29 -44 -29 -90t29 -90q-3 -2 -16 -15zM774 709
q-14 25 -14 51t14 51l12 -10q-10 -20 -10 -41t10 -41q-4 -4 -12 -10zM852 123q-236 0 -412 158l2.5 2.5l5 5l5.5 5.5t2 1q171 -152 397 -152q227 0 395 152q2 -3 7.5 -8t7.5 -8q-177 -156 -410 -156zM852 664q-31 0 -55 18l12 12q21 -14 43 -14q26 0 43 14q4 -4 10 -12
q-21 -18 -53 -18zM987 653q-7 10 -14 15q28 42 28 92q0 51 -28 90l2.5 2.5t5 4.5t5.5 5t1 2q35 -44 35 -104t-35 -107zM598 551q-72 91 -72 209q0 119 74 209l14 -15q-67 -87 -67 -194q0 -108 67 -195q-10 -10 -16 -14zM852 -35q-145 0 -278 52.5t-238 146.5l14 16
q102 -92 231 -143t271 -51q285 0 500 192q0 1 3.5 -2.5t6.5 -7.5l4 -4q-104 -95 -236 -147t-278 -52zM852 248q-189 0 -330 125l15 16q134 -121 315 -121q182 0 313 121q2 -3 7.5 -8t7.5 -8q-138 -125 -328 -125zM852 348q-145 0 -264 101l14 14q108 -94 250 -94
q143 0 248 94q2 -3 7 -8.5t7 -8.5q-112 -98 -262 -98zM852 428q-116 0 -211 78l14 16q86 -73 197 -73t197 73q4 -4 12 -16q-91 -78 -209 -78zM852 543q-77 0 -135 49l14 16q51 -45 121 -45q68 0 119 45q2 -3 7 -8t7 -8q-58 -49 -133 -49zM733 911q-4 3 -7 6.5t-6 6.5l-3 4
q58 49 135 49t135 -49l-16 -17q-51 45 -119 45t-119 -45zM1167 1130q-134 121 -315 121q-179 0 -313 -118l-15 14q141 125 328 125q189 0 330 -125q-4 -6 -15 -17zM930 709l-12 10q10 20 10 41t-10 41l12 10q14 -25 14 -51t-14 -51zM958 682q-10 10 -16 14q21 32 21 64
t-21 63l16 15q25 -36 25 -78t-25 -78zM1020 627q-6 4 -16 14q38 50 38 119t-38 119l14 14q45 -57 45 -133q0 -71 -43 -133zM1106 551q-3 2 -8 7t-8 7q67 87 67 195t-70 194l17 15q74 -90 74 -209q0 -118 -72 -209zM1163 498q-10 10 -16 14q88 109 88 248t-88 248l16 14
q92 -116 92 -262t-92 -262zM1237 432q-6 4 -16 14q112 134 112 314q0 182 -112 313l16 14q117 -139 117 -327q0 -189 -117 -328zM1329 350q-2 2 -7 6t-7 6q141 175 141 398q0 227 -143 395l16 14q148 -179 148 -409q0 -231 -148 -410zM1446 246q-6 6 -16 14q180 215 180 500
t-180 500l16 14q88 -105 136 -237t48 -277q0 -144 -48 -276t-136 -238zM375 348q-148 182 -148 412q0 229 146 409q2 -2 7.5 -6.5t8.5 -7.5q-141 -170 -141 -395q0 -228 141 -398zM684 627q-43 59 -43 133t43 133q6 -4 16 -14q-38 -50 -38 -119q0 -67 38 -117zM745 682
q-24 34 -24 78t24 78q2 -3 4.5 -5.5t6 -5.5t4.5 -4q-19 -34 -19 -63q0 -30 19 -64zM809 825l-10 13q21 18 53 18t53 -18l-10 -13q-23 15 -43 15q-25 0 -43 -15zM786 852l-14 14q37 29 80 29q41 0 78 -29q-8 -8 -12 -14q-28 25 -66 25q-34 0 -66 -25zM760 881l-15 16
q45 39 107 39q61 0 106 -39l-14 -16q-37 34 -92 34t-92 -34zM604 1057l-14 16q112 98 262 98q151 0 262 -100q1 0 -2 -3.5t-6 -7.5l-4 -3q-108 94 -250 94q-143 0 -248 -94zM852 492q-100 0 -170 61l14 16q70 -57 156 -57q87 0 154 57l14 -14q-73 -63 -168 -63zM852 584
q-61 0 -109 39l15 16q47 -35 94 -35q51 0 92 35l14 -16q-45 -39 -106 -39zM852 625q-43 0 -82 28l14 15q36 -25 68 -25q34 0 66 25l14 -15q-36 -28 -80 -28zM698 950l-14 15q73 63 168 63q98 0 168 -61l-14 -17q-68 58 -154 58q-87 0 -154 -58zM655 997l-14 17q91 78 211 78
q119 0 209 -80l-12 -15q-83 74 -197 74q-110 0 -197 -74zM1249 1223q-166 153 -397 153q-227 0 -397 -151l-15 14q179 158 412 158t412 -158zM352 1339l-14 17q104 95 236 146.5t278 51.5q145 0 278 -52t238 -146l-14 -17q-102 93 -231 144t-271 51t-270 -51t-230 -144z
M1057 594l-15 14q52 69 52 152t-54 153l17 15q57 -72 57 -168q0 -97 -57 -166z" />
    <glyph glyph-name="Omega" unicode="&#x2126;" horiz-adv-x="1703" 
d="M258 246q-88 105 -136 237t-48 277q0 144 48 276t136 236q6 -4 14 -12q-85 -103 -131.5 -231.5t-46.5 -268.5q0 -285 180 -500zM467 432q-117 143 -117 328q0 183 115 327q3 -2 8 -7t8 -7q-110 -136 -110 -313q0 -182 110 -314zM541 498q-92 116 -92 262t92 262
q3 -2 8 -7t8 -7q-88 -109 -88 -248t88 -248q-3 -2 -8 -7t-8 -7zM647 592q-57 72 -57 168q0 97 57 166l15 -15q-52 -69 -52 -151q0 -84 54 -154q-3 -2 -8.5 -7t-8.5 -7zM715 655q-33 48 -33 105q0 56 33 104q3 -2 8 -7t8 -7q-29 -44 -29 -90t29 -90q-3 -2 -16 -15zM774 709
q-14 25 -14 51t14 51l12 -10q-10 -20 -10 -41t10 -41q-4 -4 -12 -10zM852 123q-236 0 -412 158l2.5 2.5l5 5l5.5 5.5t2 1q171 -152 397 -152q227 0 395 152q2 -3 7.5 -8t7.5 -8q-177 -156 -410 -156zM852 664q-31 0 -55 18l12 12q21 -14 43 -14q26 0 43 14q4 -4 10 -12
q-21 -18 -53 -18zM987 653q-7 10 -14 15q28 42 28 92q0 51 -28 90l2.5 2.5t5 4.5t5.5 5t1 2q35 -44 35 -104t-35 -107zM598 551q-72 91 -72 209q0 119 74 209l14 -15q-67 -87 -67 -194q0 -108 67 -195q-10 -10 -16 -14zM852 -35q-145 0 -278 52.5t-238 146.5l14 16
q102 -92 231 -143t271 -51q285 0 500 192q0 1 3.5 -2.5t6.5 -7.5l4 -4q-104 -95 -236 -147t-278 -52zM852 248q-189 0 -330 125l15 16q134 -121 315 -121q182 0 313 121q2 -3 7.5 -8t7.5 -8q-138 -125 -328 -125zM852 348q-145 0 -264 101l14 14q108 -94 250 -94
q143 0 248 94q2 -3 7 -8.5t7 -8.5q-112 -98 -262 -98zM852 428q-116 0 -211 78l14 16q86 -73 197 -73t197 73q4 -4 12 -16q-91 -78 -209 -78zM852 543q-77 0 -135 49l14 16q51 -45 121 -45q68 0 119 45q2 -3 7 -8t7 -8q-58 -49 -133 -49zM733 911q-4 3 -7 6.5t-6 6.5l-3 4
q58 49 135 49t135 -49l-16 -17q-51 45 -119 45t-119 -45zM1167 1130q-134 121 -315 121q-179 0 -313 -118l-15 14q141 125 328 125q189 0 330 -125q-4 -6 -15 -17zM930 709l-12 10q10 20 10 41t-10 41l12 10q14 -25 14 -51t-14 -51zM958 682q-10 10 -16 14q21 32 21 64
t-21 63l16 15q25 -36 25 -78t-25 -78zM1020 627q-6 4 -16 14q38 50 38 119t-38 119l14 14q45 -57 45 -133q0 -71 -43 -133zM1106 551q-3 2 -8 7t-8 7q67 87 67 195t-70 194l17 15q74 -90 74 -209q0 -118 -72 -209zM1163 498q-10 10 -16 14q88 109 88 248t-88 248l16 14
q92 -116 92 -262t-92 -262zM1237 432q-6 4 -16 14q112 134 112 314q0 182 -112 313l16 14q117 -139 117 -327q0 -189 -117 -328zM1329 350q-2 2 -7 6t-7 6q141 175 141 398q0 227 -143 395l16 14q148 -179 148 -409q0 -231 -148 -410zM1446 246q-6 6 -16 14q180 215 180 500
t-180 500l16 14q88 -105 136 -237t48 -277q0 -144 -48 -276t-136 -238zM375 348q-148 182 -148 412q0 229 146 409q2 -2 7.5 -6.5t8.5 -7.5q-141 -170 -141 -395q0 -228 141 -398zM684 627q-43 59 -43 133t43 133q6 -4 16 -14q-38 -50 -38 -119q0 -67 38 -117zM745 682
q-24 34 -24 78t24 78q2 -3 4.5 -5.5t6 -5.5t4.5 -4q-19 -34 -19 -63q0 -30 19 -64zM809 825l-10 13q21 18 53 18t53 -18l-10 -13q-23 15 -43 15q-25 0 -43 -15zM786 852l-14 14q37 29 80 29q41 0 78 -29q-8 -8 -12 -14q-28 25 -66 25q-34 0 -66 -25zM760 881l-15 16
q45 39 107 39q61 0 106 -39l-14 -16q-37 34 -92 34t-92 -34zM604 1057l-14 16q112 98 262 98q151 0 262 -100q1 0 -2 -3.5t-6 -7.5l-4 -3q-108 94 -250 94q-143 0 -248 -94zM852 492q-100 0 -170 61l14 16q70 -57 156 -57q87 0 154 57l14 -14q-73 -63 -168 -63zM852 584
q-61 0 -109 39l15 16q47 -35 94 -35q51 0 92 35l14 -16q-45 -39 -106 -39zM852 625q-43 0 -82 28l14 15q36 -25 68 -25q34 0 66 25l14 -15q-36 -28 -80 -28zM698 950l-14 15q73 63 168 63q98 0 168 -61l-14 -17q-68 58 -154 58q-87 0 -154 -58zM655 997l-14 17q91 78 211 78
q119 0 209 -80l-12 -15q-83 74 -197 74q-110 0 -197 -74zM1249 1223q-166 153 -397 153q-227 0 -397 -151l-15 14q179 158 412 158t412 -158zM352 1339l-14 17q104 95 236 146.5t278 51.5q145 0 278 -52t238 -146l-14 -17q-102 93 -231 144t-271 51t-270 -51t-230 -144z
M1057 594l-15 14q52 69 52 152t-54 153l17 15q57 -72 57 -168q0 -97 -57 -166z" />
    <glyph glyph-name="pi" unicode="&#x3c0;" horiz-adv-x="1363" 
d="M684 -23q-131 0 -230.5 36.5t-164.5 101.5t-105.5 164.5t-57.5 215t-17 263.5q0 149 17 265.5t57.5 216t105.5 164.5t164 101.5t231 36.5t231.5 -36.5t165.5 -101.5t107 -164.5t58.5 -216.5t17.5 -265q0 -147 -17.5 -263.5t-58.5 -215.5t-107 -164t-166 -101.5
t-231 -36.5zM684 25q150 0 255 51t164.5 150.5t85 228.5t25.5 303q0 140 -15.5 249.5t-53 203t-97.5 155t-151.5 95.5t-212.5 34q-120 0 -211 -34t-150.5 -95.5t-96.5 -155t-52.5 -203t-15.5 -249.5q0 -139 15.5 -247.5t52.5 -201.5t96.5 -154.5t150.5 -95.5t211 -34z
M434 209v1087h311q152 0 219.5 -68t67.5 -235q0 -166 -67.5 -234.5t-219.5 -68.5h-262v-481h-49zM483 737h262q128 0 183 57t55 199q0 144 -55 201t-183 57h-262v-514z" />
    <glyph glyph-name="endash" unicode="&#x2013;" horiz-adv-x="1028" 
d="M66 578l8 47h839l-8 -47h-839z" />
    <glyph glyph-name="emdash" unicode="&#x2014;" horiz-adv-x="1380" 
d="M66 578l8 47h1190l-9 -47h-1189z" />
    <glyph glyph-name="quoteleft" unicode="&#x2018;" horiz-adv-x="333" 
d="M205 1219l24 141q12 65 38.5 102.5t74.5 61.5l14 -35q-39 -22 -58 -50.5t-28 -78.5h47l-24 -141h-88z" />
    <glyph glyph-name="quoteright" unicode="&#x2019;" horiz-adv-x="333" 
d="M207 1212l-14 35q40 22 59.5 50.5t26.5 78.5h-48l27 142h88l-27 -142q-10 -65 -36.5 -102.5t-75.5 -61.5z" />
    <glyph glyph-name="quotesinglbase" unicode="&#x201a;" horiz-adv-x="333" 
d="M-35 -164l-14 35q39 22 58 50.5t28 78.5h-47l24 141h88l-24 -141q-12 -66 -38 -103t-75 -61z" />
    <glyph glyph-name="quotedblleft" unicode="&#x201c;" horiz-adv-x="567" 
d="M205 1219l24 141q12 65 38.5 102.5t74.5 61.5l14 -35q-39 -22 -58 -50.5t-28 -78.5h47l-24 -141h-88zM436 1219l25 141q12 65 38.5 102.5t73.5 61.5l15 -35q-39 -22 -58 -50.5t-28 -78.5h47l-25 -141h-88z" />
    <glyph glyph-name="quotedblright" unicode="&#x201d;" horiz-adv-x="565" 
d="M207 1212l-14 35q40 22 59.5 50.5t26.5 78.5h-48l27 142h88l-27 -142q-10 -65 -36.5 -102.5t-75.5 -61.5zM438 1212l-14 35q40 22 59.5 50.5t26.5 78.5h-47l26 142h89l-27 -142q-10 -65 -37 -102.5t-76 -61.5z" />
    <glyph glyph-name="quotedblbase" unicode="&#x201e;" horiz-adv-x="565" 
d="M90 -164l-20 35q35 22 49 50t14 79h-47v141h88v-141q0 -66 -20 -103t-64 -61zM322 -164l-21 35q36 22 50 50t14 79h-48v141h89v-141q0 -66 -20 -103t-64 -61z" />
    <glyph glyph-name="dagger" unicode="&#x2020;" horiz-adv-x="804" 
d="M186 -324l244 1385h-274l10 49h274l82 465h51l-81 -465h274l-10 -49h-275l-243 -1385h-52z" />
    <glyph glyph-name="daggerdbl" unicode="&#x2021;" horiz-adv-x="804" 
d="M186 -326l90 510h-274l8 47h275l147 838h-274l8 47h274l82 459h51l-81 -459h274l-8 -47h-275l-147 -838h274l-8 -47h-274l-90 -510h-52z" />
    <glyph glyph-name="bullet" unicode="&#x2022;" horiz-adv-x="505" 
d="M127 510l39 225h166l-39 -225h-166z" />
    <glyph glyph-name="ellipsis" unicode="&#x2026;" horiz-adv-x="942" 
d="M-10 0l22 129h88l-22 -129h-88zM295 0l22 129h86l-22 -129h-86zM598 0l23 129h86l-23 -129h-86z" />
    <glyph glyph-name="perthousand" unicode="&#x2030;" horiz-adv-x="2191" 
d="M330 610q-109 0 -162 65t-53 202q0 85 22 217q30 168 75.5 266t104 136t144.5 38q113 0 167 -63.5t54 -200.5q0 -89 -25 -223q-29 -168 -74 -264.5t-104.5 -134.5t-148.5 -38zM330 659q111 0 173.5 86t102.5 310q25 134 25 215q0 112 -41.5 163.5t-128.5 51.5
q-108 0 -170 -90.5t-103 -309.5q-22 -129 -22 -208q0 -112 40 -165t124 -53zM1079 -14q-109 0 -162 64.5t-53 201.5q0 79 23 217q30 168 75.5 266t103.5 136t144 38q113 0 167.5 -63.5t54.5 -200.5q0 -89 -25 -223q-29 -168 -74.5 -264.5t-105 -134t-148.5 -37.5zM1079 35
q111 0 174 85.5t103 309.5q24 129 24 215q0 112 -41.5 163.5t-128.5 51.5q-108 0 -169.5 -90t-102.5 -309q-23 -135 -23 -209q0 -112 40 -164.5t124 -52.5zM1726 -14q-109 0 -162 64.5t-53 201.5q0 79 23 217q30 168 75.5 266t104 136t144.5 38q113 0 167 -63.5t54 -200.5
q0 -89 -25 -223q-29 -168 -74.5 -264.5t-105 -134t-148.5 -37.5zM1726 35q111 0 174 85.5t103 309.5q25 134 25 215q0 112 -41.5 163.5t-128.5 51.5q-109 0 -170.5 -90t-102.5 -309q-22 -129 -22 -209q0 -112 39.5 -164.5t123.5 -52.5zM299 0l897 1518h51l-897 -1518h-51z
" />
    <glyph glyph-name="guilsinglleft" unicode="&#x2039;" horiz-adv-x="618" 
d="M254 0l-139 555l336 555h49l-334 -555l137 -555h-49z" />
    <glyph glyph-name="guilsinglright" unicode="&#x203a;" horiz-adv-x="618" 
d="M47 0l336 555l-139 555h51l137 -555l-334 -555h-51z" />
    <glyph glyph-name="fraction" unicode="&#x2044;" horiz-adv-x="708" 
d="M-121 0l897 1518h53l-897 -1518h-53z" />
    <glyph glyph-name="fraction" unicode="&#x2215;" horiz-adv-x="708" 
d="M-121 0l897 1518h53l-897 -1518h-53z" />
    <glyph glyph-name="Euro" unicode="&#x20ac;" horiz-adv-x="993" 
d="M94 893l8 47h166q33 159 70 265t91 182t127 110.5t173 34.5q183 0 305 -82l-28 -41q-110 74 -277 74q-172 0 -260.5 -125.5t-149.5 -417.5h496l-8 -47h-498q-6 -35 -18 -109q-22 -117 -23 -125h498l-8 -47h-496q-18 -135 -18 -239q0 -171 65.5 -254.5t218.5 -83.5
q114 0 236 61l22 -43q-131 -67 -258 -67q-181 0 -258 96t-77 291q0 107 18 239h-166l8 47h164q4 25 13 76t10 58q3 17 18 100h-164z" />
    <glyph glyph-name="trademark" unicode="&#x2122;" horiz-adv-x="1632" 
d="M705 596l163 922h47l129 -836l422 836h52l-164 -922h-47l139 788l-399 -788h-37l-121 788l-139 -788h-45zM328 596l155 877h-264l8 45h580l-8 -45h-267l-155 -877h-49z" />
    <glyph glyph-name="partialdiff" unicode="&#x2202;" horiz-adv-x="1703" 
d="M258 246q-88 105 -136 237t-48 277q0 144 48 276t136 236q6 -4 14 -12q-85 -103 -131.5 -231.5t-46.5 -268.5q0 -285 180 -500zM467 432q-117 143 -117 328q0 183 115 327q3 -2 8 -7t8 -7q-110 -136 -110 -313q0 -182 110 -314zM541 498q-92 116 -92 262t92 262
q3 -2 8 -7t8 -7q-88 -109 -88 -248t88 -248q-3 -2 -8 -7t-8 -7zM647 592q-57 72 -57 168q0 97 57 166l15 -15q-52 -69 -52 -151q0 -84 54 -154q-3 -2 -8.5 -7t-8.5 -7zM715 655q-33 48 -33 105q0 56 33 104q3 -2 8 -7t8 -7q-29 -44 -29 -90t29 -90q-3 -2 -16 -15zM774 709
q-14 25 -14 51t14 51l12 -10q-10 -20 -10 -41t10 -41q-4 -4 -12 -10zM852 123q-236 0 -412 158l2.5 2.5l5 5l5.5 5.5t2 1q171 -152 397 -152q227 0 395 152q2 -3 7.5 -8t7.5 -8q-177 -156 -410 -156zM852 664q-31 0 -55 18l12 12q21 -14 43 -14q26 0 43 14q4 -4 10 -12
q-21 -18 -53 -18zM987 653q-7 10 -14 15q28 42 28 92q0 51 -28 90l2.5 2.5t5 4.5t5.5 5t1 2q35 -44 35 -104t-35 -107zM598 551q-72 91 -72 209q0 119 74 209l14 -15q-67 -87 -67 -194q0 -108 67 -195q-10 -10 -16 -14zM852 -35q-145 0 -278 52.5t-238 146.5l14 16
q102 -92 231 -143t271 -51q285 0 500 192q0 1 3.5 -2.5t6.5 -7.5l4 -4q-104 -95 -236 -147t-278 -52zM852 248q-189 0 -330 125l15 16q134 -121 315 -121q182 0 313 121q2 -3 7.5 -8t7.5 -8q-138 -125 -328 -125zM852 348q-145 0 -264 101l14 14q108 -94 250 -94
q143 0 248 94q2 -3 7 -8.5t7 -8.5q-112 -98 -262 -98zM852 428q-116 0 -211 78l14 16q86 -73 197 -73t197 73q4 -4 12 -16q-91 -78 -209 -78zM852 543q-77 0 -135 49l14 16q51 -45 121 -45q68 0 119 45q2 -3 7 -8t7 -8q-58 -49 -133 -49zM733 911q-4 3 -7 6.5t-6 6.5l-3 4
q58 49 135 49t135 -49l-16 -17q-51 45 -119 45t-119 -45zM1167 1130q-134 121 -315 121q-179 0 -313 -118l-15 14q141 125 328 125q189 0 330 -125q-4 -6 -15 -17zM930 709l-12 10q10 20 10 41t-10 41l12 10q14 -25 14 -51t-14 -51zM958 682q-10 10 -16 14q21 32 21 64
t-21 63l16 15q25 -36 25 -78t-25 -78zM1020 627q-6 4 -16 14q38 50 38 119t-38 119l14 14q45 -57 45 -133q0 -71 -43 -133zM1106 551q-3 2 -8 7t-8 7q67 87 67 195t-70 194l17 15q74 -90 74 -209q0 -118 -72 -209zM1163 498q-10 10 -16 14q88 109 88 248t-88 248l16 14
q92 -116 92 -262t-92 -262zM1237 432q-6 4 -16 14q112 134 112 314q0 182 -112 313l16 14q117 -139 117 -327q0 -189 -117 -328zM1329 350q-2 2 -7 6t-7 6q141 175 141 398q0 227 -143 395l16 14q148 -179 148 -409q0 -231 -148 -410zM1446 246q-6 6 -16 14q180 215 180 500
t-180 500l16 14q88 -105 136 -237t48 -277q0 -144 -48 -276t-136 -238zM375 348q-148 182 -148 412q0 229 146 409q2 -2 7.5 -6.5t8.5 -7.5q-141 -170 -141 -395q0 -228 141 -398zM684 627q-43 59 -43 133t43 133q6 -4 16 -14q-38 -50 -38 -119q0 -67 38 -117zM745 682
q-24 34 -24 78t24 78q2 -3 4.5 -5.5t6 -5.5t4.5 -4q-19 -34 -19 -63q0 -30 19 -64zM809 825l-10 13q21 18 53 18t53 -18l-10 -13q-23 15 -43 15q-25 0 -43 -15zM786 852l-14 14q37 29 80 29q41 0 78 -29q-8 -8 -12 -14q-28 25 -66 25q-34 0 -66 -25zM760 881l-15 16
q45 39 107 39q61 0 106 -39l-14 -16q-37 34 -92 34t-92 -34zM604 1057l-14 16q112 98 262 98q151 0 262 -100q1 0 -2 -3.5t-6 -7.5l-4 -3q-108 94 -250 94q-143 0 -248 -94zM852 492q-100 0 -170 61l14 16q70 -57 156 -57q87 0 154 57l14 -14q-73 -63 -168 -63zM852 584
q-61 0 -109 39l15 16q47 -35 94 -35q51 0 92 35l14 -16q-45 -39 -106 -39zM852 625q-43 0 -82 28l14 15q36 -25 68 -25q34 0 66 25l14 -15q-36 -28 -80 -28zM698 950l-14 15q73 63 168 63q98 0 168 -61l-14 -17q-68 58 -154 58q-87 0 -154 -58zM655 997l-14 17q91 78 211 78
q119 0 209 -80l-12 -15q-83 74 -197 74q-110 0 -197 -74zM1249 1223q-166 153 -397 153q-227 0 -397 -151l-15 14q179 158 412 158t412 -158zM352 1339l-14 17q104 95 236 146.5t278 51.5q145 0 278 -52t238 -146l-14 -17q-102 93 -231 144t-271 51t-270 -51t-230 -144z
M1057 594l-15 14q52 69 52 152t-54 153l17 15q57 -72 57 -168q0 -97 -57 -166z" />
    <glyph glyph-name="product" unicode="&#x220f;" horiz-adv-x="1703" 
d="M258 246q-88 105 -136 237t-48 277q0 144 48 276t136 236q6 -4 14 -12q-85 -103 -131.5 -231.5t-46.5 -268.5q0 -285 180 -500zM467 432q-117 143 -117 328q0 183 115 327q3 -2 8 -7t8 -7q-110 -136 -110 -313q0 -182 110 -314zM541 498q-92 116 -92 262t92 262
q3 -2 8 -7t8 -7q-88 -109 -88 -248t88 -248q-3 -2 -8 -7t-8 -7zM647 592q-57 72 -57 168q0 97 57 166l15 -15q-52 -69 -52 -151q0 -84 54 -154q-3 -2 -8.5 -7t-8.5 -7zM715 655q-33 48 -33 105q0 56 33 104q3 -2 8 -7t8 -7q-29 -44 -29 -90t29 -90q-3 -2 -16 -15zM774 709
q-14 25 -14 51t14 51l12 -10q-10 -20 -10 -41t10 -41q-4 -4 -12 -10zM852 123q-236 0 -412 158l2.5 2.5l5 5l5.5 5.5t2 1q171 -152 397 -152q227 0 395 152q2 -3 7.5 -8t7.5 -8q-177 -156 -410 -156zM852 664q-31 0 -55 18l12 12q21 -14 43 -14q26 0 43 14q4 -4 10 -12
q-21 -18 -53 -18zM987 653q-7 10 -14 15q28 42 28 92q0 51 -28 90l2.5 2.5t5 4.5t5.5 5t1 2q35 -44 35 -104t-35 -107zM598 551q-72 91 -72 209q0 119 74 209l14 -15q-67 -87 -67 -194q0 -108 67 -195q-10 -10 -16 -14zM852 -35q-145 0 -278 52.5t-238 146.5l14 16
q102 -92 231 -143t271 -51q285 0 500 192q0 1 3.5 -2.5t6.5 -7.5l4 -4q-104 -95 -236 -147t-278 -52zM852 248q-189 0 -330 125l15 16q134 -121 315 -121q182 0 313 121q2 -3 7.5 -8t7.5 -8q-138 -125 -328 -125zM852 348q-145 0 -264 101l14 14q108 -94 250 -94
q143 0 248 94q2 -3 7 -8.5t7 -8.5q-112 -98 -262 -98zM852 428q-116 0 -211 78l14 16q86 -73 197 -73t197 73q4 -4 12 -16q-91 -78 -209 -78zM852 543q-77 0 -135 49l14 16q51 -45 121 -45q68 0 119 45q2 -3 7 -8t7 -8q-58 -49 -133 -49zM733 911q-4 3 -7 6.5t-6 6.5l-3 4
q58 49 135 49t135 -49l-16 -17q-51 45 -119 45t-119 -45zM1167 1130q-134 121 -315 121q-179 0 -313 -118l-15 14q141 125 328 125q189 0 330 -125q-4 -6 -15 -17zM930 709l-12 10q10 20 10 41t-10 41l12 10q14 -25 14 -51t-14 -51zM958 682q-10 10 -16 14q21 32 21 64
t-21 63l16 15q25 -36 25 -78t-25 -78zM1020 627q-6 4 -16 14q38 50 38 119t-38 119l14 14q45 -57 45 -133q0 -71 -43 -133zM1106 551q-3 2 -8 7t-8 7q67 87 67 195t-70 194l17 15q74 -90 74 -209q0 -118 -72 -209zM1163 498q-10 10 -16 14q88 109 88 248t-88 248l16 14
q92 -116 92 -262t-92 -262zM1237 432q-6 4 -16 14q112 134 112 314q0 182 -112 313l16 14q117 -139 117 -327q0 -189 -117 -328zM1329 350q-2 2 -7 6t-7 6q141 175 141 398q0 227 -143 395l16 14q148 -179 148 -409q0 -231 -148 -410zM1446 246q-6 6 -16 14q180 215 180 500
t-180 500l16 14q88 -105 136 -237t48 -277q0 -144 -48 -276t-136 -238zM375 348q-148 182 -148 412q0 229 146 409q2 -2 7.5 -6.5t8.5 -7.5q-141 -170 -141 -395q0 -228 141 -398zM684 627q-43 59 -43 133t43 133q6 -4 16 -14q-38 -50 -38 -119q0 -67 38 -117zM745 682
q-24 34 -24 78t24 78q2 -3 4.5 -5.5t6 -5.5t4.5 -4q-19 -34 -19 -63q0 -30 19 -64zM809 825l-10 13q21 18 53 18t53 -18l-10 -13q-23 15 -43 15q-25 0 -43 -15zM786 852l-14 14q37 29 80 29q41 0 78 -29q-8 -8 -12 -14q-28 25 -66 25q-34 0 -66 -25zM760 881l-15 16
q45 39 107 39q61 0 106 -39l-14 -16q-37 34 -92 34t-92 -34zM604 1057l-14 16q112 98 262 98q151 0 262 -100q1 0 -2 -3.5t-6 -7.5l-4 -3q-108 94 -250 94q-143 0 -248 -94zM852 492q-100 0 -170 61l14 16q70 -57 156 -57q87 0 154 57l14 -14q-73 -63 -168 -63zM852 584
q-61 0 -109 39l15 16q47 -35 94 -35q51 0 92 35l14 -16q-45 -39 -106 -39zM852 625q-43 0 -82 28l14 15q36 -25 68 -25q34 0 66 25l14 -15q-36 -28 -80 -28zM698 950l-14 15q73 63 168 63q98 0 168 -61l-14 -17q-68 58 -154 58q-87 0 -154 -58zM655 997l-14 17q91 78 211 78
q119 0 209 -80l-12 -15q-83 74 -197 74q-110 0 -197 -74zM1249 1223q-166 153 -397 153q-227 0 -397 -151l-15 14q179 158 412 158t412 -158zM352 1339l-14 17q104 95 236 146.5t278 51.5q145 0 278 -52t238 -146l-14 -17q-102 93 -231 144t-271 51t-270 -51t-230 -144z
M1057 594l-15 14q52 69 52 152t-54 153l17 15q57 -72 57 -168q0 -97 -57 -166z" />
    <glyph glyph-name="summation" unicode="&#x2211;" horiz-adv-x="1703" 
d="M258 246q-88 105 -136 237t-48 277q0 144 48 276t136 236q6 -4 14 -12q-85 -103 -131.5 -231.5t-46.5 -268.5q0 -285 180 -500zM467 432q-117 143 -117 328q0 183 115 327q3 -2 8 -7t8 -7q-110 -136 -110 -313q0 -182 110 -314zM541 498q-92 116 -92 262t92 262
q3 -2 8 -7t8 -7q-88 -109 -88 -248t88 -248q-3 -2 -8 -7t-8 -7zM647 592q-57 72 -57 168q0 97 57 166l15 -15q-52 -69 -52 -151q0 -84 54 -154q-3 -2 -8.5 -7t-8.5 -7zM715 655q-33 48 -33 105q0 56 33 104q3 -2 8 -7t8 -7q-29 -44 -29 -90t29 -90q-3 -2 -16 -15zM774 709
q-14 25 -14 51t14 51l12 -10q-10 -20 -10 -41t10 -41q-4 -4 -12 -10zM852 123q-236 0 -412 158l2.5 2.5l5 5l5.5 5.5t2 1q171 -152 397 -152q227 0 395 152q2 -3 7.5 -8t7.5 -8q-177 -156 -410 -156zM852 664q-31 0 -55 18l12 12q21 -14 43 -14q26 0 43 14q4 -4 10 -12
q-21 -18 -53 -18zM987 653q-7 10 -14 15q28 42 28 92q0 51 -28 90l2.5 2.5t5 4.5t5.5 5t1 2q35 -44 35 -104t-35 -107zM598 551q-72 91 -72 209q0 119 74 209l14 -15q-67 -87 -67 -194q0 -108 67 -195q-10 -10 -16 -14zM852 -35q-145 0 -278 52.5t-238 146.5l14 16
q102 -92 231 -143t271 -51q285 0 500 192q0 1 3.5 -2.5t6.5 -7.5l4 -4q-104 -95 -236 -147t-278 -52zM852 248q-189 0 -330 125l15 16q134 -121 315 -121q182 0 313 121q2 -3 7.5 -8t7.5 -8q-138 -125 -328 -125zM852 348q-145 0 -264 101l14 14q108 -94 250 -94
q143 0 248 94q2 -3 7 -8.5t7 -8.5q-112 -98 -262 -98zM852 428q-116 0 -211 78l14 16q86 -73 197 -73t197 73q4 -4 12 -16q-91 -78 -209 -78zM852 543q-77 0 -135 49l14 16q51 -45 121 -45q68 0 119 45q2 -3 7 -8t7 -8q-58 -49 -133 -49zM733 911q-4 3 -7 6.5t-6 6.5l-3 4
q58 49 135 49t135 -49l-16 -17q-51 45 -119 45t-119 -45zM1167 1130q-134 121 -315 121q-179 0 -313 -118l-15 14q141 125 328 125q189 0 330 -125q-4 -6 -15 -17zM930 709l-12 10q10 20 10 41t-10 41l12 10q14 -25 14 -51t-14 -51zM958 682q-10 10 -16 14q21 32 21 64
t-21 63l16 15q25 -36 25 -78t-25 -78zM1020 627q-6 4 -16 14q38 50 38 119t-38 119l14 14q45 -57 45 -133q0 -71 -43 -133zM1106 551q-3 2 -8 7t-8 7q67 87 67 195t-70 194l17 15q74 -90 74 -209q0 -118 -72 -209zM1163 498q-10 10 -16 14q88 109 88 248t-88 248l16 14
q92 -116 92 -262t-92 -262zM1237 432q-6 4 -16 14q112 134 112 314q0 182 -112 313l16 14q117 -139 117 -327q0 -189 -117 -328zM1329 350q-2 2 -7 6t-7 6q141 175 141 398q0 227 -143 395l16 14q148 -179 148 -409q0 -231 -148 -410zM1446 246q-6 6 -16 14q180 215 180 500
t-180 500l16 14q88 -105 136 -237t48 -277q0 -144 -48 -276t-136 -238zM375 348q-148 182 -148 412q0 229 146 409q2 -2 7.5 -6.5t8.5 -7.5q-141 -170 -141 -395q0 -228 141 -398zM684 627q-43 59 -43 133t43 133q6 -4 16 -14q-38 -50 -38 -119q0 -67 38 -117zM745 682
q-24 34 -24 78t24 78q2 -3 4.5 -5.5t6 -5.5t4.5 -4q-19 -34 -19 -63q0 -30 19 -64zM809 825l-10 13q21 18 53 18t53 -18l-10 -13q-23 15 -43 15q-25 0 -43 -15zM786 852l-14 14q37 29 80 29q41 0 78 -29q-8 -8 -12 -14q-28 25 -66 25q-34 0 -66 -25zM760 881l-15 16
q45 39 107 39q61 0 106 -39l-14 -16q-37 34 -92 34t-92 -34zM604 1057l-14 16q112 98 262 98q151 0 262 -100q1 0 -2 -3.5t-6 -7.5l-4 -3q-108 94 -250 94q-143 0 -248 -94zM852 492q-100 0 -170 61l14 16q70 -57 156 -57q87 0 154 57l14 -14q-73 -63 -168 -63zM852 584
q-61 0 -109 39l15 16q47 -35 94 -35q51 0 92 35l14 -16q-45 -39 -106 -39zM852 625q-43 0 -82 28l14 15q36 -25 68 -25q34 0 66 25l14 -15q-36 -28 -80 -28zM698 950l-14 15q73 63 168 63q98 0 168 -61l-14 -17q-68 58 -154 58q-87 0 -154 -58zM655 997l-14 17q91 78 211 78
q119 0 209 -80l-12 -15q-83 74 -197 74q-110 0 -197 -74zM1249 1223q-166 153 -397 153q-227 0 -397 -151l-15 14q179 158 412 158t412 -158zM352 1339l-14 17q104 95 236 146.5t278 51.5q145 0 278 -52t238 -146l-14 -17q-102 93 -231 144t-271 51t-270 -51t-230 -144z
M1057 594l-15 14q52 69 52 152t-54 153l17 15q57 -72 57 -168q0 -97 -57 -166z" />
    <glyph glyph-name="minus" unicode="&#x2212;" horiz-adv-x="1056" 
d="M170 694l8 49h696l-8 -49h-696z" />
    <glyph glyph-name="radical" unicode="&#x221a;" horiz-adv-x="993" 
d="M233 -6l-96 794h49l88 -708l684 1438h50l-723 -1524h-52z" />
    <glyph glyph-name="infinity" unicode="&#x221e;" horiz-adv-x="1374" 
d="M510 -324l244 1385h-432l-244 -1385h-51l243 1385h-164l11 49h162l38 213q12 64 28.5 107t45.5 77.5t75.5 51t113.5 16.5h94l-10 -49h-84q-48 0 -83.5 -11.5t-56.5 -28.5t-36 -48.5t-22 -57.5t-15 -71l-35 -199h430l39 213q12 64 28 107t45 77.5t75.5 51t113.5 16.5h94
l-10 -49h-84q-48 0 -83.5 -11.5t-56.5 -28.5t-36 -48.5t-22 -57.5t-15 -71l-35 -199h260l-10 -49h-260l-244 -1385h-51zM1049 0l196 1110h51l-196 -1110h-51zM1276 1288l31 170h51l-31 -170h-51z" />
    <glyph glyph-name="integral" unicode="&#x222b;" horiz-adv-x="1703" 
d="M258 246q-88 105 -136 237t-48 277q0 144 48 276t136 236q6 -4 14 -12q-85 -103 -131.5 -231.5t-46.5 -268.5q0 -285 180 -500zM467 432q-117 143 -117 328q0 183 115 327q3 -2 8 -7t8 -7q-110 -136 -110 -313q0 -182 110 -314zM541 498q-92 116 -92 262t92 262
q3 -2 8 -7t8 -7q-88 -109 -88 -248t88 -248q-3 -2 -8 -7t-8 -7zM647 592q-57 72 -57 168q0 97 57 166l15 -15q-52 -69 -52 -151q0 -84 54 -154q-3 -2 -8.5 -7t-8.5 -7zM715 655q-33 48 -33 105q0 56 33 104q3 -2 8 -7t8 -7q-29 -44 -29 -90t29 -90q-3 -2 -16 -15zM774 709
q-14 25 -14 51t14 51l12 -10q-10 -20 -10 -41t10 -41q-4 -4 -12 -10zM852 123q-236 0 -412 158l2.5 2.5l5 5l5.5 5.5t2 1q171 -152 397 -152q227 0 395 152q2 -3 7.5 -8t7.5 -8q-177 -156 -410 -156zM852 664q-31 0 -55 18l12 12q21 -14 43 -14q26 0 43 14q4 -4 10 -12
q-21 -18 -53 -18zM987 653q-7 10 -14 15q28 42 28 92q0 51 -28 90l2.5 2.5t5 4.5t5.5 5t1 2q35 -44 35 -104t-35 -107zM598 551q-72 91 -72 209q0 119 74 209l14 -15q-67 -87 -67 -194q0 -108 67 -195q-10 -10 -16 -14zM852 -35q-145 0 -278 52.5t-238 146.5l14 16
q102 -92 231 -143t271 -51q285 0 500 192q0 1 3.5 -2.5t6.5 -7.5l4 -4q-104 -95 -236 -147t-278 -52zM852 248q-189 0 -330 125l15 16q134 -121 315 -121q182 0 313 121q2 -3 7.5 -8t7.5 -8q-138 -125 -328 -125zM852 348q-145 0 -264 101l14 14q108 -94 250 -94
q143 0 248 94q2 -3 7 -8.5t7 -8.5q-112 -98 -262 -98zM852 428q-116 0 -211 78l14 16q86 -73 197 -73t197 73q4 -4 12 -16q-91 -78 -209 -78zM852 543q-77 0 -135 49l14 16q51 -45 121 -45q68 0 119 45q2 -3 7 -8t7 -8q-58 -49 -133 -49zM733 911q-4 3 -7 6.5t-6 6.5l-3 4
q58 49 135 49t135 -49l-16 -17q-51 45 -119 45t-119 -45zM1167 1130q-134 121 -315 121q-179 0 -313 -118l-15 14q141 125 328 125q189 0 330 -125q-4 -6 -15 -17zM930 709l-12 10q10 20 10 41t-10 41l12 10q14 -25 14 -51t-14 -51zM958 682q-10 10 -16 14q21 32 21 64
t-21 63l16 15q25 -36 25 -78t-25 -78zM1020 627q-6 4 -16 14q38 50 38 119t-38 119l14 14q45 -57 45 -133q0 -71 -43 -133zM1106 551q-3 2 -8 7t-8 7q67 87 67 195t-70 194l17 15q74 -90 74 -209q0 -118 -72 -209zM1163 498q-10 10 -16 14q88 109 88 248t-88 248l16 14
q92 -116 92 -262t-92 -262zM1237 432q-6 4 -16 14q112 134 112 314q0 182 -112 313l16 14q117 -139 117 -327q0 -189 -117 -328zM1329 350q-2 2 -7 6t-7 6q141 175 141 398q0 227 -143 395l16 14q148 -179 148 -409q0 -231 -148 -410zM1446 246q-6 6 -16 14q180 215 180 500
t-180 500l16 14q88 -105 136 -237t48 -277q0 -144 -48 -276t-136 -238zM375 348q-148 182 -148 412q0 229 146 409q2 -2 7.5 -6.5t8.5 -7.5q-141 -170 -141 -395q0 -228 141 -398zM684 627q-43 59 -43 133t43 133q6 -4 16 -14q-38 -50 -38 -119q0 -67 38 -117zM745 682
q-24 34 -24 78t24 78q2 -3 4.5 -5.5t6 -5.5t4.5 -4q-19 -34 -19 -63q0 -30 19 -64zM809 825l-10 13q21 18 53 18t53 -18l-10 -13q-23 15 -43 15q-25 0 -43 -15zM786 852l-14 14q37 29 80 29q41 0 78 -29q-8 -8 -12 -14q-28 25 -66 25q-34 0 -66 -25zM760 881l-15 16
q45 39 107 39q61 0 106 -39l-14 -16q-37 34 -92 34t-92 -34zM604 1057l-14 16q112 98 262 98q151 0 262 -100q1 0 -2 -3.5t-6 -7.5l-4 -3q-108 94 -250 94q-143 0 -248 -94zM852 492q-100 0 -170 61l14 16q70 -57 156 -57q87 0 154 57l14 -14q-73 -63 -168 -63zM852 584
q-61 0 -109 39l15 16q47 -35 94 -35q51 0 92 35l14 -16q-45 -39 -106 -39zM852 625q-43 0 -82 28l14 15q36 -25 68 -25q34 0 66 25l14 -15q-36 -28 -80 -28zM698 950l-14 15q73 63 168 63q98 0 168 -61l-14 -17q-68 58 -154 58q-87 0 -154 -58zM655 997l-14 17q91 78 211 78
q119 0 209 -80l-12 -15q-83 74 -197 74q-110 0 -197 -74zM1249 1223q-166 153 -397 153q-227 0 -397 -151l-15 14q179 158 412 158t412 -158zM352 1339l-14 17q104 95 236 146.5t278 51.5q145 0 278 -52t238 -146l-14 -17q-102 93 -231 144t-271 51t-270 -51t-230 -144z
M1057 594l-15 14q52 69 52 152t-54 153l17 15q57 -72 57 -168q0 -97 -57 -166z" />
    <glyph glyph-name="approxequal" unicode="&#x2248;" horiz-adv-x="1058" 
d="M238 817l-43 27q67 100 176 100q52 0 178.5 -39t173.5 -39q39 0 77 25.5t62 64.5l43 -26q-31 -51 -78 -82t-104 -31q-60 0 -182.5 39t-169.5 39q-80 0 -133 -78zM180 483l-43 27q67 100 176 100q52 0 179 -39t174 -39q39 0 77 26t62 65l43 -27q-31 -51 -78 -82t-104 -31
q-60 0 -183 39t-170 39q-80 0 -133 -78z" />
    <glyph glyph-name="notequal" unicode="&#x2260;" horiz-adv-x="1040" 
d="M510 -324l244 1385h-432l-244 -1385h-51l243 1385h-164l11 49h162l38 213q12 64 28.5 107t45.5 77.5t75.5 51t113.5 16.5h94l-10 -49h-84q-48 0 -83.5 -11.5t-56.5 -28.5t-36 -48.5t-22 -57.5t-15 -71l-35 -199h430l39 213q12 64 28 107t45 77.5t75.5 51t113.5 16.5h94
l-10 -49h-84q-48 0 -83.5 -11.5t-56.5 -28.5t-36 -48.5t-22 -57.5t-15 -71l-35 -199h260l-10 -49h-260l-244 -1385h-51z" />
    <glyph glyph-name="lessequal" unicode="&#x2264;" horiz-adv-x="1056" 
d="M750 287l-605 397l9 49l743 397l-8 -55l-696 -368l565 -367zM33 47l8 49h674l-8 -49h-674z" />
    <glyph glyph-name="greaterequal" unicode="&#x2265;" horiz-adv-x="1056" 
d="M143 287l9 57l696 367l-565 368l8 51l604 -397l-8 -49zM100 47l9 49h673l-8 -49h-674z" />
    <glyph glyph-name="lozenge" unicode="&#x25ca;" horiz-adv-x="1107" 
d="M778 0q-89 0 -131.5 30t-46 85.5t9.5 134.5l142 811h-430l-244 -1385h-51l243 1385h-164l11 49h162l38 213q12 64 28.5 107t45.5 77.5t75.5 51t113.5 16.5h73l-10 -49h-63q-48 0 -83.5 -11.5t-56.5 -28.5t-36 -48.5t-22 -57.5t-15 -71l-35 -199h428l69 348l45 8l-63 -356
h274l-10 -49h-272l-144 -821q-19 -102 2.5 -146.5t116.5 -44.5h119l-8 -49h-111z" />
    <glyph glyph-name="apple" unicode="&#xf8ff;" horiz-adv-x="1703" 
d="M258 246q-88 105 -136 237t-48 277q0 144 48 276t136 236q6 -4 14 -12q-85 -103 -131.5 -231.5t-46.5 -268.5q0 -285 180 -500zM467 432q-117 143 -117 328q0 183 115 327q3 -2 8 -7t8 -7q-110 -136 -110 -313q0 -182 110 -314zM541 498q-92 116 -92 262t92 262
q3 -2 8 -7t8 -7q-88 -109 -88 -248t88 -248q-3 -2 -8 -7t-8 -7zM647 592q-57 72 -57 168q0 97 57 166l15 -15q-52 -69 -52 -151q0 -84 54 -154q-3 -2 -8.5 -7t-8.5 -7zM715 655q-33 48 -33 105q0 56 33 104q3 -2 8 -7t8 -7q-29 -44 -29 -90t29 -90q-3 -2 -16 -15zM774 709
q-14 25 -14 51t14 51l12 -10q-10 -20 -10 -41t10 -41q-4 -4 -12 -10zM852 123q-236 0 -412 158l2.5 2.5l5 5l5.5 5.5t2 1q171 -152 397 -152q227 0 395 152q2 -3 7.5 -8t7.5 -8q-177 -156 -410 -156zM852 664q-31 0 -55 18l12 12q21 -14 43 -14q26 0 43 14q4 -4 10 -12
q-21 -18 -53 -18zM987 653q-7 10 -14 15q28 42 28 92q0 51 -28 90l2.5 2.5t5 4.5t5.5 5t1 2q35 -44 35 -104t-35 -107zM598 551q-72 91 -72 209q0 119 74 209l14 -15q-67 -87 -67 -194q0 -108 67 -195q-10 -10 -16 -14zM852 -35q-145 0 -278 52.5t-238 146.5l14 16
q102 -92 231 -143t271 -51q285 0 500 192q0 1 3.5 -2.5t6.5 -7.5l4 -4q-104 -95 -236 -147t-278 -52zM852 248q-189 0 -330 125l15 16q134 -121 315 -121q182 0 313 121q2 -3 7.5 -8t7.5 -8q-138 -125 -328 -125zM852 348q-145 0 -264 101l14 14q108 -94 250 -94
q143 0 248 94q2 -3 7 -8.5t7 -8.5q-112 -98 -262 -98zM852 428q-116 0 -211 78l14 16q86 -73 197 -73t197 73q4 -4 12 -16q-91 -78 -209 -78zM852 543q-77 0 -135 49l14 16q51 -45 121 -45q68 0 119 45q2 -3 7 -8t7 -8q-58 -49 -133 -49zM733 911q-4 3 -7 6.5t-6 6.5l-3 4
q58 49 135 49t135 -49l-16 -17q-51 45 -119 45t-119 -45zM1167 1130q-134 121 -315 121q-179 0 -313 -118l-15 14q141 125 328 125q189 0 330 -125q-4 -6 -15 -17zM930 709l-12 10q10 20 10 41t-10 41l12 10q14 -25 14 -51t-14 -51zM958 682q-10 10 -16 14q21 32 21 64
t-21 63l16 15q25 -36 25 -78t-25 -78zM1020 627q-6 4 -16 14q38 50 38 119t-38 119l14 14q45 -57 45 -133q0 -71 -43 -133zM1106 551q-3 2 -8 7t-8 7q67 87 67 195t-70 194l17 15q74 -90 74 -209q0 -118 -72 -209zM1163 498q-10 10 -16 14q88 109 88 248t-88 248l16 14
q92 -116 92 -262t-92 -262zM1237 432q-6 4 -16 14q112 134 112 314q0 182 -112 313l16 14q117 -139 117 -327q0 -189 -117 -328zM1329 350q-2 2 -7 6t-7 6q141 175 141 398q0 227 -143 395l16 14q148 -179 148 -409q0 -231 -148 -410zM1446 246q-6 6 -16 14q180 215 180 500
t-180 500l16 14q88 -105 136 -237t48 -277q0 -144 -48 -276t-136 -238zM375 348q-148 182 -148 412q0 229 146 409q2 -2 7.5 -6.5t8.5 -7.5q-141 -170 -141 -395q0 -228 141 -398zM684 627q-43 59 -43 133t43 133q6 -4 16 -14q-38 -50 -38 -119q0 -67 38 -117zM745 682
q-24 34 -24 78t24 78q2 -3 4.5 -5.5t6 -5.5t4.5 -4q-19 -34 -19 -63q0 -30 19 -64zM809 825l-10 13q21 18 53 18t53 -18l-10 -13q-23 15 -43 15q-25 0 -43 -15zM786 852l-14 14q37 29 80 29q41 0 78 -29q-8 -8 -12 -14q-28 25 -66 25q-34 0 -66 -25zM760 881l-15 16
q45 39 107 39q61 0 106 -39l-14 -16q-37 34 -92 34t-92 -34zM604 1057l-14 16q112 98 262 98q151 0 262 -100q1 0 -2 -3.5t-6 -7.5l-4 -3q-108 94 -250 94q-143 0 -248 -94zM852 492q-100 0 -170 61l14 16q70 -57 156 -57q87 0 154 57l14 -14q-73 -63 -168 -63zM852 584
q-61 0 -109 39l15 16q47 -35 94 -35q51 0 92 35l14 -16q-45 -39 -106 -39zM852 625q-43 0 -82 28l14 15q36 -25 68 -25q34 0 66 25l14 -15q-36 -28 -80 -28zM698 950l-14 15q73 63 168 63q98 0 168 -61l-14 -17q-68 58 -154 58q-87 0 -154 -58zM655 997l-14 17q91 78 211 78
q119 0 209 -80l-12 -15q-83 74 -197 74q-110 0 -197 -74zM1249 1223q-166 153 -397 153q-227 0 -397 -151l-15 14q179 158 412 158t412 -158zM352 1339l-14 17q104 95 236 146.5t278 51.5q145 0 278 -52t238 -146l-14 -17q-102 93 -231 144t-271 51t-270 -51t-230 -144z
M1057 594l-15 14q52 69 52 152t-54 153l17 15q57 -72 57 -168q0 -97 -57 -166z" />
    </font>
</defs>
</svg>
