<?xml version="1.0" standalone="no"?>
<!DOCTYPE svg PUBLIC "-//W3C//DTD SVG 1.1//EN" "http://www.w3.org/Graphics/SVG/1.1/DTD/svg11.dtd" >
<svg xmlns="http://www.w3.org/2000/svg" xmlns:xlink="http://www.w3.org/1999/xlink" version="1.1">
<metadata>
Created by FontForge 20201107 at Wed Dec 24 15:01:17 2025
 By 
Copyright (c) The Font Bureau, Inc., 2003. All rights reserved.
</metadata>
<defs>
<font id="AntennaCond-Light" horiz-adv-x="952" >
  <font-face 
    font-family="AntennaCond Light"
    font-weight="300"
    font-stretch="normal"
    units-per-em="2048"
    panose-1="2 0 5 6 0 0 0 2 0 4"
    ascent="1638"
    descent="-410"
    x-height="1128"
    cap-height="1518"
    bbox="-68 -434 2476 1925"
    underline-thickness="102"
    underline-position="-204"
    unicode-range="U+0020-FB02"
  />
<missing-glyph horiz-adv-x="374" 
 />
    <glyph glyph-name="fi" unicode="fi" horiz-adv-x="1024" 
d="M43 997v131h172v150q0 301 295 301h92v-133h-80q-48 0 -80 -12.5t-48.5 -38.5t-22.5 -56t-6 -73v-138h237v-131h-237v-997h-150v997h-172zM748 0v1128h149v-1128h-149zM748 1280v211h149v-211h-149z" />
    <glyph glyph-name="fl" unicode="fl" horiz-adv-x="1110" 
d="M43 997v131h172v150q0 301 295 301h92v-133h-80q-48 0 -80 -12.5t-48.5 -38.5t-22.5 -56t-6 -73v-138h237v-131h-237v-997h-150v997h-172zM1034 0q-8 -2 -49 -2q-142 0 -189.5 53.5t-47.5 192.5v1331h149v-1315q0 -42 2.5 -61t16 -37t41 -23.5t77.5 -5.5v-133z" />
    <glyph glyph-name="f_f_l" unicode="ffl" horiz-adv-x="1642" 
d="M748 0v997h-383v-997h-150v997h-172v131h172v150q0 301 295 301h92v-133h-80q-48 0 -80 -12.5t-48.5 -38.5t-22.5 -56t-6 -73v-138h383v150q0 144 68 222.5t226 78.5h93v-133h-82q-91 0 -123.5 -45.5t-32.5 -134.5v-138h238v-131h-238v-997h-149zM1567 0q-8 -2 -49 -2
q-142 0 -191 54t-49 192v1331h149v-1315q0 -41 3 -60.5t16.5 -37.5t41.5 -23.5t79 -5.5v-133z" />
    <glyph glyph-name="f_f_i" unicode="ffi" horiz-adv-x="1556" 
d="M748 0v997h-383v-997h-150v997h-172v131h172v150q0 301 295 301h92v-133h-80q-48 0 -80 -12.5t-48.5 -38.5t-22.5 -56t-6 -73v-138h383v150q0 144 68 222.5t226 78.5h93v-133h-82q-91 0 -123.5 -45.5t-32.5 -134.5v-138h238v-131h-238v-997h-149zM1278 0v1128h149v-1128
h-149zM1278 1280v211h149v-211h-149z" />
    <glyph glyph-name="f_j" unicode="fj" horiz-adv-x="1024" 
d="M43 997v131h172v150q0 301 295 301h92v-133h-80q-48 0 -80 -12.5t-48.5 -38.5t-22.5 -56t-6 -73v-138h237v-131h-237v-997h-150v997h-172zM627 -324v125h14q66 0 86.5 29.5t20.5 106.5v1191h149v-1196q0 -142 -51 -199t-197 -57h-22zM748 1280v211h149v-211h-149z" />
    <glyph glyph-name="f_f" unicode="ff" horiz-adv-x="1179" 
d="M748 0v997h-383v-997h-150v997h-172v131h172v150q0 301 295 301h92v-133h-80q-48 0 -80 -12.5t-48.5 -38.5t-22.5 -56t-6 -73v-138h383v150q0 144 68 222.5t226 78.5q101 0 117 -2v-131h-106q-91 0 -123.5 -45.5t-32.5 -134.5v-138h262v-131h-262v-997h-149z" />
    <glyph glyph-name=".notdef" horiz-adv-x="374" 
 />
    <glyph glyph-name=".null" horiz-adv-x="0" 
 />
    <glyph glyph-name="nonmarkingreturn" horiz-adv-x="682" 
 />
    <glyph glyph-name="space" unicode=" " horiz-adv-x="374" 
 />
    <glyph glyph-name="space" unicode="&#xa0;" horiz-adv-x="374" 
 />
    <glyph glyph-name="exclam" unicode="!" horiz-adv-x="598" 
d="M205 0v217h188v-217h-188zM233 418l-14 1100h164l-16 -1100h-134z" />
    <glyph glyph-name="quotedbl" unicode="&#x22;" horiz-adv-x="806" 
d="M164 934l-6 584h151l-8 -584h-137zM508 934l-10 584h153l-8 -584h-135z" />
    <glyph glyph-name="numbersign" unicode="#" horiz-adv-x="1173" 
d="M209 0l72 477h-179v139h199l41 275h-240v137h263l73 490h142l-74 -490h244l71 490h142l-74 -490h182v-137h-203l-41 -275h244v-139h-264l-74 -477h-139l72 477h-244l-72 -477h-141zM432 606h260l47 293h-262z" />
    <glyph glyph-name="dollar" unicode="$" horiz-adv-x="1081" 
d="M475 -186v186q-215 12 -371 117l72 112q141 -89 305 -100v616q-65 30 -106 52.5t-86.5 57.5t-71 72.5t-42.5 92t-17 121.5q0 168 74.5 262.5t242.5 112.5v178h143v-176q153 -10 293 -82l-67 -121q-107 54 -234 65v-544q69 -32 114 -56t96 -63t80.5 -80.5t49 -102.5
t19.5 -135q0 -179 -83.5 -280t-267.5 -119v-186h-143zM821 391q0 105 -51.5 171t-159.5 122v-553q211 32 211 260zM305 1145q0 -86 42 -142.5t134 -105.5v479q-96 -16 -136 -75.5t-40 -155.5z" />
    <glyph glyph-name="percent" unicode="%" horiz-adv-x="1816" 
d="M395 580q-167 0 -245 109t-78 366q0 175 36.5 281t106 151t180.5 45q113 0 184 -45t107.5 -151t36.5 -281q0 -257 -79 -366t-249 -109zM397 696q103 0 147 80t44 277t-44 276.5t-147 79.5t-146.5 -79.5t-43.5 -276.5t43.5 -277t146.5 -80zM1421 -14q-169 0 -247 109
t-78 368t78 368t247 109t247.5 -109.5t78.5 -367.5t-78.5 -367.5t-247.5 -109.5zM1421 104q102 0 146.5 80t44.5 275q0 196 -44.5 277t-146.5 81t-146 -80.5t-44 -277.5q0 -196 43.5 -275.5t146.5 -79.5zM512 0l655 1518h142l-658 -1518h-139z" />
    <glyph glyph-name="ampersand" unicode="&#x26;" horiz-adv-x="1312" 
d="M508 -12q-117 0 -200.5 30t-131.5 87t-70 130.5t-22 170.5q0 78 22 145t66 123t88.5 96.5t110.5 89.5q-129 197 -129 373q0 309 293 309q151 0 221.5 -78.5t70.5 -230.5q0 -65 -20.5 -124.5t-59.5 -110.5t-80.5 -90.5t-97.5 -82.5q37 -48 136 -163l215 -263q9 22 17 47
t14 46.5t13 53t11.5 50.5t10.5 56.5t9 54t9 59.5t8 57t8 61.5t8 59.5l137 -16q-27 -227 -58 -378t-91 -267l235 -283h-184l-131 160q-148 -172 -428 -172zM508 117q224 0 338 149l-258 318q-79 91 -142 172q-101 -84 -157 -164.5t-56 -179.5q0 -51 5.5 -90t23 -79
t46.5 -66.5t80 -43t120 -16.5zM387 1233q0 -138 109 -303q90 74 139 145.5t49 157.5t-32.5 132t-116.5 46t-116 -45.5t-32 -132.5z" />
    <glyph glyph-name="quotesingle" unicode="'" horiz-adv-x="466" 
d="M164 934l-6 584h153l-10 -584h-137z" />
    <glyph glyph-name="parenleft" unicode="(" horiz-adv-x="782" 
d="M524 -350q-61 60 -117.5 146.5t-109 206.5t-84 281t-31.5 337q0 170 31.5 329t84 280t109.5 211t117 150l111 -75q-56 -61 -105 -139.5t-95.5 -188t-73.5 -256.5t-27 -311t28 -313.5t75 -260t96 -189t102 -134.5z" />
    <glyph glyph-name="parenright" unicode=")" horiz-adv-x="782" 
d="M256 -350l-106 74q56 63 104 141t94.5 188.5t73.5 257.5t27 312q0 164 -28 312.5t-74.5 258.5t-95 188t-101.5 134l106 75q63 -61 119.5 -147.5t109 -206t84 -279t31.5 -335.5q0 -171 -31.5 -331t-83.5 -281.5t-110 -211.5t-119 -149z" />
    <glyph glyph-name="asterisk" unicode="*" horiz-adv-x="948" 
d="M412 655l14 340l-266 -176l-66 111l285 155l-285 158l66 109l266 -174l-14 342h123l-13 -344l269 178l65 -109l-289 -160l289 -155l-65 -111l-269 176l13 -340h-123z" />
    <glyph glyph-name="plus" unicode="+" horiz-adv-x="1128" 
d="M494 268v385h-320v133h320v385h141v-385h321v-133h-321v-385h-141z" />
    <glyph glyph-name="comma" unicode="," horiz-adv-x="409" 
d="M147 -219l-45 80q64 36 80.5 59.5t16.5 79.5h-88v219h188v-207q0 -94 -28.5 -139.5t-123.5 -91.5z" />
    <glyph glyph-name="hyphen" unicode="-" horiz-adv-x="727" 
d="M82 561v139h561v-139h-561z" />
    <glyph glyph-name="hyphen" unicode="&#xad;" horiz-adv-x="727" 
d="M82 561v139h561v-139h-561z" />
    <glyph glyph-name="period" unicode="." horiz-adv-x="409" 
d="M111 0v219h188v-219h-188z" />
    <glyph glyph-name="slash" unicode="/" horiz-adv-x="821" 
d="M0 0l672 1518h149l-671 -1518h-150z" />
    <glyph glyph-name="zero" unicode="0" horiz-adv-x="1169" 
d="M586 -16q-96 0 -168 19.5t-123.5 62.5t-84.5 102.5t-52.5 150.5t-27 194.5t-7.5 244.5q0 121 5.5 212t18.5 175t36 143.5t57.5 108t83.5 77.5t114 44.5t148 15.5q114 0 194.5 -31t132.5 -88.5t81.5 -155.5t41 -215.5t11.5 -285.5q0 -142 -7.5 -246t-27 -194.5t-52.5 -150
t-84.5 -102.5t-122.5 -62t-167 -19zM586 123q76 0 128.5 22.5t88 67.5t55.5 123.5t28.5 178t8.5 243.5q0 143 -8.5 243t-29 177.5t-56.5 122t-88 66.5t-127 22q-76 0 -129 -22t-89 -66.5t-56 -122t-28 -177t-8 -243.5q0 -145 8 -244t28 -177.5t56 -123.5t89 -67.5t129 -22.5
z" />
    <glyph glyph-name="one" unicode="1" horiz-adv-x="604" 
d="M274 0v1380h-227v138h375v-1518h-148z" />
    <glyph glyph-name="two" unicode="2" horiz-adv-x="978" 
d="M78 0v123l317 420q143 189 208 291.5t85.5 167.5t20.5 151q0 126 -52.5 182t-181.5 56q-169 0 -309 -70l-64 127q169 86 394 86q197 0 280.5 -87.5t83.5 -275.5q0 -110 -31.5 -202.5t-100 -199.5t-220.5 -308l-248 -328h614v-133h-796z" />
    <glyph glyph-name="three" unicode="3" horiz-adv-x="972" 
d="M442 -16q-123 0 -207 22t-167 68l69 123q139 -76 297 -76q156 0 221.5 72t65.5 253q0 60 -5 101t-23 82t-50 65t-87 39t-134 15h-168v135h180q76 0 127.5 19.5t77.5 56.5t36.5 79.5t10.5 100.5q0 78 -14.5 127.5t-47 77t-75.5 37.5t-109 10q-140 0 -286 -68l-62 121
q163 90 369 90q96 0 161 -15.5t115 -55.5t73.5 -112t23.5 -182q0 -150 -41 -229t-125 -111q113 -34 156.5 -120t43.5 -275q0 -247 -101 -348.5t-325 -101.5z" />
    <glyph glyph-name="four" unicode="4" horiz-adv-x="1083" 
d="M80 360v123l530 1035h158l-528 -1029h440l29 480h110v-480h209v-129h-209v-360h-141v360h-598z" />
    <glyph glyph-name="five" unicode="5" horiz-adv-x="1011" 
d="M479 -16q-234 0 -401 92l67 123q145 -78 326 -78q83 0 136.5 15t93 56t56.5 113.5t17 186.5q0 112 -16.5 183.5t-54 109.5t-85.5 51.5t-124 13.5q-157 0 -254 -90l-117 35l37 723h692v-138h-563l-23 -460q98 67 271 67q83 0 143 -13.5t108.5 -46.5t77.5 -89t44.5 -140.5
t15.5 -201.5q0 -125 -18 -214t-52 -147t-90.5 -91.5t-124 -46.5t-162.5 -13z" />
    <glyph glyph-name="six" unicode="6" horiz-adv-x="1101" 
d="M578 -16q-87 0 -154 13.5t-116 37.5t-83 65t-55 87.5t-33 115t-16 137t-4 162.5q0 120 1.5 194.5t8 168t19 149t34.5 122t55 104t80 76.5t110 58t144 31.5t183 12.5h96v-138h-105q-70 0 -127.5 -7.5t-101.5 -19.5t-78.5 -34.5t-59 -45t-42.5 -58.5t-28.5 -68t-18 -80
t-11 -87.5t-6.5 -98.5q97 133 348 133q98 0 168.5 -23t113.5 -62t67.5 -103t33.5 -133.5t9 -166.5q0 -142 -19 -238t-67 -167t-133 -104t-213 -33zM580 119q68 0 117 17t80.5 48t50 82.5t25.5 112t7 145.5q0 94 -11.5 157t-41 111t-84.5 70.5t-139 22.5q-144 0 -229 -85.5
t-85 -262.5q0 -91 7.5 -154t27.5 -116t54.5 -84t89 -47.5t131.5 -16.5z" />
    <glyph glyph-name="seven" unicode="7" horiz-adv-x="862" 
d="M223 0l451 1380h-633v138h795v-119l-453 -1399h-160z" />
    <glyph glyph-name="eight" unicode="8" horiz-adv-x="1112" 
d="M557 -16q-114 0 -197 24t-131.5 63t-77 99.5t-38 120.5t-9.5 139q0 53 2.5 93t10 84t22.5 77t38 64t59 53t83 35q-55 20 -90.5 52.5t-52.5 78t-23 91t-6 109.5t9.5 115t37 99.5t72 81t118.5 52t173 19.5t172.5 -19.5t118 -52t71.5 -81t36.5 -99.5t9.5 -115t-6 -109.5
t-22.5 -91.5t-52 -78.5t-89.5 -51.5q48 -14 83.5 -36t58.5 -53t37.5 -63.5t21.5 -77t9.5 -83.5t2.5 -93q0 -55 -4.5 -100.5t-17 -92.5t-33.5 -83.5t-55.5 -69.5t-81 -54t-112 -33.5t-147.5 -12.5zM557 117q91 0 152.5 24t92 71t42.5 101.5t12 130.5t-11.5 129t-43 98t-92 67
t-152.5 22q-74 0 -128 -15.5t-87 -41.5t-52.5 -67.5t-26.5 -86.5t-7 -105q0 -76 12 -130.5t43.5 -101.5t93 -71t152.5 -24zM557 895q78 0 130.5 17.5t80.5 52.5t39.5 78t11.5 104q0 60 -11.5 103.5t-39.5 79t-80.5 53.5t-130.5 18q-148 0 -205 -65t-57 -189
q0 -125 56.5 -188.5t205.5 -63.5z" />
    <glyph glyph-name="nine" unicode="9" horiz-adv-x="1101" 
d="M252 0v133h106q87 0 154.5 12t115.5 32t83 55t56 72t34 93.5t19 108.5t9 127q-89 -133 -346 -133q-98 0 -168 23t-113 62t-68 103t-33.5 133.5t-8.5 165.5q0 141 19 237.5t67 169t133.5 106.5t214.5 34q86 0 153 -13.5t115.5 -37.5t82.5 -65t55 -87.5t33 -114.5t16 -136
t4 -162q0 -119 -2 -195t-8.5 -169t-19 -150t-35 -122.5t-55.5 -103.5t-79.5 -76.5t-109 -58t-143 -31.5t-181.5 -12h-100zM518 629q144 0 228.5 85.5t84.5 262.5q0 91 -7.5 154.5t-27 117t-54.5 84t-89 47.5t-131 17q-85 0 -140.5 -25t-86 -79t-42 -126t-11.5 -180
q0 -74 7 -127t25 -99t49 -73.5t79.5 -43t115.5 -15.5z" />
    <glyph glyph-name="colon" unicode=":" horiz-adv-x="442" 
d="M127 0v215h186v-215h-186zM127 913v215h186v-215h-186z" />
    <glyph glyph-name="semicolon" unicode=";" horiz-adv-x="442" 
d="M127 913v215h186v-215h-186zM164 -219l-45 80q63 35 79.5 58.5t16.5 80.5h-88v215h186v-203q0 -95 -27 -140t-122 -91z" />
    <glyph glyph-name="less" unicode="&#x3c;" horiz-adv-x="1124" 
d="M891 238l-721 415v111l721 416v-146l-574 -323l574 -326v-147z" />
    <glyph glyph-name="equal" unicode="=" horiz-adv-x="1130" 
d="M180 444v140h772v-140h-772zM180 829v138h772v-138h-772z" />
    <glyph glyph-name="greater" unicode="&#x3e;" horiz-adv-x="1128" 
d="M233 238v147l574 322l-574 327v146l723 -416v-111z" />
    <glyph glyph-name="question" unicode="?" horiz-adv-x="1019" 
d="M395 408q-2 94 2.5 145t27 106t57 99t106.5 123q89 95 121 153.5t32 141.5q0 51 -10 88t-35 68t-73 47t-119 16q-161 0 -309 -76l-66 127q176 88 395 88q107 0 180.5 -24.5t113.5 -72t56.5 -105t16.5 -134.5q0 -63 -11.5 -114.5t-38 -98t-54 -81t-74.5 -85.5
q-89 -95 -121.5 -145t-42.5 -102.5t-8 -163.5h-146zM373 0v203h186v-203h-186z" />
    <glyph glyph-name="at" unicode="@" horiz-adv-x="1714" 
d="M858 -338q-151 0 -264.5 28.5t-205 94.5t-149 173.5t-88 266t-30.5 371.5t30.5 371.5t88 266t149 174t205.5 95.5t264 29t264 -29t205.5 -95.5t149 -174t88 -266t30.5 -371.5q0 -300 -55.5 -413t-212.5 -113q-110 0 -160.5 32t-62.5 109q-36 -71 -110 -105t-208 -34
q-64 0 -114.5 15t-85.5 40t-61 64.5t-41 81t-23.5 98.5t-11.5 109t-3 118q0 67 3 119.5t12 109.5t24 99t41 81.5t61.5 64t86 39.5t114.5 15q132 0 196.5 -29t98.5 -93l23 118l104 -8v-708q0 -44 1 -69t4 -54t8.5 -44t14.5 -31t23 -22.5t33 -11t45 -4.5q62 0 93.5 33.5
t46 123.5t14.5 269q0 195 -26.5 339t-76.5 240.5t-129.5 155t-176.5 83t-226 24.5t-226 -24.5t-176.5 -83t-129.5 -155t-76.5 -240.5t-26.5 -339t26.5 -339t76.5 -240t129.5 -154t176.5 -82.5t226 -24.5q245 0 481 94l35 -83q-240 -105 -516 -105zM819 190q45 0 81.5 7.5
t62.5 24.5t45 36t31 50.5t19.5 59t11 70.5t4.5 76t1 84q0 61 -2 104.5t-8.5 88t-18 74.5t-30.5 57.5t-46 43t-64.5 24.5t-86.5 9q-52 0 -91 -13t-64.5 -40.5t-42 -60.5t-24.5 -82.5t-10.5 -95.5t-2.5 -111q0 -64 2.5 -110t10.5 -96t24.5 -83.5t42 -61.5t64.5 -41.5t91 -13.5
z" />
    <glyph glyph-name="A" unicode="A" horiz-adv-x="1181" 
d="M47 0l465 1528h158l467 -1528h-156l-104 348h-578l-102 -348h-150zM340 487h496l-246 820z" />
    <glyph glyph-name="B" unicode="B" horiz-adv-x="1134" 
d="M139 0v1518h457q216 0 322 -88t106 -291q0 -274 -190 -342q109 -31 165 -120.5t56 -260.5q0 -116 -31 -198t-92 -129t-140 -68t-184 -21h-469zM291 133h315q144 0 219.5 65t75.5 228t-75.5 227t-219.5 64h-315v-584zM291 856h299q141 0 210.5 58t69.5 206t-69.5 205
t-210.5 57h-299v-526z" />
    <glyph glyph-name="C" unicode="C" horiz-adv-x="1034" 
d="M606 -16q-130 0 -224.5 36t-153.5 99t-94.5 163t-48.5 212.5t-13 263.5t12.5 261.5t47 212t94 165t157 100.5t231.5 37q217 0 357 -90l-82 -127q-112 67 -277 67q-93 0 -160 -26.5t-110.5 -74.5t-69 -127.5t-35.5 -174t-10 -225.5t10 -225.5t35 -175t68.5 -129.5
t110.5 -76t161 -27q99 0 166.5 20t136.5 62l76 -119q-82 -52 -168.5 -77t-216.5 -25z" />
    <glyph glyph-name="D" unicode="D" horiz-adv-x="1198" 
d="M139 0v1518h414q101 0 181.5 -17t140.5 -48t103.5 -80.5t72 -109t45.5 -140.5t23.5 -167t6.5 -196q0 -113 -6.5 -199.5t-23.5 -168.5t-45.5 -141t-73 -108.5t-105.5 -79.5t-143.5 -46.5t-187.5 -16.5h-402zM293 135h258q90 0 157 17.5t113 55.5t75.5 87.5t46 123.5
t22.5 152.5t6 186.5q0 91 -4 159.5t-15.5 136t-30.5 115t-50 89t-74.5 66t-102.5 38.5t-135 14h-266v-1241z" />
    <glyph glyph-name="E" unicode="E" horiz-adv-x="1034" 
d="M139 0v1518h797v-142h-647v-518h612v-141h-612v-578h653v-139h-803z" />
    <glyph glyph-name="F" unicode="F" horiz-adv-x="989" 
d="M139 0v1518h799v-142h-645v-528h608v-139h-608v-709h-154z" />
    <glyph glyph-name="G" unicode="G" horiz-adv-x="1153" 
d="M602 -16q-124 0 -214.5 31t-151 90.5t-97 155.5t-52 215.5t-15.5 281.5q0 217 28.5 362t95 239t170 134.5t257.5 40.5q127 0 215 -26t168 -74l-80 -127q-134 79 -310 79q-85 0 -146 -18t-109.5 -61t-77.5 -116t-43.5 -179.5t-14.5 -255.5q0 -353 84 -495t303 -142
q80 0 132.5 14.5t91 48t59 96t30 149.5t9.5 218v57h-383v136h530v-172q0 -136 -8.5 -233t-30 -176t-55.5 -129t-89 -83.5t-126 -47t-170 -13.5z" />
    <glyph glyph-name="H" unicode="H" horiz-adv-x="1257" 
d="M160 0v1518h153v-652h670v652h154v-1518h-154v715h-670v-715h-153z" />
    <glyph glyph-name="I" unicode="I" horiz-adv-x="454" 
d="M152 0v1518h153v-1518h-153z" />
    <glyph glyph-name="J" unicode="J" horiz-adv-x="698" 
d="M51 0v139h142q122 0 171.5 53t49.5 166v1160h153v-1168q0 -184 -86 -267t-268 -83h-162z" />
    <glyph glyph-name="K" unicode="K" horiz-adv-x="1157" 
d="M139 0v1518h152v-754l614 754h178l-465 -570l482 -948h-168l-418 825l-223 -280v-545h-152z" />
    <glyph glyph-name="L" unicode="L" horiz-adv-x="962" 
d="M139 0v1518h154v-1379h631v-139h-785z" />
    <glyph glyph-name="M" unicode="M" horiz-adv-x="1472" 
d="M139 0v1518h193l403 -1258l408 1258h190v-1518h-151v1219l-394 -1219h-114l-398 1219v-1219h-137z" />
    <glyph glyph-name="N" unicode="N" horiz-adv-x="1251" 
d="M139 0v1518h168l660 -1213v1213h147v-1518h-143l-686 1255v-1255h-146z" />
    <glyph glyph-name="O" unicode="O" horiz-adv-x="1257" 
d="M631 -16q-105 0 -188.5 21.5t-142 57t-100.5 93.5t-66.5 119t-38.5 145t-18.5 160.5t-4.5 177.5t4.5 177.5t18.5 161t38.5 145.5t66.5 119t100.5 94t142 57.5t188.5 21.5t187.5 -21.5t140.5 -57.5t99.5 -94t66 -119t38.5 -145.5t18.5 -161.5t4.5 -177t-4.5 -177
t-18.5 -161t-38.5 -145t-66 -119t-99.5 -93.5t-140.5 -57t-187.5 -21.5zM631 123q77 0 137 17t102 45t72 74.5t47 95t27 118.5t13 132.5t3 148.5q0 74 -2.5 130.5t-9 119t-20 108.5t-33.5 92t-50 77t-70.5 56t-94.5 37t-121 12q-78 0 -138.5 -17t-103 -45t-72.5 -75
t-47.5 -95.5t-27 -118.5t-12.5 -132.5t-3 -148.5t3 -148.5t12.5 -132.5t27 -118.5t47.5 -95t72.5 -74.5t103 -45t138.5 -17z" />
    <glyph glyph-name="P" unicode="P" horiz-adv-x="1134" 
d="M139 0v1518h490q224 0 329 -108.5t105 -340.5q0 -233 -106.5 -348t-331.5 -115h-334v-606h-152zM291 745h332q151 0 219.5 72.5t68.5 245.5t-68 244t-220 71h-332v-633z" />
    <glyph glyph-name="Q" unicode="Q" horiz-adv-x="1257" 
d="M831 -338q-156 0 -233 66t-76 215v53q-84 10 -151 37t-113.5 65.5t-80.5 95t-54 115t-31.5 136.5t-15.5 149.5t-4 163.5q0 101 4.5 177.5t18.5 161t38.5 145.5t66.5 119t100.5 94t142 57.5t188.5 21.5t187.5 -21.5t140.5 -57.5t99.5 -94t66 -119t38.5 -145.5t18.5 -161.5
t4.5 -177q0 -97 -4.5 -172t-17.5 -156.5t-35.5 -141.5t-61.5 -117t-92.5 -93t-130 -59.5t-172.5 -26.5v-29q0 -93 41.5 -130.5t132.5 -37.5h121v-133h-136zM631 123q77 0 137 17t102 45t72 74.5t47 95t27 118.5t13 132.5t3 148.5q0 74 -2.5 130.5t-9 119t-20 108.5t-33.5 92
t-50 77t-70.5 56t-94.5 37t-121 12q-78 0 -138.5 -17t-103 -45t-72.5 -75t-47.5 -95.5t-27 -118.5t-12.5 -132.5t-3 -148.5t3 -148.5t12.5 -132.5t27 -118.5t47.5 -95t72.5 -74.5t103 -45t138.5 -17z" />
    <glyph glyph-name="R" unicode="R" horiz-adv-x="1153" 
d="M877 0l-281 614h-305v-614h-152v1518h486q224 0 328 -107.5t104 -335.5q0 -194 -74.5 -306t-230.5 -144l286 -625h-161zM291 754h330q150 0 217 72t67 243q0 168 -67 238.5t-217 70.5h-330v-624z" />
    <glyph glyph-name="S" unicode="S" horiz-adv-x="1071" 
d="M537 -16q-272 0 -467 118l77 119q179 -102 388 -102q152 0 230.5 66.5t78.5 189.5q0 35 -4 64t-16 54.5t-24 45t-37 40.5t-46 36t-60.5 35.5t-70 35t-84.5 39.5q-81 36 -133.5 64.5t-103 66.5t-78.5 79t-45 96t-17 124q0 176 110 277.5t320 101.5q215 0 381 -78l-66 -133
q-135 66 -313 66q-141 0 -211 -62t-70 -168q0 -39 5.5 -67.5t21 -55t34.5 -46t56.5 -43t75.5 -43.5t102 -50q83 -39 133.5 -64.5t105 -60t84 -66t55.5 -75t36 -94.5t10 -117q0 -186 -117.5 -289.5t-340.5 -103.5z" />
    <glyph glyph-name="T" unicode="T" horiz-adv-x="1099" 
d="M471 0v1376h-430v142h1018v-142h-432v-1376h-156z" />
    <glyph glyph-name="U" unicode="U" horiz-adv-x="1249" 
d="M627 -18q-143 0 -241 33.5t-153.5 101.5t-79.5 159.5t-24 219.5v1022h154v-1012q0 -98 15.5 -165.5t53.5 -118.5t106 -75t169 -24t169 24t106.5 74.5t54.5 118.5t16 166v1012h147v-1022q0 -128 -22.5 -218.5t-77.5 -159.5t-152.5 -102.5t-240.5 -33.5z" />
    <glyph glyph-name="V" unicode="V" horiz-adv-x="1175" 
d="M510 -10l-463 1528h154l391 -1297l385 1297h153l-462 -1528h-158z" />
    <glyph glyph-name="W" unicode="W" horiz-adv-x="1734" 
d="M426 -10l-367 1528h156l295 -1227l297 1227h133l299 -1227l293 1227h145l-366 -1528h-146l-297 1214l-295 -1214h-147z" />
    <glyph glyph-name="X" unicode="X" horiz-adv-x="1148" 
d="M922 0l-357 653l-344 -653h-164l432 795l-393 723h168l318 -584l305 584h164l-394 -725l433 -793h-168z" />
    <glyph glyph-name="Y" unicode="Y" horiz-adv-x="1126" 
d="M487 0v559l-469 959h166l381 -789l383 789h158l-467 -959v-559h-152z" />
    <glyph glyph-name="Z" unicode="Z" horiz-adv-x="1064" 
d="M70 0v123l718 1253h-690v142h873v-129l-719 -1250h737v-139h-919z" />
    <glyph glyph-name="bracketleft" unicode="[" horiz-adv-x="770" 
d="M197 -324v1899h411v-131h-260v-1641h266v-127h-417z" />
    <glyph glyph-name="backslash" unicode="\" horiz-adv-x="821" 
d="M672 0l-672 1518h150l671 -1518h-149z" />
    <glyph glyph-name="bracketright" unicode="]" horiz-adv-x="770" 
d="M162 -324v127h264v1641h-262v131h414v-1899h-416z" />
    <glyph glyph-name="asciicircum" unicode="^" 
d="M174 1237l232 317h145l229 -317h-129l-176 211l-176 -211h-125z" />
    <glyph glyph-name="underscore" unicode="_" horiz-adv-x="731" 
d="M-61 -238v119h854v-119h-854z" />
    <glyph glyph-name="grave" unicode="`" 
d="M461 1249l-268 318h172l231 -318h-135z" />
    <glyph glyph-name="a" unicode="a" horiz-adv-x="1017" 
d="M401 -12q-172 0 -249.5 88t-77.5 262q0 99 24.5 170.5t69.5 118.5t118.5 75t161 39t207.5 11h50q-3 139 -47 199.5t-171 60.5q-152 0 -276 -62l-64 123q148 76 353 76q110 0 179.5 -23.5t107.5 -77t51.5 -123.5t13.5 -180v-495q0 -73 15 -95t77 -22v-133q-12 -2 -39 -2
q-93 0 -130.5 25.5t-49.5 91.5q-50 -70 -129.5 -98.5t-194.5 -28.5zM430 115q275 0 275 323v185h-48q-97 0 -163 -6t-122 -23t-88 -47.5t-49.5 -78.5t-17.5 -118q0 -131 53 -183t160 -52z" />
    <glyph glyph-name="b" unicode="b" horiz-adv-x="1052" 
d="M121 4v1571h149v-563q37 68 114.5 101.5t217.5 33.5q70 0 125.5 -16.5t94.5 -44t67 -71.5t44.5 -90.5t26 -109t12.5 -119t3 -129.5t-3 -130.5t-13 -120t-26.5 -109t-45 -90t-67.5 -71t-95.5 -44t-126.5 -16.5q-106 0 -175 18t-102.5 44.5t-64.5 72.5l-23 -127zM561 119
q68 0 116.5 22.5t77 59t44.5 96.5t21 119.5t5 144.5t-4.5 144.5t-20.5 120.5t-44 98t-77 60.5t-118 23.5q-57 0 -101 -12t-74.5 -32t-52 -54t-34 -67.5t-19 -84t-8.5 -93.5t-2 -104q0 -62 2 -104.5t8.5 -92.5t18.5 -83t33.5 -66.5t52 -52.5t75 -31t101.5 -12z" />
    <glyph glyph-name="c" unicode="c" horiz-adv-x="839" 
d="M502 -16q-104 0 -179.5 27.5t-122 75t-74.5 123.5t-38 160t-10 197q0 94 7 166.5t24.5 140.5t49 116t78.5 84.5t115 54.5t156 18q155 0 264 -53l-63 -131q-89 45 -195 45q-86 0 -142.5 -28.5t-87.5 -89t-43 -137.5t-12 -190q0 -90 6.5 -155t25 -122.5t50.5 -93t83 -55.5
t122 -20q107 0 215 55l60 -117q-73 -37 -138 -54t-151 -17z" />
    <glyph glyph-name="d" unicode="d" horiz-adv-x="1052" 
d="M451 -14q-70 0 -125.5 16.5t-94.5 44t-67 71.5t-44.5 90.5t-26 109.5t-12.5 120t-3 131q0 73 3.5 130t13 119t26.5 108.5t46 90t68 70.5t95.5 43.5t126.5 16.5q142 0 214.5 -31.5t110.5 -95.5v555h150v-1569l-119 -10l-14 133q-38 -70 -117.5 -106.5t-230.5 -36.5z
M492 119q57 0 101 12t74.5 32t52 53.5t33.5 67.5t18.5 84t8.5 93t2 104q0 62 -1.5 104t-8.5 92.5t-18.5 83.5t-33 66.5t-52 53t-75 31.5t-101.5 12q-68 0 -117 -23t-77 -59.5t-44.5 -96.5t-21.5 -120t-5 -144q0 -59 2 -104.5t9 -94t19 -83.5t32 -67.5t47.5 -52.5t66.5 -32
t89 -12z" />
    <glyph glyph-name="e" unicode="e" 
d="M504 -14q-107 0 -184 27.5t-123.5 74.5t-73.5 123.5t-36 158.5t-9 197q0 111 10.5 194t38.5 158.5t75 123.5t123 76t179 28q62 0 111.5 -9t87 -26t66 -42.5t47 -58.5t31.5 -73.5t19 -88.5t9.5 -102.5t3.5 -115v-127.5h-658q2 -99 14.5 -164.5t43.5 -119t87.5 -78.5
t143.5 -25q68 0 125.5 11t87 22.5t70.5 31.5l59 -116q-149 -80 -348 -80zM502 1014q-81 0 -135.5 -25t-85 -76.5t-44 -115.5t-16.5 -156h518q-4 166 -17 221q-25 104 -108 135q-45 17 -112 17z" />
    <glyph glyph-name="f" unicode="f" horiz-adv-x="649" 
d="M43 997v131h172v150q0 301 295 301q103 0 117 -2v-131h-105q-48 0 -80 -12.5t-48.5 -38.5t-22.5 -56t-6 -73v-138h262v-131h-262v-997h-150v997h-172z" />
    <glyph glyph-name="g" unicode="g" horiz-adv-x="980" 
d="M475 406q-90 0 -147 16q-19 -34 -19 -74q0 -47 37 -63.5t139 -16.5q163 0 255 -28t131.5 -87.5t39.5 -164.5q0 -169 -104.5 -248.5t-329.5 -79.5q-239 0 -337.5 59.5t-98.5 214.5q0 226 197 271q-64 43 -64 135q0 70 43 131q-121 85 -121 303q0 198 97 287.5t282 89.5
q51 0 103 -6l323 41v-121h-168q119 -80 119 -291q0 -101 -26 -173.5t-77 -114.5t-118 -61t-156 -19zM475 537q116 0 173 55.5t57 179.5q0 126 -57.5 184t-172.5 58q-114 0 -172.5 -58t-58.5 -184q0 -124 58.5 -179.5t172.5 -55.5zM475 -217q163 0 224 45t61 154
q0 62 -23 95.5t-84 49.5t-178 16q-161 0 -224 -43.5t-63 -142.5q0 -102 59.5 -138t227.5 -36z" />
    <glyph glyph-name="h" unicode="h" horiz-adv-x="1032" 
d="M121 0v1575h149v-557q68 129 326 129q62 0 110 -10.5t82 -28t58 -47t38 -61t21.5 -77.5t10 -88.5t2.5 -101.5v-733h-148v702q0 67 -3.5 109t-16.5 83t-37 63t-65 35.5t-101 13.5q-86 0 -140 -23t-84.5 -77t-41.5 -128.5t-11 -193.5v-584h-149z" />
    <glyph glyph-name="i" unicode="i" horiz-adv-x="405" 
d="M127 0v1128h149v-1128h-149zM127 1280v213h152v-213h-152z" />
    <glyph glyph-name="j" unicode="j" horiz-adv-x="405" 
d="M6 -324v125h17q65 0 84.5 29.5t19.5 106.5v1191h149v-1196q0 -72 -10 -117.5t-37 -78t-75 -46.5t-123 -14h-25zM127 1280v213h152v-213h-152z" />
    <glyph glyph-name="k" unicode="k" horiz-adv-x="911" 
d="M121 0v1575h147v-1038l422 591h162l-344 -479l375 -649h-160l-313 526l-142 -204v-322h-147z" />
    <glyph glyph-name="l" unicode="l" horiz-adv-x="491" 
d="M416 0q-8 -2 -49 -2q-142 0 -191 54t-49 192v1331h149v-1315q0 -41 3 -60.5t16.5 -37.5t41.5 -23.5t79 -5.5v-133z" />
    <glyph glyph-name="m" unicode="m" horiz-adv-x="1615" 
d="M121 0v1120l119 8l14 -120q34 68 107.5 103.5t224.5 35.5q95 0 153 -20t81 -48t40 -75q37 70 117.5 106.5t234.5 36.5q44 0 81 -4.5t65.5 -15t51.5 -23t40 -32.5t29.5 -39t20.5 -47.5t13 -53.5t7.5 -61t3 -65.5t0.5 -72.5v-733h-148v702q0 50 -1 80t-5.5 66.5t-13 57
t-23.5 42.5t-38 33t-55.5 18t-76.5 7q-57 0 -98.5 -10t-71 -33.5t-48.5 -55.5t-29.5 -82t-14.5 -106t-4 -135v-584h-147v702q0 50 -1 80t-5.5 66.5t-13 57t-23.5 42.5t-38 33t-55.5 18t-76.5 7q-85 0 -138.5 -23.5t-82 -79t-38.5 -128.5t-10 -191v-584h-147z" />
    <glyph glyph-name="n" unicode="n" horiz-adv-x="1032" 
d="M121 0v1120l119 8l14 -118q37 66 114.5 101.5t225.5 35.5q62 0 110 -10.5t82 -28t58.5 -47t38.5 -61t22 -77.5t10.5 -88.5t2.5 -101.5v-733h-148v702q0 67 -3.5 109t-16.5 83t-37 63t-65 35.5t-101 13.5q-71 0 -121 -18t-80.5 -49t-47 -86t-22.5 -116.5t-6 -152.5v-584
h-149z" />
    <glyph glyph-name="o" unicode="o" horiz-adv-x="1024" 
d="M512 -16q-108 0 -187 30t-126 79t-74.5 127t-37 158.5t-9.5 188.5q0 75 4.5 135t16.5 122t32 108.5t53 88.5t78 68.5t108 42t142 15.5q110 0 190 -30.5t126.5 -80t74 -127.5t36.5 -157t9 -185q0 -77 -4.5 -137.5t-16.5 -123t-32 -109t-53 -88t-78.5 -68t-109 -42
t-142.5 -15.5zM512 117q54 0 97 12t72.5 32.5t51 53.5t33.5 67.5t19.5 83.5t9.5 92.5t2 102.5q0 60 -2 104t-9.5 93.5t-19.5 84t-33.5 67.5t-51 53.5t-72.5 32.5t-97 12q-75 0 -128 -23.5t-83 -60.5t-47 -98.5t-22 -120.5t-5 -144q0 -58 2.5 -102.5t9.5 -93t19.5 -83
t34 -67.5t51 -53.5t72 -32.5t96.5 -12z" />
    <glyph glyph-name="p" unicode="p" horiz-adv-x="1052" 
d="M121 -324v1444l119 8l12 -124q38 69 119.5 106t230.5 37q70 0 125.5 -16.5t94.5 -44t67 -71.5t44.5 -90.5t26 -109t12.5 -119t3 -129.5t-3.5 -130.5t-13 -120t-26.5 -109t-45.5 -90t-67.5 -71t-95 -44t-126 -16.5q-141 0 -214.5 32t-113.5 97v-439h-149zM561 119
q68 0 116.5 22.5t76.5 59t44.5 96t21.5 120t5 144.5t-5 144t-21 121t-44 98t-77 60.5t-117 23.5q-57 0 -101 -12t-74.5 -32t-52 -54t-34 -67.5t-19 -84t-8.5 -93.5t-2 -104t2 -104t8.5 -93t19 -83.5t34 -66.5t52 -52t74.5 -31t101 -12z" />
    <glyph glyph-name="q" unicode="q" horiz-adv-x="1052" 
d="M782 -324v445q-40 -67 -115 -101t-216 -34q-70 0 -125.5 16.5t-94.5 44t-67 71.5t-44.5 90.5t-26 109.5t-12.5 120t-3 131q0 73 3.5 130t13 119t26.5 108.5t46 90t68 70.5t95.5 43.5t126.5 16.5q153 0 227 -32.5t113 -98.5l22 127l113 -8v-1459h-150zM492 119
q57 0 101 12t74.5 32t52 53.5t33.5 67.5t18.5 84t8.5 93t2 104q0 62 -1.5 104t-8.5 92.5t-18.5 83.5t-33 66.5t-52 53t-75 31.5t-101.5 12q-68 0 -117 -23t-77 -59.5t-44.5 -96.5t-21.5 -120t-5 -144q0 -59 2 -104.5t9 -94t19 -83.5t32 -67.5t47.5 -52.5t66.5 -32t89 -12z
" />
    <glyph glyph-name="r" unicode="r" horiz-adv-x="587" 
d="M121 0v1120l117 8l16 -135q75 146 313 146v-142q-52 -1 -94 -11t-72 -29.5t-52.5 -42t-36.5 -56.5t-22.5 -64.5t-13 -74.5t-5.5 -77.5t-1 -82.5v-559h-149z" />
    <glyph glyph-name="s" unicode="s" horiz-adv-x="792" 
d="M387 -14q-206 0 -348 71l59 121q130 -67 289 -67q211 0 211 174q0 44 -13 76t-47 60.5t-71 49.5t-107 55q-77 37 -122.5 64t-87.5 66t-60 87.5t-18 112.5q0 145 86 218t250 73q169 0 288 -53l-57 -125q-111 47 -236 47q-188 0 -188 -158q0 -71 49 -114t180 -105
q79 -37 125.5 -64.5t89.5 -69t61.5 -94.5t18.5 -126q0 -149 -92 -224t-260 -75z" />
    <glyph glyph-name="t" unicode="t" horiz-adv-x="710" 
d="M43 997v131h172l25 316l122 26v-342h269v-131h-269v-700q0 -88 27.5 -126t116.5 -38h125v-133q-40 -4 -139 -4q-86 0 -141 16.5t-85.5 54.5t-41.5 88t-11 128v714h-170z" />
    <glyph glyph-name="u" unicode="u" horiz-adv-x="1007" 
d="M506 -16q-97 0 -166 17.5t-112.5 49t-68.5 85t-34.5 115.5t-9.5 150v727h149v-718q0 -63 4.5 -104t18.5 -80t40.5 -60t71 -34t109.5 -13q64 0 107.5 13t69.5 34t40 60t18.5 80t4.5 104v718h145v-727q0 -89 -8.5 -150t-32.5 -115t-67 -85.5t-112 -49t-167 -17.5z" />
    <glyph glyph-name="v" unicode="v" horiz-adv-x="903" 
d="M373 -8l-350 1136h153l279 -933l278 933h148l-351 -1136h-157z" />
    <glyph glyph-name="w" unicode="w" horiz-adv-x="1427" 
d="M336 -8l-307 1136h149l236 -897l235 897h137l234 -892l237 892h142l-307 -1136h-142l-235 882l-234 -882h-145z" />
    <glyph glyph-name="x" unicode="x" horiz-adv-x="894" 
d="M705 0l-267 465l-256 -465h-151l334 594l-304 534h160l236 -413l227 413h152l-306 -542l334 -586h-159z" />
    <glyph glyph-name="y" unicode="y" horiz-adv-x="878" 
d="M131 -324v125h94q47 0 71 18.5t38 63.5l31 113l-342 1132h149l270 -915l269 915h145l-387 -1275q-31 -103 -86.5 -140t-161.5 -37h-90z" />
    <glyph glyph-name="z" unicode="z" horiz-adv-x="811" 
d="M47 0v109l518 888h-487v131h670v-106l-521 -897h537v-125h-717z" />
    <glyph glyph-name="braceleft" unicode="{" horiz-adv-x="827" 
d="M545 -324q-157 0 -227 58.5t-70 189.5q0 64 44 276t44 259q0 62 -43 82t-160 20v129q115 0 159 19t44 82q0 54 -44 263t-44 273q0 131 70 189.5t225 58.5h131v-131h-92q-94 0 -137.5 -35.5t-43.5 -120.5q0 -52 42 -250.5t42 -265.5q0 -111 -94 -145q94 -38 94 -146
q0 -72 -42 -271.5t-42 -246.5q0 -87 44 -123.5t137 -36.5h92v-127h-129z" />
    <glyph glyph-name="bar" unicode="|" horiz-adv-x="542" 
d="M197 -324v1899h151v-1899h-151z" />
    <glyph glyph-name="braceright" unicode="}" horiz-adv-x="827" 
d="M156 -324v127h92q93 0 136.5 36.5t43.5 123.5q0 47 -43 246t-43 272q0 107 94 146q-94 37 -94 145q0 66 43 265t43 251q0 85 -43 120.5t-137 35.5h-92v131h131q155 0 224 -58.5t69 -189.5q0 -64 -44 -273t-44 -263q0 -61 42.5 -80t161.5 -19v-131q-117 0 -160.5 -19
t-43.5 -83q0 -47 44 -259t44 -276q0 -131 -69.5 -189.5t-225.5 -58.5h-129z" />
    <glyph glyph-name="asciitilde" unicode="~" 
d="M252 854l-100 55q73 152 198 152q43 0 88 -21t83.5 -42t66.5 -21q33 0 57 22.5t55 71.5l101 -57q-75 -156 -201 -156q-43 0 -88 20t-84 40t-66 20q-33 0 -58 -20.5t-52 -63.5z" />
    <glyph glyph-name="exclamdown" unicode="&#xa1;" horiz-adv-x="600" 
d="M217 0l16 1102h136l14 -1102h-166zM207 1300v218h188v-218h-188z" />
    <glyph glyph-name="cent" unicode="&#xa2;" horiz-adv-x="862" 
d="M426 -197v193q-82 10 -142 42.5t-97.5 80t-59.5 118.5t-30.5 149t-8.5 181t8.5 180t30.5 148t59.5 118.5t97.5 80t142 43.5v178h145v-174q122 -6 211 -51l-63 -127q-72 37 -156 43v-889q82 7 180 55l58 -113q-112 -59 -230 -67v-189h-145zM240 563q0 -97 8 -165
t28.5 -126.5t59.5 -94t98 -50.5v870q-58 -15 -97 -50.5t-59.5 -93t-29 -126t-8.5 -164.5z" />
    <glyph glyph-name="sterling" unicode="&#xa3;" horiz-adv-x="976" 
d="M688 -10q-171 0 -334 92q-41 -46 -116.5 -64t-200.5 -18v133q150 0 197 34t47 152q0 81 -58 356q-5 24 -8 36h-176v125h151q-45 221 -45 329q0 184 88 276.5t285 92.5q212 0 373 -82l-66 -121q-128 64 -307 64q-123 0 -174 -62t-51 -182q0 -103 43 -315h348v-125h-324
q58 -284 58 -389q0 -69 -10 -127q134 -74 264 -74q71 0 96 36.5t25 114.5v121h133v-125q0 -148 -51.5 -213t-186.5 -65z" />
    <glyph glyph-name="currency" unicode="&#xa4;" horiz-adv-x="1103" 
d="M61 856v125h187q19 290 119.5 421.5t332.5 131.5q197 0 332 -80l-71 -125q-111 62 -263 62q-156 0 -222.5 -97t-80.5 -313h453v-125h-459v-172h459v-125h-455q14 -231 81 -334.5t226 -103.5q78 0 137.5 19t123.5 53l69 -119q-158 -90 -338 -90q-118 0 -200 34
t-133.5 107.5t-77.5 177.5t-35 256h-185v125h181v172h-181z" />
    <glyph glyph-name="yen" unicode="&#xa5;" horiz-adv-x="1021" 
d="M109 465v125h329v41l-405 887h157l322 -730l322 730h153l-403 -887v-41h331v-125h-331v-172h331v-125h-331v-168h-146v168h-329v125h329v172h-329z" />
    <glyph glyph-name="brokenbar" unicode="&#xa6;" horiz-adv-x="542" 
d="M197 -324v787h151v-787h-151zM197 788v787h151v-787h-151z" />
    <glyph glyph-name="section" unicode="&#xa7;" horiz-adv-x="903" 
d="M231 -18q-14 0 -49.5 1t-38.5 1v122h76q92 0 124 46.5t32 138.5v180q-140 14 -206.5 84t-66.5 209q0 137 66.5 207t206.5 82v166q0 73 12 126t42 98t88.5 68t144.5 23h90v-127h-78q-93 0 -125.5 -46.5t-32.5 -139.5v-166q147 -12 216 -82t69 -209q0 -140 -68.5 -210.5
t-214.5 -82.5v-172q0 -73 -12 -126.5t-42 -98.5t-88.5 -68.5t-144.5 -23.5zM449 578q113 0 170 43t57 139t-57 139t-170 43q-112 0 -167 -43t-55 -139t55 -139t167 -43z" />
    <glyph glyph-name="dieresis" unicode="&#xa8;" 
d="M236 1249v195h135v-195h-135zM584 1249v195h137v-195h-137z" />
    <glyph glyph-name="copyright" unicode="&#xa9;" horiz-adv-x="1366" 
d="M694 242q-89 0 -153 24.5t-104 66.5t-63 110.5t-31.5 144.5t-8.5 180q0 71 4 127.5t14.5 112.5t27.5 97.5t45 77.5t65.5 58.5t90 35.5t117.5 13q150 0 244 -61l-59 -86q-76 47 -187 47q-63 0 -108 -18t-73.5 -51t-45 -87t-23 -117.5t-6.5 -152.5q0 -88 6.5 -151
t23 -117.5t45.5 -87.5t74.5 -51.5t108.5 -18.5q67 0 112 13.5t93 43.5l53 -84q-58 -36 -115.5 -52.5t-146.5 -16.5zM682 -20q-137 0 -240.5 37.5t-170.5 103t-108.5 165t-58 213.5t-16.5 259t16.5 259.5t58 215t108.5 166.5t170.5 103.5t240.5 37.5t240.5 -37.5
t170.5 -103.5t109 -166t59 -215t17 -260q0 -144 -17 -258.5t-59 -214t-109 -165t-170.5 -103t-240.5 -37.5zM682 51q120 0 211 34t149.5 94t94.5 150.5t50.5 194t14.5 234.5q0 133 -14.5 237t-50.5 195t-94.5 150.5t-149 93.5t-211.5 34q-120 0 -210.5 -34t-148.5 -93.5
t-94 -150.5t-50.5 -195t-14.5 -237q0 -131 14.5 -234.5t50.5 -194t94 -150.5t148.5 -94t210.5 -34z" />
    <glyph glyph-name="ordfeminine" unicode="&#xaa;" horiz-adv-x="892" 
d="M360 592q-260 0 -260 285q0 80 20 138t56.5 94.5t97 58t131 30t168.5 8.5h37q-2 113 -36.5 162t-137.5 49q-115 0 -223 -49l-51 107q126 59 287 59q72 0 122 -13.5t81.5 -38t49.5 -66.5t24.5 -91.5t6.5 -120.5v-397q0 -57 13 -75.5t65 -18.5v-113h-39q-78 0 -109 28
t-40 99q-70 -135 -263 -135zM391 698q219 0 219 258v146h-37q-78 0 -130.5 -4.5t-97.5 -18t-70 -37.5t-38.5 -62t-13.5 -93q0 -105 42.5 -147t125.5 -42zM125 311v115h629v-115h-629z" />
    <glyph glyph-name="guillemotleft" unicode="&#xab;" horiz-adv-x="1118" 
d="M385 0l-244 563l244 565h135l-235 -565l235 -563h-135zM805 0l-244 563l244 565h133l-236 -565l236 -563h-133z" />
    <glyph glyph-name="logicalnot" unicode="&#xac;" horiz-adv-x="1703" 
d="M258 246q-88 105 -136 237t-48 277q0 144 48 276t136 236q6 -4 14 -12q-85 -103 -131.5 -231.5t-46.5 -268.5q0 -285 180 -500zM467 432q-117 143 -117 328q0 183 115 327q3 -2 8 -7t8 -7q-110 -136 -110 -313q0 -182 110 -314zM541 498q-92 116 -92 262t92 262
q3 -2 8 -7t8 -7q-88 -109 -88 -248t88 -248q-3 -2 -8 -7t-8 -7zM647 592q-57 72 -57 168q0 97 57 166l15 -15q-52 -69 -52 -151q0 -84 54 -154q-3 -2 -8.5 -7t-8.5 -7zM715 655q-33 48 -33 105q0 56 33 104q3 -2 8 -7t8 -7q-29 -44 -29 -90t29 -90q-3 -2 -16 -15zM774 709
q-14 25 -14 51t14 51l12 -10q-10 -20 -10 -41t10 -41q-4 -4 -12 -10zM852 123q-236 0 -412 158l2.5 2.5l5 5l5.5 5.5t2 1q171 -152 397 -152q227 0 395 152q2 -3 7.5 -8t7.5 -8q-177 -156 -410 -156zM852 664q-31 0 -55 18l12 12q21 -14 43 -14q26 0 43 14q4 -4 10 -12
q-21 -18 -53 -18zM987 653q-7 10 -14 15q28 42 28 92q0 51 -28 90l2.5 2.5t5 4.5t5.5 5t1 2q35 -44 35 -104t-35 -107zM598 551q-72 91 -72 209q0 119 74 209l14 -15q-67 -87 -67 -194q0 -108 67 -195q-10 -10 -16 -14zM852 -35q-145 0 -278 52.5t-238 146.5l14 16
q102 -92 231 -143t271 -51q285 0 500 192q0 1 3.5 -2.5t6.5 -7.5l4 -4q-104 -95 -236 -147t-278 -52zM852 248q-189 0 -330 125l15 16q134 -121 315 -121q182 0 313 121q2 -3 7.5 -8t7.5 -8q-138 -125 -328 -125zM852 348q-145 0 -264 101l14 14q108 -94 250 -94
q143 0 248 94q2 -3 7 -8.5t7 -8.5q-112 -98 -262 -98zM852 428q-116 0 -211 78l14 16q86 -73 197 -73t197 73q4 -4 12 -16q-91 -78 -209 -78zM852 543q-77 0 -135 49l14 16q51 -45 121 -45q68 0 119 45q2 -3 7 -8t7 -8q-58 -49 -133 -49zM733 911q-4 3 -7 6.5t-6 6.5l-3 4
q58 49 135 49t135 -49l-16 -17q-51 45 -119 45t-119 -45zM1167 1130q-134 121 -315 121q-179 0 -313 -118l-15 14q141 125 328 125q189 0 330 -125q-4 -6 -15 -17zM930 709l-12 10q10 20 10 41t-10 41l12 10q14 -25 14 -51t-14 -51zM958 682q-10 10 -16 14q21 32 21 64
t-21 63l16 15q25 -36 25 -78t-25 -78zM1020 627q-6 4 -16 14q38 50 38 119t-38 119l14 14q45 -57 45 -133q0 -71 -43 -133zM1106 551q-3 2 -8 7t-8 7q67 87 67 195t-70 194l17 15q74 -90 74 -209q0 -118 -72 -209zM1163 498q-10 10 -16 14q88 109 88 248t-88 248l16 14
q92 -116 92 -262t-92 -262zM1237 432q-6 4 -16 14q112 134 112 314q0 182 -112 313l16 14q117 -139 117 -327q0 -189 -117 -328zM1329 350q-2 2 -7 6t-7 6q141 175 141 398q0 227 -143 395l16 14q148 -179 148 -409q0 -231 -148 -410zM1446 246q-6 6 -16 14q180 215 180 500
t-180 500l16 14q88 -105 136 -237t48 -277q0 -144 -48 -276t-136 -238zM375 348q-148 182 -148 412q0 229 146 409q2 -2 7.5 -6.5t8.5 -7.5q-141 -170 -141 -395q0 -228 141 -398zM684 627q-43 59 -43 133t43 133q6 -4 16 -14q-38 -50 -38 -119q0 -67 38 -117zM745 682
q-24 34 -24 78t24 78q2 -3 4.5 -5.5t6 -5.5t4.5 -4q-19 -34 -19 -63q0 -30 19 -64zM809 825l-10 13q21 18 53 18t53 -18l-10 -13q-23 15 -43 15q-25 0 -43 -15zM786 852l-14 14q37 29 80 29q41 0 78 -29q-8 -8 -12 -14q-28 25 -66 25q-34 0 -66 -25zM760 881l-15 16
q45 39 107 39q61 0 106 -39l-14 -16q-37 34 -92 34t-92 -34zM604 1057l-14 16q112 98 262 98q151 0 262 -100q1 0 -2 -3.5t-6 -7.5l-4 -3q-108 94 -250 94q-143 0 -248 -94zM852 492q-100 0 -170 61l14 16q70 -57 156 -57q87 0 154 57l14 -14q-73 -63 -168 -63zM852 584
q-61 0 -109 39l15 16q47 -35 94 -35q51 0 92 35l14 -16q-45 -39 -106 -39zM852 625q-43 0 -82 28l14 15q36 -25 68 -25q34 0 66 25l14 -15q-36 -28 -80 -28zM698 950l-14 15q73 63 168 63q98 0 168 -61l-14 -17q-68 58 -154 58q-87 0 -154 -58zM655 997l-14 17q91 78 211 78
q119 0 209 -80l-12 -15q-83 74 -197 74q-110 0 -197 -74zM1249 1223q-166 153 -397 153q-227 0 -397 -151l-15 14q179 158 412 158t412 -158zM352 1339l-14 17q104 95 236 146.5t278 51.5q145 0 278 -52t238 -146l-14 -17q-102 93 -231 144t-271 51t-270 -51t-230 -144z
M1057 594l-15 14q52 69 52 152t-54 153l17 15q57 -72 57 -168q0 -97 -57 -166z" />
    <glyph glyph-name="registered" unicode="&#xae;" horiz-adv-x="1366" 
d="M682 -20q-137 0 -240.5 37.5t-170.5 103t-108.5 165t-58 213.5t-16.5 259t16.5 259.5t58 215t108.5 166.5t170.5 103.5t240.5 37.5t240.5 -37.5t170.5 -103.5t109 -166t59 -215t17 -260q0 -144 -17 -258.5t-59 -214t-109 -165t-170.5 -103t-240.5 -37.5zM682 51
q120 0 211 34t149.5 94t94.5 150.5t50.5 194t14.5 234.5q0 133 -14.5 237t-50.5 195t-94.5 150.5t-149 93.5t-211.5 34q-120 0 -210.5 -34t-148.5 -93.5t-94 -150.5t-50.5 -195t-14.5 -237q0 -131 14.5 -234.5t50.5 -194t94 -150.5t148.5 -94t210.5 -34zM897 256l-195 420
h-196v-420h-105v1016h324q156 0 221.5 -70t65.5 -225q0 -135 -47.5 -206.5t-157.5 -88.5l194 -426h-104zM506 764h215q103 0 146.5 47t43.5 162q0 113 -43.5 160t-146.5 47h-215v-416z" />
    <glyph glyph-name="macron" unicode="&#xaf;" 
d="M180 1249v125h592v-125h-592z" />
    <glyph glyph-name="macron" unicode="&#x2c9;" 
d="M180 1249v125h592v-125h-592z" />
    <glyph glyph-name="degree" unicode="&#xb0;" horiz-adv-x="923" 
d="M463 575q-86 0 -150 24.5t-103 66t-63 104.5t-32.5 130.5t-8.5 154.5q0 86 8.5 153.5t32.5 130.5t63 104.5t103 66t150 24.5q87 0 151 -25t103 -66t62 -104.5t31.5 -130t8.5 -153.5t-8.5 -154t-31.5 -130.5t-62 -105t-103 -66t-151 -24.5zM463 694q58 0 99.5 18.5
t66.5 48.5t39 78t19 97.5t5 116.5t-5 115.5t-19 96t-39 77t-66.5 47.5t-99.5 18q-57 0 -98.5 -18t-66.5 -47.5t-40 -76.5t-20 -96.5t-5 -115.5q0 -67 5 -117t20 -97.5t40 -78t66.5 -48.5t98.5 -18z" />
    <glyph glyph-name="plusminus" unicode="&#xb1;" horiz-adv-x="1642" 
d="M748 0v997h-383v-997h-150v997h-172v131h172v150q0 301 295 301h92v-133h-80q-48 0 -80 -12.5t-48.5 -38.5t-22.5 -56t-6 -73v-138h383v150q0 144 68 222.5t226 78.5h93v-133h-82q-91 0 -123.5 -45.5t-32.5 -134.5v-138h238v-131h-238v-997h-149zM1567 0q-8 -2 -49 -2
q-142 0 -191 54t-49 192v1331h149v-1315q0 -41 3 -60.5t16.5 -37.5t41.5 -23.5t79 -5.5v-133z" />
    <glyph glyph-name="twosuperior" unicode="&#xb2;" horiz-adv-x="735" 
d="M109 596v84l194 256q129 172 159 225t30 117q0 74 -32 105.5t-106 31.5q-107 0 -188 -43l-53 103q108 53 258 53q128 0 184.5 -56.5t56.5 -177.5q0 -66 -18.5 -118t-57 -110.5t-141.5 -195.5l-129 -172h359v-102h-516z" />
    <glyph glyph-name="threesuperior" unicode="&#xb3;" horiz-adv-x="739" 
d="M342 586q-151 0 -246 59l54 94q80 -47 184 -47q94 0 132 40.5t38 144.5q0 43 -5.5 68.5t-23.5 48.5t-54 32.5t-95 9.5h-109v107h113q88 0 120.5 34.5t32.5 102.5q0 84 -32.5 110.5t-112.5 26.5q-96 0 -180 -41l-49 97q105 55 243 55q65 0 108 -9t77 -33.5t49.5 -69
t15.5 -113.5q0 -78 -20.5 -127t-73.5 -74q71 -24 93 -77t22 -159q0 -155 -67 -217.5t-214 -62.5z" />
    <glyph glyph-name="acute" unicode="&#xb4;" 
d="M356 1249l234 318h168l-266 -318h-136z" />
    <glyph glyph-name="mu" unicode="&#xb5;" horiz-adv-x="1013" 
d="M121 -324v1452h149v-718q0 -63 4.5 -104t19 -80t41 -60.5t71 -34t108.5 -12.5t107.5 13t69.5 34t40 60t18.5 80t4.5 104v718h145v-727q0 -89 -8.5 -150t-32 -115t-65.5 -85.5t-110 -49t-165 -17.5q-191 0 -248 94v-402h-149z" />
    <glyph glyph-name="mu" unicode="&#x3bc;" horiz-adv-x="1013" 
d="M121 -324v1452h149v-718q0 -63 4.5 -104t19 -80t41 -60.5t71 -34t108.5 -12.5t107.5 13t69.5 34t40 60t18.5 80t4.5 104v718h145v-727q0 -89 -8.5 -150t-32 -115t-65.5 -85.5t-110 -49t-165 -17.5q-191 0 -248 94v-402h-149z" />
    <glyph glyph-name="paragraph" unicode="&#xb6;" horiz-adv-x="1017" 
d="M416 0v621q-182 24 -259 130.5t-77 315.5q0 120 23 203t76 139.5t139 82.5t212 26h349v-1518h-146v614h-172v-614h-145zM528 745h205v637h-205q-162 0 -230.5 -71.5t-68.5 -247.5q0 -175 68.5 -246.5t230.5 -71.5z" />
    <glyph glyph-name="periodcentered" unicode="&#xb7;" horiz-adv-x="409" 
d="M111 571v224h188v-224h-188z" />
    <glyph glyph-name="periodcentered" unicode="&#x2219;" horiz-adv-x="409" 
d="M111 571v224h188v-224h-188z" />
    <glyph glyph-name="cedilla" unicode="&#xb8;" 
d="M512 -434q-100 0 -193 41l37 80q85 -29 148 -29q71 0 98 24t27 76q0 55 -33 72t-121 12l-43 31l29 141h94l-18 -106q43 3 76.5 -2t62.5 -21t45 -50t16 -85q0 -93 -51 -138.5t-174 -45.5z" />
    <glyph glyph-name="onesuperior" unicode="&#xb9;" horiz-adv-x="522" 
d="M227 596v809h-139v113h264v-922h-125z" />
    <glyph glyph-name="ordmasculine" unicode="&#xba;" horiz-adv-x="892" 
d="M446 588q-88 0 -152.5 24.5t-102.5 64.5t-60 103.5t-29.5 128.5t-7.5 152t7.5 151.5t29.5 128t60 104t102.5 65t152.5 24.5q89 0 154 -25t103 -65.5t60.5 -104t30 -128t7.5 -150.5q0 -88 -7.5 -153t-30 -128.5t-60.5 -103t-103 -64t-154 -24.5zM446 700q60 0 102 19
t66 49t37.5 80t17 96.5t3.5 114.5q0 67 -3.5 113.5t-17 96t-37.5 79t-66 48.5t-102 19t-102 -19t-66 -48.5t-37 -79t-16.5 -95.5t-3.5 -114t3.5 -114.5t16.5 -96.5t37 -80t66 -49t102 -19zM119 311v115h655v-115h-655z" />
    <glyph glyph-name="guillemotright" unicode="&#xbb;" horiz-adv-x="1118" 
d="M178 0l238 565l-238 563h135l244 -563l-244 -565h-135zM598 0l236 565l-236 563h135l242 -563l-242 -565h-135z" />
    <glyph glyph-name="onequarter" unicode="&#xbc;" horiz-adv-x="1449" 
d="M301 0l653 1518h140l-656 -1518h-137zM770 199v98l322 625h129l-322 -621h238l24 264h92v-264h125v-102h-125v-199h-116v199h-367zM248 596v809h-139v113h264v-922h-125z" />
    <glyph glyph-name="onehalf" unicode="&#xbd;" horiz-adv-x="1554" 
d="M301 0l653 1518h140l-656 -1518h-137zM248 596v809h-139v113h264v-922h-125zM915 0v86l197 252q128 172 158 226t30 120q0 74 -31.5 104.5t-105.5 30.5q-104 0 -188 -41l-53 101q105 55 256 55q128 0 185.5 -57.5t57.5 -176.5q0 -93 -37 -162.5t-182 -263.5l-127 -172
h357v-102h-517z" />
    <glyph glyph-name="threequarters" unicode="&#xbe;" horiz-adv-x="1589" 
d="M438 0l656 1518h137l-656 -1518h-137zM342 586q-151 0 -246 59l54 94q80 -47 184 -47q94 0 132 40.5t38 144.5q0 43 -5.5 68.5t-23.5 48.5t-54 32.5t-95 9.5h-109v107h113q88 0 120.5 34.5t32.5 102.5q0 84 -32.5 110.5t-112.5 26.5q-96 0 -180 -41l-49 97q105 55 243 55
q65 0 108 -9t77 -33.5t49.5 -69t15.5 -113.5q0 -78 -20.5 -127t-73.5 -74q71 -24 93 -77t22 -159q0 -155 -67 -217.5t-214 -62.5zM909 199v98l324 625h129l-324 -621h240l25 264h90v-264h127v-102h-127v-199h-115v199h-369z" />
    <glyph glyph-name="questiondown" unicode="&#xbf;" horiz-adv-x="1062" 
d="M539 -16q-107 0 -180.5 24.5t-113.5 71.5t-56.5 104.5t-16.5 134.5q0 63 11.5 114.5t38 98t54 81t74.5 85.5q68 73 98.5 110t50.5 85.5t22.5 89.5t0.5 127h146q2 -94 -2.5 -145t-27 -106t-57.5 -99t-108 -123q-88 -96 -119.5 -154t-31.5 -141q0 -51 10 -88t35 -68t73 -47
t119 -16q163 0 307 76l68 -127q-172 -88 -395 -88zM502 1315v203h186v-203h-186z" />
    <glyph glyph-name="Agrave" unicode="&#xc0;" horiz-adv-x="1181" 
d="M47 0l465 1528h158l467 -1528h-156l-104 348h-578l-102 -348h-150zM340 487h496l-246 820zM574 1607l-268 318h172l231 -318h-135z" />
    <glyph glyph-name="Aacute" unicode="&#xc1;" horiz-adv-x="1181" 
d="M47 0l465 1528h158l467 -1528h-156l-104 348h-578l-102 -348h-150zM340 487h496l-246 820zM469 1607l234 318h168l-266 -318h-136z" />
    <glyph glyph-name="Acircumflex" unicode="&#xc2;" horiz-adv-x="1181" 
d="M47 0l465 1528h158l467 -1528h-156l-104 348h-578l-102 -348h-150zM340 487h496l-246 820zM287 1607l232 318h145l229 -318h-129l-176 211l-176 -211h-125z" />
    <glyph glyph-name="Atilde" unicode="&#xc3;" horiz-adv-x="1181" 
d="M47 0l465 1528h158l467 -1528h-156l-104 348h-578l-102 -348h-150zM340 487h496l-246 820zM365 1601l-100 55q73 152 198 152q43 0 88 -21t83.5 -42t66.5 -21q33 0 57 22.5t55 71.5l101 -57q-75 -156 -201 -156q-43 0 -88 20t-84 40t-66 20q-33 0 -58 -20.5t-52 -63.5z
" />
    <glyph glyph-name="Adieresis" unicode="&#xc4;" horiz-adv-x="1181" 
d="M47 0l465 1528h158l467 -1528h-156l-104 348h-578l-102 -348h-150zM340 487h496l-246 820zM349 1607v195h135v-195h-135zM697 1607v195h137v-195h-137z" />
    <glyph glyph-name="Aring" unicode="&#xc5;" horiz-adv-x="1181" 
d="M47 0l445 1460q-103 49 -103 209q0 104 48.5 166.5t152.5 62.5q103 0 152 -62.5t49 -166.5q0 -154 -103 -207l449 -1462h-156l-104 348h-578l-102 -348h-150zM340 487h496l-246 820zM590 1528q110 0 110 141q0 143 -110 143q-113 0 -113 -143q0 -141 113 -141z" />
    <glyph glyph-name="AE" unicode="&#xc6;" horiz-adv-x="1740" 
d="M35 0l733 1518h874v-142h-647v-520h613v-139h-613v-578h654v-139h-803v354h-490l-170 -354h-151zM420 485h426v881z" />
    <glyph glyph-name="Ccedilla" unicode="&#xc7;" horiz-adv-x="1034" 
d="M551 -434q-100 0 -193 41l37 80q85 -29 148 -29q71 0 98 24t27 76q0 55 -33 72t-121 12l-43 31l23 119q-101 14 -175.5 58t-121.5 108.5t-75.5 159.5t-39 199t-10.5 241q0 151 12.5 261.5t47 212t94 165t157 100.5t231.5 37q217 0 357 -90l-82 -127q-112 67 -277 67
q-93 0 -160 -26.5t-110.5 -74.5t-69 -127.5t-35.5 -174t-10 -225.5t10 -225.5t35 -175t68.5 -129.5t110.5 -76t161 -27q99 0 166.5 20t136.5 62l76 -119q-82 -52 -168.5 -77t-216.5 -25q-3 0 -9 1t-9 1l-13 -78q43 3 76.5 -2t63 -21t45.5 -50t16 -85q0 -93 -51 -138.5
t-174 -45.5z" />
    <glyph glyph-name="Egrave" unicode="&#xc8;" horiz-adv-x="1034" 
d="M139 0v1518h797v-142h-647v-518h612v-141h-612v-578h653v-139h-803zM500 1607l-268 318h172l231 -318h-135z" />
    <glyph glyph-name="Eacute" unicode="&#xc9;" horiz-adv-x="1034" 
d="M395 1608l234 317h168l-267 -317h-135zM139 0v1518h797v-142h-647v-518h612v-141h-612v-578h653v-139h-803z" />
    <glyph glyph-name="Ecircumflex" unicode="&#xca;" horiz-adv-x="1034" 
d="M213 1608l231 317h146l229 -317h-129l-176 211l-176 -211h-125zM139 0v1518h797v-142h-647v-518h612v-141h-612v-578h653v-139h-803z" />
    <glyph glyph-name="Edieresis" unicode="&#xcb;" horiz-adv-x="1034" 
d="M274 1608v194h136v-194h-136zM623 1608v194h137v-194h-137zM139 0v1518h797v-142h-647v-518h612v-141h-612v-578h653v-139h-803z" />
    <glyph glyph-name="Igrave" unicode="&#xcc;" horiz-adv-x="454" 
d="M166 1608l-219 317h166l184 -317h-131zM152 0v1518h153v-1518h-153z" />
    <glyph glyph-name="Iacute" unicode="&#xcd;" horiz-adv-x="454" 
d="M158 1608l182 317h166l-217 -317h-131zM152 0v1518h153v-1518h-153z" />
    <glyph glyph-name="Icircumflex" unicode="&#xce;" horiz-adv-x="454" 
d="M-68 1608l222 317h145l223 -317h-127l-170 211l-168 -211h-125zM152 0v1518h153v-1518h-153z" />
    <glyph glyph-name="Idieresis" unicode="&#xcf;" horiz-adv-x="454" 
d="M152 0v1518h153v-1518h-153zM-12 1607v195h135v-195h-135zM336 1607v195h137v-195h-137z" />
    <glyph glyph-name="Eth" unicode="&#xd0;" horiz-adv-x="1198" 
d="M2 721v129h137v668h414q101 0 181.5 -17t140.5 -48t103.5 -80.5t72 -109t45.5 -140.5t23.5 -167t6.5 -196q0 -113 -6.5 -199.5t-23.5 -168.5t-45.5 -141t-73 -108.5t-105.5 -79.5t-143.5 -46.5t-187.5 -16.5h-402v721h-137zM293 135h258q90 0 157 17.5t113 55.5
t75.5 87.5t46 123.5t22.5 152.5t6 186.5q0 91 -4 159.5t-15.5 136t-30.5 115t-50 89t-74.5 66t-102.5 38.5t-135 14h-266v-526h264v-129h-264v-586z" />
    <glyph glyph-name="Ntilde" unicode="&#xd1;" horiz-adv-x="1251" 
d="M139 0v1518h168l660 -1213v1213h147v-1518h-143l-686 1255v-1255h-146zM399 1601l-100 55q73 152 198 152q43 0 88 -21t83.5 -42t66.5 -21q33 0 57 22.5t55 71.5l101 -57q-75 -156 -201 -156q-43 0 -88 20t-84 40t-66 20q-33 0 -58 -20.5t-52 -63.5z" />
    <glyph glyph-name="Ograve" unicode="&#xd2;" horiz-adv-x="1257" 
d="M631 -16q-105 0 -188.5 21.5t-142 57t-100.5 93.5t-66.5 119t-38.5 145t-18.5 160.5t-4.5 177.5t4.5 177.5t18.5 161t38.5 145.5t66.5 119t100.5 94t142 57.5t188.5 21.5t187.5 -21.5t140.5 -57.5t99.5 -94t66 -119t38.5 -145.5t18.5 -161.5t4.5 -177t-4.5 -177
t-18.5 -161t-38.5 -145t-66 -119t-99.5 -93.5t-140.5 -57t-187.5 -21.5zM631 123q77 0 137 17t102 45t72 74.5t47 95t27 118.5t13 132.5t3 148.5q0 74 -2.5 130.5t-9 119t-20 108.5t-33.5 92t-50 77t-70.5 56t-94.5 37t-121 12q-78 0 -138.5 -17t-103 -45t-72.5 -75
t-47.5 -95.5t-27 -118.5t-12.5 -132.5t-3 -148.5t3 -148.5t12.5 -132.5t27 -118.5t47.5 -95t72.5 -74.5t103 -45t138.5 -17zM613 1607l-268 318h172l231 -318h-135z" />
    <glyph glyph-name="Oacute" unicode="&#xd3;" horiz-adv-x="1257" 
d="M508 1608l233 317h168l-266 -317h-135zM631 -16q-105 0 -188.5 21.5t-142 57t-100.5 93.5t-66.5 119t-38.5 145t-18.5 160.5t-4.5 177.5t4.5 177.5t18.5 161t38.5 145.5t66.5 119t100.5 94t142 57.5t188.5 21.5t187.5 -21.5t140.5 -57.5t99.5 -94t66 -119t38.5 -145.5
t18.5 -161.5t4.5 -177t-4.5 -177t-18.5 -161t-38.5 -145t-66 -119t-99.5 -93.5t-140.5 -57t-187.5 -21.5zM631 123q77 0 137 17t102 45t72 74.5t47 95t27 118.5t13 132.5t3 148.5q0 74 -2.5 130.5t-9 119t-20 108.5t-33.5 92t-50 77t-70.5 56t-94.5 37t-121 12
q-78 0 -138.5 -17t-103 -45t-72.5 -75t-47.5 -95.5t-27 -118.5t-12.5 -132.5t-3 -148.5t3 -148.5t12.5 -132.5t27 -118.5t47.5 -95t72.5 -74.5t103 -45t138.5 -17z" />
    <glyph glyph-name="Ocircumflex" unicode="&#xd4;" horiz-adv-x="1257" 
d="M326 1608l231 317h145l230 -317h-129l-176 211l-176 -211h-125zM631 -16q-105 0 -188.5 21.5t-142 57t-100.5 93.5t-66.5 119t-38.5 145t-18.5 160.5t-4.5 177.5t4.5 177.5t18.5 161t38.5 145.5t66.5 119t100.5 94t142 57.5t188.5 21.5t187.5 -21.5t140.5 -57.5t99.5 -94
t66 -119t38.5 -145.5t18.5 -161.5t4.5 -177t-4.5 -177t-18.5 -161t-38.5 -145t-66 -119t-99.5 -93.5t-140.5 -57t-187.5 -21.5zM631 123q77 0 137 17t102 45t72 74.5t47 95t27 118.5t13 132.5t3 148.5q0 74 -2.5 130.5t-9 119t-20 108.5t-33.5 92t-50 77t-70.5 56t-94.5 37
t-121 12q-78 0 -138.5 -17t-103 -45t-72.5 -75t-47.5 -95.5t-27 -118.5t-12.5 -132.5t-3 -148.5t3 -148.5t12.5 -132.5t27 -118.5t47.5 -95t72.5 -74.5t103 -45t138.5 -17z" />
    <glyph glyph-name="Otilde" unicode="&#xd5;" horiz-adv-x="1257" 
d="M631 -16q-105 0 -188.5 21.5t-142 57t-100.5 93.5t-66.5 119t-38.5 145t-18.5 160.5t-4.5 177.5t4.5 177.5t18.5 161t38.5 145.5t66.5 119t100.5 94t142 57.5t188.5 21.5t187.5 -21.5t140.5 -57.5t99.5 -94t66 -119t38.5 -145.5t18.5 -161.5t4.5 -177t-4.5 -177
t-18.5 -161t-38.5 -145t-66 -119t-99.5 -93.5t-140.5 -57t-187.5 -21.5zM631 123q77 0 137 17t102 45t72 74.5t47 95t27 118.5t13 132.5t3 148.5q0 74 -2.5 130.5t-9 119t-20 108.5t-33.5 92t-50 77t-70.5 56t-94.5 37t-121 12q-78 0 -138.5 -17t-103 -45t-72.5 -75
t-47.5 -95.5t-27 -118.5t-12.5 -132.5t-3 -148.5t3 -148.5t12.5 -132.5t27 -118.5t47.5 -95t72.5 -74.5t103 -45t138.5 -17zM404 1601l-100 55q73 152 198 152q43 0 88 -21t83.5 -42t66.5 -21q33 0 57 22.5t55 71.5l101 -57q-75 -156 -201 -156q-43 0 -88 20t-84 40t-66 20
q-33 0 -58 -20.5t-52 -63.5z" />
    <glyph glyph-name="Odieresis" unicode="&#xd6;" horiz-adv-x="1257" 
d="M387 1608v194h135v-194h-135zM735 1608v194h137v-194h-137zM631 -16q-105 0 -188.5 21.5t-142 57t-100.5 93.5t-66.5 119t-38.5 145t-18.5 160.5t-4.5 177.5t4.5 177.5t18.5 161t38.5 145.5t66.5 119t100.5 94t142 57.5t188.5 21.5t187.5 -21.5t140.5 -57.5t99.5 -94
t66 -119t38.5 -145.5t18.5 -161.5t4.5 -177t-4.5 -177t-18.5 -161t-38.5 -145t-66 -119t-99.5 -93.5t-140.5 -57t-187.5 -21.5zM631 123q77 0 137 17t102 45t72 74.5t47 95t27 118.5t13 132.5t3 148.5q0 74 -2.5 130.5t-9 119t-20 108.5t-33.5 92t-50 77t-70.5 56t-94.5 37
t-121 12q-78 0 -138.5 -17t-103 -45t-72.5 -75t-47.5 -95.5t-27 -118.5t-12.5 -132.5t-3 -148.5t3 -148.5t12.5 -132.5t27 -118.5t47.5 -95t72.5 -74.5t103 -45t138.5 -17z" />
    <glyph glyph-name="multiply" unicode="&#xd7;" horiz-adv-x="1128" 
d="M307 369l-90 94l254 258l-254 256l90 94l258 -258l258 258l90 -94l-258 -256l256 -256l-88 -94l-258 256z" />
    <glyph glyph-name="Oslash" unicode="&#xd8;" horiz-adv-x="1257" 
d="M213 -84l70 158q-66 47 -110 118t-65 165t-28.5 185.5t-7.5 215.5q0 101 4.5 177.5t18.5 161t38.5 145.5t66.5 119t100.5 94t142 57.5t188.5 21.5q125 0 229 -33l49 103h138l-72 -162q66 -47 109.5 -118.5t64.5 -165.5t29 -186t8 -214q0 -100 -4.5 -177t-18.5 -161
t-38.5 -145t-66 -119t-99.5 -93.5t-140.5 -57t-187.5 -21.5q-129 0 -230 32l-43 -100h-145zM631 117q68 0 123 12t95.5 37t71 56.5t50.5 78t33 92.5t19 109.5t8.5 119.5t2.5 132q0 203 -25.5 333.5t-101.5 206.5l-458 -1149q76 -28 182 -28zM223 754q0 -205 24 -335t99 -206
l457 1149q-76 29 -172 29q-61 0 -112 -10.5t-90 -28t-69.5 -47t-52 -61.5t-37 -76.5t-24.5 -87.5t-14.5 -100.5t-7 -108.5t-1.5 -117z" />
    <glyph glyph-name="Ugrave" unicode="&#xd9;" horiz-adv-x="1249" 
d="M627 -18q-143 0 -241 33.5t-153.5 101.5t-79.5 159.5t-24 219.5v1022h154v-1012q0 -98 15.5 -165.5t53.5 -118.5t106 -75t169 -24t169 24t106.5 74.5t54.5 118.5t16 166v1012h147v-1022q0 -128 -22.5 -218.5t-77.5 -159.5t-152.5 -102.5t-240.5 -33.5zM606 1607l-268 318
h172l231 -318h-135z" />
    <glyph glyph-name="Uacute" unicode="&#xda;" horiz-adv-x="1249" 
d="M502 1608l233 317h168l-266 -317h-135zM627 -18q-143 0 -241 33.5t-153.5 101.5t-79.5 159.5t-24 219.5v1022h154v-1012q0 -98 15.5 -165.5t53.5 -118.5t106 -75t169 -24t169 24t106.5 74.5t54.5 118.5t16 166v1012h147v-1022q0 -128 -22.5 -218.5t-77.5 -159.5
t-152.5 -102.5t-240.5 -33.5z" />
    <glyph glyph-name="Ucircumflex" unicode="&#xdb;" horiz-adv-x="1249" 
d="M319 1608l232 317h145l230 -317h-129l-176 211l-177 -211h-125zM627 -18q-143 0 -241 33.5t-153.5 101.5t-79.5 159.5t-24 219.5v1022h154v-1012q0 -98 15.5 -165.5t53.5 -118.5t106 -75t169 -24t169 24t106.5 74.5t54.5 118.5t16 166v1012h147v-1022
q0 -128 -22.5 -218.5t-77.5 -159.5t-152.5 -102.5t-240.5 -33.5z" />
    <glyph glyph-name="Udieresis" unicode="&#xdc;" horiz-adv-x="1249" 
d="M381 1608v194h135v-194h-135zM729 1608v194h137v-194h-137zM627 -18q-143 0 -241 33.5t-153.5 101.5t-79.5 159.5t-24 219.5v1022h154v-1012q0 -98 15.5 -165.5t53.5 -118.5t106 -75t169 -24t169 24t106.5 74.5t54.5 118.5t16 166v1012h147v-1022q0 -128 -22.5 -218.5
t-77.5 -159.5t-152.5 -102.5t-240.5 -33.5z" />
    <glyph glyph-name="Yacute" unicode="&#xdd;" horiz-adv-x="1126" 
d="M487 0v559l-469 959h166l381 -789l383 789h158l-467 -959v-559h-152zM440 1607l234 318h168l-266 -318h-136z" />
    <glyph glyph-name="Thorn" unicode="&#xde;" horiz-adv-x="1105" 
d="M139 0v1518h152v-263h338q231 0 332.5 -107.5t101.5 -342.5t-102 -345t-336 -110h-334v-350h-152zM291 483h332q153 0 220.5 72.5t67.5 245.5q0 174 -67.5 245.5t-220.5 71.5h-332v-635z" />
    <glyph glyph-name="germandbls" unicode="&#xdf;" horiz-adv-x="1060" 
d="M121 0v1196q0 191 94.5 289t306.5 98q206 0 296.5 -91.5t90.5 -301.5q0 -161 -34.5 -246t-120.5 -119q133 -30 184 -123t51 -278q0 -156 -42 -246t-143 -134t-278 -44h-110v135h110q180 0 248 70.5t68 236.5q0 162 -67 232.5t-240 70.5h-46v129h43q124 0 179 65.5
t55 217.5q0 154 -57 219.5t-187 65.5q-132 0 -193 -63t-61 -195v-1184h-147z" />
    <glyph glyph-name="agrave" unicode="&#xe0;" horiz-adv-x="1017" 
d="M401 -12q-172 0 -249.5 88t-77.5 262q0 99 24.5 170.5t69.5 118.5t118.5 75t161 39t207.5 11h50q-3 139 -47 199.5t-171 60.5q-152 0 -276 -62l-64 123q148 76 353 76q110 0 179.5 -23.5t107.5 -77t51.5 -123.5t13.5 -180v-495q0 -73 15 -95t77 -22v-133q-12 -2 -39 -2
q-93 0 -130.5 25.5t-49.5 91.5q-50 -70 -129.5 -98.5t-194.5 -28.5zM430 115q275 0 275 323v185h-48q-97 0 -163 -6t-122 -23t-88 -47.5t-49.5 -78.5t-17.5 -118q0 -131 53 -183t160 -52zM492 1249l-268 318h172l231 -318h-135z" />
    <glyph glyph-name="aacute" unicode="&#xe1;" horiz-adv-x="1017" 
d="M401 -12q-172 0 -249.5 88t-77.5 262q0 99 24.5 170.5t69.5 118.5t118.5 75t161 39t207.5 11h50q-3 139 -47 199.5t-171 60.5q-152 0 -276 -62l-64 123q148 76 353 76q110 0 179.5 -23.5t107.5 -77t51.5 -123.5t13.5 -180v-495q0 -73 15 -95t77 -22v-133q-12 -2 -39 -2
q-93 0 -130.5 25.5t-49.5 91.5q-50 -70 -129.5 -98.5t-194.5 -28.5zM430 115q275 0 275 323v185h-48q-97 0 -163 -6t-122 -23t-88 -47.5t-49.5 -78.5t-17.5 -118q0 -131 53 -183t160 -52zM387 1249l234 318h168l-266 -318h-136z" />
    <glyph glyph-name="acircumflex" unicode="&#xe2;" horiz-adv-x="1017" 
d="M401 -12q-172 0 -249.5 88t-77.5 262q0 99 24.5 170.5t69.5 118.5t118.5 75t161 39t207.5 11h50q-3 139 -47 199.5t-171 60.5q-152 0 -276 -62l-64 123q148 76 353 76q110 0 179.5 -23.5t107.5 -77t51.5 -123.5t13.5 -180v-495q0 -73 15 -95t77 -22v-133q-12 -2 -39 -2
q-93 0 -130.5 25.5t-49.5 91.5q-50 -70 -129.5 -98.5t-194.5 -28.5zM430 115q275 0 275 323v185h-48q-97 0 -163 -6t-122 -23t-88 -47.5t-49.5 -78.5t-17.5 -118q0 -131 53 -183t160 -52zM205 1249l232 318h145l229 -318h-129l-176 211l-176 -211h-125z" />
    <glyph glyph-name="atilde" unicode="&#xe3;" horiz-adv-x="1017" 
d="M401 -12q-172 0 -249.5 88t-77.5 262q0 99 24.5 170.5t69.5 118.5t118.5 75t161 39t207.5 11h50q-3 139 -47 199.5t-171 60.5q-152 0 -276 -62l-64 123q148 76 353 76q110 0 179.5 -23.5t107.5 -77t51.5 -123.5t13.5 -180v-495q0 -73 15 -95t77 -22v-133q-12 -2 -39 -2
q-93 0 -130.5 25.5t-49.5 91.5q-50 -70 -129.5 -98.5t-194.5 -28.5zM430 115q275 0 275 323v185h-48q-97 0 -163 -6t-122 -23t-88 -47.5t-49.5 -78.5t-17.5 -118q0 -131 53 -183t160 -52zM283 1243l-100 55q73 152 198 152q43 0 88 -21t83.5 -42t66.5 -21q33 0 57 22.5
t55 71.5l101 -57q-75 -156 -201 -156q-43 0 -88 20t-84 40t-66 20q-33 0 -58 -20.5t-52 -63.5z" />
    <glyph glyph-name="adieresis" unicode="&#xe4;" horiz-adv-x="1017" 
d="M401 -12q-172 0 -249.5 88t-77.5 262q0 99 24.5 170.5t69.5 118.5t118.5 75t161 39t207.5 11h50q-3 139 -47 199.5t-171 60.5q-152 0 -276 -62l-64 123q148 76 353 76q110 0 179.5 -23.5t107.5 -77t51.5 -123.5t13.5 -180v-495q0 -73 15 -95t77 -22v-133q-12 -2 -39 -2
q-93 0 -130.5 25.5t-49.5 91.5q-50 -70 -129.5 -98.5t-194.5 -28.5zM430 115q275 0 275 323v185h-48q-97 0 -163 -6t-122 -23t-88 -47.5t-49.5 -78.5t-17.5 -118q0 -131 53 -183t160 -52zM267 1249v195h135v-195h-135zM615 1249v195h137v-195h-137z" />
    <glyph glyph-name="aring" unicode="&#xe5;" horiz-adv-x="1017" 
d="M401 -12q-172 0 -249.5 88t-77.5 262q0 99 24.5 170.5t69.5 118.5t118.5 75t161 39t207.5 11h50q-3 139 -47 199.5t-171 60.5q-152 0 -276 -62l-64 123q148 76 353 76q110 0 179.5 -23.5t107.5 -77t51.5 -123.5t13.5 -180v-495q0 -73 15 -95t77 -22v-133q-12 -2 -39 -2
q-93 0 -130.5 25.5t-49.5 91.5q-50 -70 -129.5 -98.5t-194.5 -28.5zM430 115q275 0 275 323v185h-48q-97 0 -163 -6t-122 -23t-88 -47.5t-49.5 -78.5t-17.5 -118q0 -131 53 -183t160 -52zM508 1237q-104 0 -152.5 62t-48.5 165q0 104 48.5 167t152.5 63q103 0 152 -63
t49 -167q0 -102 -49 -164.5t-152 -62.5zM508 1323q111 0 111 141q0 144 -111 144q-112 0 -112 -144q0 -141 112 -141z" />
    <glyph glyph-name="ae" unicode="&#xe6;" horiz-adv-x="1579" 
d="M1128 -14q-148 0 -235 52t-129 152q-44 -108 -136.5 -155t-236.5 -47q-164 0 -240.5 88.5t-76.5 261.5q0 123 36 204t113 126.5t179 63.5t253 18h50q-1 70 -9.5 114.5t-31.5 80t-66.5 51.5t-110.5 16q-152 0 -276 -62l-64 123q148 76 353 76q129 0 200 -36.5t101 -111.5
q97 146 327 146q82 0 143.5 -17t101 -48.5t67 -76t39.5 -99.5t18.5 -119.5t5.5 -135.5t0 -147h-655q2 -99 14 -164.5t42.5 -119t88 -78.5t144.5 -25q67 0 123.5 11t86 22.5t70.5 31.5l60 -116q-149 -80 -349 -80zM430 115q275 0 275 323v185h-48q-97 0 -163 -6t-122 -23
t-88 -47.5t-49.5 -78.5t-17.5 -118q0 -131 53 -183t160 -52zM1126 1014q-66 0 -114 -17.5t-78 -48t-49 -79.5t-26.5 -102.5t-10.5 -127.5h518q-4 167 -19 226q-27 105 -116 135q-43 14 -105 14z" />
    <glyph glyph-name="ccedilla" unicode="&#xe7;" horiz-adv-x="839" 
d="M455 -434q-100 0 -193 41l37 80q85 -29 147 -29q71 0 98 24t27 76q0 55 -32.5 72t-120.5 12l-43 31l22 119q-77 13 -133.5 46.5t-92 82.5t-56.5 120t-29 148t-8 178q0 94 7 166.5t24.5 140.5t49 116t78.5 84.5t115 54.5t156 18q155 0 264 -53l-63 -131q-89 45 -195 45
q-86 0 -142.5 -28.5t-87.5 -89t-43 -137.5t-12 -190q0 -90 6.5 -155t25 -122.5t50.5 -93t83 -55.5t122 -20q107 0 215 55l60 -117q-73 -37 -138 -54t-151 -17h-10l-13 -76q43 3 76.5 -2t63 -21t45.5 -50t16 -85q0 -93 -51 -138.5t-174 -45.5z" />
    <glyph glyph-name="egrave" unicode="&#xe8;" 
d="M504 -14q-107 0 -184 27.5t-123.5 74.5t-73.5 123.5t-36 158.5t-9 197q0 111 10.5 194t38.5 158.5t75 123.5t123 76t179 28q62 0 111.5 -9t87 -26t66 -42.5t47 -58.5t31.5 -73.5t19 -88.5t9.5 -102.5t3.5 -115v-127.5h-658q2 -99 14.5 -164.5t43.5 -119t87.5 -78.5
t143.5 -25q68 0 125.5 11t87 22.5t70.5 31.5l59 -116q-149 -80 -348 -80zM502 1014q-81 0 -135.5 -25t-85 -76.5t-44 -115.5t-16.5 -156h518q-4 166 -17 221q-25 104 -108 135q-45 17 -112 17zM461 1249l-268 318h172l231 -318h-135z" />
    <glyph glyph-name="eacute" unicode="&#xe9;" 
d="M356 1249l234 318h168l-266 -318h-136zM504 -14q-107 0 -184 27.5t-123.5 74.5t-73.5 123.5t-36 158.5t-9 197q0 111 10.5 194t38.5 158.5t75 123.5t123 76t179 28q62 0 111.5 -9t87 -26t66 -42.5t47 -58.5t31.5 -73.5t19 -88.5t9.5 -102.5t3.5 -115v-127.5h-658
q2 -99 14.5 -164.5t43.5 -119t87.5 -78.5t143.5 -25q68 0 125.5 11t87 22.5t70.5 31.5l59 -116q-149 -80 -348 -80zM502 1014q-81 0 -135.5 -25t-85 -76.5t-44 -115.5t-16.5 -156h518q-4 166 -17 221q-25 104 -108 135q-45 17 -112 17z" />
    <glyph glyph-name="ecircumflex" unicode="&#xea;" 
d="M174 1249l232 318h145l229 -318h-129l-176 211l-176 -211h-125zM504 -14q-107 0 -184 27.5t-123.5 74.5t-73.5 123.5t-36 158.5t-9 197q0 111 10.5 194t38.5 158.5t75 123.5t123 76t179 28q62 0 111.5 -9t87 -26t66 -42.5t47 -58.5t31.5 -73.5t19 -88.5t9.5 -102.5
t3.5 -115v-127.5h-658q2 -99 14.5 -164.5t43.5 -119t87.5 -78.5t143.5 -25q68 0 125.5 11t87 22.5t70.5 31.5l59 -116q-149 -80 -348 -80zM502 1014q-81 0 -135.5 -25t-85 -76.5t-44 -115.5t-16.5 -156h518q-4 166 -17 221q-25 104 -108 135q-45 17 -112 17z" />
    <glyph glyph-name="edieresis" unicode="&#xeb;" 
d="M236 1249v195h135v-195h-135zM584 1249v195h137v-195h-137zM504 -14q-107 0 -184 27.5t-123.5 74.5t-73.5 123.5t-36 158.5t-9 197q0 111 10.5 194t38.5 158.5t75 123.5t123 76t179 28q62 0 111.5 -9t87 -26t66 -42.5t47 -58.5t31.5 -73.5t19 -88.5t9.5 -102.5t3.5 -115
v-127.5h-658q2 -99 14.5 -164.5t43.5 -119t87.5 -78.5t143.5 -25q68 0 125.5 11t87 22.5t70.5 31.5l59 -116q-149 -80 -348 -80zM502 1014q-81 0 -135.5 -25t-85 -76.5t-44 -115.5t-16.5 -156h518q-4 166 -17 221q-25 104 -108 135q-45 17 -112 17z" />
    <glyph glyph-name="igrave" unicode="&#xec;" horiz-adv-x="405" 
d="M141 1249l-178 318h166l143 -318h-131zM127 0v1128h149v-1128h-149z" />
    <glyph glyph-name="iacute" unicode="&#xed;" horiz-adv-x="405" 
d="M131 1249l143 318h166l-178 -318h-131zM127 0v1128h149v-1128h-149z" />
    <glyph glyph-name="icircumflex" unicode="&#xee;" horiz-adv-x="405" 
d="M-63 1249l194 318h145l195 -318h-131l-139 211l-140 -211h-124zM127 0v1128h149v-1128h-149z" />
    <glyph glyph-name="idieresis" unicode="&#xef;" horiz-adv-x="405" 
d="M-12 1249v195h125v-195h-125zM293 1249v195h123v-195h-123zM127 0v1128h149v-1128h-149z" />
    <glyph glyph-name="eth" unicode="&#xf0;" horiz-adv-x="1026" 
d="M455 1217v122l153 43q-58 75 -121 127l109 80q94 -78 156 -166l200 58v-123l-137 -39q133 -257 133 -733q0 -79 -3.5 -139.5t-15 -126t-30.5 -113t-52 -92t-78.5 -71.5t-110 -43.5t-146.5 -16.5q-106 0 -184 29t-125.5 77.5t-76 124t-38.5 155t-10 183.5q0 99 8.5 175.5
t34.5 152.5t69.5 125t117 79.5t173.5 30.5q206 0 293 -104q-32 146 -98 266zM512 117q54 0 97 12.5t72.5 32.5t51 53t33.5 67t19.5 81.5t9.5 89.5t2 98t-2 98t-9.5 89.5t-19.5 81.5t-33.5 67t-51 53t-72.5 32.5t-97 12.5t-96.5 -12t-72 -32.5t-51 -53.5t-34 -67t-19.5 -81.5
t-9.5 -90t-2.5 -97.5t2.5 -97.5t9.5 -90t19.5 -81.5t34 -67t51 -53.5t72 -32.5t96.5 -12z" />
    <glyph glyph-name="ntilde" unicode="&#xf1;" horiz-adv-x="1032" 
d="M121 0v1120l119 8l14 -118q37 66 114.5 101.5t225.5 35.5q62 0 110 -10.5t82 -28t58.5 -47t38.5 -61t22 -77.5t10.5 -88.5t2.5 -101.5v-733h-148v702q0 67 -3.5 109t-16.5 83t-37 63t-65 35.5t-101 13.5q-71 0 -121 -18t-80.5 -49t-47 -86t-22.5 -116.5t-6 -152.5v-584
h-149zM289 1243l-100 55q73 152 198 152q43 0 88 -21t83.5 -42t66.5 -21q33 0 57 22.5t55 71.5l101 -57q-75 -156 -201 -156q-43 0 -88 20t-84 40t-66 20q-33 0 -58 -20.5t-52 -63.5z" />
    <glyph glyph-name="ograve" unicode="&#xf2;" horiz-adv-x="1024" 
d="M512 -16q-108 0 -187 30t-126 79t-74.5 127t-37 158.5t-9.5 188.5q0 75 4.5 135t16.5 122t32 108.5t53 88.5t78 68.5t108 42t142 15.5q110 0 190 -30.5t126.5 -80t74 -127.5t36.5 -157t9 -185q0 -77 -4.5 -137.5t-16.5 -123t-32 -109t-53 -88t-78.5 -68t-109 -42
t-142.5 -15.5zM512 117q54 0 97 12t72.5 32.5t51 53.5t33.5 67.5t19.5 83.5t9.5 92.5t2 102.5q0 60 -2 104t-9.5 93.5t-19.5 84t-33.5 67.5t-51 53.5t-72.5 32.5t-97 12q-75 0 -128 -23.5t-83 -60.5t-47 -98.5t-22 -120.5t-5 -144q0 -58 2.5 -102.5t9.5 -93t19.5 -83
t34 -67.5t51 -53.5t72 -32.5t96.5 -12zM494 1249l-268 318h172l231 -318h-135z" />
    <glyph glyph-name="oacute" unicode="&#xf3;" horiz-adv-x="1024" 
d="M389 1249l234 318h168l-267 -318h-135zM512 -16q-108 0 -187 30t-126 79t-74.5 127t-37 158.5t-9.5 188.5q0 75 4.5 135t16.5 122t32 108.5t53 88.5t78 68.5t108 42t142 15.5q110 0 190 -30.5t126.5 -80t74 -127.5t36.5 -157t9 -185q0 -77 -4.5 -137.5t-16.5 -123
t-32 -109t-53 -88t-78.5 -68t-109 -42t-142.5 -15.5zM512 117q54 0 97 12t72.5 32.5t51 53.5t33.5 67.5t19.5 83.5t9.5 92.5t2 102.5q0 60 -2 104t-9.5 93.5t-19.5 84t-33.5 67.5t-51 53.5t-72.5 32.5t-97 12q-75 0 -128 -23.5t-83 -60.5t-47 -98.5t-22 -120.5t-5 -144
q0 -58 2.5 -102.5t9.5 -93t19.5 -83t34 -67.5t51 -53.5t72 -32.5t96.5 -12z" />
    <glyph glyph-name="ocircumflex" unicode="&#xf4;" horiz-adv-x="1024" 
d="M207 1249l231 318h146l229 -318h-129l-176 211l-176 -211h-125zM512 -16q-108 0 -187 30t-126 79t-74.5 127t-37 158.5t-9.5 188.5q0 75 4.5 135t16.5 122t32 108.5t53 88.5t78 68.5t108 42t142 15.5q110 0 190 -30.5t126.5 -80t74 -127.5t36.5 -157t9 -185
q0 -77 -4.5 -137.5t-16.5 -123t-32 -109t-53 -88t-78.5 -68t-109 -42t-142.5 -15.5zM512 117q54 0 97 12t72.5 32.5t51 53.5t33.5 67.5t19.5 83.5t9.5 92.5t2 102.5q0 60 -2 104t-9.5 93.5t-19.5 84t-33.5 67.5t-51 53.5t-72.5 32.5t-97 12q-75 0 -128 -23.5t-83 -60.5
t-47 -98.5t-22 -120.5t-5 -144q0 -58 2.5 -102.5t9.5 -93t19.5 -83t34 -67.5t51 -53.5t72 -32.5t96.5 -12z" />
    <glyph glyph-name="otilde" unicode="&#xf5;" horiz-adv-x="1024" 
d="M512 -16q-108 0 -187 30t-126 79t-74.5 127t-37 158.5t-9.5 188.5q0 75 4.5 135t16.5 122t32 108.5t53 88.5t78 68.5t108 42t142 15.5q110 0 190 -30.5t126.5 -80t74 -127.5t36.5 -157t9 -185q0 -77 -4.5 -137.5t-16.5 -123t-32 -109t-53 -88t-78.5 -68t-109 -42
t-142.5 -15.5zM512 117q54 0 97 12t72.5 32.5t51 53.5t33.5 67.5t19.5 83.5t9.5 92.5t2 102.5q0 60 -2 104t-9.5 93.5t-19.5 84t-33.5 67.5t-51 53.5t-72.5 32.5t-97 12q-75 0 -128 -23.5t-83 -60.5t-47 -98.5t-22 -120.5t-5 -144q0 -58 2.5 -102.5t9.5 -93t19.5 -83
t34 -67.5t51 -53.5t72 -32.5t96.5 -12zM285 1243l-100 55q73 152 198 152q43 0 88 -21t83.5 -42t66.5 -21q33 0 57 22.5t55 71.5l101 -57q-75 -156 -201 -156q-43 0 -88 20t-84 40t-66 20q-33 0 -58 -20.5t-52 -63.5z" />
    <glyph glyph-name="odieresis" unicode="&#xf6;" horiz-adv-x="1024" 
d="M268 1249v195h135v-195h-135zM616 1249v195h138v-195h-138zM512 -16q-108 0 -187 30t-126 79t-74.5 127t-37 158.5t-9.5 188.5q0 75 4.5 135t16.5 122t32 108.5t53 88.5t78 68.5t108 42t142 15.5q110 0 190 -30.5t126.5 -80t74 -127.5t36.5 -157t9 -185
q0 -77 -4.5 -137.5t-16.5 -123t-32 -109t-53 -88t-78.5 -68t-109 -42t-142.5 -15.5zM512 117q54 0 97 12t72.5 32.5t51 53.5t33.5 67.5t19.5 83.5t9.5 92.5t2 102.5q0 60 -2 104t-9.5 93.5t-19.5 84t-33.5 67.5t-51 53.5t-72.5 32.5t-97 12q-75 0 -128 -23.5t-83 -60.5
t-47 -98.5t-22 -120.5t-5 -144q0 -58 2.5 -102.5t9.5 -93t19.5 -83t34 -67.5t51 -53.5t72 -32.5t96.5 -12z" />
    <glyph glyph-name="divide" unicode="&#xf7;" horiz-adv-x="1128" 
d="M481 279v176h168v-176h-168zM170 653v138h788v-138h-788zM481 985v176h168v-176h-168z" />
    <glyph glyph-name="oslash" unicode="&#xf8;" horiz-adv-x="1024" 
d="M143 -88l78 160q-82 71 -112.5 193.5t-30.5 301.5q0 75 4.5 135t16.5 122t32 108.5t53 88.5t78 68.5t108 42t142 15.5q108 0 190 -31l48 98h135l-78 -159q81 -71 111 -192t30 -296q0 -77 -4.5 -137.5t-16.5 -123t-32 -109t-53 -88t-78.5 -68t-109 -42t-142.5 -15.5
q-107 0 -186 28l-50 -100h-133zM223 561q0 -125 14.5 -212t55.5 -142l352 780q-55 25 -133 25q-63 0 -111 -15t-79 -46.5t-51 -69t-30.5 -92.5t-14 -106.5t-3.5 -121.5zM512 115q63 0 111.5 15t79.5 46t51 68t30 92t13.5 105.5t3.5 119.5q0 124 -14 210.5t-54 143.5
l-354 -778q58 -22 133 -22z" />
    <glyph glyph-name="ugrave" unicode="&#xf9;" horiz-adv-x="1007" 
d="M506 -16q-97 0 -166 17.5t-112.5 49t-68.5 85t-34.5 115.5t-9.5 150v727h149v-718q0 -63 4.5 -104t18.5 -80t40.5 -60t71 -34t109.5 -13q64 0 107.5 13t69.5 34t40 60t18.5 80t4.5 104v718h145v-727q0 -89 -8.5 -150t-32.5 -115t-67 -85.5t-112 -49t-167 -17.5zM486 1249
l-268 318h172l231 -318h-135z" />
    <glyph glyph-name="uacute" unicode="&#xfa;" horiz-adv-x="1007" 
d="M381 1249l233 318h168l-266 -318h-135zM506 -16q-97 0 -166 17.5t-112.5 49t-68.5 85t-34.5 115.5t-9.5 150v727h149v-718q0 -63 4.5 -104t18.5 -80t40.5 -60t71 -34t109.5 -13q64 0 107.5 13t69.5 34t40 60t18.5 80t4.5 104v718h145v-727q0 -89 -8.5 -150t-32.5 -115
t-67 -85.5t-112 -49t-167 -17.5z" />
    <glyph glyph-name="ucircumflex" unicode="&#xfb;" horiz-adv-x="1007" 
d="M199 1249l231 318h145l230 -318h-129l-176 211l-176 -211h-125zM506 -16q-97 0 -166 17.5t-112.5 49t-68.5 85t-34.5 115.5t-9.5 150v727h149v-718q0 -63 4.5 -104t18.5 -80t40.5 -60t71 -34t109.5 -13q64 0 107.5 13t69.5 34t40 60t18.5 80t4.5 104v718h145v-727
q0 -89 -8.5 -150t-32.5 -115t-67 -85.5t-112 -49t-167 -17.5z" />
    <glyph glyph-name="udieresis" unicode="&#xfc;" horiz-adv-x="1007" 
d="M260 1249v195h135v-195h-135zM608 1249v195h137v-195h-137zM506 -16q-97 0 -166 17.5t-112.5 49t-68.5 85t-34.5 115.5t-9.5 150v727h149v-718q0 -63 4.5 -104t18.5 -80t40.5 -60t71 -34t109.5 -13q64 0 107.5 13t69.5 34t40 60t18.5 80t4.5 104v718h145v-727
q0 -89 -8.5 -150t-32.5 -115t-67 -85.5t-112 -49t-167 -17.5z" />
    <glyph glyph-name="yacute" unicode="&#xfd;" horiz-adv-x="878" 
d="M131 -324v125h94q47 0 71 18.5t38 63.5l31 113l-342 1132h149l270 -915l269 915h145l-387 -1275q-31 -103 -86.5 -140t-161.5 -37h-90zM319 1249l234 318h168l-266 -318h-136z" />
    <glyph glyph-name="thorn" unicode="&#xfe;" horiz-adv-x="1052" 
d="M121 -324v1899h149v-563q22 43 58 71t105 46t169 18q70 0 125.5 -16.5t94.5 -44t67 -71.5t44.5 -90.5t26 -109t12.5 -119t3 -129.5t-3.5 -130.5t-13 -120t-26.5 -109t-45.5 -90t-67.5 -71t-95 -44t-126 -16.5q-141 0 -214.5 32t-113.5 97v-439h-149zM561 119
q68 0 116.5 22.5t76.5 59t44.5 96t21.5 120t5 144.5t-5 144t-21 121t-44 98t-77 60.5t-117 23.5q-57 0 -101 -12t-74.5 -32t-52 -54t-34 -67.5t-19 -84t-8.5 -93.5t-2 -104t2 -104t8.5 -93t19 -83.5t34 -66.5t52 -52t74.5 -31t101 -12z" />
    <glyph glyph-name="ydieresis" unicode="&#xff;" horiz-adv-x="878" 
d="M131 -324v125h94q47 0 71 18.5t38 63.5l31 113l-342 1132h149l270 -915l269 915h145l-387 -1275q-31 -103 -86.5 -140t-161.5 -37h-90zM199 1249v195h135v-195h-135zM547 1249v195h137v-195h-137z" />
    <glyph glyph-name="dotlessi" unicode="&#x131;" horiz-adv-x="405" 
d="M127 0v1128h149v-1128h-149z" />
    <glyph glyph-name="Lslash" unicode="&#x141;" horiz-adv-x="962" 
d="M2 641v129l137 74v674h154v-592l262 141v-127l-262 -143v-658h631v-139h-785v715z" />
    <glyph glyph-name="lslash" unicode="&#x142;" horiz-adv-x="614" 
d="M41 836v131l168 96v512h149v-426l187 108v-133l-187 -106v-758q0 -41 3 -60.5t16.5 -37.5t41.5 -23.5t79 -5.5v-133q-8 -2 -49 -2q-142 0 -191 54t-49 192v688z" />
    <glyph glyph-name="OE" unicode="&#x152;" horiz-adv-x="1927" 
d="M1047 0v156q-127 -172 -416 -172q-105 0 -188.5 21.5t-142 57t-100.5 93.5t-66.5 119t-38.5 145t-18.5 160.5t-4.5 177.5t4.5 177.5t18.5 161t38.5 145.5t66.5 119t100.5 94t142 57.5t188.5 21.5q288 0 416 -174v158h782v-142h-647v-520h610v-139h-610v-578h651v-139
h-786zM631 123q77 0 137 17t102 45t72 74.5t47 95t27 118.5t13 132.5t3 148.5q0 74 -2.5 130.5t-9 119t-20 108.5t-33.5 92t-50 77t-70.5 56t-94.5 37t-121 12q-78 0 -138.5 -17t-103 -45t-72.5 -75t-47.5 -95.5t-27 -118.5t-12.5 -132.5t-3 -148.5t3 -148.5t12.5 -132.5
t27 -118.5t47.5 -95t72.5 -74.5t103 -45t138.5 -17z" />
    <glyph glyph-name="oe" unicode="&#x153;" horiz-adv-x="1675" 
d="M512 -16q-108 0 -187 30t-126 79t-74.5 127t-37 158.5t-9.5 188.5q0 75 4.5 135t16.5 122t32 108.5t53 88.5t78 68.5t108 42t142 15.5q266 0 360 -189q95 189 355 189q95 0 163 -23.5t107 -65.5t63 -101t30 -130.5t9 -153.5t0 -169h-655q2 -99 14.5 -165t43.5 -119
t87 -78t142 -25q67 0 125 11t87 22t73 32l59 -116q-149 -80 -348 -80q-266 0 -357 180q-92 -182 -358 -182zM512 117q54 0 97 12t72.5 32.5t51 53.5t33.5 67.5t19.5 83.5t9.5 92.5t2 102.5q0 60 -2 104t-9.5 93.5t-19.5 84t-33.5 67.5t-51 53.5t-72.5 32.5t-97 12
q-75 0 -128 -23.5t-83 -60.5t-47 -98.5t-22 -120.5t-5 -144q0 -58 2.5 -102.5t9.5 -93t19.5 -83t34 -67.5t51 -53.5t72 -32.5t96.5 -12zM1225 1014q-82 0 -136.5 -25.5t-85 -77.5t-43.5 -115.5t-16 -156.5h518q-4 167 -19 225q-25 105 -113 135q-43 15 -105 15z" />
    <glyph glyph-name="Scaron" unicode="&#x160;" horiz-adv-x="1071" 
d="M463 1608l-232 317h131l175 -211l174 211h127l-230 -317h-145zM537 -16q-272 0 -467 118l77 119q179 -102 388 -102q152 0 230.5 66.5t78.5 189.5q0 35 -4 64t-16 54.5t-24 45t-37 40.5t-46 36t-60.5 35.5t-70 35t-84.5 39.5q-81 36 -133.5 64.5t-103 66.5t-78.5 79
t-45 96t-17 124q0 176 110 277.5t320 101.5q215 0 381 -78l-66 -133q-135 66 -313 66q-141 0 -211 -62t-70 -168q0 -39 5.5 -67.5t21 -55t34.5 -46t56.5 -43t75.5 -43.5t102 -50q83 -39 133.5 -64.5t105 -60t84 -66t55.5 -75t36 -94.5t10 -117q0 -186 -117.5 -289.5
t-340.5 -103.5z" />
    <glyph glyph-name="scaron" unicode="&#x161;" horiz-adv-x="792" 
d="M328 1249l-232 318h131l174 -211l174 211h127l-229 -318h-145zM387 -14q-206 0 -348 71l59 121q130 -67 289 -67q211 0 211 174q0 44 -13 76t-47 60.5t-71 49.5t-107 55q-77 37 -122.5 64t-87.5 66t-60 87.5t-18 112.5q0 145 86 218t250 73q169 0 288 -53l-57 -125
q-111 47 -236 47q-188 0 -188 -158q0 -71 49 -114t180 -105q79 -37 125.5 -64.5t89.5 -69t61.5 -94.5t18.5 -126q0 -149 -92 -224t-260 -75z" />
    <glyph glyph-name="Ydieresis" unicode="&#x178;" horiz-adv-x="1126" 
d="M487 0v559l-469 959h166l381 -789l383 789h158l-467 -959v-559h-152zM320 1607v195h135v-195h-135zM668 1607v195h137v-195h-137z" />
    <glyph glyph-name="Zcaron" unicode="&#x17d;" horiz-adv-x="1064" 
d="M459 1608l-232 317h131l174 -211l175 211h127l-230 -317h-145zM70 0v123l718 1253h-690v142h873v-129l-719 -1250h737v-139h-919z" />
    <glyph glyph-name="zcaron" unicode="&#x17e;" horiz-adv-x="811" 
d="M336 1249l-232 318h132l174 -211l174 211h127l-230 -318h-145zM47 0v109l518 888h-487v131h670v-106l-521 -897h537v-125h-717z" />
    <glyph glyph-name="florin" unicode="&#x192;" horiz-adv-x="872" 
d="M133 788v134h193l45 297q10 61 20 100.5t31 81t50.5 64.5t78 38t115.5 15q13 0 49 -1t41 -1v-132h-78q-38 0 -64.5 -10t-42 -23t-26.5 -40.5t-15 -47.5t-10 -59l-43 -282h279v-134h-299l-168 -1112h-150l166 1112h-172z" />
    <glyph glyph-name="circumflex" unicode="&#x2c6;" 
d="M174 1249l232 318h145l229 -318h-129l-176 211l-176 -211h-125z" />
    <glyph glyph-name="caron" unicode="&#x2c7;" 
d="M406 1249l-232 318h131l174 -211l174 211h127l-229 -318h-145z" />
    <glyph glyph-name="breve" unicode="&#x2d8;" 
d="M477 1241q-80 0 -137 19t-91 56t-52 82t-27 107l115 19q7 -39 18 -67t32 -51.5t56.5 -35.5t85.5 -12q94 0 136 42.5t55 123.5l114 -17q-10 -63 -28 -108t-51.5 -82.5t-89.5 -56.5t-136 -19z" />
    <glyph glyph-name="dotaccent" unicode="&#x2d9;" 
d="M401 1249v211h152v-211h-152z" />
    <glyph glyph-name="ring" unicode="&#x2da;" 
d="M477 1237q-104 0 -152.5 62t-48.5 165q0 104 48.5 167t152.5 63q103 0 152 -63t49 -167q0 -102 -49 -164.5t-152 -62.5zM477 1323q111 0 111 141q0 144 -111 144q-112 0 -112 -144q0 -141 112 -141z" />
    <glyph glyph-name="ogonek" unicode="&#x2db;" horiz-adv-x="956" 
d="M500 -430q-117 0 -172.5 41.5t-55.5 136.5q0 49 18.5 95t49 81.5t59.5 60t60 44.5h129q-185 -141 -185 -260q0 -47 25 -70t88 -23h68v-106h-84z" />
    <glyph glyph-name="tilde" unicode="&#x2dc;" 
d="M252 1243l-100 55q73 152 198 152q43 0 88 -21t83.5 -42t66.5 -21q33 0 57 22.5t55 71.5l101 -57q-75 -156 -201 -156q-43 0 -88 20t-84 40t-66 20q-33 0 -58 -20.5t-52 -63.5z" />
    <glyph glyph-name="hungarumlaut" unicode="&#x2dd;" 
d="M203 1249l227 318h162l-266 -318h-123zM563 1249l230 318h157l-264 -318h-123z" />
    <glyph glyph-name="Delta" unicode="&#x394;" horiz-adv-x="1024" 
d="M43 997v131h172v150q0 301 295 301h92v-133h-80q-48 0 -80 -12.5t-48.5 -38.5t-22.5 -56t-6 -73v-138h237v-131h-237v-997h-150v997h-172zM627 -324v125h14q66 0 86.5 29.5t20.5 106.5v1191h149v-1196q0 -142 -51 -199t-197 -57h-22zM748 1280v211h149v-211h-149z" />
    <glyph glyph-name="Delta" unicode="&#x2206;" horiz-adv-x="1024" 
d="M43 997v131h172v150q0 301 295 301h92v-133h-80q-48 0 -80 -12.5t-48.5 -38.5t-22.5 -56t-6 -73v-138h237v-131h-237v-997h-150v997h-172zM627 -324v125h14q66 0 86.5 29.5t20.5 106.5v1191h149v-1196q0 -142 -51 -199t-197 -57h-22zM748 1280v211h149v-211h-149z" />
    <glyph glyph-name="Omega" unicode="&#x3a9;" horiz-adv-x="1703" 
d="M258 246q-88 105 -136 237t-48 277q0 144 48 276t136 236q6 -4 14 -12q-85 -103 -131.5 -231.5t-46.5 -268.5q0 -285 180 -500zM467 432q-117 143 -117 328q0 183 115 327q3 -2 8 -7t8 -7q-110 -136 -110 -313q0 -182 110 -314zM541 498q-92 116 -92 262t92 262
q3 -2 8 -7t8 -7q-88 -109 -88 -248t88 -248q-3 -2 -8 -7t-8 -7zM647 592q-57 72 -57 168q0 97 57 166l15 -15q-52 -69 -52 -151q0 -84 54 -154q-3 -2 -8.5 -7t-8.5 -7zM715 655q-33 48 -33 105q0 56 33 104q3 -2 8 -7t8 -7q-29 -44 -29 -90t29 -90q-3 -2 -16 -15zM774 709
q-14 25 -14 51t14 51l12 -10q-10 -20 -10 -41t10 -41q-4 -4 -12 -10zM852 123q-236 0 -412 158l2.5 2.5l5 5l5.5 5.5t2 1q171 -152 397 -152q227 0 395 152q2 -3 7.5 -8t7.5 -8q-177 -156 -410 -156zM852 664q-31 0 -55 18l12 12q21 -14 43 -14q26 0 43 14q4 -4 10 -12
q-21 -18 -53 -18zM987 653q-7 10 -14 15q28 42 28 92q0 51 -28 90l2.5 2.5t5 4.5t5.5 5t1 2q35 -44 35 -104t-35 -107zM598 551q-72 91 -72 209q0 119 74 209l14 -15q-67 -87 -67 -194q0 -108 67 -195q-10 -10 -16 -14zM852 -35q-145 0 -278 52.5t-238 146.5l14 16
q102 -92 231 -143t271 -51q285 0 500 192q0 1 3.5 -2.5t6.5 -7.5l4 -4q-104 -95 -236 -147t-278 -52zM852 248q-189 0 -330 125l15 16q134 -121 315 -121q182 0 313 121q2 -3 7.5 -8t7.5 -8q-138 -125 -328 -125zM852 348q-145 0 -264 101l14 14q108 -94 250 -94
q143 0 248 94q2 -3 7 -8.5t7 -8.5q-112 -98 -262 -98zM852 428q-116 0 -211 78l14 16q86 -73 197 -73t197 73q4 -4 12 -16q-91 -78 -209 -78zM852 543q-77 0 -135 49l14 16q51 -45 121 -45q68 0 119 45q2 -3 7 -8t7 -8q-58 -49 -133 -49zM733 911q-4 3 -7 6.5t-6 6.5l-3 4
q58 49 135 49t135 -49l-16 -17q-51 45 -119 45t-119 -45zM1167 1130q-134 121 -315 121q-179 0 -313 -118l-15 14q141 125 328 125q189 0 330 -125q-4 -6 -15 -17zM930 709l-12 10q10 20 10 41t-10 41l12 10q14 -25 14 -51t-14 -51zM958 682q-10 10 -16 14q21 32 21 64
t-21 63l16 15q25 -36 25 -78t-25 -78zM1020 627q-6 4 -16 14q38 50 38 119t-38 119l14 14q45 -57 45 -133q0 -71 -43 -133zM1106 551q-3 2 -8 7t-8 7q67 87 67 195t-70 194l17 15q74 -90 74 -209q0 -118 -72 -209zM1163 498q-10 10 -16 14q88 109 88 248t-88 248l16 14
q92 -116 92 -262t-92 -262zM1237 432q-6 4 -16 14q112 134 112 314q0 182 -112 313l16 14q117 -139 117 -327q0 -189 -117 -328zM1329 350q-2 2 -7 6t-7 6q141 175 141 398q0 227 -143 395l16 14q148 -179 148 -409q0 -231 -148 -410zM1446 246q-6 6 -16 14q180 215 180 500
t-180 500l16 14q88 -105 136 -237t48 -277q0 -144 -48 -276t-136 -238zM375 348q-148 182 -148 412q0 229 146 409q2 -2 7.5 -6.5t8.5 -7.5q-141 -170 -141 -395q0 -228 141 -398zM684 627q-43 59 -43 133t43 133q6 -4 16 -14q-38 -50 -38 -119q0 -67 38 -117zM745 682
q-24 34 -24 78t24 78q2 -3 4.5 -5.5t6 -5.5t4.5 -4q-19 -34 -19 -63q0 -30 19 -64zM809 825l-10 13q21 18 53 18t53 -18l-10 -13q-23 15 -43 15q-25 0 -43 -15zM786 852l-14 14q37 29 80 29q41 0 78 -29q-8 -8 -12 -14q-28 25 -66 25q-34 0 -66 -25zM760 881l-15 16
q45 39 107 39q61 0 106 -39l-14 -16q-37 34 -92 34t-92 -34zM604 1057l-14 16q112 98 262 98q151 0 262 -100q1 0 -2 -3.5t-6 -7.5l-4 -3q-108 94 -250 94q-143 0 -248 -94zM852 492q-100 0 -170 61l14 16q70 -57 156 -57q87 0 154 57l14 -14q-73 -63 -168 -63zM852 584
q-61 0 -109 39l15 16q47 -35 94 -35q51 0 92 35l14 -16q-45 -39 -106 -39zM852 625q-43 0 -82 28l14 15q36 -25 68 -25q34 0 66 25l14 -15q-36 -28 -80 -28zM698 950l-14 15q73 63 168 63q98 0 168 -61l-14 -17q-68 58 -154 58q-87 0 -154 -58zM655 997l-14 17q91 78 211 78
q119 0 209 -80l-12 -15q-83 74 -197 74q-110 0 -197 -74zM1249 1223q-166 153 -397 153q-227 0 -397 -151l-15 14q179 158 412 158t412 -158zM352 1339l-14 17q104 95 236 146.5t278 51.5q145 0 278 -52t238 -146l-14 -17q-102 93 -231 144t-271 51t-270 -51t-230 -144z
M1057 594l-15 14q52 69 52 152t-54 153l17 15q57 -72 57 -168q0 -97 -57 -166z" />
    <glyph glyph-name="Omega" unicode="&#x2126;" horiz-adv-x="1703" 
d="M258 246q-88 105 -136 237t-48 277q0 144 48 276t136 236q6 -4 14 -12q-85 -103 -131.5 -231.5t-46.5 -268.5q0 -285 180 -500zM467 432q-117 143 -117 328q0 183 115 327q3 -2 8 -7t8 -7q-110 -136 -110 -313q0 -182 110 -314zM541 498q-92 116 -92 262t92 262
q3 -2 8 -7t8 -7q-88 -109 -88 -248t88 -248q-3 -2 -8 -7t-8 -7zM647 592q-57 72 -57 168q0 97 57 166l15 -15q-52 -69 -52 -151q0 -84 54 -154q-3 -2 -8.5 -7t-8.5 -7zM715 655q-33 48 -33 105q0 56 33 104q3 -2 8 -7t8 -7q-29 -44 -29 -90t29 -90q-3 -2 -16 -15zM774 709
q-14 25 -14 51t14 51l12 -10q-10 -20 -10 -41t10 -41q-4 -4 -12 -10zM852 123q-236 0 -412 158l2.5 2.5l5 5l5.5 5.5t2 1q171 -152 397 -152q227 0 395 152q2 -3 7.5 -8t7.5 -8q-177 -156 -410 -156zM852 664q-31 0 -55 18l12 12q21 -14 43 -14q26 0 43 14q4 -4 10 -12
q-21 -18 -53 -18zM987 653q-7 10 -14 15q28 42 28 92q0 51 -28 90l2.5 2.5t5 4.5t5.5 5t1 2q35 -44 35 -104t-35 -107zM598 551q-72 91 -72 209q0 119 74 209l14 -15q-67 -87 -67 -194q0 -108 67 -195q-10 -10 -16 -14zM852 -35q-145 0 -278 52.5t-238 146.5l14 16
q102 -92 231 -143t271 -51q285 0 500 192q0 1 3.5 -2.5t6.5 -7.5l4 -4q-104 -95 -236 -147t-278 -52zM852 248q-189 0 -330 125l15 16q134 -121 315 -121q182 0 313 121q2 -3 7.5 -8t7.5 -8q-138 -125 -328 -125zM852 348q-145 0 -264 101l14 14q108 -94 250 -94
q143 0 248 94q2 -3 7 -8.5t7 -8.5q-112 -98 -262 -98zM852 428q-116 0 -211 78l14 16q86 -73 197 -73t197 73q4 -4 12 -16q-91 -78 -209 -78zM852 543q-77 0 -135 49l14 16q51 -45 121 -45q68 0 119 45q2 -3 7 -8t7 -8q-58 -49 -133 -49zM733 911q-4 3 -7 6.5t-6 6.5l-3 4
q58 49 135 49t135 -49l-16 -17q-51 45 -119 45t-119 -45zM1167 1130q-134 121 -315 121q-179 0 -313 -118l-15 14q141 125 328 125q189 0 330 -125q-4 -6 -15 -17zM930 709l-12 10q10 20 10 41t-10 41l12 10q14 -25 14 -51t-14 -51zM958 682q-10 10 -16 14q21 32 21 64
t-21 63l16 15q25 -36 25 -78t-25 -78zM1020 627q-6 4 -16 14q38 50 38 119t-38 119l14 14q45 -57 45 -133q0 -71 -43 -133zM1106 551q-3 2 -8 7t-8 7q67 87 67 195t-70 194l17 15q74 -90 74 -209q0 -118 -72 -209zM1163 498q-10 10 -16 14q88 109 88 248t-88 248l16 14
q92 -116 92 -262t-92 -262zM1237 432q-6 4 -16 14q112 134 112 314q0 182 -112 313l16 14q117 -139 117 -327q0 -189 -117 -328zM1329 350q-2 2 -7 6t-7 6q141 175 141 398q0 227 -143 395l16 14q148 -179 148 -409q0 -231 -148 -410zM1446 246q-6 6 -16 14q180 215 180 500
t-180 500l16 14q88 -105 136 -237t48 -277q0 -144 -48 -276t-136 -238zM375 348q-148 182 -148 412q0 229 146 409q2 -2 7.5 -6.5t8.5 -7.5q-141 -170 -141 -395q0 -228 141 -398zM684 627q-43 59 -43 133t43 133q6 -4 16 -14q-38 -50 -38 -119q0 -67 38 -117zM745 682
q-24 34 -24 78t24 78q2 -3 4.5 -5.5t6 -5.5t4.5 -4q-19 -34 -19 -63q0 -30 19 -64zM809 825l-10 13q21 18 53 18t53 -18l-10 -13q-23 15 -43 15q-25 0 -43 -15zM786 852l-14 14q37 29 80 29q41 0 78 -29q-8 -8 -12 -14q-28 25 -66 25q-34 0 -66 -25zM760 881l-15 16
q45 39 107 39q61 0 106 -39l-14 -16q-37 34 -92 34t-92 -34zM604 1057l-14 16q112 98 262 98q151 0 262 -100q1 0 -2 -3.5t-6 -7.5l-4 -3q-108 94 -250 94q-143 0 -248 -94zM852 492q-100 0 -170 61l14 16q70 -57 156 -57q87 0 154 57l14 -14q-73 -63 -168 -63zM852 584
q-61 0 -109 39l15 16q47 -35 94 -35q51 0 92 35l14 -16q-45 -39 -106 -39zM852 625q-43 0 -82 28l14 15q36 -25 68 -25q34 0 66 25l14 -15q-36 -28 -80 -28zM698 950l-14 15q73 63 168 63q98 0 168 -61l-14 -17q-68 58 -154 58q-87 0 -154 -58zM655 997l-14 17q91 78 211 78
q119 0 209 -80l-12 -15q-83 74 -197 74q-110 0 -197 -74zM1249 1223q-166 153 -397 153q-227 0 -397 -151l-15 14q179 158 412 158t412 -158zM352 1339l-14 17q104 95 236 146.5t278 51.5q145 0 278 -52t238 -146l-14 -17q-102 93 -231 144t-271 51t-270 -51t-230 -144z
M1057 594l-15 14q52 69 52 152t-54 153l17 15q57 -72 57 -168q0 -97 -57 -166z" />
    <glyph glyph-name="pi" unicode="&#x3c0;" horiz-adv-x="1366" 
d="M682 -20q-137 0 -240.5 37.5t-170.5 103t-108.5 165t-58 213.5t-16.5 259t16.5 259.5t58 215t108.5 166.5t170.5 103.5t240.5 37.5t240.5 -37.5t170.5 -103.5t109 -166t59 -215t17 -260q0 -144 -17 -258.5t-59 -214t-109 -165t-170.5 -103t-240.5 -37.5zM682 51
q120 0 211 34t149.5 94t94.5 150.5t50.5 194t14.5 234.5q0 133 -14.5 237t-50.5 195t-94.5 150.5t-149 93.5t-211.5 34q-120 0 -210.5 -34t-148.5 -93.5t-94 -150.5t-50.5 -195t-14.5 -237q0 -131 14.5 -234.5t50.5 -194t94 -150.5t148.5 -94t210.5 -34zM414 233v1037h331
q162 0 229.5 -71t67.5 -234t-67.5 -235.5t-229.5 -72.5h-227v-424h-104zM518 745h225q105 0 150 49t45 167q0 120 -44.5 168.5t-150.5 48.5h-225v-433z" />
    <glyph glyph-name="endash" unicode="&#x2013;" horiz-adv-x="1136" 
d="M82 563v137h975v-137h-975z" />
    <glyph glyph-name="emdash" unicode="&#x2014;" horiz-adv-x="1492" 
d="M82 563v137h1331v-137h-1331z" />
    <glyph glyph-name="quoteleft" unicode="&#x2018;" horiz-adv-x="409" 
d="M111 1065v211q0 101 30.5 151.5t120.5 94.5l45 -80q-58 -34 -77 -63t-19 -83h88v-231h-188z" />
    <glyph glyph-name="quoteright" unicode="&#x2019;" horiz-adv-x="409" 
d="M147 1061l-45 80q59 34 78 63t19 84h-88v230h188v-209q0 -100 -31 -151.5t-121 -96.5z" />
    <glyph glyph-name="quotesinglbase" unicode="&#x201a;" horiz-adv-x="409" 
d="M147 -227l-45 82q59 32 78 61t19 84h-88v229h188v-209q0 -102 -31 -152.5t-121 -94.5z" />
    <glyph glyph-name="quotedblleft" unicode="&#x201c;" horiz-adv-x="720" 
d="M111 1073v209q0 99 30 147.5t119 92.5l43 -76q-57 -34 -76.5 -63.5t-19.5 -84.5h88v-225h-184zM426 1073v209q0 99 29.5 147.5t117.5 92.5l45 -76q-58 -34 -77 -63t-19 -85h86v-225h-182z" />
    <glyph glyph-name="quotedblright" unicode="&#x201d;" horiz-adv-x="718" 
d="M145 1069l-43 78q59 32 78 60.5t19 82.5h-88v228h184v-209q0 -101 -30 -149.5t-120 -90.5zM461 1069l-43 78q57 32 75.5 60.5t18.5 82.5h-88v228h184v-209q0 -101 -29.5 -149.5t-117.5 -90.5z" />
    <glyph glyph-name="quotedblbase" unicode="&#x201e;" horiz-adv-x="718" 
d="M145 -221l-43 78q59 34 78 62.5t19 82.5h-88v227h184v-209q0 -100 -30 -148.5t-120 -92.5zM461 -221l-43 78q57 34 75.5 62.5t18.5 82.5h-88v227h184v-209q0 -100 -29 -148.5t-118 -92.5z" />
    <glyph glyph-name="dagger" unicode="&#x2020;" horiz-adv-x="897" 
d="M375 -324v1299h-283v139h283v461h147v-461h283v-139h-283v-1299h-147z" />
    <glyph glyph-name="daggerdbl" unicode="&#x2021;" horiz-adv-x="897" 
d="M375 -324v490h-283v139h283v676h-283v139h283v455h147v-455h283v-139h-283v-676h283v-139h-283v-490h-147z" />
    <glyph glyph-name="bullet" unicode="&#x2022;" horiz-adv-x="577" 
d="M162 463v319h254v-319h-254z" />
    <glyph glyph-name="ellipsis" unicode="&#x2026;" horiz-adv-x="1165" 
d="M111 0v219h188v-219h-188zM489 0v219h187v-219h-187zM868 0v219h187v-219h-187z" />
    <glyph glyph-name="perthousand" unicode="&#x2030;" horiz-adv-x="2547" 
d="M395 580q-167 0 -245 109t-78 366q0 175 36.5 281t106 151t180.5 45q113 0 184 -45t107.5 -151t36.5 -281q0 -257 -79 -366t-249 -109zM397 696q103 0 147 80t44 277t-44 276.5t-147 79.5t-146.5 -79.5t-43.5 -276.5t43.5 -277t146.5 -80zM1421 -14q-169 0 -247 109
t-78 368t78 368t247 109t247.5 -109.5t78.5 -367.5t-78.5 -367.5t-247.5 -109.5zM1421 104q102 0 146.5 80t44.5 275q0 196 -44.5 277t-146.5 81t-146 -80.5t-44 -277.5q0 -196 43.5 -275.5t146.5 -79.5zM512 0l655 1518h142l-658 -1518h-139zM2150 -14q-168 0 -246.5 109.5
t-78.5 367.5t78.5 367.5t246.5 109.5q169 0 247.5 -109.5t78.5 -367.5t-78.5 -367.5t-247.5 -109.5zM2152 104q101 0 145 80t44 275q0 197 -44 277.5t-145 80.5q-103 0 -147.5 -80.5t-44.5 -277.5q0 -195 44.5 -275t147.5 -80z" />
    <glyph glyph-name="guilsinglleft" unicode="&#x2039;" horiz-adv-x="702" 
d="M385 0l-244 563l244 565h137l-233 -565l233 -563h-137z" />
    <glyph glyph-name="guilsinglright" unicode="&#x203a;" horiz-adv-x="702" 
d="M178 0l236 565l-236 563h139l244 -563l-244 -565h-139z" />
    <glyph glyph-name="fraction" unicode="&#x2044;" horiz-adv-x="811" 
d="M8 0l654 1518h139l-656 -1518h-137z" />
    <glyph glyph-name="fraction" unicode="&#x2215;" horiz-adv-x="811" 
d="M8 0l654 1518h139l-656 -1518h-137z" />
    <glyph glyph-name="Euro" unicode="&#x20ac;" horiz-adv-x="1103" 
d="M61 856v125h187q19 290 119.5 421.5t332.5 131.5q197 0 332 -80l-71 -125q-111 62 -263 62q-156 0 -222.5 -97t-80.5 -313h453v-125h-459v-172h459v-125h-455q14 -231 81 -334.5t226 -103.5q78 0 137.5 19t123.5 53l69 -119q-158 -90 -338 -90q-118 0 -200 34
t-133.5 107.5t-77.5 177.5t-35 256h-185v125h181v172h-181z" />
    <glyph glyph-name="trademark" unicode="&#x2122;" horiz-adv-x="1724" 
d="M774 578v940h127l242 -750l239 750h129v-940h-112v696l-219 -696h-78l-221 696v-696h-107zM338 578v833h-256v107h631v-107h-258v-833h-117z" />
    <glyph glyph-name="partialdiff" unicode="&#x2202;" horiz-adv-x="1703" 
d="M258 246q-88 105 -136 237t-48 277q0 144 48 276t136 236q6 -4 14 -12q-85 -103 -131.5 -231.5t-46.5 -268.5q0 -285 180 -500zM467 432q-117 143 -117 328q0 183 115 327q3 -2 8 -7t8 -7q-110 -136 -110 -313q0 -182 110 -314zM541 498q-92 116 -92 262t92 262
q3 -2 8 -7t8 -7q-88 -109 -88 -248t88 -248q-3 -2 -8 -7t-8 -7zM647 592q-57 72 -57 168q0 97 57 166l15 -15q-52 -69 -52 -151q0 -84 54 -154q-3 -2 -8.5 -7t-8.5 -7zM715 655q-33 48 -33 105q0 56 33 104q3 -2 8 -7t8 -7q-29 -44 -29 -90t29 -90q-3 -2 -16 -15zM774 709
q-14 25 -14 51t14 51l12 -10q-10 -20 -10 -41t10 -41q-4 -4 -12 -10zM852 123q-236 0 -412 158l2.5 2.5l5 5l5.5 5.5t2 1q171 -152 397 -152q227 0 395 152q2 -3 7.5 -8t7.5 -8q-177 -156 -410 -156zM852 664q-31 0 -55 18l12 12q21 -14 43 -14q26 0 43 14q4 -4 10 -12
q-21 -18 -53 -18zM987 653q-7 10 -14 15q28 42 28 92q0 51 -28 90l2.5 2.5t5 4.5t5.5 5t1 2q35 -44 35 -104t-35 -107zM598 551q-72 91 -72 209q0 119 74 209l14 -15q-67 -87 -67 -194q0 -108 67 -195q-10 -10 -16 -14zM852 -35q-145 0 -278 52.5t-238 146.5l14 16
q102 -92 231 -143t271 -51q285 0 500 192q0 1 3.5 -2.5t6.5 -7.5l4 -4q-104 -95 -236 -147t-278 -52zM852 248q-189 0 -330 125l15 16q134 -121 315 -121q182 0 313 121q2 -3 7.5 -8t7.5 -8q-138 -125 -328 -125zM852 348q-145 0 -264 101l14 14q108 -94 250 -94
q143 0 248 94q2 -3 7 -8.5t7 -8.5q-112 -98 -262 -98zM852 428q-116 0 -211 78l14 16q86 -73 197 -73t197 73q4 -4 12 -16q-91 -78 -209 -78zM852 543q-77 0 -135 49l14 16q51 -45 121 -45q68 0 119 45q2 -3 7 -8t7 -8q-58 -49 -133 -49zM733 911q-4 3 -7 6.5t-6 6.5l-3 4
q58 49 135 49t135 -49l-16 -17q-51 45 -119 45t-119 -45zM1167 1130q-134 121 -315 121q-179 0 -313 -118l-15 14q141 125 328 125q189 0 330 -125q-4 -6 -15 -17zM930 709l-12 10q10 20 10 41t-10 41l12 10q14 -25 14 -51t-14 -51zM958 682q-10 10 -16 14q21 32 21 64
t-21 63l16 15q25 -36 25 -78t-25 -78zM1020 627q-6 4 -16 14q38 50 38 119t-38 119l14 14q45 -57 45 -133q0 -71 -43 -133zM1106 551q-3 2 -8 7t-8 7q67 87 67 195t-70 194l17 15q74 -90 74 -209q0 -118 -72 -209zM1163 498q-10 10 -16 14q88 109 88 248t-88 248l16 14
q92 -116 92 -262t-92 -262zM1237 432q-6 4 -16 14q112 134 112 314q0 182 -112 313l16 14q117 -139 117 -327q0 -189 -117 -328zM1329 350q-2 2 -7 6t-7 6q141 175 141 398q0 227 -143 395l16 14q148 -179 148 -409q0 -231 -148 -410zM1446 246q-6 6 -16 14q180 215 180 500
t-180 500l16 14q88 -105 136 -237t48 -277q0 -144 -48 -276t-136 -238zM375 348q-148 182 -148 412q0 229 146 409q2 -2 7.5 -6.5t8.5 -7.5q-141 -170 -141 -395q0 -228 141 -398zM684 627q-43 59 -43 133t43 133q6 -4 16 -14q-38 -50 -38 -119q0 -67 38 -117zM745 682
q-24 34 -24 78t24 78q2 -3 4.5 -5.5t6 -5.5t4.5 -4q-19 -34 -19 -63q0 -30 19 -64zM809 825l-10 13q21 18 53 18t53 -18l-10 -13q-23 15 -43 15q-25 0 -43 -15zM786 852l-14 14q37 29 80 29q41 0 78 -29q-8 -8 -12 -14q-28 25 -66 25q-34 0 -66 -25zM760 881l-15 16
q45 39 107 39q61 0 106 -39l-14 -16q-37 34 -92 34t-92 -34zM604 1057l-14 16q112 98 262 98q151 0 262 -100q1 0 -2 -3.5t-6 -7.5l-4 -3q-108 94 -250 94q-143 0 -248 -94zM852 492q-100 0 -170 61l14 16q70 -57 156 -57q87 0 154 57l14 -14q-73 -63 -168 -63zM852 584
q-61 0 -109 39l15 16q47 -35 94 -35q51 0 92 35l14 -16q-45 -39 -106 -39zM852 625q-43 0 -82 28l14 15q36 -25 68 -25q34 0 66 25l14 -15q-36 -28 -80 -28zM698 950l-14 15q73 63 168 63q98 0 168 -61l-14 -17q-68 58 -154 58q-87 0 -154 -58zM655 997l-14 17q91 78 211 78
q119 0 209 -80l-12 -15q-83 74 -197 74q-110 0 -197 -74zM1249 1223q-166 153 -397 153q-227 0 -397 -151l-15 14q179 158 412 158t412 -158zM352 1339l-14 17q104 95 236 146.5t278 51.5q145 0 278 -52t238 -146l-14 -17q-102 93 -231 144t-271 51t-270 -51t-230 -144z
M1057 594l-15 14q52 69 52 152t-54 153l17 15q57 -72 57 -168q0 -97 -57 -166z" />
    <glyph glyph-name="product" unicode="&#x220f;" horiz-adv-x="1703" 
d="M258 246q-88 105 -136 237t-48 277q0 144 48 276t136 236q6 -4 14 -12q-85 -103 -131.5 -231.5t-46.5 -268.5q0 -285 180 -500zM467 432q-117 143 -117 328q0 183 115 327q3 -2 8 -7t8 -7q-110 -136 -110 -313q0 -182 110 -314zM541 498q-92 116 -92 262t92 262
q3 -2 8 -7t8 -7q-88 -109 -88 -248t88 -248q-3 -2 -8 -7t-8 -7zM647 592q-57 72 -57 168q0 97 57 166l15 -15q-52 -69 -52 -151q0 -84 54 -154q-3 -2 -8.5 -7t-8.5 -7zM715 655q-33 48 -33 105q0 56 33 104q3 -2 8 -7t8 -7q-29 -44 -29 -90t29 -90q-3 -2 -16 -15zM774 709
q-14 25 -14 51t14 51l12 -10q-10 -20 -10 -41t10 -41q-4 -4 -12 -10zM852 123q-236 0 -412 158l2.5 2.5l5 5l5.5 5.5t2 1q171 -152 397 -152q227 0 395 152q2 -3 7.5 -8t7.5 -8q-177 -156 -410 -156zM852 664q-31 0 -55 18l12 12q21 -14 43 -14q26 0 43 14q4 -4 10 -12
q-21 -18 -53 -18zM987 653q-7 10 -14 15q28 42 28 92q0 51 -28 90l2.5 2.5t5 4.5t5.5 5t1 2q35 -44 35 -104t-35 -107zM598 551q-72 91 -72 209q0 119 74 209l14 -15q-67 -87 -67 -194q0 -108 67 -195q-10 -10 -16 -14zM852 -35q-145 0 -278 52.5t-238 146.5l14 16
q102 -92 231 -143t271 -51q285 0 500 192q0 1 3.5 -2.5t6.5 -7.5l4 -4q-104 -95 -236 -147t-278 -52zM852 248q-189 0 -330 125l15 16q134 -121 315 -121q182 0 313 121q2 -3 7.5 -8t7.5 -8q-138 -125 -328 -125zM852 348q-145 0 -264 101l14 14q108 -94 250 -94
q143 0 248 94q2 -3 7 -8.5t7 -8.5q-112 -98 -262 -98zM852 428q-116 0 -211 78l14 16q86 -73 197 -73t197 73q4 -4 12 -16q-91 -78 -209 -78zM852 543q-77 0 -135 49l14 16q51 -45 121 -45q68 0 119 45q2 -3 7 -8t7 -8q-58 -49 -133 -49zM733 911q-4 3 -7 6.5t-6 6.5l-3 4
q58 49 135 49t135 -49l-16 -17q-51 45 -119 45t-119 -45zM1167 1130q-134 121 -315 121q-179 0 -313 -118l-15 14q141 125 328 125q189 0 330 -125q-4 -6 -15 -17zM930 709l-12 10q10 20 10 41t-10 41l12 10q14 -25 14 -51t-14 -51zM958 682q-10 10 -16 14q21 32 21 64
t-21 63l16 15q25 -36 25 -78t-25 -78zM1020 627q-6 4 -16 14q38 50 38 119t-38 119l14 14q45 -57 45 -133q0 -71 -43 -133zM1106 551q-3 2 -8 7t-8 7q67 87 67 195t-70 194l17 15q74 -90 74 -209q0 -118 -72 -209zM1163 498q-10 10 -16 14q88 109 88 248t-88 248l16 14
q92 -116 92 -262t-92 -262zM1237 432q-6 4 -16 14q112 134 112 314q0 182 -112 313l16 14q117 -139 117 -327q0 -189 -117 -328zM1329 350q-2 2 -7 6t-7 6q141 175 141 398q0 227 -143 395l16 14q148 -179 148 -409q0 -231 -148 -410zM1446 246q-6 6 -16 14q180 215 180 500
t-180 500l16 14q88 -105 136 -237t48 -277q0 -144 -48 -276t-136 -238zM375 348q-148 182 -148 412q0 229 146 409q2 -2 7.5 -6.5t8.5 -7.5q-141 -170 -141 -395q0 -228 141 -398zM684 627q-43 59 -43 133t43 133q6 -4 16 -14q-38 -50 -38 -119q0 -67 38 -117zM745 682
q-24 34 -24 78t24 78q2 -3 4.5 -5.5t6 -5.5t4.5 -4q-19 -34 -19 -63q0 -30 19 -64zM809 825l-10 13q21 18 53 18t53 -18l-10 -13q-23 15 -43 15q-25 0 -43 -15zM786 852l-14 14q37 29 80 29q41 0 78 -29q-8 -8 -12 -14q-28 25 -66 25q-34 0 -66 -25zM760 881l-15 16
q45 39 107 39q61 0 106 -39l-14 -16q-37 34 -92 34t-92 -34zM604 1057l-14 16q112 98 262 98q151 0 262 -100q1 0 -2 -3.5t-6 -7.5l-4 -3q-108 94 -250 94q-143 0 -248 -94zM852 492q-100 0 -170 61l14 16q70 -57 156 -57q87 0 154 57l14 -14q-73 -63 -168 -63zM852 584
q-61 0 -109 39l15 16q47 -35 94 -35q51 0 92 35l14 -16q-45 -39 -106 -39zM852 625q-43 0 -82 28l14 15q36 -25 68 -25q34 0 66 25l14 -15q-36 -28 -80 -28zM698 950l-14 15q73 63 168 63q98 0 168 -61l-14 -17q-68 58 -154 58q-87 0 -154 -58zM655 997l-14 17q91 78 211 78
q119 0 209 -80l-12 -15q-83 74 -197 74q-110 0 -197 -74zM1249 1223q-166 153 -397 153q-227 0 -397 -151l-15 14q179 158 412 158t412 -158zM352 1339l-14 17q104 95 236 146.5t278 51.5q145 0 278 -52t238 -146l-14 -17q-102 93 -231 144t-271 51t-270 -51t-230 -144z
M1057 594l-15 14q52 69 52 152t-54 153l17 15q57 -72 57 -168q0 -97 -57 -166z" />
    <glyph glyph-name="summation" unicode="&#x2211;" horiz-adv-x="1703" 
d="M258 246q-88 105 -136 237t-48 277q0 144 48 276t136 236q6 -4 14 -12q-85 -103 -131.5 -231.5t-46.5 -268.5q0 -285 180 -500zM467 432q-117 143 -117 328q0 183 115 327q3 -2 8 -7t8 -7q-110 -136 -110 -313q0 -182 110 -314zM541 498q-92 116 -92 262t92 262
q3 -2 8 -7t8 -7q-88 -109 -88 -248t88 -248q-3 -2 -8 -7t-8 -7zM647 592q-57 72 -57 168q0 97 57 166l15 -15q-52 -69 -52 -151q0 -84 54 -154q-3 -2 -8.5 -7t-8.5 -7zM715 655q-33 48 -33 105q0 56 33 104q3 -2 8 -7t8 -7q-29 -44 -29 -90t29 -90q-3 -2 -16 -15zM774 709
q-14 25 -14 51t14 51l12 -10q-10 -20 -10 -41t10 -41q-4 -4 -12 -10zM852 123q-236 0 -412 158l2.5 2.5l5 5l5.5 5.5t2 1q171 -152 397 -152q227 0 395 152q2 -3 7.5 -8t7.5 -8q-177 -156 -410 -156zM852 664q-31 0 -55 18l12 12q21 -14 43 -14q26 0 43 14q4 -4 10 -12
q-21 -18 -53 -18zM987 653q-7 10 -14 15q28 42 28 92q0 51 -28 90l2.5 2.5t5 4.5t5.5 5t1 2q35 -44 35 -104t-35 -107zM598 551q-72 91 -72 209q0 119 74 209l14 -15q-67 -87 -67 -194q0 -108 67 -195q-10 -10 -16 -14zM852 -35q-145 0 -278 52.5t-238 146.5l14 16
q102 -92 231 -143t271 -51q285 0 500 192q0 1 3.5 -2.5t6.5 -7.5l4 -4q-104 -95 -236 -147t-278 -52zM852 248q-189 0 -330 125l15 16q134 -121 315 -121q182 0 313 121q2 -3 7.5 -8t7.5 -8q-138 -125 -328 -125zM852 348q-145 0 -264 101l14 14q108 -94 250 -94
q143 0 248 94q2 -3 7 -8.5t7 -8.5q-112 -98 -262 -98zM852 428q-116 0 -211 78l14 16q86 -73 197 -73t197 73q4 -4 12 -16q-91 -78 -209 -78zM852 543q-77 0 -135 49l14 16q51 -45 121 -45q68 0 119 45q2 -3 7 -8t7 -8q-58 -49 -133 -49zM733 911q-4 3 -7 6.5t-6 6.5l-3 4
q58 49 135 49t135 -49l-16 -17q-51 45 -119 45t-119 -45zM1167 1130q-134 121 -315 121q-179 0 -313 -118l-15 14q141 125 328 125q189 0 330 -125q-4 -6 -15 -17zM930 709l-12 10q10 20 10 41t-10 41l12 10q14 -25 14 -51t-14 -51zM958 682q-10 10 -16 14q21 32 21 64
t-21 63l16 15q25 -36 25 -78t-25 -78zM1020 627q-6 4 -16 14q38 50 38 119t-38 119l14 14q45 -57 45 -133q0 -71 -43 -133zM1106 551q-3 2 -8 7t-8 7q67 87 67 195t-70 194l17 15q74 -90 74 -209q0 -118 -72 -209zM1163 498q-10 10 -16 14q88 109 88 248t-88 248l16 14
q92 -116 92 -262t-92 -262zM1237 432q-6 4 -16 14q112 134 112 314q0 182 -112 313l16 14q117 -139 117 -327q0 -189 -117 -328zM1329 350q-2 2 -7 6t-7 6q141 175 141 398q0 227 -143 395l16 14q148 -179 148 -409q0 -231 -148 -410zM1446 246q-6 6 -16 14q180 215 180 500
t-180 500l16 14q88 -105 136 -237t48 -277q0 -144 -48 -276t-136 -238zM375 348q-148 182 -148 412q0 229 146 409q2 -2 7.5 -6.5t8.5 -7.5q-141 -170 -141 -395q0 -228 141 -398zM684 627q-43 59 -43 133t43 133q6 -4 16 -14q-38 -50 -38 -119q0 -67 38 -117zM745 682
q-24 34 -24 78t24 78q2 -3 4.5 -5.5t6 -5.5t4.5 -4q-19 -34 -19 -63q0 -30 19 -64zM809 825l-10 13q21 18 53 18t53 -18l-10 -13q-23 15 -43 15q-25 0 -43 -15zM786 852l-14 14q37 29 80 29q41 0 78 -29q-8 -8 -12 -14q-28 25 -66 25q-34 0 -66 -25zM760 881l-15 16
q45 39 107 39q61 0 106 -39l-14 -16q-37 34 -92 34t-92 -34zM604 1057l-14 16q112 98 262 98q151 0 262 -100q1 0 -2 -3.5t-6 -7.5l-4 -3q-108 94 -250 94q-143 0 -248 -94zM852 492q-100 0 -170 61l14 16q70 -57 156 -57q87 0 154 57l14 -14q-73 -63 -168 -63zM852 584
q-61 0 -109 39l15 16q47 -35 94 -35q51 0 92 35l14 -16q-45 -39 -106 -39zM852 625q-43 0 -82 28l14 15q36 -25 68 -25q34 0 66 25l14 -15q-36 -28 -80 -28zM698 950l-14 15q73 63 168 63q98 0 168 -61l-14 -17q-68 58 -154 58q-87 0 -154 -58zM655 997l-14 17q91 78 211 78
q119 0 209 -80l-12 -15q-83 74 -197 74q-110 0 -197 -74zM1249 1223q-166 153 -397 153q-227 0 -397 -151l-15 14q179 158 412 158t412 -158zM352 1339l-14 17q104 95 236 146.5t278 51.5q145 0 278 -52t238 -146l-14 -17q-102 93 -231 144t-271 51t-270 -51t-230 -144z
M1057 594l-15 14q52 69 52 152t-54 153l17 15q57 -72 57 -168q0 -97 -57 -166z" />
    <glyph glyph-name="minus" unicode="&#x2212;" horiz-adv-x="1128" 
d="M174 653v133h782v-133h-782z" />
    <glyph glyph-name="radical" unicode="&#x221a;" horiz-adv-x="1069" 
d="M358 -8l-260 846h156l186 -635l394 1315h145l-465 -1526h-156z" />
    <glyph glyph-name="infinity" unicode="&#x221e;" horiz-adv-x="1556" 
d="M748 0v997h-383v-997h-150v997h-172v131h172v150q0 301 295 301h92v-133h-80q-48 0 -80 -12.5t-48.5 -38.5t-22.5 -56t-6 -73v-138h383v150q0 144 68 222.5t226 78.5h93v-133h-82q-91 0 -123.5 -45.5t-32.5 -134.5v-138h238v-131h-238v-997h-149zM1278 0v1128h149v-1128
h-149zM1278 1280v211h149v-211h-149z" />
    <glyph glyph-name="integral" unicode="&#x222b;" horiz-adv-x="1703" 
d="M258 246q-88 105 -136 237t-48 277q0 144 48 276t136 236q6 -4 14 -12q-85 -103 -131.5 -231.5t-46.5 -268.5q0 -285 180 -500zM467 432q-117 143 -117 328q0 183 115 327q3 -2 8 -7t8 -7q-110 -136 -110 -313q0 -182 110 -314zM541 498q-92 116 -92 262t92 262
q3 -2 8 -7t8 -7q-88 -109 -88 -248t88 -248q-3 -2 -8 -7t-8 -7zM647 592q-57 72 -57 168q0 97 57 166l15 -15q-52 -69 -52 -151q0 -84 54 -154q-3 -2 -8.5 -7t-8.5 -7zM715 655q-33 48 -33 105q0 56 33 104q3 -2 8 -7t8 -7q-29 -44 -29 -90t29 -90q-3 -2 -16 -15zM774 709
q-14 25 -14 51t14 51l12 -10q-10 -20 -10 -41t10 -41q-4 -4 -12 -10zM852 123q-236 0 -412 158l2.5 2.5l5 5l5.5 5.5t2 1q171 -152 397 -152q227 0 395 152q2 -3 7.5 -8t7.5 -8q-177 -156 -410 -156zM852 664q-31 0 -55 18l12 12q21 -14 43 -14q26 0 43 14q4 -4 10 -12
q-21 -18 -53 -18zM987 653q-7 10 -14 15q28 42 28 92q0 51 -28 90l2.5 2.5t5 4.5t5.5 5t1 2q35 -44 35 -104t-35 -107zM598 551q-72 91 -72 209q0 119 74 209l14 -15q-67 -87 -67 -194q0 -108 67 -195q-10 -10 -16 -14zM852 -35q-145 0 -278 52.5t-238 146.5l14 16
q102 -92 231 -143t271 -51q285 0 500 192q0 1 3.5 -2.5t6.5 -7.5l4 -4q-104 -95 -236 -147t-278 -52zM852 248q-189 0 -330 125l15 16q134 -121 315 -121q182 0 313 121q2 -3 7.5 -8t7.5 -8q-138 -125 -328 -125zM852 348q-145 0 -264 101l14 14q108 -94 250 -94
q143 0 248 94q2 -3 7 -8.5t7 -8.5q-112 -98 -262 -98zM852 428q-116 0 -211 78l14 16q86 -73 197 -73t197 73q4 -4 12 -16q-91 -78 -209 -78zM852 543q-77 0 -135 49l14 16q51 -45 121 -45q68 0 119 45q2 -3 7 -8t7 -8q-58 -49 -133 -49zM733 911q-4 3 -7 6.5t-6 6.5l-3 4
q58 49 135 49t135 -49l-16 -17q-51 45 -119 45t-119 -45zM1167 1130q-134 121 -315 121q-179 0 -313 -118l-15 14q141 125 328 125q189 0 330 -125q-4 -6 -15 -17zM930 709l-12 10q10 20 10 41t-10 41l12 10q14 -25 14 -51t-14 -51zM958 682q-10 10 -16 14q21 32 21 64
t-21 63l16 15q25 -36 25 -78t-25 -78zM1020 627q-6 4 -16 14q38 50 38 119t-38 119l14 14q45 -57 45 -133q0 -71 -43 -133zM1106 551q-3 2 -8 7t-8 7q67 87 67 195t-70 194l17 15q74 -90 74 -209q0 -118 -72 -209zM1163 498q-10 10 -16 14q88 109 88 248t-88 248l16 14
q92 -116 92 -262t-92 -262zM1237 432q-6 4 -16 14q112 134 112 314q0 182 -112 313l16 14q117 -139 117 -327q0 -189 -117 -328zM1329 350q-2 2 -7 6t-7 6q141 175 141 398q0 227 -143 395l16 14q148 -179 148 -409q0 -231 -148 -410zM1446 246q-6 6 -16 14q180 215 180 500
t-180 500l16 14q88 -105 136 -237t48 -277q0 -144 -48 -276t-136 -238zM375 348q-148 182 -148 412q0 229 146 409q2 -2 7.5 -6.5t8.5 -7.5q-141 -170 -141 -395q0 -228 141 -398zM684 627q-43 59 -43 133t43 133q6 -4 16 -14q-38 -50 -38 -119q0 -67 38 -117zM745 682
q-24 34 -24 78t24 78q2 -3 4.5 -5.5t6 -5.5t4.5 -4q-19 -34 -19 -63q0 -30 19 -64zM809 825l-10 13q21 18 53 18t53 -18l-10 -13q-23 15 -43 15q-25 0 -43 -15zM786 852l-14 14q37 29 80 29q41 0 78 -29q-8 -8 -12 -14q-28 25 -66 25q-34 0 -66 -25zM760 881l-15 16
q45 39 107 39q61 0 106 -39l-14 -16q-37 34 -92 34t-92 -34zM604 1057l-14 16q112 98 262 98q151 0 262 -100q1 0 -2 -3.5t-6 -7.5l-4 -3q-108 94 -250 94q-143 0 -248 -94zM852 492q-100 0 -170 61l14 16q70 -57 156 -57q87 0 154 57l14 -14q-73 -63 -168 -63zM852 584
q-61 0 -109 39l15 16q47 -35 94 -35q51 0 92 35l14 -16q-45 -39 -106 -39zM852 625q-43 0 -82 28l14 15q36 -25 68 -25q34 0 66 25l14 -15q-36 -28 -80 -28zM698 950l-14 15q73 63 168 63q98 0 168 -61l-14 -17q-68 58 -154 58q-87 0 -154 -58zM655 997l-14 17q91 78 211 78
q119 0 209 -80l-12 -15q-83 74 -197 74q-110 0 -197 -74zM1249 1223q-166 153 -397 153q-227 0 -397 -151l-15 14q179 158 412 158t412 -158zM352 1339l-14 17q104 95 236 146.5t278 51.5q145 0 278 -52t238 -146l-14 -17q-102 93 -231 144t-271 51t-270 -51t-230 -144z
M1057 594l-15 14q52 69 52 152t-54 153l17 15q57 -72 57 -168q0 -97 -57 -166z" />
    <glyph glyph-name="approxequal" unicode="&#x2248;" horiz-adv-x="1130" 
d="M264 801l-108 59q77 154 219 154q70 0 190.5 -41t175.5 -41q43 0 70.5 22t58.5 68l103 -57q-74 -158 -219 -158q-69 0 -190.5 40t-176.5 40q-43 0 -70 -21t-53 -65zM264 416l-108 57q75 154 219 154q70 0 190.5 -41t175.5 -41q43 0 70.5 22.5t58.5 69.5l103 -57
q-75 -160 -219 -160q-69 0 -190.5 40t-176.5 40q-44 0 -71 -20t-52 -64z" />
    <glyph glyph-name="notequal" unicode="&#x2260;" horiz-adv-x="1179" 
d="M748 0v997h-383v-997h-150v997h-172v131h172v150q0 301 295 301h92v-133h-80q-48 0 -80 -12.5t-48.5 -38.5t-22.5 -56t-6 -73v-138h383v150q0 144 68 222.5t226 78.5q101 0 117 -2v-131h-106q-91 0 -123.5 -45.5t-32.5 -134.5v-138h262v-131h-262v-997h-149z" />
    <glyph glyph-name="lessequal" unicode="&#x2264;" horiz-adv-x="1128" 
d="M891 250l-721 409v111l721 410v-146l-574 -319l574 -318v-147zM170 33v133h721v-133h-721z" />
    <glyph glyph-name="greaterequal" unicode="&#x2265;" horiz-adv-x="1128" 
d="M238 250v147l571 318l-571 319v146l723 -410v-111zM238 33v133h723v-133h-723z" />
    <glyph glyph-name="lozenge" unicode="&#x25ca;" horiz-adv-x="1292" 
d="M43 997v131h172v150q0 301 295 301h92v-133h-80q-48 0 -80 -12.5t-48.5 -38.5t-22.5 -56t-6 -73v-138h434l24 316l121 26v-342h270v-131h-270v-700q0 -88 28 -126t118 -38h124v-133q-46 -4 -139 -4q-86 0 -141 16.5t-85.5 54.5t-42 88t-11.5 128v714h-430v-997h-150v997
h-172z" />
    <glyph glyph-name="apple" unicode="&#xf8ff;" horiz-adv-x="1703" 
d="M258 246q-88 105 -136 237t-48 277q0 144 48 276t136 236q6 -4 14 -12q-85 -103 -131.5 -231.5t-46.5 -268.5q0 -285 180 -500zM467 432q-117 143 -117 328q0 183 115 327q3 -2 8 -7t8 -7q-110 -136 -110 -313q0 -182 110 -314zM541 498q-92 116 -92 262t92 262
q3 -2 8 -7t8 -7q-88 -109 -88 -248t88 -248q-3 -2 -8 -7t-8 -7zM647 592q-57 72 -57 168q0 97 57 166l15 -15q-52 -69 -52 -151q0 -84 54 -154q-3 -2 -8.5 -7t-8.5 -7zM715 655q-33 48 -33 105q0 56 33 104q3 -2 8 -7t8 -7q-29 -44 -29 -90t29 -90q-3 -2 -16 -15zM774 709
q-14 25 -14 51t14 51l12 -10q-10 -20 -10 -41t10 -41q-4 -4 -12 -10zM852 123q-236 0 -412 158l2.5 2.5l5 5l5.5 5.5t2 1q171 -152 397 -152q227 0 395 152q2 -3 7.5 -8t7.5 -8q-177 -156 -410 -156zM852 664q-31 0 -55 18l12 12q21 -14 43 -14q26 0 43 14q4 -4 10 -12
q-21 -18 -53 -18zM987 653q-7 10 -14 15q28 42 28 92q0 51 -28 90l2.5 2.5t5 4.5t5.5 5t1 2q35 -44 35 -104t-35 -107zM598 551q-72 91 -72 209q0 119 74 209l14 -15q-67 -87 -67 -194q0 -108 67 -195q-10 -10 -16 -14zM852 -35q-145 0 -278 52.5t-238 146.5l14 16
q102 -92 231 -143t271 -51q285 0 500 192q0 1 3.5 -2.5t6.5 -7.5l4 -4q-104 -95 -236 -147t-278 -52zM852 248q-189 0 -330 125l15 16q134 -121 315 -121q182 0 313 121q2 -3 7.5 -8t7.5 -8q-138 -125 -328 -125zM852 348q-145 0 -264 101l14 14q108 -94 250 -94
q143 0 248 94q2 -3 7 -8.5t7 -8.5q-112 -98 -262 -98zM852 428q-116 0 -211 78l14 16q86 -73 197 -73t197 73q4 -4 12 -16q-91 -78 -209 -78zM852 543q-77 0 -135 49l14 16q51 -45 121 -45q68 0 119 45q2 -3 7 -8t7 -8q-58 -49 -133 -49zM733 911q-4 3 -7 6.5t-6 6.5l-3 4
q58 49 135 49t135 -49l-16 -17q-51 45 -119 45t-119 -45zM1167 1130q-134 121 -315 121q-179 0 -313 -118l-15 14q141 125 328 125q189 0 330 -125q-4 -6 -15 -17zM930 709l-12 10q10 20 10 41t-10 41l12 10q14 -25 14 -51t-14 -51zM958 682q-10 10 -16 14q21 32 21 64
t-21 63l16 15q25 -36 25 -78t-25 -78zM1020 627q-6 4 -16 14q38 50 38 119t-38 119l14 14q45 -57 45 -133q0 -71 -43 -133zM1106 551q-3 2 -8 7t-8 7q67 87 67 195t-70 194l17 15q74 -90 74 -209q0 -118 -72 -209zM1163 498q-10 10 -16 14q88 109 88 248t-88 248l16 14
q92 -116 92 -262t-92 -262zM1237 432q-6 4 -16 14q112 134 112 314q0 182 -112 313l16 14q117 -139 117 -327q0 -189 -117 -328zM1329 350q-2 2 -7 6t-7 6q141 175 141 398q0 227 -143 395l16 14q148 -179 148 -409q0 -231 -148 -410zM1446 246q-6 6 -16 14q180 215 180 500
t-180 500l16 14q88 -105 136 -237t48 -277q0 -144 -48 -276t-136 -238zM375 348q-148 182 -148 412q0 229 146 409q2 -2 7.5 -6.5t8.5 -7.5q-141 -170 -141 -395q0 -228 141 -398zM684 627q-43 59 -43 133t43 133q6 -4 16 -14q-38 -50 -38 -119q0 -67 38 -117zM745 682
q-24 34 -24 78t24 78q2 -3 4.5 -5.5t6 -5.5t4.5 -4q-19 -34 -19 -63q0 -30 19 -64zM809 825l-10 13q21 18 53 18t53 -18l-10 -13q-23 15 -43 15q-25 0 -43 -15zM786 852l-14 14q37 29 80 29q41 0 78 -29q-8 -8 -12 -14q-28 25 -66 25q-34 0 -66 -25zM760 881l-15 16
q45 39 107 39q61 0 106 -39l-14 -16q-37 34 -92 34t-92 -34zM604 1057l-14 16q112 98 262 98q151 0 262 -100q1 0 -2 -3.5t-6 -7.5l-4 -3q-108 94 -250 94q-143 0 -248 -94zM852 492q-100 0 -170 61l14 16q70 -57 156 -57q87 0 154 57l14 -14q-73 -63 -168 -63zM852 584
q-61 0 -109 39l15 16q47 -35 94 -35q51 0 92 35l14 -16q-45 -39 -106 -39zM852 625q-43 0 -82 28l14 15q36 -25 68 -25q34 0 66 25l14 -15q-36 -28 -80 -28zM698 950l-14 15q73 63 168 63q98 0 168 -61l-14 -17q-68 58 -154 58q-87 0 -154 -58zM655 997l-14 17q91 78 211 78
q119 0 209 -80l-12 -15q-83 74 -197 74q-110 0 -197 -74zM1249 1223q-166 153 -397 153q-227 0 -397 -151l-15 14q179 158 412 158t412 -158zM352 1339l-14 17q104 95 236 146.5t278 51.5q145 0 278 -52t238 -146l-14 -17q-102 93 -231 144t-271 51t-270 -51t-230 -144z
M1057 594l-15 14q52 69 52 152t-54 153l17 15q57 -72 57 -168q0 -97 -57 -166z" />
    </font>
</defs>
</svg>
