<?xml version="1.0" standalone="no"?>
<!DOCTYPE svg PUBLIC "-//W3C//DTD SVG 1.1//EN" "http://www.w3.org/Graphics/SVG/1.1/DTD/svg11.dtd" >
<svg xmlns="http://www.w3.org/2000/svg" xmlns:xlink="http://www.w3.org/1999/xlink" version="1.1">
<metadata>
Created by FontForge 20201107 at Wed Dec 24 15:02:11 2025
 By 
Copyright (c) The Font Bureau, Inc., 2003. All rights reserved.
</metadata>
<defs>
<font id="AntennaExtraCond-Medium" horiz-adv-x="749" >
  <font-face 
    font-family="AntennaExtraCond Medium"
    font-weight="500"
    font-stretch="normal"
    units-per-em="2048"
    panose-1="2 0 6 6 0 0 0 2 0 4"
    ascent="1638"
    descent="-410"
    x-height="1145"
    cap-height="1518"
    bbox="-88 -444 2150 1905"
    underline-thickness="102"
    underline-position="-204"
    unicode-range="U+0020-FB02"
  />
<missing-glyph horiz-adv-x="268" 
 />
    <glyph glyph-name="fi" unicode="fi" horiz-adv-x="897" 
d="M23 958v187h137v133q0 151 66 219t227 68q45 0 61 -2v-187h-47q-59 0 -79.5 -27t-20.5 -92v-112h147v-187h-147v-958h-207v958h-137zM604 0v1145h209v-1145h-209zM604 1268v250h209v-250h-209z" />
    <glyph glyph-name="fl" unicode="fl" horiz-adv-x="956" 
d="M23 958v187h137v133q0 151 66 219t227 68q45 0 61 -2v-187h-47q-59 0 -79.5 -27t-20.5 -92v-112h147v-187h-147v-958h-207v958h-137zM868 -2q-155 0 -209.5 55.5t-54.5 206.5v1303h209v-1278q0 -66 13.5 -83.5t72.5 -17.5h10v-184q-6 -2 -41 -2z" />
    <glyph glyph-name="f_f_l" unicode="ffl" horiz-adv-x="1402" 
d="M606 0v958h-239v-958h-207v958h-137v187h137v133q0 151 66 219t227 68q45 0 61 -2v-187h-47q-59 0 -79.5 -27t-20.5 -92v-112h239v133q0 151 66 219t227 68q46 0 62 -2v-187h-50q-58 0 -78 -27t-20 -92v-112h148v-187h-148v-958h-207zM1315 -2q-156 0 -210 55.5
t-54 206.5v1303h206v-1278q0 -65 14.5 -83t74.5 -18h10v-184q-8 -2 -41 -2z" />
    <glyph glyph-name="f_f_i" unicode="ffi" horiz-adv-x="1343" 
d="M606 0v958h-239v-958h-207v958h-137v187h137v133q0 151 66 219t227 68q45 0 61 -2v-187h-47q-59 0 -79.5 -27t-20.5 -92v-112h239v133q0 151 66 219t227 68q46 0 62 -2v-187h-50q-58 0 -78 -27t-20 -92v-112h148v-187h-148v-958h-207zM1051 0v1145h206v-1145h-206z
M1051 1272v246h206v-246h-206z" />
    <glyph glyph-name="f_j" unicode="fj" horiz-adv-x="897" 
d="M23 958v187h137v133q0 151 66 219t227 68q45 0 61 -2v-187h-47q-59 0 -79.5 -27t-20.5 -92v-112h147v-187h-147v-958h-207v958h-137zM532 -311v182q49 0 60.5 18t11.5 78v1178h209v-1194q0 -80 -14 -130t-48.5 -80t-85.5 -41t-133 -11zM604 1272v246h209v-246h-209z" />
    <glyph glyph-name="f_f" unicode="ff" horiz-adv-x="1015" 
d="M606 0v958h-239v-958h-207v958h-137v187h137v133q0 151 66 219t227 68q45 0 61 -2v-187h-47q-59 0 -79.5 -27t-20.5 -92v-112h239v133q0 150 73.5 218.5t242.5 68.5q64 0 82 -2v-187h-70q-73 -1 -97 -29t-24 -94v-108h191v-187h-191v-958h-207z" />
    <glyph glyph-name=".notdef" horiz-adv-x="268" 
 />
    <glyph glyph-name=".null" horiz-adv-x="0" 
 />
    <glyph glyph-name="nonmarkingreturn" horiz-adv-x="682" 
 />
    <glyph glyph-name="space" unicode=" " horiz-adv-x="268" 
 />
    <glyph glyph-name="space" unicode="&#xa0;" horiz-adv-x="268" 
 />
    <glyph glyph-name="exclam" unicode="!" horiz-adv-x="524" 
d="M141 0v274h240v-274h-240zM170 438l-20 1080h227l-21 -1080h-186z" />
    <glyph glyph-name="quotedbl" unicode="&#x22;" horiz-adv-x="761" 
d="M125 903l-12 615h213l-11 -615h-190zM446 903l-10 615h213l-12 -615h-191z" />
    <glyph glyph-name="numbersign" unicode="#" horiz-adv-x="964" 
d="M137 0l49 446h-120v197h143l20 193h-163v196h184l53 486h197l-54 -486h132l55 486h194l-55 -486h127v-196h-147l-21 -193h168v-197h-190l-50 -446h-194l49 446h-133l-47 -446h-197zM387 625h158l28 229h-159z" />
    <glyph glyph-name="dollar" unicode="$" horiz-adv-x="798" 
d="M305 -188v188q-149 6 -289 72l78 168q118 -58 260 -58q81 0 129.5 41.5t48.5 118.5q0 70 -32.5 124.5t-190.5 258.5q-18 24 -58 75.5t-52 68t-39.5 54.5t-35 54t-23 46.5t-19 52t-8 51t-4.5 61.5q0 119 58 204.5t177 116.5v177h199v-164q100 -5 215 -43l-76 -183
q-84 35 -207 35q-75 0 -117.5 -39.5t-42.5 -109.5q0 -58 29.5 -107t165.5 -225q18 -24 54.5 -70.5t49.5 -64t40 -53t35.5 -50t26.5 -43.5t23.5 -44.5t15.5 -40.5t13 -45t5.5 -45t2.5 -52q0 -121 -59 -207t-174 -119v-204h-199z" />
    <glyph glyph-name="percent" unicode="%" horiz-adv-x="1562" 
d="M338 565q-130 0 -201 68q-58 52 -74 146t-16 270q0 167 14.5 260t63.5 147q78 78 213 78q140 0 213 -80q51 -55 65.5 -147t14.5 -258q0 -173 -16.5 -267.5t-73.5 -148.5q-75 -68 -203 -68zM1225 -12q-125 0 -201 65q-58 54 -74 147.5t-16 270.5q0 167 14.5 260t65.5 148
q75 75 211 75q139 0 213 -77q52 -54 66 -146t14 -260q0 -172 -17.5 -268t-75.5 -148q-74 -67 -200 -67zM338 729q25 0 42.5 6.5t29.5 24.5t18.5 38.5t10 62t4.5 80.5t1 106t-1 105.5t-4.5 79.5t-10 61.5t-18.5 39t-29.5 25t-42.5 6.5q-26 0 -43.5 -6.5t-29.5 -25t-18.5 -39
t-10 -62t-4.5 -79.5t-1 -105q0 -193 17.5 -255.5t89.5 -62.5zM1225 152q19 0 33 3.5t25 13.5t18.5 20.5t13 33t8 42t4 55.5t2 66t0.5 81q0 69 -0.5 106.5t-4 79.5t-10 62t-18 38.5t-29 24.5t-42.5 6q-72 0 -89.5 -62t-17.5 -255q0 -67 1 -105t4.5 -79.5t10 -61.5t18.5 -38.5
t29.5 -24.5t43.5 -6zM438 0l508 1518h178l-506 -1518h-180z" />
    <glyph glyph-name="ampersand" unicode="&#x26;" horiz-adv-x="1069" 
d="M440 -14q-219 0 -311 93.5t-92 299.5q0 144 64.5 255.5t179.5 219.5q-93 187 -93 354q0 60 7.5 107t27.5 89t52 69t82.5 43t117.5 16q155 0 214 -78t59 -233q0 -125 -55 -225.5t-161 -202.5q66 -106 76 -121l144 -230q30 145 30 441h187q0 -421 -97 -631l160 -252h-237
l-50 78q-117 -92 -305 -92zM444 162q137 0 207 67l-207 338q-14 23 -38.5 63.5t-34.5 57.5q-63 -73 -96 -144t-33 -159q0 -117 43 -170t159 -53zM381 1200q0 -116 68 -252q110 124 110 264q0 74 -15.5 108t-70.5 34q-30 0 -49.5 -10.5t-28.5 -33.5t-11.5 -47t-2.5 -63z" />
    <glyph glyph-name="quotesingle" unicode="'" horiz-adv-x="440" 
d="M125 903l-12 615h215l-11 -615h-192z" />
    <glyph glyph-name="parenleft" unicode="(" horiz-adv-x="669" 
d="M395 -334q-49 65 -90.5 146t-82.5 197.5t-65 275t-24 338.5q0 169 24 325.5t64.5 275.5t83.5 206.5t90 150.5l160 -96q-43 -69 -75 -138.5t-66.5 -174t-53 -244.5t-18.5 -305q0 -530 213 -859z" />
    <glyph glyph-name="parenright" unicode=")" horiz-adv-x="669" 
d="M272 -334l-157 98q42 69 74.5 138.5t66 173.5t52 243.5t18.5 303.5q0 536 -211 862l157 96q49 -65 92 -146.5t84.5 -198t66 -275t24.5 -338.5q0 -169 -24.5 -325.5t-65.5 -275t-85 -206t-92 -150.5z" />
    <glyph glyph-name="asterisk" unicode="*" horiz-adv-x="821" 
d="M326 676l16 285l-190 -156l-99 151l230 140l-230 143l99 150l190 -156l-16 285h168l-15 -287l191 160l100 -150l-235 -145l235 -142l-98 -149l-193 158l15 -287h-168z" />
    <glyph glyph-name="plus" unicode="+" horiz-adv-x="925" 
d="M358 324v327h-235v197h235v328h207v-328h238v-197h-238v-327h-207z" />
    <glyph glyph-name="comma" unicode="," horiz-adv-x="391" 
d="M143 -244l-65 107q68 45 83 64.5t15 72.5h-98v279h235v-271q0 -90 -32 -142t-138 -110z" />
    <glyph glyph-name="hyphen" unicode="-" horiz-adv-x="546" 
d="M53 561v197h441v-197h-441z" />
    <glyph glyph-name="hyphen" unicode="&#xad;" horiz-adv-x="546" 
d="M53 561v197h441v-197h-441z" />
    <glyph glyph-name="period" unicode="." horiz-adv-x="391" 
d="M78 0v279h235v-279h-235z" />
    <glyph glyph-name="slash" unicode="/" horiz-adv-x="733" 
d="M0 0l524 1518h209l-524 -1518h-209z" />
    <glyph glyph-name="zero" unicode="0" horiz-adv-x="931" 
d="M467 -10q-169 0 -260 84q-34 31 -57.5 80.5t-36.5 102.5t-19.5 141.5t-8 162.5t-1.5 199q0 296 20 447t93 229q91 98 270 98q172 0 268 -96q32 -33 54 -84t34 -105t18 -140t7.5 -158t1.5 -191q0 -102 -1 -167.5t-5 -142t-12.5 -127t-22 -100.5t-34.5 -85.5t-50 -61.5
q-89 -86 -258 -86zM467 182q117 0 142.5 104.5t25.5 473.5q0 367 -25.5 471t-142.5 104q-118 0 -144 -104t-26 -471q0 -369 26 -473.5t144 -104.5z" />
    <glyph glyph-name="one" unicode="1" horiz-adv-x="540" 
d="M203 0v1319h-170v199h379v-1518h-209z" />
    <glyph glyph-name="two" unicode="2" horiz-adv-x="768" 
d="M43 0v176l385 799q57 121 57 219q0 145 -151 145q-117 0 -219 -47l-78 181q135 61 317 61q183 0 263.5 -76.5t80.5 -224.5q0 -84 -24 -165t-72 -183l-338 -699h430v-186h-651z" />
    <glyph glyph-name="three" unicode="3" 
d="M326 -10q-186 0 -312 59l78 174q101 -45 211 -45q104 0 137 62.5t33 216.5q0 57 -2.5 91.5t-11 68t-24 51t-43.5 31.5t-67.5 19t-97.5 5h-65v190h65q77 0 123.5 12.5t69 44.5t29 69t6.5 104q0 43 -2.5 70t-11.5 54t-26 41.5t-45.5 23.5t-70.5 9q-107 0 -195 -38l-77 176
q117 55 309 55q98 0 162 -21.5t99 -68.5t48.5 -108.5t13.5 -153.5q0 -152 -22 -227t-98 -109q30 -10 52 -25.5t37 -32t25 -46t15.5 -53.5t8 -70.5t3 -79.5t0.5 -97q0 -118 -16 -198.5t-55.5 -139.5t-109 -86.5t-173.5 -27.5z" />
    <glyph glyph-name="four" unicode="4" horiz-adv-x="878" 
d="M51 330v176l387 1012h211l-383 -998h238l41 408h151v-408h146v-190h-146v-330h-194v330h-451z" />
    <glyph glyph-name="five" unicode="5" horiz-adv-x="780" 
d="M358 -10q-116 0 -189 16t-142 47l77 172q115 -47 238 -47q105 0 137.5 65.5t32.5 262.5q0 82 -3 130.5t-11 87t-25.5 56.5t-42.5 26.5t-65 8.5q-81 0 -140 -45l-151 47l20 701h568v-199h-386l-8 -342q68 35 168 35q76 0 126 -17.5t82 -50.5t48.5 -98t22.5 -142t6 -200
q0 -100 -5.5 -170t-20.5 -131t-40.5 -98.5t-66 -65t-96.5 -38.5t-134 -11z" />
    <glyph glyph-name="six" unicode="6" horiz-adv-x="884" 
d="M459 -10q-168 0 -260 86q-76 70 -97.5 196t-21.5 355v172q0 249 24.5 383.5t100.5 212.5q62 64 162.5 93.5t263.5 29.5h74v-199h-74q-71 0 -123.5 -8.5t-89 -21t-60 -40t-37 -50.5t-19.5 -69.5t-7.5 -80t-1.5 -97.5q29 40 83.5 61t155.5 21q58 0 102.5 -12.5t75 -32.5
t52 -56t33.5 -71t18.5 -91t8 -103.5t1.5 -118.5q0 -198 -19.5 -309t-84.5 -170q-90 -80 -260 -80zM463 174q35 0 59.5 7.5t41.5 28t26.5 45.5t15 71t7 92.5t1.5 122.5q0 172 -26.5 236.5t-118.5 64.5q-34 0 -58 -6t-46.5 -25t-36 -51.5t-21.5 -86.5t-8 -130q0 -78 1.5 -125
t7 -94t16 -71t29.5 -44.5t45.5 -27.5t64.5 -7z" />
    <glyph glyph-name="seven" unicode="7" horiz-adv-x="698" 
d="M121 0l334 1319h-445v199h664v-179l-336 -1339h-217z" />
    <glyph glyph-name="eight" unicode="8" horiz-adv-x="886" 
d="M442 -14q-186 0 -280 84q-56 52 -74 136t-18 214q0 62 1 98t5 84t13 77.5t24 61t39 52t57 34.5q-69 40 -88 117.5t-19 224.5q0 98 15.5 167t58.5 112q77 86 266 86q193 0 269 -86q43 -45 58 -113t15 -166q0 -49 -1 -78.5t-4 -68.5t-10 -64t-18.5 -52t-30.5 -46t-44 -33
q34 -13 58 -34t39.5 -52t24.5 -60.5t13 -78t5 -84.5t1 -98q0 -135 -17.5 -217.5t-76.5 -134.5q-92 -82 -281 -82zM442 162q44 0 73.5 11.5t47.5 31.5t27.5 57t12.5 76.5t3 101.5t-3 101.5t-12.5 76.5t-27.5 56.5t-47.5 31t-73.5 11.5t-73 -11.5t-46.5 -30.5t-26 -57t-11 -76
t-2.5 -102t2.5 -102t11 -76t26 -57t46.5 -31t73 -12zM442 909q85 0 112.5 52.5t27.5 171.5q0 120 -27 170.5t-113 50.5q-85 0 -111 -50t-26 -171q0 -48 2.5 -79.5t11 -61.5t23 -46.5t39.5 -26.5t61 -10z" />
    <glyph glyph-name="nine" unicode="9" horiz-adv-x="884" 
d="M190 0v195h76q82 0 139.5 9t94.5 34t58 49.5t30.5 76t11.5 90.5t2 115q-60 -80 -240 -80q-45 0 -82 7.5t-65 20t-50 34.5t-37 44.5t-25.5 57.5t-16.5 66.5t-9 77.5t-4 84.5t-1 93.5q0 196 19.5 307t84.5 170q88 82 260 82q169 0 260 -88q76 -70 97.5 -196t21.5 -355v-170
q0 -248 -24.5 -386t-98.5 -216q-64 -64 -164 -93.5t-262 -29.5h-76zM426 674q34 0 58 6t46.5 25t36 51.5t21.5 86.5t8 130q0 78 -1.5 125t-7 93.5t-16 71t-29 44.5t-44.5 27t-64 7q-36 0 -60.5 -7.5t-42 -27.5t-27 -45t-15 -70.5t-7 -92t-1.5 -121.5q0 -172 27 -237.5
t118 -65.5z" />
    <glyph glyph-name="colon" unicode=":" horiz-adv-x="421" 
d="M94 0v276h234v-276h-234zM94 868v277h234v-277h-234z" />
    <glyph glyph-name="semicolon" unicode=";" horiz-adv-x="421" 
d="M160 -244l-64 107q66 41 81.5 62t15.5 75h-99v276h234v-268q0 -43 -5.5 -72t-22 -61t-51 -60.5t-89.5 -58.5zM94 868v277h234v-277h-234z" />
    <glyph glyph-name="less" unicode="&#x3c;" horiz-adv-x="925" 
d="M725 291l-565 377v149l565 375v-211l-358 -240l358 -239v-211z" />
    <glyph glyph-name="equal" unicode="=" horiz-adv-x="925" 
d="M129 444v197h670v-197h-670zM129 823v197h670v-197h-670z" />
    <glyph glyph-name="greater" unicode="&#x3e;" horiz-adv-x="925" 
d="M203 291v211l358 237l-358 240v213l563 -377v-151z" />
    <glyph glyph-name="question" unicode="?" horiz-adv-x="841" 
d="M295 430q2 170 15 247.5t61 156.5l123 215q41 68 41 149q0 62 -35 101.5t-115 39.5q-116 0 -219 -49l-80 180q152 64 326 64q90 0 156.5 -25t103.5 -69.5t54 -96.5t17 -114q0 -138 -71 -252l-117 -207q-36 -61 -46.5 -128t-12.5 -212h-201zM276 0v252h236v-252h-236z" />
    <glyph glyph-name="at" unicode="@" horiz-adv-x="1216" 
d="M928 -311h-322q-293 0 -414 153q-92 117 -113 370q-9 113 -9 398q0 324 14 450q27 241 134 350q123 124 388 124q89 0 161.5 -15t126 -35.5t94.5 -66.5t68 -82t45 -110.5t27.5 -123.5t14.5 -148.5t5.5 -158t0.5 -178.5v-6v-276q0 -126 -43 -179t-141 -53q-64 0 -103.5 10
t-58.5 28.5t-27 49.5q-30 -45 -85 -66.5t-150 -21.5q-104 0 -166 62q-53 56 -67.5 157t-14.5 283q0 189 15.5 288t74.5 155q60 57 158 57q84 0 128 -16t74 -54l23 62l137 -11v-743q0 -80 11.5 -107.5t52.5 -27.5q40 0 51.5 29.5t11.5 105.5v268q0 302 -8 394
q-18 212 -100 303q-96 106 -316 106q-78 0 -139 -11t-104.5 -42t-74.5 -58t-50 -89.5t-30 -103t-16 -133t-5.5 -145t-0.5 -169.5v-52q0 -303 9 -399q19 -210 103 -300q94 -101 308 -101h322v-121zM594 256q23 0 40.5 4t31.5 10.5t24 20.5t17.5 26.5t12 37.5t7.5 45t4 57
t1.5 65.5t0.5 77.5q0 55 -0.5 86t-2.5 70.5t-5.5 60t-10.5 45t-17 36.5t-24.5 23t-34 15t-44.5 4q-27 0 -46.5 -8t-33.5 -19.5t-23 -36.5t-14.5 -47t-8 -64t-3 -74.5t-0.5 -90.5q0 -67 1 -104t4.5 -83t12 -69.5t22.5 -46.5t36 -32t53 -9z" />
    <glyph glyph-name="A" unicode="A" horiz-adv-x="944" 
d="M20 0l330 1522h242l332 -1522h-219l-58 287h-360l-58 -287h-209zM332 481h270l-98 492l-37 205l-37 -205z" />
    <glyph glyph-name="B" unicode="B" horiz-adv-x="940" 
d="M94 0v1518h381q109 0 184 -24t119 -74t63 -119t19 -166q0 -140 -31.5 -224t-113.5 -116q49 -15 82 -48t50.5 -84.5t24.5 -110.5t7 -140q0 -205 -95.5 -308.5t-298.5 -103.5h-391zM299 186h180q106 0 150.5 60t44.5 186q0 138 -47 191t-154 53h-174v-490zM299 866h170
q57 0 95.5 17.5t57.5 51.5t26 73t7 94q0 117 -42 171t-146 54h-168v-461z" />
    <glyph glyph-name="C" unicode="C" horiz-adv-x="786" 
d="M494 -10q-194 0 -304 102q-82 82 -108.5 234.5t-26.5 433.5q0 279 25 428t106 233q100 111 306 111q148 0 264 -43l-76 -195q-84 31 -176 31q-52 0 -88 -10.5t-63 -39.5t-42.5 -68t-25 -107.5t-12.5 -147t-3 -196.5q0 -141 5 -228.5t18.5 -158.5t40.5 -107t67.5 -54
t102.5 -18q95 0 184 39l76 -188q-122 -51 -270 -51z" />
    <glyph glyph-name="D" unicode="D" horiz-adv-x="962" 
d="M94 0v1518h348q239 0 346 -113q77 -81 99 -226t22 -419q0 -289 -23.5 -435.5t-107.5 -224.5q-103 -100 -340 -100h-344zM307 186h137q71 0 115.5 18.5t72.5 50.5t40.5 109t16 159t3.5 235q0 93 -1 152t-5 122t-11.5 99.5t-20.5 74t-30.5 56t-44.5 34.5t-60.5 21.5
t-78.5 5.5h-133v-1137z" />
    <glyph glyph-name="E" unicode="E" horiz-adv-x="825" 
d="M94 0v1518h670v-199h-457v-445h436v-198h-436v-481h457v-195h-670z" />
    <glyph glyph-name="F" unicode="F" horiz-adv-x="794" 
d="M94 0v1518h666v-199h-453v-467h432v-199h-432v-653h-213z" />
    <glyph glyph-name="G" unicode="G" horiz-adv-x="913" 
d="M465 -10q-180 0 -270 84q-87 79 -113.5 239t-26.5 447q0 274 24.5 425t104.5 236q108 111 320 111q181 0 315 -59l-88 -189q-95 43 -215 43q-55 0 -94 -11t-67.5 -39.5t-45 -68.5t-26.5 -108.5t-13.5 -147t-3.5 -196.5q0 -117 2.5 -192t10 -146t21.5 -111t37.5 -71.5
t57 -43.5t80.5 -12q51 0 83.5 12.5t54 37t32 76t14 114.5t3.5 168v100h-232v195h440v-246q0 -244 -25.5 -374t-92.5 -193q-86 -80 -287 -80z" />
    <glyph glyph-name="H" unicode="H" horiz-adv-x="999" 
d="M94 0v1518h213v-629h385v629h213v-1518h-213v676h-385v-676h-213z" />
    <glyph glyph-name="I" unicode="I" horiz-adv-x="425" 
d="M106 0v1518h213v-1518h-213z" />
    <glyph glyph-name="J" unicode="J" horiz-adv-x="579" 
d="M35 0v195h106q78 0 108 31.5t30 101.5v1190h215v-1209q0 -164 -77 -236.5t-233 -72.5h-149z" />
    <glyph glyph-name="K" unicode="K" horiz-adv-x="915" 
d="M94 0v1518h211v-695l338 695h223l-299 -598l320 -920h-225l-234 678l-123 -268v-410h-211z" />
    <glyph glyph-name="L" unicode="L" horiz-adv-x="765" 
d="M94 0v1518h213v-1323h438v-195h-651z" />
    <glyph glyph-name="M" unicode="M" horiz-adv-x="1191" 
d="M94 0v1518h271l180 -834l51 -260l49 258l186 836h267v-1518h-203v1047l-41 -203l-182 -844h-168l-182 844l-41 211v-1055h-187z" />
    <glyph glyph-name="N" unicode="N" horiz-adv-x="978" 
d="M94 0v1518h221l299 -791l74 -197v988h197v-1518h-193l-332 860l-67 180v-1040h-199z" />
    <glyph glyph-name="O" unicode="O" horiz-adv-x="997" 
d="M498 -10q-195 0 -305 102q-38 37 -64 89t-40.5 107t-22 138t-9.5 153t-2 181q0 137 3.5 220t15.5 175t38.5 155t69.5 109q108 115 316 115q205 0 315 -113q43 -46 70 -109.5t39.5 -155t16 -176.5t3.5 -220q0 -139 -4 -225t-17 -179t-41.5 -156t-74.5 -108
q-110 -102 -307 -102zM498 186q39 0 69 6.5t53.5 23.5t40 38.5t28.5 59t19 76.5t11 99.5t5 120t1 146.5t-1 146.5t-5 120.5t-11 100.5t-19 77t-28.5 59t-40 38.5t-53.5 24t-69 7q-52 0 -88.5 -12t-62.5 -44t-41 -71.5t-23 -110.5t-10.5 -145t-2.5 -190t2.5 -189.5
t10.5 -144.5t23 -110.5t41 -70.5t62.5 -43t88.5 -12z" />
    <glyph glyph-name="P" unicode="P" horiz-adv-x="925" 
d="M94 0v1518h365q122 0 203.5 -28t129.5 -89t67.5 -147t19.5 -214q0 -127 -19.5 -214t-66.5 -150t-128.5 -92t-203.5 -29h-156v-555h-211zM305 750h154q123 0 168 63t45 225q0 164 -45 224.5t-170 60.5h-152v-573z" />
    <glyph glyph-name="Q" unicode="Q" horiz-adv-x="995" 
d="M766 -332h-121q-165 0 -221 72t-53 268q-109 23 -178 92q-38 36 -64 87t-40.5 105t-22 136t-9.5 152t-2 180q0 137 3.5 220t15.5 175t38.5 155t69.5 109q108 115 316 115q205 0 315 -113q43 -46 70 -109.5t39.5 -155t16 -176.5t3.5 -220q0 -139 -4 -224t-17 -177
t-41.5 -154t-74.5 -107q-90 -84 -232 -98q2 -90 21.5 -117.5t83.5 -27.5h88v-187zM498 182q45 0 78 10.5t57.5 28.5t41 54t26.5 76t15 106t7 131.5t2 165.5q0 87 -1 147t-5 121t-11 100.5t-19 77.5t-28.5 59.5t-40 38.5t-53.5 24t-69 7q-52 0 -88.5 -12t-62.5 -44t-41 -71.5
t-23 -111t-10.5 -145.5t-2.5 -191q0 -116 2.5 -190t10.5 -145t23 -110.5t41 -71t62.5 -43.5t88.5 -12z" />
    <glyph glyph-name="R" unicode="R" horiz-adv-x="929" 
d="M641 0l-178 588h-160v-588h-209v1518h355q120 0 201 -26t129.5 -83.5t68.5 -139.5t20 -202q0 -168 -46.5 -273.5t-159.5 -158.5l198 -635h-219zM303 780h146q124 0 168.5 62t44.5 213t-45 209.5t-171 58.5h-143v-543z" />
    <glyph glyph-name="S" unicode="S" horiz-adv-x="817" 
d="M377 -10q-205 0 -350 67l88 181q111 -54 256 -54q83 0 131.5 39.5t48.5 118.5q0 65 -46 140.5t-188 248.5q-146 178 -195.5 265.5t-49.5 195.5q0 71 20 130.5t62 107.5t115 75t171 27q174 0 299 -43l-69 -193q-103 35 -226 35q-81 0 -123 -37.5t-42 -103.5q0 -57 32 -109
t168 -219q175 -213 227 -307.5t52 -216.5q0 -158 -95 -253t-286 -95z" />
    <glyph glyph-name="T" unicode="T" horiz-adv-x="854" 
d="M317 0v1319h-299v199h816v-199h-299v-1319h-218z" />
    <glyph glyph-name="U" unicode="U" horiz-adv-x="980" 
d="M489 -16q-203 0 -299 90q-62 57 -83 147.5t-21 233.5v1063h215v-1055q0 -154 39.5 -217.5t153.5 -63.5q113 0 152.5 63.5t39.5 217.5v1055h209v-1063q0 -143 -19 -233t-79 -146q-98 -92 -308 -92z" />
    <glyph glyph-name="V" unicode="V" horiz-adv-x="940" 
d="M354 -4l-329 1522h217l184 -885l47 -250l47 246l185 889h213l-332 -1522h-232z" />
    <glyph glyph-name="W" unicode="W" horiz-adv-x="1372" 
d="M299 -4l-254 1522h215l125 -764l37 -242l39 240l145 766h176l146 -766l39 -240l37 242l126 764h197l-254 -1522h-207l-137 715l-41 243l-43 -243l-137 -715h-209z" />
    <glyph glyph-name="X" unicode="X" horiz-adv-x="952" 
d="M698 0l-235 561l-217 -561h-219l329 817l-293 701h226l198 -480l185 480h219l-297 -736l328 -782h-224z" />
    <glyph glyph-name="Y" unicode="Y" horiz-adv-x="911" 
d="M348 0v518l-346 1000h225l230 -703l231 703h219l-346 -1006v-512h-213z" />
    <glyph glyph-name="Z" unicode="Z" horiz-adv-x="829" 
d="M41 0v166l502 1153h-482v199h711v-183l-496 -1140h512v-195h-747z" />
    <glyph glyph-name="bracketleft" unicode="[" horiz-adv-x="671" 
d="M145 -311v1874h412v-189h-203v-1507h207v-178h-416z" />
    <glyph glyph-name="backslash" unicode="\" horiz-adv-x="733" 
d="M524 0l-524 1518h209l524 -1518h-209z" />
    <glyph glyph-name="bracketright" unicode="]" horiz-adv-x="671" 
d="M113 -311v178h206v1507h-204v189h413v-1874h-415z" />
    <glyph glyph-name="asciicircum" unicode="^" 
d="M76 1217l194 315h207l195 -315h-183l-116 174l-117 -174h-180z" />
    <glyph glyph-name="underscore" unicode="_" horiz-adv-x="575" 
d="M-47 -256v154h668v-154h-668z" />
    <glyph glyph-name="grave" unicode="`" 
d="M311 1245l-215 316h240l162 -316h-187z" />
    <glyph glyph-name="a" unicode="a" horiz-adv-x="825" 
d="M317 -8q-154 0 -214 87.5t-60 285.5q0 123 24.5 202.5t81.5 126t138.5 64.5t208.5 18h20q-1 53 -5 82.5t-16.5 54.5t-37.5 35t-66 10q-118 0 -219 -38l-70 186q131 51 314 51q169 0 239 -76q36 -39 50 -105.5t14 -170.5v-533q0 -55 11.5 -71.5t55.5 -16.5v-184
q-14 -2 -81 -2q-63 0 -95 17.5t-47 58.5q-37 -40 -93 -61t-153 -21zM358 166q43 0 73 13t46.5 32.5t25.5 51.5t11 59.5t2 68.5v213h-6q-160 0 -214 -43t-54 -180q0 -118 23 -166.5t93 -48.5z" />
    <glyph glyph-name="b" unicode="b" horiz-adv-x="854" 
d="M518 -8q-185 0 -250 74l-24 -72l-164 12v1557h205v-488q61 82 241 82q118 0 187 -72q44 -45 66 -128.5t26 -161.5t4 -222q0 -109 -2.5 -171.5t-12 -137t-31.5 -124t-58 -83.5q-65 -65 -187 -65zM453 178q35 0 60.5 9.5t41.5 34.5t25 50.5t13.5 78t5.5 94.5t1 120
q0 67 -0.5 104.5t-3.5 86t-9 74t-16.5 54.5t-26 42.5t-38.5 22.5t-53 9q-39 0 -66.5 -8.5t-46.5 -31t-29.5 -49t-16.5 -76.5t-7.5 -99t-1.5 -129t1.5 -128t7.5 -97t16.5 -75.5t29.5 -48.5t46.5 -30t66.5 -8z" />
    <glyph glyph-name="c" unicode="c" horiz-adv-x="626" 
d="M397 -8q-144 0 -233 76q-72 65 -94.5 184.5t-22.5 322.5q0 188 20.5 303t82.5 183q89 96 253 96q93 0 187 -24l-58 -193q-53 16 -110 16q-102 0 -133 -80.5t-31 -306.5q0 -229 31.5 -311t134.5 -82q55 0 111 23l59 -179q-89 -28 -197 -28z" />
    <glyph glyph-name="d" unicode="d" horiz-adv-x="858" 
d="M332 -10q-114 0 -187 73q-62 65 -79 183t-17 332q0 216 18.5 333t86.5 181q72 65 186 65q168 0 233 -74v480h205v-1555l-170 -10l-10 80q-68 -88 -266 -88zM406 178q34 0 58.5 7.5t42.5 19.5t30 38t19.5 52.5t11 73t4.5 90t1 112.5q0 68 -1 111t-4.5 89t-11 72t-19.5 51
t-30 37.5t-42.5 19.5t-58.5 7q-35 0 -60 -9.5t-41 -34t-25.5 -51.5t-14.5 -77.5t-6 -94.5t-1 -120q0 -65 1 -105t4 -87t9 -73.5t16.5 -54.5t26.5 -41.5t38.5 -22.5t52.5 -9z" />
    <glyph glyph-name="e" unicode="e" horiz-adv-x="770" 
d="M393 -10q-151 0 -229 78q-70 67 -93.5 187.5t-23.5 319.5q0 196 21.5 308.5t85.5 179.5q84 94 252 94q156 0 227 -80q59 -68 76 -202t12 -402h-475q3 -173 37 -237t137 -64q108 0 237 45l58 -176q-83 -28 -154 -39.5t-168 -11.5zM403 965q-92 0 -123 -67t-34 -239h293
q-1 80 -3.5 124.5t-10 85t-22.5 58.5t-38.5 28t-61.5 10z" />
    <glyph glyph-name="f" unicode="f" horiz-adv-x="569" 
d="M23 958v187h137v133q0 150 73 218.5t242 68.5q64 0 82 -2v-187h-70q-73 -1 -96.5 -29t-23.5 -94v-108h190v-187h-190v-958h-207v958h-137z" />
    <glyph glyph-name="g" unicode="g" horiz-adv-x="819" 
d="M397 418q-49 0 -90 6q-10 -27 -10 -49q0 -42 22.5 -58t96.5 -16q114 0 189.5 -17.5t117 -55.5t58 -88.5t16.5 -125.5q0 -183 -94.5 -259.5t-303.5 -76.5q-212 0 -297.5 62.5t-85.5 212.5q0 206 162 256q-57 48 -57 139q0 82 43 137q-101 85 -101 297q0 191 79 285t255 94
q20 0 78 -4l309 49v-170h-116q65 -77 65 -254q0 -186 -81 -275t-255 -89zM401 -168q104 0 147.5 37t43.5 125q0 78 -42 107.5t-151 29.5q-57 0 -94 -10.5t-55 -32.5t-24.5 -46.5t-6.5 -61.5q0 -53 13 -83t53.5 -47.5t115.5 -17.5zM399 592q79 0 106 45.5t27 146.5t-27 147
t-106 46q-80 0 -106.5 -45.5t-26.5 -147.5t26.5 -147t106.5 -45z" />
    <glyph glyph-name="h" unicode="h" horiz-adv-x="856" 
d="M80 0v1563h205v-484q71 78 233 78q138 0 201 -70q37 -44 50 -112t13 -172v-803h-207v733q0 135 -25 180t-104 45q-43 0 -73 -12t-47 -32t-26.5 -56.5t-12 -73.5t-2.5 -96v-688h-205z" />
    <glyph glyph-name="i" unicode="i" horiz-adv-x="378" 
d="M86 0v1145h207v-1145h-207zM86 1272v241h207v-241h-207z" />
    <glyph glyph-name="j" unicode="j" horiz-adv-x="378" 
d="M14 -311v182q48 0 60 18t12 78v1178h207v-1194q0 -155 -60 -208.5t-219 -53.5zM86 1272v241h207v-241h-207z" />
    <glyph glyph-name="k" unicode="k" horiz-adv-x="784" 
d="M80 0v1563h201v-934l258 516h211l-250 -483l272 -662h-219l-186 455l-86 -170v-285h-201z" />
    <glyph glyph-name="l" unicode="l" horiz-adv-x="438" 
d="M348 -2q-155 0 -208.5 55.5t-53.5 206.5v1303h207v-1278q0 -65 14 -83t74 -18h8v-184q-6 -2 -41 -2z" />
    <glyph glyph-name="m" unicode="m" horiz-adv-x="1310" 
d="M80 0v1133l170 10l12 -68q60 82 246 82q93 0 143 -23t74 -71q58 94 260 94q145 0 201 -72q37 -44 49 -110.5t12 -171.5v-803h-207v733q0 137 -23.5 181t-96.5 44q-95 0 -124.5 -53t-29.5 -184v-721h-207v733q0 137 -24 181t-97 44q-42 0 -70.5 -12t-45 -31t-25 -56
t-10.5 -73.5t-2 -97.5v-688h-205z" />
    <glyph glyph-name="n" unicode="n" horiz-adv-x="856" 
d="M80 0v1133l170 10l12 -68q58 82 244 82q150 0 213 -70q37 -44 50 -112t13 -172v-803h-207v733q0 136 -25.5 180.5t-103.5 44.5q-42 0 -71.5 -11.5t-47 -31.5t-27 -56t-12.5 -74t-3 -97v-688h-205z" />
    <glyph glyph-name="o" unicode="o" horiz-adv-x="833" 
d="M418 -10q-167 0 -256 86q-70 66 -92.5 182.5t-22.5 314.5q0 196 21 310.5t88 181.5q92 92 262 92q173 0 264 -94q65 -67 84.5 -181t19.5 -309q0 -197 -21.5 -312t-90.5 -183q-88 -88 -256 -88zM418 176q33 0 57 8t41 20.5t28.5 39t18.5 53t10 73t4 88t1 109.5t-1 109.5
t-4 88t-10 73t-18.5 53t-28.5 39t-41 20.5t-57 8q-38 0 -65.5 -9t-45.5 -32t-28.5 -50t-16 -77t-7 -97t-1.5 -126t1.5 -126t7 -97t16 -77t28.5 -50t45.5 -32t65.5 -9z" />
    <glyph glyph-name="p" unicode="p" horiz-adv-x="858" 
d="M80 -311v1444l170 10l12 -72q63 86 264 86q118 0 187 -72q44 -45 66 -128.5t26 -161.5t4 -222q0 -109 -2.5 -171.5t-12 -137t-31.5 -124t-58 -83.5q-68 -65 -187 -65q-168 0 -233 76v-379h-205zM453 178q35 0 60.5 9.5t41.5 34.5t25 50.5t13.5 78t5.5 94.5t1 120
q0 67 -0.5 104.5t-3.5 86t-9 74t-16.5 54.5t-26 42.5t-38.5 22.5t-53 9q-39 0 -66.5 -8.5t-46.5 -31t-29.5 -49t-16.5 -76.5t-7.5 -99t-1.5 -129t1.5 -128t7.5 -97t16.5 -75.5t29.5 -48.5t46.5 -30t66.5 -8z" />
    <glyph glyph-name="q" unicode="q" horiz-adv-x="856" 
d="M573 -311v387q-63 -84 -241 -84q-120 0 -187 67q-62 65 -79 184.5t-17 334.5q0 216 18.5 333t86.5 181q72 65 186 65q185 0 252 -78l22 68l164 -10v-1448h-205zM406 178q34 0 58.5 7.5t42.5 19.5t30 38t19.5 52.5t11 73t4.5 90t1 112.5q0 68 -1 111t-4.5 89t-11 72
t-19.5 51t-30 37.5t-42.5 19.5t-58.5 7q-35 0 -60 -9.5t-41 -34t-25.5 -51.5t-14.5 -77.5t-6 -94.5t-1 -120q0 -65 1 -105t4 -87t9 -73.5t16.5 -54.5t26.5 -41.5t38.5 -22.5t52.5 -9z" />
    <glyph glyph-name="r" unicode="r" horiz-adv-x="516" 
d="M80 0v1133l170 10l14 -92q26 40 86 65.5t146 28.5v-203q-75 -5 -119.5 -32t-67 -89t-22.5 -168v-653h-207z" />
    <glyph glyph-name="s" unicode="s" horiz-adv-x="692" 
d="M336 -10q-194 0 -303 59l78 172q41 -22 104 -37.5t121 -15.5q48 0 78 22.5t30 69.5t-26 88.5t-131 155.5q-93 100 -133 150t-62 102.5t-22 115.5q0 131 74 209t231 78q141 0 241 -33l-63 -188q-89 29 -172 29q-115 0 -115 -95q0 -38 24.5 -74.5t121.5 -142.5
q62 -67 91 -100t62.5 -75.5t46 -71.5t21 -64.5t8.5 -77.5q0 -127 -76 -201.5t-229 -74.5z" />
    <glyph glyph-name="t" unicode="t" horiz-adv-x="602" 
d="M23 958v187h139l28 246l168 43v-289h191v-187h-191v-651q0 -66 20.5 -91.5t90.5 -25.5h80v-190q-27 -2 -107 -2q-89 0 -144.5 15t-88 52t-44 89.5t-11.5 136.5v667h-131z" />
    <glyph glyph-name="u" unicode="u" horiz-adv-x="843" 
d="M422 -10q-168 0 -256 78q-52 47 -72 115.5t-20 170.5v791h207v-768q0 -110 28.5 -155.5t114.5 -45.5q85 0 114 45.5t29 157.5v766h203v-789q0 -100 -19 -168.5t-67 -113.5q-91 -84 -262 -84z" />
    <glyph glyph-name="v" unicode="v" horiz-adv-x="763" 
d="M262 -2l-256 1147h217l123 -610l41 -224l41 224l125 610h203l-256 -1147h-238z" />
    <glyph glyph-name="w" unicode="w" horiz-adv-x="1140" 
d="M231 -2l-213 1147h207l90 -531l29 -190l33 188l112 533h179l112 -539l31 -182l27 184l94 537h190l-211 -1147h-200l-107 528l-33 187l-32 -187l-103 -528h-205z" />
    <glyph glyph-name="x" unicode="x" horiz-adv-x="759" 
d="M528 0l-166 381l-153 -381h-201l256 608l-233 537h219l145 -338l137 338h199l-237 -563l254 -582h-220z" />
    <glyph glyph-name="y" unicode="y" horiz-adv-x="751" 
d="M174 -313q-76 0 -90 2v182h76q54 1 73 11.5t27 39.5l19 78l-273 1145h209l123 -580l43 -231l39 231l119 580h204l-297 -1260q-30 -116 -89.5 -156t-182.5 -42z" />
    <glyph glyph-name="z" unicode="z" horiz-adv-x="659" 
d="M25 0v141l360 817h-340v187h578v-144l-365 -829h377v-172h-610z" />
    <glyph glyph-name="braceleft" unicode="{" horiz-adv-x="720" 
d="M442 -311q-130 0 -192 57.5t-62 187.5q0 60 33 255t33 245q0 65 -31.5 83t-130.5 18v182q98 0 130 17t32 79q0 49 -33 241t-33 255q0 133 61 193.5t193 60.5h166v-189h-86q-65 0 -93 -25t-28 -92q0 -45 30 -226.5t30 -252.5q0 -119 -88 -151q88 -36 88 -150
q0 -69 -30 -256t-30 -233q0 -67 28 -94t93 -27h86v-178h-166z" />
    <glyph glyph-name="bar" unicode="|" horiz-adv-x="495" 
d="M141 -311v1874h209v-1874h-209z" />
    <glyph glyph-name="braceright" unicode="}" horiz-adv-x="720" 
d="M111 -311v178h86q66 0 94 26.5t28 94.5q0 46 -30.5 233t-30.5 256q0 112 88 150q-88 33 -88 151q0 71 30.5 252.5t30.5 226.5q0 67 -27.5 92t-94.5 25h-86v189h168q131 0 192 -60.5t61 -193.5q0 -63 -33.5 -255t-33.5 -241q0 -62 32.5 -79t131.5 -17v-182
q-101 0 -132.5 -18t-31.5 -83q0 -50 33.5 -245t33.5 -255q0 -130 -61.5 -187.5t-191.5 -57.5h-168z" />
    <glyph glyph-name="asciitilde" unicode="~" 
d="M233 782l-159 23q13 111 54 166t128 55q41 0 112.5 -31.5t86.5 -31.5q28 0 39.5 13.5t17.5 55.5l160 -22q-13 -110 -54 -164.5t-126 -54.5q-42 0 -113.5 31.5t-87.5 31.5q-27 0 -39.5 -15t-18.5 -57z" />
    <glyph glyph-name="exclamdown" unicode="&#xa1;" horiz-adv-x="522" 
d="M145 0l21 1079h188l19 -1079h-228zM143 1243v275h238v-275h-238z" />
    <glyph glyph-name="cent" unicode="&#xa2;" horiz-adv-x="714" 
d="M309 -197v205q-68 20 -119 64q-72 65 -94 182.5t-22 320.5q0 188 20 301t82 181q51 57 133 78v182h174v-168q37 -1 133 -21l-57 -188q-53 16 -110 16q-102 0 -133 -80.5t-31 -306.5q0 -229 31.5 -311t134.5 -82q54 0 110 23l57 -172q-63 -24 -135 -29v-195h-174z" />
    <glyph glyph-name="sterling" unicode="&#xa3;" horiz-adv-x="854" 
d="M553 -6q-133 0 -250 49q-84 -44 -262 -41v184q68 -1 108 12t53.5 38t16 60t-5.5 77l-37 319h-135v162h119l-33 289q-10 88 2.5 157.5t49 123t105 82t165.5 28.5q165 0 299 -51l-72 -183q-92 37 -219 37q-153 0 -131 -192l32 -291h232v-162h-215l37 -319q12 -115 -2 -185
q55 -18 118 -18q58 0 77.5 30.5t19.5 110.5v86h182v-98q0 -173 -56.5 -239t-197.5 -66z" />
    <glyph glyph-name="currency" unicode="&#xa4;" horiz-adv-x="864" 
d="M39 813v176h145q5 173 28.5 278.5t80.5 168.5q92 98 270 98q81 0 132.5 -10t107.5 -33l-76 -184q-68 28 -164 28q-100 0 -134.5 -72.5t-39.5 -273.5h283v-176h-283v-94h283v-176h-281q5 -211 38.5 -288t133.5 -77q105 0 178 33l70 -178q-57 -24 -110.5 -33.5t-137.5 -9.5
q-164 0 -258 84q-65 62 -90.5 169t-30.5 300h-145v176h143v94h-143z" />
    <glyph glyph-name="yen" unicode="&#xa5;" horiz-adv-x="866" 
d="M96 420v176h234l-307 924h217l194 -695l195 695h215l-312 -924h238v-176h-238v-94h238v-176h-238v-150h-198v150h-238v176h238v94h-238z" />
    <glyph glyph-name="brokenbar" unicode="&#xa6;" horiz-adv-x="495" 
d="M141 -311v778h209v-778h-209zM141 784v779h209v-779h-209z" />
    <glyph glyph-name="section" unicode="&#xa7;" horiz-adv-x="782" 
d="M176 0q-17 0 -43 1t-27 1v176h58q73 1 97 29.5t24 95.5v84q-54 9 -92 29t-61.5 49t-37 76t-18 99.5t-4.5 129.5t4.5 129.5t18 99.5t37 76t61.5 49t92 29v98q0 152 68 219.5t237 67.5q59 0 69 -2v-176h-59q-73 -1 -97 -28.5t-24 -94.5v-80q59 -7 100 -26.5t67 -49t40 -77
t19.5 -101.5t5.5 -133q0 -78 -5 -132t-19.5 -101.5t-40.5 -77t-67 -48.5t-100 -26v-98q0 -151 -68 -219t-235 -68zM391 545q58 0 87 18t41.5 64.5t12.5 140.5q0 135 -29 179t-112 44q-81 0 -110 -44.5t-29 -178.5q0 -136 28 -179.5t111 -43.5z" />
    <glyph glyph-name="dieresis" unicode="&#xa8;" 
d="M133 1245v223h180v-223h-180zM434 1245v223h180v-223h-180z" />
    <glyph glyph-name="copyright" unicode="&#xa9;" horiz-adv-x="1028" 
d="M537 256q-128 0 -193 68q-54 54 -72 153.5t-18 280.5t16.5 278.5t69.5 153.5q67 70 197 70q82 0 174 -29l-54 -131q-55 20 -114 20q-39 0 -64.5 -13t-41 -36t-23.5 -71t-10.5 -101.5t-2.5 -144.5q0 -75 1.5 -122t6.5 -92t14.5 -70t25.5 -44.5t38.5 -27t55.5 -7.5
q59 0 121 27l53 -127q-82 -35 -180 -35zM514 -16q-77 0 -138 11.5t-108 37t-81.5 59t-58.5 85.5t-39 107.5t-23.5 134.5t-11.5 157t-3 184q0 105 3 182.5t11 156.5t23 134.5t39 108t58.5 86t81.5 59.5t108.5 37.5t138.5 11.5q69 0 125 -10t100.5 -28t79 -48.5t60 -66t43 -87
t29 -104.5t17.5 -125.5t8.5 -143t2.5 -163.5q0 -106 -3 -184t-11.5 -157t-23.5 -134.5t-39 -107.5t-59 -85.5t-82 -59t-108.5 -37t-138.5 -11.5zM514 70q72 0 127.5 15t95 40.5t67 72t44 96.5t25 128.5t11.5 153.5t3 184q0 95 -2 162.5t-8.5 139t-18 119.5t-30.5 95
t-46.5 76.5t-65.5 52.5t-88 33t-114 10q-63 0 -113 -10t-88 -33t-65.5 -52.5t-46.5 -76.5t-31 -95.5t-18.5 -119.5t-8.5 -138.5t-2 -162.5q0 -109 3 -184.5t12 -153t25.5 -128t44 -97t67 -72t94.5 -40.5t127 -15z" />
    <glyph glyph-name="ordfeminine" unicode="&#xaa;" horiz-adv-x="761" 
d="M303 586q-123 0 -173 71t-50 230q0 101 19 164.5t65.5 99.5t111.5 49.5t168 13.5h19q0 87 -19 121.5t-82 34.5q-99 0 -178 -31l-57 152q110 43 254 43q142 0 197 -64q29 -34 40 -86t11 -139v-430q0 -45 9 -59.5t44 -14.5v-149q-10 -2 -66 -2q-57 0 -85.5 21t-34.5 67
q-31 -46 -74 -69t-119 -23zM115 313v154h530v-154h-530zM336 729q34 0 58 10t37.5 25t20.5 39.5t9 46t2 51.5v182h-4q-69 0 -106 -5t-64.5 -24.5t-37 -55t-9.5 -97.5q0 -95 18.5 -133.5t75.5 -38.5z" />
    <glyph glyph-name="guillemotleft" unicode="&#xab;" horiz-adv-x="964" 
d="M291 0l-193 571l193 574h182l-178 -574l178 -571h-182zM653 0l-190 571l190 574h185l-179 -574l179 -571h-185z" />
    <glyph glyph-name="logicalnot" unicode="&#xac;" horiz-adv-x="1703" 
d="M258 246q-88 105 -136 237t-48 277q0 144 48 276t136 236q6 -4 14 -12q-85 -103 -131.5 -231.5t-46.5 -268.5q0 -285 180 -500zM467 432q-117 143 -117 328q0 183 115 327q3 -2 8 -7t8 -7q-110 -136 -110 -313q0 -182 110 -314zM541 498q-92 116 -92 262t92 262
q3 -2 8 -7t8 -7q-88 -109 -88 -248t88 -248q-3 -2 -8 -7t-8 -7zM647 592q-57 72 -57 168q0 97 57 166l15 -15q-52 -69 -52 -151q0 -84 54 -154q-3 -2 -8.5 -7t-8.5 -7zM715 655q-33 48 -33 105q0 56 33 104q3 -2 8 -7t8 -7q-29 -44 -29 -90t29 -90q-3 -2 -16 -15zM774 709
q-14 25 -14 51t14 51l12 -10q-10 -20 -10 -41t10 -41q-4 -4 -12 -10zM852 123q-236 0 -412 158l2.5 2.5l5 5l5.5 5.5t2 1q171 -152 397 -152q227 0 395 152q2 -3 7.5 -8t7.5 -8q-177 -156 -410 -156zM852 664q-31 0 -55 18l12 12q21 -14 43 -14q26 0 43 14q4 -4 10 -12
q-21 -18 -53 -18zM987 653q-7 10 -14 15q28 42 28 92q0 51 -28 90l2.5 2.5t5 4.5t5.5 5t1 2q35 -44 35 -104t-35 -107zM598 551q-72 91 -72 209q0 119 74 209l14 -15q-67 -87 -67 -194q0 -108 67 -195q-10 -10 -16 -14zM852 -35q-145 0 -278 52.5t-238 146.5l14 16
q102 -92 231 -143t271 -51q285 0 500 192q0 1 3.5 -2.5t6.5 -7.5l4 -4q-104 -95 -236 -147t-278 -52zM852 248q-189 0 -330 125l15 16q134 -121 315 -121q182 0 313 121q2 -3 7.5 -8t7.5 -8q-138 -125 -328 -125zM852 348q-145 0 -264 101l14 14q108 -94 250 -94
q143 0 248 94q2 -3 7 -8.5t7 -8.5q-112 -98 -262 -98zM852 428q-116 0 -211 78l14 16q86 -73 197 -73t197 73q4 -4 12 -16q-91 -78 -209 -78zM852 543q-77 0 -135 49l14 16q51 -45 121 -45q68 0 119 45q2 -3 7 -8t7 -8q-58 -49 -133 -49zM733 911q-4 3 -7 6.5t-6 6.5l-3 4
q58 49 135 49t135 -49l-16 -17q-51 45 -119 45t-119 -45zM1167 1130q-134 121 -315 121q-179 0 -313 -118l-15 14q141 125 328 125q189 0 330 -125q-4 -6 -15 -17zM930 709l-12 10q10 20 10 41t-10 41l12 10q14 -25 14 -51t-14 -51zM958 682q-10 10 -16 14q21 32 21 64
t-21 63l16 15q25 -36 25 -78t-25 -78zM1020 627q-6 4 -16 14q38 50 38 119t-38 119l14 14q45 -57 45 -133q0 -71 -43 -133zM1106 551q-3 2 -8 7t-8 7q67 87 67 195t-70 194l17 15q74 -90 74 -209q0 -118 -72 -209zM1163 498q-10 10 -16 14q88 109 88 248t-88 248l16 14
q92 -116 92 -262t-92 -262zM1237 432q-6 4 -16 14q112 134 112 314q0 182 -112 313l16 14q117 -139 117 -327q0 -189 -117 -328zM1329 350q-2 2 -7 6t-7 6q141 175 141 398q0 227 -143 395l16 14q148 -179 148 -409q0 -231 -148 -410zM1446 246q-6 6 -16 14q180 215 180 500
t-180 500l16 14q88 -105 136 -237t48 -277q0 -144 -48 -276t-136 -238zM375 348q-148 182 -148 412q0 229 146 409q2 -2 7.5 -6.5t8.5 -7.5q-141 -170 -141 -395q0 -228 141 -398zM684 627q-43 59 -43 133t43 133q6 -4 16 -14q-38 -50 -38 -119q0 -67 38 -117zM745 682
q-24 34 -24 78t24 78q2 -3 4.5 -5.5t6 -5.5t4.5 -4q-19 -34 -19 -63q0 -30 19 -64zM809 825l-10 13q21 18 53 18t53 -18l-10 -13q-23 15 -43 15q-25 0 -43 -15zM786 852l-14 14q37 29 80 29q41 0 78 -29q-8 -8 -12 -14q-28 25 -66 25q-34 0 -66 -25zM760 881l-15 16
q45 39 107 39q61 0 106 -39l-14 -16q-37 34 -92 34t-92 -34zM604 1057l-14 16q112 98 262 98q151 0 262 -100q1 0 -2 -3.5t-6 -7.5l-4 -3q-108 94 -250 94q-143 0 -248 -94zM852 492q-100 0 -170 61l14 16q70 -57 156 -57q87 0 154 57l14 -14q-73 -63 -168 -63zM852 584
q-61 0 -109 39l15 16q47 -35 94 -35q51 0 92 35l14 -16q-45 -39 -106 -39zM852 625q-43 0 -82 28l14 15q36 -25 68 -25q34 0 66 25l14 -15q-36 -28 -80 -28zM698 950l-14 15q73 63 168 63q98 0 168 -61l-14 -17q-68 58 -154 58q-87 0 -154 -58zM655 997l-14 17q91 78 211 78
q119 0 209 -80l-12 -15q-83 74 -197 74q-110 0 -197 -74zM1249 1223q-166 153 -397 153q-227 0 -397 -151l-15 14q179 158 412 158t412 -158zM352 1339l-14 17q104 95 236 146.5t278 51.5q145 0 278 -52t238 -146l-14 -17q-102 93 -231 144t-271 51t-270 -51t-230 -144z
M1057 594l-15 14q52 69 52 152t-54 153l17 15q57 -72 57 -168q0 -97 -57 -166z" />
    <glyph glyph-name="registered" unicode="&#xae;" horiz-adv-x="1028" 
d="M514 -16q-77 0 -138 11.5t-108 37t-81.5 59t-58.5 85.5t-39 107.5t-23.5 134.5t-11.5 157t-3 184q0 105 3 182.5t11 156.5t23 134.5t39 108t58.5 86t81.5 59.5t108.5 37.5t138.5 11.5q69 0 125 -10t100.5 -28t79 -48.5t60 -66t43 -87t29 -104.5t17.5 -125.5t8.5 -143
t2.5 -163.5q0 -106 -3 -184t-11.5 -157t-23.5 -134.5t-39 -107.5t-59 -85.5t-82 -59t-108.5 -37t-138.5 -11.5zM514 70q72 0 127.5 15t95 40.5t67 72t44 96.5t25 128.5t11.5 153.5t3 184q0 95 -2 162.5t-8.5 139t-18 119.5t-30.5 95t-46.5 76.5t-65.5 52.5t-88 33t-114 10
q-63 0 -113 -10t-88 -33t-65.5 -52.5t-46.5 -76.5t-31 -95.5t-18.5 -119.5t-8.5 -138.5t-2 -162.5q0 -109 3 -184.5t12 -153t25.5 -128t44 -97t67 -72t94.5 -40.5t127 -15zM618 289l-112 368h-84v-368h-133v940h219q149 0 203.5 -61.5t54.5 -217.5q0 -108 -28.5 -173.5
t-100.5 -94.5l121 -393h-140zM422 780h80q78 0 102.5 32t24.5 132q0 101 -24.5 132.5t-104.5 31.5h-78v-328z" />
    <glyph glyph-name="macron" unicode="&#xaf;" 
d="M111 1245v182h528v-182h-528z" />
    <glyph glyph-name="macron" unicode="&#x2c9;" 
d="M111 1245v182h528v-182h-528z" />
    <glyph glyph-name="degree" unicode="&#xb0;" horiz-adv-x="729" 
d="M365 567q-47 0 -85 7.5t-67 19.5t-51.5 34t-37.5 43.5t-25.5 57t-16.5 65.5t-9 77t-4 84t-1 94q0 65 1 106t5 93t12.5 84t23 68.5t36.5 58t52.5 40.5t72 27t94.5 8q52 0 94 -8t72 -27t52 -40.5t36.5 -57.5t23 -69t13 -84.5t5.5 -93t1 -105.5q0 -56 -1 -93.5t-4 -84
t-9 -77t-16.5 -65.5t-26 -57t-37.5 -44t-51 -34t-67 -19.5t-85 -7.5zM365 719q20 0 36 4t28.5 9.5t21.5 19t15.5 25.5t10.5 35.5t6.5 42t3.5 53t1.5 60.5t0.5 72q0 69 -1 104.5t-4.5 80t-11 64.5t-21.5 40.5t-35 27.5t-51 7t-51 -7t-35 -27t-22 -41t-11.5 -64.5t-4.5 -80
t-1 -104.5t1 -104.5t4.5 -79.5t11.5 -63.5t22 -40t35 -26.5t51 -7z" />
    <glyph glyph-name="plusminus" unicode="&#xb1;" horiz-adv-x="1402" 
d="M606 0v958h-239v-958h-207v958h-137v187h137v133q0 151 66 219t227 68q45 0 61 -2v-187h-47q-59 0 -79.5 -27t-20.5 -92v-112h239v133q0 151 66 219t227 68q46 0 62 -2v-187h-50q-58 0 -78 -27t-20 -92v-112h148v-187h-148v-958h-207zM1315 -2q-156 0 -210 55.5
t-54 206.5v1303h206v-1278q0 -65 14.5 -83t74.5 -18h10v-184q-8 -2 -41 -2z" />
    <glyph glyph-name="twosuperior" unicode="&#xb2;" horiz-adv-x="647" 
d="M88 559v148l244 458q22 43 29.5 71.5t7.5 68.5q0 37 -20.5 54t-69.5 17q-71 0 -136 -30l-63 141q77 41 219 41q128 0 185 -46t57 -147q0 -68 -12 -118.5t-42 -104.5l-215 -405h269v-148h-453z" />
    <glyph glyph-name="threesuperior" unicode="&#xb3;" horiz-adv-x="628" 
d="M281 553q-135 0 -215 39l59 139q64 -31 135 -31q62 0 81 31.5t19 120.5q0 51 -3.5 75.5t-20 43.5t-46 24.5t-85.5 5.5h-39v148h39q91 0 118 26.5t27 100.5q0 58 -17 78t-73 20q-66 0 -123 -24l-61 141q68 33 211 33q134 0 181.5 -50t47.5 -171q0 -91 -14.5 -138.5
t-59.5 -70.5q59 -23 73.5 -75.5t14.5 -180.5q0 -153 -53 -219t-196 -66z" />
    <glyph glyph-name="acute" unicode="&#xb4;" 
d="M252 1245l162 316h239l-217 -316h-184z" />
    <glyph glyph-name="mu" unicode="&#xb5;" horiz-adv-x="847" 
d="M80 -311v1456h205v-768q0 -109 29 -155t116 -46q85 0 113 45.5t28 157.5v766h203v-789q0 -101 -18.5 -169.5t-67.5 -112.5q-87 -84 -244 -84q-112 0 -159 53v-354h-205z" />
    <glyph glyph-name="mu" unicode="&#x3bc;" horiz-adv-x="847" 
d="M80 -311v1456h205v-768q0 -109 29 -155t116 -46q85 0 113 45.5t28 157.5v766h203v-789q0 -101 -18.5 -169.5t-67.5 -112.5q-87 -84 -244 -84q-112 0 -159 53v-354h-205z" />
    <glyph glyph-name="paragraph" unicode="&#xb6;" horiz-adv-x="868" 
d="M268 0v596q-116 38 -160.5 141t-44.5 303q0 135 17.5 221t64.5 146t127.5 85.5t206.5 25.5h281v-1518h-193v569h-102v-569h-197zM473 750h94v577h-94q-88 0 -132 -24.5t-62.5 -84.5t-18.5 -180q0 -172 43 -230t170 -58z" />
    <glyph glyph-name="periodcentered" unicode="&#xb7;" horiz-adv-x="391" 
d="M78 569v283h235v-283h-235z" />
    <glyph glyph-name="periodcentered" unicode="&#x2219;" horiz-adv-x="391" 
d="M78 569v283h235v-283h-235z" />
    <glyph glyph-name="cedilla" unicode="&#xb8;" 
d="M391 -444q-102 0 -180 32l43 115q73 -25 115 -25q51 0 67.5 17.5t16.5 64.5q0 49 -22 63t-87 9l-39 33l29 172h121l-23 -133q78 2 117 -31t39 -125q0 -109 -45.5 -150.5t-151.5 -41.5z" />
    <glyph glyph-name="onesuperior" unicode="&#xb9;" horiz-adv-x="514" 
d="M188 559v803h-106v156h287v-959h-181z" />
    <glyph glyph-name="ordmasculine" unicode="&#xba;" horiz-adv-x="765" 
d="M383 584q-133 0 -209 69q-56 54 -73 147.5t-17 258.5q0 160 16 252.5t70 146.5q76 76 213 76q140 0 215 -78q54 -55 70 -147t16 -250q0 -161 -17.5 -255t-74.5 -149q-71 -71 -209 -71zM383 737q26 0 45.5 6.5t33.5 16.5t23.5 31.5t14.5 42.5t8 59.5t3.5 71.5t0.5 88
q0 65 -1 102t-5 78.5t-12.5 62.5t-22.5 40.5t-35.5 26.5t-52.5 7t-52.5 -7t-36 -26t-23 -41t-13 -62.5t-5.5 -78.5t-1 -102q0 -77 2 -120t9 -86.5t21 -64t38 -33t61 -12.5zM113 313v154h538v-154h-538z" />
    <glyph glyph-name="guillemotright" unicode="&#xbb;" horiz-adv-x="964" 
d="M129 0l180 571l-180 574h184l191 -574l-191 -571h-184zM492 0l180 571l-180 574h184l190 -574l-190 -571h-184z" />
    <glyph glyph-name="onequarter" unicode="&#xbc;" horiz-adv-x="1263" 
d="M256 0l506 1518h176l-508 -1518h-174zM672 180v142l246 636h169l-241 -628h117l36 221h123v-221h90v-150h-90v-180h-161v180h-289zM164 559v803h-107v156h287v-959h-180z" />
    <glyph glyph-name="onehalf" unicode="&#xbd;" horiz-adv-x="1349" 
d="M256 0l506 1518h176l-508 -1518h-174zM164 559v803h-107v156h287v-959h-180zM803 0v147l244 459q22 42 29 70.5t7 68.5q0 37 -20.5 54.5t-69.5 17.5q-68 0 -135 -31l-63 142q77 41 219 41q128 0 184.5 -46t56.5 -147q0 -69 -12 -119t-41 -104l-215 -406h268v-147h-452z
" />
    <glyph glyph-name="threequarters" unicode="&#xbe;" horiz-adv-x="1376" 
d="M369 0l505 1518h177l-506 -1518h-176zM270 553q-135 0 -215 39l60 139q64 -31 135 -31q62 0 81 31.5t19 120.5q0 51 -3.5 75.5t-19.5 43.5t-45.5 24.5t-84.5 5.5h-41v148h41q90 0 116.5 26.5t26.5 100.5q0 58 -17 78t-73 20q-66 0 -123 -24l-61 141q68 33 210 33
q135 0 182.5 -50t47.5 -171q0 -91 -14.5 -138.5t-59.5 -70.5q59 -23 73.5 -75.5t14.5 -180.5q0 -152 -53.5 -218.5t-196.5 -66.5zM782 180v142l246 636h170l-244 -628h117l39 221h123v-221h88v-150h-88v-180h-164v180h-287z" />
    <glyph glyph-name="questiondown" unicode="&#xbf;" horiz-adv-x="841" 
d="M434 -16q-91 0 -157.5 25t-103.5 69.5t-54 96.5t-17 114q0 66 19.5 134.5t50.5 117.5l119 207q36 63 45.5 126t11.5 213h201q-2 -172 -14 -248.5t-60 -154.5l-125 -215q-39 -64 -39 -150q0 -62 35 -101.5t115 -39.5q53 0 114 14t105 35l80 -180q-153 -63 -326 -63z
M332 1266v252h235v-252h-235z" />
    <glyph glyph-name="Agrave" unicode="&#xc0;" horiz-adv-x="944" 
d="M20 0l330 1522h242l332 -1522h-219l-58 287h-360l-58 -287h-209zM332 481h270l-98 492l-37 205l-37 -205zM407 1587l-215 316h240l162 -316h-187z" />
    <glyph glyph-name="Aacute" unicode="&#xc1;" horiz-adv-x="944" 
d="M20 0l330 1522h242l332 -1522h-219l-58 287h-360l-58 -287h-209zM332 481h270l-98 492l-37 205l-37 -205zM348 1587l162 316h239l-217 -316h-184z" />
    <glyph glyph-name="Acircumflex" unicode="&#xc2;" horiz-adv-x="944" 
d="M20 0l330 1522h242l332 -1522h-219l-58 287h-360l-58 -287h-209zM332 481h270l-98 492l-37 205l-37 -205zM172 1587l194 316h207l195 -316h-183l-116 174l-117 -174h-180z" />
    <glyph glyph-name="Atilde" unicode="&#xc3;" horiz-adv-x="944" 
d="M20 0l330 1522h242l332 -1522h-219l-58 287h-360l-58 -287h-209zM332 481h270l-98 492l-37 205l-37 -205zM329 1579l-159 23q13 111 54 166t128 55q41 0 112.5 -32t86.5 -32q28 0 39.5 14t17.5 56l160 -23q-13 -110 -54 -164.5t-126 -54.5q-42 0 -113.5 32t-87.5 32
q-27 0 -39.5 -15t-18.5 -57z" />
    <glyph glyph-name="Adieresis" unicode="&#xc4;" horiz-adv-x="944" 
d="M20 0l330 1522h242l332 -1522h-219l-58 287h-360l-58 -287h-209zM332 481h270l-98 492l-37 205l-37 -205zM229 1587v223h180v-223h-180zM530 1587v223h180v-223h-180z" />
    <glyph glyph-name="Aring" unicode="&#xc5;" horiz-adv-x="944" 
d="M20 0l318 1462q-51 46 -51 187q0 55 6.5 93t25 71.5t56 50t94.5 16.5t95 -16.5t57.5 -50t26.5 -71.5t7 -93q0 -136 -51 -185l320 -1464h-219l-58 287h-360l-58 -287h-209zM332 481h270l-98 492l-37 205l-37 -205zM469 1524q49 0 63.5 29.5t14.5 95.5q0 68 -14.5 97.5
t-63.5 29.5q-46 0 -61 -30t-15 -97q0 -65 15 -95t61 -30z" />
    <glyph glyph-name="AE" unicode="&#xc6;" horiz-adv-x="1314" 
d="M0 0l481 1518h791v-199h-453v-447h428v-196h-428v-481h455v-195h-660v348h-297l-106 -348h-211zM373 530h241v785z" />
    <glyph glyph-name="Ccedilla" unicode="&#xc7;" horiz-adv-x="786" 
d="M410 -444q-103 0 -181 32l43 115q73 -25 115 -25q51 0 67.5 17.5t16.5 64.5q0 49 -22 63t-87 9l-38 33l22 141q-94 27 -156 86q-82 82 -108.5 234.5t-26.5 433.5q0 279 25 428t106 233q100 111 306 111q148 0 264 -43l-76 -195q-84 31 -176 31q-52 0 -88 -10.5t-63 -39.5
t-42.5 -68t-25 -107.5t-12.5 -147t-3 -196.5q0 -141 5 -228.5t18.5 -158.5t40.5 -107t67.5 -54t102.5 -18q95 0 184 39l76 -188q-122 -51 -270 -51h-29l-14 -86q78 2 116.5 -31t38.5 -125q0 -109 -45 -150.5t-151 -41.5z" />
    <glyph glyph-name="Egrave" unicode="&#xc8;" horiz-adv-x="825" 
d="M94 0v1518h670v-199h-457v-445h436v-198h-436v-481h457v-195h-670zM350 1587l-215 316h240l162 -316h-187z" />
    <glyph glyph-name="Eacute" unicode="&#xc9;" horiz-adv-x="825" 
d="M291 1587l162 316h239l-217 -316h-184zM94 0v1518h670v-199h-457v-445h436v-198h-436v-481h457v-195h-670z" />
    <glyph glyph-name="Ecircumflex" unicode="&#xca;" horiz-adv-x="825" 
d="M115 1587l194 316h207l195 -316h-183l-116 174l-117 -174h-180zM94 0v1518h670v-199h-457v-445h436v-198h-436v-481h457v-195h-670z" />
    <glyph glyph-name="Edieresis" unicode="&#xcb;" horiz-adv-x="825" 
d="M172 1587v223h180v-223h-180zM473 1587v223h180v-223h-180zM94 0v1518h670v-199h-457v-445h436v-198h-436v-481h457v-195h-670z" />
    <glyph glyph-name="Igrave" unicode="&#xcc;" horiz-adv-x="425" 
d="M123 1589l-189 316h242l131 -316h-184zM106 0v1518h213v-1518h-213z" />
    <glyph glyph-name="Iacute" unicode="&#xcd;" horiz-adv-x="425" 
d="M119 1589l133 316h240l-189 -316h-184zM106 0v1518h213v-1518h-213z" />
    <glyph glyph-name="Icircumflex" unicode="&#xce;" horiz-adv-x="425" 
d="M-70 1589l179 316h208l181 -316h-185l-102 176l-100 -176h-181zM106 0v1518h213v-1518h-213z" />
    <glyph glyph-name="Idieresis" unicode="&#xcf;" horiz-adv-x="425" 
d="M106 0v1518h213v-1518h-213zM-27 1587v223h180v-223h-180zM274 1587v223h180v-223h-180z" />
    <glyph glyph-name="Eth" unicode="&#xd0;" horiz-adv-x="962" 
d="M4 680v180h90v658h348q239 0 346 -113q77 -81 99 -226t22 -419q0 -289 -23.5 -435.5t-107.5 -224.5q-103 -100 -340 -100h-344v680h-90zM307 186h137q71 0 115.5 18.5t72.5 50.5t40.5 109t16 159t3.5 235q0 93 -1 152t-5 122t-11.5 99.5t-20.5 74t-30.5 56t-44.5 34.5
t-60.5 21.5t-78.5 5.5h-133v-463h182v-180h-182v-494z" />
    <glyph glyph-name="Ntilde" unicode="&#xd1;" horiz-adv-x="978" 
d="M94 0v1518h221l299 -791l74 -197v988h197v-1518h-193l-332 860l-67 180v-1040h-199zM348 1579l-159 23q13 111 54 166t128 55q41 0 112.5 -32t86.5 -32q28 0 39.5 14t17.5 56l160 -23q-13 -110 -54 -164.5t-126 -54.5q-42 0 -113.5 32t-87.5 32q-27 0 -39.5 -15
t-18.5 -57z" />
    <glyph glyph-name="Ograve" unicode="&#xd2;" horiz-adv-x="997" 
d="M498 -10q-195 0 -305 102q-38 37 -64 89t-40.5 107t-22 138t-9.5 153t-2 181q0 137 3.5 220t15.5 175t38.5 155t69.5 109q108 115 316 115q205 0 315 -113q43 -46 70 -109.5t39.5 -155t16 -176.5t3.5 -220q0 -139 -4 -225t-17 -179t-41.5 -156t-74.5 -108
q-110 -102 -307 -102zM498 186q39 0 69 6.5t53.5 23.5t40 38.5t28.5 59t19 76.5t11 99.5t5 120t1 146.5t-1 146.5t-5 120.5t-11 100.5t-19 77t-28.5 59t-40 38.5t-53.5 24t-69 7q-52 0 -88.5 -12t-62.5 -44t-41 -71.5t-23 -110.5t-10.5 -145t-2.5 -190t2.5 -189.5
t10.5 -144.5t23 -110.5t41 -70.5t62.5 -43t88.5 -12zM432 1587l-215 316h240l162 -316h-187z" />
    <glyph glyph-name="Oacute" unicode="&#xd3;" horiz-adv-x="997" 
d="M373 1587l162 316h239l-217 -316h-184zM498 -10q-195 0 -305 102q-38 37 -64 89t-40.5 107t-22 138t-9.5 153t-2 181q0 137 3.5 220t15.5 175t38.5 155t69.5 109q108 115 316 115q205 0 315 -113q43 -46 70 -109.5t39.5 -155t16 -176.5t3.5 -220q0 -139 -4 -225t-17 -179
t-41.5 -156t-74.5 -108q-110 -102 -307 -102zM498 186q39 0 69 6.5t53.5 23.5t40 38.5t28.5 59t19 76.5t11 99.5t5 120t1 146.5t-1 146.5t-5 120.5t-11 100.5t-19 77t-28.5 59t-40 38.5t-53.5 24t-69 7q-52 0 -88.5 -12t-62.5 -44t-41 -71.5t-23 -110.5t-10.5 -145
t-2.5 -190t2.5 -189.5t10.5 -144.5t23 -110.5t41 -70.5t62.5 -43t88.5 -12z" />
    <glyph glyph-name="Ocircumflex" unicode="&#xd4;" horiz-adv-x="997" 
d="M197 1587l194 316h207l195 -316h-183l-116 174l-117 -174h-180zM498 -10q-195 0 -305 102q-38 37 -64 89t-40.5 107t-22 138t-9.5 153t-2 181q0 137 3.5 220t15.5 175t38.5 155t69.5 109q108 115 316 115q205 0 315 -113q43 -46 70 -109.5t39.5 -155t16 -176.5t3.5 -220
q0 -139 -4 -225t-17 -179t-41.5 -156t-74.5 -108q-110 -102 -307 -102zM498 186q39 0 69 6.5t53.5 23.5t40 38.5t28.5 59t19 76.5t11 99.5t5 120t1 146.5t-1 146.5t-5 120.5t-11 100.5t-19 77t-28.5 59t-40 38.5t-53.5 24t-69 7q-52 0 -88.5 -12t-62.5 -44t-41 -71.5
t-23 -110.5t-10.5 -145t-2.5 -190t2.5 -189.5t10.5 -144.5t23 -110.5t41 -70.5t62.5 -43t88.5 -12z" />
    <glyph glyph-name="Otilde" unicode="&#xd5;" horiz-adv-x="997" 
d="M498 -10q-195 0 -305 102q-38 37 -64 89t-40.5 107t-22 138t-9.5 153t-2 181q0 137 3.5 220t15.5 175t38.5 155t69.5 109q108 115 316 115q205 0 315 -113q43 -46 70 -109.5t39.5 -155t16 -176.5t3.5 -220q0 -139 -4 -225t-17 -179t-41.5 -156t-74.5 -108
q-110 -102 -307 -102zM498 186q39 0 69 6.5t53.5 23.5t40 38.5t28.5 59t19 76.5t11 99.5t5 120t1 146.5t-1 146.5t-5 120.5t-11 100.5t-19 77t-28.5 59t-40 38.5t-53.5 24t-69 7q-52 0 -88.5 -12t-62.5 -44t-41 -71.5t-23 -110.5t-10.5 -145t-2.5 -190t2.5 -189.5
t10.5 -144.5t23 -110.5t41 -70.5t62.5 -43t88.5 -12zM354 1579l-159 23q13 111 54 166t128 55q41 0 112.5 -32t86.5 -32q28 0 39.5 14t17.5 56l160 -23q-13 -110 -54 -164.5t-126 -54.5q-42 0 -113.5 32t-87.5 32q-27 0 -39.5 -15t-18.5 -57z" />
    <glyph glyph-name="Odieresis" unicode="&#xd6;" horiz-adv-x="997" 
d="M254 1587v223h180v-223h-180zM555 1587v223h180v-223h-180zM498 -10q-195 0 -305 102q-38 37 -64 89t-40.5 107t-22 138t-9.5 153t-2 181q0 137 3.5 220t15.5 175t38.5 155t69.5 109q108 115 316 115q205 0 315 -113q43 -46 70 -109.5t39.5 -155t16 -176.5t3.5 -220
q0 -139 -4 -225t-17 -179t-41.5 -156t-74.5 -108q-110 -102 -307 -102zM498 186q39 0 69 6.5t53.5 23.5t40 38.5t28.5 59t19 76.5t11 99.5t5 120t1 146.5t-1 146.5t-5 120.5t-11 100.5t-19 77t-28.5 59t-40 38.5t-53.5 24t-69 7q-52 0 -88.5 -12t-62.5 -44t-41 -71.5
t-23 -110.5t-10.5 -145t-2.5 -190t2.5 -189.5t10.5 -144.5t23 -110.5t41 -70.5t62.5 -43t88.5 -12z" />
    <glyph glyph-name="multiply" unicode="&#xd7;" horiz-adv-x="925" 
d="M287 461l-115 114l176 177l-174 174l111 114l176 -176l176 176l115 -114l-177 -176l177 -177l-113 -112l-176 176z" />
    <glyph glyph-name="Oslash" unicode="&#xd8;" horiz-adv-x="997" 
d="M205 -84l33 139q-32 24 -45 37q-38 37 -64 89t-40.5 107t-22 138t-9.5 153t-2 181q0 137 3.5 220t15.5 175t38.5 155t69.5 109q108 115 316 115q46 0 90 -6l18 76h185l-33 -138q33 -23 55 -45q43 -46 70 -109.5t39.5 -155t16 -176.5t3.5 -220q0 -139 -4 -225t-17 -179
t-41.5 -156t-74.5 -108q-110 -102 -307 -102q-46 0 -90 6l-19 -80h-184zM498 174q46 0 79.5 10.5t59 29t42.5 54.5t28 77t16.5 107.5t7.5 134.5t2 169q0 186 -9.5 295.5t-35.5 173.5l-250 -1047q18 -4 60 -4zM264 756q0 -186 8 -293t33 -170l248 1042q-36 4 -55 4
q-53 0 -90.5 -12t-64 -44t-42 -72.5t-24 -112.5t-11 -148t-2.5 -194z" />
    <glyph glyph-name="Ugrave" unicode="&#xd9;" horiz-adv-x="980" 
d="M489 -16q-203 0 -299 90q-62 57 -83 147.5t-21 233.5v1063h215v-1055q0 -154 39.5 -217.5t153.5 -63.5q113 0 152.5 63.5t39.5 217.5v1055h209v-1063q0 -143 -19 -233t-79 -146q-98 -92 -308 -92zM426 1587l-215 316h240l162 -316h-187z" />
    <glyph glyph-name="Uacute" unicode="&#xda;" horiz-adv-x="980" 
d="M367 1587l161 316h240l-217 -316h-184zM489 -16q-203 0 -299 90q-62 57 -83 147.5t-21 233.5v1063h215v-1055q0 -154 39.5 -217.5t153.5 -63.5q113 0 152.5 63.5t39.5 217.5v1055h209v-1063q0 -143 -19 -233t-79 -146q-98 -92 -308 -92z" />
    <glyph glyph-name="Ucircumflex" unicode="&#xdb;" horiz-adv-x="980" 
d="M190 1587l195 316h207l194 -316h-182l-117 174l-116 -174h-181zM489 -16q-203 0 -299 90q-62 57 -83 147.5t-21 233.5v1063h215v-1055q0 -154 39.5 -217.5t153.5 -63.5q113 0 152.5 63.5t39.5 217.5v1055h209v-1063q0 -143 -19 -233t-79 -146q-98 -92 -308 -92z" />
    <glyph glyph-name="Udieresis" unicode="&#xdc;" horiz-adv-x="980" 
d="M248 1587v223h180v-223h-180zM549 1587v223h180v-223h-180zM489 -16q-203 0 -299 90q-62 57 -83 147.5t-21 233.5v1063h215v-1055q0 -154 39.5 -217.5t153.5 -63.5q113 0 152.5 63.5t39.5 217.5v1055h209v-1063q0 -143 -19 -233t-79 -146q-98 -92 -308 -92z" />
    <glyph glyph-name="Yacute" unicode="&#xdd;" horiz-adv-x="911" 
d="M348 0v518l-346 1000h225l230 -703l231 703h219l-346 -1006v-512h-213zM332 1587l162 316h239l-217 -316h-184z" />
    <glyph glyph-name="Thorn" unicode="&#xde;" horiz-adv-x="925" 
d="M94 0v1518h211v-248h148q127 0 208.5 -26t128.5 -87.5t64.5 -146.5t17.5 -217q0 -131 -17.5 -216t-63.5 -147t-127.5 -89.5t-206.5 -27.5h-152v-313h-211zM305 506h150q126 0 169.5 59.5t43.5 225.5q0 168 -43.5 226t-171.5 58h-148v-569z" />
    <glyph glyph-name="germandbls" unicode="&#xdf;" horiz-adv-x="866" 
d="M80 0v1212q0 88 14.5 150t52 113.5t109 77.5t178.5 26q86 0 146 -17t97.5 -47t58.5 -82t28.5 -110t7.5 -143q0 -172 -15.5 -243t-80.5 -101q34 -10 58.5 -25t40.5 -41t25.5 -54t14.5 -76t6.5 -93t1.5 -119q0 -134 -18.5 -216.5t-67 -130t-118 -64.5t-185.5 -17h-63v184
h63q76 0 115.5 22t58.5 79.5t19 167.5q0 69 -4.5 110.5t-15.5 73.5t-34 46.5t-55 21t-84 6.5h-31v182h31q41 0 68 9.5t43 25.5t24 48t10.5 65t2.5 89q0 59 -2 93t-10 69t-24 52.5t-43.5 28.5t-68.5 11q-40 0 -68.5 -11.5t-44 -28t-24 -44t-10.5 -50t-2 -56.5v-1194h-205z
" />
    <glyph glyph-name="agrave" unicode="&#xe0;" horiz-adv-x="825" 
d="M317 -8q-154 0 -214 87.5t-60 285.5q0 123 24.5 202.5t81.5 126t138.5 64.5t208.5 18h20q-1 53 -5 82.5t-16.5 54.5t-37.5 35t-66 10q-118 0 -219 -38l-70 186q131 51 314 51q169 0 239 -76q36 -39 50 -105.5t14 -170.5v-533q0 -55 11.5 -71.5t55.5 -16.5v-184
q-14 -2 -81 -2q-63 0 -95 17.5t-47 58.5q-37 -40 -93 -61t-153 -21zM358 166q43 0 73 13t46.5 32.5t25.5 51.5t11 59.5t2 68.5v213h-6q-160 0 -214 -43t-54 -180q0 -118 23 -166.5t93 -48.5zM348 1245l-215 316h240l162 -316h-187z" />
    <glyph glyph-name="aacute" unicode="&#xe1;" horiz-adv-x="825" 
d="M317 -8q-154 0 -214 87.5t-60 285.5q0 123 24.5 202.5t81.5 126t138.5 64.5t208.5 18h20q-1 53 -5 82.5t-16.5 54.5t-37.5 35t-66 10q-118 0 -219 -38l-70 186q131 51 314 51q169 0 239 -76q36 -39 50 -105.5t14 -170.5v-533q0 -55 11.5 -71.5t55.5 -16.5v-184
q-14 -2 -81 -2q-63 0 -95 17.5t-47 58.5q-37 -40 -93 -61t-153 -21zM358 166q43 0 73 13t46.5 32.5t25.5 51.5t11 59.5t2 68.5v213h-6q-160 0 -214 -43t-54 -180q0 -118 23 -166.5t93 -48.5zM289 1245l162 316h239l-217 -316h-184z" />
    <glyph glyph-name="acircumflex" unicode="&#xe2;" horiz-adv-x="825" 
d="M317 -8q-154 0 -214 87.5t-60 285.5q0 123 24.5 202.5t81.5 126t138.5 64.5t208.5 18h20q-1 53 -5 82.5t-16.5 54.5t-37.5 35t-66 10q-118 0 -219 -38l-70 186q131 51 314 51q169 0 239 -76q36 -39 50 -105.5t14 -170.5v-533q0 -55 11.5 -71.5t55.5 -16.5v-184
q-14 -2 -81 -2q-63 0 -95 17.5t-47 58.5q-37 -40 -93 -61t-153 -21zM358 166q43 0 73 13t46.5 32.5t25.5 51.5t11 59.5t2 68.5v213h-6q-160 0 -214 -43t-54 -180q0 -118 23 -166.5t93 -48.5zM113 1245l194 316h207l195 -316h-183l-116 174l-117 -174h-180z" />
    <glyph glyph-name="atilde" unicode="&#xe3;" horiz-adv-x="825" 
d="M317 -8q-154 0 -214 87.5t-60 285.5q0 123 24.5 202.5t81.5 126t138.5 64.5t208.5 18h20q-1 53 -5 82.5t-16.5 54.5t-37.5 35t-66 10q-118 0 -219 -38l-70 186q131 51 314 51q169 0 239 -76q36 -39 50 -105.5t14 -170.5v-533q0 -55 11.5 -71.5t55.5 -16.5v-184
q-14 -2 -81 -2q-63 0 -95 17.5t-47 58.5q-37 -40 -93 -61t-153 -21zM358 166q43 0 73 13t46.5 32.5t25.5 51.5t11 59.5t2 68.5v213h-6q-160 0 -214 -43t-54 -180q0 -118 23 -166.5t93 -48.5zM270 1237l-159 23q13 111 54 166t128 55q41 0 112.5 -32t86.5 -32q28 0 39.5 14
t17.5 56l160 -23q-13 -110 -54 -164.5t-126 -54.5q-42 0 -113.5 32t-87.5 32q-27 0 -39.5 -15t-18.5 -57z" />
    <glyph glyph-name="adieresis" unicode="&#xe4;" horiz-adv-x="825" 
d="M317 -8q-154 0 -214 87.5t-60 285.5q0 123 24.5 202.5t81.5 126t138.5 64.5t208.5 18h20q-1 53 -5 82.5t-16.5 54.5t-37.5 35t-66 10q-118 0 -219 -38l-70 186q131 51 314 51q169 0 239 -76q36 -39 50 -105.5t14 -170.5v-533q0 -55 11.5 -71.5t55.5 -16.5v-184
q-14 -2 -81 -2q-63 0 -95 17.5t-47 58.5q-37 -40 -93 -61t-153 -21zM358 166q43 0 73 13t46.5 32.5t25.5 51.5t11 59.5t2 68.5v213h-6q-160 0 -214 -43t-54 -180q0 -118 23 -166.5t93 -48.5zM170 1245v223h180v-223h-180zM471 1245v223h180v-223h-180z" />
    <glyph glyph-name="aring" unicode="&#xe5;" horiz-adv-x="825" 
d="M317 -8q-154 0 -214 87.5t-60 285.5q0 123 24.5 202.5t81.5 126t138.5 64.5t208.5 18h20q-1 53 -5 82.5t-16.5 54.5t-37.5 35t-66 10q-118 0 -219 -38l-70 186q131 51 314 51q169 0 239 -76q36 -39 50 -105.5t14 -170.5v-533q0 -55 11.5 -71.5t55.5 -16.5v-184
q-14 -2 -81 -2q-63 0 -95 17.5t-47 58.5q-37 -40 -93 -61t-153 -21zM358 166q43 0 73 13t46.5 32.5t25.5 51.5t11 59.5t2 68.5v213h-6q-160 0 -214 -43t-54 -180q0 -118 23 -166.5t93 -48.5zM410 1233q-46 0 -79.5 11.5t-53.5 30.5t-31 49t-15 61.5t-4 74.5q0 44 4 76t15 63
t31 50t53.5 31t79.5 12q109 0 147.5 -59t38.5 -173q0 -54 -7 -91.5t-26.5 -70t-57.5 -49t-95 -16.5zM410 1335q49 0 63.5 29.5t14.5 95.5q0 68 -14.5 97.5t-63.5 29.5q-46 0 -61 -30t-15 -97q0 -65 15 -95t61 -30z" />
    <glyph glyph-name="ae" unicode="&#xe6;" horiz-adv-x="1236" 
d="M862 -10q-141 0 -219 78q-24 21 -47 59q-39 -75 -103.5 -105t-175.5 -30q-152 0 -213 88t-61 285q0 124 24.5 203.5t81.5 125.5t138.5 64t208.5 18h20q-1 53 -5 82.5t-16.5 54.5t-37.5 35t-66 10q-118 0 -219 -38l-70 186q131 51 314 51q159 0 229 -76q0 -2 2 -2
q85 78 225 78q159 0 230 -80q59 -68 76 -202t12 -402h-475q3 -173 37 -237t135 -64q106 0 239 45l58 -176q-87 -28 -156 -39.5t-166 -11.5zM358 166q52 0 86 17.5t48.5 50t19 60.5t4.5 68v242h-6q-83 0 -131 -8t-81 -33t-44.5 -67.5t-11.5 -114.5q0 -118 23 -166.5t93 -48.5
zM870 965q-90 0 -121 -67t-34 -239h293q-1 80 -3.5 124.5t-10 85t-23 58.5t-39.5 28t-62 10z" />
    <glyph glyph-name="ccedilla" unicode="&#xe7;" horiz-adv-x="626" 
d="M332 -444q-102 0 -180 32l43 115q73 -25 114 -25q51 0 67.5 17.5t16.5 64.5q0 49 -21.5 63t-86.5 9l-39 33l24 143q-64 21 -106 60q-72 65 -94.5 184.5t-22.5 322.5q0 188 20.5 303t82.5 183q89 96 253 96q93 0 187 -24l-58 -193q-53 16 -110 16q-102 0 -133 -80.5
t-31 -306.5q0 -229 31.5 -311t134.5 -82q55 0 111 23l59 -179q-89 -28 -197 -28h-10l-14 -88q78 2 116.5 -31t38.5 -125q0 -109 -45 -150.5t-151 -41.5z" />
    <glyph glyph-name="egrave" unicode="&#xe8;" horiz-adv-x="770" 
d="M393 -10q-151 0 -229 78q-70 67 -93.5 187.5t-23.5 319.5q0 196 21.5 308.5t85.5 179.5q84 94 252 94q156 0 227 -80q59 -68 76 -202t12 -402h-475q3 -173 37 -237t137 -64q108 0 237 45l58 -176q-83 -28 -154 -39.5t-168 -11.5zM403 965q-92 0 -123 -67t-34 -239h293
q-1 80 -3.5 124.5t-10 85t-22.5 58.5t-38.5 28t-61.5 10zM321 1245l-215 316h240l162 -316h-187z" />
    <glyph glyph-name="eacute" unicode="&#xe9;" horiz-adv-x="770" 
d="M262 1245l162 316h240l-218 -316h-184zM393 -10q-151 0 -229 78q-70 67 -93.5 187.5t-23.5 319.5q0 196 21.5 308.5t85.5 179.5q84 94 252 94q156 0 227 -80q59 -68 76 -202t12 -402h-475q3 -173 37 -237t137 -64q108 0 237 45l58 -176q-83 -28 -154 -39.5t-168 -11.5z
M403 965q-92 0 -123 -67t-34 -239h293q-1 80 -3.5 124.5t-10 85t-22.5 58.5t-38.5 28t-61.5 10z" />
    <glyph glyph-name="ecircumflex" unicode="&#xea;" horiz-adv-x="770" 
d="M86 1245l195 316h206l195 -316h-182l-117 174l-117 -174h-180zM393 -10q-151 0 -229 78q-70 67 -93.5 187.5t-23.5 319.5q0 196 21.5 308.5t85.5 179.5q84 94 252 94q156 0 227 -80q59 -68 76 -202t12 -402h-475q3 -173 37 -237t137 -64q108 0 237 45l58 -176
q-83 -28 -154 -39.5t-168 -11.5zM403 965q-92 0 -123 -67t-34 -239h293q-1 80 -3.5 124.5t-10 85t-22.5 58.5t-38.5 28t-61.5 10z" />
    <glyph glyph-name="edieresis" unicode="&#xeb;" horiz-adv-x="770" 
d="M143 1245v223h181v-223h-181zM444 1245v223h181v-223h-181zM393 -10q-151 0 -229 78q-70 67 -93.5 187.5t-23.5 319.5q0 196 21.5 308.5t85.5 179.5q84 94 252 94q156 0 227 -80q59 -68 76 -202t12 -402h-475q3 -173 37 -237t137 -64q108 0 237 45l58 -176
q-83 -28 -154 -39.5t-168 -11.5zM403 965q-92 0 -123 -67t-34 -239h293q-1 80 -3.5 124.5t-10 85t-22.5 58.5t-38.5 28t-61.5 10z" />
    <glyph glyph-name="igrave" unicode="&#xec;" horiz-adv-x="378" 
d="M98 1245l-145 316h240l90 -316h-185zM86 0v1145h207v-1145h-207z" />
    <glyph glyph-name="iacute" unicode="&#xed;" horiz-adv-x="378" 
d="M96 1245l90 316h242l-149 -316h-183zM86 0v1145h207v-1145h-207z" />
    <glyph glyph-name="icircumflex" unicode="&#xee;" horiz-adv-x="378" 
d="M-88 1245l174 316h207l174 -316h-182l-97 174l-96 -174h-180zM86 0v1145h207v-1145h-207z" />
    <glyph glyph-name="idieresis" unicode="&#xef;" horiz-adv-x="378" 
d="M-20 1245v223h165v-223h-165zM236 1245v223h163v-223h-163zM86 0v1145h207v-1145h-207z" />
    <glyph glyph-name="eth" unicode="&#xf0;" horiz-adv-x="833" 
d="M336 1188v172l100 24q-64 115 -67 119l163 78q44 -63 89 -151l165 40v-172l-100 -24q97 -267 100 -625v-76q0 -200 -22 -315.5t-90 -179.5q-88 -88 -256 -88q-164 0 -256 86q-69 65 -92 179t-23 320q0 189 18 298t80 171q77 74 234 74q124 0 176 -55q-17 75 -51 166z
M418 176q38 0 64.5 8.5t44.5 31t28 48t15 74t6.5 93t1.5 120.5t-1.5 120t-6.5 93t-15 74t-28 48t-44.5 31.5t-64.5 8.5q-33 0 -57.5 -7.5t-42 -20t-29.5 -38t-19 -51t-10.5 -70t-4.5 -84.5t-1 -104q0 -75 1.5 -120t7 -93.5t16 -74t28.5 -48t45.5 -31t65.5 -8.5z" />
    <glyph glyph-name="ntilde" unicode="&#xf1;" horiz-adv-x="856" 
d="M80 0v1133l170 10l12 -68q58 82 244 82q150 0 213 -70q37 -44 50 -112t13 -172v-803h-207v733q0 136 -25.5 180.5t-103.5 44.5q-42 0 -71.5 -11.5t-47 -31.5t-27 -56t-12.5 -74t-3 -97v-688h-205zM286 1237l-159 23q13 111 54 166t128 55q41 0 112.5 -32t86.5 -32
q28 0 39.5 14t17.5 56l160 -23q-13 -110 -54 -164.5t-126 -54.5q-42 0 -113.5 32t-87.5 32q-27 0 -39.5 -15t-18.5 -57z" />
    <glyph glyph-name="ograve" unicode="&#xf2;" horiz-adv-x="833" 
d="M418 -10q-167 0 -256 86q-70 66 -92.5 182.5t-22.5 314.5q0 196 21 310.5t88 181.5q92 92 262 92q173 0 264 -94q65 -67 84.5 -181t19.5 -309q0 -197 -21.5 -312t-90.5 -183q-88 -88 -256 -88zM418 176q33 0 57 8t41 20.5t28.5 39t18.5 53t10 73t4 88t1 109.5t-1 109.5
t-4 88t-10 73t-18.5 53t-28.5 39t-41 20.5t-57 8q-38 0 -65.5 -9t-45.5 -32t-28.5 -50t-16 -77t-7 -97t-1.5 -126t1.5 -126t7 -97t16 -77t28.5 -50t45.5 -32t65.5 -9zM352 1245l-215 316h240l162 -316h-187z" />
    <glyph glyph-name="oacute" unicode="&#xf3;" horiz-adv-x="833" 
d="M293 1245l162 316h239l-217 -316h-184zM418 -10q-167 0 -256 86q-70 66 -92.5 182.5t-22.5 314.5q0 196 21 310.5t88 181.5q92 92 262 92q173 0 264 -94q65 -67 84.5 -181t19.5 -309q0 -197 -21.5 -312t-90.5 -183q-88 -88 -256 -88zM418 176q33 0 57 8t41 20.5t28.5 39
t18.5 53t10 73t4 88t1 109.5t-1 109.5t-4 88t-10 73t-18.5 53t-28.5 39t-41 20.5t-57 8q-38 0 -65.5 -9t-45.5 -32t-28.5 -50t-16 -77t-7 -97t-1.5 -126t1.5 -126t7 -97t16 -77t28.5 -50t45.5 -32t65.5 -9z" />
    <glyph glyph-name="ocircumflex" unicode="&#xf4;" horiz-adv-x="833" 
d="M117 1245l194 316h207l195 -316h-183l-116 174l-117 -174h-180zM418 -10q-167 0 -256 86q-70 66 -92.5 182.5t-22.5 314.5q0 196 21 310.5t88 181.5q92 92 262 92q173 0 264 -94q65 -67 84.5 -181t19.5 -309q0 -197 -21.5 -312t-90.5 -183q-88 -88 -256 -88zM418 176
q33 0 57 8t41 20.5t28.5 39t18.5 53t10 73t4 88t1 109.5t-1 109.5t-4 88t-10 73t-18.5 53t-28.5 39t-41 20.5t-57 8q-38 0 -65.5 -9t-45.5 -32t-28.5 -50t-16 -77t-7 -97t-1.5 -126t1.5 -126t7 -97t16 -77t28.5 -50t45.5 -32t65.5 -9z" />
    <glyph glyph-name="otilde" unicode="&#xf5;" horiz-adv-x="833" 
d="M418 -10q-167 0 -256 86q-70 66 -92.5 182.5t-22.5 314.5q0 196 21 310.5t88 181.5q92 92 262 92q173 0 264 -94q65 -67 84.5 -181t19.5 -309q0 -197 -21.5 -312t-90.5 -183q-88 -88 -256 -88zM418 176q33 0 57 8t41 20.5t28.5 39t18.5 53t10 73t4 88t1 109.5t-1 109.5
t-4 88t-10 73t-18.5 53t-28.5 39t-41 20.5t-57 8q-38 0 -65.5 -9t-45.5 -32t-28.5 -50t-16 -77t-7 -97t-1.5 -126t1.5 -126t7 -97t16 -77t28.5 -50t45.5 -32t65.5 -9zM274 1237l-159 23q13 111 54 166t128 55q41 0 112.5 -32t86.5 -32q28 0 39.5 14t17.5 56l160 -23
q-13 -110 -54 -164.5t-126 -54.5q-42 0 -113.5 32t-87.5 32q-27 0 -39.5 -15t-18.5 -57z" />
    <glyph glyph-name="odieresis" unicode="&#xf6;" horiz-adv-x="833" 
d="M174 1245v223h180v-223h-180zM475 1245v223h180v-223h-180zM418 -10q-167 0 -256 86q-70 66 -92.5 182.5t-22.5 314.5q0 196 21 310.5t88 181.5q92 92 262 92q173 0 264 -94q65 -67 84.5 -181t19.5 -309q0 -197 -21.5 -312t-90.5 -183q-88 -88 -256 -88zM418 176
q33 0 57 8t41 20.5t28.5 39t18.5 53t10 73t4 88t1 109.5t-1 109.5t-4 88t-10 73t-18.5 53t-28.5 39t-41 20.5t-57 8q-38 0 -65.5 -9t-45.5 -32t-28.5 -50t-16 -77t-7 -97t-1.5 -126t1.5 -126t7 -97t16 -77t28.5 -50t45.5 -32t65.5 -9z" />
    <glyph glyph-name="divide" unicode="&#xf7;" horiz-adv-x="925" 
d="M360 311v205h207v-205h-207zM123 651v197h680v-197h-680zM360 981v205h207v-205h-207z" />
    <glyph glyph-name="oslash" unicode="&#xf8;" horiz-adv-x="833" 
d="M418 -10q-48 0 -86 6l-25 -82h-168l41 143l-18 19q-70 66 -92.5 182.5t-22.5 314.5q0 196 21 310.5t88 181.5q92 92 262 92q45 0 86 -6l24 80h168l-43 -144q5 -4 14.5 -12t14.5 -12q65 -67 84.5 -181t19.5 -309q0 -197 -21.5 -312t-90.5 -183q-88 -88 -256 -88zM418 168
q38 0 65.5 9t46.5 32.5t30 52t16.5 78t7.5 99.5t2 128q0 193 -17 269l-200 -664q28 -4 49 -4zM246 567q0 -196 16 -268l197 662q-24 4 -41 4q-39 0 -67 -9t-47 -32t-30.5 -51t-17.5 -77.5t-8 -100t-2 -128.5z" />
    <glyph glyph-name="ugrave" unicode="&#xf9;" horiz-adv-x="843" 
d="M422 -10q-168 0 -256 78q-52 47 -72 115.5t-20 170.5v791h207v-768q0 -110 28.5 -155.5t114.5 -45.5q85 0 114 45.5t29 157.5v766h203v-789q0 -100 -19 -168.5t-67 -113.5q-91 -84 -262 -84zM358 1245l-215 316h240l162 -316h-187z" />
    <glyph glyph-name="uacute" unicode="&#xfa;" horiz-adv-x="843" 
d="M299 1245l162 316h239l-217 -316h-184zM422 -10q-168 0 -256 78q-52 47 -72 115.5t-20 170.5v791h207v-768q0 -110 28.5 -155.5t114.5 -45.5q85 0 114 45.5t29 157.5v766h203v-789q0 -100 -19 -168.5t-67 -113.5q-91 -84 -262 -84z" />
    <glyph glyph-name="ucircumflex" unicode="&#xfb;" horiz-adv-x="843" 
d="M123 1245l194 316h207l195 -316h-182l-117 174l-117 -174h-180zM422 -10q-168 0 -256 78q-52 47 -72 115.5t-20 170.5v791h207v-768q0 -110 28.5 -155.5t114.5 -45.5q85 0 114 45.5t29 157.5v766h203v-789q0 -100 -19 -168.5t-67 -113.5q-91 -84 -262 -84z" />
    <glyph glyph-name="udieresis" unicode="&#xfc;" horiz-adv-x="843" 
d="M180 1245v223h180v-223h-180zM481 1245v223h181v-223h-181zM422 -10q-168 0 -256 78q-52 47 -72 115.5t-20 170.5v791h207v-768q0 -110 28.5 -155.5t114.5 -45.5q85 0 114 45.5t29 157.5v766h203v-789q0 -100 -19 -168.5t-67 -113.5q-91 -84 -262 -84z" />
    <glyph glyph-name="yacute" unicode="&#xfd;" horiz-adv-x="751" 
d="M174 -313q-76 0 -90 2v182h76q54 1 73 11.5t27 39.5l19 78l-273 1145h209l123 -580l43 -231l39 231l119 580h204l-297 -1260q-30 -116 -89.5 -156t-182.5 -42zM252 1245l162 316h239l-217 -316h-184z" />
    <glyph glyph-name="thorn" unicode="&#xfe;" horiz-adv-x="858" 
d="M80 -311v1874h205v-486q69 80 241 80q118 0 187 -72q44 -45 66 -128.5t26 -161.5t4 -222q0 -109 -2.5 -171.5t-12 -137t-31.5 -124t-58 -83.5q-68 -65 -187 -65q-168 0 -233 76v-379h-205zM453 178q35 0 60.5 9.5t41.5 34.5t25 50.5t13.5 78t5.5 94.5t1 120
q0 67 -0.5 104.5t-3.5 86t-9 74t-16.5 54.5t-26 42.5t-38.5 22.5t-53 9q-39 0 -66.5 -8.5t-46.5 -31t-29.5 -49t-16.5 -76.5t-7.5 -99t-1.5 -129t1.5 -128t7.5 -97t16.5 -75.5t29.5 -48.5t46.5 -30t66.5 -8z" />
    <glyph glyph-name="ydieresis" unicode="&#xff;" horiz-adv-x="751" 
d="M174 -313q-76 0 -90 2v182h76q54 1 73 11.5t27 39.5l19 78l-273 1145h209l123 -580l43 -231l39 231l119 580h204l-297 -1260q-30 -116 -89.5 -156t-182.5 -42zM133 1245v223h180v-223h-180zM434 1245v223h180v-223h-180z" />
    <glyph glyph-name="dotlessi" unicode="&#x131;" horiz-adv-x="378" 
d="M86 0v1145h207v-1145h-207z" />
    <glyph glyph-name="Lslash" unicode="&#x141;" horiz-adv-x="765" 
d="M4 610v183l90 28v697h213v-629l182 57v-182l-182 -57v-512h438v-195h-651v639z" />
    <glyph glyph-name="lslash" unicode="&#x142;" horiz-adv-x="520" 
d="M0 821v185l127 71v486h207v-367l147 86v-184l-147 -86v-727q0 -65 14 -83t74 -18h8v-184q-6 -2 -41 -2q-155 0 -208.5 55.5t-53.5 206.5v633z" />
    <glyph glyph-name="OE" unicode="&#x152;" horiz-adv-x="1445" 
d="M731 0v29q-79 -39 -233 -39q-195 0 -305 102q-38 37 -64 89t-40.5 107t-22 138t-9.5 153t-2 181q0 137 3.5 220t15.5 175t38.5 155t69.5 109q108 115 316 115q150 0 233 -51v35h651v-199h-454v-447h436v-196h-436v-481h454v-195h-651zM498 186q39 0 69 6.5t53.5 23.5
t40 38.5t28.5 59t19 76.5t11 99.5t5 120t1 146.5t-1 146.5t-5 120.5t-11 100.5t-19 77t-28.5 59t-40 38.5t-53.5 24t-69 7q-52 0 -88.5 -12t-62.5 -44t-41 -71.5t-23 -110.5t-10.5 -145t-2.5 -190t2.5 -189.5t10.5 -144.5t23 -110.5t41 -70.5t62.5 -43t88.5 -12z" />
    <glyph glyph-name="oe" unicode="&#x153;" horiz-adv-x="1300" 
d="M418 -10q-167 0 -256 86q-70 66 -92.5 182.5t-22.5 314.5q0 196 21 310.5t88 181.5q92 92 262 92q163 0 254 -94q2 -4 10 -12q2 4 10 12q91 94 242 94q158 0 229 -80q59 -68 76 -202t12 -402h-475q3 -173 37 -237t135 -64q111 0 240 45l57 -176q-84 -28 -154 -39.5
t-167 -11.5q-138 0 -219 78q-18 14 -25 26l-16 -16q-91 -88 -246 -88zM418 176q33 0 57 8t41 20.5t28.5 39t18.5 53t10 73t4 88t1 109.5t-1 109.5t-4 88t-10 73t-18.5 53t-28.5 39t-41 20.5t-57 8q-38 0 -65.5 -9t-45.5 -32t-28.5 -50t-16 -77t-7 -97t-1.5 -126t1.5 -126
t7 -97t16 -77t28.5 -50t45.5 -32t65.5 -9zM934 965q-92 0 -123.5 -67t-34.5 -239h293q-1 80 -3.5 124.5t-9.5 85t-22 58.5t-38.5 28t-61.5 10z" />
    <glyph glyph-name="Scaron" unicode="&#x160;" horiz-adv-x="817" 
d="M303 1587l-194 316h184l117 -177l116 177h179l-195 -316h-207zM377 -10q-205 0 -350 67l88 181q111 -54 256 -54q83 0 131.5 39.5t48.5 118.5q0 65 -46 140.5t-188 248.5q-146 178 -195.5 265.5t-49.5 195.5q0 71 20 130.5t62 107.5t115 75t171 27q174 0 299 -43
l-69 -193q-103 35 -226 35q-81 0 -123 -37.5t-42 -103.5q0 -57 32 -109t168 -219q175 -213 227 -307.5t52 -216.5q0 -158 -95 -253t-286 -95z" />
    <glyph glyph-name="scaron" unicode="&#x161;" horiz-adv-x="692" 
d="M244 1245l-195 316h184l117 -177l117 177h178l-194 -316h-207zM336 -10q-194 0 -303 59l78 172q41 -22 104 -37.5t121 -15.5q48 0 78 22.5t30 69.5t-26 88.5t-131 155.5q-93 100 -133 150t-62 102.5t-22 115.5q0 131 74 209t231 78q141 0 241 -33l-63 -188
q-89 29 -172 29q-115 0 -115 -95q0 -38 24.5 -74.5t121.5 -142.5q62 -67 91 -100t62.5 -75.5t46 -71.5t21 -64.5t8.5 -77.5q0 -127 -76 -201.5t-229 -74.5z" />
    <glyph glyph-name="Ydieresis" unicode="&#x178;" horiz-adv-x="911" 
d="M348 0v518l-346 1000h225l230 -703l231 703h219l-346 -1006v-512h-213zM213 1587v223h180v-223h-180zM514 1587v223h180v-223h-180z" />
    <glyph glyph-name="Zcaron" unicode="&#x17d;" horiz-adv-x="829" 
d="M309 1587l-194 316h184l117 -177l116 177h179l-195 -316h-207zM41 0v166l502 1153h-482v199h711v-183l-496 -1140h512v-195h-747z" />
    <glyph glyph-name="zcaron" unicode="&#x17e;" horiz-adv-x="659" 
d="M225 1245l-194 316h184l117 -177l117 177h178l-195 -316h-207zM25 0v141l360 817h-340v187h578v-144l-365 -829h377v-172h-610z" />
    <glyph glyph-name="florin" unicode="&#x192;" horiz-adv-x="772" 
d="M106 733v174h156l35 324q14 153 81.5 220t233.5 67q17 0 39 -1t31 -1v-189h-57q-71 0 -94 -31.5t-31 -111.5l-29 -277h211v-174h-229l-111 -1046h-205l109 1046h-140z" />
    <glyph glyph-name="circumflex" unicode="&#x2c6;" 
d="M76 1245l194 316h207l195 -316h-183l-116 174l-117 -174h-180z" />
    <glyph glyph-name="caron" unicode="&#x2c7;" 
d="M270 1245l-194 316h184l117 -177l117 177h178l-195 -316h-207z" />
    <glyph glyph-name="breve" unicode="&#x2d8;" 
d="M373 1235q-142 0 -200 71.5t-69 223.5l152 12q4 -39 10 -63t18.5 -45.5t34 -31t54.5 -9.5q63 0 86 36t30 113l154 -12q-6 -77 -20.5 -128.5t-44.5 -91t-80.5 -57.5t-124.5 -18z" />
    <glyph glyph-name="dotaccent" unicode="&#x2d9;" 
d="M270 1245v246h207v-246h-207z" />
    <glyph glyph-name="ring" unicode="&#x2da;" 
d="M373 1233q-46 0 -79.5 11.5t-53.5 30.5t-31 49t-15 61.5t-4 74.5q0 44 4 76t15 63t31 50t53.5 31t79.5 12q109 0 147.5 -59t38.5 -173q0 -54 -7 -91.5t-26.5 -70t-57.5 -49t-95 -16.5zM373 1335q49 0 63.5 29.5t14.5 95.5q0 68 -14.5 97.5t-63.5 29.5q-46 0 -61 -30
t-15 -97q0 -65 15 -95t61 -30z" />
    <glyph glyph-name="ogonek" unicode="&#x2db;" 
d="M401 -412q-106 0 -149 42t-43 137q0 52 22 104.5t45 83.5t60 72h139q-61 -76 -93 -131t-32 -107q0 -44 17 -61t55 -17h78v-123h-99z" />
    <glyph glyph-name="tilde" unicode="&#x2dc;" 
d="M233 1237l-159 23q13 111 54 166t128 55q41 0 112.5 -32t86.5 -32q28 0 39.5 14t17.5 56l160 -23q-13 -110 -54 -164.5t-126 -54.5q-42 0 -113.5 32t-87.5 32q-27 0 -39.5 -15t-18.5 -57z" />
    <glyph glyph-name="hungarumlaut" unicode="&#x2dd;" 
d="M121 1245l123 326h200l-178 -326h-145zM434 1245l123 326h201l-178 -326h-146z" />
    <glyph glyph-name="Delta" unicode="&#x394;" horiz-adv-x="897" 
d="M23 958v187h137v133q0 151 66 219t227 68q45 0 61 -2v-187h-47q-59 0 -79.5 -27t-20.5 -92v-112h147v-187h-147v-958h-207v958h-137zM532 -311v182q49 0 60.5 18t11.5 78v1178h209v-1194q0 -80 -14 -130t-48.5 -80t-85.5 -41t-133 -11zM604 1272v246h209v-246h-209z" />
    <glyph glyph-name="Delta" unicode="&#x2206;" horiz-adv-x="897" 
d="M23 958v187h137v133q0 151 66 219t227 68q45 0 61 -2v-187h-47q-59 0 -79.5 -27t-20.5 -92v-112h147v-187h-147v-958h-207v958h-137zM532 -311v182q49 0 60.5 18t11.5 78v1178h209v-1194q0 -80 -14 -130t-48.5 -80t-85.5 -41t-133 -11zM604 1272v246h209v-246h-209z" />
    <glyph glyph-name="Omega" unicode="&#x3a9;" horiz-adv-x="1703" 
d="M258 246q-88 105 -136 237t-48 277q0 144 48 276t136 236q6 -4 14 -12q-85 -103 -131.5 -231.5t-46.5 -268.5q0 -285 180 -500zM467 432q-117 143 -117 328q0 183 115 327q3 -2 8 -7t8 -7q-110 -136 -110 -313q0 -182 110 -314zM541 498q-92 116 -92 262t92 262
q3 -2 8 -7t8 -7q-88 -109 -88 -248t88 -248q-3 -2 -8 -7t-8 -7zM647 592q-57 72 -57 168q0 97 57 166l15 -15q-52 -69 -52 -151q0 -84 54 -154q-3 -2 -8.5 -7t-8.5 -7zM715 655q-33 48 -33 105q0 56 33 104q3 -2 8 -7t8 -7q-29 -44 -29 -90t29 -90q-3 -2 -16 -15zM774 709
q-14 25 -14 51t14 51l12 -10q-10 -20 -10 -41t10 -41q-4 -4 -12 -10zM852 123q-236 0 -412 158l2.5 2.5l5 5l5.5 5.5t2 1q171 -152 397 -152q227 0 395 152q2 -3 7.5 -8t7.5 -8q-177 -156 -410 -156zM852 664q-31 0 -55 18l12 12q21 -14 43 -14q26 0 43 14q4 -4 10 -12
q-21 -18 -53 -18zM987 653q-7 10 -14 15q28 42 28 92q0 51 -28 90l2.5 2.5t5 4.5t5.5 5t1 2q35 -44 35 -104t-35 -107zM598 551q-72 91 -72 209q0 119 74 209l14 -15q-67 -87 -67 -194q0 -108 67 -195q-10 -10 -16 -14zM852 -35q-145 0 -278 52.5t-238 146.5l14 16
q102 -92 231 -143t271 -51q285 0 500 192q0 1 3.5 -2.5t6.5 -7.5l4 -4q-104 -95 -236 -147t-278 -52zM852 248q-189 0 -330 125l15 16q134 -121 315 -121q182 0 313 121q2 -3 7.5 -8t7.5 -8q-138 -125 -328 -125zM852 348q-145 0 -264 101l14 14q108 -94 250 -94
q143 0 248 94q2 -3 7 -8.5t7 -8.5q-112 -98 -262 -98zM852 428q-116 0 -211 78l14 16q86 -73 197 -73t197 73q4 -4 12 -16q-91 -78 -209 -78zM852 543q-77 0 -135 49l14 16q51 -45 121 -45q68 0 119 45q2 -3 7 -8t7 -8q-58 -49 -133 -49zM733 911q-4 3 -7 6.5t-6 6.5l-3 4
q58 49 135 49t135 -49l-16 -17q-51 45 -119 45t-119 -45zM1167 1130q-134 121 -315 121q-179 0 -313 -118l-15 14q141 125 328 125q189 0 330 -125q-4 -6 -15 -17zM930 709l-12 10q10 20 10 41t-10 41l12 10q14 -25 14 -51t-14 -51zM958 682q-10 10 -16 14q21 32 21 64
t-21 63l16 15q25 -36 25 -78t-25 -78zM1020 627q-6 4 -16 14q38 50 38 119t-38 119l14 14q45 -57 45 -133q0 -71 -43 -133zM1106 551q-3 2 -8 7t-8 7q67 87 67 195t-70 194l17 15q74 -90 74 -209q0 -118 -72 -209zM1163 498q-10 10 -16 14q88 109 88 248t-88 248l16 14
q92 -116 92 -262t-92 -262zM1237 432q-6 4 -16 14q112 134 112 314q0 182 -112 313l16 14q117 -139 117 -327q0 -189 -117 -328zM1329 350q-2 2 -7 6t-7 6q141 175 141 398q0 227 -143 395l16 14q148 -179 148 -409q0 -231 -148 -410zM1446 246q-6 6 -16 14q180 215 180 500
t-180 500l16 14q88 -105 136 -237t48 -277q0 -144 -48 -276t-136 -238zM375 348q-148 182 -148 412q0 229 146 409q2 -2 7.5 -6.5t8.5 -7.5q-141 -170 -141 -395q0 -228 141 -398zM684 627q-43 59 -43 133t43 133q6 -4 16 -14q-38 -50 -38 -119q0 -67 38 -117zM745 682
q-24 34 -24 78t24 78q2 -3 4.5 -5.5t6 -5.5t4.5 -4q-19 -34 -19 -63q0 -30 19 -64zM809 825l-10 13q21 18 53 18t53 -18l-10 -13q-23 15 -43 15q-25 0 -43 -15zM786 852l-14 14q37 29 80 29q41 0 78 -29q-8 -8 -12 -14q-28 25 -66 25q-34 0 -66 -25zM760 881l-15 16
q45 39 107 39q61 0 106 -39l-14 -16q-37 34 -92 34t-92 -34zM604 1057l-14 16q112 98 262 98q151 0 262 -100q1 0 -2 -3.5t-6 -7.5l-4 -3q-108 94 -250 94q-143 0 -248 -94zM852 492q-100 0 -170 61l14 16q70 -57 156 -57q87 0 154 57l14 -14q-73 -63 -168 -63zM852 584
q-61 0 -109 39l15 16q47 -35 94 -35q51 0 92 35l14 -16q-45 -39 -106 -39zM852 625q-43 0 -82 28l14 15q36 -25 68 -25q34 0 66 25l14 -15q-36 -28 -80 -28zM698 950l-14 15q73 63 168 63q98 0 168 -61l-14 -17q-68 58 -154 58q-87 0 -154 -58zM655 997l-14 17q91 78 211 78
q119 0 209 -80l-12 -15q-83 74 -197 74q-110 0 -197 -74zM1249 1223q-166 153 -397 153q-227 0 -397 -151l-15 14q179 158 412 158t412 -158zM352 1339l-14 17q104 95 236 146.5t278 51.5q145 0 278 -52t238 -146l-14 -17q-102 93 -231 144t-271 51t-270 -51t-230 -144z
M1057 594l-15 14q52 69 52 152t-54 153l17 15q57 -72 57 -168q0 -97 -57 -166z" />
    <glyph glyph-name="Omega" unicode="&#x2126;" horiz-adv-x="1703" 
d="M258 246q-88 105 -136 237t-48 277q0 144 48 276t136 236q6 -4 14 -12q-85 -103 -131.5 -231.5t-46.5 -268.5q0 -285 180 -500zM467 432q-117 143 -117 328q0 183 115 327q3 -2 8 -7t8 -7q-110 -136 -110 -313q0 -182 110 -314zM541 498q-92 116 -92 262t92 262
q3 -2 8 -7t8 -7q-88 -109 -88 -248t88 -248q-3 -2 -8 -7t-8 -7zM647 592q-57 72 -57 168q0 97 57 166l15 -15q-52 -69 -52 -151q0 -84 54 -154q-3 -2 -8.5 -7t-8.5 -7zM715 655q-33 48 -33 105q0 56 33 104q3 -2 8 -7t8 -7q-29 -44 -29 -90t29 -90q-3 -2 -16 -15zM774 709
q-14 25 -14 51t14 51l12 -10q-10 -20 -10 -41t10 -41q-4 -4 -12 -10zM852 123q-236 0 -412 158l2.5 2.5l5 5l5.5 5.5t2 1q171 -152 397 -152q227 0 395 152q2 -3 7.5 -8t7.5 -8q-177 -156 -410 -156zM852 664q-31 0 -55 18l12 12q21 -14 43 -14q26 0 43 14q4 -4 10 -12
q-21 -18 -53 -18zM987 653q-7 10 -14 15q28 42 28 92q0 51 -28 90l2.5 2.5t5 4.5t5.5 5t1 2q35 -44 35 -104t-35 -107zM598 551q-72 91 -72 209q0 119 74 209l14 -15q-67 -87 -67 -194q0 -108 67 -195q-10 -10 -16 -14zM852 -35q-145 0 -278 52.5t-238 146.5l14 16
q102 -92 231 -143t271 -51q285 0 500 192q0 1 3.5 -2.5t6.5 -7.5l4 -4q-104 -95 -236 -147t-278 -52zM852 248q-189 0 -330 125l15 16q134 -121 315 -121q182 0 313 121q2 -3 7.5 -8t7.5 -8q-138 -125 -328 -125zM852 348q-145 0 -264 101l14 14q108 -94 250 -94
q143 0 248 94q2 -3 7 -8.5t7 -8.5q-112 -98 -262 -98zM852 428q-116 0 -211 78l14 16q86 -73 197 -73t197 73q4 -4 12 -16q-91 -78 -209 -78zM852 543q-77 0 -135 49l14 16q51 -45 121 -45q68 0 119 45q2 -3 7 -8t7 -8q-58 -49 -133 -49zM733 911q-4 3 -7 6.5t-6 6.5l-3 4
q58 49 135 49t135 -49l-16 -17q-51 45 -119 45t-119 -45zM1167 1130q-134 121 -315 121q-179 0 -313 -118l-15 14q141 125 328 125q189 0 330 -125q-4 -6 -15 -17zM930 709l-12 10q10 20 10 41t-10 41l12 10q14 -25 14 -51t-14 -51zM958 682q-10 10 -16 14q21 32 21 64
t-21 63l16 15q25 -36 25 -78t-25 -78zM1020 627q-6 4 -16 14q38 50 38 119t-38 119l14 14q45 -57 45 -133q0 -71 -43 -133zM1106 551q-3 2 -8 7t-8 7q67 87 67 195t-70 194l17 15q74 -90 74 -209q0 -118 -72 -209zM1163 498q-10 10 -16 14q88 109 88 248t-88 248l16 14
q92 -116 92 -262t-92 -262zM1237 432q-6 4 -16 14q112 134 112 314q0 182 -112 313l16 14q117 -139 117 -327q0 -189 -117 -328zM1329 350q-2 2 -7 6t-7 6q141 175 141 398q0 227 -143 395l16 14q148 -179 148 -409q0 -231 -148 -410zM1446 246q-6 6 -16 14q180 215 180 500
t-180 500l16 14q88 -105 136 -237t48 -277q0 -144 -48 -276t-136 -238zM375 348q-148 182 -148 412q0 229 146 409q2 -2 7.5 -6.5t8.5 -7.5q-141 -170 -141 -395q0 -228 141 -398zM684 627q-43 59 -43 133t43 133q6 -4 16 -14q-38 -50 -38 -119q0 -67 38 -117zM745 682
q-24 34 -24 78t24 78q2 -3 4.5 -5.5t6 -5.5t4.5 -4q-19 -34 -19 -63q0 -30 19 -64zM809 825l-10 13q21 18 53 18t53 -18l-10 -13q-23 15 -43 15q-25 0 -43 -15zM786 852l-14 14q37 29 80 29q41 0 78 -29q-8 -8 -12 -14q-28 25 -66 25q-34 0 -66 -25zM760 881l-15 16
q45 39 107 39q61 0 106 -39l-14 -16q-37 34 -92 34t-92 -34zM604 1057l-14 16q112 98 262 98q151 0 262 -100q1 0 -2 -3.5t-6 -7.5l-4 -3q-108 94 -250 94q-143 0 -248 -94zM852 492q-100 0 -170 61l14 16q70 -57 156 -57q87 0 154 57l14 -14q-73 -63 -168 -63zM852 584
q-61 0 -109 39l15 16q47 -35 94 -35q51 0 92 35l14 -16q-45 -39 -106 -39zM852 625q-43 0 -82 28l14 15q36 -25 68 -25q34 0 66 25l14 -15q-36 -28 -80 -28zM698 950l-14 15q73 63 168 63q98 0 168 -61l-14 -17q-68 58 -154 58q-87 0 -154 -58zM655 997l-14 17q91 78 211 78
q119 0 209 -80l-12 -15q-83 74 -197 74q-110 0 -197 -74zM1249 1223q-166 153 -397 153q-227 0 -397 -151l-15 14q179 158 412 158t412 -158zM352 1339l-14 17q104 95 236 146.5t278 51.5q145 0 278 -52t238 -146l-14 -17q-102 93 -231 144t-271 51t-270 -51t-230 -144z
M1057 594l-15 14q52 69 52 152t-54 153l17 15q57 -72 57 -168q0 -97 -57 -166z" />
    <glyph glyph-name="pi" unicode="&#x3c0;" horiz-adv-x="1028" 
d="M514 -16q-77 0 -138 11.5t-108 37t-81.5 59t-58.5 85.5t-39 107.5t-23.5 134.5t-11.5 157t-3 184q0 105 3 182.5t11 156.5t23 134.5t39 108t58.5 86t81.5 59.5t108.5 37.5t138.5 11.5q69 0 125 -10t100.5 -28t79 -48.5t60 -66t43 -87t29 -104.5t17.5 -125.5t8.5 -143
t2.5 -163.5q0 -106 -3 -184t-11.5 -157t-23.5 -134.5t-39 -107.5t-59 -85.5t-82 -59t-108.5 -37t-138.5 -11.5zM514 70q72 0 127.5 15t95 40.5t67 72t44 96.5t25 128.5t11.5 153.5t3 184q0 95 -2 162.5t-8.5 139t-18 119.5t-30.5 95t-46.5 76.5t-65.5 52.5t-88 33t-114 10
q-63 0 -113 -10t-88 -33t-65.5 -52.5t-46.5 -76.5t-31 -95.5t-18.5 -119.5t-8.5 -138.5t-2 -162.5q0 -109 3 -184.5t12 -153t25.5 -128t44 -97t67 -72t94.5 -40.5t127 -15zM289 258v987h229q159 0 216 -68.5t57 -240.5q0 -173 -56.5 -242t-214.5 -69h-88v-367h-143zM432 748
h86q82 0 106.5 36.5t24.5 147.5q0 110 -24 146t-107 36h-86v-366z" />
    <glyph glyph-name="endash" unicode="&#x2013;" horiz-adv-x="911" 
d="M53 559v199h805v-199h-805z" />
    <glyph glyph-name="emdash" unicode="&#x2014;" horiz-adv-x="1204" 
d="M53 559v199h1098v-199h-1098z" />
    <glyph glyph-name="quoteleft" unicode="&#x2018;" horiz-adv-x="389" 
d="M78 987v270q0 50 5.5 82.5t23 65.5t51.5 61t90 58l65 -105q-65 -42 -81.5 -67.5t-16.5 -83.5h98v-281h-235z" />
    <glyph glyph-name="quoteright" unicode="&#x2019;" horiz-adv-x="391" 
d="M143 981l-65 106q64 41 81 67t17 83h-98v281h235v-271q0 -97 -32 -152.5t-138 -113.5z" />
    <glyph glyph-name="quotesinglbase" unicode="&#x201a;" horiz-adv-x="391" 
d="M143 -256l-65 104q64 43 81 69t17 83h-98v281h235v-271q0 -50 -5.5 -82.5t-23 -65.5t-51.5 -60.5t-90 -57.5z" />
    <glyph glyph-name="quotedblleft" unicode="&#x201c;" horiz-adv-x="704" 
d="M78 991v266q0 90 32 148.5t134 114.5l63 -101q-66 -41 -83 -66.5t-17 -82.5h100v-279h-229zM397 991v266q0 89 33 148t135 115l62 -101q-66 -42 -83.5 -67.5t-17.5 -81.5h101v-279h-230z" />
    <glyph glyph-name="quotedblright" unicode="&#x201d;" horiz-adv-x="704" 
d="M139 989l-61 103q65 40 82.5 65.5t17.5 81.5h-100v279h229v-265q0 -91 -32.5 -149t-135.5 -115zM461 989l-64 103q66 40 83.5 65t17.5 82h-101v279h230v-265q0 -91 -31.5 -149t-134.5 -115z" />
    <glyph glyph-name="quotedblbase" unicode="&#x201e;" horiz-adv-x="704" 
d="M139 -252l-61 100q65 43 82.5 69.5t17.5 82.5h-100v279h229v-267q0 -91 -32.5 -149t-135.5 -115zM461 -252l-64 100q66 43 83.5 69t17.5 83h-101v279h230v-267q0 -91 -31.5 -149t-134.5 -115z" />
    <glyph glyph-name="dagger" unicode="&#x2020;" horiz-adv-x="776" 
d="M285 -311v1231h-222v198h222v445h207v-445h219v-198h-219v-1231h-207z" />
    <glyph glyph-name="daggerdbl" unicode="&#x2021;" horiz-adv-x="776" 
d="M285 -313v450h-222v199h222v584h-222v198h222v445h207v-445h219v-198h-219v-584h219v-199h-219v-450h-207z" />
    <glyph glyph-name="bullet" unicode="&#x2022;" horiz-adv-x="514" 
d="M119 428v389h278v-389h-278z" />
    <glyph glyph-name="ellipsis" unicode="&#x2026;" horiz-adv-x="1114" 
d="M76 0v279h237v-279h-237zM440 0v279h238v-279h-238zM801 0v279h237v-279h-237z" />
    <glyph glyph-name="perthousand" unicode="&#x2030;" horiz-adv-x="2197" 
d="M338 565q-130 0 -201 68q-58 52 -74 146t-16 270q0 167 14.5 260t63.5 147q78 78 213 78q140 0 213 -80q51 -55 65.5 -147t14.5 -258q0 -173 -16.5 -267.5t-73.5 -148.5q-75 -68 -203 -68zM1225 -12q-125 0 -201 65q-58 54 -74 147.5t-16 270.5q0 167 14.5 260t65.5 148
q75 75 211 75q139 0 213 -77q52 -54 66 -146t14 -260q0 -172 -17.5 -268t-75.5 -148q-74 -67 -200 -67zM1860 -12q-125 0 -201 65q-58 54 -75 149t-17 269q0 168 15 260.5t67 147.5q75 75 211 75q138 0 215 -77q49 -54 62 -145.5t13 -260.5q0 -176 -16 -270t-72 -146
q-77 -67 -202 -67zM338 729q25 0 42.5 6.5t29.5 24.5t18.5 38.5t10 62t4.5 80.5t1 106t-1 105.5t-4.5 79.5t-10 61.5t-18.5 39t-29.5 25t-42.5 6.5q-26 0 -43.5 -6.5t-29.5 -25t-18.5 -39t-10 -62t-4.5 -79.5t-1 -105q0 -193 17.5 -255.5t89.5 -62.5zM1225 152q19 0 33 3.5
t25 13.5t18.5 20.5t13 33t8 42t4 55.5t2 66t0.5 81q0 69 -0.5 106.5t-4 79.5t-10 62t-18 38.5t-29 24.5t-42.5 6q-72 0 -89.5 -62t-17.5 -255q0 -67 1 -105t4.5 -79.5t10 -61.5t18.5 -38.5t29.5 -24.5t43.5 -6zM1860 152q72 0 88 61t16 254q0 195 -16 256t-88 61t-89.5 -62
t-17.5 -255q0 -67 1 -105t4.5 -79.5t10 -61.5t18.5 -38.5t29.5 -24.5t43.5 -6zM438 0l508 1518h178l-506 -1518h-180z" />
    <glyph glyph-name="guilsinglleft" unicode="&#x2039;" horiz-adv-x="608" 
d="M291 0l-193 571l193 574h190l-180 -574l180 -571h-190z" />
    <glyph glyph-name="guilsinglright" unicode="&#x203a;" horiz-adv-x="608" 
d="M129 0l178 571l-178 574h190l191 -574l-191 -571h-190z" />
    <glyph glyph-name="fraction" unicode="&#x2044;" horiz-adv-x="716" 
d="M12 0l506 1518h189l-508 -1518h-187z" />
    <glyph glyph-name="fraction" unicode="&#x2215;" horiz-adv-x="716" 
d="M12 0l506 1518h189l-508 -1518h-187z" />
    <glyph glyph-name="Euro" unicode="&#x20ac;" horiz-adv-x="864" 
d="M39 813v176h145q5 173 28.5 278.5t80.5 168.5q92 98 270 98q81 0 132.5 -10t107.5 -33l-76 -184q-68 28 -164 28q-100 0 -134.5 -72.5t-39.5 -273.5h283v-176h-283v-94h283v-176h-281q5 -211 38.5 -288t133.5 -77q105 0 178 33l70 -178q-57 -24 -110.5 -33.5t-137.5 -9.5
q-164 0 -258 84q-65 62 -90.5 169t-30.5 300h-145v176h143v94h-143z" />
    <glyph glyph-name="trademark" unicode="&#x2122;" horiz-adv-x="1378" 
d="M598 539v979h184l138 -668l139 668h184v-979h-145v641l-131 -641h-103l-127 643v-643h-139zM221 539v833h-172v146h502v-146h-174v-833h-156z" />
    <glyph glyph-name="partialdiff" unicode="&#x2202;" horiz-adv-x="1703" 
d="M258 246q-88 105 -136 237t-48 277q0 144 48 276t136 236q6 -4 14 -12q-85 -103 -131.5 -231.5t-46.5 -268.5q0 -285 180 -500zM467 432q-117 143 -117 328q0 183 115 327q3 -2 8 -7t8 -7q-110 -136 -110 -313q0 -182 110 -314zM541 498q-92 116 -92 262t92 262
q3 -2 8 -7t8 -7q-88 -109 -88 -248t88 -248q-3 -2 -8 -7t-8 -7zM647 592q-57 72 -57 168q0 97 57 166l15 -15q-52 -69 -52 -151q0 -84 54 -154q-3 -2 -8.5 -7t-8.5 -7zM715 655q-33 48 -33 105q0 56 33 104q3 -2 8 -7t8 -7q-29 -44 -29 -90t29 -90q-3 -2 -16 -15zM774 709
q-14 25 -14 51t14 51l12 -10q-10 -20 -10 -41t10 -41q-4 -4 -12 -10zM852 123q-236 0 -412 158l2.5 2.5l5 5l5.5 5.5t2 1q171 -152 397 -152q227 0 395 152q2 -3 7.5 -8t7.5 -8q-177 -156 -410 -156zM852 664q-31 0 -55 18l12 12q21 -14 43 -14q26 0 43 14q4 -4 10 -12
q-21 -18 -53 -18zM987 653q-7 10 -14 15q28 42 28 92q0 51 -28 90l2.5 2.5t5 4.5t5.5 5t1 2q35 -44 35 -104t-35 -107zM598 551q-72 91 -72 209q0 119 74 209l14 -15q-67 -87 -67 -194q0 -108 67 -195q-10 -10 -16 -14zM852 -35q-145 0 -278 52.5t-238 146.5l14 16
q102 -92 231 -143t271 -51q285 0 500 192q0 1 3.5 -2.5t6.5 -7.5l4 -4q-104 -95 -236 -147t-278 -52zM852 248q-189 0 -330 125l15 16q134 -121 315 -121q182 0 313 121q2 -3 7.5 -8t7.5 -8q-138 -125 -328 -125zM852 348q-145 0 -264 101l14 14q108 -94 250 -94
q143 0 248 94q2 -3 7 -8.5t7 -8.5q-112 -98 -262 -98zM852 428q-116 0 -211 78l14 16q86 -73 197 -73t197 73q4 -4 12 -16q-91 -78 -209 -78zM852 543q-77 0 -135 49l14 16q51 -45 121 -45q68 0 119 45q2 -3 7 -8t7 -8q-58 -49 -133 -49zM733 911q-4 3 -7 6.5t-6 6.5l-3 4
q58 49 135 49t135 -49l-16 -17q-51 45 -119 45t-119 -45zM1167 1130q-134 121 -315 121q-179 0 -313 -118l-15 14q141 125 328 125q189 0 330 -125q-4 -6 -15 -17zM930 709l-12 10q10 20 10 41t-10 41l12 10q14 -25 14 -51t-14 -51zM958 682q-10 10 -16 14q21 32 21 64
t-21 63l16 15q25 -36 25 -78t-25 -78zM1020 627q-6 4 -16 14q38 50 38 119t-38 119l14 14q45 -57 45 -133q0 -71 -43 -133zM1106 551q-3 2 -8 7t-8 7q67 87 67 195t-70 194l17 15q74 -90 74 -209q0 -118 -72 -209zM1163 498q-10 10 -16 14q88 109 88 248t-88 248l16 14
q92 -116 92 -262t-92 -262zM1237 432q-6 4 -16 14q112 134 112 314q0 182 -112 313l16 14q117 -139 117 -327q0 -189 -117 -328zM1329 350q-2 2 -7 6t-7 6q141 175 141 398q0 227 -143 395l16 14q148 -179 148 -409q0 -231 -148 -410zM1446 246q-6 6 -16 14q180 215 180 500
t-180 500l16 14q88 -105 136 -237t48 -277q0 -144 -48 -276t-136 -238zM375 348q-148 182 -148 412q0 229 146 409q2 -2 7.5 -6.5t8.5 -7.5q-141 -170 -141 -395q0 -228 141 -398zM684 627q-43 59 -43 133t43 133q6 -4 16 -14q-38 -50 -38 -119q0 -67 38 -117zM745 682
q-24 34 -24 78t24 78q2 -3 4.5 -5.5t6 -5.5t4.5 -4q-19 -34 -19 -63q0 -30 19 -64zM809 825l-10 13q21 18 53 18t53 -18l-10 -13q-23 15 -43 15q-25 0 -43 -15zM786 852l-14 14q37 29 80 29q41 0 78 -29q-8 -8 -12 -14q-28 25 -66 25q-34 0 -66 -25zM760 881l-15 16
q45 39 107 39q61 0 106 -39l-14 -16q-37 34 -92 34t-92 -34zM604 1057l-14 16q112 98 262 98q151 0 262 -100q1 0 -2 -3.5t-6 -7.5l-4 -3q-108 94 -250 94q-143 0 -248 -94zM852 492q-100 0 -170 61l14 16q70 -57 156 -57q87 0 154 57l14 -14q-73 -63 -168 -63zM852 584
q-61 0 -109 39l15 16q47 -35 94 -35q51 0 92 35l14 -16q-45 -39 -106 -39zM852 625q-43 0 -82 28l14 15q36 -25 68 -25q34 0 66 25l14 -15q-36 -28 -80 -28zM698 950l-14 15q73 63 168 63q98 0 168 -61l-14 -17q-68 58 -154 58q-87 0 -154 -58zM655 997l-14 17q91 78 211 78
q119 0 209 -80l-12 -15q-83 74 -197 74q-110 0 -197 -74zM1249 1223q-166 153 -397 153q-227 0 -397 -151l-15 14q179 158 412 158t412 -158zM352 1339l-14 17q104 95 236 146.5t278 51.5q145 0 278 -52t238 -146l-14 -17q-102 93 -231 144t-271 51t-270 -51t-230 -144z
M1057 594l-15 14q52 69 52 152t-54 153l17 15q57 -72 57 -168q0 -97 -57 -166z" />
    <glyph glyph-name="product" unicode="&#x220f;" horiz-adv-x="1703" 
d="M258 246q-88 105 -136 237t-48 277q0 144 48 276t136 236q6 -4 14 -12q-85 -103 -131.5 -231.5t-46.5 -268.5q0 -285 180 -500zM467 432q-117 143 -117 328q0 183 115 327q3 -2 8 -7t8 -7q-110 -136 -110 -313q0 -182 110 -314zM541 498q-92 116 -92 262t92 262
q3 -2 8 -7t8 -7q-88 -109 -88 -248t88 -248q-3 -2 -8 -7t-8 -7zM647 592q-57 72 -57 168q0 97 57 166l15 -15q-52 -69 -52 -151q0 -84 54 -154q-3 -2 -8.5 -7t-8.5 -7zM715 655q-33 48 -33 105q0 56 33 104q3 -2 8 -7t8 -7q-29 -44 -29 -90t29 -90q-3 -2 -16 -15zM774 709
q-14 25 -14 51t14 51l12 -10q-10 -20 -10 -41t10 -41q-4 -4 -12 -10zM852 123q-236 0 -412 158l2.5 2.5l5 5l5.5 5.5t2 1q171 -152 397 -152q227 0 395 152q2 -3 7.5 -8t7.5 -8q-177 -156 -410 -156zM852 664q-31 0 -55 18l12 12q21 -14 43 -14q26 0 43 14q4 -4 10 -12
q-21 -18 -53 -18zM987 653q-7 10 -14 15q28 42 28 92q0 51 -28 90l2.5 2.5t5 4.5t5.5 5t1 2q35 -44 35 -104t-35 -107zM598 551q-72 91 -72 209q0 119 74 209l14 -15q-67 -87 -67 -194q0 -108 67 -195q-10 -10 -16 -14zM852 -35q-145 0 -278 52.5t-238 146.5l14 16
q102 -92 231 -143t271 -51q285 0 500 192q0 1 3.5 -2.5t6.5 -7.5l4 -4q-104 -95 -236 -147t-278 -52zM852 248q-189 0 -330 125l15 16q134 -121 315 -121q182 0 313 121q2 -3 7.5 -8t7.5 -8q-138 -125 -328 -125zM852 348q-145 0 -264 101l14 14q108 -94 250 -94
q143 0 248 94q2 -3 7 -8.5t7 -8.5q-112 -98 -262 -98zM852 428q-116 0 -211 78l14 16q86 -73 197 -73t197 73q4 -4 12 -16q-91 -78 -209 -78zM852 543q-77 0 -135 49l14 16q51 -45 121 -45q68 0 119 45q2 -3 7 -8t7 -8q-58 -49 -133 -49zM733 911q-4 3 -7 6.5t-6 6.5l-3 4
q58 49 135 49t135 -49l-16 -17q-51 45 -119 45t-119 -45zM1167 1130q-134 121 -315 121q-179 0 -313 -118l-15 14q141 125 328 125q189 0 330 -125q-4 -6 -15 -17zM930 709l-12 10q10 20 10 41t-10 41l12 10q14 -25 14 -51t-14 -51zM958 682q-10 10 -16 14q21 32 21 64
t-21 63l16 15q25 -36 25 -78t-25 -78zM1020 627q-6 4 -16 14q38 50 38 119t-38 119l14 14q45 -57 45 -133q0 -71 -43 -133zM1106 551q-3 2 -8 7t-8 7q67 87 67 195t-70 194l17 15q74 -90 74 -209q0 -118 -72 -209zM1163 498q-10 10 -16 14q88 109 88 248t-88 248l16 14
q92 -116 92 -262t-92 -262zM1237 432q-6 4 -16 14q112 134 112 314q0 182 -112 313l16 14q117 -139 117 -327q0 -189 -117 -328zM1329 350q-2 2 -7 6t-7 6q141 175 141 398q0 227 -143 395l16 14q148 -179 148 -409q0 -231 -148 -410zM1446 246q-6 6 -16 14q180 215 180 500
t-180 500l16 14q88 -105 136 -237t48 -277q0 -144 -48 -276t-136 -238zM375 348q-148 182 -148 412q0 229 146 409q2 -2 7.5 -6.5t8.5 -7.5q-141 -170 -141 -395q0 -228 141 -398zM684 627q-43 59 -43 133t43 133q6 -4 16 -14q-38 -50 -38 -119q0 -67 38 -117zM745 682
q-24 34 -24 78t24 78q2 -3 4.5 -5.5t6 -5.5t4.5 -4q-19 -34 -19 -63q0 -30 19 -64zM809 825l-10 13q21 18 53 18t53 -18l-10 -13q-23 15 -43 15q-25 0 -43 -15zM786 852l-14 14q37 29 80 29q41 0 78 -29q-8 -8 -12 -14q-28 25 -66 25q-34 0 -66 -25zM760 881l-15 16
q45 39 107 39q61 0 106 -39l-14 -16q-37 34 -92 34t-92 -34zM604 1057l-14 16q112 98 262 98q151 0 262 -100q1 0 -2 -3.5t-6 -7.5l-4 -3q-108 94 -250 94q-143 0 -248 -94zM852 492q-100 0 -170 61l14 16q70 -57 156 -57q87 0 154 57l14 -14q-73 -63 -168 -63zM852 584
q-61 0 -109 39l15 16q47 -35 94 -35q51 0 92 35l14 -16q-45 -39 -106 -39zM852 625q-43 0 -82 28l14 15q36 -25 68 -25q34 0 66 25l14 -15q-36 -28 -80 -28zM698 950l-14 15q73 63 168 63q98 0 168 -61l-14 -17q-68 58 -154 58q-87 0 -154 -58zM655 997l-14 17q91 78 211 78
q119 0 209 -80l-12 -15q-83 74 -197 74q-110 0 -197 -74zM1249 1223q-166 153 -397 153q-227 0 -397 -151l-15 14q179 158 412 158t412 -158zM352 1339l-14 17q104 95 236 146.5t278 51.5q145 0 278 -52t238 -146l-14 -17q-102 93 -231 144t-271 51t-270 -51t-230 -144z
M1057 594l-15 14q52 69 52 152t-54 153l17 15q57 -72 57 -168q0 -97 -57 -166z" />
    <glyph glyph-name="summation" unicode="&#x2211;" horiz-adv-x="1703" 
d="M258 246q-88 105 -136 237t-48 277q0 144 48 276t136 236q6 -4 14 -12q-85 -103 -131.5 -231.5t-46.5 -268.5q0 -285 180 -500zM467 432q-117 143 -117 328q0 183 115 327q3 -2 8 -7t8 -7q-110 -136 -110 -313q0 -182 110 -314zM541 498q-92 116 -92 262t92 262
q3 -2 8 -7t8 -7q-88 -109 -88 -248t88 -248q-3 -2 -8 -7t-8 -7zM647 592q-57 72 -57 168q0 97 57 166l15 -15q-52 -69 -52 -151q0 -84 54 -154q-3 -2 -8.5 -7t-8.5 -7zM715 655q-33 48 -33 105q0 56 33 104q3 -2 8 -7t8 -7q-29 -44 -29 -90t29 -90q-3 -2 -16 -15zM774 709
q-14 25 -14 51t14 51l12 -10q-10 -20 -10 -41t10 -41q-4 -4 -12 -10zM852 123q-236 0 -412 158l2.5 2.5l5 5l5.5 5.5t2 1q171 -152 397 -152q227 0 395 152q2 -3 7.5 -8t7.5 -8q-177 -156 -410 -156zM852 664q-31 0 -55 18l12 12q21 -14 43 -14q26 0 43 14q4 -4 10 -12
q-21 -18 -53 -18zM987 653q-7 10 -14 15q28 42 28 92q0 51 -28 90l2.5 2.5t5 4.5t5.5 5t1 2q35 -44 35 -104t-35 -107zM598 551q-72 91 -72 209q0 119 74 209l14 -15q-67 -87 -67 -194q0 -108 67 -195q-10 -10 -16 -14zM852 -35q-145 0 -278 52.5t-238 146.5l14 16
q102 -92 231 -143t271 -51q285 0 500 192q0 1 3.5 -2.5t6.5 -7.5l4 -4q-104 -95 -236 -147t-278 -52zM852 248q-189 0 -330 125l15 16q134 -121 315 -121q182 0 313 121q2 -3 7.5 -8t7.5 -8q-138 -125 -328 -125zM852 348q-145 0 -264 101l14 14q108 -94 250 -94
q143 0 248 94q2 -3 7 -8.5t7 -8.5q-112 -98 -262 -98zM852 428q-116 0 -211 78l14 16q86 -73 197 -73t197 73q4 -4 12 -16q-91 -78 -209 -78zM852 543q-77 0 -135 49l14 16q51 -45 121 -45q68 0 119 45q2 -3 7 -8t7 -8q-58 -49 -133 -49zM733 911q-4 3 -7 6.5t-6 6.5l-3 4
q58 49 135 49t135 -49l-16 -17q-51 45 -119 45t-119 -45zM1167 1130q-134 121 -315 121q-179 0 -313 -118l-15 14q141 125 328 125q189 0 330 -125q-4 -6 -15 -17zM930 709l-12 10q10 20 10 41t-10 41l12 10q14 -25 14 -51t-14 -51zM958 682q-10 10 -16 14q21 32 21 64
t-21 63l16 15q25 -36 25 -78t-25 -78zM1020 627q-6 4 -16 14q38 50 38 119t-38 119l14 14q45 -57 45 -133q0 -71 -43 -133zM1106 551q-3 2 -8 7t-8 7q67 87 67 195t-70 194l17 15q74 -90 74 -209q0 -118 -72 -209zM1163 498q-10 10 -16 14q88 109 88 248t-88 248l16 14
q92 -116 92 -262t-92 -262zM1237 432q-6 4 -16 14q112 134 112 314q0 182 -112 313l16 14q117 -139 117 -327q0 -189 -117 -328zM1329 350q-2 2 -7 6t-7 6q141 175 141 398q0 227 -143 395l16 14q148 -179 148 -409q0 -231 -148 -410zM1446 246q-6 6 -16 14q180 215 180 500
t-180 500l16 14q88 -105 136 -237t48 -277q0 -144 -48 -276t-136 -238zM375 348q-148 182 -148 412q0 229 146 409q2 -2 7.5 -6.5t8.5 -7.5q-141 -170 -141 -395q0 -228 141 -398zM684 627q-43 59 -43 133t43 133q6 -4 16 -14q-38 -50 -38 -119q0 -67 38 -117zM745 682
q-24 34 -24 78t24 78q2 -3 4.5 -5.5t6 -5.5t4.5 -4q-19 -34 -19 -63q0 -30 19 -64zM809 825l-10 13q21 18 53 18t53 -18l-10 -13q-23 15 -43 15q-25 0 -43 -15zM786 852l-14 14q37 29 80 29q41 0 78 -29q-8 -8 -12 -14q-28 25 -66 25q-34 0 -66 -25zM760 881l-15 16
q45 39 107 39q61 0 106 -39l-14 -16q-37 34 -92 34t-92 -34zM604 1057l-14 16q112 98 262 98q151 0 262 -100q1 0 -2 -3.5t-6 -7.5l-4 -3q-108 94 -250 94q-143 0 -248 -94zM852 492q-100 0 -170 61l14 16q70 -57 156 -57q87 0 154 57l14 -14q-73 -63 -168 -63zM852 584
q-61 0 -109 39l15 16q47 -35 94 -35q51 0 92 35l14 -16q-45 -39 -106 -39zM852 625q-43 0 -82 28l14 15q36 -25 68 -25q34 0 66 25l14 -15q-36 -28 -80 -28zM698 950l-14 15q73 63 168 63q98 0 168 -61l-14 -17q-68 58 -154 58q-87 0 -154 -58zM655 997l-14 17q91 78 211 78
q119 0 209 -80l-12 -15q-83 74 -197 74q-110 0 -197 -74zM1249 1223q-166 153 -397 153q-227 0 -397 -151l-15 14q179 158 412 158t412 -158zM352 1339l-14 17q104 95 236 146.5t278 51.5q145 0 278 -52t238 -146l-14 -17q-102 93 -231 144t-271 51t-270 -51t-230 -144z
M1057 594l-15 14q52 69 52 152t-54 153l17 15q57 -72 57 -168q0 -97 -57 -166z" />
    <glyph glyph-name="minus" unicode="&#x2212;" horiz-adv-x="925" 
d="M123 651v197h680v-197h-680z" />
    <glyph glyph-name="radical" unicode="&#x221a;" horiz-adv-x="878" 
d="M270 -8l-221 885h217l117 -574l262 1215h207l-367 -1526h-215z" />
    <glyph glyph-name="infinity" unicode="&#x221e;" horiz-adv-x="1343" 
d="M606 0v958h-239v-958h-207v958h-137v187h137v133q0 151 66 219t227 68q45 0 61 -2v-187h-47q-59 0 -79.5 -27t-20.5 -92v-112h239v133q0 151 66 219t227 68q46 0 62 -2v-187h-50q-58 0 -78 -27t-20 -92v-112h148v-187h-148v-958h-207zM1051 0v1145h206v-1145h-206z
M1051 1272v246h206v-246h-206z" />
    <glyph glyph-name="integral" unicode="&#x222b;" horiz-adv-x="1703" 
d="M258 246q-88 105 -136 237t-48 277q0 144 48 276t136 236q6 -4 14 -12q-85 -103 -131.5 -231.5t-46.5 -268.5q0 -285 180 -500zM467 432q-117 143 -117 328q0 183 115 327q3 -2 8 -7t8 -7q-110 -136 -110 -313q0 -182 110 -314zM541 498q-92 116 -92 262t92 262
q3 -2 8 -7t8 -7q-88 -109 -88 -248t88 -248q-3 -2 -8 -7t-8 -7zM647 592q-57 72 -57 168q0 97 57 166l15 -15q-52 -69 -52 -151q0 -84 54 -154q-3 -2 -8.5 -7t-8.5 -7zM715 655q-33 48 -33 105q0 56 33 104q3 -2 8 -7t8 -7q-29 -44 -29 -90t29 -90q-3 -2 -16 -15zM774 709
q-14 25 -14 51t14 51l12 -10q-10 -20 -10 -41t10 -41q-4 -4 -12 -10zM852 123q-236 0 -412 158l2.5 2.5l5 5l5.5 5.5t2 1q171 -152 397 -152q227 0 395 152q2 -3 7.5 -8t7.5 -8q-177 -156 -410 -156zM852 664q-31 0 -55 18l12 12q21 -14 43 -14q26 0 43 14q4 -4 10 -12
q-21 -18 -53 -18zM987 653q-7 10 -14 15q28 42 28 92q0 51 -28 90l2.5 2.5t5 4.5t5.5 5t1 2q35 -44 35 -104t-35 -107zM598 551q-72 91 -72 209q0 119 74 209l14 -15q-67 -87 -67 -194q0 -108 67 -195q-10 -10 -16 -14zM852 -35q-145 0 -278 52.5t-238 146.5l14 16
q102 -92 231 -143t271 -51q285 0 500 192q0 1 3.5 -2.5t6.5 -7.5l4 -4q-104 -95 -236 -147t-278 -52zM852 248q-189 0 -330 125l15 16q134 -121 315 -121q182 0 313 121q2 -3 7.5 -8t7.5 -8q-138 -125 -328 -125zM852 348q-145 0 -264 101l14 14q108 -94 250 -94
q143 0 248 94q2 -3 7 -8.5t7 -8.5q-112 -98 -262 -98zM852 428q-116 0 -211 78l14 16q86 -73 197 -73t197 73q4 -4 12 -16q-91 -78 -209 -78zM852 543q-77 0 -135 49l14 16q51 -45 121 -45q68 0 119 45q2 -3 7 -8t7 -8q-58 -49 -133 -49zM733 911q-4 3 -7 6.5t-6 6.5l-3 4
q58 49 135 49t135 -49l-16 -17q-51 45 -119 45t-119 -45zM1167 1130q-134 121 -315 121q-179 0 -313 -118l-15 14q141 125 328 125q189 0 330 -125q-4 -6 -15 -17zM930 709l-12 10q10 20 10 41t-10 41l12 10q14 -25 14 -51t-14 -51zM958 682q-10 10 -16 14q21 32 21 64
t-21 63l16 15q25 -36 25 -78t-25 -78zM1020 627q-6 4 -16 14q38 50 38 119t-38 119l14 14q45 -57 45 -133q0 -71 -43 -133zM1106 551q-3 2 -8 7t-8 7q67 87 67 195t-70 194l17 15q74 -90 74 -209q0 -118 -72 -209zM1163 498q-10 10 -16 14q88 109 88 248t-88 248l16 14
q92 -116 92 -262t-92 -262zM1237 432q-6 4 -16 14q112 134 112 314q0 182 -112 313l16 14q117 -139 117 -327q0 -189 -117 -328zM1329 350q-2 2 -7 6t-7 6q141 175 141 398q0 227 -143 395l16 14q148 -179 148 -409q0 -231 -148 -410zM1446 246q-6 6 -16 14q180 215 180 500
t-180 500l16 14q88 -105 136 -237t48 -277q0 -144 -48 -276t-136 -238zM375 348q-148 182 -148 412q0 229 146 409q2 -2 7.5 -6.5t8.5 -7.5q-141 -170 -141 -395q0 -228 141 -398zM684 627q-43 59 -43 133t43 133q6 -4 16 -14q-38 -50 -38 -119q0 -67 38 -117zM745 682
q-24 34 -24 78t24 78q2 -3 4.5 -5.5t6 -5.5t4.5 -4q-19 -34 -19 -63q0 -30 19 -64zM809 825l-10 13q21 18 53 18t53 -18l-10 -13q-23 15 -43 15q-25 0 -43 -15zM786 852l-14 14q37 29 80 29q41 0 78 -29q-8 -8 -12 -14q-28 25 -66 25q-34 0 -66 -25zM760 881l-15 16
q45 39 107 39q61 0 106 -39l-14 -16q-37 34 -92 34t-92 -34zM604 1057l-14 16q112 98 262 98q151 0 262 -100q1 0 -2 -3.5t-6 -7.5l-4 -3q-108 94 -250 94q-143 0 -248 -94zM852 492q-100 0 -170 61l14 16q70 -57 156 -57q87 0 154 57l14 -14q-73 -63 -168 -63zM852 584
q-61 0 -109 39l15 16q47 -35 94 -35q51 0 92 35l14 -16q-45 -39 -106 -39zM852 625q-43 0 -82 28l14 15q36 -25 68 -25q34 0 66 25l14 -15q-36 -28 -80 -28zM698 950l-14 15q73 63 168 63q98 0 168 -61l-14 -17q-68 58 -154 58q-87 0 -154 -58zM655 997l-14 17q91 78 211 78
q119 0 209 -80l-12 -15q-83 74 -197 74q-110 0 -197 -74zM1249 1223q-166 153 -397 153q-227 0 -397 -151l-15 14q179 158 412 158t412 -158zM352 1339l-14 17q104 95 236 146.5t278 51.5q145 0 278 -52t238 -146l-14 -17q-102 93 -231 144t-271 51t-270 -51t-230 -144z
M1057 594l-15 14q52 69 52 152t-54 153l17 15q57 -72 57 -168q0 -97 -57 -166z" />
    <glyph glyph-name="approxequal" unicode="&#x2248;" horiz-adv-x="925" 
d="M227 788l-125 91q76 192 209 192q58 0 153.5 -42t133.5 -42q30 0 52.5 22t49.5 72l123 -90q-39 -99 -89 -146.5t-120 -47.5q-59 0 -153 41t-133 41q-31 0 -54 -21.5t-47 -69.5zM227 360l-125 91q38 98 89 145t120 47q58 0 153.5 -42t133.5 -42q31 0 53 22.5t49 73.5
l123 -90q-39 -100 -88.5 -148t-120.5 -48q-59 0 -153 41t-133 41q-31 0 -54 -21t-47 -70z" />
    <glyph glyph-name="notequal" unicode="&#x2260;" horiz-adv-x="1015" 
d="M606 0v958h-239v-958h-207v958h-137v187h137v133q0 151 66 219t227 68q45 0 61 -2v-187h-47q-59 0 -79.5 -27t-20.5 -92v-112h239v133q0 150 73.5 218.5t242.5 68.5q64 0 82 -2v-187h-70q-73 -1 -97 -29t-24 -94v-108h191v-187h-191v-958h-207z" />
    <glyph glyph-name="lessequal" unicode="&#x2264;" horiz-adv-x="925" 
d="M725 311l-565 367v147l565 367v-211l-358 -229l358 -228v-213zM160 23v196h565v-196h-565z" />
    <glyph glyph-name="greaterequal" unicode="&#x2265;" horiz-adv-x="925" 
d="M203 311v213l358 228l-358 229v211l565 -367v-147zM203 23v196h565v-196h-565z" />
    <glyph glyph-name="lozenge" unicode="&#x25ca;" horiz-adv-x="1038" 
d="M23 958v187h137v133q0 151 66 219t227 68q45 0 61 -2v-187h-47q-59 0 -79.5 -27t-20.5 -92v-112h233l29 246l170 43v-289h190v-187h-190v-651q0 -67 19.5 -92t88.5 -25h82v-190q-31 -2 -108 -2q-89 0 -145 15t-88 52t-44 89.5t-12 136.5v667h-225v-958h-207v958h-137z
" />
    <glyph glyph-name="apple" unicode="&#xf8ff;" horiz-adv-x="1703" 
d="M258 246q-88 105 -136 237t-48 277q0 144 48 276t136 236q6 -4 14 -12q-85 -103 -131.5 -231.5t-46.5 -268.5q0 -285 180 -500zM467 432q-117 143 -117 328q0 183 115 327q3 -2 8 -7t8 -7q-110 -136 -110 -313q0 -182 110 -314zM541 498q-92 116 -92 262t92 262
q3 -2 8 -7t8 -7q-88 -109 -88 -248t88 -248q-3 -2 -8 -7t-8 -7zM647 592q-57 72 -57 168q0 97 57 166l15 -15q-52 -69 -52 -151q0 -84 54 -154q-3 -2 -8.5 -7t-8.5 -7zM715 655q-33 48 -33 105q0 56 33 104q3 -2 8 -7t8 -7q-29 -44 -29 -90t29 -90q-3 -2 -16 -15zM774 709
q-14 25 -14 51t14 51l12 -10q-10 -20 -10 -41t10 -41q-4 -4 -12 -10zM852 123q-236 0 -412 158l2.5 2.5l5 5l5.5 5.5t2 1q171 -152 397 -152q227 0 395 152q2 -3 7.5 -8t7.5 -8q-177 -156 -410 -156zM852 664q-31 0 -55 18l12 12q21 -14 43 -14q26 0 43 14q4 -4 10 -12
q-21 -18 -53 -18zM987 653q-7 10 -14 15q28 42 28 92q0 51 -28 90l2.5 2.5t5 4.5t5.5 5t1 2q35 -44 35 -104t-35 -107zM598 551q-72 91 -72 209q0 119 74 209l14 -15q-67 -87 -67 -194q0 -108 67 -195q-10 -10 -16 -14zM852 -35q-145 0 -278 52.5t-238 146.5l14 16
q102 -92 231 -143t271 -51q285 0 500 192q0 1 3.5 -2.5t6.5 -7.5l4 -4q-104 -95 -236 -147t-278 -52zM852 248q-189 0 -330 125l15 16q134 -121 315 -121q182 0 313 121q2 -3 7.5 -8t7.5 -8q-138 -125 -328 -125zM852 348q-145 0 -264 101l14 14q108 -94 250 -94
q143 0 248 94q2 -3 7 -8.5t7 -8.5q-112 -98 -262 -98zM852 428q-116 0 -211 78l14 16q86 -73 197 -73t197 73q4 -4 12 -16q-91 -78 -209 -78zM852 543q-77 0 -135 49l14 16q51 -45 121 -45q68 0 119 45q2 -3 7 -8t7 -8q-58 -49 -133 -49zM733 911q-4 3 -7 6.5t-6 6.5l-3 4
q58 49 135 49t135 -49l-16 -17q-51 45 -119 45t-119 -45zM1167 1130q-134 121 -315 121q-179 0 -313 -118l-15 14q141 125 328 125q189 0 330 -125q-4 -6 -15 -17zM930 709l-12 10q10 20 10 41t-10 41l12 10q14 -25 14 -51t-14 -51zM958 682q-10 10 -16 14q21 32 21 64
t-21 63l16 15q25 -36 25 -78t-25 -78zM1020 627q-6 4 -16 14q38 50 38 119t-38 119l14 14q45 -57 45 -133q0 -71 -43 -133zM1106 551q-3 2 -8 7t-8 7q67 87 67 195t-70 194l17 15q74 -90 74 -209q0 -118 -72 -209zM1163 498q-10 10 -16 14q88 109 88 248t-88 248l16 14
q92 -116 92 -262t-92 -262zM1237 432q-6 4 -16 14q112 134 112 314q0 182 -112 313l16 14q117 -139 117 -327q0 -189 -117 -328zM1329 350q-2 2 -7 6t-7 6q141 175 141 398q0 227 -143 395l16 14q148 -179 148 -409q0 -231 -148 -410zM1446 246q-6 6 -16 14q180 215 180 500
t-180 500l16 14q88 -105 136 -237t48 -277q0 -144 -48 -276t-136 -238zM375 348q-148 182 -148 412q0 229 146 409q2 -2 7.5 -6.5t8.5 -7.5q-141 -170 -141 -395q0 -228 141 -398zM684 627q-43 59 -43 133t43 133q6 -4 16 -14q-38 -50 -38 -119q0 -67 38 -117zM745 682
q-24 34 -24 78t24 78q2 -3 4.5 -5.5t6 -5.5t4.5 -4q-19 -34 -19 -63q0 -30 19 -64zM809 825l-10 13q21 18 53 18t53 -18l-10 -13q-23 15 -43 15q-25 0 -43 -15zM786 852l-14 14q37 29 80 29q41 0 78 -29q-8 -8 -12 -14q-28 25 -66 25q-34 0 -66 -25zM760 881l-15 16
q45 39 107 39q61 0 106 -39l-14 -16q-37 34 -92 34t-92 -34zM604 1057l-14 16q112 98 262 98q151 0 262 -100q1 0 -2 -3.5t-6 -7.5l-4 -3q-108 94 -250 94q-143 0 -248 -94zM852 492q-100 0 -170 61l14 16q70 -57 156 -57q87 0 154 57l14 -14q-73 -63 -168 -63zM852 584
q-61 0 -109 39l15 16q47 -35 94 -35q51 0 92 35l14 -16q-45 -39 -106 -39zM852 625q-43 0 -82 28l14 15q36 -25 68 -25q34 0 66 25l14 -15q-36 -28 -80 -28zM698 950l-14 15q73 63 168 63q98 0 168 -61l-14 -17q-68 58 -154 58q-87 0 -154 -58zM655 997l-14 17q91 78 211 78
q119 0 209 -80l-12 -15q-83 74 -197 74q-110 0 -197 -74zM1249 1223q-166 153 -397 153q-227 0 -397 -151l-15 14q179 158 412 158t412 -158zM352 1339l-14 17q104 95 236 146.5t278 51.5q145 0 278 -52t238 -146l-14 -17q-102 93 -231 144t-271 51t-270 -51t-230 -144z
M1057 594l-15 14q52 69 52 152t-54 153l17 15q57 -72 57 -168q0 -97 -57 -166z" />
    </font>
</defs>
</svg>
