<?xml version="1.0" standalone="no"?>
<!DOCTYPE svg PUBLIC "-//W3C//DTD SVG 1.1//EN" "http://www.w3.org/Graphics/SVG/1.1/DTD/svg11.dtd" >
<svg xmlns="http://www.w3.org/2000/svg" xmlns:xlink="http://www.w3.org/1999/xlink" version="1.1">
<metadata>
Created by FontForge 20201107 at Wed Dec 24 15:01:15 2025
 By 
Copyright (c) The Font Bureau, Inc., 2003. All rights reserved.
</metadata>
<defs>
<font id="Antenna-ExtraLightItalic" horiz-adv-x="1208" >
  <font-face 
    font-family="Antenna ExtraLightItalic"
    font-weight="200"
    font-style="italic"
    font-stretch="normal"
    units-per-em="2048"
    panose-1="2 0 5 3 0 0 0 2 0 4"
    ascent="1638"
    descent="-410"
    x-height="1120"
    cap-height="1518"
    bbox="-285 -444 2814 1933"
    underline-thickness="102"
    underline-position="-204"
    slope="-12"
    unicode-range="U+0020-FB02"
  />
<missing-glyph horiz-adv-x="493" 
 />
    <glyph glyph-name="fi" unicode="fi" horiz-adv-x="1157" 
d="M121 1026l20 94h213l35 164q16 75 41 128.5t67 94.5t106 61.5t151 20.5h96l-21 -94h-73q-67 0 -115 -16t-77.5 -48t-46 -69.5t-28.5 -91.5l-32 -150h293l-19 -94h-293l-288 -1364h-105l289 1364h-213zM717 0l237 1120h105l-240 -1120h-102zM989 1284l41 199h105l-41 -199
h-105z" />
    <glyph glyph-name="fl" unicode="fl" horiz-adv-x="1271" 
d="M121 1026l20 94h213l35 164q16 75 41 128.5t67 94.5t106 61.5t151 20.5h96l-21 -94h-73q-67 0 -115 -16t-77.5 -48t-46 -69.5t-28.5 -91.5l-32 -150h293l-19 -94h-293l-288 -1364h-105l289 1364h-213zM940 -2q-94 0 -137.5 31t-46 91t15.5 148l283 1321h102l-283 -1337
q-24 -88 -6 -123t105 -35h53l-18 -92q-28 -4 -68 -4z" />
    <glyph glyph-name="f_f_l" unicode="ffl" horiz-adv-x="1871" 
d="M643 -338l291 1364h-496l-288 -1364h-105l289 1364h-213l20 94h213l35 164q16 75 41 128.5t67 94.5t106 61.5t151 20.5h96l-21 -94h-73q-67 0 -115 -16t-77.5 -48t-46 -69.5t-28.5 -91.5l-32 -150h497l35 164q33 154 114 229.5t251 75.5h94l-18 -94h-74q-67 0 -114.5 -16
t-77 -48t-46 -69.5t-28.5 -91.5l-33 -150h293l-21 -94h-293l-288 -1364h-105zM1540 -2q-95 0 -138.5 31t-45.5 91t16 148l281 1321h104l-284 -1337q-23 -88 -4.5 -123t104.5 -35h53l-20 -92q-24 -4 -66 -4z" />
    <glyph glyph-name="f_f_i" unicode="ffi" horiz-adv-x="1757" 
d="M643 -338l291 1364h-496l-288 -1364h-105l289 1364h-213l20 94h213l35 164q16 75 41 128.5t67 94.5t106 61.5t151 20.5h96l-21 -94h-73q-67 0 -115 -16t-77.5 -48t-46 -69.5t-28.5 -91.5l-32 -150h497l35 164q33 154 114 229.5t251 75.5h94l-18 -94h-74q-67 0 -114.5 -16
t-77 -48t-46 -69.5t-28.5 -91.5l-33 -150h293l-21 -94h-293l-288 -1364h-105zM1315 0l237 1120h105l-238 -1120h-104zM1589 1284l41 199h105l-41 -199h-105z" />
    <glyph glyph-name="f_j" unicode="fj" horiz-adv-x="1157" 
d="M121 1026l20 94h213l35 164q16 75 41 128.5t67 94.5t106 61.5t151 20.5h96l-21 -94h-73q-67 0 -115 -16t-77.5 -48t-46 -69.5t-28.5 -91.5l-32 -150h293l-19 -94h-293l-288 -1364h-105l289 1364h-213zM473 -340l19 88h10q100 0 137 36.5t61 147.5l254 1188h105
l-256 -1200q-22 -105 -52.5 -158.5t-86 -77.5t-154.5 -24h-37zM989 1284l41 199h105l-41 -199h-105z" />
    <glyph glyph-name="f_f" unicode="ff" horiz-adv-x="1331" 
d="M643 -338l291 1364h-496l-288 -1364h-105l289 1364h-213l20 94h213l35 164q16 75 41 128.5t67 94.5t106 61.5t151 20.5h96l-21 -94h-73q-67 0 -115 -16t-77.5 -48t-46 -69.5t-28.5 -91.5l-32 -150h497l35 164q33 154 114 229.5t251 75.5h100l-18 -94h-80
q-67 0 -114.5 -16t-77 -48t-46 -69.5t-28.5 -91.5l-33 -150h299l-21 -94h-299l-288 -1364h-105z" />
    <glyph glyph-name=".notdef" horiz-adv-x="493" 
 />
    <glyph glyph-name=".null" horiz-adv-x="0" 
 />
    <glyph glyph-name="nonmarkingreturn" horiz-adv-x="682" 
 />
    <glyph glyph-name="space" unicode=" " horiz-adv-x="493" 
 />
    <glyph glyph-name="space" unicode="&#xa0;" horiz-adv-x="493" 
 />
    <glyph glyph-name="exclam" unicode="!" horiz-adv-x="706" 
d="M115 0l37 178h153l-37 -178h-153zM229 397l228 1121h116l-251 -1121h-93z" />
    <glyph glyph-name="quotedbl" unicode="&#x22;" horiz-adv-x="919" 
d="M264 973l107 545h106l-127 -545h-86zM657 973l107 545h106l-127 -545h-86z" />
    <glyph glyph-name="numbersign" unicode="#" horiz-adv-x="1456" 
d="M272 0l103 485h-291l20 97h291l80 368h-293l21 97h293l100 471h102l-102 -471h369l100 471h102l-100 -471h305l-20 -97h-305l-78 -368h303l-21 -97h-301l-104 -485h-103l103 485h-367l-104 -485h-103zM494 578h374l82 376h-377z" />
    <glyph glyph-name="dollar" unicode="$" horiz-adv-x="1304" 
d="M410 -193l41 199q-266 27 -424 182l63 74q146 -143 385 -166l141 670q-62 21 -105.5 40t-88.5 48t-72 62t-44 80.5t-17 105.5q0 137 61.5 232.5t165.5 140.5t242 45h14l27 127h100l-29 -134q207 -23 326 -124l-63 -78q-108 90 -287 108l-125 -585q68 -24 115 -44.5
t97 -52t79.5 -66.5t49 -85t19.5 -111q0 -156 -68 -265t-179.5 -159.5t-255.5 -50.5h-29l-41 -193h-98zM979 467q0 104 -67 161.5t-212 108.5l-135 -645h15q178 0 288.5 95.5t110.5 279.5zM393 1110q0 -51 17 -90t52 -67.5t75.5 -49t99.5 -41.5l121 563h-6q-167 0 -263 -81
t-96 -234z" />
    <glyph glyph-name="percent" unicode="%" horiz-adv-x="2103" 
d="M467 598q-170 0 -247 87.5t-77 238.5q0 121 29 230.5t83 197t139.5 139t191.5 51.5q170 0 247.5 -90t77.5 -242q0 -271 -123.5 -441.5t-320.5 -170.5zM473 686q102 0 180 68.5t119 186t41 265.5q0 246 -229 246q-85 0 -152.5 -45t-107.5 -120.5t-61 -167t-21 -191.5
q0 -242 231 -242zM1516 -23q-88 0 -152 24.5t-101.5 69.5t-55 103t-17.5 131q0 95 17.5 185t54.5 169t89 138t125 93t158 34q169 0 246.5 -91t77.5 -243q0 -270 -122.5 -441.5t-319.5 -171.5zM1520 66q155 0 247.5 147t92.5 375q0 246 -230 246q-84 0 -151 -45.5t-108 -121
t-62 -168t-21 -192.5q0 -241 232 -241zM451 0l1132 1518h100l-1132 -1518h-100z" />
    <glyph glyph-name="ampersand" unicode="&#x26;" horiz-adv-x="1576" 
d="M502 -23q-135 0 -231 23.5t-151.5 68.5t-80.5 104.5t-25 137.5q0 97 25.5 179t64.5 138.5t100.5 107t117.5 82.5t133 67q-19 111 -19 205q0 233 88 342.5t238 109.5q138 0 203 -61.5t65 -173.5q0 -57 -13 -107.5t-34 -90t-56.5 -76t-71 -63t-87 -55t-94 -48t-103.5 -44.5
q70 -284 226 -477q67 -81 108 -117q199 182 369 637l88 -30q-174 -465 -381 -664q74 -49 143 -62.5t166 -13.5h39l-18 -96h-29q-116 0 -205 21.5t-176 82.5q-175 -127 -399 -127zM508 70q177 0 317 96q-61 58 -114 127q-165 203 -238 500q-62 -30 -109 -58.5t-95.5 -70.5
t-79.5 -89t-50.5 -113t-19.5 -143q0 -57 18.5 -100.5t61.5 -78t120.5 -52.5t188.5 -18zM539 1094q0 -95 14 -183q72 31 118.5 54.5t100.5 59.5t85 72.5t52 89t21 113.5q0 150 -170 150q-105 0 -163 -86.5t-58 -269.5z" />
    <glyph glyph-name="quotesingle" unicode="'" horiz-adv-x="526" 
d="M264 973l107 547h106l-127 -547h-86z" />
    <glyph glyph-name="parenleft" unicode="(" horiz-adv-x="948" 
d="M442 -371q-109 114 -185.5 305.5t-76.5 427.5q0 164 41.5 329t110.5 302t158.5 258t183.5 209.5t188 145.5l62 -70q-90 -57 -178.5 -141t-172 -198.5t-147 -242.5t-101.5 -283t-38 -311q0 -217 69 -396t166 -279z" />
    <glyph glyph-name="parenright" unicode=")" horiz-adv-x="948" 
d="M23 -371l-62 68q90 57 178.5 141.5t172 198.5t147 242.5t101.5 283.5t38 311q0 216 -69.5 395t-166.5 281l80 56q109 -114 186 -306.5t77 -427.5q0 -164 -41.5 -329t-110.5 -301.5t-158.5 -258t-183.5 -209.5t-188 -145z" />
    <glyph glyph-name="asterisk" unicode="*" horiz-adv-x="1157" 
d="M586 569l-86 21l96 397l-391 -133l-27 86l393 117l-309 270l57 68l304 -283l73 406l88 -19l-96 -399l391 135l27 -86l-395 -121l313 -268l-59 -66l-301 279z" />
    <glyph glyph-name="plus" unicode="+" horiz-adv-x="1409" 
d="M541 248l92 426h-428l22 98h426l90 426h105l-90 -426h426l-23 -98h-426l-90 -426h-104z" />
    <glyph glyph-name="comma" unicode="," horiz-adv-x="456" 
d="M-41 -219l-22 59q64 31 92 64.5t41 95.5h-80l37 180h153l-33 -153q-21 -104 -60.5 -155t-127.5 -91z" />
    <glyph glyph-name="hyphen" unicode="-" horiz-adv-x="942" 
d="M74 567l20 97h711l-21 -97h-710z" />
    <glyph glyph-name="hyphen" unicode="&#xad;" horiz-adv-x="942" 
d="M74 567l20 97h711l-21 -97h-710z" />
    <glyph glyph-name="period" unicode="." horiz-adv-x="456" 
d="M-10 0l37 180h153l-37 -180h-153z" />
    <glyph glyph-name="slash" unicode="/" horiz-adv-x="962" 
d="M-164 0l1176 1518h112l-1175 -1518h-113z" />
    <glyph glyph-name="zero" unicode="0" horiz-adv-x="1425" 
d="M614 -23q-135 0 -230 32t-149.5 94t-79 143.5t-24.5 191.5q0 180 45 379q29 139 64.5 245.5t89 199t122 152.5t162.5 94t211 34q129 0 222 -34.5t146.5 -100t78 -149.5t24.5 -193q0 -151 -45 -363q-30 -138 -66 -244.5t-89 -199t-120 -153t-158.5 -94.5t-203.5 -34z
M618 74q95 0 171 31t130 84.5t98 138t73.5 176.5t56.5 215q43 201 43 342q0 87 -18.5 154t-59.5 120t-114.5 81t-176.5 28q-98 0 -176.5 -31t-134 -83.5t-100 -136t-74 -175.5t-55.5 -215q-43 -194 -43 -361q0 -181 85.5 -274.5t294.5 -93.5z" />
    <glyph glyph-name="one" unicode="1" horiz-adv-x="737" 
d="M215 0l303 1419h-301l23 99h403l-324 -1518h-104z" />
    <glyph glyph-name="two" unicode="2" horiz-adv-x="1130" 
d="M-82 0l19 90l614 541q201 176 227 200q122 115 163 208q36 81 36 190q0 105 -77 161t-251 56q-201 0 -354 -72l-39 88q180 80 399 80q224 0 326 -77t102 -222q0 -68 -10.5 -124.5t-35 -108t-56.5 -96t-82.5 -96t-104.5 -100.5t-131 -116q-24 -20 -36 -31l-545 -477h776
l-18 -94h-922z" />
    <glyph glyph-name="three" unicode="3" horiz-adv-x="1193" 
d="M477 -25q-177 0 -299 37.5t-250 118.5l62 80q117 -73 225 -106t262 -33q197 0 302.5 112.5t105.5 335.5q0 133 -81.5 199.5t-285.5 66.5h-166l19 95h239q198 0 290.5 80t92.5 268q0 110 -81.5 164.5t-262.5 54.5q-209 0 -375 -88l-45 84q185 98 433 98q226 0 332 -74
t106 -223q0 -361 -289 -418q178 -71 178 -307q0 -271 -133 -408t-379 -137z" />
    <glyph glyph-name="four" unicode="4" horiz-adv-x="1304" 
d="M45 408l18 88l904 1022h120l-901 -1018h607l133 526h78l-113 -526h278l-18 -92h-279l-86 -408h-100l86 408h-727z" />
    <glyph glyph-name="five" unicode="5" horiz-adv-x="1239" 
d="M510 -23q-173 0 -288 41t-222 113l61 80q98 -66 201 -102.5t254 -36.5q74 0 138 13.5t126 49.5t105.5 91.5t70.5 145.5t27 206q0 315 -377 315q-156 0 -327 -84l-84 27l186 682h811l-21 -95h-712l-140 -503q155 65 312 65q221 0 340 -94.5t119 -302.5
q0 -141 -32.5 -249.5t-86 -175.5t-130.5 -110t-157 -59.5t-174 -16.5z" />
    <glyph glyph-name="six" unicode="6" horiz-adv-x="1345" 
d="M614 -23q-256 0 -383 109t-127 332q0 97 29 239q35 166 74.5 287.5t96 221t126.5 163.5t167.5 108t218 62.5t278.5 18.5h71l-20 -95h-53q-159 0 -278.5 -22.5t-204.5 -65t-147 -113t-102 -155.5t-73 -205q61 71 173 113.5t257 42.5q122 0 211.5 -28.5t142.5 -82.5
t78 -123.5t25 -158.5q0 -194 -60 -337.5t-187.5 -227t-312.5 -83.5zM614 70q119 0 208 41t142 115.5t79 170.5t26 213q0 151 -88 233.5t-291 82.5q-78 0 -145 -15t-130 -51.5t-107.5 -93.5t-71.5 -147t-27 -205q0 -344 405 -344z" />
    <glyph glyph-name="seven" unicode="7" horiz-adv-x="1017" 
d="M86 0l928 1423h-821l20 95h938l-21 -86l-929 -1432h-115z" />
    <glyph glyph-name="eight" unicode="8" horiz-adv-x="1355" 
d="M580 -25q-264 0 -389 97t-125 272q0 224 102.5 347t282.5 157q-175 64 -175 270q0 424 498 424q479 0 479 -317q0 -350 -309 -402q205 -72 205 -321q0 -139 -44 -242.5t-123 -164.5t-179.5 -90.5t-222.5 -29.5zM588 68q95 0 173 22.5t143 70.5t101.5 134.5t36.5 204.5
q0 139 -100 215t-305 76q-100 0 -181.5 -23t-146.5 -72.5t-101 -136.5t-36 -205q0 -286 416 -286zM752 877q194 0 295.5 77.5t101.5 259.5q0 238 -375 238q-191 0 -293 -79.5t-102 -258.5q0 -237 373 -237z" />
    <glyph glyph-name="nine" unicode="9" horiz-adv-x="1345" 
d="M174 0l21 94h53q159 0 278.5 23t205 65.5t148 113.5t102.5 156t73 205q-60 -71 -172.5 -114t-259.5 -43q-237 0 -347 106t-110 289q0 144 35 261.5t103 204t176 134t247 47.5q255 0 381.5 -109.5t126.5 -332.5q0 -105 -27 -240q-36 -167 -75.5 -287.5t-95.5 -220.5
t-126 -164t-167.5 -107.5t-218 -62t-279.5 -18.5h-72zM649 590q78 0 145 15t130 51.5t107.5 93.5t71.5 147t27 205q0 344 -405 344q-119 0 -208 -41.5t-141.5 -116t-78 -170.5t-25.5 -213q0 -150 87 -232.5t290 -82.5z" />
    <glyph glyph-name="colon" unicode=":" horiz-adv-x="497" 
d="M10 0l37 178h154l-37 -178h-154zM211 944l35 176h153l-34 -176h-154z" />
    <glyph glyph-name="semicolon" unicode=";" horiz-adv-x="497" 
d="M-20 -219l-23 59q64 31 91.5 64.5t39.5 95.5h-78l37 178h154l-33 -151q-16 -80 -39.5 -124.5t-54.5 -68.5t-94 -53zM211 944l35 176h153l-34 -176h-154z" />
    <glyph glyph-name="less" unicode="&#x3c;" horiz-adv-x="1409" 
d="M999 207l-809 459l17 84l1003 456l-18 -102l-891 -399l719 -400z" />
    <glyph glyph-name="equal" unicode="=" horiz-adv-x="1409" 
d="M174 463l21 96h931l-20 -96h-932zM262 885l21 96h931l-18 -96h-934z" />
    <glyph glyph-name="greater" unicode="&#x3e;" horiz-adv-x="1409" 
d="M174 209l19 100l888 402l-716 399l20 96l809 -456l-16 -84z" />
    <glyph glyph-name="question" unicode="?" horiz-adv-x="1300" 
d="M471 389q15 83 27 134.5t30 103t39 82.5t54.5 63t76 55.5t103.5 49.5q80 34 127 57.5t88.5 52.5t61 61t30 74t10.5 101q0 50 -17 88t-57 70t-115 48.5t-184 16.5q-77 0 -183.5 -19.5t-207.5 -56.5l-37 92q106 41 228 60.5t213 19.5q134 0 227.5 -22.5t144.5 -65t73 -95
t22 -122.5q0 -71 -13 -125t-38.5 -96.5t-72 -79.5t-103 -67.5t-142.5 -67.5q-77 -32 -120 -60t-76 -76t-51 -108t-38 -168h-100zM369 0l37 170h153l-37 -170h-153z" />
    <glyph glyph-name="at" unicode="@" horiz-adv-x="2236" 
d="M1079 -338q-238 0 -415 62.5t-289 184t-166.5 294t-54.5 397.5q0 458 227.5 701t689.5 243q464 0 694 -243.5t230 -700.5q0 -293 -79.5 -412.5t-273.5 -119.5q-153 0 -229 43.5t-80 140.5q-66 -97 -161 -135.5t-238 -38.5q-193 0 -282 99t-89 276q0 113 17.5 212.5
t56.5 187t96.5 150.5t142 99.5t187.5 36.5q174 0 265 -50.5t126 -142.5l59 189l72 -5l-164 -780q-24 -110 33.5 -160.5t196.5 -50.5q151 0 208.5 102.5t57.5 358.5q0 423 -208.5 646.5t-637.5 223.5q-426 0 -633 -223.5t-207 -646.5q0 -418 208 -641t640 -223q332 0 576 121
l35 -64q-259 -131 -611 -131zM950 166q85 0 147 18t117 63t94.5 128.5t65.5 208.5q25 113 25 194q0 131 -76 200t-254 69q-104 0 -183.5 -46t-127 -127.5t-71 -185t-23.5 -225.5q0 -144 66.5 -220.5t219.5 -76.5z" />
    <glyph glyph-name="A" unicode="A" horiz-adv-x="1402" 
d="M-104 0l913 1528h104l261 -1528h-105l-65 385h-764l-230 -385h-114zM295 483h694l-155 906z" />
    <glyph glyph-name="B" unicode="B" horiz-adv-x="1376" 
d="M25 0l321 1518h488q116 0 204 -14.5t145 -40.5t93 -64.5t50.5 -83.5t14.5 -101q0 -184 -77 -293.5t-234 -132.5q195 -63 195 -294q0 -259 -136.5 -376.5t-390.5 -117.5h-673zM150 98h561q405 0 405 396q0 251 -362 251h-465zM309 844h568q187 0 270.5 91.5t83.5 260.5
q0 52 -19 90.5t-63 69.5t-124 47t-194 16h-399z" />
    <glyph glyph-name="C" unicode="C" horiz-adv-x="1415" 
d="M696 -23q-309 0 -466.5 155.5t-157.5 436.5q0 127 26 260q152 713 815 713q340 0 523 -203l-86 -69q-158 172 -439 172q-274 0 -457 -153t-251 -476q-23 -115 -23 -235q0 -238 133 -369t392 -131q262 0 425 129l68 -80q-188 -150 -502 -150z" />
    <glyph glyph-name="D" unicode="D" horiz-adv-x="1492" 
d="M25 0l323 1518h336q395 0 566 -124t171 -397q0 -144 -39 -313q-26 -121 -61.5 -217t-78 -167.5t-98 -123.5t-116 -86t-137 -54t-155.5 -28t-177 -8h-534zM152 98h409q124 0 215.5 15.5t174.5 55t142.5 107t106 173t78.5 251.5q35 161 35 287q0 225 -145 327.5t-484 102.5
h-250z" />
    <glyph glyph-name="E" unicode="E" horiz-adv-x="1239" 
d="M25 0l323 1518h924l-23 -101h-815l-125 -573h797l-21 -101h-794l-139 -645h825l-21 -98h-931z" />
    <glyph glyph-name="F" unicode="F" horiz-adv-x="1157" 
d="M25 0l323 1518h897l-22 -101h-791l-125 -579h772l-20 -101h-772l-156 -737h-106z" />
    <glyph glyph-name="G" unicode="G" horiz-adv-x="1542" 
d="M717 -23q-321 0 -483 153t-162 437q0 144 26 264q148 711 803 711q377 0 553 -205l-86 -71q-158 176 -471 176q-562 0 -694 -627q-25 -114 -25 -240q0 -241 136 -371t407 -130q102 0 179 14.5t135.5 48t99.5 77.5t73 115t53.5 147t43.5 186l10 45h-512l20 100h621
l-29 -145q-27 -129 -53.5 -219.5t-65.5 -172t-88 -133t-119 -89.5t-161 -54.5t-211 -16.5z" />
    <glyph glyph-name="H" unicode="H" horiz-adv-x="1527" 
d="M25 0l323 1518h107l-146 -670h942l146 670h106l-323 -1518h-107l158 743h-942l-158 -743h-106z" />
    <glyph glyph-name="I" unicode="I" horiz-adv-x="505" 
d="M37 0l323 1518h107l-324 -1518h-106z" />
    <glyph glyph-name="J" unicode="J" horiz-adv-x="743" 
d="M-96 0l20 98h123q142 0 221.5 67.5t112.5 225.5l240 1127h108l-246 -1143q-22 -107 -60 -181t-93.5 -116.5t-122 -61t-152.5 -18.5q-98 0 -151 2z" />
    <glyph glyph-name="K" unicode="K" horiz-adv-x="1366" 
d="M1006 0l-367 862l-403 -362l-107 -500h-104l323 1518h105l-187 -869l967 869h135l-647 -584l397 -934h-112z" />
    <glyph glyph-name="L" unicode="L" horiz-adv-x="1142" 
d="M25 0l323 1518h107l-303 -1420h786l-20 -98h-893z" />
    <glyph glyph-name="M" unicode="M" horiz-adv-x="1792" 
d="M25 0l323 1518h135l279 -1362l854 1362h149l-323 -1518h-105l291 1362l-856 -1362h-86l-276 1348l-289 -1348h-96z" />
    <glyph glyph-name="N" unicode="N" horiz-adv-x="1525" 
d="M25 0l323 1518h117l645 -1346l289 1346h100l-323 -1518h-95l-663 1374l-293 -1374h-100z" />
    <glyph glyph-name="O" unicode="O" horiz-adv-x="1660" 
d="M741 -25q-328 0 -498.5 158.5t-170.5 446.5q0 113 28 256q150 706 818 706q332 0 502.5 -157.5t170.5 -446.5q0 -128 -28 -254q-34 -156 -93 -277.5t-134 -202t-171 -132.5t-199.5 -74.5t-224.5 -22.5zM743 76q582 0 713 620q25 125 25 232q0 243 -142 378.5t-424 135.5
q-275 0 -458.5 -151.5t-251.5 -471.5q-25 -122 -25 -233q0 -241 141.5 -375.5t421.5 -134.5z" />
    <glyph glyph-name="P" unicode="P" horiz-adv-x="1372" 
d="M25 0l323 1518h529q254 0 369.5 -85.5t115.5 -252.5q0 -261 -133.5 -407t-384.5 -146h-580l-133 -627h-106zM285 725h557q198 0 304.5 112.5t106.5 327.5q0 129 -92.5 191.5t-294.5 62.5h-432z" />
    <glyph glyph-name="Q" unicode="Q" horiz-adv-x="1660" 
d="M741 -20q-10 0 -29.5 1t-29.5 1q-39 -143 1.5 -195.5t199.5 -52.5h121l-19 -94q-10 -2 -113 -2q-220 0 -283 78t-9 276q-251 35 -379.5 186.5t-128.5 401.5q0 113 28 256q150 706 818 706q332 0 502.5 -157.5t170.5 -446.5q0 -128 -28 -254q-34 -156 -93 -277t-134 -201
t-171 -131t-199.5 -73t-224.5 -22zM743 76q582 0 713 620q25 125 25 232q0 243 -142 378.5t-424 135.5q-275 0 -458.5 -151.5t-251.5 -471.5q-25 -122 -25 -233q0 -241 141.5 -375.5t421.5 -134.5z" />
    <glyph glyph-name="R" unicode="R" horiz-adv-x="1396" 
d="M967 0l-250 657h-447l-139 -657h-106l323 1518h502q259 0 381.5 -90t122.5 -252q0 -256 -135 -387.5t-369 -131.5h-21l250 -657h-112zM291 756h557q89 0 159.5 23t124 70t82.5 126t29 186q0 258 -399 258h-410z" />
    <glyph glyph-name="S" unicode="S" horiz-adv-x="1374" 
d="M594 -20q-203 0 -348.5 45.5t-282.5 144.5l68 80q123 -91 255 -131.5t312 -40.5q72 0 135 9t125.5 32.5t106.5 61t71 98t27 139.5q0 32 -5.5 59.5t-14 49t-25.5 41.5t-32 34.5t-42.5 30t-47.5 25t-57 23t-61 21.5t-68 22q-35 11 -53 17q-181 58 -248 93q-132 69 -165 184
q-13 46 -13 102q0 94 29.5 168t78 121t116 77.5t139 43t151.5 12.5q194 0 319.5 -41t217.5 -112l-70 -82q-173 137 -469 137q-64 0 -120 -9.5t-109 -32.5t-91 -58.5t-60.5 -91t-22.5 -126.5q0 -52 19.5 -93t43 -66t80 -52t91.5 -39.5t117 -38.5l9 -3q110 -34 166.5 -54.5
t126 -55.5t101.5 -71.5t54.5 -92t22.5 -128.5q0 -102 -32.5 -181.5t-86.5 -130t-130.5 -82.5t-156 -45t-171.5 -13z" />
    <glyph glyph-name="T" unicode="T" horiz-adv-x="1357" 
d="M465 0l301 1417h-563l22 101h1231l-22 -101h-562l-301 -1417h-106z" />
    <glyph glyph-name="U" unicode="U" horiz-adv-x="1529" 
d="M674 -25q-559 0 -559 416q0 83 24 191l199 936h108l-202 -940q-23 -117 -23 -172q0 -76 23 -134t75 -103.5t143 -69t220 -23.5q228 0 348.5 112.5t167.5 329.5l213 1000h105l-220 -1020q-26 -121 -69 -211t-114.5 -163t-181.5 -111t-257 -38z" />
    <glyph glyph-name="V" unicode="V" horiz-adv-x="1402" 
d="M487 -10l-262 1528h107l233 -1383l821 1383h115l-911 -1528h-103z" />
    <glyph glyph-name="W" unicode="W" horiz-adv-x="2179" 
d="M395 -10l-151 1528h106l131 -1338l721 1338h96l148 -1338l704 1338h107l-801 -1528h-90l-152 1356l-731 -1356h-88z" />
    <glyph glyph-name="X" unicode="X" horiz-adv-x="1366" 
d="M1001 0l-329 713l-629 -713h-121l709 799l-332 719h107l299 -648l569 648h121l-652 -734l365 -784h-107z" />
    <glyph glyph-name="Y" unicode="Y" horiz-adv-x="1355" 
d="M459 0l131 614l-391 904h110l355 -805l688 805h121l-777 -910l-129 -608h-108z" />
    <glyph glyph-name="Z" unicode="Z" horiz-adv-x="1304" 
d="M-63 0l20 88l1221 1329h-904l23 101h1038l-18 -93l-1221 -1327h959l-21 -98h-1097z" />
    <glyph glyph-name="bracketleft" unicode="[" horiz-adv-x="913" 
d="M29 -338l409 1927h436l-20 -94h-332l-370 -1741h337l-18 -92h-442z" />
    <glyph glyph-name="backslash" unicode="\" horiz-adv-x="962" 
d="M694 0l-528 1518h98l529 -1518h-99z" />
    <glyph glyph-name="bracketright" unicode="]" horiz-adv-x="913" 
d="M-20 -338l18 92h334l370 1741h-337l20 94h442l-409 -1927h-438z" />
    <glyph glyph-name="asciicircum" unicode="^" 
d="M350 1264l357 301h124l230 -301h-109l-194 233l-295 -233h-113z" />
    <glyph glyph-name="underscore" unicode="_" horiz-adv-x="927" 
d="M-285 -223l19 88h1079l-16 -88h-1082z" />
    <glyph glyph-name="grave" unicode="`" 
d="M745 1243l-274 301h123l250 -301h-99z" />
    <glyph glyph-name="a" unicode="a" horiz-adv-x="1216" 
d="M360 -23q-103 0 -175 20.5t-112 59t-57.5 87.5t-17.5 114q0 95 20 166t63.5 121.5t102 83t146 51t184 26t227.5 7.5h144q18 106 18 164q0 92 -63 133t-226 41q-80 0 -171 -23.5t-148 -56.5l-45 86q65 38 170.5 64t206.5 26q86 0 149.5 -10t107.5 -28t70.5 -49.5t39.5 -67
t13.5 -89t-7 -107t-23.5 -128.5l-92 -426q-8 -36 -11 -56.5t-2.5 -39.5t6 -27.5t19 -15.5t32 -8.5t48.5 -0.5l-19 -92q-4 -4 -43 -4q-83 0 -116.5 36t-28.5 113q-130 -170 -410 -170zM379 70q198 0 304.5 102.5t152.5 310.5l28 133h-133q-103 0 -177 -3.5t-143.5 -13
t-116 -26t-85.5 -42.5t-61 -63.5t-34 -87t-12 -114.5q0 -95 63 -145.5t214 -50.5z" />
    <glyph glyph-name="b" unicode="b" horiz-adv-x="1263" 
d="M580 -18q-198 0 -301.5 56t-126.5 173l-68 -215l-80 6l338 1587h102l-131 -604q66 91 162.5 126.5t245.5 35.5q223 0 320.5 -104.5t97.5 -297.5q0 -106 -31 -239q-24 -107 -53.5 -186.5t-72.5 -145.5t-98.5 -107t-131.5 -63t-172 -22zM569 78q185 0 285 103.5t152 336.5
q26 127 26 215q0 153 -78 234.5t-256 81.5q-100 0 -168 -18t-127 -66.5t-99.5 -137t-70.5 -227.5q-26 -133 -26 -217q0 -161 85.5 -233t276.5 -72z" />
    <glyph glyph-name="c" unicode="c" horiz-adv-x="1097" 
d="M475 -23q-434 0 -434 406q0 108 27 231q58 275 192.5 404t374.5 129q68 0 126 -11t98 -27.5t74.5 -41t55.5 -46t41 -48.5l-86 -66q-18 22 -31.5 37t-42 37t-59 35t-78.5 23t-104 10q-190 0 -299 -107.5t-160 -345.5q-23 -115 -23 -205q0 -153 78.5 -235t253.5 -82
q92 0 163.5 21.5t145.5 76.5l60 -74q-89 -66 -177 -93.5t-196 -27.5z" />
    <glyph glyph-name="d" unicode="d" horiz-adv-x="1263" 
d="M459 -18q-222 0 -320 104.5t-98 296.5q0 107 31 240q31 135 70.5 228t101 162t149.5 101.5t209 32.5q198 0 299.5 -56t124.5 -176l145 674h105l-338 -1585l-82 -6l25 152q-66 -93 -167 -130.5t-255 -37.5zM483 78q79 0 136.5 11t110 39.5t91 79t70 129t55.5 189.5
q27 120 27 215q0 163 -85.5 235.5t-277.5 72.5q-184 0 -283 -104t-151 -339q-26 -113 -26 -213q0 -153 77 -234t256 -81z" />
    <glyph glyph-name="e" unicode="e" horiz-adv-x="1157" 
d="M475 -23q-98 0 -174 20.5t-124.5 55.5t-79.5 86t-43.5 108.5t-12.5 127.5q0 101 27 239q27 129 70 224t109 166t161 107t219 36q94 0 165 -15.5t116 -42.5t72.5 -67t38.5 -85t11 -101q0 -123 -39 -293h-835q-15 -83 -15 -162q0 -69 17 -123t54.5 -97t105.5 -66t163 -23
q208 0 357 88l45 -80q-89 -56 -185.5 -79.5t-222.5 -23.5zM618 1053q-185 0 -288.5 -104t-155.5 -310h733q23 127 23 186q0 109 -69 168.5t-243 59.5z" />
    <glyph glyph-name="f" unicode="f" horiz-adv-x="731" 
d="M121 1026l20 94h213l35 164q16 75 41 128.5t67 94.5t106 61.5t151 20.5h102l-20 -94h-80q-67 0 -115 -16t-77.5 -48t-46 -69.5t-28.5 -91.5l-32 -150h299l-21 -94h-297l-288 -1364h-105l289 1364h-213z" />
    <glyph glyph-name="g" unicode="g" horiz-adv-x="1150" 
d="M537 410q-163 0 -256 41q-54 -51 -54 -113q0 -42 28 -64t110 -22q115 0 196.5 -6t156 -22.5t119.5 -45.5t71 -76.5t26 -113.5q0 -199 -140.5 -278.5t-424.5 -76.5q-488 0 -488 277q0 261 295 313q-47 34 -47 113q0 93 76 162q-78 72 -78 211q0 438 459 438q85 0 141 -10
l373 30l-17 -92h-204q110 -76 110 -241q0 -212 -115.5 -318t-336.5 -106zM379 -279q90 -1 157 5.5t124 24t92.5 46.5t55 74.5t19.5 108.5q0 47 -20.5 79.5t-56.5 52.5t-98.5 31.5t-131.5 15t-170 3.5q-108 0 -181.5 -18.5t-111 -53.5t-52.5 -76t-15 -96q0 -98 99.5 -147.5
t289.5 -49.5zM539 502q169 0 258.5 83t89.5 249q0 109 -72.5 163t-232.5 54q-353 0 -353 -338q0 -105 71 -158t239 -53z" />
    <glyph glyph-name="h" unicode="h" horiz-adv-x="1202" 
d="M4 0l338 1589h104l-129 -600q120 158 365 158q89 0 155 -14t108 -35.5t66 -60.5t34 -75t7 -94.5t-10 -103t-22 -115.5l-139 -649h-105l137 641q33 155 31 216q-3 121 -108 163q-67 27 -181 27q-79 0 -142.5 -21.5t-105.5 -56.5t-75 -88.5t-52 -109t-34 -126.5l-137 -645
h-105z" />
    <glyph glyph-name="i" unicode="i" horiz-adv-x="452" 
d="M12 0l238 1120h102l-235 -1120h-105zM285 1284l43 199h104l-43 -199h-104z" />
    <glyph glyph-name="j" unicode="j" horiz-adv-x="452" 
d="M-233 -340l20 88h8q70 0 108 17.5t57.5 54t37.5 112.5l252 1188h102l-254 -1200q-22 -105 -52.5 -158.5t-86 -77.5t-154.5 -24h-38zM285 1284l43 199h104l-43 -199h-104z" />
    <glyph glyph-name="k" unicode="k" horiz-adv-x="1030" 
d="M4 0l338 1589h102l-237 -1118l684 649h121l-498 -473l305 -647h-108l-273 575l-264 -251l-68 -324h-102z" />
    <glyph glyph-name="l" unicode="l" horiz-adv-x="567" 
d="M236 -2q-94 0 -137.5 31t-45.5 91t17 148l280 1321h105l-285 -1337q-25 -88 -6.5 -123t106.5 -35h52l-19 -92q-28 -4 -67 -4z" />
    <glyph glyph-name="m" unicode="m" horiz-adv-x="1949" 
d="M4 0l236 1116l84 4l-21 -135q121 162 373 162q164 0 249.5 -43t102.5 -148q119 191 408 191q89 0 154 -14t106 -35t64 -61t32.5 -75t5 -94.5t-12 -103t-22.5 -115.5l-137 -649h-104l137 641q33 154 33 212q-1 122 -99 165q-67 29 -184 29q-79 0 -141.5 -21t-104.5 -55
t-73.5 -88t-50.5 -109t-35 -129l-138 -645h-102l135 641q32 153 33 208q1 122 -92 166q-67 32 -191 32q-79 0 -141.5 -21.5t-104 -56t-73.5 -89t-50.5 -109t-33.5 -126.5l-137 -645h-105z" />
    <glyph glyph-name="n" unicode="n" horiz-adv-x="1202" 
d="M4 0l236 1116l84 4l-21 -135q121 162 379 162q89 0 155 -14t108 -35.5t66 -60.5t34 -75t7 -94.5t-10 -103t-22 -115.5l-139 -649h-105l137 641q31 153 30 211q-1 122 -100 165q-68 30 -188 30q-79 0 -142.5 -21.5t-105.5 -56.5t-75 -88.5t-52 -109t-34 -126.5l-137 -645
h-105z" />
    <glyph glyph-name="o" unicode="o" horiz-adv-x="1232" 
d="M500 -23q-236 0 -347.5 108.5t-111.5 307.5q0 86 27 221q60 284 200 408.5t375 124.5q463 0 463 -418q0 -87 -27 -219q-60 -283 -202 -408t-377 -125zM504 74q193 0 307 106.5t166 341.5q22 110 22 197q0 330 -360 330q-192 0 -305 -108t-164 -345q-23 -98 -23 -199
q0 -323 357 -323z" />
    <glyph glyph-name="p" unicode="p" horiz-adv-x="1263" 
d="M-70 -338l310 1454l84 4l-23 -137q66 92 165.5 128t254.5 36q223 0 320.5 -104.5t97.5 -297.5q0 -106 -31 -239q-24 -107 -53.5 -186.5t-72.5 -145.5t-98.5 -107t-131.5 -63t-172 -22q-199 0 -301 55.5t-125 175.5l-119 -551h-105zM569 78q185 0 285 103.5t152 336.5
q26 127 26 215q0 153 -78 234.5t-256 81.5q-100 0 -168 -18t-127 -66.5t-99.5 -137t-70.5 -227.5q-26 -133 -26 -217q0 -161 85.5 -233t276.5 -72z" />
    <glyph glyph-name="q" unicode="q" horiz-adv-x="1263" 
d="M760 -338l100 471q-69 -85 -163 -118t-238 -33q-222 0 -320 104.5t-98 296.5q0 107 31 240q31 135 70.5 228t101 162t149.5 101.5t209 32.5q196 0 297 -54t129 -173l72 223l78 -6l-314 -1475h-104zM483 78q79 0 136.5 11t110 39.5t91 79t70 129t55.5 189.5q27 120 27 215
q0 163 -85.5 235.5t-277.5 72.5q-184 0 -283 -104t-151 -339q-26 -113 -26 -213q0 -153 77 -234t256 -81z" />
    <glyph glyph-name="r" unicode="r" horiz-adv-x="669" 
d="M4 0l236 1116l84 4l-29 -174q110 189 399 189l-18 -95q-101 0 -176.5 -29.5t-125.5 -86.5t-81 -127t-51 -164l-136 -633h-102z" />
    <glyph glyph-name="s" unicode="s" horiz-adv-x="997" 
d="M416 -23q-286 0 -475 156l67 74q167 -135 414 -135q295 0 295 254q0 27 -8.5 50.5t-20 41t-34.5 34.5t-40.5 27t-51.5 24t-53 20.5t-58 19.5q-44 14 -67 22t-62.5 24t-61.5 29.5t-49.5 35.5t-42 46t-25 56.5t-10.5 70.5q0 159 106 239.5t283 80.5q250 0 410 -117l-66 -80
q-140 101 -350 101q-128 0 -202 -54t-74 -161q0 -34 16 -63.5t37 -48.5t61 -38.5t68 -29.5t78 -27q58 -18 96 -33t85 -40.5t74.5 -54t46.5 -71.5t19 -96q0 -81 -22 -144t-59.5 -102.5t-90.5 -65t-109.5 -35.5t-123.5 -10z" />
    <glyph glyph-name="t" unicode="t" horiz-adv-x="768" 
d="M121 1026l20 94h209l96 361l86 12l-79 -373h286l-18 -94h-289l-160 -750q-12 -56 -11 -96.5t37.5 -63t115.5 -22.5h108l-20 -94q-8 -2 -111 -2q-74 0 -123 15t-74 38.5t-33 63.5t-4.5 78.5t15.5 95.5l156 737h-207z" />
    <glyph glyph-name="u" unicode="u" horiz-adv-x="1189" 
d="M504 -23q-79 0 -143 9t-110 24t-79 40t-54 51t-32 63.5t-14.5 70.5t0 79t9.5 83t17 88l135 635h105l-137 -647q-10 -45 -15 -74t-9.5 -67.5t-2 -63.5t10 -54.5t23.5 -48t41.5 -38t62 -30t86 -17t112.5 -6.5q40 0 74.5 3.5t62 13t50 18.5t41 27t31.5 32t25.5 40.5t20 44
t16.5 51.5t13.5 55t13.5 61l150 700h100l-150 -710q-15 -68 -26 -111t-30 -94t-40 -81.5t-54 -61.5t-75 -47.5t-99.5 -27t-129.5 -10.5z" />
    <glyph glyph-name="v" unicode="v" horiz-adv-x="1028" 
d="M297 -10l-188 1130h102l162 -1001l585 1001h113l-668 -1130h-106z" />
    <glyph glyph-name="w" unicode="w" horiz-adv-x="1726" 
d="M268 -10l-155 1130h104l133 -966l533 966h106l123 -966l545 966h106l-633 -1130h-98l-127 983l-540 -983h-97z" />
    <glyph glyph-name="x" unicode="x" horiz-adv-x="1030" 
d="M705 0l-248 510l-457 -510h-119l537 592l-254 528h104l221 -461l414 461h117l-490 -542l279 -578h-104z" />
    <glyph glyph-name="y" unicode="y" horiz-adv-x="1011" 
d="M37 -340h-111l19 88h88q68 0 100.5 25.5t81.5 107.5l76 127l-182 1112h104l158 -985l571 985h111l-750 -1270q-64 -111 -118 -150.5t-148 -39.5z" />
    <glyph glyph-name="z" unicode="z" horiz-adv-x="962" 
d="M-88 0l18 84l863 942h-625l18 94h758l-18 -84l-863 -944h687l-19 -92h-819z" />
    <glyph glyph-name="braceleft" unicode="{" horiz-adv-x="989" 
d="M426 -338q-156 0 -224.5 42.5t-68.5 133.5q0 58 38.5 160t84.5 193.5t84.5 180t38.5 122.5q0 52 -50.5 69t-191.5 17l21 92q73 0 115.5 3.5t80.5 15t56.5 34.5t28.5 59.5t10 92.5q0 48 -7.5 168t-7.5 176q0 191 88.5 279.5t290.5 88.5h143l-20 -94h-107
q-165 0 -227.5 -66.5t-62.5 -218.5q0 -47 6 -166t6 -172q0 -109 -32.5 -165.5t-108.5 -81.5q42 -18 58.5 -45t16.5 -72q0 -41 -37.5 -132t-83 -181t-83 -186.5t-37.5 -145.5q0 -56 46 -82.5t152 -26.5h123l-18 -92h-121z" />
    <glyph glyph-name="bar" unicode="|" horiz-adv-x="628" 
d="M254 -338v1927h104v-1927h-104z" />
    <glyph glyph-name="braceright" unicode="}" horiz-adv-x="989" 
d="M-25 -338l19 92h106q165 0 228 67.5t63 219.5q0 48 -6 167.5t-6 172.5q0 109 32.5 165t108.5 83q-41 17 -58.5 43.5t-17.5 72.5q0 50 60.5 180t121 265t60.5 196q0 56 -46.5 82.5t-152.5 26.5h-122l20 94h121q156 0 223.5 -42.5t67.5 -133.5q0 -57 -38.5 -159
t-84.5 -193.5t-84.5 -179.5t-38.5 -121q0 -52 50.5 -69t191.5 -17l-19 -92q-60 0 -99 -2.5t-75 -10t-56 -21t-35.5 -36.5t-21.5 -55.5t-6 -79.5q0 -49 7.5 -169t7.5 -177q0 -191 -88.5 -280t-290.5 -89h-142z" />
    <glyph glyph-name="asciitilde" unicode="~" 
d="M868 905q-43 0 -82.5 15t-65.5 33t-60.5 33t-67.5 15q-44 0 -81.5 -24.5t-78.5 -67.5l-61 58q106 123 223 123q43 0 83.5 -15t66.5 -32.5t60.5 -32.5t67.5 -15q37 0 71 25t81 80l61 -58q-62 -70 -112 -103.5t-105 -33.5z" />
    <glyph glyph-name="exclamdown" unicode="&#xa1;" horiz-adv-x="706" 
d="M133 0l250 1120h92l-225 -1120h-117zM401 1339l37 179h154l-37 -179h-154z" />
    <glyph glyph-name="cent" unicode="&#xa2;" horiz-adv-x="1083" 
d="M356 -193l39 177q-352 37 -352 399q0 108 27 231q58 275 192.5 404t374.5 129h4l29 121h100l-29 -129q188 -27 291 -166l-86 -66q-20 25 -35 39.5t-43 37t-66.5 37t-86.5 21.5l-207 -968q79 2 145.5 24t137.5 74l59 -74q-86 -63 -170 -89.5t-186 -28.5l-35 -173h-103z
M150 391q0 -139 63.5 -220t206.5 -95l207 973q-188 -2 -296 -109t-159 -344q-22 -110 -22 -205z" />
    <glyph glyph-name="sterling" unicode="&#xa3;" horiz-adv-x="1173" 
d="M662 -18q-216 0 -383 106q-105 -91 -332 -88l10 92q75 0 130.5 11.5t90.5 30t58.5 50t35.5 63.5t21 79q15 75 17 197t-3 222h-227l18 91h205v100q0 608 438 608q239 0 396 -94l-58 -86q-53 33 -141.5 57.5t-200.5 24.5q-334 0 -334 -518v-92h461l-18 -91h-438
q5 -99 2.5 -222t-19.5 -204q-20 -97 -53 -157q153 -84 321 -84q117 0 160.5 42t69.5 181l8 43h96l-12 -59q-18 -90 -40 -144.5t-59 -92t-88.5 -52t-131.5 -14.5z" />
    <glyph glyph-name="currency" unicode="&#xa4;" horiz-adv-x="1282" 
d="M113 879l18 88h201q36 124 89 225.5t125 181t169 124t209 44.5q228 0 364 -90l-61 -84q-118 78 -303 78q-92 0 -171.5 -37t-139 -103.5t-103.5 -150.5t-76 -188h557l-16 -88h-563q-26 -115 -37 -209h553l-17 -88h-544q-5 -59 -5 -140q0 -180 80.5 -274t262.5 -94
q142 0 249 59l47 -82q-137 -76 -305 -76q-230 0 -333 119.5t-103 345.5q0 48 4 142h-215l19 88h204q9 79 35 209h-194z" />
    <glyph glyph-name="yen" unicode="&#xa5;" horiz-adv-x="1204" 
d="M72 494l16 88h422l16 71l-327 865h108l289 -773l618 773h115l-700 -871l-15 -65h424l-18 -88h-424l-45 -209h422l-17 -90h-426l-41 -195h-102l41 195h-420l19 90h422l43 209h-420z" />
    <glyph glyph-name="brokenbar" unicode="&#xa6;" horiz-adv-x="630" 
d="M254 -338v803h104v-803h-104zM254 786v803h104v-803h-104z" />
    <glyph glyph-name="section" unicode="&#xa7;" horiz-adv-x="1077" 
d="M563 485h-18l-39 -182q-12 -61 -26 -104t-41 -87.5t-63 -71t-93.5 -43.5t-132.5 -17h-132l17 92h108q58 0 100 12t67.5 29.5t44.5 52t28 66t20 83.5l37 174q-340 33 -340 252q0 76 24 132.5t62.5 89.5t95.5 53t112.5 26.5t125.5 6.5h2l35 165q9 43 18.5 75.5t24 68
t32.5 61t44.5 49t59.5 38.5t78 23.5t99 8.5q126 0 134 -2l-21 -92h-106q-58 0 -100 -12t-68 -30.5t-44.5 -52.5t-28 -64.5t-20.5 -80.5l-34 -160q354 -29 354 -251q0 -64 -16.5 -114t-47 -82.5t-68.5 -55.5t-87.5 -34.5t-95.5 -16.5t-101 -5zM565 563q54 0 96 4.5t86 19
t72.5 38.5t47 65.5t18.5 97.5q0 179 -367 179q-57 0 -99.5 -4t-87 -18t-72.5 -37.5t-46 -64.5t-18 -98q0 -182 370 -182z" />
    <glyph glyph-name="dieresis" unicode="&#xa8;" 
d="M465 1243l39 184h98l-39 -184h-98zM850 1243l39 184h98l-39 -184h-98z" />
    <glyph glyph-name="copyright" unicode="&#xa9;" horiz-adv-x="1718" 
d="M881 229q-244 0 -375 137t-131 402q0 263 135 399t373 136q98 0 191 -32t159 -91l-55 -60q-56 50 -135.5 77.5t-159.5 27.5q-201 0 -312.5 -116.5t-111.5 -340.5q0 -226 110 -342.5t314 -116.5q188 0 301 105l55 -56q-137 -129 -358 -129zM868 -25q-188 0 -333.5 56.5
t-238 161t-140 247.5t-47.5 320t47.5 320.5t140.5 247t238 160t333 56.5q249 0 421.5 -99t255.5 -273t83 -412q0 -177 -48 -320t-141 -247.5t-238.5 -161t-332.5 -56.5zM868 37q174 0 308 52t218.5 148t127.5 227.5t43 295.5t-43 296t-127.5 228t-218.5 147.5t-308 51.5
q-175 0 -308.5 -51.5t-218 -147.5t-127 -227.5t-42.5 -296.5q0 -164 42.5 -295.5t127 -227.5t218 -148t308.5 -52z" />
    <glyph glyph-name="ordfeminine" unicode="&#xaa;" horiz-adv-x="1146" 
d="M442 590q-151 0 -220.5 60t-69.5 163q0 78 17 137.5t54 100t85.5 67t120.5 41t148.5 20t180.5 5.5h112q19 78 19 139q0 72 -50.5 102.5t-183.5 30.5q-66 0 -139.5 -18t-120.5 -45l-37 75q52 31 137 52.5t169 21.5q160 0 234 -41.5t80.5 -128t-22.5 -219.5l-73 -348
q-9 -41 -10.5 -63t8.5 -34t26 -15t51 -3l-16 -82h-35q-91 0 -110 62q-10 31 -2 90q-119 -170 -353 -170zM461 672q300 0 379 360l14 72h-104q-116 0 -189 -5.5t-139.5 -21.5t-102 -47t-55.5 -81.5t-20 -125.5q2 -73 52 -112t165 -39zM131 332l19 84h643l-19 -84h-643z" />
    <glyph glyph-name="guillemotleft" unicode="&#xab;" horiz-adv-x="1331" 
d="M338 0l-188 559l425 561h97l-424 -563l184 -557h-94zM834 0l-191 559l426 561h98l-426 -563l185 -557h-92z" />
    <glyph glyph-name="logicalnot" unicode="&#xac;" horiz-adv-x="1703" 
d="M258 246q-88 105 -136 237t-48 277q0 144 48 276t136 236q6 -4 14 -12q-85 -103 -131.5 -231.5t-46.5 -268.5q0 -285 180 -500zM467 432q-117 143 -117 328q0 183 115 327q3 -2 8 -7t8 -7q-110 -136 -110 -313q0 -182 110 -314zM541 498q-92 116 -92 262t92 262
q3 -2 8 -7t8 -7q-88 -109 -88 -248t88 -248q-3 -2 -8 -7t-8 -7zM647 592q-57 72 -57 168q0 97 57 166l15 -15q-52 -69 -52 -151q0 -84 54 -154q-3 -2 -8.5 -7t-8.5 -7zM715 655q-33 48 -33 105q0 56 33 104q3 -2 8 -7t8 -7q-29 -44 -29 -90t29 -90q-3 -2 -16 -15zM774 709
q-14 25 -14 51t14 51l12 -10q-10 -20 -10 -41t10 -41q-4 -4 -12 -10zM852 123q-236 0 -412 158l2.5 2.5l5 5l5.5 5.5t2 1q171 -152 397 -152q227 0 395 152q2 -3 7.5 -8t7.5 -8q-177 -156 -410 -156zM852 664q-31 0 -55 18l12 12q21 -14 43 -14q26 0 43 14q4 -4 10 -12
q-21 -18 -53 -18zM987 653q-7 10 -14 15q28 42 28 92q0 51 -28 90l2.5 2.5t5 4.5t5.5 5t1 2q35 -44 35 -104t-35 -107zM598 551q-72 91 -72 209q0 119 74 209l14 -15q-67 -87 -67 -194q0 -108 67 -195q-10 -10 -16 -14zM852 -35q-145 0 -278 52.5t-238 146.5l14 16
q102 -92 231 -143t271 -51q285 0 500 192q0 1 3.5 -2.5t6.5 -7.5l4 -4q-104 -95 -236 -147t-278 -52zM852 248q-189 0 -330 125l15 16q134 -121 315 -121q182 0 313 121q2 -3 7.5 -8t7.5 -8q-138 -125 -328 -125zM852 348q-145 0 -264 101l14 14q108 -94 250 -94
q143 0 248 94q2 -3 7 -8.5t7 -8.5q-112 -98 -262 -98zM852 428q-116 0 -211 78l14 16q86 -73 197 -73t197 73q4 -4 12 -16q-91 -78 -209 -78zM852 543q-77 0 -135 49l14 16q51 -45 121 -45q68 0 119 45q2 -3 7 -8t7 -8q-58 -49 -133 -49zM733 911q-4 3 -7 6.5t-6 6.5l-3 4
q58 49 135 49t135 -49l-16 -17q-51 45 -119 45t-119 -45zM1167 1130q-134 121 -315 121q-179 0 -313 -118l-15 14q141 125 328 125q189 0 330 -125q-4 -6 -15 -17zM930 709l-12 10q10 20 10 41t-10 41l12 10q14 -25 14 -51t-14 -51zM958 682q-10 10 -16 14q21 32 21 64
t-21 63l16 15q25 -36 25 -78t-25 -78zM1020 627q-6 4 -16 14q38 50 38 119t-38 119l14 14q45 -57 45 -133q0 -71 -43 -133zM1106 551q-3 2 -8 7t-8 7q67 87 67 195t-70 194l17 15q74 -90 74 -209q0 -118 -72 -209zM1163 498q-10 10 -16 14q88 109 88 248t-88 248l16 14
q92 -116 92 -262t-92 -262zM1237 432q-6 4 -16 14q112 134 112 314q0 182 -112 313l16 14q117 -139 117 -327q0 -189 -117 -328zM1329 350q-2 2 -7 6t-7 6q141 175 141 398q0 227 -143 395l16 14q148 -179 148 -409q0 -231 -148 -410zM1446 246q-6 6 -16 14q180 215 180 500
t-180 500l16 14q88 -105 136 -237t48 -277q0 -144 -48 -276t-136 -238zM375 348q-148 182 -148 412q0 229 146 409q2 -2 7.5 -6.5t8.5 -7.5q-141 -170 -141 -395q0 -228 141 -398zM684 627q-43 59 -43 133t43 133q6 -4 16 -14q-38 -50 -38 -119q0 -67 38 -117zM745 682
q-24 34 -24 78t24 78q2 -3 4.5 -5.5t6 -5.5t4.5 -4q-19 -34 -19 -63q0 -30 19 -64zM809 825l-10 13q21 18 53 18t53 -18l-10 -13q-23 15 -43 15q-25 0 -43 -15zM786 852l-14 14q37 29 80 29q41 0 78 -29q-8 -8 -12 -14q-28 25 -66 25q-34 0 -66 -25zM760 881l-15 16
q45 39 107 39q61 0 106 -39l-14 -16q-37 34 -92 34t-92 -34zM604 1057l-14 16q112 98 262 98q151 0 262 -100q1 0 -2 -3.5t-6 -7.5l-4 -3q-108 94 -250 94q-143 0 -248 -94zM852 492q-100 0 -170 61l14 16q70 -57 156 -57q87 0 154 57l14 -14q-73 -63 -168 -63zM852 584
q-61 0 -109 39l15 16q47 -35 94 -35q51 0 92 35l14 -16q-45 -39 -106 -39zM852 625q-43 0 -82 28l14 15q36 -25 68 -25q34 0 66 25l14 -15q-36 -28 -80 -28zM698 950l-14 15q73 63 168 63q98 0 168 -61l-14 -17q-68 58 -154 58q-87 0 -154 -58zM655 997l-14 17q91 78 211 78
q119 0 209 -80l-12 -15q-83 74 -197 74q-110 0 -197 -74zM1249 1223q-166 153 -397 153q-227 0 -397 -151l-15 14q179 158 412 158t412 -158zM352 1339l-14 17q104 95 236 146.5t278 51.5q145 0 278 -52t238 -146l-14 -17q-102 93 -231 144t-271 51t-270 -51t-230 -144z
M1057 594l-15 14q52 69 52 152t-54 153l17 15q57 -72 57 -168q0 -97 -57 -166z" />
    <glyph glyph-name="registered" unicode="&#xae;" horiz-adv-x="1718" 
d="M868 -25q-188 0 -333 56.5t-237.5 161t-139.5 247.5t-47 320q0 178 47 321t139.5 246.5t237.5 160t333 56.5t333.5 -56.5t239 -160t141.5 -247t48 -320.5t-48 -320t-141.5 -247.5t-239 -161t-333.5 -56.5zM868 37q174 0 308 52t219.5 148t128.5 227.5t43 295.5
q0 220 -75 380.5t-234 251.5t-390 91q-174 0 -307.5 -51.5t-218 -147.5t-127.5 -227.5t-43 -296.5q0 -164 43 -295.5t127.5 -227.5t218 -148t307.5 -52zM1184 238l-266 452h-326v-452h-80v1034h430q174 0 252 -67.5t78 -221.5q0 -143 -66.5 -212.5t-206.5 -80.5l271 -452
h-86zM592 762h352q127 0 188.5 49.5t61.5 169.5t-61 169.5t-193 49.5h-348v-438z" />
    <glyph glyph-name="macron" unicode="&#xaf;" 
d="M375 1243l18 90h662l-19 -90h-661z" />
    <glyph glyph-name="macron" unicode="&#x2c9;" 
d="M375 1243l18 90h662l-19 -90h-661z" />
    <glyph glyph-name="degree" unicode="&#xb0;" horiz-adv-x="1130" 
d="M565 582q-189 0 -278.5 95t-89.5 257q0 170 56 306.5t169.5 219t267.5 82.5q191 0 282 -98t91 -264q0 -171 -57 -305t-171.5 -213.5t-269.5 -79.5zM571 668q126 0 218 67.5t137 181t45 257.5q0 129 -69.5 203.5t-219.5 74.5q-123 0 -213.5 -70t-135 -185t-44.5 -259
q0 -126 68 -198t214 -72z" />
    <glyph glyph-name="plusminus" unicode="&#xb1;" horiz-adv-x="1871" 
d="M643 -338l291 1364h-496l-288 -1364h-105l289 1364h-213l20 94h213l35 164q16 75 41 128.5t67 94.5t106 61.5t151 20.5h96l-21 -94h-73q-67 0 -115 -16t-77.5 -48t-46 -69.5t-28.5 -91.5l-32 -150h497l35 164q33 154 114 229.5t251 75.5h94l-18 -94h-74q-67 0 -114.5 -16
t-77 -48t-46 -69.5t-28.5 -91.5l-33 -150h293l-21 -94h-293l-288 -1364h-105zM1540 -2q-95 0 -138.5 31t-45.5 91t16 148l281 1321h104l-284 -1337q-23 -88 -4.5 -123t104.5 -35h53l-20 -92q-24 -4 -66 -4z" />
    <glyph glyph-name="twosuperior" unicode="&#xb2;" horiz-adv-x="892" 
d="M145 627l13 69l362 314q146 126 179 162q55 61 64 128q3 21 3 48q0 114 -184 114q-103 0 -211 -43l-31 74q116 49 252 49q262 0 262 -182q0 -42 -3 -70.5t-18 -60.5t-29 -53t-52.5 -59.5t-71.5 -67.5t-102 -88l-293 -256h440l-14 -78h-566z" />
    <glyph glyph-name="threesuperior" unicode="&#xb3;" horiz-adv-x="892" 
d="M473 610q-110 0 -184.5 24t-153.5 77l49 63q71 -44 134.5 -64t152.5 -20q110 0 169.5 61.5t59.5 182.5q0 75 -45 112t-168 37h-106l16 74h154q109 0 159 44t50 145q0 59 -45.5 86.5t-145.5 27.5q-123 0 -227 -53l-31 72q117 63 269 63q141 0 206.5 -46t65.5 -136
q0 -104 -42 -161t-128 -81q106 -44 106 -178q0 -164 -82.5 -247t-232.5 -83z" />
    <glyph glyph-name="acute" unicode="&#xb4;" 
d="M561 1243l379 301h137l-405 -301h-111z" />
    <glyph glyph-name="mu" unicode="&#xb5;" horiz-adv-x="1198" 
d="M-70 -338l310 1458h104l-135 -647q-10 -45 -15 -74t-9.5 -67.5t-2.5 -63t9.5 -54.5t23.5 -48.5t41.5 -38t62 -30t86.5 -17t113 -6.5q58 0 103 8.5t77.5 22.5t57 39.5t40.5 50.5t29 64.5t21.5 74t19.5 85.5v1l148 700h102l-151 -710q-12 -59 -22 -98t-24.5 -85t-31.5 -75
t-41.5 -60.5t-55 -50t-71 -34.5t-92 -23t-115.5 -7q-312 0 -377 158l-100 -473h-105z" />
    <glyph glyph-name="mu" unicode="&#x3bc;" horiz-adv-x="1198" 
d="M-70 -338l310 1458h104l-135 -647q-10 -45 -15 -74t-9.5 -67.5t-2.5 -63t9.5 -54.5t23.5 -48.5t41.5 -38t62 -30t86.5 -17t113 -6.5q58 0 103 8.5t77.5 22.5t57 39.5t40.5 50.5t29 64.5t21.5 74t19.5 85.5v1l148 700h102l-151 -710q-12 -59 -22 -98t-24.5 -85t-31.5 -75
t-41.5 -60.5t-55 -50t-71 -34.5t-92 -23t-115.5 -7q-312 0 -377 158l-100 -473h-105z" />
    <glyph glyph-name="paragraph" unicode="&#xb6;" horiz-adv-x="1196" 
d="M385 0l135 639q-186 21 -270 105t-84 231q0 543 522 543h465l-324 -1518h-100l133 633h-244l-133 -633h-100zM659 723h224l149 698h-352q-194 0 -301 -106.5t-107 -331.5q0 -131 92.5 -195.5t294.5 -64.5z" />
    <glyph glyph-name="periodcentered" unicode="&#xb7;" horiz-adv-x="456" 
d="M109 561l36 182h154l-37 -182h-153z" />
    <glyph glyph-name="periodcentered" unicode="&#x2219;" horiz-adv-x="456" 
d="M109 561l36 182h154l-37 -182h-153z" />
    <glyph glyph-name="cedilla" unicode="&#xb8;" 
d="M416 -444q-148 0 -262 75l49 66q93 -68 213 -68q166 0 166 131q0 96 -179 86l-32 31l53 139h78l-43 -110q38 2 73 -3.5t66 -20.5t49.5 -44.5t18.5 -70.5q0 -95 -60 -153t-190 -58z" />
    <glyph glyph-name="onesuperior" unicode="&#xb9;" horiz-adv-x="694" 
d="M315 612l177 824h-187l19 82h276l-192 -906h-93z" />
    <glyph glyph-name="ordmasculine" unicode="&#xba;" horiz-adv-x="1159" 
d="M586 600q-184 0 -275.5 90t-91.5 256q2 269 131 432.5t348 163.5q186 0 278.5 -90.5t92.5 -257.5q0 -272 -128.5 -433t-354.5 -161zM584 684q185 0 288 135.5t103 366.5q0 129 -69.5 198.5t-207.5 69.5q-177 0 -280 -138t-103 -366q0 -128 67 -197t202 -69zM137 330
l19 86h700l-18 -86h-701z" />
    <glyph glyph-name="guillemotright" unicode="&#xbb;" horiz-adv-x="1331" 
d="M80 0l426 563l-184 557h92l190 -559l-428 -561h-96zM573 0l424 563l-182 557h92l191 -559l-426 -561h-99z" />
    <glyph glyph-name="onequarter" unicode="&#xbc;" horiz-adv-x="1675" 
d="M1178 0l49 227h-441l17 74l530 606h103l-531 -602h338l72 266h71l-55 -266h154l-17 -78h-153l-49 -227h-88zM281 612l176 824h-187l19 82h276l-192 -906h-92zM176 0l1167 1518h99l-1168 -1518h-98z" />
    <glyph glyph-name="onehalf" unicode="&#xbd;" horiz-adv-x="1828" 
d="M281 612l176 824h-187l19 82h276l-192 -906h-92zM176 0l1167 1518h99l-1168 -1518h-98zM930 0l14 72l363 313q145 125 177 160q56 60 65 125q3 22 3 51q0 117 -182 117q-107 0 -213 -45l-31 73q116 52 250 52q264 0 264 -183q0 -31 -1.5 -54.5t-9.5 -48t-14.5 -41
t-26.5 -42t-34.5 -41.5t-50 -49t-60.5 -55t-79 -68l-293 -258h442l-16 -78h-567z" />
    <glyph glyph-name="threequarters" unicode="&#xbe;" horiz-adv-x="1847" 
d="M434 610q-108 0 -182.5 24.5t-155.5 76.5l49 63q73 -44 135.5 -64t151.5 -20q111 0 170.5 61.5t59.5 182.5q0 76 -44 112.5t-167 36.5h-109l16 74h154q109 0 160 44t51 145q0 59 -46 86.5t-147 27.5q-123 0 -227 -53l-31 72q119 63 269 63q274 0 274 -182
q0 -104 -43 -161t-129 -81q107 -43 107 -178q0 -164 -82.5 -247t-233.5 -83zM1348 0l49 227h-439l15 74l532 606h103l-531 -602h338l72 266h72l-58 -266h156l-17 -78h-155l-49 -227h-88zM348 0l1168 1518h98l-1168 -1518h-98z" />
    <glyph glyph-name="questiondown" unicode="&#xbf;" horiz-adv-x="1300" 
d="M547 -8q-134 0 -227.5 22.5t-145 65.5t-74 96t-22.5 123q0 89 19 151t66.5 113t112.5 89t173 85q62 26 100 49t68.5 52t50 72.5t33.5 97t30 139.5h103q-15 -82 -27 -134t-30.5 -103t-39.5 -82.5t-54.5 -62.5t-75.5 -54.5t-103 -48.5q-80 -34 -127 -58t-88.5 -53.5
t-61 -61.5t-30.5 -74t-11 -100q0 -50 16.5 -88t56.5 -70t115.5 -48.5t184.5 -16.5q79 0 185 18.5t206 55.5l35 -92q-107 -42 -228 -62t-210 -20zM745 1366l35 170h156l-37 -170h-154z" />
    <glyph glyph-name="Agrave" unicode="&#xc0;" horiz-adv-x="1402" 
d="M-104 0l913 1528h104l261 -1528h-105l-65 385h-764l-230 -385h-114zM295 483h694l-155 906zM917 1612l-274 301h123l250 -301h-99z" />
    <glyph glyph-name="Aacute" unicode="&#xc1;" horiz-adv-x="1402" 
d="M-104 0l913 1528h104l261 -1528h-105l-65 385h-764l-230 -385h-114zM295 483h694l-155 906zM733 1612l379 301h137l-405 -301h-111z" />
    <glyph glyph-name="Acircumflex" unicode="&#xc2;" horiz-adv-x="1402" 
d="M-104 0l913 1528h104l261 -1528h-105l-65 385h-764l-230 -385h-114zM295 483h694l-155 906zM522 1612l357 301h124l230 -301h-109l-194 234l-295 -234h-113z" />
    <glyph glyph-name="Atilde" unicode="&#xc3;" horiz-adv-x="1402" 
d="M-104 0l913 1528h104l261 -1528h-105l-65 385h-764l-230 -385h-114zM295 483h694l-155 906zM1040 1620q-43 0 -82.5 15t-65.5 33.5t-60.5 33.5t-67.5 15q-44 0 -81.5 -25t-78.5 -68l-61 58q106 123 223 123q43 0 83.5 -15t66.5 -32.5t60.5 -32.5t67.5 -15q37 0 71 25
t81 80l61 -57q-62 -70 -112 -104t-105 -34z" />
    <glyph glyph-name="Adieresis" unicode="&#xc4;" horiz-adv-x="1402" 
d="M-104 0l913 1528h104l261 -1528h-105l-65 385h-764l-230 -385h-114zM295 483h694l-155 906zM637 1612l39 184h98l-39 -184h-98zM1022 1612l39 184h98l-39 -184h-98z" />
    <glyph glyph-name="Aring" unicode="&#xc5;" horiz-adv-x="1402" 
d="M-104 0l878 1470q-66 18 -98.5 66t-32.5 113q0 128 73.5 206t188.5 78q107 0 160 -56t53 -144q0 -109 -53.5 -178t-140.5 -89l250 -1466h-105l-65 385h-764l-230 -385h-114zM295 483h694l-155 906zM862 1530q80 0 131 53t51 146q0 59 -34.5 97t-106.5 38
q-82 0 -135 -58.5t-53 -150.5q0 -55 37.5 -90t109.5 -35z" />
    <glyph glyph-name="AE" unicode="&#xc6;" horiz-adv-x="2103" 
d="M-121 0l1274 1518h981l-23 -101h-813l-122 -573h792l-20 -99h-793l-137 -647h821l-20 -98h-926l80 373h-658l-311 -373h-125zM393 467h600l201 950z" />
    <glyph glyph-name="Ccedilla" unicode="&#xc7;" horiz-adv-x="1415" 
d="M516 -444q-148 0 -262 75l49 66q93 -68 213 -68q166 0 166 131q0 96 -178 86l-33 31l45 117q-221 42 -332.5 190.5t-111.5 384.5q0 127 26 260q152 713 815 713q340 0 523 -203l-86 -69q-158 172 -439 172q-274 0 -457 -153t-251 -476q-23 -115 -23 -235q0 -238 133 -369
t392 -131q262 0 425 129l68 -80q-188 -150 -502 -150q-23 0 -62 3.5t-46 3.5l-29 -78q38 2 73 -3.5t66 -20.5t49.5 -44.5t18.5 -70.5q0 -95 -60 -153t-190 -58z" />
    <glyph glyph-name="Egrave" unicode="&#xc8;" horiz-adv-x="1239" 
d="M25 0l323 1518h924l-23 -101h-815l-125 -573h797l-21 -101h-794l-139 -645h825l-21 -98h-931zM837 1612l-274 301h123l250 -301h-99z" />
    <glyph glyph-name="Eacute" unicode="&#xc9;" horiz-adv-x="1239" 
d="M653 1612l379 301h137l-405 -301h-111zM25 0l323 1518h924l-23 -101h-815l-125 -573h797l-21 -101h-794l-139 -645h825l-21 -98h-931z" />
    <glyph glyph-name="Ecircumflex" unicode="&#xca;" horiz-adv-x="1239" 
d="M442 1612l357 301h125l229 -301h-109l-194 233l-295 -233h-113zM25 0l323 1518h924l-23 -101h-815l-125 -573h797l-21 -101h-794l-139 -645h825l-21 -98h-931z" />
    <glyph glyph-name="Edieresis" unicode="&#xcb;" horiz-adv-x="1239" 
d="M557 1612l39 184h98l-39 -184h-98zM942 1612l39 184h98l-39 -184h-98zM25 0l323 1518h924l-23 -101h-815l-125 -573h797l-21 -101h-794l-139 -645h825l-21 -98h-931z" />
    <glyph glyph-name="Igrave" unicode="&#xcc;" horiz-adv-x="505" 
d="M379 1612l-178 301h118l152 -301h-92zM37 0l323 1518h107l-324 -1518h-106z" />
    <glyph glyph-name="Iacute" unicode="&#xcd;" horiz-adv-x="505" 
d="M379 1612l293 301h131l-318 -301h-106zM37 0l323 1518h107l-324 -1518h-106z" />
    <glyph glyph-name="Icircumflex" unicode="&#xce;" horiz-adv-x="505" 
d="M37 0l323 1518h107l-324 -1518h-106zM76 1612l357 301h124l230 -301h-109l-194 234l-295 -234h-113z" />
    <glyph glyph-name="Idieresis" unicode="&#xcf;" horiz-adv-x="505" 
d="M37 0l323 1518h107l-324 -1518h-106zM191 1612l39 184h98l-39 -184h-98zM576 1612l39 184h98l-39 -184h-98z" />
    <glyph glyph-name="Eth" unicode="&#xd0;" horiz-adv-x="1492" 
d="M-2 748l18 92h187l145 678h336q395 0 566 -124t171 -397q0 -144 -39 -313q-26 -121 -61.5 -217t-78 -167.5t-98 -123.5t-116 -86t-137 -54t-155.5 -28t-177 -8h-534l159 748h-186zM152 98h409q124 0 215.5 15.5t174.5 55t142.5 107t106 173t78.5 251.5q35 161 35 287
q0 225 -145 327.5t-484 102.5h-250l-125 -577h363l-19 -92h-362z" />
    <glyph glyph-name="Ntilde" unicode="&#xd1;" horiz-adv-x="1525" 
d="M25 0l323 1518h117l645 -1346l289 1346h100l-323 -1518h-95l-663 1374l-293 -1374h-100zM1101 1620q-43 0 -82.5 15t-65.5 33.5t-60.5 33.5t-67.5 15q-44 0 -81.5 -25t-78.5 -68l-61 58q106 123 223 123q43 0 83.5 -15t66.5 -32.5t60.5 -32.5t67.5 -15q37 0 71 25t81 80
l61 -57q-62 -70 -112 -104t-105 -34z" />
    <glyph glyph-name="Ograve" unicode="&#xd2;" horiz-adv-x="1660" 
d="M741 -25q-328 0 -498.5 158.5t-170.5 446.5q0 113 28 256q150 706 818 706q332 0 502.5 -157.5t170.5 -446.5q0 -128 -28 -254q-34 -156 -93 -277.5t-134 -202t-171 -132.5t-199.5 -74.5t-224.5 -22.5zM743 76q582 0 713 620q25 125 25 232q0 243 -142 378.5t-424 135.5
q-275 0 -458.5 -151.5t-251.5 -471.5q-25 -122 -25 -233q0 -241 141.5 -375.5t421.5 -134.5zM1048 1612l-274 301h123l250 -301h-99z" />
    <glyph glyph-name="Oacute" unicode="&#xd3;" horiz-adv-x="1660" 
d="M860 1612l379 301h137l-405 -301h-111zM741 -25q-328 0 -498.5 158.5t-170.5 446.5q0 113 28 256q150 706 818 706q332 0 502.5 -157.5t170.5 -446.5q0 -128 -28 -254q-34 -156 -93 -277.5t-134 -202t-171 -132.5t-199.5 -74.5t-224.5 -22.5zM743 76q582 0 713 620
q25 125 25 232q0 243 -142 378.5t-424 135.5q-275 0 -458.5 -151.5t-251.5 -471.5q-25 -122 -25 -233q0 -241 141.5 -375.5t421.5 -134.5z" />
    <glyph glyph-name="Ocircumflex" unicode="&#xd4;" horiz-adv-x="1660" 
d="M649 1612l357 301h124l230 -301h-109l-194 233l-295 -233h-113zM741 -25q-328 0 -498.5 158.5t-170.5 446.5q0 113 28 256q150 706 818 706q332 0 502.5 -157.5t170.5 -446.5q0 -128 -28 -254q-34 -156 -93 -277.5t-134 -202t-171 -132.5t-199.5 -74.5t-224.5 -22.5z
M743 76q582 0 713 620q25 125 25 232q0 243 -142 378.5t-424 135.5q-275 0 -458.5 -151.5t-251.5 -471.5q-25 -122 -25 -233q0 -241 141.5 -375.5t421.5 -134.5z" />
    <glyph glyph-name="Otilde" unicode="&#xd5;" horiz-adv-x="1660" 
d="M741 -25q-328 0 -498.5 158.5t-170.5 446.5q0 113 28 256q150 706 818 706q332 0 502.5 -157.5t170.5 -446.5q0 -128 -28 -254q-34 -156 -93 -277.5t-134 -202t-171 -132.5t-199.5 -74.5t-224.5 -22.5zM743 76q582 0 713 620q25 125 25 232q0 243 -142 378.5t-424 135.5
q-275 0 -458.5 -151.5t-251.5 -471.5q-25 -122 -25 -233q0 -241 141.5 -375.5t421.5 -134.5zM1171 1620q-43 0 -82.5 15t-65.5 33.5t-60.5 33.5t-67.5 15q-44 0 -81.5 -25t-78.5 -68l-61 58q106 123 223 123q43 0 83.5 -15t66.5 -32.5t60.5 -32.5t67.5 -15q37 0 71 25t81 80
l61 -57q-62 -70 -112 -104t-105 -34z" />
    <glyph glyph-name="Odieresis" unicode="&#xd6;" horiz-adv-x="1660" 
d="M768 1612l39 184h98l-39 -184h-98zM1153 1612l39 184h98l-39 -184h-98zM741 -25q-328 0 -498.5 158.5t-170.5 446.5q0 113 28 256q150 706 818 706q332 0 502.5 -157.5t170.5 -446.5q0 -128 -28 -254q-34 -156 -93 -277.5t-134 -202t-171 -132.5t-199.5 -74.5
t-224.5 -22.5zM743 76q582 0 713 620q25 125 25 232q0 243 -142 378.5t-424 135.5q-275 0 -458.5 -151.5t-251.5 -471.5q-25 -122 -25 -233q0 -241 141.5 -375.5t421.5 -134.5z" />
    <glyph glyph-name="multiply" unicode="&#xd7;" horiz-adv-x="1409" 
d="M276 326l-49 65l402 332l-262 332l75 63l263 -332l401 332l51 -67l-401 -330l260 -332l-76 -63l-260 331z" />
    <glyph glyph-name="Oslash" unicode="&#xd8;" horiz-adv-x="1660" 
d="M741 -25q-245 0 -405 91l-115 -150h-112l153 199q-190 156 -190 465q0 113 28 256q150 706 818 706q217 0 374 -74l107 136h112l-139 -181q219 -154 219 -485q0 -128 -28 -254q-34 -156 -93 -277.5t-134 -202t-171 -132.5t-199.5 -74.5t-224.5 -22.5zM743 74
q136 0 247.5 33.5t205 105.5t160.5 193.5t102 289.5q27 120 27 234q0 276 -182 409l-908 -1187q135 -78 348 -78zM176 586q0 -257 154 -387l901 1183q-134 62 -316 62q-135 0 -247.5 -35.5t-205 -110t-158.5 -195t-101 -284.5q-27 -117 -27 -233z" />
    <glyph glyph-name="Ugrave" unicode="&#xd9;" horiz-adv-x="1529" 
d="M674 -25q-559 0 -559 416q0 83 24 191l199 936h108l-202 -940q-23 -117 -23 -172q0 -76 23 -134t75 -103.5t143 -69t220 -23.5q228 0 348.5 112.5t167.5 329.5l213 1000h105l-220 -1020q-26 -121 -69 -211t-114.5 -163t-181.5 -111t-257 -38zM981 1612l-274 301h123
l250 -301h-99z" />
    <glyph glyph-name="Uacute" unicode="&#xda;" horiz-adv-x="1529" 
d="M797 1612l379 301h137l-406 -301h-110zM674 -25q-559 0 -559 416q0 83 24 191l199 936h108l-202 -940q-23 -117 -23 -172q0 -76 23 -134t75 -103.5t143 -69t220 -23.5q228 0 348.5 112.5t167.5 329.5l213 1000h105l-220 -1020q-26 -121 -69 -211t-114.5 -163t-181.5 -111
t-257 -38z" />
    <glyph glyph-name="Ucircumflex" unicode="&#xdb;" horiz-adv-x="1529" 
d="M586 1612l356 301h125l229 -301h-108l-195 233l-295 -233h-112zM674 -25q-559 0 -559 416q0 83 24 191l199 936h108l-202 -940q-23 -117 -23 -172q0 -76 23 -134t75 -103.5t143 -69t220 -23.5q228 0 348.5 112.5t167.5 329.5l213 1000h105l-220 -1020q-26 -121 -69 -211
t-114.5 -163t-181.5 -111t-257 -38z" />
    <glyph glyph-name="Udieresis" unicode="&#xdc;" horiz-adv-x="1529" 
d="M700 1612l39 184h99l-39 -184h-99zM1085 1612l39 184h99l-39 -184h-99zM674 -25q-559 0 -559 416q0 83 24 191l199 936h108l-202 -940q-23 -117 -23 -172q0 -76 23 -134t75 -103.5t143 -69t220 -23.5q228 0 348.5 112.5t167.5 329.5l213 1000h105l-220 -1020
q-26 -121 -69 -211t-114.5 -163t-181.5 -111t-257 -38z" />
    <glyph glyph-name="Yacute" unicode="&#xdd;" horiz-adv-x="1355" 
d="M459 0l131 614l-391 904h110l355 -805l688 805h121l-777 -910l-129 -608h-108zM708 1612l379 301h137l-405 -301h-111z" />
    <glyph glyph-name="Thorn" unicode="&#xde;" horiz-adv-x="1372" 
d="M25 0l323 1518h107l-60 -265h424q254 0 371 -86.5t117 -251.5q0 -261 -133.5 -405.5t-387.5 -144.5h-577l-78 -365h-106zM227 461h557q198 0 306 112.5t108 325.5q0 129 -93 192.5t-294 63.5h-434z" />
    <glyph glyph-name="germandbls" unicode="&#xdf;" horiz-adv-x="1255" 
d="M-70 -338l316 1483q46 217 166.5 332.5t330.5 115.5q217 0 320.5 -86t103.5 -231q0 -187 -85 -295.5t-228 -144.5q268 -69 268 -336q0 -240 -137.5 -370t-423.5 -130h-192l20 96h170q237 0 349 106t112 296q0 135 -99 208.5t-303 73.5l19 90q72 0 132.5 11.5t116 39.5
t94 71t61 109.5t22.5 151.5q0 108 -79.5 173t-244.5 65t-260 -92t-133 -273l-311 -1464h-105z" />
    <glyph glyph-name="agrave" unicode="&#xe0;" horiz-adv-x="1216" 
d="M360 -23q-103 0 -175 20.5t-112 59t-57.5 87.5t-17.5 114q0 95 20 166t63.5 121.5t102 83t146 51t184 26t227.5 7.5h144q18 106 18 164q0 92 -63 133t-226 41q-80 0 -171 -23.5t-148 -56.5l-45 86q65 38 170.5 64t206.5 26q86 0 149.5 -10t107.5 -28t70.5 -49.5t39.5 -67
t13.5 -89t-7 -107t-23.5 -128.5l-92 -426q-8 -36 -11 -56.5t-2.5 -39.5t6 -27.5t19 -15.5t32 -8.5t48.5 -0.5l-19 -92q-4 -4 -43 -4q-83 0 -116.5 36t-28.5 113q-130 -170 -410 -170zM379 70q198 0 304.5 102.5t152.5 310.5l28 133h-133q-103 0 -177 -3.5t-143.5 -13
t-116 -26t-85.5 -42.5t-61 -63.5t-34 -87t-12 -114.5q0 -95 63 -145.5t214 -50.5zM753 1243l-274 301h123l250 -301h-99z" />
    <glyph glyph-name="aacute" unicode="&#xe1;" horiz-adv-x="1216" 
d="M360 -23q-103 0 -175 20.5t-112 59t-57.5 87.5t-17.5 114q0 95 20 166t63.5 121.5t102 83t146 51t184 26t227.5 7.5h144q18 106 18 164q0 92 -63 133t-226 41q-80 0 -171 -23.5t-148 -56.5l-45 86q65 38 170.5 64t206.5 26q86 0 149.5 -10t107.5 -28t70.5 -49.5t39.5 -67
t13.5 -89t-7 -107t-23.5 -128.5l-92 -426q-8 -36 -11 -56.5t-2.5 -39.5t6 -27.5t19 -15.5t32 -8.5t48.5 -0.5l-19 -92q-4 -4 -43 -4q-83 0 -116.5 36t-28.5 113q-130 -170 -410 -170zM379 70q198 0 304.5 102.5t152.5 310.5l28 133h-133q-103 0 -177 -3.5t-143.5 -13
t-116 -26t-85.5 -42.5t-61 -63.5t-34 -87t-12 -114.5q0 -95 63 -145.5t214 -50.5zM569 1243l379 301h137l-405 -301h-111z" />
    <glyph glyph-name="acircumflex" unicode="&#xe2;" horiz-adv-x="1216" 
d="M360 -23q-103 0 -175 20.5t-112 59t-57.5 87.5t-17.5 114q0 95 20 166t63.5 121.5t102 83t146 51t184 26t227.5 7.5h144q18 106 18 164q0 92 -63 133t-226 41q-80 0 -171 -23.5t-148 -56.5l-45 86q65 38 170.5 64t206.5 26q86 0 149.5 -10t107.5 -28t70.5 -49.5t39.5 -67
t13.5 -89t-7 -107t-23.5 -128.5l-92 -426q-8 -36 -11 -56.5t-2.5 -39.5t6 -27.5t19 -15.5t32 -8.5t48.5 -0.5l-19 -92q-4 -4 -43 -4q-83 0 -116.5 36t-28.5 113q-130 -170 -410 -170zM379 70q198 0 304.5 102.5t152.5 310.5l28 133h-133q-103 0 -177 -3.5t-143.5 -13
t-116 -26t-85.5 -42.5t-61 -63.5t-34 -87t-12 -114.5q0 -95 63 -145.5t214 -50.5zM358 1243l357 301h124l230 -301h-109l-194 234l-295 -234h-113z" />
    <glyph glyph-name="atilde" unicode="&#xe3;" horiz-adv-x="1216" 
d="M360 -23q-103 0 -175 20.5t-112 59t-57.5 87.5t-17.5 114q0 95 20 166t63.5 121.5t102 83t146 51t184 26t227.5 7.5h144q18 106 18 164q0 92 -63 133t-226 41q-80 0 -171 -23.5t-148 -56.5l-45 86q65 38 170.5 64t206.5 26q86 0 149.5 -10t107.5 -28t70.5 -49.5t39.5 -67
t13.5 -89t-7 -107t-23.5 -128.5l-92 -426q-8 -36 -11 -56.5t-2.5 -39.5t6 -27.5t19 -15.5t32 -8.5t48.5 -0.5l-19 -92q-4 -4 -43 -4q-83 0 -116.5 36t-28.5 113q-130 -170 -410 -170zM379 70q198 0 304.5 102.5t152.5 310.5l28 133h-133q-103 0 -177 -3.5t-143.5 -13
t-116 -26t-85.5 -42.5t-61 -63.5t-34 -87t-12 -114.5q0 -95 63 -145.5t214 -50.5zM876 1251q-43 0 -82.5 15t-65.5 33.5t-60.5 33.5t-67.5 15q-44 0 -81.5 -25t-78.5 -68l-61 58q106 123 223 123q43 0 83.5 -15t66.5 -32.5t60.5 -32.5t67.5 -15q37 0 71 25t81 80l61 -57
q-62 -70 -112 -104t-105 -34z" />
    <glyph glyph-name="adieresis" unicode="&#xe4;" horiz-adv-x="1216" 
d="M360 -23q-103 0 -175 20.5t-112 59t-57.5 87.5t-17.5 114q0 95 20 166t63.5 121.5t102 83t146 51t184 26t227.5 7.5h144q18 106 18 164q0 92 -63 133t-226 41q-80 0 -171 -23.5t-148 -56.5l-45 86q65 38 170.5 64t206.5 26q86 0 149.5 -10t107.5 -28t70.5 -49.5t39.5 -67
t13.5 -89t-7 -107t-23.5 -128.5l-92 -426q-8 -36 -11 -56.5t-2.5 -39.5t6 -27.5t19 -15.5t32 -8.5t48.5 -0.5l-19 -92q-4 -4 -43 -4q-83 0 -116.5 36t-28.5 113q-130 -170 -410 -170zM379 70q198 0 304.5 102.5t152.5 310.5l28 133h-133q-103 0 -177 -3.5t-143.5 -13
t-116 -26t-85.5 -42.5t-61 -63.5t-34 -87t-12 -114.5q0 -95 63 -145.5t214 -50.5zM473 1243l39 184h98l-39 -184h-98zM858 1243l39 184h98l-39 -184h-98z" />
    <glyph glyph-name="aring" unicode="&#xe5;" horiz-adv-x="1216" 
d="M360 -23q-103 0 -175 20.5t-112 59t-57.5 87.5t-17.5 114q0 95 20 166t63.5 121.5t102 83t146 51t184 26t227.5 7.5h144q18 106 18 164q0 92 -63 133t-226 41q-80 0 -171 -23.5t-148 -56.5l-45 86q65 38 170.5 64t206.5 26q86 0 149.5 -10t107.5 -28t70.5 -49.5t39.5 -67
t13.5 -89t-7 -107t-23.5 -128.5l-92 -426q-8 -36 -11 -56.5t-2.5 -39.5t6 -27.5t19 -15.5t32 -8.5t48.5 -0.5l-19 -92q-4 -4 -43 -4q-83 0 -116.5 36t-28.5 113q-130 -170 -410 -170zM379 70q198 0 304.5 102.5t152.5 310.5l28 133h-133q-103 0 -177 -3.5t-143.5 -13
t-116 -26t-85.5 -42.5t-61 -63.5t-34 -87t-12 -114.5q0 -95 63 -145.5t214 -50.5zM741 1227q-111 0 -165 52t-54 136q0 128 73.5 206.5t188.5 78.5q107 0 160 -56.5t53 -144.5q0 -126 -73 -199t-183 -73zM741 1296q80 0 131 53t51 146q0 59 -34.5 97t-106.5 38
q-82 0 -135 -58.5t-53 -150.5q0 -55 37.5 -90t109.5 -35z" />
    <glyph glyph-name="ae" unicode="&#xe6;" horiz-adv-x="1943" 
d="M1264 -23q-99 0 -174 20t-123 58t-76 87t-41 112q-68 -141 -185.5 -209t-312.5 -68q-354 0 -354 281q0 78 14 140t41.5 110t72.5 82.5t102.5 58.5t136.5 38t169 20t205 6h146q18 106 18 164q0 91 -62.5 132.5t-226.5 41.5q-80 0 -171 -23.5t-148 -56.5l-45 86
q66 39 169 64.5t208 25.5q187 0 270.5 -47t97.5 -152q138 199 420 199q117 0 198.5 -23t125 -66.5t62 -97t18.5 -124.5q0 -123 -39 -293h-836q-14 -77 -14 -162q0 -69 17 -123t54.5 -97t105.5 -66t163 -23q207 0 356 88l45 -80q-89 -56 -185 -79.5t-222 -23.5zM379 70
q106 0 183 26.5t131 84.5t89 139t62 200l20 96h-133q-79 0 -136.5 -1.5t-117.5 -6t-102.5 -13t-84 -21.5t-69.5 -32t-52 -45t-38 -60t-21.5 -77t-7.5 -96q0 -101 67.5 -147.5t209.5 -46.5zM1407 1053q-185 0 -288.5 -104t-155.5 -310h733q22 121 22 186q0 109 -68.5 168.5
t-242.5 59.5z" />
    <glyph glyph-name="ccedilla" unicode="&#xe7;" horiz-adv-x="1097" 
d="M360 -444q-148 0 -262 75l49 66q93 -68 213 -68q166 0 166 131q0 96 -178 86l-33 31l41 109q-315 51 -315 397q0 108 27 231q58 275 192.5 404t374.5 129q68 0 126 -11t98 -27.5t74.5 -41t55.5 -46t41 -48.5l-86 -66q-18 22 -31.5 37t-42 37t-59 35t-78.5 23t-104 10
q-190 0 -299 -107.5t-160 -345.5q-23 -115 -23 -205q0 -153 78.5 -235t253.5 -82q92 0 163.5 21.5t145.5 76.5l60 -74q-89 -66 -177 -93.5t-196 -27.5q-22 0 -43 3l-29 -74q38 2 73 -3.5t66 -20.5t49.5 -44.5t18.5 -70.5q0 -95 -60 -153t-190 -58z" />
    <glyph glyph-name="egrave" unicode="&#xe8;" horiz-adv-x="1157" 
d="M475 -23q-98 0 -174 20.5t-124.5 55.5t-79.5 86t-43.5 108.5t-12.5 127.5q0 101 27 239q27 129 70 224t109 166t161 107t219 36q94 0 165 -15.5t116 -42.5t72.5 -67t38.5 -85t11 -101q0 -123 -39 -293h-835q-15 -83 -15 -162q0 -69 17 -123t54.5 -97t105.5 -66t163 -23
q208 0 357 88l45 -80q-89 -56 -185.5 -79.5t-222.5 -23.5zM618 1053q-185 0 -288.5 -104t-155.5 -310h733q23 127 23 186q0 109 -69 168.5t-243 59.5zM720 1243l-274 301h123l250 -301h-99z" />
    <glyph glyph-name="eacute" unicode="&#xe9;" horiz-adv-x="1157" 
d="M537 1243l378 301h138l-406 -301h-110zM475 -23q-98 0 -174 20.5t-124.5 55.5t-79.5 86t-43.5 108.5t-12.5 127.5q0 101 27 239q27 129 70 224t109 166t161 107t219 36q94 0 165 -15.5t116 -42.5t72.5 -67t38.5 -85t11 -101q0 -123 -39 -293h-835q-15 -83 -15 -162
q0 -69 17 -123t54.5 -97t105.5 -66t163 -23q208 0 357 88l45 -80q-89 -56 -185.5 -79.5t-222.5 -23.5zM618 1053q-185 0 -288.5 -104t-155.5 -310h733q23 127 23 186q0 109 -69 168.5t-243 59.5z" />
    <glyph glyph-name="ecircumflex" unicode="&#xea;" horiz-adv-x="1157" 
d="M326 1243l356 301h125l229 -301h-108l-195 234l-295 -234h-112zM475 -23q-98 0 -174 20.5t-124.5 55.5t-79.5 86t-43.5 108.5t-12.5 127.5q0 101 27 239q27 129 70 224t109 166t161 107t219 36q94 0 165 -15.5t116 -42.5t72.5 -67t38.5 -85t11 -101q0 -123 -39 -293h-835
q-15 -83 -15 -162q0 -69 17 -123t54.5 -97t105.5 -66t163 -23q208 0 357 88l45 -80q-89 -56 -185.5 -79.5t-222.5 -23.5zM618 1053q-185 0 -288.5 -104t-155.5 -310h733q23 127 23 186q0 109 -69 168.5t-243 59.5z" />
    <glyph glyph-name="edieresis" unicode="&#xeb;" horiz-adv-x="1157" 
d="M440 1243l39 184h99l-39 -184h-99zM825 1243l39 184h99l-39 -184h-99zM475 -23q-98 0 -174 20.5t-124.5 55.5t-79.5 86t-43.5 108.5t-12.5 127.5q0 101 27 239q27 129 70 224t109 166t161 107t219 36q94 0 165 -15.5t116 -42.5t72.5 -67t38.5 -85t11 -101
q0 -123 -39 -293h-835q-15 -83 -15 -162q0 -69 17 -123t54.5 -97t105.5 -66t163 -23q208 0 357 88l45 -80q-89 -56 -185.5 -79.5t-222.5 -23.5zM618 1053q-185 0 -288.5 -104t-155.5 -310h733q23 127 23 186q0 109 -69 168.5t-243 59.5z" />
    <glyph glyph-name="igrave" unicode="&#xec;" horiz-adv-x="452" 
d="M264 1243l-170 301h123l143 -301h-96zM12 0l238 1120h102l-235 -1120h-105z" />
    <glyph glyph-name="iacute" unicode="&#xed;" horiz-adv-x="452" 
d="M270 1243l293 301h131l-317 -301h-107zM12 0l238 1120h102l-235 -1120h-105z" />
    <glyph glyph-name="icircumflex" unicode="&#xee;" horiz-adv-x="452" 
d="M12 1243l318 301h123l188 -301h-106l-154 234l-254 -234h-115zM12 0l238 1120h102l-235 -1120h-105z" />
    <glyph glyph-name="idieresis" unicode="&#xef;" horiz-adv-x="452" 
d="M109 1243l38 184h95l-39 -184h-94zM451 1243l38 184h95l-39 -184h-94zM12 0l238 1120h102l-235 -1120h-105z" />
    <glyph glyph-name="eth" unicode="&#xf0;" horiz-adv-x="1232" 
d="M696 1239l19 94l188 56q-62 84 -147 157l88 53q109 -98 164 -180l315 92l-18 -96l-254 -74q82 -164 82 -397q0 -197 -54 -442q-63 -283 -202 -404t-373 -121q-463 0 -463 416q0 86 27 221q58 273 194 398t363 125q313 0 397 -191q11 204 -74 365zM504 74q193 0 306 104
t165 338q22 96 22 193q0 329 -358 329q-193 0 -305.5 -106t-163.5 -340q-23 -98 -23 -197q0 -321 357 -321z" />
    <glyph glyph-name="ntilde" unicode="&#xf1;" horiz-adv-x="1202" 
d="M4 0l236 1116l84 4l-21 -135q121 162 379 162q89 0 155 -14t108 -35.5t66 -60.5t34 -75t7 -94.5t-10 -103t-22 -115.5l-139 -649h-105l137 641q31 153 30 211q-1 122 -100 165q-68 30 -188 30q-79 0 -142.5 -21.5t-105.5 -56.5t-75 -88.5t-52 -109t-34 -126.5l-137 -645
h-105zM864 1251q-43 0 -82.5 15t-65.5 33.5t-60.5 33.5t-67.5 15q-44 0 -81.5 -25t-78.5 -68l-61 58q106 123 223 123q43 0 83.5 -15t66.5 -32.5t60.5 -32.5t67.5 -15q37 0 71 25t81 80l61 -57q-62 -70 -112 -104t-105 -34z" />
    <glyph glyph-name="ograve" unicode="&#xf2;" horiz-adv-x="1232" 
d="M500 -23q-236 0 -347.5 108.5t-111.5 307.5q0 86 27 221q60 284 200 408.5t375 124.5q463 0 463 -418q0 -87 -27 -219q-60 -283 -202 -408t-377 -125zM504 74q193 0 307 106.5t166 341.5q22 110 22 197q0 330 -360 330q-192 0 -305 -108t-164 -345q-23 -98 -23 -199
q0 -323 357 -323zM755 1243l-274 301h123l250 -301h-99z" />
    <glyph glyph-name="oacute" unicode="&#xf3;" horiz-adv-x="1232" 
d="M571 1243l379 301h137l-405 -301h-111zM500 -23q-236 0 -347.5 108.5t-111.5 307.5q0 86 27 221q60 284 200 408.5t375 124.5q463 0 463 -418q0 -87 -27 -219q-60 -283 -202 -408t-377 -125zM504 74q193 0 307 106.5t166 341.5q22 110 22 197q0 330 -360 330
q-192 0 -305 -108t-164 -345q-23 -98 -23 -199q0 -323 357 -323z" />
    <glyph glyph-name="ocircumflex" unicode="&#xf4;" horiz-adv-x="1232" 
d="M360 1243l357 301h125l229 -301h-108l-195 234l-295 -234h-113zM500 -23q-236 0 -347.5 108.5t-111.5 307.5q0 86 27 221q60 284 200 408.5t375 124.5q463 0 463 -418q0 -87 -27 -219q-60 -283 -202 -408t-377 -125zM504 74q193 0 307 106.5t166 341.5q22 110 22 197
q0 330 -360 330q-192 0 -305 -108t-164 -345q-23 -98 -23 -199q0 -323 357 -323z" />
    <glyph glyph-name="otilde" unicode="&#xf5;" horiz-adv-x="1232" 
d="M500 -23q-236 0 -347.5 108.5t-111.5 307.5q0 86 27 221q60 284 200 408.5t375 124.5q463 0 463 -418q0 -87 -27 -219q-60 -283 -202 -408t-377 -125zM504 74q193 0 307 106.5t166 341.5q22 110 22 197q0 330 -360 330q-192 0 -305 -108t-164 -345q-23 -98 -23 -199
q0 -323 357 -323zM878 1251q-43 0 -82.5 15t-65.5 33.5t-60.5 33.5t-67.5 15q-44 0 -81.5 -25t-78.5 -68l-61 58q106 123 223 123q43 0 83.5 -15t66.5 -32.5t60.5 -32.5t67.5 -15q37 0 71 25t81 80l61 -57q-62 -70 -112 -104t-105 -34z" />
    <glyph glyph-name="odieresis" unicode="&#xf6;" horiz-adv-x="1232" 
d="M475 1243l39 184h98l-39 -184h-98zM860 1243l39 184h98l-39 -184h-98zM500 -23q-236 0 -347.5 108.5t-111.5 307.5q0 86 27 221q60 284 200 408.5t375 124.5q463 0 463 -418q0 -87 -27 -219q-60 -283 -202 -408t-377 -125zM504 74q193 0 307 106.5t166 341.5
q22 110 22 197q0 330 -360 330q-192 0 -305 -108t-164 -345q-23 -98 -23 -199q0 -323 357 -323z" />
    <glyph glyph-name="divide" unicode="&#xf7;" horiz-adv-x="1409" 
d="M520 242l35 161h145l-34 -161h-146zM205 674l22 98h957l-23 -98h-956zM692 1044l33 160h145l-34 -160h-144z" />
    <glyph glyph-name="oslash" unicode="&#xf8;" horiz-adv-x="1232" 
d="M500 -23q-171 0 -285 62l-96 -125h-103l136 172q-111 105 -111 307q0 86 27 221q60 284 200 408.5t375 124.5q175 0 287 -64l96 125h102l-135 -170q113 -107 113 -309q0 -87 -27 -219q-60 -283 -202 -408t-377 -125zM504 70q194 0 308.5 107.5t166.5 344.5q25 109 25 197
q0 154 -80 237l-652 -835q83 -51 232 -51zM143 395q0 -149 74 -229l651 835q-90 52 -227 52q-195 0 -308.5 -108.5t-164.5 -348.5q-25 -109 -25 -201z" />
    <glyph glyph-name="ugrave" unicode="&#xf9;" horiz-adv-x="1189" 
d="M504 -23q-79 0 -143 9t-110 24t-79 40t-54 51t-32 63.5t-14.5 70.5t0 79t9.5 83t17 88l135 635h105l-137 -647q-10 -45 -15 -74t-9.5 -67.5t-2 -63.5t10 -54.5t23.5 -48t41.5 -38t62 -30t86 -17t112.5 -6.5q40 0 74.5 3.5t62 13t50 18.5t41 27t31.5 32t25.5 40.5t20 44
t16.5 51.5t13.5 55t13.5 61l150 700h100l-150 -710q-15 -68 -26 -111t-30 -94t-40 -81.5t-54 -61.5t-75 -47.5t-99.5 -27t-129.5 -10.5zM735 1243l-274 301h123l250 -301h-99z" />
    <glyph glyph-name="uacute" unicode="&#xfa;" horiz-adv-x="1189" 
d="M551 1243l379 301h137l-405 -301h-111zM504 -23q-79 0 -143 9t-110 24t-79 40t-54 51t-32 63.5t-14.5 70.5t0 79t9.5 83t17 88l135 635h105l-137 -647q-10 -45 -15 -74t-9.5 -67.5t-2 -63.5t10 -54.5t23.5 -48t41.5 -38t62 -30t86 -17t112.5 -6.5q40 0 74.5 3.5t62 13
t50 18.5t41 27t31.5 32t25.5 40.5t20 44t16.5 51.5t13.5 55t13.5 61l150 700h100l-150 -710q-15 -68 -26 -111t-30 -94t-40 -81.5t-54 -61.5t-75 -47.5t-99.5 -27t-129.5 -10.5z" />
    <glyph glyph-name="ucircumflex" unicode="&#xfb;" horiz-adv-x="1189" 
d="M340 1243l356 301h125l230 -301h-109l-194 234l-295 -234h-113zM504 -23q-79 0 -143 9t-110 24t-79 40t-54 51t-32 63.5t-14.5 70.5t0 79t9.5 83t17 88l135 635h105l-137 -647q-10 -45 -15 -74t-9.5 -67.5t-2 -63.5t10 -54.5t23.5 -48t41.5 -38t62 -30t86 -17t112.5 -6.5
q40 0 74.5 3.5t62 13t50 18.5t41 27t31.5 32t25.5 40.5t20 44t16.5 51.5t13.5 55t13.5 61l150 700h100l-150 -710q-15 -68 -26 -111t-30 -94t-40 -81.5t-54 -61.5t-75 -47.5t-99.5 -27t-129.5 -10.5z" />
    <glyph glyph-name="udieresis" unicode="&#xfc;" horiz-adv-x="1189" 
d="M455 1243l39 184h98l-39 -184h-98zM840 1243l39 184h98l-39 -184h-98zM504 -23q-79 0 -143 9t-110 24t-79 40t-54 51t-32 63.5t-14.5 70.5t0 79t9.5 83t17 88l135 635h105l-137 -647q-10 -45 -15 -74t-9.5 -67.5t-2 -63.5t10 -54.5t23.5 -48t41.5 -38t62 -30t86 -17
t112.5 -6.5q40 0 74.5 3.5t62 13t50 18.5t41 27t31.5 32t25.5 40.5t20 44t16.5 51.5t13.5 55t13.5 61l150 700h100l-150 -710q-15 -68 -26 -111t-30 -94t-40 -81.5t-54 -61.5t-75 -47.5t-99.5 -27t-129.5 -10.5z" />
    <glyph glyph-name="yacute" unicode="&#xfd;" horiz-adv-x="1011" 
d="M37 -340h-111l19 88h88q68 0 100.5 25.5t81.5 107.5l76 127l-182 1112h104l158 -985l571 985h111l-750 -1270q-64 -111 -118 -150.5t-148 -39.5zM463 1243l379 301h137l-405 -301h-111z" />
    <glyph glyph-name="thorn" unicode="&#xfe;" horiz-adv-x="1263" 
d="M-70 -338l412 1927h102l-129 -604q62 90 157.5 126t248.5 36q223 0 320.5 -104.5t97.5 -297.5q0 -106 -31 -239q-24 -107 -53.5 -186.5t-72.5 -145.5t-98.5 -107t-131.5 -63t-172 -22q-199 0 -301 55.5t-127 177.5l-117 -553h-105zM569 78q185 0 285 103.5t152 336.5
q26 127 26 215q0 153 -78 234.5t-256 81.5q-100 0 -168 -18t-127 -66.5t-99.5 -137t-70.5 -227.5q-26 -133 -26 -217q0 -161 85.5 -233t276.5 -72z" />
    <glyph glyph-name="ydieresis" unicode="&#xff;" horiz-adv-x="1011" 
d="M37 -340h-111l19 88h88q68 0 100.5 25.5t81.5 107.5l76 127l-182 1112h104l158 -985l571 985h111l-750 -1270q-64 -111 -118 -150.5t-148 -39.5zM367 1243l39 184h98l-39 -184h-98zM752 1243l39 184h98l-39 -184h-98z" />
    <glyph glyph-name="dotlessi" unicode="&#x131;" horiz-adv-x="452" 
d="M12 0l238 1120h102l-235 -1120h-105z" />
    <glyph glyph-name="Lslash" unicode="&#x141;" horiz-adv-x="1148" 
d="M-20 655l20 99l207 102l141 662h107l-129 -603l407 205l-22 -100l-406 -203l-153 -719h790l-18 -98h-899l161 758z" />
    <glyph glyph-name="lslash" unicode="&#x142;" horiz-adv-x="692" 
d="M57 836l23 96l239 123l113 534h105l-101 -473l273 141l-23 -98l-270 -139l-164 -770q-23 -88 -4.5 -123t104.5 -35h54l-21 -90q-24 -4 -66 -4q-94 0 -137.5 31t-45.5 90.5t16 146.5l147 692z" />
    <glyph glyph-name="OE" unicode="&#x152;" horiz-adv-x="2521" 
d="M741 -25q-328 0 -498.5 158.5t-170.5 446.5q0 113 28 256q150 706 818 706q275 0 435.5 -110.5t205.5 -317.5l86 404h909l-23 -101h-813l-121 -573h791l-21 -99h-790l-139 -647h821l-21 -98h-917l61 291q-212 -316 -641 -316zM743 76q582 0 713 620q25 125 25 232
q0 243 -142 378.5t-424 135.5q-275 0 -458.5 -151.5t-251.5 -471.5q-25 -122 -25 -233q0 -241 141.5 -375.5t421.5 -134.5z" />
    <glyph glyph-name="oe" unicode="&#x153;" horiz-adv-x="2080" 
d="M1399 -23q-99 0 -174 20t-123 58t-76 87t-41 112q-74 -145 -192.5 -211t-290.5 -66q-459 0 -459 416q0 78 25 221q62 284 202 408.5t375 124.5q373 0 438 -283q67 140 179.5 211.5t287.5 71.5q118 0 199.5 -23t125.5 -66.5t62.5 -97t18.5 -124.5q0 -98 -39 -293h-836
q-14 -77 -14 -162q0 -69 17 -123t54.5 -97t105.5 -66t163 -23q204 0 356 88l45 -80q-91 -56 -186.5 -79.5t-222.5 -23.5zM504 74q193 0 308 106.5t165 341.5q22 96 22 197q0 330 -358 330q-193 0 -306.5 -108t-164.5 -345q-23 -112 -23 -199q0 -323 357 -323zM1544 1053
q-186 0 -291 -105.5t-153 -310.5h731q22 107 22 188q0 52 -14 91t-47 71.5t-95.5 49t-152.5 16.5z" />
    <glyph glyph-name="Scaron" unicode="&#x160;" horiz-adv-x="1374" 
d="M801 1612l-230 301h107l194 -236l295 236h115l-356 -301h-125zM594 -20q-203 0 -348.5 45.5t-282.5 144.5l68 80q123 -91 255 -131.5t312 -40.5q72 0 135 9t125.5 32.5t106.5 61t71 98t27 139.5q0 32 -5.5 59.5t-14 49t-25.5 41.5t-32 34.5t-42.5 30t-47.5 25t-57 23
t-61 21.5t-68 22q-35 11 -53 17q-181 58 -248 93q-132 69 -165 184q-13 46 -13 102q0 94 29.5 168t78 121t116 77.5t139 43t151.5 12.5q194 0 319.5 -41t217.5 -112l-70 -82q-173 137 -469 137q-64 0 -120 -9.5t-109 -32.5t-91 -58.5t-60.5 -91t-22.5 -126.5q0 -52 19.5 -93
t43 -66t80 -52t91.5 -39.5t117 -38.5l9 -3q110 -34 166.5 -54.5t126 -55.5t101.5 -71.5t54.5 -92t22.5 -128.5q0 -102 -32.5 -181.5t-86.5 -130t-130.5 -82.5t-156 -45t-171.5 -13z" />
    <glyph glyph-name="scaron" unicode="&#x161;" horiz-adv-x="997" 
d="M537 1243l-230 301h107l194 -235l295 235h115l-356 -301h-125zM416 -23q-286 0 -475 156l67 74q167 -135 414 -135q295 0 295 254q0 27 -8.5 50.5t-20 41t-34.5 34.5t-40.5 27t-51.5 24t-53 20.5t-58 19.5q-44 14 -67 22t-62.5 24t-61.5 29.5t-49.5 35.5t-42 46t-25 56.5
t-10.5 70.5q0 159 106 239.5t283 80.5q250 0 410 -117l-66 -80q-140 101 -350 101q-128 0 -202 -54t-74 -161q0 -34 16 -63.5t37 -48.5t61 -38.5t68 -29.5t78 -27q58 -18 96 -33t85 -40.5t74.5 -54t46.5 -71.5t19 -96q0 -81 -22 -144t-59.5 -102.5t-90.5 -65t-109.5 -35.5
t-123.5 -10z" />
    <glyph glyph-name="Ydieresis" unicode="&#x178;" horiz-adv-x="1355" 
d="M459 0l131 614l-391 904h110l355 -805l688 805h121l-777 -910l-129 -608h-108zM612 1612l39 184h98l-39 -184h-98zM997 1612l39 184h98l-39 -184h-98z" />
    <glyph glyph-name="Zcaron" unicode="&#x17d;" horiz-adv-x="1304" 
d="M768 1612l-229 301h106l195 -236l295 236h114l-356 -301h-125zM-63 0l20 88l1221 1329h-904l23 101h1038l-18 -93l-1221 -1327h959l-21 -98h-1097z" />
    <glyph glyph-name="zcaron" unicode="&#x17e;" horiz-adv-x="962" 
d="M522 1243l-229 301h106l195 -235l295 235h115l-357 -301h-125zM-88 0l18 84l863 942h-625l18 94h758l-18 -84l-863 -944h687l-19 -92h-819z" />
    <glyph glyph-name="florin" unicode="&#x192;" horiz-adv-x="1032" 
d="M205 821l20 97h226l59 282q10 46 16.5 73t20.5 65.5t29 60.5t40.5 48t57 39.5t77 22.5t101.5 9h68l-21 -97h-43q-57 0 -98.5 -14.5t-65 -33.5t-41.5 -57t-25.5 -64.5t-17.5 -77.5l-55 -256h350l-20 -97h-351l-243 -1161h-105l246 1161h-225z" />
    <glyph glyph-name="circumflex" unicode="&#x2c6;" 
d="M350 1243l357 301h124l230 -301h-109l-194 234l-295 -234h-113z" />
    <glyph glyph-name="caron" unicode="&#x2c7;" 
d="M643 1243l-229 301h106l195 -235l295 235h114l-356 -301h-125z" />
    <glyph glyph-name="breve" unicode="&#x2d8;" 
d="M721 1227q-94 0 -158 22.5t-95.5 64t-44 85.5t-13.5 102l88 17q0 -45 7.5 -76.5t29 -62t69 -46.5t119.5 -16q58 0 104 11.5t76.5 29t55.5 45.5t39 53.5t30 61.5l80 -19q-22 -58 -49.5 -101.5t-71.5 -85t-111 -63.5t-155 -22z" />
    <glyph glyph-name="dotaccent" unicode="&#x2d9;" 
d="M653 1243l41 197h105l-41 -197h-105z" />
    <glyph glyph-name="ring" unicode="&#x2da;" 
d="M733 1227q-111 0 -165 52t-54 136q0 128 73.5 206.5t188.5 78.5q107 0 160 -56.5t53 -144.5q0 -126 -73 -199t-183 -73zM733 1296q80 0 131 53t51 146q0 59 -34.5 97t-106.5 38q-82 0 -135 -58.5t-53 -150.5q0 -55 37.5 -90t109.5 -35z" />
    <glyph glyph-name="ogonek" unicode="&#x2db;" 
d="M391 -438q-231 0 -231 143q0 48 18 91.5t43 74t62.5 60.5t66.5 47t66 36h102q-268 -135 -268 -284q0 -92 156 -92q82 0 155 34l23 -63q-37 -21 -91.5 -34t-101.5 -13z" />
    <glyph glyph-name="tilde" unicode="&#x2dc;" 
d="M868 1251q-43 0 -82.5 15t-65.5 33.5t-60.5 33.5t-67.5 15q-44 0 -81.5 -25t-78.5 -68l-61 58q106 123 223 123q43 0 83.5 -15t66.5 -32.5t60.5 -32.5t67.5 -15q37 0 71 25t81 80l61 -57q-62 -70 -112 -104t-105 -34z" />
    <glyph glyph-name="hungarumlaut" unicode="&#x2dd;" 
d="M307 1243l324 301h129l-350 -301h-103zM745 1243l324 301h129l-350 -301h-103z" />
    <glyph glyph-name="Delta" unicode="&#x394;" horiz-adv-x="1157" 
d="M121 1026l20 94h213l35 164q16 75 41 128.5t67 94.5t106 61.5t151 20.5h96l-21 -94h-73q-67 0 -115 -16t-77.5 -48t-46 -69.5t-28.5 -91.5l-32 -150h293l-19 -94h-293l-288 -1364h-105l289 1364h-213zM473 -340l19 88h10q100 0 137 36.5t61 147.5l254 1188h105
l-256 -1200q-22 -105 -52.5 -158.5t-86 -77.5t-154.5 -24h-37zM989 1284l41 199h105l-41 -199h-105z" />
    <glyph glyph-name="Delta" unicode="&#x2206;" horiz-adv-x="1157" 
d="M121 1026l20 94h213l35 164q16 75 41 128.5t67 94.5t106 61.5t151 20.5h96l-21 -94h-73q-67 0 -115 -16t-77.5 -48t-46 -69.5t-28.5 -91.5l-32 -150h293l-19 -94h-293l-288 -1364h-105l289 1364h-213zM473 -340l19 88h10q100 0 137 36.5t61 147.5l254 1188h105
l-256 -1200q-22 -105 -52.5 -158.5t-86 -77.5t-154.5 -24h-37zM989 1284l41 199h105l-41 -199h-105z" />
    <glyph glyph-name="Omega" unicode="&#x3a9;" horiz-adv-x="1703" 
d="M258 246q-88 105 -136 237t-48 277q0 144 48 276t136 236q6 -4 14 -12q-85 -103 -131.5 -231.5t-46.5 -268.5q0 -285 180 -500zM467 432q-117 143 -117 328q0 183 115 327q3 -2 8 -7t8 -7q-110 -136 -110 -313q0 -182 110 -314zM541 498q-92 116 -92 262t92 262
q3 -2 8 -7t8 -7q-88 -109 -88 -248t88 -248q-3 -2 -8 -7t-8 -7zM647 592q-57 72 -57 168q0 97 57 166l15 -15q-52 -69 -52 -151q0 -84 54 -154q-3 -2 -8.5 -7t-8.5 -7zM715 655q-33 48 -33 105q0 56 33 104q3 -2 8 -7t8 -7q-29 -44 -29 -90t29 -90q-3 -2 -16 -15zM774 709
q-14 25 -14 51t14 51l12 -10q-10 -20 -10 -41t10 -41q-4 -4 -12 -10zM852 123q-236 0 -412 158l2.5 2.5l5 5l5.5 5.5t2 1q171 -152 397 -152q227 0 395 152q2 -3 7.5 -8t7.5 -8q-177 -156 -410 -156zM852 664q-31 0 -55 18l12 12q21 -14 43 -14q26 0 43 14q4 -4 10 -12
q-21 -18 -53 -18zM987 653q-7 10 -14 15q28 42 28 92q0 51 -28 90l2.5 2.5t5 4.5t5.5 5t1 2q35 -44 35 -104t-35 -107zM598 551q-72 91 -72 209q0 119 74 209l14 -15q-67 -87 -67 -194q0 -108 67 -195q-10 -10 -16 -14zM852 -35q-145 0 -278 52.5t-238 146.5l14 16
q102 -92 231 -143t271 -51q285 0 500 192q0 1 3.5 -2.5t6.5 -7.5l4 -4q-104 -95 -236 -147t-278 -52zM852 248q-189 0 -330 125l15 16q134 -121 315 -121q182 0 313 121q2 -3 7.5 -8t7.5 -8q-138 -125 -328 -125zM852 348q-145 0 -264 101l14 14q108 -94 250 -94
q143 0 248 94q2 -3 7 -8.5t7 -8.5q-112 -98 -262 -98zM852 428q-116 0 -211 78l14 16q86 -73 197 -73t197 73q4 -4 12 -16q-91 -78 -209 -78zM852 543q-77 0 -135 49l14 16q51 -45 121 -45q68 0 119 45q2 -3 7 -8t7 -8q-58 -49 -133 -49zM733 911q-4 3 -7 6.5t-6 6.5l-3 4
q58 49 135 49t135 -49l-16 -17q-51 45 -119 45t-119 -45zM1167 1130q-134 121 -315 121q-179 0 -313 -118l-15 14q141 125 328 125q189 0 330 -125q-4 -6 -15 -17zM930 709l-12 10q10 20 10 41t-10 41l12 10q14 -25 14 -51t-14 -51zM958 682q-10 10 -16 14q21 32 21 64
t-21 63l16 15q25 -36 25 -78t-25 -78zM1020 627q-6 4 -16 14q38 50 38 119t-38 119l14 14q45 -57 45 -133q0 -71 -43 -133zM1106 551q-3 2 -8 7t-8 7q67 87 67 195t-70 194l17 15q74 -90 74 -209q0 -118 -72 -209zM1163 498q-10 10 -16 14q88 109 88 248t-88 248l16 14
q92 -116 92 -262t-92 -262zM1237 432q-6 4 -16 14q112 134 112 314q0 182 -112 313l16 14q117 -139 117 -327q0 -189 -117 -328zM1329 350q-2 2 -7 6t-7 6q141 175 141 398q0 227 -143 395l16 14q148 -179 148 -409q0 -231 -148 -410zM1446 246q-6 6 -16 14q180 215 180 500
t-180 500l16 14q88 -105 136 -237t48 -277q0 -144 -48 -276t-136 -238zM375 348q-148 182 -148 412q0 229 146 409q2 -2 7.5 -6.5t8.5 -7.5q-141 -170 -141 -395q0 -228 141 -398zM684 627q-43 59 -43 133t43 133q6 -4 16 -14q-38 -50 -38 -119q0 -67 38 -117zM745 682
q-24 34 -24 78t24 78q2 -3 4.5 -5.5t6 -5.5t4.5 -4q-19 -34 -19 -63q0 -30 19 -64zM809 825l-10 13q21 18 53 18t53 -18l-10 -13q-23 15 -43 15q-25 0 -43 -15zM786 852l-14 14q37 29 80 29q41 0 78 -29q-8 -8 -12 -14q-28 25 -66 25q-34 0 -66 -25zM760 881l-15 16
q45 39 107 39q61 0 106 -39l-14 -16q-37 34 -92 34t-92 -34zM604 1057l-14 16q112 98 262 98q151 0 262 -100q1 0 -2 -3.5t-6 -7.5l-4 -3q-108 94 -250 94q-143 0 -248 -94zM852 492q-100 0 -170 61l14 16q70 -57 156 -57q87 0 154 57l14 -14q-73 -63 -168 -63zM852 584
q-61 0 -109 39l15 16q47 -35 94 -35q51 0 92 35l14 -16q-45 -39 -106 -39zM852 625q-43 0 -82 28l14 15q36 -25 68 -25q34 0 66 25l14 -15q-36 -28 -80 -28zM698 950l-14 15q73 63 168 63q98 0 168 -61l-14 -17q-68 58 -154 58q-87 0 -154 -58zM655 997l-14 17q91 78 211 78
q119 0 209 -80l-12 -15q-83 74 -197 74q-110 0 -197 -74zM1249 1223q-166 153 -397 153q-227 0 -397 -151l-15 14q179 158 412 158t412 -158zM352 1339l-14 17q104 95 236 146.5t278 51.5q145 0 278 -52t238 -146l-14 -17q-102 93 -231 144t-271 51t-270 -51t-230 -144z
M1057 594l-15 14q52 69 52 152t-54 153l17 15q57 -72 57 -168q0 -97 -57 -166z" />
    <glyph glyph-name="Omega" unicode="&#x2126;" horiz-adv-x="1703" 
d="M258 246q-88 105 -136 237t-48 277q0 144 48 276t136 236q6 -4 14 -12q-85 -103 -131.5 -231.5t-46.5 -268.5q0 -285 180 -500zM467 432q-117 143 -117 328q0 183 115 327q3 -2 8 -7t8 -7q-110 -136 -110 -313q0 -182 110 -314zM541 498q-92 116 -92 262t92 262
q3 -2 8 -7t8 -7q-88 -109 -88 -248t88 -248q-3 -2 -8 -7t-8 -7zM647 592q-57 72 -57 168q0 97 57 166l15 -15q-52 -69 -52 -151q0 -84 54 -154q-3 -2 -8.5 -7t-8.5 -7zM715 655q-33 48 -33 105q0 56 33 104q3 -2 8 -7t8 -7q-29 -44 -29 -90t29 -90q-3 -2 -16 -15zM774 709
q-14 25 -14 51t14 51l12 -10q-10 -20 -10 -41t10 -41q-4 -4 -12 -10zM852 123q-236 0 -412 158l2.5 2.5l5 5l5.5 5.5t2 1q171 -152 397 -152q227 0 395 152q2 -3 7.5 -8t7.5 -8q-177 -156 -410 -156zM852 664q-31 0 -55 18l12 12q21 -14 43 -14q26 0 43 14q4 -4 10 -12
q-21 -18 -53 -18zM987 653q-7 10 -14 15q28 42 28 92q0 51 -28 90l2.5 2.5t5 4.5t5.5 5t1 2q35 -44 35 -104t-35 -107zM598 551q-72 91 -72 209q0 119 74 209l14 -15q-67 -87 -67 -194q0 -108 67 -195q-10 -10 -16 -14zM852 -35q-145 0 -278 52.5t-238 146.5l14 16
q102 -92 231 -143t271 -51q285 0 500 192q0 1 3.5 -2.5t6.5 -7.5l4 -4q-104 -95 -236 -147t-278 -52zM852 248q-189 0 -330 125l15 16q134 -121 315 -121q182 0 313 121q2 -3 7.5 -8t7.5 -8q-138 -125 -328 -125zM852 348q-145 0 -264 101l14 14q108 -94 250 -94
q143 0 248 94q2 -3 7 -8.5t7 -8.5q-112 -98 -262 -98zM852 428q-116 0 -211 78l14 16q86 -73 197 -73t197 73q4 -4 12 -16q-91 -78 -209 -78zM852 543q-77 0 -135 49l14 16q51 -45 121 -45q68 0 119 45q2 -3 7 -8t7 -8q-58 -49 -133 -49zM733 911q-4 3 -7 6.5t-6 6.5l-3 4
q58 49 135 49t135 -49l-16 -17q-51 45 -119 45t-119 -45zM1167 1130q-134 121 -315 121q-179 0 -313 -118l-15 14q141 125 328 125q189 0 330 -125q-4 -6 -15 -17zM930 709l-12 10q10 20 10 41t-10 41l12 10q14 -25 14 -51t-14 -51zM958 682q-10 10 -16 14q21 32 21 64
t-21 63l16 15q25 -36 25 -78t-25 -78zM1020 627q-6 4 -16 14q38 50 38 119t-38 119l14 14q45 -57 45 -133q0 -71 -43 -133zM1106 551q-3 2 -8 7t-8 7q67 87 67 195t-70 194l17 15q74 -90 74 -209q0 -118 -72 -209zM1163 498q-10 10 -16 14q88 109 88 248t-88 248l16 14
q92 -116 92 -262t-92 -262zM1237 432q-6 4 -16 14q112 134 112 314q0 182 -112 313l16 14q117 -139 117 -327q0 -189 -117 -328zM1329 350q-2 2 -7 6t-7 6q141 175 141 398q0 227 -143 395l16 14q148 -179 148 -409q0 -231 -148 -410zM1446 246q-6 6 -16 14q180 215 180 500
t-180 500l16 14q88 -105 136 -237t48 -277q0 -144 -48 -276t-136 -238zM375 348q-148 182 -148 412q0 229 146 409q2 -2 7.5 -6.5t8.5 -7.5q-141 -170 -141 -395q0 -228 141 -398zM684 627q-43 59 -43 133t43 133q6 -4 16 -14q-38 -50 -38 -119q0 -67 38 -117zM745 682
q-24 34 -24 78t24 78q2 -3 4.5 -5.5t6 -5.5t4.5 -4q-19 -34 -19 -63q0 -30 19 -64zM809 825l-10 13q21 18 53 18t53 -18l-10 -13q-23 15 -43 15q-25 0 -43 -15zM786 852l-14 14q37 29 80 29q41 0 78 -29q-8 -8 -12 -14q-28 25 -66 25q-34 0 -66 -25zM760 881l-15 16
q45 39 107 39q61 0 106 -39l-14 -16q-37 34 -92 34t-92 -34zM604 1057l-14 16q112 98 262 98q151 0 262 -100q1 0 -2 -3.5t-6 -7.5l-4 -3q-108 94 -250 94q-143 0 -248 -94zM852 492q-100 0 -170 61l14 16q70 -57 156 -57q87 0 154 57l14 -14q-73 -63 -168 -63zM852 584
q-61 0 -109 39l15 16q47 -35 94 -35q51 0 92 35l14 -16q-45 -39 -106 -39zM852 625q-43 0 -82 28l14 15q36 -25 68 -25q34 0 66 25l14 -15q-36 -28 -80 -28zM698 950l-14 15q73 63 168 63q98 0 168 -61l-14 -17q-68 58 -154 58q-87 0 -154 -58zM655 997l-14 17q91 78 211 78
q119 0 209 -80l-12 -15q-83 74 -197 74q-110 0 -197 -74zM1249 1223q-166 153 -397 153q-227 0 -397 -151l-15 14q179 158 412 158t412 -158zM352 1339l-14 17q104 95 236 146.5t278 51.5q145 0 278 -52t238 -146l-14 -17q-102 93 -231 144t-271 51t-270 -51t-230 -144z
M1057 594l-15 14q52 69 52 152t-54 153l17 15q57 -72 57 -168q0 -97 -57 -166z" />
    <glyph glyph-name="pi" unicode="&#x3c0;" horiz-adv-x="1718" 
d="M868 -25q-188 0 -333.5 56.5t-238 161t-140 247.5t-47.5 320t47.5 320.5t140.5 247t238 160t333 56.5q249 0 421.5 -99t255.5 -273t83 -412q0 -177 -48 -320t-141 -247.5t-238.5 -161t-332.5 -56.5zM868 37q174 0 308 52t218.5 148t127.5 227.5t43 295.5t-43 296
t-127.5 228t-218.5 147.5t-308 51.5q-175 0 -308.5 -51.5t-218 -147.5t-127 -227.5t-42.5 -296.5q0 -164 42.5 -295.5t127 -227.5t218 -148t308.5 -52zM532 209v1061h451q180 0 258 -70t78 -233q0 -165 -78.5 -240.5t-255.5 -75.5h-371v-442h-82zM614 727h373q130 0 189 55
t59 183q0 126 -58.5 176.5t-193.5 50.5h-369v-465z" />
    <glyph glyph-name="endash" unicode="&#x2013;" horiz-adv-x="1366" 
d="M74 567l20 97h1135l-21 -97h-1134z" />
    <glyph glyph-name="emdash" unicode="&#x2014;" horiz-adv-x="1820" 
d="M74 567l20 97h1589l-18 -97h-1591z" />
    <glyph glyph-name="quoteleft" unicode="&#x2018;" horiz-adv-x="456" 
d="M227 1114l31 152q22 108 60.5 162t127.5 98l27 -60q-64 -33 -92 -67t-41 -96h80l-39 -189h-154z" />
    <glyph glyph-name="quoteright" unicode="&#x2019;" horiz-adv-x="456" 
d="M246 1108l-27 59q64 33 92 66.5t41 95.5h-80l41 189h154l-33 -150q-24 -110 -62 -164t-126 -96z" />
    <glyph glyph-name="quotesinglbase" unicode="&#x201a;" horiz-adv-x="456" 
d="M-31 -182l-24 59q63 32 90.5 66t42.5 100h-80l39 186h153l-32 -151q-22 -107 -61.5 -162.5t-127.5 -97.5z" />
    <glyph glyph-name="quotedblleft" unicode="&#x201c;" horiz-adv-x="786" 
d="M225 1112l33 150q24 107 62 160.5t124 95.5l25 -60q-62 -31 -90 -64.5t-41 -97.5h80l-39 -184h-154zM557 1112l33 150q24 107 62 160.5t124 95.5l25 -60q-62 -31 -90 -64.5t-41 -97.5h80l-39 -184h-154z" />
    <glyph glyph-name="quotedblright" unicode="&#x201d;" horiz-adv-x="786" 
d="M246 1112l-27 57q64 33 92 66.5t41 97.5h-80l41 185h152l-33 -150q-22 -107 -60 -160.5t-126 -95.5zM578 1112l-27 57q64 33 92 66.5t41 97.5h-80l41 185h150l-31 -150q-22 -107 -60 -160.5t-126 -95.5z" />
    <glyph glyph-name="quotedblbase" unicode="&#x201e;" horiz-adv-x="786" 
d="M-31 -180l-24 59q63 31 90.5 64.5t40.5 99.5h-78l39 184h151l-30 -149q-24 -107 -63 -161.5t-126 -96.5zM301 -180l-25 59q64 31 91.5 65t40.5 99h-78l39 184h151l-31 -149q-24 -107 -62.5 -161.5t-125.5 -96.5z" />
    <glyph glyph-name="dagger" unicode="&#x2020;" horiz-adv-x="1073" 
d="M250 -340l289 1356h-359l21 96h356l102 477h105l-102 -477h358l-21 -96h-358l-287 -1356h-104z" />
    <glyph glyph-name="daggerdbl" unicode="&#x2021;" horiz-adv-x="1073" 
d="M250 -340l117 543h-359l21 98h356l154 715h-359l21 96h356l102 477h105l-102 -477h358l-21 -96h-358l-152 -715h359l-21 -98h-358l-115 -543h-104z" />
    <glyph glyph-name="bullet" unicode="&#x2022;" horiz-adv-x="671" 
d="M154 485l57 275h248l-58 -275h-247z" />
    <glyph glyph-name="ellipsis" unicode="&#x2026;" horiz-adv-x="1300" 
d="M-10 0l37 180h153l-37 -180h-153zM410 0l36 180h156l-39 -180h-153zM834 0l36 180h154l-37 -180h-153z" />
    <glyph glyph-name="perthousand" unicode="&#x2030;" horiz-adv-x="2957" 
d="M467 598q-170 0 -247 87.5t-77 238.5q0 121 29 230.5t83 197t139.5 139t191.5 51.5q170 0 247.5 -90t77.5 -242q0 -271 -123.5 -441.5t-320.5 -170.5zM473 686q102 0 180 68.5t119 186t41 265.5q0 246 -229 246q-85 0 -152.5 -45t-107.5 -120.5t-61 -167t-21 -191.5
q0 -242 231 -242zM1516 -23q-88 0 -152 24.5t-101.5 69.5t-55 103t-17.5 131q0 95 17.5 185t54.5 169t89 138t125 93t158 34q169 0 246.5 -91t77.5 -243q0 -270 -122.5 -441.5t-319.5 -171.5zM1520 66q155 0 247.5 147t92.5 375q0 246 -230 246q-84 0 -151 -45.5t-108 -121
t-62 -168t-21 -192.5q0 -241 232 -241zM2370 -23q-169 0 -246.5 88.5t-77.5 239.5q0 120 29 230t82.5 197.5t139.5 139.5t191 52q170 0 248 -91t78 -243q0 -270 -123.5 -441.5t-320.5 -171.5zM2376 66q154 0 247 147.5t93 374.5q0 246 -230 246q-85 0 -152.5 -45.5
t-107.5 -121t-61 -168t-21 -192.5q0 -241 232 -241zM451 0l1132 1518h100l-1132 -1518h-100z" />
    <glyph glyph-name="guilsinglleft" unicode="&#x2039;" horiz-adv-x="827" 
d="M332 0l-189 559l426 561h99l-424 -563l182 -557h-94z" />
    <glyph glyph-name="guilsinglright" unicode="&#x203a;" horiz-adv-x="827" 
d="M74 0l424 563l-183 557h95l188 -559l-426 -561h-98z" />
    <glyph glyph-name="fraction" unicode="&#x2044;" horiz-adv-x="954" 
d="M-164 0l1178 1518h100l-1175 -1518h-103z" />
    <glyph glyph-name="fraction" unicode="&#x2215;" horiz-adv-x="954" 
d="M-164 0l1178 1518h100l-1175 -1518h-103z" />
    <glyph glyph-name="Euro" unicode="&#x20ac;" horiz-adv-x="1282" 
d="M113 879l18 88h201q36 124 89 225.5t125 181t169 124t209 44.5q228 0 364 -90l-61 -84q-118 78 -303 78q-92 0 -171.5 -37t-139 -103.5t-103.5 -150.5t-76 -188h557l-16 -88h-563q-26 -115 -37 -209h553l-17 -88h-544q-5 -59 -5 -140q0 -180 80.5 -274t262.5 -94
q142 0 249 59l47 -82q-137 -76 -305 -76q-230 0 -333 119.5t-103 345.5q0 48 4 142h-215l19 88h204q9 79 35 209h-194z" />
    <glyph glyph-name="trademark" unicode="&#x2122;" horiz-adv-x="2203" 
d="M952 594l197 924h96l170 -809l518 809h101l-199 -924h-84l166 768l-492 -768h-65l-162 768l-166 -768h-80zM434 594l180 844h-327l18 80h739l-16 -80h-328l-180 -844h-86z" />
    <glyph glyph-name="partialdiff" unicode="&#x2202;" horiz-adv-x="1703" 
d="M258 246q-88 105 -136 237t-48 277q0 144 48 276t136 236q6 -4 14 -12q-85 -103 -131.5 -231.5t-46.5 -268.5q0 -285 180 -500zM467 432q-117 143 -117 328q0 183 115 327q3 -2 8 -7t8 -7q-110 -136 -110 -313q0 -182 110 -314zM541 498q-92 116 -92 262t92 262
q3 -2 8 -7t8 -7q-88 -109 -88 -248t88 -248q-3 -2 -8 -7t-8 -7zM647 592q-57 72 -57 168q0 97 57 166l15 -15q-52 -69 -52 -151q0 -84 54 -154q-3 -2 -8.5 -7t-8.5 -7zM715 655q-33 48 -33 105q0 56 33 104q3 -2 8 -7t8 -7q-29 -44 -29 -90t29 -90q-3 -2 -16 -15zM774 709
q-14 25 -14 51t14 51l12 -10q-10 -20 -10 -41t10 -41q-4 -4 -12 -10zM852 123q-236 0 -412 158l2.5 2.5l5 5l5.5 5.5t2 1q171 -152 397 -152q227 0 395 152q2 -3 7.5 -8t7.5 -8q-177 -156 -410 -156zM852 664q-31 0 -55 18l12 12q21 -14 43 -14q26 0 43 14q4 -4 10 -12
q-21 -18 -53 -18zM987 653q-7 10 -14 15q28 42 28 92q0 51 -28 90l2.5 2.5t5 4.5t5.5 5t1 2q35 -44 35 -104t-35 -107zM598 551q-72 91 -72 209q0 119 74 209l14 -15q-67 -87 -67 -194q0 -108 67 -195q-10 -10 -16 -14zM852 -35q-145 0 -278 52.5t-238 146.5l14 16
q102 -92 231 -143t271 -51q285 0 500 192q0 1 3.5 -2.5t6.5 -7.5l4 -4q-104 -95 -236 -147t-278 -52zM852 248q-189 0 -330 125l15 16q134 -121 315 -121q182 0 313 121q2 -3 7.5 -8t7.5 -8q-138 -125 -328 -125zM852 348q-145 0 -264 101l14 14q108 -94 250 -94
q143 0 248 94q2 -3 7 -8.5t7 -8.5q-112 -98 -262 -98zM852 428q-116 0 -211 78l14 16q86 -73 197 -73t197 73q4 -4 12 -16q-91 -78 -209 -78zM852 543q-77 0 -135 49l14 16q51 -45 121 -45q68 0 119 45q2 -3 7 -8t7 -8q-58 -49 -133 -49zM733 911q-4 3 -7 6.5t-6 6.5l-3 4
q58 49 135 49t135 -49l-16 -17q-51 45 -119 45t-119 -45zM1167 1130q-134 121 -315 121q-179 0 -313 -118l-15 14q141 125 328 125q189 0 330 -125q-4 -6 -15 -17zM930 709l-12 10q10 20 10 41t-10 41l12 10q14 -25 14 -51t-14 -51zM958 682q-10 10 -16 14q21 32 21 64
t-21 63l16 15q25 -36 25 -78t-25 -78zM1020 627q-6 4 -16 14q38 50 38 119t-38 119l14 14q45 -57 45 -133q0 -71 -43 -133zM1106 551q-3 2 -8 7t-8 7q67 87 67 195t-70 194l17 15q74 -90 74 -209q0 -118 -72 -209zM1163 498q-10 10 -16 14q88 109 88 248t-88 248l16 14
q92 -116 92 -262t-92 -262zM1237 432q-6 4 -16 14q112 134 112 314q0 182 -112 313l16 14q117 -139 117 -327q0 -189 -117 -328zM1329 350q-2 2 -7 6t-7 6q141 175 141 398q0 227 -143 395l16 14q148 -179 148 -409q0 -231 -148 -410zM1446 246q-6 6 -16 14q180 215 180 500
t-180 500l16 14q88 -105 136 -237t48 -277q0 -144 -48 -276t-136 -238zM375 348q-148 182 -148 412q0 229 146 409q2 -2 7.5 -6.5t8.5 -7.5q-141 -170 -141 -395q0 -228 141 -398zM684 627q-43 59 -43 133t43 133q6 -4 16 -14q-38 -50 -38 -119q0 -67 38 -117zM745 682
q-24 34 -24 78t24 78q2 -3 4.5 -5.5t6 -5.5t4.5 -4q-19 -34 -19 -63q0 -30 19 -64zM809 825l-10 13q21 18 53 18t53 -18l-10 -13q-23 15 -43 15q-25 0 -43 -15zM786 852l-14 14q37 29 80 29q41 0 78 -29q-8 -8 -12 -14q-28 25 -66 25q-34 0 -66 -25zM760 881l-15 16
q45 39 107 39q61 0 106 -39l-14 -16q-37 34 -92 34t-92 -34zM604 1057l-14 16q112 98 262 98q151 0 262 -100q1 0 -2 -3.5t-6 -7.5l-4 -3q-108 94 -250 94q-143 0 -248 -94zM852 492q-100 0 -170 61l14 16q70 -57 156 -57q87 0 154 57l14 -14q-73 -63 -168 -63zM852 584
q-61 0 -109 39l15 16q47 -35 94 -35q51 0 92 35l14 -16q-45 -39 -106 -39zM852 625q-43 0 -82 28l14 15q36 -25 68 -25q34 0 66 25l14 -15q-36 -28 -80 -28zM698 950l-14 15q73 63 168 63q98 0 168 -61l-14 -17q-68 58 -154 58q-87 0 -154 -58zM655 997l-14 17q91 78 211 78
q119 0 209 -80l-12 -15q-83 74 -197 74q-110 0 -197 -74zM1249 1223q-166 153 -397 153q-227 0 -397 -151l-15 14q179 158 412 158t412 -158zM352 1339l-14 17q104 95 236 146.5t278 51.5q145 0 278 -52t238 -146l-14 -17q-102 93 -231 144t-271 51t-270 -51t-230 -144z
M1057 594l-15 14q52 69 52 152t-54 153l17 15q57 -72 57 -168q0 -97 -57 -166z" />
    <glyph glyph-name="product" unicode="&#x220f;" horiz-adv-x="1703" 
d="M258 246q-88 105 -136 237t-48 277q0 144 48 276t136 236q6 -4 14 -12q-85 -103 -131.5 -231.5t-46.5 -268.5q0 -285 180 -500zM467 432q-117 143 -117 328q0 183 115 327q3 -2 8 -7t8 -7q-110 -136 -110 -313q0 -182 110 -314zM541 498q-92 116 -92 262t92 262
q3 -2 8 -7t8 -7q-88 -109 -88 -248t88 -248q-3 -2 -8 -7t-8 -7zM647 592q-57 72 -57 168q0 97 57 166l15 -15q-52 -69 -52 -151q0 -84 54 -154q-3 -2 -8.5 -7t-8.5 -7zM715 655q-33 48 -33 105q0 56 33 104q3 -2 8 -7t8 -7q-29 -44 -29 -90t29 -90q-3 -2 -16 -15zM774 709
q-14 25 -14 51t14 51l12 -10q-10 -20 -10 -41t10 -41q-4 -4 -12 -10zM852 123q-236 0 -412 158l2.5 2.5l5 5l5.5 5.5t2 1q171 -152 397 -152q227 0 395 152q2 -3 7.5 -8t7.5 -8q-177 -156 -410 -156zM852 664q-31 0 -55 18l12 12q21 -14 43 -14q26 0 43 14q4 -4 10 -12
q-21 -18 -53 -18zM987 653q-7 10 -14 15q28 42 28 92q0 51 -28 90l2.5 2.5t5 4.5t5.5 5t1 2q35 -44 35 -104t-35 -107zM598 551q-72 91 -72 209q0 119 74 209l14 -15q-67 -87 -67 -194q0 -108 67 -195q-10 -10 -16 -14zM852 -35q-145 0 -278 52.5t-238 146.5l14 16
q102 -92 231 -143t271 -51q285 0 500 192q0 1 3.5 -2.5t6.5 -7.5l4 -4q-104 -95 -236 -147t-278 -52zM852 248q-189 0 -330 125l15 16q134 -121 315 -121q182 0 313 121q2 -3 7.5 -8t7.5 -8q-138 -125 -328 -125zM852 348q-145 0 -264 101l14 14q108 -94 250 -94
q143 0 248 94q2 -3 7 -8.5t7 -8.5q-112 -98 -262 -98zM852 428q-116 0 -211 78l14 16q86 -73 197 -73t197 73q4 -4 12 -16q-91 -78 -209 -78zM852 543q-77 0 -135 49l14 16q51 -45 121 -45q68 0 119 45q2 -3 7 -8t7 -8q-58 -49 -133 -49zM733 911q-4 3 -7 6.5t-6 6.5l-3 4
q58 49 135 49t135 -49l-16 -17q-51 45 -119 45t-119 -45zM1167 1130q-134 121 -315 121q-179 0 -313 -118l-15 14q141 125 328 125q189 0 330 -125q-4 -6 -15 -17zM930 709l-12 10q10 20 10 41t-10 41l12 10q14 -25 14 -51t-14 -51zM958 682q-10 10 -16 14q21 32 21 64
t-21 63l16 15q25 -36 25 -78t-25 -78zM1020 627q-6 4 -16 14q38 50 38 119t-38 119l14 14q45 -57 45 -133q0 -71 -43 -133zM1106 551q-3 2 -8 7t-8 7q67 87 67 195t-70 194l17 15q74 -90 74 -209q0 -118 -72 -209zM1163 498q-10 10 -16 14q88 109 88 248t-88 248l16 14
q92 -116 92 -262t-92 -262zM1237 432q-6 4 -16 14q112 134 112 314q0 182 -112 313l16 14q117 -139 117 -327q0 -189 -117 -328zM1329 350q-2 2 -7 6t-7 6q141 175 141 398q0 227 -143 395l16 14q148 -179 148 -409q0 -231 -148 -410zM1446 246q-6 6 -16 14q180 215 180 500
t-180 500l16 14q88 -105 136 -237t48 -277q0 -144 -48 -276t-136 -238zM375 348q-148 182 -148 412q0 229 146 409q2 -2 7.5 -6.5t8.5 -7.5q-141 -170 -141 -395q0 -228 141 -398zM684 627q-43 59 -43 133t43 133q6 -4 16 -14q-38 -50 -38 -119q0 -67 38 -117zM745 682
q-24 34 -24 78t24 78q2 -3 4.5 -5.5t6 -5.5t4.5 -4q-19 -34 -19 -63q0 -30 19 -64zM809 825l-10 13q21 18 53 18t53 -18l-10 -13q-23 15 -43 15q-25 0 -43 -15zM786 852l-14 14q37 29 80 29q41 0 78 -29q-8 -8 -12 -14q-28 25 -66 25q-34 0 -66 -25zM760 881l-15 16
q45 39 107 39q61 0 106 -39l-14 -16q-37 34 -92 34t-92 -34zM604 1057l-14 16q112 98 262 98q151 0 262 -100q1 0 -2 -3.5t-6 -7.5l-4 -3q-108 94 -250 94q-143 0 -248 -94zM852 492q-100 0 -170 61l14 16q70 -57 156 -57q87 0 154 57l14 -14q-73 -63 -168 -63zM852 584
q-61 0 -109 39l15 16q47 -35 94 -35q51 0 92 35l14 -16q-45 -39 -106 -39zM852 625q-43 0 -82 28l14 15q36 -25 68 -25q34 0 66 25l14 -15q-36 -28 -80 -28zM698 950l-14 15q73 63 168 63q98 0 168 -61l-14 -17q-68 58 -154 58q-87 0 -154 -58zM655 997l-14 17q91 78 211 78
q119 0 209 -80l-12 -15q-83 74 -197 74q-110 0 -197 -74zM1249 1223q-166 153 -397 153q-227 0 -397 -151l-15 14q179 158 412 158t412 -158zM352 1339l-14 17q104 95 236 146.5t278 51.5q145 0 278 -52t238 -146l-14 -17q-102 93 -231 144t-271 51t-270 -51t-230 -144z
M1057 594l-15 14q52 69 52 152t-54 153l17 15q57 -72 57 -168q0 -97 -57 -166z" />
    <glyph glyph-name="summation" unicode="&#x2211;" horiz-adv-x="1703" 
d="M258 246q-88 105 -136 237t-48 277q0 144 48 276t136 236q6 -4 14 -12q-85 -103 -131.5 -231.5t-46.5 -268.5q0 -285 180 -500zM467 432q-117 143 -117 328q0 183 115 327q3 -2 8 -7t8 -7q-110 -136 -110 -313q0 -182 110 -314zM541 498q-92 116 -92 262t92 262
q3 -2 8 -7t8 -7q-88 -109 -88 -248t88 -248q-3 -2 -8 -7t-8 -7zM647 592q-57 72 -57 168q0 97 57 166l15 -15q-52 -69 -52 -151q0 -84 54 -154q-3 -2 -8.5 -7t-8.5 -7zM715 655q-33 48 -33 105q0 56 33 104q3 -2 8 -7t8 -7q-29 -44 -29 -90t29 -90q-3 -2 -16 -15zM774 709
q-14 25 -14 51t14 51l12 -10q-10 -20 -10 -41t10 -41q-4 -4 -12 -10zM852 123q-236 0 -412 158l2.5 2.5l5 5l5.5 5.5t2 1q171 -152 397 -152q227 0 395 152q2 -3 7.5 -8t7.5 -8q-177 -156 -410 -156zM852 664q-31 0 -55 18l12 12q21 -14 43 -14q26 0 43 14q4 -4 10 -12
q-21 -18 -53 -18zM987 653q-7 10 -14 15q28 42 28 92q0 51 -28 90l2.5 2.5t5 4.5t5.5 5t1 2q35 -44 35 -104t-35 -107zM598 551q-72 91 -72 209q0 119 74 209l14 -15q-67 -87 -67 -194q0 -108 67 -195q-10 -10 -16 -14zM852 -35q-145 0 -278 52.5t-238 146.5l14 16
q102 -92 231 -143t271 -51q285 0 500 192q0 1 3.5 -2.5t6.5 -7.5l4 -4q-104 -95 -236 -147t-278 -52zM852 248q-189 0 -330 125l15 16q134 -121 315 -121q182 0 313 121q2 -3 7.5 -8t7.5 -8q-138 -125 -328 -125zM852 348q-145 0 -264 101l14 14q108 -94 250 -94
q143 0 248 94q2 -3 7 -8.5t7 -8.5q-112 -98 -262 -98zM852 428q-116 0 -211 78l14 16q86 -73 197 -73t197 73q4 -4 12 -16q-91 -78 -209 -78zM852 543q-77 0 -135 49l14 16q51 -45 121 -45q68 0 119 45q2 -3 7 -8t7 -8q-58 -49 -133 -49zM733 911q-4 3 -7 6.5t-6 6.5l-3 4
q58 49 135 49t135 -49l-16 -17q-51 45 -119 45t-119 -45zM1167 1130q-134 121 -315 121q-179 0 -313 -118l-15 14q141 125 328 125q189 0 330 -125q-4 -6 -15 -17zM930 709l-12 10q10 20 10 41t-10 41l12 10q14 -25 14 -51t-14 -51zM958 682q-10 10 -16 14q21 32 21 64
t-21 63l16 15q25 -36 25 -78t-25 -78zM1020 627q-6 4 -16 14q38 50 38 119t-38 119l14 14q45 -57 45 -133q0 -71 -43 -133zM1106 551q-3 2 -8 7t-8 7q67 87 67 195t-70 194l17 15q74 -90 74 -209q0 -118 -72 -209zM1163 498q-10 10 -16 14q88 109 88 248t-88 248l16 14
q92 -116 92 -262t-92 -262zM1237 432q-6 4 -16 14q112 134 112 314q0 182 -112 313l16 14q117 -139 117 -327q0 -189 -117 -328zM1329 350q-2 2 -7 6t-7 6q141 175 141 398q0 227 -143 395l16 14q148 -179 148 -409q0 -231 -148 -410zM1446 246q-6 6 -16 14q180 215 180 500
t-180 500l16 14q88 -105 136 -237t48 -277q0 -144 -48 -276t-136 -238zM375 348q-148 182 -148 412q0 229 146 409q2 -2 7.5 -6.5t8.5 -7.5q-141 -170 -141 -395q0 -228 141 -398zM684 627q-43 59 -43 133t43 133q6 -4 16 -14q-38 -50 -38 -119q0 -67 38 -117zM745 682
q-24 34 -24 78t24 78q2 -3 4.5 -5.5t6 -5.5t4.5 -4q-19 -34 -19 -63q0 -30 19 -64zM809 825l-10 13q21 18 53 18t53 -18l-10 -13q-23 15 -43 15q-25 0 -43 -15zM786 852l-14 14q37 29 80 29q41 0 78 -29q-8 -8 -12 -14q-28 25 -66 25q-34 0 -66 -25zM760 881l-15 16
q45 39 107 39q61 0 106 -39l-14 -16q-37 34 -92 34t-92 -34zM604 1057l-14 16q112 98 262 98q151 0 262 -100q1 0 -2 -3.5t-6 -7.5l-4 -3q-108 94 -250 94q-143 0 -248 -94zM852 492q-100 0 -170 61l14 16q70 -57 156 -57q87 0 154 57l14 -14q-73 -63 -168 -63zM852 584
q-61 0 -109 39l15 16q47 -35 94 -35q51 0 92 35l14 -16q-45 -39 -106 -39zM852 625q-43 0 -82 28l14 15q36 -25 68 -25q34 0 66 25l14 -15q-36 -28 -80 -28zM698 950l-14 15q73 63 168 63q98 0 168 -61l-14 -17q-68 58 -154 58q-87 0 -154 -58zM655 997l-14 17q91 78 211 78
q119 0 209 -80l-12 -15q-83 74 -197 74q-110 0 -197 -74zM1249 1223q-166 153 -397 153q-227 0 -397 -151l-15 14q179 158 412 158t412 -158zM352 1339l-14 17q104 95 236 146.5t278 51.5q145 0 278 -52t238 -146l-14 -17q-102 93 -231 144t-271 51t-270 -51t-230 -144z
M1057 594l-15 14q52 69 52 152t-54 153l17 15q57 -72 57 -168q0 -97 -57 -166z" />
    <glyph glyph-name="minus" unicode="&#x2212;" horiz-adv-x="1409" 
d="M205 674l22 98h957l-23 -98h-956z" />
    <glyph glyph-name="radical" unicode="&#x221a;" horiz-adv-x="1337" 
d="M309 -10l-147 819h102l125 -690l852 1399h107l-930 -1528h-109z" />
    <glyph glyph-name="infinity" unicode="&#x221e;" horiz-adv-x="1757" 
d="M643 -338l291 1364h-496l-288 -1364h-105l289 1364h-213l20 94h213l35 164q16 75 41 128.5t67 94.5t106 61.5t151 20.5h96l-21 -94h-73q-67 0 -115 -16t-77.5 -48t-46 -69.5t-28.5 -91.5l-32 -150h497l35 164q33 154 114 229.5t251 75.5h94l-18 -94h-74q-67 0 -114.5 -16
t-77 -48t-46 -69.5t-28.5 -91.5l-33 -150h293l-21 -94h-293l-288 -1364h-105zM1315 0l237 1120h105l-238 -1120h-104zM1589 1284l41 199h105l-41 -199h-105z" />
    <glyph glyph-name="integral" unicode="&#x222b;" horiz-adv-x="1703" 
d="M258 246q-88 105 -136 237t-48 277q0 144 48 276t136 236q6 -4 14 -12q-85 -103 -131.5 -231.5t-46.5 -268.5q0 -285 180 -500zM467 432q-117 143 -117 328q0 183 115 327q3 -2 8 -7t8 -7q-110 -136 -110 -313q0 -182 110 -314zM541 498q-92 116 -92 262t92 262
q3 -2 8 -7t8 -7q-88 -109 -88 -248t88 -248q-3 -2 -8 -7t-8 -7zM647 592q-57 72 -57 168q0 97 57 166l15 -15q-52 -69 -52 -151q0 -84 54 -154q-3 -2 -8.5 -7t-8.5 -7zM715 655q-33 48 -33 105q0 56 33 104q3 -2 8 -7t8 -7q-29 -44 -29 -90t29 -90q-3 -2 -16 -15zM774 709
q-14 25 -14 51t14 51l12 -10q-10 -20 -10 -41t10 -41q-4 -4 -12 -10zM852 123q-236 0 -412 158l2.5 2.5l5 5l5.5 5.5t2 1q171 -152 397 -152q227 0 395 152q2 -3 7.5 -8t7.5 -8q-177 -156 -410 -156zM852 664q-31 0 -55 18l12 12q21 -14 43 -14q26 0 43 14q4 -4 10 -12
q-21 -18 -53 -18zM987 653q-7 10 -14 15q28 42 28 92q0 51 -28 90l2.5 2.5t5 4.5t5.5 5t1 2q35 -44 35 -104t-35 -107zM598 551q-72 91 -72 209q0 119 74 209l14 -15q-67 -87 -67 -194q0 -108 67 -195q-10 -10 -16 -14zM852 -35q-145 0 -278 52.5t-238 146.5l14 16
q102 -92 231 -143t271 -51q285 0 500 192q0 1 3.5 -2.5t6.5 -7.5l4 -4q-104 -95 -236 -147t-278 -52zM852 248q-189 0 -330 125l15 16q134 -121 315 -121q182 0 313 121q2 -3 7.5 -8t7.5 -8q-138 -125 -328 -125zM852 348q-145 0 -264 101l14 14q108 -94 250 -94
q143 0 248 94q2 -3 7 -8.5t7 -8.5q-112 -98 -262 -98zM852 428q-116 0 -211 78l14 16q86 -73 197 -73t197 73q4 -4 12 -16q-91 -78 -209 -78zM852 543q-77 0 -135 49l14 16q51 -45 121 -45q68 0 119 45q2 -3 7 -8t7 -8q-58 -49 -133 -49zM733 911q-4 3 -7 6.5t-6 6.5l-3 4
q58 49 135 49t135 -49l-16 -17q-51 45 -119 45t-119 -45zM1167 1130q-134 121 -315 121q-179 0 -313 -118l-15 14q141 125 328 125q189 0 330 -125q-4 -6 -15 -17zM930 709l-12 10q10 20 10 41t-10 41l12 10q14 -25 14 -51t-14 -51zM958 682q-10 10 -16 14q21 32 21 64
t-21 63l16 15q25 -36 25 -78t-25 -78zM1020 627q-6 4 -16 14q38 50 38 119t-38 119l14 14q45 -57 45 -133q0 -71 -43 -133zM1106 551q-3 2 -8 7t-8 7q67 87 67 195t-70 194l17 15q74 -90 74 -209q0 -118 -72 -209zM1163 498q-10 10 -16 14q88 109 88 248t-88 248l16 14
q92 -116 92 -262t-92 -262zM1237 432q-6 4 -16 14q112 134 112 314q0 182 -112 313l16 14q117 -139 117 -327q0 -189 -117 -328zM1329 350q-2 2 -7 6t-7 6q141 175 141 398q0 227 -143 395l16 14q148 -179 148 -409q0 -231 -148 -410zM1446 246q-6 6 -16 14q180 215 180 500
t-180 500l16 14q88 -105 136 -237t48 -277q0 -144 -48 -276t-136 -238zM375 348q-148 182 -148 412q0 229 146 409q2 -2 7.5 -6.5t8.5 -7.5q-141 -170 -141 -395q0 -228 141 -398zM684 627q-43 59 -43 133t43 133q6 -4 16 -14q-38 -50 -38 -119q0 -67 38 -117zM745 682
q-24 34 -24 78t24 78q2 -3 4.5 -5.5t6 -5.5t4.5 -4q-19 -34 -19 -63q0 -30 19 -64zM809 825l-10 13q21 18 53 18t53 -18l-10 -13q-23 15 -43 15q-25 0 -43 -15zM786 852l-14 14q37 29 80 29q41 0 78 -29q-8 -8 -12 -14q-28 25 -66 25q-34 0 -66 -25zM760 881l-15 16
q45 39 107 39q61 0 106 -39l-14 -16q-37 34 -92 34t-92 -34zM604 1057l-14 16q112 98 262 98q151 0 262 -100q1 0 -2 -3.5t-6 -7.5l-4 -3q-108 94 -250 94q-143 0 -248 -94zM852 492q-100 0 -170 61l14 16q70 -57 156 -57q87 0 154 57l14 -14q-73 -63 -168 -63zM852 584
q-61 0 -109 39l15 16q47 -35 94 -35q51 0 92 35l14 -16q-45 -39 -106 -39zM852 625q-43 0 -82 28l14 15q36 -25 68 -25q34 0 66 25l14 -15q-36 -28 -80 -28zM698 950l-14 15q73 63 168 63q98 0 168 -61l-14 -17q-68 58 -154 58q-87 0 -154 -58zM655 997l-14 17q91 78 211 78
q119 0 209 -80l-12 -15q-83 74 -197 74q-110 0 -197 -74zM1249 1223q-166 153 -397 153q-227 0 -397 -151l-15 14q179 158 412 158t412 -158zM352 1339l-14 17q104 95 236 146.5t278 51.5q145 0 278 -52t238 -146l-14 -17q-102 93 -231 144t-271 51t-270 -51t-230 -144z
M1057 594l-15 14q52 69 52 152t-54 153l17 15q57 -72 57 -168q0 -97 -57 -166z" />
    <glyph glyph-name="approxequal" unicode="&#x2248;" horiz-adv-x="1409" 
d="M227 381l-61 57q60 67 139 111.5t156 44.5q61 0 116 -19t89 -41.5t78 -41.5t85 -19q87 0 228 137l59 -59q-168 -168 -289 -168q-54 0 -103.5 19t-82 41.5t-82 41.5t-102.5 19q-56 0 -118.5 -36t-111.5 -87zM324 827l-62 60q61 66 139.5 110.5t153.5 44.5q61 0 116.5 -19
t89.5 -42t78 -42t85 -19q85 0 229 139l59 -62q-168 -168 -290 -168q-44 0 -84 12.5t-70.5 30.5t-61.5 36.5t-70.5 31t-82.5 12.5q-56 0 -118.5 -37t-110.5 -88z" />
    <glyph glyph-name="notequal" unicode="&#x2260;" horiz-adv-x="1331" 
d="M643 -338l291 1364h-496l-288 -1364h-105l289 1364h-213l20 94h213l35 164q16 75 41 128.5t67 94.5t106 61.5t151 20.5h96l-21 -94h-73q-67 0 -115 -16t-77.5 -48t-46 -69.5t-28.5 -91.5l-32 -150h497l35 164q33 154 114 229.5t251 75.5h100l-18 -94h-80
q-67 0 -114.5 -16t-77 -48t-46 -69.5t-28.5 -91.5l-33 -150h299l-21 -94h-299l-288 -1364h-105z" />
    <glyph glyph-name="lessequal" unicode="&#x2264;" horiz-adv-x="1409" 
d="M1006 233l-813 447l16 82l1001 446l-18 -100l-891 -391l723 -391zM55 43l19 92h909l-20 -92h-908z" />
    <glyph glyph-name="greaterequal" unicode="&#x2265;" horiz-adv-x="1409" 
d="M180 233l19 97l888 391l-722 391l20 96l813 -446l-16 -82zM137 43l19 92h907l-21 -92h-905z" />
    <glyph glyph-name="lozenge" unicode="&#x25ca;" horiz-adv-x="1355" 
d="M121 1026l20 94h213l35 164q16 75 41 128.5t67 94.5t106 61.5t151 20.5h82l-21 -94h-59q-67 0 -115 -16t-77.5 -48t-46 -69.5t-28.5 -91.5l-32 -150h481l96 361l86 12l-80 -373h287l-18 -94h-289l-160 -750q-11 -56 -10.5 -96.5t37 -63t114.5 -22.5h107l-18 -94
q-8 -2 -111 -2q-74 0 -123 15t-74 38.5t-33 63.5t-4.5 78.5t15.5 95.5l155 737h-477l-288 -1364h-105l289 1364h-213z" />
    <glyph glyph-name="apple" unicode="&#xf8ff;" horiz-adv-x="1703" 
d="M258 246q-88 105 -136 237t-48 277q0 144 48 276t136 236q6 -4 14 -12q-85 -103 -131.5 -231.5t-46.5 -268.5q0 -285 180 -500zM467 432q-117 143 -117 328q0 183 115 327q3 -2 8 -7t8 -7q-110 -136 -110 -313q0 -182 110 -314zM541 498q-92 116 -92 262t92 262
q3 -2 8 -7t8 -7q-88 -109 -88 -248t88 -248q-3 -2 -8 -7t-8 -7zM647 592q-57 72 -57 168q0 97 57 166l15 -15q-52 -69 -52 -151q0 -84 54 -154q-3 -2 -8.5 -7t-8.5 -7zM715 655q-33 48 -33 105q0 56 33 104q3 -2 8 -7t8 -7q-29 -44 -29 -90t29 -90q-3 -2 -16 -15zM774 709
q-14 25 -14 51t14 51l12 -10q-10 -20 -10 -41t10 -41q-4 -4 -12 -10zM852 123q-236 0 -412 158l2.5 2.5l5 5l5.5 5.5t2 1q171 -152 397 -152q227 0 395 152q2 -3 7.5 -8t7.5 -8q-177 -156 -410 -156zM852 664q-31 0 -55 18l12 12q21 -14 43 -14q26 0 43 14q4 -4 10 -12
q-21 -18 -53 -18zM987 653q-7 10 -14 15q28 42 28 92q0 51 -28 90l2.5 2.5t5 4.5t5.5 5t1 2q35 -44 35 -104t-35 -107zM598 551q-72 91 -72 209q0 119 74 209l14 -15q-67 -87 -67 -194q0 -108 67 -195q-10 -10 -16 -14zM852 -35q-145 0 -278 52.5t-238 146.5l14 16
q102 -92 231 -143t271 -51q285 0 500 192q0 1 3.5 -2.5t6.5 -7.5l4 -4q-104 -95 -236 -147t-278 -52zM852 248q-189 0 -330 125l15 16q134 -121 315 -121q182 0 313 121q2 -3 7.5 -8t7.5 -8q-138 -125 -328 -125zM852 348q-145 0 -264 101l14 14q108 -94 250 -94
q143 0 248 94q2 -3 7 -8.5t7 -8.5q-112 -98 -262 -98zM852 428q-116 0 -211 78l14 16q86 -73 197 -73t197 73q4 -4 12 -16q-91 -78 -209 -78zM852 543q-77 0 -135 49l14 16q51 -45 121 -45q68 0 119 45q2 -3 7 -8t7 -8q-58 -49 -133 -49zM733 911q-4 3 -7 6.5t-6 6.5l-3 4
q58 49 135 49t135 -49l-16 -17q-51 45 -119 45t-119 -45zM1167 1130q-134 121 -315 121q-179 0 -313 -118l-15 14q141 125 328 125q189 0 330 -125q-4 -6 -15 -17zM930 709l-12 10q10 20 10 41t-10 41l12 10q14 -25 14 -51t-14 -51zM958 682q-10 10 -16 14q21 32 21 64
t-21 63l16 15q25 -36 25 -78t-25 -78zM1020 627q-6 4 -16 14q38 50 38 119t-38 119l14 14q45 -57 45 -133q0 -71 -43 -133zM1106 551q-3 2 -8 7t-8 7q67 87 67 195t-70 194l17 15q74 -90 74 -209q0 -118 -72 -209zM1163 498q-10 10 -16 14q88 109 88 248t-88 248l16 14
q92 -116 92 -262t-92 -262zM1237 432q-6 4 -16 14q112 134 112 314q0 182 -112 313l16 14q117 -139 117 -327q0 -189 -117 -328zM1329 350q-2 2 -7 6t-7 6q141 175 141 398q0 227 -143 395l16 14q148 -179 148 -409q0 -231 -148 -410zM1446 246q-6 6 -16 14q180 215 180 500
t-180 500l16 14q88 -105 136 -237t48 -277q0 -144 -48 -276t-136 -238zM375 348q-148 182 -148 412q0 229 146 409q2 -2 7.5 -6.5t8.5 -7.5q-141 -170 -141 -395q0 -228 141 -398zM684 627q-43 59 -43 133t43 133q6 -4 16 -14q-38 -50 -38 -119q0 -67 38 -117zM745 682
q-24 34 -24 78t24 78q2 -3 4.5 -5.5t6 -5.5t4.5 -4q-19 -34 -19 -63q0 -30 19 -64zM809 825l-10 13q21 18 53 18t53 -18l-10 -13q-23 15 -43 15q-25 0 -43 -15zM786 852l-14 14q37 29 80 29q41 0 78 -29q-8 -8 -12 -14q-28 25 -66 25q-34 0 -66 -25zM760 881l-15 16
q45 39 107 39q61 0 106 -39l-14 -16q-37 34 -92 34t-92 -34zM604 1057l-14 16q112 98 262 98q151 0 262 -100q1 0 -2 -3.5t-6 -7.5l-4 -3q-108 94 -250 94q-143 0 -248 -94zM852 492q-100 0 -170 61l14 16q70 -57 156 -57q87 0 154 57l14 -14q-73 -63 -168 -63zM852 584
q-61 0 -109 39l15 16q47 -35 94 -35q51 0 92 35l14 -16q-45 -39 -106 -39zM852 625q-43 0 -82 28l14 15q36 -25 68 -25q34 0 66 25l14 -15q-36 -28 -80 -28zM698 950l-14 15q73 63 168 63q98 0 168 -61l-14 -17q-68 58 -154 58q-87 0 -154 -58zM655 997l-14 17q91 78 211 78
q119 0 209 -80l-12 -15q-83 74 -197 74q-110 0 -197 -74zM1249 1223q-166 153 -397 153q-227 0 -397 -151l-15 14q179 158 412 158t412 -158zM352 1339l-14 17q104 95 236 146.5t278 51.5q145 0 278 -52t238 -146l-14 -17q-102 93 -231 144t-271 51t-270 -51t-230 -144z
M1057 594l-15 14q52 69 52 152t-54 153l17 15q57 -72 57 -168q0 -97 -57 -166z" />
    </font>
</defs>
</svg>
