<?xml version="1.0" standalone="no"?>
<!DOCTYPE svg PUBLIC "-//W3C//DTD SVG 1.1//EN" "http://www.w3.org/Graphics/SVG/1.1/DTD/svg11.dtd" >
<svg xmlns="http://www.w3.org/2000/svg" xmlns:xlink="http://www.w3.org/1999/xlink" version="1.1">
<metadata>
Created by FontForge 20201107 at Wed Dec 24 15:02:13 2025
 By 
Copyright (c) The Font Bureau, Inc., 2003. All rights reserved.
</metadata>
<defs>
<font id="AntennaExtraCond-MediumItalic" horiz-adv-x="749" >
  <font-face 
    font-family="AntennaExtraCond MediumItalic"
    font-weight="500"
    font-style="italic"
    font-stretch="normal"
    units-per-em="2048"
    panose-1="2 0 6 6 0 0 0 2 0 4"
    ascent="1638"
    descent="-410"
    x-height="1145"
    cap-height="1518"
    bbox="-188 -444 2105 1905"
    underline-thickness="102"
    underline-position="-204"
    slope="-8"
    unicode-range="U+0020-FB02"
  />
<missing-glyph horiz-adv-x="268" 
 />
    <glyph glyph-name="fi" unicode="fi" horiz-adv-x="888" 
d="M51 958l27 187h137l21 147q20 149 93.5 211t233.5 62q47 0 55 -2l-24 -183h-41q-60 0 -83 -23t-32 -95l-16 -117h139l-26 -187h-140l-178 -1269h-205l176 1269h-137zM489 0l162 1145h207l-162 -1145h-207zM668 1272l34 241h207l-32 -241h-209z" />
    <glyph glyph-name="fl" unicode="fl" horiz-adv-x="948" 
d="M51 958l27 187h137l21 147q20 149 93.5 211t233.5 62q47 0 55 -2l-24 -183h-41q-60 0 -83 -23t-32 -95l-16 -117h139l-26 -187h-140l-178 -1269h-205l176 1269h-137zM752 -2q-155 0 -200.5 57t-23.5 213l181 1295h206l-178 -1278q-9 -66 1.5 -83.5t66.5 -17.5h14
l-26 -184q-4 -2 -41 -2z" />
    <glyph glyph-name="f_f_l" unicode="ffl" horiz-adv-x="1386" 
d="M449 -311l178 1269h-232l-178 -1269h-205l176 1269h-137l27 187h137l21 147q20 149 93.5 211t233.5 62q56 0 64 -2l-25 -183h-49q-60 0 -83 -23t-32 -95l-16 -117h231l21 147q20 149 93 211t234 62q46 0 56 -2l-27 -183h-39q-61 0 -83.5 -23t-33.5 -95l-16 -117h139
l-24 -187h-142l-178 -1269h-204zM1190 -2q-155 0 -201 57t-24 213l182 1295h207l-180 -1278q-9 -65 1.5 -83t67.5 -18h14l-26 -184q-6 -2 -41 -2z" />
    <glyph glyph-name="f_f_i" unicode="ffi" horiz-adv-x="1327" 
d="M449 -311l178 1269h-232l-178 -1269h-205l176 1269h-137l27 187h137l21 147q20 149 93.5 211t233.5 62q56 0 64 -2l-25 -183h-49q-60 0 -83 -23t-32 -95l-16 -117h231l21 147q20 149 93 211t234 62q46 0 56 -2l-27 -183h-39q-61 0 -83.5 -23t-33.5 -95l-16 -117h139
l-24 -187h-142l-178 -1269h-204zM928 0l159 1145h209l-161 -1145h-207zM1106 1272l33 241h207l-33 -241h-207z" />
    <glyph glyph-name="f_j" unicode="fj" horiz-adv-x="888" 
d="M51 958l27 187h137l21 147q20 149 93.5 211t233.5 62q47 0 55 -2l-24 -183h-41q-60 0 -83 -23t-32 -95l-16 -117h139l-26 -187h-140l-178 -1269h-205l176 1269h-137zM375 -311l24 182q50 0 64 17t22 79l166 1178h207l-168 -1202q-12 -82 -32 -131.5t-59.5 -77
t-89.5 -36.5t-134 -9zM668 1272l34 241h207l-32 -241h-209z" />
    <glyph glyph-name="f_f" unicode="ff" horiz-adv-x="1007" 
d="M449 -311l178 1269h-232l-178 -1269h-205l176 1269h-137l27 187h137l21 147q20 149 93.5 211t233.5 62q56 0 64 -2l-25 -183h-49q-60 0 -83 -23t-32 -95l-16 -117h231l21 147q21 150 94.5 211.5t241.5 61.5q88 0 96 -2l-25 -187h-69q-76 -1 -102.5 -25t-37.5 -98
l-16 -108h193l-25 -187h-193l-178 -1269h-204z" />
    <glyph glyph-name=".notdef" horiz-adv-x="268" 
 />
    <glyph glyph-name=".null" horiz-adv-x="0" 
 />
    <glyph glyph-name="nonmarkingreturn" horiz-adv-x="682" 
 />
    <glyph glyph-name="space" unicode=" " horiz-adv-x="268" 
 />
    <glyph glyph-name="space" unicode="&#xa0;" horiz-adv-x="268" 
 />
    <glyph glyph-name="exclam" unicode="!" horiz-adv-x="524" 
d="M37 0l37 274h239l-39 -274h-237zM125 438l131 1080h227l-172 -1080h-186z" />
    <glyph glyph-name="quotedbl" unicode="&#x22;" horiz-adv-x="761" 
d="M147 903l74 615h211l-94 -615h-191zM469 903l74 615h215l-101 -615h-188z" />
    <glyph glyph-name="numbersign" unicode="#" horiz-adv-x="964" 
d="M115 0l61 446h-149l26 197h150l28 193h-149l27 196h149l70 486h190l-67 -486h129l69 486h191l-68 -486h166l-29 -196h-164l-28 -193h166l-27 -197h-166l-61 -446h-193l62 446h-129l-62 -446h-192zM383 629h152l30 221h-151z" />
    <glyph glyph-name="dollar" unicode="$" horiz-adv-x="798" 
d="M174 -188l27 188q-89 7 -150.5 26t-124.5 52l90 172q124 -68 271 -68q85 0 139.5 50.5t54.5 152.5q0 46 -31 104.5t-143 239.5q-13 20 -41 64.5t-37.5 60t-30 49.5t-27 49t-19 42.5t-16.5 46t-7.5 42t-3.5 47.5q0 146 75 252t212 134l24 170h199l-23 -168
q112 -10 207 -52l-98 -182q-88 47 -213 47q-76 0 -125 -48.5t-49 -133.5q0 -46 27 -98.5t124 -206.5q11 -18 37 -59.5t35 -56t29.5 -48t27.5 -46.5t21 -40t19 -41t13.5 -36.5t11 -39t5 -36.5t2.5 -40q0 -155 -75.5 -259.5t-211.5 -133.5l-26 -196h-199z" />
    <glyph glyph-name="percent" unicode="%" horiz-adv-x="1529" 
d="M322 565q-256 0 -256 266q0 71 22 236q10 71 18.5 118.5t22 101.5t29.5 87.5t40.5 67t55.5 52t73 29.5t95 11q127 0 191.5 -69.5t64.5 -198.5q0 -63 -25 -238q-9 -70 -17.5 -117.5t-22 -100t-29.5 -86.5t-40 -67t-55 -51.5t-72.5 -29.5t-94.5 -11zM330 729q23 0 39.5 5.5
t29.5 24t21.5 36t17 61t14 77.5t15.5 105q22 176 22 222q0 57 -17 80.5t-60 23.5q-67 0 -90 -57.5t-50 -251.5q-22 -151 -22 -219q0 -58 18 -82.5t62 -24.5zM1110 -10q-256 0 -256 268q0 84 20 234q10 71 18.5 119t22 101t30 87t41 67t55.5 51.5t73.5 29.5t95.5 11
q127 0 191.5 -70t64.5 -198q0 -64 -24 -239q-10 -70 -18.5 -117t-22 -100t-29.5 -86.5t-40 -66.5t-55 -51t-72.5 -29t-94.5 -11zM1116 154q65 0 88.5 59.5t48.5 251.5q25 171 25 219q0 56 -18 80t-62 24q-65 0 -87.5 -56.5t-50.5 -246.5q-1 -5 -1 -8q-21 -161 -21 -217
q0 -57 17.5 -81.5t60.5 -24.5zM315 0l719 1518h180l-718 -1518h-181z" />
    <glyph glyph-name="ampersand" unicode="&#x26;" horiz-adv-x="1069" 
d="M387 -10q-219 0 -314.5 81t-95.5 242q0 78 17 148t44.5 123.5t70.5 105.5t85.5 90.5t98.5 81.5q-45 136 -45 260q0 410 307 410q145 0 207.5 -58t62.5 -165q0 -164 -72 -288.5t-210 -238.5q12 -30 53 -110l111 -228q51 145 94 439h188q-60 -431 -180 -645l117 -238h-236
l-33 66q-109 -76 -270 -76zM395 170q110 0 185 63l-158 334q-39 71 -64 127q-58 -59 -91 -102.5t-57 -109t-24 -142.5q0 -87 46 -128.5t163 -41.5zM440 1137q0 -90 35 -191q81 78 118.5 153t37.5 173q0 82 -80 82q-111 0 -111 -217z" />
    <glyph glyph-name="quotesingle" unicode="'" horiz-adv-x="440" 
d="M147 903l74 615h215l-96 -615h-193z" />
    <glyph glyph-name="parenleft" unicode="(" horiz-adv-x="669" 
d="M242 -334q-64 105 -107 268.5t-43 382.5q0 133 23 322q24 170 70 324.5t103 270.5t111 199.5t111 147.5l147 -98q-52 -68 -94 -138t-91 -174t-86.5 -242.5t-59.5 -299.5q-25 -180 -25 -312q0 -322 113 -557z" />
    <glyph glyph-name="parenright" unicode=")" horiz-adv-x="669" 
d="M121 -334l-146 98q51 68 93.5 138t91 174t87.5 242.5t62 299.5q21 172 21 310q0 344 -113 557l172 94q66 -104 110 -265t44 -380q0 -136 -25 -316q-24 -170 -70 -326t-103 -273.5t-112 -203t-112 -149.5z" />
    <glyph glyph-name="asterisk" unicode="*" horiz-adv-x="821" 
d="M479 668l-164 22l56 281l-211 -129l-76 166l248 106l-211 172l121 137l166 -182l24 283l166 -23l-55 -282l213 133l75 -164l-251 -111l213 -170l-119 -137l-168 182z" />
    <glyph glyph-name="plus" unicode="+" horiz-adv-x="925" 
d="M297 324l45 327h-236l29 197h238l45 328h205l-45 -328h237l-29 -197h-237l-45 -327h-207z" />
    <glyph glyph-name="comma" unicode="," horiz-adv-x="391" 
d="M2 -244l-51 107q75 45 92.5 64t24.5 73h-99l41 279h236l-39 -271q-11 -90 -51 -143.5t-154 -108.5z" />
    <glyph glyph-name="hyphen" unicode="-" horiz-adv-x="546" 
d="M27 561l26 197h441l-27 -197h-440z" />
    <glyph glyph-name="hyphen" unicode="&#xad;" horiz-adv-x="546" 
d="M27 561l26 197h441l-27 -197h-440z" />
    <glyph glyph-name="period" unicode="." horiz-adv-x="391" 
d="M-31 0l41 279h236l-39 -279h-238z" />
    <glyph glyph-name="slash" unicode="/" horiz-adv-x="733" 
d="M-111 0l738 1518h215l-736 -1518h-217z" />
    <glyph glyph-name="zero" unicode="0" horiz-adv-x="915" 
d="M377 -10q-181 0 -257.5 93.5t-76.5 276.5q0 134 39 426q15 106 27.5 180t29 152.5t35 130t44 102.5t56 82t70.5 55.5t90 35t111 10.5q179 0 255.5 -90t76.5 -268q0 -24 -1 -50t-4 -58.5t-5.5 -56.5t-8 -66.5t-8 -63.5t-9.5 -72t-10 -70q-13 -96 -24 -163t-25 -140
t-28.5 -122t-34.5 -100t-43 -83t-53 -61.5t-66.5 -45.5t-81 -25t-98.5 -9zM389 182q28 0 49 4.5t39.5 20.5t31 32.5t25.5 55t22 72.5t20.5 100.5t19.5 124t22 156.5q46 324 46 411q0 96 -30.5 136t-103.5 40q-28 0 -49.5 -4.5t-40 -20t-32 -32.5t-26.5 -54.5t-22 -72.5
t-20.5 -100t-20.5 -123.5t-22 -155.5q-45 -335 -45 -410q0 -98 31 -139t106 -41z" />
    <glyph glyph-name="one" unicode="1" horiz-adv-x="540" 
d="M94 0l187 1319h-168l28 199h375l-213 -1518h-209z" />
    <glyph glyph-name="two" unicode="2" horiz-adv-x="751" 
d="M-63 0l24 176l485 793q48 80 68.5 133t20.5 112q0 61 -30.5 93t-107.5 32q-103 0 -190 -34l-72 176q121 53 309 53q160 0 234 -70.5t74 -195.5q0 -104 -30 -186t-110 -212l-417 -684h401l-25 -186h-634z" />
    <glyph glyph-name="three" unicode="3" horiz-adv-x="722" 
d="M240 -10q-75 0 -140.5 12.5t-99 25.5t-74.5 33l90 172q108 -55 215 -55q92 0 126.5 56t56.5 208q12 106 12 136q0 81 -46 113t-177 32h-45l26 190h84q65 0 105.5 11.5t64 41t34 64t20.5 98.5q10 55 10 93q0 61 -29.5 90.5t-107.5 29.5q-98 0 -175 -26l-65 174
q108 45 289 45q165 0 233 -61.5t68 -184.5q0 -56 -13 -129q-22 -151 -54 -220t-109 -101q102 -44 102 -205q0 -71 -20 -211q-17 -118 -41.5 -194.5t-68 -132.5t-109.5 -80.5t-162 -24.5z" />
    <glyph glyph-name="four" unicode="4" horiz-adv-x="872" 
d="M-8 330l24 176l529 1012h211l-523 -998h234l94 408h154l-60 -408h146l-27 -190h-145l-45 -330h-195l47 330h-444z" />
    <glyph glyph-name="five" unicode="5" horiz-adv-x="763" 
d="M281 -10q-124 0 -201.5 19t-145.5 52l95 172q124 -55 237 -55q95 0 132 60.5t63 255.5q20 130 20 184q0 78 -28 107.5t-97 29.5q-70 0 -129 -45l-145 47l121 701h547l-27 -199h-367l-59 -338q67 31 145 31q137 0 194.5 -64t57.5 -207q0 -84 -24 -262
q-21 -147 -46.5 -236.5t-70.5 -148.5t-109 -81.5t-163 -22.5z" />
    <glyph glyph-name="six" unicode="6" horiz-adv-x="868" 
d="M377 -10q-182 0 -262 90.5t-80 263.5q0 121 28 309l23 172q33 240 75.5 373.5t123.5 212.5q67 63 165 85t271 22h72l-27 -199h-70q-116 0 -184 -17t-107 -72.5t-53 -102t-36 -162.5q-1 -3 -1 -4q66 71 215 71q152 0 210.5 -69t58.5 -203q0 -85 -21 -232
q-17 -120 -36 -201t-48.5 -149.5t-71.5 -107t-102 -59.5t-143 -21zM379 174q33 0 56.5 6.5t42 26.5t30.5 43t23 69t18 91t18 122q17 116 17 168q0 73 -27 107.5t-94 34.5q-38 0 -64.5 -9.5t-53.5 -38t-46.5 -88t-32.5 -153.5q-20 -160 -20 -225q0 -81 30.5 -117.5
t102.5 -36.5z" />
    <glyph glyph-name="seven" unicode="7" horiz-adv-x="681" 
d="M-2 0l520 1319h-430l29 199h649l-27 -179l-526 -1339h-215z" />
    <glyph glyph-name="eight" unicode="8" horiz-adv-x="882" 
d="M360 -14q-186 0 -268 73.5t-82 223.5q0 64 13 157q9 68 17.5 114t24 95.5t35.5 82t51 59.5t72 43q-78 52 -78 188q0 57 15 168q25 176 109.5 260t250.5 84q170 0 248 -65.5t78 -198.5q0 -52 -10 -117q-20 -141 -52.5 -218t-107.5 -112q57 -28 80.5 -82t23.5 -139
q0 -69 -18 -199q-15 -110 -40 -183.5t-70.5 -128.5t-116.5 -80t-175 -25zM362 166q95 0 132 58.5t59 207.5q14 80 14 143q0 74 -30 108t-109 34q-94 0 -131 -58.5t-59 -209.5q-13 -86 -13 -142q0 -73 31.5 -107t105.5 -34zM467 909q78 0 111 50t49 165q10 68 10 105
q0 64 -27.5 94.5t-93.5 30.5q-78 0 -110 -49t-48 -166q-10 -65 -10 -107q0 -62 27 -92.5t92 -30.5z" />
    <glyph glyph-name="nine" unicode="9" horiz-adv-x="868" 
d="M86 0l25 195h71q59 0 103.5 3.5t80 17t60 23.5t44.5 39.5t31.5 47t24 65t18 74.5t18.5 93q1 3 1 5q-68 -74 -213 -74q-149 0 -209.5 70.5t-60.5 202.5q0 90 20 233q17 119 36 200t49 150t72 108t102 60t143 21q189 0 265.5 -89.5t76.5 -264.5q0 -115 -29 -310l-22 -172
q-33 -242 -76 -377.5t-123 -214.5q-67 -63 -164.5 -84.5t-271.5 -21.5h-72zM416 674q39 0 65.5 9.5t53 38t45.5 88t32 153.5q23 158 23 223q0 83 -30.5 119t-104.5 36q-33 0 -56.5 -7t-42 -26t-30.5 -43t-23 -68.5t-19 -90.5t-18 -121q-14 -123 -14 -168q0 -75 26 -109
t93 -34z" />
    <glyph glyph-name="colon" unicode=":" horiz-adv-x="421" 
d="M-12 0l39 276h233l-39 -276h-233zM111 868l39 277h231l-39 -277h-231z" />
    <glyph glyph-name="semicolon" unicode=";" horiz-adv-x="421" 
d="M18 -244l-47 107q71 42 89.5 63t25.5 74h-98l39 276h233l-39 -268q-8 -58 -23 -95t-58.5 -78.5t-121.5 -78.5zM111 868l39 277h231l-39 -277h-231z" />
    <glyph glyph-name="less" unicode="&#x3c;" horiz-adv-x="925" 
d="M657 291l-512 377l21 149l618 375l-28 -215l-391 -238l323 -239z" />
    <glyph glyph-name="equal" unicode="=" horiz-adv-x="925" 
d="M86 444l29 197h665l-26 -197h-668zM139 823l27 197h670l-29 -197h-668z" />
    <glyph glyph-name="greater" unicode="&#x3e;" horiz-adv-x="925" 
d="M135 291l31 213l393 239l-326 240l31 209l510 -377l-20 -151z" />
    <glyph glyph-name="question" unicode="?" horiz-adv-x="841" 
d="M248 430q30 188 46 240q26 88 97 180l148 190q35 45 48 85t13 92q0 53 -34 87.5t-111 34.5q-101 0 -203 -30l-68 180q118 45 308 45q89 0 153.5 -22.5t100 -62.5t51.5 -87t16 -102q0 -86 -26.5 -154t-84.5 -145l-137 -185q-55 -74 -73 -131.5t-41 -214.5h-203zM170 0
l37 252h235l-34 -252h-238z" />
    <glyph glyph-name="at" unicode="@" horiz-adv-x="1216" 
d="M530 -311q-124 0 -216.5 23t-151.5 63t-95.5 103t-50.5 134.5t-14 165.5q0 150 49 469q18 132 28.5 199.5t30.5 171.5t40 156t52 123t72.5 105t95.5 69.5t126.5 49t160.5 13.5q123 0 214 -22.5t150 -62t94.5 -100.5t50 -131.5t14.5 -162.5q0 -32 -2.5 -71.5t-4.5 -67.5
t-9 -83t-9.5 -75.5t-12.5 -91t-12 -86.5l-38 -275q-9 -64 -25 -104t-44.5 -62t-62.5 -29.5t-88 -7.5q-119 0 -153 74q-38 -38 -89.5 -56t-137.5 -18q-132 0 -184 68t-52 195q0 48 27 260q10 72 18 118t20.5 102t26.5 90t35 70t47 55t61.5 31.5t79.5 12.5q95 0 139 -17.5
t68 -54.5l31 64l135 -11l-108 -774q-2 -24 -4 -46.5t11 -39t44 -16.5q44 0 61.5 22.5t26.5 87.5l37 271q2 11 10.5 72.5t10.5 76.5t8.5 64t8.5 70t5.5 57t4.5 62.5t1 51.5q0 91 -18.5 156t-63.5 114.5t-125 74t-197 24.5q-81 0 -143 -15.5t-107.5 -44.5t-78.5 -76.5
t-55.5 -104t-40 -136t-31 -164t-28.5 -194.5q-3 -26 -5 -39q-49 -341 -49 -453q0 -94 19 -160t65 -116.5t128 -75t204 -24.5h262l-17 -121h-250zM535 256q23 0 40.5 3.5t32 14.5t25 21.5t20 35.5t15.5 44.5t13 60t11.5 70.5t12.5 88q20 126 20 205q0 74 -24 106.5t-89 32.5
q-21 0 -37.5 -4t-30 -16t-23 -23t-18.5 -36.5t-14.5 -43.5t-12.5 -58t-11 -65.5t-12 -79.5q-21 -143 -21 -211q0 -74 22.5 -109.5t80.5 -35.5z" />
    <glyph glyph-name="A" unicode="A" horiz-adv-x="927" 
d="M-84 0l539 1522h229l117 -1522h-219l-19 287h-338l-96 -287h-213zM291 481h256l-23 437l-14 233l-74 -231z" />
    <glyph glyph-name="B" unicode="B" horiz-adv-x="915" 
d="M-14 0l215 1518h334q107 0 180.5 -18.5t115 -57t59 -89.5t17.5 -122q0 -65 -10 -119q-8 -55 -15.5 -93.5t-21 -78.5t-32 -67t-46.5 -49.5t-65 -35.5q60 -23 87 -77.5t27 -147.5q0 -44 -16 -176q-30 -212 -121.5 -299.5t-267.5 -87.5h-440zM219 186h203q90 0 132 47.5
t60 182.5q9 97 9 106q0 90 -40.5 122t-138.5 32h-157zM315 866h189q95 0 133.5 50t52.5 171q6 55 6 93q0 79 -37.5 112t-132.5 33h-145z" />
    <glyph glyph-name="C" unicode="C" horiz-adv-x="770" 
d="M401 -10q-200 0 -291.5 106.5t-91.5 309.5q0 108 35 370q17 119 33.5 206.5t38.5 170.5t49 140t63.5 105.5t82.5 76.5t104.5 43.5t132.5 15.5q161 0 279 -49l-84 -197q-88 39 -193 39q-41 0 -72 -9.5t-56 -26t-45 -50.5t-35 -72.5t-29 -103.5t-25.5 -131.5t-26.5 -167.5
q-32 -235 -32 -348q0 -123 42.5 -175.5t145.5 -52.5q86 0 160 29l63 -182q-112 -47 -248 -47z" />
    <glyph glyph-name="D" unicode="D" horiz-adv-x="946" 
d="M-14 0l215 1518h282q128 0 216 -26.5t138.5 -81t71.5 -127t21 -175.5q0 -105 -37 -377q-12 -83 -21 -141t-22 -124.5t-26 -111t-31 -94t-38.5 -81t-48 -64t-60 -51.5t-73 -35t-89.5 -22.5t-107 -6.5h-391zM227 186h146q40 0 70.5 5t56.5 19.5t44 32t35 53t28.5 72t24 98
t22 122t22.5 153.5q35 262 35 349q0 129 -51.5 181t-186.5 52h-86z" />
    <glyph glyph-name="E" unicode="E" horiz-adv-x="808" 
d="M-12 0l213 1518h653l-29 -199h-438l-61 -445h417l-28 -198h-418l-70 -481h439l-25 -195h-653z" />
    <glyph glyph-name="F" unicode="F" horiz-adv-x="778" 
d="M-12 0l213 1518h651l-29 -199h-436l-65 -467h415l-28 -199h-416l-92 -653h-213z" />
    <glyph glyph-name="G" unicode="G" horiz-adv-x="897" 
d="M391 -10q-106 0 -180 27.5t-115.5 82.5t-59.5 125.5t-18 167.5q0 99 35 395q13 90 24.5 157t27 137t32.5 120.5t39.5 100.5t49 83.5t61 63t76 46.5t92.5 26.5t112 9.5q193 0 328 -62l-90 -188q-100 47 -238 47q-50 0 -86.5 -10.5t-65.5 -39.5t-49.5 -67.5t-38.5 -106.5
t-31 -143.5t-30 -191.5q-37 -281 -37 -369q0 -113 38.5 -170t133.5 -57q43 0 71.5 10.5t52.5 34.5t41 72t30.5 115t28.5 172l16 108h-221l26 195h428l-40 -277q-17 -114 -33.5 -196t-36.5 -150t-45.5 -112t-55.5 -76t-71.5 -48.5t-88.5 -24t-112 -7.5z" />
    <glyph glyph-name="H" unicode="H" horiz-adv-x="983" 
d="M-12 0l213 1518h213l-88 -631h368l86 631h215l-213 -1518h-215l97 676h-367l-96 -676h-213z" />
    <glyph glyph-name="I" unicode="I" horiz-adv-x="425" 
d="M0 0l213 1518h215l-213 -1518h-215z" />
    <glyph glyph-name="J" unicode="J" horiz-adv-x="571" 
d="M-74 0l29 195h100q78 0 111.5 30t42.5 103l168 1190h215l-172 -1213q-22 -164 -103.5 -234.5t-218.5 -70.5h-172z" />
    <glyph glyph-name="K" unicode="K" horiz-adv-x="909" 
d="M-12 0l213 1518h211l-93 -650l414 650h223l-374 -588l194 -930h-219l-143 702l-154 -256l-61 -446h-211z" />
    <glyph glyph-name="L" unicode="L" 
d="M-12 0l213 1518h213l-187 -1323h422l-26 -195h-635z" />
    <glyph glyph-name="M" unicode="M" horiz-adv-x="1175" 
d="M-12 0l213 1518h282l47 -754l15 -303l98 297l266 760h281l-213 -1518h-203l146 1047l-91 -271l-272 -776h-166l-57 811l-12 240l-148 -1051h-186z" />
    <glyph glyph-name="N" unicode="N" horiz-adv-x="962" 
d="M-12 0l213 1518h221l164 -740l51 -248l139 988h199l-213 -1518h-193l-178 770l-55 274l-150 -1044h-198z" />
    <glyph glyph-name="O" unicode="O" horiz-adv-x="980" 
d="M414 -10q-109 0 -187.5 30t-123 87t-65 131.5t-20.5 171.5q0 110 37 378q16 114 30.5 194t36.5 163.5t48 139t64 106.5t86 80t111.5 46t143.5 17q107 0 184 -29.5t121.5 -86t64.5 -129.5t20 -169q0 -114 -39 -389q-16 -111 -30 -189t-35.5 -161t-47.5 -138.5t-63.5 -107
t-84.5 -81t-110 -47t-141 -17.5zM428 186q47 0 81 10.5t61.5 40.5t45.5 67t35 106t29.5 141t28.5 188q36 241 36 361q0 121 -42 175t-144 54q-48 0 -83 -11t-63 -41t-47 -67.5t-36.5 -107t-30 -142t-29.5 -188.5q-34 -283 -34 -352q0 -124 43 -179t149 -55z" />
    <glyph glyph-name="P" unicode="P" horiz-adv-x="909" 
d="M-12 0l213 1518h321q218 0 307 -77t89 -245q0 -77 -15 -176q-20 -133 -49 -218.5t-79.5 -142.5t-122.5 -80.5t-179 -23.5h-197l-77 -555h-211zM303 750h174q69 0 109 22.5t65.5 82t42.5 173.5q13 89 13 133q0 92 -43 127t-152 35h-127z" />
    <glyph glyph-name="Q" unicode="Q" horiz-adv-x="978" 
d="M600 -332h-94q-177 0 -228.5 78t-19.5 268q-128 35 -184 136t-56 260q0 110 37 378q16 114 30.5 194t36.5 163.5t48 139t64 106.5t86 80t111.5 46t143.5 17q107 0 184 -29.5t121.5 -86t64.5 -129.5t20 -169q0 -114 -39 -389q-15 -106 -28.5 -182t-34 -155.5t-44 -134
t-58 -105t-77 -81.5t-99 -51t-126.5 -24q-11 -90 4 -116.5t78 -26.5h84zM426 182q36 0 64 6t51.5 22.5t41 36.5t33.5 56.5t27 74t23 97.5t21.5 118.5t21.5 145.5q36 241 36 361q0 121 -42 175t-144 54q-48 0 -83 -11t-63 -41t-47 -67.5t-36.5 -107t-30 -142t-29.5 -188.5
q-34 -283 -34 -358q0 -123 42.5 -177.5t147.5 -54.5z" />
    <glyph glyph-name="R" unicode="R" horiz-adv-x="913" 
d="M524 0l-96 588h-149l-82 -588h-209l213 1518h321q148 0 234 -35t120.5 -100t34.5 -173q0 -56 -14 -166q-26 -182 -85.5 -285t-180.5 -145l104 -614h-211zM305 780h164q104 0 150 54t67 210q12 70 12 121q0 89 -42 123.5t-150 34.5h-123z" />
    <glyph glyph-name="S" unicode="S" horiz-adv-x="794" 
d="M283 -10q-199 0 -355 82l109 178q114 -66 250 -66q83 0 133.5 50t50.5 147q0 52 -32 118t-136 236q-48 78 -64.5 106t-46 82.5t-39.5 83t-19 69t-9 79.5q0 171 99 274t286 103q98 0 163 -11.5t132 -39.5l-88 -195q-87 41 -211 41q-73 0 -117.5 -45t-44.5 -123
q0 -49 29 -108.5t119 -206.5q59 -97 86.5 -145t56.5 -109.5t39 -108t10 -98.5q0 -182 -103 -287.5t-298 -105.5z" />
    <glyph glyph-name="T" unicode="T" horiz-adv-x="837" 
d="M205 0l184 1319h-291l29 199h797l-27 -199h-293l-184 -1319h-215z" />
    <glyph glyph-name="U" unicode="U" horiz-adv-x="964" 
d="M408 -16q-130 0 -212.5 34t-118 95.5t-44 148.5t9.5 193l150 1063h215l-148 -1057q-11 -83 -10 -145t40.5 -98t121.5 -36q105 0 150 63t67 226l147 1047h209l-149 -1063q-14 -101 -32 -170t-49.5 -130t-76.5 -96t-112 -55t-158 -20z" />
    <glyph glyph-name="V" unicode="V" horiz-adv-x="923" 
d="M242 -4l-111 1522h215l49 -883l15 -264l79 250l302 897h217l-537 -1522h-229z" />
    <glyph glyph-name="W" unicode="W" horiz-adv-x="1357" 
d="M176 -4l-24 1522h213l8 -777l-2 -249l78 249l239 777h207l25 -783l2 -243l69 241l228 785h200l-450 -1522h-228l-28 831l-2 164l-49 -164l-254 -831h-232z" />
    <glyph glyph-name="X" unicode="X" horiz-adv-x="929" 
d="M578 0l-148 549l-287 -549h-223l440 809l-190 709h217l125 -469l240 469h223l-393 -736l211 -782h-215z" />
    <glyph glyph-name="Y" unicode="Y" horiz-adv-x="894" 
d="M231 0l76 530l-196 988h221l123 -701l321 701h221l-477 -988l-76 -530h-213z" />
    <glyph glyph-name="Z" unicode="Z" horiz-adv-x="813" 
d="M-66 0l25 166l633 1153h-451l29 199h692l-24 -183l-629 -1140h483l-26 -195h-732z" />
    <glyph glyph-name="bracketleft" unicode="[" horiz-adv-x="671" 
d="M-6 -311l262 1874h414l-25 -189h-205l-213 -1507h209l-24 -178h-418z" />
    <glyph glyph-name="backslash" unicode="\" horiz-adv-x="733" 
d="M420 0l-309 1518h200l312 -1518h-203z" />
    <glyph glyph-name="bracketright" unicode="]" horiz-adv-x="671" 
d="M-39 -311l25 178h209l211 1507h-205l24 189h416l-262 -1874h-418z" />
    <glyph glyph-name="asciicircum" unicode="^" 
d="M143 1217l240 315h207l149 -315h-178l-92 174l-141 -174h-185z" />
    <glyph glyph-name="underscore" unicode="_" horiz-adv-x="567" 
d="M-188 -256l20 154h662l-23 -154h-659z" />
    <glyph glyph-name="grave" unicode="`" 
d="M381 1245l-172 316h237l115 -316h-180z" />
    <glyph glyph-name="a" unicode="a" horiz-adv-x="808" 
d="M233 -8q-135 0 -194.5 64.5t-61.5 191.5q0 69 11 139q18 123 49.5 199t89.5 118.5t131.5 57t192.5 14.5h51q7 34 5.5 67t-9.5 58.5t-34.5 41t-70.5 15.5q-96 0 -182 -26l-61 184q103 41 286 41q95 0 156.5 -25t89 -71t34.5 -111t-7 -145l-74 -533q-10 -46 -1 -67t54 -21
l-24 -184q-14 -2 -82 -2q-59 0 -87 16t-36 49q-77 -71 -226 -71zM276 166q78 0 114.5 43.5t53.5 159.5l33 235q-84 0 -129 -6t-80.5 -28t-52 -62t-27.5 -111q-10 -75 -10 -114q0 -58 22 -87.5t76 -29.5z" />
    <glyph glyph-name="b" unicode="b" horiz-adv-x="837" 
d="M137 -6l-164 12l217 1557h207l-67 -473q72 67 205 67q145 0 203.5 -79.5t58.5 -223.5q0 -90 -31 -301q-11 -83 -20.5 -139t-24.5 -120t-32 -105.5t-41.5 -82t-55.5 -63.5t-72.5 -37t-93.5 -14q-113 0 -168.5 19t-81.5 61zM367 178q38 0 65.5 15t46 41t33 76.5t24 103.5
t21.5 141q25 168 25 240q0 83 -28 123t-93 40q-42 0 -71 -13.5t-48.5 -36.5t-34.5 -75t-25 -106t-24 -152q-25 -182 -25 -237q0 -82 30.5 -121t103.5 -39z" />
    <glyph glyph-name="c" unicode="c" horiz-adv-x="610" 
d="M301 -8q-303 0 -303 340q0 109 22 266q16 111 34.5 191.5t49.5 153.5t73 117.5t103.5 70.5t141.5 26q116 0 203 -35l-84 -188q-57 22 -115 22q-38 0 -65.5 -14.5t-46.5 -40t-34 -76t-25.5 -104.5t-23.5 -143q-22 -180 -22 -236q0 -87 29.5 -126.5t97.5 -39.5q53 0 102 14
l41 -176q-72 -22 -178 -22z" />
    <glyph glyph-name="d" unicode="d" horiz-adv-x="841" 
d="M254 -8q-144 0 -203 80t-59 223q0 64 31 305q11 81 21 137t24.5 119.5t31.5 104.5t42 81.5t55.5 63.5t72 37t92.5 14q189 0 238 -80l70 486h207l-220 -1555l-174 -10l4 70q-76 -76 -233 -76zM326 176q26 0 46.5 4t37.5 16t29.5 25t23.5 40t18.5 51t16.5 68.5t15 82
t15 100.5q25 179 25 234q0 84 -30 122.5t-103 38.5q-38 0 -65.5 -15.5t-46 -40.5t-33 -76t-24 -102.5t-22.5 -139.5q-24 -192 -24 -242q0 -85 27.5 -125.5t93.5 -40.5z" />
    <glyph glyph-name="e" unicode="e" horiz-adv-x="753" 
d="M315 -10q-317 0 -317 346q0 108 22 262q17 116 37 199t51.5 154.5t74 114.5t103 67t140.5 24q155 0 223 -71.5t68 -221.5q0 -120 -43 -391h-467q-10 -92 -10 -139q0 -87 32 -124.5t113 -37.5q113 0 205 31l55 -170q-128 -43 -287 -43zM416 965q-85 0 -122 -67t-63 -239
h275q18 135 18 183q0 69 -24 96t-84 27z" />
    <glyph glyph-name="f" unicode="f" horiz-adv-x="569" 
d="M51 958l27 187h137l23 153q20 147 96.5 207t238.5 60q87 0 97 -2l-25 -187h-70q-77 0 -103.5 -24t-35.5 -99l-16 -108h192l-26 -187h-191l-178 -1269h-205l178 1269h-139z" />
    <glyph glyph-name="g" unicode="g" horiz-adv-x="802" 
d="M360 418q-61 0 -102 8q-16 -27 -16 -66q0 -30 19.5 -42t82.5 -15q186 -6 264 -67.5t78 -188.5q0 -104 -30 -177.5t-87 -114.5t-127.5 -59t-162.5 -18q-203 0 -292 57.5t-89 178.5q0 118 51.5 200.5t161.5 108.5q-41 35 -41 115q0 92 51 160q-67 70 -64 196q0 24 9 107
q26 185 114 272.5t242 87.5q44 0 94 -6l315 51l-24 -170h-123q42 -59 45 -168q0 -58 -8 -110q-27 -181 -115.5 -260.5t-245.5 -79.5zM281 -164q95 0 145.5 41.5t50.5 142.5q0 111 -196 111q-55 0 -92 -14.5t-54.5 -42.5t-24 -56.5t-6.5 -66.5q0 -57 40 -86t137 -29zM367 592
q70 0 103 42.5t48 143.5q10 58 10 96q0 54 -26 79.5t-86 25.5q-68 0 -101 -44t-47 -144q-10 -65 -10 -99q2 -53 26.5 -76.5t82.5 -23.5z" />
    <glyph glyph-name="h" unicode="h" horiz-adv-x="839" 
d="M-27 0l220 1563h204l-67 -467q61 61 205 61q55 0 97 -10.5t69.5 -28t45 -45.5t25.5 -55.5t9.5 -67t-1 -71.5t-8.5 -76l-113 -803h-206l102 735q8 66 10 116t-24.5 78.5t-87.5 28.5q-79 0 -115.5 -48t-56.5 -189l-103 -721h-205z" />
    <glyph glyph-name="i" unicode="i" horiz-adv-x="378" 
d="M-20 0l161 1145h207l-162 -1145h-206zM158 1272l32 241h209l-34 -241h-207z" />
    <glyph glyph-name="j" unicode="j" horiz-adv-x="378" 
d="M-135 -311l24 182q50 0 64 17t22 79l166 1178h207l-168 -1202q-12 -82 -32 -131.5t-59.5 -77t-89.5 -36.5t-134 -9zM158 1272l32 241h209l-34 -241h-207z" />
    <glyph glyph-name="k" unicode="k" horiz-adv-x="768" 
d="M-29 0l219 1563h201l-125 -889l309 471h213l-317 -483l178 -662h-209l-127 465l-98 -154l-43 -311h-201z" />
    <glyph glyph-name="l" unicode="l" horiz-adv-x="438" 
d="M242 -2q-155 0 -201 57t-25 213l183 1295h207l-179 -1278q-12 -63 0 -82t70 -19h12l-26 -184q-6 -2 -41 -2z" />
    <glyph glyph-name="m" unicode="m" horiz-adv-x="1288" 
d="M-27 0l158 1133l174 10l-2 -56q28 34 90 52t135 18q82 0 133 -19t76 -67q66 86 250 86q53 0 94 -10.5t68 -28t45 -44.5t26.5 -56t10.5 -66.5t-1 -72t-9 -76.5l-113 -803h-207l105 735q13 112 7 148q-16 74 -102 75q-77 0 -111.5 -47.5t-54.5 -189.5l-102 -721h-207
l103 735q4 29 5 38t4 33.5t3 33v28t-4 27t-8.5 21t-13 19t-19.5 12t-26 9t-34 2.5q-77 0 -111 -47.5t-54 -189.5l-103 -721h-205z" />
    <glyph glyph-name="n" unicode="n" horiz-adv-x="839" 
d="M-27 0l158 1133l174 10l-2 -56q65 70 232 70q55 0 97 -10.5t69.5 -28t45 -45.5t25.5 -55.5t9.5 -67t-1 -71.5t-8.5 -76l-113 -803h-206l102 735q8 66 10 116t-24.5 78.5t-87.5 28.5q-79 0 -115.5 -48t-56.5 -189l-103 -721h-205z" />
    <glyph glyph-name="o" unicode="o" horiz-adv-x="817" 
d="M324 -10q-74 0 -131 17.5t-93.5 47.5t-59.5 74.5t-32.5 94.5t-9.5 112q0 111 22 262q11 79 23 139.5t29.5 121.5t39.5 104t53.5 81.5t70 62t90 37t114.5 13.5q92 0 157.5 -25.5t102 -73.5t52.5 -107.5t16 -135.5q0 -91 -25 -266q-11 -79 -22.5 -139.5t-29 -121.5
t-39 -104t-52.5 -81.5t-70 -62t-91 -37t-115 -13.5zM336 176q34 0 59.5 8t44.5 30.5t32 47.5t24.5 74.5t19.5 95.5t19 125q22 135 22 238q0 86 -28 124.5t-101 38.5q-34 0 -59.5 -8t-45 -30t-32.5 -47.5t-25 -74t-20 -95.5t-19 -125q-24 -171 -24 -238q0 -86 30 -125
t103 -39z" />
    <glyph glyph-name="p" unicode="p" horiz-adv-x="841" 
d="M-72 -311l203 1444l174 10l-2 -62q76 76 232 76q145 0 203.5 -79.5t58.5 -223.5q0 -90 -31 -301q-11 -83 -20.5 -139t-24.5 -120t-32 -105.5t-41.5 -82t-55.5 -63.5t-72.5 -37t-93.5 -14q-188 0 -238 80l-53 -383h-207zM367 178q38 0 65.5 15t46 41t33 76.5t24 103.5
t21.5 141q25 168 25 240q0 83 -28 123t-93 40q-42 0 -71 -13.5t-48.5 -36.5t-34.5 -75t-25 -106t-24 -152q-25 -182 -25 -237q0 -82 30.5 -121t103.5 -39z" />
    <glyph glyph-name="q" unicode="q" horiz-adv-x="841" 
d="M408 -311l51 366q-71 -63 -205 -63q-144 0 -203 80t-59 223q0 64 31 305q11 81 21 137t24.5 119.5t31.5 104.5t42 81.5t55.5 63.5t72 37t92.5 14q113 0 169 -20t81 -62l41 72l162 -10l-201 -1448h-206zM326 176q26 0 46.5 4t37.5 16t29.5 25t23.5 40t18.5 51t16.5 68.5
t15 82t15 100.5q25 179 25 234q0 84 -30 122.5t-103 38.5q-38 0 -65.5 -15.5t-46 -40.5t-33 -76t-24 -102.5t-22.5 -139.5q-24 -192 -24 -242q0 -85 27.5 -125.5t93.5 -40.5z" />
    <glyph glyph-name="r" unicode="r" horiz-adv-x="507" 
d="M-29 0l160 1133l174 10l-4 -80q70 73 242 82l-29 -203q-111 -6 -164.5 -62.5t-70.5 -189.5l-99 -690h-209z" />
    <glyph glyph-name="s" unicode="s" horiz-adv-x="673" 
d="M236 -10q-163 0 -297 55l77 178q109 -51 230 -51q112 0 112 113q0 38 -25 84.5t-106 160.5q-75 104 -108 181t-33 147q0 141 81 221t241 80q134 0 231 -39l-72 -190q-83 33 -172 33q-53 0 -81.5 -26t-28.5 -77q0 -33 22.5 -79t85.5 -134q95 -135 130.5 -208.5
t35.5 -147.5q0 -148 -82.5 -224.5t-240.5 -76.5z" />
    <glyph glyph-name="t" unicode="t" horiz-adv-x="602" 
d="M51 958l27 187h137l66 246l174 43l-41 -289h190l-26 -187h-191l-92 -651q-8 -67 8 -92t84 -25h82l-25 -190q-27 -2 -104 -2q-118 0 -177.5 31t-74.5 98.5t2 175.5l92 655h-131z" />
    <glyph glyph-name="u" unicode="u" horiz-adv-x="827" 
d="M340 -10q-106 0 -177 27.5t-105 77.5t-44.5 120.5t4.5 157.5l111 772h205l-109 -768q-13 -102 8.5 -151.5t104.5 -49.5q77 0 110.5 46t49.5 157l106 766h203l-111 -799q-26 -178 -108.5 -267t-247.5 -89z" />
    <glyph glyph-name="v" unicode="v" horiz-adv-x="747" 
d="M152 -2l-91 1147h213l31 -600l10 -226l70 224l203 602h207l-414 -1147h-229z" />
    <glyph glyph-name="w" unicode="w" horiz-adv-x="1124" 
d="M98 -2l-26 1147h213l4 -549l-4 -225l67 225l180 549h181l26 -553l6 -219l56 215l160 557h198l-348 -1147h-215l-35 571l-8 136l-39 -136l-195 -571h-221z" />
    <glyph glyph-name="x" unicode="x" horiz-adv-x="735" 
d="M408 0l-107 377l-192 -377h-209l333 616l-147 529h209l92 -332l176 332h207l-317 -570l161 -575h-206z" />
    <glyph glyph-name="y" unicode="y" horiz-adv-x="735" 
d="M18 -313q-70 0 -84 2l27 182h66q55 1 75 11t31 40l31 84l-105 1139h209l35 -524l12 -256l80 249l180 531h205l-471 -1260q-45 -117 -106.5 -157.5t-184.5 -40.5z" />
    <glyph glyph-name="z" unicode="z" horiz-adv-x="643" 
d="M-84 0l18 141l455 817h-315l24 187h564l-21 -144l-459 -829h355l-25 -172h-596z" />
    <glyph glyph-name="braceleft" unicode="{" horiz-adv-x="720" 
d="M295 -311q-130 0 -185 62t-36 192q8 60 68 250t67 241q9 65 -20 83t-130 18l25 182q99 0 134 17t44 79q7 49 0.5 245t1.5 259q20 133 88.5 189.5t198.5 56.5h170l-25 -189h-86q-67 0 -99 -25t-42 -92q-5 -43 0.5 -226.5t-4.5 -252.5q-16 -118 -111 -151q85 -37 68 -150
q-10 -70 -67.5 -256.5t-63.5 -232.5q-9 -68 15.5 -94.5t90.5 -26.5h86l-24 -178h-164z" />
    <glyph glyph-name="bar" unicode="|" horiz-adv-x="495" 
d="M139 -311v1874h209v-1874h-209z" />
    <glyph glyph-name="braceright" unicode="}" horiz-adv-x="720" 
d="M-37 -311l25 178h84q66 0 98.5 26.5t42.5 94.5q7 48 1.5 233t2.5 256q16 112 113 150q-85 32 -68 151q10 71 66.5 253t62.5 226q9 67 -15.5 92t-92.5 25h-84l26 189h164q132 0 186 -65t35 -200q-9 -61 -69.5 -248t-67.5 -237q-9 -62 20.5 -79t127.5 -17l-25 -182
q-100 0 -133.5 -18t-42.5 -83q-7 -50 -0.5 -249t-1.5 -259q-20 -129 -88.5 -183t-198.5 -54h-168z" />
    <glyph glyph-name="asciitilde" unicode="~" 
d="M307 782l-160 27q18 75 40.5 120t64.5 71t106 26q41 0 104 -31.5t79 -31.5q28 0 41.5 13.5t23.5 55.5l158 -26q-26 -112 -72 -163.5t-137 -51.5q-43 0 -105 31.5t-77 31.5q-28 0 -42 -15t-24 -57z" />
    <glyph glyph-name="exclamdown" unicode="&#xa1;" horiz-adv-x="522" 
d="M41 0l170 1079h188l-133 -1079h-225zM211 1243l39 275h237l-38 -275h-238z" />
    <glyph glyph-name="cent" unicode="&#xa2;" horiz-adv-x="698" 
d="M166 -197l31 213q-172 61 -172 316q0 109 22 266q14 97 29.5 168.5t40 139t56 112.5t77 77.5t104.5 45.5l25 176h174l-23 -170q57 -4 119 -27l-82 -186q-57 22 -114 22q-38 0 -65.5 -14.5t-46.5 -40t-34 -76t-25.5 -104.5t-23.5 -143q-22 -180 -22 -236q0 -87 29 -126.5
t97 -39.5q54 0 103 14l41 -172q-67 -19 -139 -22l-27 -193h-174z" />
    <glyph glyph-name="sterling" unicode="&#xa3;" horiz-adv-x="837" 
d="M463 -6q-144 0 -234 55q-94 -50 -292 -47l24 184q47 0 79 3.5t54 14.5t34.5 22.5t19.5 35.5t9 45.5t3 59.5l8 325h-137l24 162h117l8 305q5 180 91.5 277.5t252.5 97.5q167 0 299 -57l-88 -181q-84 41 -209 41q-78 0 -111 -49t-36 -141l-8 -293h225l-23 -162h-208
l-9 -340q-3 -95 -20 -159q48 -23 98 -23q53 0 76 30t35 113l12 86h182l-12 -100q-21 -169 -83.5 -237t-180.5 -68z" />
    <glyph glyph-name="currency" unicode="&#xa4;" horiz-adv-x="847" 
d="M45 813l25 176h141q27 148 57.5 244t78.5 167t116 102.5t166 31.5q124 0 252 -47l-84 -184q-73 32 -174 32q-89 0 -128.5 -70.5t-72.5 -275.5h264l-24 -176h-267q-1 -7 -3 -20.5t-3 -20.5q-4 -17 -8 -51h268l-26 -178h-267q-10 -87 -10 -174q0 -101 32.5 -146t110.5 -45
q80 0 150 25l59 -174q-95 -39 -221 -39q-178 0 -259 91.5t-81 274.5q0 70 13 187h-142l25 178h137q2 11 5 33t5 32q0 7 4 27h-139z" />
    <glyph glyph-name="yen" unicode="&#xa5;" horiz-adv-x="849" 
d="M47 420l23 176h229l-168 922h209l96 -693l287 693h211l-430 -922h227l-26 -176h-230l-12 -94h229l-22 -176h-234l-20 -150h-199l21 150h-230l27 176h227l12 94h-227z" />
    <glyph glyph-name="brokenbar" unicode="&#xa6;" horiz-adv-x="495" 
d="M139 -311v778h209v-778h-209zM139 784v779h209v-779h-209z" />
    <glyph glyph-name="section" unicode="&#xa7;" horiz-adv-x="782" 
d="M104 0q-35 0 -70 1l-36 1l27 176h59q74 1 101.5 29.5t35.5 95.5l12 90q-97 21 -136.5 77.5t-39.5 156.5q0 48 15 166q14 97 31 158t47 107t75 68.5t113 30.5l16 94q21 151 94.5 219t225.5 68q84 0 94 -2l-23 -176h-59q-74 -1 -101.5 -28.5t-37.5 -94.5l-12 -86
q106 -19 149 -78t43 -162q0 -56 -14 -166q-14 -94 -32 -154.5t-50 -107.5t-81 -70t-122 -30l-12 -96q-24 -151 -96 -219t-216 -68zM367 524q55 0 84 17.5t48 67t33 151.5q13 86 13 123q0 72 -29.5 100.5t-97.5 28.5q-53 0 -82 -17.5t-49 -68t-35 -150.5q-10 -88 -10 -127
q0 -70 28.5 -97.5t96.5 -27.5z" />
    <glyph glyph-name="dieresis" unicode="&#xa8;" 
d="M203 1245l30 223h183l-33 -223h-180zM506 1245l31 223h180l-33 -223h-178z" />
    <glyph glyph-name="copyright" unicode="&#xa9;" horiz-adv-x="1028" 
d="M539 256q-128 0 -193 68q-55 53 -72.5 152t-17.5 282q0 181 16.5 278.5t69.5 153.5q64 70 197 70q78 0 174 -29l-54 -131q-58 20 -114 20q-40 0 -65.5 -13t-41 -35.5t-23 -71.5t-10 -101.5t-2.5 -144.5q0 -76 1.5 -122t6.5 -92t14 -70.5t25 -44.5t39 -27t56 -7
q55 0 121 27l51 -127q-82 -35 -178 -35zM514 -16q-69 0 -124.5 10t-100 27.5t-78.5 48t-59 65.5t-42.5 87t-28.5 104.5t-17.5 125.5t-8.5 143.5t-2 164.5q0 105 3 182.5t11 156.5t23 134.5t39 108t58 86t81 59.5t108 37.5t138 11.5q78 0 139.5 -11.5t108.5 -37.5t82 -59.5
t58.5 -86t39 -108t23.5 -134.5t11 -156.5t3 -182.5q0 -122 -4 -208t-15.5 -173t-32.5 -144.5t-55.5 -108.5t-83.5 -80t-117 -45.5t-157 -16.5zM514 70q64 0 114 10t88 33.5t66 53t47 76.5t31 95.5t18.5 119.5t8.5 139t2 163t-2 162.5t-8.5 138.5t-18.5 119.5t-31 95.5
t-47 76.5t-66 52.5t-88 33t-114 10q-63 0 -113 -10t-87.5 -33t-65 -52.5t-46.5 -76.5t-30.5 -95t-18 -119.5t-8.5 -139t-2 -162.5q0 -84 1.5 -145.5t6.5 -127t13.5 -112t22.5 -92.5t34 -77.5t47.5 -59t63 -43t81 -24.5t101.5 -9z" />
    <glyph glyph-name="ordfeminine" unicode="&#xaa;" horiz-adv-x="745" 
d="M276 586q-98 0 -143 53t-45 158q0 9 10 112q14 99 42 161.5t77 95.5t108 45t150 12h37q10 84 -2.5 115.5t-75.5 31.5q-87 0 -168 -18l-37 151q103 31 232 31q107 0 160.5 -33t62.5 -97.5t-4 -158.5l-62 -430q-5 -46 2.5 -60t43.5 -14l-21 -149q-10 -2 -57 -2
q-108 0 -117 80q-60 -84 -193 -84zM51 313l23 154h522l-23 -154h-522zM330 729q32 0 55 10.5t37 25.5t24.5 45.5t15.5 56t11 71.5l21 147h-13q-63 0 -96.5 -5t-60.5 -23.5t-39.5 -51.5t-22.5 -92q-8 -70 -8 -92q0 -48 17.5 -70t58.5 -22z" />
    <glyph glyph-name="guillemotleft" unicode="&#xab;" horiz-adv-x="964" 
d="M184 0l-112 571l274 574h182l-260 -574l99 -571h-183zM547 0l-111 571l273 574h182l-258 -574l96 -571h-182z" />
    <glyph glyph-name="logicalnot" unicode="&#xac;" horiz-adv-x="1703" 
d="M258 246q-88 105 -136 237t-48 277q0 144 48 276t136 236q6 -4 14 -12q-85 -103 -131.5 -231.5t-46.5 -268.5q0 -285 180 -500zM467 432q-117 143 -117 328q0 183 115 327q3 -2 8 -7t8 -7q-110 -136 -110 -313q0 -182 110 -314zM541 498q-92 116 -92 262t92 262
q3 -2 8 -7t8 -7q-88 -109 -88 -248t88 -248q-3 -2 -8 -7t-8 -7zM647 592q-57 72 -57 168q0 97 57 166l15 -15q-52 -69 -52 -151q0 -84 54 -154q-3 -2 -8.5 -7t-8.5 -7zM715 655q-33 48 -33 105q0 56 33 104q3 -2 8 -7t8 -7q-29 -44 -29 -90t29 -90q-3 -2 -16 -15zM774 709
q-14 25 -14 51t14 51l12 -10q-10 -20 -10 -41t10 -41q-4 -4 -12 -10zM852 123q-236 0 -412 158l2.5 2.5l5 5l5.5 5.5t2 1q171 -152 397 -152q227 0 395 152q2 -3 7.5 -8t7.5 -8q-177 -156 -410 -156zM852 664q-31 0 -55 18l12 12q21 -14 43 -14q26 0 43 14q4 -4 10 -12
q-21 -18 -53 -18zM987 653q-7 10 -14 15q28 42 28 92q0 51 -28 90l2.5 2.5t5 4.5t5.5 5t1 2q35 -44 35 -104t-35 -107zM598 551q-72 91 -72 209q0 119 74 209l14 -15q-67 -87 -67 -194q0 -108 67 -195q-10 -10 -16 -14zM852 -35q-145 0 -278 52.5t-238 146.5l14 16
q102 -92 231 -143t271 -51q285 0 500 192q0 1 3.5 -2.5t6.5 -7.5l4 -4q-104 -95 -236 -147t-278 -52zM852 248q-189 0 -330 125l15 16q134 -121 315 -121q182 0 313 121q2 -3 7.5 -8t7.5 -8q-138 -125 -328 -125zM852 348q-145 0 -264 101l14 14q108 -94 250 -94
q143 0 248 94q2 -3 7 -8.5t7 -8.5q-112 -98 -262 -98zM852 428q-116 0 -211 78l14 16q86 -73 197 -73t197 73q4 -4 12 -16q-91 -78 -209 -78zM852 543q-77 0 -135 49l14 16q51 -45 121 -45q68 0 119 45q2 -3 7 -8t7 -8q-58 -49 -133 -49zM733 911q-4 3 -7 6.5t-6 6.5l-3 4
q58 49 135 49t135 -49l-16 -17q-51 45 -119 45t-119 -45zM1167 1130q-134 121 -315 121q-179 0 -313 -118l-15 14q141 125 328 125q189 0 330 -125q-4 -6 -15 -17zM930 709l-12 10q10 20 10 41t-10 41l12 10q14 -25 14 -51t-14 -51zM958 682q-10 10 -16 14q21 32 21 64
t-21 63l16 15q25 -36 25 -78t-25 -78zM1020 627q-6 4 -16 14q38 50 38 119t-38 119l14 14q45 -57 45 -133q0 -71 -43 -133zM1106 551q-3 2 -8 7t-8 7q67 87 67 195t-70 194l17 15q74 -90 74 -209q0 -118 -72 -209zM1163 498q-10 10 -16 14q88 109 88 248t-88 248l16 14
q92 -116 92 -262t-92 -262zM1237 432q-6 4 -16 14q112 134 112 314q0 182 -112 313l16 14q117 -139 117 -327q0 -189 -117 -328zM1329 350q-2 2 -7 6t-7 6q141 175 141 398q0 227 -143 395l16 14q148 -179 148 -409q0 -231 -148 -410zM1446 246q-6 6 -16 14q180 215 180 500
t-180 500l16 14q88 -105 136 -237t48 -277q0 -144 -48 -276t-136 -238zM375 348q-148 182 -148 412q0 229 146 409q2 -2 7.5 -6.5t8.5 -7.5q-141 -170 -141 -395q0 -228 141 -398zM684 627q-43 59 -43 133t43 133q6 -4 16 -14q-38 -50 -38 -119q0 -67 38 -117zM745 682
q-24 34 -24 78t24 78q2 -3 4.5 -5.5t6 -5.5t4.5 -4q-19 -34 -19 -63q0 -30 19 -64zM809 825l-10 13q21 18 53 18t53 -18l-10 -13q-23 15 -43 15q-25 0 -43 -15zM786 852l-14 14q37 29 80 29q41 0 78 -29q-8 -8 -12 -14q-28 25 -66 25q-34 0 -66 -25zM760 881l-15 16
q45 39 107 39q61 0 106 -39l-14 -16q-37 34 -92 34t-92 -34zM604 1057l-14 16q112 98 262 98q151 0 262 -100q1 0 -2 -3.5t-6 -7.5l-4 -3q-108 94 -250 94q-143 0 -248 -94zM852 492q-100 0 -170 61l14 16q70 -57 156 -57q87 0 154 57l14 -14q-73 -63 -168 -63zM852 584
q-61 0 -109 39l15 16q47 -35 94 -35q51 0 92 35l14 -16q-45 -39 -106 -39zM852 625q-43 0 -82 28l14 15q36 -25 68 -25q34 0 66 25l14 -15q-36 -28 -80 -28zM698 950l-14 15q73 63 168 63q98 0 168 -61l-14 -17q-68 58 -154 58q-87 0 -154 -58zM655 997l-14 17q91 78 211 78
q119 0 209 -80l-12 -15q-83 74 -197 74q-110 0 -197 -74zM1249 1223q-166 153 -397 153q-227 0 -397 -151l-15 14q179 158 412 158t412 -158zM352 1339l-14 17q104 95 236 146.5t278 51.5q145 0 278 -52t238 -146l-14 -17q-102 93 -231 144t-271 51t-270 -51t-230 -144z
M1057 594l-15 14q52 69 52 152t-54 153l17 15q57 -72 57 -168q0 -97 -57 -166z" />
    <glyph glyph-name="registered" unicode="&#xae;" horiz-adv-x="1028" 
d="M514 -16q-69 0 -124.5 10t-100 27.5t-78.5 48t-59 65.5t-42.5 87t-28.5 104.5t-17.5 125.5t-8.5 143.5t-2 164.5q0 105 3 182.5t11 156.5t23 134.5t39 108t58 86t81 59.5t108 37.5t138 11.5q78 0 139.5 -11.5t108.5 -37.5t82 -59.5t58.5 -86t39 -108t23.5 -134.5
t11 -156.5t3 -182.5q0 -122 -4 -208t-15.5 -173t-32.5 -144.5t-55.5 -108.5t-83.5 -80t-117 -45.5t-157 -16.5zM514 70q64 0 114 10t88 33.5t66 53t47 76.5t31 95.5t18.5 119.5t8.5 139t2 163t-2 162.5t-8.5 138.5t-18.5 119.5t-31 95.5t-47 76.5t-66 52.5t-88 33t-114 10
q-63 0 -113 -10t-87.5 -33t-65 -52.5t-46.5 -76.5t-30.5 -95t-18 -119.5t-8.5 -139t-2 -162.5q0 -84 1.5 -145.5t6.5 -127t13.5 -112t22.5 -92.5t34 -77.5t47.5 -59t63 -43t81 -24.5t101.5 -9zM621 289l-113 368h-84v-368h-135v940h219q150 0 204 -61.5t54 -217.5
q0 -108 -28.5 -173.5t-98.5 -94.5l121 -393h-139zM424 780h78q78 0 103.5 32t25.5 132q0 101 -25.5 132.5t-103.5 31.5h-78v-328z" />
    <glyph glyph-name="macron" unicode="&#xaf;" 
d="M180 1245l27 182h524l-24 -182h-527z" />
    <glyph glyph-name="macron" unicode="&#x2c9;" 
d="M180 1245l27 182h524l-24 -182h-527z" />
    <glyph glyph-name="degree" unicode="&#xb0;" horiz-adv-x="720" 
d="M350 567q-76 0 -128.5 19t-81 57t-40.5 85.5t-12 113.5q0 102 18 231q10 71 18.5 118t22.5 100t30.5 86.5t42 66t58 50.5t77 29t100.5 11q146 0 204 -69t58 -203q0 -65 -23 -234q-10 -72 -18 -118t-21.5 -100t-30 -86.5t-41.5 -66t-57 -51t-76 -28.5t-100 -11zM356 719
q22 0 39 3.5t31.5 14t24 20.5t19 33.5t15 41.5t12.5 55.5t11 65t12 79.5q21 150 21 205q0 67 -22.5 97t-76.5 30q-22 0 -38.5 -3t-30.5 -14t-23.5 -20t-18.5 -32.5t-14.5 -39.5t-12.5 -53.5t-11 -61.5t-12 -76q-1 -9 -2 -13q-19 -160 -19 -205q0 -68 21 -97.5t75 -29.5z" />
    <glyph glyph-name="plusminus" unicode="&#xb1;" horiz-adv-x="1386" 
d="M449 -311l178 1269h-232l-178 -1269h-205l176 1269h-137l27 187h137l21 147q20 149 93.5 211t233.5 62q56 0 64 -2l-25 -183h-49q-60 0 -83 -23t-32 -95l-16 -117h231l21 147q20 149 93 211t234 62q46 0 56 -2l-27 -183h-39q-61 0 -83.5 -23t-33.5 -95l-16 -117h139
l-24 -187h-142l-178 -1269h-204zM1190 -2q-155 0 -201 57t-24 213l182 1295h207l-180 -1278q-9 -65 1.5 -83t67.5 -18h14l-26 -184q-6 -2 -41 -2z" />
    <glyph glyph-name="twosuperior" unicode="&#xb2;" horiz-adv-x="643" 
d="M61 559l23 148l303 454q38 55 48.5 84.5t10.5 67.5q0 31 -21 46t-73 15q-62 0 -123 -20l-45 145q92 29 207 29q119 0 175.5 -45.5t56.5 -126.5q0 -67 -20.5 -123.5t-70.5 -130.5l-264 -395h260l-20 -148h-447z" />
    <glyph glyph-name="threesuperior" unicode="&#xb3;" horiz-adv-x="624" 
d="M291 553q-147 0 -244 45l80 139q77 -37 133 -37q57 0 78 29t35 115q6 50 6 80q0 48 -29 65t-114 17h-33l18 141h66q74 0 98 21.5t35 93.5q4 40 4 53q0 34 -17.5 47.5t-66.5 13.5q-70 0 -119 -16l-45 143q77 25 193 25q127 0 178 -41.5t51 -128.5q0 -38 -6 -76
q-12 -88 -33.5 -128.5t-69.5 -61.5q64 -33 64 -129q0 -49 -14 -142q-22 -145 -77.5 -206.5t-170.5 -61.5z" />
    <glyph glyph-name="acute" unicode="&#xb4;" 
d="M313 1245l205 316h238l-260 -316h-183z" />
    <glyph glyph-name="mu" unicode="&#xb5;" horiz-adv-x="831" 
d="M-72 -311l205 1456h207l-109 -768q-7 -61 -5.5 -106t29.5 -70t87 -25q80 0 113 45.5t47 157.5l108 766h203l-113 -799q-24 -177 -107 -264.5t-249 -87.5q-115 0 -160 63l-49 -368h-207z" />
    <glyph glyph-name="mu" unicode="&#x3bc;" horiz-adv-x="831" 
d="M-72 -311l205 1456h207l-109 -768q-7 -61 -5.5 -106t29.5 -70t87 -25q80 0 113 45.5t47 157.5l108 766h203l-113 -799q-24 -177 -107 -264.5t-249 -87.5q-115 0 -160 63l-49 -368h-207z" />
    <glyph glyph-name="paragraph" unicode="&#xb6;" horiz-adv-x="851" 
d="M164 0l82 604q-83 35 -120.5 106t-37.5 187q0 61 14 168q18 133 47.5 217.5t82 138.5t127 75.5t186.5 21.5h307l-213 -1518h-197l80 569h-86l-78 -569h-194zM487 750h62l80 577h-101q-76 0 -118 -22.5t-68.5 -82.5t-42.5 -175q-10 -78 -10 -123q0 -96 44.5 -135
t153.5 -39z" />
    <glyph glyph-name="periodcentered" unicode="&#xb7;" horiz-adv-x="391" 
d="M51 569l39 283h236l-39 -283h-236z" />
    <glyph glyph-name="periodcentered" unicode="&#x2219;" horiz-adv-x="391" 
d="M51 569l39 283h236l-39 -283h-236z" />
    <glyph glyph-name="cedilla" unicode="&#xb8;" 
d="M231 -444q-105 0 -186 47l64 108q64 -33 116 -33q49 0 69.5 21t20.5 78q0 37 -26 47.5t-74 7.5l-37 33l55 172h119l-41 -133q138 4 138 -121q0 -131 -55 -179t-163 -48z" />
    <glyph glyph-name="onesuperior" unicode="&#xb9;" horiz-adv-x="514" 
d="M162 559l112 803h-106l22 156h287l-135 -959h-180z" />
    <glyph glyph-name="ordmasculine" unicode="&#xba;" 
d="M367 582q-143 0 -203 73t-60 203q0 73 19 217q12 91 26.5 155.5t40.5 125.5t62 97.5t90.5 58.5t126.5 22q143 0 202.5 -72t59.5 -205q0 -82 -20 -215q-13 -92 -27 -155t-39.5 -125t-60.5 -98.5t-89.5 -59t-127.5 -22.5zM375 737q79 0 108 62.5t56 247.5q20 137 20 196
q0 66 -22.5 96.5t-79.5 30.5q-34 0 -57.5 -12t-39.5 -32t-28 -62.5t-19.5 -85.5t-17.5 -119q-21 -143 -21 -195q0 -65 23 -96t78 -31zM49 313l23 154h524l-23 -154h-524z" />
    <glyph glyph-name="guillemotright" unicode="&#xbb;" horiz-adv-x="964" 
d="M20 0l263 571l-101 574h185l110 -574l-270 -571h-187zM385 0l260 571l-98 574h182l111 -574l-271 -571h-184z" />
    <glyph glyph-name="onequarter" unicode="&#xbc;" horiz-adv-x="1263" 
d="M150 0l718 1518h176l-720 -1518h-174zM590 180l20 142l336 636h170l-330 -628h115l72 221h121l-31 -221h88l-23 -150h-88l-24 -180h-164l25 180h-287zM137 559l113 803h-109l25 156h285l-136 -959h-178z" />
    <glyph glyph-name="onehalf" unicode="&#xbd;" horiz-adv-x="1349" 
d="M150 0l718 1518h176l-720 -1518h-174zM137 559l113 803h-109l25 156h285l-136 -959h-178zM709 0l22 147l303 453q34 53 46 84.5t12 67.5q0 32 -21 47.5t-72 15.5q-61 0 -122 -20l-48 143q88 31 209 31q119 0 175.5 -45.5t56.5 -126.5q0 -67 -20.5 -124t-71.5 -132
l-263 -394h261l-21 -147h-446z" />
    <glyph glyph-name="threequarters" unicode="&#xbe;" horiz-adv-x="1376" 
d="M262 0l719 1518h176l-719 -1518h-176zM287 553q-147 0 -244 45l80 139q77 -37 133 -37q57 0 78 29t35 115q6 50 6 80q0 48 -29.5 65t-114.5 17h-32l18 141h66q74 0 98 21.5t35 93.5q4 40 4 53q0 34 -17.5 47.5t-66.5 13.5q-70 0 -119 -16l-45 143q77 25 193 25
q127 0 178 -41.5t51 -128.5q0 -38 -6 -76q-12 -88 -33.5 -128.5t-69.5 -61.5q64 -33 64 -129q0 -49 -14 -142q-22 -145 -77.5 -206.5t-170.5 -61.5zM705 180l20 142l334 636h172l-332 -628h117l69 221h123l-32 -221h88l-21 -150h-88l-27 -180h-163l26 180h-286z" />
    <glyph glyph-name="questiondown" unicode="&#xbf;" horiz-adv-x="841" 
d="M354 -16q-89 0 -153.5 22.5t-100 62.5t-51.5 87t-16 102q0 86 26 154t84 145l138 184q55 74 73 131.5t41 214.5h203q-30 -188 -46 -240q-26 -87 -97 -179l-148 -191q-35 -45 -48 -84.5t-13 -91.5q0 -54 34 -88.5t111 -34.5q98 0 203 31l68 -180q-118 -45 -308 -45z
M403 1266l35 252h238l-37 -252h-236z" />
    <glyph glyph-name="Agrave" unicode="&#xc0;" horiz-adv-x="927" 
d="M-84 0l539 1522h229l117 -1522h-219l-19 287h-338l-96 -287h-213zM291 481h256l-23 437l-14 233l-74 -231zM516 1587l-172 316h237l115 -316h-180z" />
    <glyph glyph-name="Aacute" unicode="&#xc1;" horiz-adv-x="927" 
d="M-84 0l539 1522h229l117 -1522h-219l-19 287h-338l-96 -287h-213zM291 481h256l-23 437l-14 233l-74 -231zM448 1587l205 316h238l-260 -316h-183z" />
    <glyph glyph-name="Acircumflex" unicode="&#xc2;" horiz-adv-x="927" 
d="M-84 0l539 1522h229l117 -1522h-219l-19 287h-338l-96 -287h-213zM291 481h256l-23 437l-14 233l-74 -231zM278 1587l240 316h207l149 -316h-178l-92 174l-141 -174h-185z" />
    <glyph glyph-name="Atilde" unicode="&#xc3;" horiz-adv-x="927" 
d="M-84 0l539 1522h229l117 -1522h-219l-19 287h-338l-96 -287h-213zM291 481h256l-23 437l-14 233l-74 -231zM442 1579l-160 27q18 75 40.5 120t64.5 71t106 26q41 0 104 -32t79 -32q28 0 41.5 14t23.5 56l158 -27q-26 -112 -72 -163.5t-137 -51.5q-43 0 -105 32t-77 32
q-28 0 -42 -15t-24 -57z" />
    <glyph glyph-name="Adieresis" unicode="&#xc4;" horiz-adv-x="927" 
d="M-84 0l539 1522h229l117 -1522h-219l-19 287h-338l-96 -287h-213zM291 481h256l-23 437l-14 233l-74 -231zM338 1587l30 223h183l-33 -223h-180zM641 1587l31 223h180l-33 -223h-178z" />
    <glyph glyph-name="Aring" unicode="&#xc5;" horiz-adv-x="927" 
d="M-84 0l516 1456q-46 41 -43 133q0 20 4 70q13 109 57.5 164t143.5 55q96 0 135 -45t39 -127q0 -36 -6 -74q-17 -127 -74 -174l113 -1458h-219l-19 287h-338l-96 -287h-213zM291 481h256l-23 437l-14 233l-74 -231zM565 1524q46 0 63 26.5t25 89.5q4 40 4 56q0 78 -67 78
q-46 0 -64 -29.5t-26 -95.5q-4 -32 -4 -50q0 -75 69 -75z" />
    <glyph glyph-name="AE" unicode="&#xc6;" horiz-adv-x="1298" 
d="M-113 0l693 1518h782l-27 -199h-438l-63 -447h413l-28 -196h-412l-68 -481h439l-27 -195h-641l49 348h-299l-156 -348h-217zM340 530h244l110 785z" />
    <glyph glyph-name="Ccedilla" unicode="&#xc7;" horiz-adv-x="770" 
d="M242 -444q-106 0 -187 47l64 108q64 -33 117 -33q49 0 69.5 21t20.5 78q0 25 -14.5 38.5t-35 16t-51.5 0.5l-37 33l48 149q-218 75 -218 392q0 108 35 370q17 119 33.5 206.5t38.5 170.5t49 140t63.5 105.5t82.5 76.5t104.5 43.5t132.5 15.5q161 0 279 -49l-84 -197
q-88 39 -193 39q-41 0 -72 -9.5t-56 -26t-45 -50.5t-35 -72.5t-29 -103.5t-25.5 -131.5t-26.5 -167.5q-32 -235 -32 -348q0 -123 42.5 -175.5t145.5 -52.5q86 0 160 29l63 -182q-112 -47 -248 -47q-9 0 -27 1t-26 1l-26 -88q137 4 137 -121q0 -131 -54.5 -179t-162.5 -48z
" />
    <glyph glyph-name="Egrave" unicode="&#xc8;" horiz-adv-x="808" 
d="M-12 0l213 1518h653l-29 -199h-438l-61 -445h417l-28 -198h-418l-70 -481h439l-25 -195h-653zM459 1587l-172 316h237l115 -316h-180z" />
    <glyph glyph-name="Eacute" unicode="&#xc9;" horiz-adv-x="808" 
d="M391 1587l205 316h238l-261 -316h-182zM-12 0l213 1518h653l-29 -199h-438l-61 -445h417l-28 -198h-418l-70 -481h439l-25 -195h-653z" />
    <glyph glyph-name="Ecircumflex" unicode="&#xca;" horiz-adv-x="808" 
d="M221 1587l240 316h207l149 -316h-178l-92 174l-141 -174h-185zM-12 0l213 1518h653l-29 -199h-438l-61 -445h417l-28 -198h-418l-70 -481h439l-25 -195h-653z" />
    <glyph glyph-name="Edieresis" unicode="&#xcb;" horiz-adv-x="808" 
d="M281 1587l30 223h183l-33 -223h-180zM584 1587l30 223h181l-33 -223h-178zM-12 0l213 1518h653l-29 -199h-438l-61 -445h417l-28 -198h-418l-70 -481h439l-25 -195h-653z" />
    <glyph glyph-name="Igrave" unicode="&#xcc;" horiz-adv-x="425" 
d="M238 1589l-138 316h238l82 -316h-182zM0 0l213 1518h215l-213 -1518h-215z" />
    <glyph glyph-name="Iacute" unicode="&#xcd;" horiz-adv-x="425" 
d="M233 1589l177 316h237l-233 -316h-181zM0 0l213 1518h215l-213 -1518h-215z" />
    <glyph glyph-name="Icircumflex" unicode="&#xce;" horiz-adv-x="425" 
d="M0 0l213 1518h215l-213 -1518h-215zM30 1587l240 316h207l149 -316h-178l-92 174l-141 -174h-185z" />
    <glyph glyph-name="Idieresis" unicode="&#xcf;" horiz-adv-x="425" 
d="M0 0l213 1518h215l-213 -1518h-215zM90 1587l30 223h183l-33 -223h-180zM393 1587l31 223h180l-33 -223h-178z" />
    <glyph glyph-name="Eth" unicode="&#xd0;" horiz-adv-x="946" 
d="M-8 680l26 180h88l95 658h282q128 0 216 -26.5t138.5 -81t71.5 -127t21 -175.5q0 -105 -37 -377q-12 -83 -21 -141t-22 -124.5t-26 -111t-31 -94t-38.5 -81t-48 -64t-60 -51.5t-73 -35t-89.5 -22.5t-107 -6.5h-391l96 680h-90zM227 186h146q40 0 70.5 5t56.5 19.5t44 32
t35 53t28.5 72t24 98t22 122t22.5 153.5q35 262 35 349q0 129 -51.5 181t-186.5 52h-86l-65 -463h165l-26 -180h-164z" />
    <glyph glyph-name="Ntilde" unicode="&#xd1;" horiz-adv-x="962" 
d="M-12 0l213 1518h221l164 -740l51 -248l139 988h199l-213 -1518h-193l-178 770l-55 274l-150 -1044h-198zM461 1579l-160 27q18 75 40.5 120t64.5 71t106 26q41 0 104 -32t79 -32q28 0 41.5 14t23.5 56l158 -27q-26 -112 -72 -163.5t-137 -51.5q-43 0 -105 32t-77 32
q-28 0 -42 -15t-24 -57z" />
    <glyph glyph-name="Ograve" unicode="&#xd2;" horiz-adv-x="980" 
d="M414 -10q-109 0 -187.5 30t-123 87t-65 131.5t-20.5 171.5q0 110 37 378q16 114 30.5 194t36.5 163.5t48 139t64 106.5t86 80t111.5 46t143.5 17q107 0 184 -29.5t121.5 -86t64.5 -129.5t20 -169q0 -114 -39 -389q-16 -111 -30 -189t-35.5 -161t-47.5 -138.5t-63.5 -107
t-84.5 -81t-110 -47t-141 -17.5zM428 186q47 0 81 10.5t61.5 40.5t45.5 67t35 106t29.5 141t28.5 188q36 241 36 361q0 121 -42 175t-144 54q-48 0 -83 -11t-63 -41t-47 -67.5t-36.5 -107t-30 -142t-29.5 -188.5q-34 -283 -34 -352q0 -124 43 -179t149 -55zM543 1587
l-172 316h237l115 -316h-180z" />
    <glyph glyph-name="Oacute" unicode="&#xd3;" horiz-adv-x="980" 
d="M475 1587l205 316h238l-261 -316h-182zM414 -10q-109 0 -187.5 30t-123 87t-65 131.5t-20.5 171.5q0 110 37 378q16 114 30.5 194t36.5 163.5t48 139t64 106.5t86 80t111.5 46t143.5 17q107 0 184 -29.5t121.5 -86t64.5 -129.5t20 -169q0 -114 -39 -389
q-16 -111 -30 -189t-35.5 -161t-47.5 -138.5t-63.5 -107t-84.5 -81t-110 -47t-141 -17.5zM428 186q47 0 81 10.5t61.5 40.5t45.5 67t35 106t29.5 141t28.5 188q36 241 36 361q0 121 -42 175t-144 54q-48 0 -83 -11t-63 -41t-47 -67.5t-36.5 -107t-30 -142t-29.5 -188.5
q-34 -283 -34 -352q0 -124 43 -179t149 -55z" />
    <glyph glyph-name="Ocircumflex" unicode="&#xd4;" horiz-adv-x="980" 
d="M305 1587l240 316h207l149 -316h-178l-92 174l-142 -174h-184zM414 -10q-109 0 -187.5 30t-123 87t-65 131.5t-20.5 171.5q0 110 37 378q16 114 30.5 194t36.5 163.5t48 139t64 106.5t86 80t111.5 46t143.5 17q107 0 184 -29.5t121.5 -86t64.5 -129.5t20 -169
q0 -114 -39 -389q-16 -111 -30 -189t-35.5 -161t-47.5 -138.5t-63.5 -107t-84.5 -81t-110 -47t-141 -17.5zM428 186q47 0 81 10.5t61.5 40.5t45.5 67t35 106t29.5 141t28.5 188q36 241 36 361q0 121 -42 175t-144 54q-48 0 -83 -11t-63 -41t-47 -67.5t-36.5 -107t-30 -142
t-29.5 -188.5q-34 -283 -34 -352q0 -124 43 -179t149 -55z" />
    <glyph glyph-name="Otilde" unicode="&#xd5;" horiz-adv-x="980" 
d="M414 -10q-109 0 -187.5 30t-123 87t-65 131.5t-20.5 171.5q0 110 37 378q16 114 30.5 194t36.5 163.5t48 139t64 106.5t86 80t111.5 46t143.5 17q107 0 184 -29.5t121.5 -86t64.5 -129.5t20 -169q0 -114 -39 -389q-16 -111 -30 -189t-35.5 -161t-47.5 -138.5t-63.5 -107
t-84.5 -81t-110 -47t-141 -17.5zM428 186q47 0 81 10.5t61.5 40.5t45.5 67t35 106t29.5 141t28.5 188q36 241 36 361q0 121 -42 175t-144 54q-48 0 -83 -11t-63 -41t-47 -67.5t-36.5 -107t-30 -142t-29.5 -188.5q-34 -283 -34 -352q0 -124 43 -179t149 -55zM469 1579
l-160 27q18 75 40.5 120t64.5 71t106 26q41 0 104 -32t79 -32q28 0 41.5 14t23.5 56l158 -27q-26 -112 -72 -163.5t-137 -51.5q-43 0 -105 32t-77 32q-28 0 -42 -15t-24 -57z" />
    <glyph glyph-name="Odieresis" unicode="&#xd6;" horiz-adv-x="980" 
d="M365 1587l30 223h183l-33 -223h-180zM668 1587l30 223h181l-33 -223h-178zM414 -10q-109 0 -187.5 30t-123 87t-65 131.5t-20.5 171.5q0 110 37 378q16 114 30.5 194t36.5 163.5t48 139t64 106.5t86 80t111.5 46t143.5 17q107 0 184 -29.5t121.5 -86t64.5 -129.5t20 -169
q0 -114 -39 -389q-16 -111 -30 -189t-35.5 -161t-47.5 -138.5t-63.5 -107t-84.5 -81t-110 -47t-141 -17.5zM428 186q47 0 81 10.5t61.5 40.5t45.5 67t35 106t29.5 141t28.5 188q36 241 36 361q0 121 -42 175t-144 54q-48 0 -83 -11t-63 -41t-47 -67.5t-36.5 -107t-30 -142
t-29.5 -188.5q-34 -283 -34 -352q0 -124 43 -179t149 -55z" />
    <glyph glyph-name="multiply" unicode="&#xd7;" horiz-adv-x="925" 
d="M246 461l-103 114l203 177l-147 174l120 110l150 -176l207 180l100 -114l-207 -183l150 -174l-123 -108l-152 174z" />
    <glyph glyph-name="Oslash" unicode="&#xd8;" horiz-adv-x="980" 
d="M414 -10q-59 0 -121 10l-31 -84h-184l57 156q-117 101 -117 338q0 110 37 378q16 114 30.5 194t36.5 163.5t48 139t64 106.5t86 80t111.5 46t143.5 17q54 0 109 -10l31 80h186l-57 -150q121 -104 121 -334q0 -114 -39 -389q-16 -111 -30 -189t-35.5 -161t-47.5 -138.5
t-63.5 -107t-84.5 -81t-110 -47t-141 -17.5zM424 172q48 0 83 11t63.5 41t47.5 68.5t36.5 108.5t30.5 145t30 193q37 251 37 369q0 63 -11 106l-391 -1034q27 -8 74 -8zM229 410q0 -60 9 -103l389 1028q-27 6 -64 6q-49 0 -85 -11t-65 -41t-48.5 -68.5t-37.5 -109t-31 -146
t-30 -193.5q-37 -281 -37 -362z" />
    <glyph glyph-name="Ugrave" unicode="&#xd9;" horiz-adv-x="964" 
d="M408 -16q-130 0 -212.5 34t-118 95.5t-44 148.5t9.5 193l150 1063h215l-148 -1057q-11 -83 -10 -145t40.5 -98t121.5 -36q105 0 150 63t67 226l147 1047h209l-149 -1063q-14 -101 -32 -170t-49.5 -130t-76.5 -96t-112 -55t-158 -20zM535 1587l-172 316h237l115 -316h-180
z" />
    <glyph glyph-name="Uacute" unicode="&#xda;" horiz-adv-x="964" 
d="M467 1587l205 316h237l-260 -316h-182zM408 -16q-130 0 -212.5 34t-118 95.5t-44 148.5t9.5 193l150 1063h215l-148 -1057q-11 -83 -10 -145t40.5 -98t121.5 -36q105 0 150 63t67 226l147 1047h209l-149 -1063q-14 -101 -32 -170t-49.5 -130t-76.5 -96t-112 -55t-158 -20
z" />
    <glyph glyph-name="Ucircumflex" unicode="&#xdb;" horiz-adv-x="964" 
d="M297 1587l240 316h206l150 -316h-178l-92 174l-142 -174h-184zM408 -16q-130 0 -212.5 34t-118 95.5t-44 148.5t9.5 193l150 1063h215l-148 -1057q-11 -83 -10 -145t40.5 -98t121.5 -36q105 0 150 63t67 226l147 1047h209l-149 -1063q-14 -101 -32 -170t-49.5 -130
t-76.5 -96t-112 -55t-158 -20z" />
    <glyph glyph-name="Udieresis" unicode="&#xdc;" horiz-adv-x="964" 
d="M356 1587l31 223h182l-32 -223h-181zM659 1587l31 223h180l-32 -223h-179zM408 -16q-130 0 -212.5 34t-118 95.5t-44 148.5t9.5 193l150 1063h215l-148 -1057q-11 -83 -10 -145t40.5 -98t121.5 -36q105 0 150 63t67 226l147 1047h209l-149 -1063q-14 -101 -32 -170
t-49.5 -130t-76.5 -96t-112 -55t-158 -20z" />
    <glyph glyph-name="Yacute" unicode="&#xdd;" horiz-adv-x="894" 
d="M231 0l76 530l-196 988h221l123 -701l321 701h221l-477 -988l-76 -530h-213zM432 1587l205 316h238l-260 -316h-183z" />
    <glyph glyph-name="Thorn" unicode="&#xde;" horiz-adv-x="909" 
d="M-12 0l213 1518h211l-33 -248h104q218 0 306 -77t88 -245q0 -77 -15 -176q-37 -260 -128.5 -359.5t-299.5 -99.5h-190l-45 -313h-211zM270 502h168q69 0 109 22.5t65.5 82t42.5 173.5q11 101 11 133q0 92 -43 129t-152 37h-121z" />
    <glyph glyph-name="germandbls" unicode="&#xdf;" horiz-adv-x="849" 
d="M-72 -311l215 1525q25 176 109 270.5t260 94.5q173 0 244 -66.5t71 -203.5q0 -71 -12 -150q-10 -61 -15 -92t-14.5 -72t-19 -62t-24.5 -44.5t-34.5 -36.5t-45.5 -23q65 -24 91.5 -76t26.5 -143q0 -60 -18 -200q-15 -105 -38.5 -178t-54 -118.5t-77 -70.5t-97 -34
t-124.5 -9h-105l23 184h80q61 0 96.5 19t61.5 76t42 165q11 94 11 125q0 86 -35.5 116t-130.5 30h-17l25 174h37q84 0 116 50t50 183q10 59 10 123q0 73 -28.5 106t-102.5 33q-36 0 -62.5 -11.5t-42 -27.5t-27 -44t-16.5 -50.5t-10 -56.5l-211 -1505h-207z" />
    <glyph glyph-name="agrave" unicode="&#xe0;" horiz-adv-x="808" 
d="M233 -8q-135 0 -194.5 64.5t-61.5 191.5q0 69 11 139q18 123 49.5 199t89.5 118.5t131.5 57t192.5 14.5h51q7 34 5.5 67t-9.5 58.5t-34.5 41t-70.5 15.5q-96 0 -182 -26l-61 184q103 41 286 41q95 0 156.5 -25t89 -71t34.5 -111t-7 -145l-74 -533q-10 -46 -1 -67t54 -21
l-24 -184q-14 -2 -82 -2q-59 0 -87 16t-36 49q-77 -71 -226 -71zM276 166q78 0 114.5 43.5t53.5 159.5l33 235q-84 0 -129 -6t-80.5 -28t-52 -62t-27.5 -111q-10 -75 -10 -114q0 -58 22 -87.5t76 -29.5zM410 1245l-172 316h237l115 -316h-180z" />
    <glyph glyph-name="aacute" unicode="&#xe1;" horiz-adv-x="808" 
d="M233 -8q-135 0 -194.5 64.5t-61.5 191.5q0 69 11 139q18 123 49.5 199t89.5 118.5t131.5 57t192.5 14.5h51q7 34 5.5 67t-9.5 58.5t-34.5 41t-70.5 15.5q-96 0 -182 -26l-61 184q103 41 286 41q95 0 156.5 -25t89 -71t34.5 -111t-7 -145l-74 -533q-10 -46 -1 -67t54 -21
l-24 -184q-14 -2 -82 -2q-59 0 -87 16t-36 49q-77 -71 -226 -71zM276 166q78 0 114.5 43.5t53.5 159.5l33 235q-84 0 -129 -6t-80.5 -28t-52 -62t-27.5 -111q-10 -75 -10 -114q0 -58 22 -87.5t76 -29.5zM342 1245l205 316h238l-260 -316h-183z" />
    <glyph glyph-name="acircumflex" unicode="&#xe2;" horiz-adv-x="808" 
d="M233 -8q-135 0 -194.5 64.5t-61.5 191.5q0 69 11 139q18 123 49.5 199t89.5 118.5t131.5 57t192.5 14.5h51q7 34 5.5 67t-9.5 58.5t-34.5 41t-70.5 15.5q-96 0 -182 -26l-61 184q103 41 286 41q95 0 156.5 -25t89 -71t34.5 -111t-7 -145l-74 -533q-10 -46 -1 -67t54 -21
l-24 -184q-14 -2 -82 -2q-59 0 -87 16t-36 49q-77 -71 -226 -71zM276 166q78 0 114.5 43.5t53.5 159.5l33 235q-84 0 -129 -6t-80.5 -28t-52 -62t-27.5 -111q-10 -75 -10 -114q0 -58 22 -87.5t76 -29.5zM172 1245l240 316h207l149 -316h-178l-92 174l-141 -174h-185z" />
    <glyph glyph-name="atilde" unicode="&#xe3;" horiz-adv-x="808" 
d="M233 -8q-135 0 -194.5 64.5t-61.5 191.5q0 69 11 139q18 123 49.5 199t89.5 118.5t131.5 57t192.5 14.5h51q7 34 5.5 67t-9.5 58.5t-34.5 41t-70.5 15.5q-96 0 -182 -26l-61 184q103 41 286 41q95 0 156.5 -25t89 -71t34.5 -111t-7 -145l-74 -533q-10 -46 -1 -67t54 -21
l-24 -184q-14 -2 -82 -2q-59 0 -87 16t-36 49q-77 -71 -226 -71zM276 166q78 0 114.5 43.5t53.5 159.5l33 235q-84 0 -129 -6t-80.5 -28t-52 -62t-27.5 -111q-10 -75 -10 -114q0 -58 22 -87.5t76 -29.5zM336 1237l-160 27q18 75 40.5 120t64.5 71t106 26q41 0 104 -32
t79 -32q28 0 41.5 14t23.5 56l158 -27q-26 -112 -72 -163.5t-137 -51.5q-43 0 -105 32t-77 32q-28 0 -42 -15t-24 -57z" />
    <glyph glyph-name="adieresis" unicode="&#xe4;" horiz-adv-x="808" 
d="M233 -8q-135 0 -194.5 64.5t-61.5 191.5q0 69 11 139q18 123 49.5 199t89.5 118.5t131.5 57t192.5 14.5h51q7 34 5.5 67t-9.5 58.5t-34.5 41t-70.5 15.5q-96 0 -182 -26l-61 184q103 41 286 41q95 0 156.5 -25t89 -71t34.5 -111t-7 -145l-74 -533q-10 -46 -1 -67t54 -21
l-24 -184q-14 -2 -82 -2q-59 0 -87 16t-36 49q-77 -71 -226 -71zM276 166q78 0 114.5 43.5t53.5 159.5l33 235q-84 0 -129 -6t-80.5 -28t-52 -62t-27.5 -111q-10 -75 -10 -114q0 -58 22 -87.5t76 -29.5zM232 1245l30 223h183l-33 -223h-180zM535 1245l31 223h180l-33 -223
h-178z" />
    <glyph glyph-name="aring" unicode="&#xe5;" horiz-adv-x="808" 
d="M233 -8q-135 0 -194.5 64.5t-61.5 191.5q0 69 11 139q18 123 49.5 199t89.5 118.5t131.5 57t192.5 14.5h51q7 34 5.5 67t-9.5 58.5t-34.5 41t-70.5 15.5q-96 0 -182 -26l-61 184q103 41 286 41q95 0 156.5 -25t89 -71t34.5 -111t-7 -145l-74 -533q-10 -46 -1 -67t54 -21
l-24 -184q-14 -2 -82 -2q-59 0 -87 16t-36 49q-77 -71 -226 -71zM276 166q78 0 114.5 43.5t53.5 159.5l33 235q-84 0 -129 -6t-80.5 -28t-52 -62t-27.5 -111q-10 -75 -10 -114q0 -58 22 -87.5t76 -29.5zM480 1235q-94 0 -131 44.5t-35 125.5q0 20 4 70q13 109 57 164t143 55
q97 0 136 -45t39 -127q0 -30 -7 -74q-13 -106 -58 -159.5t-148 -53.5zM490 1339q46 0 62.5 27t25.5 90q4 40 4 55q0 78 -68 78q-46 0 -64 -29.5t-26 -95.5q-4 -32 -4 -49q0 -76 70 -76z" />
    <glyph glyph-name="ae" unicode="&#xe6;" horiz-adv-x="1204" 
d="M768 -10q-186 0 -250 116q-53 -67 -116 -90.5t-169 -23.5q-135 0 -194.5 64.5t-61.5 191.5q0 54 13 137q12 83 29.5 143t45.5 104t61.5 71.5t83.5 44t106.5 22.5t134.5 6h51q7 34 5.5 67t-9.5 58.5t-34.5 41t-70.5 15.5q-96 0 -182 -26l-61 184q103 41 286 41
q162 0 221 -78q78 78 222 78q154 0 222 -72t68 -221q0 -127 -45 -391h-467q-10 -92 -10 -139q0 -87 32.5 -124.5t113.5 -37.5q112 0 204 31l56 -170q-125 -43 -285 -43zM276 166q38 0 65.5 11t45 29t30 51.5t19.5 66t15 86.5l26 194q-83 0 -129.5 -6.5t-81.5 -29.5
t-51.5 -62.5t-26.5 -108.5q-10 -75 -10 -114q0 -58 22 -87.5t76 -29.5zM866 965q-84 0 -120 -66t-64 -240h274q21 147 21 183q0 68 -25 95.5t-86 27.5z" />
    <glyph glyph-name="ccedilla" unicode="&#xe7;" horiz-adv-x="610" 
d="M164 -444q-106 0 -187 47l64 108q64 -33 117 -33q49 0 69.5 21t20.5 78q0 25 -14.5 38.5t-35 16t-51.5 0.5l-36 33l49 151q-162 67 -162 316q0 109 22 266q16 111 34.5 191.5t49.5 153.5t73 117.5t103.5 70.5t141.5 26q116 0 203 -35l-84 -188q-57 22 -115 22
q-38 0 -65.5 -14.5t-46.5 -40t-34 -76t-25.5 -104.5t-23.5 -143q-22 -180 -22 -236q0 -87 29.5 -126.5t97.5 -39.5q53 0 102 14l41 -176q-72 -22 -178 -22q-21 0 -31 2l-26 -90q137 4 137 -121q0 -131 -54.5 -179t-162.5 -48z" />
    <glyph glyph-name="egrave" unicode="&#xe8;" horiz-adv-x="753" 
d="M315 -10q-317 0 -317 346q0 108 22 262q17 116 37 199t51.5 154.5t74 114.5t103 67t140.5 24q155 0 223 -71.5t68 -221.5q0 -120 -43 -391h-467q-10 -92 -10 -139q0 -87 32 -124.5t113 -37.5q113 0 205 31l55 -170q-128 -43 -287 -43zM416 965q-85 0 -122 -67t-63 -239
h275q18 135 18 183q0 69 -24 96t-84 27zM383 1245l-172 316h237l115 -316h-180z" />
    <glyph glyph-name="eacute" unicode="&#xe9;" horiz-adv-x="753" 
d="M315 1245l205 316h238l-260 -316h-183zM315 -10q-317 0 -317 346q0 108 22 262q17 116 37 199t51.5 154.5t74 114.5t103 67t140.5 24q155 0 223 -71.5t68 -221.5q0 -120 -43 -391h-467q-10 -92 -10 -139q0 -87 32 -124.5t113 -37.5q113 0 205 31l55 -170
q-128 -43 -287 -43zM416 965q-85 0 -122 -67t-63 -239h275q18 135 18 183q0 69 -24 96t-84 27z" />
    <glyph glyph-name="ecircumflex" unicode="&#xea;" horiz-adv-x="753" 
d="M145 1245l240 316h207l149 -316h-178l-92 174l-141 -174h-185zM315 -10q-317 0 -317 346q0 108 22 262q17 116 37 199t51.5 154.5t74 114.5t103 67t140.5 24q155 0 223 -71.5t68 -221.5q0 -120 -43 -391h-467q-10 -92 -10 -139q0 -87 32 -124.5t113 -37.5q113 0 205 31
l55 -170q-128 -43 -287 -43zM416 965q-85 0 -122 -67t-63 -239h275q18 135 18 183q0 69 -24 96t-84 27z" />
    <glyph glyph-name="edieresis" unicode="&#xeb;" horiz-adv-x="753" 
d="M205 1245l31 223h182l-33 -223h-180zM508 1245l31 223h180l-33 -223h-178zM315 -10q-317 0 -317 346q0 108 22 262q17 116 37 199t51.5 154.5t74 114.5t103 67t140.5 24q155 0 223 -71.5t68 -221.5q0 -120 -43 -391h-467q-10 -92 -10 -139q0 -87 32 -124.5t113 -37.5
q113 0 205 31l55 -170q-128 -43 -287 -43zM416 965q-85 0 -122 -67t-63 -239h275q18 135 18 183q0 69 -24 96t-84 27z" />
    <glyph glyph-name="igrave" unicode="&#xec;" horiz-adv-x="378" 
d="M170 1245l-100 316h225l57 -316h-182zM-20 0l161 1145h207l-162 -1145h-206z" />
    <glyph glyph-name="iacute" unicode="&#xed;" horiz-adv-x="378" 
d="M162 1245l151 316h228l-195 -316h-184zM-20 0l161 1145h207l-162 -1145h-206z" />
    <glyph glyph-name="icircumflex" unicode="&#xee;" horiz-adv-x="378" 
d="M-23 1245l220 316h206l134 -316h-179l-75 174l-123 -174h-183zM-20 0l161 1145h207l-162 -1145h-206z" />
    <glyph glyph-name="idieresis" unicode="&#xef;" horiz-adv-x="378" 
d="M18 1245l31 223h182l-32 -223h-181zM311 1245l31 223h180l-30 -223h-181zM-20 0l161 1145h207l-162 -1145h-206z" />
    <glyph glyph-name="eth" unicode="&#xf0;" horiz-adv-x="817" 
d="M391 1210l23 168l94 23q-21 61 -49 119l172 61q39 -69 63 -135l178 43l-22 -168l-109 -27q37 -158 37 -331q0 -167 -30 -398q-24 -158 -53 -259.5t-76.5 -176t-116.5 -107t-170 -32.5q-181 0 -257.5 88.5t-76.5 253.5q0 105 25 264q14 106 30 182.5t44.5 151t66.5 120
t96.5 73.5t134.5 28q138 0 185 -53q-7 66 -27 151zM336 176q23 0 42 4.5t34.5 11.5t28.5 22t22.5 29t18.5 40.5t15 49.5t13 62t12 71.5l13 84.5q22 154 22 246q0 84 -28 122.5t-101 38.5q-30 0 -53 -8t-41 -20.5t-32 -38.5t-24 -52.5t-19.5 -72.5t-16 -87.5t-15.5 -107.5
q-24 -165 -24 -235q0 -83 29.5 -121.5t103.5 -38.5z" />
    <glyph glyph-name="ntilde" unicode="&#xf1;" horiz-adv-x="839" 
d="M-27 0l158 1133l174 10l-2 -56q65 70 232 70q55 0 97 -10.5t69.5 -28t45 -45.5t25.5 -55.5t9.5 -67t-1 -71.5t-8.5 -76l-113 -803h-206l102 735q8 66 10 116t-24.5 78.5t-87.5 28.5q-79 0 -115.5 -48t-56.5 -189l-103 -721h-205zM352 1237l-160 27q18 75 40.5 120
t64.5 71t106 26q41 0 104 -32t79 -32q28 0 41.5 14t23.5 56l158 -27q-26 -112 -72 -163.5t-137 -51.5q-43 0 -105 32t-77 32q-28 0 -42 -15t-24 -57z" />
    <glyph glyph-name="ograve" unicode="&#xf2;" horiz-adv-x="817" 
d="M324 -10q-74 0 -131 17.5t-93.5 47.5t-59.5 74.5t-32.5 94.5t-9.5 112q0 111 22 262q11 79 23 139.5t29.5 121.5t39.5 104t53.5 81.5t70 62t90 37t114.5 13.5q92 0 157.5 -25.5t102 -73.5t52.5 -107.5t16 -135.5q0 -91 -25 -266q-11 -79 -22.5 -139.5t-29 -121.5
t-39 -104t-52.5 -81.5t-70 -62t-91 -37t-115 -13.5zM336 176q34 0 59.5 8t44.5 30.5t32 47.5t24.5 74.5t19.5 95.5t19 125q22 135 22 238q0 86 -28 124.5t-101 38.5q-34 0 -59.5 -8t-45 -30t-32.5 -47.5t-25 -74t-20 -95.5t-19 -125q-24 -171 -24 -238q0 -86 30 -125
t103 -39zM414 1245l-172 316h237l115 -316h-180z" />
    <glyph glyph-name="oacute" unicode="&#xf3;" horiz-adv-x="817" 
d="M346 1245l205 316h237l-260 -316h-182zM324 -10q-74 0 -131 17.5t-93.5 47.5t-59.5 74.5t-32.5 94.5t-9.5 112q0 111 22 262q11 79 23 139.5t29.5 121.5t39.5 104t53.5 81.5t70 62t90 37t114.5 13.5q92 0 157.5 -25.5t102 -73.5t52.5 -107.5t16 -135.5q0 -91 -25 -266
q-11 -79 -22.5 -139.5t-29 -121.5t-39 -104t-52.5 -81.5t-70 -62t-91 -37t-115 -13.5zM336 176q34 0 59.5 8t44.5 30.5t32 47.5t24.5 74.5t19.5 95.5t19 125q22 135 22 238q0 86 -28 124.5t-101 38.5q-34 0 -59.5 -8t-45 -30t-32.5 -47.5t-25 -74t-20 -95.5t-19 -125
q-24 -171 -24 -238q0 -86 30 -125t103 -39z" />
    <glyph glyph-name="ocircumflex" unicode="&#xf4;" horiz-adv-x="817" 
d="M176 1245l240 316h207l149 -316h-178l-92 174l-142 -174h-184zM324 -10q-74 0 -131 17.5t-93.5 47.5t-59.5 74.5t-32.5 94.5t-9.5 112q0 111 22 262q11 79 23 139.5t29.5 121.5t39.5 104t53.5 81.5t70 62t90 37t114.5 13.5q92 0 157.5 -25.5t102 -73.5t52.5 -107.5
t16 -135.5q0 -91 -25 -266q-11 -79 -22.5 -139.5t-29 -121.5t-39 -104t-52.5 -81.5t-70 -62t-91 -37t-115 -13.5zM336 176q34 0 59.5 8t44.5 30.5t32 47.5t24.5 74.5t19.5 95.5t19 125q22 135 22 238q0 86 -28 124.5t-101 38.5q-34 0 -59.5 -8t-45 -30t-32.5 -47.5t-25 -74
t-20 -95.5t-19 -125q-24 -171 -24 -238q0 -86 30 -125t103 -39z" />
    <glyph glyph-name="otilde" unicode="&#xf5;" horiz-adv-x="817" 
d="M324 -10q-74 0 -131 17.5t-93.5 47.5t-59.5 74.5t-32.5 94.5t-9.5 112q0 111 22 262q11 79 23 139.5t29.5 121.5t39.5 104t53.5 81.5t70 62t90 37t114.5 13.5q92 0 157.5 -25.5t102 -73.5t52.5 -107.5t16 -135.5q0 -91 -25 -266q-11 -79 -22.5 -139.5t-29 -121.5
t-39 -104t-52.5 -81.5t-70 -62t-91 -37t-115 -13.5zM336 176q34 0 59.5 8t44.5 30.5t32 47.5t24.5 74.5t19.5 95.5t19 125q22 135 22 238q0 86 -28 124.5t-101 38.5q-34 0 -59.5 -8t-45 -30t-32.5 -47.5t-25 -74t-20 -95.5t-19 -125q-24 -171 -24 -238q0 -86 30 -125
t103 -39zM340 1237l-160 27q18 75 40.5 120t64.5 71t106 26q41 0 104 -32t79 -32q28 0 41.5 14t23.5 56l158 -27q-26 -112 -72 -163.5t-137 -51.5q-43 0 -105 32t-77 32q-28 0 -42 -15t-24 -57z" />
    <glyph glyph-name="odieresis" unicode="&#xf6;" horiz-adv-x="817" 
d="M236 1245l30 223h183l-33 -223h-180zM539 1245l30 223h181l-33 -223h-178zM324 -10q-74 0 -131 17.5t-93.5 47.5t-59.5 74.5t-32.5 94.5t-9.5 112q0 111 22 262q11 79 23 139.5t29.5 121.5t39.5 104t53.5 81.5t70 62t90 37t114.5 13.5q92 0 157.5 -25.5t102 -73.5
t52.5 -107.5t16 -135.5q0 -91 -25 -266q-11 -79 -22.5 -139.5t-29 -121.5t-39 -104t-52.5 -81.5t-70 -62t-91 -37t-115 -13.5zM336 176q34 0 59.5 8t44.5 30.5t32 47.5t24.5 74.5t19.5 95.5t19 125q22 135 22 238q0 86 -28 124.5t-101 38.5q-34 0 -59.5 -8t-45 -30
t-32.5 -47.5t-25 -74t-20 -95.5t-19 -125q-24 -171 -24 -238q0 -86 30 -125t103 -39z" />
    <glyph glyph-name="divide" unicode="&#xf7;" horiz-adv-x="925" 
d="M297 311l29 205h206l-28 -205h-207zM106 651l29 197h680l-29 -197h-680zM391 981l29 205h207l-29 -205h-207z" />
    <glyph glyph-name="oslash" unicode="&#xf8;" horiz-adv-x="819" 
d="M324 -10q-55 0 -107 10l-37 -86h-168l68 158q-82 82 -82 264q0 111 22 262q11 79 23 139.5t29.5 121.5t39.5 104t53.5 81.5t70 62t90 37t114.5 13.5q60 0 109 -12l37 86h168l-70 -158q84 -87 84 -258q0 -91 -25 -266q-11 -79 -22.5 -139.5t-29 -121.5t-39 -104
t-52.5 -81.5t-70 -62t-91 -37t-115 -13.5zM334 168q35 0 61 8t46.5 30.5t34 48t26 75.5t21 98t20.5 129q22 183 22 244v20l-286 -647q24 -6 55 -6zM197 334v-21l284 648q-24 6 -51 6q-35 0 -61.5 -8.5t-47 -30t-34.5 -48.5t-26 -75t-20.5 -98.5t-19.5 -128.5
q-24 -171 -24 -244z" />
    <glyph glyph-name="ugrave" unicode="&#xf9;" horiz-adv-x="827" 
d="M340 -10q-106 0 -177 27.5t-105 77.5t-44.5 120.5t4.5 157.5l111 772h205l-109 -768q-13 -102 8.5 -151.5t104.5 -49.5q77 0 110.5 46t49.5 157l106 766h203l-111 -799q-26 -178 -108.5 -267t-247.5 -89zM420 1245l-172 316h237l115 -316h-180z" />
    <glyph glyph-name="uacute" unicode="&#xfa;" horiz-adv-x="827" 
d="M352 1245l205 316h238l-260 -316h-183zM340 -10q-106 0 -177 27.5t-105 77.5t-44.5 120.5t4.5 157.5l111 772h205l-109 -768q-13 -102 8.5 -151.5t104.5 -49.5q77 0 110.5 46t49.5 157l106 766h203l-111 -799q-26 -178 -108.5 -267t-247.5 -89z" />
    <glyph glyph-name="ucircumflex" unicode="&#xfb;" horiz-adv-x="827" 
d="M182 1245l240 316h207l149 -316h-178l-92 174l-141 -174h-185zM340 -10q-106 0 -177 27.5t-105 77.5t-44.5 120.5t4.5 157.5l111 772h205l-109 -768q-13 -102 8.5 -151.5t104.5 -49.5q77 0 110.5 46t49.5 157l106 766h203l-111 -799q-26 -178 -108.5 -267t-247.5 -89z
" />
    <glyph glyph-name="udieresis" unicode="&#xfc;" horiz-adv-x="827" 
d="M242 1245l30 223h183l-33 -223h-180zM545 1245l30 223h181l-33 -223h-178zM340 -10q-106 0 -177 27.5t-105 77.5t-44.5 120.5t4.5 157.5l111 772h205l-109 -768q-13 -102 8.5 -151.5t104.5 -49.5q77 0 110.5 46t49.5 157l106 766h203l-111 -799q-26 -178 -108.5 -267
t-247.5 -89z" />
    <glyph glyph-name="yacute" unicode="&#xfd;" horiz-adv-x="735" 
d="M18 -313q-70 0 -84 2l27 182h66q55 1 75 11t31 40l31 84l-105 1139h209l35 -524l12 -256l80 249l180 531h205l-471 -1260q-45 -117 -106.5 -157.5t-184.5 -40.5zM307 1245l205 316h238l-260 -316h-183z" />
    <glyph glyph-name="thorn" unicode="&#xfe;" horiz-adv-x="841" 
d="M-72 -311l262 1874h207l-67 -473q70 67 205 67q145 0 203.5 -79.5t58.5 -223.5q0 -90 -31 -301q-11 -83 -20.5 -139t-24.5 -120t-32 -105.5t-41.5 -82t-55.5 -63.5t-72.5 -37t-93.5 -14q-188 0 -238 80l-53 -383h-207zM367 178q38 0 65.5 15t46 41t33 76.5t24 103.5
t21.5 141q25 168 25 240q0 83 -28 123t-93 40q-42 0 -71 -13.5t-48.5 -36.5t-34.5 -75t-25 -106t-24 -152q-25 -182 -25 -237q0 -82 30.5 -121t103.5 -39z" />
    <glyph glyph-name="ydieresis" unicode="&#xff;" horiz-adv-x="735" 
d="M18 -313q-70 0 -84 2l27 182h66q55 1 75 11t31 40l31 84l-105 1139h209l35 -524l12 -256l80 249l180 531h205l-471 -1260q-45 -117 -106.5 -157.5t-184.5 -40.5zM197 1245l30 223h183l-33 -223h-180zM500 1245l31 223h180l-33 -223h-178z" />
    <glyph glyph-name="dotlessi" unicode="&#x131;" horiz-adv-x="378" 
d="M-20 0l161 1145h207l-162 -1145h-206z" />
    <glyph glyph-name="Lslash" unicode="&#x141;" 
d="M-16 610l24 183l94 28l99 697h213l-90 -631l192 59l-27 -182l-190 -57l-72 -512h422l-26 -195h-635l90 639z" />
    <glyph glyph-name="lslash" unicode="&#x142;" horiz-adv-x="520" 
d="M10 821l27 185l133 71l70 486h206l-51 -367l162 86l-27 -184l-161 -86l-101 -727q-12 -63 0 -82t70 -19h12l-26 -184q-6 -2 -41 -2q-155 0 -201 57t-25 213l88 625z" />
    <glyph glyph-name="OE" unicode="&#x152;" horiz-adv-x="1415" 
d="M608 0l4 27q-78 -37 -198 -37q-109 0 -187.5 30t-123 87t-65 131.5t-20.5 171.5q0 110 37 378q16 114 30.5 194t36.5 163.5t48 139t64 106.5t86 80t111.5 46t143.5 17q155 0 240 -57l6 41h637l-26 -199h-439l-63 -447h420l-29 -196h-418l-69 -481h440l-29 -195h-637z
M428 186q47 0 81 10.5t61.5 40.5t45.5 67t35 106t29.5 141t28.5 188q36 241 36 361q0 121 -42 175t-144 54q-48 0 -83 -11t-63 -41t-47 -67.5t-36.5 -107t-30 -142t-29.5 -188.5q-34 -283 -34 -352q0 -124 43 -179t149 -55z" />
    <glyph glyph-name="oe" unicode="&#x153;" horiz-adv-x="1263" 
d="M827 -10q-172 0 -243 104q-84 -104 -260 -104q-74 0 -131 17.5t-93.5 47.5t-59.5 74.5t-32.5 94.5t-9.5 112q0 111 22 262q11 79 23 139.5t29.5 121.5t39.5 104t53.5 81.5t70 62t90 37t114.5 13.5q179 0 250 -104q84 104 246 104q155 0 224 -72t69 -221q0 -108 -45 -391
h-469q-10 -92 -10 -139q0 -87 32.5 -124.5t114.5 -37.5q113 0 205 31l55 -170q-128 -43 -285 -43zM336 176q34 0 59.5 8t44.5 30.5t32 47.5t24.5 74.5t19.5 95.5t19 125q22 135 22 238q0 86 -28 124.5t-101 38.5q-34 0 -59.5 -8t-45 -30t-32.5 -47.5t-25 -74t-20 -95.5
t-19 -125q-24 -171 -24 -238q0 -86 30 -125t103 -39zM926 965q-85 0 -121 -66.5t-64 -239.5h275q18 126 18 183q0 69 -24 96t-84 27z" />
    <glyph glyph-name="Scaron" unicode="&#x160;" horiz-adv-x="794" 
d="M408 1587l-150 316h180l92 -177l144 177h182l-240 -316h-208zM283 -10q-199 0 -355 82l109 178q114 -66 250 -66q83 0 133.5 50t50.5 147q0 52 -32 118t-136 236q-48 78 -64.5 106t-46 82.5t-39.5 83t-19 69t-9 79.5q0 171 99 274t286 103q98 0 163 -11.5t132 -39.5
l-88 -195q-87 41 -211 41q-73 0 -117.5 -45t-44.5 -123q0 -49 29 -108.5t119 -206.5q59 -97 86.5 -145t56.5 -109.5t39 -108t10 -98.5q0 -182 -103 -287.5t-298 -105.5z" />
    <glyph glyph-name="scaron" unicode="&#x161;" horiz-adv-x="673" 
d="M301 1245l-149 316h180l92 -177l143 177h183l-240 -316h-209zM236 -10q-163 0 -297 55l77 178q109 -51 230 -51q112 0 112 113q0 38 -25 84.5t-106 160.5q-75 104 -108 181t-33 147q0 141 81 221t241 80q134 0 231 -39l-72 -190q-83 33 -172 33q-53 0 -81.5 -26
t-28.5 -77q0 -33 22.5 -79t85.5 -134q95 -135 130.5 -208.5t35.5 -147.5q0 -148 -82.5 -224.5t-240.5 -76.5z" />
    <glyph glyph-name="Ydieresis" unicode="&#x178;" horiz-adv-x="894" 
d="M231 0l76 530l-196 988h221l123 -701l321 701h221l-477 -988l-76 -530h-213zM322 1587l30 223h183l-33 -223h-180zM625 1587l31 223h180l-33 -223h-178z" />
    <glyph glyph-name="Zcaron" unicode="&#x17d;" horiz-adv-x="813" 
d="M416 1587l-150 316h180l93 -177l143 177h182l-239 -316h-209zM-66 0l25 166l633 1153h-451l29 199h692l-24 -183l-629 -1140h483l-26 -195h-732z" />
    <glyph glyph-name="zcaron" unicode="&#x17e;" horiz-adv-x="643" 
d="M285 1245l-150 316h180l93 -177l143 177h182l-239 -316h-209zM-84 0l18 141l455 817h-315l24 187h564l-21 -144l-459 -829h355l-25 -172h-596z" />
    <glyph glyph-name="florin" unicode="&#x192;" horiz-adv-x="772" 
d="M68 733l22 174h152l45 324q11 78 27 126.5t48.5 87.5t87 56t136.5 17q13 0 49 -1t41 -1l-27 -189h-51q-60 0 -81.5 -32t-29.5 -111l-38 -277h217l-23 -174h-219l-145 -1044h-205l143 1044h-149z" />
    <glyph glyph-name="circumflex" unicode="&#x2c6;" 
d="M143 1245l240 316h207l149 -316h-178l-92 174l-141 -174h-185z" />
    <glyph glyph-name="caron" unicode="&#x2c7;" 
d="M338 1245l-150 316h181l92 -177l143 177h182l-239 -316h-209z" />
    <glyph glyph-name="breve" unicode="&#x2d8;" 
d="M463 1235q-81 0 -133 20t-77.5 61t-33 91t-4.5 123l150 12q-1 -36 1.5 -59t12 -45.5t31 -33.5t55.5 -11q62 0 88.5 32.5t46.5 116.5l150 -12q-24 -152 -91 -223.5t-196 -71.5z" />
    <glyph glyph-name="dotaccent" unicode="&#x2d9;" 
d="M340 1245l31 246h209l-33 -246h-207z" />
    <glyph glyph-name="ring" unicode="&#x2da;" 
d="M451 1235q-94 0 -131 44.5t-35 125.5q0 20 4 70q13 109 57 164t143 55q97 0 136 -45t39 -127q0 -30 -7 -74q-13 -106 -58 -159.5t-148 -53.5zM461 1339q46 0 62.5 27t25.5 90q4 40 4 55q0 78 -68 78q-46 0 -64 -29.5t-26 -95.5q-4 -32 -4 -49q0 -76 70 -76z" />
    <glyph glyph-name="ogonek" unicode="&#x2db;" 
d="M264 -412q-105 0 -151.5 37t-46.5 113q0 49 12 91.5t39.5 80.5t46.5 59t57 58h150q-37 -41 -50 -55.5t-40.5 -48t-37.5 -53t-20 -47t-10 -52.5q0 -60 63 -60h78l-16 -123h-74z" />
    <glyph glyph-name="tilde" unicode="&#x2dc;" 
d="M307 1237l-160 27q18 75 40.5 120t64.5 71t106 26q41 0 104 -32t79 -32q28 0 41.5 14t23.5 56l158 -27q-26 -112 -72 -163.5t-137 -51.5q-43 0 -105 32t-77 32q-28 0 -42 -15t-24 -57z" />
    <glyph glyph-name="hungarumlaut" unicode="&#x2dd;" 
d="M193 1245l167 326h201l-223 -326h-145zM506 1245l168 326h198l-223 -326h-143z" />
    <glyph glyph-name="Delta" unicode="&#x394;" horiz-adv-x="888" 
d="M51 958l27 187h137l21 147q20 149 93.5 211t233.5 62q47 0 55 -2l-24 -183h-41q-60 0 -83 -23t-32 -95l-16 -117h139l-26 -187h-140l-178 -1269h-205l176 1269h-137zM375 -311l24 182q50 0 64 17t22 79l166 1178h207l-168 -1202q-12 -82 -32 -131.5t-59.5 -77
t-89.5 -36.5t-134 -9zM668 1272l34 241h207l-32 -241h-209z" />
    <glyph glyph-name="Delta" unicode="&#x2206;" horiz-adv-x="888" 
d="M51 958l27 187h137l21 147q20 149 93.5 211t233.5 62q47 0 55 -2l-24 -183h-41q-60 0 -83 -23t-32 -95l-16 -117h139l-26 -187h-140l-178 -1269h-205l176 1269h-137zM375 -311l24 182q50 0 64 17t22 79l166 1178h207l-168 -1202q-12 -82 -32 -131.5t-59.5 -77
t-89.5 -36.5t-134 -9zM668 1272l34 241h207l-32 -241h-209z" />
    <glyph glyph-name="Omega" unicode="&#x3a9;" horiz-adv-x="1703" 
d="M258 246q-88 105 -136 237t-48 277q0 144 48 276t136 236q6 -4 14 -12q-85 -103 -131.5 -231.5t-46.5 -268.5q0 -285 180 -500zM467 432q-117 143 -117 328q0 183 115 327q3 -2 8 -7t8 -7q-110 -136 -110 -313q0 -182 110 -314zM541 498q-92 116 -92 262t92 262
q3 -2 8 -7t8 -7q-88 -109 -88 -248t88 -248q-3 -2 -8 -7t-8 -7zM647 592q-57 72 -57 168q0 97 57 166l15 -15q-52 -69 -52 -151q0 -84 54 -154q-3 -2 -8.5 -7t-8.5 -7zM715 655q-33 48 -33 105q0 56 33 104q3 -2 8 -7t8 -7q-29 -44 -29 -90t29 -90q-3 -2 -16 -15zM774 709
q-14 25 -14 51t14 51l12 -10q-10 -20 -10 -41t10 -41q-4 -4 -12 -10zM852 123q-236 0 -412 158l2.5 2.5l5 5l5.5 5.5t2 1q171 -152 397 -152q227 0 395 152q2 -3 7.5 -8t7.5 -8q-177 -156 -410 -156zM852 664q-31 0 -55 18l12 12q21 -14 43 -14q26 0 43 14q4 -4 10 -12
q-21 -18 -53 -18zM987 653q-7 10 -14 15q28 42 28 92q0 51 -28 90l2.5 2.5t5 4.5t5.5 5t1 2q35 -44 35 -104t-35 -107zM598 551q-72 91 -72 209q0 119 74 209l14 -15q-67 -87 -67 -194q0 -108 67 -195q-10 -10 -16 -14zM852 -35q-145 0 -278 52.5t-238 146.5l14 16
q102 -92 231 -143t271 -51q285 0 500 192q0 1 3.5 -2.5t6.5 -7.5l4 -4q-104 -95 -236 -147t-278 -52zM852 248q-189 0 -330 125l15 16q134 -121 315 -121q182 0 313 121q2 -3 7.5 -8t7.5 -8q-138 -125 -328 -125zM852 348q-145 0 -264 101l14 14q108 -94 250 -94
q143 0 248 94q2 -3 7 -8.5t7 -8.5q-112 -98 -262 -98zM852 428q-116 0 -211 78l14 16q86 -73 197 -73t197 73q4 -4 12 -16q-91 -78 -209 -78zM852 543q-77 0 -135 49l14 16q51 -45 121 -45q68 0 119 45q2 -3 7 -8t7 -8q-58 -49 -133 -49zM733 911q-4 3 -7 6.5t-6 6.5l-3 4
q58 49 135 49t135 -49l-16 -17q-51 45 -119 45t-119 -45zM1167 1130q-134 121 -315 121q-179 0 -313 -118l-15 14q141 125 328 125q189 0 330 -125q-4 -6 -15 -17zM930 709l-12 10q10 20 10 41t-10 41l12 10q14 -25 14 -51t-14 -51zM958 682q-10 10 -16 14q21 32 21 64
t-21 63l16 15q25 -36 25 -78t-25 -78zM1020 627q-6 4 -16 14q38 50 38 119t-38 119l14 14q45 -57 45 -133q0 -71 -43 -133zM1106 551q-3 2 -8 7t-8 7q67 87 67 195t-70 194l17 15q74 -90 74 -209q0 -118 -72 -209zM1163 498q-10 10 -16 14q88 109 88 248t-88 248l16 14
q92 -116 92 -262t-92 -262zM1237 432q-6 4 -16 14q112 134 112 314q0 182 -112 313l16 14q117 -139 117 -327q0 -189 -117 -328zM1329 350q-2 2 -7 6t-7 6q141 175 141 398q0 227 -143 395l16 14q148 -179 148 -409q0 -231 -148 -410zM1446 246q-6 6 -16 14q180 215 180 500
t-180 500l16 14q88 -105 136 -237t48 -277q0 -144 -48 -276t-136 -238zM375 348q-148 182 -148 412q0 229 146 409q2 -2 7.5 -6.5t8.5 -7.5q-141 -170 -141 -395q0 -228 141 -398zM684 627q-43 59 -43 133t43 133q6 -4 16 -14q-38 -50 -38 -119q0 -67 38 -117zM745 682
q-24 34 -24 78t24 78q2 -3 4.5 -5.5t6 -5.5t4.5 -4q-19 -34 -19 -63q0 -30 19 -64zM809 825l-10 13q21 18 53 18t53 -18l-10 -13q-23 15 -43 15q-25 0 -43 -15zM786 852l-14 14q37 29 80 29q41 0 78 -29q-8 -8 -12 -14q-28 25 -66 25q-34 0 -66 -25zM760 881l-15 16
q45 39 107 39q61 0 106 -39l-14 -16q-37 34 -92 34t-92 -34zM604 1057l-14 16q112 98 262 98q151 0 262 -100q1 0 -2 -3.5t-6 -7.5l-4 -3q-108 94 -250 94q-143 0 -248 -94zM852 492q-100 0 -170 61l14 16q70 -57 156 -57q87 0 154 57l14 -14q-73 -63 -168 -63zM852 584
q-61 0 -109 39l15 16q47 -35 94 -35q51 0 92 35l14 -16q-45 -39 -106 -39zM852 625q-43 0 -82 28l14 15q36 -25 68 -25q34 0 66 25l14 -15q-36 -28 -80 -28zM698 950l-14 15q73 63 168 63q98 0 168 -61l-14 -17q-68 58 -154 58q-87 0 -154 -58zM655 997l-14 17q91 78 211 78
q119 0 209 -80l-12 -15q-83 74 -197 74q-110 0 -197 -74zM1249 1223q-166 153 -397 153q-227 0 -397 -151l-15 14q179 158 412 158t412 -158zM352 1339l-14 17q104 95 236 146.5t278 51.5q145 0 278 -52t238 -146l-14 -17q-102 93 -231 144t-271 51t-270 -51t-230 -144z
M1057 594l-15 14q52 69 52 152t-54 153l17 15q57 -72 57 -168q0 -97 -57 -166z" />
    <glyph glyph-name="Omega" unicode="&#x2126;" horiz-adv-x="1703" 
d="M258 246q-88 105 -136 237t-48 277q0 144 48 276t136 236q6 -4 14 -12q-85 -103 -131.5 -231.5t-46.5 -268.5q0 -285 180 -500zM467 432q-117 143 -117 328q0 183 115 327q3 -2 8 -7t8 -7q-110 -136 -110 -313q0 -182 110 -314zM541 498q-92 116 -92 262t92 262
q3 -2 8 -7t8 -7q-88 -109 -88 -248t88 -248q-3 -2 -8 -7t-8 -7zM647 592q-57 72 -57 168q0 97 57 166l15 -15q-52 -69 -52 -151q0 -84 54 -154q-3 -2 -8.5 -7t-8.5 -7zM715 655q-33 48 -33 105q0 56 33 104q3 -2 8 -7t8 -7q-29 -44 -29 -90t29 -90q-3 -2 -16 -15zM774 709
q-14 25 -14 51t14 51l12 -10q-10 -20 -10 -41t10 -41q-4 -4 -12 -10zM852 123q-236 0 -412 158l2.5 2.5l5 5l5.5 5.5t2 1q171 -152 397 -152q227 0 395 152q2 -3 7.5 -8t7.5 -8q-177 -156 -410 -156zM852 664q-31 0 -55 18l12 12q21 -14 43 -14q26 0 43 14q4 -4 10 -12
q-21 -18 -53 -18zM987 653q-7 10 -14 15q28 42 28 92q0 51 -28 90l2.5 2.5t5 4.5t5.5 5t1 2q35 -44 35 -104t-35 -107zM598 551q-72 91 -72 209q0 119 74 209l14 -15q-67 -87 -67 -194q0 -108 67 -195q-10 -10 -16 -14zM852 -35q-145 0 -278 52.5t-238 146.5l14 16
q102 -92 231 -143t271 -51q285 0 500 192q0 1 3.5 -2.5t6.5 -7.5l4 -4q-104 -95 -236 -147t-278 -52zM852 248q-189 0 -330 125l15 16q134 -121 315 -121q182 0 313 121q2 -3 7.5 -8t7.5 -8q-138 -125 -328 -125zM852 348q-145 0 -264 101l14 14q108 -94 250 -94
q143 0 248 94q2 -3 7 -8.5t7 -8.5q-112 -98 -262 -98zM852 428q-116 0 -211 78l14 16q86 -73 197 -73t197 73q4 -4 12 -16q-91 -78 -209 -78zM852 543q-77 0 -135 49l14 16q51 -45 121 -45q68 0 119 45q2 -3 7 -8t7 -8q-58 -49 -133 -49zM733 911q-4 3 -7 6.5t-6 6.5l-3 4
q58 49 135 49t135 -49l-16 -17q-51 45 -119 45t-119 -45zM1167 1130q-134 121 -315 121q-179 0 -313 -118l-15 14q141 125 328 125q189 0 330 -125q-4 -6 -15 -17zM930 709l-12 10q10 20 10 41t-10 41l12 10q14 -25 14 -51t-14 -51zM958 682q-10 10 -16 14q21 32 21 64
t-21 63l16 15q25 -36 25 -78t-25 -78zM1020 627q-6 4 -16 14q38 50 38 119t-38 119l14 14q45 -57 45 -133q0 -71 -43 -133zM1106 551q-3 2 -8 7t-8 7q67 87 67 195t-70 194l17 15q74 -90 74 -209q0 -118 -72 -209zM1163 498q-10 10 -16 14q88 109 88 248t-88 248l16 14
q92 -116 92 -262t-92 -262zM1237 432q-6 4 -16 14q112 134 112 314q0 182 -112 313l16 14q117 -139 117 -327q0 -189 -117 -328zM1329 350q-2 2 -7 6t-7 6q141 175 141 398q0 227 -143 395l16 14q148 -179 148 -409q0 -231 -148 -410zM1446 246q-6 6 -16 14q180 215 180 500
t-180 500l16 14q88 -105 136 -237t48 -277q0 -144 -48 -276t-136 -238zM375 348q-148 182 -148 412q0 229 146 409q2 -2 7.5 -6.5t8.5 -7.5q-141 -170 -141 -395q0 -228 141 -398zM684 627q-43 59 -43 133t43 133q6 -4 16 -14q-38 -50 -38 -119q0 -67 38 -117zM745 682
q-24 34 -24 78t24 78q2 -3 4.5 -5.5t6 -5.5t4.5 -4q-19 -34 -19 -63q0 -30 19 -64zM809 825l-10 13q21 18 53 18t53 -18l-10 -13q-23 15 -43 15q-25 0 -43 -15zM786 852l-14 14q37 29 80 29q41 0 78 -29q-8 -8 -12 -14q-28 25 -66 25q-34 0 -66 -25zM760 881l-15 16
q45 39 107 39q61 0 106 -39l-14 -16q-37 34 -92 34t-92 -34zM604 1057l-14 16q112 98 262 98q151 0 262 -100q1 0 -2 -3.5t-6 -7.5l-4 -3q-108 94 -250 94q-143 0 -248 -94zM852 492q-100 0 -170 61l14 16q70 -57 156 -57q87 0 154 57l14 -14q-73 -63 -168 -63zM852 584
q-61 0 -109 39l15 16q47 -35 94 -35q51 0 92 35l14 -16q-45 -39 -106 -39zM852 625q-43 0 -82 28l14 15q36 -25 68 -25q34 0 66 25l14 -15q-36 -28 -80 -28zM698 950l-14 15q73 63 168 63q98 0 168 -61l-14 -17q-68 58 -154 58q-87 0 -154 -58zM655 997l-14 17q91 78 211 78
q119 0 209 -80l-12 -15q-83 74 -197 74q-110 0 -197 -74zM1249 1223q-166 153 -397 153q-227 0 -397 -151l-15 14q179 158 412 158t412 -158zM352 1339l-14 17q104 95 236 146.5t278 51.5q145 0 278 -52t238 -146l-14 -17q-102 93 -231 144t-271 51t-270 -51t-230 -144z
M1057 594l-15 14q52 69 52 152t-54 153l17 15q57 -72 57 -168q0 -97 -57 -166z" />
    <glyph glyph-name="pi" unicode="&#x3c0;" horiz-adv-x="1028" 
d="M514 -16q-69 0 -124.5 10t-100 27.5t-78.5 48t-59 65.5t-42.5 87t-28.5 104.5t-17.5 125.5t-8.5 143.5t-2 164.5q0 105 3 182.5t11 156.5t23 134.5t39 108t58 86t81 59.5t108 37.5t138 11.5q78 0 139.5 -11.5t108.5 -37.5t82 -59.5t58.5 -86t39 -108t23.5 -134.5
t11 -156.5t3 -182.5q0 -122 -4 -208t-15.5 -173t-32.5 -144.5t-55.5 -108.5t-83.5 -80t-117 -45.5t-157 -16.5zM514 70q64 0 114 10t88 33.5t66 53t47 76.5t31 95.5t18.5 119.5t8.5 139t2 163t-2 162.5t-8.5 138.5t-18.5 119.5t-31 95.5t-47 76.5t-66 52.5t-88 33t-114 10
q-63 0 -113 -10t-87.5 -33t-65 -52.5t-46.5 -76.5t-30.5 -95t-18 -119.5t-8.5 -139t-2 -162.5q0 -84 1.5 -145.5t6.5 -127t13.5 -112t22.5 -92.5t34 -77.5t47.5 -59t63 -43t81 -24.5t101.5 -9zM289 258v987h231q159 0 215 -68.5t56 -240.5q0 -173 -56.5 -242t-214.5 -69h-88
v-367h-143zM432 748h88q81 0 105 36.5t24 147.5q0 110 -24 146t-107 36h-86v-366z" />
    <glyph glyph-name="endash" unicode="&#x2013;" horiz-adv-x="911" 
d="M27 559l26 199h803l-27 -199h-802z" />
    <glyph glyph-name="emdash" unicode="&#x2014;" horiz-adv-x="1204" 
d="M27 559l26 199h1098l-27 -199h-1097z" />
    <glyph glyph-name="quoteleft" unicode="&#x2018;" horiz-adv-x="389" 
d="M111 987l39 270q13 99 52.5 154.5t153.5 112.5l52 -105q-72 -42 -91.5 -68t-27.5 -83h98l-41 -281h-235z" />
    <glyph glyph-name="quoteright" unicode="&#x2019;" horiz-adv-x="391" 
d="M174 981l-47 106q70 41 89.5 66.5t27.5 83.5h-99l39 281h238l-39 -271q-13 -96 -53.5 -152t-155.5 -114z" />
    <glyph glyph-name="quotesinglbase" unicode="&#x201a;" horiz-adv-x="391" 
d="M2 -256l-49 104q70 42 89.5 68t27.5 84h-99l41 281h236l-39 -271q-13 -97 -53 -153t-154 -113z" />
    <glyph glyph-name="quotedblleft" unicode="&#x201c;" horiz-adv-x="704" 
d="M111 991l39 266q12 90 52 148.5t150 114.5l47 -101q-71 -42 -92 -67t-28 -82h100l-39 -279h-229zM430 991l37 266q9 60 25 99t60 82.5t120 81.5l49 -101q-72 -41 -93 -66.5t-28 -82.5h100l-38 -279h-232z" />
    <glyph glyph-name="quotedblright" unicode="&#x201d;" horiz-adv-x="704" 
d="M174 989l-47 103q70 40 91 65.5t30 81.5h-103l39 279h232l-37 -265q-7 -45 -17 -76.5t-32 -65t-60 -63t-96 -59.5zM494 989l-48 103q70 40 91 65.5t30 81.5h-100l39 279h229l-37 -265q-7 -46 -16.5 -76.5t-31 -64.5t-59.5 -63.5t-97 -59.5z" />
    <glyph glyph-name="quotedblbase" unicode="&#x201e;" horiz-adv-x="704" 
d="M-2 -252l-45 100q70 43 91 69.5t28 82.5h-101l41 279h230l-39 -267q-12 -91 -52.5 -149t-152.5 -115zM319 -252l-47 100q71 43 91.5 69t27.5 83h-98l39 279h229l-37 -267q-7 -46 -17 -77t-31.5 -64.5t-59.5 -63t-97 -59.5z" />
    <glyph glyph-name="dagger" unicode="&#x2020;" horiz-adv-x="776" 
d="M135 -311l172 1231h-221l27 198h221l63 445h205l-61 -445h221l-29 -198h-219l-174 -1231h-205z" />
    <glyph glyph-name="daggerdbl" unicode="&#x2021;" horiz-adv-x="776" 
d="M135 -313l62 450h-222l29 199h221l82 584h-221l27 198h221l63 445h205l-61 -445h221l-29 -198h-219l-84 -584h223l-28 -199h-222l-63 -450h-205z" />
    <glyph glyph-name="bullet" unicode="&#x2022;" horiz-adv-x="514" 
d="M72 428l55 389h279l-56 -389h-278z" />
    <glyph glyph-name="ellipsis" unicode="&#x2026;" horiz-adv-x="1114" 
d="M-31 0l39 279h238l-41 -279h-236zM334 0l39 279h237l-41 -279h-235zM694 0l41 279h236l-39 -279h-238z" />
    <glyph glyph-name="perthousand" unicode="&#x2030;" horiz-adv-x="2168" 
d="M322 565q-256 0 -256 266q0 71 22 236q10 71 18.5 118.5t22 101.5t29.5 87.5t40.5 67t55.5 52t73 29.5t95 11q127 0 191.5 -69.5t64.5 -198.5q0 -63 -25 -238q-9 -70 -17.5 -117.5t-22 -100t-29.5 -86.5t-40 -67t-55 -51.5t-72.5 -29.5t-94.5 -11zM330 729q23 0 39.5 5.5
t29.5 24t21.5 36t17 61t14 77.5t15.5 105q22 176 22 222q0 57 -17 80.5t-60 23.5q-67 0 -90 -57.5t-50 -251.5q-22 -151 -22 -219q0 -58 18 -82.5t62 -24.5zM1110 -10q-256 0 -256 268q0 84 20 234q10 71 18.5 119t22 101t30 87t41 67t55.5 51.5t73.5 29.5t95.5 11
q127 0 191.5 -70t64.5 -198q0 -64 -24 -239q-10 -70 -18.5 -117t-22 -100t-29.5 -86.5t-40 -66.5t-55 -51t-72.5 -29t-94.5 -11zM1116 154q65 0 88.5 59.5t48.5 251.5q25 171 25 219q0 56 -18 80t-62 24q-65 0 -87.5 -56.5t-50.5 -246.5q-1 -5 -1 -8q-21 -161 -21 -217
q0 -57 17.5 -81.5t60.5 -24.5zM1749 -10q-256 0 -256 268q0 84 20 234q10 71 18.5 119t22 101t30 87t41 67t55.5 51.5t73.5 29.5t95.5 11q127 0 191.5 -70t64.5 -198q0 -64 -24 -239q-10 -70 -18.5 -117t-22 -100t-29.5 -86.5t-40 -66.5t-55 -51t-72.5 -29t-94.5 -11z
M1755 154q65 0 88.5 59.5t48.5 251.5q25 171 25 219q0 56 -18 80t-62 24q-65 0 -87.5 -56.5t-50.5 -246.5q-1 -5 -1 -8q-23 -176 -23 -217q0 -57 18.5 -81.5t61.5 -24.5zM315 0l719 1518h180l-718 -1518h-181z" />
    <glyph glyph-name="guilsinglleft" unicode="&#x2039;" horiz-adv-x="608" 
d="M184 0l-112 571l274 574h191l-263 -574l101 -571h-191z" />
    <glyph glyph-name="guilsinglright" unicode="&#x203a;" horiz-adv-x="608" 
d="M20 0l261 571l-99 574h191l110 -574l-270 -571h-193z" />
    <glyph glyph-name="fraction" unicode="&#x2044;" horiz-adv-x="716" 
d="M-96 0l729 1518h188l-729 -1518h-188z" />
    <glyph glyph-name="fraction" unicode="&#x2215;" horiz-adv-x="716" 
d="M-96 0l729 1518h188l-729 -1518h-188z" />
    <glyph glyph-name="Euro" unicode="&#x20ac;" horiz-adv-x="847" 
d="M45 813l25 176h141q27 148 57.5 244t78.5 167t116 102.5t166 31.5q124 0 252 -47l-84 -184q-73 32 -174 32q-89 0 -128.5 -70.5t-72.5 -275.5h264l-24 -176h-267q-1 -7 -3 -20.5t-3 -20.5q-4 -17 -8 -51h268l-26 -178h-267q-10 -87 -10 -174q0 -101 32.5 -146t110.5 -45
q80 0 150 25l59 -174q-95 -39 -221 -39q-178 0 -259 91.5t-81 274.5q0 70 13 187h-142l25 178h137q2 11 5 33t5 32q0 7 4 27h-139z" />
    <glyph glyph-name="trademark" unicode="&#x2122;" horiz-adv-x="1378" 
d="M567 539l138 979h184l43 -668l233 668h185l-138 -979h-147l90 641l-219 -641h-102l-37 643l-90 -643h-140zM188 539l119 833h-170l21 146h499l-20 -146h-174l-117 -833h-158z" />
    <glyph glyph-name="partialdiff" unicode="&#x2202;" horiz-adv-x="1703" 
d="M258 246q-88 105 -136 237t-48 277q0 144 48 276t136 236q6 -4 14 -12q-85 -103 -131.5 -231.5t-46.5 -268.5q0 -285 180 -500zM467 432q-117 143 -117 328q0 183 115 327q3 -2 8 -7t8 -7q-110 -136 -110 -313q0 -182 110 -314zM541 498q-92 116 -92 262t92 262
q3 -2 8 -7t8 -7q-88 -109 -88 -248t88 -248q-3 -2 -8 -7t-8 -7zM647 592q-57 72 -57 168q0 97 57 166l15 -15q-52 -69 -52 -151q0 -84 54 -154q-3 -2 -8.5 -7t-8.5 -7zM715 655q-33 48 -33 105q0 56 33 104q3 -2 8 -7t8 -7q-29 -44 -29 -90t29 -90q-3 -2 -16 -15zM774 709
q-14 25 -14 51t14 51l12 -10q-10 -20 -10 -41t10 -41q-4 -4 -12 -10zM852 123q-236 0 -412 158l2.5 2.5l5 5l5.5 5.5t2 1q171 -152 397 -152q227 0 395 152q2 -3 7.5 -8t7.5 -8q-177 -156 -410 -156zM852 664q-31 0 -55 18l12 12q21 -14 43 -14q26 0 43 14q4 -4 10 -12
q-21 -18 -53 -18zM987 653q-7 10 -14 15q28 42 28 92q0 51 -28 90l2.5 2.5t5 4.5t5.5 5t1 2q35 -44 35 -104t-35 -107zM598 551q-72 91 -72 209q0 119 74 209l14 -15q-67 -87 -67 -194q0 -108 67 -195q-10 -10 -16 -14zM852 -35q-145 0 -278 52.5t-238 146.5l14 16
q102 -92 231 -143t271 -51q285 0 500 192q0 1 3.5 -2.5t6.5 -7.5l4 -4q-104 -95 -236 -147t-278 -52zM852 248q-189 0 -330 125l15 16q134 -121 315 -121q182 0 313 121q2 -3 7.5 -8t7.5 -8q-138 -125 -328 -125zM852 348q-145 0 -264 101l14 14q108 -94 250 -94
q143 0 248 94q2 -3 7 -8.5t7 -8.5q-112 -98 -262 -98zM852 428q-116 0 -211 78l14 16q86 -73 197 -73t197 73q4 -4 12 -16q-91 -78 -209 -78zM852 543q-77 0 -135 49l14 16q51 -45 121 -45q68 0 119 45q2 -3 7 -8t7 -8q-58 -49 -133 -49zM733 911q-4 3 -7 6.5t-6 6.5l-3 4
q58 49 135 49t135 -49l-16 -17q-51 45 -119 45t-119 -45zM1167 1130q-134 121 -315 121q-179 0 -313 -118l-15 14q141 125 328 125q189 0 330 -125q-4 -6 -15 -17zM930 709l-12 10q10 20 10 41t-10 41l12 10q14 -25 14 -51t-14 -51zM958 682q-10 10 -16 14q21 32 21 64
t-21 63l16 15q25 -36 25 -78t-25 -78zM1020 627q-6 4 -16 14q38 50 38 119t-38 119l14 14q45 -57 45 -133q0 -71 -43 -133zM1106 551q-3 2 -8 7t-8 7q67 87 67 195t-70 194l17 15q74 -90 74 -209q0 -118 -72 -209zM1163 498q-10 10 -16 14q88 109 88 248t-88 248l16 14
q92 -116 92 -262t-92 -262zM1237 432q-6 4 -16 14q112 134 112 314q0 182 -112 313l16 14q117 -139 117 -327q0 -189 -117 -328zM1329 350q-2 2 -7 6t-7 6q141 175 141 398q0 227 -143 395l16 14q148 -179 148 -409q0 -231 -148 -410zM1446 246q-6 6 -16 14q180 215 180 500
t-180 500l16 14q88 -105 136 -237t48 -277q0 -144 -48 -276t-136 -238zM375 348q-148 182 -148 412q0 229 146 409q2 -2 7.5 -6.5t8.5 -7.5q-141 -170 -141 -395q0 -228 141 -398zM684 627q-43 59 -43 133t43 133q6 -4 16 -14q-38 -50 -38 -119q0 -67 38 -117zM745 682
q-24 34 -24 78t24 78q2 -3 4.5 -5.5t6 -5.5t4.5 -4q-19 -34 -19 -63q0 -30 19 -64zM809 825l-10 13q21 18 53 18t53 -18l-10 -13q-23 15 -43 15q-25 0 -43 -15zM786 852l-14 14q37 29 80 29q41 0 78 -29q-8 -8 -12 -14q-28 25 -66 25q-34 0 -66 -25zM760 881l-15 16
q45 39 107 39q61 0 106 -39l-14 -16q-37 34 -92 34t-92 -34zM604 1057l-14 16q112 98 262 98q151 0 262 -100q1 0 -2 -3.5t-6 -7.5l-4 -3q-108 94 -250 94q-143 0 -248 -94zM852 492q-100 0 -170 61l14 16q70 -57 156 -57q87 0 154 57l14 -14q-73 -63 -168 -63zM852 584
q-61 0 -109 39l15 16q47 -35 94 -35q51 0 92 35l14 -16q-45 -39 -106 -39zM852 625q-43 0 -82 28l14 15q36 -25 68 -25q34 0 66 25l14 -15q-36 -28 -80 -28zM698 950l-14 15q73 63 168 63q98 0 168 -61l-14 -17q-68 58 -154 58q-87 0 -154 -58zM655 997l-14 17q91 78 211 78
q119 0 209 -80l-12 -15q-83 74 -197 74q-110 0 -197 -74zM1249 1223q-166 153 -397 153q-227 0 -397 -151l-15 14q179 158 412 158t412 -158zM352 1339l-14 17q104 95 236 146.5t278 51.5q145 0 278 -52t238 -146l-14 -17q-102 93 -231 144t-271 51t-270 -51t-230 -144z
M1057 594l-15 14q52 69 52 152t-54 153l17 15q57 -72 57 -168q0 -97 -57 -166z" />
    <glyph glyph-name="product" unicode="&#x220f;" horiz-adv-x="1703" 
d="M258 246q-88 105 -136 237t-48 277q0 144 48 276t136 236q6 -4 14 -12q-85 -103 -131.5 -231.5t-46.5 -268.5q0 -285 180 -500zM467 432q-117 143 -117 328q0 183 115 327q3 -2 8 -7t8 -7q-110 -136 -110 -313q0 -182 110 -314zM541 498q-92 116 -92 262t92 262
q3 -2 8 -7t8 -7q-88 -109 -88 -248t88 -248q-3 -2 -8 -7t-8 -7zM647 592q-57 72 -57 168q0 97 57 166l15 -15q-52 -69 -52 -151q0 -84 54 -154q-3 -2 -8.5 -7t-8.5 -7zM715 655q-33 48 -33 105q0 56 33 104q3 -2 8 -7t8 -7q-29 -44 -29 -90t29 -90q-3 -2 -16 -15zM774 709
q-14 25 -14 51t14 51l12 -10q-10 -20 -10 -41t10 -41q-4 -4 -12 -10zM852 123q-236 0 -412 158l2.5 2.5l5 5l5.5 5.5t2 1q171 -152 397 -152q227 0 395 152q2 -3 7.5 -8t7.5 -8q-177 -156 -410 -156zM852 664q-31 0 -55 18l12 12q21 -14 43 -14q26 0 43 14q4 -4 10 -12
q-21 -18 -53 -18zM987 653q-7 10 -14 15q28 42 28 92q0 51 -28 90l2.5 2.5t5 4.5t5.5 5t1 2q35 -44 35 -104t-35 -107zM598 551q-72 91 -72 209q0 119 74 209l14 -15q-67 -87 -67 -194q0 -108 67 -195q-10 -10 -16 -14zM852 -35q-145 0 -278 52.5t-238 146.5l14 16
q102 -92 231 -143t271 -51q285 0 500 192q0 1 3.5 -2.5t6.5 -7.5l4 -4q-104 -95 -236 -147t-278 -52zM852 248q-189 0 -330 125l15 16q134 -121 315 -121q182 0 313 121q2 -3 7.5 -8t7.5 -8q-138 -125 -328 -125zM852 348q-145 0 -264 101l14 14q108 -94 250 -94
q143 0 248 94q2 -3 7 -8.5t7 -8.5q-112 -98 -262 -98zM852 428q-116 0 -211 78l14 16q86 -73 197 -73t197 73q4 -4 12 -16q-91 -78 -209 -78zM852 543q-77 0 -135 49l14 16q51 -45 121 -45q68 0 119 45q2 -3 7 -8t7 -8q-58 -49 -133 -49zM733 911q-4 3 -7 6.5t-6 6.5l-3 4
q58 49 135 49t135 -49l-16 -17q-51 45 -119 45t-119 -45zM1167 1130q-134 121 -315 121q-179 0 -313 -118l-15 14q141 125 328 125q189 0 330 -125q-4 -6 -15 -17zM930 709l-12 10q10 20 10 41t-10 41l12 10q14 -25 14 -51t-14 -51zM958 682q-10 10 -16 14q21 32 21 64
t-21 63l16 15q25 -36 25 -78t-25 -78zM1020 627q-6 4 -16 14q38 50 38 119t-38 119l14 14q45 -57 45 -133q0 -71 -43 -133zM1106 551q-3 2 -8 7t-8 7q67 87 67 195t-70 194l17 15q74 -90 74 -209q0 -118 -72 -209zM1163 498q-10 10 -16 14q88 109 88 248t-88 248l16 14
q92 -116 92 -262t-92 -262zM1237 432q-6 4 -16 14q112 134 112 314q0 182 -112 313l16 14q117 -139 117 -327q0 -189 -117 -328zM1329 350q-2 2 -7 6t-7 6q141 175 141 398q0 227 -143 395l16 14q148 -179 148 -409q0 -231 -148 -410zM1446 246q-6 6 -16 14q180 215 180 500
t-180 500l16 14q88 -105 136 -237t48 -277q0 -144 -48 -276t-136 -238zM375 348q-148 182 -148 412q0 229 146 409q2 -2 7.5 -6.5t8.5 -7.5q-141 -170 -141 -395q0 -228 141 -398zM684 627q-43 59 -43 133t43 133q6 -4 16 -14q-38 -50 -38 -119q0 -67 38 -117zM745 682
q-24 34 -24 78t24 78q2 -3 4.5 -5.5t6 -5.5t4.5 -4q-19 -34 -19 -63q0 -30 19 -64zM809 825l-10 13q21 18 53 18t53 -18l-10 -13q-23 15 -43 15q-25 0 -43 -15zM786 852l-14 14q37 29 80 29q41 0 78 -29q-8 -8 -12 -14q-28 25 -66 25q-34 0 -66 -25zM760 881l-15 16
q45 39 107 39q61 0 106 -39l-14 -16q-37 34 -92 34t-92 -34zM604 1057l-14 16q112 98 262 98q151 0 262 -100q1 0 -2 -3.5t-6 -7.5l-4 -3q-108 94 -250 94q-143 0 -248 -94zM852 492q-100 0 -170 61l14 16q70 -57 156 -57q87 0 154 57l14 -14q-73 -63 -168 -63zM852 584
q-61 0 -109 39l15 16q47 -35 94 -35q51 0 92 35l14 -16q-45 -39 -106 -39zM852 625q-43 0 -82 28l14 15q36 -25 68 -25q34 0 66 25l14 -15q-36 -28 -80 -28zM698 950l-14 15q73 63 168 63q98 0 168 -61l-14 -17q-68 58 -154 58q-87 0 -154 -58zM655 997l-14 17q91 78 211 78
q119 0 209 -80l-12 -15q-83 74 -197 74q-110 0 -197 -74zM1249 1223q-166 153 -397 153q-227 0 -397 -151l-15 14q179 158 412 158t412 -158zM352 1339l-14 17q104 95 236 146.5t278 51.5q145 0 278 -52t238 -146l-14 -17q-102 93 -231 144t-271 51t-270 -51t-230 -144z
M1057 594l-15 14q52 69 52 152t-54 153l17 15q57 -72 57 -168q0 -97 -57 -166z" />
    <glyph glyph-name="summation" unicode="&#x2211;" horiz-adv-x="1703" 
d="M258 246q-88 105 -136 237t-48 277q0 144 48 276t136 236q6 -4 14 -12q-85 -103 -131.5 -231.5t-46.5 -268.5q0 -285 180 -500zM467 432q-117 143 -117 328q0 183 115 327q3 -2 8 -7t8 -7q-110 -136 -110 -313q0 -182 110 -314zM541 498q-92 116 -92 262t92 262
q3 -2 8 -7t8 -7q-88 -109 -88 -248t88 -248q-3 -2 -8 -7t-8 -7zM647 592q-57 72 -57 168q0 97 57 166l15 -15q-52 -69 -52 -151q0 -84 54 -154q-3 -2 -8.5 -7t-8.5 -7zM715 655q-33 48 -33 105q0 56 33 104q3 -2 8 -7t8 -7q-29 -44 -29 -90t29 -90q-3 -2 -16 -15zM774 709
q-14 25 -14 51t14 51l12 -10q-10 -20 -10 -41t10 -41q-4 -4 -12 -10zM852 123q-236 0 -412 158l2.5 2.5l5 5l5.5 5.5t2 1q171 -152 397 -152q227 0 395 152q2 -3 7.5 -8t7.5 -8q-177 -156 -410 -156zM852 664q-31 0 -55 18l12 12q21 -14 43 -14q26 0 43 14q4 -4 10 -12
q-21 -18 -53 -18zM987 653q-7 10 -14 15q28 42 28 92q0 51 -28 90l2.5 2.5t5 4.5t5.5 5t1 2q35 -44 35 -104t-35 -107zM598 551q-72 91 -72 209q0 119 74 209l14 -15q-67 -87 -67 -194q0 -108 67 -195q-10 -10 -16 -14zM852 -35q-145 0 -278 52.5t-238 146.5l14 16
q102 -92 231 -143t271 -51q285 0 500 192q0 1 3.5 -2.5t6.5 -7.5l4 -4q-104 -95 -236 -147t-278 -52zM852 248q-189 0 -330 125l15 16q134 -121 315 -121q182 0 313 121q2 -3 7.5 -8t7.5 -8q-138 -125 -328 -125zM852 348q-145 0 -264 101l14 14q108 -94 250 -94
q143 0 248 94q2 -3 7 -8.5t7 -8.5q-112 -98 -262 -98zM852 428q-116 0 -211 78l14 16q86 -73 197 -73t197 73q4 -4 12 -16q-91 -78 -209 -78zM852 543q-77 0 -135 49l14 16q51 -45 121 -45q68 0 119 45q2 -3 7 -8t7 -8q-58 -49 -133 -49zM733 911q-4 3 -7 6.5t-6 6.5l-3 4
q58 49 135 49t135 -49l-16 -17q-51 45 -119 45t-119 -45zM1167 1130q-134 121 -315 121q-179 0 -313 -118l-15 14q141 125 328 125q189 0 330 -125q-4 -6 -15 -17zM930 709l-12 10q10 20 10 41t-10 41l12 10q14 -25 14 -51t-14 -51zM958 682q-10 10 -16 14q21 32 21 64
t-21 63l16 15q25 -36 25 -78t-25 -78zM1020 627q-6 4 -16 14q38 50 38 119t-38 119l14 14q45 -57 45 -133q0 -71 -43 -133zM1106 551q-3 2 -8 7t-8 7q67 87 67 195t-70 194l17 15q74 -90 74 -209q0 -118 -72 -209zM1163 498q-10 10 -16 14q88 109 88 248t-88 248l16 14
q92 -116 92 -262t-92 -262zM1237 432q-6 4 -16 14q112 134 112 314q0 182 -112 313l16 14q117 -139 117 -327q0 -189 -117 -328zM1329 350q-2 2 -7 6t-7 6q141 175 141 398q0 227 -143 395l16 14q148 -179 148 -409q0 -231 -148 -410zM1446 246q-6 6 -16 14q180 215 180 500
t-180 500l16 14q88 -105 136 -237t48 -277q0 -144 -48 -276t-136 -238zM375 348q-148 182 -148 412q0 229 146 409q2 -2 7.5 -6.5t8.5 -7.5q-141 -170 -141 -395q0 -228 141 -398zM684 627q-43 59 -43 133t43 133q6 -4 16 -14q-38 -50 -38 -119q0 -67 38 -117zM745 682
q-24 34 -24 78t24 78q2 -3 4.5 -5.5t6 -5.5t4.5 -4q-19 -34 -19 -63q0 -30 19 -64zM809 825l-10 13q21 18 53 18t53 -18l-10 -13q-23 15 -43 15q-25 0 -43 -15zM786 852l-14 14q37 29 80 29q41 0 78 -29q-8 -8 -12 -14q-28 25 -66 25q-34 0 -66 -25zM760 881l-15 16
q45 39 107 39q61 0 106 -39l-14 -16q-37 34 -92 34t-92 -34zM604 1057l-14 16q112 98 262 98q151 0 262 -100q1 0 -2 -3.5t-6 -7.5l-4 -3q-108 94 -250 94q-143 0 -248 -94zM852 492q-100 0 -170 61l14 16q70 -57 156 -57q87 0 154 57l14 -14q-73 -63 -168 -63zM852 584
q-61 0 -109 39l15 16q47 -35 94 -35q51 0 92 35l14 -16q-45 -39 -106 -39zM852 625q-43 0 -82 28l14 15q36 -25 68 -25q34 0 66 25l14 -15q-36 -28 -80 -28zM698 950l-14 15q73 63 168 63q98 0 168 -61l-14 -17q-68 58 -154 58q-87 0 -154 -58zM655 997l-14 17q91 78 211 78
q119 0 209 -80l-12 -15q-83 74 -197 74q-110 0 -197 -74zM1249 1223q-166 153 -397 153q-227 0 -397 -151l-15 14q179 158 412 158t412 -158zM352 1339l-14 17q104 95 236 146.5t278 51.5q145 0 278 -52t238 -146l-14 -17q-102 93 -231 144t-271 51t-270 -51t-230 -144z
M1057 594l-15 14q52 69 52 152t-54 153l17 15q57 -72 57 -168q0 -97 -57 -166z" />
    <glyph glyph-name="minus" unicode="&#x2212;" horiz-adv-x="925" 
d="M106 651l29 197h680l-29 -197h-680z" />
    <glyph glyph-name="radical" unicode="&#x221a;" horiz-adv-x="878" 
d="M164 -8l-96 885h215l36 -574l435 1215h202l-579 -1526h-213z" />
    <glyph glyph-name="infinity" unicode="&#x221e;" horiz-adv-x="1327" 
d="M449 -311l178 1269h-232l-178 -1269h-205l176 1269h-137l27 187h137l21 147q20 149 93.5 211t233.5 62q56 0 64 -2l-25 -183h-49q-60 0 -83 -23t-32 -95l-16 -117h231l21 147q20 149 93 211t234 62q46 0 56 -2l-27 -183h-39q-61 0 -83.5 -23t-33.5 -95l-16 -117h139
l-24 -187h-142l-178 -1269h-204zM928 0l159 1145h209l-161 -1145h-207zM1106 1272l33 241h207l-33 -241h-207z" />
    <glyph glyph-name="integral" unicode="&#x222b;" horiz-adv-x="1703" 
d="M258 246q-88 105 -136 237t-48 277q0 144 48 276t136 236q6 -4 14 -12q-85 -103 -131.5 -231.5t-46.5 -268.5q0 -285 180 -500zM467 432q-117 143 -117 328q0 183 115 327q3 -2 8 -7t8 -7q-110 -136 -110 -313q0 -182 110 -314zM541 498q-92 116 -92 262t92 262
q3 -2 8 -7t8 -7q-88 -109 -88 -248t88 -248q-3 -2 -8 -7t-8 -7zM647 592q-57 72 -57 168q0 97 57 166l15 -15q-52 -69 -52 -151q0 -84 54 -154q-3 -2 -8.5 -7t-8.5 -7zM715 655q-33 48 -33 105q0 56 33 104q3 -2 8 -7t8 -7q-29 -44 -29 -90t29 -90q-3 -2 -16 -15zM774 709
q-14 25 -14 51t14 51l12 -10q-10 -20 -10 -41t10 -41q-4 -4 -12 -10zM852 123q-236 0 -412 158l2.5 2.5l5 5l5.5 5.5t2 1q171 -152 397 -152q227 0 395 152q2 -3 7.5 -8t7.5 -8q-177 -156 -410 -156zM852 664q-31 0 -55 18l12 12q21 -14 43 -14q26 0 43 14q4 -4 10 -12
q-21 -18 -53 -18zM987 653q-7 10 -14 15q28 42 28 92q0 51 -28 90l2.5 2.5t5 4.5t5.5 5t1 2q35 -44 35 -104t-35 -107zM598 551q-72 91 -72 209q0 119 74 209l14 -15q-67 -87 -67 -194q0 -108 67 -195q-10 -10 -16 -14zM852 -35q-145 0 -278 52.5t-238 146.5l14 16
q102 -92 231 -143t271 -51q285 0 500 192q0 1 3.5 -2.5t6.5 -7.5l4 -4q-104 -95 -236 -147t-278 -52zM852 248q-189 0 -330 125l15 16q134 -121 315 -121q182 0 313 121q2 -3 7.5 -8t7.5 -8q-138 -125 -328 -125zM852 348q-145 0 -264 101l14 14q108 -94 250 -94
q143 0 248 94q2 -3 7 -8.5t7 -8.5q-112 -98 -262 -98zM852 428q-116 0 -211 78l14 16q86 -73 197 -73t197 73q4 -4 12 -16q-91 -78 -209 -78zM852 543q-77 0 -135 49l14 16q51 -45 121 -45q68 0 119 45q2 -3 7 -8t7 -8q-58 -49 -133 -49zM733 911q-4 3 -7 6.5t-6 6.5l-3 4
q58 49 135 49t135 -49l-16 -17q-51 45 -119 45t-119 -45zM1167 1130q-134 121 -315 121q-179 0 -313 -118l-15 14q141 125 328 125q189 0 330 -125q-4 -6 -15 -17zM930 709l-12 10q10 20 10 41t-10 41l12 10q14 -25 14 -51t-14 -51zM958 682q-10 10 -16 14q21 32 21 64
t-21 63l16 15q25 -36 25 -78t-25 -78zM1020 627q-6 4 -16 14q38 50 38 119t-38 119l14 14q45 -57 45 -133q0 -71 -43 -133zM1106 551q-3 2 -8 7t-8 7q67 87 67 195t-70 194l17 15q74 -90 74 -209q0 -118 -72 -209zM1163 498q-10 10 -16 14q88 109 88 248t-88 248l16 14
q92 -116 92 -262t-92 -262zM1237 432q-6 4 -16 14q112 134 112 314q0 182 -112 313l16 14q117 -139 117 -327q0 -189 -117 -328zM1329 350q-2 2 -7 6t-7 6q141 175 141 398q0 227 -143 395l16 14q148 -179 148 -409q0 -231 -148 -410zM1446 246q-6 6 -16 14q180 215 180 500
t-180 500l16 14q88 -105 136 -237t48 -277q0 -144 -48 -276t-136 -238zM375 348q-148 182 -148 412q0 229 146 409q2 -2 7.5 -6.5t8.5 -7.5q-141 -170 -141 -395q0 -228 141 -398zM684 627q-43 59 -43 133t43 133q6 -4 16 -14q-38 -50 -38 -119q0 -67 38 -117zM745 682
q-24 34 -24 78t24 78q2 -3 4.5 -5.5t6 -5.5t4.5 -4q-19 -34 -19 -63q0 -30 19 -64zM809 825l-10 13q21 18 53 18t53 -18l-10 -13q-23 15 -43 15q-25 0 -43 -15zM786 852l-14 14q37 29 80 29q41 0 78 -29q-8 -8 -12 -14q-28 25 -66 25q-34 0 -66 -25zM760 881l-15 16
q45 39 107 39q61 0 106 -39l-14 -16q-37 34 -92 34t-92 -34zM604 1057l-14 16q112 98 262 98q151 0 262 -100q1 0 -2 -3.5t-6 -7.5l-4 -3q-108 94 -250 94q-143 0 -248 -94zM852 492q-100 0 -170 61l14 16q70 -57 156 -57q87 0 154 57l14 -14q-73 -63 -168 -63zM852 584
q-61 0 -109 39l15 16q47 -35 94 -35q51 0 92 35l14 -16q-45 -39 -106 -39zM852 625q-43 0 -82 28l14 15q36 -25 68 -25q34 0 66 25l14 -15q-36 -28 -80 -28zM698 950l-14 15q73 63 168 63q98 0 168 -61l-14 -17q-68 58 -154 58q-87 0 -154 -58zM655 997l-14 17q91 78 211 78
q119 0 209 -80l-12 -15q-83 74 -197 74q-110 0 -197 -74zM1249 1223q-166 153 -397 153q-227 0 -397 -151l-15 14q179 158 412 158t412 -158zM352 1339l-14 17q104 95 236 146.5t278 51.5q145 0 278 -52t238 -146l-14 -17q-102 93 -231 144t-271 51t-270 -51t-230 -144z
M1057 594l-15 14q52 69 52 152t-54 153l17 15q57 -72 57 -168q0 -97 -57 -166z" />
    <glyph glyph-name="approxequal" unicode="&#x2248;" horiz-adv-x="925" 
d="M231 788l-112 95q85 178 200 178q55 0 166 -41t146 -41q54 0 108 94l111 -96q-86 -184 -197 -184q-59 0 -170 42t-145 42q-55 0 -107 -89zM172 360l-113 93q86 182 203 182q54 0 164 -42t145 -42q55 0 109 94l113 -94q-86 -184 -199 -184q-56 0 -168 41t-147 41
q-55 0 -107 -89z" />
    <glyph glyph-name="notequal" unicode="&#x2260;" horiz-adv-x="1007" 
d="M449 -311l178 1269h-232l-178 -1269h-205l176 1269h-137l27 187h137l21 147q20 149 93.5 211t233.5 62q56 0 64 -2l-25 -183h-49q-60 0 -83 -23t-32 -95l-16 -117h231l21 147q21 150 94.5 211.5t241.5 61.5q88 0 96 -2l-25 -187h-69q-76 -1 -102.5 -25t-37.5 -98
l-16 -108h193l-25 -187h-193l-178 -1269h-204z" />
    <glyph glyph-name="lessequal" unicode="&#x2264;" horiz-adv-x="925" 
d="M662 311l-515 367l21 147l616 367l-28 -211l-389 -229l325 -230zM55 23l27 196h567l-28 -196h-566z" />
    <glyph glyph-name="greaterequal" unicode="&#x2265;" horiz-adv-x="925" 
d="M139 311l31 213l389 230l-326 227l31 211l512 -367l-20 -147zM98 23l27 196h567l-28 -196h-566z" />
    <glyph glyph-name="lozenge" unicode="&#x25ca;" horiz-adv-x="1032" 
d="M770 -2q-118 0 -177.5 31t-74.5 98.5t2 175.5l92 655h-217l-178 -1269h-205l176 1269h-137l27 187h137l21 147q20 149 93.5 211t233.5 62q56 0 64 -2l-25 -183h-49q-60 0 -83 -23t-32 -95l-16 -117h223l66 246l174 43l-41 -289h190l-24 -187h-193l-90 -651
q-10 -67 6.5 -92t85.5 -25h82l-27 -190q-25 -2 -104 -2z" />
    <glyph glyph-name="apple" unicode="&#xf8ff;" horiz-adv-x="1703" 
d="M258 246q-88 105 -136 237t-48 277q0 144 48 276t136 236q6 -4 14 -12q-85 -103 -131.5 -231.5t-46.5 -268.5q0 -285 180 -500zM467 432q-117 143 -117 328q0 183 115 327q3 -2 8 -7t8 -7q-110 -136 -110 -313q0 -182 110 -314zM541 498q-92 116 -92 262t92 262
q3 -2 8 -7t8 -7q-88 -109 -88 -248t88 -248q-3 -2 -8 -7t-8 -7zM647 592q-57 72 -57 168q0 97 57 166l15 -15q-52 -69 -52 -151q0 -84 54 -154q-3 -2 -8.5 -7t-8.5 -7zM715 655q-33 48 -33 105q0 56 33 104q3 -2 8 -7t8 -7q-29 -44 -29 -90t29 -90q-3 -2 -16 -15zM774 709
q-14 25 -14 51t14 51l12 -10q-10 -20 -10 -41t10 -41q-4 -4 -12 -10zM852 123q-236 0 -412 158l2.5 2.5l5 5l5.5 5.5t2 1q171 -152 397 -152q227 0 395 152q2 -3 7.5 -8t7.5 -8q-177 -156 -410 -156zM852 664q-31 0 -55 18l12 12q21 -14 43 -14q26 0 43 14q4 -4 10 -12
q-21 -18 -53 -18zM987 653q-7 10 -14 15q28 42 28 92q0 51 -28 90l2.5 2.5t5 4.5t5.5 5t1 2q35 -44 35 -104t-35 -107zM598 551q-72 91 -72 209q0 119 74 209l14 -15q-67 -87 -67 -194q0 -108 67 -195q-10 -10 -16 -14zM852 -35q-145 0 -278 52.5t-238 146.5l14 16
q102 -92 231 -143t271 -51q285 0 500 192q0 1 3.5 -2.5t6.5 -7.5l4 -4q-104 -95 -236 -147t-278 -52zM852 248q-189 0 -330 125l15 16q134 -121 315 -121q182 0 313 121q2 -3 7.5 -8t7.5 -8q-138 -125 -328 -125zM852 348q-145 0 -264 101l14 14q108 -94 250 -94
q143 0 248 94q2 -3 7 -8.5t7 -8.5q-112 -98 -262 -98zM852 428q-116 0 -211 78l14 16q86 -73 197 -73t197 73q4 -4 12 -16q-91 -78 -209 -78zM852 543q-77 0 -135 49l14 16q51 -45 121 -45q68 0 119 45q2 -3 7 -8t7 -8q-58 -49 -133 -49zM733 911q-4 3 -7 6.5t-6 6.5l-3 4
q58 49 135 49t135 -49l-16 -17q-51 45 -119 45t-119 -45zM1167 1130q-134 121 -315 121q-179 0 -313 -118l-15 14q141 125 328 125q189 0 330 -125q-4 -6 -15 -17zM930 709l-12 10q10 20 10 41t-10 41l12 10q14 -25 14 -51t-14 -51zM958 682q-10 10 -16 14q21 32 21 64
t-21 63l16 15q25 -36 25 -78t-25 -78zM1020 627q-6 4 -16 14q38 50 38 119t-38 119l14 14q45 -57 45 -133q0 -71 -43 -133zM1106 551q-3 2 -8 7t-8 7q67 87 67 195t-70 194l17 15q74 -90 74 -209q0 -118 -72 -209zM1163 498q-10 10 -16 14q88 109 88 248t-88 248l16 14
q92 -116 92 -262t-92 -262zM1237 432q-6 4 -16 14q112 134 112 314q0 182 -112 313l16 14q117 -139 117 -327q0 -189 -117 -328zM1329 350q-2 2 -7 6t-7 6q141 175 141 398q0 227 -143 395l16 14q148 -179 148 -409q0 -231 -148 -410zM1446 246q-6 6 -16 14q180 215 180 500
t-180 500l16 14q88 -105 136 -237t48 -277q0 -144 -48 -276t-136 -238zM375 348q-148 182 -148 412q0 229 146 409q2 -2 7.5 -6.5t8.5 -7.5q-141 -170 -141 -395q0 -228 141 -398zM684 627q-43 59 -43 133t43 133q6 -4 16 -14q-38 -50 -38 -119q0 -67 38 -117zM745 682
q-24 34 -24 78t24 78q2 -3 4.5 -5.5t6 -5.5t4.5 -4q-19 -34 -19 -63q0 -30 19 -64zM809 825l-10 13q21 18 53 18t53 -18l-10 -13q-23 15 -43 15q-25 0 -43 -15zM786 852l-14 14q37 29 80 29q41 0 78 -29q-8 -8 -12 -14q-28 25 -66 25q-34 0 -66 -25zM760 881l-15 16
q45 39 107 39q61 0 106 -39l-14 -16q-37 34 -92 34t-92 -34zM604 1057l-14 16q112 98 262 98q151 0 262 -100q1 0 -2 -3.5t-6 -7.5l-4 -3q-108 94 -250 94q-143 0 -248 -94zM852 492q-100 0 -170 61l14 16q70 -57 156 -57q87 0 154 57l14 -14q-73 -63 -168 -63zM852 584
q-61 0 -109 39l15 16q47 -35 94 -35q51 0 92 35l14 -16q-45 -39 -106 -39zM852 625q-43 0 -82 28l14 15q36 -25 68 -25q34 0 66 25l14 -15q-36 -28 -80 -28zM698 950l-14 15q73 63 168 63q98 0 168 -61l-14 -17q-68 58 -154 58q-87 0 -154 -58zM655 997l-14 17q91 78 211 78
q119 0 209 -80l-12 -15q-83 74 -197 74q-110 0 -197 -74zM1249 1223q-166 153 -397 153q-227 0 -397 -151l-15 14q179 158 412 158t412 -158zM352 1339l-14 17q104 95 236 146.5t278 51.5q145 0 278 -52t238 -146l-14 -17q-102 93 -231 144t-271 51t-270 -51t-230 -144z
M1057 594l-15 14q52 69 52 152t-54 153l17 15q57 -72 57 -168q0 -97 -57 -166z" />
    </font>
</defs>
</svg>
