<?xml version="1.0" standalone="no"?>
<!DOCTYPE svg PUBLIC "-//W3C//DTD SVG 1.1//EN" "http://www.w3.org/Graphics/SVG/1.1/DTD/svg11.dtd" >
<svg xmlns="http://www.w3.org/2000/svg" xmlns:xlink="http://www.w3.org/1999/xlink" version="1.1">
<metadata>
Created by FontForge 20201107 at Wed Dec 24 15:02:15 2025
 By 
Copyright (c) The Font Bureau, Inc., 2003. All rights reserved.
</metadata>
<defs>
<font id="AntennaComp-Light" horiz-adv-x="450" >
  <font-face 
    font-family="AntennaComp Light"
    font-weight="300"
    font-stretch="normal"
    units-per-em="2048"
    panose-1="2 0 5 8 0 0 0 2 0 4"
    ascent="1638"
    descent="-410"
    x-height="1128"
    cap-height="1518"
    bbox="-41 -365 1630 1843"
    underline-thickness="102"
    underline-position="-204"
    unicode-range="U+0020-FB02"
  />
<missing-glyph horiz-adv-x="174" 
 />
    <glyph glyph-name="fi" unicode="fi" horiz-adv-x="542" 
d="M20 1020v108h78v209q0 117 40 165t143 48q14 0 20 -2v-112h-6q-48 0 -65 -23.5t-17 -85.5v-199h88v-108h-88v-1020h-115v1020h-78zM367 0v1128h116v-1128h-116zM367 1278v201h116v-201h-116z" />
    <glyph glyph-name="fl" unicode="fl" horiz-adv-x="577" 
d="M20 1020v108h78v209q0 117 40 165t143 48q14 0 20 -2v-112h-6q-48 0 -65 -23.5t-17 -85.5v-199h88v-108h-88v-1020h-115v1020h-78zM508 -2q-88 0 -114.5 43t-26.5 145v1362h116v-1360q0 -48 8.5 -61.5t40.5 -13.5h13v-113q-6 -2 -37 -2z" />
    <glyph glyph-name="f_f_l" unicode="ffl" horiz-adv-x="843" 
d="M365 0v1020h-154v-1020h-115v1020h-80v108h80v209q0 118 39.5 165.5t143.5 47.5q14 0 20 -2v-112h-6q-48 0 -65 -23.5t-17 -85.5v-199h154v209q0 118 39 165.5t143 47.5q14 0 20 -2v-112h-6q-48 0 -65 -23.5t-17 -85.5v-199h88v-108h-88v-1020h-114zM774 -2
q-88 0 -114.5 43t-26.5 145v1362h117v-1360q0 -48 8.5 -61.5t40.5 -13.5h12v-113q-6 -2 -37 -2z" />
    <glyph glyph-name="f_f_i" unicode="ffi" horiz-adv-x="811" 
d="M367 0v1020h-154v-1020h-115v1020h-78v108h78v209q0 117 40 165t143 48q14 0 20 -2v-112h-6q-48 0 -65 -23.5t-17 -85.5v-199h154v209q0 118 39 165.5t143 47.5q14 0 20 -2v-112h-6q-48 0 -64 -23.5t-16 -85.5v-199h86v-108h-86v-1020h-116zM635 0v1128h117v-1128h-117z
M635 1278v201h117v-201h-117z" />
    <glyph glyph-name="f_j" unicode="fj" horiz-adv-x="538" 
d="M16 1020v108h80v209q0 118 39.5 165.5t143.5 47.5q14 0 20 -2v-112h-6q-48 0 -65 -23.5t-17 -85.5v-199h88v-108h-88v-1020h-115v1020h-80zM319 -297v111q31 1 38.5 12t7.5 47v1255h116v-1267q0 -83 -35 -120.5t-127 -37.5zM365 1278v201h116v-201h-116z" />
    <glyph glyph-name="f_f" unicode="ff" horiz-adv-x="593" 
d="M365 0v1020h-154v-1020h-115v1020h-80v108h80v209q0 118 39.5 165.5t143.5 47.5q14 0 20 -2v-112h-6q-48 0 -65 -23.5t-17 -85.5v-199h154v209q0 117 41.5 165t150.5 48q21 0 27 -2v-112h-19q-51 0 -68.5 -23.5t-17.5 -85.5v-199h105v-108h-105v-1020h-114z" />
    <glyph glyph-name=".notdef" horiz-adv-x="174" 
 />
    <glyph glyph-name=".null" horiz-adv-x="0" 
 />
    <glyph glyph-name="nonmarkingreturn" horiz-adv-x="682" 
 />
    <glyph glyph-name="space" unicode=" " horiz-adv-x="174" 
 />
    <glyph glyph-name="space" unicode="&#xa0;" horiz-adv-x="174" 
 />
    <glyph glyph-name="exclam" unicode="!" horiz-adv-x="323" 
d="M111 414l-13 1104h129l-12 -1104h-104zM94 0v193h131v-193h-131z" />
    <glyph glyph-name="quotedbl" unicode="&#x22;" 
d="M84 973l-8 545h117l-7 -545h-102zM264 973l-8 545h119l-8 -545h-103z" />
    <glyph glyph-name="numbersign" unicode="#" horiz-adv-x="542" 
d="M74 0l39 535h-70v112h78l14 197h-92v112h98l41 562h111l-41 -562h70l40 562h111l-41 -562h70v-112h-76l-16 -197h92v-112h-101l-36 -535h-111l37 535h-70l-37 -535h-110zM225 641h78l16 211h-77z" />
    <glyph glyph-name="dollar" unicode="$" horiz-adv-x="446" 
d="M172 -186v186q-80 4 -131 16l25 109q82 -14 124 -14q33 0 54 8t36.5 30.5t13.5 62t-15 101.5l-207 854q-69 283 100 338v189h102v-176q64 -3 111 -13l-29 -112q-38 10 -90 10q-49 0 -74 -25t-25.5 -69.5t13.5 -104.5l203 -842q17 -73 21.5 -128.5t-5 -103.5t-40.5 -79
t-85 -43v-194h-102z" />
    <glyph glyph-name="percent" unicode="%" horiz-adv-x="886" 
d="M193 592q-78 0 -113 41q-31 37 -38 118t-7 312q0 224 6 302t35 118q37 43 117 43q79 0 114 -43q30 -38 36.5 -117t6.5 -303q0 -229 -7 -309.5t-38 -120.5q-35 -41 -112 -41zM696 -8q-77 0 -112 41q-31 38 -38 119t-7 311q0 224 6 302t35 118q39 45 116 45q78 0 117 -45
q29 -38 35 -117t6 -303q0 -228 -7 -308t-38 -120q-35 -43 -113 -43zM193 690q37 0 44 60t7 311q0 246 -7.5 305t-43.5 59q-37 0 -45.5 -60t-8.5 -304q0 -246 8.5 -308.5t45.5 -62.5zM696 90q37 0 44.5 61.5t7.5 309.5q0 245 -8 304.5t-44 59.5q-37 0 -44 -56.5t-7 -307.5
q0 -250 7 -310.5t44 -60.5zM252 0l274 1518h111l-277 -1518h-108z" />
    <glyph glyph-name="ampersand" unicode="&#x26;" horiz-adv-x="591" 
d="M240 -8q-133 0 -178.5 70.5t-45.5 256.5q0 141 39.5 264t110.5 259q-82 250 -82 434q0 52 3 86.5t13.5 69t29 53.5t50.5 31t78 12q54 0 88.5 -15.5t52 -50t23.5 -76.5t6 -108q0 -122 -34 -229t-101 -238q18 -51 55 -145l70 -191l31 424h96l-35 -491q-14 -113 -18 -132
l102 -276h-123l-33 92q-27 -55 -73 -77.5t-125 -22.5zM248 98q61 0 92 26.5t47 108.5l-137 388l-37 92q-84 -213 -84 -387q0 -131 22 -179.5t97 -48.5zM193 1274q0 -151 55 -330q71 142 71 330q0 91 -11.5 120t-51.5 29t-51.5 -29t-11.5 -120z" />
    <glyph glyph-name="quotesingle" unicode="'" horiz-adv-x="270" 
d="M84 973l-8 545h119l-7 -545h-104z" />
    <glyph glyph-name="parenleft" unicode="(" horiz-adv-x="385" 
d="M240 -303q-156 364 -156 928q0 565 156 929l98 -49q-26 -70 -46 -136.5t-42.5 -173.5t-34.5 -252t-12 -316q0 -532 135 -881z" />
    <glyph glyph-name="parenright" unicode=")" horiz-adv-x="385" 
d="M145 -303l-98 49q135 348 135 881q0 529 -135 878l98 49q156 -364 156 -927q0 -566 -156 -930z" />
    <glyph glyph-name="asterisk" unicode="*" horiz-adv-x="483" 
d="M193 942l8 221l-131 -106l-60 80l160 86l-160 98l60 82l131 -109l-8 226h98l-10 -226l137 111l59 -80l-168 -100l166 -88l-57 -82l-137 108l10 -221h-98z" />
    <glyph glyph-name="plus" unicode="+" horiz-adv-x="536" 
d="M211 440v250h-131v115h131v246h117v-246h129v-115h-129v-250h-117z" />
    <glyph glyph-name="comma" unicode="," horiz-adv-x="235" 
d="M88 -164l-35 66q36 25 43.5 38t7.5 60h-51v195h131v-158q0 -97 -17.5 -133.5t-78.5 -67.5z" />
    <glyph glyph-name="hyphen" unicode="-" horiz-adv-x="339" 
d="M37 578v112h266v-112h-266z" />
    <glyph glyph-name="hyphen" unicode="&#xad;" horiz-adv-x="339" 
d="M37 578v112h266v-112h-266z" />
    <glyph glyph-name="period" unicode="." horiz-adv-x="235" 
d="M53 0v195h131v-195h-131z" />
    <glyph glyph-name="slash" unicode="/" horiz-adv-x="425" 
d="M0 0l311 1518h115l-311 -1518h-115z" />
    <glyph glyph-name="zero" unicode="0" horiz-adv-x="520" 
d="M260 -10q-114 0 -154 71q-35 58 -43 187t-8 512q0 376 8 504t41 188q39 74 156 74t158 -74q33 -60 40 -184t7 -508q0 -396 -7.5 -520.5t-41.5 -180.5q-39 -69 -156 -69zM260 102q43 0 59 34q24 49 28 272q1 89 1 350q0 444 -10 536q-10 93 -42 110q-13 7 -36 7
q-42 0 -58 -33q-23 -48 -27 -269q-1 -89 -1 -351q0 -446 10 -538q10 -94 42 -111q13 -7 34 -7z" />
    <glyph glyph-name="one" unicode="1" horiz-adv-x="325" 
d="M125 0v1403h-107v115h224v-1518h-117z" />
    <glyph glyph-name="two" unicode="2" horiz-adv-x="425" 
d="M25 0v109l241 1101q25 106 7.5 154.5t-89.5 48.5q-66 0 -118 -20l-41 102q60 31 172 31q106 0 153 -49.5t47 -141.5q0 -68 -26 -170l-232 -1054h254v-111h-368z" />
    <glyph glyph-name="three" unicode="3" horiz-adv-x="419" 
d="M164 -10q-84 0 -154 22l29 107q68 -19 115 -19q71 0 87.5 62.5t16.5 271.5v105.5t-3 79t-5.5 61t-11 40t-17.5 28t-26.5 13.5t-35 8t-46.5 1h-35v113h41q25 0 41.5 1.5t31 9t23.5 14.5t15.5 26t9.5 35.5t5 51t2.5 64t0.5 82.5q0 54 -0.5 81.5t-3 61.5t-8 49t-15.5 30.5
t-24.5 20.5t-36.5 5q-62 0 -113 -18l-31 106q70 23 160 23q97 0 137 -43q31 -31 40 -96.5t9 -196.5q0 -197 -11 -259t-60 -87q20 -8 32.5 -17t22.5 -30.5t14.5 -45t8 -73.5t4 -103t0.5 -145q0 -186 -11.5 -270t-54.5 -125q-42 -45 -143 -45z" />
    <glyph glyph-name="four" unicode="4" horiz-adv-x="507" 
d="M35 330v100l241 1088h111l-237 -1082h135l24 508h88v-508h88v-106h-88v-330h-112v330h-250z" />
    <glyph glyph-name="five" unicode="5" horiz-adv-x="438" 
d="M193 -10q-78 0 -164 24l30 109q67 -23 123 -23q75 0 90 64.5t15 322.5q0 264 -12 320.5t-74 56.5q-55 0 -82 -39l-84 17l14 676h318v-115h-213l-9 -445q27 23 105 23q73 0 106 -39q32 -37 39.5 -126.5t7.5 -328.5q0 -240 -11 -326t-54 -128q-46 -43 -145 -43z" />
    <glyph glyph-name="six" unicode="6" horiz-adv-x="501" 
d="M260 -10q-113 0 -151 73q-36 56 -45 164.5t-9 386.5q0 501 12 640t68 198q61 66 238 66h28v-115h-34q-111 0 -146 -37q-30 -30 -38.5 -128.5t-8.5 -281.5q25 48 123 48q86 0 121 -41q21 -25 31.5 -85t12 -118.5t1.5 -190.5q0 -265 -7.5 -358.5t-39.5 -147.5
q-39 -73 -156 -73zM262 100q30 0 45.5 13t25 68.5t11.5 138t2 251.5q0 212 -12.5 267t-67.5 55q-30 0 -46.5 -11.5t-27 -49t-13.5 -95.5t-3 -164q0 -172 2 -254.5t12 -138t25.5 -68t46.5 -12.5z" />
    <glyph glyph-name="seven" unicode="7" horiz-adv-x="417" 
d="M23 1403v115h364v-103l-178 -1415h-121l180 1403h-245z" />
    <glyph glyph-name="eight" unicode="8" horiz-adv-x="497" 
d="M250 -10q-100 0 -144 41q-38 37 -47.5 117t-9.5 272q0 220 11 305t59 115q-37 27 -45 92t-8 237q0 150 8 215.5t39 98.5q37 43 137 43q101 0 139 -47q30 -32 37.5 -98t7.5 -212q0 -169 -9.5 -236.5t-47.5 -94.5q49 -29 61.5 -117t12.5 -301q0 -189 -10 -270.5t-48 -118.5
q-44 -41 -143 -41zM250 98q58 0 70 55.5t12 278.5q0 227 -12.5 287.5t-69.5 60.5q-58 0 -70 -59t-12 -289q0 -225 11.5 -279.5t70.5 -54.5zM250 885q17 0 28 3.5t19.5 16t13 29t7.5 49.5t3.5 69t0.5 97q0 172 -12 221t-60 49q-49 0 -60.5 -48t-11.5 -222q0 -63 0.5 -97
t3 -68.5t7 -50t13 -28.5t19.5 -16.5t29 -3.5z" />
    <glyph glyph-name="nine" unicode="9" horiz-adv-x="501" 
d="M100 0v111h35q57 0 91.5 7t54.5 29q31 32 39 127t8 285q-27 -45 -125 -45q-81 0 -117 39q-22 25 -33 85t-12.5 119t-1.5 191q0 260 8.5 356t40.5 152q42 70 154 70q110 0 149 -70q37 -57 46 -164.5t9 -386.5q0 -505 -12 -642.5t-69 -194.5q-65 -68 -236 -68h-29zM236 625
q25 0 39.5 8t25.5 25.5t16 56.5t7 90t2 137q0 171 -2 253t-12 137.5t-25.5 68t-46.5 12.5q-30 0 -45.5 -13t-25 -68.5t-11.5 -137.5t-2 -250q0 -211 12.5 -265t67.5 -54z" />
    <glyph glyph-name="colon" unicode=":" horiz-adv-x="245" 
d="M59 0v195h127v-195h-127zM59 934v194h127v-194h-127z" />
    <glyph glyph-name="semicolon" unicode=";" horiz-adv-x="245" 
d="M59 934v194h127v-194h-127zM94 -164l-35 68q25 16 32.5 23t12.5 23.5t5 49.5h-50v195h127v-158q0 -99 -16 -135t-76 -66z" />
    <glyph glyph-name="less" unicode="&#x3c;" horiz-adv-x="536" 
d="M416 389l-334 307v95l334 307v-137l-221 -218l221 -215v-139z" />
    <glyph glyph-name="equal" unicode="=" horiz-adv-x="536" 
d="M82 801v112h375v-112h-375zM82 535v112h375v-112h-375z" />
    <glyph glyph-name="greater" unicode="&#x3e;" horiz-adv-x="536" 
d="M123 389v137l221 217l-221 218v137l332 -307v-95z" />
    <glyph glyph-name="question" unicode="?" horiz-adv-x="428" 
d="M137 414q0 120 6.5 195.5t26.5 170.5l88 434q8 39 11 66t1.5 54t-11 43t-28.5 26t-49 10q-63 0 -121 -20l-41 104q72 29 173 29q64 0 106 -20.5t61 -51.5t23 -81t-1 -93t-17 -104l-84 -420q-14 -64 -20.5 -121.5t-7.5 -97.5t-1 -123h-115zM135 0v180h129v-180h-129z" />
    <glyph glyph-name="at" unicode="@" horiz-adv-x="778" 
d="M598 -297h-209q-145 0 -215 64q-73 69 -94 247t-21 598q0 417 19 592.5t88 247.5q71 74 229 74q156 0 226 -76q63 -70 80.5 -236.5t17.5 -554.5v-426q0 -79 -22.5 -115t-92.5 -36q-56 0 -78 14.5t-28 53.5q-18 -37 -50 -53.5t-92 -16.5q-74 0 -104 41q-34 37 -42.5 131.5
t-8.5 349.5q0 253 9 354t44 138q36 36 98 36q93 0 125 -51l12 41l86 -4v-887q0 -50 6.5 -67t30.5 -17t30.5 17t6.5 67v430q0 185 -2 287.5t-10.5 207t-24 152t-45 89t-70 53.5t-102.5 12q-182 0 -223 -149t-41 -699q0 -544 40 -693.5t218 -149.5h209v-66zM381 176
q65 0 77.5 67t12.5 359t-12.5 360t-77.5 68q-26 0 -37.5 -9t-22 -51.5t-13.5 -127.5t-3 -240q0 -156 3 -240.5t13.5 -126.5t22 -50.5t37.5 -8.5z" />
    <glyph glyph-name="A" unicode="A" horiz-adv-x="509" 
d="M12 0l176 1524h134l176 -1524h-121l-39 358h-174l-37 -358h-115zM229 969l-53 -496h150l-52 496l-22 276z" />
    <glyph glyph-name="B" unicode="B" horiz-adv-x="518" 
d="M63 0v1518h191q36 0 64.5 -5t50 -18t36.5 -28t25.5 -42t16.5 -52.5t9 -66t4 -76.5t1 -91q0 -175 -15 -249t-75 -99q19 -6 33 -15t24.5 -26t18 -31.5t12 -44t7 -49t4 -61.5t1.5 -67v-78v-13q0 -89 -4 -147.5t-16.5 -112t-36 -83t-61.5 -46.5t-93 -17h-197zM180 109h72
q25 0 43 7t29.5 26.5t18 38.5t9.5 61t3.5 75t0.5 97q0 65 -0.5 98t-3.5 75.5t-9.5 62t-18 39.5t-29.5 27t-43 7h-72v-614zM180 834h64q69 0 86.5 55.5t17.5 230.5q0 64 -0.5 96t-3.5 72t-9.5 56.5t-18 34t-29 23t-43.5 5.5h-64v-573z" />
    <glyph glyph-name="C" unicode="C" horiz-adv-x="405" 
d="M272 -10q-64 0 -106 15.5t-70 57.5q-41 66 -49 184t-8 513q0 386 8 507.5t47 182.5q49 76 180 76q68 0 125 -15l-20 -112q-45 10 -100 10q-58 0 -80 -35q-31 -47 -36 -236q-3 -92 -3 -380q0 -427 13 -527q12 -96 49 -116q19 -11 57 -11q48 0 98 15l26 -105
q-79 -24 -131 -24z" />
    <glyph glyph-name="D" unicode="D" horiz-adv-x="542" 
d="M66 0v1518h213q63 0 105 -18t69 -62q36 -61 43.5 -178.5t7.5 -499.5q0 -388 -8 -506.5t-47 -177.5q-27 -42 -67.5 -59t-102.5 -17h-213zM182 106h86q59 0 81 38q30 50 36 246q2 92 2 368q0 409 -11 505q-11 109 -51 134q-20 12 -57 12h-86v-1303z" />
    <glyph glyph-name="E" unicode="E" horiz-adv-x="448" 
d="M63 0v1518h340v-115h-221v-567h217v-115h-217v-610h224v-111h-343z" />
    <glyph glyph-name="F" unicode="F" horiz-adv-x="413" 
d="M63 0v1518h336v-115h-217v-578h211v-112h-211v-713h-119z" />
    <glyph glyph-name="G" unicode="G" horiz-adv-x="503" 
d="M268 -8q-62 0 -104 13.5t-66 53.5q-42 66 -50.5 189.5t-8.5 511.5q0 387 8 509t47 181q49 76 178 76q71 0 162 -17l-24 -112q-58 14 -129 14q-91 0 -108 -100t-17 -553q0 -419 10 -515q11 -110 50 -135q19 -12 52 -12q67 0 80.5 68.5t13.5 323.5v20v219h-133v113h246
v-326q0 -223 -8.5 -313.5t-38.5 -139.5q-40 -69 -160 -69z" />
    <glyph glyph-name="H" unicode="H" horiz-adv-x="571" 
d="M63 0v1518h119v-676h209v676h119v-1518h-119v721h-209v-721h-119z" />
    <glyph glyph-name="I" unicode="I" horiz-adv-x="258" 
d="M70 0v1518h118v-1518h-118z" />
    <glyph glyph-name="J" unicode="J" horiz-adv-x="299" 
d="M59 0h-43v113h19q57 0 72.5 19t15.5 67v1319h119v-1328q0 -95 -40.5 -142.5t-142.5 -47.5z" />
    <glyph glyph-name="K" unicode="K" horiz-adv-x="493" 
d="M63 0v1518h117v-709l176 709h115l-147 -584l163 -934h-118l-123 719l-66 -279v-440h-117z" />
    <glyph glyph-name="L" unicode="L" horiz-adv-x="411" 
d="M63 0v1518h119v-1407h215v-111h-334z" />
    <glyph glyph-name="M" unicode="M" horiz-adv-x="673" 
d="M63 0v1518h158l103 -994l12 -153l12 153l105 994h159v-1518h-114v1145l-15 -199l-102 -946h-94l-103 944l-14 201v-1145h-107z" />
    <glyph glyph-name="N" unicode="N" horiz-adv-x="565" 
d="M63 0v1518h136l159 -836l33 -197v1033h111v-1518h-113l-184 958l-31 177v-1135h-111z" />
    <glyph glyph-name="O" unicode="O" horiz-adv-x="540" 
d="M270 -10q-126 0 -174 71q-39 61 -48 188t-9 511q0 378 8.5 503.5t46.5 188.5q46 74 176 74q65 0 107.5 -16t68.5 -56q39 -62 47.5 -186.5t8.5 -507.5q0 -393 -9 -517t-49 -184q-25 -39 -67 -54t-107 -15zM270 102q55 0 75 31q30 44 35 227q3 95 3 398q0 424 -10 518
q-11 100 -47 122q-19 11 -56 11q-54 0 -75 -30q-29 -42 -34 -220q-3 -92 -3 -401q0 -427 11 -523q11 -100 47 -122q18 -11 54 -11z" />
    <glyph glyph-name="P" unicode="P" horiz-adv-x="509" 
d="M63 0v1518h199q38 0 67 -6t51 -21.5t37.5 -33.5t26 -49.5t17 -61.5t9.5 -78t4 -90t1 -107q0 -74 -1 -121t-5.5 -100.5t-13.5 -85.5t-24 -64t-37.5 -48.5t-54 -27t-73.5 -10.5h-84v-614h-119zM182 727h72q26 0 43.5 6.5t29 27.5t18 41.5t9.5 67t3.5 83.5t0.5 112
q0 76 -0.5 113.5t-3.5 84.5t-9.5 67t-18 41t-29 27.5t-43.5 6.5h-72v-678z" />
    <glyph glyph-name="Q" unicode="Q" horiz-adv-x="540" 
d="M414 -270h-29q-104 0 -145 39.5t-41 152.5v78q-69 13 -103 63q-39 61 -48 187.5t-9 509.5q0 378 8.5 503.5t46.5 188.5q46 74 176 74q65 0 107.5 -16t68.5 -56q39 -62 47.5 -186.5t8.5 -507.5q0 -393 -9 -516t-49 -183t-139 -67v-66q0 -56 17 -74t69 -18h23v-106z
M270 102q55 0 75 30q29 44 35 225q3 95 3 401q0 424 -10 518q-11 100 -47 122q-19 11 -56 11q-55 0 -75 -29q-29 -43 -34 -219q-3 -92 -3 -403q0 -428 11 -524q11 -100 47 -121q18 -11 54 -11z" />
    <glyph glyph-name="R" unicode="R" horiz-adv-x="507" 
d="M63 0v1518h199q48 0 83 -11t58.5 -37.5t37.5 -58t21 -86.5t9 -107t2 -135q0 -210 -22.5 -303.5t-102.5 -126.5l109 -653h-117l-102 635h-60v-635h-115zM178 748h72q71 0 87.5 65.5t16.5 263.5q0 72 -0.5 108t-3.5 81.5t-9.5 65t-18 40t-29 27t-43.5 6.5h-72v-657z" />
    <glyph glyph-name="S" unicode="S" horiz-adv-x="440" 
d="M190 -12q-75 0 -153 16l24 113q66 -15 123 -15q34 0 55.5 8.5t35 29.5t13 61.5t-15.5 101.5l-209 875q-40 160 6.5 254t184.5 94q77 0 127 -13l-31 -114q-33 10 -88 10q-133 0 -88 -197l205 -860q21 -82 24 -144.5t-14.5 -113.5t-67.5 -78.5t-131 -27.5z" />
    <glyph glyph-name="T" unicode="T" horiz-adv-x="444" 
d="M160 0v1405h-144v113h412v-113h-147v-1405h-121z" />
    <glyph glyph-name="U" unicode="U" horiz-adv-x="565" 
d="M283 -10q-46 0 -80.5 9.5t-58 23.5t-40 42t-25.5 54t-13.5 71.5t-5.5 82t-1 96.5v1149h119v-1151q0 -68 1 -102t6.5 -72t17 -54t31.5 -26.5t51 -10.5q26 0 43.5 5.5t29.5 21.5t18.5 33t9.5 52.5t4 66t1 86.5v1151h115v-1149q0 -47 -0.5 -75.5t-2.5 -67t-6.5 -61.5
t-12 -51.5t-19 -44.5t-28 -33.5t-38.5 -26t-51 -14t-65 -5.5z" />
    <glyph glyph-name="V" unicode="V" horiz-adv-x="505" 
d="M186 -6l-174 1524h119l102 -975l23 -269l20 269l101 975h117l-175 -1524h-133z" />
    <glyph glyph-name="W" unicode="W" horiz-adv-x="759" 
d="M172 -6l-145 1524h120l78 -881l17 -266l18 266l72 881h106l70 -883l16 -264l17 264l80 883h112l-145 -1524h-115l-78 842l-14 227l-14 -227l-78 -842h-117z" />
    <glyph glyph-name="X" unicode="X" horiz-adv-x="499" 
d="M375 0l-133 573l-123 -573h-111l180 803l-163 715h116l115 -504l106 504h113l-166 -734l183 -784h-117z" />
    <glyph glyph-name="Y" unicode="Y" horiz-adv-x="477" 
d="M178 0v522l-174 996h119l117 -770l118 770h115l-176 -1008v-510h-119z" />
    <glyph glyph-name="Z" unicode="Z" horiz-adv-x="456" 
d="M33 0v96l260 1307h-248v115h369v-105l-258 -1302h270v-111h-393z" />
    <glyph glyph-name="bracketleft" unicode="[" horiz-adv-x="407" 
d="M92 -297v1845h240v-104h-123v-1641h127v-100h-244z" />
    <glyph glyph-name="backslash" unicode="\" horiz-adv-x="425" 
d="M311 0l-311 1518h115l311 -1518h-115z" />
    <glyph glyph-name="bracketright" unicode="]" horiz-adv-x="407" 
d="M86 -297v100h127v1641h-123v104h238v-1845h-242z" />
    <glyph glyph-name="asciicircum" unicode="^" 
d="M55 1241l113 240h115l112 -240h-98l-74 154l-71 -154h-97z" />
    <glyph glyph-name="underscore" unicode="_" horiz-adv-x="346" 
d="M-29 -217v90h404v-90h-404z" />
    <glyph glyph-name="grave" unicode="`" 
d="M201 1241l-119 240h129l88 -240h-98z" />
    <glyph glyph-name="a" unicode="a" horiz-adv-x="473" 
d="M186 -8q-36 0 -61.5 9t-42.5 32.5t-27 49.5t-14.5 74t-6 90.5t-1.5 114.5q0 95 2.5 153.5t12.5 114t26.5 84.5t46.5 53t71.5 33t102.5 11v61q0 95 -11.5 124.5t-60.5 29.5q-48 0 -129 -18l-24 110q74 21 166 21q47 0 78 -10t50 -27.5t28.5 -51t12.5 -69t3 -92.5v-694
q0 -52 9 -67t42 -15v-113q-6 -2 -35 -2q-52 0 -74 11t-31 38q-33 -55 -133 -55zM213 98q57 0 69.5 54t12.5 229v324q-29 -1 -48.5 -3t-36.5 -10.5t-27 -17t-18.5 -30t-12 -41t-6 -59.5t-3 -76t-0.5 -99q0 -171 12 -221t58 -50z" />
    <glyph glyph-name="b" unicode="b" horiz-adv-x="507" 
d="M301 -10q-100 0 -139 55l-10 -49l-97 6v1546h115v-463q35 54 135 54q81 0 119 -47q35 -37 42 -130.5t7 -394.5q0 -295 -8 -393t-41 -137q-41 -47 -123 -47zM266 98q66 0 78 69t12 396q0 318 -12.5 389.5t-77.5 71.5q-66 0 -81 -79.5t-15 -381.5q0 -312 14.5 -388.5
t81.5 -76.5z" />
    <glyph glyph-name="c" unicode="c" horiz-adv-x="368" 
d="M236 -8q-93 0 -140 47q-43 48 -53 149t-10 379q0 271 9.5 369t51.5 147q45 54 146 54q66 0 110 -13l-28 -112q-38 10 -74 10q-68 0 -82 -77t-14 -380q0 -315 14 -390t82 -75q37 0 78 13l26 -101q-48 -20 -116 -20z" />
    <glyph glyph-name="d" unicode="d" horiz-adv-x="507" 
d="M205 -10q-80 0 -121 47q-34 39 -41.5 134t-7.5 390t8 393t43 136q41 47 121 47q95 0 131 -41v452h117v-1544l-95 -6l-8 49q-43 -57 -147 -57zM244 98q66 0 80 78t14 383q0 315 -13.5 389t-80.5 74t-79.5 -68t-12.5 -395q0 -319 12.5 -390t79.5 -71z" />
    <glyph glyph-name="e" unicode="e" horiz-adv-x="430" 
d="M236 -10q-94 0 -140 49q-43 48 -53 148.5t-10 379.5q0 282 8 377t45 143q45 52 133 52q97 0 133 -49q33 -43 41 -144t8 -379v-59h-254q0 -95 1 -152.5t5 -108t9.5 -75.5t17 -43.5t26.5 -23.5t38 -5q54 0 106 25l41 -100q-78 -35 -155 -35zM219 1026q-51 0 -61.5 -68
t-10.5 -342h144q0 286 -10 348t-62 62z" />
    <glyph glyph-name="f" unicode="f" horiz-adv-x="327" 
d="M20 1020v108h78v209q0 117 42.5 165t150.5 48q20 0 26 -2v-112h-16q-53 0 -70.5 -23.5t-17.5 -85.5v-199h104v-108h-104v-1020h-115v1020h-78z" />
    <glyph glyph-name="g" unicode="g" horiz-adv-x="479" 
d="M240 403q-29 0 -50 3q-14 -28 -14 -64q0 -38 17 -56t65 -30q82 -20 123 -45t61.5 -76.5t20.5 -144.5q0 -80 -9 -132t-33 -92t-68 -57.5t-113 -17.5q-131 0 -177.5 64t-46.5 210q0 96 23 148.5t80 91.5q-41 38 -41 112q0 72 31 119q-39 33 -51.5 107t-12.5 225
q0 91 4 146.5t15 103t33 71t55.5 36t85.5 12.5q26 0 57 -7l168 27v-100h-68q39 -66 39 -291q0 -91 -4 -146.5t-15 -101.5t-33.5 -69t-56 -34.5t-85.5 -11.5zM240 510q55 0 68.5 48.5t13.5 213.5q0 163 -13.5 210.5t-68.5 47.5q-56 0 -69 -47t-13 -211q0 -166 13 -214t69 -48
zM240 154q-7 1 -19 4l-16 4q-46 -34 -63 -75t-17 -112q0 -97 22 -138.5t93 -41.5q73 0 92.5 39.5t19.5 142.5q0 91 -20.5 125t-91.5 52z" />
    <glyph glyph-name="h" unicode="h" horiz-adv-x="514" 
d="M55 0v1548h115v-458q36 49 135 49q43 0 72.5 -11.5t46 -29.5t25 -53t10.5 -66.5t2 -85.5v-893h-117v860q0 102 -12.5 133t-63.5 31q-57 0 -77.5 -44.5t-20.5 -152.5v-827h-115z" />
    <glyph glyph-name="i" unicode="i" horiz-adv-x="233" 
d="M57 0v1128h117v-1128h-117zM57 1278v197h117v-197h-117z" />
    <glyph glyph-name="j" unicode="j" horiz-adv-x="233" 
d="M14 -297v111q30 1 36.5 11.5t6.5 47.5v1255h117v-1267q0 -84 -34 -121t-126 -37zM57 1278v197h117v-197h-117z" />
    <glyph glyph-name="k" unicode="k" 
d="M55 0v1548h113v-932l145 512h111l-137 -460l164 -668h-115l-119 483l-49 -176v-307h-113z" />
    <glyph glyph-name="l" unicode="l" horiz-adv-x="270" 
d="M199 -2q-88 0 -115 43t-27 145v1362h117v-1360q0 -47 9 -61t40 -14h15v-113q-8 -2 -39 -2z" />
    <glyph glyph-name="m" unicode="m" horiz-adv-x="788" 
d="M55 0v1120l95 6l8 -47q29 60 141 60q59 0 86.5 -12t44.5 -46q35 58 152 58q36 0 62 -7t42.5 -23.5t26.5 -34.5t14.5 -49.5t6 -59t1.5 -72.5v-893h-117v860q0 104 -11 134t-62 30q-55 0 -73.5 -44.5t-18.5 -158.5v-821h-115v860q0 103 -11.5 133.5t-62.5 30.5
q-56 0 -75 -45.5t-19 -155.5v-823h-115z" />
    <glyph glyph-name="n" unicode="n" horiz-adv-x="514" 
d="M55 0v1120l95 6l8 -47q29 60 147 60q43 0 72.5 -11.5t46 -29.5t25 -53t10.5 -66.5t2 -85.5v-893h-117v860q0 102 -12.5 133t-63.5 31q-57 0 -77.5 -44.5t-20.5 -152.5v-827h-115z" />
    <glyph glyph-name="o" unicode="o" horiz-adv-x="489" 
d="M246 -10q-102 0 -150 51q-44 46 -53.5 145t-9.5 381q0 277 9 373t52 145q48 54 152 54t151 -56q41 -48 50.5 -145t9.5 -371q0 -281 -9.5 -379.5t-52.5 -146.5q-45 -51 -149 -51zM246 98q68 0 81 70.5t13 396.5q0 315 -13 387t-81 72q-69 0 -82.5 -72t-13.5 -387
q0 -326 13 -396.5t83 -70.5z" />
    <glyph glyph-name="p" unicode="p" horiz-adv-x="507" 
d="M55 -297v1417l95 6l8 -47q31 60 147 60q81 0 119 -47q35 -37 42 -130.5t7 -394.5q0 -295 -8 -392t-41 -136q-41 -47 -123 -47q-96 0 -131 41v-330h-115zM266 98q66 0 78 69t12 396q0 318 -12.5 389.5t-77.5 71.5q-66 0 -81 -79.5t-15 -381.5q0 -312 14.5 -388.5
t81.5 -76.5z" />
    <glyph glyph-name="q" unicode="q" horiz-adv-x="507" 
d="M340 -297v336q-41 -49 -135 -49q-77 0 -121 47q-33 39 -41 131t-8 391q0 296 8 394.5t43 136.5q41 47 123 47q106 0 137 -56l12 47l97 -6v-1419h-115zM244 98q66 0 80 78t14 383q0 315 -13.5 389t-80.5 74t-79.5 -68t-12.5 -395q0 -319 12.5 -390t79.5 -71z" />
    <glyph glyph-name="r" unicode="r" horiz-adv-x="305" 
d="M55 0v1120l95 6l8 -57q28 61 135 61v-110q-47 0 -72 -21t-37 -77t-12 -164v-758h-117z" />
    <glyph glyph-name="s" unicode="s" horiz-adv-x="372" 
d="M156 -10q-85 0 -142 14l27 105q69 -11 98 -11q59 0 78 37.5t-4 128.5l-156 572q-22 89 -18 156.5t48.5 107t127.5 39.5q57 0 115 -13l-27 -108q-36 8 -80 8q-101 0 -61 -147l155 -570q87 -319 -161 -319z" />
    <glyph glyph-name="t" unicode="t" horiz-adv-x="342" 
d="M276 -2q-104 0 -141 47t-37 152v823h-78v108h82l13 283l98 35v-318h102v-108h-102v-815q0 -55 15.5 -73.5t64.5 -18.5h22v-113q-8 -2 -39 -2z" />
    <glyph glyph-name="u" unicode="u" horiz-adv-x="503" 
d="M252 -10q-54 0 -91 13t-58.5 34t-32.5 59.5t-14 76t-3 97.5v858h117v-852q0 -47 1 -70t5 -48.5t13 -35.5t24.5 -17t40.5 -7q21 0 35.5 3.5t24 15t14.5 21.5t7 36t2.5 44.5t0.5 60.5v849h113v-858q0 -44 -1.5 -73t-5.5 -61.5t-12.5 -52.5t-23 -39.5t-35.5 -30t-51 -17
t-70 -6.5z" />
    <glyph glyph-name="v" unicode="v" horiz-adv-x="419" 
d="M145 -6l-137 1134h117l68 -665l20 -248l20 248l68 665h111l-138 -1134h-129z" />
    <glyph glyph-name="w" unicode="w" horiz-adv-x="665" 
d="M127 -6l-117 1134h109l59 -602l17 -209l18 207l70 604h108l72 -608l16 -201l15 201l61 608h102l-116 -1134h-109l-78 606l-20 197l-19 -199l-75 -604h-113z" />
    <glyph glyph-name="x" unicode="x" horiz-adv-x="425" 
d="M-4 0l156 600l-140 528h117l90 -346l84 346h107l-140 -540l156 -588h-117l-106 406l-99 -406h-108z" />
    <glyph glyph-name="y" unicode="y" horiz-adv-x="419" 
d="M66 -297v111h18q35 0 47.5 11t15.5 40l11 92l-150 1171h115l72 -669l18 -203l20 207l72 665h111l-166 -1290q-11 -69 -50 -102t-112 -33h-22z" />
    <glyph glyph-name="z" unicode="z" horiz-adv-x="376" 
d="M20 0v86l209 934h-196v108h319v-86l-211 -940h213v-102h-334z" />
    <glyph glyph-name="braceleft" unicode="{" horiz-adv-x="434" 
d="M287 -299q-95 0 -132.5 42.5t-37.5 166.5q0 71 21.5 291.5t21.5 277.5q0 59 -19 75.5t-80 16.5v109q61 0 80 16.5t19 75.5q0 57 -21.5 277.5t-21.5 289.5q0 125 37 167t133 42h75v-104h-43q-52 0 -69 -22t-17 -99q0 -59 20.5 -279.5t20.5 -289.5q0 -53 -11.5 -82.5
t-41.5 -44.5q53 -27 53 -129q0 -69 -20.5 -291.5t-20.5 -282.5q0 -77 17 -99t69 -22h43v-102h-75z" />
    <glyph glyph-name="bar" unicode="|" horiz-adv-x="294" 
d="M90 -297v1847h117v-1847h-117z" />
    <glyph glyph-name="braceright" unicode="}" horiz-adv-x="434" 
d="M72 -299v102h45q50 0 67 22.5t17 98.5q0 60 -20.5 282.5t-20.5 291.5q0 102 55 129q-31 14 -43 44t-12 83q0 69 20.5 289.5t20.5 279.5q0 76 -17 98.5t-67 22.5h-45v104h75q96 0 133 -42t37 -167q0 -69 -21.5 -289.5t-21.5 -277.5q0 -59 19 -75.5t80 -16.5v-109
q-61 0 -80 -16.5t-19 -75.5q0 -57 21.5 -277.5t21.5 -291.5q0 -124 -37.5 -166.5t-132.5 -42.5h-75z" />
    <glyph glyph-name="asciitilde" unicode="~" 
d="M51 852q-1 87 21.5 118t70.5 31q28 0 79 -28.5t63 -28.5q14 0 19 11.5t5 43.5h90q1 -90 -20.5 -119.5t-71.5 -29.5q-29 0 -80 28.5t-61 28.5q-25 0 -25 -55h-90z" />
    <glyph glyph-name="exclamdown" unicode="&#xa1;" horiz-adv-x="323" 
d="M96 0l13 1106h104l12 -1106h-129zM98 1325v193h131v-193h-131z" />
    <glyph glyph-name="cent" unicode="&#xa2;" horiz-adv-x="407" 
d="M186 -199v199q-47 10 -73 39q-43 48 -52.5 148t-9.5 380q0 274 9.5 370.5t50.5 145.5q27 33 75 45v187h103v-178q44 -3 78 -13l-29 -110q-29 10 -74 10q-67 0 -80.5 -76.5t-13.5 -382.5q0 -318 13 -392.5t81 -74.5q41 0 78 13l27 -99q-35 -15 -80 -18v-193h-103z" />
    <glyph glyph-name="sterling" unicode="&#xa3;" horiz-adv-x="499" 
d="M315 -4q-76 0 -135 33q-48 -29 -149 -29v111q29 0 45 1t29.5 9t18 15.5t7 32t1.5 47t-5 69.5l-33 442h-65v100h57l-31 430q-11 139 34.5 204t160.5 65q95 0 160 -25l-43 -106q-45 18 -111 18q-57 0 -75 -35t-13 -106l33 -445h147v-100h-141l33 -434q1 -10 2.5 -36
t1.5 -36t0.5 -30.5t0 -31.5t-2 -25t-4.5 -25q30 -9 57 -9q36 0 45.5 23t9.5 102v74h105v-82q0 -128 -28.5 -174.5t-111.5 -46.5z" />
    <glyph glyph-name="currency" unicode="&#xa4;" horiz-adv-x="503" 
d="M25 801v100h90q0 266 15.5 393t66.5 181q45 51 149 51q73 0 111 -10l-23 -111q-24 6 -84 6q-20 0 -35 -5t-27 -18t-20.5 -30.5t-15 -49t-10.5 -66.5t-6.5 -89.5t-3.5 -112t-1 -139.5h175v-100h-175v-88h175v-101h-175q1 -111 2.5 -184t7 -134t13.5 -95t22 -57.5t32 -31.5
t44 -8q32 0 82 13l25 -103q-62 -20 -115 -20q-100 0 -145 45q-52 51 -68 177t-16 398h-90v101h90v88h-90z" />
    <glyph glyph-name="yen" unicode="&#xa5;" horiz-adv-x="495" 
d="M57 397v99h136v86l-156 936h117l94 -744l94 744h117l-156 -936v-86h135v-99h-135v-88h135v-100h-135v-209h-110v209h-136v100h136v88h-136z" />
    <glyph glyph-name="brokenbar" unicode="&#xa6;" horiz-adv-x="294" 
d="M90 788v760h117v-760h-117zM90 -297v762h117v-762h-117z" />
    <glyph glyph-name="section" unicode="&#xa7;" horiz-adv-x="489" 
d="M92 0v111q65 0 84 22.5t19 89.5v152q-52 6 -80 31q-44 33 -55 111.5t-11 266.5q0 183 9.5 259.5t47.5 111.5q29 22 76 31v121q0 120 46 165.5t171 45.5v-109q-65 0 -84.5 -24t-19.5 -91v-106q54 -6 86 -35q38 -34 48.5 -112t10.5 -257q0 -190 -11 -270t-54 -111
q-22 -20 -66 -26v-166q0 -118 -47 -164.5t-170 -46.5zM244 473q20 0 32.5 4t22.5 18.5t14.5 33t8 58t4 81t0.5 114.5t-0.5 114.5t-4 80.5t-8 56.5t-14.5 32t-22.5 18t-32.5 3.5t-32.5 -3.5t-22.5 -18t-14.5 -32t-8 -56.5t-4 -80.5t-0.5 -114.5t0.5 -114.5t4 -81t8 -58
t14.5 -33t22.5 -18.5t32.5 -4z" />
    <glyph glyph-name="dieresis" unicode="&#xa8;" 
d="M82 1241v168h102v-168h-102zM268 1241v168h101v-168h-101z" />
    <glyph glyph-name="copyright" unicode="&#xa9;" horiz-adv-x="606" 
d="M324 252q-68 0 -101 33q-35 37 -44 133t-9 334q0 237 8.5 330t44.5 132q30 35 101 35q50 0 88 -10l-19 -82q-35 6 -67 6q-48 0 -59 -73.5t-11 -339.5q0 -269 12 -342.5t60 -73.5q35 0 65 10l21 -76q-54 -16 -90 -16zM311 -8q-104 0 -164 51q-64 58 -87 217t-23 500
q0 323 20.5 479.5t77.5 220.5q55 66 176 66q120 0 176 -68q56 -64 76.5 -221t20.5 -477q0 -334 -22.5 -493.5t-84.5 -219.5q-55 -55 -166 -55zM311 55q47 0 78 11.5t55.5 45t38 80.5t22 131.5t11 184t2.5 252.5t-2.5 252.5t-11 184t-22 131t-38 79.5t-55.5 44t-78 11
q-40 0 -68.5 -9.5t-51.5 -28.5t-38 -57.5t-25.5 -88t-15.5 -128.5t-7.5 -169.5t-2.5 -220.5q0 -153 2.5 -252t11 -184.5t22.5 -132t38 -80t56 -45t79 -11.5z" />
    <glyph glyph-name="ordfeminine" unicode="&#xaa;" horiz-adv-x="448" 
d="M184 600q-30 0 -51 7.5t-35 26t-22 40t-12.5 59.5t-5.5 73.5t-1 92.5q0 65 2 108t6.5 84t14.5 65.5t25 46t38 32.5t53 17.5t72 7.5v53v9q0 70 -8 90t-47 20q-57 0 -107 -15l-20 94q54 15 137 15q89 0 116.5 -44.5t27.5 -156.5v-563q0 -40 6.5 -51t32.5 -11v-96h-35
q-41 0 -59.5 10.5t-24.5 38.5q-14 -32 -38.5 -42.5t-64.5 -10.5zM207 688q43 0 52 40t9 182v40v224q-84 -3 -100 -43t-16 -222v-6q0 -142 8.5 -178.5t46.5 -36.5zM82 393v94h287v-94h-287z" />
    <glyph glyph-name="guillemotleft" unicode="&#xab;" horiz-adv-x="559" 
d="M182 0l-112 563l112 565h105l-109 -565l109 -563h-105zM377 0l-113 563l113 565h104l-108 -565l108 -563h-104z" />
    <glyph glyph-name="logicalnot" unicode="&#xac;" horiz-adv-x="1703" 
d="M258 246q-88 105 -136 237t-48 277q0 144 48 276t136 236q6 -4 14 -12q-85 -103 -131.5 -231.5t-46.5 -268.5q0 -285 180 -500zM467 432q-117 143 -117 328q0 183 115 327q3 -2 8 -7t8 -7q-110 -136 -110 -313q0 -182 110 -314zM541 498q-92 116 -92 262t92 262
q3 -2 8 -7t8 -7q-88 -109 -88 -248t88 -248q-3 -2 -8 -7t-8 -7zM647 592q-57 72 -57 168q0 97 57 166l15 -15q-52 -69 -52 -151q0 -84 54 -154q-3 -2 -8.5 -7t-8.5 -7zM715 655q-33 48 -33 105q0 56 33 104q3 -2 8 -7t8 -7q-29 -44 -29 -90t29 -90q-3 -2 -16 -15zM774 709
q-14 25 -14 51t14 51l12 -10q-10 -20 -10 -41t10 -41q-4 -4 -12 -10zM852 123q-236 0 -412 158l2.5 2.5l5 5l5.5 5.5t2 1q171 -152 397 -152q227 0 395 152q2 -3 7.5 -8t7.5 -8q-177 -156 -410 -156zM852 664q-31 0 -55 18l12 12q21 -14 43 -14q26 0 43 14q4 -4 10 -12
q-21 -18 -53 -18zM987 653q-7 10 -14 15q28 42 28 92q0 51 -28 90l2.5 2.5t5 4.5t5.5 5t1 2q35 -44 35 -104t-35 -107zM598 551q-72 91 -72 209q0 119 74 209l14 -15q-67 -87 -67 -194q0 -108 67 -195q-10 -10 -16 -14zM852 -35q-145 0 -278 52.5t-238 146.5l14 16
q102 -92 231 -143t271 -51q285 0 500 192q0 1 3.5 -2.5t6.5 -7.5l4 -4q-104 -95 -236 -147t-278 -52zM852 248q-189 0 -330 125l15 16q134 -121 315 -121q182 0 313 121q2 -3 7.5 -8t7.5 -8q-138 -125 -328 -125zM852 348q-145 0 -264 101l14 14q108 -94 250 -94
q143 0 248 94q2 -3 7 -8.5t7 -8.5q-112 -98 -262 -98zM852 428q-116 0 -211 78l14 16q86 -73 197 -73t197 73q4 -4 12 -16q-91 -78 -209 -78zM852 543q-77 0 -135 49l14 16q51 -45 121 -45q68 0 119 45q2 -3 7 -8t7 -8q-58 -49 -133 -49zM733 911q-4 3 -7 6.5t-6 6.5l-3 4
q58 49 135 49t135 -49l-16 -17q-51 45 -119 45t-119 -45zM1167 1130q-134 121 -315 121q-179 0 -313 -118l-15 14q141 125 328 125q189 0 330 -125q-4 -6 -15 -17zM930 709l-12 10q10 20 10 41t-10 41l12 10q14 -25 14 -51t-14 -51zM958 682q-10 10 -16 14q21 32 21 64
t-21 63l16 15q25 -36 25 -78t-25 -78zM1020 627q-6 4 -16 14q38 50 38 119t-38 119l14 14q45 -57 45 -133q0 -71 -43 -133zM1106 551q-3 2 -8 7t-8 7q67 87 67 195t-70 194l17 15q74 -90 74 -209q0 -118 -72 -209zM1163 498q-10 10 -16 14q88 109 88 248t-88 248l16 14
q92 -116 92 -262t-92 -262zM1237 432q-6 4 -16 14q112 134 112 314q0 182 -112 313l16 14q117 -139 117 -327q0 -189 -117 -328zM1329 350q-2 2 -7 6t-7 6q141 175 141 398q0 227 -143 395l16 14q148 -179 148 -409q0 -231 -148 -410zM1446 246q-6 6 -16 14q180 215 180 500
t-180 500l16 14q88 -105 136 -237t48 -277q0 -144 -48 -276t-136 -238zM375 348q-148 182 -148 412q0 229 146 409q2 -2 7.5 -6.5t8.5 -7.5q-141 -170 -141 -395q0 -228 141 -398zM684 627q-43 59 -43 133t43 133q6 -4 16 -14q-38 -50 -38 -119q0 -67 38 -117zM745 682
q-24 34 -24 78t24 78q2 -3 4.5 -5.5t6 -5.5t4.5 -4q-19 -34 -19 -63q0 -30 19 -64zM809 825l-10 13q21 18 53 18t53 -18l-10 -13q-23 15 -43 15q-25 0 -43 -15zM786 852l-14 14q37 29 80 29q41 0 78 -29q-8 -8 -12 -14q-28 25 -66 25q-34 0 -66 -25zM760 881l-15 16
q45 39 107 39q61 0 106 -39l-14 -16q-37 34 -92 34t-92 -34zM604 1057l-14 16q112 98 262 98q151 0 262 -100q1 0 -2 -3.5t-6 -7.5l-4 -3q-108 94 -250 94q-143 0 -248 -94zM852 492q-100 0 -170 61l14 16q70 -57 156 -57q87 0 154 57l14 -14q-73 -63 -168 -63zM852 584
q-61 0 -109 39l15 16q47 -35 94 -35q51 0 92 35l14 -16q-45 -39 -106 -39zM852 625q-43 0 -82 28l14 15q36 -25 68 -25q34 0 66 25l14 -15q-36 -28 -80 -28zM698 950l-14 15q73 63 168 63q98 0 168 -61l-14 -17q-68 58 -154 58q-87 0 -154 -58zM655 997l-14 17q91 78 211 78
q119 0 209 -80l-12 -15q-83 74 -197 74q-110 0 -197 -74zM1249 1223q-166 153 -397 153q-227 0 -397 -151l-15 14q179 158 412 158t412 -158zM352 1339l-14 17q104 95 236 146.5t278 51.5q145 0 278 -52t238 -146l-14 -17q-102 93 -231 144t-271 51t-270 -51t-230 -144z
M1057 594l-15 14q52 69 52 152t-54 153l17 15q57 -72 57 -168q0 -97 -57 -166z" />
    <glyph glyph-name="registered" unicode="&#xae;" horiz-adv-x="606" 
d="M311 -8q-104 0 -164 51q-64 58 -87 217t-23 500q0 323 20.5 479.5t77.5 220.5q55 66 176 66q120 0 176 -68q56 -64 76.5 -221t20.5 -477q0 -334 -22.5 -493.5t-84.5 -219.5q-55 -55 -166 -55zM311 55q47 0 78 11.5t55.5 45t38 80.5t22 131.5t11 184t2.5 252.5t-2.5 252.5
t-11 184t-22 131t-38 79.5t-55.5 44t-78 11q-40 0 -68.5 -9.5t-51.5 -28.5t-38 -57.5t-25.5 -88t-15.5 -128.5t-7.5 -169.5t-2.5 -220.5q0 -153 2.5 -252t11 -184.5t22.5 -132t38 -80t56 -45t79 -11.5zM354 274l-67 410h-25v-410h-78v965h125q37 0 62 -12t39.5 -31t22 -57
t9.5 -75.5t2 -100.5q0 -129 -14 -188.5t-65 -80.5l69 -420h-80zM262 756h41q15 0 25 4t17 16t11 25t6 39.5t2.5 51t0.5 66.5q0 64 -1.5 95.5t-7.5 60.5t-18.5 39t-34.5 10h-41v-407z" />
    <glyph glyph-name="macron" unicode="&#xaf;" 
d="M70 1241v107h311v-107h-311z" />
    <glyph glyph-name="macron" unicode="&#x2c9;" 
d="M70 1241v107h311v-107h-311z" />
    <glyph glyph-name="degree" unicode="&#xb0;" horiz-adv-x="454" 
d="M227 594q-84 0 -123 39q-35 37 -43 119t-8 309q0 224 8 304.5t41 117.5q40 43 125 43q87 0 127 -43q30 -37 37.5 -117.5t7.5 -304.5q0 -229 -7.5 -310t-39.5 -118q-36 -39 -125 -39zM227 694q51 0 60.5 56.5t9.5 308.5q0 251 -9.5 305.5t-60.5 54.5t-61 -55t-10 -305
q0 -251 10 -308t61 -57z" />
    <glyph glyph-name="plusminus" unicode="&#xb1;" horiz-adv-x="843" 
d="M365 0v1020h-154v-1020h-115v1020h-80v108h80v209q0 118 39.5 165.5t143.5 47.5q14 0 20 -2v-112h-6q-48 0 -65 -23.5t-17 -85.5v-199h154v209q0 118 39 165.5t143 47.5q14 0 20 -2v-112h-6q-48 0 -65 -23.5t-17 -85.5v-199h88v-108h-88v-1020h-114zM774 -2
q-88 0 -114.5 43t-26.5 145v1362h117v-1360q0 -48 8.5 -61.5t40.5 -13.5h12v-113q-6 -2 -37 -2z" />
    <glyph glyph-name="twosuperior" unicode="&#xb2;" horiz-adv-x="411" 
d="M76 592v88l151 643q6 30 6 53q0 29 -12.5 42.5t-42.5 13.5q-45 0 -74 -13l-34 86q40 19 114 19q81 0 115.5 -31.5t34.5 -97.5q0 -45 -15 -107l-145 -608h158v-88h-256z" />
    <glyph glyph-name="threesuperior" unicode="&#xb3;" horiz-adv-x="401" 
d="M166 586q-58 0 -105 16l25 86q45 -10 72 -10q44 0 53.5 29.5t9.5 150.5q0 137 -11 164t-69 27h-32v92h38q48 0 58 24.5t10 134.5q0 86 -8 108t-45 22q-40 0 -70 -9l-24 86q42 15 108 15q78 0 105 -31q19 -20 24.5 -59t5.5 -115q0 -107 -6.5 -149.5t-32.5 -61.5
q31 -17 38 -65.5t7 -186.5q0 -109 -7.5 -161.5t-33.5 -76.5q-34 -30 -110 -30z" />
    <glyph glyph-name="acute" unicode="&#xb4;" 
d="M152 1241l90 240h129l-121 -240h-98z" />
    <glyph glyph-name="mu" unicode="&#xb5;" horiz-adv-x="503" 
d="M55 -297v1425h115v-833q0 -47 1 -72.5t5.5 -53.5t13.5 -41t24.5 -21.5t39.5 -8.5t39.5 8.5t24.5 21.5t13.5 41t5.5 53.5t1 72.5v833h113v-843q0 -105 -9.5 -161.5t-44.5 -88.5q-52 -45 -145 -45q-54 0 -82 35v-322h-115z" />
    <glyph glyph-name="mu" unicode="&#x3bc;" horiz-adv-x="503" 
d="M55 -297v1425h115v-833q0 -47 1 -72.5t5.5 -53.5t13.5 -41t24.5 -21.5t39.5 -8.5t39.5 8.5t24.5 21.5t13.5 41t5.5 53.5t1 72.5v833h113v-843q0 -105 -9.5 -161.5t-44.5 -88.5q-52 -45 -145 -45q-54 0 -82 35v-322h-115z" />
    <glyph glyph-name="paragraph" unicode="&#xb6;" horiz-adv-x="495" 
d="M168 0v639q-36 11 -60 38t-37 59.5t-20 91t-8.5 108.5t-1.5 137q0 72 1 116.5t5 97.5t12.5 83.5t22.5 62.5t35.5 48t52 26.5t70.5 10.5h194v-1518h-110v629h-45v-629h-111zM262 727h62v682h-62q-74 0 -91 -67t-17 -275q0 -206 17 -273t91 -67z" />
    <glyph glyph-name="periodcentered" unicode="&#xb7;" horiz-adv-x="235" 
d="M53 598v195h131v-195h-131z" />
    <glyph glyph-name="periodcentered" unicode="&#x2219;" horiz-adv-x="235" 
d="M53 598v195h131v-195h-131z" />
    <glyph glyph-name="cedilla" unicode="&#xb8;" 
d="M248 -365q-51 0 -103 17l23 76q32 -11 68 -11q37 0 47 14.5t10 69.5q0 44 -13.5 56t-48.5 10l-34 27l20 122h72l-17 -98q52 5 76.5 -21.5t24.5 -99.5q0 -97 -26 -129.5t-99 -32.5z" />
    <glyph glyph-name="onesuperior" unicode="&#xb9;" horiz-adv-x="354" 
d="M139 592v831h-67v95h170v-926h-103z" />
    <glyph glyph-name="ordmasculine" unicode="&#xba;" horiz-adv-x="444" 
d="M76 391v94h297v-94h-297zM223 592q-83 0 -121 41q-36 38 -43.5 118.5t-7.5 311.5q0 225 7.5 303.5t41.5 116.5q35 43 123 43q86 0 123 -43q33 -38 40 -116.5t7 -303.5q0 -232 -7 -312t-40 -118q-38 -41 -123 -41zM223 686q51 0 60.5 55t9.5 318q0 256 -9.5 313.5
t-60.5 57.5t-61 -55.5t-10 -302.5v-13q0 -264 8 -314q9 -48 36 -56q10 -3 27 -3z" />
    <glyph glyph-name="guillemotright" unicode="&#xbb;" horiz-adv-x="559" 
d="M78 0l110 563l-110 565h104l113 -565l-113 -563h-104zM272 0l109 563l-109 565h105l112 -565l-112 -563h-105z" />
    <glyph glyph-name="onequarter" unicode="&#xbc;" horiz-adv-x="737" 
d="M156 0l276 1518h107l-277 -1518h-106zM397 182v84l150 662h92l-147 -658h65l29 238h61v-238h58v-88h-58v-182h-92v182h-158zM106 592v831h-67v95h170v-926h-103z" />
    <glyph glyph-name="onehalf" unicode="&#xbd;" horiz-adv-x="774" 
d="M156 0l276 1518h107l-277 -1518h-106zM106 592v831h-67v95h170v-926h-103zM465 0v88l151 643q9 30 9 53q0 56 -56 56q-47 0 -73 -13l-37 86q43 19 116 19q81 0 114.5 -30.5t33.5 -96.5q0 -60 -14 -109l-144 -608h156v-88h-256z" />
    <glyph glyph-name="threequarters" unicode="&#xbe;" horiz-adv-x="798" 
d="M217 0l277 1518h106l-276 -1518h-107zM459 182v84l149 662h92l-147 -658h68l26 238h64v-238h55v-88h-55v-182h-93v182h-159zM137 586q-57 0 -106 16l26 86q45 -10 70 -10q46 0 56 29.5t10 150.5q0 137 -11.5 164t-70.5 27h-31v92h37q50 0 59.5 24t9.5 135q0 86 -8 108
t-45 22q-40 0 -70 -9l-26 86q44 15 108 15q80 0 107 -31q19 -20 24 -58t5 -116q0 -111 -5.5 -151.5t-31.5 -59.5q31 -17 38 -65.5t7 -186.5q0 -109 -7.5 -161.5t-33.5 -76.5q-34 -30 -111 -30z" />
    <glyph glyph-name="questiondown" unicode="&#xbf;" horiz-adv-x="428" 
d="M238 -8q-47 0 -81.5 11t-56 28.5t-34 45.5t-17 56t-2.5 66.5t6.5 70t12.5 72.5l84 422q13 62 19 121t6.5 95.5t0.5 125.5h115q0 -121 -6.5 -198t-26.5 -171l-86 -432q-8 -40 -11 -67t-1.5 -54.5t11 -43.5t28.5 -26t49 -10q73 0 119 23l41 -104q-73 -31 -170 -31z
M166 1337v181h127v-181h-127z" />
    <glyph glyph-name="Agrave" unicode="&#xc0;" horiz-adv-x="509" 
d="M12 0l176 1524h134l176 -1524h-121l-39 358h-174l-37 -358h-115zM229 969l-53 -496h150l-52 496l-22 276zM230 1601l-119 240h129l88 -240h-98z" />
    <glyph glyph-name="Aacute" unicode="&#xc1;" horiz-adv-x="509" 
d="M12 0l176 1524h134l176 -1524h-121l-39 358h-174l-37 -358h-115zM229 969l-53 -496h150l-52 496l-22 276zM181 1601l90 240h129l-121 -240h-98z" />
    <glyph glyph-name="Acircumflex" unicode="&#xc2;" horiz-adv-x="509" 
d="M12 0l176 1524h134l176 -1524h-121l-39 358h-174l-37 -358h-115zM229 969l-53 -496h150l-52 496l-22 276zM84 1601l113 240h115l112 -240h-98l-74 154l-71 -154h-97z" />
    <glyph glyph-name="Atilde" unicode="&#xc3;" horiz-adv-x="509" 
d="M12 0l176 1524h134l176 -1524h-121l-39 358h-174l-37 -358h-115zM229 969l-53 -496h150l-52 496l-22 276zM80 1601q-1 88 22 119t70 31q28 0 79 -29t63 -29q14 0 19 12t5 44h90q1 -90 -20.5 -120t-71.5 -30q-29 0 -80 28.5t-61 28.5q-25 0 -25 -55h-90z" />
    <glyph glyph-name="Adieresis" unicode="&#xc4;" horiz-adv-x="509" 
d="M12 0l176 1524h134l176 -1524h-121l-39 358h-174l-37 -358h-115zM229 969l-53 -496h150l-52 496l-22 276zM111 1601v168h102v-168h-102zM297 1601v168h101v-168h-101z" />
    <glyph glyph-name="Aring" unicode="&#xc5;" horiz-adv-x="509" 
d="M12 0l174 1518q-27 17 -35 51.5t-8 95.5q0 85 21 124.5t90 39.5t90 -39.5t21 -124.5q0 -58 -8.5 -93t-34.5 -52l176 -1520h-121l-39 358h-174l-37 -358h-115zM229 969l-53 -496h150l-52 496l-22 276zM254 1567q26 0 33.5 19t7.5 77q0 60 -7.5 80t-33.5 20
q-27 0 -34 -19.5t-7 -80.5q0 -59 7 -77.5t34 -18.5z" />
    <glyph glyph-name="AE" unicode="&#xc6;" horiz-adv-x="712" 
d="M-6 0l260 1518h416v-115h-224v-569h207v-113h-207v-610h224v-111h-338v377h-160l-59 -377h-119zM186 475h146v911z" />
    <glyph glyph-name="Ccedilla" unicode="&#xc7;" horiz-adv-x="405" 
d="M227 -365q-50 0 -102 17l22 76q32 -11 68 -11q37 0 47 14.5t10 69.5q0 44 -13 56t-48 10l-35 27l17 104q-64 13 -97 65q-41 66 -49 184t-8 513q0 386 8 507.5t47 182.5q49 76 180 76q68 0 125 -15l-20 -112q-45 10 -100 10q-58 0 -80 -35q-31 -47 -36 -236
q-3 -92 -3 -380q0 -427 13 -527q12 -96 49 -116q19 -11 57 -11q48 0 98 15l26 -105q-79 -24 -131 -24h-8l-12 -72q52 5 76 -21.5t24 -99.5q0 -97 -26 -129.5t-99 -32.5z" />
    <glyph glyph-name="Egrave" unicode="&#xc8;" horiz-adv-x="448" 
d="M63 0v1518h340v-115h-221v-567h217v-115h-217v-610h224v-111h-343zM199 1601l-119 240h129l88 -240h-98z" />
    <glyph glyph-name="Eacute" unicode="&#xc9;" horiz-adv-x="448" 
d="M150 1602l90 239h129l-121 -239h-98zM63 0v1518h340v-115h-221v-567h217v-115h-217v-610h224v-111h-343z" />
    <glyph glyph-name="Ecircumflex" unicode="&#xca;" horiz-adv-x="448" 
d="M53 1602l113 239h115l112 -239h-98l-74 153l-71 -153h-97zM63 0v1518h340v-115h-221v-567h217v-115h-217v-610h224v-111h-343z" />
    <glyph glyph-name="Edieresis" unicode="&#xcb;" horiz-adv-x="448" 
d="M80 1602v167h102v-167h-102zM266 1602v167h101v-167h-101zM63 0v1518h340v-115h-221v-567h217v-115h-217v-610h224v-111h-343z" />
    <glyph glyph-name="Igrave" unicode="&#xcc;" horiz-adv-x="258" 
d="M80 1602l-100 241h137l67 -241h-104zM68 0v1518h118v-1518h-118z" />
    <glyph glyph-name="Iacute" unicode="&#xcd;" horiz-adv-x="258" 
d="M74 1602l67 241h135l-100 -241h-102zM68 0v1518h118v-1518h-118z" />
    <glyph glyph-name="Icircumflex" unicode="&#xce;" horiz-adv-x="258" 
d="M-35 1602l105 241h116l105 -241h-96l-68 153l-66 -153h-96zM68 0v1518h118v-1518h-118z" />
    <glyph glyph-name="Idieresis" unicode="&#xcf;" horiz-adv-x="258" 
d="M68 0v1518h118v-1518h-118zM-14 1602v167h102v-167h-102zM172 1602v167h100v-167h-100z" />
    <glyph glyph-name="Eth" unicode="&#xd0;" horiz-adv-x="542" 
d="M8 727v107h58v684h213q63 0 105 -18t69 -62q36 -61 43.5 -178.5t7.5 -499.5q0 -388 -8 -506.5t-47 -177.5q-27 -42 -67.5 -59t-102.5 -17h-213v727h-58zM182 106h86q59 0 81 38q30 50 36 246q2 92 2 368q0 409 -11 505q-11 109 -51 134q-20 12 -57 12h-86v-575h111v-107
h-111v-621z" />
    <glyph glyph-name="Ntilde" unicode="&#xd1;" horiz-adv-x="565" 
d="M63 0v1518h136l159 -836l33 -197v1033h111v-1518h-113l-184 958l-31 177v-1135h-111zM106 1601q-1 88 22 119t70 31q28 0 79 -29t63 -29q14 0 19 12t5 44h90q1 -90 -20.5 -120t-71.5 -30q-29 0 -80 28.5t-61 28.5q-25 0 -25 -55h-90z" />
    <glyph glyph-name="Ograve" unicode="&#xd2;" horiz-adv-x="540" 
d="M270 -10q-126 0 -174 71q-39 61 -48 188t-9 511q0 378 8.5 503.5t46.5 188.5q46 74 176 74q65 0 107.5 -16t68.5 -56q39 -62 47.5 -186.5t8.5 -507.5q0 -393 -9 -517t-49 -184q-25 -39 -67 -54t-107 -15zM270 102q55 0 75 31q30 44 35 227q3 95 3 398q0 424 -10 518
q-11 100 -47 122q-19 11 -56 11q-54 0 -75 -30q-29 -42 -34 -220q-3 -92 -3 -401q0 -427 11 -523q11 -100 47 -122q18 -11 54 -11zM246 1601l-119 240h129l88 -240h-98z" />
    <glyph glyph-name="Oacute" unicode="&#xd3;" horiz-adv-x="540" 
d="M197 1602l90 239h129l-121 -239h-98zM270 -10q-126 0 -174 71q-39 61 -48 188t-9 511q0 378 8.5 503.5t46.5 188.5q46 74 176 74q65 0 107.5 -16t68.5 -56q39 -62 47.5 -186.5t8.5 -507.5q0 -393 -9 -517t-49 -184q-25 -39 -67 -54t-107 -15zM270 102q55 0 75 31
q30 44 35 227q3 95 3 398q0 424 -10 518q-11 100 -47 122q-19 11 -56 11q-54 0 -75 -30q-29 -42 -34 -220q-3 -92 -3 -401q0 -427 11 -523q11 -100 47 -122q18 -11 54 -11z" />
    <glyph glyph-name="Ocircumflex" unicode="&#xd4;" horiz-adv-x="540" 
d="M100 1602l113 239h115l112 -239h-98l-74 153l-71 -153h-97zM270 -10q-126 0 -174 71q-39 61 -48 188t-9 511q0 378 8.5 503.5t46.5 188.5q46 74 176 74q65 0 107.5 -16t68.5 -56q39 -62 47.5 -186.5t8.5 -507.5q0 -393 -9 -517t-49 -184q-25 -39 -67 -54t-107 -15z
M270 102q55 0 75 31q30 44 35 227q3 95 3 398q0 424 -10 518q-11 100 -47 122q-19 11 -56 11q-54 0 -75 -30q-29 -42 -34 -220q-3 -92 -3 -401q0 -427 11 -523q11 -100 47 -122q18 -11 54 -11z" />
    <glyph glyph-name="Otilde" unicode="&#xd5;" horiz-adv-x="540" 
d="M270 -10q-126 0 -174 71q-39 61 -48 188t-9 511q0 378 8.5 503.5t46.5 188.5q46 74 176 74q65 0 107.5 -16t68.5 -56q39 -62 47.5 -186.5t8.5 -507.5q0 -393 -9 -517t-49 -184q-25 -39 -67 -54t-107 -15zM270 102q55 0 75 31q30 44 35 227q3 95 3 398q0 424 -10 518
q-11 100 -47 122q-19 11 -56 11q-54 0 -75 -30q-29 -42 -34 -220q-3 -92 -3 -401q0 -427 11 -523q11 -100 47 -122q18 -11 54 -11zM96 1601q-1 88 22 119t70 31q28 0 79 -29t63 -29q14 0 19 12t5 44h90q1 -90 -20.5 -120t-71.5 -30q-29 0 -80 28.5t-61 28.5q-25 0 -25 -55
h-90z" />
    <glyph glyph-name="Odieresis" unicode="&#xd6;" horiz-adv-x="540" 
d="M127 1602v167h102v-167h-102zM313 1602v167h101v-167h-101zM270 -10q-126 0 -174 71q-39 61 -48 188t-9 511q0 378 8.5 503.5t46.5 188.5q46 74 176 74q65 0 107.5 -16t68.5 -56q39 -62 47.5 -186.5t8.5 -507.5q0 -393 -9 -517t-49 -184q-25 -39 -67 -54t-107 -15z
M270 102q55 0 75 31q30 44 35 227q3 95 3 398q0 424 -10 518q-11 100 -47 122q-19 11 -56 11q-54 0 -75 -30q-29 -42 -34 -220q-3 -92 -3 -401q0 -427 11 -523q11 -100 47 -122q18 -11 54 -11z" />
    <glyph glyph-name="multiply" unicode="&#xd7;" horiz-adv-x="536" 
d="M145 553l-69 70l123 122l-123 125l69 70l123 -125l125 125l70 -70l-125 -125l125 -122l-70 -70l-125 123z" />
    <glyph glyph-name="Oslash" unicode="&#xd8;" horiz-adv-x="540" 
d="M117 -84l16 107q-24 17 -37 38q-39 61 -48 188t-9 511q0 378 8.5 503.5t46.5 188.5q46 74 176 74q28 0 64 -4l12 82h76l-16 -109q17 -11 40 -41q39 -62 47.5 -186.5t8.5 -507.5q0 -393 -9 -517t-49 -184q-25 -39 -67 -54t-107 -15q-35 0 -65 6l-10 -80h-78zM270 98
q58 0 79 31q31 45 37 224q3 96 3 405q0 451 -16 538l-158 -1183q17 -15 55 -15zM154 758q0 -441 14 -525l154 1168q-16 14 -52 14q-57 0 -78 -31q-29 -44 -35 -223q-3 -92 -3 -403z" />
    <glyph glyph-name="Ugrave" unicode="&#xd9;" horiz-adv-x="565" 
d="M283 -10q-46 0 -80.5 9.5t-58 23.5t-40 42t-25.5 54t-13.5 71.5t-5.5 82t-1 96.5v1149h119v-1151q0 -68 1 -102t6.5 -72t17 -54t31.5 -26.5t51 -10.5q26 0 43.5 5.5t29.5 21.5t18.5 33t9.5 52.5t4 66t1 86.5v1151h115v-1149q0 -47 -0.5 -75.5t-2.5 -67t-6.5 -61.5
t-12 -51.5t-19 -44.5t-28 -33.5t-38.5 -26t-51 -14t-65 -5.5zM256 1601l-119 240h129l88 -240h-98z" />
    <glyph glyph-name="Uacute" unicode="&#xda;" horiz-adv-x="565" 
d="M207 1602l90 239h129l-121 -239h-98zM283 -10q-46 0 -80.5 9.5t-58 23.5t-40 42t-25.5 54t-13.5 71.5t-5.5 82t-1 96.5v1149h119v-1151q0 -68 1 -102t6.5 -72t17 -54t31.5 -26.5t51 -10.5q26 0 43.5 5.5t29.5 21.5t18.5 33t9.5 52.5t4 66t1 86.5v1151h115v-1149
q0 -47 -0.5 -75.5t-2.5 -67t-6.5 -61.5t-12 -51.5t-19 -44.5t-28 -33.5t-38.5 -26t-51 -14t-65 -5.5z" />
    <glyph glyph-name="Ucircumflex" unicode="&#xdb;" horiz-adv-x="565" 
d="M111 1602l112 239h115l113 -239h-99l-73 153l-72 -153h-96zM283 -10q-46 0 -80.5 9.5t-58 23.5t-40 42t-25.5 54t-13.5 71.5t-5.5 82t-1 96.5v1149h119v-1151q0 -68 1 -102t6.5 -72t17 -54t31.5 -26.5t51 -10.5q26 0 43.5 5.5t29.5 21.5t18.5 33t9.5 52.5t4 66t1 86.5
v1151h115v-1149q0 -47 -0.5 -75.5t-2.5 -67t-6.5 -61.5t-12 -51.5t-19 -44.5t-28 -33.5t-38.5 -26t-51 -14t-65 -5.5z" />
    <glyph glyph-name="Udieresis" unicode="&#xdc;" horiz-adv-x="565" 
d="M137 1602v167h103v-167h-103zM324 1602v167h100v-167h-100zM283 -10q-46 0 -80.5 9.5t-58 23.5t-40 42t-25.5 54t-13.5 71.5t-5.5 82t-1 96.5v1149h119v-1151q0 -68 1 -102t6.5 -72t17 -54t31.5 -26.5t51 -10.5q26 0 43.5 5.5t29.5 21.5t18.5 33t9.5 52.5t4 66t1 86.5
v1151h115v-1149q0 -47 -0.5 -75.5t-2.5 -67t-6.5 -61.5t-12 -51.5t-19 -44.5t-28 -33.5t-38.5 -26t-51 -14t-65 -5.5z" />
    <glyph glyph-name="Yacute" unicode="&#xdd;" horiz-adv-x="477" 
d="M178 0v522l-174 996h119l117 -770l118 770h115l-176 -1008v-510h-119zM164 1601l90 240h129l-121 -240h-98z" />
    <glyph glyph-name="Thorn" unicode="&#xde;" horiz-adv-x="509" 
d="M63 0v1518h119v-275h80q38 0 67 -6t51 -21.5t37.5 -33t26 -49t17 -61.5t9.5 -78t4 -90t1 -107q0 -74 -1 -120.5t-5.5 -99.5t-13.5 -84.5t-24 -63t-37.5 -47.5t-54 -26t-73.5 -10h-84v-346h-119zM182 451h72q26 0 43.5 6.5t29 27t18 40.5t9.5 66.5t3.5 84t0.5 112.5
q0 211 -16.5 278t-87.5 67h-72v-682z" />
    <glyph glyph-name="germandbls" unicode="&#xdf;" horiz-adv-x="501" 
d="M55 0v1260q0 167 40 231.5t163 64.5q53 0 85 -10t55 -32t33.5 -70.5t15 -112t4.5 -170.5q0 -201 -13.5 -269.5t-54.5 -86.5q39 -19 56 -49.5t24.5 -106.5t7.5 -237q0 -96 -1.5 -144.5t-8 -104.5t-19 -79.5t-37 -47t-59.5 -30t-88 -6.5h-29v104h29q45 0 63.5 15.5
t29.5 83.5t11 219q0 150 -11 218t-30 83.5t-63 15.5h-27v99h27q21 0 33 3t23 15.5t16 30.5t8.5 55.5t4.5 82.5t1 118q0 55 -0.5 91t-2 70.5t-4 54.5t-7.5 38.5t-10.5 27t-15 15t-20 8.5t-26.5 2q-57 0 -72.5 -37.5t-15.5 -157.5v-1255h-115z" />
    <glyph glyph-name="agrave" unicode="&#xe0;" horiz-adv-x="473" 
d="M186 -8q-36 0 -61.5 9t-42.5 32.5t-27 49.5t-14.5 74t-6 90.5t-1.5 114.5q0 95 2.5 153.5t12.5 114t26.5 84.5t46.5 53t71.5 33t102.5 11v61q0 95 -11.5 124.5t-60.5 29.5q-48 0 -129 -18l-24 110q74 21 166 21q47 0 78 -10t50 -27.5t28.5 -51t12.5 -69t3 -92.5v-694
q0 -52 9 -67t42 -15v-113q-6 -2 -35 -2q-52 0 -74 11t-31 38q-33 -55 -133 -55zM213 98q57 0 69.5 54t12.5 229v324q-29 -1 -48.5 -3t-36.5 -10.5t-27 -17t-18.5 -30t-12 -41t-6 -59.5t-3 -76t-0.5 -99q0 -171 12 -221t58 -50zM211 1241l-119 240h129l88 -240h-98z" />
    <glyph glyph-name="aacute" unicode="&#xe1;" horiz-adv-x="473" 
d="M186 -8q-36 0 -61.5 9t-42.5 32.5t-27 49.5t-14.5 74t-6 90.5t-1.5 114.5q0 95 2.5 153.5t12.5 114t26.5 84.5t46.5 53t71.5 33t102.5 11v61q0 95 -11.5 124.5t-60.5 29.5q-48 0 -129 -18l-24 110q74 21 166 21q47 0 78 -10t50 -27.5t28.5 -51t12.5 -69t3 -92.5v-694
q0 -52 9 -67t42 -15v-113q-6 -2 -35 -2q-52 0 -74 11t-31 38q-33 -55 -133 -55zM213 98q57 0 69.5 54t12.5 229v324q-29 -1 -48.5 -3t-36.5 -10.5t-27 -17t-18.5 -30t-12 -41t-6 -59.5t-3 -76t-0.5 -99q0 -171 12 -221t58 -50zM162 1241l90 240h129l-121 -240h-98z" />
    <glyph glyph-name="acircumflex" unicode="&#xe2;" horiz-adv-x="473" 
d="M186 -8q-36 0 -61.5 9t-42.5 32.5t-27 49.5t-14.5 74t-6 90.5t-1.5 114.5q0 95 2.5 153.5t12.5 114t26.5 84.5t46.5 53t71.5 33t102.5 11v61q0 95 -11.5 124.5t-60.5 29.5q-48 0 -129 -18l-24 110q74 21 166 21q47 0 78 -10t50 -27.5t28.5 -51t12.5 -69t3 -92.5v-694
q0 -52 9 -67t42 -15v-113q-6 -2 -35 -2q-52 0 -74 11t-31 38q-33 -55 -133 -55zM213 98q57 0 69.5 54t12.5 229v324q-29 -1 -48.5 -3t-36.5 -10.5t-27 -17t-18.5 -30t-12 -41t-6 -59.5t-3 -76t-0.5 -99q0 -171 12 -221t58 -50zM65 1241l113 240h115l112 -240h-98l-74 154
l-71 -154h-97z" />
    <glyph glyph-name="atilde" unicode="&#xe3;" horiz-adv-x="473" 
d="M186 -8q-36 0 -61.5 9t-42.5 32.5t-27 49.5t-14.5 74t-6 90.5t-1.5 114.5q0 95 2.5 153.5t12.5 114t26.5 84.5t46.5 53t71.5 33t102.5 11v61q0 95 -11.5 124.5t-60.5 29.5q-48 0 -129 -18l-24 110q74 21 166 21q47 0 78 -10t50 -27.5t28.5 -51t12.5 -69t3 -92.5v-694
q0 -52 9 -67t42 -15v-113q-6 -2 -35 -2q-52 0 -74 11t-31 38q-33 -55 -133 -55zM213 98q57 0 69.5 54t12.5 229v324q-29 -1 -48.5 -3t-36.5 -10.5t-27 -17t-18.5 -30t-12 -41t-6 -59.5t-3 -76t-0.5 -99q0 -171 12 -221t58 -50zM61 1241q-1 88 22 119t70 31q28 0 79 -29
t63 -29q14 0 19 12t5 44h90q1 -90 -20.5 -120t-71.5 -30q-29 0 -80 28.5t-61 28.5q-25 0 -25 -55h-90z" />
    <glyph glyph-name="adieresis" unicode="&#xe4;" horiz-adv-x="473" 
d="M186 -8q-36 0 -61.5 9t-42.5 32.5t-27 49.5t-14.5 74t-6 90.5t-1.5 114.5q0 95 2.5 153.5t12.5 114t26.5 84.5t46.5 53t71.5 33t102.5 11v61q0 95 -11.5 124.5t-60.5 29.5q-48 0 -129 -18l-24 110q74 21 166 21q47 0 78 -10t50 -27.5t28.5 -51t12.5 -69t3 -92.5v-694
q0 -52 9 -67t42 -15v-113q-6 -2 -35 -2q-52 0 -74 11t-31 38q-33 -55 -133 -55zM213 98q57 0 69.5 54t12.5 229v324q-29 -1 -48.5 -3t-36.5 -10.5t-27 -17t-18.5 -30t-12 -41t-6 -59.5t-3 -76t-0.5 -99q0 -171 12 -221t58 -50zM92 1241v168h102v-168h-102zM278 1241v168h101
v-168h-101z" />
    <glyph glyph-name="aring" unicode="&#xe5;" horiz-adv-x="473" 
d="M186 -8q-36 0 -61.5 9t-42.5 32.5t-27 49.5t-14.5 74t-6 90.5t-1.5 114.5q0 95 2.5 153.5t12.5 114t26.5 84.5t46.5 53t71.5 33t102.5 11v61q0 95 -11.5 124.5t-60.5 29.5q-48 0 -129 -18l-24 110q74 21 166 21q47 0 78 -10t50 -27.5t28.5 -51t12.5 -69t3 -92.5v-694
q0 -52 9 -67t42 -15v-113q-6 -2 -35 -2q-52 0 -74 11t-31 38q-33 -55 -133 -55zM213 98q57 0 69.5 54t12.5 229v324q-29 -1 -48.5 -3t-36.5 -10.5t-27 -17t-18.5 -30t-12 -41t-6 -59.5t-3 -76t-0.5 -99q0 -171 12 -221t58 -50zM235 1237q-36 0 -59 11t-33.5 35t-14 49.5
t-3.5 66.5q0 85 20.5 124.5t89.5 39.5t90 -39.5t21 -124.5q0 -83 -21 -122.5t-90 -39.5zM235 1300q26 0 33.5 19.5t7.5 77.5q0 60 -7.5 80t-33.5 20q-27 0 -34 -19.5t-7 -80.5q0 -60 7 -78.5t34 -18.5z" />
    <glyph glyph-name="ae" unicode="&#xe6;" horiz-adv-x="692" 
d="M498 -10q-85 0 -131 49q-19 19 -27 41q-23 -53 -59 -70.5t-95 -17.5q-36 0 -61.5 9.5t-42.5 33.5t-27 50.5t-14.5 74t-6 90t-1.5 112.5q0 71 1.5 119t6 95.5t12.5 77.5t22 58t32.5 43.5t46 28.5t61.5 18t80 7v65q0 94 -12 123t-60 29t-129 -18l-24 110q78 21 166 21
q90 0 129 -45q45 45 118 45q93 0 133 -49q34 -44 43 -149t7 -374v-59h-254q0 -270 15 -339t81 -69q54 0 106 25l39 -100q-75 -35 -155 -35zM213 98q57 0 69.5 52.5t12.5 211.5v343q-29 -1 -48.5 -3t-36.5 -10.5t-27 -17t-18.5 -30t-12 -41t-6 -59.5t-3 -76t-0.5 -99
q0 -165 11 -218t59 -53zM483 1026q-50 0 -60.5 -67t-10.5 -343h141q0 292 -9 347q-9 52 -37 60q-9 3 -24 3z" />
    <glyph glyph-name="ccedilla" unicode="&#xe7;" horiz-adv-x="368" 
d="M209 -365q-51 0 -103 17l23 76q32 -11 68 -11q37 0 47 14.5t10 69.5q0 44 -13 56t-48 10l-35 27l16 104q-46 9 -78 41q-43 48 -53 149t-10 379q0 271 9.5 369t51.5 147q45 54 146 54q66 0 110 -13l-28 -112q-38 10 -74 10q-68 0 -82 -77t-14 -380q0 -315 14 -390t82 -75
q37 0 78 13l26 -101q-38 -17 -106 -20l-13 -74q52 5 76.5 -21.5t24.5 -99.5q0 -97 -26 -129.5t-99 -32.5z" />
    <glyph glyph-name="egrave" unicode="&#xe8;" horiz-adv-x="430" 
d="M236 -10q-94 0 -140 49q-43 48 -53 148.5t-10 379.5q0 282 8 377t45 143q45 52 133 52q97 0 133 -49q33 -43 41 -144t8 -379v-59h-254q0 -95 1 -152.5t5 -108t9.5 -75.5t17 -43.5t26.5 -23.5t38 -5q54 0 106 25l41 -100q-78 -35 -155 -35zM219 1026q-51 0 -61.5 -68
t-10.5 -342h144q0 286 -10 348t-62 62zM191 1241l-119 240h129l88 -240h-98z" />
    <glyph glyph-name="eacute" unicode="&#xe9;" horiz-adv-x="430" 
d="M141 1241l90 240h129l-120 -240h-99zM236 -10q-94 0 -140 49q-43 48 -53 148.5t-10 379.5q0 282 8 377t45 143q45 52 133 52q97 0 133 -49q33 -43 41 -144t8 -379v-59h-254q0 -95 1 -152.5t5 -108t9.5 -75.5t17 -43.5t26.5 -23.5t38 -5q54 0 106 25l41 -100
q-78 -35 -155 -35zM219 1026q-51 0 -61.5 -68t-10.5 -342h144q0 286 -10 348t-62 62z" />
    <glyph glyph-name="ecircumflex" unicode="&#xea;" horiz-adv-x="430" 
d="M45 1241l113 240h114l113 -240h-98l-74 154l-72 -154h-96zM236 -10q-94 0 -140 49q-43 48 -53 148.5t-10 379.5q0 282 8 377t45 143q45 52 133 52q97 0 133 -49q33 -43 41 -144t8 -379v-59h-254q0 -95 1 -152.5t5 -108t9.5 -75.5t17 -43.5t26.5 -23.5t38 -5q54 0 106 25
l41 -100q-78 -35 -155 -35zM219 1026q-51 0 -61.5 -68t-10.5 -342h144q0 286 -10 348t-62 62z" />
    <glyph glyph-name="edieresis" unicode="&#xeb;" horiz-adv-x="430" 
d="M72 1241v168h102v-168h-102zM258 1241v168h100v-168h-100zM236 -10q-94 0 -140 49q-43 48 -53 148.5t-10 379.5q0 282 8 377t45 143q45 52 133 52q97 0 133 -49q33 -43 41 -144t8 -379v-59h-254q0 -95 1 -152.5t5 -108t9.5 -75.5t17 -43.5t26.5 -23.5t38 -5q54 0 106 25
l41 -100q-78 -35 -155 -35zM219 1026q-51 0 -61.5 -68t-10.5 -342h144q0 286 -10 348t-62 62z" />
    <glyph glyph-name="igrave" unicode="&#xec;" horiz-adv-x="233" 
d="M70 1241l-97 240h131l68 -240h-102zM57 0v1128h117v-1128h-117z" />
    <glyph glyph-name="iacute" unicode="&#xed;" horiz-adv-x="233" 
d="M61 1241l68 240h129l-94 -240h-103zM57 0v1128h117v-1128h-117z" />
    <glyph glyph-name="icircumflex" unicode="&#xee;" horiz-adv-x="233" 
d="M-41 1241l98 240h117l96 -240h-96l-59 150l-58 -150h-98zM57 0v1128h117v-1128h-117z" />
    <glyph glyph-name="idieresis" unicode="&#xef;" horiz-adv-x="233" 
d="M-16 1255v168h96v-168h-96zM152 1255v168h96v-168h-96zM57 0v1128h117v-1128h-117z" />
    <glyph glyph-name="eth" unicode="&#xf0;" horiz-adv-x="489" 
d="M187 1239v88l82 29q-8 23 -61 166l98 32q42 -104 62 -163l102 34v-88l-78 -28q64 -244 64 -670v-72q0 -275 -10 -377.5t-52 -148.5q-40 -51 -149 -51q-102 0 -150 51q-43 46 -52 144.5t-9 381.5v30q0 258 9 349t50 137q44 50 142 50q65 0 92 -31q-13 77 -35 172zM245 98
q68 0 81 67t13 375v25q0 315 -13 387t-81 72q-69 0 -82.5 -72t-13.5 -387q0 -326 13 -396.5t83 -70.5z" />
    <glyph glyph-name="ntilde" unicode="&#xf1;" horiz-adv-x="514" 
d="M55 0v1120l95 6l8 -47q29 60 147 60q43 0 72.5 -11.5t46 -29.5t25 -53t10.5 -66.5t2 -85.5v-893h-117v860q0 102 -12.5 133t-63.5 31q-57 0 -77.5 -44.5t-20.5 -152.5v-827h-115zM82 1241q-1 88 22 119t70 31q28 0 79 -29t63 -29q14 0 19 12t5 44h90q1 -90 -20.5 -120
t-71.5 -30q-29 0 -80 28.5t-61 28.5q-25 0 -25 -55h-90z" />
    <glyph glyph-name="ograve" unicode="&#xf2;" horiz-adv-x="489" 
d="M246 -10q-102 0 -150 51q-44 46 -53.5 145t-9.5 381q0 277 9 373t52 145q48 54 152 54t151 -56q41 -48 50.5 -145t9.5 -371q0 -281 -9.5 -379.5t-52.5 -146.5q-45 -51 -149 -51zM246 98q68 0 81 70.5t13 396.5q0 315 -13 387t-81 72q-69 0 -82.5 -72t-13.5 -387
q0 -326 13 -396.5t83 -70.5zM219 1241l-119 240h129l88 -240h-98z" />
    <glyph glyph-name="oacute" unicode="&#xf3;" horiz-adv-x="489" 
d="M170 1241l90 240h129l-121 -240h-98zM246 -10q-102 0 -150 51q-44 46 -53.5 145t-9.5 381q0 277 9 373t52 145q48 54 152 54t151 -56q41 -48 50.5 -145t9.5 -371q0 -281 -9.5 -379.5t-52.5 -146.5q-45 -51 -149 -51zM246 98q68 0 81 70.5t13 396.5q0 315 -13 387t-81 72
q-69 0 -82.5 -72t-13.5 -387q0 -326 13 -396.5t83 -70.5z" />
    <glyph glyph-name="ocircumflex" unicode="&#xf4;" horiz-adv-x="489" 
d="M74 1241l112 240h115l113 -240h-99l-73 154l-72 -154h-96zM246 -10q-102 0 -150 51q-44 46 -53.5 145t-9.5 381q0 277 9 373t52 145q48 54 152 54t151 -56q41 -48 50.5 -145t9.5 -371q0 -281 -9.5 -379.5t-52.5 -146.5q-45 -51 -149 -51zM246 98q68 0 81 70.5t13 396.5
q0 315 -13 387t-81 72q-69 0 -82.5 -72t-13.5 -387q0 -326 13 -396.5t83 -70.5z" />
    <glyph glyph-name="otilde" unicode="&#xf5;" horiz-adv-x="489" 
d="M246 -10q-102 0 -150 51q-44 46 -53.5 145t-9.5 381q0 277 9 373t52 145q48 54 152 54t151 -56q41 -48 50.5 -145t9.5 -371q0 -281 -9.5 -379.5t-52.5 -146.5q-45 -51 -149 -51zM246 98q68 0 81 70.5t13 396.5q0 315 -13 387t-81 72q-69 0 -82.5 -72t-13.5 -387
q0 -326 13 -396.5t83 -70.5zM69 1241q-1 88 22 119t70 31q28 0 79 -29t63 -29q14 0 19 12t5 44h90q1 -90 -20.5 -120t-71.5 -30q-29 0 -80 28.5t-61 28.5q-25 0 -25 -55h-90z" />
    <glyph glyph-name="odieresis" unicode="&#xf6;" horiz-adv-x="489" 
d="M100 1241v168h103v-168h-103zM287 1241v168h100v-168h-100zM246 -10q-102 0 -150 51q-44 46 -53.5 145t-9.5 381q0 277 9 373t52 145q48 54 152 54t151 -56q41 -48 50.5 -145t9.5 -371q0 -281 -9.5 -379.5t-52.5 -146.5q-45 -51 -149 -51zM246 98q68 0 81 70.5t13 396.5
q0 315 -13 387t-81 72q-69 0 -82.5 -72t-13.5 -387q0 -326 13 -396.5t83 -70.5z" />
    <glyph glyph-name="divide" unicode="&#xf7;" horiz-adv-x="536" 
d="M215 426v141h111v-141h-111zM80 690v113h377v-113h-377zM215 920v143h111v-143h-111z" />
    <glyph glyph-name="oslash" unicode="&#xf8;" horiz-adv-x="489" 
d="M80 -84l22 117q-1 1 -3 4t-3 4q-44 46 -53.5 145t-9.5 381q0 277 9 373t52 145q48 54 152 54q17 0 69 -9l17 82h80l-25 -118q1 -1 4.5 -5.5t5.5 -5.5q41 -48 50.5 -145t9.5 -371q0 -281 -9.5 -379.5t-52.5 -146.5q-45 -51 -149 -51q-36 0 -74 10l-14 -84h-78zM246 94
q72 0 86 72t14 399q0 274 -4 342l-156 -794q19 -19 60 -19zM145 565q0 -255 5 -340l153 787q-18 18 -57 18q-72 0 -86.5 -75t-14.5 -390z" />
    <glyph glyph-name="ugrave" unicode="&#xf9;" horiz-adv-x="503" 
d="M252 -10q-54 0 -91 13t-58.5 34t-32.5 59.5t-14 76t-3 97.5v858h117v-852q0 -47 1 -70t5 -48.5t13 -35.5t24.5 -17t40.5 -7q21 0 35.5 3.5t24 15t14.5 21.5t7 36t2.5 44.5t0.5 60.5v849h113v-858q0 -44 -1.5 -73t-5.5 -61.5t-12.5 -52.5t-23 -39.5t-35.5 -30t-51 -17
t-70 -6.5zM226 1241l-119 240h129l88 -240h-98z" />
    <glyph glyph-name="uacute" unicode="&#xfa;" horiz-adv-x="503" 
d="M176 1241l90 240h129l-121 -240h-98zM252 -10q-54 0 -91 13t-58.5 34t-32.5 59.5t-14 76t-3 97.5v858h117v-852q0 -47 1 -70t5 -48.5t13 -35.5t24.5 -17t40.5 -7q21 0 35.5 3.5t24 15t14.5 21.5t7 36t2.5 44.5t0.5 60.5v849h113v-858q0 -44 -1.5 -73t-5.5 -61.5
t-12.5 -52.5t-23 -39.5t-35.5 -30t-51 -17t-70 -6.5z" />
    <glyph glyph-name="ucircumflex" unicode="&#xfb;" horiz-adv-x="503" 
d="M80 1241l113 240h114l113 -240h-98l-74 154l-72 -154h-96zM252 -10q-54 0 -91 13t-58.5 34t-32.5 59.5t-14 76t-3 97.5v858h117v-852q0 -47 1 -70t5 -48.5t13 -35.5t24.5 -17t40.5 -7q21 0 35.5 3.5t24 15t14.5 21.5t7 36t2.5 44.5t0.5 60.5v849h113v-858q0 -44 -1.5 -73
t-5.5 -61.5t-12.5 -52.5t-23 -39.5t-35.5 -30t-51 -17t-70 -6.5z" />
    <glyph glyph-name="udieresis" unicode="&#xfc;" horiz-adv-x="503" 
d="M106 1241v168h103v-168h-103zM293 1241v168h100v-168h-100zM252 -10q-54 0 -91 13t-58.5 34t-32.5 59.5t-14 76t-3 97.5v858h117v-852q0 -47 1 -70t5 -48.5t13 -35.5t24.5 -17t40.5 -7q21 0 35.5 3.5t24 15t14.5 21.5t7 36t2.5 44.5t0.5 60.5v849h113v-858
q0 -44 -1.5 -73t-5.5 -61.5t-12.5 -52.5t-23 -39.5t-35.5 -30t-51 -17t-70 -6.5z" />
    <glyph glyph-name="yacute" unicode="&#xfd;" horiz-adv-x="419" 
d="M66 -297v111h18q35 0 47.5 11t15.5 40l11 92l-150 1171h115l72 -669l18 -203l20 207l72 665h111l-166 -1290q-11 -69 -50 -102t-112 -33h-22zM138 1241l90 240h129l-121 -240h-98z" />
    <glyph glyph-name="thorn" unicode="&#xfe;" horiz-adv-x="507" 
d="M55 -297v1845h115v-461q40 52 135 52q81 0 119 -47q35 -37 42 -130.5t7 -394.5q0 -295 -8 -392.5t-41 -135.5q-41 -47 -123 -47q-93 0 -131 41v-330h-115zM266 98q66 0 78 69t12 396q0 318 -12.5 389.5t-77.5 71.5q-66 0 -81 -79.5t-15 -381.5q0 -312 14.5 -388.5
t81.5 -76.5z" />
    <glyph glyph-name="ydieresis" unicode="&#xff;" horiz-adv-x="419" 
d="M66 -297v111h18q35 0 47.5 11t15.5 40l11 92l-150 1171h115l72 -669l18 -203l20 207l72 665h111l-166 -1290q-11 -69 -50 -102t-112 -33h-22zM68 1241v168h102v-168h-102zM254 1241v168h101v-168h-101z" />
    <glyph glyph-name="dotlessi" unicode="&#x131;" horiz-adv-x="233" 
d="M57 0v1128h117v-1128h-117z" />
    <glyph glyph-name="Lslash" unicode="&#x141;" horiz-adv-x="411" 
d="M8 694v109l55 31v684h119v-615l105 62v-109l-105 -61v-684h215v-111h-334v725z" />
    <glyph glyph-name="lslash" unicode="&#x142;" horiz-adv-x="352" 
d="M29 932v108l71 41v467h117v-399l86 51v-108l-86 -52v-852q0 -48 8.5 -61.5t40.5 -13.5h13v-113q-6 -2 -37 -2q-88 0 -115 43t-27 145v787z" />
    <glyph glyph-name="OE" unicode="&#x152;" horiz-adv-x="759" 
d="M285 0q-62 0 -102.5 17t-67.5 59q-39 60 -48.5 183.5t-9.5 500.5q0 371 9 493.5t47 184.5q27 44 68 62t104 18h430v-115h-221v-569h217v-113h-217v-610h223v-111h-432zM295 106h86v1303h-86q-58 0 -80 -38q-30 -51 -35 -249q-2 -91 -2 -364q0 -412 11 -508
q11 -108 51 -132q19 -12 55 -12z" />
    <glyph glyph-name="oe" unicode="&#x153;" horiz-adv-x="733" 
d="M539 -10q-87 0 -133 49q-2 1 -11 10q-2 -4 -6 -8q-51 -51 -143 -51q-102 0 -150 51q-44 46 -53.5 145t-9.5 381q0 277 9 373t52 145q48 54 152 54q92 0 145 -56l4 4q45 52 129 52q95 0 131 -49q34 -43 42 -142.5t8 -380.5v-59h-252q0 -270 15 -339t79 -69q56 0 108 25
l39 -100q-75 -35 -155 -35zM246 98q67 0 80.5 72t13.5 395q0 313 -13.5 386t-80.5 73q-68 0 -82 -73t-14 -386q0 -323 13.5 -395t82.5 -72zM522 1026q-49 0 -59 -67t-10 -343h141q0 290 -9 346q-9 52 -37 61q-10 3 -26 3z" />
    <glyph glyph-name="Scaron" unicode="&#x160;" horiz-adv-x="440" 
d="M164 1602l-113 241h96l74 -153l72 153h98l-112 -241h-115zM190 -12q-75 0 -153 16l24 113q66 -15 123 -15q34 0 55.5 8.5t35 29.5t13 61.5t-15.5 101.5l-209 875q-40 160 6.5 254t184.5 94q77 0 127 -13l-31 -114q-33 10 -88 10q-133 0 -88 -197l205 -860
q21 -82 24 -144.5t-14.5 -113.5t-67.5 -78.5t-131 -27.5z" />
    <glyph glyph-name="scaron" unicode="&#x161;" horiz-adv-x="372" 
d="M131 1241l-113 242h97l73 -154l72 154h98l-112 -242h-115zM156 -10q-85 0 -142 14l27 105q69 -11 98 -11q59 0 78 37.5t-4 128.5l-156 572q-22 89 -18 156.5t48.5 107t127.5 39.5q57 0 115 -13l-27 -108q-36 8 -80 8q-101 0 -61 -147l155 -570q87 -319 -161 -319z" />
    <glyph glyph-name="Ydieresis" unicode="&#x178;" horiz-adv-x="477" 
d="M178 0v522l-174 996h119l117 -770l118 770h115l-176 -1008v-510h-119zM94 1601v168h102v-168h-102zM280 1601v168h101v-168h-101z" />
    <glyph glyph-name="Zcaron" unicode="&#x17d;" horiz-adv-x="456" 
d="M170 1602l-113 241h97l73 -153l72 153h98l-112 -241h-115zM33 0v96l260 1307h-248v115h369v-105l-258 -1302h270v-111h-393z" />
    <glyph glyph-name="zcaron" unicode="&#x17e;" horiz-adv-x="376" 
d="M133 1241l-113 242h97l73 -154l72 154h98l-112 -242h-115zM20 0v86l209 934h-196v108h319v-86l-211 -940h213v-102h-334z" />
    <glyph glyph-name="florin" unicode="&#x192;" horiz-adv-x="479" 
d="M76 811v107h94l25 389q8 118 47 164.5t145 46.5h27v-115h-19q-52 0 -67.5 -22t-18.5 -87l-24 -376h129v-107h-135l-66 -1108h-115l66 1108h-88z" />
    <glyph glyph-name="circumflex" unicode="&#x2c6;" 
d="M55 1241l113 240h115l112 -240h-98l-74 154l-71 -154h-97z" />
    <glyph glyph-name="caron" unicode="&#x2c7;" 
d="M168 1241l-113 242h97l73 -154l72 154h98l-112 -242h-115z" />
    <glyph glyph-name="breve" unicode="&#x2d8;" 
d="M225 1237q-87 0 -115 45t-28 158h90q0 -65 9.5 -90t43.5 -25q36 0 46 25t10 90h88q0 -114 -28 -158.5t-116 -44.5z" />
    <glyph glyph-name="dotaccent" unicode="&#x2d9;" 
d="M168 1241v203h117v-203h-117z" />
    <glyph glyph-name="ring" unicode="&#x2da;" 
d="M225 1237q-36 0 -59 11t-33.5 35t-14 49.5t-3.5 66.5q0 85 20.5 124.5t89.5 39.5t90 -39.5t21 -124.5q0 -83 -21 -122.5t-90 -39.5zM225 1300q26 0 33.5 19.5t7.5 77.5q0 60 -7.5 80t-33.5 20q-27 0 -34 -19.5t-7 -80.5q0 -60 7 -78.5t34 -18.5z" />
    <glyph glyph-name="ogonek" unicode="&#x2db;" horiz-adv-x="464" 
d="M315 -360h-26q-97 0 -133.5 37.5t-36.5 123.5q0 55 25 111.5t65 97.5h92q-88 -104 -88 -196q0 -52 18 -67t74 -15h10v-92z" />
    <glyph glyph-name="tilde" unicode="&#x2dc;" 
d="M51 1241q-1 88 22 119t70 31q28 0 79 -29t63 -29q14 0 19 12t5 44h90q1 -90 -20.5 -120t-71.5 -30q-29 0 -80 28.5t-61 28.5q-25 0 -25 -55h-90z" />
    <glyph glyph-name="hungarumlaut" unicode="&#x2dd;" 
d="M68 1241l41 242h120l-67 -242h-94zM279 1241l40 242h121l-67 -242h-94z" />
    <glyph glyph-name="Delta" unicode="&#x394;" horiz-adv-x="538" 
d="M16 1020v108h80v209q0 118 39.5 165.5t143.5 47.5q14 0 20 -2v-112h-6q-48 0 -65 -23.5t-17 -85.5v-199h88v-108h-88v-1020h-115v1020h-80zM319 -297v111q31 1 38.5 12t7.5 47v1255h116v-1267q0 -83 -35 -120.5t-127 -37.5zM365 1278v201h116v-201h-116z" />
    <glyph glyph-name="Delta" unicode="&#x2206;" horiz-adv-x="538" 
d="M16 1020v108h80v209q0 118 39.5 165.5t143.5 47.5q14 0 20 -2v-112h-6q-48 0 -65 -23.5t-17 -85.5v-199h88v-108h-88v-1020h-115v1020h-80zM319 -297v111q31 1 38.5 12t7.5 47v1255h116v-1267q0 -83 -35 -120.5t-127 -37.5zM365 1278v201h116v-201h-116z" />
    <glyph glyph-name="Omega" unicode="&#x3a9;" horiz-adv-x="1703" 
d="M258 246q-88 105 -136 237t-48 277q0 144 48 276t136 236q6 -4 14 -12q-85 -103 -131.5 -231.5t-46.5 -268.5q0 -285 180 -500zM467 432q-117 143 -117 328q0 183 115 327q3 -2 8 -7t8 -7q-110 -136 -110 -313q0 -182 110 -314zM541 498q-92 116 -92 262t92 262
q3 -2 8 -7t8 -7q-88 -109 -88 -248t88 -248q-3 -2 -8 -7t-8 -7zM647 592q-57 72 -57 168q0 97 57 166l15 -15q-52 -69 -52 -151q0 -84 54 -154q-3 -2 -8.5 -7t-8.5 -7zM715 655q-33 48 -33 105q0 56 33 104q3 -2 8 -7t8 -7q-29 -44 -29 -90t29 -90q-3 -2 -16 -15zM774 709
q-14 25 -14 51t14 51l12 -10q-10 -20 -10 -41t10 -41q-4 -4 -12 -10zM852 123q-236 0 -412 158l2.5 2.5l5 5l5.5 5.5t2 1q171 -152 397 -152q227 0 395 152q2 -3 7.5 -8t7.5 -8q-177 -156 -410 -156zM852 664q-31 0 -55 18l12 12q21 -14 43 -14q26 0 43 14q4 -4 10 -12
q-21 -18 -53 -18zM987 653q-7 10 -14 15q28 42 28 92q0 51 -28 90l2.5 2.5t5 4.5t5.5 5t1 2q35 -44 35 -104t-35 -107zM598 551q-72 91 -72 209q0 119 74 209l14 -15q-67 -87 -67 -194q0 -108 67 -195q-10 -10 -16 -14zM852 -35q-145 0 -278 52.5t-238 146.5l14 16
q102 -92 231 -143t271 -51q285 0 500 192q0 1 3.5 -2.5t6.5 -7.5l4 -4q-104 -95 -236 -147t-278 -52zM852 248q-189 0 -330 125l15 16q134 -121 315 -121q182 0 313 121q2 -3 7.5 -8t7.5 -8q-138 -125 -328 -125zM852 348q-145 0 -264 101l14 14q108 -94 250 -94
q143 0 248 94q2 -3 7 -8.5t7 -8.5q-112 -98 -262 -98zM852 428q-116 0 -211 78l14 16q86 -73 197 -73t197 73q4 -4 12 -16q-91 -78 -209 -78zM852 543q-77 0 -135 49l14 16q51 -45 121 -45q68 0 119 45q2 -3 7 -8t7 -8q-58 -49 -133 -49zM733 911q-4 3 -7 6.5t-6 6.5l-3 4
q58 49 135 49t135 -49l-16 -17q-51 45 -119 45t-119 -45zM1167 1130q-134 121 -315 121q-179 0 -313 -118l-15 14q141 125 328 125q189 0 330 -125q-4 -6 -15 -17zM930 709l-12 10q10 20 10 41t-10 41l12 10q14 -25 14 -51t-14 -51zM958 682q-10 10 -16 14q21 32 21 64
t-21 63l16 15q25 -36 25 -78t-25 -78zM1020 627q-6 4 -16 14q38 50 38 119t-38 119l14 14q45 -57 45 -133q0 -71 -43 -133zM1106 551q-3 2 -8 7t-8 7q67 87 67 195t-70 194l17 15q74 -90 74 -209q0 -118 -72 -209zM1163 498q-10 10 -16 14q88 109 88 248t-88 248l16 14
q92 -116 92 -262t-92 -262zM1237 432q-6 4 -16 14q112 134 112 314q0 182 -112 313l16 14q117 -139 117 -327q0 -189 -117 -328zM1329 350q-2 2 -7 6t-7 6q141 175 141 398q0 227 -143 395l16 14q148 -179 148 -409q0 -231 -148 -410zM1446 246q-6 6 -16 14q180 215 180 500
t-180 500l16 14q88 -105 136 -237t48 -277q0 -144 -48 -276t-136 -238zM375 348q-148 182 -148 412q0 229 146 409q2 -2 7.5 -6.5t8.5 -7.5q-141 -170 -141 -395q0 -228 141 -398zM684 627q-43 59 -43 133t43 133q6 -4 16 -14q-38 -50 -38 -119q0 -67 38 -117zM745 682
q-24 34 -24 78t24 78q2 -3 4.5 -5.5t6 -5.5t4.5 -4q-19 -34 -19 -63q0 -30 19 -64zM809 825l-10 13q21 18 53 18t53 -18l-10 -13q-23 15 -43 15q-25 0 -43 -15zM786 852l-14 14q37 29 80 29q41 0 78 -29q-8 -8 -12 -14q-28 25 -66 25q-34 0 -66 -25zM760 881l-15 16
q45 39 107 39q61 0 106 -39l-14 -16q-37 34 -92 34t-92 -34zM604 1057l-14 16q112 98 262 98q151 0 262 -100q1 0 -2 -3.5t-6 -7.5l-4 -3q-108 94 -250 94q-143 0 -248 -94zM852 492q-100 0 -170 61l14 16q70 -57 156 -57q87 0 154 57l14 -14q-73 -63 -168 -63zM852 584
q-61 0 -109 39l15 16q47 -35 94 -35q51 0 92 35l14 -16q-45 -39 -106 -39zM852 625q-43 0 -82 28l14 15q36 -25 68 -25q34 0 66 25l14 -15q-36 -28 -80 -28zM698 950l-14 15q73 63 168 63q98 0 168 -61l-14 -17q-68 58 -154 58q-87 0 -154 -58zM655 997l-14 17q91 78 211 78
q119 0 209 -80l-12 -15q-83 74 -197 74q-110 0 -197 -74zM1249 1223q-166 153 -397 153q-227 0 -397 -151l-15 14q179 158 412 158t412 -158zM352 1339l-14 17q104 95 236 146.5t278 51.5q145 0 278 -52t238 -146l-14 -17q-102 93 -231 144t-271 51t-270 -51t-230 -144z
M1057 594l-15 14q52 69 52 152t-54 153l17 15q57 -72 57 -168q0 -97 -57 -166z" />
    <glyph glyph-name="Omega" unicode="&#x2126;" horiz-adv-x="1703" 
d="M258 246q-88 105 -136 237t-48 277q0 144 48 276t136 236q6 -4 14 -12q-85 -103 -131.5 -231.5t-46.5 -268.5q0 -285 180 -500zM467 432q-117 143 -117 328q0 183 115 327q3 -2 8 -7t8 -7q-110 -136 -110 -313q0 -182 110 -314zM541 498q-92 116 -92 262t92 262
q3 -2 8 -7t8 -7q-88 -109 -88 -248t88 -248q-3 -2 -8 -7t-8 -7zM647 592q-57 72 -57 168q0 97 57 166l15 -15q-52 -69 -52 -151q0 -84 54 -154q-3 -2 -8.5 -7t-8.5 -7zM715 655q-33 48 -33 105q0 56 33 104q3 -2 8 -7t8 -7q-29 -44 -29 -90t29 -90q-3 -2 -16 -15zM774 709
q-14 25 -14 51t14 51l12 -10q-10 -20 -10 -41t10 -41q-4 -4 -12 -10zM852 123q-236 0 -412 158l2.5 2.5l5 5l5.5 5.5t2 1q171 -152 397 -152q227 0 395 152q2 -3 7.5 -8t7.5 -8q-177 -156 -410 -156zM852 664q-31 0 -55 18l12 12q21 -14 43 -14q26 0 43 14q4 -4 10 -12
q-21 -18 -53 -18zM987 653q-7 10 -14 15q28 42 28 92q0 51 -28 90l2.5 2.5t5 4.5t5.5 5t1 2q35 -44 35 -104t-35 -107zM598 551q-72 91 -72 209q0 119 74 209l14 -15q-67 -87 -67 -194q0 -108 67 -195q-10 -10 -16 -14zM852 -35q-145 0 -278 52.5t-238 146.5l14 16
q102 -92 231 -143t271 -51q285 0 500 192q0 1 3.5 -2.5t6.5 -7.5l4 -4q-104 -95 -236 -147t-278 -52zM852 248q-189 0 -330 125l15 16q134 -121 315 -121q182 0 313 121q2 -3 7.5 -8t7.5 -8q-138 -125 -328 -125zM852 348q-145 0 -264 101l14 14q108 -94 250 -94
q143 0 248 94q2 -3 7 -8.5t7 -8.5q-112 -98 -262 -98zM852 428q-116 0 -211 78l14 16q86 -73 197 -73t197 73q4 -4 12 -16q-91 -78 -209 -78zM852 543q-77 0 -135 49l14 16q51 -45 121 -45q68 0 119 45q2 -3 7 -8t7 -8q-58 -49 -133 -49zM733 911q-4 3 -7 6.5t-6 6.5l-3 4
q58 49 135 49t135 -49l-16 -17q-51 45 -119 45t-119 -45zM1167 1130q-134 121 -315 121q-179 0 -313 -118l-15 14q141 125 328 125q189 0 330 -125q-4 -6 -15 -17zM930 709l-12 10q10 20 10 41t-10 41l12 10q14 -25 14 -51t-14 -51zM958 682q-10 10 -16 14q21 32 21 64
t-21 63l16 15q25 -36 25 -78t-25 -78zM1020 627q-6 4 -16 14q38 50 38 119t-38 119l14 14q45 -57 45 -133q0 -71 -43 -133zM1106 551q-3 2 -8 7t-8 7q67 87 67 195t-70 194l17 15q74 -90 74 -209q0 -118 -72 -209zM1163 498q-10 10 -16 14q88 109 88 248t-88 248l16 14
q92 -116 92 -262t-92 -262zM1237 432q-6 4 -16 14q112 134 112 314q0 182 -112 313l16 14q117 -139 117 -327q0 -189 -117 -328zM1329 350q-2 2 -7 6t-7 6q141 175 141 398q0 227 -143 395l16 14q148 -179 148 -409q0 -231 -148 -410zM1446 246q-6 6 -16 14q180 215 180 500
t-180 500l16 14q88 -105 136 -237t48 -277q0 -144 -48 -276t-136 -238zM375 348q-148 182 -148 412q0 229 146 409q2 -2 7.5 -6.5t8.5 -7.5q-141 -170 -141 -395q0 -228 141 -398zM684 627q-43 59 -43 133t43 133q6 -4 16 -14q-38 -50 -38 -119q0 -67 38 -117zM745 682
q-24 34 -24 78t24 78q2 -3 4.5 -5.5t6 -5.5t4.5 -4q-19 -34 -19 -63q0 -30 19 -64zM809 825l-10 13q21 18 53 18t53 -18l-10 -13q-23 15 -43 15q-25 0 -43 -15zM786 852l-14 14q37 29 80 29q41 0 78 -29q-8 -8 -12 -14q-28 25 -66 25q-34 0 -66 -25zM760 881l-15 16
q45 39 107 39q61 0 106 -39l-14 -16q-37 34 -92 34t-92 -34zM604 1057l-14 16q112 98 262 98q151 0 262 -100q1 0 -2 -3.5t-6 -7.5l-4 -3q-108 94 -250 94q-143 0 -248 -94zM852 492q-100 0 -170 61l14 16q70 -57 156 -57q87 0 154 57l14 -14q-73 -63 -168 -63zM852 584
q-61 0 -109 39l15 16q47 -35 94 -35q51 0 92 35l14 -16q-45 -39 -106 -39zM852 625q-43 0 -82 28l14 15q36 -25 68 -25q34 0 66 25l14 -15q-36 -28 -80 -28zM698 950l-14 15q73 63 168 63q98 0 168 -61l-14 -17q-68 58 -154 58q-87 0 -154 -58zM655 997l-14 17q91 78 211 78
q119 0 209 -80l-12 -15q-83 74 -197 74q-110 0 -197 -74zM1249 1223q-166 153 -397 153q-227 0 -397 -151l-15 14q179 158 412 158t412 -158zM352 1339l-14 17q104 95 236 146.5t278 51.5q145 0 278 -52t238 -146l-14 -17q-102 93 -231 144t-271 51t-270 -51t-230 -144z
M1057 594l-15 14q52 69 52 152t-54 153l17 15q57 -72 57 -168q0 -97 -57 -166z" />
    <glyph glyph-name="pi" unicode="&#x3c0;" horiz-adv-x="606" 
d="M311 -8q-104 0 -164 51q-64 58 -87 217t-23 500q0 323 20.5 479.5t77.5 220.5q55 66 176 66q120 0 176 -68q56 -64 76.5 -221t20.5 -477q0 -334 -22.5 -493.5t-84.5 -219.5q-55 -55 -166 -55zM311 55q47 0 78 11.5t55.5 45t38 80.5t22 131.5t11 184t2.5 252.5t-2.5 252.5
t-11 184t-22 131t-38 79.5t-55.5 44t-78 11q-40 0 -68.5 -9.5t-51.5 -28.5t-38 -57.5t-25.5 -88t-15.5 -128.5t-7.5 -169.5t-2.5 -220.5q0 -153 2.5 -252t11 -184.5t22.5 -132t38 -80t56 -45t79 -11.5zM184 258v985h131q40 0 66 -12t41.5 -31.5t23 -59.5t9.5 -79t2 -107
t-2 -108t-9.5 -80.5t-22.5 -61t-41 -33t-65 -12.5h-49v-401h-84zM268 737h43q43 0 53.5 42t10.5 171t-10.5 172t-53.5 43h-43v-428z" />
    <glyph glyph-name="endash" unicode="&#x2013;" horiz-adv-x="540" 
d="M37 578v112h467v-112h-467z" />
    <glyph glyph-name="emdash" unicode="&#x2014;" horiz-adv-x="708" 
d="M37 578v112h635v-112h-635z" />
    <glyph glyph-name="quoteleft" unicode="&#x2018;" horiz-adv-x="235" 
d="M53 1147v176q0 96 17 133t77 68l37 -68q-36 -23 -43.5 -36t-7.5 -60h51v-213h-131z" />
    <glyph glyph-name="quoteright" unicode="&#x2019;" horiz-adv-x="235" 
d="M88 1141l-35 65q36 25 43.5 38.5t7.5 60.5h-51v213h131v-179q0 -66 -7.5 -100t-26.5 -55.5t-62 -42.5z" />
    <glyph glyph-name="quotesinglbase" unicode="&#x201a;" horiz-adv-x="235" 
d="M88 -164l-35 66q36 25 43.5 38t7.5 60h-51v215h131v-178q0 -97 -17.5 -133.5t-78.5 -67.5z" />
    <glyph glyph-name="quotedblleft" unicode="&#x201c;" horiz-adv-x="421" 
d="M53 1147v176q0 96 16.5 131.5t77.5 67.5l35 -66q-36 -23 -43.5 -36t-7.5 -60h49v-213h-127zM238 1147v176q0 96 16.5 131.5t77.5 67.5l35 -66q-36 -23 -44 -36t-8 -60h52v-213h-129z" />
    <glyph glyph-name="quotedblright" unicode="&#x201d;" horiz-adv-x="417" 
d="M88 1143l-35 63q36 25 43.5 38.5t7.5 60.5h-51v213h127v-179q0 -95 -16 -129.5t-76 -66.5zM272 1143l-34 63q36 25 43.5 38.5t7.5 60.5h-51v213h129v-179q0 -95 -16.5 -129.5t-78.5 -66.5z" />
    <glyph glyph-name="quotedblbase" unicode="&#x201e;" horiz-adv-x="417" 
d="M88 -162l-35 64q36 25 43.5 38t7.5 60h-51v215h127v-178q0 -97 -16 -132t-76 -67zM272 -162l-34 64q36 25 43.5 38t7.5 60h-51v215h129v-178q0 -97 -16.5 -132t-78.5 -67z" />
    <glyph glyph-name="dagger" unicode="&#x2020;" horiz-adv-x="468" 
d="M45 1001v113h133v434h115v-434h131v-113h-131v-1300h-115v1300h-133z" />
    <glyph glyph-name="daggerdbl" unicode="&#x2021;" horiz-adv-x="466" 
d="M178 -299v434h-133v115h133v751h-133v113h133v434h115v-434h131v-113h-131v-751h131v-115h-131v-434h-115z" />
    <glyph glyph-name="bullet" unicode="&#x2022;" horiz-adv-x="317" 
d="M78 469v307h162v-307h-162z" />
    <glyph glyph-name="ellipsis" unicode="&#x2026;" horiz-adv-x="659" 
d="M53 0v195h131v-195h-131zM268 0v195h131v-195h-131zM477 0v195h129v-195h-129z" />
    <glyph glyph-name="perthousand" unicode="&#x2030;" horiz-adv-x="1249" 
d="M193 592q-78 0 -113 41q-31 37 -38 118t-7 312q0 224 6 302t35 118q37 43 117 43q79 0 114 -43q30 -38 36.5 -117t6.5 -303q0 -229 -7 -309.5t-38 -120.5q-35 -41 -112 -41zM696 -8q-77 0 -112 41q-31 38 -38 119t-7 311q0 224 6 302t35 118q39 45 116 45q78 0 117 -45
q29 -38 35 -117t6 -303q0 -228 -7 -308t-38 -120q-35 -43 -113 -43zM1057 -8q-78 0 -113 41q-30 39 -37.5 122.5t-7.5 307.5t6.5 302t36.5 118q36 45 115 45q81 0 117 -45q28 -38 34 -115t6 -305t-6.5 -308t-36.5 -120q-37 -43 -114 -43zM193 690q37 0 44 60t7 311
q0 246 -7.5 305t-43.5 59q-37 0 -45.5 -60t-8.5 -304q0 -246 8.5 -308.5t45.5 -62.5zM696 90q37 0 44.5 61.5t7.5 309.5q0 245 -8 304.5t-44 59.5q-37 0 -44 -56.5t-7 -307.5q0 -250 7 -310.5t44 -60.5zM1057 90q37 0 45 62.5t8 308.5q0 243 -8.5 303.5t-44.5 60.5
q-37 0 -44 -56.5t-7 -307.5q0 -250 7 -310.5t44 -60.5zM252 0l274 1518h111l-277 -1518h-108z" />
    <glyph glyph-name="guilsinglleft" unicode="&#x2039;" horiz-adv-x="368" 
d="M182 0l-112 563l112 565h109l-109 -565l109 -563h-109z" />
    <glyph glyph-name="guilsinglright" unicode="&#x203a;" horiz-adv-x="368" 
d="M78 0l108 563l-108 565h108l113 -565l-113 -563h-108z" />
    <glyph glyph-name="fraction" unicode="&#x2044;" horiz-adv-x="428" 
d="M0 0l322 1518h106l-319 -1518h-109z" />
    <glyph glyph-name="fraction" unicode="&#x2215;" horiz-adv-x="428" 
d="M0 0l322 1518h106l-319 -1518h-109z" />
    <glyph glyph-name="Euro" unicode="&#x20ac;" horiz-adv-x="503" 
d="M25 801v100h90q0 266 15.5 393t66.5 181q45 51 149 51q73 0 111 -10l-23 -111q-24 6 -84 6q-20 0 -35 -5t-27 -18t-20.5 -30.5t-15 -49t-10.5 -66.5t-6.5 -89.5t-3.5 -112t-1 -139.5h175v-100h-175v-88h175v-101h-175q1 -111 2.5 -184t7 -134t13.5 -95t22 -57.5t32 -31.5
t44 -8q32 0 82 13l25 -103q-62 -20 -115 -20q-100 0 -145 45q-52 51 -68 177t-16 398h-90v101h90v88h-90z" />
    <glyph glyph-name="trademark" unicode="&#x2122;" horiz-adv-x="782" 
d="M127 649v783h-90v86h270v-86h-90v-783h-90zM332 649v869h112l62 -504l12 -154l12 152l62 506h113v-869h-84v672l-19 -203l-53 -469h-66l-55 471l-16 203v-674h-80z" />
    <glyph glyph-name="partialdiff" unicode="&#x2202;" horiz-adv-x="1703" 
d="M258 246q-88 105 -136 237t-48 277q0 144 48 276t136 236q6 -4 14 -12q-85 -103 -131.5 -231.5t-46.5 -268.5q0 -285 180 -500zM467 432q-117 143 -117 328q0 183 115 327q3 -2 8 -7t8 -7q-110 -136 -110 -313q0 -182 110 -314zM541 498q-92 116 -92 262t92 262
q3 -2 8 -7t8 -7q-88 -109 -88 -248t88 -248q-3 -2 -8 -7t-8 -7zM647 592q-57 72 -57 168q0 97 57 166l15 -15q-52 -69 -52 -151q0 -84 54 -154q-3 -2 -8.5 -7t-8.5 -7zM715 655q-33 48 -33 105q0 56 33 104q3 -2 8 -7t8 -7q-29 -44 -29 -90t29 -90q-3 -2 -16 -15zM774 709
q-14 25 -14 51t14 51l12 -10q-10 -20 -10 -41t10 -41q-4 -4 -12 -10zM852 123q-236 0 -412 158l2.5 2.5l5 5l5.5 5.5t2 1q171 -152 397 -152q227 0 395 152q2 -3 7.5 -8t7.5 -8q-177 -156 -410 -156zM852 664q-31 0 -55 18l12 12q21 -14 43 -14q26 0 43 14q4 -4 10 -12
q-21 -18 -53 -18zM987 653q-7 10 -14 15q28 42 28 92q0 51 -28 90l2.5 2.5t5 4.5t5.5 5t1 2q35 -44 35 -104t-35 -107zM598 551q-72 91 -72 209q0 119 74 209l14 -15q-67 -87 -67 -194q0 -108 67 -195q-10 -10 -16 -14zM852 -35q-145 0 -278 52.5t-238 146.5l14 16
q102 -92 231 -143t271 -51q285 0 500 192q0 1 3.5 -2.5t6.5 -7.5l4 -4q-104 -95 -236 -147t-278 -52zM852 248q-189 0 -330 125l15 16q134 -121 315 -121q182 0 313 121q2 -3 7.5 -8t7.5 -8q-138 -125 -328 -125zM852 348q-145 0 -264 101l14 14q108 -94 250 -94
q143 0 248 94q2 -3 7 -8.5t7 -8.5q-112 -98 -262 -98zM852 428q-116 0 -211 78l14 16q86 -73 197 -73t197 73q4 -4 12 -16q-91 -78 -209 -78zM852 543q-77 0 -135 49l14 16q51 -45 121 -45q68 0 119 45q2 -3 7 -8t7 -8q-58 -49 -133 -49zM733 911q-4 3 -7 6.5t-6 6.5l-3 4
q58 49 135 49t135 -49l-16 -17q-51 45 -119 45t-119 -45zM1167 1130q-134 121 -315 121q-179 0 -313 -118l-15 14q141 125 328 125q189 0 330 -125q-4 -6 -15 -17zM930 709l-12 10q10 20 10 41t-10 41l12 10q14 -25 14 -51t-14 -51zM958 682q-10 10 -16 14q21 32 21 64
t-21 63l16 15q25 -36 25 -78t-25 -78zM1020 627q-6 4 -16 14q38 50 38 119t-38 119l14 14q45 -57 45 -133q0 -71 -43 -133zM1106 551q-3 2 -8 7t-8 7q67 87 67 195t-70 194l17 15q74 -90 74 -209q0 -118 -72 -209zM1163 498q-10 10 -16 14q88 109 88 248t-88 248l16 14
q92 -116 92 -262t-92 -262zM1237 432q-6 4 -16 14q112 134 112 314q0 182 -112 313l16 14q117 -139 117 -327q0 -189 -117 -328zM1329 350q-2 2 -7 6t-7 6q141 175 141 398q0 227 -143 395l16 14q148 -179 148 -409q0 -231 -148 -410zM1446 246q-6 6 -16 14q180 215 180 500
t-180 500l16 14q88 -105 136 -237t48 -277q0 -144 -48 -276t-136 -238zM375 348q-148 182 -148 412q0 229 146 409q2 -2 7.5 -6.5t8.5 -7.5q-141 -170 -141 -395q0 -228 141 -398zM684 627q-43 59 -43 133t43 133q6 -4 16 -14q-38 -50 -38 -119q0 -67 38 -117zM745 682
q-24 34 -24 78t24 78q2 -3 4.5 -5.5t6 -5.5t4.5 -4q-19 -34 -19 -63q0 -30 19 -64zM809 825l-10 13q21 18 53 18t53 -18l-10 -13q-23 15 -43 15q-25 0 -43 -15zM786 852l-14 14q37 29 80 29q41 0 78 -29q-8 -8 -12 -14q-28 25 -66 25q-34 0 -66 -25zM760 881l-15 16
q45 39 107 39q61 0 106 -39l-14 -16q-37 34 -92 34t-92 -34zM604 1057l-14 16q112 98 262 98q151 0 262 -100q1 0 -2 -3.5t-6 -7.5l-4 -3q-108 94 -250 94q-143 0 -248 -94zM852 492q-100 0 -170 61l14 16q70 -57 156 -57q87 0 154 57l14 -14q-73 -63 -168 -63zM852 584
q-61 0 -109 39l15 16q47 -35 94 -35q51 0 92 35l14 -16q-45 -39 -106 -39zM852 625q-43 0 -82 28l14 15q36 -25 68 -25q34 0 66 25l14 -15q-36 -28 -80 -28zM698 950l-14 15q73 63 168 63q98 0 168 -61l-14 -17q-68 58 -154 58q-87 0 -154 -58zM655 997l-14 17q91 78 211 78
q119 0 209 -80l-12 -15q-83 74 -197 74q-110 0 -197 -74zM1249 1223q-166 153 -397 153q-227 0 -397 -151l-15 14q179 158 412 158t412 -158zM352 1339l-14 17q104 95 236 146.5t278 51.5q145 0 278 -52t238 -146l-14 -17q-102 93 -231 144t-271 51t-270 -51t-230 -144z
M1057 594l-15 14q52 69 52 152t-54 153l17 15q57 -72 57 -168q0 -97 -57 -166z" />
    <glyph glyph-name="product" unicode="&#x220f;" horiz-adv-x="1703" 
d="M258 246q-88 105 -136 237t-48 277q0 144 48 276t136 236q6 -4 14 -12q-85 -103 -131.5 -231.5t-46.5 -268.5q0 -285 180 -500zM467 432q-117 143 -117 328q0 183 115 327q3 -2 8 -7t8 -7q-110 -136 -110 -313q0 -182 110 -314zM541 498q-92 116 -92 262t92 262
q3 -2 8 -7t8 -7q-88 -109 -88 -248t88 -248q-3 -2 -8 -7t-8 -7zM647 592q-57 72 -57 168q0 97 57 166l15 -15q-52 -69 -52 -151q0 -84 54 -154q-3 -2 -8.5 -7t-8.5 -7zM715 655q-33 48 -33 105q0 56 33 104q3 -2 8 -7t8 -7q-29 -44 -29 -90t29 -90q-3 -2 -16 -15zM774 709
q-14 25 -14 51t14 51l12 -10q-10 -20 -10 -41t10 -41q-4 -4 -12 -10zM852 123q-236 0 -412 158l2.5 2.5l5 5l5.5 5.5t2 1q171 -152 397 -152q227 0 395 152q2 -3 7.5 -8t7.5 -8q-177 -156 -410 -156zM852 664q-31 0 -55 18l12 12q21 -14 43 -14q26 0 43 14q4 -4 10 -12
q-21 -18 -53 -18zM987 653q-7 10 -14 15q28 42 28 92q0 51 -28 90l2.5 2.5t5 4.5t5.5 5t1 2q35 -44 35 -104t-35 -107zM598 551q-72 91 -72 209q0 119 74 209l14 -15q-67 -87 -67 -194q0 -108 67 -195q-10 -10 -16 -14zM852 -35q-145 0 -278 52.5t-238 146.5l14 16
q102 -92 231 -143t271 -51q285 0 500 192q0 1 3.5 -2.5t6.5 -7.5l4 -4q-104 -95 -236 -147t-278 -52zM852 248q-189 0 -330 125l15 16q134 -121 315 -121q182 0 313 121q2 -3 7.5 -8t7.5 -8q-138 -125 -328 -125zM852 348q-145 0 -264 101l14 14q108 -94 250 -94
q143 0 248 94q2 -3 7 -8.5t7 -8.5q-112 -98 -262 -98zM852 428q-116 0 -211 78l14 16q86 -73 197 -73t197 73q4 -4 12 -16q-91 -78 -209 -78zM852 543q-77 0 -135 49l14 16q51 -45 121 -45q68 0 119 45q2 -3 7 -8t7 -8q-58 -49 -133 -49zM733 911q-4 3 -7 6.5t-6 6.5l-3 4
q58 49 135 49t135 -49l-16 -17q-51 45 -119 45t-119 -45zM1167 1130q-134 121 -315 121q-179 0 -313 -118l-15 14q141 125 328 125q189 0 330 -125q-4 -6 -15 -17zM930 709l-12 10q10 20 10 41t-10 41l12 10q14 -25 14 -51t-14 -51zM958 682q-10 10 -16 14q21 32 21 64
t-21 63l16 15q25 -36 25 -78t-25 -78zM1020 627q-6 4 -16 14q38 50 38 119t-38 119l14 14q45 -57 45 -133q0 -71 -43 -133zM1106 551q-3 2 -8 7t-8 7q67 87 67 195t-70 194l17 15q74 -90 74 -209q0 -118 -72 -209zM1163 498q-10 10 -16 14q88 109 88 248t-88 248l16 14
q92 -116 92 -262t-92 -262zM1237 432q-6 4 -16 14q112 134 112 314q0 182 -112 313l16 14q117 -139 117 -327q0 -189 -117 -328zM1329 350q-2 2 -7 6t-7 6q141 175 141 398q0 227 -143 395l16 14q148 -179 148 -409q0 -231 -148 -410zM1446 246q-6 6 -16 14q180 215 180 500
t-180 500l16 14q88 -105 136 -237t48 -277q0 -144 -48 -276t-136 -238zM375 348q-148 182 -148 412q0 229 146 409q2 -2 7.5 -6.5t8.5 -7.5q-141 -170 -141 -395q0 -228 141 -398zM684 627q-43 59 -43 133t43 133q6 -4 16 -14q-38 -50 -38 -119q0 -67 38 -117zM745 682
q-24 34 -24 78t24 78q2 -3 4.5 -5.5t6 -5.5t4.5 -4q-19 -34 -19 -63q0 -30 19 -64zM809 825l-10 13q21 18 53 18t53 -18l-10 -13q-23 15 -43 15q-25 0 -43 -15zM786 852l-14 14q37 29 80 29q41 0 78 -29q-8 -8 -12 -14q-28 25 -66 25q-34 0 -66 -25zM760 881l-15 16
q45 39 107 39q61 0 106 -39l-14 -16q-37 34 -92 34t-92 -34zM604 1057l-14 16q112 98 262 98q151 0 262 -100q1 0 -2 -3.5t-6 -7.5l-4 -3q-108 94 -250 94q-143 0 -248 -94zM852 492q-100 0 -170 61l14 16q70 -57 156 -57q87 0 154 57l14 -14q-73 -63 -168 -63zM852 584
q-61 0 -109 39l15 16q47 -35 94 -35q51 0 92 35l14 -16q-45 -39 -106 -39zM852 625q-43 0 -82 28l14 15q36 -25 68 -25q34 0 66 25l14 -15q-36 -28 -80 -28zM698 950l-14 15q73 63 168 63q98 0 168 -61l-14 -17q-68 58 -154 58q-87 0 -154 -58zM655 997l-14 17q91 78 211 78
q119 0 209 -80l-12 -15q-83 74 -197 74q-110 0 -197 -74zM1249 1223q-166 153 -397 153q-227 0 -397 -151l-15 14q179 158 412 158t412 -158zM352 1339l-14 17q104 95 236 146.5t278 51.5q145 0 278 -52t238 -146l-14 -17q-102 93 -231 144t-271 51t-270 -51t-230 -144z
M1057 594l-15 14q52 69 52 152t-54 153l17 15q57 -72 57 -168q0 -97 -57 -166z" />
    <glyph glyph-name="summation" unicode="&#x2211;" horiz-adv-x="1703" 
d="M258 246q-88 105 -136 237t-48 277q0 144 48 276t136 236q6 -4 14 -12q-85 -103 -131.5 -231.5t-46.5 -268.5q0 -285 180 -500zM467 432q-117 143 -117 328q0 183 115 327q3 -2 8 -7t8 -7q-110 -136 -110 -313q0 -182 110 -314zM541 498q-92 116 -92 262t92 262
q3 -2 8 -7t8 -7q-88 -109 -88 -248t88 -248q-3 -2 -8 -7t-8 -7zM647 592q-57 72 -57 168q0 97 57 166l15 -15q-52 -69 -52 -151q0 -84 54 -154q-3 -2 -8.5 -7t-8.5 -7zM715 655q-33 48 -33 105q0 56 33 104q3 -2 8 -7t8 -7q-29 -44 -29 -90t29 -90q-3 -2 -16 -15zM774 709
q-14 25 -14 51t14 51l12 -10q-10 -20 -10 -41t10 -41q-4 -4 -12 -10zM852 123q-236 0 -412 158l2.5 2.5l5 5l5.5 5.5t2 1q171 -152 397 -152q227 0 395 152q2 -3 7.5 -8t7.5 -8q-177 -156 -410 -156zM852 664q-31 0 -55 18l12 12q21 -14 43 -14q26 0 43 14q4 -4 10 -12
q-21 -18 -53 -18zM987 653q-7 10 -14 15q28 42 28 92q0 51 -28 90l2.5 2.5t5 4.5t5.5 5t1 2q35 -44 35 -104t-35 -107zM598 551q-72 91 -72 209q0 119 74 209l14 -15q-67 -87 -67 -194q0 -108 67 -195q-10 -10 -16 -14zM852 -35q-145 0 -278 52.5t-238 146.5l14 16
q102 -92 231 -143t271 -51q285 0 500 192q0 1 3.5 -2.5t6.5 -7.5l4 -4q-104 -95 -236 -147t-278 -52zM852 248q-189 0 -330 125l15 16q134 -121 315 -121q182 0 313 121q2 -3 7.5 -8t7.5 -8q-138 -125 -328 -125zM852 348q-145 0 -264 101l14 14q108 -94 250 -94
q143 0 248 94q2 -3 7 -8.5t7 -8.5q-112 -98 -262 -98zM852 428q-116 0 -211 78l14 16q86 -73 197 -73t197 73q4 -4 12 -16q-91 -78 -209 -78zM852 543q-77 0 -135 49l14 16q51 -45 121 -45q68 0 119 45q2 -3 7 -8t7 -8q-58 -49 -133 -49zM733 911q-4 3 -7 6.5t-6 6.5l-3 4
q58 49 135 49t135 -49l-16 -17q-51 45 -119 45t-119 -45zM1167 1130q-134 121 -315 121q-179 0 -313 -118l-15 14q141 125 328 125q189 0 330 -125q-4 -6 -15 -17zM930 709l-12 10q10 20 10 41t-10 41l12 10q14 -25 14 -51t-14 -51zM958 682q-10 10 -16 14q21 32 21 64
t-21 63l16 15q25 -36 25 -78t-25 -78zM1020 627q-6 4 -16 14q38 50 38 119t-38 119l14 14q45 -57 45 -133q0 -71 -43 -133zM1106 551q-3 2 -8 7t-8 7q67 87 67 195t-70 194l17 15q74 -90 74 -209q0 -118 -72 -209zM1163 498q-10 10 -16 14q88 109 88 248t-88 248l16 14
q92 -116 92 -262t-92 -262zM1237 432q-6 4 -16 14q112 134 112 314q0 182 -112 313l16 14q117 -139 117 -327q0 -189 -117 -328zM1329 350q-2 2 -7 6t-7 6q141 175 141 398q0 227 -143 395l16 14q148 -179 148 -409q0 -231 -148 -410zM1446 246q-6 6 -16 14q180 215 180 500
t-180 500l16 14q88 -105 136 -237t48 -277q0 -144 -48 -276t-136 -238zM375 348q-148 182 -148 412q0 229 146 409q2 -2 7.5 -6.5t8.5 -7.5q-141 -170 -141 -395q0 -228 141 -398zM684 627q-43 59 -43 133t43 133q6 -4 16 -14q-38 -50 -38 -119q0 -67 38 -117zM745 682
q-24 34 -24 78t24 78q2 -3 4.5 -5.5t6 -5.5t4.5 -4q-19 -34 -19 -63q0 -30 19 -64zM809 825l-10 13q21 18 53 18t53 -18l-10 -13q-23 15 -43 15q-25 0 -43 -15zM786 852l-14 14q37 29 80 29q41 0 78 -29q-8 -8 -12 -14q-28 25 -66 25q-34 0 -66 -25zM760 881l-15 16
q45 39 107 39q61 0 106 -39l-14 -16q-37 34 -92 34t-92 -34zM604 1057l-14 16q112 98 262 98q151 0 262 -100q1 0 -2 -3.5t-6 -7.5l-4 -3q-108 94 -250 94q-143 0 -248 -94zM852 492q-100 0 -170 61l14 16q70 -57 156 -57q87 0 154 57l14 -14q-73 -63 -168 -63zM852 584
q-61 0 -109 39l15 16q47 -35 94 -35q51 0 92 35l14 -16q-45 -39 -106 -39zM852 625q-43 0 -82 28l14 15q36 -25 68 -25q34 0 66 25l14 -15q-36 -28 -80 -28zM698 950l-14 15q73 63 168 63q98 0 168 -61l-14 -17q-68 58 -154 58q-87 0 -154 -58zM655 997l-14 17q91 78 211 78
q119 0 209 -80l-12 -15q-83 74 -197 74q-110 0 -197 -74zM1249 1223q-166 153 -397 153q-227 0 -397 -151l-15 14q179 158 412 158t412 -158zM352 1339l-14 17q104 95 236 146.5t278 51.5q145 0 278 -52t238 -146l-14 -17q-102 93 -231 144t-271 51t-270 -51t-230 -144z
M1057 594l-15 14q52 69 52 152t-54 153l17 15q57 -72 57 -168q0 -97 -57 -166z" />
    <glyph glyph-name="minus" unicode="&#x2212;" horiz-adv-x="536" 
d="M80 690v113h377v-113h-377z" />
    <glyph glyph-name="radical" unicode="&#x221a;" horiz-adv-x="491" 
d="M156 -6l-117 846h117l61 -609l148 1287h110l-201 -1524h-118z" />
    <glyph glyph-name="infinity" unicode="&#x221e;" horiz-adv-x="811" 
d="M367 0v1020h-154v-1020h-115v1020h-78v108h78v209q0 117 40 165t143 48q14 0 20 -2v-112h-6q-48 0 -65 -23.5t-17 -85.5v-199h154v209q0 118 39 165.5t143 47.5q14 0 20 -2v-112h-6q-48 0 -64 -23.5t-16 -85.5v-199h86v-108h-86v-1020h-116zM635 0v1128h117v-1128h-117z
M635 1278v201h117v-201h-117z" />
    <glyph glyph-name="integral" unicode="&#x222b;" horiz-adv-x="1703" 
d="M258 246q-88 105 -136 237t-48 277q0 144 48 276t136 236q6 -4 14 -12q-85 -103 -131.5 -231.5t-46.5 -268.5q0 -285 180 -500zM467 432q-117 143 -117 328q0 183 115 327q3 -2 8 -7t8 -7q-110 -136 -110 -313q0 -182 110 -314zM541 498q-92 116 -92 262t92 262
q3 -2 8 -7t8 -7q-88 -109 -88 -248t88 -248q-3 -2 -8 -7t-8 -7zM647 592q-57 72 -57 168q0 97 57 166l15 -15q-52 -69 -52 -151q0 -84 54 -154q-3 -2 -8.5 -7t-8.5 -7zM715 655q-33 48 -33 105q0 56 33 104q3 -2 8 -7t8 -7q-29 -44 -29 -90t29 -90q-3 -2 -16 -15zM774 709
q-14 25 -14 51t14 51l12 -10q-10 -20 -10 -41t10 -41q-4 -4 -12 -10zM852 123q-236 0 -412 158l2.5 2.5l5 5l5.5 5.5t2 1q171 -152 397 -152q227 0 395 152q2 -3 7.5 -8t7.5 -8q-177 -156 -410 -156zM852 664q-31 0 -55 18l12 12q21 -14 43 -14q26 0 43 14q4 -4 10 -12
q-21 -18 -53 -18zM987 653q-7 10 -14 15q28 42 28 92q0 51 -28 90l2.5 2.5t5 4.5t5.5 5t1 2q35 -44 35 -104t-35 -107zM598 551q-72 91 -72 209q0 119 74 209l14 -15q-67 -87 -67 -194q0 -108 67 -195q-10 -10 -16 -14zM852 -35q-145 0 -278 52.5t-238 146.5l14 16
q102 -92 231 -143t271 -51q285 0 500 192q0 1 3.5 -2.5t6.5 -7.5l4 -4q-104 -95 -236 -147t-278 -52zM852 248q-189 0 -330 125l15 16q134 -121 315 -121q182 0 313 121q2 -3 7.5 -8t7.5 -8q-138 -125 -328 -125zM852 348q-145 0 -264 101l14 14q108 -94 250 -94
q143 0 248 94q2 -3 7 -8.5t7 -8.5q-112 -98 -262 -98zM852 428q-116 0 -211 78l14 16q86 -73 197 -73t197 73q4 -4 12 -16q-91 -78 -209 -78zM852 543q-77 0 -135 49l14 16q51 -45 121 -45q68 0 119 45q2 -3 7 -8t7 -8q-58 -49 -133 -49zM733 911q-4 3 -7 6.5t-6 6.5l-3 4
q58 49 135 49t135 -49l-16 -17q-51 45 -119 45t-119 -45zM1167 1130q-134 121 -315 121q-179 0 -313 -118l-15 14q141 125 328 125q189 0 330 -125q-4 -6 -15 -17zM930 709l-12 10q10 20 10 41t-10 41l12 10q14 -25 14 -51t-14 -51zM958 682q-10 10 -16 14q21 32 21 64
t-21 63l16 15q25 -36 25 -78t-25 -78zM1020 627q-6 4 -16 14q38 50 38 119t-38 119l14 14q45 -57 45 -133q0 -71 -43 -133zM1106 551q-3 2 -8 7t-8 7q67 87 67 195t-70 194l17 15q74 -90 74 -209q0 -118 -72 -209zM1163 498q-10 10 -16 14q88 109 88 248t-88 248l16 14
q92 -116 92 -262t-92 -262zM1237 432q-6 4 -16 14q112 134 112 314q0 182 -112 313l16 14q117 -139 117 -327q0 -189 -117 -328zM1329 350q-2 2 -7 6t-7 6q141 175 141 398q0 227 -143 395l16 14q148 -179 148 -409q0 -231 -148 -410zM1446 246q-6 6 -16 14q180 215 180 500
t-180 500l16 14q88 -105 136 -237t48 -277q0 -144 -48 -276t-136 -238zM375 348q-148 182 -148 412q0 229 146 409q2 -2 7.5 -6.5t8.5 -7.5q-141 -170 -141 -395q0 -228 141 -398zM684 627q-43 59 -43 133t43 133q6 -4 16 -14q-38 -50 -38 -119q0 -67 38 -117zM745 682
q-24 34 -24 78t24 78q2 -3 4.5 -5.5t6 -5.5t4.5 -4q-19 -34 -19 -63q0 -30 19 -64zM809 825l-10 13q21 18 53 18t53 -18l-10 -13q-23 15 -43 15q-25 0 -43 -15zM786 852l-14 14q37 29 80 29q41 0 78 -29q-8 -8 -12 -14q-28 25 -66 25q-34 0 -66 -25zM760 881l-15 16
q45 39 107 39q61 0 106 -39l-14 -16q-37 34 -92 34t-92 -34zM604 1057l-14 16q112 98 262 98q151 0 262 -100q1 0 -2 -3.5t-6 -7.5l-4 -3q-108 94 -250 94q-143 0 -248 -94zM852 492q-100 0 -170 61l14 16q70 -57 156 -57q87 0 154 57l14 -14q-73 -63 -168 -63zM852 584
q-61 0 -109 39l15 16q47 -35 94 -35q51 0 92 35l14 -16q-45 -39 -106 -39zM852 625q-43 0 -82 28l14 15q36 -25 68 -25q34 0 66 25l14 -15q-36 -28 -80 -28zM698 950l-14 15q73 63 168 63q98 0 168 -61l-14 -17q-68 58 -154 58q-87 0 -154 -58zM655 997l-14 17q91 78 211 78
q119 0 209 -80l-12 -15q-83 74 -197 74q-110 0 -197 -74zM1249 1223q-166 153 -397 153q-227 0 -397 -151l-15 14q179 158 412 158t412 -158zM352 1339l-14 17q104 95 236 146.5t278 51.5q145 0 278 -52t238 -146l-14 -17q-102 93 -231 144t-271 51t-270 -51t-230 -144z
M1057 594l-15 14q52 69 52 152t-54 153l17 15q57 -72 57 -168q0 -97 -57 -166z" />
    <glyph glyph-name="approxequal" unicode="&#x2248;" horiz-adv-x="536" 
d="M82 516q-1 91 21 121.5t69 30.5q30 0 95 -26t77 -26q14 0 18.5 10t4.5 42h90q1 -92 -20.5 -122t-71.5 -30q-28 0 -93 26.5t-77 26.5q-13 0 -18 -11t-5 -42h-90zM82 776q-1 91 21.5 122.5t68.5 31.5q30 0 95 -26.5t77 -26.5q14 0 18.5 10.5t4.5 42.5h90q1 -94 -20.5 -124
t-71.5 -30q-28 0 -93 26.5t-77 26.5q-13 0 -18 -11t-5 -42h-90z" />
    <glyph glyph-name="notequal" unicode="&#x2260;" horiz-adv-x="593" 
d="M365 0v1020h-154v-1020h-115v1020h-80v108h80v209q0 118 39.5 165.5t143.5 47.5q14 0 20 -2v-112h-6q-48 0 -65 -23.5t-17 -85.5v-199h154v209q0 117 41.5 165t150.5 48q21 0 27 -2v-112h-19q-51 0 -68.5 -23.5t-17.5 -85.5v-199h105v-108h-105v-1020h-114z" />
    <glyph glyph-name="lessequal" unicode="&#x2264;" horiz-adv-x="536" 
d="M416 410l-334 297v94l334 297v-137l-221 -207l221 -205v-139zM82 223v113h334v-113h-334z" />
    <glyph glyph-name="greaterequal" unicode="&#x2265;" horiz-adv-x="536" 
d="M123 410v137l221 207l-221 207v137l332 -297v-94zM123 223v113h332v-113h-332z" />
    <glyph glyph-name="lozenge" unicode="&#x25ca;" horiz-adv-x="604" 
d="M96 0v1020h-80v108h80v209q0 118 39.5 165.5t143.5 47.5q16 0 20 -2v-112h-6q-48 0 -65 -23.5t-17 -85.5v-199h154l12 269l98 33v-302h103v-108h-103v-815q0 -54 15.5 -73t62.5 -19h25v-113q-8 -2 -41 -2q-102 0 -139.5 47.5t-37.5 151.5v823h-149v-1020h-115z" />
    <glyph glyph-name="apple" unicode="&#xf8ff;" horiz-adv-x="1703" 
d="M258 246q-88 105 -136 237t-48 277q0 144 48 276t136 236q6 -4 14 -12q-85 -103 -131.5 -231.5t-46.5 -268.5q0 -285 180 -500zM467 432q-117 143 -117 328q0 183 115 327q3 -2 8 -7t8 -7q-110 -136 -110 -313q0 -182 110 -314zM541 498q-92 116 -92 262t92 262
q3 -2 8 -7t8 -7q-88 -109 -88 -248t88 -248q-3 -2 -8 -7t-8 -7zM647 592q-57 72 -57 168q0 97 57 166l15 -15q-52 -69 -52 -151q0 -84 54 -154q-3 -2 -8.5 -7t-8.5 -7zM715 655q-33 48 -33 105q0 56 33 104q3 -2 8 -7t8 -7q-29 -44 -29 -90t29 -90q-3 -2 -16 -15zM774 709
q-14 25 -14 51t14 51l12 -10q-10 -20 -10 -41t10 -41q-4 -4 -12 -10zM852 123q-236 0 -412 158l2.5 2.5l5 5l5.5 5.5t2 1q171 -152 397 -152q227 0 395 152q2 -3 7.5 -8t7.5 -8q-177 -156 -410 -156zM852 664q-31 0 -55 18l12 12q21 -14 43 -14q26 0 43 14q4 -4 10 -12
q-21 -18 -53 -18zM987 653q-7 10 -14 15q28 42 28 92q0 51 -28 90l2.5 2.5t5 4.5t5.5 5t1 2q35 -44 35 -104t-35 -107zM598 551q-72 91 -72 209q0 119 74 209l14 -15q-67 -87 -67 -194q0 -108 67 -195q-10 -10 -16 -14zM852 -35q-145 0 -278 52.5t-238 146.5l14 16
q102 -92 231 -143t271 -51q285 0 500 192q0 1 3.5 -2.5t6.5 -7.5l4 -4q-104 -95 -236 -147t-278 -52zM852 248q-189 0 -330 125l15 16q134 -121 315 -121q182 0 313 121q2 -3 7.5 -8t7.5 -8q-138 -125 -328 -125zM852 348q-145 0 -264 101l14 14q108 -94 250 -94
q143 0 248 94q2 -3 7 -8.5t7 -8.5q-112 -98 -262 -98zM852 428q-116 0 -211 78l14 16q86 -73 197 -73t197 73q4 -4 12 -16q-91 -78 -209 -78zM852 543q-77 0 -135 49l14 16q51 -45 121 -45q68 0 119 45q2 -3 7 -8t7 -8q-58 -49 -133 -49zM733 911q-4 3 -7 6.5t-6 6.5l-3 4
q58 49 135 49t135 -49l-16 -17q-51 45 -119 45t-119 -45zM1167 1130q-134 121 -315 121q-179 0 -313 -118l-15 14q141 125 328 125q189 0 330 -125q-4 -6 -15 -17zM930 709l-12 10q10 20 10 41t-10 41l12 10q14 -25 14 -51t-14 -51zM958 682q-10 10 -16 14q21 32 21 64
t-21 63l16 15q25 -36 25 -78t-25 -78zM1020 627q-6 4 -16 14q38 50 38 119t-38 119l14 14q45 -57 45 -133q0 -71 -43 -133zM1106 551q-3 2 -8 7t-8 7q67 87 67 195t-70 194l17 15q74 -90 74 -209q0 -118 -72 -209zM1163 498q-10 10 -16 14q88 109 88 248t-88 248l16 14
q92 -116 92 -262t-92 -262zM1237 432q-6 4 -16 14q112 134 112 314q0 182 -112 313l16 14q117 -139 117 -327q0 -189 -117 -328zM1329 350q-2 2 -7 6t-7 6q141 175 141 398q0 227 -143 395l16 14q148 -179 148 -409q0 -231 -148 -410zM1446 246q-6 6 -16 14q180 215 180 500
t-180 500l16 14q88 -105 136 -237t48 -277q0 -144 -48 -276t-136 -238zM375 348q-148 182 -148 412q0 229 146 409q2 -2 7.5 -6.5t8.5 -7.5q-141 -170 -141 -395q0 -228 141 -398zM684 627q-43 59 -43 133t43 133q6 -4 16 -14q-38 -50 -38 -119q0 -67 38 -117zM745 682
q-24 34 -24 78t24 78q2 -3 4.5 -5.5t6 -5.5t4.5 -4q-19 -34 -19 -63q0 -30 19 -64zM809 825l-10 13q21 18 53 18t53 -18l-10 -13q-23 15 -43 15q-25 0 -43 -15zM786 852l-14 14q37 29 80 29q41 0 78 -29q-8 -8 -12 -14q-28 25 -66 25q-34 0 -66 -25zM760 881l-15 16
q45 39 107 39q61 0 106 -39l-14 -16q-37 34 -92 34t-92 -34zM604 1057l-14 16q112 98 262 98q151 0 262 -100q1 0 -2 -3.5t-6 -7.5l-4 -3q-108 94 -250 94q-143 0 -248 -94zM852 492q-100 0 -170 61l14 16q70 -57 156 -57q87 0 154 57l14 -14q-73 -63 -168 -63zM852 584
q-61 0 -109 39l15 16q47 -35 94 -35q51 0 92 35l14 -16q-45 -39 -106 -39zM852 625q-43 0 -82 28l14 15q36 -25 68 -25q34 0 66 25l14 -15q-36 -28 -80 -28zM698 950l-14 15q73 63 168 63q98 0 168 -61l-14 -17q-68 58 -154 58q-87 0 -154 -58zM655 997l-14 17q91 78 211 78
q119 0 209 -80l-12 -15q-83 74 -197 74q-110 0 -197 -74zM1249 1223q-166 153 -397 153q-227 0 -397 -151l-15 14q179 158 412 158t412 -158zM352 1339l-14 17q104 95 236 146.5t278 51.5q145 0 278 -52t238 -146l-14 -17q-102 93 -231 144t-271 51t-270 -51t-230 -144z
M1057 594l-15 14q52 69 52 152t-54 153l17 15q57 -72 57 -168q0 -97 -57 -166z" />
    </font>
</defs>
</svg>
