<?xml version="1.0" standalone="no"?>
<!DOCTYPE svg PUBLIC "-//W3C//DTD SVG 1.1//EN" "http://www.w3.org/Graphics/SVG/1.1/DTD/svg11.dtd" >
<svg xmlns="http://www.w3.org/2000/svg" xmlns:xlink="http://www.w3.org/1999/xlink" version="1.1">
<metadata>
Created by FontForge 20201107 at Wed Dec 24 15:01:12 2025
 By 
Copyright (c) The Font Bureau, Inc., 2003. All rights reserved.
</metadata>
<defs>
<font id="AntennaCond-Bold" horiz-adv-x="1368" >
  <font-face 
    font-family="AntennaCond Bold"
    font-weight="700"
    font-stretch="normal"
    units-per-em="2048"
    panose-1="2 0 5 3 0 0 0 2 0 4"
    ascent="1638"
    descent="-410"
    x-height="1161"
    cap-height="1518"
    bbox="-82 -498 3025 1972"
    underline-thickness="102"
    underline-position="-204"
    unicode-range="U+0020-FB02"
  />
<missing-glyph horiz-adv-x="348" 
 />
    <glyph glyph-name="fi" unicode="fi" horiz-adv-x="1243" 
d="M25 891v270h188v94q0 357 405 357q91 0 107 -2v-269h-76q-78 0 -102.5 -27t-24.5 -93v-60h203v-270h-203v-891h-309v891h-188zM825 0v1161h310v-1161h-310zM825 1266v280h312v-280h-312z" />
    <glyph glyph-name="fl" unicode="fl" horiz-adv-x="1318" 
d="M25 891v270h188v94q0 357 405 357q91 0 107 -2v-269h-76q-78 0 -102.5 -27t-24.5 -93v-60h203v-270h-203v-891h-309v891h-188zM1255 0q-24 -4 -112 -4q-84 0 -140.5 15t-98 52t-60.5 102.5t-19 164.5v1245h310v-1202q0 -69 19 -87t101 -18v-268z" />
    <glyph glyph-name="f_f_l" unicode="ffl" horiz-adv-x="1933" 
d="M825 0v891h-303v-891h-309v891h-188v270h188v94q0 357 405 357q91 0 107 -2v-269h-76q-78 0 -102.5 -27t-24.5 -93v-60h303v94q0 357 408 357q90 0 104 -2v-269h-75q-76 0 -101.5 -27.5t-25.5 -92.5v-60h202v-270h-202v-891h-310zM1870 0q-24 -4 -115 -4q-83 0 -139 15
t-97 52t-60 102.5t-19 164.5v1245h309v-1202q0 -49 6.5 -68t31 -28t83.5 -9v-268z" />
    <glyph glyph-name="f_f_i" unicode="ffi" horiz-adv-x="1855" 
d="M825 0v891h-303v-891h-309v891h-188v270h188v94q0 357 405 357q91 0 107 -2v-269h-76q-78 0 -102.5 -27t-24.5 -93v-60h303v94q0 357 408 357q90 0 104 -2v-269h-75q-76 0 -101.5 -27.5t-25.5 -92.5v-60h202v-270h-202v-891h-310zM1440 0v1161h309v-1161h-309zM1438 1266
v280h313v-280h-313z" />
    <glyph glyph-name="f_j" unicode="fj" horiz-adv-x="1243" 
d="M25 891v270h188v94q0 357 405 357q91 0 107 -2v-269h-76q-78 0 -102.5 -27t-24.5 -93v-60h203v-270h-203v-891h-309v891h-188zM721 -324v248h22q54 0 68 23t14 98v1116h310v-1126q0 -204 -77 -281.5t-290 -77.5h-47zM825 1266v280h312v-280h-312z" />
    <glyph glyph-name="f_f" unicode="ff" horiz-adv-x="1411" 
d="M825 0v891h-303v-891h-309v891h-188v270h188v94q0 357 405 357q91 0 107 -2v-269h-76q-78 0 -102.5 -27t-24.5 -93v-60h303v94q0 357 408 357q94 0 168 -4v-267h-139q-76 0 -101.5 -27.5t-25.5 -92.5v-60h266v-270h-266v-891h-310z" />
    <glyph glyph-name=".notdef" horiz-adv-x="348" 
 />
    <glyph glyph-name=".null" horiz-adv-x="0" 
 />
    <glyph glyph-name="nonmarkingreturn" horiz-adv-x="682" 
 />
    <glyph glyph-name="space" unicode=" " horiz-adv-x="348" 
 />
    <glyph glyph-name="space" unicode="&#xa0;" horiz-adv-x="348" 
 />
    <glyph glyph-name="exclam" unicode="!" horiz-adv-x="706" 
d="M176 0v360h352v-360h-352zM213 473l-27 1045h336l-28 -1045h-281z" />
    <glyph glyph-name="quotedbl" unicode="&#x22;" horiz-adv-x="1044" 
d="M156 803l-15 715h320l-15 -715h-290zM600 803l-16 715h319l-16 -715h-287z" />
    <glyph glyph-name="numbersign" unicode="#" horiz-adv-x="1325" 
d="M180 0l56 371h-152v282h195l22 156h-217v281h260l64 428h292l-63 -428h154l63 428h293l-66 -428h158v-281h-199l-24 -156h223v-282h-266l-55 -371h-291l55 371h-154l-55 -371h-293zM543 631h202l31 200h-203z" />
    <glyph glyph-name="dollar" unicode="$" horiz-adv-x="1153" 
d="M438 -190v190q-235 23 -399 141l145 232q71 -49 171.5 -84t211.5 -35q122 0 167.5 42t45.5 130q0 81 -49.5 123t-177.5 84q-11 4 -34 11q-89 29 -132.5 45t-109.5 52.5t-97 76.5t-55.5 107t-24.5 154q0 194 82.5 299t253.5 133v166h297v-166q168 -25 297 -96l-141 -248
q-136 72 -305 72q-99 0 -140 -37.5t-41 -111.5q0 -70 51 -108t179 -77q49 -15 74.5 -23.5t70.5 -25t70.5 -29.5t62.5 -35.5t58 -44.5t46 -54t37.5 -67t21.5 -80t9 -97q0 -199 -80.5 -306t-269.5 -137v-196h-295z" />
    <glyph glyph-name="percent" unicode="%" horiz-adv-x="2185" 
d="M465 528q-104 0 -179 26.5t-128 85t-79 155.5t-26 235t26 235t79 155.5t128 85t179 26.5q210 0 313 -116t103 -386t-103 -386t-313 -116zM467 758q78 0 108.5 56t30.5 208q0 150 -31 207t-108 57t-108 -57t-31 -207q0 -152 30.5 -208t108.5 -56zM1716 -14
q-139 0 -227.5 47.5t-136 159.5t-47.5 296q0 269 101 385.5t310 116.5q211 0 313.5 -116.5t102.5 -385.5q0 -272 -102.5 -387.5t-313.5 -115.5zM1718 215q78 0 110 57t32 207q0 151 -32 207.5t-110 56.5t-108.5 -56t-30.5 -208q0 -150 31 -207t108 -57zM602 0l698 1518h287
l-700 -1518h-285z" />
    <glyph glyph-name="ampersand" unicode="&#x26;" horiz-adv-x="1488" 
d="M586 -16q-270 0 -401.5 102.5t-131.5 331.5q0 83 21.5 150t64 118t90 87.5t113.5 72.5q-102 162 -102 321q0 192 104.5 286.5t294.5 94.5q189 0 287 -92.5t98 -288.5q0 -135 -71 -229.5t-193 -169.5q29 -34 86 -94l160 -176q31 80 50.5 184t39.5 266l260 -30
q-24 -215 -60 -369.5t-98 -265.5l258 -283h-383l-69 78q-160 -94 -418 -94zM586 238q144 0 233 45l-215 239q-22 23 -60 67t-46 52q-66 -49 -102 -98t-36 -111q0 -42 7 -71.5t28.5 -60t69.5 -46.5t121 -16zM539 1167q0 -97 65 -200q137 91 137 200q0 59 -23.5 87t-78.5 28
t-77.5 -28t-22.5 -87z" />
    <glyph glyph-name="quotesingle" unicode="'" horiz-adv-x="602" 
d="M156 803l-15 715h322l-14 -715h-293z" />
    <glyph glyph-name="parenleft" unicode="(" horiz-adv-x="913" 
d="M516 -365q-65 64 -122.5 151.5t-111 209t-85 284t-31.5 343.5q0 164 32 324t84.5 285t112 221.5t121.5 158.5l229 -142q-55 -74 -94.5 -142.5t-82 -171.5t-65 -237.5t-22.5 -293.5q0 -129 17.5 -248t44 -206.5t64 -168t70 -131t68.5 -96.5z" />
    <glyph glyph-name="parenright" unicode=")" horiz-adv-x="913" 
d="M397 -365l-227 140q43 60 74.5 110.5t69.5 131.5t61.5 164t40 198.5t16.5 243.5q0 129 -17.5 248t-44 206.5t-63.5 167t-69 130t-68 95.5l227 142q65 -64 123 -152t111.5 -209.5t85 -283.5t31.5 -342q0 -165 -32 -325.5t-84 -285.5t-112 -221.5t-123 -157.5z" />
    <glyph glyph-name="asterisk" unicode="*" horiz-adv-x="1087" 
d="M418 512l28 315l-229 -180l-135 223l274 146l-274 147l133 221l231 -182l-28 318h246l-27 -322l233 186l134 -219l-277 -149l277 -148l-132 -219l-235 182l27 -319h-246z" />
    <glyph glyph-name="plus" unicode="+" horiz-adv-x="1247" 
d="M477 215v373h-315v268h315v369h293v-369h315v-268h-315v-373h-293z" />
    <glyph glyph-name="comma" unicode="," horiz-adv-x="532" 
d="M182 -313l-86 155q73 39 99.5 57t38.5 40t12 61h-156v367h352v-336q0 -55 -5.5 -91.5t-20.5 -71t-45 -62.5t-74.5 -56.5t-114.5 -62.5z" />
    <glyph glyph-name="hyphen" unicode="-" horiz-adv-x="710" 
d="M61 541v282h586v-282h-586z" />
    <glyph glyph-name="hyphen" unicode="&#xad;" horiz-adv-x="710" 
d="M61 541v282h586v-282h-586z" />
    <glyph glyph-name="period" unicode="." horiz-adv-x="532" 
d="M90 0v367h352v-367h-352z" />
    <glyph glyph-name="slash" unicode="/" horiz-adv-x="1013" 
d="M0 0l700 1518h314l-701 -1518h-313z" />
    <glyph glyph-name="zero" unicode="0" horiz-adv-x="1312" 
d="M659 -18q-104 0 -185.5 18t-140.5 50t-100.5 85t-67.5 112.5t-40.5 144.5t-19.5 169t-5 197q0 112 5 195t19.5 168t39.5 145t67 114t100.5 86.5t140.5 51t187 18.5q91 0 165 -13.5t129 -42t97 -65.5t70 -91.5t46.5 -111t28.5 -134t13.5 -151t3.5 -169.5q0 -89 -3 -158
t-10.5 -140t-21 -124t-35 -105t-51.5 -89t-71 -68.5t-93.5 -51t-119.5 -30t-148 -10.5zM659 268q60 0 101.5 18.5t68 53t41 96.5t20 136.5t5.5 185.5q0 110 -5.5 183.5t-20 134t-41.5 93.5t-68 50.5t-101 17.5q-61 0 -103 -17.5t-69 -50.5t-41.5 -93.5t-20 -133.5t-5.5 -184
t5.5 -185.5t20 -136.5t41.5 -96.5t69 -53t103 -18.5z" />
    <glyph glyph-name="one" unicode="1" horiz-adv-x="731" 
d="M256 0v1235h-209v283h518v-1518h-309z" />
    <glyph glyph-name="two" unicode="2" horiz-adv-x="1105" 
d="M49 0v246l381 409q112 121 163 190t67 116.5t16 117.5q0 85 -43.5 123.5t-151.5 38.5q-153 0 -301 -72l-133 261q214 106 488 106q239 0 345.5 -102t106.5 -308q0 -93 -12.5 -157.5t-53 -139.5t-100.5 -149t-172 -195l-198 -215h561v-270h-963z" />
    <glyph glyph-name="three" unicode="3" horiz-adv-x="1114" 
d="M512 -18q-154 0 -262 27t-211 85l139 256q82 -44 153.5 -65t160.5 -21q136 0 183.5 45t47.5 172q0 72 -18.5 110.5t-70.5 58.5t-151 20h-215v256h219q117 0 158 37t41 124q0 90 -44.5 122t-152.5 32q-152 0 -299 -70l-131 252q197 113 480 113q116 0 196 -16.5t140 -57.5
t88 -113t28 -180q0 -149 -32 -227t-115 -111q108 -35 148 -116t40 -266q0 -255 -124.5 -361t-395.5 -106z" />
    <glyph glyph-name="four" unicode="4" horiz-adv-x="1210" 
d="M55 299v240l531 979h323l-522 -963h311l62 424h223v-424h184v-256h-184v-299h-289v299h-639z" />
    <glyph glyph-name="five" unicode="5" horiz-adv-x="1159" 
d="M561 -18q-313 0 -518 114l139 254q81 -45 163.5 -65.5t195.5 -20.5q65 0 105.5 9t72 35t45.5 74t14 124q0 75 -13.5 122.5t-43.5 72.5t-66.5 33.5t-93.5 8.5q-130 0 -215 -53l-240 70l41 758h869v-283h-604l-15 -270q87 51 279 51q149 0 236.5 -44.5t132.5 -155.5
t45 -304q0 -109 -15 -192.5t-47 -141.5t-74.5 -96.5t-104.5 -60.5t-130 -30.5t-158 -8.5z" />
    <glyph glyph-name="six" unicode="6" horiz-adv-x="1253" 
d="M651 -18q-82 0 -150 9.5t-121 27t-94.5 45.5t-71.5 60.5t-51.5 78t-34.5 91.5t-21 107.5t-10.5 120t-2.5 133.5q0 138 5 231t22 191.5t48 161t83 121t127.5 90t181 50t244.5 18.5h178v-283h-195q-94 0 -160 -14t-106 -36.5t-64 -63t-33.5 -82.5t-14.5 -105
q87 104 348 104q104 0 180 -25t122.5 -67.5t74 -109.5t37.5 -140t10 -170q0 -142 -26 -240t-86.5 -168t-163.5 -103t-255 -33zM657 254q121 0 167 63.5t46 206.5q0 140 -47 200t-161 60q-244 0 -244 -249q0 -78 9.5 -127t35.5 -86t73 -52.5t121 -15.5z" />
    <glyph glyph-name="seven" unicode="7" horiz-adv-x="1026" 
d="M215 0l434 1235h-612v283h950v-244l-440 -1274h-332z" />
    <glyph glyph-name="eight" unicode="8" horiz-adv-x="1251" 
d="M625 -18q-101 0 -181.5 13t-136.5 35t-97 56.5t-65 71t-38 85t-18.5 92.5t-4.5 99q0 61 3.5 105t15 94t33 85t59 66.5t90.5 51.5q-93 44 -125.5 124t-32.5 203q0 63 11.5 113.5t45 100.5t87 83.5t144 54.5t210.5 21q121 0 211.5 -21t144.5 -54.5t86.5 -83.5t43.5 -100.5
t11 -113.5q0 -59 -6.5 -104.5t-23 -90t-49 -78t-80.5 -54.5q57 -20 96.5 -52.5t60.5 -66.5t32.5 -85.5t14 -92.5t2.5 -105q0 -55 -4.5 -98.5t-18.5 -92.5t-38 -85.5t-65.5 -71t-97.5 -56.5t-137.5 -35t-182.5 -13zM625 246q132 0 180.5 58.5t48.5 172.5q0 56 -9.5 95
t-34 70.5t-70.5 47t-115 15.5q-131 0 -178.5 -56.5t-47.5 -171.5q0 -114 48 -172.5t178 -58.5zM625 928q108 0 151 41.5t43 130.5t-43 130.5t-151 41.5q-106 0 -150.5 -42t-44.5 -130t44.5 -130t150.5 -42z" />
    <glyph glyph-name="nine" unicode="9" horiz-adv-x="1253" 
d="M268 0v270h197q112 0 184.5 18t113.5 58.5t57.5 93t21.5 135.5q-81 -104 -346 -104q-104 0 -180 25t-122.5 67t-74 109t-37.5 139.5t-10 169.5q0 142 25.5 241.5t85.5 172t163 107t254 34.5q105 0 187.5 -16t141 -44t100.5 -74.5t67 -98t39 -126t19 -146t5 -169.5
q0 -137 -6 -232.5t-23 -192.5t-49 -160t-84.5 -120.5t-128 -89t-180.5 -49.5t-242 -18h-178zM590 723q119 0 182.5 59t63.5 193q0 77 -9.5 125.5t-36 85t-74 52t-122.5 15.5q-121 0 -167 -63.5t-46 -206.5q0 -139 48 -199.5t161 -60.5z" />
    <glyph glyph-name="colon" unicode=":" horiz-adv-x="565" 
d="M106 0v358h351v-358h-351zM106 803v358h351v-358h-351z" />
    <glyph glyph-name="semicolon" unicode=";" horiz-adv-x="565" 
d="M106 803v358h351v-358h-351zM199 -313l-86 155q102 54 125.5 78.5t23.5 79.5h-156v358h351v-327q0 -70 -8 -111.5t-36 -82.5t-77.5 -74t-136.5 -76z" />
    <glyph glyph-name="less" unicode="&#x3c;" horiz-adv-x="1245" 
d="M989 158l-803 444v213l803 445v-297l-479 -252l479 -254v-299z" />
    <glyph glyph-name="equal" unicode="=" horiz-adv-x="1247" 
d="M164 340v285h919v-285h-919zM164 809v283h919v-283h-919z" />
    <glyph glyph-name="greater" unicode="&#x3e;" horiz-adv-x="1247" 
d="M254 158v297l481 252l-481 254v299l805 -445v-213z" />
    <glyph glyph-name="question" unicode="?" horiz-adv-x="1171" 
d="M397 444q-1 76 2 120t13.5 89.5t34 79.5t59.5 72t96 86q93 76 123.5 115.5t30.5 101.5q0 71 -43.5 106t-161.5 35q-148 0 -305 -75l-135 260q209 102 493 102q132 0 224.5 -26t143.5 -76.5t73 -114.5t22 -150q0 -64 -10.5 -116t-24.5 -87t-44.5 -71.5t-54.5 -58.5
t-69 -60q-43 -36 -69 -58.5t-46.5 -49t-29.5 -43.5t-14.5 -48.5t-6.5 -57t0 -75.5h-301zM371 0v322h352v-322h-352z" />
    <glyph glyph-name="at" unicode="@" horiz-adv-x="1763" 
d="M883 -338q-224 0 -378.5 55t-249.5 172.5t-137 289t-42 417.5q0 245 42 416.5t137 290t249.5 174t378.5 55.5q223 0 377 -55.5t249 -174t137 -290t42 -416.5q0 -98 -5.5 -169t-19 -133.5t-37 -103t-60 -69.5t-87 -42t-119.5 -13q-219 0 -264 139q-79 -139 -336 -139
q-90 0 -155 29t-102 74.5t-58.5 117.5t-28 142t-6.5 165t7.5 167t30 144t60.5 118t103.5 74.5t154.5 28.5q128 0 187.5 -22.5t93.5 -75.5l51 88l198 -18v-684q2 -36 2.5 -49.5t3.5 -38t6.5 -32.5t10 -21.5t16.5 -17.5t23.5 -7.5t32.5 -3.5q49 0 71.5 26.5t31.5 98t9 227.5
q0 209 -32.5 352t-106.5 237.5t-191 136.5t-290 42q-342 0 -482.5 -176.5t-140.5 -591.5t140.5 -590.5t482.5 -175.5q243 0 473 94l67 -157q-127 -50 -250.5 -77.5t-289.5 -27.5zM848 301q47 0 79.5 13t51.5 34.5t29 61t13 79.5t3 103q0 65 -3 105t-13 77t-29 56.5t-51 30.5
t-80 11q-99 0 -130.5 -64t-31.5 -218q0 -62 3 -103t13 -79.5t27.5 -60t47 -34t71.5 -12.5z" />
    <glyph glyph-name="A" unicode="A" horiz-adv-x="1343" 
d="M27 0l473 1528h344l473 -1528h-330l-69 236h-502l-68 -236h-321zM492 518h348l-172 576z" />
    <glyph glyph-name="B" unicode="B" horiz-adv-x="1261" 
d="M119 0v1518h555q256 0 370.5 -99t114.5 -291q0 -260 -178 -333q107 -37 158 -125t51 -246q0 -424 -504 -424h-567zM434 268h248q92 0 138 41.5t46 139.5q0 97 -45.5 136.5t-140.5 39.5h-246v-357zM434 905h230q91 0 132.5 42t41.5 132q0 89 -40 125.5t-134 36.5h-230
v-336z" />
    <glyph glyph-name="C" unicode="C" horiz-adv-x="1155" 
d="M664 -18q-140 0 -245 35.5t-174 100t-112 163t-60.5 214t-17.5 263.5q0 147 16 259t58.5 213t112.5 166t182 102.5t264 37.5q244 0 412 -111l-172 -266q-100 64 -250 64q-82 0 -136 -21.5t-91.5 -75.5t-53.5 -145t-16 -231q0 -184 30 -288t94 -148t175 -44q81 0 141.5 18
t126.5 60l158 -248q-97 -61 -197 -89.5t-245 -28.5z" />
    <glyph glyph-name="D" unicode="D" horiz-adv-x="1314" 
d="M119 0v1518h473q185 0 308 -36.5t205.5 -125t118.5 -233t36 -363.5q0 -179 -23.5 -306.5t-71.5 -216.5t-129 -140.5t-187.5 -74t-256.5 -22.5h-473zM440 279h181q88 0 144 20t95.5 73.5t56.5 146.5t17 239t-16.5 236.5t-57.5 142t-98.5 70t-149.5 18.5h-172v-946z" />
    <glyph glyph-name="E" unicode="E" horiz-adv-x="1140" 
d="M119 0v1518h936v-293h-623v-303h596v-291h-596v-344h625v-287h-938z" />
    <glyph glyph-name="F" unicode="F" horiz-adv-x="1112" 
d="M119 0v1518h938v-293h-617v-328h588v-291h-588v-606h-321z" />
    <glyph glyph-name="G" unicode="G" horiz-adv-x="1261" 
d="M645 -18q-138 0 -241 35.5t-169.5 98.5t-107 162t-56.5 214t-16 266q0 208 32.5 350.5t108 240.5t199 142.5t305.5 44.5q259 0 441 -117l-170 -266q-133 74 -285 74q-64 0 -109 -11t-85 -41.5t-64 -83.5t-37.5 -137.5t-13.5 -203.5q0 -195 28.5 -301t91.5 -150.5
t177 -44.5q58 0 98.5 13t66 37t40 66.5t19.5 92.5t5 125v37h-295v276h600v-256q0 -127 -10 -219.5t-35 -169.5t-65.5 -126.5t-104 -84t-148.5 -49t-200 -14.5z" />
    <glyph glyph-name="H" unicode="H" horiz-adv-x="1386" 
d="M119 0v1518h321v-576h504v576h324v-1518h-324v625h-504v-625h-321z" />
    <glyph glyph-name="I" unicode="I" horiz-adv-x="593" 
d="M137 0v1518h320v-1518h-320z" />
    <glyph glyph-name="J" unicode="J" horiz-adv-x="800" 
d="M53 0v287h146q96 0 133 34.5t37 114.5v1082h321v-1102q0 -81 -14.5 -145t-42 -109.5t-65 -77t-88.5 -50t-106 -26.5t-122 -8h-199z" />
    <glyph glyph-name="K" unicode="K" horiz-adv-x="1308" 
d="M119 0v1518h317v-625l463 625h369l-457 -590l465 -928h-354l-326 657l-160 -219v-438h-317z" />
    <glyph glyph-name="L" unicode="L" horiz-adv-x="1050" 
d="M119 0v1518h321v-1231h590v-287h-911z" />
    <glyph glyph-name="M" unicode="M" horiz-adv-x="1648" 
d="M119 0v1518h409l295 -963l299 963h410v-1518h-313v969l-304 -969h-206l-306 969v-969h-284z" />
    <glyph glyph-name="N" unicode="N" horiz-adv-x="1378" 
d="M119 0v1518h340l497 -875v875h306v-1518h-295l-543 946v-946h-305z" />
    <glyph glyph-name="O" unicode="O" 
d="M684 -18q-114 0 -205.5 22t-156.5 59.5t-113.5 95t-77.5 120.5t-46.5 145.5t-23.5 160.5t-6 173q0 96 6 174t23.5 160.5t46.5 146t77.5 121t113.5 95t156.5 59.5t205.5 22t205.5 -22t156.5 -59.5t113.5 -95t77.5 -121t46.5 -146t23.5 -160.5t6 -174q0 -95 -6 -173
t-23.5 -160.5t-46.5 -145.5t-77.5 -120.5t-113.5 -95t-156.5 -59.5t-205.5 -22zM684 266q57 0 102 12t76.5 33t54 55t36 71.5t21.5 90t10.5 103t2.5 117.5t-2.5 117t-10.5 102.5t-21.5 89.5t-36 71t-54 54.5t-76.5 32.5t-102 12t-102 -12t-76.5 -32.5t-54 -54.5t-36 -71
t-21.5 -89.5t-10.5 -102.5t-2.5 -117t2.5 -117.5t10.5 -103t21.5 -90t36 -71.5t54 -55t76.5 -33t102 -12z" />
    <glyph glyph-name="P" unicode="P" horiz-adv-x="1255" 
d="M119 0v1518h583q264 0 382 -126t118 -368q0 -118 -27 -211.5t-85.5 -165.5t-158 -110.5t-235.5 -38.5h-262v-498h-315zM434 776h258q105 0 151 53.5t46 176.5q0 124 -46 176.5t-151 52.5h-258v-459z" />
    <glyph glyph-name="Q" unicode="Q" 
d="M889 -375q-206 0 -307.5 79.5t-100.5 246.5v61q-88 20 -157 58t-114.5 93t-77 118.5t-48 144.5t-23 159t-6.5 173q0 96 6 174t23.5 160.5t46.5 146t77.5 121t113.5 95t156.5 59.5t205.5 22t205.5 -22t156.5 -59.5t113.5 -95t77.5 -121t46.5 -146t23.5 -160.5t6 -174
q0 -88 -5.5 -161t-20 -149t-39 -136t-65 -115.5t-94 -94.5t-129 -66t-169.5 -36q2 -60 31 -83t106 -23h153v-269h-192zM684 266q57 0 102 12t76.5 33t54 55t36 71.5t21.5 90t10.5 103t2.5 117.5t-2.5 117t-10.5 102.5t-21.5 89.5t-36 71t-54 54.5t-76.5 32.5t-102 12
t-102 -12t-76.5 -32.5t-54 -54.5t-36 -71t-21.5 -89.5t-10.5 -102.5t-2.5 -117t2.5 -117.5t10.5 -103t21.5 -90t36 -71.5t54 -55t76.5 -33t102 -12z" />
    <glyph glyph-name="R" unicode="R" horiz-adv-x="1277" 
d="M852 0l-217 508h-201v-508h-315v1518h579q265 0 382.5 -122.5t117.5 -361.5q0 -369 -254 -481l244 -553h-336zM434 788h256q105 0 150 51.5t45 172.5q0 122 -45 172.5t-150 50.5h-256v-447z" />
    <glyph glyph-name="S" unicode="S" horiz-adv-x="1193" 
d="M600 -18q-364 0 -573 137l161 246q173 -109 404 -109q126 0 178.5 38.5t52.5 117.5q0 93 -55 129.5t-253 98.5l-9 3q-108 33 -182.5 71.5t-127.5 91t-77.5 122.5t-24.5 162q0 221 135 333.5t389 112.5q149 0 257.5 -24t207.5 -70l-139 -275q-140 68 -317 68
q-116 0 -167.5 -31.5t-51.5 -103.5q0 -39 10.5 -64.5t43 -47.5t71.5 -37t116 -40q98 -32 162.5 -57t123.5 -57t93.5 -65.5t60.5 -79.5t36 -102.5t10 -131.5q0 -208 -132 -322t-403 -114z" />
    <glyph glyph-name="T" unicode="T" horiz-adv-x="1185" 
d="M430 0v1225h-407v293h1140v-293h-409v-1225h-324z" />
    <glyph glyph-name="U" unicode="U" 
d="M684 -23q-160 0 -271.5 35.5t-178 108t-96 172.5t-29.5 239v986h321v-955q0 -82 11 -134.5t39.5 -91t79 -55t128.5 -16.5q150 0 205 66.5t55 230.5v955h312v-986q0 -140 -28.5 -239.5t-94.5 -172t-178.5 -108t-274.5 -35.5z" />
    <glyph glyph-name="V" unicode="V" horiz-adv-x="1327" 
d="M492 -10l-465 1528h329l314 -1063l307 1063h326l-467 -1528h-344z" />
    <glyph glyph-name="W" unicode="W" horiz-adv-x="1841" 
d="M383 -10l-340 1528h328l196 -922l219 922h285l221 -922l197 922h307l-338 -1528h-315l-221 905l-222 -905h-317z" />
    <glyph glyph-name="X" unicode="X" horiz-adv-x="1327" 
d="M936 0l-291 514l-266 -514h-346l450 799l-403 719h354l244 -433l221 433h348l-407 -721l450 -797h-354z" />
    <glyph glyph-name="Y" unicode="Y" horiz-adv-x="1282" 
d="M479 0v514l-483 1004h342l307 -662l309 662h330l-485 -1008v-510h-320z" />
    <glyph glyph-name="Z" unicode="Z" horiz-adv-x="1155" 
d="M47 0v242l655 983h-626v293h1009v-265l-649 -966h668v-287h-1057z" />
    <glyph glyph-name="bracketleft" unicode="[" horiz-adv-x="909" 
d="M180 -324v1899h588v-266h-272v-1379h276v-254h-592z" />
    <glyph glyph-name="backslash" unicode="\" horiz-adv-x="1013" 
d="M700 0l-700 1518h313l701 -1518h-314z" />
    <glyph glyph-name="bracketright" unicode="]" horiz-adv-x="909" 
d="M139 -324v254h277v1379h-271v266h586v-1899h-592z" />
    <glyph glyph-name="asciicircum" unicode="^" horiz-adv-x="997" 
d="M133 1167l223 375h285l225 -375h-245l-125 162l-123 -162h-240z" />
    <glyph glyph-name="underscore" unicode="_" horiz-adv-x="765" 
d="M-63 -307v229h892v-229h-892z" />
    <glyph glyph-name="grave" unicode="`" horiz-adv-x="997" 
d="M416 1270l-297 375h344l217 -375h-264z" />
    <glyph glyph-name="a" unicode="a" horiz-adv-x="1116" 
d="M414 -14q-89 0 -154.5 18.5t-106 49t-64.5 78.5t-33 99.5t-9 118.5q0 122 33.5 202.5t109.5 128.5t183.5 67.5t269.5 19.5h41q-5 75 -37.5 106t-116.5 31q-168 0 -294 -61l-125 250q177 92 454 92q160 0 251 -40t129 -124t38 -231v-433q0 -57 13.5 -73.5t66.5 -16.5v-268
q-33 -4 -92 -4q-115 0 -164 18.5t-74 77.5q-46 -56 -120.5 -81t-198.5 -25zM485 240q98 0 148.5 44.5t50.5 157.5v107h-39q-175 0 -239 -33t-64 -131q0 -78 32.5 -111.5t110.5 -33.5z" />
    <glyph glyph-name="b" unicode="b" horiz-adv-x="1163" 
d="M98 10v1565h308v-502q42 58 118 84.5t197 26.5q72 0 130 -17t98.5 -46t70 -74t46.5 -93t27 -113t13.5 -123.5t3.5 -133.5q0 -88 -5.5 -157.5t-20.5 -141t-44 -123t-72 -93t-108.5 -62.5t-150.5 -21q-106 0 -172 13t-96 31.5t-70 57.5l-47 -100zM614 254q111 0 147 71.5
t36 243.5q0 70 -3.5 116t-14.5 89t-31 67t-53 38t-81 14q-53 0 -90.5 -14.5t-60 -39t-35 -67t-16.5 -89t-4 -114.5q0 -69 3.5 -113t16 -86t34.5 -65.5t59.5 -37t92.5 -13.5z" />
    <glyph glyph-name="c" unicode="c" horiz-adv-x="917" 
d="M541 -16q-116 0 -201 27t-140 75t-88 124.5t-46 165.5t-13 208q0 118 12.5 205.5t46 164.5t89.5 125t145.5 75.5t212.5 27.5q191 0 322 -62l-136 -268q-77 41 -170 41q-117 0 -161.5 -71.5t-44.5 -248.5q0 -179 45 -250t168 -71q87 0 194 47l117 -236q-92 -44 -170 -61.5
t-182 -17.5z" />
    <glyph glyph-name="d" unicode="d" horiz-adv-x="1163" 
d="M442 -14q-72 0 -129.5 17t-97.5 45.5t-69.5 73.5t-46.5 93t-27 113t-13.5 124t-3.5 134q0 107 8 187.5t33.5 161t68.5 132t117 83.5t175 32q121 0 189 -20.5t110 -67.5v481h311v-1565l-248 -20l-24 106q-47 -56 -130.5 -83t-222.5 -27zM549 254q53 0 90.5 14.5t60 39
t35.5 67.5t17 89.5t4 115.5q0 68 -4 112.5t-16 86.5t-34.5 65t-60.5 37t-92 14q-111 0 -146.5 -72t-35.5 -243q0 -70 3.5 -116.5t14.5 -89.5t31 -67.5t53 -38.5t80 -14z" />
    <glyph glyph-name="e" unicode="e" horiz-adv-x="1054" 
d="M547 -14q-121 0 -208.5 27t-142.5 74t-87 124.5t-44 165t-12 207.5q0 116 14.5 205t49.5 165t91.5 125t143.5 76t203 27q112 0 192 -25t127 -71.5t74.5 -112.5t35.5 -148t10.5 -179t-1.5 -204h-641q9 -106 54 -149t157 -43q104 0 169.5 17t135.5 50l117 -235
q-181 -96 -438 -96zM547 911q-109 0 -150 -52.5t-47 -176.5h371q-1 54 -4 84t-13 62t-28 47.5t-50 25.5t-79 10z" />
    <glyph glyph-name="f" unicode="f" horiz-adv-x="798" 
d="M25 891v270h188v94q0 357 405 357q98 0 168 -4v-267h-137q-78 0 -102.5 -27t-24.5 -93v-60h264v-270h-264v-891h-309v891h-188z" />
    <glyph glyph-name="g" unicode="g" horiz-adv-x="1120" 
d="M541 410q-86 0 -125 6q-2 -10 -2 -31q0 -36 28.5 -48.5t120.5 -12.5q153 0 249 -14.5t154 -52t79.5 -93t21.5 -144.5q0 -199 -126 -281.5t-398 -82.5q-112 0 -192.5 7.5t-146 25.5t-104.5 49.5t-59.5 79t-20.5 114.5q0 218 197 265q-61 52 -61 159q0 80 41 138
q-121 88 -121 292q0 208 117 303t348 95q36 0 59 -2l457 94v-240h-158q109 -71 109 -250q0 -105 -32.5 -179t-95.5 -116.5t-146 -61.5t-193 -19zM539 -129q91 0 138.5 15.5t62 41t14.5 72.5q0 40 -14.5 60t-61 31t-137.5 11q-120 0 -166.5 -26t-46.5 -88q0 -61 46 -89
t165 -28zM541 631q88 0 126 37t38 112t-38 111.5t-126 36.5q-86 0 -124 -37t-38 -111t38.5 -111.5t123.5 -37.5z" />
    <glyph glyph-name="h" unicode="h" horiz-adv-x="1150" 
d="M98 0v1575h308v-496q39 51 112 77t203 26q83 0 144.5 -21.5t98.5 -57t59 -91t30 -115t8 -137.5v-760h-311v682q0 113 -28 159t-122 46q-61 0 -99 -13.5t-58.5 -46t-27.5 -75.5t-7 -113v-639h-310z" />
    <glyph glyph-name="i" unicode="i" horiz-adv-x="524" 
d="M106 0v1161h310v-1161h-310zM106 1266v280h312v-280h-312z" />
    <glyph glyph-name="j" unicode="j" horiz-adv-x="524" 
d="M2 -324v248h23q54 0 67.5 23t13.5 98v1116h310v-1126q0 -204 -77 -281.5t-290 -77.5h-47zM106 1266v280h312v-280h-312z" />
    <glyph glyph-name="k" unicode="k" horiz-adv-x="1071" 
d="M98 0v1575h303v-881l316 467h325l-342 -485l363 -676h-330l-235 424l-97 -143v-281h-303z" />
    <glyph glyph-name="l" unicode="l" horiz-adv-x="600" 
d="M537 0q-24 -4 -113 -4q-84 0 -140.5 15t-98 52t-60.5 102.5t-19 164.5v1245h310v-1202q0 -48 7 -67.5t31.5 -28.5t82.5 -9v-268z" />
    <glyph glyph-name="m" unicode="m" horiz-adv-x="1751" 
d="M98 0v1143l248 20l23 -92q42 56 120.5 83.5t221.5 27.5q128 0 188.5 -30t83.5 -83q45 56 129 84.5t231 28.5q84 0 144 -21.5t95 -56.5t55 -92t26 -114.5t6 -137.5v-760h-307v682q0 48 -2 75t-9.5 55.5t-22.5 42.5t-41.5 23t-65.5 9q-113 0 -149 -54.5t-36 -193.5v-639
h-307v682q0 48 -2 75t-9.5 55.5t-22 42.5t-40.5 23t-65 9q-60 0 -97 -13.5t-56.5 -46.5t-26.5 -76t-7 -112v-639h-305z" />
    <glyph glyph-name="n" unicode="n" horiz-adv-x="1150" 
d="M98 0v1143l248 20l23 -92q43 55 126 83t226 28q83 0 144.5 -21.5t98.5 -57t59 -91t30 -115t8 -137.5v-760h-311v682q0 113 -28 159t-122 46q-62 0 -100 -14t-58 -47.5t-27 -76t-7 -110.5v-639h-310z" />
    <glyph glyph-name="o" unicode="o" horiz-adv-x="1128" 
d="M565 -18q-120 0 -209.5 28t-147 77.5t-92.5 126.5t-49 165.5t-14 204.5q0 114 13.5 201.5t48 164.5t92 126.5t147.5 77.5t211 28q122 0 212 -28.5t146.5 -78t91 -127t47.5 -164t13 -200.5q0 -118 -13 -206.5t-47.5 -166t-91 -126t-146.5 -76t-212 -27.5zM565 252
q52 0 89 15t58 39.5t33 67.5t15.5 87.5t3.5 111.5q0 68 -3.5 112.5t-15.5 87.5t-33.5 67t-57.5 38.5t-89 14.5t-89 -14.5t-57.5 -38.5t-33 -67.5t-15 -87.5t-3.5 -112q0 -67 3.5 -111.5t15 -87.5t33 -67.5t58 -39.5t88.5 -15z" />
    <glyph glyph-name="p" unicode="p" horiz-adv-x="1163" 
d="M98 -324v1467l248 20l21 -92q47 57 131 84t223 27q73 0 130.5 -17t98 -45.5t70 -73.5t46.5 -93t27 -112.5t13.5 -123t3.5 -133.5q0 -88 -6 -157.5t-21 -141t-44 -123t-72 -93t-108.5 -62.5t-149.5 -21q-121 0 -189 21.5t-112 68.5v-400h-310zM614 254q110 0 146.5 72
t36.5 243q0 70 -3.5 116.5t-14.5 89t-31.5 66.5t-53.5 38t-80 14q-53 0 -90.5 -14.5t-60 -39t-35 -67t-16.5 -89t-4 -114.5q0 -69 3.5 -113t16 -86t34.5 -65.5t59.5 -37t92.5 -13.5z" />
    <glyph glyph-name="q" unicode="q" horiz-adv-x="1163" 
d="M758 -324v414q-42 -55 -117 -79.5t-199 -24.5q-72 0 -129.5 17t-97.5 45.5t-69.5 73.5t-46.5 93t-27 113t-13.5 124t-3.5 134q0 107 8 187.5t33.5 161t68.5 132t117 83.5t175 32q150 0 222 -23.5t116 -73.5l45 86l227 -20v-1475h-309zM549 254q53 0 90.5 14.5t60 39
t35.5 67.5t17 89.5t4 115.5q0 68 -4 112.5t-16 86.5t-34.5 65t-60.5 37t-92 14q-111 0 -146.5 -72t-35.5 -243q0 -70 3.5 -116.5t14.5 -89.5t31 -67.5t53 -38.5t80 -14z" />
    <glyph glyph-name="r" unicode="r" horiz-adv-x="706" 
d="M98 0v1143l246 20l27 -108q42 56 116 86t207 30v-292q-56 0 -99.5 -8.5t-73 -21.5t-50.5 -35.5t-33 -45t-18.5 -56t-8 -61.5t-1.5 -69v-582h-312z" />
    <glyph glyph-name="s" unicode="s" horiz-adv-x="929" 
d="M473 -14q-292 0 -457 86l119 239q154 -75 338 -75q66 0 97.5 21.5t31.5 68.5q0 49 -40 74t-185 73q-69 24 -115 44.5t-87.5 49t-65 63.5t-37 83.5t-13.5 111.5q0 357 435 357q121 0 200 -14.5t160 -47.5l-119 -256q-118 49 -254 49q-72 0 -99.5 -19.5t-27.5 -62.5
q0 -41 38.5 -66t162.5 -65q95 -31 152 -58.5t102 -69.5t63.5 -100t18.5 -142q0 -344 -418 -344z" />
    <glyph glyph-name="t" unicode="t" horiz-adv-x="849" 
d="M25 891v270h196l47 260l246 56v-316h264v-270h-264v-500q0 -35 4 -54.5t17 -37t39.5 -24.5t70.5 -7h133v-268q-132 -10 -172 -10q-156 0 -243 37.5t-121.5 114t-34.5 212.5v537h-182z" />
    <glyph glyph-name="u" unicode="u" horiz-adv-x="1130" 
d="M565 -16q-142 0 -233.5 26.5t-145.5 88.5t-75 150.5t-21 225.5v686h311v-669q0 -58 2 -88.5t10.5 -63.5t26.5 -48t49.5 -24.5t79.5 -9.5q39 0 66.5 5.5t46 20t29 30.5t16 46.5t7 58.5t1.5 75v667h305v-686q0 -138 -20 -225.5t-73 -150t-145 -89t-237 -26.5z" />
    <glyph glyph-name="v" unicode="v" horiz-adv-x="1062" 
d="M360 -10l-356 1171h324l211 -766l211 766h311l-361 -1171h-340z" />
    <glyph glyph-name="w" unicode="w" horiz-adv-x="1558" 
d="M303 -10l-283 1171h314l141 -680l170 680h285l168 -667l143 667h297l-281 -1171h-303l-174 651l-170 -651h-307z" />
    <glyph glyph-name="x" unicode="x" horiz-adv-x="1038" 
d="M698 0l-196 342l-183 -342h-315l344 610l-315 551h336l168 -295l153 295h316l-316 -563l342 -598h-334z" />
    <glyph glyph-name="y" unicode="y" horiz-adv-x="1019" 
d="M139 -324v248h131q40 0 56 11t24 38l6 27l-354 1161h317l197 -712l195 712h305l-383 -1251q-23 -74 -54 -121t-78.5 -71.5t-100 -33t-132.5 -8.5h-129z" />
    <glyph glyph-name="z" unicode="z" horiz-adv-x="915" 
d="M25 0v205l462 686h-434v270h824v-209l-467 -700h485v-252h-870z" />
    <glyph glyph-name="braceleft" unicode="{" horiz-adv-x="970" 
d="M614 -324q-196 0 -283 68.5t-87 208.5q0 60 42 242.5t42 210.5q0 58 -42.5 74t-172.5 16v260q130 0 172.5 15.5t42.5 72.5q0 39 -42 215t-42 237q0 140 86.5 209.5t279.5 69.5h226v-266h-127q-73 0 -109.5 -25t-36.5 -90q0 -41 37 -193t37 -210q0 -126 -115 -164
q115 -43 115 -166q0 -71 -37 -224.5t-37 -183.5q0 -123 146 -123h127v-254h-222z" />
    <glyph glyph-name="bar" unicode="|" horiz-adv-x="673" 
d="M180 -324v1899h316v-1899h-316z" />
    <glyph glyph-name="braceright" unicode="}" horiz-adv-x="970" 
d="M137 -324v254h125q148 0 148 123q0 30 -38 183.5t-38 224.5q0 125 115 166q-115 41 -115 164q0 58 38 210t38 193q0 65 -37 90t-111 25h-125v266h223q193 0 280 -69.5t87 -209.5q0 -61 -42 -237t-42 -215q0 -56 42 -71t175 -15v-262q-132 0 -174.5 -15.5t-42.5 -74.5
q0 -28 42 -210.5t42 -242.5q0 -140 -87 -208.5t-282 -68.5h-221z" />
    <glyph glyph-name="asciitilde" unicode="~" horiz-adv-x="997" 
d="M260 737l-199 115q60 117 131.5 171t167.5 54q47 0 95 -22t86 -44t61 -22q32 0 61 22.5t68 75.5l197 -114q-61 -118 -131 -173t-166 -55q-48 0 -96 21.5t-86 43t-60 21.5q-33 0 -63 -21.5t-66 -72.5z" />
    <glyph glyph-name="exclamdown" unicode="&#xa1;" horiz-adv-x="706" 
d="M184 0l29 1044h283l26 -1044h-338zM178 1157v361h352v-361h-352z" />
    <glyph glyph-name="cent" unicode="&#xa2;" horiz-adv-x="976" 
d="M406 -195v203q-94 20 -158 67.5t-100 123.5t-51 168t-15 217q0 97 8.5 172.5t30.5 144t58.5 117.5t93 85t133.5 54v164h299v-152q115 -14 202 -55l-131 -262q-77 41 -172 41q-117 0 -161 -71t-44 -249q0 -179 44 -250t167 -71q88 0 195 47l115 -231q-106 -56 -215 -68
v-195h-299z" />
    <glyph glyph-name="sterling" unicode="&#xa3;" horiz-adv-x="1161" 
d="M786 -10q-190 0 -364 82q-110 -72 -391 -72v270q68 0 107.5 3t70 10t43.5 23t18.5 38t5.5 59q0 70 -36 236h-203v250h145q-32 156 -32 241q0 210 114 308t352 98q257 0 439 -92l-131 -252q-59 29 -144.5 44t-161.5 15q-161 0 -161 -157q0 -68 24 -205h293v-250h-246
q29 -159 29 -231q0 -47 -8 -121q100 -35 196 -35q63 0 84 35t21 116v117h270v-129q0 -221 -74 -311t-260 -90z" />
    <glyph glyph-name="currency" unicode="&#xa4;" horiz-adv-x="1247" 
d="M47 811v219h209q22 180 82 289.5t171.5 163t285.5 53.5q236 0 397 -96l-145 -262q-115 59 -254 59q-100 0 -152 -48.5t-72 -158.5h349v-219h-365v-106h365v-220h-349q21 -114 72.5 -165.5t151.5 -51.5q129 0 258 68l139 -248q-185 -106 -418 -106q-246 0 -365.5 118
t-150.5 385h-209v220h195v106h-195z" />
    <glyph glyph-name="yen" unicode="&#xa5;" horiz-adv-x="1187" 
d="M125 442v220h305l-416 856h330l250 -582l252 582h325l-413 -856h305v-220h-320v-108h320v-219h-320v-115h-301v115h-317v219h317v108h-317z" />
    <glyph glyph-name="brokenbar" unicode="&#xa6;" horiz-adv-x="673" 
d="M180 -324v785h316v-785h-316zM180 791v784h316v-784h-316z" />
    <glyph glyph-name="section" unicode="&#xa7;" horiz-adv-x="1001" 
d="M258 -10q-57 0 -115 4v242h82q78 0 101.5 30t23.5 101v61q-134 24 -191 102t-57 222q0 143 57 223.5t191 105.5v45q0 62 5.5 109.5t20 95.5t42.5 81.5t69.5 60.5t104 40t143.5 13q57 0 115 -4v-254h-82q-78 0 -101.5 -30t-23.5 -103v-54q138 -24 197 -104t59 -225
t-58.5 -223.5t-197.5 -102.5v-37q0 -53 -4 -94.5t-14.5 -84.5t-29 -74.5t-47.5 -60t-69 -46.5t-96 -28.5t-125 -10.5zM500 618q81 0 118 30t37 95q0 66 -36.5 95.5t-118.5 29.5q-80 0 -117 -29.5t-37 -95.5q0 -65 37.5 -95t116.5 -30z" />
    <glyph glyph-name="dieresis" unicode="&#xa8;" horiz-adv-x="997" 
d="M162 1270v274h274v-274h-274zM563 1270v274h273v-274h-273z" />
    <glyph glyph-name="copyright" unicode="&#xa9;" 
d="M696 283q-109 0 -184 33t-117 98.5t-60 150.5t-18 203q0 92 10 162t36 133t70 103t113.5 63.5t164.5 23.5q152 0 258 -67l-107 -164q-64 41 -157 41q-104 0 -145.5 -64t-41.5 -237q0 -171 42 -237t147 -66q91 0 167 51l99 -156q-62 -37 -124 -54t-153 -17zM684 -18
q-146 0 -256.5 39.5t-179.5 106.5t-111.5 168t-59 211.5t-16.5 250.5t16.5 251.5t59 213t111.5 169t179.5 107t256.5 39.5t256 -39.5t179.5 -107t112.5 -169t60 -213t17 -251.5q0 -139 -17 -250.5t-60 -212t-112.5 -168t-179.5 -106.5t-256 -39zM684 92q120 0 210 34
t145.5 91t90 144t47.5 182t13 215q0 121 -13 216t-47.5 182t-90 144t-145.5 91t-210 34t-209.5 -34t-145 -91t-89.5 -144t-47 -182t-13 -216q0 -120 13 -214.5t47 -182t89.5 -144.5t145 -91t209.5 -34z" />
    <glyph glyph-name="ordfeminine" unicode="&#xaa;" horiz-adv-x="1015" 
d="M375 565q-151 0 -214 77.5t-63 215.5q0 99 27 162.5t89.5 99.5t148.5 50t219 14h30q-2 68 -27 95.5t-96 27.5q-129 0 -239 -50l-100 205q148 74 368 74q192 0 265 -72t73 -250v-348q0 -44 11.5 -57.5t54.5 -13.5v-222q-14 0 -39.5 -1t-36.5 -1q-97 0 -139.5 18.5
t-61.5 80.5q-37 -59 -96.5 -82t-173.5 -23zM129 242v221h748v-221h-748zM453 770q79 0 119 36t40 128v74h-30q-144 0 -194 -23t-50 -98q0 -62 26.5 -89.5t88.5 -27.5z" />
    <glyph glyph-name="guillemotleft" unicode="&#xab;" horiz-adv-x="1339" 
d="M385 0l-256 580l256 581h272l-233 -581l233 -580h-272zM891 0l-256 580l256 581h270l-233 -581l233 -580h-270z" />
    <glyph glyph-name="logicalnot" unicode="&#xac;" horiz-adv-x="1703" 
d="M258 246q-88 105 -136 237t-48 277q0 144 48 276t136 236q6 -4 14 -12q-85 -103 -131.5 -231.5t-46.5 -268.5q0 -285 180 -500zM467 432q-117 143 -117 328q0 183 115 327q3 -2 8 -7t8 -7q-110 -136 -110 -313q0 -182 110 -314zM541 498q-92 116 -92 262t92 262
q3 -2 8 -7t8 -7q-88 -109 -88 -248t88 -248q-3 -2 -8 -7t-8 -7zM647 592q-57 72 -57 168q0 97 57 166l15 -15q-52 -69 -52 -151q0 -84 54 -154q-3 -2 -8.5 -7t-8.5 -7zM715 655q-33 48 -33 105q0 56 33 104q3 -2 8 -7t8 -7q-29 -44 -29 -90t29 -90q-3 -2 -16 -15zM774 709
q-14 25 -14 51t14 51l12 -10q-10 -20 -10 -41t10 -41q-4 -4 -12 -10zM852 123q-236 0 -412 158l2.5 2.5l5 5l5.5 5.5t2 1q171 -152 397 -152q227 0 395 152q2 -3 7.5 -8t7.5 -8q-177 -156 -410 -156zM852 664q-31 0 -55 18l12 12q21 -14 43 -14q26 0 43 14q4 -4 10 -12
q-21 -18 -53 -18zM987 653q-7 10 -14 15q28 42 28 92q0 51 -28 90l2.5 2.5t5 4.5t5.5 5t1 2q35 -44 35 -104t-35 -107zM598 551q-72 91 -72 209q0 119 74 209l14 -15q-67 -87 -67 -194q0 -108 67 -195q-10 -10 -16 -14zM852 -35q-145 0 -278 52.5t-238 146.5l14 16
q102 -92 231 -143t271 -51q285 0 500 192q0 1 3.5 -2.5t6.5 -7.5l4 -4q-104 -95 -236 -147t-278 -52zM852 248q-189 0 -330 125l15 16q134 -121 315 -121q182 0 313 121q2 -3 7.5 -8t7.5 -8q-138 -125 -328 -125zM852 348q-145 0 -264 101l14 14q108 -94 250 -94
q143 0 248 94q2 -3 7 -8.5t7 -8.5q-112 -98 -262 -98zM852 428q-116 0 -211 78l14 16q86 -73 197 -73t197 73q4 -4 12 -16q-91 -78 -209 -78zM852 543q-77 0 -135 49l14 16q51 -45 121 -45q68 0 119 45q2 -3 7 -8t7 -8q-58 -49 -133 -49zM733 911q-4 3 -7 6.5t-6 6.5l-3 4
q58 49 135 49t135 -49l-16 -17q-51 45 -119 45t-119 -45zM1167 1130q-134 121 -315 121q-179 0 -313 -118l-15 14q141 125 328 125q189 0 330 -125q-4 -6 -15 -17zM930 709l-12 10q10 20 10 41t-10 41l12 10q14 -25 14 -51t-14 -51zM958 682q-10 10 -16 14q21 32 21 64
t-21 63l16 15q25 -36 25 -78t-25 -78zM1020 627q-6 4 -16 14q38 50 38 119t-38 119l14 14q45 -57 45 -133q0 -71 -43 -133zM1106 551q-3 2 -8 7t-8 7q67 87 67 195t-70 194l17 15q74 -90 74 -209q0 -118 -72 -209zM1163 498q-10 10 -16 14q88 109 88 248t-88 248l16 14
q92 -116 92 -262t-92 -262zM1237 432q-6 4 -16 14q112 134 112 314q0 182 -112 313l16 14q117 -139 117 -327q0 -189 -117 -328zM1329 350q-2 2 -7 6t-7 6q141 175 141 398q0 227 -143 395l16 14q148 -179 148 -409q0 -231 -148 -410zM1446 246q-6 6 -16 14q180 215 180 500
t-180 500l16 14q88 -105 136 -237t48 -277q0 -144 -48 -276t-136 -238zM375 348q-148 182 -148 412q0 229 146 409q2 -2 7.5 -6.5t8.5 -7.5q-141 -170 -141 -395q0 -228 141 -398zM684 627q-43 59 -43 133t43 133q6 -4 16 -14q-38 -50 -38 -119q0 -67 38 -117zM745 682
q-24 34 -24 78t24 78q2 -3 4.5 -5.5t6 -5.5t4.5 -4q-19 -34 -19 -63q0 -30 19 -64zM809 825l-10 13q21 18 53 18t53 -18l-10 -13q-23 15 -43 15q-25 0 -43 -15zM786 852l-14 14q37 29 80 29q41 0 78 -29q-8 -8 -12 -14q-28 25 -66 25q-34 0 -66 -25zM760 881l-15 16
q45 39 107 39q61 0 106 -39l-14 -16q-37 34 -92 34t-92 -34zM604 1057l-14 16q112 98 262 98q151 0 262 -100q1 0 -2 -3.5t-6 -7.5l-4 -3q-108 94 -250 94q-143 0 -248 -94zM852 492q-100 0 -170 61l14 16q70 -57 156 -57q87 0 154 57l14 -14q-73 -63 -168 -63zM852 584
q-61 0 -109 39l15 16q47 -35 94 -35q51 0 92 35l14 -16q-45 -39 -106 -39zM852 625q-43 0 -82 28l14 15q36 -25 68 -25q34 0 66 25l14 -15q-36 -28 -80 -28zM698 950l-14 15q73 63 168 63q98 0 168 -61l-14 -17q-68 58 -154 58q-87 0 -154 -58zM655 997l-14 17q91 78 211 78
q119 0 209 -80l-12 -15q-83 74 -197 74q-110 0 -197 -74zM1249 1223q-166 153 -397 153q-227 0 -397 -151l-15 14q179 158 412 158t412 -158zM352 1339l-14 17q104 95 236 146.5t278 51.5q145 0 278 -52t238 -146l-14 -17q-102 93 -231 144t-271 51t-270 -51t-230 -144z
M1057 594l-15 14q52 69 52 152t-54 153l17 15q57 -72 57 -168q0 -97 -57 -166z" />
    <glyph glyph-name="registered" unicode="&#xae;" 
d="M684 -18q-146 0 -256.5 39.5t-179.5 106.5t-111.5 168t-59 211.5t-16.5 250.5t16.5 251.5t59 213t111.5 169t179.5 107t256.5 39.5t256 -39.5t179.5 -107t112.5 -169t60 -213t17 -251.5q0 -139 -17 -250.5t-60 -212t-112.5 -168t-179.5 -106.5t-256 -39zM684 92
q120 0 210 34t145.5 91t90 144t47.5 182t13 215q0 121 -13 216t-47.5 182t-90 144t-145.5 91t-210 34t-209.5 -34t-145 -91t-89.5 -144t-47 -182t-13 -216q0 -120 13 -214.5t47 -182t89.5 -144.5t145 -91t209.5 -34zM827 299l-143 328h-121v-328h-190v928h354q88 0 148 -19
t93 -58.5t46.5 -91t13.5 -124.5q0 -116 -36.5 -188t-125.5 -101l156 -346h-195zM563 780h156q68 0 95.5 32t27.5 108q0 77 -27.5 109t-95.5 32h-156v-281z" />
    <glyph glyph-name="macron" unicode="&#xaf;" horiz-adv-x="997" 
d="M129 1270v256h737v-256h-737z" />
    <glyph glyph-name="macron" unicode="&#x2c9;" horiz-adv-x="997" 
d="M129 1270v256h737v-256h-737z" />
    <glyph glyph-name="degree" unicode="&#xb0;" horiz-adv-x="970" 
d="M485 545q-99 0 -173 26.5t-119.5 70t-73.5 109t-38.5 134.5t-10.5 155q0 85 10.5 154t38.5 134.5t73.5 110t120 71t172.5 26.5q99 0 174 -26.5t121 -71t74.5 -109.5t39.5 -134.5t11 -154.5q0 -86 -11 -155t-39.5 -134.5t-74.5 -109t-121 -70t-174 -26.5zM485 776
q53 0 88 19t52.5 56.5t23.5 79t6 101.5t-6 101t-23.5 77.5t-52.5 55t-88 18.5q-52 0 -86.5 -18.5t-51.5 -55t-23.5 -78t-6.5 -100.5q0 -47 3.5 -82t14.5 -69.5t29 -56t48.5 -35t72.5 -13.5z" />
    <glyph glyph-name="plusminus" unicode="&#xb1;" horiz-adv-x="1933" 
d="M825 0v891h-303v-891h-309v891h-188v270h188v94q0 357 405 357q91 0 107 -2v-269h-76q-78 0 -102.5 -27t-24.5 -93v-60h303v94q0 357 408 357q90 0 104 -2v-269h-75q-76 0 -101.5 -27.5t-25.5 -92.5v-60h202v-270h-202v-891h-310zM1870 0q-24 -4 -115 -4q-83 0 -139 15
t-97 52t-60 102.5t-19 164.5v1245h309v-1202q0 -49 6.5 -68t31 -28t83.5 -9v-268z" />
    <glyph glyph-name="twosuperior" unicode="&#xb2;" horiz-adv-x="882" 
d="M92 524v181l252 268q108 116 134 155t26 84q0 56 -27.5 74.5t-89.5 18.5q-99 0 -197 -48l-104 203q144 70 342 70q320 0 320 -273q0 -118 -42.5 -196t-183.5 -221l-112 -115h356v-201h-674z" />
    <glyph glyph-name="threesuperior" unicode="&#xb3;" horiz-adv-x="894" 
d="M424 512q-212 0 -340 76l104 190q101 -55 215 -55q87 0 114.5 26t27.5 97q0 58 -30.5 79t-123.5 21h-153v197h153q76 0 102.5 18.5t26.5 67.5q0 52 -25 67t-96 15q-112 0 -204 -45l-99 190q58 33 152.5 53.5t193.5 20.5q161 0 240.5 -52.5t79.5 -189.5q0 -93 -20 -144.5
t-76 -74.5q71 -24 95.5 -77.5t24.5 -172.5q0 -167 -88.5 -237t-273.5 -70z" />
    <glyph glyph-name="acute" unicode="&#xb4;" horiz-adv-x="997" 
d="M317 1270l218 375h342l-295 -375h-265z" />
    <glyph glyph-name="mu" unicode="&#xb5;" horiz-adv-x="1136" 
d="M98 -324v1485h312v-669q0 -36 0.5 -57.5t3 -48t7 -41t12 -31.5t19.5 -25.5t29.5 -16.5t40.5 -11t53 -3q47 0 78 9.5t49 25t27 48.5t11.5 64.5t2.5 88.5v667h304v-686q0 -137 -19.5 -225t-71 -150.5t-140.5 -89t-228 -26.5q-56 0 -106.5 13t-73.5 36v-357h-310z" />
    <glyph glyph-name="mu" unicode="&#x3bc;" horiz-adv-x="1136" 
d="M98 -324v1485h312v-669q0 -36 0.5 -57.5t3 -48t7 -41t12 -31.5t19.5 -25.5t29.5 -16.5t40.5 -11t53 -3q47 0 78 9.5t49 25t27 48.5t11.5 64.5t2.5 88.5v667h304v-686q0 -137 -19.5 -225t-71 -150.5t-140.5 -89t-228 -26.5q-56 0 -106.5 13t-73.5 36v-357h-310z" />
    <glyph glyph-name="paragraph" unicode="&#xb6;" horiz-adv-x="1173" 
d="M346 0v541q-162 48 -226.5 166t-64.5 309q0 98 14.5 172t51.5 138.5t98 105t156.5 63.5t224.5 23h471v-1518h-301v510h-123v-510h-301zM594 776h176v463h-176q-126 0 -175.5 -53t-49.5 -180q0 -125 50 -177.5t175 -52.5z" />
    <glyph glyph-name="periodcentered" unicode="&#xb7;" horiz-adv-x="532" 
d="M90 569v375h352v-375h-352z" />
    <glyph glyph-name="periodcentered" unicode="&#x2219;" horiz-adv-x="532" 
d="M90 569v375h352v-375h-352z" />
    <glyph glyph-name="cedilla" unicode="&#xb8;" horiz-adv-x="997" 
d="M512 -498q-131 0 -242 54l66 143q80 -31 153 -31q59 0 81 18t22 60q0 48 -31.5 60.5t-116.5 7.5l-53 39l33 161h168l-19 -100q105 7 161.5 -34.5t56.5 -155.5q0 -119 -64 -170.5t-215 -51.5z" />
    <glyph glyph-name="onesuperior" unicode="&#xb9;" horiz-adv-x="657" 
d="M229 524v768h-139v226h397v-994h-258z" />
    <glyph glyph-name="ordmasculine" unicode="&#xba;" horiz-adv-x="1015" 
d="M508 561q-97 0 -169.5 22.5t-119 63t-75 103t-39.5 134t-11 165.5q0 117 18.5 201t63.5 151t128 101t204 34q99 0 172.5 -23.5t120 -63.5t74.5 -103t38.5 -134t10.5 -163q0 -95 -10.5 -166.5t-38.5 -134.5t-74.5 -102.5t-119.5 -62t-173 -22.5zM508 782q43 0 72.5 12
t46.5 31.5t26.5 55t12 71t2.5 90.5t-2.5 90t-12 70t-26.5 54.5t-46.5 31.5t-72.5 12q-42 0 -71 -12t-46.5 -31.5t-27 -54t-12.5 -71t-3 -89.5q0 -54 3 -90.5t12.5 -71t27 -54.5t46.5 -32t71 -12zM129 242v221h756v-221h-756z" />
    <glyph glyph-name="guillemotright" unicode="&#xbb;" horiz-adv-x="1339" 
d="M176 0l236 582l-236 579h273l256 -579l-256 -582h-273zM682 0l233 582l-233 579h272l254 -579l-254 -582h-272z" />
    <glyph glyph-name="onequarter" unicode="&#xbc;" horiz-adv-x="1845" 
d="M383 0l698 1518h275l-697 -1518h-276zM1001 168v186l347 639h254l-342 -626h163l43 213h185v-213h121v-199h-121v-168h-230v168h-420zM236 524v768h-138v226h396v-994h-258z" />
    <glyph glyph-name="onehalf" unicode="&#xbd;" horiz-adv-x="1935" 
d="M383 0l698 1518h275l-697 -1518h-276zM236 524v768h-138v226h396v-994h-258zM1163 0v180l252 269q109 117 134.5 155t25.5 84q0 56 -26.5 74t-90.5 18q-100 0 -196 -47l-103 203q148 72 342 72q320 0 320 -275q0 -116 -44.5 -196.5t-183.5 -221.5l-112 -114h356v-201
h-674z" />
    <glyph glyph-name="threequarters" unicode="&#xbe;" horiz-adv-x="2027" 
d="M424 512q-212 0 -340 76l104 190q101 -55 215 -55q87 0 114.5 26t27.5 97q0 58 -30.5 79t-123.5 21h-153v197h153q76 0 102.5 18.5t26.5 67.5q0 52 -25 67t-96 15q-112 0 -204 -45l-99 190q58 33 152.5 53.5t193.5 20.5q161 0 240.5 -52.5t79.5 -189.5q0 -93 -20 -144.5
t-76 -74.5q71 -24 95.5 -77.5t24.5 -172.5q0 -167 -88.5 -237t-273.5 -70zM565 0l699 1518h274l-696 -1518h-277zM1184 168v186l348 639h254l-342 -626h164l43 213h184v-213h119v-199h-119v-168h-229v168h-422z" />
    <glyph glyph-name="questiondown" unicode="&#xbf;" horiz-adv-x="1185" 
d="M582 -18q-132 0 -224.5 26t-143.5 76.5t-73 114t-22 149.5q0 64 10.5 116t24.5 87t44.5 71.5t54.5 58.5t69 60q44 36 69 58t46 48t29.5 42.5t14.5 48.5t6.5 57.5t-0.5 77.5h304q0 -76 -3.5 -119.5t-13.5 -89t-34 -80t-60 -72t-96 -85.5q-92 -75 -122 -115t-30 -102
q0 -71 42.5 -106.5t160.5 -35.5q146 0 305 76l135 -260q-206 -102 -493 -102zM463 1196v322h352v-322h-352z" />
    <glyph glyph-name="Agrave" unicode="&#xc0;" horiz-adv-x="1343" 
d="M27 0l473 1528h344l473 -1528h-330l-69 236h-502l-68 -236h-321zM492 518h348l-172 576zM588 1596l-297 375h344l217 -375h-264z" />
    <glyph glyph-name="Aacute" unicode="&#xc1;" horiz-adv-x="1343" 
d="M27 0l473 1528h344l473 -1528h-330l-69 236h-502l-68 -236h-321zM492 518h348l-172 576zM489 1596l218 375h342l-295 -375h-265z" />
    <glyph glyph-name="Acircumflex" unicode="&#xc2;" horiz-adv-x="1343" 
d="M27 0l473 1528h344l473 -1528h-330l-69 236h-502l-68 -236h-321zM492 518h348l-172 576zM305 1596l223 375h285l225 -375h-245l-125 162l-123 -162h-240z" />
    <glyph glyph-name="Atilde" unicode="&#xc3;" horiz-adv-x="1343" 
d="M27 0l473 1528h344l473 -1528h-330l-69 236h-502l-68 -236h-321zM492 518h348l-172 576zM432 1583l-199 115q60 117 131.5 171t167.5 54q47 0 95 -22t86 -44t61 -22q32 0 61 23t68 76l197 -115q-61 -118 -131 -172.5t-166 -54.5q-48 0 -96 21.5t-86 43t-60 21.5
q-63 0 -129 -95z" />
    <glyph glyph-name="Adieresis" unicode="&#xc4;" horiz-adv-x="1343" 
d="M27 0l473 1528h344l473 -1528h-330l-69 236h-502l-68 -236h-321zM492 518h348l-172 576zM334 1596v274h274v-274h-274zM735 1596v274h273v-274h-273z" />
    <glyph glyph-name="Aring" unicode="&#xc5;" horiz-adv-x="1343" 
d="M27 0l450 1456q-59 71 -59 201q0 128 60 203t192 75q130 0 192 -75.5t62 -202.5q0 -125 -60 -197l453 -1460h-330l-69 236h-502l-68 -236h-321zM492 518h348l-172 576zM670 1530q56 0 78 32.5t22 94.5q0 63 -22 96t-78 33q-101 0 -101 -129q0 -61 23 -94t78 -33z" />
    <glyph glyph-name="AE" unicode="&#xc6;" horiz-adv-x="1925" 
d="M18 0l725 1518h1096v-293h-622v-307h593v-287h-593v-344h624v-287h-938v240h-457l-112 -240h-316zM575 514h328v684z" />
    <glyph glyph-name="Ccedilla" unicode="&#xc7;" horiz-adv-x="1155" 
d="M590 -498q-131 0 -242 54l66 143q80 -31 153 -31q59 0 81 18t22 60q0 48 -31.5 60.5t-116.5 7.5l-53 39l29 145q-100 19 -176.5 64t-126.5 111t-81.5 157.5t-45 195t-13.5 232.5q0 147 16 259t58.5 213t112.5 166t182 102.5t264 37.5q244 0 412 -111l-172 -266
q-100 64 -250 64q-82 0 -136 -21.5t-91.5 -75.5t-53.5 -145t-16 -231q0 -184 30 -288t94 -148t175 -44q81 0 141.5 18t126.5 60l158 -248q-97 -61 -197 -89.5t-245 -28.5l-13 -68q105 7 161 -34.5t56 -155.5q0 -119 -63.5 -170.5t-214.5 -51.5z" />
    <glyph glyph-name="Egrave" unicode="&#xc8;" horiz-adv-x="1140" 
d="M119 0v1518h936v-293h-623v-303h596v-291h-596v-344h625v-287h-938zM488 1596l-297 375h344l217 -375h-264z" />
    <glyph glyph-name="Eacute" unicode="&#xc9;" horiz-adv-x="1140" 
d="M389 1595l217 375h342l-295 -375h-264zM119 0v1518h936v-293h-623v-303h596v-291h-596v-344h625v-287h-938z" />
    <glyph glyph-name="Ecircumflex" unicode="&#xca;" horiz-adv-x="1140" 
d="M205 1595l223 375h285l225 -375h-246l-125 162l-123 -162h-239zM119 0v1518h936v-293h-623v-303h596v-291h-596v-344h625v-287h-938z" />
    <glyph glyph-name="Edieresis" unicode="&#xcb;" horiz-adv-x="1140" 
d="M233 1595v275h275v-275h-275zM635 1595v275h272v-275h-272zM119 0v1518h936v-293h-623v-303h596v-291h-596v-344h625v-287h-938z" />
    <glyph glyph-name="Igrave" unicode="&#xcc;" horiz-adv-x="593" 
d="M182 1597l-264 375h342l186 -375h-264zM137 0v1518h320v-1518h-320z" />
    <glyph glyph-name="Iacute" unicode="&#xcd;" horiz-adv-x="593" 
d="M145 1597l189 375h340l-266 -375h-263zM137 0v1518h320v-1518h-320z" />
    <glyph glyph-name="Icircumflex" unicode="&#xce;" horiz-adv-x="593" 
d="M-68 1597l222 375h284l224 -375h-246l-123 162l-121 -162h-240zM137 0v1518h320v-1518h-320z" />
    <glyph glyph-name="Idieresis" unicode="&#xcf;" horiz-adv-x="593" 
d="M137 0v1518h320v-1518h-320zM-39 1596v274h274v-274h-274zM362 1596v274h273v-274h-273z" />
    <glyph glyph-name="Eth" unicode="&#xd0;" horiz-adv-x="1314" 
d="M0 635v260h119v623h473q185 0 308 -36.5t205.5 -125t118.5 -233t36 -363.5q0 -179 -23.5 -306.5t-71.5 -216.5t-129 -140.5t-187.5 -74t-256.5 -22.5h-473v635h-119zM440 279h181q88 0 144 20t95.5 73.5t56.5 146.5t17 239t-16.5 236.5t-57.5 142t-98.5 70t-149.5 18.5
h-172v-330h215v-260h-215v-356z" />
    <glyph glyph-name="Ntilde" unicode="&#xd1;" horiz-adv-x="1378" 
d="M119 0v1518h340l497 -875v875h306v-1518h-295l-543 946v-946h-305zM448 1583l-199 115q60 117 131.5 171t167.5 54q47 0 95 -22t86 -44t61 -22q32 0 61 23t68 76l197 -115q-61 -118 -131 -172.5t-166 -54.5q-48 0 -96 21.5t-86 43t-60 21.5q-63 0 -129 -95z" />
    <glyph glyph-name="Ograve" unicode="&#xd2;" 
d="M684 -18q-114 0 -205.5 22t-156.5 59.5t-113.5 95t-77.5 120.5t-46.5 145.5t-23.5 160.5t-6 173q0 96 6 174t23.5 160.5t46.5 146t77.5 121t113.5 95t156.5 59.5t205.5 22t205.5 -22t156.5 -59.5t113.5 -95t77.5 -121t46.5 -146t23.5 -160.5t6 -174q0 -95 -6 -173
t-23.5 -160.5t-46.5 -145.5t-77.5 -120.5t-113.5 -95t-156.5 -59.5t-205.5 -22zM684 266q57 0 102 12t76.5 33t54 55t36 71.5t21.5 90t10.5 103t2.5 117.5t-2.5 117t-10.5 102.5t-21.5 89.5t-36 71t-54 54.5t-76.5 32.5t-102 12t-102 -12t-76.5 -32.5t-54 -54.5t-36 -71
t-21.5 -89.5t-10.5 -102.5t-2.5 -117t2.5 -117.5t10.5 -103t21.5 -90t36 -71.5t54 -55t76.5 -33t102 -12zM600 1596l-297 375h344l217 -375h-264z" />
    <glyph glyph-name="Oacute" unicode="&#xd3;" 
d="M502 1595l217 375h342l-295 -375h-264zM684 -18q-114 0 -205.5 22t-156.5 59.5t-113.5 95t-77.5 120.5t-46.5 145.5t-23.5 160.5t-6 173q0 96 6 174t23.5 160.5t46.5 146t77.5 121t113.5 95t156.5 59.5t205.5 22t205.5 -22t156.5 -59.5t113.5 -95t77.5 -121t46.5 -146
t23.5 -160.5t6 -174q0 -95 -6 -173t-23.5 -160.5t-46.5 -145.5t-77.5 -120.5t-113.5 -95t-156.5 -59.5t-205.5 -22zM684 266q57 0 102 12t76.5 33t54 55t36 71.5t21.5 90t10.5 103t2.5 117.5t-2.5 117t-10.5 102.5t-21.5 89.5t-36 71t-54 54.5t-76.5 32.5t-102 12t-102 -12
t-76.5 -32.5t-54 -54.5t-36 -71t-21.5 -89.5t-10.5 -102.5t-2.5 -117t2.5 -117.5t10.5 -103t21.5 -90t36 -71.5t54 -55t76.5 -33t102 -12z" />
    <glyph glyph-name="Ocircumflex" unicode="&#xd4;" 
d="M317 1595l224 375h284l226 -375h-246l-125 162l-123 -162h-240zM684 -18q-114 0 -205.5 22t-156.5 59.5t-113.5 95t-77.5 120.5t-46.5 145.5t-23.5 160.5t-6 173q0 96 6 174t23.5 160.5t46.5 146t77.5 121t113.5 95t156.5 59.5t205.5 22t205.5 -22t156.5 -59.5t113.5 -95
t77.5 -121t46.5 -146t23.5 -160.5t6 -174q0 -95 -6 -173t-23.5 -160.5t-46.5 -145.5t-77.5 -120.5t-113.5 -95t-156.5 -59.5t-205.5 -22zM684 266q57 0 102 12t76.5 33t54 55t36 71.5t21.5 90t10.5 103t2.5 117.5t-2.5 117t-10.5 102.5t-21.5 89.5t-36 71t-54 54.5
t-76.5 32.5t-102 12t-102 -12t-76.5 -32.5t-54 -54.5t-36 -71t-21.5 -89.5t-10.5 -102.5t-2.5 -117t2.5 -117.5t10.5 -103t21.5 -90t36 -71.5t54 -55t76.5 -33t102 -12z" />
    <glyph glyph-name="Otilde" unicode="&#xd5;" 
d="M684 -18q-114 0 -205.5 22t-156.5 59.5t-113.5 95t-77.5 120.5t-46.5 145.5t-23.5 160.5t-6 173q0 96 6 174t23.5 160.5t46.5 146t77.5 121t113.5 95t156.5 59.5t205.5 22t205.5 -22t156.5 -59.5t113.5 -95t77.5 -121t46.5 -146t23.5 -160.5t6 -174q0 -95 -6 -173
t-23.5 -160.5t-46.5 -145.5t-77.5 -120.5t-113.5 -95t-156.5 -59.5t-205.5 -22zM684 266q57 0 102 12t76.5 33t54 55t36 71.5t21.5 90t10.5 103t2.5 117.5t-2.5 117t-10.5 102.5t-21.5 89.5t-36 71t-54 54.5t-76.5 32.5t-102 12t-102 -12t-76.5 -32.5t-54 -54.5t-36 -71
t-21.5 -89.5t-10.5 -102.5t-2.5 -117t2.5 -117.5t10.5 -103t21.5 -90t36 -71.5t54 -55t76.5 -33t102 -12zM444 1583l-199 115q60 117 131.5 171t167.5 54q47 0 95 -22t86 -44t61 -22q32 0 61 23t68 76l197 -115q-61 -118 -131 -172.5t-166 -54.5q-48 0 -96 21.5t-86 43
t-60 21.5q-63 0 -129 -95z" />
    <glyph glyph-name="Odieresis" unicode="&#xd6;" 
d="M346 1595v275h275v-275h-275zM748 1595v275h272v-275h-272zM684 -18q-114 0 -205.5 22t-156.5 59.5t-113.5 95t-77.5 120.5t-46.5 145.5t-23.5 160.5t-6 173q0 96 6 174t23.5 160.5t46.5 146t77.5 121t113.5 95t156.5 59.5t205.5 22t205.5 -22t156.5 -59.5t113.5 -95
t77.5 -121t46.5 -146t23.5 -160.5t6 -174q0 -95 -6 -173t-23.5 -160.5t-46.5 -145.5t-77.5 -120.5t-113.5 -95t-156.5 -59.5t-205.5 -22zM684 266q57 0 102 12t76.5 33t54 55t36 71.5t21.5 90t10.5 103t2.5 117.5t-2.5 117t-10.5 102.5t-21.5 89.5t-36 71t-54 54.5
t-76.5 32.5t-102 12t-102 -12t-76.5 -32.5t-54 -54.5t-36 -71t-21.5 -89.5t-10.5 -102.5t-2.5 -117t2.5 -117.5t10.5 -103t21.5 -90t36 -71.5t54 -55t76.5 -33t102 -12z" />
    <glyph glyph-name="multiply" unicode="&#xd7;" horiz-adv-x="1247" 
d="M369 274l-189 193l254 254l-252 252l189 192l252 -252l254 252l188 -192l-254 -252l252 -250l-186 -195l-254 252z" />
    <glyph glyph-name="Oslash" unicode="&#xd8;" 
d="M160 -84l92 197q-112 99 -154.5 261t-42.5 384q0 96 6 174t23.5 160.5t46.5 146t77.5 121t113.5 95t156.5 59.5t205.5 22q109 0 209 -23l43 91h274l-96 -199q59 -52 99.5 -123t61.5 -157.5t29.5 -173t8.5 -193.5q0 -95 -6 -173t-23.5 -160.5t-46.5 -145.5t-77.5 -120.5
t-113.5 -95t-156.5 -59.5t-205.5 -22q-115 0 -211 22l-41 -88h-272zM684 252q59 0 105 12.5t79 33.5t56.5 56t37.5 73.5t22 93t10.5 106t2.5 121.5q0 232 -43 335l-372 -821q52 -10 102 -10zM371 748q0 -228 37 -328l366 813q-54 8 -90 8q-59 0 -105 -12.5t-79 -33.5
t-56.5 -56t-37.5 -73.5t-22 -92.5t-10.5 -105t-2.5 -120z" />
    <glyph glyph-name="Ugrave" unicode="&#xd9;" 
d="M684 -23q-160 0 -271.5 35.5t-178 108t-96 172.5t-29.5 239v986h321v-955q0 -82 11 -134.5t39.5 -91t79 -55t128.5 -16.5q150 0 205 66.5t55 230.5v955h312v-986q0 -140 -28.5 -239.5t-94.5 -172t-178.5 -108t-274.5 -35.5zM598 1596l-297 375h344l217 -375h-264z" />
    <glyph glyph-name="Uacute" unicode="&#xda;" 
d="M500 1595l217 375h342l-295 -375h-264zM684 -23q-160 0 -271.5 35.5t-178 108t-96 172.5t-29.5 239v986h321v-955q0 -82 11 -134.5t39.5 -91t79 -55t128.5 -16.5q150 0 205 66.5t55 230.5v955h312v-986q0 -140 -28.5 -239.5t-94.5 -172t-178.5 -108t-274.5 -35.5z" />
    <glyph glyph-name="Ucircumflex" unicode="&#xdb;" 
d="M315 1595l224 375h284l226 -375h-246l-125 162l-123 -162h-240zM684 -23q-160 0 -271.5 35.5t-178 108t-96 172.5t-29.5 239v986h321v-955q0 -82 11 -134.5t39.5 -91t79 -55t128.5 -16.5q150 0 205 66.5t55 230.5v955h312v-986q0 -140 -28.5 -239.5t-94.5 -172
t-178.5 -108t-274.5 -35.5z" />
    <glyph glyph-name="Udieresis" unicode="&#xdc;" 
d="M344 1595v275h274v-275h-274zM745 1595v275h273v-275h-273zM684 -23q-160 0 -271.5 35.5t-178 108t-96 172.5t-29.5 239v986h321v-955q0 -82 11 -134.5t39.5 -91t79 -55t128.5 -16.5q150 0 205 66.5t55 230.5v955h312v-986q0 -140 -28.5 -239.5t-94.5 -172t-178.5 -108
t-274.5 -35.5z" />
    <glyph glyph-name="Yacute" unicode="&#xdd;" horiz-adv-x="1282" 
d="M479 0v514l-483 1004h342l307 -662l309 662h330l-485 -1008v-510h-320zM458 1596l218 375h342l-295 -375h-265z" />
    <glyph glyph-name="Thorn" unicode="&#xde;" horiz-adv-x="1245" 
d="M119 0v1518h315v-224h268q147 0 246.5 -33t154.5 -100t77 -154t22 -210q0 -97 -13 -172t-47 -141t-90.5 -109t-145.5 -67.5t-210 -24.5h-262v-283h-315zM434 553h258q109 0 153 53t44 176q0 127 -44 180.5t-153 53.5h-258v-463z" />
    <glyph glyph-name="germandbls" unicode="&#xdf;" horiz-adv-x="1181" 
d="M98 0v1151q0 444 482 444q252 0 360.5 -95.5t108.5 -303.5q0 -166 -31 -249t-109 -116q124 -27 171.5 -116t47.5 -281q0 -169 -50 -261.5t-165 -132.5t-325 -40h-70v276h70q137 0 185 44t48 159q0 111 -48.5 150t-188.5 39h-41v243h41q90 0 129 45t39 152
q0 105 -39.5 147.5t-132.5 42.5t-135 -43t-42 -137v-1118h-305z" />
    <glyph glyph-name="agrave" unicode="&#xe0;" horiz-adv-x="1116" 
d="M414 -14q-89 0 -154.5 18.5t-106 49t-64.5 78.5t-33 99.5t-9 118.5q0 122 33.5 202.5t109.5 128.5t183.5 67.5t269.5 19.5h41q-5 75 -37.5 106t-116.5 31q-168 0 -294 -61l-125 250q177 92 454 92q160 0 251 -40t129 -124t38 -231v-433q0 -57 13.5 -73.5t66.5 -16.5v-268
q-33 -4 -92 -4q-115 0 -164 18.5t-74 77.5q-46 -56 -120.5 -81t-198.5 -25zM485 240q98 0 148.5 44.5t50.5 157.5v107h-39q-175 0 -239 -33t-64 -131q0 -78 32.5 -111.5t110.5 -33.5zM475 1270l-297 375h344l217 -375h-264z" />
    <glyph glyph-name="aacute" unicode="&#xe1;" horiz-adv-x="1116" 
d="M414 -14q-89 0 -154.5 18.5t-106 49t-64.5 78.5t-33 99.5t-9 118.5q0 122 33.5 202.5t109.5 128.5t183.5 67.5t269.5 19.5h41q-5 75 -37.5 106t-116.5 31q-168 0 -294 -61l-125 250q177 92 454 92q160 0 251 -40t129 -124t38 -231v-433q0 -57 13.5 -73.5t66.5 -16.5v-268
q-33 -4 -92 -4q-115 0 -164 18.5t-74 77.5q-46 -56 -120.5 -81t-198.5 -25zM485 240q98 0 148.5 44.5t50.5 157.5v107h-39q-175 0 -239 -33t-64 -131q0 -78 32.5 -111.5t110.5 -33.5zM376 1270l218 375h342l-295 -375h-265z" />
    <glyph glyph-name="acircumflex" unicode="&#xe2;" horiz-adv-x="1116" 
d="M414 -14q-89 0 -154.5 18.5t-106 49t-64.5 78.5t-33 99.5t-9 118.5q0 122 33.5 202.5t109.5 128.5t183.5 67.5t269.5 19.5h41q-5 75 -37.5 106t-116.5 31q-168 0 -294 -61l-125 250q177 92 454 92q160 0 251 -40t129 -124t38 -231v-433q0 -57 13.5 -73.5t66.5 -16.5v-268
q-33 -4 -92 -4q-115 0 -164 18.5t-74 77.5q-46 -56 -120.5 -81t-198.5 -25zM485 240q98 0 148.5 44.5t50.5 157.5v107h-39q-175 0 -239 -33t-64 -131q0 -78 32.5 -111.5t110.5 -33.5zM192 1270l223 375h285l225 -375h-245l-125 162l-123 -162h-240z" />
    <glyph glyph-name="atilde" unicode="&#xe3;" horiz-adv-x="1116" 
d="M414 -14q-89 0 -154.5 18.5t-106 49t-64.5 78.5t-33 99.5t-9 118.5q0 122 33.5 202.5t109.5 128.5t183.5 67.5t269.5 19.5h41q-5 75 -37.5 106t-116.5 31q-168 0 -294 -61l-125 250q177 92 454 92q160 0 251 -40t129 -124t38 -231v-433q0 -57 13.5 -73.5t66.5 -16.5v-268
q-33 -4 -92 -4q-115 0 -164 18.5t-74 77.5q-46 -56 -120.5 -81t-198.5 -25zM485 240q98 0 148.5 44.5t50.5 157.5v107h-39q-175 0 -239 -33t-64 -131q0 -78 32.5 -111.5t110.5 -33.5zM319 1257l-199 115q60 117 131.5 171t167.5 54q47 0 95 -22t86 -44t61 -22q32 0 61 23
t68 76l197 -115q-61 -118 -131 -172.5t-166 -54.5q-48 0 -96 21.5t-86 43t-60 21.5q-63 0 -129 -95z" />
    <glyph glyph-name="adieresis" unicode="&#xe4;" horiz-adv-x="1116" 
d="M414 -14q-89 0 -154.5 18.5t-106 49t-64.5 78.5t-33 99.5t-9 118.5q0 122 33.5 202.5t109.5 128.5t183.5 67.5t269.5 19.5h41q-5 75 -37.5 106t-116.5 31q-168 0 -294 -61l-125 250q177 92 454 92q160 0 251 -40t129 -124t38 -231v-433q0 -57 13.5 -73.5t66.5 -16.5v-268
q-33 -4 -92 -4q-115 0 -164 18.5t-74 77.5q-46 -56 -120.5 -81t-198.5 -25zM485 240q98 0 148.5 44.5t50.5 157.5v107h-39q-175 0 -239 -33t-64 -131q0 -78 32.5 -111.5t110.5 -33.5zM221 1270v274h274v-274h-274zM622 1270v274h273v-274h-273z" />
    <glyph glyph-name="aring" unicode="&#xe5;" horiz-adv-x="1116" 
d="M414 -14q-89 0 -154.5 18.5t-106 49t-64.5 78.5t-33 99.5t-9 118.5q0 122 33.5 202.5t109.5 128.5t183.5 67.5t269.5 19.5h41q-5 75 -37.5 106t-116.5 31q-168 0 -294 -61l-125 250q177 92 454 92q160 0 251 -40t129 -124t38 -231v-433q0 -57 13.5 -73.5t66.5 -16.5v-268
q-33 -4 -92 -4q-115 0 -164 18.5t-74 77.5q-46 -56 -120.5 -81t-198.5 -25zM485 240q98 0 148.5 44.5t50.5 157.5v107h-39q-175 0 -239 -33t-64 -131q0 -78 32.5 -111.5t110.5 -33.5zM557 1251q-132 0 -192 74.5t-60 200.5q0 128 60 203t192 75q130 0 192 -75.5t62 -202.5
q0 -125 -62 -200t-192 -75zM557 1399q56 0 78 32.5t22 94.5q0 63 -22 96t-78 33q-101 0 -101 -129q0 -61 23 -94t78 -33z" />
    <glyph glyph-name="ae" unicode="&#xe6;" horiz-adv-x="1681" 
d="M1174 -14q-259 0 -369 141q-49 -70 -139 -105.5t-252 -35.5q-89 0 -154.5 18.5t-106 49t-64.5 78.5t-33 99.5t-9 118.5q0 122 33.5 202.5t109.5 128.5t183.5 67.5t269.5 19.5h41q-5 75 -37.5 106t-116.5 31q-168 0 -294 -61l-125 250q177 92 454 92q226 0 309 -92
q115 88 306 88q113 0 193.5 -25t127 -72t74.5 -113.5t36 -148.5t10.5 -178.5t-1.5 -202.5h-641q9 -106 54 -149t157 -43q71 0 131 10.5t93.5 22.5t80.5 34l117 -235q-181 -96 -438 -96zM485 240q98 0 148.5 44.5t50.5 157.5v107h-39q-175 0 -239 -33t-64 -131
q0 -78 32.5 -111.5t110.5 -33.5zM1174 911q-109 0 -150 -52.5t-47 -176.5h369q-1 54 -3.5 84t-12 62t-27.5 47.5t-50 25.5t-79 10z" />
    <glyph glyph-name="ccedilla" unicode="&#xe7;" horiz-adv-x="917" 
d="M471 -498q-131 0 -242 54l66 143q80 -31 154 -31q58 0 80 17.5t22 60.5q0 48 -31.5 60.5t-116.5 7.5l-53 39l29 147q-95 20 -159.5 68.5t-100.5 126t-51 170.5t-15 219q0 118 12.5 205.5t46 164.5t89.5 125t145.5 75.5t212.5 27.5q191 0 322 -62l-136 -268
q-77 41 -170 41q-117 0 -161.5 -71.5t-44.5 -248.5q0 -179 45 -250t168 -71q87 0 194 47l117 -236q-92 -44 -168.5 -61.5t-179.5 -17.5l-13 -70q105 7 161.5 -34.5t56.5 -155.5q0 -119 -64 -170.5t-215 -51.5z" />
    <glyph glyph-name="egrave" unicode="&#xe8;" horiz-adv-x="1054" 
d="M547 -14q-121 0 -208.5 27t-142.5 74t-87 124.5t-44 165t-12 207.5q0 116 14.5 205t49.5 165t91.5 125t143.5 76t203 27q112 0 192 -25t127 -71.5t74.5 -112.5t35.5 -148t10.5 -179t-1.5 -204h-641q9 -106 54 -149t157 -43q104 0 169.5 17t135.5 50l117 -235
q-181 -96 -438 -96zM547 911q-109 0 -150 -52.5t-47 -176.5h371q-1 54 -4 84t-13 62t-28 47.5t-50 25.5t-79 10zM443 1270l-297 375h344l217 -375h-264z" />
    <glyph glyph-name="eacute" unicode="&#xe9;" horiz-adv-x="1054" 
d="M344 1270l217 375h342l-295 -375h-264zM547 -14q-121 0 -208.5 27t-142.5 74t-87 124.5t-44 165t-12 207.5q0 116 14.5 205t49.5 165t91.5 125t143.5 76t203 27q112 0 192 -25t127 -71.5t74.5 -112.5t35.5 -148t10.5 -179t-1.5 -204h-641q9 -106 54 -149t157 -43
q104 0 169.5 17t135.5 50l117 -235q-181 -96 -438 -96zM547 911q-109 0 -150 -52.5t-47 -176.5h371q-1 54 -4 84t-13 62t-28 47.5t-50 25.5t-79 10z" />
    <glyph glyph-name="ecircumflex" unicode="&#xea;" horiz-adv-x="1054" 
d="M160 1270l223 375h285l225 -375h-246l-125 162l-123 -162h-239zM547 -14q-121 0 -208.5 27t-142.5 74t-87 124.5t-44 165t-12 207.5q0 116 14.5 205t49.5 165t91.5 125t143.5 76t203 27q112 0 192 -25t127 -71.5t74.5 -112.5t35.5 -148t10.5 -179t-1.5 -204h-641
q9 -106 54 -149t157 -43q104 0 169.5 17t135.5 50l117 -235q-181 -96 -438 -96zM547 911q-109 0 -150 -52.5t-47 -176.5h371q-1 54 -4 84t-13 62t-28 47.5t-50 25.5t-79 10z" />
    <glyph glyph-name="edieresis" unicode="&#xeb;" horiz-adv-x="1054" 
d="M188 1270v274h275v-274h-275zM590 1270v274h272v-274h-272zM547 -14q-121 0 -208.5 27t-142.5 74t-87 124.5t-44 165t-12 207.5q0 116 14.5 205t49.5 165t91.5 125t143.5 76t203 27q112 0 192 -25t127 -71.5t74.5 -112.5t35.5 -148t10.5 -179t-1.5 -204h-641
q9 -106 54 -149t157 -43q104 0 169.5 17t135.5 50l117 -235q-181 -96 -438 -96zM547 911q-109 0 -150 -52.5t-47 -176.5h371q-1 54 -4 84t-13 62t-28 47.5t-50 25.5t-79 10z" />
    <glyph glyph-name="igrave" unicode="&#xec;" horiz-adv-x="524" 
d="M152 1270l-228 375h340l152 -375h-264zM106 0v1161h310v-1161h-310z" />
    <glyph glyph-name="iacute" unicode="&#xed;" horiz-adv-x="524" 
d="M109 1270l147 375h342l-227 -375h-262zM106 0v1161h310v-1161h-310z" />
    <glyph glyph-name="icircumflex" unicode="&#xee;" horiz-adv-x="524" 
d="M-80 1270l199 375h284l199 -375h-246l-98 162l-98 -162h-240zM106 0v1161h310v-1161h-310z" />
    <glyph glyph-name="idieresis" unicode="&#xef;" horiz-adv-x="524" 
d="M-33 1270v274h244v-274h-244zM311 1270v274h244v-274h-244zM106 0v1161h310v-1161h-310z" />
    <glyph glyph-name="eth" unicode="&#xf0;" horiz-adv-x="1132" 
d="M481 1149v186l109 23q-46 68 -90 115l239 137q82 -64 152 -189l196 41v-186l-118 -25q108 -286 108 -612q0 -90 -5 -160t-18.5 -141t-37.5 -122.5t-62.5 -97.5t-92 -74.5t-128 -45t-168.5 -16.5q-273 0 -392.5 145t-119.5 424q0 120 21 212t69 166.5t133.5 114
t206.5 39.5q179 0 260 -84q-21 81 -67 191zM565 252q52 0 89 15.5t58 39.5t33 64t15.5 79t3.5 95t-3.5 94.5t-15.5 78t-33 63t-58 38.5t-89 15t-89 -15t-58 -38.5t-32.5 -63t-15 -78t-3.5 -94.5t3.5 -95t15 -79t32.5 -64t58 -39.5t89 -15.5z" />
    <glyph glyph-name="ntilde" unicode="&#xf1;" horiz-adv-x="1150" 
d="M98 0v1143l248 20l23 -92q43 55 126 83t226 28q83 0 144.5 -21.5t98.5 -57t59 -91t30 -115t8 -137.5v-760h-311v682q0 113 -28 159t-122 46q-62 0 -100 -14t-58 -47.5t-27 -76t-7 -110.5v-639h-310zM334 1257l-199 115q60 117 131.5 171t167.5 54q47 0 95 -22t86 -44
t61 -22q32 0 61 23t68 76l197 -115q-61 -118 -131 -172.5t-166 -54.5q-48 0 -96 21.5t-86 43t-60 21.5q-63 0 -129 -95z" />
    <glyph glyph-name="ograve" unicode="&#xf2;" horiz-adv-x="1128" 
d="M565 -18q-120 0 -209.5 28t-147 77.5t-92.5 126.5t-49 165.5t-14 204.5q0 114 13.5 201.5t48 164.5t92 126.5t147.5 77.5t211 28q122 0 212 -28.5t146.5 -78t91 -127t47.5 -164t13 -200.5q0 -118 -13 -206.5t-47.5 -166t-91 -126t-146.5 -76t-212 -27.5zM565 252
q52 0 89 15t58 39.5t33 67.5t15.5 87.5t3.5 111.5q0 68 -3.5 112.5t-15.5 87.5t-33.5 67t-57.5 38.5t-89 14.5t-89 -14.5t-57.5 -38.5t-33 -67.5t-15 -87.5t-3.5 -112q0 -67 3.5 -111.5t15 -87.5t33 -67.5t58 -39.5t88.5 -15zM479 1270l-297 375h344l217 -375h-264z" />
    <glyph glyph-name="oacute" unicode="&#xf3;" horiz-adv-x="1128" 
d="M381 1270l217 375h342l-295 -375h-264zM565 -18q-120 0 -209.5 28t-147 77.5t-92.5 126.5t-49 165.5t-14 204.5q0 114 13.5 201.5t48 164.5t92 126.5t147.5 77.5t211 28q122 0 212 -28.5t146.5 -78t91 -127t47.5 -164t13 -200.5q0 -118 -13 -206.5t-47.5 -166t-91 -126
t-146.5 -76t-212 -27.5zM565 252q52 0 89 15t58 39.5t33 67.5t15.5 87.5t3.5 111.5q0 68 -3.5 112.5t-15.5 87.5t-33.5 67t-57.5 38.5t-89 14.5t-89 -14.5t-57.5 -38.5t-33 -67.5t-15 -87.5t-3.5 -112q0 -67 3.5 -111.5t15 -87.5t33 -67.5t58 -39.5t88.5 -15z" />
    <glyph glyph-name="ocircumflex" unicode="&#xf4;" horiz-adv-x="1128" 
d="M197 1270l223 375h285l225 -375h-246l-125 162l-123 -162h-239zM565 -18q-120 0 -209.5 28t-147 77.5t-92.5 126.5t-49 165.5t-14 204.5q0 114 13.5 201.5t48 164.5t92 126.5t147.5 77.5t211 28q122 0 212 -28.5t146.5 -78t91 -127t47.5 -164t13 -200.5
q0 -118 -13 -206.5t-47.5 -166t-91 -126t-146.5 -76t-212 -27.5zM565 252q52 0 89 15t58 39.5t33 67.5t15.5 87.5t3.5 111.5q0 68 -3.5 112.5t-15.5 87.5t-33.5 67t-57.5 38.5t-89 14.5t-89 -14.5t-57.5 -38.5t-33 -67.5t-15 -87.5t-3.5 -112q0 -67 3.5 -111.5t15 -87.5
t33 -67.5t58 -39.5t88.5 -15z" />
    <glyph glyph-name="otilde" unicode="&#xf5;" horiz-adv-x="1128" 
d="M565 -18q-120 0 -209.5 28t-147 77.5t-92.5 126.5t-49 165.5t-14 204.5q0 114 13.5 201.5t48 164.5t92 126.5t147.5 77.5t211 28q122 0 212 -28.5t146.5 -78t91 -127t47.5 -164t13 -200.5q0 -118 -13 -206.5t-47.5 -166t-91 -126t-146.5 -76t-212 -27.5zM565 252
q52 0 89 15t58 39.5t33 67.5t15.5 87.5t3.5 111.5q0 68 -3.5 112.5t-15.5 87.5t-33.5 67t-57.5 38.5t-89 14.5t-89 -14.5t-57.5 -38.5t-33 -67.5t-15 -87.5t-3.5 -112q0 -67 3.5 -111.5t15 -87.5t33 -67.5t58 -39.5t88.5 -15zM323 1257l-199 115q60 117 131.5 171t167.5 54
q47 0 95 -22t86 -44t61 -22q32 0 61 23t68 76l197 -115q-61 -118 -131 -172.5t-166 -54.5q-48 0 -96 21.5t-86 43t-60 21.5q-63 0 -129 -95z" />
    <glyph glyph-name="odieresis" unicode="&#xf6;" horiz-adv-x="1128" 
d="M225 1270v274h275v-274h-275zM627 1270v274h272v-274h-272zM565 -18q-120 0 -209.5 28t-147 77.5t-92.5 126.5t-49 165.5t-14 204.5q0 114 13.5 201.5t48 164.5t92 126.5t147.5 77.5t211 28q122 0 212 -28.5t146.5 -78t91 -127t47.5 -164t13 -200.5q0 -118 -13 -206.5
t-47.5 -166t-91 -126t-146.5 -76t-212 -27.5zM565 252q52 0 89 15t58 39.5t33 67.5t15.5 87.5t3.5 111.5q0 68 -3.5 112.5t-15.5 87.5t-33.5 67t-57.5 38.5t-89 14.5t-89 -14.5t-57.5 -38.5t-33 -67.5t-15 -87.5t-3.5 -112q0 -67 3.5 -111.5t15 -87.5t33 -67.5t58 -39.5
t88.5 -15z" />
    <glyph glyph-name="divide" unicode="&#xf7;" horiz-adv-x="1247" 
d="M469 193v266h307v-266h-307zM154 580v284h940v-284h-940zM469 983v266h307v-266h-307z" />
    <glyph glyph-name="oslash" unicode="&#xf8;" horiz-adv-x="1128" 
d="M94 -90l101 190q-142 139 -142 484q0 114 13.5 201.5t48 164.5t92 126.5t147.5 77.5t211 28q100 0 187 -23l49 90h248l-107 -194q73 -74 103 -191t30 -280q0 -118 -13 -206.5t-47.5 -166t-91 -126t-146.5 -76t-212 -27.5q-86 0 -178 18l-49 -90h-244zM354 573
q0 -117 15 -178l258 502q-27 6 -62 6q-54 0 -92 -15t-61 -40.5t-36 -69t-17.5 -90.5t-4.5 -115zM565 244q54 0 92.5 15t61.5 40.5t36 69t17 90t4 114.5q0 116 -12 172l-258 -495q24 -6 59 -6z" />
    <glyph glyph-name="ugrave" unicode="&#xf9;" horiz-adv-x="1130" 
d="M565 -16q-142 0 -233.5 26.5t-145.5 88.5t-75 150.5t-21 225.5v686h311v-669q0 -58 2 -88.5t10.5 -63.5t26.5 -48t49.5 -24.5t79.5 -9.5q39 0 66.5 5.5t46 20t29 30.5t16 46.5t7 58.5t1.5 75v667h305v-686q0 -138 -20 -225.5t-73 -150t-145 -89t-237 -26.5zM482 1270
l-297 375h344l217 -375h-264z" />
    <glyph glyph-name="uacute" unicode="&#xfa;" horiz-adv-x="1130" 
d="M383 1270l217 375h342l-295 -375h-264zM565 -16q-142 0 -233.5 26.5t-145.5 88.5t-75 150.5t-21 225.5v686h311v-669q0 -58 2 -88.5t10.5 -63.5t26.5 -48t49.5 -24.5t79.5 -9.5q39 0 66.5 5.5t46 20t29 30.5t16 46.5t7 58.5t1.5 75v667h305v-686q0 -138 -20 -225.5
t-73 -150t-145 -89t-237 -26.5z" />
    <glyph glyph-name="ucircumflex" unicode="&#xfb;" horiz-adv-x="1130" 
d="M199 1270l223 375h285l225 -375h-246l-125 162l-123 -162h-239zM565 -16q-142 0 -233.5 26.5t-145.5 88.5t-75 150.5t-21 225.5v686h311v-669q0 -58 2 -88.5t10.5 -63.5t26.5 -48t49.5 -24.5t79.5 -9.5q39 0 66.5 5.5t46 20t29 30.5t16 46.5t7 58.5t1.5 75v667h305v-686
q0 -138 -20 -225.5t-73 -150t-145 -89t-237 -26.5z" />
    <glyph glyph-name="udieresis" unicode="&#xfc;" horiz-adv-x="1130" 
d="M227 1270v274h275v-274h-275zM629 1270v274h272v-274h-272zM565 -16q-142 0 -233.5 26.5t-145.5 88.5t-75 150.5t-21 225.5v686h311v-669q0 -58 2 -88.5t10.5 -63.5t26.5 -48t49.5 -24.5t79.5 -9.5q39 0 66.5 5.5t46 20t29 30.5t16 46.5t7 58.5t1.5 75v667h305v-686
q0 -138 -20 -225.5t-73 -150t-145 -89t-237 -26.5z" />
    <glyph glyph-name="yacute" unicode="&#xfd;" horiz-adv-x="1019" 
d="M139 -324v248h131q40 0 56 11t24 38l6 27l-354 1161h317l197 -712l195 712h305l-383 -1251q-23 -74 -54 -121t-78.5 -71.5t-100 -33t-132.5 -8.5h-129zM327 1270l218 375h342l-295 -375h-265z" />
    <glyph glyph-name="thorn" unicode="&#xfe;" horiz-adv-x="1163" 
d="M98 -324v1899h308v-504q37 57 109 84t206 27q73 0 130.5 -17t98 -45.5t70 -73.5t46.5 -93t27 -112.5t13.5 -123t3.5 -133.5q0 -88 -6 -157.5t-21 -141t-44 -123t-72 -93t-108.5 -62.5t-149.5 -21q-121 0 -189 21.5t-112 68.5v-400h-310zM614 254q110 0 146.5 72t36.5 243
q0 70 -3.5 116.5t-14.5 89t-31.5 66.5t-53.5 38t-80 14q-53 0 -90.5 -14.5t-60 -39t-35 -67t-16.5 -89t-4 -114.5q0 -69 3.5 -113t16 -86t34.5 -65.5t59.5 -37t92.5 -13.5z" />
    <glyph glyph-name="ydieresis" unicode="&#xff;" horiz-adv-x="1019" 
d="M139 -324v248h131q40 0 56 11t24 38l6 27l-354 1161h317l197 -712l195 712h305l-383 -1251q-23 -74 -54 -121t-78.5 -71.5t-100 -33t-132.5 -8.5h-129zM172 1270v274h274v-274h-274zM573 1270v274h273v-274h-273z" />
    <glyph glyph-name="dotlessi" unicode="&#x131;" horiz-adv-x="524" 
d="M106 0v1161h310v-1161h-310z" />
    <glyph glyph-name="Lslash" unicode="&#x141;" horiz-adv-x="1050" 
d="M0 555v260l119 68v635h321v-453l213 123v-258l-213 -123v-520h590v-287h-911v623z" />
    <glyph glyph-name="lslash" unicode="&#x142;" horiz-adv-x="722" 
d="M41 696v271l147 84v524h310v-344l161 94v-270l-161 -94v-588q0 -69 19 -87t101 -18v-268q-24 -4 -112 -4q-84 0 -140.5 15t-98 52t-60.5 102.5t-19 164.5v450z" />
    <glyph glyph-name="OE" unicode="&#x152;" horiz-adv-x="2013" 
d="M1022 0v63q-130 -81 -338 -81q-114 0 -205.5 22t-156.5 59.5t-113.5 95t-77.5 120.5t-46.5 145.5t-23.5 160.5t-6 173q0 96 6 174t23.5 160.5t46.5 146t77.5 121t113.5 95t156.5 59.5t205.5 22q208 0 338 -84v66h905v-293h-622v-307h593v-287h-593v-344h622v-287h-905z
M684 266q57 0 102 12t76.5 33t54 55t36 71.5t21.5 90t10.5 103t2.5 117.5t-2.5 117t-10.5 102.5t-21.5 89.5t-36 71t-54 54.5t-76.5 32.5t-102 12t-102 -12t-76.5 -32.5t-54 -54.5t-36 -71t-21.5 -89.5t-10.5 -102.5t-2.5 -117t2.5 -117.5t10.5 -103t21.5 -90t36 -71.5
t54 -55t76.5 -33t102 -12z" />
    <glyph glyph-name="oe" unicode="&#x153;" horiz-adv-x="1775" 
d="M565 -18q-120 0 -209.5 28t-147 77.5t-92.5 126.5t-49 165.5t-14 204.5q0 114 13.5 201.5t48 164.5t92 126.5t147.5 77.5t211 28q239 0 359 -123q120 123 352 123q112 0 192.5 -26t126.5 -73.5t74 -114.5t36 -149t10.5 -177.5t-1.5 -199.5h-639q9 -106 53 -149t156 -43
q104 0 169.5 17t135.5 50l117 -235q-177 -96 -438 -96q-234 0 -346 112q-119 -116 -357 -116zM565 252q52 0 89 15t58 39.5t33 67.5t15.5 87.5t3.5 111.5q0 68 -3.5 112.5t-15.5 87.5t-33.5 67t-57.5 38.5t-89 14.5t-89 -14.5t-57.5 -38.5t-33 -67.5t-15 -87.5t-3.5 -112
q0 -67 3.5 -111.5t15 -87.5t33 -67.5t58 -39.5t88.5 -15zM1270 911q-110 0 -150.5 -52.5t-46.5 -176.5h369q-1 54 -4 84t-12.5 62t-27.5 47.5t-49.5 25.5t-78.5 10z" />
    <glyph glyph-name="Scaron" unicode="&#x160;" horiz-adv-x="1193" 
d="M453 1595l-224 375h246l123 -162l123 162h242l-226 -375h-284zM600 -18q-364 0 -573 137l161 246q173 -109 404 -109q126 0 178.5 38.5t52.5 117.5q0 93 -55 129.5t-253 98.5l-9 3q-108 33 -182.5 71.5t-127.5 91t-77.5 122.5t-24.5 162q0 221 135 333.5t389 112.5
q149 0 257.5 -24t207.5 -70l-139 -275q-140 68 -317 68q-116 0 -167.5 -31.5t-51.5 -103.5q0 -39 10.5 -64.5t43 -47.5t71.5 -37t116 -40q98 -32 162.5 -57t123.5 -57t93.5 -65.5t60.5 -79.5t36 -102.5t10 -131.5q0 -208 -132 -322t-403 -114z" />
    <glyph glyph-name="scaron" unicode="&#x161;" horiz-adv-x="929" 
d="M324 1270l-224 375h246l123 -162l123 162h242l-226 -375h-284zM473 -14q-292 0 -457 86l119 239q154 -75 338 -75q66 0 97.5 21.5t31.5 68.5q0 49 -40 74t-185 73q-69 24 -115 44.5t-87.5 49t-65 63.5t-37 83.5t-13.5 111.5q0 357 435 357q121 0 200 -14.5t160 -47.5
l-119 -256q-118 49 -254 49q-72 0 -99.5 -19.5t-27.5 -62.5q0 -41 38.5 -66t162.5 -65q95 -31 152 -58.5t102 -69.5t63.5 -100t18.5 -142q0 -344 -418 -344z" />
    <glyph glyph-name="Ydieresis" unicode="&#x178;" horiz-adv-x="1282" 
d="M479 0v514l-483 1004h342l307 -662l309 662h330l-485 -1008v-510h-320zM303 1596v274h274v-274h-274zM704 1596v274h273v-274h-273z" />
    <glyph glyph-name="Zcaron" unicode="&#x17d;" horiz-adv-x="1155" 
d="M434 1595l-223 375h246l123 -162l122 162h242l-225 -375h-285zM47 0v242l655 983h-626v293h1009v-265l-649 -966h668v-287h-1057z" />
    <glyph glyph-name="zcaron" unicode="&#x17e;" horiz-adv-x="915" 
d="M315 1270l-223 375h246l123 -162l123 162h241l-225 -375h-285zM25 0v205l462 686h-434v270h824v-209l-467 -700h485v-252h-870z" />
    <glyph glyph-name="florin" unicode="&#x192;" horiz-adv-x="1038" 
d="M133 674v268h203l33 219q11 73 26.5 124.5t45 98.5t72.5 74.5t108.5 43.5t154.5 16q44 0 131 -5v-268h-102q-67 0 -91 -26.5t-34 -92.5l-29 -184h256v-268h-299l-153 -998h-310l150 998h-162z" />
    <glyph glyph-name="circumflex" unicode="&#x2c6;" horiz-adv-x="997" 
d="M133 1270l223 375h285l225 -375h-245l-125 162l-123 -162h-240z" />
    <glyph glyph-name="caron" unicode="&#x2c7;" horiz-adv-x="997" 
d="M356 1270l-223 375h246l123 -162l123 162h241l-225 -375h-285z" />
    <glyph glyph-name="breve" unicode="&#x2d8;" horiz-adv-x="997" 
d="M498 1257q-102 0 -169.5 21.5t-109.5 69.5t-63.5 111t-34.5 161l221 33q15 -94 47 -128t109 -34t109 34.5t46 127.5l224 -31q-11 -79 -26.5 -134t-43 -101.5t-68 -73.5t-100 -41.5t-141.5 -14.5z" />
    <glyph glyph-name="dotaccent" unicode="&#x2d9;" horiz-adv-x="997" 
d="M344 1270v280h311v-280h-311z" />
    <glyph glyph-name="ring" unicode="&#x2da;" horiz-adv-x="997" 
d="M498 1251q-132 0 -192 74.5t-60 200.5q0 128 60 203t192 75q130 0 192 -75.5t62 -202.5q0 -125 -62 -200t-192 -75zM498 1399q56 0 78 32.5t22 94.5q0 63 -22 96t-78 33q-101 0 -101 -129q0 -61 23 -94t78 -33z" />
    <glyph glyph-name="ogonek" unicode="&#x2db;" horiz-adv-x="997" 
d="M555 -479q-152 0 -216.5 44t-64.5 167q0 47 16 92t40 79t54.5 64t56 48.5t48.5 31.5h183q-84 -68 -137.5 -139t-53.5 -127q0 -45 24 -65.5t79 -20.5h59v-174h-88z" />
    <glyph glyph-name="tilde" unicode="&#x2dc;" horiz-adv-x="997" 
d="M260 1257l-199 115q60 117 131.5 171t167.5 54q47 0 95 -22t86 -44t61 -22q32 0 61 23t68 76l197 -115q-61 -118 -131 -172.5t-166 -54.5q-48 0 -96 21.5t-86 43t-60 21.5q-63 0 -129 -95z" />
    <glyph glyph-name="hungarumlaut" unicode="&#x2dd;" horiz-adv-x="997" 
d="M141 1270l207 375h318l-287 -375h-238zM565 1270l207 375h315l-286 -375h-236z" />
    <glyph glyph-name="Delta" unicode="&#x394;" horiz-adv-x="1243" 
d="M25 891v270h188v94q0 357 405 357q91 0 107 -2v-269h-76q-78 0 -102.5 -27t-24.5 -93v-60h203v-270h-203v-891h-309v891h-188zM721 -324v248h22q54 0 68 23t14 98v1116h310v-1126q0 -204 -77 -281.5t-290 -77.5h-47zM825 1266v280h312v-280h-312z" />
    <glyph glyph-name="Delta" unicode="&#x2206;" horiz-adv-x="1243" 
d="M25 891v270h188v94q0 357 405 357q91 0 107 -2v-269h-76q-78 0 -102.5 -27t-24.5 -93v-60h203v-270h-203v-891h-309v891h-188zM721 -324v248h22q54 0 68 23t14 98v1116h310v-1126q0 -204 -77 -281.5t-290 -77.5h-47zM825 1266v280h312v-280h-312z" />
    <glyph glyph-name="Omega" unicode="&#x3a9;" horiz-adv-x="1703" 
d="M258 246q-88 105 -136 237t-48 277q0 144 48 276t136 236q6 -4 14 -12q-85 -103 -131.5 -231.5t-46.5 -268.5q0 -285 180 -500zM467 432q-117 143 -117 328q0 183 115 327q3 -2 8 -7t8 -7q-110 -136 -110 -313q0 -182 110 -314zM541 498q-92 116 -92 262t92 262
q3 -2 8 -7t8 -7q-88 -109 -88 -248t88 -248q-3 -2 -8 -7t-8 -7zM647 592q-57 72 -57 168q0 97 57 166l15 -15q-52 -69 -52 -151q0 -84 54 -154q-3 -2 -8.5 -7t-8.5 -7zM715 655q-33 48 -33 105q0 56 33 104q3 -2 8 -7t8 -7q-29 -44 -29 -90t29 -90q-3 -2 -16 -15zM774 709
q-14 25 -14 51t14 51l12 -10q-10 -20 -10 -41t10 -41q-4 -4 -12 -10zM852 123q-236 0 -412 158l2.5 2.5l5 5l5.5 5.5t2 1q171 -152 397 -152q227 0 395 152q2 -3 7.5 -8t7.5 -8q-177 -156 -410 -156zM852 664q-31 0 -55 18l12 12q21 -14 43 -14q26 0 43 14q4 -4 10 -12
q-21 -18 -53 -18zM987 653q-7 10 -14 15q28 42 28 92q0 51 -28 90l2.5 2.5t5 4.5t5.5 5t1 2q35 -44 35 -104t-35 -107zM598 551q-72 91 -72 209q0 119 74 209l14 -15q-67 -87 -67 -194q0 -108 67 -195q-10 -10 -16 -14zM852 -35q-145 0 -278 52.5t-238 146.5l14 16
q102 -92 231 -143t271 -51q285 0 500 192q0 1 3.5 -2.5t6.5 -7.5l4 -4q-104 -95 -236 -147t-278 -52zM852 248q-189 0 -330 125l15 16q134 -121 315 -121q182 0 313 121q2 -3 7.5 -8t7.5 -8q-138 -125 -328 -125zM852 348q-145 0 -264 101l14 14q108 -94 250 -94
q143 0 248 94q2 -3 7 -8.5t7 -8.5q-112 -98 -262 -98zM852 428q-116 0 -211 78l14 16q86 -73 197 -73t197 73q4 -4 12 -16q-91 -78 -209 -78zM852 543q-77 0 -135 49l14 16q51 -45 121 -45q68 0 119 45q2 -3 7 -8t7 -8q-58 -49 -133 -49zM733 911q-4 3 -7 6.5t-6 6.5l-3 4
q58 49 135 49t135 -49l-16 -17q-51 45 -119 45t-119 -45zM1167 1130q-134 121 -315 121q-179 0 -313 -118l-15 14q141 125 328 125q189 0 330 -125q-4 -6 -15 -17zM930 709l-12 10q10 20 10 41t-10 41l12 10q14 -25 14 -51t-14 -51zM958 682q-10 10 -16 14q21 32 21 64
t-21 63l16 15q25 -36 25 -78t-25 -78zM1020 627q-6 4 -16 14q38 50 38 119t-38 119l14 14q45 -57 45 -133q0 -71 -43 -133zM1106 551q-3 2 -8 7t-8 7q67 87 67 195t-70 194l17 15q74 -90 74 -209q0 -118 -72 -209zM1163 498q-10 10 -16 14q88 109 88 248t-88 248l16 14
q92 -116 92 -262t-92 -262zM1237 432q-6 4 -16 14q112 134 112 314q0 182 -112 313l16 14q117 -139 117 -327q0 -189 -117 -328zM1329 350q-2 2 -7 6t-7 6q141 175 141 398q0 227 -143 395l16 14q148 -179 148 -409q0 -231 -148 -410zM1446 246q-6 6 -16 14q180 215 180 500
t-180 500l16 14q88 -105 136 -237t48 -277q0 -144 -48 -276t-136 -238zM375 348q-148 182 -148 412q0 229 146 409q2 -2 7.5 -6.5t8.5 -7.5q-141 -170 -141 -395q0 -228 141 -398zM684 627q-43 59 -43 133t43 133q6 -4 16 -14q-38 -50 -38 -119q0 -67 38 -117zM745 682
q-24 34 -24 78t24 78q2 -3 4.5 -5.5t6 -5.5t4.5 -4q-19 -34 -19 -63q0 -30 19 -64zM809 825l-10 13q21 18 53 18t53 -18l-10 -13q-23 15 -43 15q-25 0 -43 -15zM786 852l-14 14q37 29 80 29q41 0 78 -29q-8 -8 -12 -14q-28 25 -66 25q-34 0 -66 -25zM760 881l-15 16
q45 39 107 39q61 0 106 -39l-14 -16q-37 34 -92 34t-92 -34zM604 1057l-14 16q112 98 262 98q151 0 262 -100q1 0 -2 -3.5t-6 -7.5l-4 -3q-108 94 -250 94q-143 0 -248 -94zM852 492q-100 0 -170 61l14 16q70 -57 156 -57q87 0 154 57l14 -14q-73 -63 -168 -63zM852 584
q-61 0 -109 39l15 16q47 -35 94 -35q51 0 92 35l14 -16q-45 -39 -106 -39zM852 625q-43 0 -82 28l14 15q36 -25 68 -25q34 0 66 25l14 -15q-36 -28 -80 -28zM698 950l-14 15q73 63 168 63q98 0 168 -61l-14 -17q-68 58 -154 58q-87 0 -154 -58zM655 997l-14 17q91 78 211 78
q119 0 209 -80l-12 -15q-83 74 -197 74q-110 0 -197 -74zM1249 1223q-166 153 -397 153q-227 0 -397 -151l-15 14q179 158 412 158t412 -158zM352 1339l-14 17q104 95 236 146.5t278 51.5q145 0 278 -52t238 -146l-14 -17q-102 93 -231 144t-271 51t-270 -51t-230 -144z
M1057 594l-15 14q52 69 52 152t-54 153l17 15q57 -72 57 -168q0 -97 -57 -166z" />
    <glyph glyph-name="Omega" unicode="&#x2126;" horiz-adv-x="1703" 
d="M258 246q-88 105 -136 237t-48 277q0 144 48 276t136 236q6 -4 14 -12q-85 -103 -131.5 -231.5t-46.5 -268.5q0 -285 180 -500zM467 432q-117 143 -117 328q0 183 115 327q3 -2 8 -7t8 -7q-110 -136 -110 -313q0 -182 110 -314zM541 498q-92 116 -92 262t92 262
q3 -2 8 -7t8 -7q-88 -109 -88 -248t88 -248q-3 -2 -8 -7t-8 -7zM647 592q-57 72 -57 168q0 97 57 166l15 -15q-52 -69 -52 -151q0 -84 54 -154q-3 -2 -8.5 -7t-8.5 -7zM715 655q-33 48 -33 105q0 56 33 104q3 -2 8 -7t8 -7q-29 -44 -29 -90t29 -90q-3 -2 -16 -15zM774 709
q-14 25 -14 51t14 51l12 -10q-10 -20 -10 -41t10 -41q-4 -4 -12 -10zM852 123q-236 0 -412 158l2.5 2.5l5 5l5.5 5.5t2 1q171 -152 397 -152q227 0 395 152q2 -3 7.5 -8t7.5 -8q-177 -156 -410 -156zM852 664q-31 0 -55 18l12 12q21 -14 43 -14q26 0 43 14q4 -4 10 -12
q-21 -18 -53 -18zM987 653q-7 10 -14 15q28 42 28 92q0 51 -28 90l2.5 2.5t5 4.5t5.5 5t1 2q35 -44 35 -104t-35 -107zM598 551q-72 91 -72 209q0 119 74 209l14 -15q-67 -87 -67 -194q0 -108 67 -195q-10 -10 -16 -14zM852 -35q-145 0 -278 52.5t-238 146.5l14 16
q102 -92 231 -143t271 -51q285 0 500 192q0 1 3.5 -2.5t6.5 -7.5l4 -4q-104 -95 -236 -147t-278 -52zM852 248q-189 0 -330 125l15 16q134 -121 315 -121q182 0 313 121q2 -3 7.5 -8t7.5 -8q-138 -125 -328 -125zM852 348q-145 0 -264 101l14 14q108 -94 250 -94
q143 0 248 94q2 -3 7 -8.5t7 -8.5q-112 -98 -262 -98zM852 428q-116 0 -211 78l14 16q86 -73 197 -73t197 73q4 -4 12 -16q-91 -78 -209 -78zM852 543q-77 0 -135 49l14 16q51 -45 121 -45q68 0 119 45q2 -3 7 -8t7 -8q-58 -49 -133 -49zM733 911q-4 3 -7 6.5t-6 6.5l-3 4
q58 49 135 49t135 -49l-16 -17q-51 45 -119 45t-119 -45zM1167 1130q-134 121 -315 121q-179 0 -313 -118l-15 14q141 125 328 125q189 0 330 -125q-4 -6 -15 -17zM930 709l-12 10q10 20 10 41t-10 41l12 10q14 -25 14 -51t-14 -51zM958 682q-10 10 -16 14q21 32 21 64
t-21 63l16 15q25 -36 25 -78t-25 -78zM1020 627q-6 4 -16 14q38 50 38 119t-38 119l14 14q45 -57 45 -133q0 -71 -43 -133zM1106 551q-3 2 -8 7t-8 7q67 87 67 195t-70 194l17 15q74 -90 74 -209q0 -118 -72 -209zM1163 498q-10 10 -16 14q88 109 88 248t-88 248l16 14
q92 -116 92 -262t-92 -262zM1237 432q-6 4 -16 14q112 134 112 314q0 182 -112 313l16 14q117 -139 117 -327q0 -189 -117 -328zM1329 350q-2 2 -7 6t-7 6q141 175 141 398q0 227 -143 395l16 14q148 -179 148 -409q0 -231 -148 -410zM1446 246q-6 6 -16 14q180 215 180 500
t-180 500l16 14q88 -105 136 -237t48 -277q0 -144 -48 -276t-136 -238zM375 348q-148 182 -148 412q0 229 146 409q2 -2 7.5 -6.5t8.5 -7.5q-141 -170 -141 -395q0 -228 141 -398zM684 627q-43 59 -43 133t43 133q6 -4 16 -14q-38 -50 -38 -119q0 -67 38 -117zM745 682
q-24 34 -24 78t24 78q2 -3 4.5 -5.5t6 -5.5t4.5 -4q-19 -34 -19 -63q0 -30 19 -64zM809 825l-10 13q21 18 53 18t53 -18l-10 -13q-23 15 -43 15q-25 0 -43 -15zM786 852l-14 14q37 29 80 29q41 0 78 -29q-8 -8 -12 -14q-28 25 -66 25q-34 0 -66 -25zM760 881l-15 16
q45 39 107 39q61 0 106 -39l-14 -16q-37 34 -92 34t-92 -34zM604 1057l-14 16q112 98 262 98q151 0 262 -100q1 0 -2 -3.5t-6 -7.5l-4 -3q-108 94 -250 94q-143 0 -248 -94zM852 492q-100 0 -170 61l14 16q70 -57 156 -57q87 0 154 57l14 -14q-73 -63 -168 -63zM852 584
q-61 0 -109 39l15 16q47 -35 94 -35q51 0 92 35l14 -16q-45 -39 -106 -39zM852 625q-43 0 -82 28l14 15q36 -25 68 -25q34 0 66 25l14 -15q-36 -28 -80 -28zM698 950l-14 15q73 63 168 63q98 0 168 -61l-14 -17q-68 58 -154 58q-87 0 -154 -58zM655 997l-14 17q91 78 211 78
q119 0 209 -80l-12 -15q-83 74 -197 74q-110 0 -197 -74zM1249 1223q-166 153 -397 153q-227 0 -397 -151l-15 14q179 158 412 158t412 -158zM352 1339l-14 17q104 95 236 146.5t278 51.5q145 0 278 -52t238 -146l-14 -17q-102 93 -231 144t-271 51t-270 -51t-230 -144z
M1057 594l-15 14q52 69 52 152t-54 153l17 15q57 -72 57 -168q0 -97 -57 -166z" />
    <glyph glyph-name="pi" unicode="&#x3c0;" 
d="M684 -18q-146 0 -256.5 39.5t-179.5 106.5t-111.5 168t-59 211.5t-16.5 250.5t16.5 251.5t59 213t111.5 169t179.5 107t256.5 39.5t256 -39.5t179.5 -107t112.5 -169t60 -213t17 -251.5q0 -139 -17 -250.5t-60 -212t-112.5 -168t-179.5 -106.5t-256 -39zM684 92
q120 0 210 34t145.5 91t90 144t47.5 182t13 215q0 121 -13 216t-47.5 182t-90 144t-145.5 91t-210 34t-209.5 -34t-145 -91t-89.5 -144t-47 -182t-13 -216q0 -120 13 -214.5t47 -182t89.5 -144.5t145 -91t209.5 -34zM389 272v955h363q92 0 153.5 -20t96 -61t48 -95
t13.5 -131q0 -78 -14 -133t-48 -99t-96.5 -66t-154.5 -22h-166v-328h-195zM584 760h161q70 0 98.5 33.5t28.5 111.5q0 82 -28.5 116t-98.5 34h-161v-295z" />
    <glyph glyph-name="endash" unicode="&#x2013;" horiz-adv-x="1275" 
d="M61 541v282h1153v-282h-1153z" />
    <glyph glyph-name="emdash" unicode="&#x2014;" horiz-adv-x="1636" 
d="M61 541v282h1516v-282h-1516z" />
    <glyph glyph-name="quoteleft" unicode="&#x2018;" horiz-adv-x="532" 
d="M90 815v322q0 65 6 108.5t21 82.5t46 69.5t75 59.5t114 63l84 -156q-97 -53 -123 -83t-26 -91h155v-375h-352z" />
    <glyph glyph-name="quoteright" unicode="&#x2019;" horiz-adv-x="532" 
d="M182 813l-86 156q98 53 124 83t26 91h-156v375h352v-320q0 -110 -18.5 -170.5t-73 -110t-168.5 -104.5z" />
    <glyph glyph-name="quotesinglbase" unicode="&#x201a;" horiz-adv-x="532" 
d="M182 -330l-86 156q98 53 124 83t26 91h-156v375h352v-320q0 -110 -18.5 -170.5t-73 -110t-168.5 -104.5z" />
    <glyph glyph-name="quotedblleft" unicode="&#x201c;" horiz-adv-x="972" 
d="M90 834v319q0 54 3.5 90.5t14 71t27.5 58.5t47 49.5t68 47.5t96 50l80 -148q-94 -53 -119.5 -82.5t-25.5 -89.5h153v-366h-344zM541 834v319q0 107 18 164.5t70 102.5t166 100l82 -148q-96 -53 -122 -83t-26 -89h154v-366h-342z" />
    <glyph glyph-name="quotedblright" unicode="&#x201d;" horiz-adv-x="972" 
d="M178 831l-82 148q95 51 121.5 81.5t26.5 88.5h-154v369h342v-320q0 -108 -18 -165.5t-70 -103t-166 -98.5zM627 831l-78 148q93 51 118 81t25 89h-153v369h344v-320q0 -65 -6 -107.5t-20 -79.5t-44.5 -65.5t-73.5 -55t-112 -59.5z" />
    <glyph glyph-name="quotedblbase" unicode="&#x201e;" horiz-adv-x="972" 
d="M178 -311l-82 147q95 51 121.5 81.5t26.5 88.5h-154v369h342v-320q0 -82 -8 -129.5t-36.5 -90.5t-76 -74t-133.5 -72zM627 -311l-78 147q93 51 118 81t25 89h-153v369h344v-320q0 -54 -3.5 -91t-14 -71.5t-27.5 -58.5t-47 -49.5t-68 -47t-96 -48.5z" />
    <glyph glyph-name="dagger" unicode="&#x2020;" horiz-adv-x="1048" 
d="M371 -324v1160h-295v286h295v453h307v-453h295v-286h-295v-1160h-307z" />
    <glyph glyph-name="daggerdbl" unicode="&#x2021;" horiz-adv-x="1048" 
d="M371 -324v461h-295v287h295v414h-295v286h295v451h307v-451h295v-286h-295v-414h295v-287h-295v-461h-307z" />
    <glyph glyph-name="bullet" unicode="&#x2022;" horiz-adv-x="692" 
d="M147 385v475h398v-475h-398z" />
    <glyph glyph-name="ellipsis" unicode="&#x2026;" horiz-adv-x="1531" 
d="M90 0v367h352v-367h-352zM590 0v367h352v-367h-352zM1092 0v367h350v-367h-350z" />
    <glyph glyph-name="perthousand" unicode="&#x2030;" horiz-adv-x="3076" 
d="M465 528q-104 0 -179 26.5t-128 85t-79 155.5t-26 235t26 235t79 155.5t128 85t179 26.5q210 0 313 -116t103 -386t-103 -386t-313 -116zM467 758q78 0 108.5 56t30.5 208q0 150 -31 207t-108 57t-108 -57t-31 -207q0 -152 30.5 -208t108.5 -56zM1716 -14
q-139 0 -227.5 47.5t-136 159.5t-47.5 296q0 269 101 385.5t310 116.5q211 0 313.5 -116.5t102.5 -385.5q0 -272 -102.5 -387.5t-313.5 -115.5zM1718 215q78 0 110 57t32 207q0 151 -32 207.5t-110 56.5t-108.5 -56t-30.5 -208q0 -150 31 -207t108 -57zM602 0l698 1518h287
l-700 -1518h-285zM2609 -14q-139 0 -227.5 47.5t-136 159.5t-47.5 296q0 269 101 385.5t310 116.5q210 0 313 -116.5t103 -385.5q0 -138 -26.5 -235.5t-80.5 -156t-129.5 -85t-179.5 -26.5zM2611 215q77 0 108 57t31 207q0 152 -30.5 208t-108.5 56t-108.5 -56t-30.5 -208
q0 -150 31 -207t108 -57z" />
    <glyph glyph-name="guilsinglleft" unicode="&#x2039;" horiz-adv-x="841" 
d="M385 0l-256 580l256 581h281l-234 -581l234 -580h-281z" />
    <glyph glyph-name="guilsinglright" unicode="&#x203a;" horiz-adv-x="841" 
d="M176 0l234 582l-234 579h281l256 -579l-256 -582h-281z" />
    <glyph glyph-name="fraction" unicode="&#x2044;" horiz-adv-x="976" 
d="M2 0l696 1518h275l-697 -1518h-274z" />
    <glyph glyph-name="fraction" unicode="&#x2215;" horiz-adv-x="976" 
d="M2 0l696 1518h275l-697 -1518h-274z" />
    <glyph glyph-name="Euro" unicode="&#x20ac;" horiz-adv-x="1247" 
d="M47 811v219h209q22 180 82 289.5t171.5 163t285.5 53.5q236 0 397 -96l-145 -262q-115 59 -254 59q-100 0 -152 -48.5t-72 -158.5h349v-219h-365v-106h365v-220h-349q21 -114 72.5 -165.5t151.5 -51.5q129 0 258 68l139 -248q-185 -106 -418 -106q-246 0 -365.5 118
t-150.5 385h-209v220h195v106h-195z" />
    <glyph glyph-name="trademark" unicode="&#x2122;" horiz-adv-x="1875" 
d="M840 547v971h258l184 -607l182 607h260v-971h-221v543l-153 -543h-146l-155 543v-543h-209zM307 547v764h-244v207h719v-207h-245v-764h-230z" />
    <glyph glyph-name="partialdiff" unicode="&#x2202;" horiz-adv-x="1703" 
d="M258 246q-88 105 -136 237t-48 277q0 144 48 276t136 236q6 -4 14 -12q-85 -103 -131.5 -231.5t-46.5 -268.5q0 -285 180 -500zM467 432q-117 143 -117 328q0 183 115 327q3 -2 8 -7t8 -7q-110 -136 -110 -313q0 -182 110 -314zM541 498q-92 116 -92 262t92 262
q3 -2 8 -7t8 -7q-88 -109 -88 -248t88 -248q-3 -2 -8 -7t-8 -7zM647 592q-57 72 -57 168q0 97 57 166l15 -15q-52 -69 -52 -151q0 -84 54 -154q-3 -2 -8.5 -7t-8.5 -7zM715 655q-33 48 -33 105q0 56 33 104q3 -2 8 -7t8 -7q-29 -44 -29 -90t29 -90q-3 -2 -16 -15zM774 709
q-14 25 -14 51t14 51l12 -10q-10 -20 -10 -41t10 -41q-4 -4 -12 -10zM852 123q-236 0 -412 158l2.5 2.5l5 5l5.5 5.5t2 1q171 -152 397 -152q227 0 395 152q2 -3 7.5 -8t7.5 -8q-177 -156 -410 -156zM852 664q-31 0 -55 18l12 12q21 -14 43 -14q26 0 43 14q4 -4 10 -12
q-21 -18 -53 -18zM987 653q-7 10 -14 15q28 42 28 92q0 51 -28 90l2.5 2.5t5 4.5t5.5 5t1 2q35 -44 35 -104t-35 -107zM598 551q-72 91 -72 209q0 119 74 209l14 -15q-67 -87 -67 -194q0 -108 67 -195q-10 -10 -16 -14zM852 -35q-145 0 -278 52.5t-238 146.5l14 16
q102 -92 231 -143t271 -51q285 0 500 192q0 1 3.5 -2.5t6.5 -7.5l4 -4q-104 -95 -236 -147t-278 -52zM852 248q-189 0 -330 125l15 16q134 -121 315 -121q182 0 313 121q2 -3 7.5 -8t7.5 -8q-138 -125 -328 -125zM852 348q-145 0 -264 101l14 14q108 -94 250 -94
q143 0 248 94q2 -3 7 -8.5t7 -8.5q-112 -98 -262 -98zM852 428q-116 0 -211 78l14 16q86 -73 197 -73t197 73q4 -4 12 -16q-91 -78 -209 -78zM852 543q-77 0 -135 49l14 16q51 -45 121 -45q68 0 119 45q2 -3 7 -8t7 -8q-58 -49 -133 -49zM733 911q-4 3 -7 6.5t-6 6.5l-3 4
q58 49 135 49t135 -49l-16 -17q-51 45 -119 45t-119 -45zM1167 1130q-134 121 -315 121q-179 0 -313 -118l-15 14q141 125 328 125q189 0 330 -125q-4 -6 -15 -17zM930 709l-12 10q10 20 10 41t-10 41l12 10q14 -25 14 -51t-14 -51zM958 682q-10 10 -16 14q21 32 21 64
t-21 63l16 15q25 -36 25 -78t-25 -78zM1020 627q-6 4 -16 14q38 50 38 119t-38 119l14 14q45 -57 45 -133q0 -71 -43 -133zM1106 551q-3 2 -8 7t-8 7q67 87 67 195t-70 194l17 15q74 -90 74 -209q0 -118 -72 -209zM1163 498q-10 10 -16 14q88 109 88 248t-88 248l16 14
q92 -116 92 -262t-92 -262zM1237 432q-6 4 -16 14q112 134 112 314q0 182 -112 313l16 14q117 -139 117 -327q0 -189 -117 -328zM1329 350q-2 2 -7 6t-7 6q141 175 141 398q0 227 -143 395l16 14q148 -179 148 -409q0 -231 -148 -410zM1446 246q-6 6 -16 14q180 215 180 500
t-180 500l16 14q88 -105 136 -237t48 -277q0 -144 -48 -276t-136 -238zM375 348q-148 182 -148 412q0 229 146 409q2 -2 7.5 -6.5t8.5 -7.5q-141 -170 -141 -395q0 -228 141 -398zM684 627q-43 59 -43 133t43 133q6 -4 16 -14q-38 -50 -38 -119q0 -67 38 -117zM745 682
q-24 34 -24 78t24 78q2 -3 4.5 -5.5t6 -5.5t4.5 -4q-19 -34 -19 -63q0 -30 19 -64zM809 825l-10 13q21 18 53 18t53 -18l-10 -13q-23 15 -43 15q-25 0 -43 -15zM786 852l-14 14q37 29 80 29q41 0 78 -29q-8 -8 -12 -14q-28 25 -66 25q-34 0 -66 -25zM760 881l-15 16
q45 39 107 39q61 0 106 -39l-14 -16q-37 34 -92 34t-92 -34zM604 1057l-14 16q112 98 262 98q151 0 262 -100q1 0 -2 -3.5t-6 -7.5l-4 -3q-108 94 -250 94q-143 0 -248 -94zM852 492q-100 0 -170 61l14 16q70 -57 156 -57q87 0 154 57l14 -14q-73 -63 -168 -63zM852 584
q-61 0 -109 39l15 16q47 -35 94 -35q51 0 92 35l14 -16q-45 -39 -106 -39zM852 625q-43 0 -82 28l14 15q36 -25 68 -25q34 0 66 25l14 -15q-36 -28 -80 -28zM698 950l-14 15q73 63 168 63q98 0 168 -61l-14 -17q-68 58 -154 58q-87 0 -154 -58zM655 997l-14 17q91 78 211 78
q119 0 209 -80l-12 -15q-83 74 -197 74q-110 0 -197 -74zM1249 1223q-166 153 -397 153q-227 0 -397 -151l-15 14q179 158 412 158t412 -158zM352 1339l-14 17q104 95 236 146.5t278 51.5q145 0 278 -52t238 -146l-14 -17q-102 93 -231 144t-271 51t-270 -51t-230 -144z
M1057 594l-15 14q52 69 52 152t-54 153l17 15q57 -72 57 -168q0 -97 -57 -166z" />
    <glyph glyph-name="product" unicode="&#x220f;" horiz-adv-x="1703" 
d="M258 246q-88 105 -136 237t-48 277q0 144 48 276t136 236q6 -4 14 -12q-85 -103 -131.5 -231.5t-46.5 -268.5q0 -285 180 -500zM467 432q-117 143 -117 328q0 183 115 327q3 -2 8 -7t8 -7q-110 -136 -110 -313q0 -182 110 -314zM541 498q-92 116 -92 262t92 262
q3 -2 8 -7t8 -7q-88 -109 -88 -248t88 -248q-3 -2 -8 -7t-8 -7zM647 592q-57 72 -57 168q0 97 57 166l15 -15q-52 -69 -52 -151q0 -84 54 -154q-3 -2 -8.5 -7t-8.5 -7zM715 655q-33 48 -33 105q0 56 33 104q3 -2 8 -7t8 -7q-29 -44 -29 -90t29 -90q-3 -2 -16 -15zM774 709
q-14 25 -14 51t14 51l12 -10q-10 -20 -10 -41t10 -41q-4 -4 -12 -10zM852 123q-236 0 -412 158l2.5 2.5l5 5l5.5 5.5t2 1q171 -152 397 -152q227 0 395 152q2 -3 7.5 -8t7.5 -8q-177 -156 -410 -156zM852 664q-31 0 -55 18l12 12q21 -14 43 -14q26 0 43 14q4 -4 10 -12
q-21 -18 -53 -18zM987 653q-7 10 -14 15q28 42 28 92q0 51 -28 90l2.5 2.5t5 4.5t5.5 5t1 2q35 -44 35 -104t-35 -107zM598 551q-72 91 -72 209q0 119 74 209l14 -15q-67 -87 -67 -194q0 -108 67 -195q-10 -10 -16 -14zM852 -35q-145 0 -278 52.5t-238 146.5l14 16
q102 -92 231 -143t271 -51q285 0 500 192q0 1 3.5 -2.5t6.5 -7.5l4 -4q-104 -95 -236 -147t-278 -52zM852 248q-189 0 -330 125l15 16q134 -121 315 -121q182 0 313 121q2 -3 7.5 -8t7.5 -8q-138 -125 -328 -125zM852 348q-145 0 -264 101l14 14q108 -94 250 -94
q143 0 248 94q2 -3 7 -8.5t7 -8.5q-112 -98 -262 -98zM852 428q-116 0 -211 78l14 16q86 -73 197 -73t197 73q4 -4 12 -16q-91 -78 -209 -78zM852 543q-77 0 -135 49l14 16q51 -45 121 -45q68 0 119 45q2 -3 7 -8t7 -8q-58 -49 -133 -49zM733 911q-4 3 -7 6.5t-6 6.5l-3 4
q58 49 135 49t135 -49l-16 -17q-51 45 -119 45t-119 -45zM1167 1130q-134 121 -315 121q-179 0 -313 -118l-15 14q141 125 328 125q189 0 330 -125q-4 -6 -15 -17zM930 709l-12 10q10 20 10 41t-10 41l12 10q14 -25 14 -51t-14 -51zM958 682q-10 10 -16 14q21 32 21 64
t-21 63l16 15q25 -36 25 -78t-25 -78zM1020 627q-6 4 -16 14q38 50 38 119t-38 119l14 14q45 -57 45 -133q0 -71 -43 -133zM1106 551q-3 2 -8 7t-8 7q67 87 67 195t-70 194l17 15q74 -90 74 -209q0 -118 -72 -209zM1163 498q-10 10 -16 14q88 109 88 248t-88 248l16 14
q92 -116 92 -262t-92 -262zM1237 432q-6 4 -16 14q112 134 112 314q0 182 -112 313l16 14q117 -139 117 -327q0 -189 -117 -328zM1329 350q-2 2 -7 6t-7 6q141 175 141 398q0 227 -143 395l16 14q148 -179 148 -409q0 -231 -148 -410zM1446 246q-6 6 -16 14q180 215 180 500
t-180 500l16 14q88 -105 136 -237t48 -277q0 -144 -48 -276t-136 -238zM375 348q-148 182 -148 412q0 229 146 409q2 -2 7.5 -6.5t8.5 -7.5q-141 -170 -141 -395q0 -228 141 -398zM684 627q-43 59 -43 133t43 133q6 -4 16 -14q-38 -50 -38 -119q0 -67 38 -117zM745 682
q-24 34 -24 78t24 78q2 -3 4.5 -5.5t6 -5.5t4.5 -4q-19 -34 -19 -63q0 -30 19 -64zM809 825l-10 13q21 18 53 18t53 -18l-10 -13q-23 15 -43 15q-25 0 -43 -15zM786 852l-14 14q37 29 80 29q41 0 78 -29q-8 -8 -12 -14q-28 25 -66 25q-34 0 -66 -25zM760 881l-15 16
q45 39 107 39q61 0 106 -39l-14 -16q-37 34 -92 34t-92 -34zM604 1057l-14 16q112 98 262 98q151 0 262 -100q1 0 -2 -3.5t-6 -7.5l-4 -3q-108 94 -250 94q-143 0 -248 -94zM852 492q-100 0 -170 61l14 16q70 -57 156 -57q87 0 154 57l14 -14q-73 -63 -168 -63zM852 584
q-61 0 -109 39l15 16q47 -35 94 -35q51 0 92 35l14 -16q-45 -39 -106 -39zM852 625q-43 0 -82 28l14 15q36 -25 68 -25q34 0 66 25l14 -15q-36 -28 -80 -28zM698 950l-14 15q73 63 168 63q98 0 168 -61l-14 -17q-68 58 -154 58q-87 0 -154 -58zM655 997l-14 17q91 78 211 78
q119 0 209 -80l-12 -15q-83 74 -197 74q-110 0 -197 -74zM1249 1223q-166 153 -397 153q-227 0 -397 -151l-15 14q179 158 412 158t412 -158zM352 1339l-14 17q104 95 236 146.5t278 51.5q145 0 278 -52t238 -146l-14 -17q-102 93 -231 144t-271 51t-270 -51t-230 -144z
M1057 594l-15 14q52 69 52 152t-54 153l17 15q57 -72 57 -168q0 -97 -57 -166z" />
    <glyph glyph-name="summation" unicode="&#x2211;" horiz-adv-x="1703" 
d="M258 246q-88 105 -136 237t-48 277q0 144 48 276t136 236q6 -4 14 -12q-85 -103 -131.5 -231.5t-46.5 -268.5q0 -285 180 -500zM467 432q-117 143 -117 328q0 183 115 327q3 -2 8 -7t8 -7q-110 -136 -110 -313q0 -182 110 -314zM541 498q-92 116 -92 262t92 262
q3 -2 8 -7t8 -7q-88 -109 -88 -248t88 -248q-3 -2 -8 -7t-8 -7zM647 592q-57 72 -57 168q0 97 57 166l15 -15q-52 -69 -52 -151q0 -84 54 -154q-3 -2 -8.5 -7t-8.5 -7zM715 655q-33 48 -33 105q0 56 33 104q3 -2 8 -7t8 -7q-29 -44 -29 -90t29 -90q-3 -2 -16 -15zM774 709
q-14 25 -14 51t14 51l12 -10q-10 -20 -10 -41t10 -41q-4 -4 -12 -10zM852 123q-236 0 -412 158l2.5 2.5l5 5l5.5 5.5t2 1q171 -152 397 -152q227 0 395 152q2 -3 7.5 -8t7.5 -8q-177 -156 -410 -156zM852 664q-31 0 -55 18l12 12q21 -14 43 -14q26 0 43 14q4 -4 10 -12
q-21 -18 -53 -18zM987 653q-7 10 -14 15q28 42 28 92q0 51 -28 90l2.5 2.5t5 4.5t5.5 5t1 2q35 -44 35 -104t-35 -107zM598 551q-72 91 -72 209q0 119 74 209l14 -15q-67 -87 -67 -194q0 -108 67 -195q-10 -10 -16 -14zM852 -35q-145 0 -278 52.5t-238 146.5l14 16
q102 -92 231 -143t271 -51q285 0 500 192q0 1 3.5 -2.5t6.5 -7.5l4 -4q-104 -95 -236 -147t-278 -52zM852 248q-189 0 -330 125l15 16q134 -121 315 -121q182 0 313 121q2 -3 7.5 -8t7.5 -8q-138 -125 -328 -125zM852 348q-145 0 -264 101l14 14q108 -94 250 -94
q143 0 248 94q2 -3 7 -8.5t7 -8.5q-112 -98 -262 -98zM852 428q-116 0 -211 78l14 16q86 -73 197 -73t197 73q4 -4 12 -16q-91 -78 -209 -78zM852 543q-77 0 -135 49l14 16q51 -45 121 -45q68 0 119 45q2 -3 7 -8t7 -8q-58 -49 -133 -49zM733 911q-4 3 -7 6.5t-6 6.5l-3 4
q58 49 135 49t135 -49l-16 -17q-51 45 -119 45t-119 -45zM1167 1130q-134 121 -315 121q-179 0 -313 -118l-15 14q141 125 328 125q189 0 330 -125q-4 -6 -15 -17zM930 709l-12 10q10 20 10 41t-10 41l12 10q14 -25 14 -51t-14 -51zM958 682q-10 10 -16 14q21 32 21 64
t-21 63l16 15q25 -36 25 -78t-25 -78zM1020 627q-6 4 -16 14q38 50 38 119t-38 119l14 14q45 -57 45 -133q0 -71 -43 -133zM1106 551q-3 2 -8 7t-8 7q67 87 67 195t-70 194l17 15q74 -90 74 -209q0 -118 -72 -209zM1163 498q-10 10 -16 14q88 109 88 248t-88 248l16 14
q92 -116 92 -262t-92 -262zM1237 432q-6 4 -16 14q112 134 112 314q0 182 -112 313l16 14q117 -139 117 -327q0 -189 -117 -328zM1329 350q-2 2 -7 6t-7 6q141 175 141 398q0 227 -143 395l16 14q148 -179 148 -409q0 -231 -148 -410zM1446 246q-6 6 -16 14q180 215 180 500
t-180 500l16 14q88 -105 136 -237t48 -277q0 -144 -48 -276t-136 -238zM375 348q-148 182 -148 412q0 229 146 409q2 -2 7.5 -6.5t8.5 -7.5q-141 -170 -141 -395q0 -228 141 -398zM684 627q-43 59 -43 133t43 133q6 -4 16 -14q-38 -50 -38 -119q0 -67 38 -117zM745 682
q-24 34 -24 78t24 78q2 -3 4.5 -5.5t6 -5.5t4.5 -4q-19 -34 -19 -63q0 -30 19 -64zM809 825l-10 13q21 18 53 18t53 -18l-10 -13q-23 15 -43 15q-25 0 -43 -15zM786 852l-14 14q37 29 80 29q41 0 78 -29q-8 -8 -12 -14q-28 25 -66 25q-34 0 -66 -25zM760 881l-15 16
q45 39 107 39q61 0 106 -39l-14 -16q-37 34 -92 34t-92 -34zM604 1057l-14 16q112 98 262 98q151 0 262 -100q1 0 -2 -3.5t-6 -7.5l-4 -3q-108 94 -250 94q-143 0 -248 -94zM852 492q-100 0 -170 61l14 16q70 -57 156 -57q87 0 154 57l14 -14q-73 -63 -168 -63zM852 584
q-61 0 -109 39l15 16q47 -35 94 -35q51 0 92 35l14 -16q-45 -39 -106 -39zM852 625q-43 0 -82 28l14 15q36 -25 68 -25q34 0 66 25l14 -15q-36 -28 -80 -28zM698 950l-14 15q73 63 168 63q98 0 168 -61l-14 -17q-68 58 -154 58q-87 0 -154 -58zM655 997l-14 17q91 78 211 78
q119 0 209 -80l-12 -15q-83 74 -197 74q-110 0 -197 -74zM1249 1223q-166 153 -397 153q-227 0 -397 -151l-15 14q179 158 412 158t412 -158zM352 1339l-14 17q104 95 236 146.5t278 51.5q145 0 278 -52t238 -146l-14 -17q-102 93 -231 144t-271 51t-270 -51t-230 -144z
M1057 594l-15 14q52 69 52 152t-54 153l17 15q57 -72 57 -168q0 -97 -57 -166z" />
    <glyph glyph-name="minus" unicode="&#x2212;" horiz-adv-x="1247" 
d="M162 588v268h923v-268h-923z" />
    <glyph glyph-name="radical" unicode="&#x221a;" horiz-adv-x="1196" 
d="M346 -10l-299 925h326l145 -516l328 1119h305l-481 -1528h-324z" />
    <glyph glyph-name="infinity" unicode="&#x221e;" horiz-adv-x="1855" 
d="M825 0v891h-303v-891h-309v891h-188v270h188v94q0 357 405 357q91 0 107 -2v-269h-76q-78 0 -102.5 -27t-24.5 -93v-60h303v94q0 357 408 357q90 0 104 -2v-269h-75q-76 0 -101.5 -27.5t-25.5 -92.5v-60h202v-270h-202v-891h-310zM1440 0v1161h309v-1161h-309zM1438 1266
v280h313v-280h-313z" />
    <glyph glyph-name="integral" unicode="&#x222b;" horiz-adv-x="1703" 
d="M258 246q-88 105 -136 237t-48 277q0 144 48 276t136 236q6 -4 14 -12q-85 -103 -131.5 -231.5t-46.5 -268.5q0 -285 180 -500zM467 432q-117 143 -117 328q0 183 115 327q3 -2 8 -7t8 -7q-110 -136 -110 -313q0 -182 110 -314zM541 498q-92 116 -92 262t92 262
q3 -2 8 -7t8 -7q-88 -109 -88 -248t88 -248q-3 -2 -8 -7t-8 -7zM647 592q-57 72 -57 168q0 97 57 166l15 -15q-52 -69 -52 -151q0 -84 54 -154q-3 -2 -8.5 -7t-8.5 -7zM715 655q-33 48 -33 105q0 56 33 104q3 -2 8 -7t8 -7q-29 -44 -29 -90t29 -90q-3 -2 -16 -15zM774 709
q-14 25 -14 51t14 51l12 -10q-10 -20 -10 -41t10 -41q-4 -4 -12 -10zM852 123q-236 0 -412 158l2.5 2.5l5 5l5.5 5.5t2 1q171 -152 397 -152q227 0 395 152q2 -3 7.5 -8t7.5 -8q-177 -156 -410 -156zM852 664q-31 0 -55 18l12 12q21 -14 43 -14q26 0 43 14q4 -4 10 -12
q-21 -18 -53 -18zM987 653q-7 10 -14 15q28 42 28 92q0 51 -28 90l2.5 2.5t5 4.5t5.5 5t1 2q35 -44 35 -104t-35 -107zM598 551q-72 91 -72 209q0 119 74 209l14 -15q-67 -87 -67 -194q0 -108 67 -195q-10 -10 -16 -14zM852 -35q-145 0 -278 52.5t-238 146.5l14 16
q102 -92 231 -143t271 -51q285 0 500 192q0 1 3.5 -2.5t6.5 -7.5l4 -4q-104 -95 -236 -147t-278 -52zM852 248q-189 0 -330 125l15 16q134 -121 315 -121q182 0 313 121q2 -3 7.5 -8t7.5 -8q-138 -125 -328 -125zM852 348q-145 0 -264 101l14 14q108 -94 250 -94
q143 0 248 94q2 -3 7 -8.5t7 -8.5q-112 -98 -262 -98zM852 428q-116 0 -211 78l14 16q86 -73 197 -73t197 73q4 -4 12 -16q-91 -78 -209 -78zM852 543q-77 0 -135 49l14 16q51 -45 121 -45q68 0 119 45q2 -3 7 -8t7 -8q-58 -49 -133 -49zM733 911q-4 3 -7 6.5t-6 6.5l-3 4
q58 49 135 49t135 -49l-16 -17q-51 45 -119 45t-119 -45zM1167 1130q-134 121 -315 121q-179 0 -313 -118l-15 14q141 125 328 125q189 0 330 -125q-4 -6 -15 -17zM930 709l-12 10q10 20 10 41t-10 41l12 10q14 -25 14 -51t-14 -51zM958 682q-10 10 -16 14q21 32 21 64
t-21 63l16 15q25 -36 25 -78t-25 -78zM1020 627q-6 4 -16 14q38 50 38 119t-38 119l14 14q45 -57 45 -133q0 -71 -43 -133zM1106 551q-3 2 -8 7t-8 7q67 87 67 195t-70 194l17 15q74 -90 74 -209q0 -118 -72 -209zM1163 498q-10 10 -16 14q88 109 88 248t-88 248l16 14
q92 -116 92 -262t-92 -262zM1237 432q-6 4 -16 14q112 134 112 314q0 182 -112 313l16 14q117 -139 117 -327q0 -189 -117 -328zM1329 350q-2 2 -7 6t-7 6q141 175 141 398q0 227 -143 395l16 14q148 -179 148 -409q0 -231 -148 -410zM1446 246q-6 6 -16 14q180 215 180 500
t-180 500l16 14q88 -105 136 -237t48 -277q0 -144 -48 -276t-136 -238zM375 348q-148 182 -148 412q0 229 146 409q2 -2 7.5 -6.5t8.5 -7.5q-141 -170 -141 -395q0 -228 141 -398zM684 627q-43 59 -43 133t43 133q6 -4 16 -14q-38 -50 -38 -119q0 -67 38 -117zM745 682
q-24 34 -24 78t24 78q2 -3 4.5 -5.5t6 -5.5t4.5 -4q-19 -34 -19 -63q0 -30 19 -64zM809 825l-10 13q21 18 53 18t53 -18l-10 -13q-23 15 -43 15q-25 0 -43 -15zM786 852l-14 14q37 29 80 29q41 0 78 -29q-8 -8 -12 -14q-28 25 -66 25q-34 0 -66 -25zM760 881l-15 16
q45 39 107 39q61 0 106 -39l-14 -16q-37 34 -92 34t-92 -34zM604 1057l-14 16q112 98 262 98q151 0 262 -100q1 0 -2 -3.5t-6 -7.5l-4 -3q-108 94 -250 94q-143 0 -248 -94zM852 492q-100 0 -170 61l14 16q70 -57 156 -57q87 0 154 57l14 -14q-73 -63 -168 -63zM852 584
q-61 0 -109 39l15 16q47 -35 94 -35q51 0 92 35l14 -16q-45 -39 -106 -39zM852 625q-43 0 -82 28l14 15q36 -25 68 -25q34 0 66 25l14 -15q-36 -28 -80 -28zM698 950l-14 15q73 63 168 63q98 0 168 -61l-14 -17q-68 58 -154 58q-87 0 -154 -58zM655 997l-14 17q91 78 211 78
q119 0 209 -80l-12 -15q-83 74 -197 74q-110 0 -197 -74zM1249 1223q-166 153 -397 153q-227 0 -397 -151l-15 14q179 158 412 158t412 -158zM352 1339l-14 17q104 95 236 146.5t278 51.5q145 0 278 -52t238 -146l-14 -17q-102 93 -231 144t-271 51t-270 -51t-230 -144z
M1057 594l-15 14q52 69 52 152t-54 153l17 15q57 -72 57 -168q0 -97 -57 -166z" />
    <glyph glyph-name="approxequal" unicode="&#x2248;" horiz-adv-x="1247" 
d="M322 774l-211 123q62 121 136.5 176t176.5 55q62 0 134 -21.5t134.5 -43t102.5 -21.5q34 0 64 22.5t69 76.5l209 -121q-62 -121 -136.5 -177.5t-177.5 -56.5q-63 0 -133.5 21.5t-133 43t-103.5 21.5q-35 0 -64.5 -22t-66.5 -76zM322 305l-211 123q62 121 136.5 176
t176.5 55q62 0 134 -21.5t134.5 -43t102.5 -21.5q35 0 64.5 22.5t68.5 76.5l209 -121q-62 -121 -136.5 -177.5t-177.5 -56.5q-63 0 -133.5 21t-133 42t-103.5 21q-36 0 -65.5 -21.5t-65.5 -74.5z" />
    <glyph glyph-name="notequal" unicode="&#x2260;" horiz-adv-x="1411" 
d="M825 0v891h-303v-891h-309v891h-188v270h188v94q0 357 405 357q91 0 107 -2v-269h-76q-78 0 -102.5 -27t-24.5 -93v-60h303v94q0 357 408 357q94 0 168 -4v-267h-139q-76 0 -101.5 -27.5t-25.5 -92.5v-60h266v-270h-266v-891h-310z" />
    <glyph glyph-name="lessequal" unicode="&#x2264;" horiz-adv-x="1247" 
d="M186 12v269h631l-631 337v213l803 429v-297l-479 -238l479 -238v-475h-803z" />
    <glyph glyph-name="greaterequal" unicode="&#x2265;" horiz-adv-x="1247" 
d="M258 12v475l477 238l-477 238v297l803 -429v-213l-631 -337h631v-269h-803z" />
    <glyph glyph-name="lozenge" unicode="&#x25ca;" horiz-adv-x="1472" 
d="M25 891v270h188v94q0 357 405 357q91 0 107 -2v-269h-76q-78 0 -102.5 -27t-24.5 -93v-60h322l49 260l246 56v-316h264v-270h-264v-500q0 -35 4 -54.5t17 -37t39.5 -24.5t70.5 -7h133v-268q-137 -10 -172 -10q-157 0 -244 37.5t-122.5 114.5t-35.5 212v537h-307v-891
h-309v891h-188z" />
    <glyph glyph-name="apple" unicode="&#xf8ff;" horiz-adv-x="1703" 
d="M258 246q-88 105 -136 237t-48 277q0 144 48 276t136 236q6 -4 14 -12q-85 -103 -131.5 -231.5t-46.5 -268.5q0 -285 180 -500zM467 432q-117 143 -117 328q0 183 115 327q3 -2 8 -7t8 -7q-110 -136 -110 -313q0 -182 110 -314zM541 498q-92 116 -92 262t92 262
q3 -2 8 -7t8 -7q-88 -109 -88 -248t88 -248q-3 -2 -8 -7t-8 -7zM647 592q-57 72 -57 168q0 97 57 166l15 -15q-52 -69 -52 -151q0 -84 54 -154q-3 -2 -8.5 -7t-8.5 -7zM715 655q-33 48 -33 105q0 56 33 104q3 -2 8 -7t8 -7q-29 -44 -29 -90t29 -90q-3 -2 -16 -15zM774 709
q-14 25 -14 51t14 51l12 -10q-10 -20 -10 -41t10 -41q-4 -4 -12 -10zM852 123q-236 0 -412 158l2.5 2.5l5 5l5.5 5.5t2 1q171 -152 397 -152q227 0 395 152q2 -3 7.5 -8t7.5 -8q-177 -156 -410 -156zM852 664q-31 0 -55 18l12 12q21 -14 43 -14q26 0 43 14q4 -4 10 -12
q-21 -18 -53 -18zM987 653q-7 10 -14 15q28 42 28 92q0 51 -28 90l2.5 2.5t5 4.5t5.5 5t1 2q35 -44 35 -104t-35 -107zM598 551q-72 91 -72 209q0 119 74 209l14 -15q-67 -87 -67 -194q0 -108 67 -195q-10 -10 -16 -14zM852 -35q-145 0 -278 52.5t-238 146.5l14 16
q102 -92 231 -143t271 -51q285 0 500 192q0 1 3.5 -2.5t6.5 -7.5l4 -4q-104 -95 -236 -147t-278 -52zM852 248q-189 0 -330 125l15 16q134 -121 315 -121q182 0 313 121q2 -3 7.5 -8t7.5 -8q-138 -125 -328 -125zM852 348q-145 0 -264 101l14 14q108 -94 250 -94
q143 0 248 94q2 -3 7 -8.5t7 -8.5q-112 -98 -262 -98zM852 428q-116 0 -211 78l14 16q86 -73 197 -73t197 73q4 -4 12 -16q-91 -78 -209 -78zM852 543q-77 0 -135 49l14 16q51 -45 121 -45q68 0 119 45q2 -3 7 -8t7 -8q-58 -49 -133 -49zM733 911q-4 3 -7 6.5t-6 6.5l-3 4
q58 49 135 49t135 -49l-16 -17q-51 45 -119 45t-119 -45zM1167 1130q-134 121 -315 121q-179 0 -313 -118l-15 14q141 125 328 125q189 0 330 -125q-4 -6 -15 -17zM930 709l-12 10q10 20 10 41t-10 41l12 10q14 -25 14 -51t-14 -51zM958 682q-10 10 -16 14q21 32 21 64
t-21 63l16 15q25 -36 25 -78t-25 -78zM1020 627q-6 4 -16 14q38 50 38 119t-38 119l14 14q45 -57 45 -133q0 -71 -43 -133zM1106 551q-3 2 -8 7t-8 7q67 87 67 195t-70 194l17 15q74 -90 74 -209q0 -118 -72 -209zM1163 498q-10 10 -16 14q88 109 88 248t-88 248l16 14
q92 -116 92 -262t-92 -262zM1237 432q-6 4 -16 14q112 134 112 314q0 182 -112 313l16 14q117 -139 117 -327q0 -189 -117 -328zM1329 350q-2 2 -7 6t-7 6q141 175 141 398q0 227 -143 395l16 14q148 -179 148 -409q0 -231 -148 -410zM1446 246q-6 6 -16 14q180 215 180 500
t-180 500l16 14q88 -105 136 -237t48 -277q0 -144 -48 -276t-136 -238zM375 348q-148 182 -148 412q0 229 146 409q2 -2 7.5 -6.5t8.5 -7.5q-141 -170 -141 -395q0 -228 141 -398zM684 627q-43 59 -43 133t43 133q6 -4 16 -14q-38 -50 -38 -119q0 -67 38 -117zM745 682
q-24 34 -24 78t24 78q2 -3 4.5 -5.5t6 -5.5t4.5 -4q-19 -34 -19 -63q0 -30 19 -64zM809 825l-10 13q21 18 53 18t53 -18l-10 -13q-23 15 -43 15q-25 0 -43 -15zM786 852l-14 14q37 29 80 29q41 0 78 -29q-8 -8 -12 -14q-28 25 -66 25q-34 0 -66 -25zM760 881l-15 16
q45 39 107 39q61 0 106 -39l-14 -16q-37 34 -92 34t-92 -34zM604 1057l-14 16q112 98 262 98q151 0 262 -100q1 0 -2 -3.5t-6 -7.5l-4 -3q-108 94 -250 94q-143 0 -248 -94zM852 492q-100 0 -170 61l14 16q70 -57 156 -57q87 0 154 57l14 -14q-73 -63 -168 -63zM852 584
q-61 0 -109 39l15 16q47 -35 94 -35q51 0 92 35l14 -16q-45 -39 -106 -39zM852 625q-43 0 -82 28l14 15q36 -25 68 -25q34 0 66 25l14 -15q-36 -28 -80 -28zM698 950l-14 15q73 63 168 63q98 0 168 -61l-14 -17q-68 58 -154 58q-87 0 -154 -58zM655 997l-14 17q91 78 211 78
q119 0 209 -80l-12 -15q-83 74 -197 74q-110 0 -197 -74zM1249 1223q-166 153 -397 153q-227 0 -397 -151l-15 14q179 158 412 158t412 -158zM352 1339l-14 17q104 95 236 146.5t278 51.5q145 0 278 -52t238 -146l-14 -17q-102 93 -231 144t-271 51t-270 -51t-230 -144z
M1057 594l-15 14q52 69 52 152t-54 153l17 15q57 -72 57 -168q0 -97 -57 -166z" />
    </font>
</defs>
</svg>
