<?xml version="1.0" standalone="no"?>
<!DOCTYPE svg PUBLIC "-//W3C//DTD SVG 1.1//EN" "http://www.w3.org/Graphics/SVG/1.1/DTD/svg11.dtd" >
<svg xmlns="http://www.w3.org/2000/svg" xmlns:xlink="http://www.w3.org/1999/xlink" version="1.1">
<metadata>
Created by FontForge 20201107 at Wed Dec 24 15:01:20 2025
 By 
Copyright (c) The Font Bureau, Inc., 2003. All rights reserved.
</metadata>
<defs>
<font id="Antenna-ThinItalic" horiz-adv-x="1208" >
  <font-face 
    font-family="Antenna ThinItalic"
    font-weight="100"
    font-style="italic"
    font-stretch="normal"
    units-per-em="2048"
    panose-1="2 0 5 3 0 0 0 2 0 4"
    ascent="1638"
    descent="-410"
    x-height="1110"
    cap-height="1518"
    bbox="-279 -426 2677 1923"
    underline-thickness="102"
    underline-position="-204"
    slope="-12"
    unicode-range="U+0020-FB02"
  />
<missing-glyph horiz-adv-x="505" 
 />
    <glyph glyph-name="fi" unicode="fi" horiz-adv-x="1091" 
d="M133 1061l10 49h211l41 193q15 68 37.5 117t60.5 89t97 60t139 20h86l-10 -49h-76q-71 0 -121.5 -18t-82 -54t-49 -77t-30.5 -99l-38 -182h305l-11 -49h-305l-297 -1399h-53l297 1399h-211zM694 0l236 1110h53l-235 -1110h-54zM969 1288l37 174h53l-37 -174h-53z" />
    <glyph glyph-name="fl" unicode="fl" horiz-adv-x="1210" 
d="M133 1061l10 49h211l41 193q15 68 37.5 117t60.5 89t97 60t139 20h86l-10 -49h-76q-71 0 -121.5 -18t-82 -54t-49 -77t-30.5 -99l-38 -182h305l-11 -49h-305l-297 -1399h-53l297 1399h-211zM895 0q-88 0 -128 28.5t-39 81.5t17 128l287 1351h53l-290 -1372
q-25 -92 -6.5 -130t108.5 -38h55l-10 -49h-47z" />
    <glyph glyph-name="f_f_l" unicode="ffl" horiz-adv-x="1785" 
d="M623 -338l297 1399h-523l-297 -1399h-53l297 1399h-211l10 49h211l41 193q15 68 37.5 117t60.5 89t97 60t139 20h86l-10 -49h-76q-71 0 -121.5 -18t-82 -54t-49 -77t-30.5 -99l-38 -182h522l41 193q15 68 37.5 117t60.5 89t97 60t139 20h86l-11 -49h-75q-71 0 -121.5 -18
t-82 -54t-49 -77t-30.5 -99l-39 -182h305l-10 -49h-305l-297 -1399h-53zM1470 0q-88 0 -127.5 28.5t-38.5 81.5t17 128l287 1351h53l-291 -1372q-25 -92 -6 -130t109 -38h55l-10 -49h-48z" />
    <glyph glyph-name="f_f_i" unicode="ffi" horiz-adv-x="1667" 
d="M623 -338l297 1399h-523l-297 -1399h-53l297 1399h-211l10 49h211l41 193q15 68 37.5 117t60.5 89t97 60t139 20h86l-10 -49h-76q-71 0 -121.5 -18t-82 -54t-49 -77t-30.5 -99l-38 -182h522l41 193q15 68 37.5 117t60.5 89t97 60t139 20h86l-11 -49h-75q-71 0 -121.5 -18
t-82 -54t-49 -77t-30.5 -99l-39 -182h305l-10 -49h-305l-297 -1399h-53zM1270 0l235 1110h54l-236 -1110h-53zM1544 1288l37 174h53l-37 -174h-53z" />
    <glyph glyph-name="f_j" unicode="fj" horiz-adv-x="1091" 
d="M133 1061l10 49h211l41 193q15 68 37.5 117t60.5 89t97 60t139 20h86l-10 -49h-76q-71 0 -121.5 -18t-82 -54t-49 -77t-30.5 -99l-38 -182h305l-11 -49h-305l-297 -1399h-53l297 1399h-211zM442 -338l11 49h6q108 0 149 38.5t66 154.5l256 1206h53l-258 -1214
q-29 -135 -81.5 -184.5t-184.5 -49.5h-17zM969 1288l37 174h53l-37 -174h-53z" />
    <glyph glyph-name="f_f" unicode="ff" horiz-adv-x="1265" 
d="M623 -338l297 1399h-523l-297 -1399h-53l297 1399h-211l10 49h211l41 193q15 68 37.5 117t60.5 89t97 60t139 20h86l-10 -49h-76q-71 0 -121.5 -18t-82 -54t-49 -77t-30.5 -99l-38 -182h522l41 193q15 68 37.5 117t60.5 89t97 60t139 20h86l-11 -49h-75q-71 0 -121.5 -18
t-82 -54t-49 -77t-30.5 -99l-39 -182h305l-10 -49h-305l-297 -1399h-53z" />
    <glyph glyph-name=".notdef" horiz-adv-x="505" 
 />
    <glyph glyph-name=".null" horiz-adv-x="0" 
 />
    <glyph glyph-name="nonmarkingreturn" horiz-adv-x="682" 
 />
    <glyph glyph-name="space" unicode=" " horiz-adv-x="505" 
 />
    <glyph glyph-name="space" unicode="&#xa0;" horiz-adv-x="505" 
 />
    <glyph glyph-name="exclam" unicode="!" horiz-adv-x="679" 
d="M127 0l29 131h102l-29 -131h-102zM236 377l235 1141h61l-251 -1141h-45z" />
    <glyph glyph-name="quotedbl" unicode="&#x22;" horiz-adv-x="856" 
d="M279 1014l100 504h53l-117 -504h-36zM647 1014l101 504h53l-117 -504h-37z" />
    <glyph glyph-name="numbersign" unicode="#" horiz-adv-x="1425" 
d="M285 0l108 516h-299l12 49h297l91 416h-299l10 49h299l104 488h54l-105 -488h408l104 488h53l-104 -488h313l-10 -49h-313l-88 -416h311l-12 -49h-310l-110 -516h-54l109 516h-405l-111 -516h-53zM459 565h405l90 416h-407z" />
    <glyph glyph-name="dollar" unicode="$" horiz-adv-x="1290" 
d="M426 -193l41 197q-265 21 -422 182l37 35q147 -150 397 -168l158 735q-63 23 -105.5 42.5t-88 48.5t-72 61t-43.5 77.5t-17 100.5q0 192 121 296t322 104h34l27 124h53l-26 -129q207 -21 323 -122l-35 -37q-113 95 -303 110l-135 -643q68 -25 114.5 -46t96.5 -52.5
t80 -65.5t49 -82t19 -106q0 -116 -38.5 -207t-105.5 -147.5t-153 -85.5t-185 -29h-49l-41 -193h-53zM997 469q0 50 -16 90.5t-40 68.5t-68 55.5t-85 45.5t-106 43l-154 -723h41q88 0 164.5 26t136 76t93.5 132t34 186zM365 1118q0 -47 15 -85.5t38 -65t62.5 -51.5t76 -41.5
t90.5 -36.5l133 630h-26q-177 0 -283 -90.5t-106 -259.5z" />
    <glyph glyph-name="percent" unicode="%" horiz-adv-x="2015" 
d="M453 612q-301 0 -301 312q0 90 15 177t48.5 167t81.5 140.5t119 97t157 36.5q301 0 301 -317q0 -176 -51 -314.5t-147.5 -218.5t-222.5 -80zM453 662q166 0 267 158t101 405q0 268 -248 268q-93 0 -166 -50.5t-115.5 -133.5t-64.5 -181.5t-22 -203.5q0 -120 58.5 -191
t189.5 -71zM1442 -23q-301 0 -301 312q0 90 15 177t48.5 167t82 140.5t119.5 97t157 36.5q301 0 301 -317q0 -176 -51 -314.5t-148 -218.5t-223 -80zM1442 27q166 0 267 158t101 405q0 268 -247 268q-93 0 -166 -50.5t-116 -133.5t-65 -181.5t-22 -203.5q0 -120 58.5 -191
t189.5 -71zM436 0l1127 1518h55l-1126 -1518h-56z" />
    <glyph glyph-name="ampersand" unicode="&#x26;" horiz-adv-x="1538" 
d="M479 -23q-129 0 -220.5 23.5t-143 67.5t-74.5 100.5t-23 130.5q0 98 26 180.5t65 139.5t102.5 109t119 84.5t134.5 70.5q-19 117 -19 213q0 229 77.5 337.5t217.5 108.5q234 0 234 -211q0 -43 -8 -82.5t-20.5 -71.5t-35.5 -63t-44 -54t-56 -49t-62.5 -43t-71.5 -40.5
t-74.5 -38t-80.5 -37.5q66 -341 244 -559q55 -70 106 -115q212 187 394 676l49 -16q-185 -495 -404 -693q81 -61 156.5 -78.5t183.5 -17.5h37l-10 -49h-27q-113 0 -202.5 23t-176.5 90q-172 -136 -393 -136zM479 27q204 0 355 118q-50 42 -109 117q-183 229 -252 572
q-71 -35 -121.5 -65.5t-107 -78.5t-91.5 -100.5t-58 -127.5t-23 -163q0 -63 20 -110.5t65.5 -85t126.5 -57t195 -19.5zM500 1096q0 -103 14 -195q173 82 242 131q147 105 164 256q2 21 2 43q0 162 -181 162q-114 0 -177.5 -96.5t-63.5 -300.5z" />
    <glyph glyph-name="quotesingle" unicode="'" horiz-adv-x="487" 
d="M279 1014l100 504h53l-117 -504h-36z" />
    <glyph glyph-name="parenleft" unicode="(" horiz-adv-x="919" 
d="M457 -365q-111 111 -189 303.5t-78 428.5q0 165 42 329t111 298.5t158.5 253.5t184 205t188.5 142l27 -43q-91 -54 -181 -137t-176.5 -197.5t-152.5 -244.5t-106.5 -288t-40.5 -318q0 -227 73 -410t177 -287z" />
    <glyph glyph-name="parenright" unicode=")" horiz-adv-x="919" 
d="M-18 -365l-27 43q91 54 181 137t176.5 198t152.5 244.5t106.5 288t40.5 318.5q0 227 -73 410t-177 287l37 34q111 -111 189 -303t78 -428q0 -165 -42 -329t-111 -298.5t-158.5 -254t-184 -205.5t-188.5 -142z" />
    <glyph glyph-name="asterisk" unicode="*" horiz-adv-x="1134" 
d="M565 594l-49 10l94 416l-407 -133l-15 47l406 127l-318 285l33 36l318 -290l82 421l49 -10l-94 -418l407 136l14 -47l-407 -130l319 -282l-32 -37l-316 287z" />
    <glyph glyph-name="plus" unicode="+" horiz-adv-x="1390" 
d="M561 262l92 436h-434l12 50h435l92 436h53l-92 -436h434l-12 -50h-434l-93 -436h-53z" />
    <glyph glyph-name="comma" unicode="," horiz-adv-x="421" 
d="M-43 -193l-16 35q51 28 76 62t38 96h-57l29 131h102l-25 -113q-19 -85 -51 -131t-96 -80z" />
    <glyph glyph-name="hyphen" unicode="-" horiz-adv-x="958" 
d="M86 575l10 50h711l-10 -50h-711z" />
    <glyph glyph-name="hyphen" unicode="&#xad;" horiz-adv-x="958" 
d="M86 575l10 50h711l-10 -50h-711z" />
    <glyph glyph-name="period" unicode="." horiz-adv-x="421" 
d="M-2 0l29 131h102l-29 -131h-102z" />
    <glyph glyph-name="slash" unicode="/" horiz-adv-x="911" 
d="M-162 0l1176 1518h59l-1175 -1518h-60z" />
    <glyph glyph-name="zero" unicode="0" horiz-adv-x="1398" 
d="M600 -23q-130 0 -221.5 31t-143 91.5t-74 138.5t-22.5 182q0 178 47 395q29 136 62 238.5t84 198.5t116 157t158 97t209 36q445 0 445 -461q0 -160 -48 -374q-29 -136 -62 -239t-83.5 -199t-113.5 -157.5t-152.5 -98t-200.5 -36.5zM600 27q101 0 182.5 34.5t139 92.5
t104 149t77 188t58.5 226q45 205 45 364q0 92 -19 163.5t-62 129t-121.5 88.5t-188.5 31q-105 0 -190 -34.5t-144 -92t-106.5 -148t-78 -187.5t-58.5 -226q-45 -213 -45 -385q0 -74 12 -132.5t40.5 -108.5t75 -82.5t116.5 -51t163 -18.5z" />
    <glyph glyph-name="one" unicode="1" horiz-adv-x="710" 
d="M229 0l312 1468h-310l13 50h362l-323 -1518h-54z" />
    <glyph glyph-name="two" unicode="2" horiz-adv-x="1095" 
d="M-78 0l10 49l621 567q29 26 82 74t75.5 69t64 60t59 59.5t47 55t41.5 58t29.5 57.5t24 64.5t12 68t5.5 78.5q0 113 -81.5 173t-264.5 60q-196 0 -352 -72l-23 45q168 76 375 76q211 0 305.5 -72.5t94.5 -209.5q0 -65 -8.5 -118.5t-38.5 -109t-51 -90.5t-82.5 -98.5
t-94.5 -95t-125 -114.5q-39 -35 -59 -54l-584 -531h807l-10 -49h-879z" />
    <glyph glyph-name="three" unicode="3" horiz-adv-x="1187" 
d="M459 -23q-167 0 -280 34t-240 110l28 41q120 -72 227 -103.5t265 -31.5q214 0 327 126t113 369q0 71 -18.5 122.5t-62.5 91t-121.5 59.5t-190.5 20h-148l11 49h225q216 0 317 90t101 297q0 121 -88.5 181.5t-278.5 60.5q-206 0 -377 -90l-24 43q181 96 401 96
q217 0 318.5 -73t101.5 -218q0 -190 -78 -290t-239 -130q204 -68 204 -309q0 -267 -127 -406t-366 -139z" />
    <glyph glyph-name="four" unicode="4" horiz-adv-x="1284" 
d="M63 432l11 49l909 1037h64l-912 -1037h664l127 549h43l-117 -549h289l-11 -49h-288l-92 -432h-54l90 432h-723z" />
    <glyph glyph-name="five" unicode="5" horiz-adv-x="1234" 
d="M492 -23q-89 0 -161.5 11.5t-132.5 36t-96.5 44.5t-89.5 54l29 41q49 -32 84.5 -51.5t91.5 -41.5t124 -33t151 -11q80 0 150.5 15.5t138.5 55t116 101t77.5 161t29.5 228.5q0 173 -104 256.5t-298 83.5q-172 0 -348 -92l-45 14l182 668h772l-10 -50h-721l-156 -569
q166 78 326 78q220 0 337.5 -95.5t117.5 -293.5q0 -140 -32.5 -248.5t-85.5 -175.5t-128 -110.5t-152.5 -60t-166.5 -16.5z" />
    <glyph glyph-name="six" unicode="6" horiz-adv-x="1318" 
d="M600 -23q-242 0 -364.5 102.5t-122.5 319.5q0 100 28 240q36 169 75 291t94 224.5t124.5 168t166.5 111t219 65t282 19.5h28l-12 -50h-16q-166 0 -291 -24t-217 -70.5t-159 -126t-112 -180t-81 -242.5q64 84 179 136.5t263 52.5q121 0 209.5 -29t141 -83.5t77.5 -124.5
t25 -159q0 -141 -32.5 -257t-97 -202.5t-168.5 -134t-239 -47.5zM600 27q125 0 219.5 45.5t151 127t84.5 186.5t28 232q0 165 -93 256t-306 91q-82 0 -154.5 -17t-140.5 -58t-116.5 -104t-77.5 -162t-29 -225q0 -372 434 -372z" />
    <glyph glyph-name="seven" unicode="7" horiz-adv-x="983" 
d="M92 0l959 1468h-842l12 50h901l-12 -50l-958 -1468h-60z" />
    <glyph glyph-name="eight" unicode="8" horiz-adv-x="1327" 
d="M567 -23q-491 0 -491 363q0 122 31 215t89 153t131 95t165 49q-203 66 -203 270q0 420 477 420q451 0 451 -309q0 -189 -87 -285.5t-253 -120.5q233 -78 233 -327q0 -115 -30 -205.5t-80.5 -149.5t-121 -97.5t-147.5 -54.5t-164 -16zM567 27q79 0 148 14.5t133 49.5
t109.5 87.5t72.5 135t27 186.5q0 152 -107 234.5t-321 82.5q-106 0 -193 -25t-157.5 -78.5t-110 -148.5t-39.5 -225q0 -313 438 -313zM739 862q205 0 314.5 86t109.5 285q0 260 -397 260q-424 0 -424 -371q0 -260 397 -260z" />
    <glyph glyph-name="nine" unicode="9" horiz-adv-x="1318" 
d="M184 0l13 49h16q166 0 291 24t217 70.5t159 126t112 180t81 242.5q-63 -84 -178 -136t-264 -52q-236 0 -344.5 106t-108.5 289q0 141 32.5 257t97 202.5t168.5 134t239 47.5q242 0 364.5 -102.5t122.5 -319.5q0 -99 -28 -239q-36 -169 -75 -291t-94 -224.5t-124.5 -168
t-166.5 -111t-219 -65t-282 -19.5h-29zM631 553q82 0 154.5 16.5t140.5 57.5t116.5 104t77.5 162t29 225q0 373 -434 373q-100 0 -181.5 -30t-137 -83t-93.5 -128t-55 -162.5t-17 -188.5q0 -80 21 -141t66.5 -108t124.5 -72t188 -25z" />
    <glyph glyph-name="colon" unicode=":" horiz-adv-x="462" 
d="M18 0l29 131h103l-29 -131h-103zM227 979l27 131h102l-26 -131h-103z" />
    <glyph glyph-name="semicolon" unicode=";" horiz-adv-x="462" 
d="M-23 -193l-16 35q51 29 76.5 63t38.5 95h-58l29 131h103l-25 -113q-21 -96 -50.5 -135.5t-97.5 -75.5zM227 979l27 131h102l-26 -131h-103z" />
    <glyph glyph-name="less" unicode="&#x3c;" horiz-adv-x="1390" 
d="M991 227l-803 455l11 49l995 455l-10 -51l-944 -430l761 -431z" />
    <glyph glyph-name="equal" unicode="=" horiz-adv-x="1390" 
d="M188 496l13 49h899l-13 -49h-899zM274 899l11 49h899l-10 -49h-900z" />
    <glyph glyph-name="greater" unicode="&#x3e;" horiz-adv-x="1390" 
d="M174 227l10 52l942 430l-759 430l10 47l803 -455l-11 -49z" />
    <glyph glyph-name="question" unicode="?" horiz-adv-x="1269" 
d="M475 377q20 100 35 157t37.5 111.5t55 88.5t78 65t116.5 63q83 38 133 65t94 59.5t65 68.5t32.5 82.5t11.5 109.5q0 55 -17.5 97t-60 77t-122 53.5t-194.5 18.5q-76 0 -184.5 -19t-208.5 -57l-18 47q105 40 217.5 59t193.5 19q105 0 184.5 -15.5t128.5 -41t80 -64
t42.5 -80.5t11.5 -94q0 -69 -13.5 -120.5t-38 -92t-72 -77.5t-103 -67.5t-142.5 -70.5q-100 -45 -149.5 -90.5t-80 -122.5t-59.5 -229h-53zM379 0l29 131h102l-29 -131h-102z" />
    <glyph glyph-name="at" unicode="@" horiz-adv-x="2248" 
d="M1079 -338q-237 0 -413.5 66t-284.5 190.5t-160.5 294t-52.5 387.5q0 219 52.5 389.5t160.5 295.5t284 191t414 66q237 0 413.5 -66t286 -191t163 -295.5t53.5 -389.5q0 -290 -76.5 -410t-263.5 -120q-157 0 -232 50.5t-69 168.5q-65 -118 -162.5 -164.5t-239.5 -46.5
q-366 0 -366 375q0 114 18 214t56.5 187t96 149.5t141 98t185.5 35.5q332 0 398 -236l55 236l45 -2l-170 -807q-23 -108 39.5 -158.5t204.5 -50.5q158 0 222.5 109t64.5 372q0 207 -50.5 369t-153.5 280.5t-269.5 181t-389.5 62.5q-224 0 -390 -62.5t-268 -181t-151 -280
t-49 -369.5q0 -206 49.5 -367t151 -279t267.5 -180.5t390 -62.5q338 0 586 125l25 -43q-262 -131 -611 -131zM952 127q73 0 128.5 11.5t108.5 41.5t92.5 81t72.5 132t57 193q27 132 27 213q0 140 -82 214t-273 74q-92 0 -167 -33t-126 -90.5t-85.5 -138t-50 -173.5
t-15.5 -199q0 -158 74 -242t239 -84z" />
    <glyph glyph-name="A" unicode="A" horiz-adv-x="1366" 
d="M-94 0l913 1528h49l262 -1528h-51l-71 420h-797l-250 -420h-55zM240 467h759l-170 987z" />
    <glyph glyph-name="B" unicode="B" horiz-adv-x="1345" 
d="M33 0l321 1518h469q112 0 197 -16t139 -43t88.5 -67.5t48 -85.5t13.5 -100q0 -108 -32.5 -192t-108.5 -144.5t-191 -78.5q213 -72 213 -299q0 -241 -132.5 -366.5t-365.5 -125.5h-659zM96 49h596q207 0 326 114t119 329q0 134 -96 210t-298 76h-491zM262 825h610
q102 0 178 29.5t119.5 82.5t64.5 120t21 149q0 59 -20.5 104t-67.5 82t-134 56.5t-210 19.5h-426z" />
    <glyph glyph-name="C" unicode="C" horiz-adv-x="1388" 
d="M684 -23q-297 0 -452.5 154.5t-155.5 435.5q0 127 26 260q41 191 118 331t184 223t232 122t275 39q321 0 500 -194l-39 -33q-168 178 -461 178q-291 0 -488 -164.5t-269 -511.5q-25 -117 -25 -250q0 -257 141.5 -398.5t413.5 -141.5q279 0 446 129l33 -39
q-182 -140 -479 -140z" />
    <glyph glyph-name="D" unicode="D" horiz-adv-x="1470" 
d="M33 0l323 1518h324q258 0 416 -56t228.5 -167.5t70.5 -290.5q0 -146 -39 -318q-36 -167 -90.5 -287.5t-123 -197.5t-163 -122t-197.5 -62t-241 -17h-508zM96 49h445q129 0 225.5 16.5t185 59t152.5 115t115.5 186t85.5 270.5q36 163 36 308q0 243 -153 353.5t-508 110.5
h-281z" />
    <glyph glyph-name="E" unicode="E" horiz-adv-x="1206" 
d="M33 0l323 1518h879l-12 -50h-826l-137 -645h805l-10 -49h-805l-154 -725h834l-10 -49h-887z" />
    <glyph glyph-name="F" unicode="F" horiz-adv-x="1124" 
d="M33 0l323 1518h858l-12 -50h-805l-137 -645h787l-11 -49h-786l-164 -774h-53z" />
    <glyph glyph-name="G" unicode="G" horiz-adv-x="1523" 
d="M705 -23q-311 0 -470 153t-159 435q0 142 26 264q150 713 795 713q350 0 533 -194l-39 -33q-165 178 -494 178q-601 0 -743 -674q-25 -122 -25 -254q0 -259 145.5 -398.5t430.5 -139.5q86 0 155 9.5t124.5 31t98 48.5t77 71.5t59.5 90.5t47.5 114t38 133t34.5 157l11 51
h-541l10 49h596l-22 -108q-20 -96 -38 -166.5t-42.5 -142t-52.5 -121t-66 -96.5t-84.5 -76.5t-106 -52t-133.5 -32.5t-165 -10z" />
    <glyph glyph-name="H" unicode="H" horiz-adv-x="1501" 
d="M33 0l323 1518h54l-150 -695h1006l149 695h53l-323 -1518h-53l163 774h-1005l-164 -774h-53z" />
    <glyph glyph-name="I" unicode="I" horiz-adv-x="462" 
d="M43 0l324 1518h53l-324 -1518h-53z" />
    <glyph glyph-name="J" unicode="J" horiz-adv-x="708" 
d="M-90 0l10 49h117q146 0 230 73.5t120 244.5l246 1151h53l-248 -1162q-40 -192 -136.5 -274t-264.5 -82h-127z" />
    <glyph glyph-name="K" unicode="K" horiz-adv-x="1331" 
d="M1020 0l-391 903l-432 -383l-111 -520h-53l323 1518h54l-197 -924l1042 924h70l-657 -580l407 -938h-55z" />
    <glyph glyph-name="L" unicode="L" horiz-adv-x="1124" 
d="M33 0l323 1518h54l-314 -1469h805l-10 -49h-858z" />
    <glyph glyph-name="M" unicode="M" horiz-adv-x="1751" 
d="M33 0l323 1518h64l305 -1450l913 1450h80l-323 -1518h-54l310 1448l-914 -1448h-49l-301 1430l-305 -1430h-49z" />
    <glyph glyph-name="N" unicode="N" horiz-adv-x="1497" 
d="M33 0l323 1518h60l692 -1440l307 1440h49l-323 -1518h-45l-705 1458l-309 -1458h-49z" />
    <glyph glyph-name="O" unicode="O" horiz-adv-x="1646" 
d="M729 -23q-324 0 -488.5 157t-164.5 441q0 116 28 259q151 708 809 708q326 0 492 -158t166 -444q0 -125 -29 -258q-34 -154 -91 -273.5t-130.5 -200.5t-167.5 -133t-198 -75t-226 -23zM729 27q622 0 762 665q27 129 27 248q0 262 -152.5 407.5t-452.5 145.5
q-141 0 -259.5 -37.5t-218 -116.5t-171 -209t-108.5 -307q-27 -126 -27 -248q0 -260 151.5 -404t448.5 -144z" />
    <glyph glyph-name="P" unicode="P" horiz-adv-x="1339" 
d="M33 0l323 1518h506q239 0 351 -81t112 -243q0 -252 -129 -389t-362 -137h-607l-141 -668h-53zM238 717h596q210 0 324 123.5t114 351.5q0 140 -98.5 208t-311.5 68h-463z" />
    <glyph glyph-name="Q" unicode="Q" horiz-adv-x="1646" 
d="M729 -23q-17 0 -74 5q-49 -157 -5 -220t218 -63h113l-10 -49h-103q-204 0 -262 74t-4 262q-261 29 -393.5 181.5t-132.5 407.5q0 116 28 259q151 708 809 708q326 0 492 -158t166 -444q0 -125 -29 -258q-34 -154 -91 -273.5t-130.5 -200.5t-167.5 -133t-198 -75t-226 -23
zM729 27q622 0 762 665q27 129 27 248q0 262 -152.5 407.5t-452.5 145.5q-141 0 -259.5 -37.5t-218 -116.5t-171 -209t-108.5 -307q-27 -126 -27 -248q0 -260 151.5 -404t448.5 -144z" />
    <glyph glyph-name="R" unicode="R" horiz-adv-x="1361" 
d="M979 0l-268 696h-478l-147 -696h-53l323 1518h482q242 0 359.5 -86t117.5 -246q0 -128 -36.5 -224.5t-102.5 -153.5t-150 -84.5t-186 -27.5h-72l268 -696h-57zM244 745h596q93 0 168.5 25t133 76.5t89 137.5t31.5 202q0 136 -104.5 209t-319.5 73h-439z" />
    <glyph glyph-name="S" unicode="S" horiz-adv-x="1349" 
d="M573 -18q-192 0 -327.5 41t-270.5 139l31 39q127 -92 256 -131t311 -39q76 0 143.5 10t135.5 36.5t116 68.5t78.5 110.5t30.5 157.5q0 62 -20.5 110.5t-45 78t-83 60t-95.5 44.5t-122 42q-37 13 -56 19q-175 59 -238 92q-129 70 -161 182q-12 43 -12 95q0 90 28.5 160.5
t75.5 115.5t111.5 75t132.5 42t143 12q180 0 298.5 -38.5t207.5 -108.5l-33 -39q-84 66 -194 101.5t-279 35.5q-67 0 -127 -10.5t-118 -36.5t-100 -65t-67.5 -102t-25.5 -142q0 -48 12 -86.5t36.5 -67.5t55.5 -52t74.5 -42.5t87.5 -35.5t101 -35q7 -2 10 -3
q111 -37 166.5 -58.5t122.5 -56.5t96 -70.5t50 -89.5t21 -126q0 -100 -33.5 -177.5t-87 -124.5t-128.5 -77t-149.5 -41.5t-158.5 -11.5z" />
    <glyph glyph-name="T" unicode="T" horiz-adv-x="1347" 
d="M485 0l312 1468h-576l12 50h1205l-13 -50h-575l-311 -1468h-54z" />
    <glyph glyph-name="U" unicode="U" horiz-adv-x="1505" 
d="M657 -23q-128 0 -224 21t-157 61t-98 92t-49 121t-8 140t22 157l203 949h53l-204 -959q-17 -82 -21.5 -147t6 -127.5t43.5 -108t88 -80t142 -52t204 -17.5q133 0 230.5 32.5t161 97t101.5 146.5t62 195l220 1020h51l-221 -1031q-26 -122 -67.5 -210.5t-110 -158.5
t-175.5 -105.5t-252 -35.5z" />
    <glyph glyph-name="V" unicode="V" horiz-adv-x="1366" 
d="M496 -10l-263 1528h52l250 -1455l868 1455h55l-913 -1528h-49z" />
    <glyph glyph-name="W" unicode="W" horiz-adv-x="2179" 
d="M414 -10l-160 1528h49l150 -1434l778 1434h41l164 -1434l762 1434h51l-811 -1528h-39l-166 1437l-780 -1437h-39z" />
    <glyph glyph-name="X" unicode="X" horiz-adv-x="1320" 
d="M1006 0l-347 748l-667 -748h-60l707 793l-336 725h51l318 -689l612 689h59l-651 -734l365 -784h-51z" />
    <glyph glyph-name="Y" unicode="Y" horiz-adv-x="1316" 
d="M467 0l133 631l-397 887h55l379 -844l729 844h64l-777 -895l-133 -623h-53z" />
    <glyph glyph-name="Z" unicode="Z" horiz-adv-x="1286" 
d="M-53 0l10 47l1278 1421h-942l12 50h1006l-11 -48l-1280 -1421h1000l-10 -49h-1063z" />
    <glyph glyph-name="bracketleft" unicode="[" horiz-adv-x="878" 
d="M37 -338l409 1927h385l-10 -49h-332l-389 -1829h338l-10 -49h-391z" />
    <glyph glyph-name="backslash" unicode="\" horiz-adv-x="911" 
d="M694 0l-528 1518h49l528 -1518h-49z" />
    <glyph glyph-name="bracketright" unicode="]" horiz-adv-x="878" 
d="M-10 -338l10 49h332l389 1829h-338l10 49h391l-409 -1927h-385z" />
    <glyph glyph-name="asciicircum" unicode="^" 
d="M377 1296l350 283h76l227 -283h-63l-207 250l-314 -250h-69z" />
    <glyph glyph-name="underscore" unicode="_" horiz-adv-x="927" 
d="M-279 -197l11 50h1079l-10 -50h-1080z" />
    <glyph glyph-name="grave" unicode="`" 
d="M770 1235l-266 283h63l258 -283h-55z" />
    <glyph glyph-name="a" unicode="a" horiz-adv-x="1198" 
d="M352 -23q-188 0 -267 70t-79 197q0 83 15.5 146.5t44 111t77 80.5t105.5 54t139.5 33t168.5 16.5t202 4.5h139q25 132 25 203q0 102 -67 148t-237 46q-83 0 -175 -23.5t-150 -57.5l-27 43q62 37 161.5 62.5t190.5 25.5q81 0 141.5 -10t102 -27.5t66 -48.5t36.5 -66
t11.5 -88.5t-8 -106.5t-23.5 -128l-96 -453q-10 -47 -13 -72t-1.5 -45.5t15.5 -28t34.5 -11t58.5 -3.5l-10 -49h-21q-76 2 -104.5 24t-28.5 85q0 25 13 88q-69 -113 -176 -166.5t-263 -53.5zM352 27q399 0 494 430l39 184h-127q-114 0 -196.5 -4t-160 -14.5t-129 -29.5
t-95 -48.5t-68 -71.5t-37.5 -98.5t-13 -130.5q0 -103 67 -160t226 -57z" />
    <glyph glyph-name="b" unicode="b" horiz-adv-x="1241" 
d="M555 -18q-204 0 -307 67t-125 217l-66 -268l-45 2l338 1589h53l-141 -651q70 114 171.5 156.5t260.5 42.5q219 0 316.5 -102.5t97.5 -293.5q0 -105 -31 -241t-70.5 -228t-100.5 -159.5t-147 -99t-204 -31.5zM555 31q198 0 306.5 112t164.5 367q29 135 29 231
q0 167 -85 256.5t-276 89.5q-85 0 -146.5 -11.5t-119 -42t-98.5 -85.5t-76 -141t-61 -209q-29 -142 -29 -233q0 -177 93 -255.5t298 -78.5z" />
    <glyph glyph-name="c" unicode="c" horiz-adv-x="1083" 
d="M459 -23q-114 0 -195 27.5t-127.5 81t-67 123.5t-20.5 164q0 107 27 233q60 282 187.5 406.5t361.5 124.5q136 0 221.5 -42t142.5 -116l-43 -29q-58 66 -131 101.5t-190 35.5q-111 0 -193 -29t-141 -91.5t-97.5 -152t-66.5 -218.5q-25 -122 -25 -223q0 -167 82 -256.5
t275 -89.5q98 0 173 22.5t152 79.5l31 -39q-86 -63 -167.5 -88t-188.5 -25z" />
    <glyph glyph-name="d" unicode="d" horiz-adv-x="1241" 
d="M463 -18q-219 0 -316.5 102t-97.5 293q0 105 31 241t70.5 228t100.5 160t147 99.5t204 31.5q203 0 306.5 -68.5t125.5 -220.5l158 741h53l-338 -1587l-43 -2l31 186q-68 -115 -171 -159.5t-261 -44.5zM463 31q85 0 146.5 11.5t119 42t99 85t76.5 141t61 209.5
q28 137 28 234q0 177 -93 255t-298 78q-198 0 -306.5 -112t-164.5 -367q-29 -135 -29 -231q0 -167 85 -256.5t276 -89.5z" />
    <glyph glyph-name="e" unicode="e" horiz-adv-x="1138" 
d="M459 -23q-120 0 -203 28.5t-127.5 83t-63 120t-18.5 153.5q0 109 29 244q28 131 67 224t101.5 165t154 107t215.5 35q94 0 164 -15t112.5 -40t68.5 -63.5t35.5 -81t9.5 -97.5q0 -95 -37 -269h-846q-21 -123 -21 -209q0 -76 16.5 -133.5t55 -104.5t111 -72t176.5 -25
q116 0 197.5 21t164.5 69l25 -43q-88 -52 -175 -74.5t-212 -22.5zM614 1087q-109 0 -190.5 -31t-137.5 -93.5t-92.5 -145t-62.5 -196.5h793q26 123 26 219q0 58 -14 99.5t-50 76.5t-104 53t-168 18z" />
    <glyph glyph-name="f" unicode="f" horiz-adv-x="690" 
d="M133 1061l10 49h211l41 193q15 68 37.5 117t60.5 89t97 60t139 20h86l-10 -49h-76q-71 0 -121.5 -18t-82 -54t-49 -77t-30.5 -99l-38 -182h305l-11 -49h-305l-297 -1399h-53l297 1399h-211z" />
    <glyph glyph-name="g" unicode="g" horiz-adv-x="1112" 
d="M518 406q-171 0 -262 49q-68 -54 -68 -131q0 -43 29.5 -67t116.5 -24q90 0 156.5 -3.5t134.5 -12.5t114 -27t84 -45.5t56 -69.5t18 -98q0 -190 -137.5 -268.5t-409.5 -75.5q-219 0 -340 68.5t-121 206.5q0 262 293 313q-47 33 -47 103q0 93 78 161q-80 69 -80 211
q0 220 112 330.5t324 110.5q76 0 146 -13l340 13l-11 -50h-223q129 -72 129 -249q0 -214 -112.5 -323t-319.5 -109zM350 -317q98 -1 171.5 6t136.5 26.5t102.5 53t61.5 85.5t22 123q0 53 -22.5 90t-62 60t-106 35.5t-140 17t-179.5 4.5q-95 0 -166 -15t-113.5 -40t-68 -62
t-34.5 -75t-9 -86q0 -109 107 -166t300 -57zM518 455q183 0 281 96.5t98 286.5q0 125 -79 187t-249 62q-186 0 -284.5 -98t-98.5 -293q0 -120 76 -180.5t256 -60.5z" />
    <glyph glyph-name="h" unicode="h" horiz-adv-x="1173" 
d="M12 0l338 1589h53l-137 -645q121 193 385 193q89 0 154 -14t106 -35t64.5 -60.5t33 -74t5.5 -93.5t-11 -101t-22 -114l-137 -645h-53l137 643q35 165 34 231q-1 131 -105 179q-74 34 -206 34q-86 0 -155 -23.5t-115.5 -62.5t-82.5 -98t-57.5 -120.5t-37.5 -139.5
l-137 -643h-54z" />
    <glyph glyph-name="i" unicode="i" horiz-adv-x="417" 
d="M20 0l236 1110h53l-235 -1110h-54zM295 1288l37 174h53l-37 -174h-53z" />
    <glyph glyph-name="j" unicode="j" horiz-adv-x="417" 
d="M-231 -338l10 49h6q108 0 149 38.5t66 154.5l256 1206h53l-258 -1214q-29 -135 -81.5 -184.5t-184.5 -49.5h-16zM295 1288l37 174h53l-37 -174h-53z" />
    <glyph glyph-name="k" unicode="k" horiz-adv-x="989" 
d="M12 0l338 1589h53l-249 -1175l741 696h66l-504 -475l315 -635h-55l-297 600l-285 -266l-69 -334h-54z" />
    <glyph glyph-name="l" unicode="l" horiz-adv-x="536" 
d="M221 0q-88 0 -127.5 28.5t-38.5 81.5t17 128l286 1351h54l-291 -1372q-25 -92 -6.5 -130t108.5 -38h56l-11 -49h-47z" />
    <glyph glyph-name="m" unicode="m" horiz-adv-x="1929" 
d="M12 0l236 1108l43 2l-27 -170q117 197 381 197q174 0 264.5 -53t96.5 -179q112 232 405 232q89 0 153.5 -14.5t105.5 -34.5t63.5 -60.5t31.5 -73.5t4.5 -94t-11.5 -101t-23 -114l-138 -645h-53l137 643q34 163 36 221q4 132 -89 183q-74 40 -217 40q-86 0 -154 -23
t-113.5 -61t-80.5 -97.5t-56 -120.5t-38 -142l-138 -643h-53l137 643q34 163 36 221q4 132 -89 183q-74 40 -217 40q-107 0 -185.5 -34t-128 -99t-78.5 -138t-50 -173l-137 -643h-54z" />
    <glyph glyph-name="n" unicode="n" horiz-adv-x="1173" 
d="M12 0l236 1108l43 2l-27 -170q117 197 387 197q89 0 154 -14t106 -35t64.5 -60.5t33 -74t5.5 -93.5t-11 -101t-22 -114l-137 -645h-53l137 643q35 165 34 231q-1 131 -105 179q-74 34 -206 34q-86 0 -155 -23.5t-115.5 -62.5t-82.5 -98t-57.5 -120.5t-37.5 -139.5
l-137 -643h-54z" />
    <glyph glyph-name="o" unicode="o" horiz-adv-x="1212" 
d="M487 -23q-233 0 -335.5 103t-102.5 301q0 87 27 225q61 286 193 408.5t366 122.5t338 -104.5t104 -305.5q0 -91 -26 -221q-60 -285 -194.5 -407t-369.5 -122zM487 27q213 0 334 114.5t178 374.5q25 116 25 211q0 176 -91.5 268t-297.5 92q-212 0 -332.5 -115t-175.5 -376
q-25 -116 -25 -215q0 -173 90 -263.5t295 -90.5z" />
    <glyph glyph-name="p" unicode="p" horiz-adv-x="1241" 
d="M-59 -338l307 1446l43 2l-27 -172q68 114 169.5 156.5t260.5 42.5q219 0 316.5 -102.5t97.5 -293.5q0 -105 -31 -241t-70.5 -228t-100.5 -159.5t-147 -99t-204 -31.5q-204 0 -307 67.5t-125 218.5l-129 -606h-53zM555 31q198 0 306.5 112t164.5 367q29 135 29 231
q0 167 -85 256.5t-276 89.5q-85 0 -146.5 -11.5t-119 -42t-98.5 -85.5t-76 -141t-61 -209q-29 -142 -29 -233q0 -177 93 -255.5t298 -78.5z" />
    <glyph glyph-name="q" unicode="q" horiz-adv-x="1241" 
d="M780 -338l107 508q-73 -108 -172 -148t-252 -40q-219 0 -316.5 102t-97.5 293q0 105 31 241t70.5 228t100.5 160t147 99.5t204 31.5q202 0 304.5 -67t125.5 -216l70 283l45 -2l-313 -1473h-54zM463 31q85 0 146.5 11.5t119 42t99 85t76.5 141t61 209.5q28 137 28 234
q0 177 -93 255t-298 78q-198 0 -306.5 -112t-164.5 -367q-29 -135 -29 -231q0 -167 85 -256.5t276 -89.5z" />
    <glyph glyph-name="r" unicode="r" horiz-adv-x="641" 
d="M12 0l236 1108l43 2l-35 -199q122 213 408 213l-11 -49q-103 0 -182 -32.5t-131 -93t-84.5 -135t-52.5 -171.5l-137 -643h-54z" />
    <glyph glyph-name="s" unicode="s" horiz-adv-x="964" 
d="M401 -23q-269 0 -450 146l33 39q166 -135 417 -135q65 0 120 14t103 46t75.5 92t27.5 143q0 35 -10 64t-32 52t-43 39.5t-59 33.5t-63 26.5t-71 25.5q-34 12 -45.5 16t-43 16t-44 19t-39 20t-38.5 23.5t-31 26t-28 31t-19 35.5t-14 42.5t-4 47.5q0 146 98.5 221.5
t260.5 75.5q241 0 389 -113l-33 -39q-132 102 -356 102q-138 0 -221.5 -62.5t-83.5 -184.5q0 -38 17 -71t39.5 -54.5t64 -43t70.5 -33t79 -28.5q58 -20 94 -34t82.5 -40t72.5 -53t45 -69t19 -92q0 -97 -32 -167t-88 -107.5t-119.5 -54t-139.5 -16.5z" />
    <glyph glyph-name="t" unicode="t" horiz-adv-x="731" 
d="M133 1061l10 49h213l88 381l45 2l-81 -383h292l-10 -49h-293l-174 -817q-11 -59 -11 -102.5t38 -68t119 -24.5h106l-10 -49h-94q-58 0 -99.5 8.5t-64.5 27.5t-35.5 40t-13 54.5t3 61.5t12.5 70l170 799h-211z" />
    <glyph glyph-name="u" unicode="u" horiz-adv-x="1163" 
d="M485 -23q-101 0 -176 16t-121 38t-72 64.5t-37 75.5t-7 93.5t10 95t20 101.5l138 649h53l-139 -659q-18 -88 -24 -139t3.5 -113t46 -94.5t112 -55t193.5 -22.5q49 0 90.5 6t73 14.5t58 26t45.5 33.5t35.5 44t26.5 49.5t21 59.5t17 64t16 71l152 715h51l-153 -725
q-10 -48 -17.5 -79t-19.5 -70.5t-24 -65t-30.5 -55.5t-40.5 -48.5t-52 -37.5t-66 -29t-82 -16.5t-101 -6.5z" />
    <glyph glyph-name="v" unicode="v" horiz-adv-x="985" 
d="M301 -8l-186 1118h49l176 -1057l623 1057h55l-662 -1118h-55z" />
    <glyph glyph-name="w" unicode="w" horiz-adv-x="1697" 
d="M281 -8l-166 1118h51l151 -1038l578 1038h53l133 -1038l596 1038h54l-641 -1118h-48l-137 1042l-577 -1042h-47z" />
    <glyph glyph-name="x" unicode="x" horiz-adv-x="993" 
d="M715 0l-266 541l-496 -541h-62l535 584l-258 526h51l242 -494l450 494h62l-490 -537l283 -573h-51z" />
    <glyph glyph-name="y" unicode="y" horiz-adv-x="976" 
d="M29 -338h-99l11 49h88q63 0 95.5 27.5t86.5 116.5l88 145l-184 1110h49l174 -1047l616 1047h56l-758 -1278q-59 -99 -104 -134.5t-119 -35.5z" />
    <glyph glyph-name="z" unicode="z" horiz-adv-x="937" 
d="M-78 0l10 49l906 1012h-654l11 49h714l-10 -49l-905 -1012h715l-11 -49h-776z" />
    <glyph glyph-name="braceleft" unicode="{" horiz-adv-x="954" 
d="M406 -338q-144 0 -206.5 41t-62.5 127q0 58 39.5 163.5t87.5 201.5t87.5 188t39.5 127q0 53 -49.5 71.5t-189.5 18.5l10 49q60 0 97.5 2.5t74 10t57 22t36.5 39t22 59t6 84.5q0 51 -6.5 176t-6.5 181q0 192 84 279t289 87h98l-10 -49h-88q-94 0 -156 -18.5t-98 -59.5
t-50.5 -98t-14.5 -141q0 -53 6 -178.5t6 -178.5q0 -112 -31.5 -164.5t-101.5 -78.5q38 -17 53.5 -42t15.5 -71q0 -40 -39.5 -135t-87.5 -190.5t-87.5 -198t-39.5 -156.5q0 -61 50.5 -90t165.5 -29h108l-10 -49h-98z" />
    <glyph glyph-name="bar" unicode="|" horiz-adv-x="593" 
d="M262 -338v1927h53v-1927h-53z" />
    <glyph glyph-name="braceright" unicode="}" horiz-adv-x="954" 
d="M-16 -338l10 49h88q94 0 156 19t98 60t50.5 98t14.5 141q0 53 -6 178t-6 178q0 112 31.5 165t101.5 79q-38 17 -53.5 41.5t-15.5 70.5q0 40 39.5 135t87.5 190.5t87.5 198t39.5 156.5q0 61 -50 90t-165 29h-109l10 49h99q143 0 205.5 -40.5t62.5 -127.5
q0 -58 -39.5 -163.5t-87.5 -201.5t-87.5 -188t-39.5 -127q0 -53 50 -71.5t189 -18.5l-10 -49q-60 0 -97.5 -2.5t-74 -10t-57 -22t-36.5 -39t-22 -59t-6 -84.5q0 -51 6.5 -175.5t6.5 -180.5q0 -192 -84 -279.5t-289 -87.5h-98z" />
    <glyph glyph-name="asciitilde" unicode="~" 
d="M858 938q-41 0 -78 14.5t-60 31.5t-56 31.5t-66 14.5q-46 0 -83.5 -24.5t-76.5 -65.5l-39 35q100 104 199 104q41 0 78 -14.5t60.5 -31.5t56.5 -31.5t65 -14.5q37 0 70.5 25.5t81.5 81.5l39 -33q-57 -64 -99.5 -93.5t-91.5 -29.5z" />
    <glyph glyph-name="exclamdown" unicode="&#xa1;" horiz-adv-x="679" 
d="M147 0l250 1141h45l-233 -1141h-62zM422 1386l29 132h102l-29 -132h-102z" />
    <glyph glyph-name="cent" unicode="&#xa2;" horiz-adv-x="1062" 
d="M375 -193l37 173q-359 25 -359 393q0 107 27 233q60 279 190.5 405t358.5 126q4 0 13.5 -1t14.5 -1l27 122h53l-28 -124q61 -7 110.5 -24.5t85 -44t56 -47t43.5 -48.5l-41 -31q-30 35 -54.5 58t-82.5 51t-130 36l-225 -1056q92 0 166.5 23t150.5 79l31 -39
q-85 -62 -168.5 -87.5t-187.5 -25.5l-35 -170h-53zM106 373q0 -327 316 -346l227 1060h-20q-205 0 -324 -116.5t-174 -374.5q-25 -122 -25 -223z" />
    <glyph glyph-name="sterling" unicode="&#xa3;" horiz-adv-x="1134" 
d="M631 -18q-205 0 -375 106q-91 -88 -301 -88v49q91 0 153.5 17t99 52.5t55 76.5t30.5 102q25 129 16 471h-221l10 49h209v109q0 616 416 616q126 0 221.5 -26t151.5 -62l-29 -41q-126 80 -344 80q-363 0 -363 -567v-109h486l-10 -49h-474q6 -110 4 -250.5t-20 -230.5
q-20 -103 -57 -160q161 -96 342 -96q84 0 128.5 19.5t69.5 67t45 146.5l9 41h53l-10 -49q-17 -82 -36 -131t-53 -83t-82 -47t-124 -13z" />
    <glyph glyph-name="currency" unicode="&#xa4;" horiz-adv-x="1247" 
d="M123 897l10 49h195q35 127 86 231.5t121.5 188t166 130t207.5 46.5q208 0 338 -84l-28 -41q-115 76 -310 76q-100 0 -186 -42.5t-150 -119t-110.5 -172.5t-79.5 -213h586l-11 -49h-587q-29 -125 -43 -238h579l-10 -49h-573q-9 -99 -9 -190q0 -193 84.5 -293t276.5 -100
q67 0 124.5 11.5t127.5 49.5l24 -43q-79 -42 -141.5 -55t-134.5 -13q-220 0 -317 113t-97 330q0 102 8 190h-209l11 49h202q16 132 41 238h-192z" />
    <glyph glyph-name="yen" unicode="&#xa5;" horiz-adv-x="1167" 
d="M68 500l10 49h430l22 98l-327 871h55l309 -824l662 824h59l-704 -877l-21 -92h438l-10 -49h-438l-51 -238h438l-10 -49h-438l-46 -213h-53l45 213h-432l10 49h433l49 238h-430z" />
    <glyph glyph-name="brokenbar" unicode="&#xa6;" horiz-adv-x="595" 
d="M262 -338v803h53v-803h-53zM262 786v803h53v-803h-53z" />
    <glyph glyph-name="section" unicode="&#xa7;" horiz-adv-x="1038" 
d="M549 502h-43l-45 -223q-12 -58 -24.5 -97.5t-36.5 -81.5t-57 -66.5t-86 -40.5t-124 -16h-117l11 50h106q44 0 79.5 7t61 18t46 30.5t33.5 39t24.5 50t18 56.5t14.5 65l43 211q-355 26 -355 244q0 53 12.5 96t32.5 72.5t51.5 51.5t64.5 35t75.5 20.5t81 10t84.5 2.5h24
l41 203q12 58 24.5 97.5t36.5 81t57 66t86 40.5t124 16h117l-11 -49h-106q-44 0 -79.5 -7t-61 -18t-46 -30.5t-33.5 -39t-24.5 -50t-18 -56.5t-14.5 -65l-41 -191q371 -21 371 -239q0 -73 -24.5 -127t-62 -85t-92 -50t-105.5 -25t-113 -6zM549 551q56 0 101 5t92 21t79 42
t52 71t20 105q0 192 -393 192q-60 0 -105.5 -4.5t-93.5 -19t-78.5 -40t-50.5 -70t-20 -105.5q0 -197 397 -197z" />
    <glyph glyph-name="dieresis" unicode="&#xa8;" 
d="M494 1235l34 162h54l-35 -162h-53zM862 1235l35 162h53l-35 -162h-53z" />
    <glyph glyph-name="copyright" unicode="&#xa9;" horiz-adv-x="1732" 
d="M889 219q-241 0 -374.5 139t-133.5 408q0 266 135 405.5t373 139.5q92 0 185 -31t159 -88l-35 -37q-58 51 -142 79t-167 28q-214 0 -334.5 -126.5t-120.5 -369.5q0 -245 119.5 -371.5t335.5 -126.5q198 0 315 109l35 -37q-135 -121 -350 -121zM877 -23q-188 0 -333 55.5
t-238 158t-140 245.5t-47 322q0 180 47 324t140 247t238 158t333 55t333.5 -55t239 -158t141 -247t47.5 -324q0 -179 -47.5 -322t-141 -245.5t-239 -158t-333.5 -55.5zM877 23q234 0 395.5 91.5t239 254.5t77.5 389q0 347 -181 543t-531 196q-176 0 -311.5 -52t-222.5 -149
t-131 -232.5t-44 -305.5q0 -344 180 -539.5t529 -195.5z" />
    <glyph glyph-name="ordfeminine" unicode="&#xaa;" horiz-adv-x="1128" 
d="M438 596q-144 0 -212 58t-70 159q0 78 17 136.5t54 98.5t85.5 65.5t122 40t151 19.5t184.5 5h111q22 96 22 165q0 82 -53.5 116t-192.5 34q-68 0 -143 -19.5t-123 -46.5l-22 43q49 30 129.5 51t156.5 21q153 0 223 -41t76.5 -127t-22.5 -219l-80 -371q-8 -36 -9 -57.5
t1 -35t16 -19t28 -7t44 -1.5l-10 -50h-17q-57 0 -85.5 19t-28.5 69q0 53 12 99q-125 -205 -365 -205zM438 645q331 0 416 402l16 81h-100q-107 0 -178.5 -4t-140 -15.5t-109.5 -32.5t-73.5 -56t-46 -86t-13.5 -121q3 -168 229 -168zM139 354l11 49h612l-10 -49h-613z" />
    <glyph glyph-name="guillemotleft" unicode="&#xab;" horiz-adv-x="1275" 
d="M336 0l-191 555l426 555h54l-428 -559l188 -551h-49zM825 0l-190 555l426 555h53l-428 -559l188 -551h-49z" />
    <glyph glyph-name="logicalnot" unicode="&#xac;" horiz-adv-x="1703" 
d="M258 246q-88 105 -136 237t-48 277q0 144 48 276t136 236q6 -4 14 -12q-85 -103 -131.5 -231.5t-46.5 -268.5q0 -285 180 -500zM467 432q-117 143 -117 328q0 183 115 327q3 -2 8 -7t8 -7q-110 -136 -110 -313q0 -182 110 -314zM541 498q-92 116 -92 262t92 262
q3 -2 8 -7t8 -7q-88 -109 -88 -248t88 -248q-3 -2 -8 -7t-8 -7zM647 592q-57 72 -57 168q0 97 57 166l15 -15q-52 -69 -52 -151q0 -84 54 -154q-3 -2 -8.5 -7t-8.5 -7zM715 655q-33 48 -33 105q0 56 33 104q3 -2 8 -7t8 -7q-29 -44 -29 -90t29 -90q-3 -2 -16 -15zM774 709
q-14 25 -14 51t14 51l12 -10q-10 -20 -10 -41t10 -41q-4 -4 -12 -10zM852 123q-236 0 -412 158l2.5 2.5l5 5l5.5 5.5t2 1q171 -152 397 -152q227 0 395 152q2 -3 7.5 -8t7.5 -8q-177 -156 -410 -156zM852 664q-31 0 -55 18l12 12q21 -14 43 -14q26 0 43 14q4 -4 10 -12
q-21 -18 -53 -18zM987 653q-7 10 -14 15q28 42 28 92q0 51 -28 90l2.5 2.5t5 4.5t5.5 5t1 2q35 -44 35 -104t-35 -107zM598 551q-72 91 -72 209q0 119 74 209l14 -15q-67 -87 -67 -194q0 -108 67 -195q-10 -10 -16 -14zM852 -35q-145 0 -278 52.5t-238 146.5l14 16
q102 -92 231 -143t271 -51q285 0 500 192q0 1 3.5 -2.5t6.5 -7.5l4 -4q-104 -95 -236 -147t-278 -52zM852 248q-189 0 -330 125l15 16q134 -121 315 -121q182 0 313 121q2 -3 7.5 -8t7.5 -8q-138 -125 -328 -125zM852 348q-145 0 -264 101l14 14q108 -94 250 -94
q143 0 248 94q2 -3 7 -8.5t7 -8.5q-112 -98 -262 -98zM852 428q-116 0 -211 78l14 16q86 -73 197 -73t197 73q4 -4 12 -16q-91 -78 -209 -78zM852 543q-77 0 -135 49l14 16q51 -45 121 -45q68 0 119 45q2 -3 7 -8t7 -8q-58 -49 -133 -49zM733 911q-4 3 -7 6.5t-6 6.5l-3 4
q58 49 135 49t135 -49l-16 -17q-51 45 -119 45t-119 -45zM1167 1130q-134 121 -315 121q-179 0 -313 -118l-15 14q141 125 328 125q189 0 330 -125q-4 -6 -15 -17zM930 709l-12 10q10 20 10 41t-10 41l12 10q14 -25 14 -51t-14 -51zM958 682q-10 10 -16 14q21 32 21 64
t-21 63l16 15q25 -36 25 -78t-25 -78zM1020 627q-6 4 -16 14q38 50 38 119t-38 119l14 14q45 -57 45 -133q0 -71 -43 -133zM1106 551q-3 2 -8 7t-8 7q67 87 67 195t-70 194l17 15q74 -90 74 -209q0 -118 -72 -209zM1163 498q-10 10 -16 14q88 109 88 248t-88 248l16 14
q92 -116 92 -262t-92 -262zM1237 432q-6 4 -16 14q112 134 112 314q0 182 -112 313l16 14q117 -139 117 -327q0 -189 -117 -328zM1329 350q-2 2 -7 6t-7 6q141 175 141 398q0 227 -143 395l16 14q148 -179 148 -409q0 -231 -148 -410zM1446 246q-6 6 -16 14q180 215 180 500
t-180 500l16 14q88 -105 136 -237t48 -277q0 -144 -48 -276t-136 -238zM375 348q-148 182 -148 412q0 229 146 409q2 -2 7.5 -6.5t8.5 -7.5q-141 -170 -141 -395q0 -228 141 -398zM684 627q-43 59 -43 133t43 133q6 -4 16 -14q-38 -50 -38 -119q0 -67 38 -117zM745 682
q-24 34 -24 78t24 78q2 -3 4.5 -5.5t6 -5.5t4.5 -4q-19 -34 -19 -63q0 -30 19 -64zM809 825l-10 13q21 18 53 18t53 -18l-10 -13q-23 15 -43 15q-25 0 -43 -15zM786 852l-14 14q37 29 80 29q41 0 78 -29q-8 -8 -12 -14q-28 25 -66 25q-34 0 -66 -25zM760 881l-15 16
q45 39 107 39q61 0 106 -39l-14 -16q-37 34 -92 34t-92 -34zM604 1057l-14 16q112 98 262 98q151 0 262 -100q1 0 -2 -3.5t-6 -7.5l-4 -3q-108 94 -250 94q-143 0 -248 -94zM852 492q-100 0 -170 61l14 16q70 -57 156 -57q87 0 154 57l14 -14q-73 -63 -168 -63zM852 584
q-61 0 -109 39l15 16q47 -35 94 -35q51 0 92 35l14 -16q-45 -39 -106 -39zM852 625q-43 0 -82 28l14 15q36 -25 68 -25q34 0 66 25l14 -15q-36 -28 -80 -28zM698 950l-14 15q73 63 168 63q98 0 168 -61l-14 -17q-68 58 -154 58q-87 0 -154 -58zM655 997l-14 17q91 78 211 78
q119 0 209 -80l-12 -15q-83 74 -197 74q-110 0 -197 -74zM1249 1223q-166 153 -397 153q-227 0 -397 -151l-15 14q179 158 412 158t412 -158zM352 1339l-14 17q104 95 236 146.5t278 51.5q145 0 278 -52t238 -146l-14 -17q-102 93 -231 144t-271 51t-270 -51t-230 -144z
M1057 594l-15 14q52 69 52 152t-54 153l17 15q57 -72 57 -168q0 -97 -57 -166z" />
    <glyph glyph-name="registered" unicode="&#xae;" horiz-adv-x="1732" 
d="M877 -23q-188 0 -333 55.5t-238 158t-140 245.5t-47 322q0 180 47 324t140 247t238 158t333 55t333.5 -55t239 -158t141 -247t47.5 -324q0 -179 -47.5 -322t-141 -245.5t-239 -158t-333.5 -55.5zM877 23q234 0 395.5 91.5t239 254.5t77.5 389q0 347 -181 543t-531 196
q-176 0 -311.5 -52t-222.5 -149t-131 -232.5t-44 -305.5q0 -344 180 -539.5t529 -195.5zM1219 223l-291 488h-350v-488h-52v1061h426q166 0 245 -65.5t79 -221.5q0 -153 -74 -218t-221 -68l293 -488h-55zM578 758h378q135 0 202 54t67 185q0 130 -67.5 185t-205.5 55h-374
v-479z" />
    <glyph glyph-name="macron" unicode="&#xaf;" 
d="M395 1235l11 49h618l-10 -49h-619z" />
    <glyph glyph-name="macron" unicode="&#x2c9;" 
d="M395 1235l11 49h618l-10 -49h-619z" />
    <glyph glyph-name="degree" unicode="&#xb0;" horiz-adv-x="1124" 
d="M563 590q-181 0 -266.5 90.5t-85.5 249.5q0 127 31.5 237.5t90.5 194.5t150 132t203 48q185 0 271.5 -93.5t86.5 -256.5q0 -171 -54 -306t-164.5 -215.5t-262.5 -80.5zM563 639q136 0 234 74t146 197.5t48 281.5q0 140 -74 220.5t-231 80.5q-132 0 -229 -77t-145 -203
t-48 -283q0 -136 73 -213.5t226 -77.5z" />
    <glyph glyph-name="plusminus" unicode="&#xb1;" horiz-adv-x="1785" 
d="M623 -338l297 1399h-523l-297 -1399h-53l297 1399h-211l10 49h211l41 193q15 68 37.5 117t60.5 89t97 60t139 20h86l-10 -49h-76q-71 0 -121.5 -18t-82 -54t-49 -77t-30.5 -99l-38 -182h522l41 193q15 68 37.5 117t60.5 89t97 60t139 20h86l-11 -49h-75q-71 0 -121.5 -18
t-82 -54t-49 -77t-30.5 -99l-39 -182h305l-10 -49h-305l-297 -1399h-53zM1470 0q-88 0 -127.5 28.5t-38.5 81.5t17 128l287 1351h53l-291 -1372q-25 -92 -6 -130t109 -38h55l-10 -49h-48z" />
    <glyph glyph-name="twosuperior" unicode="&#xb2;" horiz-adv-x="854" 
d="M152 635l8 45l356 324q143 131 175 166q58 66 68 135q3 24 3 55q0 121 -187 121q-103 0 -204 -43l-21 43q106 47 225 47q125 0 180.5 -43t55.5 -125q0 -39 -3 -66t-15.5 -56t-26.5 -49.5t-47 -55t-64 -63.5t-91 -84q-14 -12 -21 -19l-314 -285h451l-10 -47h-518z" />
    <glyph glyph-name="threesuperior" unicode="&#xb3;" horiz-adv-x="854" 
d="M455 625q-95 0 -163.5 20.5t-146.5 67.5l27 39q70 -42 132.5 -61t150.5 -19q116 0 177.5 68.5t61.5 201.5q0 39 -8.5 66t-30.5 49.5t-65 33.5t-109 11h-98l12 45h137q118 0 172 48.5t54 160.5q0 127 -197 127q-118 0 -219 -53l-20 40q109 60 239 60q127 0 187.5 -43.5
t60.5 -130.5q0 -102 -40 -157t-126 -79q102 -44 102 -178q0 -156 -75 -236.5t-215 -80.5z" />
    <glyph glyph-name="acute" unicode="&#xb4;" 
d="M578 1235l380 283h76l-389 -283h-67z" />
    <glyph glyph-name="mu" unicode="&#xb5;" horiz-adv-x="1171" 
d="M-59 -338l307 1448h53l-139 -659q-13 -63 -19 -100.5t-8 -88.5t8.5 -80.5t34.5 -63t65.5 -51t106.5 -29t152 -11.5q86 0 148 19.5t97.5 44.5t62.5 81.5t38 97.5t29 125l151 715h51l-153 -725q-14 -68 -22 -101t-25 -85.5t-35 -78t-49 -58.5t-70 -48t-95.5 -26t-127.5 -11
q-343 0 -404 179l-104 -494h-53z" />
    <glyph glyph-name="mu" unicode="&#x3bc;" horiz-adv-x="1171" 
d="M-59 -338l307 1448h53l-139 -659q-13 -63 -19 -100.5t-8 -88.5t8.5 -80.5t34.5 -63t65.5 -51t106.5 -29t152 -11.5q86 0 148 19.5t97.5 44.5t62.5 81.5t38 97.5t29 125l151 715h51l-153 -725q-14 -68 -22 -101t-25 -85.5t-35 -78t-49 -58.5t-70 -48t-95.5 -26t-127.5 -11
q-343 0 -404 179l-104 -494h-53z" />
    <glyph glyph-name="paragraph" unicode="&#xb6;" horiz-adv-x="1153" 
d="M406 0l141 670q-191 15 -280 95.5t-89 229.5q0 267 129 395t361 128h432l-324 -1518h-53l141 668h-264l-141 -668h-53zM643 717h231l162 751h-368q-207 0 -322 -115.5t-115 -357.5q0 -140 98.5 -209t313.5 -69z" />
    <glyph glyph-name="periodcentered" unicode="&#xb7;" horiz-adv-x="421" 
d="M117 561l28 131h103l-29 -131h-102z" />
    <glyph glyph-name="periodcentered" unicode="&#x2219;" horiz-adv-x="421" 
d="M117 561l28 131h103l-29 -131h-102z" />
    <glyph glyph-name="cedilla" unicode="&#xb8;" 
d="M420 -426q-141 0 -248 72l35 45q94 -68 213 -68q178 0 178 141q0 54 -45 76t-135 17l-29 28l51 131h54l-43 -112q37 4 71.5 -1t64.5 -19.5t48 -43.5t18 -69q0 -29 -5.5 -54.5t-21 -52.5t-40 -46t-67.5 -31.5t-99 -12.5z" />
    <glyph glyph-name="onesuperior" unicode="&#xb9;" horiz-adv-x="618" 
d="M305 635l176 833h-188l12 50h240l-189 -883h-51z" />
    <glyph glyph-name="ordmasculine" unicode="&#xba;" horiz-adv-x="1146" 
d="M573 608q-169 0 -255.5 88t-86.5 250q0 269 125.5 432.5t343.5 163.5q175 0 262 -88.5t87 -253.5q0 -272 -124 -432t-352 -160zM573 657q199 0 310.5 147t111.5 396q0 141 -74 217t-221 76q-192 0 -303.5 -150t-111.5 -397q0 -139 72 -214t216 -75zM152 354l10 49h672
l-11 -49h-671z" />
    <glyph glyph-name="guillemotright" unicode="&#xbb;" horiz-adv-x="1275" 
d="M76 0l428 559l-189 551h50l190 -555l-426 -555h-53zM565 0l428 559l-188 551h49l190 -555l-426 -555h-53z" />
    <glyph glyph-name="onequarter" unicode="&#xbc;" horiz-adv-x="1570" 
d="M717 231l10 50l528 602h60l-531 -602h377l74 319h45l-68 -319h160l-10 -50h-160l-49 -231h-51l47 231h-432zM158 0l1167 1518h55l-1167 -1518h-55zM301 635l176 833h-188l12 50h240l-189 -883h-51z" />
    <glyph glyph-name="onehalf" unicode="&#xbd;" horiz-adv-x="1730" 
d="M301 635l176 833h-188l12 50h240l-189 -883h-51zM158 0l1167 1518h55l-1167 -1518h-55zM870 0l9 45l356 324q143 131 175 166q58 66 68 135q3 24 3 55q0 121 -187 121q-103 0 -204 -43l-21 43q106 47 225 47q125 0 180.5 -43t55.5 -125q0 -39 -3 -66t-15.5 -56
t-26.5 -49.5t-47 -55t-64 -63.5t-91 -84q-14 -12 -21 -19l-314 -285h451l-10 -47h-519z" />
    <glyph glyph-name="threequarters" unicode="&#xbe;" horiz-adv-x="1714" 
d="M414 635q-95 0 -163.5 20.5t-146.5 67.5l27 39q70 -42 132.5 -61t150.5 -19q116 0 177.5 68.5t61.5 201.5q0 39 -8.5 66t-30.5 49.5t-65 33.5t-109 11h-98l12 45h138q117 0 171 48.5t54 160.5q0 127 -197 127q-118 0 -219 -53l-20 41q107 59 239 59q127 0 187.5 -43.5
t60.5 -130.5q0 -102 -40 -157t-126 -79q103 -44 103 -178q0 -156 -75 -236.5t-216 -80.5zM860 231l10 50l529 602h59l-530 -602h377l73 319h45l-67 -319h160l-11 -50h-159l-50 -231h-51l47 231h-432zM301 0l1167 1518h56l-1168 -1518h-55z" />
    <glyph glyph-name="questiondown" unicode="&#xbf;" horiz-adv-x="1269" 
d="M535 0q-105 0 -184.5 15.5t-128.5 41t-80 64t-42.5 80.5t-11.5 94q0 69 13.5 120.5t38 92t72 77.5t103 67.5t142.5 70.5q100 45 149.5 91t79.5 122.5t59 228.5h54q-20 -100 -35 -157t-37.5 -111.5t-55 -88.5t-78 -65t-116.5 -63q-83 -38 -133 -65t-94 -59.5t-65 -68.5
t-32.5 -82.5t-11.5 -109.5q0 -55 17.5 -97t60 -77t122 -53.5t194.5 -18.5q76 0 184.5 19t208.5 57l18 -47q-105 -40 -217.5 -59t-193.5 -19zM764 1411l29 131h102l-29 -131h-102z" />
    <glyph glyph-name="Agrave" unicode="&#xc0;" horiz-adv-x="1366" 
d="M-94 0l913 1528h49l262 -1528h-51l-71 420h-797l-250 -420h-55zM240 467h759l-170 987zM928 1614l-266 283h63l258 -283h-55z" />
    <glyph glyph-name="Aacute" unicode="&#xc1;" horiz-adv-x="1366" 
d="M-94 0l913 1528h49l262 -1528h-51l-71 420h-797l-250 -420h-55zM240 467h759l-170 987zM736 1614l380 283h76l-389 -283h-67z" />
    <glyph glyph-name="Acircumflex" unicode="&#xc2;" horiz-adv-x="1366" 
d="M-94 0l913 1528h49l262 -1528h-51l-71 420h-797l-250 -420h-55zM240 467h759l-170 987zM535 1614l350 283h76l227 -283h-63l-207 250l-314 -250h-69z" />
    <glyph glyph-name="Atilde" unicode="&#xc3;" horiz-adv-x="1366" 
d="M-94 0l913 1528h49l262 -1528h-51l-71 420h-797l-250 -420h-55zM240 467h759l-170 987zM1016 1624q-41 0 -78 14.5t-60 31.5t-56 31.5t-66 14.5q-46 0 -83.5 -24.5t-76.5 -65.5l-39 35q100 104 199 104q41 0 78 -14.5t60.5 -31.5t56.5 -31.5t65 -14.5q37 0 70.5 25.5
t81.5 81.5l39 -33q-57 -64 -99.5 -93.5t-91.5 -29.5z" />
    <glyph glyph-name="Adieresis" unicode="&#xc4;" horiz-adv-x="1366" 
d="M-94 0l913 1528h49l262 -1528h-51l-71 420h-797l-250 -420h-55zM240 467h759l-170 987zM652 1614l34 162h54l-35 -162h-53zM1020 1614l35 162h53l-35 -162h-53z" />
    <glyph glyph-name="Aring" unicode="&#xc5;" horiz-adv-x="1366" 
d="M-94 0l889 1485q-78 11 -116 58t-38 116q0 118 70 191t176 73q100 0 149 -52.5t49 -133.5q0 -110 -59.5 -176.5t-151.5 -77.5l256 -1483h-51l-71 420h-797l-250 -420h-55zM240 467h759l-170 987zM846 1530q82 0 135 55t53 152q0 60 -36.5 99.5t-110.5 39.5
q-85 0 -140 -60.5t-55 -156.5q0 -57 39.5 -93t114.5 -36z" />
    <glyph glyph-name="AE" unicode="&#xc6;" horiz-adv-x="2054" 
d="M-106 0l1280 1518h909l-12 -50h-826l-137 -645h805l-10 -49h-805l-154 -725h834l-11 -49h-886l84 399h-670l-336 -399h-65zM338 449h639l215 1013z" />
    <glyph glyph-name="Ccedilla" unicode="&#xc7;" horiz-adv-x="1388" 
d="M510 -426q-141 0 -248 72l35 45q94 -68 213 -68q178 0 178 141q0 54 -45 76t-135 17l-29 28l41 107q-219 39 -331.5 187.5t-112.5 387.5q0 127 26 260q41 191 118 331t184 223t232 122t275 39q321 0 500 -194l-39 -33q-168 178 -461 178q-291 0 -488 -164.5t-269 -511.5
q-25 -117 -25 -250q0 -257 141.5 -398.5t413.5 -141.5q279 0 446 129l33 -39q-182 -140 -479 -140q-52 0 -113 7l-30 -80q37 4 71.5 -1t64.5 -19.5t48 -43.5t18 -69q0 -29 -5.5 -54.5t-21 -52.5t-40 -46t-67.5 -31.5t-99 -12.5z" />
    <glyph glyph-name="Egrave" unicode="&#xc8;" horiz-adv-x="1206" 
d="M33 0l323 1518h879l-12 -50h-826l-137 -645h805l-10 -49h-805l-154 -725h834l-10 -49h-887zM848 1614l-266 283h63l258 -283h-55z" />
    <glyph glyph-name="Eacute" unicode="&#xc9;" horiz-adv-x="1206" 
d="M33 0l323 1518h879l-12 -50h-826l-137 -645h805l-10 -49h-805l-154 -725h834l-10 -49h-887zM656 1614l380 283h76l-389 -283h-67z" />
    <glyph glyph-name="Ecircumflex" unicode="&#xca;" horiz-adv-x="1206" 
d="M33 0l323 1518h879l-12 -50h-826l-137 -645h805l-10 -49h-805l-154 -725h834l-10 -49h-887zM455 1614l350 283h76l227 -283h-63l-207 250l-314 -250h-69z" />
    <glyph glyph-name="Edieresis" unicode="&#xcb;" horiz-adv-x="1206" 
d="M33 0l323 1518h879l-12 -50h-826l-137 -645h805l-10 -49h-805l-154 -725h834l-10 -49h-887zM572 1614l34 162h54l-35 -162h-53zM940 1614l35 162h53l-35 -162h-53z" />
    <glyph glyph-name="Igrave" unicode="&#xcc;" horiz-adv-x="462" 
d="M375 1614l-162 282h59l154 -282h-51zM43 0l324 1518h53l-324 -1518h-53z" />
    <glyph glyph-name="Iacute" unicode="&#xcd;" horiz-adv-x="462" 
d="M381 1614l289 282h69l-297 -282h-61zM43 0l324 1518h53l-324 -1518h-53z" />
    <glyph glyph-name="Icircumflex" unicode="&#xce;" horiz-adv-x="462" 
d="M43 0l324 1518h53l-324 -1518h-53zM82 1614l350 283h76l227 -283h-63l-207 250l-314 -250h-69z" />
    <glyph glyph-name="Idieresis" unicode="&#xcf;" horiz-adv-x="462" 
d="M43 0l324 1518h53l-324 -1518h-53zM199 1614l34 162h54l-35 -162h-53zM567 1614l35 162h53l-35 -162h-53z" />
    <glyph glyph-name="Eth" unicode="&#xd0;" horiz-adv-x="1470" 
d="M4 774l10 49h193l149 695h324q258 0 416 -56t228.5 -167.5t70.5 -290.5q0 -146 -39 -318q-36 -167 -90.5 -287.5t-123 -197.5t-163 -122t-197.5 -62t-241 -17h-508l164 774h-193zM96 49h445q129 0 225.5 16.5t185 59t152.5 115t115.5 186t85.5 270.5q36 163 36 308
q0 243 -153 353.5t-508 110.5h-281l-139 -645h383l-10 -49h-383z" />
    <glyph glyph-name="Ntilde" unicode="&#xd1;" horiz-adv-x="1497" 
d="M33 0l323 1518h60l692 -1440l307 1440h49l-323 -1518h-45l-705 1458l-309 -1458h-49zM1081 1624q-41 0 -78 14.5t-60 31.5t-56 31.5t-66 14.5q-46 0 -83.5 -24.5t-76.5 -65.5l-39 35q100 104 199 104q41 0 78 -14.5t60.5 -31.5t56.5 -31.5t65 -14.5q37 0 70.5 25.5
t81.5 81.5l39 -33q-57 -64 -99.5 -93.5t-91.5 -29.5z" />
    <glyph glyph-name="Ograve" unicode="&#xd2;" horiz-adv-x="1646" 
d="M729 -23q-324 0 -488.5 157t-164.5 441q0 116 28 259q151 708 809 708q326 0 492 -158t166 -444q0 -125 -29 -258q-34 -154 -91 -273.5t-130.5 -200.5t-167.5 -133t-198 -75t-226 -23zM729 27q622 0 762 665q27 129 27 248q0 262 -152.5 407.5t-452.5 145.5
q-141 0 -259.5 -37.5t-218 -116.5t-171 -209t-108.5 -307q-27 -126 -27 -248q0 -260 151.5 -404t448.5 -144zM1069 1614l-266 283h63l258 -283h-55z" />
    <glyph glyph-name="Oacute" unicode="&#xd3;" horiz-adv-x="1646" 
d="M729 -23q-324 0 -488.5 157t-164.5 441q0 116 28 259q151 708 809 708q326 0 492 -158t166 -444q0 -125 -29 -258q-34 -154 -91 -273.5t-130.5 -200.5t-167.5 -133t-198 -75t-226 -23zM729 27q622 0 762 665q27 129 27 248q0 262 -152.5 407.5t-452.5 145.5
q-141 0 -259.5 -37.5t-218 -116.5t-171 -209t-108.5 -307q-27 -126 -27 -248q0 -260 151.5 -404t448.5 -144zM877 1614l380 283h76l-389 -283h-67z" />
    <glyph glyph-name="Ocircumflex" unicode="&#xd4;" horiz-adv-x="1646" 
d="M729 -23q-324 0 -488.5 157t-164.5 441q0 116 28 259q151 708 809 708q326 0 492 -158t166 -444q0 -125 -29 -258q-34 -154 -91 -273.5t-130.5 -200.5t-167.5 -133t-198 -75t-226 -23zM729 27q622 0 762 665q27 129 27 248q0 262 -152.5 407.5t-452.5 145.5
q-141 0 -259.5 -37.5t-218 -116.5t-171 -209t-108.5 -307q-27 -126 -27 -248q0 -260 151.5 -404t448.5 -144zM676 1614l350 283h76l227 -283h-63l-207 250l-314 -250h-69z" />
    <glyph glyph-name="Otilde" unicode="&#xd5;" horiz-adv-x="1646" 
d="M729 -23q-324 0 -488.5 157t-164.5 441q0 116 28 259q151 708 809 708q326 0 492 -158t166 -444q0 -125 -29 -258q-34 -154 -91 -273.5t-130.5 -200.5t-167.5 -133t-198 -75t-226 -23zM729 27q622 0 762 665q27 129 27 248q0 262 -152.5 407.5t-452.5 145.5
q-141 0 -259.5 -37.5t-218 -116.5t-171 -209t-108.5 -307q-27 -126 -27 -248q0 -260 151.5 -404t448.5 -144zM1157 1624q-41 0 -78 14.5t-60 31.5t-56 31.5t-66 14.5q-46 0 -83.5 -24.5t-76.5 -65.5l-39 35q100 104 199 104q41 0 78 -14.5t60.5 -31.5t56.5 -31.5t65 -14.5
q37 0 70.5 25.5t81.5 81.5l39 -33q-57 -64 -99.5 -93.5t-91.5 -29.5z" />
    <glyph glyph-name="Odieresis" unicode="&#xd6;" horiz-adv-x="1646" 
d="M729 -23q-324 0 -488.5 157t-164.5 441q0 116 28 259q151 708 809 708q326 0 492 -158t166 -444q0 -125 -29 -258q-34 -154 -91 -273.5t-130.5 -200.5t-167.5 -133t-198 -75t-226 -23zM729 27q622 0 762 665q27 129 27 248q0 262 -152.5 407.5t-452.5 145.5
q-141 0 -259.5 -37.5t-218 -116.5t-171 -209t-108.5 -307q-27 -126 -27 -248q0 -260 151.5 -404t448.5 -144zM793 1614l34 162h54l-35 -162h-53zM1161 1614l35 162h53l-35 -162h-53z" />
    <glyph glyph-name="multiply" unicode="&#xd7;" horiz-adv-x="1390" 
d="M268 350l-26 35l409 338l-266 338l37 31l266 -338l410 338l26 -35l-409 -338l266 -338l-37 -31l-266 338z" />
    <glyph glyph-name="Oslash" unicode="&#xd8;" horiz-adv-x="1646" 
d="M729 -23q-254 0 -414 99l-120 -160h-66l143 190q-196 150 -196 469q0 116 28 259q151 708 809 708q229 0 381 -82l109 144h65l-129 -170q232 -152 232 -494q0 -125 -29 -258q-34 -154 -91 -273.5t-130.5 -200.5t-167.5 -133t-198 -75t-226 -23zM729 27q622 0 762 665
q27 129 27 248q0 312 -211 453l-961 -1272q145 -94 383 -94zM129 575q0 -290 178 -428l959 1272q-145 74 -353 74q-141 0 -259.5 -37.5t-218 -116.5t-171 -209t-108.5 -307q-27 -126 -27 -248z" />
    <glyph glyph-name="Ugrave" unicode="&#xd9;" horiz-adv-x="1505" 
d="M657 -23q-128 0 -224 21t-157 61t-98 92t-49 121t-8 140t22 157l203 949h53l-204 -959q-17 -82 -21.5 -147t6 -127.5t43.5 -108t88 -80t142 -52t204 -17.5q133 0 230.5 32.5t161 97t101.5 146.5t62 195l220 1020h51l-221 -1031q-26 -122 -67.5 -210.5t-110 -158.5
t-175.5 -105.5t-252 -35.5zM997 1614l-266 283h63l258 -283h-55z" />
    <glyph glyph-name="Uacute" unicode="&#xda;" horiz-adv-x="1505" 
d="M657 -23q-128 0 -224 21t-157 61t-98 92t-49 121t-8 140t22 157l203 949h53l-204 -959q-17 -82 -21.5 -147t6 -127.5t43.5 -108t88 -80t142 -52t204 -17.5q133 0 230.5 32.5t161 97t101.5 146.5t62 195l220 1020h51l-221 -1031q-26 -122 -67.5 -210.5t-110 -158.5
t-175.5 -105.5t-252 -35.5zM805 1614l380 283h76l-389 -283h-67z" />
    <glyph glyph-name="Ucircumflex" unicode="&#xdb;" horiz-adv-x="1505" 
d="M657 -23q-128 0 -224 21t-157 61t-98 92t-49 121t-8 140t22 157l203 949h53l-204 -959q-17 -82 -21.5 -147t6 -127.5t43.5 -108t88 -80t142 -52t204 -17.5q133 0 230.5 32.5t161 97t101.5 146.5t62 195l220 1020h51l-221 -1031q-26 -122 -67.5 -210.5t-110 -158.5
t-175.5 -105.5t-252 -35.5zM604 1614l350 283h76l227 -283h-63l-207 250l-314 -250h-69z" />
    <glyph glyph-name="Udieresis" unicode="&#xdc;" horiz-adv-x="1505" 
d="M657 -23q-128 0 -224 21t-157 61t-98 92t-49 121t-8 140t22 157l203 949h53l-204 -959q-17 -82 -21.5 -147t6 -127.5t43.5 -108t88 -80t142 -52t204 -17.5q133 0 230.5 32.5t161 97t101.5 146.5t62 195l220 1020h51l-221 -1031q-26 -122 -67.5 -210.5t-110 -158.5
t-175.5 -105.5t-252 -35.5zM721 1614l34 162h54l-35 -162h-53zM1089 1614l35 162h53l-35 -162h-53z" />
    <glyph glyph-name="Yacute" unicode="&#xdd;" horiz-adv-x="1316" 
d="M467 0l133 631l-397 887h55l379 -844l729 844h64l-777 -895l-133 -623h-53zM711 1614l380 283h76l-389 -283h-67z" />
    <glyph glyph-name="Thorn" unicode="&#xde;" horiz-adv-x="1339" 
d="M33 0l323 1518h54l-62 -281h455q239 0 351 -81t112 -243q0 -252 -129 -389t-363 -137h-606l-82 -387h-53zM178 436h596q210 0 324 123.5t114 351.5q0 140 -98.5 208.5t-310.5 68.5h-465z" />
    <glyph glyph-name="germandbls" unicode="&#xdf;" horiz-adv-x="1226" 
d="M-59 -338l317 1493q93 434 477 434q206 0 306 -84.5t100 -224.5q0 -99 -25 -177t-71 -130t-103.5 -84.5t-128.5 -50.5q277 -69 277 -342q0 -112 -31.5 -201t-96.5 -156t-171.5 -103t-249.5 -36h-187l11 49h176q253 0 374 120t121 327q0 147 -103.5 231t-309.5 84l10 49
q73 0 137 12.5t123 43.5t101.5 78t67.5 120t25 166q0 118 -86.5 189t-265.5 71q-178 0 -281.5 -100t-144.5 -295l-315 -1483h-53z" />
    <glyph glyph-name="agrave" unicode="&#xe0;" horiz-adv-x="1198" 
d="M352 -23q-188 0 -267 70t-79 197q0 83 15.5 146.5t44 111t77 80.5t105.5 54t139.5 33t168.5 16.5t202 4.5h139q25 132 25 203q0 102 -67 148t-237 46q-83 0 -175 -23.5t-150 -57.5l-27 43q62 37 161.5 62.5t190.5 25.5q81 0 141.5 -10t102 -27.5t66 -48.5t36.5 -66
t11.5 -88.5t-8 -106.5t-23.5 -128l-96 -453q-10 -47 -13 -72t-1.5 -45.5t15.5 -28t34.5 -11t58.5 -3.5l-10 -49h-21q-76 2 -104.5 24t-28.5 85q0 25 13 88q-69 -113 -176 -166.5t-263 -53.5zM352 27q399 0 494 430l39 184h-127q-114 0 -196.5 -4t-160 -14.5t-129 -29.5
t-95 -48.5t-68 -71.5t-37.5 -98.5t-13 -130.5q0 -103 67 -160t226 -57zM770 1235l-266 283h63l258 -283h-55z" />
    <glyph glyph-name="aacute" unicode="&#xe1;" horiz-adv-x="1198" 
d="M352 -23q-188 0 -267 70t-79 197q0 83 15.5 146.5t44 111t77 80.5t105.5 54t139.5 33t168.5 16.5t202 4.5h139q25 132 25 203q0 102 -67 148t-237 46q-83 0 -175 -23.5t-150 -57.5l-27 43q62 37 161.5 62.5t190.5 25.5q81 0 141.5 -10t102 -27.5t66 -48.5t36.5 -66
t11.5 -88.5t-8 -106.5t-23.5 -128l-96 -453q-10 -47 -13 -72t-1.5 -45.5t15.5 -28t34.5 -11t58.5 -3.5l-10 -49h-21q-76 2 -104.5 24t-28.5 85q0 25 13 88q-69 -113 -176 -166.5t-263 -53.5zM352 27q399 0 494 430l39 184h-127q-114 0 -196.5 -4t-160 -14.5t-129 -29.5
t-95 -48.5t-68 -71.5t-37.5 -98.5t-13 -130.5q0 -103 67 -160t226 -57zM578 1235l380 283h76l-389 -283h-67z" />
    <glyph glyph-name="acircumflex" unicode="&#xe2;" horiz-adv-x="1198" 
d="M352 -23q-188 0 -267 70t-79 197q0 83 15.5 146.5t44 111t77 80.5t105.5 54t139.5 33t168.5 16.5t202 4.5h139q25 132 25 203q0 102 -67 148t-237 46q-83 0 -175 -23.5t-150 -57.5l-27 43q62 37 161.5 62.5t190.5 25.5q81 0 141.5 -10t102 -27.5t66 -48.5t36.5 -66
t11.5 -88.5t-8 -106.5t-23.5 -128l-96 -453q-10 -47 -13 -72t-1.5 -45.5t15.5 -28t34.5 -11t58.5 -3.5l-10 -49h-21q-76 2 -104.5 24t-28.5 85q0 25 13 88q-69 -113 -176 -166.5t-263 -53.5zM352 27q399 0 494 430l39 184h-127q-114 0 -196.5 -4t-160 -14.5t-129 -29.5
t-95 -48.5t-68 -71.5t-37.5 -98.5t-13 -130.5q0 -103 67 -160t226 -57zM377 1235l350 283h76l227 -283h-63l-207 250l-314 -250h-69z" />
    <glyph glyph-name="atilde" unicode="&#xe3;" horiz-adv-x="1198" 
d="M352 -23q-188 0 -267 70t-79 197q0 83 15.5 146.5t44 111t77 80.5t105.5 54t139.5 33t168.5 16.5t202 4.5h139q25 132 25 203q0 102 -67 148t-237 46q-83 0 -175 -23.5t-150 -57.5l-27 43q62 37 161.5 62.5t190.5 25.5q81 0 141.5 -10t102 -27.5t66 -48.5t36.5 -66
t11.5 -88.5t-8 -106.5t-23.5 -128l-96 -453q-10 -47 -13 -72t-1.5 -45.5t15.5 -28t34.5 -11t58.5 -3.5l-10 -49h-21q-76 2 -104.5 24t-28.5 85q0 25 13 88q-69 -113 -176 -166.5t-263 -53.5zM352 27q399 0 494 430l39 184h-127q-114 0 -196.5 -4t-160 -14.5t-129 -29.5
t-95 -48.5t-68 -71.5t-37.5 -98.5t-13 -130.5q0 -103 67 -160t226 -57zM858 1245q-41 0 -78 14.5t-60 31.5t-56 31.5t-66 14.5q-46 0 -83.5 -24.5t-76.5 -65.5l-39 35q100 104 199 104q41 0 78 -14.5t60.5 -31.5t56.5 -31.5t65 -14.5q37 0 70.5 25.5t81.5 81.5l39 -33
q-57 -64 -99.5 -93.5t-91.5 -29.5z" />
    <glyph glyph-name="adieresis" unicode="&#xe4;" horiz-adv-x="1198" 
d="M352 -23q-188 0 -267 70t-79 197q0 83 15.5 146.5t44 111t77 80.5t105.5 54t139.5 33t168.5 16.5t202 4.5h139q25 132 25 203q0 102 -67 148t-237 46q-83 0 -175 -23.5t-150 -57.5l-27 43q62 37 161.5 62.5t190.5 25.5q81 0 141.5 -10t102 -27.5t66 -48.5t36.5 -66
t11.5 -88.5t-8 -106.5t-23.5 -128l-96 -453q-10 -47 -13 -72t-1.5 -45.5t15.5 -28t34.5 -11t58.5 -3.5l-10 -49h-21q-76 2 -104.5 24t-28.5 85q0 25 13 88q-69 -113 -176 -166.5t-263 -53.5zM352 27q399 0 494 430l39 184h-127q-114 0 -196.5 -4t-160 -14.5t-129 -29.5
t-95 -48.5t-68 -71.5t-37.5 -98.5t-13 -130.5q0 -103 67 -160t226 -57zM494 1235l34 162h54l-35 -162h-53zM862 1235l35 162h53l-35 -162h-53z" />
    <glyph glyph-name="aring" unicode="&#xe5;" horiz-adv-x="1198" 
d="M352 -23q-188 0 -267 70t-79 197q0 83 15.5 146.5t44 111t77 80.5t105.5 54t139.5 33t168.5 16.5t202 4.5h139q25 132 25 203q0 102 -67 148t-237 46q-83 0 -175 -23.5t-150 -57.5l-27 43q62 37 161.5 62.5t190.5 25.5q81 0 141.5 -10t102 -27.5t66 -48.5t36.5 -66
t11.5 -88.5t-8 -106.5t-23.5 -128l-96 -453q-10 -47 -13 -72t-1.5 -45.5t15.5 -28t34.5 -11t58.5 -3.5l-10 -49h-21q-76 2 -104.5 24t-28.5 85q0 25 13 88q-69 -113 -176 -166.5t-263 -53.5zM352 27q399 0 494 430l39 184h-127q-114 0 -196.5 -4t-160 -14.5t-129 -29.5
t-95 -48.5t-68 -71.5t-37.5 -98.5t-13 -130.5q0 -103 67 -160t226 -57zM729 1221q-103 0 -154 48.5t-51 127.5q0 118 70 191t176 73q100 0 149.5 -52.5t49.5 -133.5q0 -119 -68.5 -186.5t-171.5 -67.5zM729 1268q82 0 135.5 55t53.5 152q0 60 -37 99.5t-111 39.5
q-85 0 -140 -60.5t-55 -156.5q0 -57 39.5 -93t114.5 -36z" />
    <glyph glyph-name="ae" unicode="&#xe6;" horiz-adv-x="1939" 
d="M1260 -23q-113 0 -192.5 25t-124.5 73t-66 107t-25 137q-66 -178 -182.5 -260t-321.5 -82q-71 0 -126.5 11t-107 38.5t-80 82.5t-28.5 135q0 93 17 161t56.5 118t96 82t144.5 51t191 26.5t247 7.5h139q25 132 25 203q0 101 -66.5 147.5t-237.5 46.5q-82 0 -175 -24
t-150 -57l-27 43q63 37 160.5 62.5t191.5 25.5q197 0 276.5 -59.5t76.5 -194.5q65 126 172 190t272 64q117 0 196 -21.5t120 -63.5t57 -92t16 -120q0 -95 -37 -269h-845q-21 -123 -21 -209q0 -76 16.5 -133.5t55 -104.5t111 -72t176.5 -25q116 0 197.5 21t164.5 69l25 -43
q-88 -52 -175 -74.5t-212 -22.5zM352 27q225 0 339.5 120t170.5 383l23 111h-127q-98 0 -168.5 -2.5t-143 -9.5t-121.5 -19.5t-96 -33t-76 -49.5t-52 -69.5t-32.5 -93.5t-9.5 -120q0 -114 72 -165.5t221 -51.5zM1415 1087q-109 0 -190.5 -31t-137.5 -93.5t-92.5 -145
t-62.5 -196.5h792q27 128 27 219q0 58 -14 99.5t-50 76.5t-104 53t-168 18z" />
    <glyph glyph-name="ccedilla" unicode="&#xe7;" horiz-adv-x="1083" 
d="M356 -426q-140 0 -247 72l34 45q94 -68 213 -68q179 0 179 141q0 54 -45.5 76t-135.5 17l-28 28l36 99q-313 43 -313 389q0 107 27 233q60 282 187.5 406.5t361.5 124.5q68 0 125.5 -11.5t93.5 -27t69.5 -41.5t49 -43.5t36.5 -44.5l-41 -31q-19 24 -32.5 38.5t-43.5 38.5
t-61.5 37.5t-83 24t-112.5 10.5q-211 0 -326.5 -115t-171.5 -376q-25 -122 -25 -223q0 -346 357 -346q96 0 172 22.5t153 79.5l31 -39q-85 -62 -168.5 -87.5t-187.5 -25.5q-22 0 -43 3l-29 -76q51 5 95 -5t76 -43t32 -85q0 -29 -5.5 -54.5t-21 -52.5t-40.5 -46t-68 -31.5
t-99 -12.5z" />
    <glyph glyph-name="egrave" unicode="&#xe8;" horiz-adv-x="1138" 
d="M459 -23q-120 0 -203 28.5t-127.5 83t-63 120t-18.5 153.5q0 109 29 244q28 131 67 224t101.5 165t154 107t215.5 35q94 0 164 -15t112.5 -40t68.5 -63.5t35.5 -81t9.5 -97.5q0 -95 -37 -269h-846q-21 -123 -21 -209q0 -76 16.5 -133.5t55 -104.5t111 -72t176.5 -25
q116 0 197.5 21t164.5 69l25 -43q-88 -52 -175 -74.5t-212 -22.5zM614 1087q-109 0 -190.5 -31t-137.5 -93.5t-92.5 -145t-62.5 -196.5h793q26 123 26 219q0 58 -14 99.5t-50 76.5t-104 53t-168 18zM735 1235l-266 283h63l258 -283h-55z" />
    <glyph glyph-name="eacute" unicode="&#xe9;" horiz-adv-x="1138" 
d="M459 -23q-120 0 -203 28.5t-127.5 83t-63 120t-18.5 153.5q0 109 29 244q28 131 67 224t101.5 165t154 107t215.5 35q94 0 164 -15t112.5 -40t68.5 -63.5t35.5 -81t9.5 -97.5q0 -95 -37 -269h-846q-21 -123 -21 -209q0 -76 16.5 -133.5t55 -104.5t111 -72t176.5 -25
q116 0 197.5 21t164.5 69l25 -43q-88 -52 -175 -74.5t-212 -22.5zM614 1087q-109 0 -190.5 -31t-137.5 -93.5t-92.5 -145t-62.5 -196.5h793q26 123 26 219q0 58 -14 99.5t-50 76.5t-104 53t-168 18zM543 1235l380 283h76l-389 -283h-67z" />
    <glyph glyph-name="ecircumflex" unicode="&#xea;" horiz-adv-x="1138" 
d="M459 -23q-120 0 -203 28.5t-127.5 83t-63 120t-18.5 153.5q0 109 29 244q28 131 67 224t101.5 165t154 107t215.5 35q94 0 164 -15t112.5 -40t68.5 -63.5t35.5 -81t9.5 -97.5q0 -95 -37 -269h-846q-21 -123 -21 -209q0 -76 16.5 -133.5t55 -104.5t111 -72t176.5 -25
q116 0 197.5 21t164.5 69l25 -43q-88 -52 -175 -74.5t-212 -22.5zM614 1087q-109 0 -190.5 -31t-137.5 -93.5t-92.5 -145t-62.5 -196.5h793q26 123 26 219q0 58 -14 99.5t-50 76.5t-104 53t-168 18zM342 1235l350 283h76l227 -283h-63l-207 250l-314 -250h-69z" />
    <glyph glyph-name="edieresis" unicode="&#xeb;" horiz-adv-x="1138" 
d="M459 -23q-120 0 -203 28.5t-127.5 83t-63 120t-18.5 153.5q0 109 29 244q28 131 67 224t101.5 165t154 107t215.5 35q94 0 164 -15t112.5 -40t68.5 -63.5t35.5 -81t9.5 -97.5q0 -95 -37 -269h-846q-21 -123 -21 -209q0 -76 16.5 -133.5t55 -104.5t111 -72t176.5 -25
q116 0 197.5 21t164.5 69l25 -43q-88 -52 -175 -74.5t-212 -22.5zM614 1087q-109 0 -190.5 -31t-137.5 -93.5t-92.5 -145t-62.5 -196.5h793q26 123 26 219q0 58 -14 99.5t-50 76.5t-104 53t-168 18zM459 1235l34 162h54l-35 -162h-53zM827 1235l35 162h53l-35 -162h-53z" />
    <glyph glyph-name="igrave" unicode="&#xec;" horiz-adv-x="417" 
d="M264 1235l-155 283h63l147 -283h-55zM20 0l236 1110h53l-235 -1110h-54z" />
    <glyph glyph-name="iacute" unicode="&#xed;" horiz-adv-x="417" 
d="M274 1235l289 283h70l-297 -283h-62zM20 0l236 1110h53l-235 -1110h-54z" />
    <glyph glyph-name="icircumflex" unicode="&#xee;" horiz-adv-x="417" 
d="M23 1235l309 283h74l186 -283h-62l-165 250l-273 -250h-69zM20 0l236 1110h53l-235 -1110h-54z" />
    <glyph glyph-name="idieresis" unicode="&#xef;" horiz-adv-x="417" 
d="M117 1235l35 162h53l-35 -162h-53zM444 1235l35 162h53l-34 -162h-54zM20 0l236 1110h53l-235 -1110h-54z" />
    <glyph glyph-name="eth" unicode="&#xf0;" horiz-adv-x="1212" 
d="M711 1260l10 49l215 69q-65 96 -172 172l33 39q125 -96 192 -194l301 98l-10 -49l-266 -86q92 -158 92 -406q0 -197 -55 -448q-60 -282 -197.5 -404.5t-366.5 -122.5q-438 0 -438 404q0 87 27 225q60 283 196 407t363 124q335 0 416 -240q17 262 -90 442zM487 27
q206 0 331 115.5t181 373.5q25 116 25 211q0 360 -389 360q-206 0 -329.5 -116.5t-178.5 -374.5q-25 -116 -25 -215q0 -354 385 -354z" />
    <glyph glyph-name="ntilde" unicode="&#xf1;" horiz-adv-x="1173" 
d="M12 0l236 1108l43 2l-27 -170q117 197 387 197q89 0 154 -14t106 -35t64.5 -60.5t33 -74t5.5 -93.5t-11 -101t-22 -114l-137 -645h-53l137 643q35 165 34 231q-1 131 -105 179q-74 34 -206 34q-86 0 -155 -23.5t-115.5 -62.5t-82.5 -98t-57.5 -120.5t-37.5 -139.5
l-137 -643h-54zM840 1245q-41 0 -78 14.5t-60 31.5t-56 31.5t-66 14.5q-46 0 -83.5 -24.5t-76.5 -65.5l-39 35q100 104 199 104q41 0 78 -14.5t60.5 -31.5t56.5 -31.5t65 -14.5q37 0 70.5 25.5t81.5 81.5l39 -33q-57 -64 -99.5 -93.5t-91.5 -29.5z" />
    <glyph glyph-name="ograve" unicode="&#xf2;" horiz-adv-x="1212" 
d="M487 -23q-233 0 -335.5 103t-102.5 301q0 87 27 225q61 286 193 408.5t366 122.5t338 -104.5t104 -305.5q0 -91 -26 -221q-60 -285 -194.5 -407t-369.5 -122zM487 27q213 0 334 114.5t178 374.5q25 116 25 211q0 176 -91.5 268t-297.5 92q-212 0 -332.5 -115t-175.5 -376
q-25 -116 -25 -215q0 -173 90 -263.5t295 -90.5zM772 1235l-266 283h63l258 -283h-55z" />
    <glyph glyph-name="oacute" unicode="&#xf3;" horiz-adv-x="1212" 
d="M487 -23q-233 0 -335.5 103t-102.5 301q0 87 27 225q61 286 193 408.5t366 122.5t338 -104.5t104 -305.5q0 -91 -26 -221q-60 -285 -194.5 -407t-369.5 -122zM487 27q213 0 334 114.5t178 374.5q25 116 25 211q0 176 -91.5 268t-297.5 92q-212 0 -332.5 -115t-175.5 -376
q-25 -116 -25 -215q0 -173 90 -263.5t295 -90.5zM580 1235l380 283h76l-389 -283h-67z" />
    <glyph glyph-name="ocircumflex" unicode="&#xf4;" horiz-adv-x="1212" 
d="M487 -23q-233 0 -335.5 103t-102.5 301q0 87 27 225q61 286 193 408.5t366 122.5t338 -104.5t104 -305.5q0 -91 -26 -221q-60 -285 -194.5 -407t-369.5 -122zM487 27q213 0 334 114.5t178 374.5q25 116 25 211q0 176 -91.5 268t-297.5 92q-212 0 -332.5 -115t-175.5 -376
q-25 -116 -25 -215q0 -173 90 -263.5t295 -90.5zM379 1235l350 283h76l227 -283h-63l-207 250l-314 -250h-69z" />
    <glyph glyph-name="otilde" unicode="&#xf5;" horiz-adv-x="1212" 
d="M487 -23q-233 0 -335.5 103t-102.5 301q0 87 27 225q61 286 193 408.5t366 122.5t338 -104.5t104 -305.5q0 -91 -26 -221q-60 -285 -194.5 -407t-369.5 -122zM487 27q213 0 334 114.5t178 374.5q25 116 25 211q0 176 -91.5 268t-297.5 92q-212 0 -332.5 -115t-175.5 -376
q-25 -116 -25 -215q0 -173 90 -263.5t295 -90.5zM860 1245q-41 0 -78 14.5t-60 31.5t-56 31.5t-66 14.5q-46 0 -83.5 -24.5t-76.5 -65.5l-39 35q100 104 199 104q41 0 78 -14.5t60.5 -31.5t56.5 -31.5t65 -14.5q37 0 70.5 25.5t81.5 81.5l39 -33q-57 -64 -99.5 -93.5
t-91.5 -29.5z" />
    <glyph glyph-name="odieresis" unicode="&#xf6;" horiz-adv-x="1212" 
d="M487 -23q-233 0 -335.5 103t-102.5 301q0 87 27 225q61 286 193 408.5t366 122.5t338 -104.5t104 -305.5q0 -91 -26 -221q-60 -285 -194.5 -407t-369.5 -122zM487 27q213 0 334 114.5t178 374.5q25 116 25 211q0 176 -91.5 268t-297.5 92q-212 0 -332.5 -115t-175.5 -376
q-25 -116 -25 -215q0 -173 90 -263.5t295 -90.5zM496 1235l34 162h54l-35 -162h-53zM864 1235l35 162h53l-35 -162h-53z" />
    <glyph glyph-name="divide" unicode="&#xf7;" horiz-adv-x="1390" 
d="M539 262l28 131h103l-29 -131h-102zM219 698l12 50h922l-12 -50h-922zM707 1053l28 131h103l-29 -131h-102z" />
    <glyph glyph-name="oslash" unicode="&#xf8;" horiz-adv-x="1212" 
d="M487 -23q-175 0 -286 68l-99 -129h-61l121 160q-113 101 -113 305q0 87 27 225q60 283 196 407t363 124q178 0 287 -70l100 129h61l-122 -158q116 -104 116 -311q0 -91 -26 -221q-60 -283 -198 -406t-366 -123zM487 27q206 0 331 115.5t181 373.5q25 116 25 211
q0 178 -96 270l-697 -909q91 -61 256 -61zM102 381q0 -174 93 -264l696 907q-94 63 -256 63q-206 0 -329.5 -116.5t-178.5 -374.5q-25 -116 -25 -215z" />
    <glyph glyph-name="ugrave" unicode="&#xf9;" horiz-adv-x="1163" 
d="M485 -23q-101 0 -176 16t-121 38t-72 64.5t-37 75.5t-7 93.5t10 95t20 101.5l138 649h53l-139 -659q-18 -88 -24 -139t3.5 -113t46 -94.5t112 -55t193.5 -22.5q49 0 90.5 6t73 14.5t58 26t45.5 33.5t35.5 44t26.5 49.5t21 59.5t17 64t16 71l152 715h51l-153 -725
q-10 -48 -17.5 -79t-19.5 -70.5t-24 -65t-30.5 -55.5t-40.5 -48.5t-52 -37.5t-66 -29t-82 -16.5t-101 -6.5zM747 1235l-266 283h63l258 -283h-55z" />
    <glyph glyph-name="uacute" unicode="&#xfa;" horiz-adv-x="1163" 
d="M485 -23q-101 0 -176 16t-121 38t-72 64.5t-37 75.5t-7 93.5t10 95t20 101.5l138 649h53l-139 -659q-18 -88 -24 -139t3.5 -113t46 -94.5t112 -55t193.5 -22.5q49 0 90.5 6t73 14.5t58 26t45.5 33.5t35.5 44t26.5 49.5t21 59.5t17 64t16 71l152 715h51l-153 -725
q-10 -48 -17.5 -79t-19.5 -70.5t-24 -65t-30.5 -55.5t-40.5 -48.5t-52 -37.5t-66 -29t-82 -16.5t-101 -6.5zM555 1235l380 283h76l-389 -283h-67z" />
    <glyph glyph-name="ucircumflex" unicode="&#xfb;" horiz-adv-x="1163" 
d="M485 -23q-101 0 -176 16t-121 38t-72 64.5t-37 75.5t-7 93.5t10 95t20 101.5l138 649h53l-139 -659q-18 -88 -24 -139t3.5 -113t46 -94.5t112 -55t193.5 -22.5q49 0 90.5 6t73 14.5t58 26t45.5 33.5t35.5 44t26.5 49.5t21 59.5t17 64t16 71l152 715h51l-153 -725
q-10 -48 -17.5 -79t-19.5 -70.5t-24 -65t-30.5 -55.5t-40.5 -48.5t-52 -37.5t-66 -29t-82 -16.5t-101 -6.5zM354 1235l350 283h76l227 -283h-63l-207 250l-314 -250h-69z" />
    <glyph glyph-name="udieresis" unicode="&#xfc;" horiz-adv-x="1163" 
d="M485 -23q-101 0 -176 16t-121 38t-72 64.5t-37 75.5t-7 93.5t10 95t20 101.5l138 649h53l-139 -659q-18 -88 -24 -139t3.5 -113t46 -94.5t112 -55t193.5 -22.5q49 0 90.5 6t73 14.5t58 26t45.5 33.5t35.5 44t26.5 49.5t21 59.5t17 64t16 71l152 715h51l-153 -725
q-10 -48 -17.5 -79t-19.5 -70.5t-24 -65t-30.5 -55.5t-40.5 -48.5t-52 -37.5t-66 -29t-82 -16.5t-101 -6.5zM471 1235l34 162h54l-35 -162h-53zM839 1235l35 162h53l-35 -162h-53z" />
    <glyph glyph-name="yacute" unicode="&#xfd;" horiz-adv-x="976" 
d="M29 -338h-99l11 49h88q63 0 95.5 27.5t86.5 116.5l88 145l-184 1110h49l174 -1047l616 1047h56l-758 -1278q-59 -99 -104 -134.5t-119 -35.5zM461 1235l380 283h76l-389 -283h-67z" />
    <glyph glyph-name="thorn" unicode="&#xfe;" horiz-adv-x="1241" 
d="M-59 -338l409 1927h53l-139 -651q68 114 169.5 156.5t260.5 42.5q219 0 316.5 -102.5t97.5 -293.5q0 -105 -31 -241t-70.5 -228t-100.5 -159.5t-147 -99t-204 -31.5q-204 0 -307 67.5t-125 218.5l-129 -606h-53zM555 31q198 0 306.5 112t164.5 367q29 135 29 231
q0 167 -85 256.5t-276 89.5q-85 0 -146.5 -11.5t-119 -42t-98.5 -85.5t-76 -141t-61 -209q-29 -142 -29 -233q0 -177 93 -255.5t298 -78.5z" />
    <glyph glyph-name="ydieresis" unicode="&#xff;" horiz-adv-x="976" 
d="M29 -338h-99l11 49h88q63 0 95.5 27.5t86.5 116.5l88 145l-184 1110h49l174 -1047l616 1047h56l-758 -1278q-59 -99 -104 -134.5t-119 -35.5zM377 1235l34 162h54l-35 -162h-53zM745 1235l35 162h53l-35 -162h-53z" />
    <glyph glyph-name="dotlessi" unicode="&#x131;" horiz-adv-x="417" 
d="M20 0l236 1110h53l-235 -1110h-54z" />
    <glyph glyph-name="Lslash" unicode="&#x141;" horiz-adv-x="1124" 
d="M-14 686l12 55l215 107l143 670h54l-138 -639l430 215l-14 -56l-426 -215l-166 -774h805l-10 -49h-858l168 795z" />
    <glyph glyph-name="lslash" unicode="&#x142;" horiz-adv-x="659" 
d="M66 877l12 55l250 129l112 528h54l-107 -497l287 147l-15 -55l-282 -148l-174 -819q-25 -92 -6.5 -130t108.5 -38h55l-10 -49h-47q-88 0 -127.5 28.5t-38.5 81.5t17 128l161 768z" />
    <glyph glyph-name="OE" unicode="&#x152;" horiz-adv-x="2516" 
d="M729 -23q-324 0 -488.5 157t-164.5 441q0 116 28 259q151 708 809 708q306 0 469.5 -139.5t182.5 -394.5l108 510h873l-13 -50h-823l-137 -645h803l-11 -49h-802l-154 -725h832l-11 -49h-880l77 369q-206 -392 -698 -392zM729 27q622 0 762 665q27 129 27 248
q0 262 -152.5 407.5t-452.5 145.5q-141 0 -259.5 -37.5t-218 -116.5t-171 -209t-108.5 -307q-27 -126 -27 -248q0 -260 151.5 -404t448.5 -144z" />
    <glyph glyph-name="oe" unicode="&#x153;" horiz-adv-x="2078" 
d="M1399 -23q-112 0 -191 24.5t-124 72t-66.5 105.5t-26.5 136q-69 -180 -191 -259t-313 -79q-233 0 -335.5 103t-102.5 301q0 87 27 225q61 286 193 408.5t366 122.5q214 0 318 -88.5t118 -257.5q63 172 176.5 259t306.5 87q94 0 164 -15t112.5 -40t68.5 -63.5t35.5 -81
t9.5 -97.5q0 -95 -37 -269h-846q-21 -123 -21 -209q0 -76 16.5 -133.5t55 -104.5t111 -72t176.5 -25q116 0 197.5 21t164.5 69l25 -43q-88 -52 -175 -74.5t-212 -22.5zM487 27q213 0 334 114.5t178 374.5q25 116 25 211q0 176 -91.5 268t-297.5 92q-212 0 -332.5 -115
t-175.5 -376q-25 -116 -25 -215q0 -173 90 -263.5t295 -90.5zM1554 1087q-109 0 -190.5 -31t-137.5 -93.5t-92.5 -145t-62.5 -196.5h793q26 123 26 219q0 58 -14 99.5t-50 76.5t-104 53t-168 18z" />
    <glyph glyph-name="Scaron" unicode="&#x160;" horiz-adv-x="1349" 
d="M573 -18q-192 0 -327.5 41t-270.5 139l31 39q127 -92 256 -131t311 -39q76 0 143.5 10t135.5 36.5t116 68.5t78.5 110.5t30.5 157.5q0 62 -20.5 110.5t-45 78t-83 60t-95.5 44.5t-122 42q-37 13 -56 19q-175 59 -238 92q-129 70 -161 182q-12 43 -12 95q0 90 28.5 160.5
t75.5 115.5t111.5 75t132.5 42t143 12q180 0 298.5 -38.5t207.5 -108.5l-33 -39q-84 66 -194 101.5t-279 35.5q-67 0 -127 -10.5t-118 -36.5t-100 -65t-67.5 -102t-25.5 -142q0 -48 12 -86.5t36.5 -67.5t55.5 -52t74.5 -42.5t87.5 -35.5t101 -35q7 -2 10 -3
q111 -37 166.5 -58.5t122.5 -56.5t96 -70.5t50 -89.5t21 -126q0 -100 -33.5 -177.5t-87 -124.5t-128.5 -77t-149.5 -41.5t-158.5 -11.5zM816 1614l-228 283h62l207 -250l313 250h72l-351 -283h-75z" />
    <glyph glyph-name="scaron" unicode="&#x161;" horiz-adv-x="964" 
d="M401 -23q-269 0 -450 146l33 39q166 -135 417 -135q65 0 120 14t103 46t75.5 92t27.5 143q0 35 -10 64t-32 52t-43 39.5t-59 33.5t-63 26.5t-71 25.5q-34 12 -45.5 16t-43 16t-44 19t-39 20t-38.5 23.5t-31 26t-28 31t-19 35.5t-14 42.5t-4 47.5q0 146 98.5 221.5
t260.5 75.5q241 0 389 -113l-33 -39q-132 102 -356 102q-138 0 -221.5 -62.5t-83.5 -184.5q0 -38 17 -71t39.5 -54.5t64 -43t70.5 -33t79 -28.5q58 -20 94 -34t82.5 -40t72.5 -53t45 -69t19 -92q0 -97 -32 -167t-88 -107.5t-119.5 -54t-139.5 -16.5zM543 1235l-228 283h62
l207 -250l313 250h72l-351 -283h-75z" />
    <glyph glyph-name="Ydieresis" unicode="&#x178;" horiz-adv-x="1316" 
d="M467 0l133 631l-397 887h55l379 -844l729 844h64l-777 -895l-133 -623h-53zM627 1614l34 162h54l-35 -162h-53zM995 1614l35 162h53l-35 -162h-53z" />
    <glyph glyph-name="Zcaron" unicode="&#x17d;" horiz-adv-x="1286" 
d="M-53 0l10 47l1278 1421h-942l12 50h1006l-11 -48l-1280 -1421h1000l-10 -49h-1063zM785 1614l-228 283h62l207 -250l313 250h72l-351 -283h-75z" />
    <glyph glyph-name="zcaron" unicode="&#x17e;" horiz-adv-x="937" 
d="M-78 0l10 49l906 1012h-654l11 49h714l-10 -49l-905 -1012h715l-11 -49h-776zM531 1235l-228 283h62l207 -250l313 250h72l-351 -283h-75z" />
    <glyph glyph-name="florin" unicode="&#x192;" horiz-adv-x="978" 
d="M211 860l10 49h219l64 297q28 132 55 184q57 109 197 125q28 3 59 3h39l-10 -50h-29q-34 0 -62.5 -5.5t-50 -12t-40.5 -22t-31 -26.5t-24 -35t-18 -36.5t-13.5 -43t-10.5 -43t-10 -46.5l-61 -289h360l-10 -49h-361l-252 -1198h-53l252 1198h-219z" />
    <glyph glyph-name="circumflex" unicode="&#x2c6;" 
d="M377 1235l350 283h76l227 -283h-63l-207 250l-314 -250h-69z" />
    <glyph glyph-name="caron" unicode="&#x2c7;" 
d="M666 1235l-228 283h62l207 -250l313 250h72l-351 -283h-75z" />
    <glyph glyph-name="breve" unicode="&#x2d8;" 
d="M715 1221q-70 0 -123.5 14.5t-84.5 36.5t-50.5 55t-26.5 63.5t-8 67.5l51 12q1 -33 5 -57.5t18.5 -53t39.5 -46.5t70 -30.5t107 -12.5q61 0 110.5 12.5t81 30t58 47t40 53t29.5 57.5l47 -12q-17 -40 -33.5 -68t-46.5 -62.5t-66 -56t-92.5 -36t-125.5 -14.5z" />
    <glyph glyph-name="dotaccent" unicode="&#x2d9;" 
d="M678 1235l37 174h53l-37 -174h-53z" />
    <glyph glyph-name="ring" unicode="&#x2da;" 
d="M729 1221q-103 0 -154 48.5t-51 127.5q0 118 70 191t176 73q100 0 149.5 -52.5t49.5 -133.5q0 -119 -68.5 -186.5t-171.5 -67.5zM729 1268q82 0 135.5 55t53.5 152q0 60 -37 99.5t-111 39.5q-85 0 -140 -60.5t-55 -156.5q0 -57 39.5 -93t114.5 -36z" />
    <glyph glyph-name="ogonek" unicode="&#x2db;" 
d="M385 -424q-211 0 -211 150q0 52 22.5 98t63.5 82.5t75 59.5t81 48h84q-273 -130 -273 -288q0 -101 158 -101q83 0 156 39l22 -43q-36 -20 -86.5 -32.5t-91.5 -12.5z" />
    <glyph glyph-name="tilde" unicode="&#x2dc;" 
d="M858 1245q-41 0 -78 14.5t-60 31.5t-56 31.5t-66 14.5q-46 0 -83.5 -24.5t-76.5 -65.5l-39 35q100 104 199 104q41 0 78 -14.5t60.5 -31.5t56.5 -31.5t65 -14.5q37 0 70.5 25.5t81.5 81.5l39 -33q-57 -64 -99.5 -93.5t-91.5 -29.5z" />
    <glyph glyph-name="hungarumlaut" unicode="&#x2dd;" 
d="M393 1235l320 283h71l-327 -283h-64zM805 1235l319 283h72l-328 -283h-63z" />
    <glyph glyph-name="Delta" unicode="&#x394;" horiz-adv-x="1091" 
d="M133 1061l10 49h211l41 193q15 68 37.5 117t60.5 89t97 60t139 20h86l-10 -49h-76q-71 0 -121.5 -18t-82 -54t-49 -77t-30.5 -99l-38 -182h305l-11 -49h-305l-297 -1399h-53l297 1399h-211zM442 -338l11 49h6q108 0 149 38.5t66 154.5l256 1206h53l-258 -1214
q-29 -135 -81.5 -184.5t-184.5 -49.5h-17zM969 1288l37 174h53l-37 -174h-53z" />
    <glyph glyph-name="Delta" unicode="&#x2206;" horiz-adv-x="1091" 
d="M133 1061l10 49h211l41 193q15 68 37.5 117t60.5 89t97 60t139 20h86l-10 -49h-76q-71 0 -121.5 -18t-82 -54t-49 -77t-30.5 -99l-38 -182h305l-11 -49h-305l-297 -1399h-53l297 1399h-211zM442 -338l11 49h6q108 0 149 38.5t66 154.5l256 1206h53l-258 -1214
q-29 -135 -81.5 -184.5t-184.5 -49.5h-17zM969 1288l37 174h53l-37 -174h-53z" />
    <glyph glyph-name="Omega" unicode="&#x3a9;" horiz-adv-x="1703" 
d="M258 246q-88 105 -136 237t-48 277q0 144 48 276t136 236q6 -4 14 -12q-85 -103 -131.5 -231.5t-46.5 -268.5q0 -285 180 -500zM467 432q-117 143 -117 328q0 183 115 327q3 -2 8 -7t8 -7q-110 -136 -110 -313q0 -182 110 -314zM541 498q-92 116 -92 262t92 262
q3 -2 8 -7t8 -7q-88 -109 -88 -248t88 -248q-3 -2 -8 -7t-8 -7zM647 592q-57 72 -57 168q0 97 57 166l15 -15q-52 -69 -52 -151q0 -84 54 -154q-3 -2 -8.5 -7t-8.5 -7zM715 655q-33 48 -33 105q0 56 33 104q3 -2 8 -7t8 -7q-29 -44 -29 -90t29 -90q-3 -2 -16 -15zM774 709
q-14 25 -14 51t14 51l12 -10q-10 -20 -10 -41t10 -41q-4 -4 -12 -10zM852 123q-236 0 -412 158l2.5 2.5l5 5l5.5 5.5t2 1q171 -152 397 -152q227 0 395 152q2 -3 7.5 -8t7.5 -8q-177 -156 -410 -156zM852 664q-31 0 -55 18l12 12q21 -14 43 -14q26 0 43 14q4 -4 10 -12
q-21 -18 -53 -18zM987 653q-7 10 -14 15q28 42 28 92q0 51 -28 90l2.5 2.5t5 4.5t5.5 5t1 2q35 -44 35 -104t-35 -107zM598 551q-72 91 -72 209q0 119 74 209l14 -15q-67 -87 -67 -194q0 -108 67 -195q-10 -10 -16 -14zM852 -35q-145 0 -278 52.5t-238 146.5l14 16
q102 -92 231 -143t271 -51q285 0 500 192q0 1 3.5 -2.5t6.5 -7.5l4 -4q-104 -95 -236 -147t-278 -52zM852 248q-189 0 -330 125l15 16q134 -121 315 -121q182 0 313 121q2 -3 7.5 -8t7.5 -8q-138 -125 -328 -125zM852 348q-145 0 -264 101l14 14q108 -94 250 -94
q143 0 248 94q2 -3 7 -8.5t7 -8.5q-112 -98 -262 -98zM852 428q-116 0 -211 78l14 16q86 -73 197 -73t197 73q4 -4 12 -16q-91 -78 -209 -78zM852 543q-77 0 -135 49l14 16q51 -45 121 -45q68 0 119 45q2 -3 7 -8t7 -8q-58 -49 -133 -49zM733 911q-4 3 -7 6.5t-6 6.5l-3 4
q58 49 135 49t135 -49l-16 -17q-51 45 -119 45t-119 -45zM1167 1130q-134 121 -315 121q-179 0 -313 -118l-15 14q141 125 328 125q189 0 330 -125q-4 -6 -15 -17zM930 709l-12 10q10 20 10 41t-10 41l12 10q14 -25 14 -51t-14 -51zM958 682q-10 10 -16 14q21 32 21 64
t-21 63l16 15q25 -36 25 -78t-25 -78zM1020 627q-6 4 -16 14q38 50 38 119t-38 119l14 14q45 -57 45 -133q0 -71 -43 -133zM1106 551q-3 2 -8 7t-8 7q67 87 67 195t-70 194l17 15q74 -90 74 -209q0 -118 -72 -209zM1163 498q-10 10 -16 14q88 109 88 248t-88 248l16 14
q92 -116 92 -262t-92 -262zM1237 432q-6 4 -16 14q112 134 112 314q0 182 -112 313l16 14q117 -139 117 -327q0 -189 -117 -328zM1329 350q-2 2 -7 6t-7 6q141 175 141 398q0 227 -143 395l16 14q148 -179 148 -409q0 -231 -148 -410zM1446 246q-6 6 -16 14q180 215 180 500
t-180 500l16 14q88 -105 136 -237t48 -277q0 -144 -48 -276t-136 -238zM375 348q-148 182 -148 412q0 229 146 409q2 -2 7.5 -6.5t8.5 -7.5q-141 -170 -141 -395q0 -228 141 -398zM684 627q-43 59 -43 133t43 133q6 -4 16 -14q-38 -50 -38 -119q0 -67 38 -117zM745 682
q-24 34 -24 78t24 78q2 -3 4.5 -5.5t6 -5.5t4.5 -4q-19 -34 -19 -63q0 -30 19 -64zM809 825l-10 13q21 18 53 18t53 -18l-10 -13q-23 15 -43 15q-25 0 -43 -15zM786 852l-14 14q37 29 80 29q41 0 78 -29q-8 -8 -12 -14q-28 25 -66 25q-34 0 -66 -25zM760 881l-15 16
q45 39 107 39q61 0 106 -39l-14 -16q-37 34 -92 34t-92 -34zM604 1057l-14 16q112 98 262 98q151 0 262 -100q1 0 -2 -3.5t-6 -7.5l-4 -3q-108 94 -250 94q-143 0 -248 -94zM852 492q-100 0 -170 61l14 16q70 -57 156 -57q87 0 154 57l14 -14q-73 -63 -168 -63zM852 584
q-61 0 -109 39l15 16q47 -35 94 -35q51 0 92 35l14 -16q-45 -39 -106 -39zM852 625q-43 0 -82 28l14 15q36 -25 68 -25q34 0 66 25l14 -15q-36 -28 -80 -28zM698 950l-14 15q73 63 168 63q98 0 168 -61l-14 -17q-68 58 -154 58q-87 0 -154 -58zM655 997l-14 17q91 78 211 78
q119 0 209 -80l-12 -15q-83 74 -197 74q-110 0 -197 -74zM1249 1223q-166 153 -397 153q-227 0 -397 -151l-15 14q179 158 412 158t412 -158zM352 1339l-14 17q104 95 236 146.5t278 51.5q145 0 278 -52t238 -146l-14 -17q-102 93 -231 144t-271 51t-270 -51t-230 -144z
M1057 594l-15 14q52 69 52 152t-54 153l17 15q57 -72 57 -168q0 -97 -57 -166z" />
    <glyph glyph-name="Omega" unicode="&#x2126;" horiz-adv-x="1703" 
d="M258 246q-88 105 -136 237t-48 277q0 144 48 276t136 236q6 -4 14 -12q-85 -103 -131.5 -231.5t-46.5 -268.5q0 -285 180 -500zM467 432q-117 143 -117 328q0 183 115 327q3 -2 8 -7t8 -7q-110 -136 -110 -313q0 -182 110 -314zM541 498q-92 116 -92 262t92 262
q3 -2 8 -7t8 -7q-88 -109 -88 -248t88 -248q-3 -2 -8 -7t-8 -7zM647 592q-57 72 -57 168q0 97 57 166l15 -15q-52 -69 -52 -151q0 -84 54 -154q-3 -2 -8.5 -7t-8.5 -7zM715 655q-33 48 -33 105q0 56 33 104q3 -2 8 -7t8 -7q-29 -44 -29 -90t29 -90q-3 -2 -16 -15zM774 709
q-14 25 -14 51t14 51l12 -10q-10 -20 -10 -41t10 -41q-4 -4 -12 -10zM852 123q-236 0 -412 158l2.5 2.5l5 5l5.5 5.5t2 1q171 -152 397 -152q227 0 395 152q2 -3 7.5 -8t7.5 -8q-177 -156 -410 -156zM852 664q-31 0 -55 18l12 12q21 -14 43 -14q26 0 43 14q4 -4 10 -12
q-21 -18 -53 -18zM987 653q-7 10 -14 15q28 42 28 92q0 51 -28 90l2.5 2.5t5 4.5t5.5 5t1 2q35 -44 35 -104t-35 -107zM598 551q-72 91 -72 209q0 119 74 209l14 -15q-67 -87 -67 -194q0 -108 67 -195q-10 -10 -16 -14zM852 -35q-145 0 -278 52.5t-238 146.5l14 16
q102 -92 231 -143t271 -51q285 0 500 192q0 1 3.5 -2.5t6.5 -7.5l4 -4q-104 -95 -236 -147t-278 -52zM852 248q-189 0 -330 125l15 16q134 -121 315 -121q182 0 313 121q2 -3 7.5 -8t7.5 -8q-138 -125 -328 -125zM852 348q-145 0 -264 101l14 14q108 -94 250 -94
q143 0 248 94q2 -3 7 -8.5t7 -8.5q-112 -98 -262 -98zM852 428q-116 0 -211 78l14 16q86 -73 197 -73t197 73q4 -4 12 -16q-91 -78 -209 -78zM852 543q-77 0 -135 49l14 16q51 -45 121 -45q68 0 119 45q2 -3 7 -8t7 -8q-58 -49 -133 -49zM733 911q-4 3 -7 6.5t-6 6.5l-3 4
q58 49 135 49t135 -49l-16 -17q-51 45 -119 45t-119 -45zM1167 1130q-134 121 -315 121q-179 0 -313 -118l-15 14q141 125 328 125q189 0 330 -125q-4 -6 -15 -17zM930 709l-12 10q10 20 10 41t-10 41l12 10q14 -25 14 -51t-14 -51zM958 682q-10 10 -16 14q21 32 21 64
t-21 63l16 15q25 -36 25 -78t-25 -78zM1020 627q-6 4 -16 14q38 50 38 119t-38 119l14 14q45 -57 45 -133q0 -71 -43 -133zM1106 551q-3 2 -8 7t-8 7q67 87 67 195t-70 194l17 15q74 -90 74 -209q0 -118 -72 -209zM1163 498q-10 10 -16 14q88 109 88 248t-88 248l16 14
q92 -116 92 -262t-92 -262zM1237 432q-6 4 -16 14q112 134 112 314q0 182 -112 313l16 14q117 -139 117 -327q0 -189 -117 -328zM1329 350q-2 2 -7 6t-7 6q141 175 141 398q0 227 -143 395l16 14q148 -179 148 -409q0 -231 -148 -410zM1446 246q-6 6 -16 14q180 215 180 500
t-180 500l16 14q88 -105 136 -237t48 -277q0 -144 -48 -276t-136 -238zM375 348q-148 182 -148 412q0 229 146 409q2 -2 7.5 -6.5t8.5 -7.5q-141 -170 -141 -395q0 -228 141 -398zM684 627q-43 59 -43 133t43 133q6 -4 16 -14q-38 -50 -38 -119q0 -67 38 -117zM745 682
q-24 34 -24 78t24 78q2 -3 4.5 -5.5t6 -5.5t4.5 -4q-19 -34 -19 -63q0 -30 19 -64zM809 825l-10 13q21 18 53 18t53 -18l-10 -13q-23 15 -43 15q-25 0 -43 -15zM786 852l-14 14q37 29 80 29q41 0 78 -29q-8 -8 -12 -14q-28 25 -66 25q-34 0 -66 -25zM760 881l-15 16
q45 39 107 39q61 0 106 -39l-14 -16q-37 34 -92 34t-92 -34zM604 1057l-14 16q112 98 262 98q151 0 262 -100q1 0 -2 -3.5t-6 -7.5l-4 -3q-108 94 -250 94q-143 0 -248 -94zM852 492q-100 0 -170 61l14 16q70 -57 156 -57q87 0 154 57l14 -14q-73 -63 -168 -63zM852 584
q-61 0 -109 39l15 16q47 -35 94 -35q51 0 92 35l14 -16q-45 -39 -106 -39zM852 625q-43 0 -82 28l14 15q36 -25 68 -25q34 0 66 25l14 -15q-36 -28 -80 -28zM698 950l-14 15q73 63 168 63q98 0 168 -61l-14 -17q-68 58 -154 58q-87 0 -154 -58zM655 997l-14 17q91 78 211 78
q119 0 209 -80l-12 -15q-83 74 -197 74q-110 0 -197 -74zM1249 1223q-166 153 -397 153q-227 0 -397 -151l-15 14q179 158 412 158t412 -158zM352 1339l-14 17q104 95 236 146.5t278 51.5q145 0 278 -52t238 -146l-14 -17q-102 93 -231 144t-271 51t-270 -51t-230 -144z
M1057 594l-15 14q52 69 52 152t-54 153l17 15q57 -72 57 -168q0 -97 -57 -166z" />
    <glyph glyph-name="pi" unicode="&#x3c0;" horiz-adv-x="1732" 
d="M877 -23q-188 0 -333 55.5t-238 158t-140 245.5t-47 322q0 180 47 324t140 247t238 158t333 55t333.5 -55t239 -158t141 -247t47.5 -324q0 -179 -47.5 -322t-141 -245.5t-239 -158t-333.5 -55.5zM877 23q234 0 395.5 91.5t239 254.5t77.5 389q0 347 -181 543t-531 196
q-176 0 -311.5 -52t-222.5 -149t-131 -232.5t-44 -305.5q0 -344 180 -539.5t529 -195.5zM551 193v1083h446q172 0 249 -67t77 -230q0 -166 -77 -237.5t-242 -71.5h-400v-477h-53zM604 719h400q138 0 202 60t64 200q0 136 -65 192t-208 56h-393v-508z" />
    <glyph glyph-name="endash" unicode="&#x2013;" horiz-adv-x="1335" 
d="M86 575l10 50h1088l-10 -50h-1088z" />
    <glyph glyph-name="emdash" unicode="&#x2014;" horiz-adv-x="1794" 
d="M86 575l10 50h1546l-10 -50h-1546z" />
    <glyph glyph-name="quoteleft" unicode="&#x2018;" horiz-adv-x="421" 
d="M252 1192l24 123q18 84 51.5 130t96.5 81l18 -35q-52 -28 -77.5 -62t-38.5 -96h57l-29 -141h-102z" />
    <glyph glyph-name="quoteright" unicode="&#x2019;" horiz-adv-x="421" 
d="M250 1184l-19 35q52 29 78 62.5t39 94.5h-57l31 142h102l-27 -123q-19 -85 -51 -131t-96 -80z" />
    <glyph glyph-name="quotesinglbase" unicode="&#x201a;" horiz-adv-x="421" 
d="M-33 -143l-16 34q52 28 77 62t38 96h-58l31 141h102l-26 -122q-18 -85 -51 -131t-97 -80z" />
    <glyph glyph-name="quotedblleft" unicode="&#x201c;" horiz-adv-x="714" 
d="M250 1184l26 123q18 85 51 131t97 80l16 -35q-52 -28 -77 -62t-37 -96h57l-31 -141h-102zM543 1184l26 123q18 85 51 131t97 80l16 -35q-52 -29 -77.5 -62.5t-37.5 -95.5h58l-31 -141h-102z" />
    <glyph glyph-name="quotedblright" unicode="&#x201d;" horiz-adv-x="714" 
d="M250 1184l-19 35q52 29 78 62.5t39 94.5h-57l31 142h102l-27 -123q-19 -85 -51 -131t-96 -80zM543 1184l-19 35q52 29 78 62.5t39 94.5h-57l30 142h103l-27 -123q-19 -85 -51 -131t-96 -80z" />
    <glyph glyph-name="quotedblbase" unicode="&#x201e;" horiz-adv-x="714" 
d="M-33 -143l-16 34q52 28 77 62t38 96h-58l31 141h102l-26 -122q-18 -85 -51 -131t-97 -80zM260 -143l-16 34q51 28 76 62t38 96h-57l31 141h102l-26 -122q-18 -85 -51 -131t-97 -80z" />
    <glyph glyph-name="dagger" unicode="&#x2020;" horiz-adv-x="1036" 
d="M258 -338l297 1399h-358l10 49h358l103 479h53l-103 -479h359l-10 -49h-359l-297 -1399h-53z" />
    <glyph glyph-name="daggerdbl" unicode="&#x2021;" horiz-adv-x="1036" 
d="M258 -338l119 555h-359l11 49h358l168 795h-358l10 49h358l103 479h53l-103 -479h359l-10 -49h-359l-168 -795h359l-11 -49h-358l-119 -555h-53z" />
    <glyph glyph-name="bullet" unicode="&#x2022;" horiz-adv-x="643" 
d="M166 510l47 225h205l-47 -225h-205z" />
    <glyph glyph-name="ellipsis" unicode="&#x2026;" horiz-adv-x="1200" 
d="M-2 0l29 131h102l-29 -131h-102zM385 0l29 131h102l-29 -131h-102zM776 0l29 131h102l-28 -131h-103z" />
    <glyph glyph-name="perthousand" unicode="&#x2030;" horiz-adv-x="2828" 
d="M453 612q-301 0 -301 312q0 90 15 177t48.5 167t81.5 140.5t119 97t157 36.5q301 0 301 -317q0 -176 -51 -314.5t-147.5 -218.5t-222.5 -80zM453 662q166 0 267 158t101 405q0 268 -248 268q-93 0 -166 -50.5t-115.5 -133.5t-64.5 -181.5t-22 -203.5q0 -120 58.5 -191
t189.5 -71zM1442 -23q-301 0 -301 312q0 90 15 177t48.5 167t82 140.5t119.5 97t157 36.5q301 0 301 -317q0 -176 -51 -314.5t-148 -218.5t-223 -80zM1442 27q166 0 267 158t101 405q0 268 -247 268q-93 0 -166 -50.5t-116 -133.5t-65 -181.5t-22 -203.5q0 -120 58.5 -191
t189.5 -71zM2255 -23q-301 0 -301 312q0 90 15 177t48.5 167t82 140.5t119.5 97t157 36.5q301 0 301 -317q0 -176 -51 -314.5t-148 -218.5t-223 -80zM2255 27q166 0 267 158t101 405q0 268 -247 268q-93 0 -166 -50.5t-116 -133.5t-65 -181.5t-22 -203.5q0 -120 58.5 -191
t189.5 -71zM436 0l1127 1518h55l-1126 -1518h-56z" />
    <glyph glyph-name="guilsinglleft" unicode="&#x2039;" horiz-adv-x="786" 
d="M336 0l-191 555l426 555h54l-428 -559l188 -551h-49z" />
    <glyph glyph-name="guilsinglright" unicode="&#x203a;" horiz-adv-x="786" 
d="M76 0l428 559l-189 551h50l190 -555l-426 -555h-53z" />
    <glyph glyph-name="fraction" unicode="&#x2044;" horiz-adv-x="911" 
d="M-162 0l1176 1518h59l-1175 -1518h-60z" />
    <glyph glyph-name="fraction" unicode="&#x2215;" horiz-adv-x="911" 
d="M-162 0l1176 1518h59l-1175 -1518h-60z" />
    <glyph glyph-name="Euro" unicode="&#x20ac;" horiz-adv-x="1247" 
d="M123 897l10 49h195q35 127 86 231.5t121.5 188t166 130t207.5 46.5q208 0 338 -84l-28 -41q-115 76 -310 76q-100 0 -186 -42.5t-150 -119t-110.5 -172.5t-79.5 -213h586l-11 -49h-587q-29 -125 -43 -238h579l-10 -49h-573q-9 -99 -9 -190q0 -193 84.5 -293t276.5 -100
q67 0 124.5 11.5t127.5 49.5l24 -43q-79 -42 -141.5 -55t-134.5 -13q-220 0 -317 113t-97 330q0 102 8 190h-209l11 49h202q16 132 41 238h-192z" />
    <glyph glyph-name="trademark" unicode="&#x2122;" horiz-adv-x="2185" 
d="M944 598l197 920h55l184 -854l549 854h60l-197 -920h-49l176 825l-528 -825h-45l-179 825l-176 -825h-47zM451 598l186 872h-332l10 48h715l-10 -48h-334l-186 -872h-49z" />
    <glyph glyph-name="partialdiff" unicode="&#x2202;" horiz-adv-x="1703" 
d="M258 246q-88 105 -136 237t-48 277q0 144 48 276t136 236q6 -4 14 -12q-85 -103 -131.5 -231.5t-46.5 -268.5q0 -285 180 -500zM467 432q-117 143 -117 328q0 183 115 327q3 -2 8 -7t8 -7q-110 -136 -110 -313q0 -182 110 -314zM541 498q-92 116 -92 262t92 262
q3 -2 8 -7t8 -7q-88 -109 -88 -248t88 -248q-3 -2 -8 -7t-8 -7zM647 592q-57 72 -57 168q0 97 57 166l15 -15q-52 -69 -52 -151q0 -84 54 -154q-3 -2 -8.5 -7t-8.5 -7zM715 655q-33 48 -33 105q0 56 33 104q3 -2 8 -7t8 -7q-29 -44 -29 -90t29 -90q-3 -2 -16 -15zM774 709
q-14 25 -14 51t14 51l12 -10q-10 -20 -10 -41t10 -41q-4 -4 -12 -10zM852 123q-236 0 -412 158l2.5 2.5l5 5l5.5 5.5t2 1q171 -152 397 -152q227 0 395 152q2 -3 7.5 -8t7.5 -8q-177 -156 -410 -156zM852 664q-31 0 -55 18l12 12q21 -14 43 -14q26 0 43 14q4 -4 10 -12
q-21 -18 -53 -18zM987 653q-7 10 -14 15q28 42 28 92q0 51 -28 90l2.5 2.5t5 4.5t5.5 5t1 2q35 -44 35 -104t-35 -107zM598 551q-72 91 -72 209q0 119 74 209l14 -15q-67 -87 -67 -194q0 -108 67 -195q-10 -10 -16 -14zM852 -35q-145 0 -278 52.5t-238 146.5l14 16
q102 -92 231 -143t271 -51q285 0 500 192q0 1 3.5 -2.5t6.5 -7.5l4 -4q-104 -95 -236 -147t-278 -52zM852 248q-189 0 -330 125l15 16q134 -121 315 -121q182 0 313 121q2 -3 7.5 -8t7.5 -8q-138 -125 -328 -125zM852 348q-145 0 -264 101l14 14q108 -94 250 -94
q143 0 248 94q2 -3 7 -8.5t7 -8.5q-112 -98 -262 -98zM852 428q-116 0 -211 78l14 16q86 -73 197 -73t197 73q4 -4 12 -16q-91 -78 -209 -78zM852 543q-77 0 -135 49l14 16q51 -45 121 -45q68 0 119 45q2 -3 7 -8t7 -8q-58 -49 -133 -49zM733 911q-4 3 -7 6.5t-6 6.5l-3 4
q58 49 135 49t135 -49l-16 -17q-51 45 -119 45t-119 -45zM1167 1130q-134 121 -315 121q-179 0 -313 -118l-15 14q141 125 328 125q189 0 330 -125q-4 -6 -15 -17zM930 709l-12 10q10 20 10 41t-10 41l12 10q14 -25 14 -51t-14 -51zM958 682q-10 10 -16 14q21 32 21 64
t-21 63l16 15q25 -36 25 -78t-25 -78zM1020 627q-6 4 -16 14q38 50 38 119t-38 119l14 14q45 -57 45 -133q0 -71 -43 -133zM1106 551q-3 2 -8 7t-8 7q67 87 67 195t-70 194l17 15q74 -90 74 -209q0 -118 -72 -209zM1163 498q-10 10 -16 14q88 109 88 248t-88 248l16 14
q92 -116 92 -262t-92 -262zM1237 432q-6 4 -16 14q112 134 112 314q0 182 -112 313l16 14q117 -139 117 -327q0 -189 -117 -328zM1329 350q-2 2 -7 6t-7 6q141 175 141 398q0 227 -143 395l16 14q148 -179 148 -409q0 -231 -148 -410zM1446 246q-6 6 -16 14q180 215 180 500
t-180 500l16 14q88 -105 136 -237t48 -277q0 -144 -48 -276t-136 -238zM375 348q-148 182 -148 412q0 229 146 409q2 -2 7.5 -6.5t8.5 -7.5q-141 -170 -141 -395q0 -228 141 -398zM684 627q-43 59 -43 133t43 133q6 -4 16 -14q-38 -50 -38 -119q0 -67 38 -117zM745 682
q-24 34 -24 78t24 78q2 -3 4.5 -5.5t6 -5.5t4.5 -4q-19 -34 -19 -63q0 -30 19 -64zM809 825l-10 13q21 18 53 18t53 -18l-10 -13q-23 15 -43 15q-25 0 -43 -15zM786 852l-14 14q37 29 80 29q41 0 78 -29q-8 -8 -12 -14q-28 25 -66 25q-34 0 -66 -25zM760 881l-15 16
q45 39 107 39q61 0 106 -39l-14 -16q-37 34 -92 34t-92 -34zM604 1057l-14 16q112 98 262 98q151 0 262 -100q1 0 -2 -3.5t-6 -7.5l-4 -3q-108 94 -250 94q-143 0 -248 -94zM852 492q-100 0 -170 61l14 16q70 -57 156 -57q87 0 154 57l14 -14q-73 -63 -168 -63zM852 584
q-61 0 -109 39l15 16q47 -35 94 -35q51 0 92 35l14 -16q-45 -39 -106 -39zM852 625q-43 0 -82 28l14 15q36 -25 68 -25q34 0 66 25l14 -15q-36 -28 -80 -28zM698 950l-14 15q73 63 168 63q98 0 168 -61l-14 -17q-68 58 -154 58q-87 0 -154 -58zM655 997l-14 17q91 78 211 78
q119 0 209 -80l-12 -15q-83 74 -197 74q-110 0 -197 -74zM1249 1223q-166 153 -397 153q-227 0 -397 -151l-15 14q179 158 412 158t412 -158zM352 1339l-14 17q104 95 236 146.5t278 51.5q145 0 278 -52t238 -146l-14 -17q-102 93 -231 144t-271 51t-270 -51t-230 -144z
M1057 594l-15 14q52 69 52 152t-54 153l17 15q57 -72 57 -168q0 -97 -57 -166z" />
    <glyph glyph-name="product" unicode="&#x220f;" horiz-adv-x="1703" 
d="M258 246q-88 105 -136 237t-48 277q0 144 48 276t136 236q6 -4 14 -12q-85 -103 -131.5 -231.5t-46.5 -268.5q0 -285 180 -500zM467 432q-117 143 -117 328q0 183 115 327q3 -2 8 -7t8 -7q-110 -136 -110 -313q0 -182 110 -314zM541 498q-92 116 -92 262t92 262
q3 -2 8 -7t8 -7q-88 -109 -88 -248t88 -248q-3 -2 -8 -7t-8 -7zM647 592q-57 72 -57 168q0 97 57 166l15 -15q-52 -69 -52 -151q0 -84 54 -154q-3 -2 -8.5 -7t-8.5 -7zM715 655q-33 48 -33 105q0 56 33 104q3 -2 8 -7t8 -7q-29 -44 -29 -90t29 -90q-3 -2 -16 -15zM774 709
q-14 25 -14 51t14 51l12 -10q-10 -20 -10 -41t10 -41q-4 -4 -12 -10zM852 123q-236 0 -412 158l2.5 2.5l5 5l5.5 5.5t2 1q171 -152 397 -152q227 0 395 152q2 -3 7.5 -8t7.5 -8q-177 -156 -410 -156zM852 664q-31 0 -55 18l12 12q21 -14 43 -14q26 0 43 14q4 -4 10 -12
q-21 -18 -53 -18zM987 653q-7 10 -14 15q28 42 28 92q0 51 -28 90l2.5 2.5t5 4.5t5.5 5t1 2q35 -44 35 -104t-35 -107zM598 551q-72 91 -72 209q0 119 74 209l14 -15q-67 -87 -67 -194q0 -108 67 -195q-10 -10 -16 -14zM852 -35q-145 0 -278 52.5t-238 146.5l14 16
q102 -92 231 -143t271 -51q285 0 500 192q0 1 3.5 -2.5t6.5 -7.5l4 -4q-104 -95 -236 -147t-278 -52zM852 248q-189 0 -330 125l15 16q134 -121 315 -121q182 0 313 121q2 -3 7.5 -8t7.5 -8q-138 -125 -328 -125zM852 348q-145 0 -264 101l14 14q108 -94 250 -94
q143 0 248 94q2 -3 7 -8.5t7 -8.5q-112 -98 -262 -98zM852 428q-116 0 -211 78l14 16q86 -73 197 -73t197 73q4 -4 12 -16q-91 -78 -209 -78zM852 543q-77 0 -135 49l14 16q51 -45 121 -45q68 0 119 45q2 -3 7 -8t7 -8q-58 -49 -133 -49zM733 911q-4 3 -7 6.5t-6 6.5l-3 4
q58 49 135 49t135 -49l-16 -17q-51 45 -119 45t-119 -45zM1167 1130q-134 121 -315 121q-179 0 -313 -118l-15 14q141 125 328 125q189 0 330 -125q-4 -6 -15 -17zM930 709l-12 10q10 20 10 41t-10 41l12 10q14 -25 14 -51t-14 -51zM958 682q-10 10 -16 14q21 32 21 64
t-21 63l16 15q25 -36 25 -78t-25 -78zM1020 627q-6 4 -16 14q38 50 38 119t-38 119l14 14q45 -57 45 -133q0 -71 -43 -133zM1106 551q-3 2 -8 7t-8 7q67 87 67 195t-70 194l17 15q74 -90 74 -209q0 -118 -72 -209zM1163 498q-10 10 -16 14q88 109 88 248t-88 248l16 14
q92 -116 92 -262t-92 -262zM1237 432q-6 4 -16 14q112 134 112 314q0 182 -112 313l16 14q117 -139 117 -327q0 -189 -117 -328zM1329 350q-2 2 -7 6t-7 6q141 175 141 398q0 227 -143 395l16 14q148 -179 148 -409q0 -231 -148 -410zM1446 246q-6 6 -16 14q180 215 180 500
t-180 500l16 14q88 -105 136 -237t48 -277q0 -144 -48 -276t-136 -238zM375 348q-148 182 -148 412q0 229 146 409q2 -2 7.5 -6.5t8.5 -7.5q-141 -170 -141 -395q0 -228 141 -398zM684 627q-43 59 -43 133t43 133q6 -4 16 -14q-38 -50 -38 -119q0 -67 38 -117zM745 682
q-24 34 -24 78t24 78q2 -3 4.5 -5.5t6 -5.5t4.5 -4q-19 -34 -19 -63q0 -30 19 -64zM809 825l-10 13q21 18 53 18t53 -18l-10 -13q-23 15 -43 15q-25 0 -43 -15zM786 852l-14 14q37 29 80 29q41 0 78 -29q-8 -8 -12 -14q-28 25 -66 25q-34 0 -66 -25zM760 881l-15 16
q45 39 107 39q61 0 106 -39l-14 -16q-37 34 -92 34t-92 -34zM604 1057l-14 16q112 98 262 98q151 0 262 -100q1 0 -2 -3.5t-6 -7.5l-4 -3q-108 94 -250 94q-143 0 -248 -94zM852 492q-100 0 -170 61l14 16q70 -57 156 -57q87 0 154 57l14 -14q-73 -63 -168 -63zM852 584
q-61 0 -109 39l15 16q47 -35 94 -35q51 0 92 35l14 -16q-45 -39 -106 -39zM852 625q-43 0 -82 28l14 15q36 -25 68 -25q34 0 66 25l14 -15q-36 -28 -80 -28zM698 950l-14 15q73 63 168 63q98 0 168 -61l-14 -17q-68 58 -154 58q-87 0 -154 -58zM655 997l-14 17q91 78 211 78
q119 0 209 -80l-12 -15q-83 74 -197 74q-110 0 -197 -74zM1249 1223q-166 153 -397 153q-227 0 -397 -151l-15 14q179 158 412 158t412 -158zM352 1339l-14 17q104 95 236 146.5t278 51.5q145 0 278 -52t238 -146l-14 -17q-102 93 -231 144t-271 51t-270 -51t-230 -144z
M1057 594l-15 14q52 69 52 152t-54 153l17 15q57 -72 57 -168q0 -97 -57 -166z" />
    <glyph glyph-name="summation" unicode="&#x2211;" horiz-adv-x="1703" 
d="M258 246q-88 105 -136 237t-48 277q0 144 48 276t136 236q6 -4 14 -12q-85 -103 -131.5 -231.5t-46.5 -268.5q0 -285 180 -500zM467 432q-117 143 -117 328q0 183 115 327q3 -2 8 -7t8 -7q-110 -136 -110 -313q0 -182 110 -314zM541 498q-92 116 -92 262t92 262
q3 -2 8 -7t8 -7q-88 -109 -88 -248t88 -248q-3 -2 -8 -7t-8 -7zM647 592q-57 72 -57 168q0 97 57 166l15 -15q-52 -69 -52 -151q0 -84 54 -154q-3 -2 -8.5 -7t-8.5 -7zM715 655q-33 48 -33 105q0 56 33 104q3 -2 8 -7t8 -7q-29 -44 -29 -90t29 -90q-3 -2 -16 -15zM774 709
q-14 25 -14 51t14 51l12 -10q-10 -20 -10 -41t10 -41q-4 -4 -12 -10zM852 123q-236 0 -412 158l2.5 2.5l5 5l5.5 5.5t2 1q171 -152 397 -152q227 0 395 152q2 -3 7.5 -8t7.5 -8q-177 -156 -410 -156zM852 664q-31 0 -55 18l12 12q21 -14 43 -14q26 0 43 14q4 -4 10 -12
q-21 -18 -53 -18zM987 653q-7 10 -14 15q28 42 28 92q0 51 -28 90l2.5 2.5t5 4.5t5.5 5t1 2q35 -44 35 -104t-35 -107zM598 551q-72 91 -72 209q0 119 74 209l14 -15q-67 -87 -67 -194q0 -108 67 -195q-10 -10 -16 -14zM852 -35q-145 0 -278 52.5t-238 146.5l14 16
q102 -92 231 -143t271 -51q285 0 500 192q0 1 3.5 -2.5t6.5 -7.5l4 -4q-104 -95 -236 -147t-278 -52zM852 248q-189 0 -330 125l15 16q134 -121 315 -121q182 0 313 121q2 -3 7.5 -8t7.5 -8q-138 -125 -328 -125zM852 348q-145 0 -264 101l14 14q108 -94 250 -94
q143 0 248 94q2 -3 7 -8.5t7 -8.5q-112 -98 -262 -98zM852 428q-116 0 -211 78l14 16q86 -73 197 -73t197 73q4 -4 12 -16q-91 -78 -209 -78zM852 543q-77 0 -135 49l14 16q51 -45 121 -45q68 0 119 45q2 -3 7 -8t7 -8q-58 -49 -133 -49zM733 911q-4 3 -7 6.5t-6 6.5l-3 4
q58 49 135 49t135 -49l-16 -17q-51 45 -119 45t-119 -45zM1167 1130q-134 121 -315 121q-179 0 -313 -118l-15 14q141 125 328 125q189 0 330 -125q-4 -6 -15 -17zM930 709l-12 10q10 20 10 41t-10 41l12 10q14 -25 14 -51t-14 -51zM958 682q-10 10 -16 14q21 32 21 64
t-21 63l16 15q25 -36 25 -78t-25 -78zM1020 627q-6 4 -16 14q38 50 38 119t-38 119l14 14q45 -57 45 -133q0 -71 -43 -133zM1106 551q-3 2 -8 7t-8 7q67 87 67 195t-70 194l17 15q74 -90 74 -209q0 -118 -72 -209zM1163 498q-10 10 -16 14q88 109 88 248t-88 248l16 14
q92 -116 92 -262t-92 -262zM1237 432q-6 4 -16 14q112 134 112 314q0 182 -112 313l16 14q117 -139 117 -327q0 -189 -117 -328zM1329 350q-2 2 -7 6t-7 6q141 175 141 398q0 227 -143 395l16 14q148 -179 148 -409q0 -231 -148 -410zM1446 246q-6 6 -16 14q180 215 180 500
t-180 500l16 14q88 -105 136 -237t48 -277q0 -144 -48 -276t-136 -238zM375 348q-148 182 -148 412q0 229 146 409q2 -2 7.5 -6.5t8.5 -7.5q-141 -170 -141 -395q0 -228 141 -398zM684 627q-43 59 -43 133t43 133q6 -4 16 -14q-38 -50 -38 -119q0 -67 38 -117zM745 682
q-24 34 -24 78t24 78q2 -3 4.5 -5.5t6 -5.5t4.5 -4q-19 -34 -19 -63q0 -30 19 -64zM809 825l-10 13q21 18 53 18t53 -18l-10 -13q-23 15 -43 15q-25 0 -43 -15zM786 852l-14 14q37 29 80 29q41 0 78 -29q-8 -8 -12 -14q-28 25 -66 25q-34 0 -66 -25zM760 881l-15 16
q45 39 107 39q61 0 106 -39l-14 -16q-37 34 -92 34t-92 -34zM604 1057l-14 16q112 98 262 98q151 0 262 -100q1 0 -2 -3.5t-6 -7.5l-4 -3q-108 94 -250 94q-143 0 -248 -94zM852 492q-100 0 -170 61l14 16q70 -57 156 -57q87 0 154 57l14 -14q-73 -63 -168 -63zM852 584
q-61 0 -109 39l15 16q47 -35 94 -35q51 0 92 35l14 -16q-45 -39 -106 -39zM852 625q-43 0 -82 28l14 15q36 -25 68 -25q34 0 66 25l14 -15q-36 -28 -80 -28zM698 950l-14 15q73 63 168 63q98 0 168 -61l-14 -17q-68 58 -154 58q-87 0 -154 -58zM655 997l-14 17q91 78 211 78
q119 0 209 -80l-12 -15q-83 74 -197 74q-110 0 -197 -74zM1249 1223q-166 153 -397 153q-227 0 -397 -151l-15 14q179 158 412 158t412 -158zM352 1339l-14 17q104 95 236 146.5t278 51.5q145 0 278 -52t238 -146l-14 -17q-102 93 -231 144t-271 51t-270 -51t-230 -144z
M1057 594l-15 14q52 69 52 152t-54 153l17 15q57 -72 57 -168q0 -97 -57 -166z" />
    <glyph glyph-name="minus" unicode="&#x2212;" horiz-adv-x="1390" 
d="M219 698l12 50h922l-12 -50h-922z" />
    <glyph glyph-name="radical" unicode="&#x221a;" horiz-adv-x="1318" 
d="M322 -8l-146 790h49l135 -729l893 1465h56l-932 -1526h-55z" />
    <glyph glyph-name="infinity" unicode="&#x221e;" horiz-adv-x="1667" 
d="M623 -338l297 1399h-523l-297 -1399h-53l297 1399h-211l10 49h211l41 193q15 68 37.5 117t60.5 89t97 60t139 20h86l-10 -49h-76q-71 0 -121.5 -18t-82 -54t-49 -77t-30.5 -99l-38 -182h522l41 193q15 68 37.5 117t60.5 89t97 60t139 20h86l-11 -49h-75q-71 0 -121.5 -18
t-82 -54t-49 -77t-30.5 -99l-39 -182h305l-10 -49h-305l-297 -1399h-53zM1270 0l235 1110h54l-236 -1110h-53zM1544 1288l37 174h53l-37 -174h-53z" />
    <glyph glyph-name="integral" unicode="&#x222b;" horiz-adv-x="1703" 
d="M258 246q-88 105 -136 237t-48 277q0 144 48 276t136 236q6 -4 14 -12q-85 -103 -131.5 -231.5t-46.5 -268.5q0 -285 180 -500zM467 432q-117 143 -117 328q0 183 115 327q3 -2 8 -7t8 -7q-110 -136 -110 -313q0 -182 110 -314zM541 498q-92 116 -92 262t92 262
q3 -2 8 -7t8 -7q-88 -109 -88 -248t88 -248q-3 -2 -8 -7t-8 -7zM647 592q-57 72 -57 168q0 97 57 166l15 -15q-52 -69 -52 -151q0 -84 54 -154q-3 -2 -8.5 -7t-8.5 -7zM715 655q-33 48 -33 105q0 56 33 104q3 -2 8 -7t8 -7q-29 -44 -29 -90t29 -90q-3 -2 -16 -15zM774 709
q-14 25 -14 51t14 51l12 -10q-10 -20 -10 -41t10 -41q-4 -4 -12 -10zM852 123q-236 0 -412 158l2.5 2.5l5 5l5.5 5.5t2 1q171 -152 397 -152q227 0 395 152q2 -3 7.5 -8t7.5 -8q-177 -156 -410 -156zM852 664q-31 0 -55 18l12 12q21 -14 43 -14q26 0 43 14q4 -4 10 -12
q-21 -18 -53 -18zM987 653q-7 10 -14 15q28 42 28 92q0 51 -28 90l2.5 2.5t5 4.5t5.5 5t1 2q35 -44 35 -104t-35 -107zM598 551q-72 91 -72 209q0 119 74 209l14 -15q-67 -87 -67 -194q0 -108 67 -195q-10 -10 -16 -14zM852 -35q-145 0 -278 52.5t-238 146.5l14 16
q102 -92 231 -143t271 -51q285 0 500 192q0 1 3.5 -2.5t6.5 -7.5l4 -4q-104 -95 -236 -147t-278 -52zM852 248q-189 0 -330 125l15 16q134 -121 315 -121q182 0 313 121q2 -3 7.5 -8t7.5 -8q-138 -125 -328 -125zM852 348q-145 0 -264 101l14 14q108 -94 250 -94
q143 0 248 94q2 -3 7 -8.5t7 -8.5q-112 -98 -262 -98zM852 428q-116 0 -211 78l14 16q86 -73 197 -73t197 73q4 -4 12 -16q-91 -78 -209 -78zM852 543q-77 0 -135 49l14 16q51 -45 121 -45q68 0 119 45q2 -3 7 -8t7 -8q-58 -49 -133 -49zM733 911q-4 3 -7 6.5t-6 6.5l-3 4
q58 49 135 49t135 -49l-16 -17q-51 45 -119 45t-119 -45zM1167 1130q-134 121 -315 121q-179 0 -313 -118l-15 14q141 125 328 125q189 0 330 -125q-4 -6 -15 -17zM930 709l-12 10q10 20 10 41t-10 41l12 10q14 -25 14 -51t-14 -51zM958 682q-10 10 -16 14q21 32 21 64
t-21 63l16 15q25 -36 25 -78t-25 -78zM1020 627q-6 4 -16 14q38 50 38 119t-38 119l14 14q45 -57 45 -133q0 -71 -43 -133zM1106 551q-3 2 -8 7t-8 7q67 87 67 195t-70 194l17 15q74 -90 74 -209q0 -118 -72 -209zM1163 498q-10 10 -16 14q88 109 88 248t-88 248l16 14
q92 -116 92 -262t-92 -262zM1237 432q-6 4 -16 14q112 134 112 314q0 182 -112 313l16 14q117 -139 117 -327q0 -189 -117 -328zM1329 350q-2 2 -7 6t-7 6q141 175 141 398q0 227 -143 395l16 14q148 -179 148 -409q0 -231 -148 -410zM1446 246q-6 6 -16 14q180 215 180 500
t-180 500l16 14q88 -105 136 -237t48 -277q0 -144 -48 -276t-136 -238zM375 348q-148 182 -148 412q0 229 146 409q2 -2 7.5 -6.5t8.5 -7.5q-141 -170 -141 -395q0 -228 141 -398zM684 627q-43 59 -43 133t43 133q6 -4 16 -14q-38 -50 -38 -119q0 -67 38 -117zM745 682
q-24 34 -24 78t24 78q2 -3 4.5 -5.5t6 -5.5t4.5 -4q-19 -34 -19 -63q0 -30 19 -64zM809 825l-10 13q21 18 53 18t53 -18l-10 -13q-23 15 -43 15q-25 0 -43 -15zM786 852l-14 14q37 29 80 29q41 0 78 -29q-8 -8 -12 -14q-28 25 -66 25q-34 0 -66 -25zM760 881l-15 16
q45 39 107 39q61 0 106 -39l-14 -16q-37 34 -92 34t-92 -34zM604 1057l-14 16q112 98 262 98q151 0 262 -100q1 0 -2 -3.5t-6 -7.5l-4 -3q-108 94 -250 94q-143 0 -248 -94zM852 492q-100 0 -170 61l14 16q70 -57 156 -57q87 0 154 57l14 -14q-73 -63 -168 -63zM852 584
q-61 0 -109 39l15 16q47 -35 94 -35q51 0 92 35l14 -16q-45 -39 -106 -39zM852 625q-43 0 -82 28l14 15q36 -25 68 -25q34 0 66 25l14 -15q-36 -28 -80 -28zM698 950l-14 15q73 63 168 63q98 0 168 -61l-14 -17q-68 58 -154 58q-87 0 -154 -58zM655 997l-14 17q91 78 211 78
q119 0 209 -80l-12 -15q-83 74 -197 74q-110 0 -197 -74zM1249 1223q-166 153 -397 153q-227 0 -397 -151l-15 14q179 158 412 158t412 -158zM352 1339l-14 17q104 95 236 146.5t278 51.5q145 0 278 -52t238 -146l-14 -17q-102 93 -231 144t-271 51t-270 -51t-230 -144z
M1057 594l-15 14q52 69 52 152t-54 153l17 15q57 -72 57 -168q0 -97 -57 -166z" />
    <glyph glyph-name="approxequal" unicode="&#x2248;" horiz-adv-x="1390" 
d="M217 401l-39 35q57 59 133 101.5t148 42.5q51 0 95 -12.5t75 -31t59.5 -36.5t62 -30.5t68.5 -12.5q83 0 240 145l37 -37q-171 -157 -277 -157q-53 0 -100 19t-77 42t-78.5 42t-104.5 19q-59 0 -125 -38.5t-117 -90.5zM309 834l-39 34q57 59 133 101.5t148 42.5
q51 0 95 -12.5t75 -31t59.5 -36.5t62 -30.5t68.5 -12.5q83 0 240 145l37 -37q-171 -157 -277 -157q-44 0 -82 12.5t-66.5 31t-57.5 36.5t-68.5 30.5t-85.5 12.5q-59 0 -125 -38.5t-117 -90.5z" />
    <glyph glyph-name="notequal" unicode="&#x2260;" horiz-adv-x="1265" 
d="M623 -338l297 1399h-523l-297 -1399h-53l297 1399h-211l10 49h211l41 193q15 68 37.5 117t60.5 89t97 60t139 20h86l-10 -49h-76q-71 0 -121.5 -18t-82 -54t-49 -77t-30.5 -99l-38 -182h522l41 193q15 68 37.5 117t60.5 89t97 60t139 20h86l-11 -49h-75q-71 0 -121.5 -18
t-82 -54t-49 -77t-30.5 -99l-39 -182h305l-10 -49h-305l-297 -1399h-53z" />
    <glyph glyph-name="lessequal" unicode="&#x2264;" horiz-adv-x="1390" 
d="M995 246l-805 444l11 53l993 445l-10 -53l-942 -420l764 -420zM53 49l10 49h900l-11 -49h-899z" />
    <glyph glyph-name="greaterequal" unicode="&#x2265;" horiz-adv-x="1390" 
d="M178 246l10 53l940 420l-761 420l10 49l805 -445l-11 -53zM135 49l10 49h897l-10 -49h-897z" />
    <glyph glyph-name="lozenge" unicode="&#x25ca;" horiz-adv-x="1292" 
d="M133 1061l10 49h211l41 193q15 68 37.5 117t60.5 89t97 60t139 20h66l-11 -49h-55q-71 0 -121.5 -18t-82 -54t-49 -77t-30.5 -99l-38 -182h510l88 381l45 2l-82 -383h293l-11 -49h-293l-174 -817q-11 -59 -11 -102.5t38 -68t119 -24.5h106l-10 -49h-94q-58 0 -99.5 8.5
t-64.5 27.5t-35.5 40t-13 54.5t3 61.5t12.5 70l170 799h-508l-297 -1399h-53l297 1399h-211z" />
    <glyph glyph-name="apple" unicode="&#xf8ff;" horiz-adv-x="1703" 
d="M258 246q-88 105 -136 237t-48 277q0 144 48 276t136 236q6 -4 14 -12q-85 -103 -131.5 -231.5t-46.5 -268.5q0 -285 180 -500zM467 432q-117 143 -117 328q0 183 115 327q3 -2 8 -7t8 -7q-110 -136 -110 -313q0 -182 110 -314zM541 498q-92 116 -92 262t92 262
q3 -2 8 -7t8 -7q-88 -109 -88 -248t88 -248q-3 -2 -8 -7t-8 -7zM647 592q-57 72 -57 168q0 97 57 166l15 -15q-52 -69 -52 -151q0 -84 54 -154q-3 -2 -8.5 -7t-8.5 -7zM715 655q-33 48 -33 105q0 56 33 104q3 -2 8 -7t8 -7q-29 -44 -29 -90t29 -90q-3 -2 -16 -15zM774 709
q-14 25 -14 51t14 51l12 -10q-10 -20 -10 -41t10 -41q-4 -4 -12 -10zM852 123q-236 0 -412 158l2.5 2.5l5 5l5.5 5.5t2 1q171 -152 397 -152q227 0 395 152q2 -3 7.5 -8t7.5 -8q-177 -156 -410 -156zM852 664q-31 0 -55 18l12 12q21 -14 43 -14q26 0 43 14q4 -4 10 -12
q-21 -18 -53 -18zM987 653q-7 10 -14 15q28 42 28 92q0 51 -28 90l2.5 2.5t5 4.5t5.5 5t1 2q35 -44 35 -104t-35 -107zM598 551q-72 91 -72 209q0 119 74 209l14 -15q-67 -87 -67 -194q0 -108 67 -195q-10 -10 -16 -14zM852 -35q-145 0 -278 52.5t-238 146.5l14 16
q102 -92 231 -143t271 -51q285 0 500 192q0 1 3.5 -2.5t6.5 -7.5l4 -4q-104 -95 -236 -147t-278 -52zM852 248q-189 0 -330 125l15 16q134 -121 315 -121q182 0 313 121q2 -3 7.5 -8t7.5 -8q-138 -125 -328 -125zM852 348q-145 0 -264 101l14 14q108 -94 250 -94
q143 0 248 94q2 -3 7 -8.5t7 -8.5q-112 -98 -262 -98zM852 428q-116 0 -211 78l14 16q86 -73 197 -73t197 73q4 -4 12 -16q-91 -78 -209 -78zM852 543q-77 0 -135 49l14 16q51 -45 121 -45q68 0 119 45q2 -3 7 -8t7 -8q-58 -49 -133 -49zM733 911q-4 3 -7 6.5t-6 6.5l-3 4
q58 49 135 49t135 -49l-16 -17q-51 45 -119 45t-119 -45zM1167 1130q-134 121 -315 121q-179 0 -313 -118l-15 14q141 125 328 125q189 0 330 -125q-4 -6 -15 -17zM930 709l-12 10q10 20 10 41t-10 41l12 10q14 -25 14 -51t-14 -51zM958 682q-10 10 -16 14q21 32 21 64
t-21 63l16 15q25 -36 25 -78t-25 -78zM1020 627q-6 4 -16 14q38 50 38 119t-38 119l14 14q45 -57 45 -133q0 -71 -43 -133zM1106 551q-3 2 -8 7t-8 7q67 87 67 195t-70 194l17 15q74 -90 74 -209q0 -118 -72 -209zM1163 498q-10 10 -16 14q88 109 88 248t-88 248l16 14
q92 -116 92 -262t-92 -262zM1237 432q-6 4 -16 14q112 134 112 314q0 182 -112 313l16 14q117 -139 117 -327q0 -189 -117 -328zM1329 350q-2 2 -7 6t-7 6q141 175 141 398q0 227 -143 395l16 14q148 -179 148 -409q0 -231 -148 -410zM1446 246q-6 6 -16 14q180 215 180 500
t-180 500l16 14q88 -105 136 -237t48 -277q0 -144 -48 -276t-136 -238zM375 348q-148 182 -148 412q0 229 146 409q2 -2 7.5 -6.5t8.5 -7.5q-141 -170 -141 -395q0 -228 141 -398zM684 627q-43 59 -43 133t43 133q6 -4 16 -14q-38 -50 -38 -119q0 -67 38 -117zM745 682
q-24 34 -24 78t24 78q2 -3 4.5 -5.5t6 -5.5t4.5 -4q-19 -34 -19 -63q0 -30 19 -64zM809 825l-10 13q21 18 53 18t53 -18l-10 -13q-23 15 -43 15q-25 0 -43 -15zM786 852l-14 14q37 29 80 29q41 0 78 -29q-8 -8 -12 -14q-28 25 -66 25q-34 0 -66 -25zM760 881l-15 16
q45 39 107 39q61 0 106 -39l-14 -16q-37 34 -92 34t-92 -34zM604 1057l-14 16q112 98 262 98q151 0 262 -100q1 0 -2 -3.5t-6 -7.5l-4 -3q-108 94 -250 94q-143 0 -248 -94zM852 492q-100 0 -170 61l14 16q70 -57 156 -57q87 0 154 57l14 -14q-73 -63 -168 -63zM852 584
q-61 0 -109 39l15 16q47 -35 94 -35q51 0 92 35l14 -16q-45 -39 -106 -39zM852 625q-43 0 -82 28l14 15q36 -25 68 -25q34 0 66 25l14 -15q-36 -28 -80 -28zM698 950l-14 15q73 63 168 63q98 0 168 -61l-14 -17q-68 58 -154 58q-87 0 -154 -58zM655 997l-14 17q91 78 211 78
q119 0 209 -80l-12 -15q-83 74 -197 74q-110 0 -197 -74zM1249 1223q-166 153 -397 153q-227 0 -397 -151l-15 14q179 158 412 158t412 -158zM352 1339l-14 17q104 95 236 146.5t278 51.5q145 0 278 -52t238 -146l-14 -17q-102 93 -231 144t-271 51t-270 -51t-230 -144z
M1057 594l-15 14q52 69 52 152t-54 153l17 15q57 -72 57 -168q0 -97 -57 -166z" />
    </font>
</defs>
</svg>
