<?xml version="1.0" standalone="no"?>
<!DOCTYPE svg PUBLIC "-//W3C//DTD SVG 1.1//EN" "http://www.w3.org/Graphics/SVG/1.1/DTD/svg11.dtd" >
<svg xmlns="http://www.w3.org/2000/svg" xmlns:xlink="http://www.w3.org/1999/xlink" version="1.1">
<metadata>
Created by FontForge 20201107 at Wed Dec 24 15:01:23 2025
 By 
Copyright (c) The Font Bureau, Inc., 2003. All rights reserved.
</metadata>
<defs>
<font id="AntennaCond-RegularItalic" horiz-adv-x="964" >
  <font-face 
    font-family="AntennaCond RegularItalic"
    font-weight="400"
    font-style="italic"
    font-stretch="normal"
    units-per-em="2048"
    panose-1="2 0 5 6 0 0 0 2 0 4"
    ascent="1638"
    descent="-410"
    x-height="1137"
    cap-height="1518"
    bbox="-242 -453 2542 1937"
    underline-thickness="102"
    underline-position="-204"
    slope="-10"
    unicode-range="U+0020-FB02"
  />
<missing-glyph horiz-adv-x="368" 
 />
    <glyph glyph-name="fi" unicode="fi" horiz-adv-x="1073" 
d="M74 969l32 168h173l28 155q27 153 107.5 220t253.5 67h100l-31 -170h-78q-46 0 -76.5 -10.5t-48 -35t-26 -50t-16.5 -68.5l-21 -108h221l-30 -168h-220l-227 -1293h-192l227 1293h-176zM623 0l202 1137h193l-203 -1137h-192zM848 1276l43 231h192l-41 -231h-194z" />
    <glyph glyph-name="fl" unicode="fl" horiz-adv-x="1155" 
d="M74 969l32 168h173l28 155q27 153 107.5 220t253.5 67h100l-31 -170h-78q-46 0 -76.5 -10.5t-48 -35t-26 -50t-16.5 -68.5l-21 -108h221l-30 -168h-220l-227 -1293h-192l227 1293h-176zM887 -2q-151 0 -196.5 66.5t-14.5 228.5l225 1282h193l-228 -1286q-10 -45 -6.5 -72
t29.5 -38t90 -11l-29 -168q-8 -2 -63 -2z" />
    <glyph glyph-name="f_f_l" unicode="ffl" horiz-adv-x="1699" 
d="M567 -324l228 1293h-353l-227 -1293h-192l227 1293h-176l32 168h173l28 155q27 153 107.5 220t253.5 67h100l-31 -170h-78q-46 0 -76.5 -10.5t-48 -35t-26 -50t-16.5 -68.5l-21 -108h352l29 155q27 153 107 220t251 67h103l-31 -170h-80q-46 0 -76 -10.5t-47.5 -35
t-26 -50t-16.5 -68.5l-20 -108h221l-31 -168h-219l-227 -1293h-193zM1432 -2q-151 0 -197 66.5t-16 228.5l227 1282h192l-227 -1286q-10 -45 -6.5 -72t29.5 -38t90 -11l-29 -168q-8 -2 -63 -2z" />
    <glyph glyph-name="f_f_i" unicode="ffi" horiz-adv-x="1617" 
d="M567 -324l228 1293h-353l-227 -1293h-192l227 1293h-176l32 168h173l28 155q27 153 107.5 220t253.5 67h100l-31 -170h-78q-46 0 -76.5 -10.5t-48 -35t-26 -50t-16.5 -68.5l-21 -108h352l29 155q27 153 107 220t251 67h103l-31 -170h-80q-46 0 -76 -10.5t-47.5 -35
t-26 -50t-16.5 -68.5l-20 -108h221l-31 -168h-219l-227 -1293h-193zM1167 0l201 1137h195l-203 -1137h-193zM1393 1276l41 231h194l-43 -231h-192z" />
    <glyph glyph-name="f_j" unicode="fj" horiz-adv-x="1073" 
d="M74 969l32 168h173l28 155q27 153 107.5 220t253.5 67h100l-31 -170h-78q-46 0 -76.5 -10.5t-48 -35t-26 -50t-16.5 -68.5l-21 -108h221l-30 -168h-220l-227 -1293h-192l227 1293h-176zM451 -324l26 158h17q64 0 87 26t37 105l207 1172h193l-213 -1198q-19 -107 -52 -162
t-94 -78t-172 -23h-36zM848 1276l43 231h192l-41 -231h-194z" />
    <glyph glyph-name="f_f" unicode="ff" horiz-adv-x="1222" 
d="M567 -324l228 1293h-353l-227 -1293h-192l227 1293h-176l32 168h173l28 155q27 153 107.5 220t253.5 67h100l-31 -170h-78q-46 0 -76.5 -10.5t-48 -35t-26 -50t-16.5 -68.5l-21 -108h352l29 155q27 154 108 220.5t261 66.5q107 0 127 -2l-33 -168h-103q-49 0 -81.5 -10.5
t-51 -35t-27 -50t-16.5 -68.5l-20 -108h254l-31 -168h-252l-227 -1293h-193z" />
    <glyph glyph-name=".notdef" horiz-adv-x="368" 
 />
    <glyph glyph-name=".null" horiz-adv-x="0" 
 />
    <glyph glyph-name="nonmarkingreturn" horiz-adv-x="682" 
 />
    <glyph glyph-name="space" unicode=" " horiz-adv-x="368" 
 />
    <glyph glyph-name="space" unicode="&#xa0;" horiz-adv-x="368" 
 />
    <glyph glyph-name="exclam" unicode="!" horiz-adv-x="626" 
d="M66 0l43 256h231l-45 -256h-229zM170 432l174 1086h211l-213 -1086h-172z" />
    <glyph glyph-name="quotedbl" unicode="&#x22;" horiz-adv-x="870" 
d="M186 899l101 619h198l-123 -619h-176zM555 899l102 619h195l-119 -619h-178z" />
    <glyph glyph-name="numbersign" unicode="#" horiz-adv-x="1214" 
d="M174 0l80 449h-191l31 178h191l41 241h-193l33 176h190l86 474h185l-84 -474h217l84 474h186l-86 -474h209l-31 -176h-209l-43 -241h211l-32 -178h-209l-78 -449h-187l80 449h-217l-80 -449h-184zM451 612h249l50 273h-252z" />
    <glyph glyph-name="dollar" unicode="$" horiz-adv-x="1077" 
d="M287 -188l32 192q-218 25 -342 129l115 141q98 -85 266 -108l101 563q-65 35 -106 63.5t-79.5 69t-56.5 92t-18 117.5q0 203 102.5 317.5t286.5 129.5l30 172h183l-31 -179q143 -20 260 -86l-102 -155q-87 52 -197 67l-90 -501q55 -29 91 -51.5t76 -56.5t63 -69.5t38 -85
t15 -108.5q0 -217 -110.5 -335t-313.5 -130l-31 -188h-182zM731 438q0 66 -30 114t-93 91l-86 -479q102 17 155.5 87.5t53.5 186.5zM391 1090q0 -52 24.5 -90.5t76.5 -77.5l73 415q-174 -34 -174 -247z" />
    <glyph glyph-name="percent" unicode="%" horiz-adv-x="1865" 
d="M399 565q-153 0 -228 76t-75 236q0 63 21 200q23 131 59 221t87 140.5t110 72t137 21.5q153 0 228 -76.5t75 -236.5q0 -76 -20 -203q-19 -105 -46.5 -183.5t-62 -129.5t-80 -82t-94.5 -43.5t-111 -12.5zM399 713q61 0 99.5 26.5t68 95.5t51.5 195q21 111 21 180
q0 88 -32.5 127t-104.5 39q-86 0 -132.5 -70t-80.5 -251q-19 -114 -19 -178q0 -86 30.5 -125t98.5 -39zM1356 -16q-153 0 -227 75.5t-74 237.5q0 80 22 199q22 131 58.5 221t87 141t109.5 72.5t136 21.5q153 0 228.5 -76.5t75.5 -238.5q0 -89 -23 -201q-22 -131 -58 -220.5
t-87 -139.5t-110.5 -71t-137.5 -21zM1356 131q92 0 141 68t80 252q20 103 20 178q0 88 -32.5 127t-102.5 39q-88 0 -134.5 -70t-78.5 -252q-20 -120 -20 -176q0 -86 31 -126t96 -40zM377 0l936 1518h180l-938 -1518h-178z" />
    <glyph glyph-name="ampersand" unicode="&#x26;" horiz-adv-x="1351" 
d="M465 -14q-459 0 -459 346q0 86 18.5 158t48.5 125t79.5 101.5t99.5 83t121 74.5q-58 135 -58 263q0 198 96.5 302.5t247.5 104.5q158 0 236 -70.5t78 -197.5q0 -75 -19.5 -139.5t-49 -110.5t-78 -90t-92.5 -73.5t-107 -65.5q41 -65 90 -138l162 -239q55 96 96.5 220.5
t89.5 305.5l172 -24q-55 -222 -115 -383.5t-137 -276.5l176 -262h-237l-76 113q-155 -127 -383 -127zM469 150q167 0 285 106l-203 309q-63 91 -105 164q-130 -82 -187.5 -163.5t-57.5 -211.5q0 -43 11.5 -77t39.5 -64t83 -46.5t134 -16.5zM504 1141q0 -99 47 -205
q119 71 178 143t59 178q0 117 -129 117q-155 0 -155 -233z" />
    <glyph glyph-name="quotesingle" unicode="'" horiz-adv-x="501" 
d="M186 899l101 619h198l-120 -619h-179z" />
    <glyph glyph-name="parenleft" unicode="(" horiz-adv-x="817" 
d="M328 -354q-85 120 -143 297.5t-58 404.5q0 244 76 491.5t199 441.5t270 316l127 -94q-200 -176 -338.5 -499t-138.5 -664q0 -369 161 -606z" />
    <glyph glyph-name="parenright" unicode=")" horiz-adv-x="817" 
d="M96 -354l-125 94q200 174 337.5 497.5t137.5 665.5q0 361 -159 606l155 88q201 -291 201 -702q0 -244 -76 -491.5t-199.5 -442t-271.5 -315.5z" />
    <glyph glyph-name="asterisk" unicode="*" horiz-adv-x="985" 
d="M532 610l-155 27l76 326l-281 -129l-57 151l301 102l-250 203l106 121l224 -219l39 334l153 -29l-74 -328l285 134l59 -150l-309 -106l254 -203l-104 -121l-226 221z" />
    <glyph glyph-name="plus" unicode="+" horiz-adv-x="1159" 
d="M399 254l68 383h-317l28 168h318l67 381h185l-68 -381h317l-28 -168h-320l-67 -383h-183z" />
    <glyph glyph-name="comma" unicode="," horiz-adv-x="442" 
d="M-20 -244l-37 101q80 41 102.5 64t32.5 79h-107l45 258h232l-41 -242q-11 -55 -23 -88t-36.5 -65.5t-64 -57t-103.5 -49.5z" />
    <glyph glyph-name="hyphen" unicode="-" horiz-adv-x="722" 
d="M41 555l31 178h569l-33 -178h-567z" />
    <glyph glyph-name="hyphen" unicode="&#xad;" horiz-adv-x="722" 
d="M41 555l31 178h569l-33 -178h-567z" />
    <glyph glyph-name="period" unicode="." horiz-adv-x="442" 
d="M-29 0l45 258h232l-43 -258h-234z" />
    <glyph glyph-name="slash" unicode="/" horiz-adv-x="872" 
d="M-139 0l950 1518h201l-949 -1518h-202z" />
    <glyph glyph-name="zero" unicode="0" horiz-adv-x="1183" 
d="M502 -16q-234 0 -332 106t-98 324q0 140 45 385q29 164 60.5 277t76 205t103.5 145t140 80.5t189 27.5q230 0 326 -108t96 -324q0 -148 -43 -387q-29 -166 -60.5 -280t-75.5 -204.5t-103 -142t-138 -78t-186 -26.5zM514 162q149 0 222 121.5t132 453.5q39 201 39 342
q0 142 -52.5 205.5t-176.5 63.5q-159 0 -232.5 -120.5t-130.5 -449.5q-41 -226 -41 -344q0 -142 55.5 -207t184.5 -65z" />
    <glyph glyph-name="one" unicode="1" horiz-adv-x="636" 
d="M135 0l236 1341h-221l30 177h414l-268 -1518h-191z" />
    <glyph glyph-name="two" unicode="2" horiz-adv-x="987" 
d="M-61 0l24 156l410 415q168 171 245.5 269.5t104.5 171t27 170.5q0 86 -50.5 128t-171.5 42q-131 0 -258 -56l-73 164q161 74 370 74q206 0 292.5 -83t86.5 -255q0 -92 -24.5 -174.5t-82.5 -172t-133.5 -176.5t-197.5 -210l-291 -293h563l-30 -170h-811z" />
    <glyph glyph-name="three" unicode="3" horiz-adv-x="987" 
d="M367 -16q-137 0 -234.5 30.5t-183.5 83.5l104 156q75 -45 148 -69.5t172 -24.5q81 0 132 23t86.5 85t53.5 174q10 65 10 105q0 92 -57.5 135t-208.5 43h-137l31 170h204q117 0 167 48t71 167q8 31 8 84q0 89 -49 123.5t-162 34.5q-131 0 -258 -58l-76 158q167 82 377 82
q191 0 281 -65t90 -218q0 -57 -12 -116q-26 -147 -69 -223t-140 -105q78 -31 105.5 -90t27.5 -164q0 -34 -17 -147q-22 -124 -62.5 -208t-101 -130t-132 -65t-168.5 -19z" />
    <glyph glyph-name="four" unicode="4" horiz-adv-x="1091" 
d="M-2 344l29 154l712 1020h201l-707 -1012h381l121 467h142l-84 -467h204l-30 -162h-203l-59 -344h-179l58 344h-586z" />
    <glyph glyph-name="five" unicode="5" horiz-adv-x="1026" 
d="M418 -16q-165 0 -270.5 31t-190.5 83l104 156q74 -45 152 -69.5t201 -24.5q51 0 86.5 6.5t70 26t58 54t43.5 91t33 137.5q14 93 14 139q0 116 -56.5 161.5t-183.5 45.5q-114 0 -209 -63l-143 43l166 717h715l-35 -177h-543l-88 -383q82 37 219 37q186 0 270 -81.5
t84 -270.5q0 -72 -16 -184q-16 -90 -38.5 -161t-48.5 -120.5t-61 -85t-69.5 -56.5t-80.5 -32.5t-87 -15.5t-96 -4z" />
    <glyph glyph-name="six" unicode="6" horiz-adv-x="1118" 
d="M504 -16q-128 0 -216.5 26.5t-139 78.5t-72 119.5t-21.5 160.5q0 107 31 295q22 129 39.5 212t43 176t53.5 149.5t69 115.5t91.5 91.5t119 60t154 38.5t194.5 11h145l-32 -177h-119q-71 0 -127 -5.5t-101.5 -18.5t-79.5 -29t-62 -44.5t-47.5 -57t-38 -73.5t-31.5 -87
t-29 -104q54 57 133 78.5t188 21.5q104 0 176 -23.5t111.5 -69t56.5 -102t17 -131.5q0 -70 -21 -200q-48 -275 -157 -393.5t-328 -118.5zM496 154q72 0 122 20.5t84.5 67t56 110.5t38.5 162q16 73 16 145q0 99 -50.5 149t-166.5 50q-133 0 -215 -65.5t-111 -229.5
q-18 -102 -18 -182q0 -115 55.5 -171t188.5 -56z" />
    <glyph glyph-name="seven" unicode="7" horiz-adv-x="880" 
d="M63 0l680 1341h-600l31 177h811l-29 -152l-677 -1366h-216z" />
    <glyph glyph-name="eight" unicode="8" horiz-adv-x="1124" 
d="M481 -16q-107 0 -187 17.5t-130 47.5t-81 74t-42.5 92t-11.5 107q0 95 14 173.5t46 150.5t92.5 123.5t146.5 76.5q-119 61 -119 244q0 78 12.5 142t44 121t80.5 96.5t126 62t177 22.5q118 0 201.5 -24t127.5 -67.5t62.5 -94t18.5 -115.5q0 -331 -230 -408
q60 -23 95 -68.5t47 -96.5t12 -119q0 -557 -502 -557zM485 145q158 0 230.5 105t72.5 291q0 99 -54.5 149.5t-192.5 50.5q-312 0 -312 -385q0 -101 57 -156t199 -55zM610 905q252 0 252 295q0 82 -48.5 126t-166.5 44q-252 0 -252 -297q0 -81 48.5 -124.5t166.5 -43.5z" />
    <glyph glyph-name="nine" unicode="9" horiz-adv-x="1118" 
d="M123 0l31 170h118q81 0 143.5 8.5t110.5 23t84.5 42.5t62 57.5t47 78.5t36 95.5t32.5 116.5q-56 -57 -135 -78.5t-186 -21.5q-103 0 -175 24t-111.5 70t-56.5 102.5t-18 132.5q0 90 21 201q23 138 59.5 232.5t94.5 158t139 92.5t194 29q128 0 216.5 -26.5t139 -78.5
t72 -119.5t21.5 -160.5q0 -115 -33 -295q-22 -128 -39 -212t-42.5 -176.5t-53.5 -149t-69 -115.5t-92 -91.5t-119.5 -60t-154 -38.5t-194.5 -11h-143zM522 653q133 0 214 65.5t110 229.5q18 102 18 182q0 116 -54 172t-187 56q-141 0 -205 -81.5t-99 -277.5
q-14 -93 -14 -147q0 -101 49.5 -150t167.5 -49z" />
    <glyph glyph-name="colon" unicode=":" horiz-adv-x="475" 
d="M-12 0l45 254h231l-45 -254h-231zM143 885l45 252h232l-45 -252h-232z" />
    <glyph glyph-name="semicolon" unicode=";" horiz-adv-x="475" 
d="M143 885l45 252h232l-45 -252h-232zM-4 -244l-37 101q80 41 102.5 64t32.5 79h-106l45 254h231l-41 -238q-11 -55 -23 -88t-36.5 -65.5t-64 -57t-103.5 -49.5z" />
    <glyph glyph-name="less" unicode="&#x3c;" horiz-adv-x="1157" 
d="M821 217l-667 422l22 139l817 422l-28 -186l-605 -305l494 -306z" />
    <glyph glyph-name="equal" unicode="=" horiz-adv-x="1161" 
d="M115 416l30 178h813l-32 -178h-811zM184 823l33 176h813l-33 -176h-813z" />
    <glyph glyph-name="greater" unicode="&#x3e;" horiz-adv-x="1159" 
d="M145 217l29 189l602 303l-491 305l32 186l668 -422l-22 -139z" />
    <glyph glyph-name="question" unicode="?" horiz-adv-x="1060" 
d="M336 418q7 50 11 77.5t12 65.5t16.5 59.5t23 52t33 52.5t45 50t60.5 55t79 59q75 52 116 92t65 94.5t24 126.5t-49.5 113t-171.5 41q-66 0 -143 -18.5t-135 -45.5l-80 160q69 35 181.5 58.5t213.5 23.5q387 0 387 -287q0 -83 -19 -150.5t-57 -121t-81.5 -93t-106.5 -83.5
q-63 -46 -99.5 -78t-61.5 -60.5t-37.5 -63t-20 -69t-17.5 -95.5q-1 -10 -2 -15h-186zM238 0l43 233h231l-41 -233h-233z" />
    <glyph glyph-name="at" unicode="@" horiz-adv-x="1728" 
d="M754 -338q-365 0 -536 156.5t-171 492.5q0 155 35 351q36 205 92.5 356t127.5 249t166.5 157.5t199.5 83.5t235 24q376 0 550.5 -156t174.5 -491q0 -151 -35 -353q-21 -117 -43.5 -197t-49 -133t-62 -82t-75 -40.5t-95.5 -11.5q-215 0 -240 120q-59 -60 -132 -89
t-198 -29q-90 0 -152 24t-95 69.5t-46.5 100.5t-13.5 129q0 99 25 242q12 64 24 114t29.5 103t38.5 92t50.5 75t64.5 58.5t82 35.5t102 13q129 0 196 -26.5t101 -83.5l49 98l129 -12l-125 -696q-21 -116 7 -166t108 -50q55 0 85.5 24t57 100.5t55.5 234.5q33 179 33 334
q0 287 -143.5 410.5t-456.5 123.5q-113 0 -201 -21t-168 -73.5t-139.5 -139.5t-107.5 -221t-80 -317q-33 -171 -33 -326q0 -285 137 -413.5t424 -128.5q228 0 451 73l35 -112q-97 -34 -222.5 -55t-244.5 -21zM743 223q49 0 86.5 10.5t65 34t46 50t33.5 71.5t24 84.5
t20 101.5q20 136 20 183q0 104 -42.5 155.5t-159.5 51.5q-48 0 -84 -16t-60.5 -42.5t-43.5 -73.5t-31 -95t-25 -120q-23 -142 -23 -198q0 -97 38.5 -147t135.5 -50z" />
    <glyph glyph-name="A" unicode="A" horiz-adv-x="1202" 
d="M-96 0l737 1528h188l195 -1528h-203l-37 315h-528l-147 -315h-205zM336 496h430l-84 725z" />
    <glyph glyph-name="B" unicode="B" horiz-adv-x="1144" 
d="M0 0l268 1518h387q246 0 353.5 -74t107.5 -230q0 -48 -10 -106q-27 -149 -79 -219.5t-148 -106.5q76 -30 109.5 -92.5t33.5 -169.5q0 -64 -12 -129q-21 -112 -64 -189t-109 -121t-146.5 -62.5t-188.5 -18.5h-502zM227 170h301q61 0 102.5 9.5t78 35.5t60.5 75t40 126
q10 44 10 90q0 109 -62.5 148.5t-209.5 39.5h-228zM348 870h307q51 0 88 8.5t70.5 31.5t55 67.5t32.5 112.5q8 62 8 81q0 94 -63.5 131t-208.5 37h-205z" />
    <glyph glyph-name="C" unicode="C" horiz-adv-x="1042" 
d="M512 -16q-479 0 -479 491q0 122 35 330q32 183 78.5 311t121.5 225.5t186 145t263 47.5q230 0 370 -100l-112 -170q-119 77 -285 77q-180 0 -274.5 -127.5t-149.5 -433.5q-30 -169 -30 -295q0 -163 71.5 -243t229.5 -80q148 0 264 67l88 -151q-163 -94 -377 -94z" />
    <glyph glyph-name="D" unicode="D" horiz-adv-x="1204" 
d="M0 0l268 1518h371q284 0 408 -118.5t124 -363.5q0 -127 -34 -329q-35 -198 -84 -328.5t-127.5 -217t-188 -124t-266.5 -37.5h-471zM229 174h267q197 0 291 122.5t149 430.5q33 175 33 287q0 166 -78 243.5t-262 77.5h-195z" />
    <glyph glyph-name="E" unicode="E" horiz-adv-x="1038" 
d="M0 0l268 1518h811l-32 -183h-617l-80 -461h580l-33 -180h-582l-90 -516h619l-31 -178h-813z" />
    <glyph glyph-name="F" unicode="F" horiz-adv-x="997" 
d="M0 0l268 1518h811l-32 -183h-615l-82 -473h578l-31 -180h-580l-118 -682h-199z" />
    <glyph glyph-name="G" unicode="G" horiz-adv-x="1159" 
d="M506 -16q-252 0 -362.5 124t-110.5 369q0 141 35 328q37 209 92.5 350.5t137.5 225t182 118.5t237 35q152 0 249 -32t169 -85l-131 -160q-113 86 -310 86q-85 0 -147 -25t-116 -88t-94 -173.5t-71 -278.5q-33 -193 -33 -301q0 -169 69.5 -246t225.5 -77q163 0 235 100.5
t111 370.5l9 57h-340l30 174h539l-37 -215q-23 -135 -48.5 -232t-60 -172t-76 -122t-99 -77t-125.5 -42t-160 -12z" />
    <glyph glyph-name="H" unicode="H" horiz-adv-x="1265" 
d="M0 0l268 1518h199l-113 -631h600l113 631h201l-269 -1518h-200l121 692h-601l-120 -692h-199z" />
    <glyph glyph-name="I" unicode="I" horiz-adv-x="491" 
d="M12 0l269 1518h198l-268 -1518h-199z" />
    <glyph glyph-name="J" unicode="J" horiz-adv-x="724" 
d="M-84 0l33 178h143q117 0 172 48t70 153l203 1139h198l-209 -1174q-17 -99 -52 -167t-89 -106.5t-119 -54.5t-153 -16h-197z" />
    <glyph glyph-name="K" unicode="K" horiz-adv-x="1173" 
d="M0 0l268 1518h199l-123 -697l655 697h240l-555 -582l307 -936h-209l-252 774l-243 -272l-88 -502h-199z" />
    <glyph glyph-name="L" unicode="L" horiz-adv-x="962" 
d="M0 0l268 1518h199l-238 -1340h594l-30 -178h-793z" />
    <glyph glyph-name="M" unicode="M" horiz-adv-x="1492" 
d="M0 0l268 1518h252l154 -1170l567 1170h252l-268 -1518h-191l195 1116l-543 -1116h-151l-154 1124l-195 -1124h-186z" />
    <glyph glyph-name="N" unicode="N" horiz-adv-x="1259" 
d="M0 0l268 1518h213l391 -1125l199 1125h191l-269 -1518h-184l-414 1174l-209 -1174h-186z" />
    <glyph glyph-name="O" unicode="O" horiz-adv-x="1261" 
d="M537 -16q-115 0 -203 25.5t-144.5 69.5t-92 108.5t-50 136t-14.5 159.5q0 128 35 322q23 135 53 238t81 199t119 157.5t168 98t228 36.5q117 0 207 -26t147 -70.5t93 -110t50.5 -138t14.5 -161.5q0 -116 -33 -323q-20 -112 -44 -199t-60.5 -172.5t-85.5 -146.5
t-115 -108.5t-155 -71t-199 -23.5zM547 162q75 0 134 17t103.5 53t77 81t57.5 112.5t42 135.5t34 160q33 191 33 291q0 77 -15 134.5t-50 103.5t-96.5 69.5t-149.5 23.5q-75 0 -135.5 -17.5t-105 -54t-77.5 -82.5t-58 -114t-42 -136.5t-33 -160.5q-33 -191 -33 -289
q0 -158 70.5 -242.5t243.5 -84.5z" />
    <glyph glyph-name="P" unicode="P" horiz-adv-x="1144" 
d="M0 0l268 1518h404q131 0 224 -25t147.5 -73t79 -111t24.5 -146q0 -58 -17 -145q-43 -222 -157.5 -332.5t-325.5 -110.5h-350l-100 -575h-197zM330 754h319q120 0 188.5 63t94.5 209q12 74 12 104q0 101 -64.5 153t-213.5 52h-234z" />
    <glyph glyph-name="Q" unicode="Q" horiz-adv-x="1261" 
d="M692 -348q-189 0 -271.5 70.5t-64.5 209.5q0 16 13 74q-94 20 -161 64t-104.5 108.5t-54 138.5t-16.5 166q0 128 35 322q23 135 53 238t81 199t119 157.5t168 98t228 36.5q117 0 207 -26t147 -70.5t93 -110t50.5 -138t14.5 -161.5q0 -116 -33 -323q-17 -94 -36.5 -169
t-48 -150.5t-63 -132t-83 -106.5t-107 -82t-135 -51t-168.5 -20q-2 -12 -2 -27q-13 -72 19.5 -108.5t127.5 -36.5h111l-31 -170h-88zM547 162q75 0 134 17t103.5 53t77 81t57.5 112.5t42 135.5t34 160q33 191 33 291q0 77 -15 134.5t-50 103.5t-96.5 69.5t-149.5 23.5
q-75 0 -135.5 -17.5t-105 -54t-77.5 -82.5t-58 -114t-42 -136.5t-33 -160.5q-33 -191 -33 -289q0 -158 70.5 -242.5t243.5 -84.5z" />
    <glyph glyph-name="R" unicode="R" horiz-adv-x="1163" 
d="M723 0l-160 584h-262l-104 -584h-197l268 1518h408q130 0 222.5 -26.5t144 -76t74 -112t22.5 -144.5q0 -58 -13 -141q-60 -373 -368 -426l164 -592h-199zM332 764h315q121 0 189 60t94 202q8 47 8 100q0 104 -60.5 157.5t-207.5 53.5h-238z" />
    <glyph glyph-name="S" unicode="S" horiz-adv-x="1081" 
d="M451 -16q-311 0 -508 139l110 153q177 -122 400 -122q140 0 216 69t76 201q0 95 -60.5 153t-213.5 136q-100 51 -163.5 101t-101.5 120t-38 156q0 219 133 331.5t348 112.5q249 0 410 -94l-96 -168q-132 78 -322 78q-131 0 -202.5 -63.5t-71.5 -178.5q0 -55 24.5 -95.5
t68.5 -72t132 -78.5q76 -40 125 -70t96 -68.5t73 -76.5t42 -88t16 -110q0 -231 -133.5 -348t-359.5 -117z" />
    <glyph glyph-name="T" unicode="T" horiz-adv-x="1097" 
d="M315 0l236 1335h-414l31 183h1028l-31 -183h-413l-238 -1335h-199z" />
    <glyph glyph-name="U" unicode="U" horiz-adv-x="1257" 
d="M557 -20q-260 0 -373.5 97.5t-113.5 284.5q0 76 16 170l174 986h201l-176 -983q-13 -83 -13 -138q0 -116 65 -175.5t226 -59.5q158 0 230 82t104 270l180 1004h193l-183 -1035q-22 -131 -60 -222.5t-101 -156t-153.5 -94.5t-215.5 -30z" />
    <glyph glyph-name="V" unicode="V" horiz-adv-x="1191" 
d="M365 -10l-191 1528h205l139 -1205l559 1205h209l-731 -1528h-190z" />
    <glyph glyph-name="W" unicode="W" horiz-adv-x="1738" 
d="M274 -10l-84 1528h205l51 -1110l467 1110h189l69 -1112l451 1112h199l-629 -1528h-180l-76 1145l-477 -1145h-185z" />
    <glyph glyph-name="X" unicode="X" horiz-adv-x="1171" 
d="M778 0l-225 616l-422 -616h-215l567 809l-256 709h207l195 -541l368 541h217l-516 -736l285 -782h-205z" />
    <glyph glyph-name="Y" unicode="Y" horiz-adv-x="1142" 
d="M338 0l98 555l-284 963h208l211 -746l478 746h211l-627 -965l-96 -553h-199z" />
    <glyph glyph-name="Z" unicode="Z" horiz-adv-x="1064" 
d="M-70 0l25 154l883 1181h-643l32 183h885l-29 -164l-878 -1176h688l-31 -178h-932z" />
    <glyph glyph-name="bracketleft" unicode="[" horiz-adv-x="806" 
d="M2 -324l336 1899h457l-29 -166h-264l-279 -1573h271l-29 -160h-463z" />
    <glyph glyph-name="backslash" unicode="\" horiz-adv-x="872" 
d="M549 0l-412 1518h187l411 -1518h-186z" />
    <glyph glyph-name="bracketright" unicode="]" horiz-adv-x="806" 
d="M-35 -324l29 160h268l277 1573h-267l29 166h463l-336 -1899h-463z" />
    <glyph glyph-name="asciicircum" unicode="^" 
d="M250 1221l287 331h182l168 -331h-154l-129 196l-194 -196h-160z" />
    <glyph glyph-name="underscore" unicode="_" horiz-adv-x="741" 
d="M-242 -256l27 147h864l-24 -147h-867z" />
    <glyph glyph-name="grave" unicode="`" 
d="M532 1255l-217 332h209l170 -332h-162z" />
    <glyph glyph-name="a" unicode="a" horiz-adv-x="1019" 
d="M303 -12q-166 0 -242.5 69t-76.5 207q0 142 35.5 239.5t107.5 153t168 79.5t231 24h148q10 67 7.5 116.5t-46 78t-133.5 28.5q-156 0 -252 -41l-57 160q133 57 335 57q129 0 206.5 -29t107.5 -84.5t32 -136.5t-20 -184l-76 -446q-14 -66 -2 -88.5t72 -22.5l-29 -168
q-20 -2 -61 -2q-78 0 -112 24t-36 76q-51 -55 -133.5 -82.5t-173.5 -27.5zM354 150q211 0 258 251l33 199h-110q-99 0 -162.5 -12t-111 -44t-68.5 -90.5t-21 -150.5q0 -82 44.5 -117.5t137.5 -35.5z" />
    <glyph glyph-name="b" unicode="b" horiz-adv-x="1056" 
d="M123 -8l-141 14l278 1569h191l-91 -520q97 102 297 102q92 0 157 -26.5t100.5 -76t51 -110.5t15.5 -141q0 -108 -29 -271q-17 -100 -37.5 -175t-55 -148t-79 -119.5t-111.5 -75t-151 -28.5q-151 0 -229.5 34t-108.5 97zM481 154q67 0 113.5 25t77.5 79.5t49.5 119
t36.5 165.5q24 120 24 217q0 105 -44 161t-150 56q-65 0 -113.5 -18.5t-80 -48t-55 -82.5t-37.5 -106t-28 -134q-22 -113 -22 -205q0 -112 50.5 -170.5t178.5 -58.5z" />
    <glyph glyph-name="c" unicode="c" horiz-adv-x="835" 
d="M401 -16q-209 0 -299 99t-90 282q0 90 27 245q24 140 59.5 237.5t93 169.5t141.5 106t199 34q183 0 302 -70l-109 -157q-70 47 -195 47q-131 0 -195.5 -92t-103.5 -301q-20 -127 -20 -203q0 -114 50.5 -171.5t170.5 -57.5q95 0 186 36l52 -153q-122 -51 -269 -51z" />
    <glyph glyph-name="d" unicode="d" horiz-adv-x="1056" 
d="M334 -16q-92 0 -157 26.5t-100.5 77t-51 112t-15.5 142.5q0 103 29 270q17 100 37.5 175t55 148t79.5 119t112 74.5t152 28.5q259 0 324 -131l96 549h192l-276 -1567l-156 -14l9 102q-109 -112 -330 -112zM406 154q64 0 112 18.5t79 49t54.5 83.5t37.5 106t28 134
q22 136 22 205q0 111 -51 170t-178 59q-67 0 -113.5 -25t-77.5 -79.5t-49.5 -118.5t-36.5 -164q-24 -141 -24 -219q0 -105 44.5 -162t152.5 -57z" />
    <glyph glyph-name="e" unicode="e" horiz-adv-x="958" 
d="M418 -14q-114 0 -194 26t-125 77t-65 117t-20 154q0 109 25 250q48 276 161 411.5t328 135.5q84 0 147 -14.5t103.5 -39.5t65.5 -64t35 -83.5t10 -101.5q0 -116 -51 -371h-631q-6 -61 -6 -108q0 -111 52 -166t183 -55q124 0 256 47l51 -156q-144 -59 -325 -59zM518 985
q-66 0 -113.5 -21t-79.5 -66.5t-52 -101.5t-37 -141h446q23 121 23 170q0 81 -39.5 120.5t-147.5 39.5z" />
    <glyph glyph-name="f" unicode="f" horiz-adv-x="677" 
d="M74 969l32 168h173l28 155q27 154 108.5 220.5t262.5 66.5q105 0 125 -2l-33 -168h-102q-49 0 -81.5 -10.5t-51 -35t-27 -50t-16.5 -68.5l-21 -108h256l-33 -168h-252l-227 -1293h-192l227 1293h-176z" />
    <glyph glyph-name="g" unicode="g" horiz-adv-x="995" 
d="M461 408q-99 0 -172 18q-29 -37 -29 -74t26.5 -53.5t94.5 -17.5q170 -3 262.5 -29t131 -80.5t38.5 -153.5q0 -100 -32.5 -170.5t-97 -111.5t-149.5 -59.5t-200 -18.5q-235 0 -344 59.5t-109 180.5q0 120 71 199t195 104q-57 42 -57 127q0 86 78 161q-84 72 -84 213
q0 106 24.5 187.5t64 131.5t95.5 81.5t113 43t123 11.5q40 0 110 -4l385 72l-26 -170h-191q99 -68 99 -221q0 -426 -420 -426zM459 565q50 0 88.5 11.5t72.5 39.5t52 81.5t18 131.5q0 160 -182 160q-236 0 -236 -270q0 -154 187 -154zM346 -193q147 0 206.5 44.5t59.5 150.5
q0 74 -60.5 101.5t-213.5 27.5q-258 0 -258 -192q0 -66 60.5 -99t205.5 -33z" />
    <glyph glyph-name="h" unicode="h" horiz-adv-x="1040" 
d="M-20 0l278 1575h191l-95 -526q104 108 287 108q69 0 121.5 -13t86 -34t54.5 -54.5t30 -68t9 -83t-5 -89.5t-15 -96l-127 -719h-191l121 694q16 91 16 153.5t-43 95t-141 32.5q-67 0 -113.5 -21.5t-78 -70.5t-50.5 -110t-36 -157l-107 -616h-192z" />
    <glyph glyph-name="i" unicode="i" horiz-adv-x="436" 
d="M-10 0l200 1137h193l-203 -1137h-190zM213 1276l43 231h193l-43 -231h-193z" />
    <glyph glyph-name="j" unicode="j" horiz-adv-x="436" 
d="M-184 -324l26 158h19q64 0 86.5 26t34.5 105l208 1172h193l-213 -1198q-28 -157 -92 -210t-225 -53h-37zM213 1276l43 231h193l-43 -231h-193z" />
    <glyph glyph-name="k" unicode="k" horiz-adv-x="925" 
d="M-18 0l278 1575h191l-168 -950l440 512h217l-412 -482l244 -655h-199l-190 508l-154 -178l-57 -330h-190z" />
    <glyph glyph-name="l" unicode="l" horiz-adv-x="520" 
d="M313 0q-6 -2 -61 -2q-151 0 -196 66t-17 229l229 1282h191l-228 -1286q-10 -45 -7 -72t29 -38t91 -11z" />
    <glyph glyph-name="m" unicode="m" horiz-adv-x="1603" 
d="M-18 0l196 1126l156 13l-6 -97q99 115 305 115q117 0 177 -29.5t83 -99.5q104 129 342 129q67 0 118 -13t83.5 -33.5t52.5 -55t28.5 -68.5t8 -82.5t-5.5 -89.5t-15 -96l-125 -719h-192l123 694q16 91 17.5 153.5t-39.5 95t-136 32.5q-52 0 -91.5 -15.5t-67.5 -42.5
t-49 -73.5t-35 -99t-27 -128.5l-107 -616h-192l123 694q16 91 17.5 153.5t-39.5 95t-136 32.5q-124 0 -179.5 -83t-88.5 -276l-109 -616h-190z" />
    <glyph glyph-name="n" unicode="n" horiz-adv-x="1040" 
d="M-18 0l196 1126l156 13l-6 -97q45 52 125.5 83.5t189.5 31.5q69 0 121 -13t85.5 -34t54.5 -54.5t30 -68t9.5 -82.5t-4.5 -89.5t-15 -96.5l-127 -719h-193l123 694q16 91 16 153.5t-43 95t-141 32.5q-67 0 -114 -22t-78.5 -70.5t-50 -110t-35.5 -156.5l-109 -616h-190z
" />
    <glyph glyph-name="o" unicode="o" horiz-adv-x="1028" 
d="M412 -16q-110 0 -188.5 29t-123.5 83.5t-65.5 123.5t-20.5 159q0 83 25 229q18 105 43.5 186t66.5 151t96 115.5t132.5 71t175.5 25.5q111 0 189 -28t122.5 -82t64 -122t19.5 -157q0 -97 -24 -238q-19 -108 -43.5 -188.5t-64.5 -150.5t-94 -114t-132 -68.5t-178 -24.5z
M426 152q61 0 107.5 19t77.5 50t54 84t36.5 107.5t27.5 134.5q25 139 25 207q0 107 -48 165t-167 58q-62 0 -110 -20t-79 -52.5t-55 -85.5t-37.5 -105.5t-26.5 -127.5q-20 -106 -20 -201q0 -111 48.5 -172t166.5 -61z" />
    <glyph glyph-name="p" unicode="p" horiz-adv-x="1056" 
d="M-74 -324l252 1450l156 13l-4 -92q107 110 327 110q92 0 157 -26.5t100.5 -76t51 -110.5t15.5 -141q0 -108 -29 -271q-17 -100 -37.5 -175t-55 -148t-79 -119.5t-111.5 -75t-151 -28.5q-142 0 -217.5 34t-107.5 97l-76 -441h-191zM481 154q67 0 113.5 25t77.5 79.5
t49.5 119t36.5 165.5q24 137 24 217q0 105 -44 161t-150 56q-65 0 -113.5 -18.5t-79.5 -48t-55 -83t-37.5 -105.5t-28.5 -134q-22 -113 -22 -205q0 -112 50.5 -170.5t178.5 -58.5z" />
    <glyph glyph-name="q" unicode="q" horiz-adv-x="1056" 
d="M561 -324l72 412q-56 -53 -125.5 -78.5t-173.5 -25.5q-92 0 -157 26.5t-100.5 77t-51 112t-15.5 142.5q0 103 29 270q17 100 37.5 175t55 148t79.5 119t112 74.5t152 28.5q151 0 226 -33t110 -98l57 125l142 -12l-258 -1463h-191zM406 154q64 0 112 18.5t79.5 49t55 83
t37 106.5t27.5 134q22 136 22 205q0 111 -51 170t-178 59q-67 0 -113.5 -25t-77.5 -79.5t-49.5 -118.5t-36.5 -164q-24 -141 -24 -219q0 -105 44.5 -162t152.5 -57z" />
    <glyph glyph-name="r" unicode="r" horiz-adv-x="610" 
d="M-18 0l196 1126l156 13l-8 -113q99 121 331 121l-30 -180q-57 0 -103.5 -10.5t-79 -26.5t-58.5 -45t-41.5 -56t-28.5 -69.5t-20 -74.5t-15 -83l-109 -602h-190z" />
    <glyph glyph-name="s" unicode="s" horiz-adv-x="804" 
d="M313 -14q-226 0 -399 102l100 148q140 -91 303 -91q80 0 129.5 40t49.5 130q0 61 -38 99.5t-147 101.5q-119 68 -177 136t-58 165q0 74 21 132.5t56 97t83.5 64t101 36t111.5 10.5q197 0 327 -76l-98 -151q-101 59 -244 59q-170 0 -170 -162q0 -50 42 -88.5t136 -93.5
q123 -70 180.5 -140.5t57.5 -178.5q0 -94 -31.5 -163t-85.5 -106t-116 -54t-134 -17z" />
    <glyph glyph-name="t" unicode="t" horiz-adv-x="737" 
d="M74 969l32 168h177l86 301l159 35l-59 -336h258l-31 -168h-258l-112 -647q-15 -84 5 -119t109 -35h117l-31 -168q-44 -6 -133 -6q-184 0 -236.5 78.5t-19.5 255.5l109 641h-172z" />
    <glyph glyph-name="u" unicode="u" horiz-adv-x="1015" 
d="M412 -16q-137 0 -220.5 32t-118 92.5t-38.5 148t18 198.5l121 682h193l-121 -684q-7 -44 -10.5 -71.5t-5 -62t4 -56t18 -44.5t34 -35t55 -20t78.5 -8q53 0 89.5 10.5t61 28t41 52.5t26.5 72t21 99l125 719h191l-129 -736q-21 -118 -48.5 -192t-77 -127.5t-123 -75.5
t-185.5 -22z" />
    <glyph glyph-name="v" unicode="v" horiz-adv-x="921" 
d="M221 -8l-137 1145h197l94 -858l397 858h199l-545 -1145h-205z" />
    <glyph glyph-name="w" unicode="w" horiz-adv-x="1437" 
d="M180 -8l-88 1145h201l57 -809l357 809h180l63 -793l340 793h191l-496 -1145h-190l-66 784l-344 -784h-205z" />
    <glyph glyph-name="x" unicode="x" horiz-adv-x="909" 
d="M551 0l-160 424l-297 -424h-207l435 604l-201 533h198l142 -375l262 375h203l-398 -555l222 -582h-199z" />
    <glyph glyph-name="y" unicode="y" horiz-adv-x="892" 
d="M-57 -324l26 158h90q48 0 71 15.5t44 58.5l45 96l-137 1133h201l86 -842l379 842h194l-608 -1276q-54 -112 -114 -148.5t-161 -36.5h-116z" />
    <glyph glyph-name="z" unicode="z" horiz-adv-x="815" 
d="M-92 0l22 133l625 836h-446l30 168h684l-22 -133l-631 -846h498l-29 -158h-731z" />
    <glyph glyph-name="braceleft" unicode="{" horiz-adv-x="866" 
d="M397 -324q-158 0 -229.5 49t-71.5 148q0 60 29 153.5t63.5 173.5t63.5 158.5t29 112.5q0 44 -41.5 59t-151.5 15l29 162q53 0 85.5 2t61 10t42.5 20.5t24 36.5t13 54.5t3 78.5q0 38 -4 141t-4 152q0 205 83.5 289t278.5 84h162l-33 -166h-100q-112 0 -156.5 -51.5
t-44.5 -196.5q0 -39 4.5 -128t4.5 -130q0 -124 -27 -186t-107 -90q76 -36 76 -113q0 -59 -43.5 -175.5t-87 -230t-43.5 -165.5q0 -57 37 -82t111 -25h102l-29 -160h-129z" />
    <glyph glyph-name="bar" unicode="|" horiz-adv-x="577" 
d="M190 -324v1899h195v-1899h-195z" />
    <glyph glyph-name="braceright" unicode="}" horiz-adv-x="866" 
d="M-43 -324l33 160h102q109 0 154 52.5t45 197.5q0 37 -4 128.5t-4 133.5q0 124 27.5 186.5t107.5 90.5q-78 37 -78 112q0 59 44 174.5t88 227.5t44 164q0 57 -37 81.5t-112 24.5h-103l29 166h131q158 0 229.5 -49t71.5 -148q0 -60 -29 -153.5t-64 -173.5t-64 -158.5
t-29 -112.5q0 -44 41.5 -58.5t150.5 -14.5l-29 -162q-53 0 -85.5 -2t-61 -10.5t-42.5 -20.5t-24 -36.5t-13 -55t-3 -78.5q0 -38 4 -141t4 -152q0 -205 -82.5 -289t-277.5 -84h-164z" />
    <glyph glyph-name="asciitilde" unicode="~" 
d="M344 825l-123 82q103 160 232 160q44 0 92.5 -20t90.5 -40t69 -20q63 0 129 92l120 -80q-102 -170 -227 -170q-47 0 -96.5 20.5t-91.5 41t-72 20.5q-35 0 -63.5 -20.5t-59.5 -65.5z" />
    <glyph glyph-name="exclamdown" unicode="&#xa1;" horiz-adv-x="628" 
d="M74 0l211 1087h174l-172 -1087h-213zM289 1262l45 256h231l-45 -256h-231z" />
    <glyph glyph-name="cent" unicode="&#xa2;" horiz-adv-x="868" 
d="M242 -197l34 201q-132 29 -189.5 120.5t-57.5 240.5q0 107 24 245q46 258 141.5 387t280.5 150l33 170h184l-30 -172q103 -12 186 -60l-107 -155q-50 32 -120 43l-146 -821q81 6 158 41l51 -146q-104 -48 -225 -55l-33 -189h-184zM225 381q0 -153 90 -203l140 785
q-83 -30 -129.5 -120.5t-75.5 -258.5q-25 -136 -25 -203z" />
    <glyph glyph-name="sterling" unicode="&#xa3;" horiz-adv-x="1001" 
d="M600 -10q-198 0 -338 86q-108 -82 -358 -76l33 170q67 0 108 4t75 18.5t51 35t28.5 62.5t14.5 91.5t3 130.5q0 84 -6 178h-184l28 160h150q-2 35 -2 106q0 299 100.5 438.5t317.5 139.5q249 0 407 -96l-104 -150q-117 68 -301 68q-59 0 -101 -18.5t-67.5 -50.5
t-39.5 -86.5t-19 -114t-5 -146.5v-90h334l-29 -160h-303q2 -59 2 -186q0 -184 -39 -291q98 -57 224 -57q61 0 86.5 35t38.5 120l18 115h172l-25 -143q-28 -163 -87 -228t-183 -65z" />
    <glyph glyph-name="currency" unicode="&#xa4;" horiz-adv-x="1118" 
d="M72 840l28 157h181q71 290 189 413.5t331 123.5q123 0 208 -27.5t160 -76.5l-112 -156q-110 74 -262 74q-129 0 -200 -81t-118 -270h414l-29 -157h-418q-2 -10 -5 -31t-5 -31q-13 -61 -16 -84h420l-29 -159h-410q-4 -35 -4 -95q0 -142 54.5 -210t183.5 -68q107 0 227 55
l72 -151q-158 -82 -326 -82q-216 0 -310.5 105.5t-94.5 324.5q0 35 4 121h-187l29 159h176q2 13 17 103q4 30 8 43h-176z" />
    <glyph glyph-name="yen" unicode="&#xa5;" horiz-adv-x="1042" 
d="M59 459l27 159h315l5 21l-244 879h203l167 -689l412 689h207l-559 -885l-2 -15h315l-28 -159h-316l-26 -146h315l-25 -159h-317l-27 -154h-186l27 154h-316l25 159h317l27 146h-316z" />
    <glyph glyph-name="brokenbar" unicode="&#xa6;" horiz-adv-x="577" 
d="M188 -324v787h195v-787h-195zM188 788v787h195v-787h-195z" />
    <glyph glyph-name="section" unicode="&#xa7;" horiz-adv-x="929" 
d="M111 -16q-89 0 -103 4l27 151h78q49 0 81.5 11.5t51 37.5t27.5 52t18 71l28 156q-118 21 -171.5 79.5t-53.5 155.5q0 185 86.5 270t241.5 93l29 158q15 79 36.5 131.5t61 95t104.5 62.5t160 20q19 0 57 -1t43 -1l-28 -160h-80q-48 0 -80.5 -11.5t-51 -36.5t-27.5 -52
t-17 -72l-27 -141q234 -41 234 -244q0 -100 -25 -170.5t-72.5 -109.5t-105.5 -56.5t-135 -19.5l-29 -164q-14 -79 -35.5 -131.5t-61 -95t-104 -62.5t-157.5 -20zM465 582q211 0 211 206q0 142 -215 142q-43 0 -77.5 -10t-65 -33t-47.5 -65.5t-17 -102.5q0 -137 211 -137z
" />
    <glyph glyph-name="dieresis" unicode="&#xa8;" 
d="M301 1255l39 215h172l-39 -215h-172zM664 1255l41 215h172l-39 -215h-174z" />
    <glyph glyph-name="copyright" unicode="&#xa9;" horiz-adv-x="1366" 
d="M696 252q-88 0 -152 24t-104 65.5t-64 108.5t-33 142t-9 176q0 99 8.5 172t32.5 140t65 109t108 66.5t159 24.5q149 0 245 -61l-71 -109q-70 47 -176 47q-139 0 -189.5 -91.5t-50.5 -301.5t50 -301.5t190 -91.5q62 0 105.5 13t88.5 42l66 -104q-60 -37 -119 -53.5
t-150 -16.5zM686 -20q-139 0 -244.5 38t-173 104t-109.5 166t-58.5 213.5t-16.5 256.5q0 119 12 217t38.5 188.5t72.5 157.5t111.5 117.5t158 76t209.5 25.5q139 0 244 -38t172.5 -105t109.5 -167t59 -214t17 -258q0 -143 -17 -256.5t-59 -213.5t-109.5 -166t-172.5 -104
t-244 -38zM686 61q120 0 211 34t149 93t93.5 149t50 191.5t14.5 229.5q0 130 -14.5 232t-50 192t-93.5 149t-149 93t-211 34t-210.5 -34t-148 -93t-92.5 -149.5t-49 -192t-14 -231.5q0 -129 14 -230t49 -191t92.5 -149t148 -93t210.5 -34z" />
    <glyph glyph-name="ordfeminine" unicode="&#xaa;" horiz-adv-x="901" 
d="M358 586q-128 0 -188.5 55t-60.5 166q0 115 29 192.5t88.5 120.5t135.5 60.5t185 17.5h117q8 59 8 101.5t-32 66t-105 23.5q-130 0 -207 -35l-52 135q112 45 275 45q105 0 167.5 -23.5t87.5 -68.5t27 -110.5t-16 -149.5l-63 -361q-11 -54 -1.5 -70t58.5 -16l-25 -141
q-8 0 -23.5 -1t-23.5 -1q-73 0 -102.5 23.5t-32.5 76.5q-74 -106 -246 -106zM412 719q35 0 63.5 8t57 29t49 62.5t30.5 101.5l29 155h-82q-81 0 -132 -9t-89 -34.5t-54 -72.5t-16 -121q0 -65 34.5 -92t109.5 -27zM45 293l25 143h632l-22 -143h-635z" />
    <glyph glyph-name="guillemotleft" unicode="&#xab;" horiz-adv-x="1177" 
d="M252 0l-148 567l351 570h168l-334 -570l133 -567h-170zM694 0l-145 567l346 570h170l-336 -570l135 -567h-170z" />
    <glyph glyph-name="logicalnot" unicode="&#xac;" horiz-adv-x="1703" 
d="M258 246q-88 105 -136 237t-48 277q0 144 48 276t136 236q6 -4 14 -12q-85 -103 -131.5 -231.5t-46.5 -268.5q0 -285 180 -500zM467 432q-117 143 -117 328q0 183 115 327q3 -2 8 -7t8 -7q-110 -136 -110 -313q0 -182 110 -314zM541 498q-92 116 -92 262t92 262
q3 -2 8 -7t8 -7q-88 -109 -88 -248t88 -248q-3 -2 -8 -7t-8 -7zM647 592q-57 72 -57 168q0 97 57 166l15 -15q-52 -69 -52 -151q0 -84 54 -154q-3 -2 -8.5 -7t-8.5 -7zM715 655q-33 48 -33 105q0 56 33 104q3 -2 8 -7t8 -7q-29 -44 -29 -90t29 -90q-3 -2 -16 -15zM774 709
q-14 25 -14 51t14 51l12 -10q-10 -20 -10 -41t10 -41q-4 -4 -12 -10zM852 123q-236 0 -412 158l2.5 2.5l5 5l5.5 5.5t2 1q171 -152 397 -152q227 0 395 152q2 -3 7.5 -8t7.5 -8q-177 -156 -410 -156zM852 664q-31 0 -55 18l12 12q21 -14 43 -14q26 0 43 14q4 -4 10 -12
q-21 -18 -53 -18zM987 653q-7 10 -14 15q28 42 28 92q0 51 -28 90l2.5 2.5t5 4.5t5.5 5t1 2q35 -44 35 -104t-35 -107zM598 551q-72 91 -72 209q0 119 74 209l14 -15q-67 -87 -67 -194q0 -108 67 -195q-10 -10 -16 -14zM852 -35q-145 0 -278 52.5t-238 146.5l14 16
q102 -92 231 -143t271 -51q285 0 500 192q0 1 3.5 -2.5t6.5 -7.5l4 -4q-104 -95 -236 -147t-278 -52zM852 248q-189 0 -330 125l15 16q134 -121 315 -121q182 0 313 121q2 -3 7.5 -8t7.5 -8q-138 -125 -328 -125zM852 348q-145 0 -264 101l14 14q108 -94 250 -94
q143 0 248 94q2 -3 7 -8.5t7 -8.5q-112 -98 -262 -98zM852 428q-116 0 -211 78l14 16q86 -73 197 -73t197 73q4 -4 12 -16q-91 -78 -209 -78zM852 543q-77 0 -135 49l14 16q51 -45 121 -45q68 0 119 45q2 -3 7 -8t7 -8q-58 -49 -133 -49zM733 911q-4 3 -7 6.5t-6 6.5l-3 4
q58 49 135 49t135 -49l-16 -17q-51 45 -119 45t-119 -45zM1167 1130q-134 121 -315 121q-179 0 -313 -118l-15 14q141 125 328 125q189 0 330 -125q-4 -6 -15 -17zM930 709l-12 10q10 20 10 41t-10 41l12 10q14 -25 14 -51t-14 -51zM958 682q-10 10 -16 14q21 32 21 64
t-21 63l16 15q25 -36 25 -78t-25 -78zM1020 627q-6 4 -16 14q38 50 38 119t-38 119l14 14q45 -57 45 -133q0 -71 -43 -133zM1106 551q-3 2 -8 7t-8 7q67 87 67 195t-70 194l17 15q74 -90 74 -209q0 -118 -72 -209zM1163 498q-10 10 -16 14q88 109 88 248t-88 248l16 14
q92 -116 92 -262t-92 -262zM1237 432q-6 4 -16 14q112 134 112 314q0 182 -112 313l16 14q117 -139 117 -327q0 -189 -117 -328zM1329 350q-2 2 -7 6t-7 6q141 175 141 398q0 227 -143 395l16 14q148 -179 148 -409q0 -231 -148 -410zM1446 246q-6 6 -16 14q180 215 180 500
t-180 500l16 14q88 -105 136 -237t48 -277q0 -144 -48 -276t-136 -238zM375 348q-148 182 -148 412q0 229 146 409q2 -2 7.5 -6.5t8.5 -7.5q-141 -170 -141 -395q0 -228 141 -398zM684 627q-43 59 -43 133t43 133q6 -4 16 -14q-38 -50 -38 -119q0 -67 38 -117zM745 682
q-24 34 -24 78t24 78q2 -3 4.5 -5.5t6 -5.5t4.5 -4q-19 -34 -19 -63q0 -30 19 -64zM809 825l-10 13q21 18 53 18t53 -18l-10 -13q-23 15 -43 15q-25 0 -43 -15zM786 852l-14 14q37 29 80 29q41 0 78 -29q-8 -8 -12 -14q-28 25 -66 25q-34 0 -66 -25zM760 881l-15 16
q45 39 107 39q61 0 106 -39l-14 -16q-37 34 -92 34t-92 -34zM604 1057l-14 16q112 98 262 98q151 0 262 -100q1 0 -2 -3.5t-6 -7.5l-4 -3q-108 94 -250 94q-143 0 -248 -94zM852 492q-100 0 -170 61l14 16q70 -57 156 -57q87 0 154 57l14 -14q-73 -63 -168 -63zM852 584
q-61 0 -109 39l15 16q47 -35 94 -35q51 0 92 35l14 -16q-45 -39 -106 -39zM852 625q-43 0 -82 28l14 15q36 -25 68 -25q34 0 66 25l14 -15q-36 -28 -80 -28zM698 950l-14 15q73 63 168 63q98 0 168 -61l-14 -17q-68 58 -154 58q-87 0 -154 -58zM655 997l-14 17q91 78 211 78
q119 0 209 -80l-12 -15q-83 74 -197 74q-110 0 -197 -74zM1249 1223q-166 153 -397 153q-227 0 -397 -151l-15 14q179 158 412 158t412 -158zM352 1339l-14 17q104 95 236 146.5t278 51.5q145 0 278 -52t238 -146l-14 -17q-102 93 -231 144t-271 51t-270 -51t-230 -144z
M1057 594l-15 14q52 69 52 152t-54 153l17 15q57 -72 57 -168q0 -97 -57 -166z" />
    <glyph glyph-name="registered" unicode="&#xae;" horiz-adv-x="1366" 
d="M686 -20q-139 0 -244.5 38t-173 104t-109.5 166t-58.5 213.5t-16.5 256.5q0 119 12 217t38.5 188.5t72.5 157.5t111.5 117.5t158 76t209.5 25.5q139 0 244 -38t172.5 -105t109.5 -167t59 -214t17 -258q0 -143 -17 -256.5t-59 -213.5t-109.5 -166t-172.5 -104t-244 -38z
M686 61q120 0 211 34t149 93t93.5 149t50 191.5t14.5 229.5q0 130 -14.5 232t-50 192t-93.5 149t-149 93t-211 34t-210.5 -34t-148 -93t-92.5 -149.5t-49 -192t-14 -231.5q0 -129 14 -230t49 -191t92.5 -149t148 -93t210.5 -34zM881 266l-181 398h-176v-398h-125v994h328
q162 0 228.5 -70t66.5 -223q0 -130 -45.5 -202t-151.5 -93l187 -406h-131zM524 768h199q94 0 133 43t39 147t-39 147.5t-133 43.5h-199v-381z" />
    <glyph glyph-name="macron" unicode="&#xaf;" 
d="M254 1255l29 160h628l-26 -160h-631z" />
    <glyph glyph-name="macron" unicode="&#x2c9;" 
d="M254 1255l29 160h628l-26 -160h-631z" />
    <glyph glyph-name="degree" unicode="&#xb0;" horiz-adv-x="921" 
d="M459 567q-93 0 -159 24t-102.5 68.5t-52.5 99.5t-16 126q0 77 21 192q15 86 35 151.5t53 125t77 98t109 60.5t147 22q328 0 328 -324q0 -91 -18 -196q-20 -107 -48.5 -183.5t-76.5 -138.5t-122 -93.5t-175 -31.5zM469 717q62 0 105.5 20.5t71 65t44 95.5t31.5 132
q14 77 14 156q0 90 -39.5 139t-136.5 49q-63 0 -107 -21t-71.5 -67t-43 -96.5t-30.5 -130.5q-18 -106 -18 -160q0 -88 40.5 -135t139.5 -47z" />
    <glyph glyph-name="plusminus" unicode="&#xb1;" horiz-adv-x="1699" 
d="M567 -324l228 1293h-353l-227 -1293h-192l227 1293h-176l32 168h173l28 155q27 153 107.5 220t253.5 67h100l-31 -170h-78q-46 0 -76.5 -10.5t-48 -35t-26 -50t-16.5 -68.5l-21 -108h352l29 155q27 153 107 220t251 67h103l-31 -170h-80q-46 0 -76 -10.5t-47.5 -35
t-26 -50t-16.5 -68.5l-20 -108h221l-31 -168h-219l-227 -1293h-193zM1432 -2q-151 0 -197 66.5t-16 228.5l227 1282h192l-227 -1286q-10 -45 -6.5 -72t29.5 -38t90 -11l-29 -168q-8 -2 -63 -2z" />
    <glyph glyph-name="twosuperior" unicode="&#xb2;" horiz-adv-x="774" 
d="M80 575l20 121l254 254q156 156 195 214t39 136q0 46 -32.5 66t-104.5 20q-94 0 -168 -32l-43 127q106 47 247 47q261 0 261 -191q0 -84 -19.5 -139.5t-76.5 -127.5t-187 -202l-164 -163h346l-24 -130h-543z" />
    <glyph glyph-name="threesuperior" unicode="&#xb3;" horiz-adv-x="770" 
d="M369 565q-178 0 -291 76l86 121q88 -62 201 -62q94 0 134 51.5t40 155.5q0 60 -32.5 81.5t-127.5 21.5h-107l23 137h127q93 -1 128.5 36.5t35.5 119.5q0 51 -29 68.5t-104 17.5q-98 0 -172 -29l-45 125q97 43 253 43q130 0 192 -40.5t62 -141.5q0 -44 -7 -84t-22 -77
t-42 -64.5t-64 -39.5q45 -19 64.5 -56t19.5 -105q0 -355 -323 -355z" />
    <glyph glyph-name="acute" unicode="&#xb4;" 
d="M430 1255l291 332h215l-334 -332h-172z" />
    <glyph glyph-name="mu" unicode="&#xb5;" horiz-adv-x="1021" 
d="M-74 -324l254 1461h195l-121 -684q-8 -43 -12 -71t-5 -62.5t4 -56t17.5 -44t34 -35t55 -20.5t78.5 -8q53 0 90 10.5t61.5 28t41.5 53t26.5 72t20.5 98.5l127 719h188l-129 -736q-21 -119 -48.5 -192.5t-76 -127t-122.5 -75.5t-185 -22q-178 0 -234 94l-69 -402h-191z" />
    <glyph glyph-name="mu" unicode="&#x3bc;" horiz-adv-x="1021" 
d="M-74 -324l254 1461h195l-121 -684q-8 -43 -12 -71t-5 -62.5t4 -56t17.5 -44t34 -35t55 -20.5t78.5 -8q53 0 90 10.5t61.5 28t41.5 53t26.5 72t20.5 98.5l127 719h188l-129 -736q-21 -119 -48.5 -192.5t-76 -127t-122.5 -75.5t-185 -22q-178 0 -234 94l-69 -402h-191z" />
    <glyph glyph-name="paragraph" unicode="&#xb6;" horiz-adv-x="1058" 
d="M264 0l109 616q-141 33 -201.5 115t-58.5 215q0 53 14 146q39 232 154 329t342 97h442l-268 -1518h-189l105 596h-156l-104 -596h-189zM588 754h153l107 589h-238q-126 0 -195.5 -61t-97.5 -219q-10 -65 -10 -105q0 -106 66 -155t215 -49z" />
    <glyph glyph-name="periodcentered" unicode="&#xb7;" horiz-adv-x="442" 
d="M72 571l47 263h231l-45 -263h-233z" />
    <glyph glyph-name="periodcentered" unicode="&#x2219;" horiz-adv-x="442" 
d="M72 571l47 263h231l-45 -263h-233z" />
    <glyph glyph-name="cedilla" unicode="&#xb8;" 
d="M338 -453q-133 0 -229 47l49 107q88 -39 168 -39q61 0 89.5 24t28.5 83q0 41 -34.5 54.5t-106.5 10.5l-39 33l53 147h115l-35 -102q176 3 176 -143q0 -123 -59 -172.5t-176 -49.5z" />
    <glyph glyph-name="onesuperior" unicode="&#xb9;" horiz-adv-x="561" 
d="M201 575l139 801h-137l26 142h297l-166 -943h-159z" />
    <glyph glyph-name="ordmasculine" unicode="&#xba;" horiz-adv-x="901" 
d="M444 582q-173 0 -246 83.5t-73 235.5q0 77 16 186q20 108 49.5 185.5t77.5 139t120.5 92t170.5 30.5q175 0 248.5 -83t73.5 -232q0 -93 -21 -195q-19 -109 -46.5 -185.5t-75 -137t-120.5 -90t-174 -29.5zM457 723q49 0 86.5 15.5t61.5 40.5t42 68t28.5 85.5t20.5 105.5
q21 94 21 168q0 84 -37.5 130t-132.5 46q-58 0 -100.5 -21.5t-69.5 -66t-44 -97t-30 -130.5q-16 -94 -16 -160q0 -87 38 -135.5t132 -48.5zM39 293l27 143h655l-25 -143h-657z" />
    <glyph glyph-name="guillemotright" unicode="&#xbb;" horiz-adv-x="1177" 
d="M43 0l338 569l-135 568h172l145 -568l-346 -569h-174zM487 0l336 569l-135 568h170l146 -568l-347 -569h-170z" />
    <glyph glyph-name="onequarter" unicode="&#xbc;" horiz-adv-x="1554" 
d="M190 0l932 1518h176l-933 -1518h-175zM741 190l23 121l442 631h160l-438 -625h211l73 252h115l-47 -252h127l-23 -127h-127l-32 -190h-142l33 190h-375zM215 575l139 801h-137l27 142h297l-166 -943h-160z" />
    <glyph glyph-name="onehalf" unicode="&#xbd;" horiz-adv-x="1654" 
d="M190 0l932 1518h176l-933 -1518h-175zM215 575l139 801h-137l27 142h297l-166 -943h-160zM860 0l21 121l256 252q108 108 154 163.5t61.5 94.5t15.5 94q0 45 -32 64.5t-103 19.5q-94 0 -170 -33l-43 129q106 47 250 47q258 0 258 -190q0 -85 -18.5 -140t-76 -128
t-186.5 -201l-166 -164h346l-24 -129h-543z" />
    <glyph glyph-name="threequarters" unicode="&#xbe;" horiz-adv-x="1705" 
d="M373 565q-178 0 -291 76l86 121q88 -62 201 -62q94 0 134 51.5t40 155.5q0 60 -32.5 81.5t-127.5 21.5h-107l23 137h127q93 -1 128.5 36.5t35.5 119.5q0 51 -29 68.5t-104 17.5q-98 0 -172 -29l-45 125q97 43 254 43q130 0 192 -40.5t62 -141.5q0 -94 -32.5 -168
t-103.5 -97q45 -19 64.5 -56t19.5 -105q0 -355 -323 -355zM338 0l936 1518h174l-936 -1518h-174zM893 190l25 121l438 631h162l-439 -625h211l72 252h117l-47 -252h127l-23 -127h-127l-33 -190h-145l35 190h-373z" />
    <glyph glyph-name="questiondown" unicode="&#xbf;" horiz-adv-x="1095" 
d="M461 -16q-389 0 -389 286q0 83 19 150.5t57 121t81.5 93.5t106.5 84q145 107 179.5 163.5t57.5 205.5q1 8 2 12h187q-9 -66 -15 -101t-18.5 -81t-29.5 -74.5t-46.5 -66t-71 -72t-100.5 -76.5q-113 -77 -160 -143t-47 -169q0 -155 224 -155q66 0 143.5 18.5t134.5 44.5
l80 -159q-71 -35 -183 -58.5t-212 -23.5zM586 1284l41 234h231l-43 -234h-229z" />
    <glyph glyph-name="Agrave" unicode="&#xc0;" horiz-adv-x="1200" 
d="M-96 0l737 1528h188l195 -1528h-203l-37 315h-528l-147 -315h-205zM336 496h430l-84 725zM709 1604l-217 331h208l170 -331h-161z" />
    <glyph glyph-name="Aacute" unicode="&#xc1;" horiz-adv-x="1200" 
d="M-96 0l737 1528h188l195 -1528h-203l-37 315h-528l-147 -315h-205zM336 496h430l-84 725zM606 1604l291 331h215l-334 -331h-172z" />
    <glyph glyph-name="Acircumflex" unicode="&#xc2;" horiz-adv-x="1200" 
d="M-96 0l737 1528h188l195 -1528h-203l-37 315h-528l-147 -315h-205zM336 496h430l-84 725zM426 1604l287 331h182l168 -331h-154l-129 196l-194 -196h-160z" />
    <glyph glyph-name="Atilde" unicode="&#xc3;" horiz-adv-x="1200" 
d="M-96 0l737 1528h188l195 -1528h-203l-37 315h-528l-147 -315h-205zM336 496h430l-84 725zM520 1595l-123 82q103 160 232 160q44 0 92.5 -20t90.5 -40t69 -20q63 0 129 92l120 -80q-102 -170 -227 -170q-47 0 -96.5 20.5t-91.5 41t-72 20.5q-35 0 -63.5 -20.5
t-59.5 -65.5z" />
    <glyph glyph-name="Adieresis" unicode="&#xc4;" horiz-adv-x="1200" 
d="M-96 0l737 1528h188l195 -1528h-203l-37 315h-528l-147 -315h-205zM336 496h430l-84 725zM477 1604l39 215h172l-39 -215h-172zM840 1604l41 215h172l-39 -215h-174z" />
    <glyph glyph-name="Aring" unicode="&#xc5;" horiz-adv-x="1200" 
d="M-96 0l700 1452q-74 49 -74 160q0 135 64 214t182 79q102 0 149.5 -52.5t47.5 -140.5q0 -94 -35 -163t-98 -101l184 -1448h-203l-37 315h-528l-147 -315h-205zM336 496h430l-84 725zM637 1622q0 -83 72 -94h49q52 9 80 55.5t28 120.5q0 98 -96 98q-62 0 -97.5 -48.5
t-35.5 -131.5z" />
    <glyph glyph-name="AE" unicode="&#xc6;" horiz-adv-x="1765" 
d="M-106 0l999 1518h913l-34 -183h-615l-80 -463h582l-33 -178h-582l-92 -516h619l-29 -178h-813l55 324h-471l-213 -324h-206zM422 494h391l145 815z" />
    <glyph glyph-name="Ccedilla" unicode="&#xc7;" horiz-adv-x="1042" 
d="M373 -453q-134 0 -230 47l50 107q88 -39 167 -39q61 0 90 24t29 83q0 41 -34.5 54.5t-106.5 10.5l-39 33l47 133q-313 76 -313 475q0 122 35 330q32 183 78.5 311t121.5 225.5t186 145t263 47.5q230 0 370 -100l-112 -170q-119 77 -285 77q-180 0 -274.5 -127.5
t-149.5 -433.5q-30 -169 -30 -295q0 -163 71.5 -243t229.5 -80q148 0 264 67l88 -151q-163 -94 -377 -94q-39 0 -55 2l-25 -74q176 3 176 -143q0 -123 -59 -172.5t-176 -49.5z" />
    <glyph glyph-name="Egrave" unicode="&#xc8;" horiz-adv-x="1038" 
d="M0 0l268 1518h811l-32 -183h-617l-80 -461h580l-33 -180h-582l-90 -516h619l-31 -178h-813zM628 1603l-217 332h209l170 -332h-162z" />
    <glyph glyph-name="Eacute" unicode="&#xc9;" horiz-adv-x="1038" 
d="M526 1604l291 331h215l-334 -331h-172zM0 0l268 1518h811l-32 -183h-617l-80 -461h580l-33 -180h-582l-90 -516h619l-31 -178h-813z" />
    <glyph glyph-name="Ecircumflex" unicode="&#xca;" horiz-adv-x="1038" 
d="M346 1604l287 331h182l168 -331h-154l-129 196l-194 -196h-160zM0 0l268 1518h811l-32 -183h-617l-80 -461h580l-33 -180h-582l-90 -516h619l-31 -178h-813z" />
    <glyph glyph-name="Edieresis" unicode="&#xcb;" horiz-adv-x="1038" 
d="M397 1604l39 215h172l-39 -215h-172zM760 1604l41 215h172l-39 -215h-174zM0 0l268 1518h811l-32 -183h-617l-80 -461h580l-33 -180h-582l-90 -516h619l-31 -178h-813z" />
    <glyph glyph-name="Igrave" unicode="&#xcc;" horiz-adv-x="491" 
d="M301 1604l-178 333h209l129 -333h-160zM12 0l269 1518h198l-268 -1518h-199z" />
    <glyph glyph-name="Iacute" unicode="&#xcd;" horiz-adv-x="491" 
d="M305 1604l240 333h217l-287 -333h-170zM12 0l269 1518h198l-268 -1518h-199z" />
    <glyph glyph-name="Icircumflex" unicode="&#xce;" horiz-adv-x="491" 
d="M12 0l269 1518h198l-268 -1518h-199zM76 1603l287 332h182l168 -332h-154l-129 197l-194 -197h-160z" />
    <glyph glyph-name="Idieresis" unicode="&#xcf;" horiz-adv-x="491" 
d="M12 0l269 1518h198l-268 -1518h-199zM127 1603l39 215h172l-39 -215h-172zM490 1603l41 215h172l-39 -215h-174z" />
    <glyph glyph-name="Eth" unicode="&#xd0;" horiz-adv-x="1204" 
d="M-8 698l28 164h132l116 656h371q284 0 408 -118.5t124 -363.5q0 -127 -34 -329q-35 -198 -84 -328.5t-127.5 -217t-188 -124t-266.5 -37.5h-471l123 698h-131zM229 174h267q197 0 291 122.5t149 430.5q33 175 33 287q0 166 -78 243.5t-262 77.5h-195l-84 -473h242
l-31 -164h-239z" />
    <glyph glyph-name="Ntilde" unicode="&#xd1;" horiz-adv-x="1259" 
d="M0 0l268 1518h213l391 -1125l199 1125h191l-269 -1518h-184l-414 1174l-209 -1174h-186zM551 1595l-123 82q103 160 232 160q44 0 92.5 -20t90.5 -40t69 -20q63 0 129 92l120 -80q-102 -170 -227 -170q-47 0 -96.5 20.5t-91.5 41t-72 20.5q-35 0 -63.5 -20.5t-59.5 -65.5
z" />
    <glyph glyph-name="Ograve" unicode="&#xd2;" horiz-adv-x="1261" 
d="M537 -16q-115 0 -203 25.5t-144.5 69.5t-92 108.5t-50 136t-14.5 159.5q0 128 35 322q23 135 53 238t81 199t119 157.5t168 98t228 36.5q117 0 207 -26t147 -70.5t93 -110t50.5 -138t14.5 -161.5q0 -116 -33 -323q-20 -112 -44 -199t-60.5 -172.5t-85.5 -146.5
t-115 -108.5t-155 -71t-199 -23.5zM547 162q75 0 134 17t103.5 53t77 81t57.5 112.5t42 135.5t34 160q33 191 33 291q0 77 -15 134.5t-50 103.5t-96.5 69.5t-149.5 23.5q-75 0 -135.5 -17.5t-105 -54t-77.5 -82.5t-58 -114t-42 -136.5t-33 -160.5q-33 -191 -33 -289
q0 -158 70.5 -242.5t243.5 -84.5zM741 1603l-217 332h209l170 -332h-162z" />
    <glyph glyph-name="Oacute" unicode="&#xd3;" horiz-adv-x="1261" 
d="M639 1604l291 331h215l-334 -331h-172zM537 -16q-115 0 -203 25.5t-144.5 69.5t-92 108.5t-50 136t-14.5 159.5q0 128 35 322q23 135 53 238t81 199t119 157.5t168 98t228 36.5q117 0 207 -26t147 -70.5t93 -110t50.5 -138t14.5 -161.5q0 -116 -33 -323
q-20 -112 -44 -199t-60.5 -172.5t-85.5 -146.5t-115 -108.5t-155 -71t-199 -23.5zM547 162q75 0 134 17t103.5 53t77 81t57.5 112.5t42 135.5t34 160q33 191 33 291q0 77 -15 134.5t-50 103.5t-96.5 69.5t-149.5 23.5q-75 0 -135.5 -17.5t-105 -54t-77.5 -82.5t-58 -114
t-42 -136.5t-33 -160.5q-33 -191 -33 -289q0 -158 70.5 -242.5t243.5 -84.5z" />
    <glyph glyph-name="Ocircumflex" unicode="&#xd4;" horiz-adv-x="1261" 
d="M459 1604l286 331h183l168 -331h-154l-129 196l-195 -196h-159zM537 -16q-115 0 -203 25.5t-144.5 69.5t-92 108.5t-50 136t-14.5 159.5q0 128 35 322q23 135 53 238t81 199t119 157.5t168 98t228 36.5q117 0 207 -26t147 -70.5t93 -110t50.5 -138t14.5 -161.5
q0 -116 -33 -323q-20 -112 -44 -199t-60.5 -172.5t-85.5 -146.5t-115 -108.5t-155 -71t-199 -23.5zM547 162q75 0 134 17t103.5 53t77 81t57.5 112.5t42 135.5t34 160q33 191 33 291q0 77 -15 134.5t-50 103.5t-96.5 69.5t-149.5 23.5q-75 0 -135.5 -17.5t-105 -54
t-77.5 -82.5t-58 -114t-42 -136.5t-33 -160.5q-33 -191 -33 -289q0 -158 70.5 -242.5t243.5 -84.5z" />
    <glyph glyph-name="Otilde" unicode="&#xd5;" horiz-adv-x="1261" 
d="M537 -16q-115 0 -203 25.5t-144.5 69.5t-92 108.5t-50 136t-14.5 159.5q0 128 35 322q23 135 53 238t81 199t119 157.5t168 98t228 36.5q117 0 207 -26t147 -70.5t93 -110t50.5 -138t14.5 -161.5q0 -116 -33 -323q-20 -112 -44 -199t-60.5 -172.5t-85.5 -146.5
t-115 -108.5t-155 -71t-199 -23.5zM547 162q75 0 134 17t103.5 53t77 81t57.5 112.5t42 135.5t34 160q33 191 33 291q0 77 -15 134.5t-50 103.5t-96.5 69.5t-149.5 23.5q-75 0 -135.5 -17.5t-105 -54t-77.5 -82.5t-58 -114t-42 -136.5t-33 -160.5q-33 -191 -33 -289
q0 -158 70.5 -242.5t243.5 -84.5zM553 1595l-123 82q103 160 232 160q44 0 92.5 -20t90.5 -40t69 -20q63 0 129 92l120 -80q-102 -170 -227 -170q-47 0 -96.5 20.5t-91.5 41t-72 20.5q-35 0 -63.5 -20.5t-59.5 -65.5z" />
    <glyph glyph-name="Odieresis" unicode="&#xd6;" horiz-adv-x="1261" 
d="M510 1604l39 215h172l-39 -215h-172zM872 1604l41 215h172l-38 -215h-175zM537 -16q-115 0 -203 25.5t-144.5 69.5t-92 108.5t-50 136t-14.5 159.5q0 128 35 322q23 135 53 238t81 199t119 157.5t168 98t228 36.5q117 0 207 -26t147 -70.5t93 -110t50.5 -138t14.5 -161.5
q0 -116 -33 -323q-20 -112 -44 -199t-60.5 -172.5t-85.5 -146.5t-115 -108.5t-155 -71t-199 -23.5zM547 162q75 0 134 17t103.5 53t77 81t57.5 112.5t42 135.5t34 160q33 191 33 291q0 77 -15 134.5t-50 103.5t-96.5 69.5t-149.5 23.5q-75 0 -135.5 -17.5t-105 -54
t-77.5 -82.5t-58 -114t-42 -136.5t-33 -160.5q-33 -191 -33 -289q0 -158 70.5 -242.5t243.5 -84.5z" />
    <glyph glyph-name="multiply" unicode="&#xd7;" horiz-adv-x="1159" 
d="M254 344l-100 121l301 256l-211 254l137 121l211 -256l299 256l100 -121l-301 -254l211 -254l-133 -121l-213 254z" />
    <glyph glyph-name="Oslash" unicode="&#xd8;" horiz-adv-x="1261" 
d="M537 -16q-145 0 -248 39l-66 -107h-190l119 197q-119 122 -119 370q0 128 35 322q23 135 53 238t81 199t119 157.5t168 98t228 36.5q148 0 256 -43l69 113h191l-127 -199q123 -126 123 -377q0 -116 -33 -323q-20 -112 -44 -199t-60.5 -172.5t-85.5 -146.5t-115 -108.5
t-155 -71t-199 -23.5zM545 152q76 0 136.5 17t105.5 53.5t78 82.5t58 114t42 137t34 163q31 183 31 297q0 131 -43 207l-612 -1041q67 -30 170 -30zM229 483q0 -123 37 -198l611 1038q-69 29 -160 29t-160.5 -27.5t-116 -73.5t-82 -122.5t-56.5 -157t-40 -193.5
q-33 -194 -33 -295z" />
    <glyph glyph-name="Ugrave" unicode="&#xd9;" horiz-adv-x="1255" 
d="M557 -20q-260 0 -373.5 97.5t-113.5 284.5q0 76 16 170l174 986h201l-176 -983q-13 -83 -13 -138q0 -116 65 -175.5t226 -59.5q158 0 230 82t104 270l180 1004h193l-183 -1035q-22 -131 -60 -222.5t-101 -156t-153.5 -94.5t-215.5 -30zM737 1604l-217 331h209l170 -331
h-162z" />
    <glyph glyph-name="Uacute" unicode="&#xda;" horiz-adv-x="1255" 
d="M635 1604l291 331h215l-334 -331h-172zM557 -20q-260 0 -373.5 97.5t-113.5 284.5q0 76 16 170l174 986h201l-176 -983q-13 -83 -13 -138q0 -116 65 -175.5t226 -59.5q158 0 230 82t104 270l180 1004h193l-183 -1035q-22 -131 -60 -222.5t-101 -156t-153.5 -94.5
t-215.5 -30z" />
    <glyph glyph-name="Ucircumflex" unicode="&#xdb;" horiz-adv-x="1255" 
d="M455 1604l286 331h183l168 -331h-154l-129 196l-195 -196h-159zM557 -20q-260 0 -373.5 97.5t-113.5 284.5q0 76 16 170l174 986h201l-176 -983q-13 -83 -13 -138q0 -116 65 -175.5t226 -59.5q158 0 230 82t104 270l180 1004h193l-183 -1035q-22 -131 -60 -222.5
t-101 -156t-153.5 -94.5t-215.5 -30z" />
    <glyph glyph-name="Udieresis" unicode="&#xdc;" horiz-adv-x="1255" 
d="M506 1604l39 215h172l-39 -215h-172zM868 1604l41 215h172l-39 -215h-174zM557 -20q-260 0 -373.5 97.5t-113.5 284.5q0 76 16 170l174 986h201l-176 -983q-13 -83 -13 -138q0 -116 65 -175.5t226 -59.5q158 0 230 82t104 270l180 1004h193l-183 -1035
q-22 -131 -60 -222.5t-101 -156t-153.5 -94.5t-215.5 -30z" />
    <glyph glyph-name="Yacute" unicode="&#xdd;" horiz-adv-x="1142" 
d="M338 0l98 555l-284 963h208l211 -746l478 746h211l-627 -965l-96 -553h-199zM580 1603l291 332h215l-334 -332h-172z" />
    <glyph glyph-name="Thorn" unicode="&#xde;" horiz-adv-x="1118" 
d="M0 0l268 1518h197l-47 -252h207q175 0 281 -40.5t150 -115.5t44 -192q0 -62 -17 -152q-40 -232 -150.5 -331t-326.5 -99h-352l-57 -336h-197zM285 502h319q125 0 190.5 59t92.5 215q14 60 14 109q0 107 -66.5 157t-216.5 50h-229z" />
    <glyph glyph-name="germandbls" unicode="&#xdf;" horiz-adv-x="1064" 
d="M-74 -324l267 1528q33 194 138.5 288.5t297.5 94.5q201 0 291 -76.5t90 -230.5q0 -32 -13 -125q-29 -160 -67 -234t-117 -102q81 -29 112 -95t31 -185q0 -71 -12 -150q-21 -116 -56 -191t-93.5 -119t-134.5 -61.5t-189 -17.5h-160l31 174h125q138 -1 200.5 55t90.5 203
q10 62 10 98q0 100 -58.5 147.5t-193.5 47.5h-27l29 164h66q95 0 146 50.5t75 184.5q10 65 10 103q0 93 -47 134.5t-152 41.5q-102 0 -159.5 -55.5t-79.5 -180.5l-262 -1491h-189z" />
    <glyph glyph-name="agrave" unicode="&#xe0;" horiz-adv-x="1019" 
d="M303 -12q-166 0 -242.5 69t-76.5 207q0 142 35.5 239.5t107.5 153t168 79.5t231 24h148q10 67 7.5 116.5t-46 78t-133.5 28.5q-156 0 -252 -41l-57 160q133 57 335 57q129 0 206.5 -29t107.5 -84.5t32 -136.5t-20 -184l-76 -446q-14 -66 -2 -88.5t72 -22.5l-29 -168
q-20 -2 -61 -2q-78 0 -112 24t-36 76q-51 -55 -133.5 -82.5t-173.5 -27.5zM354 150q211 0 258 251l33 199h-110q-99 0 -162.5 -12t-111 -44t-68.5 -90.5t-21 -150.5q0 -82 44.5 -117.5t137.5 -35.5zM557 1255l-217 332h209l170 -332h-162z" />
    <glyph glyph-name="aacute" unicode="&#xe1;" horiz-adv-x="1019" 
d="M303 -12q-166 0 -242.5 69t-76.5 207q0 142 35.5 239.5t107.5 153t168 79.5t231 24h148q10 67 7.5 116.5t-46 78t-133.5 28.5q-156 0 -252 -41l-57 160q133 57 335 57q129 0 206.5 -29t107.5 -84.5t32 -136.5t-20 -184l-76 -446q-14 -66 -2 -88.5t72 -22.5l-29 -168
q-20 -2 -61 -2q-78 0 -112 24t-36 76q-51 -55 -133.5 -82.5t-173.5 -27.5zM354 150q211 0 258 251l33 199h-110q-99 0 -162.5 -12t-111 -44t-68.5 -90.5t-21 -150.5q0 -82 44.5 -117.5t137.5 -35.5zM455 1255l291 332h215l-334 -332h-172z" />
    <glyph glyph-name="acircumflex" unicode="&#xe2;" horiz-adv-x="1019" 
d="M303 -12q-166 0 -242.5 69t-76.5 207q0 142 35.5 239.5t107.5 153t168 79.5t231 24h148q10 67 7.5 116.5t-46 78t-133.5 28.5q-156 0 -252 -41l-57 160q133 57 335 57q129 0 206.5 -29t107.5 -84.5t32 -136.5t-20 -184l-76 -446q-14 -66 -2 -88.5t72 -22.5l-29 -168
q-20 -2 -61 -2q-78 0 -112 24t-36 76q-51 -55 -133.5 -82.5t-173.5 -27.5zM354 150q211 0 258 251l33 199h-110q-99 0 -162.5 -12t-111 -44t-68.5 -90.5t-21 -150.5q0 -82 44.5 -117.5t137.5 -35.5zM275 1255l287 332h182l168 -332h-154l-129 197l-194 -197h-160z" />
    <glyph glyph-name="atilde" unicode="&#xe3;" horiz-adv-x="1019" 
d="M303 -12q-166 0 -242.5 69t-76.5 207q0 142 35.5 239.5t107.5 153t168 79.5t231 24h148q10 67 7.5 116.5t-46 78t-133.5 28.5q-156 0 -252 -41l-57 160q133 57 335 57q129 0 206.5 -29t107.5 -84.5t32 -136.5t-20 -184l-76 -446q-14 -66 -2 -88.5t72 -22.5l-29 -168
q-20 -2 -61 -2q-78 0 -112 24t-36 76q-51 -55 -133.5 -82.5t-173.5 -27.5zM354 150q211 0 258 251l33 199h-110q-99 0 -162.5 -12t-111 -44t-68.5 -90.5t-21 -150.5q0 -82 44.5 -117.5t137.5 -35.5zM369 1247l-123 82q103 160 232 160q44 0 92.5 -20t90.5 -40t69 -20
q63 0 129 92l120 -80q-102 -170 -227 -170q-47 0 -96.5 20.5t-91.5 41t-72 20.5q-35 0 -63.5 -20.5t-59.5 -65.5z" />
    <glyph glyph-name="adieresis" unicode="&#xe4;" horiz-adv-x="1019" 
d="M303 -12q-166 0 -242.5 69t-76.5 207q0 142 35.5 239.5t107.5 153t168 79.5t231 24h148q10 67 7.5 116.5t-46 78t-133.5 28.5q-156 0 -252 -41l-57 160q133 57 335 57q129 0 206.5 -29t107.5 -84.5t32 -136.5t-20 -184l-76 -446q-14 -66 -2 -88.5t72 -22.5l-29 -168
q-20 -2 -61 -2q-78 0 -112 24t-36 76q-51 -55 -133.5 -82.5t-173.5 -27.5zM354 150q211 0 258 251l33 199h-110q-99 0 -162.5 -12t-111 -44t-68.5 -90.5t-21 -150.5q0 -82 44.5 -117.5t137.5 -35.5zM326 1255l39 215h172l-39 -215h-172zM689 1255l41 215h172l-39 -215h-174z
" />
    <glyph glyph-name="aring" unicode="&#xe5;" horiz-adv-x="1019" 
d="M303 -12q-166 0 -242.5 69t-76.5 207q0 142 35.5 239.5t107.5 153t168 79.5t231 24h148q10 67 7.5 116.5t-46 78t-133.5 28.5q-156 0 -252 -41l-57 160q133 57 335 57q129 0 206.5 -29t107.5 -84.5t32 -136.5t-20 -184l-76 -446q-14 -66 -2 -88.5t72 -22.5l-29 -168
q-20 -2 -61 -2q-78 0 -112 24t-36 76q-51 -55 -133.5 -82.5t-173.5 -27.5zM354 150q211 0 258 251l33 199h-110q-99 0 -162.5 -12t-111 -44t-68.5 -90.5t-21 -150.5q0 -82 44.5 -117.5t137.5 -35.5zM617 1343q64 0 98.5 48t34.5 131q0 98 -96 98q-62 0 -97.5 -48.5
t-35.5 -131.5q0 -43 23.5 -70t72.5 -27zM611 1241q-102 0 -149.5 52t-47.5 137q0 135 64 213.5t182 78.5q102 0 149 -52t47 -140q0 -131 -65.5 -210t-179.5 -79z" />
    <glyph glyph-name="ae" unicode="&#xe6;" horiz-adv-x="1560" 
d="M1018 -14q-274 0 -348 161q-73 -89 -157.5 -124t-209.5 -35q-166 0 -242.5 69t-76.5 207q0 114 24 199.5t68 141.5t112 91t149.5 49.5t186.5 14.5h150q10 67 7.5 116.5t-46 78t-133.5 28.5q-156 0 -252 -41l-57 160q133 57 335 57q242 0 303 -115q110 113 302 113
q103 0 174 -21t110 -63t55.5 -94.5t16.5 -124.5q0 -122 -49 -371h-633q-6 -61 -6 -110q0 -109 53 -164t184 -55q137 0 254 49l56 -152q-133 -65 -330 -65zM354 150q211 0 258 251l33 199h-110q-98 0 -161.5 -12t-111.5 -44t-69 -91t-21 -150q0 -82 44.5 -117.5t137.5 -35.5z
M1120 987q-54 0 -95.5 -15t-70.5 -41.5t-52 -70t-37.5 -92t-28.5 -115.5h456q21 116 21 172q0 80 -42 121t-151 41z" />
    <glyph glyph-name="ccedilla" unicode="&#xe7;" horiz-adv-x="835" 
d="M274 -453q-133 0 -229 47l49 107q88 -39 168 -39q61 0 90 24t29 83q0 41 -34.5 54.5t-106.5 10.5l-39 33l47 133q-236 64 -236 365q0 90 27 245q24 140 59.5 237.5t93 169.5t141.5 106t199 34q183 0 302 -70l-109 -157q-70 47 -195 47q-131 0 -195.5 -92t-103.5 -301
q-20 -127 -20 -203q0 -114 50.5 -171.5t170.5 -57.5q95 0 186 36l52 -153q-122 -51 -269 -51q-29 0 -43 2l-24 -74q176 3 176 -143q0 -123 -59 -172.5t-177 -49.5z" />
    <glyph glyph-name="egrave" unicode="&#xe8;" horiz-adv-x="956" 
d="M418 -14q-114 0 -194 26t-125 77t-65 117t-20 154q0 109 25 250q48 276 161 411.5t328 135.5q84 0 147 -14.5t103.5 -39.5t65.5 -64t35 -83.5t10 -101.5q0 -116 -51 -371h-631q-6 -61 -6 -108q0 -111 52 -166t183 -55q124 0 256 47l51 -156q-144 -59 -325 -59zM518 985
q-66 0 -113.5 -21t-79.5 -66.5t-52 -101.5t-37 -141h446q23 121 23 170q0 81 -39.5 120.5t-147.5 39.5zM528 1255l-217 332h209l170 -332h-162z" />
    <glyph glyph-name="eacute" unicode="&#xe9;" horiz-adv-x="956" 
d="M426 1255l291 332h215l-334 -332h-172zM418 -14q-114 0 -194 26t-125 77t-65 117t-20 154q0 109 25 250q48 276 161 411.5t328 135.5q84 0 147 -14.5t103.5 -39.5t65.5 -64t35 -83.5t10 -101.5q0 -116 -51 -371h-631q-6 -61 -6 -108q0 -111 52 -166t183 -55q124 0 256 47
l51 -156q-144 -59 -325 -59zM518 985q-66 0 -113.5 -21t-79.5 -66.5t-52 -101.5t-37 -141h446q23 121 23 170q0 81 -39.5 120.5t-147.5 39.5z" />
    <glyph glyph-name="ecircumflex" unicode="&#xea;" horiz-adv-x="956" 
d="M246 1255l286 332h183l168 -332h-154l-129 197l-194 -197h-160zM418 -14q-114 0 -194 26t-125 77t-65 117t-20 154q0 109 25 250q48 276 161 411.5t328 135.5q84 0 147 -14.5t103.5 -39.5t65.5 -64t35 -83.5t10 -101.5q0 -116 -51 -371h-631q-6 -61 -6 -108
q0 -111 52 -166t183 -55q124 0 256 47l51 -156q-144 -59 -325 -59zM518 985q-66 0 -113.5 -21t-79.5 -66.5t-52 -101.5t-37 -141h446q23 121 23 170q0 81 -39.5 120.5t-147.5 39.5z" />
    <glyph glyph-name="edieresis" unicode="&#xeb;" horiz-adv-x="956" 
d="M297 1255l39 215h172l-39 -215h-172zM659 1255l41 215h172l-38 -215h-175zM418 -14q-114 0 -194 26t-125 77t-65 117t-20 154q0 109 25 250q48 276 161 411.5t328 135.5q84 0 147 -14.5t103.5 -39.5t65.5 -64t35 -83.5t10 -101.5q0 -116 -51 -371h-631q-6 -61 -6 -108
q0 -111 52 -166t183 -55q124 0 256 47l51 -156q-144 -59 -325 -59zM518 985q-66 0 -113.5 -21t-79.5 -66.5t-52 -101.5t-37 -141h446q23 121 23 170q0 81 -39.5 120.5t-147.5 39.5z" />
    <glyph glyph-name="igrave" unicode="&#xec;" horiz-adv-x="436" 
d="M207 1255l-139 332h208l93 -332h-162zM-10 0l200 1137h193l-203 -1137h-190z" />
    <glyph glyph-name="iacute" unicode="&#xed;" horiz-adv-x="436" 
d="M215 1255l223 332h217l-272 -332h-168zM-10 0l200 1137h193l-203 -1137h-190z" />
    <glyph glyph-name="icircumflex" unicode="&#xee;" horiz-adv-x="436" 
d="M14 1255l260 332h181l137 -332h-143l-107 197l-176 -197h-152zM-10 0l200 1137h193l-203 -1137h-190z" />
    <glyph glyph-name="idieresis" unicode="&#xef;" horiz-adv-x="436" 
d="M59 1255l39 215h156l-39 -215h-156zM395 1255l39 215h154l-37 -215h-156zM-10 0l200 1137h193l-203 -1137h-190z" />
    <glyph glyph-name="eth" unicode="&#xf0;" horiz-adv-x="1030" 
d="M516 1212l27 150l137 33q-44 68 -82 104l158 92q60 -60 108 -151l230 57l-27 -145l-149 -39q51 -161 51 -361q0 -176 -41 -393q-20 -114 -42.5 -196t-61 -157.5t-90 -121.5t-128 -73t-176.5 -27q-418 0 -418 389q0 67 21 227q21 118 55 207t88 159.5t135 107t187 36.5
q219 0 282 -109q0 142 -43 267zM436 152q59 0 104.5 19.5t75 50t51.5 82t35 101.5t25 123q23 126 23 189q0 109 -50 168t-174 59q-61 0 -107.5 -19.5t-76.5 -50t-53 -83t-36 -102t-26 -122.5q-18 -119 -18 -186q0 -110 50 -169.5t177 -59.5z" />
    <glyph glyph-name="ntilde" unicode="&#xf1;" horiz-adv-x="1040" 
d="M-18 0l196 1126l156 13l-6 -97q45 52 125.5 83.5t189.5 31.5q69 0 121 -13t85.5 -34t54.5 -54.5t30 -68t9.5 -82.5t-4.5 -89.5t-15 -96.5l-127 -719h-193l123 694q16 91 16 153.5t-43 95t-141 32.5q-67 0 -114 -22t-78.5 -70.5t-50 -110t-35.5 -156.5l-109 -616h-190z
M379 1247l-123 82q103 160 232 160q44 0 92.5 -20t90.5 -40t69 -20q63 0 129 92l120 -80q-102 -170 -227 -170q-47 0 -96.5 20.5t-91.5 41t-72 20.5q-35 0 -63.5 -20.5t-59.5 -65.5z" />
    <glyph glyph-name="ograve" unicode="&#xf2;" horiz-adv-x="1028" 
d="M412 -16q-110 0 -188.5 29t-123.5 83.5t-65.5 123.5t-20.5 159q0 83 25 229q18 105 43.5 186t66.5 151t96 115.5t132.5 71t175.5 25.5q111 0 189 -28t122.5 -82t64 -122t19.5 -157q0 -97 -24 -238q-19 -108 -43.5 -188.5t-64.5 -150.5t-94 -114t-132 -68.5t-178 -24.5z
M426 152q61 0 107.5 19t77.5 50t54 84t36.5 107.5t27.5 134.5q25 139 25 207q0 107 -48 165t-167 58q-62 0 -110 -20t-79 -52.5t-55 -85.5t-37.5 -105.5t-26.5 -127.5q-20 -106 -20 -201q0 -111 48.5 -172t166.5 -61zM559 1255l-217 332h209l170 -332h-162z" />
    <glyph glyph-name="oacute" unicode="&#xf3;" horiz-adv-x="1028" 
d="M457 1255l291 332h215l-334 -332h-172zM412 -16q-110 0 -188.5 29t-123.5 83.5t-65.5 123.5t-20.5 159q0 83 25 229q18 105 43.5 186t66.5 151t96 115.5t132.5 71t175.5 25.5q111 0 189 -28t122.5 -82t64 -122t19.5 -157q0 -97 -24 -238q-19 -108 -43.5 -188.5
t-64.5 -150.5t-94 -114t-132 -68.5t-178 -24.5zM426 152q61 0 107.5 19t77.5 50t54 84t36.5 107.5t27.5 134.5q25 139 25 207q0 107 -48 165t-167 58q-62 0 -110 -20t-79 -52.5t-55 -85.5t-37.5 -105.5t-26.5 -127.5q-20 -106 -20 -201q0 -111 48.5 -172t166.5 -61z" />
    <glyph glyph-name="ocircumflex" unicode="&#xf4;" horiz-adv-x="1028" 
d="M276 1255l287 332h182l168 -332h-153l-129 197l-195 -197h-160zM412 -16q-110 0 -188.5 29t-123.5 83.5t-65.5 123.5t-20.5 159q0 83 25 229q18 105 43.5 186t66.5 151t96 115.5t132.5 71t175.5 25.5q111 0 189 -28t122.5 -82t64 -122t19.5 -157q0 -97 -24 -238
q-19 -108 -43.5 -188.5t-64.5 -150.5t-94 -114t-132 -68.5t-178 -24.5zM426 152q61 0 107.5 19t77.5 50t54 84t36.5 107.5t27.5 134.5q25 139 25 207q0 107 -48 165t-167 58q-62 0 -110 -20t-79 -52.5t-55 -85.5t-37.5 -105.5t-26.5 -127.5q-20 -106 -20 -201
q0 -111 48.5 -172t166.5 -61z" />
    <glyph glyph-name="otilde" unicode="&#xf5;" horiz-adv-x="1028" 
d="M412 -16q-110 0 -188.5 29t-123.5 83.5t-65.5 123.5t-20.5 159q0 83 25 229q18 105 43.5 186t66.5 151t96 115.5t132.5 71t175.5 25.5q111 0 189 -28t122.5 -82t64 -122t19.5 -157q0 -97 -24 -238q-19 -108 -43.5 -188.5t-64.5 -150.5t-94 -114t-132 -68.5t-178 -24.5z
M426 152q61 0 107.5 19t77.5 50t54 84t36.5 107.5t27.5 134.5q25 139 25 207q0 107 -48 165t-167 58q-62 0 -110 -20t-79 -52.5t-55 -85.5t-37.5 -105.5t-26.5 -127.5q-20 -106 -20 -201q0 -111 48.5 -172t166.5 -61zM371 1247l-123 82q103 160 232 160q44 0 92.5 -20
t90.5 -40t69 -20q63 0 129 92l120 -80q-102 -170 -227 -170q-47 0 -96.5 20.5t-91.5 41t-72 20.5q-35 0 -63.5 -20.5t-59.5 -65.5z" />
    <glyph glyph-name="odieresis" unicode="&#xf6;" horiz-adv-x="1028" 
d="M328 1255l39 215h172l-39 -215h-172zM690 1255l41 215h172l-39 -215h-174zM412 -16q-110 0 -188.5 29t-123.5 83.5t-65.5 123.5t-20.5 159q0 83 25 229q18 105 43.5 186t66.5 151t96 115.5t132.5 71t175.5 25.5q111 0 189 -28t122.5 -82t64 -122t19.5 -157
q0 -97 -24 -238q-19 -108 -43.5 -188.5t-64.5 -150.5t-94 -114t-132 -68.5t-178 -24.5zM426 152q61 0 107.5 19t77.5 50t54 84t36.5 107.5t27.5 134.5q25 139 25 207q0 107 -48 165t-167 58q-62 0 -110 -20t-79 -52.5t-55 -85.5t-37.5 -105.5t-26.5 -127.5
q-20 -106 -20 -201q0 -111 48.5 -172t166.5 -61z" />
    <glyph glyph-name="divide" unicode="&#xf7;" horiz-adv-x="1159" 
d="M389 256l37 201h203l-37 -201h-203zM145 633l29 178h830l-33 -178h-826zM520 985l33 201h203l-33 -201h-203z" />
    <glyph glyph-name="oslash" unicode="&#xf8;" horiz-adv-x="1028" 
d="M412 -16q-112 0 -205 34l-70 -106h-174l129 190q-78 99 -78 277q0 83 25 229q18 105 43.5 186t66.5 151t96 115.5t132.5 71t175.5 25.5q122 0 203 -35l69 103h176l-127 -189q74 -95 74 -268q0 -97 -24 -238q-19 -108 -43.5 -188.5t-64.5 -150.5t-94 -114t-132 -68.5
t-178 -24.5zM426 147q63 0 110 19.5t77.5 50.5t54 85.5t37.5 108.5t28 136q27 132 27 211q0 54 -12 98l-445 -684q48 -25 123 -25zM207 383q0 -67 12 -104l440 682q-49 22 -120 22q-62 0 -110 -20.5t-80 -53t-56 -86.5t-38 -107.5t-28 -129.5q-20 -152 -20 -203z" />
    <glyph glyph-name="ugrave" unicode="&#xf9;" horiz-adv-x="1015" 
d="M412 -16q-137 0 -220.5 32t-118 92.5t-38.5 148t18 198.5l121 682h193l-121 -684q-7 -44 -10.5 -71.5t-5 -62t4 -56t18 -44.5t34 -35t55 -20t78.5 -8q53 0 89.5 10.5t61 28t41 52.5t26.5 72t21 99l125 719h191l-129 -736q-21 -118 -48.5 -192t-77 -127.5t-123 -75.5
t-185.5 -22zM555 1255l-217 332h209l170 -332h-162z" />
    <glyph glyph-name="uacute" unicode="&#xfa;" horiz-adv-x="1015" 
d="M453 1255l290 332h215l-333 -332h-172zM412 -16q-137 0 -220.5 32t-118 92.5t-38.5 148t18 198.5l121 682h193l-121 -684q-7 -44 -10.5 -71.5t-5 -62t4 -56t18 -44.5t34 -35t55 -20t78.5 -8q53 0 89.5 10.5t61 28t41 52.5t26.5 72t21 99l125 719h191l-129 -736
q-21 -118 -48.5 -192t-77 -127.5t-123 -75.5t-185.5 -22z" />
    <glyph glyph-name="ucircumflex" unicode="&#xfb;" horiz-adv-x="1015" 
d="M272 1255l287 332h182l168 -332h-153l-129 197l-195 -197h-160zM412 -16q-137 0 -220.5 32t-118 92.5t-38.5 148t18 198.5l121 682h193l-121 -684q-7 -44 -10.5 -71.5t-5 -62t4 -56t18 -44.5t34 -35t55 -20t78.5 -8q53 0 89.5 10.5t61 28t41 52.5t26.5 72t21 99l125 719
h191l-129 -736q-21 -118 -48.5 -192t-77 -127.5t-123 -75.5t-185.5 -22z" />
    <glyph glyph-name="udieresis" unicode="&#xfc;" horiz-adv-x="1015" 
d="M324 1255l38 215h173l-39 -215h-172zM686 1255l41 215h172l-39 -215h-174zM412 -16q-137 0 -220.5 32t-118 92.5t-38.5 148t18 198.5l121 682h193l-121 -684q-7 -44 -10.5 -71.5t-5 -62t4 -56t18 -44.5t34 -35t55 -20t78.5 -8q53 0 89.5 10.5t61 28t41 52.5t26.5 72
t21 99l125 719h191l-129 -736q-21 -118 -48.5 -192t-77 -127.5t-123 -75.5t-185.5 -22z" />
    <glyph glyph-name="yacute" unicode="&#xfd;" horiz-adv-x="892" 
d="M-57 -324l26 158h90q48 0 71 15.5t44 58.5l45 96l-137 1133h201l86 -842l379 842h194l-608 -1276q-54 -112 -114 -148.5t-161 -36.5h-116zM395 1255l291 332h215l-334 -332h-172z" />
    <glyph glyph-name="thorn" unicode="&#xfe;" horiz-adv-x="1056" 
d="M-74 -324l334 1899h191l-91 -520q52 50 120.5 76t176.5 26q92 0 157 -26.5t100.5 -76t51 -110.5t15.5 -141q0 -108 -29 -271q-17 -100 -37.5 -175t-55 -148t-79 -119.5t-111.5 -75t-151 -28.5q-142 0 -217.5 34t-107.5 97l-76 -441h-191zM481 154q67 0 113.5 25
t77.5 79.5t49.5 119t36.5 165.5q24 120 24 217q0 105 -44 161t-150 56q-65 0 -113.5 -18.5t-80 -48t-55 -82.5t-37.5 -106t-28 -134q-22 -113 -22 -205q0 -112 50.5 -170.5t178.5 -58.5z" />
    <glyph glyph-name="ydieresis" unicode="&#xff;" horiz-adv-x="892" 
d="M-57 -324l26 158h90q48 0 71 15.5t44 58.5l45 96l-137 1133h201l86 -842l379 842h194l-608 -1276q-54 -112 -114 -148.5t-161 -36.5h-116zM266 1255l39 215h172l-39 -215h-172zM629 1255l41 215h172l-39 -215h-174z" />
    <glyph glyph-name="dotlessi" unicode="&#x131;" horiz-adv-x="436" 
d="M-10 0l200 1137h193l-203 -1137h-190z" />
    <glyph glyph-name="Lslash" unicode="&#x141;" horiz-adv-x="962" 
d="M-23 618l29 164l144 72l118 664h199l-98 -555l272 137l-29 -164l-272 -137l-111 -621h594l-30 -178h-793l121 690z" />
    <glyph glyph-name="lslash" unicode="&#x142;" horiz-adv-x="643" 
d="M49 799l29 168l180 94l92 514h191l-72 -404l199 105l-29 -170l-201 -105l-125 -712q-10 -45 -7 -72t29 -38t91 -11l-31 -168q-6 -2 -61 -2q-151 0 -197.5 61.5t-19.5 214.5l110 617z" />
    <glyph glyph-name="OE" unicode="&#x152;" horiz-adv-x="1910" 
d="M516 -12q-109 0 -192.5 25t-138 68.5t-89 107.5t-49 136t-14.5 160q0 126 35 320q24 136 54 238t80.5 197.5t118.5 156.5t168.5 97t229.5 36q284 0 395 -152l25 140h790l-33 -183h-616l-80 -463h582l-33 -180h-582l-90 -512h621l-33 -180h-795l19 111
q-145 -123 -373 -123zM545 162q65 0 118.5 13.5t94.5 37.5t74 62.5t56.5 82t43.5 104.5t33.5 120.5t27.5 138.5q33 191 33 289q0 62 -9 110.5t-30.5 91.5t-56 71t-88.5 44t-125 16q-90 0 -158.5 -27.5t-114.5 -72.5t-80.5 -120.5t-55.5 -154t-40 -190.5q-35 -202 -35 -289
q0 -157 70.5 -242t241.5 -85z" />
    <glyph glyph-name="oe" unicode="&#x153;" horiz-adv-x="1650" 
d="M1110 -14q-141 0 -223.5 39t-120.5 116q-108 -157 -354 -157q-110 0 -188.5 29t-123.5 83.5t-65.5 123.5t-20.5 159q0 83 25 229q18 105 43.5 186t66.5 151t96 115.5t132.5 71t175.5 25.5q254 0 330 -162q113 162 340 162q104 0 175.5 -21t111 -62.5t56.5 -94.5t17 -125
q0 -100 -49 -371h-635q-6 -61 -6 -110q0 -109 54 -165t186 -56q134 0 251 49l54 -150q-133 -65 -328 -65zM426 152q61 0 107.5 19t77.5 50t54 84t36.5 107.5t27.5 134.5q25 139 25 207q0 107 -48 165t-167 58q-62 0 -110 -20t-79 -52.5t-55 -85.5t-37.5 -105.5t-26.5 -127.5
q-20 -106 -20 -201q0 -111 48.5 -172t166.5 -61zM1212 987q-54 0 -95.5 -15t-70.5 -41.5t-52 -70t-37.5 -92t-28.5 -115.5h454q21 139 21 172q0 80 -41 121t-150 41z" />
    <glyph glyph-name="Scaron" unicode="&#x160;" horiz-adv-x="1079" 
d="M598 1604l-170 331h156l125 -198l196 198h160l-289 -331h-178zM451 -16q-311 0 -508 139l110 153q177 -122 400 -122q140 0 216 69t76 201q0 95 -60.5 153t-213.5 136q-100 51 -163.5 101t-101.5 120t-38 156q0 219 133 331.5t348 112.5q249 0 410 -94l-96 -168
q-132 78 -322 78q-131 0 -202.5 -63.5t-71.5 -178.5q0 -55 24.5 -95.5t68.5 -72t132 -78.5q76 -40 125 -70t96 -68.5t73 -76.5t42 -88t16 -110q0 -231 -133.5 -348t-359.5 -117z" />
    <glyph glyph-name="scaron" unicode="&#x161;" horiz-adv-x="804" 
d="M403 1255l-170 332h156l125 -198l197 198h159l-288 -332h-179zM313 -14q-226 0 -399 102l100 148q140 -91 303 -91q80 0 129.5 40t49.5 130q0 61 -38 99.5t-147 101.5q-119 68 -177 136t-58 165q0 74 21 132.5t56 97t83.5 64t101 36t111.5 10.5q197 0 327 -76l-98 -151
q-101 59 -244 59q-170 0 -170 -162q0 -50 42 -88.5t136 -93.5q123 -70 180.5 -140.5t57.5 -178.5q0 -94 -31.5 -163t-85.5 -106t-116 -54t-134 -17z" />
    <glyph glyph-name="Ydieresis" unicode="&#x178;" horiz-adv-x="1142" 
d="M338 0l98 555l-284 963h208l211 -746l478 746h211l-627 -965l-96 -553h-199zM451 1603l39 215h172l-39 -215h-172zM814 1603l41 215h172l-39 -215h-174z" />
    <glyph glyph-name="Zcaron" unicode="&#x17d;" horiz-adv-x="1064" 
d="M590 1604l-170 331h155l125 -198l197 198h160l-289 -331h-178zM-70 0l25 154l883 1181h-643l32 183h885l-29 -164l-878 -1176h688l-31 -178h-932z" />
    <glyph glyph-name="zcaron" unicode="&#x17e;" horiz-adv-x="815" 
d="M408 1255l-170 332h155l125 -198l197 198h159l-288 -332h-178zM-92 0l22 133l625 836h-446l30 168h684l-22 -133l-631 -846h498l-29 -158h-731z" />
    <glyph glyph-name="florin" unicode="&#x192;" horiz-adv-x="915" 
d="M121 758l33 170h186l49 272q8 45 14.5 76t18.5 67t26.5 59.5t37 47.5t51.5 37.5t69.5 22t91.5 8.5q17 0 64.5 -1t56.5 -1l-31 -168h-73q-32 0 -55 -10t-35.5 -22t-22.5 -39t-14 -45t-10 -56l-46 -248h283l-31 -170h-280l-193 -1082h-190l190 1082h-190z" />
    <glyph glyph-name="circumflex" unicode="&#x2c6;" 
d="M250 1255l287 332h182l168 -332h-154l-129 197l-194 -197h-160z" />
    <glyph glyph-name="caron" unicode="&#x2c7;" 
d="M481 1255l-170 332h156l125 -198l196 198h160l-289 -332h-178z" />
    <glyph glyph-name="breve" unicode="&#x2d8;" 
d="M610 1245q-79 0 -135 14.5t-89.5 38t-53 62.5t-26.5 79t-9 97l145 20q3 -83 39.5 -122t132.5 -39q80 0 124.5 42.5t66.5 123.5l141 -23q-37 -142 -117.5 -217.5t-218.5 -75.5z" />
    <glyph glyph-name="dotaccent" unicode="&#x2d9;" 
d="M473 1255l41 230h195l-41 -230h-195z" />
    <glyph glyph-name="ring" unicode="&#x2da;" 
d="M592 1343q64 0 98.5 48t34.5 131q0 98 -96 98q-62 0 -97.5 -48.5t-35.5 -131.5q0 -43 23.5 -70t72.5 -27zM586 1241q-102 0 -149.5 52t-47.5 137q0 135 64 213.5t182 78.5q102 0 149 -52t47 -140q0 -131 -65.5 -210t-179.5 -79z" />
    <glyph glyph-name="ogonek" unicode="&#x2db;" horiz-adv-x="966" 
d="M336 -442q-238 0 -238 153q0 57 24 111t63 94t77 68t76 47h143q-102 -66 -167.5 -138.5t-65.5 -142.5q0 -69 110 -69h48l-25 -123h-45z" />
    <glyph glyph-name="tilde" unicode="&#x2dc;" 
d="M344 1247l-123 82q103 160 232 160q44 0 92.5 -20t90.5 -40t69 -20q63 0 129 92l120 -80q-102 -170 -227 -170q-47 0 -96.5 20.5t-91.5 41t-72 20.5q-35 0 -63.5 -20.5t-59.5 -65.5z" />
    <glyph glyph-name="hungarumlaut" unicode="&#x2dd;" 
d="M264 1255l283 332h201l-330 -332h-154zM641 1255l281 332h200l-327 -332h-154z" />
    <glyph glyph-name="Delta" unicode="&#x394;" horiz-adv-x="1073" 
d="M74 969l32 168h173l28 155q27 153 107.5 220t253.5 67h100l-31 -170h-78q-46 0 -76.5 -10.5t-48 -35t-26 -50t-16.5 -68.5l-21 -108h221l-30 -168h-220l-227 -1293h-192l227 1293h-176zM451 -324l26 158h17q64 0 87 26t37 105l207 1172h193l-213 -1198q-19 -107 -52 -162
t-94 -78t-172 -23h-36zM848 1276l43 231h192l-41 -231h-194z" />
    <glyph glyph-name="Delta" unicode="&#x2206;" horiz-adv-x="1073" 
d="M74 969l32 168h173l28 155q27 153 107.5 220t253.5 67h100l-31 -170h-78q-46 0 -76.5 -10.5t-48 -35t-26 -50t-16.5 -68.5l-21 -108h221l-30 -168h-220l-227 -1293h-192l227 1293h-176zM451 -324l26 158h17q64 0 87 26t37 105l207 1172h193l-213 -1198q-19 -107 -52 -162
t-94 -78t-172 -23h-36zM848 1276l43 231h192l-41 -231h-194z" />
    <glyph glyph-name="Omega" unicode="&#x3a9;" horiz-adv-x="1703" 
d="M258 246q-88 105 -136 237t-48 277q0 144 48 276t136 236q6 -4 14 -12q-85 -103 -131.5 -231.5t-46.5 -268.5q0 -285 180 -500zM467 432q-117 143 -117 328q0 183 115 327q3 -2 8 -7t8 -7q-110 -136 -110 -313q0 -182 110 -314zM541 498q-92 116 -92 262t92 262
q3 -2 8 -7t8 -7q-88 -109 -88 -248t88 -248q-3 -2 -8 -7t-8 -7zM647 592q-57 72 -57 168q0 97 57 166l15 -15q-52 -69 -52 -151q0 -84 54 -154q-3 -2 -8.5 -7t-8.5 -7zM715 655q-33 48 -33 105q0 56 33 104q3 -2 8 -7t8 -7q-29 -44 -29 -90t29 -90q-3 -2 -16 -15zM774 709
q-14 25 -14 51t14 51l12 -10q-10 -20 -10 -41t10 -41q-4 -4 -12 -10zM852 123q-236 0 -412 158l2.5 2.5l5 5l5.5 5.5t2 1q171 -152 397 -152q227 0 395 152q2 -3 7.5 -8t7.5 -8q-177 -156 -410 -156zM852 664q-31 0 -55 18l12 12q21 -14 43 -14q26 0 43 14q4 -4 10 -12
q-21 -18 -53 -18zM987 653q-7 10 -14 15q28 42 28 92q0 51 -28 90l2.5 2.5t5 4.5t5.5 5t1 2q35 -44 35 -104t-35 -107zM598 551q-72 91 -72 209q0 119 74 209l14 -15q-67 -87 -67 -194q0 -108 67 -195q-10 -10 -16 -14zM852 -35q-145 0 -278 52.5t-238 146.5l14 16
q102 -92 231 -143t271 -51q285 0 500 192q0 1 3.5 -2.5t6.5 -7.5l4 -4q-104 -95 -236 -147t-278 -52zM852 248q-189 0 -330 125l15 16q134 -121 315 -121q182 0 313 121q2 -3 7.5 -8t7.5 -8q-138 -125 -328 -125zM852 348q-145 0 -264 101l14 14q108 -94 250 -94
q143 0 248 94q2 -3 7 -8.5t7 -8.5q-112 -98 -262 -98zM852 428q-116 0 -211 78l14 16q86 -73 197 -73t197 73q4 -4 12 -16q-91 -78 -209 -78zM852 543q-77 0 -135 49l14 16q51 -45 121 -45q68 0 119 45q2 -3 7 -8t7 -8q-58 -49 -133 -49zM733 911q-4 3 -7 6.5t-6 6.5l-3 4
q58 49 135 49t135 -49l-16 -17q-51 45 -119 45t-119 -45zM1167 1130q-134 121 -315 121q-179 0 -313 -118l-15 14q141 125 328 125q189 0 330 -125q-4 -6 -15 -17zM930 709l-12 10q10 20 10 41t-10 41l12 10q14 -25 14 -51t-14 -51zM958 682q-10 10 -16 14q21 32 21 64
t-21 63l16 15q25 -36 25 -78t-25 -78zM1020 627q-6 4 -16 14q38 50 38 119t-38 119l14 14q45 -57 45 -133q0 -71 -43 -133zM1106 551q-3 2 -8 7t-8 7q67 87 67 195t-70 194l17 15q74 -90 74 -209q0 -118 -72 -209zM1163 498q-10 10 -16 14q88 109 88 248t-88 248l16 14
q92 -116 92 -262t-92 -262zM1237 432q-6 4 -16 14q112 134 112 314q0 182 -112 313l16 14q117 -139 117 -327q0 -189 -117 -328zM1329 350q-2 2 -7 6t-7 6q141 175 141 398q0 227 -143 395l16 14q148 -179 148 -409q0 -231 -148 -410zM1446 246q-6 6 -16 14q180 215 180 500
t-180 500l16 14q88 -105 136 -237t48 -277q0 -144 -48 -276t-136 -238zM375 348q-148 182 -148 412q0 229 146 409q2 -2 7.5 -6.5t8.5 -7.5q-141 -170 -141 -395q0 -228 141 -398zM684 627q-43 59 -43 133t43 133q6 -4 16 -14q-38 -50 -38 -119q0 -67 38 -117zM745 682
q-24 34 -24 78t24 78q2 -3 4.5 -5.5t6 -5.5t4.5 -4q-19 -34 -19 -63q0 -30 19 -64zM809 825l-10 13q21 18 53 18t53 -18l-10 -13q-23 15 -43 15q-25 0 -43 -15zM786 852l-14 14q37 29 80 29q41 0 78 -29q-8 -8 -12 -14q-28 25 -66 25q-34 0 -66 -25zM760 881l-15 16
q45 39 107 39q61 0 106 -39l-14 -16q-37 34 -92 34t-92 -34zM604 1057l-14 16q112 98 262 98q151 0 262 -100q1 0 -2 -3.5t-6 -7.5l-4 -3q-108 94 -250 94q-143 0 -248 -94zM852 492q-100 0 -170 61l14 16q70 -57 156 -57q87 0 154 57l14 -14q-73 -63 -168 -63zM852 584
q-61 0 -109 39l15 16q47 -35 94 -35q51 0 92 35l14 -16q-45 -39 -106 -39zM852 625q-43 0 -82 28l14 15q36 -25 68 -25q34 0 66 25l14 -15q-36 -28 -80 -28zM698 950l-14 15q73 63 168 63q98 0 168 -61l-14 -17q-68 58 -154 58q-87 0 -154 -58zM655 997l-14 17q91 78 211 78
q119 0 209 -80l-12 -15q-83 74 -197 74q-110 0 -197 -74zM1249 1223q-166 153 -397 153q-227 0 -397 -151l-15 14q179 158 412 158t412 -158zM352 1339l-14 17q104 95 236 146.5t278 51.5q145 0 278 -52t238 -146l-14 -17q-102 93 -231 144t-271 51t-270 -51t-230 -144z
M1057 594l-15 14q52 69 52 152t-54 153l17 15q57 -72 57 -168q0 -97 -57 -166z" />
    <glyph glyph-name="Omega" unicode="&#x2126;" horiz-adv-x="1703" 
d="M258 246q-88 105 -136 237t-48 277q0 144 48 276t136 236q6 -4 14 -12q-85 -103 -131.5 -231.5t-46.5 -268.5q0 -285 180 -500zM467 432q-117 143 -117 328q0 183 115 327q3 -2 8 -7t8 -7q-110 -136 -110 -313q0 -182 110 -314zM541 498q-92 116 -92 262t92 262
q3 -2 8 -7t8 -7q-88 -109 -88 -248t88 -248q-3 -2 -8 -7t-8 -7zM647 592q-57 72 -57 168q0 97 57 166l15 -15q-52 -69 -52 -151q0 -84 54 -154q-3 -2 -8.5 -7t-8.5 -7zM715 655q-33 48 -33 105q0 56 33 104q3 -2 8 -7t8 -7q-29 -44 -29 -90t29 -90q-3 -2 -16 -15zM774 709
q-14 25 -14 51t14 51l12 -10q-10 -20 -10 -41t10 -41q-4 -4 -12 -10zM852 123q-236 0 -412 158l2.5 2.5l5 5l5.5 5.5t2 1q171 -152 397 -152q227 0 395 152q2 -3 7.5 -8t7.5 -8q-177 -156 -410 -156zM852 664q-31 0 -55 18l12 12q21 -14 43 -14q26 0 43 14q4 -4 10 -12
q-21 -18 -53 -18zM987 653q-7 10 -14 15q28 42 28 92q0 51 -28 90l2.5 2.5t5 4.5t5.5 5t1 2q35 -44 35 -104t-35 -107zM598 551q-72 91 -72 209q0 119 74 209l14 -15q-67 -87 -67 -194q0 -108 67 -195q-10 -10 -16 -14zM852 -35q-145 0 -278 52.5t-238 146.5l14 16
q102 -92 231 -143t271 -51q285 0 500 192q0 1 3.5 -2.5t6.5 -7.5l4 -4q-104 -95 -236 -147t-278 -52zM852 248q-189 0 -330 125l15 16q134 -121 315 -121q182 0 313 121q2 -3 7.5 -8t7.5 -8q-138 -125 -328 -125zM852 348q-145 0 -264 101l14 14q108 -94 250 -94
q143 0 248 94q2 -3 7 -8.5t7 -8.5q-112 -98 -262 -98zM852 428q-116 0 -211 78l14 16q86 -73 197 -73t197 73q4 -4 12 -16q-91 -78 -209 -78zM852 543q-77 0 -135 49l14 16q51 -45 121 -45q68 0 119 45q2 -3 7 -8t7 -8q-58 -49 -133 -49zM733 911q-4 3 -7 6.5t-6 6.5l-3 4
q58 49 135 49t135 -49l-16 -17q-51 45 -119 45t-119 -45zM1167 1130q-134 121 -315 121q-179 0 -313 -118l-15 14q141 125 328 125q189 0 330 -125q-4 -6 -15 -17zM930 709l-12 10q10 20 10 41t-10 41l12 10q14 -25 14 -51t-14 -51zM958 682q-10 10 -16 14q21 32 21 64
t-21 63l16 15q25 -36 25 -78t-25 -78zM1020 627q-6 4 -16 14q38 50 38 119t-38 119l14 14q45 -57 45 -133q0 -71 -43 -133zM1106 551q-3 2 -8 7t-8 7q67 87 67 195t-70 194l17 15q74 -90 74 -209q0 -118 -72 -209zM1163 498q-10 10 -16 14q88 109 88 248t-88 248l16 14
q92 -116 92 -262t-92 -262zM1237 432q-6 4 -16 14q112 134 112 314q0 182 -112 313l16 14q117 -139 117 -327q0 -189 -117 -328zM1329 350q-2 2 -7 6t-7 6q141 175 141 398q0 227 -143 395l16 14q148 -179 148 -409q0 -231 -148 -410zM1446 246q-6 6 -16 14q180 215 180 500
t-180 500l16 14q88 -105 136 -237t48 -277q0 -144 -48 -276t-136 -238zM375 348q-148 182 -148 412q0 229 146 409q2 -2 7.5 -6.5t8.5 -7.5q-141 -170 -141 -395q0 -228 141 -398zM684 627q-43 59 -43 133t43 133q6 -4 16 -14q-38 -50 -38 -119q0 -67 38 -117zM745 682
q-24 34 -24 78t24 78q2 -3 4.5 -5.5t6 -5.5t4.5 -4q-19 -34 -19 -63q0 -30 19 -64zM809 825l-10 13q21 18 53 18t53 -18l-10 -13q-23 15 -43 15q-25 0 -43 -15zM786 852l-14 14q37 29 80 29q41 0 78 -29q-8 -8 -12 -14q-28 25 -66 25q-34 0 -66 -25zM760 881l-15 16
q45 39 107 39q61 0 106 -39l-14 -16q-37 34 -92 34t-92 -34zM604 1057l-14 16q112 98 262 98q151 0 262 -100q1 0 -2 -3.5t-6 -7.5l-4 -3q-108 94 -250 94q-143 0 -248 -94zM852 492q-100 0 -170 61l14 16q70 -57 156 -57q87 0 154 57l14 -14q-73 -63 -168 -63zM852 584
q-61 0 -109 39l15 16q47 -35 94 -35q51 0 92 35l14 -16q-45 -39 -106 -39zM852 625q-43 0 -82 28l14 15q36 -25 68 -25q34 0 66 25l14 -15q-36 -28 -80 -28zM698 950l-14 15q73 63 168 63q98 0 168 -61l-14 -17q-68 58 -154 58q-87 0 -154 -58zM655 997l-14 17q91 78 211 78
q119 0 209 -80l-12 -15q-83 74 -197 74q-110 0 -197 -74zM1249 1223q-166 153 -397 153q-227 0 -397 -151l-15 14q179 158 412 158t412 -158zM352 1339l-14 17q104 95 236 146.5t278 51.5q145 0 278 -52t238 -146l-14 -17q-102 93 -231 144t-271 51t-270 -51t-230 -144z
M1057 594l-15 14q52 69 52 152t-54 153l17 15q57 -72 57 -168q0 -97 -57 -166z" />
    <glyph glyph-name="pi" unicode="&#x3c0;" horiz-adv-x="1366" 
d="M686 -20q-139 0 -244.5 38t-173 104t-109.5 166t-58.5 213.5t-16.5 256.5q0 119 12 217t38.5 188.5t72.5 157.5t111.5 117.5t158 76t209.5 25.5q139 0 244 -38t172.5 -105t109.5 -167t59 -214t17 -258q0 -143 -17 -256.5t-59 -213.5t-109.5 -166t-172.5 -104t-244 -38z
M686 61q120 0 211 34t149 93t93.5 149t50 191.5t14.5 229.5q0 130 -14.5 232t-50 192t-93.5 149t-149 93t-211 34t-210.5 -34t-148 -93t-92.5 -149.5t-49 -192t-14 -231.5q0 -129 14 -230t49 -191t92.5 -149t148 -93t210.5 -34zM412 244v1016h340q165 0 232 -73t67 -235
q0 -160 -68 -234.5t-233 -74.5h-209v-399h-129zM541 750h207q96 0 136 44.5t40 151.5q0 110 -40 154.5t-136 44.5h-207v-395z" />
    <glyph glyph-name="endash" unicode="&#x2013;" horiz-adv-x="1148" 
d="M41 557l31 176h997l-31 -176h-997z" />
    <glyph glyph-name="emdash" unicode="&#x2014;" horiz-adv-x="1507" 
d="M41 557l31 176h1353l-28 -176h-1356z" />
    <glyph glyph-name="quoteleft" unicode="&#x2018;" horiz-adv-x="442" 
d="M147 999l43 240q21 117 67 176t163 107l37 -101q-74 -39 -100 -68t-35 -85h106l-49 -269h-232z" />
    <glyph glyph-name="quoteright" unicode="&#x2019;" horiz-adv-x="442" 
d="M197 995l-37 101q76 39 103 68t34 85h-104l47 269h233l-45 -238q-21 -120 -66.5 -178.5t-164.5 -106.5z" />
    <glyph glyph-name="quotesinglbase" unicode="&#x201a;" horiz-adv-x="442" 
d="M-20 -254l-39 100q75 38 100.5 67.5t36.5 86.5h-107l47 268h232l-41 -237q-22 -121 -67 -179t-162 -106z" />
    <glyph glyph-name="quotedblleft" unicode="&#x201c;" horiz-adv-x="788" 
d="M150 1010l40 237q21 116 66.5 172.5t161.5 102.5l35 -97q-73 -39 -99.5 -68t-36.5 -85h105l-45 -262h-227zM500 1010l43 237q21 118 64.5 173.5t160.5 101.5l35 -97q-74 -39 -100 -68t-35 -85h104l-45 -262h-227z" />
    <glyph glyph-name="quotedblright" unicode="&#x201d;" horiz-adv-x="786" 
d="M197 1006l-37 96q75 37 101.5 66t35.5 83h-104l47 267h225l-43 -238q-19 -118 -63 -173t-162 -101zM549 1006l-35 96q73 36 98.5 65t34.5 84h-104l47 267h227l-43 -238q-19 -117 -63.5 -172t-161.5 -102z" />
    <glyph glyph-name="quotedblbase" unicode="&#x201e;" horiz-adv-x="786" 
d="M51 -246l-39 96q70 38 93 68t28 86h-104l32 264h226l-29 -237q-11 -118 -51.5 -174.5t-155.5 -102.5zM401 -246l-39 96q71 38 93.5 67.5t27.5 86.5h-104l33 264h227l-29 -237q-12 -118 -53 -174.5t-156 -102.5z" />
    <glyph glyph-name="dagger" unicode="&#x2020;" horiz-adv-x="937" 
d="M182 -324l224 1262h-285l31 178h284l82 459h191l-80 -459h284l-30 -178h-289l-221 -1262h-191z" />
    <glyph glyph-name="daggerdbl" unicode="&#x2021;" horiz-adv-x="937" 
d="M182 -324l86 482h-284l30 178h285l109 606h-287l31 180h284l82 453h191l-80 -453h284l-30 -180h-287l-107 -606h287l-31 -178h-286l-86 -482h-191z" />
    <glyph glyph-name="bullet" unicode="&#x2022;" horiz-adv-x="608" 
d="M102 442l62 361h293l-64 -361h-291z" />
    <glyph glyph-name="ellipsis" unicode="&#x2026;" horiz-adv-x="1263" 
d="M-29 0l45 258h232l-43 -258h-234zM383 0l45 258h231l-45 -258h-231zM793 0l47 258h229l-47 -258h-229z" />
    <glyph glyph-name="perthousand" unicode="&#x2030;" horiz-adv-x="2635" 
d="M399 565q-153 0 -228 76t-75 236q0 63 21 200q23 131 59 221t87 140.5t110 72t137 21.5q153 0 228 -76.5t75 -236.5q0 -76 -20 -203q-19 -105 -46.5 -183.5t-62 -129.5t-80 -82t-94.5 -43.5t-111 -12.5zM399 713q61 0 99.5 26.5t68 95.5t51.5 195q21 111 21 180
q0 88 -32.5 127t-104.5 39q-86 0 -132.5 -70t-80.5 -251q-19 -114 -19 -178q0 -86 30.5 -125t98.5 -39zM1356 -16q-153 0 -227 75.5t-74 237.5q0 80 22 199q22 131 58.5 221t87 141t109.5 72.5t136 21.5q153 0 228.5 -76.5t75.5 -238.5q0 -89 -23 -201q-22 -131 -58 -220.5
t-87 -139.5t-110.5 -71t-137.5 -21zM1356 131q92 0 141 68t80 252q20 103 20 178q0 88 -32.5 127t-102.5 39q-88 0 -134.5 -70t-78.5 -252q-20 -120 -20 -176q0 -86 31 -126t96 -40zM2126 -16q-153 0 -227 75.5t-74 237.5q0 80 22 199q22 131 58.5 221t87 141t109.5 72.5
t136 21.5q153 0 228.5 -76.5t75.5 -238.5q0 -73 -23 -201q-22 -131 -58 -220.5t-87 -139.5t-110.5 -71t-137.5 -21zM2126 131q91 0 139.5 67.5t81.5 252.5q20 103 20 178q0 88 -32.5 127t-102.5 39q-89 0 -135 -69.5t-78 -252.5q-22 -113 -22 -176q0 -85 32 -125.5t97 -40.5
zM377 0l936 1518h180l-938 -1518h-178z" />
    <glyph glyph-name="guilsinglleft" unicode="&#x2039;" horiz-adv-x="739" 
d="M252 0l-148 567l351 570h174l-334 -570l133 -567h-176z" />
    <glyph glyph-name="guilsinglright" unicode="&#x203a;" horiz-adv-x="739" 
d="M43 0l336 569l-133 568h176l147 -568l-348 -569h-178z" />
    <glyph glyph-name="fraction" unicode="&#x2044;" horiz-adv-x="854" 
d="M-127 0l934 1518h174l-934 -1518h-174z" />
    <glyph glyph-name="fraction" unicode="&#x2215;" horiz-adv-x="854" 
d="M-127 0l934 1518h174l-934 -1518h-174z" />
    <glyph glyph-name="Euro" unicode="&#x20ac;" horiz-adv-x="1118" 
d="M72 840l28 157h181q71 290 189 413.5t331 123.5q123 0 208 -27.5t160 -76.5l-112 -156q-110 74 -262 74q-129 0 -200 -81t-118 -270h414l-29 -157h-418q-2 -10 -5 -31t-5 -31q-13 -61 -16 -84h420l-29 -159h-410q-4 -35 -4 -95q0 -142 54.5 -210t183.5 -68q107 0 227 55
l72 -151q-158 -82 -326 -82q-216 0 -310.5 105.5t-94.5 324.5q0 35 4 121h-187l29 159h176q2 13 17 103q4 30 8 43h-176z" />
    <glyph glyph-name="trademark" unicode="&#x2122;" horiz-adv-x="1765" 
d="M758 569l168 949h161l101 -711l350 711h166l-168 -949h-143l116 656l-319 -656h-94l-88 656l-115 -656h-135zM295 569l145 815h-254l23 134h657l-24 -134h-256l-142 -815h-149z" />
    <glyph glyph-name="partialdiff" unicode="&#x2202;" horiz-adv-x="1703" 
d="M258 246q-88 105 -136 237t-48 277q0 144 48 276t136 236q6 -4 14 -12q-85 -103 -131.5 -231.5t-46.5 -268.5q0 -285 180 -500zM467 432q-117 143 -117 328q0 183 115 327q3 -2 8 -7t8 -7q-110 -136 -110 -313q0 -182 110 -314zM541 498q-92 116 -92 262t92 262
q3 -2 8 -7t8 -7q-88 -109 -88 -248t88 -248q-3 -2 -8 -7t-8 -7zM647 592q-57 72 -57 168q0 97 57 166l15 -15q-52 -69 -52 -151q0 -84 54 -154q-3 -2 -8.5 -7t-8.5 -7zM715 655q-33 48 -33 105q0 56 33 104q3 -2 8 -7t8 -7q-29 -44 -29 -90t29 -90q-3 -2 -16 -15zM774 709
q-14 25 -14 51t14 51l12 -10q-10 -20 -10 -41t10 -41q-4 -4 -12 -10zM852 123q-236 0 -412 158l2.5 2.5l5 5l5.5 5.5t2 1q171 -152 397 -152q227 0 395 152q2 -3 7.5 -8t7.5 -8q-177 -156 -410 -156zM852 664q-31 0 -55 18l12 12q21 -14 43 -14q26 0 43 14q4 -4 10 -12
q-21 -18 -53 -18zM987 653q-7 10 -14 15q28 42 28 92q0 51 -28 90l2.5 2.5t5 4.5t5.5 5t1 2q35 -44 35 -104t-35 -107zM598 551q-72 91 -72 209q0 119 74 209l14 -15q-67 -87 -67 -194q0 -108 67 -195q-10 -10 -16 -14zM852 -35q-145 0 -278 52.5t-238 146.5l14 16
q102 -92 231 -143t271 -51q285 0 500 192q0 1 3.5 -2.5t6.5 -7.5l4 -4q-104 -95 -236 -147t-278 -52zM852 248q-189 0 -330 125l15 16q134 -121 315 -121q182 0 313 121q2 -3 7.5 -8t7.5 -8q-138 -125 -328 -125zM852 348q-145 0 -264 101l14 14q108 -94 250 -94
q143 0 248 94q2 -3 7 -8.5t7 -8.5q-112 -98 -262 -98zM852 428q-116 0 -211 78l14 16q86 -73 197 -73t197 73q4 -4 12 -16q-91 -78 -209 -78zM852 543q-77 0 -135 49l14 16q51 -45 121 -45q68 0 119 45q2 -3 7 -8t7 -8q-58 -49 -133 -49zM733 911q-4 3 -7 6.5t-6 6.5l-3 4
q58 49 135 49t135 -49l-16 -17q-51 45 -119 45t-119 -45zM1167 1130q-134 121 -315 121q-179 0 -313 -118l-15 14q141 125 328 125q189 0 330 -125q-4 -6 -15 -17zM930 709l-12 10q10 20 10 41t-10 41l12 10q14 -25 14 -51t-14 -51zM958 682q-10 10 -16 14q21 32 21 64
t-21 63l16 15q25 -36 25 -78t-25 -78zM1020 627q-6 4 -16 14q38 50 38 119t-38 119l14 14q45 -57 45 -133q0 -71 -43 -133zM1106 551q-3 2 -8 7t-8 7q67 87 67 195t-70 194l17 15q74 -90 74 -209q0 -118 -72 -209zM1163 498q-10 10 -16 14q88 109 88 248t-88 248l16 14
q92 -116 92 -262t-92 -262zM1237 432q-6 4 -16 14q112 134 112 314q0 182 -112 313l16 14q117 -139 117 -327q0 -189 -117 -328zM1329 350q-2 2 -7 6t-7 6q141 175 141 398q0 227 -143 395l16 14q148 -179 148 -409q0 -231 -148 -410zM1446 246q-6 6 -16 14q180 215 180 500
t-180 500l16 14q88 -105 136 -237t48 -277q0 -144 -48 -276t-136 -238zM375 348q-148 182 -148 412q0 229 146 409q2 -2 7.5 -6.5t8.5 -7.5q-141 -170 -141 -395q0 -228 141 -398zM684 627q-43 59 -43 133t43 133q6 -4 16 -14q-38 -50 -38 -119q0 -67 38 -117zM745 682
q-24 34 -24 78t24 78q2 -3 4.5 -5.5t6 -5.5t4.5 -4q-19 -34 -19 -63q0 -30 19 -64zM809 825l-10 13q21 18 53 18t53 -18l-10 -13q-23 15 -43 15q-25 0 -43 -15zM786 852l-14 14q37 29 80 29q41 0 78 -29q-8 -8 -12 -14q-28 25 -66 25q-34 0 -66 -25zM760 881l-15 16
q45 39 107 39q61 0 106 -39l-14 -16q-37 34 -92 34t-92 -34zM604 1057l-14 16q112 98 262 98q151 0 262 -100q1 0 -2 -3.5t-6 -7.5l-4 -3q-108 94 -250 94q-143 0 -248 -94zM852 492q-100 0 -170 61l14 16q70 -57 156 -57q87 0 154 57l14 -14q-73 -63 -168 -63zM852 584
q-61 0 -109 39l15 16q47 -35 94 -35q51 0 92 35l14 -16q-45 -39 -106 -39zM852 625q-43 0 -82 28l14 15q36 -25 68 -25q34 0 66 25l14 -15q-36 -28 -80 -28zM698 950l-14 15q73 63 168 63q98 0 168 -61l-14 -17q-68 58 -154 58q-87 0 -154 -58zM655 997l-14 17q91 78 211 78
q119 0 209 -80l-12 -15q-83 74 -197 74q-110 0 -197 -74zM1249 1223q-166 153 -397 153q-227 0 -397 -151l-15 14q179 158 412 158t412 -158zM352 1339l-14 17q104 95 236 146.5t278 51.5q145 0 278 -52t238 -146l-14 -17q-102 93 -231 144t-271 51t-270 -51t-230 -144z
M1057 594l-15 14q52 69 52 152t-54 153l17 15q57 -72 57 -168q0 -97 -57 -166z" />
    <glyph glyph-name="product" unicode="&#x220f;" horiz-adv-x="1703" 
d="M258 246q-88 105 -136 237t-48 277q0 144 48 276t136 236q6 -4 14 -12q-85 -103 -131.5 -231.5t-46.5 -268.5q0 -285 180 -500zM467 432q-117 143 -117 328q0 183 115 327q3 -2 8 -7t8 -7q-110 -136 -110 -313q0 -182 110 -314zM541 498q-92 116 -92 262t92 262
q3 -2 8 -7t8 -7q-88 -109 -88 -248t88 -248q-3 -2 -8 -7t-8 -7zM647 592q-57 72 -57 168q0 97 57 166l15 -15q-52 -69 -52 -151q0 -84 54 -154q-3 -2 -8.5 -7t-8.5 -7zM715 655q-33 48 -33 105q0 56 33 104q3 -2 8 -7t8 -7q-29 -44 -29 -90t29 -90q-3 -2 -16 -15zM774 709
q-14 25 -14 51t14 51l12 -10q-10 -20 -10 -41t10 -41q-4 -4 -12 -10zM852 123q-236 0 -412 158l2.5 2.5l5 5l5.5 5.5t2 1q171 -152 397 -152q227 0 395 152q2 -3 7.5 -8t7.5 -8q-177 -156 -410 -156zM852 664q-31 0 -55 18l12 12q21 -14 43 -14q26 0 43 14q4 -4 10 -12
q-21 -18 -53 -18zM987 653q-7 10 -14 15q28 42 28 92q0 51 -28 90l2.5 2.5t5 4.5t5.5 5t1 2q35 -44 35 -104t-35 -107zM598 551q-72 91 -72 209q0 119 74 209l14 -15q-67 -87 -67 -194q0 -108 67 -195q-10 -10 -16 -14zM852 -35q-145 0 -278 52.5t-238 146.5l14 16
q102 -92 231 -143t271 -51q285 0 500 192q0 1 3.5 -2.5t6.5 -7.5l4 -4q-104 -95 -236 -147t-278 -52zM852 248q-189 0 -330 125l15 16q134 -121 315 -121q182 0 313 121q2 -3 7.5 -8t7.5 -8q-138 -125 -328 -125zM852 348q-145 0 -264 101l14 14q108 -94 250 -94
q143 0 248 94q2 -3 7 -8.5t7 -8.5q-112 -98 -262 -98zM852 428q-116 0 -211 78l14 16q86 -73 197 -73t197 73q4 -4 12 -16q-91 -78 -209 -78zM852 543q-77 0 -135 49l14 16q51 -45 121 -45q68 0 119 45q2 -3 7 -8t7 -8q-58 -49 -133 -49zM733 911q-4 3 -7 6.5t-6 6.5l-3 4
q58 49 135 49t135 -49l-16 -17q-51 45 -119 45t-119 -45zM1167 1130q-134 121 -315 121q-179 0 -313 -118l-15 14q141 125 328 125q189 0 330 -125q-4 -6 -15 -17zM930 709l-12 10q10 20 10 41t-10 41l12 10q14 -25 14 -51t-14 -51zM958 682q-10 10 -16 14q21 32 21 64
t-21 63l16 15q25 -36 25 -78t-25 -78zM1020 627q-6 4 -16 14q38 50 38 119t-38 119l14 14q45 -57 45 -133q0 -71 -43 -133zM1106 551q-3 2 -8 7t-8 7q67 87 67 195t-70 194l17 15q74 -90 74 -209q0 -118 -72 -209zM1163 498q-10 10 -16 14q88 109 88 248t-88 248l16 14
q92 -116 92 -262t-92 -262zM1237 432q-6 4 -16 14q112 134 112 314q0 182 -112 313l16 14q117 -139 117 -327q0 -189 -117 -328zM1329 350q-2 2 -7 6t-7 6q141 175 141 398q0 227 -143 395l16 14q148 -179 148 -409q0 -231 -148 -410zM1446 246q-6 6 -16 14q180 215 180 500
t-180 500l16 14q88 -105 136 -237t48 -277q0 -144 -48 -276t-136 -238zM375 348q-148 182 -148 412q0 229 146 409q2 -2 7.5 -6.5t8.5 -7.5q-141 -170 -141 -395q0 -228 141 -398zM684 627q-43 59 -43 133t43 133q6 -4 16 -14q-38 -50 -38 -119q0 -67 38 -117zM745 682
q-24 34 -24 78t24 78q2 -3 4.5 -5.5t6 -5.5t4.5 -4q-19 -34 -19 -63q0 -30 19 -64zM809 825l-10 13q21 18 53 18t53 -18l-10 -13q-23 15 -43 15q-25 0 -43 -15zM786 852l-14 14q37 29 80 29q41 0 78 -29q-8 -8 -12 -14q-28 25 -66 25q-34 0 -66 -25zM760 881l-15 16
q45 39 107 39q61 0 106 -39l-14 -16q-37 34 -92 34t-92 -34zM604 1057l-14 16q112 98 262 98q151 0 262 -100q1 0 -2 -3.5t-6 -7.5l-4 -3q-108 94 -250 94q-143 0 -248 -94zM852 492q-100 0 -170 61l14 16q70 -57 156 -57q87 0 154 57l14 -14q-73 -63 -168 -63zM852 584
q-61 0 -109 39l15 16q47 -35 94 -35q51 0 92 35l14 -16q-45 -39 -106 -39zM852 625q-43 0 -82 28l14 15q36 -25 68 -25q34 0 66 25l14 -15q-36 -28 -80 -28zM698 950l-14 15q73 63 168 63q98 0 168 -61l-14 -17q-68 58 -154 58q-87 0 -154 -58zM655 997l-14 17q91 78 211 78
q119 0 209 -80l-12 -15q-83 74 -197 74q-110 0 -197 -74zM1249 1223q-166 153 -397 153q-227 0 -397 -151l-15 14q179 158 412 158t412 -158zM352 1339l-14 17q104 95 236 146.5t278 51.5q145 0 278 -52t238 -146l-14 -17q-102 93 -231 144t-271 51t-270 -51t-230 -144z
M1057 594l-15 14q52 69 52 152t-54 153l17 15q57 -72 57 -168q0 -97 -57 -166z" />
    <glyph glyph-name="summation" unicode="&#x2211;" horiz-adv-x="1703" 
d="M258 246q-88 105 -136 237t-48 277q0 144 48 276t136 236q6 -4 14 -12q-85 -103 -131.5 -231.5t-46.5 -268.5q0 -285 180 -500zM467 432q-117 143 -117 328q0 183 115 327q3 -2 8 -7t8 -7q-110 -136 -110 -313q0 -182 110 -314zM541 498q-92 116 -92 262t92 262
q3 -2 8 -7t8 -7q-88 -109 -88 -248t88 -248q-3 -2 -8 -7t-8 -7zM647 592q-57 72 -57 168q0 97 57 166l15 -15q-52 -69 -52 -151q0 -84 54 -154q-3 -2 -8.5 -7t-8.5 -7zM715 655q-33 48 -33 105q0 56 33 104q3 -2 8 -7t8 -7q-29 -44 -29 -90t29 -90q-3 -2 -16 -15zM774 709
q-14 25 -14 51t14 51l12 -10q-10 -20 -10 -41t10 -41q-4 -4 -12 -10zM852 123q-236 0 -412 158l2.5 2.5l5 5l5.5 5.5t2 1q171 -152 397 -152q227 0 395 152q2 -3 7.5 -8t7.5 -8q-177 -156 -410 -156zM852 664q-31 0 -55 18l12 12q21 -14 43 -14q26 0 43 14q4 -4 10 -12
q-21 -18 -53 -18zM987 653q-7 10 -14 15q28 42 28 92q0 51 -28 90l2.5 2.5t5 4.5t5.5 5t1 2q35 -44 35 -104t-35 -107zM598 551q-72 91 -72 209q0 119 74 209l14 -15q-67 -87 -67 -194q0 -108 67 -195q-10 -10 -16 -14zM852 -35q-145 0 -278 52.5t-238 146.5l14 16
q102 -92 231 -143t271 -51q285 0 500 192q0 1 3.5 -2.5t6.5 -7.5l4 -4q-104 -95 -236 -147t-278 -52zM852 248q-189 0 -330 125l15 16q134 -121 315 -121q182 0 313 121q2 -3 7.5 -8t7.5 -8q-138 -125 -328 -125zM852 348q-145 0 -264 101l14 14q108 -94 250 -94
q143 0 248 94q2 -3 7 -8.5t7 -8.5q-112 -98 -262 -98zM852 428q-116 0 -211 78l14 16q86 -73 197 -73t197 73q4 -4 12 -16q-91 -78 -209 -78zM852 543q-77 0 -135 49l14 16q51 -45 121 -45q68 0 119 45q2 -3 7 -8t7 -8q-58 -49 -133 -49zM733 911q-4 3 -7 6.5t-6 6.5l-3 4
q58 49 135 49t135 -49l-16 -17q-51 45 -119 45t-119 -45zM1167 1130q-134 121 -315 121q-179 0 -313 -118l-15 14q141 125 328 125q189 0 330 -125q-4 -6 -15 -17zM930 709l-12 10q10 20 10 41t-10 41l12 10q14 -25 14 -51t-14 -51zM958 682q-10 10 -16 14q21 32 21 64
t-21 63l16 15q25 -36 25 -78t-25 -78zM1020 627q-6 4 -16 14q38 50 38 119t-38 119l14 14q45 -57 45 -133q0 -71 -43 -133zM1106 551q-3 2 -8 7t-8 7q67 87 67 195t-70 194l17 15q74 -90 74 -209q0 -118 -72 -209zM1163 498q-10 10 -16 14q88 109 88 248t-88 248l16 14
q92 -116 92 -262t-92 -262zM1237 432q-6 4 -16 14q112 134 112 314q0 182 -112 313l16 14q117 -139 117 -327q0 -189 -117 -328zM1329 350q-2 2 -7 6t-7 6q141 175 141 398q0 227 -143 395l16 14q148 -179 148 -409q0 -231 -148 -410zM1446 246q-6 6 -16 14q180 215 180 500
t-180 500l16 14q88 -105 136 -237t48 -277q0 -144 -48 -276t-136 -238zM375 348q-148 182 -148 412q0 229 146 409q2 -2 7.5 -6.5t8.5 -7.5q-141 -170 -141 -395q0 -228 141 -398zM684 627q-43 59 -43 133t43 133q6 -4 16 -14q-38 -50 -38 -119q0 -67 38 -117zM745 682
q-24 34 -24 78t24 78q2 -3 4.5 -5.5t6 -5.5t4.5 -4q-19 -34 -19 -63q0 -30 19 -64zM809 825l-10 13q21 18 53 18t53 -18l-10 -13q-23 15 -43 15q-25 0 -43 -15zM786 852l-14 14q37 29 80 29q41 0 78 -29q-8 -8 -12 -14q-28 25 -66 25q-34 0 -66 -25zM760 881l-15 16
q45 39 107 39q61 0 106 -39l-14 -16q-37 34 -92 34t-92 -34zM604 1057l-14 16q112 98 262 98q151 0 262 -100q1 0 -2 -3.5t-6 -7.5l-4 -3q-108 94 -250 94q-143 0 -248 -94zM852 492q-100 0 -170 61l14 16q70 -57 156 -57q87 0 154 57l14 -14q-73 -63 -168 -63zM852 584
q-61 0 -109 39l15 16q47 -35 94 -35q51 0 92 35l14 -16q-45 -39 -106 -39zM852 625q-43 0 -82 28l14 15q36 -25 68 -25q34 0 66 25l14 -15q-36 -28 -80 -28zM698 950l-14 15q73 63 168 63q98 0 168 -61l-14 -17q-68 58 -154 58q-87 0 -154 -58zM655 997l-14 17q91 78 211 78
q119 0 209 -80l-12 -15q-83 74 -197 74q-110 0 -197 -74zM1249 1223q-166 153 -397 153q-227 0 -397 -151l-15 14q179 158 412 158t412 -158zM352 1339l-14 17q104 95 236 146.5t278 51.5q145 0 278 -52t238 -146l-14 -17q-102 93 -231 144t-271 51t-270 -51t-230 -144z
M1057 594l-15 14q52 69 52 152t-54 153l17 15q57 -72 57 -168q0 -97 -57 -166z" />
    <glyph glyph-name="minus" unicode="&#x2212;" horiz-adv-x="1159" 
d="M150 637l28 168h819l-28 -168h-819z" />
    <glyph glyph-name="radical" unicode="&#x221a;" horiz-adv-x="1101" 
d="M221 -8l-119 866h197l70 -604l598 1264h192l-737 -1526h-201z" />
    <glyph glyph-name="infinity" unicode="&#x221e;" horiz-adv-x="1617" 
d="M567 -324l228 1293h-353l-227 -1293h-192l227 1293h-176l32 168h173l28 155q27 153 107.5 220t253.5 67h100l-31 -170h-78q-46 0 -76.5 -10.5t-48 -35t-26 -50t-16.5 -68.5l-21 -108h352l29 155q27 153 107 220t251 67h103l-31 -170h-80q-46 0 -76 -10.5t-47.5 -35
t-26 -50t-16.5 -68.5l-20 -108h221l-31 -168h-219l-227 -1293h-193zM1167 0l201 1137h195l-203 -1137h-193zM1393 1276l41 231h194l-43 -231h-192z" />
    <glyph glyph-name="integral" unicode="&#x222b;" horiz-adv-x="1703" 
d="M258 246q-88 105 -136 237t-48 277q0 144 48 276t136 236q6 -4 14 -12q-85 -103 -131.5 -231.5t-46.5 -268.5q0 -285 180 -500zM467 432q-117 143 -117 328q0 183 115 327q3 -2 8 -7t8 -7q-110 -136 -110 -313q0 -182 110 -314zM541 498q-92 116 -92 262t92 262
q3 -2 8 -7t8 -7q-88 -109 -88 -248t88 -248q-3 -2 -8 -7t-8 -7zM647 592q-57 72 -57 168q0 97 57 166l15 -15q-52 -69 -52 -151q0 -84 54 -154q-3 -2 -8.5 -7t-8.5 -7zM715 655q-33 48 -33 105q0 56 33 104q3 -2 8 -7t8 -7q-29 -44 -29 -90t29 -90q-3 -2 -16 -15zM774 709
q-14 25 -14 51t14 51l12 -10q-10 -20 -10 -41t10 -41q-4 -4 -12 -10zM852 123q-236 0 -412 158l2.5 2.5l5 5l5.5 5.5t2 1q171 -152 397 -152q227 0 395 152q2 -3 7.5 -8t7.5 -8q-177 -156 -410 -156zM852 664q-31 0 -55 18l12 12q21 -14 43 -14q26 0 43 14q4 -4 10 -12
q-21 -18 -53 -18zM987 653q-7 10 -14 15q28 42 28 92q0 51 -28 90l2.5 2.5t5 4.5t5.5 5t1 2q35 -44 35 -104t-35 -107zM598 551q-72 91 -72 209q0 119 74 209l14 -15q-67 -87 -67 -194q0 -108 67 -195q-10 -10 -16 -14zM852 -35q-145 0 -278 52.5t-238 146.5l14 16
q102 -92 231 -143t271 -51q285 0 500 192q0 1 3.5 -2.5t6.5 -7.5l4 -4q-104 -95 -236 -147t-278 -52zM852 248q-189 0 -330 125l15 16q134 -121 315 -121q182 0 313 121q2 -3 7.5 -8t7.5 -8q-138 -125 -328 -125zM852 348q-145 0 -264 101l14 14q108 -94 250 -94
q143 0 248 94q2 -3 7 -8.5t7 -8.5q-112 -98 -262 -98zM852 428q-116 0 -211 78l14 16q86 -73 197 -73t197 73q4 -4 12 -16q-91 -78 -209 -78zM852 543q-77 0 -135 49l14 16q51 -45 121 -45q68 0 119 45q2 -3 7 -8t7 -8q-58 -49 -133 -49zM733 911q-4 3 -7 6.5t-6 6.5l-3 4
q58 49 135 49t135 -49l-16 -17q-51 45 -119 45t-119 -45zM1167 1130q-134 121 -315 121q-179 0 -313 -118l-15 14q141 125 328 125q189 0 330 -125q-4 -6 -15 -17zM930 709l-12 10q10 20 10 41t-10 41l12 10q14 -25 14 -51t-14 -51zM958 682q-10 10 -16 14q21 32 21 64
t-21 63l16 15q25 -36 25 -78t-25 -78zM1020 627q-6 4 -16 14q38 50 38 119t-38 119l14 14q45 -57 45 -133q0 -71 -43 -133zM1106 551q-3 2 -8 7t-8 7q67 87 67 195t-70 194l17 15q74 -90 74 -209q0 -118 -72 -209zM1163 498q-10 10 -16 14q88 109 88 248t-88 248l16 14
q92 -116 92 -262t-92 -262zM1237 432q-6 4 -16 14q112 134 112 314q0 182 -112 313l16 14q117 -139 117 -327q0 -189 -117 -328zM1329 350q-2 2 -7 6t-7 6q141 175 141 398q0 227 -143 395l16 14q148 -179 148 -409q0 -231 -148 -410zM1446 246q-6 6 -16 14q180 215 180 500
t-180 500l16 14q88 -105 136 -237t48 -277q0 -144 -48 -276t-136 -238zM375 348q-148 182 -148 412q0 229 146 409q2 -2 7.5 -6.5t8.5 -7.5q-141 -170 -141 -395q0 -228 141 -398zM684 627q-43 59 -43 133t43 133q6 -4 16 -14q-38 -50 -38 -119q0 -67 38 -117zM745 682
q-24 34 -24 78t24 78q2 -3 4.5 -5.5t6 -5.5t4.5 -4q-19 -34 -19 -63q0 -30 19 -64zM809 825l-10 13q21 18 53 18t53 -18l-10 -13q-23 15 -43 15q-25 0 -43 -15zM786 852l-14 14q37 29 80 29q41 0 78 -29q-8 -8 -12 -14q-28 25 -66 25q-34 0 -66 -25zM760 881l-15 16
q45 39 107 39q61 0 106 -39l-14 -16q-37 34 -92 34t-92 -34zM604 1057l-14 16q112 98 262 98q151 0 262 -100q1 0 -2 -3.5t-6 -7.5l-4 -3q-108 94 -250 94q-143 0 -248 -94zM852 492q-100 0 -170 61l14 16q70 -57 156 -57q87 0 154 57l14 -14q-73 -63 -168 -63zM852 584
q-61 0 -109 39l15 16q47 -35 94 -35q51 0 92 35l14 -16q-45 -39 -106 -39zM852 625q-43 0 -82 28l14 15q36 -25 68 -25q34 0 66 25l14 -15q-36 -28 -80 -28zM698 950l-14 15q73 63 168 63q98 0 168 -61l-14 -17q-68 58 -154 58q-87 0 -154 -58zM655 997l-14 17q91 78 211 78
q119 0 209 -80l-12 -15q-83 74 -197 74q-110 0 -197 -74zM1249 1223q-166 153 -397 153q-227 0 -397 -151l-15 14q179 158 412 158t412 -158zM352 1339l-14 17q104 95 236 146.5t278 51.5q145 0 278 -52t238 -146l-14 -17q-102 93 -231 144t-271 51t-270 -51t-230 -144z
M1057 594l-15 14q52 69 52 152t-54 153l17 15q57 -72 57 -168q0 -97 -57 -166z" />
    <glyph glyph-name="approxequal" unicode="&#x2248;" horiz-adv-x="1161" 
d="M285 795l-123 79q100 162 241 162q67 0 206.5 -41t183.5 -41q68 0 139 95l121 -82q-105 -170 -240 -170q-70 0 -208.5 42t-182.5 42q-74 0 -137 -86zM213 387l-121 78q100 166 242 166q66 0 203.5 -42t181.5 -42q72 0 139 94l123 -80q-102 -170 -240 -170q-70 0 -208 41
t-183 41q-74 0 -137 -86z" />
    <glyph glyph-name="notequal" unicode="&#x2260;" horiz-adv-x="1222" 
d="M567 -324l228 1293h-353l-227 -1293h-192l227 1293h-176l32 168h173l28 155q27 153 107.5 220t253.5 67h100l-31 -170h-78q-46 0 -76.5 -10.5t-48 -35t-26 -50t-16.5 -68.5l-21 -108h352l29 155q27 154 108 220.5t261 66.5q107 0 127 -2l-33 -168h-103q-49 0 -81.5 -10.5
t-51 -35t-27 -50t-16.5 -68.5l-20 -108h254l-31 -168h-252l-227 -1293h-193z" />
    <glyph glyph-name="lessequal" unicode="&#x2264;" horiz-adv-x="1159" 
d="M825 233l-671 416l24 137l815 414l-28 -186l-603 -297l494 -295zM45 27l29 170h743l-29 -170h-743z" />
    <glyph glyph-name="greaterequal" unicode="&#x2265;" horiz-adv-x="1159" 
d="M152 233l32 191l598 297l-491 295l28 184l672 -414l-22 -137zM115 27l30 170h742l-29 -170h-743z" />
    <glyph glyph-name="lozenge" unicode="&#x25ca;" horiz-adv-x="1275" 
d="M932 -6q-125 0 -188.5 37t-76 111.5t8.5 185.5l110 641h-344l-227 -1293h-192l227 1293h-176l32 168h173l28 155q27 153 107.5 220t253.5 67h90l-33 -170h-66q-46 0 -76.5 -10.5t-48 -35t-26 -50t-16.5 -68.5l-21 -108h350l86 301l158 35l-59 -336h260l-31 -168h-258
l-113 -647q-15 -83 5.5 -118.5t109.5 -35.5h117l-31 -168q-43 -6 -133 -6z" />
    <glyph glyph-name="apple" unicode="&#xf8ff;" horiz-adv-x="1703" 
d="M258 246q-88 105 -136 237t-48 277q0 144 48 276t136 236q6 -4 14 -12q-85 -103 -131.5 -231.5t-46.5 -268.5q0 -285 180 -500zM467 432q-117 143 -117 328q0 183 115 327q3 -2 8 -7t8 -7q-110 -136 -110 -313q0 -182 110 -314zM541 498q-92 116 -92 262t92 262
q3 -2 8 -7t8 -7q-88 -109 -88 -248t88 -248q-3 -2 -8 -7t-8 -7zM647 592q-57 72 -57 168q0 97 57 166l15 -15q-52 -69 -52 -151q0 -84 54 -154q-3 -2 -8.5 -7t-8.5 -7zM715 655q-33 48 -33 105q0 56 33 104q3 -2 8 -7t8 -7q-29 -44 -29 -90t29 -90q-3 -2 -16 -15zM774 709
q-14 25 -14 51t14 51l12 -10q-10 -20 -10 -41t10 -41q-4 -4 -12 -10zM852 123q-236 0 -412 158l2.5 2.5l5 5l5.5 5.5t2 1q171 -152 397 -152q227 0 395 152q2 -3 7.5 -8t7.5 -8q-177 -156 -410 -156zM852 664q-31 0 -55 18l12 12q21 -14 43 -14q26 0 43 14q4 -4 10 -12
q-21 -18 -53 -18zM987 653q-7 10 -14 15q28 42 28 92q0 51 -28 90l2.5 2.5t5 4.5t5.5 5t1 2q35 -44 35 -104t-35 -107zM598 551q-72 91 -72 209q0 119 74 209l14 -15q-67 -87 -67 -194q0 -108 67 -195q-10 -10 -16 -14zM852 -35q-145 0 -278 52.5t-238 146.5l14 16
q102 -92 231 -143t271 -51q285 0 500 192q0 1 3.5 -2.5t6.5 -7.5l4 -4q-104 -95 -236 -147t-278 -52zM852 248q-189 0 -330 125l15 16q134 -121 315 -121q182 0 313 121q2 -3 7.5 -8t7.5 -8q-138 -125 -328 -125zM852 348q-145 0 -264 101l14 14q108 -94 250 -94
q143 0 248 94q2 -3 7 -8.5t7 -8.5q-112 -98 -262 -98zM852 428q-116 0 -211 78l14 16q86 -73 197 -73t197 73q4 -4 12 -16q-91 -78 -209 -78zM852 543q-77 0 -135 49l14 16q51 -45 121 -45q68 0 119 45q2 -3 7 -8t7 -8q-58 -49 -133 -49zM733 911q-4 3 -7 6.5t-6 6.5l-3 4
q58 49 135 49t135 -49l-16 -17q-51 45 -119 45t-119 -45zM1167 1130q-134 121 -315 121q-179 0 -313 -118l-15 14q141 125 328 125q189 0 330 -125q-4 -6 -15 -17zM930 709l-12 10q10 20 10 41t-10 41l12 10q14 -25 14 -51t-14 -51zM958 682q-10 10 -16 14q21 32 21 64
t-21 63l16 15q25 -36 25 -78t-25 -78zM1020 627q-6 4 -16 14q38 50 38 119t-38 119l14 14q45 -57 45 -133q0 -71 -43 -133zM1106 551q-3 2 -8 7t-8 7q67 87 67 195t-70 194l17 15q74 -90 74 -209q0 -118 -72 -209zM1163 498q-10 10 -16 14q88 109 88 248t-88 248l16 14
q92 -116 92 -262t-92 -262zM1237 432q-6 4 -16 14q112 134 112 314q0 182 -112 313l16 14q117 -139 117 -327q0 -189 -117 -328zM1329 350q-2 2 -7 6t-7 6q141 175 141 398q0 227 -143 395l16 14q148 -179 148 -409q0 -231 -148 -410zM1446 246q-6 6 -16 14q180 215 180 500
t-180 500l16 14q88 -105 136 -237t48 -277q0 -144 -48 -276t-136 -238zM375 348q-148 182 -148 412q0 229 146 409q2 -2 7.5 -6.5t8.5 -7.5q-141 -170 -141 -395q0 -228 141 -398zM684 627q-43 59 -43 133t43 133q6 -4 16 -14q-38 -50 -38 -119q0 -67 38 -117zM745 682
q-24 34 -24 78t24 78q2 -3 4.5 -5.5t6 -5.5t4.5 -4q-19 -34 -19 -63q0 -30 19 -64zM809 825l-10 13q21 18 53 18t53 -18l-10 -13q-23 15 -43 15q-25 0 -43 -15zM786 852l-14 14q37 29 80 29q41 0 78 -29q-8 -8 -12 -14q-28 25 -66 25q-34 0 -66 -25zM760 881l-15 16
q45 39 107 39q61 0 106 -39l-14 -16q-37 34 -92 34t-92 -34zM604 1057l-14 16q112 98 262 98q151 0 262 -100q1 0 -2 -3.5t-6 -7.5l-4 -3q-108 94 -250 94q-143 0 -248 -94zM852 492q-100 0 -170 61l14 16q70 -57 156 -57q87 0 154 57l14 -14q-73 -63 -168 -63zM852 584
q-61 0 -109 39l15 16q47 -35 94 -35q51 0 92 35l14 -16q-45 -39 -106 -39zM852 625q-43 0 -82 28l14 15q36 -25 68 -25q34 0 66 25l14 -15q-36 -28 -80 -28zM698 950l-14 15q73 63 168 63q98 0 168 -61l-14 -17q-68 58 -154 58q-87 0 -154 -58zM655 997l-14 17q91 78 211 78
q119 0 209 -80l-12 -15q-83 74 -197 74q-110 0 -197 -74zM1249 1223q-166 153 -397 153q-227 0 -397 -151l-15 14q179 158 412 158t412 -158zM352 1339l-14 17q104 95 236 146.5t278 51.5q145 0 278 -52t238 -146l-14 -17q-102 93 -231 144t-271 51t-270 -51t-230 -144z
M1057 594l-15 14q52 69 52 152t-54 153l17 15q57 -72 57 -168q0 -97 -57 -166z" />
    </font>
</defs>
</svg>
