<?xml version="1.0" standalone="no"?>
<!DOCTYPE svg PUBLIC "-//W3C//DTD SVG 1.1//EN" "http://www.w3.org/Graphics/SVG/1.1/DTD/svg11.dtd" >
<svg xmlns="http://www.w3.org/2000/svg" xmlns:xlink="http://www.w3.org/1999/xlink" version="1.1">
<metadata>
Created by FontForge 20201107 at Wed Dec 24 15:01:19 2025
 By 
Copyright (c) The Font Bureau, Inc., 2003. All rights reserved.
</metadata>
<defs>
<font id="AntennaCond-Regular" horiz-adv-x="964" >
  <font-face 
    font-family="AntennaCond Regular"
    font-weight="400"
    font-stretch="normal"
    units-per-em="2048"
    panose-1="2 0 5 6 0 0 0 2 0 4"
    ascent="1638"
    descent="-410"
    x-height="1137"
    cap-height="1518"
    bbox="-68 -451 2621 1937"
    underline-thickness="102"
    underline-position="-204"
    unicode-range="U+0020-FB02"
  />
<missing-glyph horiz-adv-x="368" 
 />
    <glyph glyph-name="fi" unicode="fi" horiz-adv-x="1083" 
d="M37 969v168h178v127q0 152 77 233.5t247 81.5h96v-170h-80q-87 0 -117 -40t-30 -124v-108h227v-168h-227v-969h-193v969h-178zM768 0v1137h193v-1137h-193zM768 1276v229h193v-229h-193z" />
    <glyph glyph-name="fl" unicode="fl" horiz-adv-x="1165" 
d="M37 969v168h178v127q0 152 77 233.5t247 81.5h96v-170h-80q-87 0 -117 -40t-30 -124v-108h227v-168h-227v-969h-193v969h-178zM1094 0q-10 -2 -66 -2q-150 0 -205 58t-55 210v1309h193v-1286q0 -40 2.5 -58.5t15.5 -35.5t39.5 -22t75.5 -5v-168z" />
    <glyph glyph-name="f_f_l" unicode="ffl" horiz-adv-x="1720" 
d="M768 0v969h-360v-969h-193v969h-178v168h178v127q0 152 77 233.5t247 81.5h96v-170h-80q-87 0 -117 -40t-30 -124v-108h360v127q0 152 76.5 233.5t249.5 81.5h94v-170h-80q-87 0 -117 -40t-30 -124v-108h227v-168h-227v-969h-193zM1647 0q-8 -2 -66 -2q-148 0 -204 58
t-56 210v1309h192v-1286q0 -27 1 -41.5t5 -30.5t12.5 -23.5t23.5 -14.5t37 -9t55 -2v-168z" />
    <glyph glyph-name="f_f_i" unicode="ffi" horiz-adv-x="1636" 
d="M768 0v969h-360v-969h-193v969h-178v168h178v127q0 152 77 233.5t247 81.5h96v-170h-80q-87 0 -117 -40t-30 -124v-108h360v127q0 152 76.5 233.5t249.5 81.5h94v-170h-80q-87 0 -117 -40t-30 -124v-108h227v-168h-227v-969h-193zM1321 0v1137h192v-1137h-192zM1321 1276
v229h192v-229h-192z" />
    <glyph glyph-name="f_j" unicode="fj" horiz-adv-x="1083" 
d="M37 969v168h178v127q0 152 77 233.5t247 81.5h96v-170h-80q-87 0 -117 -40t-30 -124v-108h227v-168h-227v-969h-193v969h-178zM651 -324v158h17q63 0 81.5 27.5t18.5 103.5v1172h193v-1178q0 -158 -58 -220.5t-223 -62.5h-29zM768 1276v229h193v-229h-193z" />
    <glyph glyph-name="f_f" unicode="ff" horiz-adv-x="1241" 
d="M768 0v969h-360v-969h-193v969h-178v168h178v127q0 152 77 233.5t247 81.5h96v-170h-80q-87 0 -117 -40t-30 -124v-108h360v127q0 152 76.5 233.5t249.5 81.5q109 0 129 -2v-168h-115q-87 0 -117 -40t-30 -124v-108h262v-168h-262v-969h-193z" />
    <glyph glyph-name=".notdef" horiz-adv-x="368" 
 />
    <glyph glyph-name=".null" horiz-adv-x="0" 
 />
    <glyph glyph-name="nonmarkingreturn" horiz-adv-x="682" 
 />
    <glyph glyph-name="space" unicode=" " horiz-adv-x="368" 
 />
    <glyph glyph-name="space" unicode="&#xa0;" horiz-adv-x="368" 
 />
    <glyph glyph-name="exclam" unicode="!" horiz-adv-x="626" 
d="M197 0v256h231v-256h-231zM227 432l-16 1086h209l-21 -1086h-172z" />
    <glyph glyph-name="quotedbl" unicode="&#x22;" horiz-adv-x="870" 
d="M162 899l-8 619h196l-10 -619h-178zM532 899l-12 619h199l-12 -619h-175z" />
    <glyph glyph-name="numbersign" unicode="#" horiz-adv-x="1214" 
d="M201 0l67 449h-172v178h199l37 241h-236v176h262l72 474h182l-71 -474h219l69 474h183l-72 -474h176v-176h-203l-36 -241h239v-178h-266l-68 -449h-180l68 449h-219l-68 -449h-182zM461 612h246l43 269h-248z" />
    <glyph glyph-name="dollar" unicode="$" horiz-adv-x="1101" 
d="M465 -188v188q-223 13 -377 123l90 145q129 -87 295 -104v559q-65 27 -108 49.5t-89 57t-72.5 73t-43.5 95t-17 126.5q0 175 77 272t245 117v177h184v-174q164 -17 293 -86l-86 -154q-93 49 -217 63v-491q67 -28 113 -52t96.5 -62t81 -80.5t50 -104t19.5 -137.5
q0 -184 -82.5 -286.5t-267.5 -123.5v-190h-184zM811 401q0 90 -41.5 145.5t-130.5 102.5v-481q91 19 131.5 78t40.5 155zM332 1130q0 -71 34 -118.5t107 -87.5v409q-141 -32 -141 -203z" />
    <glyph glyph-name="percent" unicode="%" horiz-adv-x="1914" 
d="M414 565q-178 0 -263 111.5t-85 372.5q0 262 84.5 372.5t263.5 110.5q120 0 195.5 -45.5t116 -153t40.5 -284.5q0 -260 -86 -372t-266 -112zM416 713q96 0 136 73t40 258t-40 258.5t-136 73.5t-136 -73.5t-40 -258.5t40 -258t136 -73zM1499 -14q-179 0 -263.5 111
t-84.5 372t84.5 373t263.5 112t264.5 -112t85.5 -373t-85 -372t-265 -111zM1499 133q95 0 136.5 74.5t41.5 257.5q0 184 -41 258t-137 74q-95 0 -135.5 -73.5t-40.5 -258.5q0 -184 40.5 -258t135.5 -74zM537 0l665 1518h180l-667 -1518h-178z" />
    <glyph glyph-name="ampersand" unicode="&#x26;" horiz-adv-x="1359" 
d="M528 -14q-238 0 -345 108t-107 316q0 79 22 146t65.5 121t89.5 94t112 85q-123 183 -123 361q0 327 321 327q161 0 238.5 -82t77.5 -245q0 -68 -20.5 -128t-60.5 -110t-81.5 -88.5t-98.5 -79.5q46 -56 125 -145l199 -238q26 65 46.5 160.5t29.5 158.5t26 199l173 -22
q-28 -227 -60 -376t-92 -263l242 -285h-238l-113 133q-153 -147 -428 -147zM528 150q206 0 316 116l-252 301q-43 48 -131 158q-93 -75 -144 -146t-51 -161q0 -46 5 -81t21.5 -72t44 -60.5t76.5 -39t115 -15.5zM428 1217q0 -127 96 -277q82 64 128 130.5t46 146.5
q0 78 -30 118.5t-105 40.5q-77 0 -106 -39.5t-29 -119.5z" />
    <glyph glyph-name="quotesingle" unicode="'" horiz-adv-x="501" 
d="M162 899l-8 619h198l-12 -619h-178z" />
    <glyph glyph-name="parenleft" unicode="(" horiz-adv-x="817" 
d="M522 -354q-49 48 -94.5 111t-92 154t-80.5 194.5t-55.5 237.5t-21.5 278q0 168 31.5 327.5t84 282t110 214t118.5 152.5l142 -94q-291 -338 -291 -880q0 -163 27.5 -310.5t73 -256.5t92.5 -186t98 -132z" />
    <glyph glyph-name="parenright" unicode=")" horiz-adv-x="817" 
d="M295 -354l-139 92q288 344 288 885q0 162 -27 309t-72.5 255t-91.5 184t-97 132l139 94q49 -49 95 -112t92.5 -154t80 -194t55 -237t21.5 -277q0 -169 -31.5 -329t-83.5 -282.5t-110 -214t-119 -151.5z" />
    <glyph glyph-name="asterisk" unicode="*" horiz-adv-x="985" 
d="M414 616l18 334l-258 -176l-84 141l283 152l-283 156l84 137l258 -176l-18 336h153l-14 -338l258 180l84 -137l-285 -158l285 -154l-82 -139l-260 178l14 -336h-153z" />
    <glyph glyph-name="plus" unicode="+" horiz-adv-x="1159" 
d="M489 254v383h-319v168h319v381h181v-381h319v-168h-319v-383h-181z" />
    <glyph glyph-name="comma" unicode="," horiz-adv-x="442" 
d="M158 -244l-58 101q74 41 92.5 64t18.5 79h-107v258h234v-242q0 -103 -33 -154t-147 -106z" />
    <glyph glyph-name="hyphen" unicode="-" horiz-adv-x="722" 
d="M76 555v178h569v-178h-569z" />
    <glyph glyph-name="hyphen" unicode="&#xad;" horiz-adv-x="722" 
d="M76 555v178h569v-178h-569z" />
    <glyph glyph-name="period" unicode="." horiz-adv-x="442" 
d="M104 0v258h234v-258h-234z" />
    <glyph glyph-name="slash" unicode="/" horiz-adv-x="872" 
d="M0 0l680 1518h192l-679 -1518h-193z" />
    <glyph glyph-name="zero" unicode="0" horiz-adv-x="1208" 
d="M606 -16q-88 0 -157 16t-121 45.5t-88.5 79t-60.5 108.5t-37.5 143t-19 173.5t-5.5 208.5q0 139 7.5 239t26.5 192.5t53.5 152.5t88.5 105.5t131.5 66t181.5 20.5q87 0 155.5 -16.5t119.5 -46.5t87.5 -80.5t60 -110t37 -143.5t19 -173t5.5 -206q0 -120 -5.5 -210
t-19 -174t-37 -143t-60 -108t-87.5 -78.5t-119 -45t-156 -15.5zM606 162q71 0 120.5 21.5t83 63t52 115.5t26 167t7.5 229q0 134 -8 227t-27 165.5t-52.5 114t-82.5 62.5t-119 21q-73 0 -123 -21t-83 -62t-51.5 -114.5t-26 -165t-7.5 -227.5t7.5 -228.5t26 -167t51.5 -116
t83.5 -63t122.5 -21.5z" />
    <glyph glyph-name="one" unicode="1" horiz-adv-x="636" 
d="M268 0v1341h-221v177h414v-1518h-193z" />
    <glyph glyph-name="two" unicode="2" horiz-adv-x="1011" 
d="M70 0v156l336 415q133 165 196 263t80.5 157.5t17.5 141.5q0 117 -50 168t-173 51q-166 0 -307 -72l-82 162q87 45 184.5 68.5t233.5 23.5q208 0 297.5 -91.5t89.5 -283.5q0 -164 -64.5 -292t-283.5 -400l-238 -297h604v-170h-841z" />
    <glyph glyph-name="three" unicode="3" horiz-adv-x="1009" 
d="M461 -16q-131 0 -221.5 23.5t-180.5 72.5l88 158q73 -40 142.5 -59t159.5 -19q152 0 212 64.5t60 232.5q0 69 -9.5 113t-38 82t-86.5 55.5t-149 17.5h-180v172h191q72 0 120 16t73 48t34.5 70.5t9.5 92.5q0 135 -53 181.5t-180 46.5q-146 0 -289 -70l-80 156
q168 96 397 96q102 0 171 -16t122 -55.5t78 -112t25 -181.5q0 -149 -38 -228t-122 -112q112 -33 153 -117.5t41 -273.5q0 -127 -26.5 -214t-83.5 -140.5t-139.5 -76.5t-200.5 -23z" />
    <glyph glyph-name="four" unicode="4" horiz-adv-x="1116" 
d="M74 344v154l530 1020h203l-528 -1012h405l39 467h139v-467h203v-162h-203v-344h-180v344h-608z" />
    <glyph glyph-name="five" unicode="5" horiz-adv-x="1050" 
d="M502 -16q-253 0 -434 98l88 158q146 -80 333 -80q79 0 129 13.5t87.5 50t54 102.5t16.5 170q0 102 -16 167t-51.5 99.5t-81 46.5t-115.5 12q-150 0 -244 -80l-149 43l37 734h739v-177h-576l-20 -409q95 65 274 65q85 0 146 -14t110.5 -48t79 -91t45 -142t15.5 -202
q0 -126 -19.5 -216.5t-55 -148.5t-94.5 -91.5t-129.5 -46.5t-168.5 -13z" />
    <glyph glyph-name="six" unicode="6" horiz-adv-x="1142" 
d="M598 -16q-92 0 -163 14t-122.5 39t-87.5 67.5t-58.5 90t-34.5 117.5t-16.5 139.5t-4.5 164.5q0 115 2 191t9 165.5t20.5 146.5t36.5 121t57.5 102t83 75.5t112.5 57t147.5 31.5t186.5 12h117v-177h-127q-83 0 -147.5 -11t-110.5 -28.5t-79 -49.5t-52.5 -64.5t-32 -82.5
t-18 -95t-9.5 -111q94 123 348 123q99 0 171 -23.5t116 -63.5t69.5 -105t34.5 -136t9 -168q0 -142 -21 -238.5t-72.5 -167t-140.5 -103.5t-223 -33zM600 154q153 0 208.5 87t55.5 283q0 176 -55 255t-205 79q-137 0 -216 -77.5t-79 -243.5q0 -105 11.5 -171.5t43 -117
t89 -72.5t147.5 -22z" />
    <glyph glyph-name="seven" unicode="7" horiz-adv-x="905" 
d="M221 0l447 1341h-629v177h838v-152l-451 -1366h-205z" />
    <glyph glyph-name="eight" unicode="8" horiz-adv-x="1148" 
d="M575 -16q-87 0 -157 12.5t-119.5 34t-86 55t-58 70t-34.5 84t-17.5 92.5t-4.5 100q0 63 3.5 108.5t16 96t34.5 86t61 66t94 47.5q-53 21 -87.5 53.5t-51 78.5t-22 90.5t-5.5 106.5q0 64 10.5 114.5t39 100t76 82t125.5 52.5t183 20t183 -20t125 -52.5t76 -82t39 -100
t10 -114.5q0 -62 -6 -107t-22.5 -91t-51 -78.5t-86.5 -52.5q48 -15 83.5 -37.5t57.5 -54t36.5 -63t21 -76.5t8.5 -82t2 -91q0 -65 -7 -116.5t-24.5 -105t-51.5 -92.5t-85 -70.5t-129 -47.5t-179 -16zM575 152q86 0 143 21.5t86.5 64.5t40.5 93.5t11 121.5q0 70 -11 118.5
t-40.5 89t-86.5 60.5t-143 20t-143 -20t-86 -60.5t-40 -89t-11 -118.5q0 -56 6.5 -98.5t24.5 -82t48.5 -65t81 -40.5t119.5 -15zM575 905q72 0 121 16t75.5 48t37 72t10.5 96q0 114 -52.5 171.5t-191.5 57.5q-138 0 -191.5 -58t-53.5 -171q0 -115 53.5 -173.5t191.5 -58.5z
" />
    <glyph glyph-name="nine" unicode="9" horiz-adv-x="1142" 
d="M256 0v170h131q94 0 164.5 13t118 41t78.5 62.5t48.5 89t25.5 107.5t12 129q-91 -123 -347 -123q-100 0 -172 23.5t-116 64t-69.5 105.5t-34.5 135.5t-9 167.5q0 141 21 238.5t72.5 170t142 106.5t225.5 34q91 0 161.5 -14t121.5 -39t87.5 -67.5t58.5 -90.5t34.5 -117.5
t17 -138.5t4.5 -164q0 -115 -2 -192.5t-9.5 -166.5t-21.5 -147t-37.5 -121t-58 -101.5t-83 -75.5t-112.5 -56.5t-146.5 -31t-184.5 -11.5h-121zM539 653q136 0 215.5 79t79.5 245q0 83 -7 140.5t-25.5 106t-51.5 76.5t-84 43t-123 15q-64 0 -110 -15.5t-76 -43.5t-47 -75
t-24 -103.5t-7 -135.5q0 -174 55 -253t205 -79z" />
    <glyph glyph-name="colon" unicode=":" horiz-adv-x="475" 
d="M121 0v254h231v-254h-231zM121 885v252h231v-252h-231z" />
    <glyph glyph-name="semicolon" unicode=";" horiz-adv-x="475" 
d="M121 885v252h231v-252h-231zM174 -244l-57 101q73 40 91.5 63.5t18.5 79.5h-106v254h231v-238q0 -104 -32.5 -154.5t-145.5 -105.5z" />
    <glyph glyph-name="less" unicode="&#x3c;" horiz-adv-x="1157" 
d="M918 217l-744 422v139l744 422v-186l-549 -303l549 -305v-189z" />
    <glyph glyph-name="equal" unicode="=" horiz-adv-x="1161" 
d="M176 416v178h811v-178h-811zM176 823v176h811v-176h-811z" />
    <glyph glyph-name="greater" unicode="&#x3e;" horiz-adv-x="1159" 
d="M240 217v186l546 304l-546 307v186l743 -422v-139z" />
    <glyph glyph-name="question" unicode="?" horiz-adv-x="1060" 
d="M395 418q-1 94 3.5 144.5t26.5 105t58.5 99t108.5 118.5q90 90 121.5 142.5t31.5 129.5q0 97 -49 148t-180 51q-159 0 -307 -76l-86 162q184 92 422 92q113 0 192 -25t122 -73t61 -107.5t18 -138.5q0 -68 -11.5 -120.5t-40 -99t-55.5 -78.5t-77 -83q-34 -34 -55.5 -56.5
t-42 -47t-30.5 -41.5t-21 -39t-13 -40.5t-6.5 -45.5t-2 -54.5t0.5 -66.5h-189zM373 0v233h229v-233h-229z" />
    <glyph glyph-name="at" unicode="@" horiz-adv-x="1726" 
d="M864 -338q-198 0 -336.5 48.5t-234 158t-140 288.5t-44.5 439q0 259 44.5 438t140 289.5t234 159.5t336.5 49t336.5 -49t234 -159.5t140.5 -289.5t45 -438q0 -121 -8 -204.5t-26.5 -148t-51.5 -101.5t-81.5 -55.5t-117.5 -18.5q-112 0 -165.5 33.5t-67.5 105.5
q-38 -70 -113.5 -103.5t-208.5 -33.5q-74 0 -131 18.5t-94 56t-61.5 82.5t-36.5 108.5t-16.5 123t-4.5 137.5q0 79 5 139.5t17.5 124.5t37 109.5t62 82.5t94 55.5t130.5 18.5q131 0 194 -27t97 -87l31 108l129 -10v-702q1 -42 2 -64t4 -50t8 -41t13 -28t21 -21t31 -10t42 -4
q58 0 87 31t42.5 117t13.5 258q0 187 -25.5 326t-74.5 234t-127 153t-176.5 83t-229.5 25q-132 0 -230.5 -25.5t-176 -83t-126 -152.5t-73.5 -233.5t-25 -326.5t25 -326t73.5 -233t126 -152.5t176 -82.5t230.5 -25q249 0 479 94l43 -104q-242 -105 -522 -105zM827 219
q41 0 74 7t56.5 22t41.5 32.5t29 46t18 54.5t10 65.5t4 71t1 78.5q0 67 -2.5 112t-11 91t-24.5 74t-41.5 51t-64 33t-90.5 10q-48 0 -84 -11.5t-59 -36.5t-38.5 -55t-23 -75.5t-10 -89.5t-2.5 -105q0 -60 2.5 -103.5t10 -89.5t23 -76.5t38.5 -56t59 -37.5t84 -12z" />
    <glyph glyph-name="A" unicode="A" horiz-adv-x="1224" 
d="M41 0l467 1528h209l467 -1528h-201l-94 315h-561l-90 -315h-197zM381 496h457l-228 753z" />
    <glyph glyph-name="B" unicode="B" horiz-adv-x="1167" 
d="M133 0v1518h483q227 0 335 -91t108 -292q0 -271 -189 -338q110 -33 165 -123t55 -256q0 -115 -31.5 -197t-93.5 -130t-144 -69.5t-192 -21.5h-496zM330 170h297q130 0 197 57.5t67 204.5q0 145 -67 202.5t-197 57.5h-297v-522zM330 870h280q128 0 190 53.5t62 186.5
q0 131 -61.5 182t-190.5 51h-280v-473z" />
    <glyph glyph-name="C" unicode="C" horiz-adv-x="1067" 
d="M621 -16q-132 0 -229.5 36t-159 99.5t-99 163t-51.5 212.5t-14 263q0 105 6.5 190t23 167t44.5 144t71.5 115.5t102 87.5t139 53t180.5 19q228 0 369 -96l-105 -164q-109 67 -270 67q-106 0 -176.5 -34t-111 -109.5t-57 -181t-16.5 -262.5q0 -126 10 -216.5t34 -164.5
t65.5 -119t104 -68.5t149.5 -23.5q95 0 160 19.5t133 62.5l98 -154q-85 -55 -175.5 -80.5t-225.5 -25.5z" />
    <glyph glyph-name="D" unicode="D" horiz-adv-x="1228" 
d="M133 0v1518h430q177 0 294 -45t184 -143.5t93.5 -233.5t26.5 -336q0 -136 -11 -238t-37.5 -190.5t-71 -148t-112 -102t-160 -62t-214.5 -19.5h-422zM332 174h237q97 0 166 23.5t113 67t69 117.5t34.5 162t9.5 214q0 125 -9.5 212t-34 160t-68 116t-111.5 66t-165 23h-241
v-1161z" />
    <glyph glyph-name="E" unicode="E" horiz-adv-x="1062" 
d="M133 0v1518h834v-183h-639v-461h606v-180h-606v-516h645v-178h-840z" />
    <glyph glyph-name="F" unicode="F" horiz-adv-x="1021" 
d="M133 0v1518h836v-183h-637v-473h602v-180h-602v-682h-199z" />
    <glyph glyph-name="G" unicode="G" horiz-adv-x="1181" 
d="M612 -16q-127 0 -220.5 32t-155.5 92t-99.5 157t-53 215t-15.5 278q0 214 29.5 358.5t98.5 239.5t177.5 136.5t269.5 41.5q231 0 397 -104l-102 -164q-134 77 -303 77q-100 0 -166 -26t-113.5 -92.5t-68.5 -181t-21 -289.5q0 -170 17.5 -281t60.5 -184t111.5 -104
t173.5 -31q74 0 123 14.5t84 45t53.5 88.5t26.5 135t8 194v51h-359v172h549v-195q0 -133 -9 -229t-31.5 -174t-58.5 -127.5t-93 -83t-132 -47.5t-178 -14z" />
    <glyph glyph-name="H" unicode="H" horiz-adv-x="1290" 
d="M133 0v1518h199v-631h626v631h199v-1518h-199v692h-626v-692h-199z" />
    <glyph glyph-name="I" unicode="I" horiz-adv-x="491" 
d="M147 0v1518h199v-1518h-199z" />
    <glyph glyph-name="J" unicode="J" horiz-adv-x="724" 
d="M51 0v178h144q115 0 160.5 48t45.5 153v1139h199v-1151q0 -195 -94 -281t-283 -86h-172z" />
    <glyph glyph-name="K" unicode="K" horiz-adv-x="1198" 
d="M133 0v1518h197v-721l573 721h230l-463 -574l477 -944h-219l-391 782l-207 -266v-516h-197z" />
    <glyph glyph-name="L" unicode="L" horiz-adv-x="987" 
d="M133 0v1518h199v-1340h620v-178h-819z" />
    <glyph glyph-name="M" unicode="M" horiz-adv-x="1519" 
d="M133 0v1518h250l377 -1180l377 1180h249v-1518h-194v1143l-369 -1143h-143l-371 1143v-1143h-176z" />
    <glyph glyph-name="N" unicode="N" horiz-adv-x="1284" 
d="M133 0v1518h215l615 -1123v1123h190v-1518h-184l-647 1174v-1174h-189z" />
    <glyph glyph-name="O" unicode="O" horiz-adv-x="1286" 
d="M645 -16q-107 0 -193 21.5t-145.5 58t-103.5 94t-69.5 119t-40.5 145t-20 160.5t-5 176t5 176t20 161t40.5 145.5t69.5 119.5t103.5 94.5t145.5 58t193 21.5q84 0 154 -13t124 -36t97.5 -59t74 -77t53 -95t36 -107.5t21.5 -121.5t11 -129.5t3 -137.5q0 -99 -5 -176
t-20 -160.5t-40.5 -145t-69 -119.5t-103 -94t-144.5 -57.5t-192 -21.5zM645 162q72 0 128 15.5t95 41.5t67 69t44.5 88.5t25.5 110.5t12 124.5t3 140.5t-3 140.5t-12.5 124.5t-26 111t-44.5 89t-67 69t-95 41.5t-127 15.5q-63 0 -114 -11t-89 -34t-66.5 -52t-47.5 -71.5
t-31 -85.5t-18.5 -101.5t-8.5 -112t-2 -123.5q0 -81 3 -140.5t12 -124.5t25.5 -110.5t44.5 -88.5t67.5 -69t96 -41.5t128.5 -15.5z" />
    <glyph glyph-name="P" unicode="P" horiz-adv-x="1167" 
d="M133 0v1518h516q234 0 342.5 -113.5t108.5 -347.5q0 -236 -110 -359t-345 -123h-315v-575h-197zM330 754h311q139 0 201.5 67.5t62.5 227.5q0 159 -62 224.5t-202 65.5h-311v-585z" />
    <glyph glyph-name="Q" unicode="Q" horiz-adv-x="1286" 
d="M846 -348q-169 0 -253 69.5t-83 223.5q0 37 2 55q-82 12 -147.5 40.5t-111.5 67.5t-79.5 95t-53.5 114t-32 134.5t-16 147t-4 159.5q0 99 5 176t20 161t40.5 145.5t69.5 119.5t103.5 94.5t145.5 58t193 21.5q84 0 154 -13t124 -36t97.5 -59t74 -77t53 -95t36 -107.5
t21.5 -121.5t11 -129.5t3 -137.5q0 -94 -4.5 -168.5t-18 -154.5t-37 -140t-62.5 -116.5t-92.5 -93.5t-130 -61.5t-172.5 -29.5v-19q0 -86 38.5 -119.5t127.5 -33.5h129v-170h-151zM645 162q72 0 128 15.5t95 41.5t67 69t44.5 88.5t25.5 110.5t12 124.5t3 140.5t-3 140.5
t-12.5 124.5t-26 111t-44.5 89t-67 69t-95 41.5t-127 15.5q-63 0 -114 -11t-89 -34t-66.5 -52t-47.5 -71.5t-31 -85.5t-18.5 -101.5t-8.5 -112t-2 -123.5q0 -81 3 -140.5t12 -124.5t25.5 -110.5t44.5 -88.5t67.5 -69t96 -41.5t128.5 -15.5z" />
    <glyph glyph-name="R" unicode="R" horiz-adv-x="1185" 
d="M870 0l-264 586h-276v-586h-197v1518h512q234 0 342.5 -111.5t108.5 -341.5q0 -388 -293 -461l274 -604h-207zM330 764h309q138 0 199 66.5t61 224.5q0 155 -61 219.5t-199 64.5h-309v-575z" />
    <glyph glyph-name="S" unicode="S" horiz-adv-x="1103" 
d="M553 -16q-302 0 -494 122l99 154q176 -104 391 -104q145 0 217 59t72 170q0 43 -7 76t-26.5 61t-41 48t-65.5 44t-83.5 41.5t-110.5 46.5q-82 34 -138 63t-106.5 67t-79.5 80.5t-46 99t-17 127.5q0 187 116.5 291t337.5 104q227 0 404 -82l-84 -170q-139 66 -316 66
q-134 0 -199 -53.5t-65 -149.5q0 -101 54 -151t227 -126q74 -32 122 -54t99.5 -50.5t82 -54t60 -59t44 -71.5t23.5 -85.5t9 -106.5q0 -191 -122 -297t-357 -106z" />
    <glyph glyph-name="T" unicode="T" horiz-adv-x="1122" 
d="M461 0v1335h-426v183h1052v-183h-428v-1335h-198z" />
    <glyph glyph-name="U" unicode="U" horiz-adv-x="1280" 
d="M641 -20q-147 0 -248 34t-160 103.5t-84.5 163.5t-25.5 225v1012h199v-998q0 -93 14 -156t49.5 -110.5t98.5 -69.5t159 -22q95 0 158.5 21.5t99.5 68t51 110.5t15 158v998h190v-1012q0 -132 -24.5 -225t-82 -163t-159 -104t-250.5 -34z" />
    <glyph glyph-name="V" unicode="V" horiz-adv-x="1216" 
d="M504 -10l-463 1528h201l370 -1235l365 1235h199l-463 -1528h-209z" />
    <glyph glyph-name="W" unicode="W" horiz-adv-x="1763" 
d="M416 -10l-361 1528h201l268 -1147l277 1147h174l278 -1147l269 1147h186l-358 -1528h-193l-274 1126l-275 -1126h-192z" />
    <glyph glyph-name="X" unicode="X" horiz-adv-x="1196" 
d="M926 0l-340 616l-322 -616h-213l436 795l-395 723h217l297 -545l285 545h211l-395 -725l436 -793h-217z" />
    <glyph glyph-name="Y" unicode="Y" horiz-adv-x="1167" 
d="M485 0v547l-473 971h213l361 -756l364 756h203l-471 -971v-547h-197z" />
    <glyph glyph-name="Z" unicode="Z" horiz-adv-x="1089" 
d="M63 0v154l703 1181h-674v183h909v-164l-700 -1176h719v-178h-957z" />
    <glyph glyph-name="bracketleft" unicode="[" horiz-adv-x="806" 
d="M193 -324v1899h458v-166h-264v-1573h270v-160h-464z" />
    <glyph glyph-name="backslash" unicode="\" horiz-adv-x="872" 
d="M680 0l-680 1518h193l679 -1518h-192z" />
    <glyph glyph-name="bracketright" unicode="]" horiz-adv-x="806" 
d="M156 -324v160h266v1573h-264v166h460v-1899h-462z" />
    <glyph glyph-name="asciicircum" unicode="^" 
d="M164 1221l229 331h182l228 -331h-160l-162 196l-162 -196h-155z" />
    <glyph glyph-name="underscore" unicode="_" horiz-adv-x="741" 
d="M-61 -256v147h864v-147h-864z" />
    <glyph glyph-name="grave" unicode="`" 
d="M449 1255l-277 332h219l227 -332h-169z" />
    <glyph glyph-name="a" unicode="a" horiz-adv-x="1044" 
d="M406 -12q-183 0 -260.5 89.5t-77.5 264.5q0 98 24 170t68.5 119t117.5 75.5t162 40t211 11.5h47q-3 121 -43.5 173t-156.5 52q-159 0 -281 -61l-80 157q156 80 379 80q113 0 185.5 -23t113.5 -75t56.5 -123t15.5 -180v-479q0 -70 14.5 -90.5t73.5 -20.5v-168
q-16 -2 -53 -2q-94 0 -137 23t-58 85q-49 -65 -126 -91.5t-195 -26.5zM444 147q55 0 98 13.5t79.5 45t56.5 91t20 143.5v160h-45q-91 0 -151.5 -5t-112 -19.5t-80 -41.5t-44 -69.5t-15.5 -104.5q0 -118 47.5 -165.5t146.5 -47.5z" />
    <glyph glyph-name="b" unicode="b" horiz-adv-x="1081" 
d="M115 6v1569h190v-547q39 65 117 97t211 32q62 0 113 -12t88.5 -36.5t66 -55t47.5 -74t31.5 -87t19 -100t9 -107t2.5 -114.5q0 -74 -3.5 -131.5t-13.5 -120.5t-27 -110t-46 -91t-68.5 -71.5t-96.5 -44t-128 -16.5q-81 0 -137.5 8t-94.5 26.5t-61 38.5t-47 52l-29 -119z
M575 154q62 0 106.5 20t70.5 53t41 88t19.5 111t4.5 137q0 67 -3 115.5t-12 99t-25.5 84t-43 61.5t-66 41t-92.5 13q-60 0 -105 -13t-74 -41.5t-47 -61.5t-27 -84.5t-12 -98.5t-3 -115q0 -58 2 -98.5t8 -87t17.5 -77t31 -60.5t47.5 -47.5t69 -28t93 -10.5z" />
    <glyph glyph-name="c" unicode="c" horiz-adv-x="860" 
d="M512 -16q-107 0 -185 27.5t-126.5 75t-77.5 123.5t-40 161t-11 200t10.5 199.5t40 160.5t79 123.5t130 75t190.5 27.5q165 0 279 -57l-82 -166q-85 43 -189 43q-79 0 -131 -25.5t-81 -80t-40.5 -126.5t-11.5 -178q0 -108 11 -180t39.5 -127.5t81.5 -81.5t134 -26
q99 0 211 53l74 -148q-77 -38 -146 -55.5t-159 -17.5z" />
    <glyph glyph-name="d" unicode="d" horiz-adv-x="1081" 
d="M449 -14q-71 0 -127.5 16.5t-95.5 44.5t-67.5 72t-45 91t-26 110.5t-12.5 121t-3 131.5q0 73 3.5 131t13.5 121t27.5 110t46.5 90.5t69 71t97 44t128 16.5q134 0 206 -29t113 -88v535h191v-1567l-152 -14l-18 125q-41 -66 -121 -99.5t-227 -33.5zM506 154q52 0 93 11
t69 29t48 48.5t31.5 62t18 78t8.5 87.5t2 99t-2 98.5t-8 86.5t-17.5 77t-31.5 61t-48 47.5t-69 28.5t-94 11q-52 0 -91.5 -13t-66 -40t-43.5 -60.5t-26 -83t-12 -98.5t-3 -115q0 -81 4.5 -137t19 -112.5t40.5 -90t70.5 -54.5t107.5 -21z" />
    <glyph glyph-name="e" unicode="e" horiz-adv-x="978" 
d="M514 -14q-110 0 -189.5 27.5t-128 74.5t-76.5 123.5t-38 160t-10 199.5q0 112 11.5 197t41.5 160.5t79.5 124t128.5 76.5t185 28q58 0 106 -7.5t85 -22t66 -36t50 -49.5t36 -63t24 -75.5t14.5 -87.5t7 -100t2.5 -111t0 -122h-655q6 -174 62.5 -252.5t207.5 -78.5
q68 0 127 11t87.5 22t74.5 32l74 -147q-157 -84 -373 -84zM514 987q-75 0 -125 -22t-77.5 -67.5t-40 -103t-15.5 -141.5h475q-3 156 -18 210q-26 90 -110 114q-37 10 -89 10z" />
    <glyph glyph-name="f" unicode="f" horiz-adv-x="688" 
d="M37 969v168h178v127q0 152 77 233.5t247 81.5q111 0 131 -2v-168h-115q-87 0 -117 -40t-30 -124v-108h262v-168h-262v-969h-193v969h-178z" />
    <glyph glyph-name="g" unicode="g" horiz-adv-x="1017" 
d="M492 408q-80 0 -144 12q-12 -27 -12 -62q0 -44 35.5 -59.5t134.5 -15.5q174 0 270.5 -28.5t136 -89t39.5 -169.5q0 -177 -110 -257.5t-348 -80.5q-249 0 -354 60t-105 216q0 220 198 269q-65 42 -65 141q0 73 45 133q-123 85 -123 301q0 200 102.5 290.5t299.5 90.5
q26 0 92 -4l358 55v-153h-164q115 -78 115 -279q0 -102 -28 -175t-82 -115t-125 -61t-166 -19zM492 565q109 0 161 50t52 161t-52 162t-161 51q-106 0 -159.5 -51.5t-53.5 -161.5t53 -160.5t160 -50.5zM492 -190q107 0 165 19t79.5 55.5t21.5 103.5q0 55 -20.5 84t-78 44
t-167.5 15q-149 0 -208 -39t-59 -127q0 -91 55.5 -123t211.5 -32z" />
    <glyph glyph-name="h" unicode="h" horiz-adv-x="1062" 
d="M115 0v1575h190v-541q74 123 324 123q85 0 145.5 -20.5t95.5 -54t54.5 -90t25.5 -113.5t6 -140v-739h-192v696q0 61 -3.5 99.5t-15 76.5t-33.5 58t-59.5 32.5t-91.5 12.5q-64 0 -108.5 -14.5t-73 -41t-44.5 -74.5t-22 -105t-6 -142v-598h-192z" />
    <glyph glyph-name="i" unicode="i" horiz-adv-x="436" 
d="M121 0v1137h192v-1137h-192zM121 1276v231h194v-231h-194z" />
    <glyph glyph-name="j" unicode="j" horiz-adv-x="436" 
d="M4 -324v158h19q63 0 80.5 27t17.5 104v1172h192v-1178q0 -80 -11.5 -131t-43 -86.5t-85 -50.5t-138.5 -15h-31zM121 1276v231h194v-231h-194z" />
    <glyph glyph-name="k" unicode="k" horiz-adv-x="954" 
d="M115 0v1575h188v-1000l393 562h207l-342 -482l369 -655h-203l-293 502l-131 -191v-311h-188z" />
    <glyph glyph-name="l" unicode="l" horiz-adv-x="520" 
d="M449 0q-10 -2 -68 -2q-148 0 -204 58t-56 210v1309h192v-1286q0 -39 3 -58.5t16.5 -36t40.5 -21.5t76 -5v-168z" />
    <glyph glyph-name="m" unicode="m" horiz-adv-x="1650" 
d="M115 0v1126l153 13l17 -113q35 64 110.5 97.5t222.5 33.5q94 0 152.5 -19t82.5 -45.5t40 -70.5q38 66 120 100.5t232 34.5q55 0 98.5 -7.5t75.5 -23.5t56 -35.5t39.5 -50t25.5 -60t15 -72t6.5 -80t1.5 -89.5v-739h-191v696q0 46 -1 73.5t-5 61t-12 52.5t-21.5 39
t-34.5 30t-50.5 16.5t-69.5 6.5q-63 0 -106 -14.5t-70 -41.5t-42 -75t-20.5 -104.5t-5.5 -141.5v-598h-191v696q0 54 -1.5 85t-7.5 67.5t-18 56t-33 38t-54 25.5t-78 7q-79 0 -128 -21t-75.5 -70.5t-35.5 -114.5t-9 -171v-598h-188z" />
    <glyph glyph-name="n" unicode="n" horiz-adv-x="1062" 
d="M115 0v1126l153 13l17 -113q38 64 117 97.5t225 33.5q85 0 145.5 -20.5t96 -54t55.5 -90t26 -114t6 -139.5v-739h-192v696q0 61 -3.5 99.5t-15 76.5t-33.5 58t-59.5 32.5t-91.5 12.5q-66 0 -111.5 -16t-73.5 -43.5t-43.5 -76.5t-20.5 -104t-5 -137v-598h-192z" />
    <glyph glyph-name="o" unicode="o" horiz-adv-x="1052" 
d="M526 -16q-112 0 -193.5 29.5t-131 78.5t-79 126.5t-40 160t-10.5 192.5q0 109 10 191t39 159.5t78.5 127t131.5 79t195 29.5t195.5 -30t132 -79.5t78.5 -127.5t39 -159.5t10 -189.5q0 -111 -10 -193.5t-39 -160t-78.5 -126.5t-132 -78t-195.5 -29zM526 152q50 0 89.5 11
t66.5 29t47 48.5t31 62.5t17.5 77.5t8.5 87t2 97.5q0 66 -3 113t-12 98t-27 84.5t-46 61.5t-72 41.5t-102 13.5q-69 0 -118 -21.5t-76.5 -54.5t-43 -90t-20 -111.5t-4.5 -134.5t4.5 -134.5t20 -111.5t43 -90.5t76.5 -55t118 -21.5z" />
    <glyph glyph-name="p" unicode="p" horiz-adv-x="1081" 
d="M115 -324v1450l153 13l15 -115q84 133 350 133q62 0 113 -12t88.5 -36.5t66 -55t47.5 -74t31.5 -87t19 -100t9 -107t2.5 -114.5q0 -86 -5 -152.5t-19 -137.5t-41 -121t-68 -91t-104.5 -62t-145.5 -21q-135 0 -207 28.5t-113 87.5v-426h-192zM575 154q62 0 106 20t70.5 53
t41 87.5t19.5 111.5t5 137t-4.5 136.5t-19.5 112.5t-41 90t-70.5 54.5t-106.5 20.5q-60 0 -105 -13t-74 -41.5t-47 -61.5t-27 -84.5t-12 -98.5t-3 -115q0 -58 2 -98.5t8 -87t17.5 -77t31 -60.5t47.5 -47.5t69 -28t93 -10.5z" />
    <glyph glyph-name="q" unicode="q" horiz-adv-x="1081" 
d="M776 -324v435q-41 -62 -116 -93.5t-211 -31.5q-71 0 -127.5 16.5t-95.5 44.5t-67.5 72t-45 91t-26 110.5t-12.5 121t-3 131.5q0 73 3.5 131t13.5 121t27.5 110t46.5 90.5t69 71t97 44t128 16.5q151 0 225.5 -30t114.5 -91l28 115l142 -12v-1463h-191zM506 154q52 0 93 11
t69 29t48 48.5t31.5 62t18 78t8.5 87.5t2 99t-2 98.5t-8 86.5t-17.5 77t-31.5 61t-48 47.5t-69 28.5t-94 11q-52 0 -91.5 -13t-66 -40t-43.5 -60.5t-26 -83t-12 -98.5t-3 -115q0 -81 4.5 -137t19 -112.5t40.5 -90t70.5 -54.5t107.5 -21z" />
    <glyph glyph-name="r" unicode="r" horiz-adv-x="618" 
d="M115 0v1126l151 13l19 -129q76 137 315 137v-180q-58 -1 -103 -14t-75.5 -32t-52.5 -50.5t-34 -62t-18.5 -75t-8 -80.5t-1.5 -88v-565h-192z" />
    <glyph glyph-name="s" unicode="s" horiz-adv-x="829" 
d="M410 -14q-227 0 -377 75l76 152q133 -70 301 -70q190 0 190 152q0 74 -49 115.5t-186 101.5q-78 34 -127 62.5t-91 67.5t-60.5 89t-18.5 117q0 156 93.5 232.5t268.5 76.5q180 0 309 -57l-75 -160q-111 49 -240 49q-92 0 -132 -34.5t-40 -102.5q0 -64 46 -102.5
t175 -94.5q84 -35 133.5 -63t93 -69t62 -95.5t18.5 -130.5q0 -156 -96 -233.5t-274 -77.5z" />
    <glyph glyph-name="t" unicode="t" horiz-adv-x="747" 
d="M37 969v168h180l31 301l155 35v-336h267v-168h-267v-647q0 -42 4.5 -67t18.5 -46.5t42.5 -31t74.5 -9.5h127v-168q-87 -6 -148 -6q-95 0 -156 17.5t-95 58t-47 95t-13 138.5v666h-174z" />
    <glyph glyph-name="u" unicode="u" horiz-adv-x="1040" 
d="M520 -16q-101 0 -172.5 17.5t-118 50.5t-73 88.5t-37 121.5t-10.5 160v715h192v-705q0 -62 3.5 -100t16 -75.5t36.5 -57t65 -31.5t102 -12q59 0 99 12t64 31.5t36.5 56.5t16 75.5t3.5 100.5v705h189v-715q0 -119 -16 -195t-60 -134t-126 -83.5t-210 -25.5z" />
    <glyph glyph-name="v" unicode="v" horiz-adv-x="946" 
d="M369 -8l-353 1145h201l260 -889l260 889h193l-352 -1145h-209z" />
    <glyph glyph-name="w" unicode="w" horiz-adv-x="1462" 
d="M330 -8l-303 1145h192l211 -840l217 840h178l215 -834l213 834h183l-301 -1145h-185l-219 813l-215 -813h-186z" />
    <glyph glyph-name="x" unicode="x" horiz-adv-x="933" 
d="M702 0l-247 432l-236 -432h-194l335 598l-307 539h207l217 -383l209 383h195l-308 -549l336 -588h-207z" />
    <glyph glyph-name="y" unicode="y" horiz-adv-x="917" 
d="M133 -324v158h105q45 0 66.5 16.5t33.5 57.5l24 88l-346 1141h195l250 -865l250 865h188l-387 -1270q-34 -113 -96 -152t-183 -39h-100z" />
    <glyph glyph-name="z" unicode="z" horiz-adv-x="839" 
d="M41 0v133l504 836h-473v168h708v-133l-504 -846h523v-158h-758z" />
    <glyph glyph-name="braceleft" unicode="{" horiz-adv-x="866" 
d="M563 -324q-166 0 -241.5 61.5t-75.5 194.5q0 63 44 266t44 246q0 62 -43.5 81.5t-163.5 19.5v162q120 0 163.5 18t43.5 80q0 50 -44 250t-44 264q0 133 75 194.5t240 61.5h156v-166h-103q-87 0 -128.5 -32.5t-41.5 -112.5q0 -49 41 -236t41 -252q0 -113 -100 -149
q100 -40 100 -152q0 -71 -41 -258t-41 -229q0 -82 42 -117t128 -35h103v-160h-154z" />
    <glyph glyph-name="bar" unicode="|" horiz-adv-x="577" 
d="M193 -324v1899h194v-1899h-194z" />
    <glyph glyph-name="braceright" unicode="}" horiz-adv-x="866" 
d="M150 -324v160h102q87 0 128.5 34.5t41.5 117.5q0 42 -41 228t-41 259q0 113 100 152q-100 37 -100 149q0 64 41 251t41 237q0 81 -41 113t-129 32h-102v166h157q164 0 237.5 -61.5t73.5 -194.5q0 -64 -43 -264t-43 -250q0 -61 42 -78.5t165 -17.5v-164q-119 0 -163 -19
t-44 -82q0 -43 43 -246t43 -266q0 -133 -73.5 -194.5t-239.5 -61.5h-155z" />
    <glyph glyph-name="asciitilde" unicode="~" 
d="M254 825l-127 72q86 170 227 170q43 0 88.5 -21t84 -42t65.5 -21q33 0 59 22.5t58 71.5l125 -71q-85 -177 -226 -177q-56 0 -133 41t-106 41q-33 0 -59.5 -21t-55.5 -65z" />
    <glyph glyph-name="exclamdown" unicode="&#xa1;" horiz-adv-x="628" 
d="M209 0l18 1087h174l19 -1087h-211zM199 1262v256h231v-256h-231z" />
    <glyph glyph-name="cent" unicode="&#xa2;" horiz-adv-x="892" 
d="M420 -197v195q-80 12 -139 45t-96 81t-59.5 118.5t-31 148.5t-8.5 180q0 101 8.5 177.5t31 147t59.5 118.5t96 82t139 47v174h186v-168q115 -8 209 -53l-82 -162q-71 33 -137 41v-821q69 7 164 51l71 -144q-109 -59 -225 -67v-191h-186zM283 567q0 -174 30.5 -268
t116.5 -127v784q-83 -33 -115 -127t-32 -262z" />
    <glyph glyph-name="sterling" unicode="&#xa3;" horiz-adv-x="1026" 
d="M715 -10q-174 0 -340 88q-48 -43 -129 -60.5t-211 -17.5v170q153 0 198.5 30.5t45.5 141.5q0 88 -58 348h-182v160h149q-41 201 -41 305q0 191 95 285t303 94q227 0 389 -84l-82 -156q-130 62 -307 62q-112 0 -160.5 -56t-48.5 -163q0 -95 39 -287h334v-160h-303
q49 -261 49 -346q0 -59 -11 -127q125 -61 248 -61q68 0 91.5 35.5t23.5 115.5v119h170v-125q0 -168 -57 -239.5t-205 -71.5z" />
    <glyph glyph-name="currency" unicode="&#xa4;" horiz-adv-x="1142" 
d="M57 840v157h193q12 142 41.5 239.5t85 166t141 100t207.5 31.5q206 0 350 -84l-92 -162q-114 62 -260 62q-141 0 -204.5 -83.5t-78.5 -269.5h426v-157h-434v-146h434v-159h-426q16 -197 79.5 -286t205.5 -89q54 0 105 11.5t81.5 24.5t73.5 35l88 -153q-167 -94 -360 -94
q-234 0 -338.5 130t-126.5 421h-191v159h185v146h-185z" />
    <glyph glyph-name="yen" unicode="&#xa5;" horiz-adv-x="1064" 
d="M113 459v159h327v11l-413 889h204l304 -691l303 691h198l-409 -889v-11h327v-159h-327v-146h327v-159h-327v-154h-187v154h-327v159h327v146h-327z" />
    <glyph glyph-name="brokenbar" unicode="&#xa6;" horiz-adv-x="577" 
d="M193 -324v787h194v-787h-194zM193 788v787h194v-787h-194z" />
    <glyph glyph-name="section" unicode="&#xa7;" horiz-adv-x="929" 
d="M238 -16q-67 0 -95 4v151h78q88 0 118 43t30 129v148q-140 17 -203.5 89.5t-63.5 211.5q0 141 63.5 213.5t203.5 87.5v133q0 80 12.5 136.5t44.5 104.5t96 72.5t160 24.5q19 0 54.5 -1t41.5 -1v-160h-80q-89 0 -119 -42.5t-30 -129.5v-135q145 -15 211.5 -88t66.5 -215
q0 -140 -66 -213t-210 -88v-135q0 -63 -7 -111t-27.5 -92.5t-55 -73.5t-90.5 -46t-133 -17zM463 588q105 0 156 40t51 128q0 89 -51 127.5t-156 38.5q-104 0 -154.5 -38.5t-50.5 -127.5q0 -88 51 -128t154 -40z" />
    <glyph glyph-name="dieresis" unicode="&#xa8;" 
d="M215 1255v215h172v-215h-172zM578 1255v215h174v-215h-174z" />
    <glyph glyph-name="copyright" unicode="&#xa9;" horiz-adv-x="1366" 
d="M694 252q-88 0 -152.5 24t-105 65.5t-64.5 108.5t-33 142t-9 176q0 99 8.5 172t32.5 140t64.5 109t107.5 66.5t159 24.5q154 0 246 -61l-71 -109q-70 47 -179 47q-137 0 -187 -91.5t-50 -301.5q0 -209 50 -301t189 -92q110 0 195 55l66 -104q-58 -36 -117.5 -53
t-149.5 -17zM682 -20q-139 0 -244.5 38t-172.5 104t-108.5 166.5t-58 213.5t-16.5 256q0 119 11.5 217t38 188.5t72.5 157.5t111 117.5t157.5 76t209.5 25.5q139 0 244.5 -38t173.5 -105t110 -167.5t59 -214t17 -257.5q0 -143 -17 -256.5t-59 -213.5t-110 -166t-173.5 -104
t-244.5 -38zM682 61q120 0 210.5 34t148.5 93t93.5 149t49.5 191t14 230q0 130 -14 232t-49.5 192t-93.5 149t-148.5 93t-210.5 34t-210 -34t-147.5 -93t-93 -149t-49.5 -192t-14 -232q0 -129 14 -230t49.5 -191t93 -149t147.5 -93t210 -34z" />
    <glyph glyph-name="ordfeminine" unicode="&#xaa;" horiz-adv-x="925" 
d="M365 586q-140 0 -202.5 72.5t-62.5 211.5q0 100 28.5 165t91.5 100.5t146 49t209 13.5h35q-1 52 -7 84t-22.5 58t-48 37.5t-81.5 11.5q-118 0 -228 -50l-65 131q132 64 309 64q92 0 150.5 -18.5t91.5 -61t45 -100t12 -146.5v-387q0 -53 12.5 -69.5t61.5 -16.5v-141
q-7 0 -24 -1t-23 -1q-83 0 -117.5 26t-46.5 95q-37 -68 -101 -97.5t-163 -29.5zM408 719q94 0 148 51.5t54 179.5v127h-35q-92 0 -148 -7t-97.5 -27.5t-58.5 -57.5t-17 -98q0 -94 38 -131t116 -37zM127 293v143h659v-143h-659z" />
    <glyph glyph-name="guillemotleft" unicode="&#xab;" horiz-adv-x="1177" 
d="M385 0l-248 567l248 570h172l-235 -570l235 -567h-172zM827 0l-245 567l245 570h170l-235 -570l235 -567h-170z" />
    <glyph glyph-name="logicalnot" unicode="&#xac;" horiz-adv-x="1703" 
d="M258 246q-88 105 -136 237t-48 277q0 144 48 276t136 236q6 -4 14 -12q-85 -103 -131.5 -231.5t-46.5 -268.5q0 -285 180 -500zM467 432q-117 143 -117 328q0 183 115 327q3 -2 8 -7t8 -7q-110 -136 -110 -313q0 -182 110 -314zM541 498q-92 116 -92 262t92 262
q3 -2 8 -7t8 -7q-88 -109 -88 -248t88 -248q-3 -2 -8 -7t-8 -7zM647 592q-57 72 -57 168q0 97 57 166l15 -15q-52 -69 -52 -151q0 -84 54 -154q-3 -2 -8.5 -7t-8.5 -7zM715 655q-33 48 -33 105q0 56 33 104q3 -2 8 -7t8 -7q-29 -44 -29 -90t29 -90q-3 -2 -16 -15zM774 709
q-14 25 -14 51t14 51l12 -10q-10 -20 -10 -41t10 -41q-4 -4 -12 -10zM852 123q-236 0 -412 158l2.5 2.5l5 5l5.5 5.5t2 1q171 -152 397 -152q227 0 395 152q2 -3 7.5 -8t7.5 -8q-177 -156 -410 -156zM852 664q-31 0 -55 18l12 12q21 -14 43 -14q26 0 43 14q4 -4 10 -12
q-21 -18 -53 -18zM987 653q-7 10 -14 15q28 42 28 92q0 51 -28 90l2.5 2.5t5 4.5t5.5 5t1 2q35 -44 35 -104t-35 -107zM598 551q-72 91 -72 209q0 119 74 209l14 -15q-67 -87 -67 -194q0 -108 67 -195q-10 -10 -16 -14zM852 -35q-145 0 -278 52.5t-238 146.5l14 16
q102 -92 231 -143t271 -51q285 0 500 192q0 1 3.5 -2.5t6.5 -7.5l4 -4q-104 -95 -236 -147t-278 -52zM852 248q-189 0 -330 125l15 16q134 -121 315 -121q182 0 313 121q2 -3 7.5 -8t7.5 -8q-138 -125 -328 -125zM852 348q-145 0 -264 101l14 14q108 -94 250 -94
q143 0 248 94q2 -3 7 -8.5t7 -8.5q-112 -98 -262 -98zM852 428q-116 0 -211 78l14 16q86 -73 197 -73t197 73q4 -4 12 -16q-91 -78 -209 -78zM852 543q-77 0 -135 49l14 16q51 -45 121 -45q68 0 119 45q2 -3 7 -8t7 -8q-58 -49 -133 -49zM733 911q-4 3 -7 6.5t-6 6.5l-3 4
q58 49 135 49t135 -49l-16 -17q-51 45 -119 45t-119 -45zM1167 1130q-134 121 -315 121q-179 0 -313 -118l-15 14q141 125 328 125q189 0 330 -125q-4 -6 -15 -17zM930 709l-12 10q10 20 10 41t-10 41l12 10q14 -25 14 -51t-14 -51zM958 682q-10 10 -16 14q21 32 21 64
t-21 63l16 15q25 -36 25 -78t-25 -78zM1020 627q-6 4 -16 14q38 50 38 119t-38 119l14 14q45 -57 45 -133q0 -71 -43 -133zM1106 551q-3 2 -8 7t-8 7q67 87 67 195t-70 194l17 15q74 -90 74 -209q0 -118 -72 -209zM1163 498q-10 10 -16 14q88 109 88 248t-88 248l16 14
q92 -116 92 -262t-92 -262zM1237 432q-6 4 -16 14q112 134 112 314q0 182 -112 313l16 14q117 -139 117 -327q0 -189 -117 -328zM1329 350q-2 2 -7 6t-7 6q141 175 141 398q0 227 -143 395l16 14q148 -179 148 -409q0 -231 -148 -410zM1446 246q-6 6 -16 14q180 215 180 500
t-180 500l16 14q88 -105 136 -237t48 -277q0 -144 -48 -276t-136 -238zM375 348q-148 182 -148 412q0 229 146 409q2 -2 7.5 -6.5t8.5 -7.5q-141 -170 -141 -395q0 -228 141 -398zM684 627q-43 59 -43 133t43 133q6 -4 16 -14q-38 -50 -38 -119q0 -67 38 -117zM745 682
q-24 34 -24 78t24 78q2 -3 4.5 -5.5t6 -5.5t4.5 -4q-19 -34 -19 -63q0 -30 19 -64zM809 825l-10 13q21 18 53 18t53 -18l-10 -13q-23 15 -43 15q-25 0 -43 -15zM786 852l-14 14q37 29 80 29q41 0 78 -29q-8 -8 -12 -14q-28 25 -66 25q-34 0 -66 -25zM760 881l-15 16
q45 39 107 39q61 0 106 -39l-14 -16q-37 34 -92 34t-92 -34zM604 1057l-14 16q112 98 262 98q151 0 262 -100q1 0 -2 -3.5t-6 -7.5l-4 -3q-108 94 -250 94q-143 0 -248 -94zM852 492q-100 0 -170 61l14 16q70 -57 156 -57q87 0 154 57l14 -14q-73 -63 -168 -63zM852 584
q-61 0 -109 39l15 16q47 -35 94 -35q51 0 92 35l14 -16q-45 -39 -106 -39zM852 625q-43 0 -82 28l14 15q36 -25 68 -25q34 0 66 25l14 -15q-36 -28 -80 -28zM698 950l-14 15q73 63 168 63q98 0 168 -61l-14 -17q-68 58 -154 58q-87 0 -154 -58zM655 997l-14 17q91 78 211 78
q119 0 209 -80l-12 -15q-83 74 -197 74q-110 0 -197 -74zM1249 1223q-166 153 -397 153q-227 0 -397 -151l-15 14q179 158 412 158t412 -158zM352 1339l-14 17q104 95 236 146.5t278 51.5q145 0 278 -52t238 -146l-14 -17q-102 93 -231 144t-271 51t-270 -51t-230 -144z
M1057 594l-15 14q52 69 52 152t-54 153l17 15q57 -72 57 -168q0 -97 -57 -166z" />
    <glyph glyph-name="registered" unicode="&#xae;" horiz-adv-x="1366" 
d="M682 -20q-139 0 -244.5 38t-172.5 104t-108.5 166.5t-58 213.5t-16.5 256q0 119 11.5 217t38 188.5t72.5 157.5t111 117.5t157.5 76t209.5 25.5q139 0 244.5 -38t173.5 -105t110 -167.5t59 -214t17 -257.5q0 -143 -17 -256.5t-59 -213.5t-110 -166t-173.5 -104
t-244.5 -38zM682 61q120 0 210.5 34t148.5 93t93.5 149t49.5 191t14 230q0 130 -14 232t-49.5 192t-93.5 149t-148.5 93t-210.5 34t-210 -34t-147.5 -93t-93 -149t-49.5 -192t-14 -232q0 -129 14 -230t49.5 -191t93 -149t147.5 -93t210 -34zM879 266l-181 398h-178v-398
h-127v994h332q160 0 225.5 -69.5t65.5 -223.5q0 -130 -44.5 -202t-148.5 -93l185 -406h-129zM520 768h201q94 0 133 43t39 147t-39 147.5t-133 43.5h-201v-381z" />
    <glyph glyph-name="macron" unicode="&#xaf;" 
d="M166 1255v160h631v-160h-631z" />
    <glyph glyph-name="macron" unicode="&#x2c9;" 
d="M166 1255v160h631v-160h-631z" />
    <glyph glyph-name="degree" unicode="&#xb0;" horiz-adv-x="935" 
d="M469 567q-90 0 -156.5 25t-107.5 67t-66 105.5t-34 131.5t-9 155q0 86 9 153.5t34 131.5t66 106t107.5 67t156.5 25t156.5 -25t107.5 -67t66 -106t34 -131.5t9 -153.5q0 -87 -9 -155t-34 -131.5t-66 -105.5t-107.5 -67t-156.5 -25zM469 717q54 0 93 17t62 44.5t36 72
t17.5 89.5t4.5 107t-4.5 107t-17.5 88.5t-36 71t-62 44t-93 16.5q-65 0 -108.5 -23.5t-65.5 -70.5t-30.5 -101.5t-8.5 -131.5t8.5 -132t30.5 -102.5t65.5 -71.5t108.5 -24z" />
    <glyph glyph-name="plusminus" unicode="&#xb1;" horiz-adv-x="1720" 
d="M768 0v969h-360v-969h-193v969h-178v168h178v127q0 152 77 233.5t247 81.5h96v-170h-80q-87 0 -117 -40t-30 -124v-108h360v127q0 152 76.5 233.5t249.5 81.5h94v-170h-80q-87 0 -117 -40t-30 -124v-108h227v-168h-227v-969h-193zM1647 0q-8 -2 -66 -2q-148 0 -204 58
t-56 210v1309h192v-1286q0 -27 1 -41.5t5 -30.5t12.5 -23.5t23.5 -14.5t37 -9t55 -2v-168z" />
    <glyph glyph-name="twosuperior" unicode="&#xb2;" horiz-adv-x="774" 
d="M104 575v111l209 260q123 153 153 204t30 112q0 69 -31 96.5t-103 27.5q-105 0 -190 -45l-66 129q116 58 279 58q138 0 200 -59.5t62 -184.5q0 -100 -38.5 -173t-180.5 -249l-123 -157h359v-130h-560z" />
    <glyph glyph-name="threesuperior" unicode="&#xb3;" horiz-adv-x="780" 
d="M365 565q-162 0 -273 66l68 119q86 -50 192 -50q92 0 127 36.5t35 131.5q0 40 -5.5 64t-23 43.5t-52.5 28t-91 8.5h-119v133h123q85 0 116.5 30t31.5 91q0 75 -31.5 99t-108.5 24q-99 0 -186 -41l-64 120q120 60 273 60q138 0 203 -48.5t65 -181.5q0 -82 -20 -131.5
t-74 -72.5q71 -25 93 -78t22 -162q0 -158 -72.5 -223.5t-228.5 -65.5z" />
    <glyph glyph-name="acute" unicode="&#xb4;" 
d="M346 1255l229 332h213l-272 -332h-170z" />
    <glyph glyph-name="mu" unicode="&#xb5;" horiz-adv-x="1046" 
d="M115 -324v1461h192v-705q0 -62 3.5 -100.5t16.5 -75.5t37 -56.5t65 -31.5t101 -12t100 12t64 31.5t36.5 57t16 75.5t3.5 100v705h188v-715q0 -95 -9.5 -160.5t-34.5 -121.5t-70 -88t-115.5 -50t-171.5 -18q-176 0 -230 82v-390h-192z" />
    <glyph glyph-name="mu" unicode="&#x3bc;" horiz-adv-x="1046" 
d="M115 -324v1461h192v-705q0 -62 3.5 -100.5t16.5 -75.5t37 -56.5t65 -31.5t101 -12t100 12t64 31.5t36.5 57t16 75.5t3.5 100v705h188v-715q0 -95 -9.5 -160.5t-34.5 -121.5t-70 -88t-115.5 -50t-171.5 -18q-176 0 -230 82v-390h-192z" />
    <glyph glyph-name="paragraph" unicode="&#xb6;" horiz-adv-x="1058" 
d="M397 0v598q-178 30 -250.5 140.5t-72.5 314.5q0 121 23.5 205.5t78 144t146.5 87.5t227 28h381v-1518h-187v586h-159v-586h-187zM545 754h198v589h-198q-153 0 -216 -66t-63 -228t63.5 -228.5t215.5 -66.5z" />
    <glyph glyph-name="periodcentered" unicode="&#xb7;" horiz-adv-x="442" 
d="M104 571v263h234v-263h-234z" />
    <glyph glyph-name="periodcentered" unicode="&#x2219;" horiz-adv-x="442" 
d="M104 571v263h234v-263h-234z" />
    <glyph glyph-name="cedilla" unicode="&#xb8;" 
d="M512 -451q-111 0 -205 43l43 99q82 -29 150 -29t93 22t25 70q0 54 -32 69.5t-119 10.5l-45 33l29 147h114l-18 -104q45 3 79.5 -2.5t64 -23t45.5 -53t16 -87.5q0 -100 -55 -147.5t-185 -47.5z" />
    <glyph glyph-name="onesuperior" unicode="&#xb9;" horiz-adv-x="557" 
d="M227 575v801h-139v142h299v-943h-160z" />
    <glyph glyph-name="ordmasculine" unicode="&#xba;" horiz-adv-x="925" 
d="M463 582q-90 0 -156.5 24t-107 64t-64.5 103t-32.5 129.5t-8.5 154.5t8.5 154.5t32 130t64 104t107 64.5t157.5 24t158.5 -24.5t107.5 -65t64 -104t32.5 -129.5t8.5 -154q0 -89 -8.5 -156t-32.5 -129.5t-64 -102.5t-107 -63.5t-159 -23.5zM463 723q55 0 93.5 17t60.5 44
t34 73t15.5 89.5t3.5 108.5q0 52 -2.5 89.5t-9.5 78t-21 67.5t-36.5 49.5t-57 33.5t-80.5 11q-55 0 -94 -17t-61 -44t-34.5 -72.5t-16 -89t-3.5 -106.5q0 -64 3.5 -108t16 -90t34.5 -73t61 -44t94 -17zM123 293v143h680v-143h-680z" />
    <glyph glyph-name="guillemotright" unicode="&#xbb;" horiz-adv-x="1177" 
d="M178 0l236 569l-236 568h170l248 -568l-248 -569h-170zM621 0l235 569l-235 568h172l243 -568l-243 -569h-172z" />
    <glyph glyph-name="onequarter" unicode="&#xbc;" horiz-adv-x="1554" 
d="M324 0l663 1518h176l-665 -1518h-174zM831 190v121l328 631h162l-326 -625h219l29 252h115v-252h125v-127h-125v-190h-146v190h-381zM244 575v801h-140v142h302v-943h-162z" />
    <glyph glyph-name="onehalf" unicode="&#xbd;" horiz-adv-x="1654" 
d="M324 0l663 1518h176l-665 -1518h-174zM244 575v801h-140v142h302v-943h-162zM981 0v111l211 256q124 155 153 205.5t29 113.5q0 69 -30.5 96t-102.5 27q-102 0 -190 -43l-66 127q115 61 279 61q137 0 200.5 -60.5t63.5 -184.5q0 -99 -39.5 -173.5t-181.5 -250.5
l-125 -156h356v-129h-557z" />
    <glyph glyph-name="threequarters" unicode="&#xbe;" horiz-adv-x="1705" 
d="M365 565q-162 0 -273 66l68 119q86 -50 192 -50q92 0 127 36.5t35 131.5q0 40 -5.5 64t-23 43.5t-52.5 28t-91 8.5h-119v133h123q85 0 116.5 30t31.5 91q0 75 -31.5 99t-108.5 24q-99 0 -186 -41l-64 120q120 60 273 60q138 0 203 -48.5t65 -181.5q0 -82 -20 -131.5
t-74 -72.5q71 -25 93 -78t22 -162q0 -158 -72.5 -223.5t-228.5 -65.5zM471 0l668 1518h174l-668 -1518h-174zM983 190v121l330 631h162l-330 -625h221l29 252h114v-252h125v-127h-125v-190h-145v190h-381z" />
    <glyph glyph-name="questiondown" unicode="&#xbf;" horiz-adv-x="1095" 
d="M549 -16q-113 0 -191 25t-121 73t-61 107.5t-18 138.5q0 68 11.5 120.5t40 99t55.5 78.5t77 83q34 34 55 56.5t42 47t31 41t21 38.5t13 40.5t6.5 46t2 54.5t-0.5 67h188q1 -124 -11 -187t-51.5 -123t-135.5 -157q-89 -91 -120.5 -143.5t-31.5 -129.5q0 -46 10 -80
t34.5 -62t71 -42t114.5 -14q159 0 307 76l86 -162q-180 -92 -424 -92zM492 1284v234h229v-234h-229z" />
    <glyph glyph-name="Agrave" unicode="&#xc0;" horiz-adv-x="1224" 
d="M41 0l467 1528h209l467 -1528h-201l-94 315h-561l-90 -315h-197zM381 496h457l-228 753zM576 1603l-277 332h219l227 -332h-169z" />
    <glyph glyph-name="Aacute" unicode="&#xc1;" horiz-adv-x="1224" 
d="M41 0l467 1528h209l467 -1528h-201l-94 315h-561l-90 -315h-197zM381 496h457l-228 753zM473 1603l229 332h213l-272 -332h-170z" />
    <glyph glyph-name="Acircumflex" unicode="&#xc2;" horiz-adv-x="1224" 
d="M41 0l467 1528h209l467 -1528h-201l-94 315h-561l-90 -315h-197zM381 496h457l-228 753zM291 1603l229 332h182l228 -332h-160l-162 197l-162 -197h-155z" />
    <glyph glyph-name="Atilde" unicode="&#xc3;" horiz-adv-x="1224" 
d="M41 0l467 1528h209l467 -1528h-201l-94 315h-561l-90 -315h-197zM381 496h457l-228 753zM381 1595l-127 72q86 170 227 170q43 0 88.5 -21t84 -42t65.5 -21q33 0 59 22.5t58 71.5l125 -72q-84 -176 -226 -176q-56 0 -133 41t-106 41q-33 0 -59.5 -21t-55.5 -65z" />
    <glyph glyph-name="Adieresis" unicode="&#xc4;" horiz-adv-x="1224" 
d="M41 0l467 1528h209l467 -1528h-201l-94 315h-561l-90 -315h-197zM381 496h457l-228 753zM342 1603v215h172v-215h-172zM705 1603v215h174v-215h-174z" />
    <glyph glyph-name="Aring" unicode="&#xc5;" horiz-adv-x="1224" 
d="M41 0l444 1456q-90 56 -90 209q0 111 51 176.5t164 65.5q110 0 162.5 -66t52.5 -176q0 -148 -88 -207l447 -1458h-201l-94 315h-561l-90 -315h-197zM381 496h457l-228 753zM610 1528q109 0 109 137q0 139 -109 139q-110 0 -110 -139q0 -132 98 -137h12z" />
    <glyph glyph-name="AE" unicode="&#xc6;" horiz-adv-x="1789" 
d="M31 0l731 1518h932v-183h-639v-463h606v-178h-606v-516h645v-178h-840v324h-479l-156 -324h-194zM461 494h399v827z" />
    <glyph glyph-name="Ccedilla" unicode="&#xc7;" horiz-adv-x="1067" 
d="M559 -451q-111 0 -205 43l43 99q82 -29 150 -29t93.5 22t25.5 70q0 54 -32.5 69.5t-119.5 10.5l-45 33l25 127q-101 16 -175.5 60t-122 108.5t-76.5 158.5t-40.5 198.5t-11.5 238.5q0 105 6.5 190t23 167t44.5 144t71.5 115.5t102 87.5t139 53t180.5 19q228 0 369 -96
l-105 -164q-109 67 -270 67q-106 0 -176.5 -34t-111 -109.5t-57 -181t-16.5 -262.5q0 -126 10 -216.5t34 -164.5t65.5 -119t104 -68.5t149.5 -23.5q95 0 160 19.5t133 62.5l98 -154q-85 -55 -175.5 -80.5t-225.5 -25.5h-15l-12 -74q45 3 79.5 -2.5t64 -23t45.5 -53t16 -87.5
q0 -100 -55 -147.5t-185 -47.5z" />
    <glyph glyph-name="Egrave" unicode="&#xc8;" horiz-adv-x="1062" 
d="M133 0v1518h834v-183h-639v-461h606v-180h-606v-516h645v-178h-840zM496 1603l-277 332h219l227 -332h-169z" />
    <glyph glyph-name="Eacute" unicode="&#xc9;" horiz-adv-x="1062" 
d="M393 1604l230 331h213l-273 -331h-170zM133 0v1518h834v-183h-639v-461h606v-180h-606v-516h645v-178h-840z" />
    <glyph glyph-name="Ecircumflex" unicode="&#xca;" horiz-adv-x="1062" 
d="M211 1604l229 331h183l227 -331h-160l-162 196l-161 -196h-156zM133 0v1518h834v-183h-639v-461h606v-180h-606v-516h645v-178h-840z" />
    <glyph glyph-name="Edieresis" unicode="&#xcb;" horiz-adv-x="1062" 
d="M262 1604v215h172v-215h-172zM625 1604v215h174v-215h-174zM133 0v1518h834v-183h-639v-461h606v-180h-606v-516h645v-178h-840z" />
    <glyph glyph-name="Igrave" unicode="&#xcc;" horiz-adv-x="491" 
d="M170 1604l-231 333h213l184 -333h-166zM147 0v1518h199v-1518h-199z" />
    <glyph glyph-name="Iacute" unicode="&#xcd;" horiz-adv-x="491" 
d="M154 1604l184 333h213l-232 -333h-165zM147 0v1518h199v-1518h-199z" />
    <glyph glyph-name="Icircumflex" unicode="&#xce;" horiz-adv-x="491" 
d="M-68 1604l222 333h182l223 -333h-158l-157 200l-156 -200h-156zM147 0v1518h199v-1518h-199z" />
    <glyph glyph-name="Idieresis" unicode="&#xcf;" horiz-adv-x="491" 
d="M147 0v1518h199v-1518h-199zM-18 1603v215h172v-215h-172zM345 1603v215h174v-215h-174z" />
    <glyph glyph-name="Eth" unicode="&#xd0;" horiz-adv-x="1228" 
d="M2 698v164h131v656h430q177 0 294 -45t184 -143.5t93.5 -233.5t26.5 -336q0 -136 -11 -238t-37.5 -190.5t-71 -148t-112 -102t-160 -62t-214.5 -19.5h-422v698h-131zM332 174h237q97 0 166 23.5t113 67t69 117.5t34.5 162t9.5 214q0 125 -9.5 212t-34 160t-68 116
t-111.5 66t-165 23h-241v-473h252v-164h-252v-524z" />
    <glyph glyph-name="Ntilde" unicode="&#xd1;" horiz-adv-x="1284" 
d="M133 0v1518h215l615 -1123v1123h190v-1518h-184l-647 1174v-1174h-189zM412 1595l-127 72q86 170 227 170q43 0 88.5 -21t84 -42t65.5 -21q33 0 59 22.5t58 71.5l125 -72q-84 -176 -226 -176q-56 0 -133 41t-106 41q-33 0 -59.5 -21t-55.5 -65z" />
    <glyph glyph-name="Ograve" unicode="&#xd2;" horiz-adv-x="1286" 
d="M645 -16q-107 0 -193 21.5t-145.5 58t-103.5 94t-69.5 119t-40.5 145t-20 160.5t-5 176t5 176t20 161t40.5 145.5t69.5 119.5t103.5 94.5t145.5 58t193 21.5q84 0 154 -13t124 -36t97.5 -59t74 -77t53 -95t36 -107.5t21.5 -121.5t11 -129.5t3 -137.5q0 -99 -5 -176
t-20 -160.5t-40.5 -145t-69 -119.5t-103 -94t-144.5 -57.5t-192 -21.5zM645 162q72 0 128 15.5t95 41.5t67 69t44.5 88.5t25.5 110.5t12 124.5t3 140.5t-3 140.5t-12.5 124.5t-26 111t-44.5 89t-67 69t-95 41.5t-127 15.5q-63 0 -114 -11t-89 -34t-66.5 -52t-47.5 -71.5
t-31 -85.5t-18.5 -101.5t-8.5 -112t-2 -123.5q0 -81 3 -140.5t12 -124.5t25.5 -110.5t44.5 -88.5t67.5 -69t96 -41.5t128.5 -15.5zM609 1603l-277 332h219l227 -332h-169z" />
    <glyph glyph-name="Oacute" unicode="&#xd3;" horiz-adv-x="1286" 
d="M506 1604l229 331h213l-272 -331h-170zM645 -16q-107 0 -193 21.5t-145.5 58t-103.5 94t-69.5 119t-40.5 145t-20 160.5t-5 176t5 176t20 161t40.5 145.5t69.5 119.5t103.5 94.5t145.5 58t193 21.5q84 0 154 -13t124 -36t97.5 -59t74 -77t53 -95t36 -107.5t21.5 -121.5
t11 -129.5t3 -137.5q0 -99 -5 -176t-20 -160.5t-40.5 -145t-69 -119.5t-103 -94t-144.5 -57.5t-192 -21.5zM645 162q72 0 128 15.5t95 41.5t67 69t44.5 88.5t25.5 110.5t12 124.5t3 140.5t-3 140.5t-12.5 124.5t-26 111t-44.5 89t-67 69t-95 41.5t-127 15.5q-63 0 -114 -11
t-89 -34t-66.5 -52t-47.5 -71.5t-31 -85.5t-18.5 -101.5t-8.5 -112t-2 -123.5q0 -81 3 -140.5t12 -124.5t25.5 -110.5t44.5 -88.5t67.5 -69t96 -41.5t128.5 -15.5z" />
    <glyph glyph-name="Ocircumflex" unicode="&#xd4;" horiz-adv-x="1286" 
d="M324 1604l229 331h182l228 -331h-160l-162 196l-162 -196h-155zM645 -16q-107 0 -193 21.5t-145.5 58t-103.5 94t-69.5 119t-40.5 145t-20 160.5t-5 176t5 176t20 161t40.5 145.5t69.5 119.5t103.5 94.5t145.5 58t193 21.5q84 0 154 -13t124 -36t97.5 -59t74 -77t53 -95
t36 -107.5t21.5 -121.5t11 -129.5t3 -137.5q0 -99 -5 -176t-20 -160.5t-40.5 -145t-69 -119.5t-103 -94t-144.5 -57.5t-192 -21.5zM645 162q72 0 128 15.5t95 41.5t67 69t44.5 88.5t25.5 110.5t12 124.5t3 140.5t-3 140.5t-12.5 124.5t-26 111t-44.5 89t-67 69t-95 41.5
t-127 15.5q-63 0 -114 -11t-89 -34t-66.5 -52t-47.5 -71.5t-31 -85.5t-18.5 -101.5t-8.5 -112t-2 -123.5q0 -81 3 -140.5t12 -124.5t25.5 -110.5t44.5 -88.5t67.5 -69t96 -41.5t128.5 -15.5z" />
    <glyph glyph-name="Otilde" unicode="&#xd5;" horiz-adv-x="1286" 
d="M645 -16q-107 0 -193 21.5t-145.5 58t-103.5 94t-69.5 119t-40.5 145t-20 160.5t-5 176t5 176t20 161t40.5 145.5t69.5 119.5t103.5 94.5t145.5 58t193 21.5q84 0 154 -13t124 -36t97.5 -59t74 -77t53 -95t36 -107.5t21.5 -121.5t11 -129.5t3 -137.5q0 -99 -5 -176
t-20 -160.5t-40.5 -145t-69 -119.5t-103 -94t-144.5 -57.5t-192 -21.5zM645 162q72 0 128 15.5t95 41.5t67 69t44.5 88.5t25.5 110.5t12 124.5t3 140.5t-3 140.5t-12.5 124.5t-26 111t-44.5 89t-67 69t-95 41.5t-127 15.5q-63 0 -114 -11t-89 -34t-66.5 -52t-47.5 -71.5
t-31 -85.5t-18.5 -101.5t-8.5 -112t-2 -123.5q0 -81 3 -140.5t12 -124.5t25.5 -110.5t44.5 -88.5t67.5 -69t96 -41.5t128.5 -15.5zM414 1595l-127 72q86 170 227 170q43 0 88.5 -21t84 -42t65.5 -21q33 0 59 22.5t58 71.5l125 -72q-84 -176 -226 -176q-56 0 -133 41t-106 41
q-33 0 -59.5 -21t-55.5 -65z" />
    <glyph glyph-name="Odieresis" unicode="&#xd6;" horiz-adv-x="1286" 
d="M375 1604v215h172v-215h-172zM737 1604v215h174v-215h-174zM645 -16q-107 0 -193 21.5t-145.5 58t-103.5 94t-69.5 119t-40.5 145t-20 160.5t-5 176t5 176t20 161t40.5 145.5t69.5 119.5t103.5 94.5t145.5 58t193 21.5q84 0 154 -13t124 -36t97.5 -59t74 -77t53 -95
t36 -107.5t21.5 -121.5t11 -129.5t3 -137.5q0 -99 -5 -176t-20 -160.5t-40.5 -145t-69 -119.5t-103 -94t-144.5 -57.5t-192 -21.5zM645 162q72 0 128 15.5t95 41.5t67 69t44.5 88.5t25.5 110.5t12 124.5t3 140.5t-3 140.5t-12.5 124.5t-26 111t-44.5 89t-67 69t-95 41.5
t-127 15.5q-63 0 -114 -11t-89 -34t-66.5 -52t-47.5 -71.5t-31 -85.5t-18.5 -101.5t-8.5 -112t-2 -123.5q0 -81 3 -140.5t12 -124.5t25.5 -110.5t44.5 -88.5t67.5 -69t96 -41.5t128.5 -15.5z" />
    <glyph glyph-name="multiply" unicode="&#xd7;" horiz-adv-x="1159" 
d="M324 344l-117 121l254 256l-254 254l117 121l256 -256l258 256l116 -121l-258 -254l256 -254l-114 -121l-258 254z" />
    <glyph glyph-name="Oslash" unicode="&#xd8;" horiz-adv-x="1286" 
d="M197 -84l75 170q-64 49 -106 120t-62.5 163t-28 181.5t-7.5 207.5q0 99 5 176t20 161t40.5 145.5t69.5 119.5t103.5 94.5t145.5 58t193 21.5q125 0 223 -31l52 101h174l-80 -172q64 -49 106 -120.5t63 -163.5t28.5 -182t7.5 -208q0 -99 -5 -176t-20 -160.5t-40.5 -145
t-69 -119.5t-103 -94t-144.5 -57.5t-192 -21.5q-126 0 -221 28l-43 -96h-184zM645 152q72 0 129 16t96.5 42t68 70t45 90t25.5 112.5t12 127t3 142.5q0 177 -20 295.5t-78 191.5l-441 -1065q68 -22 160 -22zM262 752q0 -181 19 -298t77 -190l435 1065q-67 23 -148 23
q-73 0 -130.5 -16t-97.5 -42.5t-68.5 -70.5t-45 -90.5t-26 -112.5t-12.5 -126t-3 -142z" />
    <glyph glyph-name="Ugrave" unicode="&#xd9;" horiz-adv-x="1280" 
d="M641 -20q-147 0 -248 34t-160 103.5t-84.5 163.5t-25.5 225v1012h199v-998q0 -93 14 -156t49.5 -110.5t98.5 -69.5t159 -22q95 0 158.5 21.5t99.5 68t51 110.5t15 158v998h190v-1012q0 -132 -24.5 -225t-82 -163t-159 -104t-250.5 -34zM603 1603l-277 332h219l227 -332
h-169z" />
    <glyph glyph-name="Uacute" unicode="&#xda;" horiz-adv-x="1280" 
d="M500 1604l229 331h213l-272 -331h-170zM641 -20q-147 0 -248 34t-160 103.5t-84.5 163.5t-25.5 225v1012h199v-998q0 -93 14 -156t49.5 -110.5t98.5 -69.5t159 -22q95 0 158.5 21.5t99.5 68t51 110.5t15 158v998h190v-1012q0 -132 -24.5 -225t-82 -163t-159 -104
t-250.5 -34z" />
    <glyph glyph-name="Ucircumflex" unicode="&#xdb;" horiz-adv-x="1280" 
d="M317 1604l230 331h182l227 -331h-159l-162 196l-162 -196h-156zM641 -20q-147 0 -248 34t-160 103.5t-84.5 163.5t-25.5 225v1012h199v-998q0 -93 14 -156t49.5 -110.5t98.5 -69.5t159 -22q95 0 158.5 21.5t99.5 68t51 110.5t15 158v998h190v-1012q0 -132 -24.5 -225
t-82 -163t-159 -104t-250.5 -34z" />
    <glyph glyph-name="Udieresis" unicode="&#xdc;" horiz-adv-x="1280" 
d="M369 1604v215h172v-215h-172zM731 1604v215h174v-215h-174zM641 -20q-147 0 -248 34t-160 103.5t-84.5 163.5t-25.5 225v1012h199v-998q0 -93 14 -156t49.5 -110.5t98.5 -69.5t159 -22q95 0 158.5 21.5t99.5 68t51 110.5t15 158v998h190v-1012q0 -132 -24.5 -225
t-82 -163t-159 -104t-250.5 -34z" />
    <glyph glyph-name="Yacute" unicode="&#xdd;" horiz-adv-x="1167" 
d="M485 0v547l-473 971h213l361 -756l364 756h203l-471 -971v-547h-197zM444 1603l229 332h213l-272 -332h-170z" />
    <glyph glyph-name="Thorn" unicode="&#xde;" horiz-adv-x="1142" 
d="M133 0v1518h197v-252h319q245 0 348 -111.5t103 -351.5q0 -239 -104 -355t-351 -116h-315v-332h-197zM330 502h311q141 0 202.5 67.5t61.5 225.5q0 162 -61.5 229.5t-202.5 67.5h-311v-590z" />
    <glyph glyph-name="germandbls" unicode="&#xdf;" horiz-adv-x="1093" 
d="M115 0v1184q0 196 99.5 299.5t322.5 103.5q219 0 314 -92.5t95 -302.5q0 -163 -32 -247t-115 -118q130 -28 178.5 -120t48.5 -279q0 -160 -44 -251t-148.5 -134t-290.5 -43h-101v174h101q168 0 230.5 63t62.5 216q0 149 -62 210.5t-227 61.5h-43v164h43q115 0 165 58
t50 198t-52 199t-173 59q-122 0 -178 -57.5t-56 -178.5v-1167h-188z" />
    <glyph glyph-name="agrave" unicode="&#xe0;" horiz-adv-x="1044" 
d="M406 -12q-183 0 -260.5 89.5t-77.5 264.5q0 98 24 170t68.5 119t117.5 75.5t162 40t211 11.5h47q-3 121 -43.5 173t-156.5 52q-159 0 -281 -61l-80 157q156 80 379 80q113 0 185.5 -23t113.5 -75t56.5 -123t15.5 -180v-479q0 -70 14.5 -90.5t73.5 -20.5v-168
q-16 -2 -53 -2q-94 0 -137 23t-58 85q-49 -65 -126 -91.5t-195 -26.5zM444 147q55 0 98 13.5t79.5 45t56.5 91t20 143.5v160h-45q-91 0 -151.5 -5t-112 -19.5t-80 -41.5t-44 -69.5t-15.5 -104.5q0 -118 47.5 -165.5t146.5 -47.5zM486 1255l-277 332h219l227 -332h-169z" />
    <glyph glyph-name="aacute" unicode="&#xe1;" horiz-adv-x="1044" 
d="M406 -12q-183 0 -260.5 89.5t-77.5 264.5q0 98 24 170t68.5 119t117.5 75.5t162 40t211 11.5h47q-3 121 -43.5 173t-156.5 52q-159 0 -281 -61l-80 157q156 80 379 80q113 0 185.5 -23t113.5 -75t56.5 -123t15.5 -180v-479q0 -70 14.5 -90.5t73.5 -20.5v-168
q-16 -2 -53 -2q-94 0 -137 23t-58 85q-49 -65 -126 -91.5t-195 -26.5zM444 147q55 0 98 13.5t79.5 45t56.5 91t20 143.5v160h-45q-91 0 -151.5 -5t-112 -19.5t-80 -41.5t-44 -69.5t-15.5 -104.5q0 -118 47.5 -165.5t146.5 -47.5zM383 1255l229 332h213l-272 -332h-170z" />
    <glyph glyph-name="acircumflex" unicode="&#xe2;" horiz-adv-x="1044" 
d="M406 -12q-183 0 -260.5 89.5t-77.5 264.5q0 98 24 170t68.5 119t117.5 75.5t162 40t211 11.5h47q-3 121 -43.5 173t-156.5 52q-159 0 -281 -61l-80 157q156 80 379 80q113 0 185.5 -23t113.5 -75t56.5 -123t15.5 -180v-479q0 -70 14.5 -90.5t73.5 -20.5v-168
q-16 -2 -53 -2q-94 0 -137 23t-58 85q-49 -65 -126 -91.5t-195 -26.5zM444 147q55 0 98 13.5t79.5 45t56.5 91t20 143.5v160h-45q-91 0 -151.5 -5t-112 -19.5t-80 -41.5t-44 -69.5t-15.5 -104.5q0 -118 47.5 -165.5t146.5 -47.5zM201 1255l229 332h182l228 -332h-160
l-162 197l-162 -197h-155z" />
    <glyph glyph-name="atilde" unicode="&#xe3;" horiz-adv-x="1044" 
d="M406 -12q-183 0 -260.5 89.5t-77.5 264.5q0 98 24 170t68.5 119t117.5 75.5t162 40t211 11.5h47q-3 121 -43.5 173t-156.5 52q-159 0 -281 -61l-80 157q156 80 379 80q113 0 185.5 -23t113.5 -75t56.5 -123t15.5 -180v-479q0 -70 14.5 -90.5t73.5 -20.5v-168
q-16 -2 -53 -2q-94 0 -137 23t-58 85q-49 -65 -126 -91.5t-195 -26.5zM444 147q55 0 98 13.5t79.5 45t56.5 91t20 143.5v160h-45q-91 0 -151.5 -5t-112 -19.5t-80 -41.5t-44 -69.5t-15.5 -104.5q0 -118 47.5 -165.5t146.5 -47.5zM291 1247l-127 72q86 170 227 170
q43 0 88.5 -21t84 -42t65.5 -21q33 0 59 22.5t58 71.5l125 -72q-84 -176 -226 -176q-56 0 -133 41t-106 41q-33 0 -59.5 -21t-55.5 -65z" />
    <glyph glyph-name="adieresis" unicode="&#xe4;" horiz-adv-x="1044" 
d="M406 -12q-183 0 -260.5 89.5t-77.5 264.5q0 98 24 170t68.5 119t117.5 75.5t162 40t211 11.5h47q-3 121 -43.5 173t-156.5 52q-159 0 -281 -61l-80 157q156 80 379 80q113 0 185.5 -23t113.5 -75t56.5 -123t15.5 -180v-479q0 -70 14.5 -90.5t73.5 -20.5v-168
q-16 -2 -53 -2q-94 0 -137 23t-58 85q-49 -65 -126 -91.5t-195 -26.5zM444 147q55 0 98 13.5t79.5 45t56.5 91t20 143.5v160h-45q-91 0 -151.5 -5t-112 -19.5t-80 -41.5t-44 -69.5t-15.5 -104.5q0 -118 47.5 -165.5t146.5 -47.5zM252 1255v215h172v-215h-172zM615 1255v215
h174v-215h-174z" />
    <glyph glyph-name="aring" unicode="&#xe5;" horiz-adv-x="1044" 
d="M406 -12q-183 0 -260.5 89.5t-77.5 264.5q0 98 24 170t68.5 119t117.5 75.5t162 40t211 11.5h47q-3 121 -43.5 173t-156.5 52q-159 0 -281 -61l-80 157q156 80 379 80q113 0 185.5 -23t113.5 -75t56.5 -123t15.5 -180v-479q0 -70 14.5 -90.5t73.5 -20.5v-168
q-16 -2 -53 -2q-94 0 -137 23t-58 85q-49 -65 -126 -91.5t-195 -26.5zM444 147q55 0 98 13.5t79.5 45t56.5 91t20 143.5v160h-45q-91 0 -151.5 -5t-112 -19.5t-80 -41.5t-44 -69.5t-15.5 -104.5q0 -118 47.5 -165.5t146.5 -47.5zM520 1241q-113 0 -164 65t-51 175
q0 241 215 241q110 0 162.5 -65.5t52.5 -175.5q0 -108 -52.5 -174t-162.5 -66zM520 1343q109 0 109 138q0 139 -109 139q-110 0 -110 -139q0 -138 110 -138z" />
    <glyph glyph-name="ae" unicode="&#xe6;" horiz-adv-x="1605" 
d="M1141 -14q-274 0 -367 182q-47 -96 -139 -138t-246 -42q-169 0 -245 90.5t-76 263.5q0 123 35.5 204.5t111.5 128.5t180 66t256 19h47q-3 120 -43.5 171.5t-156.5 51.5q-159 0 -281 -61l-80 157q156 80 379 80q126 0 198.5 -31t106.5 -96q106 125 322 125q99 0 170.5 -24
t113 -67.5t66.5 -105t32 -136t10 -161t-1 -180.5h-653q6 -174 62.5 -252.5t207.5 -78.5q67 0 125.5 11t87 22t74.5 32l73 -147q-154 -84 -370 -84zM444 147q55 0 98 13.5t79.5 45t56.5 91t20 143.5v160h-45q-91 0 -151.5 -5t-112 -19.5t-80 -41.5t-44 -69.5t-15.5 -104.5
q0 -118 47.5 -165.5t146.5 -47.5zM1139 987q-75 0 -125 -22t-77.5 -67.5t-40 -103t-15.5 -141.5h479q0 38 -0.5 59.5t-2.5 53.5t-5 50t-8.5 43t-14 38.5t-20.5 30.5t-28 26t-36.5 17.5t-47 12t-58.5 3.5z" />
    <glyph glyph-name="ccedilla" unicode="&#xe7;" horiz-adv-x="860" 
d="M461 -451q-111 0 -205 43l43 99q82 -29 150 -29t93 22t25 70q0 54 -32 69.5t-119 10.5l-45 33l24 127q-78 13 -135 47.5t-93 83t-57.5 120t-29.5 148.5t-8 178q0 115 10.5 199.5t40 160.5t79 123.5t130 75t190.5 27.5q165 0 279 -57l-82 -166q-85 43 -189 43
q-79 0 -131 -25.5t-81 -80t-40.5 -126.5t-11.5 -178q0 -108 11 -180t39.5 -127.5t81.5 -81.5t134 -26q99 0 211 53l74 -148q-77 -38 -146 -55.5t-159 -17.5h-4l-12 -74q45 3 79.5 -2.5t63.5 -23t45 -53t16 -87.5q0 -100 -54.5 -147.5t-184.5 -47.5z" />
    <glyph glyph-name="egrave" unicode="&#xe8;" horiz-adv-x="978" 
d="M514 -14q-110 0 -189.5 27.5t-128 74.5t-76.5 123.5t-38 160t-10 199.5q0 112 11.5 197t41.5 160.5t79.5 124t128.5 76.5t185 28q58 0 106 -7.5t85 -22t66 -36t50 -49.5t36 -63t24 -75.5t14.5 -87.5t7 -100t2.5 -111t0 -122h-655q6 -174 62.5 -252.5t207.5 -78.5
q68 0 127 11t87.5 22t74.5 32l74 -147q-157 -84 -373 -84zM514 987q-75 0 -125 -22t-77.5 -67.5t-40 -103t-15.5 -141.5h475q-3 156 -18 210q-26 90 -110 114q-37 10 -89 10zM455 1255l-277 332h219l227 -332h-169z" />
    <glyph glyph-name="eacute" unicode="&#xe9;" horiz-adv-x="978" 
d="M352 1255l230 332h213l-273 -332h-170zM514 -14q-110 0 -189.5 27.5t-128 74.5t-76.5 123.5t-38 160t-10 199.5q0 112 11.5 197t41.5 160.5t79.5 124t128.5 76.5t185 28q58 0 106 -7.5t85 -22t66 -36t50 -49.5t36 -63t24 -75.5t14.5 -87.5t7 -100t2.5 -111t0 -122h-655
q6 -174 62.5 -252.5t207.5 -78.5q68 0 127 11t87.5 22t74.5 32l74 -147q-157 -84 -373 -84zM514 987q-75 0 -125 -22t-77.5 -67.5t-40 -103t-15.5 -141.5h475q-3 156 -18 210q-26 90 -110 114q-37 10 -89 10z" />
    <glyph glyph-name="ecircumflex" unicode="&#xea;" horiz-adv-x="978" 
d="M170 1255l229 332h183l227 -332h-160l-162 197l-161 -197h-156zM514 -14q-110 0 -189.5 27.5t-128 74.5t-76.5 123.5t-38 160t-10 199.5q0 112 11.5 197t41.5 160.5t79.5 124t128.5 76.5t185 28q58 0 106 -7.5t85 -22t66 -36t50 -49.5t36 -63t24 -75.5t14.5 -87.5t7 -100
t2.5 -111t0 -122h-655q6 -174 62.5 -252.5t207.5 -78.5q68 0 127 11t87.5 22t74.5 32l74 -147q-157 -84 -373 -84zM514 987q-75 0 -125 -22t-77.5 -67.5t-40 -103t-15.5 -141.5h475q-3 156 -18 210q-26 90 -110 114q-37 10 -89 10z" />
    <glyph glyph-name="edieresis" unicode="&#xeb;" horiz-adv-x="978" 
d="M221 1255v215h172v-215h-172zM584 1255v215h174v-215h-174zM514 -14q-110 0 -189.5 27.5t-128 74.5t-76.5 123.5t-38 160t-10 199.5q0 112 11.5 197t41.5 160.5t79.5 124t128.5 76.5t185 28q58 0 106 -7.5t85 -22t66 -36t50 -49.5t36 -63t24 -75.5t14.5 -87.5t7 -100
t2.5 -111t0 -122h-655q6 -174 62.5 -252.5t207.5 -78.5q68 0 127 11t87.5 22t74.5 32l74 -147q-157 -84 -373 -84zM514 987q-75 0 -125 -22t-77.5 -67.5t-40 -103t-15.5 -141.5h475q-3 156 -18 210q-26 90 -110 114q-37 10 -89 10z" />
    <glyph glyph-name="igrave" unicode="&#xec;" horiz-adv-x="436" 
d="M145 1255l-192 332h211l147 -332h-166zM121 0v1137h192v-1137h-192z" />
    <glyph glyph-name="iacute" unicode="&#xed;" horiz-adv-x="436" 
d="M125 1255l143 332h215l-192 -332h-166zM121 0v1137h192v-1137h-192z" />
    <glyph glyph-name="icircumflex" unicode="&#xee;" horiz-adv-x="436" 
d="M-68 1255l195 332h182l197 -332h-162l-129 197l-127 -197h-156zM121 0v1137h192v-1137h-192z" />
    <glyph glyph-name="idieresis" unicode="&#xef;" horiz-adv-x="436" 
d="M-18 1255v215h157v-215h-157zM297 1255v215h156v-215h-156zM121 0v1137h192v-1137h-192z" />
    <glyph glyph-name="eth" unicode="&#xf0;" horiz-adv-x="1054" 
d="M461 1194v143l143 37q-51 72 -112 125l143 96q93 -74 158 -172l194 52v-144l-127 -33q121 -269 121 -698q0 -82 -4 -145t-16 -129.5t-32.5 -115t-54.5 -93.5t-81.5 -72.5t-114.5 -44t-152 -16.5q-108 0 -188 28t-130.5 76t-81 122t-42.5 156t-12 187q0 69 4.5 126.5
t17 116t32.5 104.5t51.5 86t73.5 67t100.5 42t129.5 15q199 0 285 -96q-29 121 -86 237zM526 152q58 0 102 14t72 42t46 61t27 82t12 93t3 105t-3 105t-12 92.5t-27 81.5t-46 61t-72 41.5t-102 13.5q-69 0 -118 -21.5t-76.5 -54.5t-43 -88t-20 -106.5t-4.5 -124.5
q0 -60 3 -104.5t12 -93.5t27.5 -82t46.5 -61t71.5 -42t101.5 -14z" />
    <glyph glyph-name="ntilde" unicode="&#xf1;" horiz-adv-x="1062" 
d="M115 0v1126l153 13l17 -113q38 64 117 97.5t225 33.5q85 0 145.5 -20.5t96 -54t55.5 -90t26 -114t6 -139.5v-739h-192v696q0 61 -3.5 99.5t-15 76.5t-33.5 58t-59.5 32.5t-91.5 12.5q-66 0 -111.5 -16t-73.5 -43.5t-43.5 -76.5t-20.5 -104t-5 -137v-598h-192zM299 1247
l-127 72q86 170 227 170q43 0 88.5 -21t84 -42t65.5 -21q33 0 59 22.5t58 71.5l125 -72q-84 -176 -226 -176q-56 0 -133 41t-106 41q-33 0 -59.5 -21t-55.5 -65z" />
    <glyph glyph-name="ograve" unicode="&#xf2;" horiz-adv-x="1052" 
d="M526 -16q-112 0 -193.5 29.5t-131 78.5t-79 126.5t-40 160t-10.5 192.5q0 109 10 191t39 159.5t78.5 127t131.5 79t195 29.5t195.5 -30t132 -79.5t78.5 -127.5t39 -159.5t10 -189.5q0 -111 -10 -193.5t-39 -160t-78.5 -126.5t-132 -78t-195.5 -29zM526 152q50 0 89.5 11
t66.5 29t47 48.5t31 62.5t17.5 77.5t8.5 87t2 97.5q0 66 -3 113t-12 98t-27 84.5t-46 61.5t-72 41.5t-102 13.5q-69 0 -118 -21.5t-76.5 -54.5t-43 -90t-20 -111.5t-4.5 -134.5t4.5 -134.5t20 -111.5t43 -90.5t76.5 -55t118 -21.5zM488 1255l-277 332h219l227 -332h-169z
" />
    <glyph glyph-name="oacute" unicode="&#xf3;" horiz-adv-x="1052" 
d="M385 1255l229 332h213l-272 -332h-170zM526 -16q-112 0 -193.5 29.5t-131 78.5t-79 126.5t-40 160t-10.5 192.5q0 109 10 191t39 159.5t78.5 127t131.5 79t195 29.5t195.5 -30t132 -79.5t78.5 -127.5t39 -159.5t10 -189.5q0 -111 -10 -193.5t-39 -160t-78.5 -126.5
t-132 -78t-195.5 -29zM526 152q50 0 89.5 11t66.5 29t47 48.5t31 62.5t17.5 77.5t8.5 87t2 97.5q0 66 -3 113t-12 98t-27 84.5t-46 61.5t-72 41.5t-102 13.5q-69 0 -118 -21.5t-76.5 -54.5t-43 -90t-20 -111.5t-4.5 -134.5t4.5 -134.5t20 -111.5t43 -90.5t76.5 -55
t118 -21.5z" />
    <glyph glyph-name="ocircumflex" unicode="&#xf4;" horiz-adv-x="1052" 
d="M203 1255l229 332h182l228 -332h-160l-162 197l-162 -197h-155zM526 -16q-112 0 -193.5 29.5t-131 78.5t-79 126.5t-40 160t-10.5 192.5q0 109 10 191t39 159.5t78.5 127t131.5 79t195 29.5t195.5 -30t132 -79.5t78.5 -127.5t39 -159.5t10 -189.5q0 -111 -10 -193.5
t-39 -160t-78.5 -126.5t-132 -78t-195.5 -29zM526 152q50 0 89.5 11t66.5 29t47 48.5t31 62.5t17.5 77.5t8.5 87t2 97.5q0 66 -3 113t-12 98t-27 84.5t-46 61.5t-72 41.5t-102 13.5q-69 0 -118 -21.5t-76.5 -54.5t-43 -90t-20 -111.5t-4.5 -134.5t4.5 -134.5t20 -111.5
t43 -90.5t76.5 -55t118 -21.5z" />
    <glyph glyph-name="otilde" unicode="&#xf5;" horiz-adv-x="1052" 
d="M526 -16q-112 0 -193.5 29.5t-131 78.5t-79 126.5t-40 160t-10.5 192.5q0 109 10 191t39 159.5t78.5 127t131.5 79t195 29.5t195.5 -30t132 -79.5t78.5 -127.5t39 -159.5t10 -189.5q0 -111 -10 -193.5t-39 -160t-78.5 -126.5t-132 -78t-195.5 -29zM526 152q50 0 89.5 11
t66.5 29t47 48.5t31 62.5t17.5 77.5t8.5 87t2 97.5q0 66 -3 113t-12 98t-27 84.5t-46 61.5t-72 41.5t-102 13.5q-69 0 -118 -21.5t-76.5 -54.5t-43 -90t-20 -111.5t-4.5 -134.5t4.5 -134.5t20 -111.5t43 -90.5t76.5 -55t118 -21.5zM293 1247l-127 72q86 170 227 170
q43 0 88.5 -21t84 -42t65.5 -21q33 0 59 22.5t58 71.5l125 -72q-84 -176 -226 -176q-56 0 -133 41t-106 41q-33 0 -59.5 -21t-55.5 -65z" />
    <glyph glyph-name="odieresis" unicode="&#xf6;" horiz-adv-x="1052" 
d="M254 1255v215h172v-215h-172zM616 1255v215h175v-215h-175zM526 -16q-112 0 -193.5 29.5t-131 78.5t-79 126.5t-40 160t-10.5 192.5q0 109 10 191t39 159.5t78.5 127t131.5 79t195 29.5t195.5 -30t132 -79.5t78.5 -127.5t39 -159.5t10 -189.5q0 -111 -10 -193.5t-39 -160
t-78.5 -126.5t-132 -78t-195.5 -29zM526 152q50 0 89.5 11t66.5 29t47 48.5t31 62.5t17.5 77.5t8.5 87t2 97.5q0 66 -3 113t-12 98t-27 84.5t-46 61.5t-72 41.5t-102 13.5q-69 0 -118 -21.5t-76.5 -54.5t-43 -90t-20 -111.5t-4.5 -134.5t4.5 -134.5t20 -111.5t43 -90.5
t76.5 -55t118 -21.5z" />
    <glyph glyph-name="divide" unicode="&#xf7;" horiz-adv-x="1159" 
d="M477 256v201h205v-201h-205zM166 633v178h827v-178h-827zM477 985v201h205v-201h-205z" />
    <glyph glyph-name="oslash" unicode="&#xf8;" horiz-adv-x="1052" 
d="M127 -88l86 168q-79 72 -110 193.5t-31 297.5q0 109 10 191t39 159.5t78.5 127t131.5 79t195 29.5q98 0 187 -27l47 95h172l-86 -172q76 -73 105.5 -193t29.5 -289q0 -111 -10 -193.5t-39 -160t-78.5 -126.5t-132 -78t-195.5 -29q-105 0 -182 24l-47 -96h-170zM258 565
q0 -221 51 -311l332 711q-50 18 -115 18q-59 0 -103 -13.5t-73 -42t-48 -63t-28 -85.5t-12.5 -99t-3.5 -115zM526 147q70 0 120 21.5t78.5 56t44.5 91.5t21 113t5 136q0 215 -50 305l-331 -706q53 -17 112 -17z" />
    <glyph glyph-name="ugrave" unicode="&#xf9;" horiz-adv-x="1040" 
d="M520 -16q-101 0 -172.5 17.5t-118 50.5t-73 88.5t-37 121.5t-10.5 160v715h192v-705q0 -62 3.5 -100t16 -75.5t36.5 -57t65 -31.5t102 -12q59 0 99 12t64 31.5t36.5 56.5t16 75.5t3.5 100.5v705h189v-715q0 -119 -16 -195t-60 -134t-126 -83.5t-210 -25.5zM484 1255
l-277 332h219l227 -332h-169z" />
    <glyph glyph-name="uacute" unicode="&#xfa;" horiz-adv-x="1040" 
d="M381 1255l229 332h213l-272 -332h-170zM520 -16q-101 0 -172.5 17.5t-118 50.5t-73 88.5t-37 121.5t-10.5 160v715h192v-705q0 -62 3.5 -100t16 -75.5t36.5 -57t65 -31.5t102 -12q59 0 99 12t64 31.5t36.5 56.5t16 75.5t3.5 100.5v705h189v-715q0 -119 -16 -195t-60 -134
t-126 -83.5t-210 -25.5z" />
    <glyph glyph-name="ucircumflex" unicode="&#xfb;" horiz-adv-x="1040" 
d="M199 1255l229 332h182l228 -332h-160l-162 197l-162 -197h-155zM520 -16q-101 0 -172.5 17.5t-118 50.5t-73 88.5t-37 121.5t-10.5 160v715h192v-705q0 -62 3.5 -100t16 -75.5t36.5 -57t65 -31.5t102 -12q59 0 99 12t64 31.5t36.5 56.5t16 75.5t3.5 100.5v705h189v-715
q0 -119 -16 -195t-60 -134t-126 -83.5t-210 -25.5z" />
    <glyph glyph-name="udieresis" unicode="&#xfc;" horiz-adv-x="1040" 
d="M250 1255v215h172v-215h-172zM612 1255v215h174v-215h-174zM520 -16q-101 0 -172.5 17.5t-118 50.5t-73 88.5t-37 121.5t-10.5 160v715h192v-705q0 -62 3.5 -100t16 -75.5t36.5 -57t65 -31.5t102 -12q59 0 99 12t64 31.5t36.5 56.5t16 75.5t3.5 100.5v705h189v-715
q0 -119 -16 -195t-60 -134t-126 -83.5t-210 -25.5z" />
    <glyph glyph-name="yacute" unicode="&#xfd;" horiz-adv-x="917" 
d="M133 -324v158h105q45 0 66.5 16.5t33.5 57.5l24 88l-346 1141h195l250 -865l250 865h188l-387 -1270q-34 -113 -96 -152t-183 -39h-100zM323 1255l229 332h213l-272 -332h-170z" />
    <glyph glyph-name="thorn" unicode="&#xfe;" horiz-adv-x="1081" 
d="M115 -324v1899h190v-547q37 64 111.5 96.5t216.5 32.5q62 0 113 -12t88.5 -36.5t66 -55t47.5 -74t31.5 -87t19 -100t9 -107t2.5 -114.5q0 -86 -5 -152.5t-19 -137.5t-41 -121t-68 -91t-104.5 -62t-145.5 -21q-135 0 -207 28.5t-113 87.5v-426h-192zM575 154q62 0 106 20
t70.5 53t41 87.5t19.5 111.5t5 137t-4.5 136.5t-19.5 112.5t-41 90t-70.5 54.5t-106.5 20.5q-60 0 -105 -13t-74 -41.5t-47 -61.5t-27 -84.5t-12 -98.5t-3 -115q0 -58 2 -98.5t8 -87t17.5 -77t31 -60.5t47.5 -47.5t69 -28t93 -10.5z" />
    <glyph glyph-name="ydieresis" unicode="&#xff;" horiz-adv-x="917" 
d="M133 -324v158h105q45 0 66.5 16.5t33.5 57.5l24 88l-346 1141h195l250 -865l250 865h188l-387 -1270q-34 -113 -96 -152t-183 -39h-100zM192 1255v215h172v-215h-172zM555 1255v215h174v-215h-174z" />
    <glyph glyph-name="dotlessi" unicode="&#x131;" horiz-adv-x="436" 
d="M121 0v1137h192v-1137h-192z" />
    <glyph glyph-name="Lslash" unicode="&#x141;" horiz-adv-x="987" 
d="M2 618v164l131 72v664h199v-555l250 137v-164l-250 -137v-621h620v-178h-819v690z" />
    <glyph glyph-name="lslash" unicode="&#x142;" horiz-adv-x="643" 
d="M41 799v168l162 92v516h192v-404l180 105v-170l-180 -105v-712q0 -40 3 -58.5t16.5 -35.5t40 -22t75.5 -5v-168q-10 -2 -67 -2q-148 0 -204 58t-56 210v625z" />
    <glyph glyph-name="OE" unicode="&#x152;" horiz-adv-x="1949" 
d="M1040 0v123q-133 -139 -395 -139q-107 0 -193 21.5t-145.5 58t-103.5 94t-69.5 119t-40.5 145t-20 160.5t-5 176t5 176t20 161t40.5 145.5t69.5 119.5t103.5 94.5t145.5 58t193 21.5q261 0 395 -141v125h815v-183h-641v-463h607v-178h-607v-516h644v-178h-818zM645 162
q72 0 128 15.5t95 41.5t67 69t44.5 88.5t25.5 110.5t12 124.5t3 140.5t-3 140.5t-12.5 124.5t-26 111t-44.5 89t-67 69t-95 41.5t-127 15.5q-63 0 -114 -11t-89 -34t-66.5 -52t-47.5 -71.5t-31 -85.5t-18.5 -101.5t-8.5 -112t-2 -123.5q0 -81 3 -140.5t12 -124.5
t25.5 -110.5t44.5 -88.5t67.5 -69t96 -41.5t128.5 -15.5z" />
    <glyph glyph-name="oe" unicode="&#x153;" horiz-adv-x="1701" 
d="M526 -16q-112 0 -193.5 29.5t-131 78.5t-79 126.5t-40 160t-10.5 192.5q0 109 10 191t39 159.5t78.5 127t131.5 79t195 29.5q258 0 361 -164q106 164 352 164q99 0 170.5 -24.5t112.5 -68.5t66 -105.5t32 -136.5t10 -161t0 -178h-653q3 -86 15.5 -143t41.5 -102
t80.5 -65.5t130.5 -20.5q68 0 127.5 11.5t87 21.5t76.5 32l74 -147q-157 -84 -373 -84q-252 0 -352 155q-101 -157 -359 -157zM526 152q50 0 89.5 11t66.5 29t47 48.5t31 62.5t17.5 77.5t8.5 87t2 97.5q0 66 -3 113t-12 98t-27 84.5t-46 61.5t-72 41.5t-102 13.5
q-69 0 -118 -21.5t-76.5 -54.5t-43 -90t-20 -111.5t-4.5 -134.5t4.5 -134.5t20 -111.5t43 -90.5t76.5 -55t118 -21.5zM1237 987q-75 0 -125 -22t-77.5 -67.5t-40 -103t-15.5 -141.5h477q-1 39 -1.5 59.5t-2.5 53.5t-5 50t-9 42.5t-14 39t-20 30.5t-27.5 26t-36 17.5
t-46.5 12t-57 3.5z" />
    <glyph glyph-name="Scaron" unicode="&#x160;" horiz-adv-x="1103" 
d="M459 1604l-230 331h162l160 -198l160 198h157l-227 -331h-182zM553 -16q-302 0 -494 122l99 154q176 -104 391 -104q145 0 217 59t72 170q0 43 -7 76t-26.5 61t-41 48t-65.5 44t-83.5 41.5t-110.5 46.5q-82 34 -138 63t-106.5 67t-79.5 80.5t-46 99t-17 127.5
q0 187 116.5 291t337.5 104q227 0 404 -82l-84 -170q-139 66 -316 66q-134 0 -199 -53.5t-65 -149.5q0 -101 54 -151t227 -126q74 -32 122 -54t99.5 -50.5t82 -54t60 -59t44 -71.5t23.5 -85.5t9 -106.5q0 -191 -122 -297t-357 -106z" />
    <glyph glyph-name="scaron" unicode="&#x161;" horiz-adv-x="829" 
d="M328 1255l-230 332h162l160 -198l160 198h157l-227 -332h-182zM410 -14q-227 0 -377 75l76 152q133 -70 301 -70q190 0 190 152q0 74 -49 115.5t-186 101.5q-78 34 -127 62.5t-91 67.5t-60.5 89t-18.5 117q0 156 93.5 232.5t268.5 76.5q180 0 309 -57l-75 -160
q-111 49 -240 49q-92 0 -132 -34.5t-40 -102.5q0 -64 46 -102.5t175 -94.5q84 -35 133.5 -63t93 -69t62 -95.5t18.5 -130.5q0 -156 -96 -233.5t-274 -77.5z" />
    <glyph glyph-name="Ydieresis" unicode="&#x178;" horiz-adv-x="1167" 
d="M485 0v547l-473 971h213l361 -756l364 756h203l-471 -971v-547h-197zM313 1603v215h172v-215h-172zM676 1603v215h174v-215h-174z" />
    <glyph glyph-name="Zcaron" unicode="&#x17d;" horiz-adv-x="1089" 
d="M453 1604l-230 331h162l160 -198l160 198h157l-227 -331h-182zM63 0v154l703 1181h-674v183h909v-164l-700 -1176h719v-178h-957z" />
    <glyph glyph-name="zcaron" unicode="&#x17e;" horiz-adv-x="839" 
d="M332 1255l-230 332h162l160 -198l160 198h157l-227 -332h-182zM41 0v133l504 836h-473v168h708v-133l-504 -846h523v-158h-758z" />
    <glyph glyph-name="florin" unicode="&#x192;" horiz-adv-x="915" 
d="M133 758v170h197l41 276q10 64 21.5 106.5t34.5 85.5t56 67t86 39.5t125 15.5q18 0 56.5 -1t46.5 -1v-168h-86q-43 0 -71 -11t-43 -36.5t-21.5 -49t-12.5 -67.5l-39 -256h273v-170h-299l-166 -1082h-191l162 1082h-170z" />
    <glyph glyph-name="circumflex" unicode="&#x2c6;" 
d="M164 1255l229 332h182l228 -332h-160l-162 197l-162 -197h-155z" />
    <glyph glyph-name="caron" unicode="&#x2c7;" 
d="M393 1255l-229 332h162l159 -198l160 198h158l-228 -332h-182z" />
    <glyph glyph-name="breve" unicode="&#x2d8;" 
d="M483 1245q-86 0 -146 19.5t-96 60t-54.5 90t-28.5 121.5l141 20q15 -84 54 -123.5t130 -39.5q89 0 128.5 40t52.5 123l143 -18q-9 -58 -22 -100t-37 -80.5t-58.5 -62t-86 -37t-120.5 -13.5z" />
    <glyph glyph-name="dotaccent" unicode="&#x2d9;" 
d="M387 1255v230h193v-230h-193z" />
    <glyph glyph-name="ring" unicode="&#x2da;" 
d="M483 1241q-113 0 -164 65t-51 175q0 241 215 241q110 0 162.5 -65.5t52.5 -175.5q0 -108 -52.5 -174t-162.5 -66zM483 1343q109 0 109 138q0 139 -109 139q-110 0 -110 -139q0 -138 110 -138z" />
    <glyph glyph-name="ogonek" unicode="&#x2db;" horiz-adv-x="966" 
d="M512 -442q-125 0 -185.5 42.5t-60.5 143.5q0 51 19.5 99t51.5 84.5t61.5 61.5t60.5 44h149q-186 -144 -186 -260q0 -46 24.5 -67t85.5 -21h66v-127h-86z" />
    <glyph glyph-name="tilde" unicode="&#x2dc;" 
d="M254 1247l-127 72q86 170 227 170q43 0 88.5 -21t84 -42t65.5 -21q33 0 59 22.5t58 71.5l125 -72q-84 -176 -226 -176q-56 0 -133 41t-106 41q-33 0 -59.5 -21t-55.5 -65z" />
    <glyph glyph-name="hungarumlaut" unicode="&#x2dd;" 
d="M186 1255l222 332h204l-272 -332h-154zM563 1255l223 332h201l-270 -332h-154z" />
    <glyph glyph-name="Delta" unicode="&#x394;" horiz-adv-x="1083" 
d="M37 969v168h178v127q0 152 77 233.5t247 81.5h96v-170h-80q-87 0 -117 -40t-30 -124v-108h227v-168h-227v-969h-193v969h-178zM651 -324v158h17q63 0 81.5 27.5t18.5 103.5v1172h193v-1178q0 -158 -58 -220.5t-223 -62.5h-29zM768 1276v229h193v-229h-193z" />
    <glyph glyph-name="Delta" unicode="&#x2206;" horiz-adv-x="1083" 
d="M37 969v168h178v127q0 152 77 233.5t247 81.5h96v-170h-80q-87 0 -117 -40t-30 -124v-108h227v-168h-227v-969h-193v969h-178zM651 -324v158h17q63 0 81.5 27.5t18.5 103.5v1172h193v-1178q0 -158 -58 -220.5t-223 -62.5h-29zM768 1276v229h193v-229h-193z" />
    <glyph glyph-name="Omega" unicode="&#x3a9;" horiz-adv-x="1703" 
d="M258 246q-88 105 -136 237t-48 277q0 144 48 276t136 236q6 -4 14 -12q-85 -103 -131.5 -231.5t-46.5 -268.5q0 -285 180 -500zM467 432q-117 143 -117 328q0 183 115 327q3 -2 8 -7t8 -7q-110 -136 -110 -313q0 -182 110 -314zM541 498q-92 116 -92 262t92 262
q3 -2 8 -7t8 -7q-88 -109 -88 -248t88 -248q-3 -2 -8 -7t-8 -7zM647 592q-57 72 -57 168q0 97 57 166l15 -15q-52 -69 -52 -151q0 -84 54 -154q-3 -2 -8.5 -7t-8.5 -7zM715 655q-33 48 -33 105q0 56 33 104q3 -2 8 -7t8 -7q-29 -44 -29 -90t29 -90q-3 -2 -16 -15zM774 709
q-14 25 -14 51t14 51l12 -10q-10 -20 -10 -41t10 -41q-4 -4 -12 -10zM852 123q-236 0 -412 158l2.5 2.5l5 5l5.5 5.5t2 1q171 -152 397 -152q227 0 395 152q2 -3 7.5 -8t7.5 -8q-177 -156 -410 -156zM852 664q-31 0 -55 18l12 12q21 -14 43 -14q26 0 43 14q4 -4 10 -12
q-21 -18 -53 -18zM987 653q-7 10 -14 15q28 42 28 92q0 51 -28 90l2.5 2.5t5 4.5t5.5 5t1 2q35 -44 35 -104t-35 -107zM598 551q-72 91 -72 209q0 119 74 209l14 -15q-67 -87 -67 -194q0 -108 67 -195q-10 -10 -16 -14zM852 -35q-145 0 -278 52.5t-238 146.5l14 16
q102 -92 231 -143t271 -51q285 0 500 192q0 1 3.5 -2.5t6.5 -7.5l4 -4q-104 -95 -236 -147t-278 -52zM852 248q-189 0 -330 125l15 16q134 -121 315 -121q182 0 313 121q2 -3 7.5 -8t7.5 -8q-138 -125 -328 -125zM852 348q-145 0 -264 101l14 14q108 -94 250 -94
q143 0 248 94q2 -3 7 -8.5t7 -8.5q-112 -98 -262 -98zM852 428q-116 0 -211 78l14 16q86 -73 197 -73t197 73q4 -4 12 -16q-91 -78 -209 -78zM852 543q-77 0 -135 49l14 16q51 -45 121 -45q68 0 119 45q2 -3 7 -8t7 -8q-58 -49 -133 -49zM733 911q-4 3 -7 6.5t-6 6.5l-3 4
q58 49 135 49t135 -49l-16 -17q-51 45 -119 45t-119 -45zM1167 1130q-134 121 -315 121q-179 0 -313 -118l-15 14q141 125 328 125q189 0 330 -125q-4 -6 -15 -17zM930 709l-12 10q10 20 10 41t-10 41l12 10q14 -25 14 -51t-14 -51zM958 682q-10 10 -16 14q21 32 21 64
t-21 63l16 15q25 -36 25 -78t-25 -78zM1020 627q-6 4 -16 14q38 50 38 119t-38 119l14 14q45 -57 45 -133q0 -71 -43 -133zM1106 551q-3 2 -8 7t-8 7q67 87 67 195t-70 194l17 15q74 -90 74 -209q0 -118 -72 -209zM1163 498q-10 10 -16 14q88 109 88 248t-88 248l16 14
q92 -116 92 -262t-92 -262zM1237 432q-6 4 -16 14q112 134 112 314q0 182 -112 313l16 14q117 -139 117 -327q0 -189 -117 -328zM1329 350q-2 2 -7 6t-7 6q141 175 141 398q0 227 -143 395l16 14q148 -179 148 -409q0 -231 -148 -410zM1446 246q-6 6 -16 14q180 215 180 500
t-180 500l16 14q88 -105 136 -237t48 -277q0 -144 -48 -276t-136 -238zM375 348q-148 182 -148 412q0 229 146 409q2 -2 7.5 -6.5t8.5 -7.5q-141 -170 -141 -395q0 -228 141 -398zM684 627q-43 59 -43 133t43 133q6 -4 16 -14q-38 -50 -38 -119q0 -67 38 -117zM745 682
q-24 34 -24 78t24 78q2 -3 4.5 -5.5t6 -5.5t4.5 -4q-19 -34 -19 -63q0 -30 19 -64zM809 825l-10 13q21 18 53 18t53 -18l-10 -13q-23 15 -43 15q-25 0 -43 -15zM786 852l-14 14q37 29 80 29q41 0 78 -29q-8 -8 -12 -14q-28 25 -66 25q-34 0 -66 -25zM760 881l-15 16
q45 39 107 39q61 0 106 -39l-14 -16q-37 34 -92 34t-92 -34zM604 1057l-14 16q112 98 262 98q151 0 262 -100q1 0 -2 -3.5t-6 -7.5l-4 -3q-108 94 -250 94q-143 0 -248 -94zM852 492q-100 0 -170 61l14 16q70 -57 156 -57q87 0 154 57l14 -14q-73 -63 -168 -63zM852 584
q-61 0 -109 39l15 16q47 -35 94 -35q51 0 92 35l14 -16q-45 -39 -106 -39zM852 625q-43 0 -82 28l14 15q36 -25 68 -25q34 0 66 25l14 -15q-36 -28 -80 -28zM698 950l-14 15q73 63 168 63q98 0 168 -61l-14 -17q-68 58 -154 58q-87 0 -154 -58zM655 997l-14 17q91 78 211 78
q119 0 209 -80l-12 -15q-83 74 -197 74q-110 0 -197 -74zM1249 1223q-166 153 -397 153q-227 0 -397 -151l-15 14q179 158 412 158t412 -158zM352 1339l-14 17q104 95 236 146.5t278 51.5q145 0 278 -52t238 -146l-14 -17q-102 93 -231 144t-271 51t-270 -51t-230 -144z
M1057 594l-15 14q52 69 52 152t-54 153l17 15q57 -72 57 -168q0 -97 -57 -166z" />
    <glyph glyph-name="Omega" unicode="&#x2126;" horiz-adv-x="1703" 
d="M258 246q-88 105 -136 237t-48 277q0 144 48 276t136 236q6 -4 14 -12q-85 -103 -131.5 -231.5t-46.5 -268.5q0 -285 180 -500zM467 432q-117 143 -117 328q0 183 115 327q3 -2 8 -7t8 -7q-110 -136 -110 -313q0 -182 110 -314zM541 498q-92 116 -92 262t92 262
q3 -2 8 -7t8 -7q-88 -109 -88 -248t88 -248q-3 -2 -8 -7t-8 -7zM647 592q-57 72 -57 168q0 97 57 166l15 -15q-52 -69 -52 -151q0 -84 54 -154q-3 -2 -8.5 -7t-8.5 -7zM715 655q-33 48 -33 105q0 56 33 104q3 -2 8 -7t8 -7q-29 -44 -29 -90t29 -90q-3 -2 -16 -15zM774 709
q-14 25 -14 51t14 51l12 -10q-10 -20 -10 -41t10 -41q-4 -4 -12 -10zM852 123q-236 0 -412 158l2.5 2.5l5 5l5.5 5.5t2 1q171 -152 397 -152q227 0 395 152q2 -3 7.5 -8t7.5 -8q-177 -156 -410 -156zM852 664q-31 0 -55 18l12 12q21 -14 43 -14q26 0 43 14q4 -4 10 -12
q-21 -18 -53 -18zM987 653q-7 10 -14 15q28 42 28 92q0 51 -28 90l2.5 2.5t5 4.5t5.5 5t1 2q35 -44 35 -104t-35 -107zM598 551q-72 91 -72 209q0 119 74 209l14 -15q-67 -87 -67 -194q0 -108 67 -195q-10 -10 -16 -14zM852 -35q-145 0 -278 52.5t-238 146.5l14 16
q102 -92 231 -143t271 -51q285 0 500 192q0 1 3.5 -2.5t6.5 -7.5l4 -4q-104 -95 -236 -147t-278 -52zM852 248q-189 0 -330 125l15 16q134 -121 315 -121q182 0 313 121q2 -3 7.5 -8t7.5 -8q-138 -125 -328 -125zM852 348q-145 0 -264 101l14 14q108 -94 250 -94
q143 0 248 94q2 -3 7 -8.5t7 -8.5q-112 -98 -262 -98zM852 428q-116 0 -211 78l14 16q86 -73 197 -73t197 73q4 -4 12 -16q-91 -78 -209 -78zM852 543q-77 0 -135 49l14 16q51 -45 121 -45q68 0 119 45q2 -3 7 -8t7 -8q-58 -49 -133 -49zM733 911q-4 3 -7 6.5t-6 6.5l-3 4
q58 49 135 49t135 -49l-16 -17q-51 45 -119 45t-119 -45zM1167 1130q-134 121 -315 121q-179 0 -313 -118l-15 14q141 125 328 125q189 0 330 -125q-4 -6 -15 -17zM930 709l-12 10q10 20 10 41t-10 41l12 10q14 -25 14 -51t-14 -51zM958 682q-10 10 -16 14q21 32 21 64
t-21 63l16 15q25 -36 25 -78t-25 -78zM1020 627q-6 4 -16 14q38 50 38 119t-38 119l14 14q45 -57 45 -133q0 -71 -43 -133zM1106 551q-3 2 -8 7t-8 7q67 87 67 195t-70 194l17 15q74 -90 74 -209q0 -118 -72 -209zM1163 498q-10 10 -16 14q88 109 88 248t-88 248l16 14
q92 -116 92 -262t-92 -262zM1237 432q-6 4 -16 14q112 134 112 314q0 182 -112 313l16 14q117 -139 117 -327q0 -189 -117 -328zM1329 350q-2 2 -7 6t-7 6q141 175 141 398q0 227 -143 395l16 14q148 -179 148 -409q0 -231 -148 -410zM1446 246q-6 6 -16 14q180 215 180 500
t-180 500l16 14q88 -105 136 -237t48 -277q0 -144 -48 -276t-136 -238zM375 348q-148 182 -148 412q0 229 146 409q2 -2 7.5 -6.5t8.5 -7.5q-141 -170 -141 -395q0 -228 141 -398zM684 627q-43 59 -43 133t43 133q6 -4 16 -14q-38 -50 -38 -119q0 -67 38 -117zM745 682
q-24 34 -24 78t24 78q2 -3 4.5 -5.5t6 -5.5t4.5 -4q-19 -34 -19 -63q0 -30 19 -64zM809 825l-10 13q21 18 53 18t53 -18l-10 -13q-23 15 -43 15q-25 0 -43 -15zM786 852l-14 14q37 29 80 29q41 0 78 -29q-8 -8 -12 -14q-28 25 -66 25q-34 0 -66 -25zM760 881l-15 16
q45 39 107 39q61 0 106 -39l-14 -16q-37 34 -92 34t-92 -34zM604 1057l-14 16q112 98 262 98q151 0 262 -100q1 0 -2 -3.5t-6 -7.5l-4 -3q-108 94 -250 94q-143 0 -248 -94zM852 492q-100 0 -170 61l14 16q70 -57 156 -57q87 0 154 57l14 -14q-73 -63 -168 -63zM852 584
q-61 0 -109 39l15 16q47 -35 94 -35q51 0 92 35l14 -16q-45 -39 -106 -39zM852 625q-43 0 -82 28l14 15q36 -25 68 -25q34 0 66 25l14 -15q-36 -28 -80 -28zM698 950l-14 15q73 63 168 63q98 0 168 -61l-14 -17q-68 58 -154 58q-87 0 -154 -58zM655 997l-14 17q91 78 211 78
q119 0 209 -80l-12 -15q-83 74 -197 74q-110 0 -197 -74zM1249 1223q-166 153 -397 153q-227 0 -397 -151l-15 14q179 158 412 158t412 -158zM352 1339l-14 17q104 95 236 146.5t278 51.5q145 0 278 -52t238 -146l-14 -17q-102 93 -231 144t-271 51t-270 -51t-230 -144z
M1057 594l-15 14q52 69 52 152t-54 153l17 15q57 -72 57 -168q0 -97 -57 -166z" />
    <glyph glyph-name="pi" unicode="&#x3c0;" horiz-adv-x="1366" 
d="M682 -20q-139 0 -244.5 38t-172.5 104t-108.5 166.5t-58 213.5t-16.5 256q0 119 11.5 217t38 188.5t72.5 157.5t111 117.5t157.5 76t209.5 25.5q139 0 244.5 -38t173.5 -105t110 -167.5t59 -214t17 -257.5q0 -143 -17 -256.5t-59 -213.5t-110 -166t-173.5 -104
t-244.5 -38zM682 61q120 0 210.5 34t148.5 93t93.5 149t49.5 191t14 230q0 130 -14 232t-49.5 192t-93.5 149t-148.5 93t-210.5 34t-210 -34t-147.5 -93t-93 -149t-49.5 -192t-14 -232q0 -129 14 -230t49.5 -191t93 -149t147.5 -93t210 -34zM408 244v1016h340
q166 0 233.5 -72.5t67.5 -235.5q0 -160 -68 -234.5t-233 -74.5h-213v-399h-127zM535 750h208q97 0 138 44.5t41 151.5q0 110 -41 154.5t-138 44.5h-208v-395z" />
    <glyph glyph-name="endash" unicode="&#x2013;" horiz-adv-x="1173" 
d="M76 557v176h1024v-176h-1024z" />
    <glyph glyph-name="emdash" unicode="&#x2014;" horiz-adv-x="1531" 
d="M76 557v176h1380v-176h-1380z" />
    <glyph glyph-name="quoteleft" unicode="&#x2018;" horiz-adv-x="442" 
d="M104 999v240q0 115 36 171.5t147 111.5l53 -101q-68 -38 -88.5 -67t-20.5 -86h107v-269h-234z" />
    <glyph glyph-name="quoteright" unicode="&#x2019;" horiz-adv-x="442" 
d="M158 995l-58 101q69 38 90 67t21 86h-107v269h234v-238q0 -117 -35.5 -173.5t-144.5 -111.5z" />
    <glyph glyph-name="quotesinglbase" unicode="&#x201a;" horiz-adv-x="442" 
d="M158 -254l-58 100q69 38 90 67.5t21 86.5h-107v268h234v-237q0 -118 -35.5 -174.5t-144.5 -110.5z" />
    <glyph glyph-name="quotedblleft" unicode="&#x201c;" horiz-adv-x="788" 
d="M104 1010v237q0 114 35 167.5t144 107.5l53 -97q-67 -39 -88 -68t-21 -85h105v-262h-228zM457 1010v237q0 115 33.5 168.5t142.5 106.5l53 -97q-67 -39 -87.5 -67.5t-20.5 -85.5h104v-262h-225z" />
    <glyph glyph-name="quotedblright" unicode="&#x201d;" horiz-adv-x="786" 
d="M154 1006l-54 96q68 37 89.5 66t21.5 83h-107v267h228v-238q0 -116 -34 -168t-144 -106zM504 1006l-51 96q65 36 85.5 65t20.5 84h-104v267h227v-238q0 -116 -34 -168t-144 -106z" />
    <glyph glyph-name="quotedblbase" unicode="&#x201e;" horiz-adv-x="786" 
d="M154 -246l-54 96q68 38 89.5 68.5t21.5 85.5h-107v264h228v-237q0 -116 -34 -169.5t-144 -107.5zM504 -246l-51 96q65 38 85.5 68t20.5 86h-104v264h227v-237q0 -116 -34 -169.5t-144 -107.5z" />
    <glyph glyph-name="dagger" unicode="&#x2020;" horiz-adv-x="937" 
d="M373 -324v1262h-285v178h285v459h190v-459h287v-178h-287v-1262h-190z" />
    <glyph glyph-name="daggerdbl" unicode="&#x2021;" horiz-adv-x="937" 
d="M373 -324v482h-285v178h285v606h-285v180h285v453h190v-453h287v-180h-287v-606h287v-178h-287v-482h-190z" />
    <glyph glyph-name="bullet" unicode="&#x2022;" horiz-adv-x="608" 
d="M158 442v361h291v-361h-291z" />
    <glyph glyph-name="ellipsis" unicode="&#x2026;" horiz-adv-x="1263" 
d="M104 0v258h234v-258h-234zM516 0v258h229v-258h-229zM928 0v258h229v-258h-229z" />
    <glyph glyph-name="perthousand" unicode="&#x2030;" horiz-adv-x="2686" 
d="M414 565q-178 0 -263 111.5t-85 372.5q0 262 84.5 372.5t263.5 110.5q120 0 195.5 -45.5t116 -153t40.5 -284.5q0 -260 -86 -372t-266 -112zM416 713q96 0 136 73t40 258t-40 258.5t-136 73.5t-136 -73.5t-40 -258.5t40 -258t136 -73zM1499 -14q-179 0 -263.5 111
t-84.5 372t84.5 373t263.5 112t264.5 -112t85.5 -373t-85 -372t-265 -111zM1499 133q95 0 136.5 74.5t41.5 257.5q0 184 -41 258t-137 74q-95 0 -135.5 -73.5t-40.5 -258.5q0 -184 40.5 -258t135.5 -74zM537 0l665 1518h180l-667 -1518h-178zM2271 -14q-179 0 -263.5 111
t-84.5 372t84.5 373t263.5 112t264.5 -112t85.5 -373t-85 -372t-265 -111zM2273 133q96 0 136 74t40 258q0 185 -40 258.5t-136 73.5t-137 -74t-41 -258q0 -183 41.5 -257.5t136.5 -74.5z" />
    <glyph glyph-name="guilsinglleft" unicode="&#x2039;" horiz-adv-x="739" 
d="M385 0l-248 567l248 570h176l-233 -570l233 -567h-176z" />
    <glyph glyph-name="guilsinglright" unicode="&#x203a;" horiz-adv-x="739" 
d="M178 0l234 569l-234 568h176l248 -568l-248 -569h-176z" />
    <glyph glyph-name="fraction" unicode="&#x2044;" horiz-adv-x="854" 
d="M6 0l666 1518h174l-666 -1518h-174z" />
    <glyph glyph-name="fraction" unicode="&#x2215;" horiz-adv-x="854" 
d="M6 0l666 1518h174l-666 -1518h-174z" />
    <glyph glyph-name="Euro" unicode="&#x20ac;" horiz-adv-x="1142" 
d="M57 840v157h193q12 142 41.5 239.5t85 166t141 100t207.5 31.5q206 0 350 -84l-92 -162q-114 62 -260 62q-141 0 -204.5 -83.5t-78.5 -269.5h426v-157h-434v-146h434v-159h-426q16 -197 79.5 -286t205.5 -89q54 0 105 11.5t81.5 24.5t73.5 35l88 -153q-167 -94 -360 -94
q-234 0 -338.5 130t-126.5 421h-191v159h185v146h-185z" />
    <glyph glyph-name="trademark" unicode="&#x2122;" horiz-adv-x="1765" 
d="M791 569v949h161l228 -711l225 711h164v-949h-142v656l-202 -656h-97l-202 656v-656h-135zM330 569v815h-254v134h655v-134h-254v-815h-147z" />
    <glyph glyph-name="partialdiff" unicode="&#x2202;" horiz-adv-x="1703" 
d="M258 246q-88 105 -136 237t-48 277q0 144 48 276t136 236q6 -4 14 -12q-85 -103 -131.5 -231.5t-46.5 -268.5q0 -285 180 -500zM467 432q-117 143 -117 328q0 183 115 327q3 -2 8 -7t8 -7q-110 -136 -110 -313q0 -182 110 -314zM541 498q-92 116 -92 262t92 262
q3 -2 8 -7t8 -7q-88 -109 -88 -248t88 -248q-3 -2 -8 -7t-8 -7zM647 592q-57 72 -57 168q0 97 57 166l15 -15q-52 -69 -52 -151q0 -84 54 -154q-3 -2 -8.5 -7t-8.5 -7zM715 655q-33 48 -33 105q0 56 33 104q3 -2 8 -7t8 -7q-29 -44 -29 -90t29 -90q-3 -2 -16 -15zM774 709
q-14 25 -14 51t14 51l12 -10q-10 -20 -10 -41t10 -41q-4 -4 -12 -10zM852 123q-236 0 -412 158l2.5 2.5l5 5l5.5 5.5t2 1q171 -152 397 -152q227 0 395 152q2 -3 7.5 -8t7.5 -8q-177 -156 -410 -156zM852 664q-31 0 -55 18l12 12q21 -14 43 -14q26 0 43 14q4 -4 10 -12
q-21 -18 -53 -18zM987 653q-7 10 -14 15q28 42 28 92q0 51 -28 90l2.5 2.5t5 4.5t5.5 5t1 2q35 -44 35 -104t-35 -107zM598 551q-72 91 -72 209q0 119 74 209l14 -15q-67 -87 -67 -194q0 -108 67 -195q-10 -10 -16 -14zM852 -35q-145 0 -278 52.5t-238 146.5l14 16
q102 -92 231 -143t271 -51q285 0 500 192q0 1 3.5 -2.5t6.5 -7.5l4 -4q-104 -95 -236 -147t-278 -52zM852 248q-189 0 -330 125l15 16q134 -121 315 -121q182 0 313 121q2 -3 7.5 -8t7.5 -8q-138 -125 -328 -125zM852 348q-145 0 -264 101l14 14q108 -94 250 -94
q143 0 248 94q2 -3 7 -8.5t7 -8.5q-112 -98 -262 -98zM852 428q-116 0 -211 78l14 16q86 -73 197 -73t197 73q4 -4 12 -16q-91 -78 -209 -78zM852 543q-77 0 -135 49l14 16q51 -45 121 -45q68 0 119 45q2 -3 7 -8t7 -8q-58 -49 -133 -49zM733 911q-4 3 -7 6.5t-6 6.5l-3 4
q58 49 135 49t135 -49l-16 -17q-51 45 -119 45t-119 -45zM1167 1130q-134 121 -315 121q-179 0 -313 -118l-15 14q141 125 328 125q189 0 330 -125q-4 -6 -15 -17zM930 709l-12 10q10 20 10 41t-10 41l12 10q14 -25 14 -51t-14 -51zM958 682q-10 10 -16 14q21 32 21 64
t-21 63l16 15q25 -36 25 -78t-25 -78zM1020 627q-6 4 -16 14q38 50 38 119t-38 119l14 14q45 -57 45 -133q0 -71 -43 -133zM1106 551q-3 2 -8 7t-8 7q67 87 67 195t-70 194l17 15q74 -90 74 -209q0 -118 -72 -209zM1163 498q-10 10 -16 14q88 109 88 248t-88 248l16 14
q92 -116 92 -262t-92 -262zM1237 432q-6 4 -16 14q112 134 112 314q0 182 -112 313l16 14q117 -139 117 -327q0 -189 -117 -328zM1329 350q-2 2 -7 6t-7 6q141 175 141 398q0 227 -143 395l16 14q148 -179 148 -409q0 -231 -148 -410zM1446 246q-6 6 -16 14q180 215 180 500
t-180 500l16 14q88 -105 136 -237t48 -277q0 -144 -48 -276t-136 -238zM375 348q-148 182 -148 412q0 229 146 409q2 -2 7.5 -6.5t8.5 -7.5q-141 -170 -141 -395q0 -228 141 -398zM684 627q-43 59 -43 133t43 133q6 -4 16 -14q-38 -50 -38 -119q0 -67 38 -117zM745 682
q-24 34 -24 78t24 78q2 -3 4.5 -5.5t6 -5.5t4.5 -4q-19 -34 -19 -63q0 -30 19 -64zM809 825l-10 13q21 18 53 18t53 -18l-10 -13q-23 15 -43 15q-25 0 -43 -15zM786 852l-14 14q37 29 80 29q41 0 78 -29q-8 -8 -12 -14q-28 25 -66 25q-34 0 -66 -25zM760 881l-15 16
q45 39 107 39q61 0 106 -39l-14 -16q-37 34 -92 34t-92 -34zM604 1057l-14 16q112 98 262 98q151 0 262 -100q1 0 -2 -3.5t-6 -7.5l-4 -3q-108 94 -250 94q-143 0 -248 -94zM852 492q-100 0 -170 61l14 16q70 -57 156 -57q87 0 154 57l14 -14q-73 -63 -168 -63zM852 584
q-61 0 -109 39l15 16q47 -35 94 -35q51 0 92 35l14 -16q-45 -39 -106 -39zM852 625q-43 0 -82 28l14 15q36 -25 68 -25q34 0 66 25l14 -15q-36 -28 -80 -28zM698 950l-14 15q73 63 168 63q98 0 168 -61l-14 -17q-68 58 -154 58q-87 0 -154 -58zM655 997l-14 17q91 78 211 78
q119 0 209 -80l-12 -15q-83 74 -197 74q-110 0 -197 -74zM1249 1223q-166 153 -397 153q-227 0 -397 -151l-15 14q179 158 412 158t412 -158zM352 1339l-14 17q104 95 236 146.5t278 51.5q145 0 278 -52t238 -146l-14 -17q-102 93 -231 144t-271 51t-270 -51t-230 -144z
M1057 594l-15 14q52 69 52 152t-54 153l17 15q57 -72 57 -168q0 -97 -57 -166z" />
    <glyph glyph-name="product" unicode="&#x220f;" horiz-adv-x="1703" 
d="M258 246q-88 105 -136 237t-48 277q0 144 48 276t136 236q6 -4 14 -12q-85 -103 -131.5 -231.5t-46.5 -268.5q0 -285 180 -500zM467 432q-117 143 -117 328q0 183 115 327q3 -2 8 -7t8 -7q-110 -136 -110 -313q0 -182 110 -314zM541 498q-92 116 -92 262t92 262
q3 -2 8 -7t8 -7q-88 -109 -88 -248t88 -248q-3 -2 -8 -7t-8 -7zM647 592q-57 72 -57 168q0 97 57 166l15 -15q-52 -69 -52 -151q0 -84 54 -154q-3 -2 -8.5 -7t-8.5 -7zM715 655q-33 48 -33 105q0 56 33 104q3 -2 8 -7t8 -7q-29 -44 -29 -90t29 -90q-3 -2 -16 -15zM774 709
q-14 25 -14 51t14 51l12 -10q-10 -20 -10 -41t10 -41q-4 -4 -12 -10zM852 123q-236 0 -412 158l2.5 2.5l5 5l5.5 5.5t2 1q171 -152 397 -152q227 0 395 152q2 -3 7.5 -8t7.5 -8q-177 -156 -410 -156zM852 664q-31 0 -55 18l12 12q21 -14 43 -14q26 0 43 14q4 -4 10 -12
q-21 -18 -53 -18zM987 653q-7 10 -14 15q28 42 28 92q0 51 -28 90l2.5 2.5t5 4.5t5.5 5t1 2q35 -44 35 -104t-35 -107zM598 551q-72 91 -72 209q0 119 74 209l14 -15q-67 -87 -67 -194q0 -108 67 -195q-10 -10 -16 -14zM852 -35q-145 0 -278 52.5t-238 146.5l14 16
q102 -92 231 -143t271 -51q285 0 500 192q0 1 3.5 -2.5t6.5 -7.5l4 -4q-104 -95 -236 -147t-278 -52zM852 248q-189 0 -330 125l15 16q134 -121 315 -121q182 0 313 121q2 -3 7.5 -8t7.5 -8q-138 -125 -328 -125zM852 348q-145 0 -264 101l14 14q108 -94 250 -94
q143 0 248 94q2 -3 7 -8.5t7 -8.5q-112 -98 -262 -98zM852 428q-116 0 -211 78l14 16q86 -73 197 -73t197 73q4 -4 12 -16q-91 -78 -209 -78zM852 543q-77 0 -135 49l14 16q51 -45 121 -45q68 0 119 45q2 -3 7 -8t7 -8q-58 -49 -133 -49zM733 911q-4 3 -7 6.5t-6 6.5l-3 4
q58 49 135 49t135 -49l-16 -17q-51 45 -119 45t-119 -45zM1167 1130q-134 121 -315 121q-179 0 -313 -118l-15 14q141 125 328 125q189 0 330 -125q-4 -6 -15 -17zM930 709l-12 10q10 20 10 41t-10 41l12 10q14 -25 14 -51t-14 -51zM958 682q-10 10 -16 14q21 32 21 64
t-21 63l16 15q25 -36 25 -78t-25 -78zM1020 627q-6 4 -16 14q38 50 38 119t-38 119l14 14q45 -57 45 -133q0 -71 -43 -133zM1106 551q-3 2 -8 7t-8 7q67 87 67 195t-70 194l17 15q74 -90 74 -209q0 -118 -72 -209zM1163 498q-10 10 -16 14q88 109 88 248t-88 248l16 14
q92 -116 92 -262t-92 -262zM1237 432q-6 4 -16 14q112 134 112 314q0 182 -112 313l16 14q117 -139 117 -327q0 -189 -117 -328zM1329 350q-2 2 -7 6t-7 6q141 175 141 398q0 227 -143 395l16 14q148 -179 148 -409q0 -231 -148 -410zM1446 246q-6 6 -16 14q180 215 180 500
t-180 500l16 14q88 -105 136 -237t48 -277q0 -144 -48 -276t-136 -238zM375 348q-148 182 -148 412q0 229 146 409q2 -2 7.5 -6.5t8.5 -7.5q-141 -170 -141 -395q0 -228 141 -398zM684 627q-43 59 -43 133t43 133q6 -4 16 -14q-38 -50 -38 -119q0 -67 38 -117zM745 682
q-24 34 -24 78t24 78q2 -3 4.5 -5.5t6 -5.5t4.5 -4q-19 -34 -19 -63q0 -30 19 -64zM809 825l-10 13q21 18 53 18t53 -18l-10 -13q-23 15 -43 15q-25 0 -43 -15zM786 852l-14 14q37 29 80 29q41 0 78 -29q-8 -8 -12 -14q-28 25 -66 25q-34 0 -66 -25zM760 881l-15 16
q45 39 107 39q61 0 106 -39l-14 -16q-37 34 -92 34t-92 -34zM604 1057l-14 16q112 98 262 98q151 0 262 -100q1 0 -2 -3.5t-6 -7.5l-4 -3q-108 94 -250 94q-143 0 -248 -94zM852 492q-100 0 -170 61l14 16q70 -57 156 -57q87 0 154 57l14 -14q-73 -63 -168 -63zM852 584
q-61 0 -109 39l15 16q47 -35 94 -35q51 0 92 35l14 -16q-45 -39 -106 -39zM852 625q-43 0 -82 28l14 15q36 -25 68 -25q34 0 66 25l14 -15q-36 -28 -80 -28zM698 950l-14 15q73 63 168 63q98 0 168 -61l-14 -17q-68 58 -154 58q-87 0 -154 -58zM655 997l-14 17q91 78 211 78
q119 0 209 -80l-12 -15q-83 74 -197 74q-110 0 -197 -74zM1249 1223q-166 153 -397 153q-227 0 -397 -151l-15 14q179 158 412 158t412 -158zM352 1339l-14 17q104 95 236 146.5t278 51.5q145 0 278 -52t238 -146l-14 -17q-102 93 -231 144t-271 51t-270 -51t-230 -144z
M1057 594l-15 14q52 69 52 152t-54 153l17 15q57 -72 57 -168q0 -97 -57 -166z" />
    <glyph glyph-name="summation" unicode="&#x2211;" horiz-adv-x="1703" 
d="M258 246q-88 105 -136 237t-48 277q0 144 48 276t136 236q6 -4 14 -12q-85 -103 -131.5 -231.5t-46.5 -268.5q0 -285 180 -500zM467 432q-117 143 -117 328q0 183 115 327q3 -2 8 -7t8 -7q-110 -136 -110 -313q0 -182 110 -314zM541 498q-92 116 -92 262t92 262
q3 -2 8 -7t8 -7q-88 -109 -88 -248t88 -248q-3 -2 -8 -7t-8 -7zM647 592q-57 72 -57 168q0 97 57 166l15 -15q-52 -69 -52 -151q0 -84 54 -154q-3 -2 -8.5 -7t-8.5 -7zM715 655q-33 48 -33 105q0 56 33 104q3 -2 8 -7t8 -7q-29 -44 -29 -90t29 -90q-3 -2 -16 -15zM774 709
q-14 25 -14 51t14 51l12 -10q-10 -20 -10 -41t10 -41q-4 -4 -12 -10zM852 123q-236 0 -412 158l2.5 2.5l5 5l5.5 5.5t2 1q171 -152 397 -152q227 0 395 152q2 -3 7.5 -8t7.5 -8q-177 -156 -410 -156zM852 664q-31 0 -55 18l12 12q21 -14 43 -14q26 0 43 14q4 -4 10 -12
q-21 -18 -53 -18zM987 653q-7 10 -14 15q28 42 28 92q0 51 -28 90l2.5 2.5t5 4.5t5.5 5t1 2q35 -44 35 -104t-35 -107zM598 551q-72 91 -72 209q0 119 74 209l14 -15q-67 -87 -67 -194q0 -108 67 -195q-10 -10 -16 -14zM852 -35q-145 0 -278 52.5t-238 146.5l14 16
q102 -92 231 -143t271 -51q285 0 500 192q0 1 3.5 -2.5t6.5 -7.5l4 -4q-104 -95 -236 -147t-278 -52zM852 248q-189 0 -330 125l15 16q134 -121 315 -121q182 0 313 121q2 -3 7.5 -8t7.5 -8q-138 -125 -328 -125zM852 348q-145 0 -264 101l14 14q108 -94 250 -94
q143 0 248 94q2 -3 7 -8.5t7 -8.5q-112 -98 -262 -98zM852 428q-116 0 -211 78l14 16q86 -73 197 -73t197 73q4 -4 12 -16q-91 -78 -209 -78zM852 543q-77 0 -135 49l14 16q51 -45 121 -45q68 0 119 45q2 -3 7 -8t7 -8q-58 -49 -133 -49zM733 911q-4 3 -7 6.5t-6 6.5l-3 4
q58 49 135 49t135 -49l-16 -17q-51 45 -119 45t-119 -45zM1167 1130q-134 121 -315 121q-179 0 -313 -118l-15 14q141 125 328 125q189 0 330 -125q-4 -6 -15 -17zM930 709l-12 10q10 20 10 41t-10 41l12 10q14 -25 14 -51t-14 -51zM958 682q-10 10 -16 14q21 32 21 64
t-21 63l16 15q25 -36 25 -78t-25 -78zM1020 627q-6 4 -16 14q38 50 38 119t-38 119l14 14q45 -57 45 -133q0 -71 -43 -133zM1106 551q-3 2 -8 7t-8 7q67 87 67 195t-70 194l17 15q74 -90 74 -209q0 -118 -72 -209zM1163 498q-10 10 -16 14q88 109 88 248t-88 248l16 14
q92 -116 92 -262t-92 -262zM1237 432q-6 4 -16 14q112 134 112 314q0 182 -112 313l16 14q117 -139 117 -327q0 -189 -117 -328zM1329 350q-2 2 -7 6t-7 6q141 175 141 398q0 227 -143 395l16 14q148 -179 148 -409q0 -231 -148 -410zM1446 246q-6 6 -16 14q180 215 180 500
t-180 500l16 14q88 -105 136 -237t48 -277q0 -144 -48 -276t-136 -238zM375 348q-148 182 -148 412q0 229 146 409q2 -2 7.5 -6.5t8.5 -7.5q-141 -170 -141 -395q0 -228 141 -398zM684 627q-43 59 -43 133t43 133q6 -4 16 -14q-38 -50 -38 -119q0 -67 38 -117zM745 682
q-24 34 -24 78t24 78q2 -3 4.5 -5.5t6 -5.5t4.5 -4q-19 -34 -19 -63q0 -30 19 -64zM809 825l-10 13q21 18 53 18t53 -18l-10 -13q-23 15 -43 15q-25 0 -43 -15zM786 852l-14 14q37 29 80 29q41 0 78 -29q-8 -8 -12 -14q-28 25 -66 25q-34 0 -66 -25zM760 881l-15 16
q45 39 107 39q61 0 106 -39l-14 -16q-37 34 -92 34t-92 -34zM604 1057l-14 16q112 98 262 98q151 0 262 -100q1 0 -2 -3.5t-6 -7.5l-4 -3q-108 94 -250 94q-143 0 -248 -94zM852 492q-100 0 -170 61l14 16q70 -57 156 -57q87 0 154 57l14 -14q-73 -63 -168 -63zM852 584
q-61 0 -109 39l15 16q47 -35 94 -35q51 0 92 35l14 -16q-45 -39 -106 -39zM852 625q-43 0 -82 28l14 15q36 -25 68 -25q34 0 66 25l14 -15q-36 -28 -80 -28zM698 950l-14 15q73 63 168 63q98 0 168 -61l-14 -17q-68 58 -154 58q-87 0 -154 -58zM655 997l-14 17q91 78 211 78
q119 0 209 -80l-12 -15q-83 74 -197 74q-110 0 -197 -74zM1249 1223q-166 153 -397 153q-227 0 -397 -151l-15 14q179 158 412 158t412 -158zM352 1339l-14 17q104 95 236 146.5t278 51.5q145 0 278 -52t238 -146l-14 -17q-102 93 -231 144t-271 51t-270 -51t-230 -144z
M1057 594l-15 14q52 69 52 152t-54 153l17 15q57 -72 57 -168q0 -97 -57 -166z" />
    <glyph glyph-name="minus" unicode="&#x2212;" horiz-adv-x="1159" 
d="M170 637v168h819v-168h-819z" />
    <glyph glyph-name="radical" unicode="&#x221a;" horiz-adv-x="1101" 
d="M354 -8l-270 866h201l176 -604l377 1264h186l-469 -1526h-201z" />
    <glyph glyph-name="infinity" unicode="&#x221e;" horiz-adv-x="1636" 
d="M768 0v969h-360v-969h-193v969h-178v168h178v127q0 152 77 233.5t247 81.5h96v-170h-80q-87 0 -117 -40t-30 -124v-108h360v127q0 152 76.5 233.5t249.5 81.5h94v-170h-80q-87 0 -117 -40t-30 -124v-108h227v-168h-227v-969h-193zM1321 0v1137h192v-1137h-192zM1321 1276
v229h192v-229h-192z" />
    <glyph glyph-name="integral" unicode="&#x222b;" horiz-adv-x="1703" 
d="M258 246q-88 105 -136 237t-48 277q0 144 48 276t136 236q6 -4 14 -12q-85 -103 -131.5 -231.5t-46.5 -268.5q0 -285 180 -500zM467 432q-117 143 -117 328q0 183 115 327q3 -2 8 -7t8 -7q-110 -136 -110 -313q0 -182 110 -314zM541 498q-92 116 -92 262t92 262
q3 -2 8 -7t8 -7q-88 -109 -88 -248t88 -248q-3 -2 -8 -7t-8 -7zM647 592q-57 72 -57 168q0 97 57 166l15 -15q-52 -69 -52 -151q0 -84 54 -154q-3 -2 -8.5 -7t-8.5 -7zM715 655q-33 48 -33 105q0 56 33 104q3 -2 8 -7t8 -7q-29 -44 -29 -90t29 -90q-3 -2 -16 -15zM774 709
q-14 25 -14 51t14 51l12 -10q-10 -20 -10 -41t10 -41q-4 -4 -12 -10zM852 123q-236 0 -412 158l2.5 2.5l5 5l5.5 5.5t2 1q171 -152 397 -152q227 0 395 152q2 -3 7.5 -8t7.5 -8q-177 -156 -410 -156zM852 664q-31 0 -55 18l12 12q21 -14 43 -14q26 0 43 14q4 -4 10 -12
q-21 -18 -53 -18zM987 653q-7 10 -14 15q28 42 28 92q0 51 -28 90l2.5 2.5t5 4.5t5.5 5t1 2q35 -44 35 -104t-35 -107zM598 551q-72 91 -72 209q0 119 74 209l14 -15q-67 -87 -67 -194q0 -108 67 -195q-10 -10 -16 -14zM852 -35q-145 0 -278 52.5t-238 146.5l14 16
q102 -92 231 -143t271 -51q285 0 500 192q0 1 3.5 -2.5t6.5 -7.5l4 -4q-104 -95 -236 -147t-278 -52zM852 248q-189 0 -330 125l15 16q134 -121 315 -121q182 0 313 121q2 -3 7.5 -8t7.5 -8q-138 -125 -328 -125zM852 348q-145 0 -264 101l14 14q108 -94 250 -94
q143 0 248 94q2 -3 7 -8.5t7 -8.5q-112 -98 -262 -98zM852 428q-116 0 -211 78l14 16q86 -73 197 -73t197 73q4 -4 12 -16q-91 -78 -209 -78zM852 543q-77 0 -135 49l14 16q51 -45 121 -45q68 0 119 45q2 -3 7 -8t7 -8q-58 -49 -133 -49zM733 911q-4 3 -7 6.5t-6 6.5l-3 4
q58 49 135 49t135 -49l-16 -17q-51 45 -119 45t-119 -45zM1167 1130q-134 121 -315 121q-179 0 -313 -118l-15 14q141 125 328 125q189 0 330 -125q-4 -6 -15 -17zM930 709l-12 10q10 20 10 41t-10 41l12 10q14 -25 14 -51t-14 -51zM958 682q-10 10 -16 14q21 32 21 64
t-21 63l16 15q25 -36 25 -78t-25 -78zM1020 627q-6 4 -16 14q38 50 38 119t-38 119l14 14q45 -57 45 -133q0 -71 -43 -133zM1106 551q-3 2 -8 7t-8 7q67 87 67 195t-70 194l17 15q74 -90 74 -209q0 -118 -72 -209zM1163 498q-10 10 -16 14q88 109 88 248t-88 248l16 14
q92 -116 92 -262t-92 -262zM1237 432q-6 4 -16 14q112 134 112 314q0 182 -112 313l16 14q117 -139 117 -327q0 -189 -117 -328zM1329 350q-2 2 -7 6t-7 6q141 175 141 398q0 227 -143 395l16 14q148 -179 148 -409q0 -231 -148 -410zM1446 246q-6 6 -16 14q180 215 180 500
t-180 500l16 14q88 -105 136 -237t48 -277q0 -144 -48 -276t-136 -238zM375 348q-148 182 -148 412q0 229 146 409q2 -2 7.5 -6.5t8.5 -7.5q-141 -170 -141 -395q0 -228 141 -398zM684 627q-43 59 -43 133t43 133q6 -4 16 -14q-38 -50 -38 -119q0 -67 38 -117zM745 682
q-24 34 -24 78t24 78q2 -3 4.5 -5.5t6 -5.5t4.5 -4q-19 -34 -19 -63q0 -30 19 -64zM809 825l-10 13q21 18 53 18t53 -18l-10 -13q-23 15 -43 15q-25 0 -43 -15zM786 852l-14 14q37 29 80 29q41 0 78 -29q-8 -8 -12 -14q-28 25 -66 25q-34 0 -66 -25zM760 881l-15 16
q45 39 107 39q61 0 106 -39l-14 -16q-37 34 -92 34t-92 -34zM604 1057l-14 16q112 98 262 98q151 0 262 -100q1 0 -2 -3.5t-6 -7.5l-4 -3q-108 94 -250 94q-143 0 -248 -94zM852 492q-100 0 -170 61l14 16q70 -57 156 -57q87 0 154 57l14 -14q-73 -63 -168 -63zM852 584
q-61 0 -109 39l15 16q47 -35 94 -35q51 0 92 35l14 -16q-45 -39 -106 -39zM852 625q-43 0 -82 28l14 15q36 -25 68 -25q34 0 66 25l14 -15q-36 -28 -80 -28zM698 950l-14 15q73 63 168 63q98 0 168 -61l-14 -17q-68 58 -154 58q-87 0 -154 -58zM655 997l-14 17q91 78 211 78
q119 0 209 -80l-12 -15q-83 74 -197 74q-110 0 -197 -74zM1249 1223q-166 153 -397 153q-227 0 -397 -151l-15 14q179 158 412 158t412 -158zM352 1339l-14 17q104 95 236 146.5t278 51.5q145 0 278 -52t238 -146l-14 -17q-102 93 -231 144t-271 51t-270 -51t-230 -144z
M1057 594l-15 14q52 69 52 152t-54 153l17 15q57 -72 57 -168q0 -97 -57 -166z" />
    <glyph glyph-name="approxequal" unicode="&#x2248;" horiz-adv-x="1161" 
d="M279 795l-136 75q86 174 244 174q72 0 194.5 -41.5t174.5 -41.5q41 0 68.5 22t60.5 70l131 -74q-44 -90 -102 -134t-142 -44q-72 0 -194 41t-175 41q-40 0 -67 -20.5t-57 -67.5zM279 387l-136 74q43 89 102 131.5t142 42.5q72 0 194.5 -41t174.5 -41q41 0 68.5 22
t60.5 72l131 -76q-44 -90 -102 -134t-142 -44q-72 0 -194 40t-175 40q-41 0 -68 -19.5t-56 -66.5z" />
    <glyph glyph-name="notequal" unicode="&#x2260;" horiz-adv-x="1241" 
d="M768 0v969h-360v-969h-193v969h-178v168h178v127q0 152 77 233.5t247 81.5h96v-170h-80q-87 0 -117 -40t-30 -124v-108h360v127q0 152 76.5 233.5t249.5 81.5q109 0 129 -2v-168h-115q-87 0 -117 -40t-30 -124v-108h262v-168h-262v-969h-193z" />
    <glyph glyph-name="lessequal" unicode="&#x2264;" horiz-adv-x="1159" 
d="M918 233l-744 416v137l744 414v-186l-549 -295l549 -297v-189zM174 27v170h744v-170h-744z" />
    <glyph glyph-name="greaterequal" unicode="&#x2265;" horiz-adv-x="1159" 
d="M244 233v189l544 297l-544 295v186l743 -414v-137zM244 27v170h743v-170h-743z" />
    <glyph glyph-name="lozenge" unicode="&#x25ca;" horiz-adv-x="1339" 
d="M37 969v168h178v127q0 152 77 233.5t247 81.5h96v-170h-80q-87 0 -117 -40t-30 -124v-108h403l31 301l153 35v-336h269v-168h-269v-647q0 -83 27 -118.5t115 -35.5h127v-168q-93 -6 -148 -6q-94 0 -155 17.5t-95.5 57.5t-47.5 95t-13 139v666h-397v-969h-193v969h-178z
" />
    <glyph glyph-name="apple" unicode="&#xf8ff;" horiz-adv-x="1703" 
d="M258 246q-88 105 -136 237t-48 277q0 144 48 276t136 236q6 -4 14 -12q-85 -103 -131.5 -231.5t-46.5 -268.5q0 -285 180 -500zM467 432q-117 143 -117 328q0 183 115 327q3 -2 8 -7t8 -7q-110 -136 -110 -313q0 -182 110 -314zM541 498q-92 116 -92 262t92 262
q3 -2 8 -7t8 -7q-88 -109 -88 -248t88 -248q-3 -2 -8 -7t-8 -7zM647 592q-57 72 -57 168q0 97 57 166l15 -15q-52 -69 -52 -151q0 -84 54 -154q-3 -2 -8.5 -7t-8.5 -7zM715 655q-33 48 -33 105q0 56 33 104q3 -2 8 -7t8 -7q-29 -44 -29 -90t29 -90q-3 -2 -16 -15zM774 709
q-14 25 -14 51t14 51l12 -10q-10 -20 -10 -41t10 -41q-4 -4 -12 -10zM852 123q-236 0 -412 158l2.5 2.5l5 5l5.5 5.5t2 1q171 -152 397 -152q227 0 395 152q2 -3 7.5 -8t7.5 -8q-177 -156 -410 -156zM852 664q-31 0 -55 18l12 12q21 -14 43 -14q26 0 43 14q4 -4 10 -12
q-21 -18 -53 -18zM987 653q-7 10 -14 15q28 42 28 92q0 51 -28 90l2.5 2.5t5 4.5t5.5 5t1 2q35 -44 35 -104t-35 -107zM598 551q-72 91 -72 209q0 119 74 209l14 -15q-67 -87 -67 -194q0 -108 67 -195q-10 -10 -16 -14zM852 -35q-145 0 -278 52.5t-238 146.5l14 16
q102 -92 231 -143t271 -51q285 0 500 192q0 1 3.5 -2.5t6.5 -7.5l4 -4q-104 -95 -236 -147t-278 -52zM852 248q-189 0 -330 125l15 16q134 -121 315 -121q182 0 313 121q2 -3 7.5 -8t7.5 -8q-138 -125 -328 -125zM852 348q-145 0 -264 101l14 14q108 -94 250 -94
q143 0 248 94q2 -3 7 -8.5t7 -8.5q-112 -98 -262 -98zM852 428q-116 0 -211 78l14 16q86 -73 197 -73t197 73q4 -4 12 -16q-91 -78 -209 -78zM852 543q-77 0 -135 49l14 16q51 -45 121 -45q68 0 119 45q2 -3 7 -8t7 -8q-58 -49 -133 -49zM733 911q-4 3 -7 6.5t-6 6.5l-3 4
q58 49 135 49t135 -49l-16 -17q-51 45 -119 45t-119 -45zM1167 1130q-134 121 -315 121q-179 0 -313 -118l-15 14q141 125 328 125q189 0 330 -125q-4 -6 -15 -17zM930 709l-12 10q10 20 10 41t-10 41l12 10q14 -25 14 -51t-14 -51zM958 682q-10 10 -16 14q21 32 21 64
t-21 63l16 15q25 -36 25 -78t-25 -78zM1020 627q-6 4 -16 14q38 50 38 119t-38 119l14 14q45 -57 45 -133q0 -71 -43 -133zM1106 551q-3 2 -8 7t-8 7q67 87 67 195t-70 194l17 15q74 -90 74 -209q0 -118 -72 -209zM1163 498q-10 10 -16 14q88 109 88 248t-88 248l16 14
q92 -116 92 -262t-92 -262zM1237 432q-6 4 -16 14q112 134 112 314q0 182 -112 313l16 14q117 -139 117 -327q0 -189 -117 -328zM1329 350q-2 2 -7 6t-7 6q141 175 141 398q0 227 -143 395l16 14q148 -179 148 -409q0 -231 -148 -410zM1446 246q-6 6 -16 14q180 215 180 500
t-180 500l16 14q88 -105 136 -237t48 -277q0 -144 -48 -276t-136 -238zM375 348q-148 182 -148 412q0 229 146 409q2 -2 7.5 -6.5t8.5 -7.5q-141 -170 -141 -395q0 -228 141 -398zM684 627q-43 59 -43 133t43 133q6 -4 16 -14q-38 -50 -38 -119q0 -67 38 -117zM745 682
q-24 34 -24 78t24 78q2 -3 4.5 -5.5t6 -5.5t4.5 -4q-19 -34 -19 -63q0 -30 19 -64zM809 825l-10 13q21 18 53 18t53 -18l-10 -13q-23 15 -43 15q-25 0 -43 -15zM786 852l-14 14q37 29 80 29q41 0 78 -29q-8 -8 -12 -14q-28 25 -66 25q-34 0 -66 -25zM760 881l-15 16
q45 39 107 39q61 0 106 -39l-14 -16q-37 34 -92 34t-92 -34zM604 1057l-14 16q112 98 262 98q151 0 262 -100q1 0 -2 -3.5t-6 -7.5l-4 -3q-108 94 -250 94q-143 0 -248 -94zM852 492q-100 0 -170 61l14 16q70 -57 156 -57q87 0 154 57l14 -14q-73 -63 -168 -63zM852 584
q-61 0 -109 39l15 16q47 -35 94 -35q51 0 92 35l14 -16q-45 -39 -106 -39zM852 625q-43 0 -82 28l14 15q36 -25 68 -25q34 0 66 25l14 -15q-36 -28 -80 -28zM698 950l-14 15q73 63 168 63q98 0 168 -61l-14 -17q-68 58 -154 58q-87 0 -154 -58zM655 997l-14 17q91 78 211 78
q119 0 209 -80l-12 -15q-83 74 -197 74q-110 0 -197 -74zM1249 1223q-166 153 -397 153q-227 0 -397 -151l-15 14q179 158 412 158t412 -158zM352 1339l-14 17q104 95 236 146.5t278 51.5q145 0 278 -52t238 -146l-14 -17q-102 93 -231 144t-271 51t-270 -51t-230 -144z
M1057 594l-15 14q52 69 52 152t-54 153l17 15q57 -72 57 -168q0 -97 -57 -166z" />
    </font>
</defs>
</svg>
