<?xml version="1.0" standalone="no"?>
<!DOCTYPE svg PUBLIC "-//W3C//DTD SVG 1.1//EN" "http://www.w3.org/Graphics/SVG/1.1/DTD/svg11.dtd" >
<svg xmlns="http://www.w3.org/2000/svg" xmlns:xlink="http://www.w3.org/1999/xlink" version="1.1">
<metadata>
Created by FontForge 20201107 at Wed Dec 24 15:02:09 2025
 By 
Copyright (c) The Font Bureau, Inc., 2003. All rights reserved.
</metadata>
<defs>
<font id="Antenna-BoldItalic" horiz-adv-x="1208" >
  <font-face 
    font-family="Antenna BoldItalic"
    font-weight="700"
    font-style="italic"
    font-stretch="normal"
    units-per-em="2048"
    panose-1="2 0 5 3 0 0 0 2 0 4"
    ascent="1638"
    descent="-410"
    x-height="1159"
    cap-height="1518"
    bbox="-303 -510 3404 1976"
    underline-thickness="102"
    underline-position="-204"
    slope="-12"
    unicode-range="U+0020-FB02"
  />
<missing-glyph horiz-adv-x="440" 
 />
    <glyph glyph-name="fi" unicode="fi" horiz-adv-x="1433" 
d="M78 885l59 274h217l21 94q29 136 83.5 215t154 118.5t261.5 39.5q78 0 136 -4l-56 -262h-73q-96 0 -136.5 -32.5t-54.5 -106.5l-14 -62h235l-57 -274h-236l-260 -1223h-321l260 1223h-219zM813 0l246 1159h321l-247 -1159h-320zM1081 1266l62 293h323l-61 -293h-324z" />
    <glyph glyph-name="fl" unicode="fl" horiz-adv-x="1531" 
d="M78 885l59 274h217l21 94q29 136 83.5 215t154 118.5t261.5 39.5q62 0 136 -4l-56 -262h-73q-96 0 -136.5 -32.5t-54.5 -106.5l-14 -62h235l-57 -274h-236l-260 -1223h-321l260 1223h-219zM1135 -4q-173 0 -228.5 91.5t-11.5 301.5l256 1200h319l-253 -1200
q-15 -72 1 -96.5t85 -24.5h40l-57 -264q-54 -8 -151 -8z" />
    <glyph glyph-name="f_f_l" unicode="ffl" horiz-adv-x="2234" 
d="M739 -338l260 1223h-381l-260 -1223h-321l260 1223h-219l59 274h217l21 94q29 136 83.5 215t154 118.5t261.5 39.5q62 0 136 -4l-56 -262h-73q-96 0 -136.5 -32.5t-54.5 -106.5l-14 -62h381l20 94q29 136 83.5 215t154.5 118.5t262 39.5q61 0 135 -4l-57 -262h-72
q-96 0 -136 -32.5t-56 -106.5l-15 -62h238l-60 -274h-235l-258 -1223h-322zM1837 -4q-173 0 -229 91.5t-13 301.5l256 1200h322l-256 -1200q-14 -73 2 -97t86 -24h39l-57 -264q-50 -8 -150 -8z" />
    <glyph glyph-name="f_f_i" unicode="ffi" horiz-adv-x="2136" 
d="M739 -338l260 1223h-381l-260 -1223h-321l260 1223h-219l59 274h217l21 94q29 136 83.5 215t154 118.5t261.5 39.5q62 0 136 -4l-56 -262h-73q-96 0 -136.5 -32.5t-54.5 -106.5l-14 -62h381l20 94q29 136 83.5 215t154.5 118.5t262 39.5q61 0 135 -4l-57 -262h-72
q-96 0 -136 -32.5t-56 -106.5l-15 -62h238l-60 -274h-235l-258 -1223h-322zM1513 0l248 1159h320l-246 -1159h-322zM1782 1266l61 293h326l-64 -293h-323z" />
    <glyph glyph-name="f_j" unicode="fj" horiz-adv-x="1433" 
d="M78 885l59 274h217l21 94q29 136 83.5 215t154 118.5t261.5 39.5q62 0 136 -4l-56 -262h-73q-96 0 -136.5 -32.5t-54.5 -106.5l-14 -62h235l-57 -274h-236l-260 -1223h-321l260 1223h-219zM608 -346l51 244h25q71 0 94.5 27t44.5 122l236 1112h321l-243 -1145
q-25 -118 -55.5 -188.5t-80.5 -109t-110 -50.5t-160 -12h-123zM1081 1266l62 293h323l-61 -293h-324z" />
    <glyph glyph-name="f_f" unicode="ff" horiz-adv-x="1605" 
d="M739 -338l260 1223h-381l-260 -1223h-321l260 1223h-219l59 274h217l21 94q29 136 83.5 215t154 118.5t261.5 39.5q62 0 136 -4l-56 -262h-73q-96 0 -136.5 -32.5t-54.5 -106.5l-14 -62h381l20 94q29 136 83.5 215t154.5 118.5t262 39.5q92 0 166 -4l-55 -262h-105
q-96 0 -136 -32.5t-56 -106.5l-15 -62h269l-60 -274h-266l-258 -1223h-322z" />
    <glyph glyph-name=".notdef" horiz-adv-x="440" 
 />
    <glyph glyph-name=".null" horiz-adv-x="0" 
 />
    <glyph glyph-name="nonmarkingreturn" horiz-adv-x="682" 
 />
    <glyph glyph-name="space" unicode=" " horiz-adv-x="440" 
 />
    <glyph glyph-name="space" unicode="&#xa0;" horiz-adv-x="440" 
 />
    <glyph glyph-name="exclam" unicode="!" horiz-adv-x="823" 
d="M63 0l76 360h375l-78 -360h-373zM207 477l190 1041h353l-254 -1041h-289z" />
    <glyph glyph-name="quotedbl" unicode="&#x22;" horiz-adv-x="1183" 
d="M207 815l131 703h334l-170 -703h-295zM709 815l129 703h336l-173 -703h-292z" />
    <glyph glyph-name="numbersign" unicode="#" horiz-adv-x="1581" 
d="M223 0l76 365h-262l59 278h262l37 180h-262l62 281h260l86 414h307l-86 -414h201l86 414h307l-86 -414h274l-59 -281h-273l-36 -180h272l-62 -278h-270l-78 -365h-307l78 365h-201l-78 -365h-307zM637 627h250l45 215h-250z" />
    <glyph glyph-name="dollar" unicode="$" horiz-adv-x="1363" 
d="M336 -193l45 207q-278 41 -440 181l184 221q107 -81 220.5 -121.5t279.5 -40.5q143 0 206.5 50.5t63.5 156.5q0 75 -57.5 109t-214.5 73q-53 13 -94 25t-87.5 30.5t-81 39t-67.5 50.5t-54 65t-33.5 81.5t-12.5 101.5q0 119 38.5 210.5t108.5 147.5t159 86.5t199 37.5
l31 145h297l-35 -160q220 -33 334 -125l-186 -235q-66 47 -169.5 78.5t-228.5 31.5t-178 -46t-53 -134q0 -52 36 -85.5t78 -49t150 -44.5q17 -5 25 -7q54 -14 90.5 -25.5t83.5 -30t78 -38t63.5 -49t52 -63.5t31.5 -80t12 -101q0 -228 -142.5 -357t-395.5 -143l-41 -193h-295
z" />
    <glyph glyph-name="percent" unicode="%" horiz-adv-x="2471" 
d="M537 539q-211 0 -319.5 102.5t-108.5 282.5q0 147 44.5 267t119.5 195t170.5 115.5t201.5 40.5q209 0 317.5 -107t108.5 -288q0 -141 -42.5 -257t-116 -192t-170 -117.5t-205.5 -41.5zM559 778q104 0 163.5 104t59.5 253q0 77 -35.5 118t-119.5 41q-102 0 -165 -97.5
t-63 -258.5q0 -160 160 -160zM1833 -23q-213 0 -320.5 102.5t-107.5 282.5q0 148 44 267.5t119 195t171 116t203 40.5q209 0 317 -106t108 -289q0 -140 -42.5 -256t-116 -192.5t-170 -118.5t-205.5 -42zM1855 217q70 0 122 51t77 130.5t25 174.5q0 162 -156 162
q-102 0 -164.5 -98t-62.5 -260q0 -160 159 -160zM510 0l1163 1518h297l-1161 -1518h-299z" />
    <glyph glyph-name="ampersand" unicode="&#x26;" horiz-adv-x="1736" 
d="M592 -18q-307 0 -454.5 92.5t-147.5 281.5q0 96 23.5 175.5t61.5 134.5t95 99.5t113.5 72t126.5 51.5q-21 86 -21 172q0 105 26 188.5t70 137.5t104 89.5t124.5 50.5t136.5 15q197 0 295 -88t98 -244q0 -87 -22.5 -158t-59 -121.5t-93.5 -92t-116.5 -69t-136.5 -52.5
q60 -101 111 -160q64 -77 116 -123q145 167 265 475l254 -82q-128 -342 -287 -532q74 -21 180 -21h47l-57 -274h-29q-131 0 -224.5 16.5t-178.5 61.5q-184 -96 -420 -96zM625 233q85 0 155 23q-59 59 -133 152q-86 105 -151 239q-87 -40 -135 -100t-48 -152q0 -34 13.5 -61
t46 -51t96.5 -37t156 -13zM698 1081q0 -69 21 -139q237 69 237 232q0 104 -116 104q-142 0 -142 -197z" />
    <glyph glyph-name="quotesingle" unicode="'" horiz-adv-x="686" 
d="M207 815l131 705h334l-170 -705h-295z" />
    <glyph glyph-name="parenleft" unicode="(" horiz-adv-x="1067" 
d="M387 -393q-101 120 -172.5 311.5t-71.5 429.5q0 161 40.5 328t108.5 310t155.5 271t182.5 224t189 157l201 -165q-110 -88 -207 -209t-174 -266t-121.5 -317.5t-44.5 -344.5q0 -180 53.5 -341.5t122.5 -254.5z" />
    <glyph glyph-name="parenright" unicode=")" horiz-adv-x="1067" 
d="M195 -393l-201 166q110 88 206.5 208.5t173 266t121 317.5t44.5 344q0 180 -53 341.5t-121 254.5l262 133q101 -120 172 -311.5t71 -429.5q0 -161 -40.5 -328t-108 -310t-155 -271t-182.5 -224t-189 -157z" />
    <glyph glyph-name="asterisk" unicode="*" horiz-adv-x="1247" 
d="M680 467l-244 53l99 322l-318 -127l-78 250l336 75l-274 209l170 197l239 -248l43 336l244 -51l-100 -328l323 133l78 -248l-340 -82l279 -206l-170 -193l-244 246z" />
    <glyph glyph-name="plus" unicode="+" horiz-adv-x="1478" 
d="M461 188l82 390h-391l63 288h389l82 387h320l-82 -387h389l-62 -288h-389l-82 -390h-319z" />
    <glyph glyph-name="comma" unicode="," horiz-adv-x="600" 
d="M-27 -319l-45 155q80 30 119.5 52.5t55.5 46t26 65.5h-176l78 369h372l-63 -310q-14 -63 -28 -107.5t-36.5 -81.5t-46.5 -61.5t-64 -47.5t-82.5 -40.5t-109.5 -39.5z" />
    <glyph glyph-name="hyphen" unicode="-" horiz-adv-x="870" 
d="M31 528l61 287h711l-62 -287h-710z" />
    <glyph glyph-name="hyphen" unicode="&#xad;" horiz-adv-x="870" 
d="M31 528l61 287h711l-62 -287h-710z" />
    <glyph glyph-name="period" unicode="." horiz-adv-x="600" 
d="M-47 0l78 369h372l-77 -369h-373z" />
    <glyph glyph-name="slash" unicode="/" horiz-adv-x="1175" 
d="M-168 0l1172 1518h344l-1174 -1518h-342z" />
    <glyph glyph-name="zero" unicode="0" horiz-adv-x="1540" 
d="M674 -23q-302 0 -443 135t-141 396q0 142 37 315q81 378 261.5 548.5t483.5 170.5q296 0 437 -140.5t141 -402.5q0 -144 -37 -311q-80 -375 -261 -543t-478 -168zM698 256q159 0 244.5 110t138.5 359q33 152 33 252q0 135 -62.5 203.5t-207.5 68.5q-160 0 -245.5 -106.5
t-139.5 -354.5q-33 -162 -33 -260q0 -136 62.5 -204t209.5 -68z" />
    <glyph glyph-name="one" unicode="1" horiz-adv-x="849" 
d="M162 0l260 1229h-258l63 289h574l-324 -1518h-315z" />
    <glyph glyph-name="two" unicode="2" horiz-adv-x="1280" 
d="M-92 0l53 252l582 428q67 49 101.5 74.5t80 61t65.5 54t46.5 46t36 46t20.5 44t13.5 49.5t2.5 55q0 72 -57 112t-197 40q-78 0 -185.5 -19.5t-180.5 -50.5l-96 254q229 96 505 96q543 0 543 -364q0 -51 -5.5 -95t-13 -81.5t-25.5 -73.5t-34 -64t-49 -62.5t-58.5 -59
t-74.5 -63.5t-85.5 -66.5t-102.5 -75.5l-369 -271h637l-55 -266h-1098z" />
    <glyph glyph-name="three" unicode="3" horiz-adv-x="1302" 
d="M555 -25q-223 0 -381 48.5t-285 140.5l191 233q215 -153 479 -153q128 0 198 59t70 203q0 89 -58 128.5t-198 39.5h-243l55 270h299q124 0 180 40.5t56 156.5q0 66 -54.5 96.5t-189.5 30.5q-84 0 -193 -19.5t-184 -56.5l-121 244q108 58 260 82t297 24q259 0 389.5 -83
t130.5 -242q0 -184 -65 -278t-189 -130q148 -65 148 -297q0 -537 -592 -537z" />
    <glyph glyph-name="four" unicode="4" horiz-adv-x="1392" 
d="M-25 311l52 240l872 967h358l-860 -949h375l158 432h225l-92 -432h235l-55 -258h-235l-66 -311h-295l66 311h-738z" />
    <glyph glyph-name="five" unicode="5" horiz-adv-x="1335" 
d="M592 -23q-206 0 -373.5 54t-263.5 133l192 233q199 -153 478 -153q276 0 276 295q0 117 -70 164t-206 47q-111 0 -234 -54l-252 80l199 742h977l-60 -275h-688l-75 -274q100 45 262 45q87 0 154 -10t131 -38t105 -75t66 -125t25 -184q0 -120 -21.5 -214.5t-63.5 -160
t-97.5 -111t-130.5 -71.5t-154 -37t-176 -11z" />
    <glyph glyph-name="six" unicode="6" horiz-adv-x="1452" 
d="M674 -23q-310 0 -457 134.5t-147 380.5q0 103 28 237q40 188 95.5 320.5t131.5 225t184.5 145t241 75.5t314.5 23h252l-60 -275h-206q-93 0 -169 -9t-130.5 -23t-97.5 -38t-70.5 -48.5t-49.5 -60t-35 -66.5t-26 -74q50 53 151 81.5t234 28.5q127 0 220 -28.5t147.5 -81.5
t80 -121.5t25.5 -155.5q0 -317 -169.5 -493.5t-487.5 -176.5zM684 240q176 0 249 88t73 252q0 94 -65 144t-222 50q-57 0 -102 -7.5t-88.5 -28t-72 -54t-46 -89t-17.5 -128.5q0 -227 291 -227z" />
    <glyph glyph-name="seven" unicode="7" horiz-adv-x="1165" 
d="M63 0l795 1243h-731l57 275h1094l-51 -234l-809 -1284h-355z" />
    <glyph glyph-name="eight" unicode="8" horiz-adv-x="1472" 
d="M639 -33q-136 0 -242.5 21.5t-175.5 57.5t-114.5 87t-64.5 107.5t-19 121.5q0 181 83 295.5t261 169.5q-81 40 -110.5 108.5t-29.5 160.5q0 78 19.5 144t64 122.5t111 96t165 61.5t222.5 22q140 0 246.5 -18t173.5 -49t109 -77t58.5 -96t16.5 -112q0 -322 -256 -383
q50 -22 82.5 -52.5t49 -70.5t22.5 -81t6 -97q0 -251 -169 -395t-509 -144zM674 225q315 0 315 271q0 91 -72.5 139.5t-238.5 48.5q-322 0 -322 -276q0 -89 73 -136t245 -47zM807 930q147 0 213.5 47.5t66.5 161.5q0 71 -61.5 109t-212.5 38q-147 0 -211.5 -47.5
t-64.5 -159.5q0 -73 60.5 -111t209.5 -38z" />
    <glyph glyph-name="nine" unicode="9" horiz-adv-x="1452" 
d="M137 0l58 266h206q129 0 226 18t155.5 45t100.5 72.5t62 87.5t38 103q-49 -54 -150.5 -82.5t-236.5 -28.5q-127 0 -220 29t-147.5 82.5t-80 123t-25.5 156.5q0 317 170 493.5t487 176.5q311 0 457.5 -134t146.5 -380q0 -116 -26 -237q-34 -157 -77 -275t-103 -207
t-133.5 -147.5t-173 -95t-215.5 -51.5t-267 -15h-252zM733 731q72 0 126.5 13t102.5 45.5t73.5 95t25.5 153.5q0 110 -72.5 169t-218.5 59q-176 0 -248.5 -88t-72.5 -252q0 -95 63.5 -145t220.5 -50z" />
    <glyph glyph-name="colon" unicode=":" horiz-adv-x="641" 
d="M-27 0l76 356h373l-76 -356h-373zM145 803l74 356h373l-74 -356h-373z" />
    <glyph glyph-name="semicolon" unicode=";" horiz-adv-x="641" 
d="M-8 -319l-45 155q116 43 152 73.5t48 90.5h-174l76 356h373l-64 -297q-16 -77 -35.5 -128t-44 -88.5t-67 -65.5t-90.5 -48.5t-129 -47.5zM145 803l74 356h373l-74 -356h-373z" />
    <glyph glyph-name="less" unicode="&#x3c;" horiz-adv-x="1478" 
d="M1040 129l-843 471l45 219l1044 467l-61 -291l-672 -286l549 -287z" />
    <glyph glyph-name="equal" unicode="=" horiz-adv-x="1478" 
d="M113 330l59 286h1075l-59 -286h-1075zM219 827l60 285h1075l-62 -285h-1073z" />
    <glyph glyph-name="greater" unicode="&#x3e;" horiz-adv-x="1478" 
d="M174 129l62 293l671 285l-549 288l62 291l848 -469l-49 -221z" />
    <glyph glyph-name="question" unicode="?" horiz-adv-x="1427" 
d="M446 438q16 121 36 193t61.5 129t103 90.5t164.5 64.5q78 23 118 38.5t70.5 38.5t40 52t9.5 76q0 41 -21.5 69t-86.5 47t-173 19q-189 0 -393 -69l-101 264q112 48 267.5 70t287.5 22q289 0 425.5 -87t136.5 -259q0 -135 -38.5 -224.5t-118 -147t-218.5 -101.5
q-55 -18 -90 -31.5t-63.5 -32.5t-43.5 -35.5t-27.5 -46.5t-19 -59t-14.5 -80h-312zM324 0l67 322h375l-70 -322h-372z" />
    <glyph glyph-name="at" unicode="@" horiz-adv-x="2177" 
d="M1081 -338q-193 0 -344.5 31t-273 100t-200.5 177.5t-121 265t-42 360.5q0 205 45.5 366t127.5 269.5t201 179.5t259.5 102t310.5 31q953 0 953 -948q0 -208 -42 -325t-128.5 -164.5t-237.5 -47.5q-286 0 -342 140q-68 -67 -155 -96t-232 -29q-104 0 -181.5 29t-122 82
t-66 119.5t-21.5 148.5q0 108 17.5 205.5t57 186t98 153.5t146 103t195.5 38q155 0 233 -27t125 -82l80 92l189 -16l-144 -668q-27 -124 8 -171.5t158 -47.5q51 0 84.5 13t54.5 37t32 72.5t14.5 105t3.5 149.5q0 214 -52.5 366.5t-156 242.5t-242.5 130.5t-326 40.5
q-142 0 -256.5 -25t-211.5 -82.5t-162.5 -146.5t-101.5 -222t-36 -304q0 -208 53.5 -356.5t159 -238t250.5 -130.5t340 -41q145 0 290 30.5t249 82.5l74 -150q-262 -131 -611 -131zM950 317q110 0 178 60t95 201q12 62 12 120q0 91 -49.5 138t-169.5 47q-124 0 -187 -109
t-63 -278q0 -85 41.5 -132t142.5 -47z" />
    <glyph glyph-name="A" unicode="A" horiz-adv-x="1562" 
d="M-131 0l909 1528h326l254 -1528h-334l-39 250h-618l-144 -250h-354zM522 526h420l-90 574z" />
    <glyph glyph-name="B" unicode="B" horiz-adv-x="1507" 
d="M-10 0l323 1518h572q134 0 236.5 -14.5t170.5 -41t111 -67t61.5 -88.5t18.5 -109q0 -180 -71 -285t-202 -135q93 -32 128.5 -100t35.5 -178q0 -144 -42 -242.5t-128.5 -154.5t-202 -79.5t-278.5 -23.5h-733zM379 279h416q121 0 180 47.5t59 158.5q0 71 -55 103.5
t-186 32.5h-340zM512 911h385q124 0 176.5 50t52.5 147q0 63 -56.5 94t-199.5 31h-290z" />
    <glyph glyph-name="C" unicode="C" horiz-adv-x="1521" 
d="M754 -23q-185 0 -322 42t-220 121.5t-123 186.5t-40 244q0 129 29 265q35 163 97.5 287.5t140 203t177 127.5t200.5 68.5t218 19.5q134 0 241.5 -20t181.5 -56.5t122 -74.5t88 -86l-272 -222q-122 152 -365 152q-200 0 -322.5 -105t-170.5 -335q-21 -95 -21 -179
q0 -340 391 -340q209 0 369 127l188 -237q-113 -97 -251.5 -143t-335.5 -46z" />
    <glyph glyph-name="D" unicode="D" horiz-adv-x="1583" 
d="M-10 0l323 1518h387q446 0 641 -128t195 -417q0 -143 -35 -301q-24 -110 -55 -199t-71 -156t-84.5 -117.5t-101.5 -85.5t-114.5 -57.5t-131 -35t-143.5 -17t-159 -4.5h-651zM387 293h260q104 0 175 11.5t128 37.5t95.5 75.5t66.5 120t51 175.5q27 135 27 211
q0 153 -100.5 223t-339.5 70h-166z" />
    <glyph glyph-name="E" unicode="E" horiz-adv-x="1382" 
d="M-8 0l323 1518h1115l-66 -304h-778l-64 -294h760l-63 -293h-758l-72 -336h787l-62 -291h-1122z" />
    <glyph glyph-name="F" unicode="F" horiz-adv-x="1294" 
d="M-8 0l323 1518h1063l-65 -304h-727l-70 -325h707l-64 -299h-706l-125 -590h-336z" />
    <glyph glyph-name="G" unicode="G" horiz-adv-x="1611" 
d="M766 -23q-717 0 -717 592q0 126 29 267q140 706 835 706q238 0 402 -67t241 -170l-272 -222q-26 32 -55 55.5t-74.5 47.5t-112.5 36.5t-151 12.5q-204 0 -321.5 -111.5t-161.5 -328.5q-21 -115 -21 -181q0 -174 95 -264t306 -90q186 0 267 66.5t116 246.5l7 31h-404
l60 279h731l-56 -267q-39 -187 -94 -307t-144 -195.5t-209 -106t-296 -30.5z" />
    <glyph glyph-name="H" unicode="H" horiz-adv-x="1644" 
d="M-8 0l323 1518h336l-125 -582h668l125 582h336l-324 -1518h-336l133 623h-667l-133 -623h-336z" />
    <glyph glyph-name="I" unicode="I" horiz-adv-x="681" 
d="M14 0l324 1518h334l-324 -1518h-334z" />
    <glyph glyph-name="J" unicode="J" horiz-adv-x="890" 
d="M-115 0l62 291h151q122 0 178 43.5t80 150.5l222 1033h333l-229 -1080q-24 -111 -66.5 -192.5t-92.5 -128.5t-117 -75t-128 -37t-137 -9q-186 0 -256 4z" />
    <glyph glyph-name="K" unicode="K" horiz-adv-x="1515" 
d="M950 0l-274 684l-264 -254l-90 -430h-330l323 1518h330l-137 -637l649 637h395l-614 -596l365 -922h-353z" />
    <glyph glyph-name="L" unicode="L" horiz-adv-x="1222" 
d="M-8 0l323 1518h336l-262 -1227h705l-62 -291h-1040z" />
    <glyph glyph-name="M" unicode="M" horiz-adv-x="1961" 
d="M-8 0l323 1518h439l168 -1018l600 1018h450l-323 -1518h-328l217 1024l-614 -1024h-238l-178 1022l-215 -1022h-301z" />
    <glyph glyph-name="N" unicode="N" horiz-adv-x="1642" 
d="M-8 0l323 1518h361l448 -979l209 979h322l-324 -1518h-309l-487 1047l-224 -1047h-319z" />
    <glyph glyph-name="O" unicode="O" horiz-adv-x="1722" 
d="M795 -25q-351 0 -547.5 159t-196.5 462q0 113 27 248q35 165 101 290t146.5 201t185 124t205.5 65.5t218 17.5q348 0 542.5 -156.5t194.5 -457.5q0 -120 -26 -244q-153 -709 -850 -709zM799 270q214 0 336 107.5t170 331.5q20 102 20 174q0 352 -407 352
q-214 0 -336 -106.5t-168 -327.5q-19 -93 -19 -174q0 -167 96.5 -262t307.5 -95z" />
    <glyph glyph-name="P" unicode="P" horiz-adv-x="1515" 
d="M-10 0l323 1518h617q592 0 592 -398q0 -114 -21.5 -211t-70 -180.5t-122 -141.5t-182 -91t-245.5 -33h-463l-101 -463h-327zM477 752h393q149 0 225 73t76 234q0 86 -67 129t-219 43h-305z" />
    <glyph glyph-name="Q" unicode="Q" horiz-adv-x="1722" 
d="M795 -8h-4q-19 -76 10.5 -100.5t138.5 -24.5h158l-58 -268q-51 -5 -155 -5q-192 0 -287.5 43t-116 138.5t22.5 247.5q-453 109 -453 573q-3 100 27 248q35 165 101 290t146.5 201t184.5 124t205 65.5t219 17.5q352 0 544.5 -159t192.5 -455q0 -120 -26 -244
q-26 -120 -67.5 -218t-92 -169t-114.5 -125t-130 -87.5t-143 -55t-149.5 -29.5t-153.5 -8zM799 270q214 0 336 107.5t170 331.5q20 102 20 174q0 352 -407 352q-214 0 -336 -106.5t-168 -327.5q-19 -93 -19 -174q0 -167 96.5 -262t307.5 -95z" />
    <glyph glyph-name="R" unicode="R" horiz-adv-x="1540" 
d="M915 0l-174 504h-315l-109 -504h-327l323 1518h586q614 0 614 -388q0 -115 -22.5 -210.5t-72 -178t-136 -139.5t-205.5 -82l178 -520h-340zM487 793h387q148 0 218.5 64t70.5 204q0 89 -71.5 129.5t-221.5 40.5h-290z" />
    <glyph glyph-name="S" unicode="S" horiz-adv-x="1476" 
d="M680 -23q-468 0 -764 226l215 235q229 -182 565 -182q151 0 225 37.5t74 134.5q0 34 -11 58.5t-29 41t-56 32t-75.5 26.5t-104.5 29q-35 9 -53 14q-55 15 -90.5 25.5t-82.5 26t-77 29.5t-66 34.5t-58.5 41.5t-45.5 49.5t-35.5 60.5t-20.5 72t-8 87q0 110 32.5 195
t87 139.5t134 89.5t166 49t189.5 14q424 0 661 -180l-221 -250q-71 57 -188 97t-265 40q-132 0 -193 -36.5t-61 -129.5q0 -31 14.5 -55t35.5 -40t63.5 -32t78.5 -26t101 -25q61 -15 103 -26t95.5 -27.5t90 -33.5t76.5 -40t66 -50.5t48 -62t32.5 -77t10.5 -92.5
q0 -519 -659 -519z" />
    <glyph glyph-name="T" unicode="T" horiz-adv-x="1404" 
d="M375 0l258 1214h-506l66 304h1347l-65 -304h-506l-258 -1214h-336z" />
    <glyph glyph-name="U" unicode="U" horiz-adv-x="1632" 
d="M721 -29q-149 0 -262 25t-182.5 66.5t-113 102t-59.5 122.5t-16 137q0 86 25 207l190 887h336l-184 -871q-21 -100 -21 -158q0 -110 72.5 -165.5t251.5 -55.5q178 0 256 74.5t116 257.5l195 918h326l-211 -981q-14 -69 -30.5 -123t-45 -115t-64.5 -106.5t-90.5 -89
t-122.5 -71.5t-161 -44.5t-205 -16.5z" />
    <glyph glyph-name="V" unicode="V" horiz-adv-x="1562" 
d="M457 -10l-254 1528h344l160 -1082l622 1082h361l-910 -1528h-323z" />
    <glyph glyph-name="W" unicode="W" horiz-adv-x="2174" 
d="M326 -10l-115 1528h346l55 -926l480 926h325l86 -926l451 926h338l-766 -1528h-289l-94 1022l-529 -1022h-288z" />
    <glyph glyph-name="X" unicode="X" horiz-adv-x="1558" 
d="M983 0l-256 551l-467 -551h-375l717 819l-321 699h350l217 -471l395 471h375l-645 -740l360 -778h-350z" />
    <glyph glyph-name="Y" unicode="Y" horiz-adv-x="1515" 
d="M426 0l117 551l-367 967h350l244 -660l520 660h369l-782 -973l-115 -545h-336z" />
    <glyph glyph-name="Z" unicode="Z" horiz-adv-x="1376" 
d="M-96 0l55 250l981 964h-741l63 304h1184l-57 -275l-969 -952h786l-61 -291h-1241z" />
    <glyph glyph-name="bracketleft" unicode="[" horiz-adv-x="1056" 
d="M-8 -338l409 1927h656l-58 -276h-331l-293 -1383h336l-58 -268h-661z" />
    <glyph glyph-name="backslash" unicode="\" horiz-adv-x="1175" 
d="M696 0l-524 1518h309l525 -1518h-310z" />
    <glyph glyph-name="bracketright" unicode="]" horiz-adv-x="1056" 
d="M-59 -338l55 268h336l295 1383h-332l59 276h656l-410 -1927h-659z" />
    <glyph glyph-name="asciicircum" unicode="^" 
d="M236 1130l391 375h334l231 -375h-295l-143 177l-219 -177h-299z" />
    <glyph glyph-name="underscore" unicode="_" horiz-adv-x="927" 
d="M-303 -322l51 240h1079l-51 -240h-1079z" />
    <glyph glyph-name="grave" unicode="`" 
d="M645 1270l-309 375h375l209 -375h-275z" />
    <glyph glyph-name="a" unicode="a" horiz-adv-x="1296" 
d="M393 -18q-125 0 -210.5 23t-132.5 68t-67 102.5t-20 137.5q0 102 33.5 177.5t92.5 124t149.5 78t193.5 41t236 11.5h147q8 33 8 66q0 49 -47 70.5t-178 21.5q-68 0 -154.5 -19t-142.5 -48l-117 241q78 46 205.5 77.5t272.5 31.5q179 0 285 -32.5t147 -95.5t43 -156.5
t-27 -215.5l-66 -313q-17 -62 -4.5 -86t82.5 -21l-57 -262q-27 -8 -137 -8q-84 0 -119.5 21t-52.5 85q-105 -120 -363 -120zM485 240q128 0 185 49.5t88 191.5l8 43h-148q-187 0 -260 -34t-73 -142q0 -55 43 -81.5t157 -26.5z" />
    <glyph glyph-name="b" unicode="b" horiz-adv-x="1353" 
d="M682 -18q-332 0 -408 124l-77 -118l-228 22l336 1579h320l-109 -499q113 96 328 96q430 0 430 -422q0 -106 -29 -238q-28 -130 -69 -225.5t-106.5 -169.5t-162.5 -111.5t-225 -37.5zM635 254q128 0 189 72t96 225q18 95 18 147q0 93 -50 144t-169 51q-134 0 -203 -63.5
t-104 -227.5q-19 -84 -19 -147q0 -100 57 -150.5t185 -50.5z" />
    <glyph glyph-name="c" unicode="c" horiz-adv-x="1161" 
d="M545 -18q-533 0 -533 444q0 99 23 217q26 127 72 223t121.5 170t189.5 112t264 38q184 0 294.5 -52.5t184.5 -148.5l-262 -207q-17 24 -33.5 40t-44.5 35t-70.5 28.5t-97.5 9.5q-125 0 -195.5 -70.5t-101.5 -226.5q-14 -75 -14 -135q0 -99 52.5 -153t176.5 -54
q70 0 125 17.5t123 72.5l170 -203q-189 -157 -444 -157z" />
    <glyph glyph-name="d" unicode="d" horiz-adv-x="1353" 
d="M438 -18q-432 0 -432 419q0 99 31 240q28 130 69 225t106 169.5t161.5 112.5t224.5 38q165 0 249 -32t122 -91l114 526h322l-336 -1577l-250 -22v98q-58 -54 -148.5 -80t-232.5 -26zM563 256q134 0 203 64t104 227q17 75 17 147q0 102 -56.5 152.5t-185.5 50.5
q-66 0 -114 -19.5t-80 -61t-52 -92.5t-37 -126q-16 -82 -16 -147q0 -93 48.5 -144t168.5 -51z" />
    <glyph glyph-name="e" unicode="e" horiz-adv-x="1226" 
d="M539 -23q-529 0 -529 447q0 90 25 219q53 264 206.5 403.5t434.5 139.5q109 0 192.5 -21t135 -55t84 -82.5t45 -98.5t12.5 -108q0 -142 -49 -362h-779v-4q0 -217 261 -217q203 0 333 84l125 -224q-186 -121 -497 -121zM639 918q-113 0 -179 -58t-102 -172h480q8 50 8 78
q0 73 -45.5 112.5t-161.5 39.5z" />
    <glyph glyph-name="f" unicode="f" horiz-adv-x="903" 
d="M78 885l59 274h217l21 94q29 136 83.5 215t154 118.5t261.5 39.5q96 0 166 -4l-55 -262h-104q-96 0 -136.5 -32.5t-54.5 -106.5l-14 -62h266l-57 -274h-267l-260 -1223h-321l260 1223h-219z" />
    <glyph glyph-name="g" unicode="g" horiz-adv-x="1310" 
d="M616 426q-112 0 -210 16q-13 -26 -13 -55q0 -33 20 -47.5t79 -15.5q237 -4 365.5 -33t182.5 -90t54 -170q0 -98 -27 -168t-76.5 -114.5t-132 -70.5t-180 -35.5t-234.5 -9.5q-325 0 -462.5 65.5t-137.5 219.5q0 135 85.5 209.5t220.5 95.5q-44 50 -44 139q0 96 82 175
q-92 80 -92 215q0 231 134 332.5t423 101.5q27 0 101 -4l538 104l-43 -244h-182q42 -39 67 -98.5t25 -126.5q0 -204 -132 -297.5t-411 -93.5zM500 -147q144 -2 199 27t55 112q0 58 -74 81t-262 23q-131 0 -180.5 -29t-49.5 -100q0 -36 26 -60t97 -39t189 -15zM618 639
q114 0 167 43t53 137q0 60 -47.5 89.5t-161.5 29.5q-111 0 -163 -41t-52 -139q0 -58 45.5 -88.5t158.5 -30.5z" />
    <glyph glyph-name="h" unicode="h" horiz-adv-x="1318" 
d="M-35 0l338 1589h320l-105 -497q108 94 295 94q90 0 158.5 -14.5t113 -38t72 -62.5t39.5 -79.5t12 -98t-7 -109t-21 -120.5l-144 -664h-319l133 629q6 28 8.5 42t6 38.5t3 37.5t-1.5 33t-7.5 30t-16 24t-25 21.5t-35.5 14.5t-47 10t-61 3q-63 0 -108 -16.5t-72 -50
t-42 -71t-26 -92.5l-139 -653h-322z" />
    <glyph glyph-name="i" unicode="i" horiz-adv-x="600" 
d="M-23 0l248 1159h320l-246 -1159h-322zM246 1266l63 293h324l-62 -293h-325z" />
    <glyph glyph-name="j" unicode="j" horiz-adv-x="600" 
d="M-227 -346l53 244h24q71 0 95 27.5t45 121.5l235 1112h320l-242 -1145q-17 -79 -35.5 -135.5t-44 -97t-54 -65t-71 -38.5t-88.5 -19t-112 -5h-125zM246 1266l63 293h324l-62 -293h-325z" />
    <glyph glyph-name="k" unicode="k" horiz-adv-x="1198" 
d="M-33 0l338 1589h318l-185 -868l441 438h356l-475 -467l264 -692h-334l-176 451l-170 -166l-59 -285h-318z" />
    <glyph glyph-name="l" unicode="l" horiz-adv-x="698" 
d="M301 -4q-173 0 -228.5 91.5t-11.5 301.5l254 1200h322l-254 -1200q-17 -71 -0.5 -96t86.5 -25h39l-55 -264q-54 -8 -152 -8z" />
    <glyph glyph-name="m" unicode="m" horiz-adv-x="2029" 
d="M-35 0l242 1141l256 18v-86q65 54 144 83.5t196 29.5q138 0 222 -27t124 -100q54 58 151.5 92.5t231.5 34.5q70 0 126.5 -9t97.5 -23.5t71 -39t48.5 -50.5t28 -63.5t12 -72.5t-1.5 -82t-10.5 -87.5t-17.5 -94.5l-143 -664h-320l133 629q24 112 19 153q-8 73 -94 93
q-36 8 -88 8q-51 0 -89.5 -12t-62.5 -30.5t-42 -51t-27 -61.5t-19 -75l-137 -653h-322l133 629q24 111 20 150q-7 76 -94 96q-36 8 -89 8q-51 0 -89 -12t-62 -30.5t-41.5 -50.5t-27 -62t-18.5 -75l-139 -653h-322z" />
    <glyph glyph-name="n" unicode="n" horiz-adv-x="1318" 
d="M-35 0l242 1141l256 18v-86q136 113 350 113q90 0 158.5 -14.5t113 -38t72 -62.5t39.5 -79.5t12 -98t-7 -109t-21 -120.5l-144 -664h-319l133 629q6 28 8.5 42t6 38.5t3 37.5t-1.5 33t-7.5 30t-16 24t-25 21.5t-35.5 14.5t-47 10t-61 3q-63 0 -108 -16.5t-72 -50t-42 -71
t-26 -92.5l-139 -653h-322z" />
    <glyph glyph-name="o" unicode="o" horiz-adv-x="1312" 
d="M557 -23q-281 0 -413 122t-132 339q0 87 23 205q62 286 222 414.5t427 128.5q281 0 413 -120.5t132 -336.5q0 -75 -25 -207q-60 -286 -219.5 -415.5t-427.5 -129.5zM575 252q135 0 204.5 71.5t101.5 223.5q16 75 16 135q0 101 -53.5 156t-179.5 55q-136 0 -206 -72.5
t-102 -226.5q-16 -75 -16 -135q0 -207 235 -207z" />
    <glyph glyph-name="p" unicode="p" horiz-adv-x="1353" 
d="M-104 -338l313 1479l254 18l2 -92q60 59 149.5 89t229.5 30q430 0 430 -422q0 -106 -29 -238q-28 -130 -69 -225.5t-106.5 -169.5t-162.5 -111.5t-225 -37.5q-173 0 -255.5 29t-117.5 87l-92 -436h-321zM635 254q128 0 189 72t96 225q18 95 18 147q0 93 -50 144t-169 51
q-134 0 -203 -63.5t-104 -227.5q-19 -84 -19 -147q0 -100 57 -150.5t185 -50.5z" />
    <glyph glyph-name="q" unicode="q" horiz-adv-x="1353" 
d="M674 -338l82 399q-103 -79 -318 -79q-432 0 -432 419q0 99 31 240q28 130 69 225t106 169.5t161.5 112.5t224.5 38q175 0 268.5 -29.5t141.5 -97.5l84 106l219 -18l-314 -1485h-323zM563 256q134 0 203 64t104 227q17 75 17 147q0 102 -56.5 152.5t-185.5 50.5
q-66 0 -114 -19.5t-80 -61t-52 -92.5t-37 -126q-16 -82 -16 -147q0 -93 48.5 -144t168.5 -51z" />
    <glyph glyph-name="r" unicode="r" horiz-adv-x="786" 
d="M-33 0l242 1141l256 18v-110q44 59 139 91t225 34l-65 -308q-93 -1 -155 -17.5t-100.5 -54t-58.5 -83t-36 -119.5l-125 -592h-322z" />
    <glyph glyph-name="s" unicode="s" horiz-adv-x="1132" 
d="M475 -18q-172 0 -320.5 50t-246.5 134l194 219q79 -61 192.5 -102t213.5 -41q92 0 130 17.5t38 80.5q0 23 -13.5 40.5t-46 31t-57 21t-76.5 20.5l-24 6q-44 10 -72.5 18t-70.5 22.5t-70 30t-59.5 39.5t-49.5 52t-30.5 66.5t-12.5 84.5q0 414 518 414q154 0 282 -38.5
t214 -98.5l-199 -240q-161 96 -327 96q-87 0 -121.5 -18.5t-34.5 -71.5q0 -16 5.5 -29t20.5 -24t29 -18.5t43 -16.5t49 -14l60 -15q49 -13 78 -21.5t72.5 -24t70 -31t57.5 -40t48 -52.5t28.5 -67t11.5 -85q0 -111 -37 -189t-108.5 -122.5t-163.5 -64t-215 -19.5z" />
    <glyph glyph-name="t" unicode="t" horiz-adv-x="917" 
d="M78 885l59 274h207l115 283l260 51l-72 -334h264l-57 -274h-266l-101 -477q-17 -76 4 -108t117 -32h115l-57 -268q-47 -4 -181 -4q-120 0 -195 26t-107.5 76.5t-36.5 125t18 171.5l104 490h-190z" />
    <glyph glyph-name="u" unicode="u" horiz-adv-x="1302" 
d="M547 -23q-177 0 -286.5 39t-157 115.5t-51.5 190t30 262.5l123 575h321l-127 -600q-8 -39 -12 -62.5t-7.5 -55.5t-1 -51.5t9 -43t21 -37t36.5 -26t54.5 -18t75.5 -5.5q38 0 67.5 6t51.5 15.5t39.5 28.5t28.5 37t21.5 49t16.5 55.5t15 66.5l137 641h316l-140 -655
q-34 -155 -74.5 -251t-108 -160.5t-161.5 -90t-237 -25.5z" />
    <glyph glyph-name="v" unicode="v" horiz-adv-x="1214" 
d="M285 -12l-193 1171h334l102 -766l424 766h340l-688 -1171h-319z" />
    <glyph glyph-name="w" unicode="w" horiz-adv-x="1843" 
d="M225 -12l-112 1171h333l52 -663l350 663h330l75 -663l326 663h324l-609 -1171h-295l-84 745l-395 -745h-295z" />
    <glyph glyph-name="x" unicode="x" horiz-adv-x="1185" 
d="M666 0l-166 369l-310 -369h-348l545 618l-242 541h336l140 -313l260 313h348l-494 -565l266 -594h-335z" />
    <glyph glyph-name="y" unicode="y" horiz-adv-x="1155" 
d="M82 -348q-86 0 -156 4l51 242h86q65 0 97 8t46.5 23.5t35.5 54.5l28 55l-178 1120h338l90 -700l383 700h332l-715 -1233q-50 -86 -87.5 -134.5t-88 -82.5t-110.5 -45.5t-152 -11.5z" />
    <glyph glyph-name="z" unicode="z" horiz-adv-x="1064" 
d="M-121 0l47 215l676 670h-500l58 274h934l-47 -219l-680 -682h559l-56 -258h-991z" />
    <glyph glyph-name="braceleft" unicode="{" horiz-adv-x="1132" 
d="M512 -338q-206 0 -299.5 52.5t-93.5 160.5q0 55 33 141t72.5 160t72.5 146.5t33 103.5q0 44 -50 56t-196 12l55 262q77 0 119.5 2.5t80 10.5t54 25.5t25 44.5t8.5 70q0 37 -9 142t-9 159q0 187 105.5 283t295.5 96h330l-58 -276h-182q-96 0 -135 -32.5t-39 -115.5
q0 -29 7 -125t7 -149q0 -49 -6.5 -85t-24 -73.5t-55 -64t-94.5 -41.5q107 -36 107 -133q0 -43 -30 -118.5t-66.5 -144t-66.5 -137t-30 -98.5q0 -36 29.5 -51t97.5 -15h186l-57 -268h-217z" />
    <glyph glyph-name="bar" unicode="|" horiz-adv-x="774" 
d="M225 -338v1927h326v-1927h-326z" />
    <glyph glyph-name="braceright" unicode="}" horiz-adv-x="1132" 
d="M-59 -338l55 268h182q95 0 135.5 36t40.5 120q0 29 -7 125t-7 149q0 49 6.5 85.5t24 74t54.5 64t93 41.5q-104 36 -104 133q0 54 48 157t96 199.5t48 134.5q0 35 -30.5 49.5t-98.5 14.5h-186l59 276h217q206 0 300 -52.5t94 -160.5q0 -55 -33 -141t-72.5 -160
t-72.5 -146.5t-33 -103.5q0 -44 49 -55.5t196 -11.5l-55 -262q-64 0 -102 -1.5t-74.5 -7t-54.5 -15.5t-32.5 -27.5t-19 -42t-4.5 -60.5q0 -37 9.5 -142t9.5 -159q0 -187 -106 -283t-296 -96h-329z" />
    <glyph glyph-name="asciitilde" unicode="~" 
d="M920 762q-53 0 -107 17t-90 38t-78.5 38t-75.5 17q-75 0 -159 -98l-160 152q162 194 332 194q53 0 106.5 -17t89.5 -38t78.5 -38t75.5 -17q71 0 158 100l159 -149q-166 -199 -329 -199z" />
    <glyph glyph-name="exclamdown" unicode="&#xa1;" horiz-adv-x="823" 
d="M74 0l256 1040h286l-190 -1040h-352zM311 1157l78 361h373l-78 -361h-373z" />
    <glyph glyph-name="cent" unicode="&#xa2;" horiz-adv-x="1167" 
d="M287 -193l43 203q-318 73 -318 416q0 99 23 217q47 236 175 371.5t368 159.5l28 133h305l-30 -148q175 -40 280 -174l-262 -207q-17 24 -33.5 40t-44.5 35t-70.5 28.5t-97.5 9.5q-125 0 -195.5 -70.5t-101.5 -226.5q-14 -75 -14 -135q0 -99 52.5 -153t176.5 -54
q70 0 125 17.5t123 72.5l170 -203q-157 -131 -356 -147l-39 -185h-307z" />
    <glyph glyph-name="sterling" unicode="&#xa3;" horiz-adv-x="1335" 
d="M788 -14q-241 0 -415 104q-153 -102 -461 -90l53 260q81 0 136.5 8t89 19.5t53.5 36.5t28.5 48t16.5 64q14 74 4 215h-250l51 246h185q-3 37 -3 72q0 275 134 425t405 150q272 0 496 -117l-174 -258q-62 38 -155 63t-183 25q-63 0 -105.5 -22.5t-65 -67t-31.5 -99
t-9 -130.5v-41h352l-49 -246h-295q3 -123 -14 -211q-14 -67 -41 -137q112 -49 235 -49q47 0 71.5 5t43 27.5t27.5 53t24 98.5l12 58h279l-21 -101q-25 -120 -59 -198t-85.5 -125.5t-117.5 -66.5t-162 -19z" />
    <glyph glyph-name="currency" unicode="&#xa4;" horiz-adv-x="1429" 
d="M72 807l47 223h221q86 238 252 375t397 137q300 0 475 -119l-186 -252q-129 84 -295 84q-209 0 -317 -225h426l-45 -223h-451q-12 -56 -18 -119h442l-47 -225h-398q26 -213 254 -213q144 0 250 59l133 -235q-162 -99 -421 -99q-261 0 -390.5 128.5t-142.5 359.5h-260
l47 225h221q7 72 17 119h-211z" />
    <glyph glyph-name="yen" unicode="&#xa5;" horiz-adv-x="1357" 
d="M90 469l45 225h357l-312 824h338l195 -578l442 578h344l-663 -824h352l-47 -225h-367l-26 -119h366l-45 -225h-369l-26 -125h-318l27 125h-365l45 225h367l27 119h-367z" />
    <glyph glyph-name="brokenbar" unicode="&#xa6;" horiz-adv-x="774" 
d="M225 -338v803h326v-803h-326zM225 786v803h326v-803h-326z" />
    <glyph glyph-name="section" unicode="&#xa7;" horiz-adv-x="1241" 
d="M223 -10q-124 0 -198 4l51 250h112q72 0 110.5 16.5t54.5 46.5t30 92l8 39q-274 60 -274 279q0 345 403 373l6 28q16 76 36.5 132.5t57.5 111t87 89t125.5 55t173.5 20.5q124 0 198 -4l-55 -262h-111q-54 0 -89 -8.5t-55 -29t-30 -43.5t-18 -63l-10 -45q286 -61 286 -287
q0 -80 -21.5 -141.5t-58 -101.5t-90 -67t-113 -39.5t-132.5 -16.5l-5 -19q-16 -77 -36.5 -134t-57 -111t-86.5 -88.5t-125.5 -55t-173.5 -20.5zM641 606q108 0 162.5 32t54.5 120q0 123 -258 123q-55 0 -91.5 -5t-68 -20.5t-46.5 -46t-15 -78.5q0 -125 262 -125z" />
    <glyph glyph-name="dieresis" unicode="&#xa8;" 
d="M342 1270l59 278h291l-59 -278h-291zM797 1270l59 278h291l-60 -278h-290z" />
    <glyph glyph-name="copyright" unicode="&#xa9;" horiz-adv-x="1656" 
d="M846 272q-494 0 -494 498q0 251 135 374.5t373 123.5t375 -140l-143 -145q-93 90 -234 90q-293 0 -293 -305q0 -151 70.5 -229t224.5 -78q84 0 138.5 24.5t105.5 71.5l137 -135q-66 -70 -158 -110t-237 -40zM831 -25q-149 0 -273.5 39t-214 110t-151.5 169t-92 215.5
t-30 251.5q0 168 48 309.5t141 248t239.5 166.5t332.5 60q185 0 331.5 -60t239 -166.5t141 -248t48.5 -309.5q0 -134 -30 -251.5t-92 -215.5t-151.5 -169t-213.5 -110t-273 -39zM831 92q134 0 241.5 34t180.5 93.5t122 144.5t71 183.5t22 212.5t-22 212.5t-71 183t-122 144
t-180.5 93.5t-241.5 34q-167 0 -292 -51t-199 -143.5t-109.5 -210.5t-35.5 -262q0 -115 21.5 -213t70.5 -183t121.5 -144.5t180.5 -93.5t242 -34z" />
    <glyph glyph-name="ordfeminine" unicode="&#xaa;" horiz-adv-x="1222" 
d="M461 565q-182 0 -257 66t-75 182q0 94 28 161t74.5 107.5t122.5 63.5t156 31t190 8h121q6 30 6 55q0 39 -38.5 56.5t-143.5 17.5q-54 0 -125.5 -16.5t-118.5 -39.5l-92 197q61 38 164 63t223 25q146 0 232 -25.5t121 -76t36.5 -126t-22.5 -175.5l-55 -256
q-14 -49 -3 -67.5t66 -18.5l-45 -213q-27 -6 -111 -6q-93 0 -124 34q-25 25 -31 76q-47 -58 -126 -90.5t-173 -32.5zM98 238l47 227h770l-47 -227h-770zM551 778q92 0 144 41t77 152l8 37h-123q-150 0 -208 -28.5t-58 -121.5q0 -41 35 -60.5t125 -19.5z" />
    <glyph glyph-name="guillemotleft" unicode="&#xab;" horiz-adv-x="1570" 
d="M354 0l-186 578l432 581h281l-408 -581l162 -578h-281zM866 0l-186 578l432 581h283l-408 -581l160 -578h-281z" />
    <glyph glyph-name="logicalnot" unicode="&#xac;" horiz-adv-x="1703" 
d="M258 246q-88 105 -136 237t-48 277q0 144 48 276t136 236q6 -4 14 -12q-85 -103 -131.5 -231.5t-46.5 -268.5q0 -285 180 -500zM467 432q-117 143 -117 328q0 183 115 327q3 -2 8 -7t8 -7q-110 -136 -110 -313q0 -182 110 -314zM541 498q-92 116 -92 262t92 262
q3 -2 8 -7t8 -7q-88 -109 -88 -248t88 -248q-3 -2 -8 -7t-8 -7zM647 592q-57 72 -57 168q0 97 57 166l15 -15q-52 -69 -52 -151q0 -84 54 -154q-3 -2 -8.5 -7t-8.5 -7zM715 655q-33 48 -33 105q0 56 33 104q3 -2 8 -7t8 -7q-29 -44 -29 -90t29 -90q-3 -2 -16 -15zM774 709
q-14 25 -14 51t14 51l12 -10q-10 -20 -10 -41t10 -41q-4 -4 -12 -10zM852 123q-236 0 -412 158l2.5 2.5l5 5l5.5 5.5t2 1q171 -152 397 -152q227 0 395 152q2 -3 7.5 -8t7.5 -8q-177 -156 -410 -156zM852 664q-31 0 -55 18l12 12q21 -14 43 -14q26 0 43 14q4 -4 10 -12
q-21 -18 -53 -18zM987 653q-7 10 -14 15q28 42 28 92q0 51 -28 90l2.5 2.5t5 4.5t5.5 5t1 2q35 -44 35 -104t-35 -107zM598 551q-72 91 -72 209q0 119 74 209l14 -15q-67 -87 -67 -194q0 -108 67 -195q-10 -10 -16 -14zM852 -35q-145 0 -278 52.5t-238 146.5l14 16
q102 -92 231 -143t271 -51q285 0 500 192q0 1 3.5 -2.5t6.5 -7.5l4 -4q-104 -95 -236 -147t-278 -52zM852 248q-189 0 -330 125l15 16q134 -121 315 -121q182 0 313 121q2 -3 7.5 -8t7.5 -8q-138 -125 -328 -125zM852 348q-145 0 -264 101l14 14q108 -94 250 -94
q143 0 248 94q2 -3 7 -8.5t7 -8.5q-112 -98 -262 -98zM852 428q-116 0 -211 78l14 16q86 -73 197 -73t197 73q4 -4 12 -16q-91 -78 -209 -78zM852 543q-77 0 -135 49l14 16q51 -45 121 -45q68 0 119 45q2 -3 7 -8t7 -8q-58 -49 -133 -49zM733 911q-4 3 -7 6.5t-6 6.5l-3 4
q58 49 135 49t135 -49l-16 -17q-51 45 -119 45t-119 -45zM1167 1130q-134 121 -315 121q-179 0 -313 -118l-15 14q141 125 328 125q189 0 330 -125q-4 -6 -15 -17zM930 709l-12 10q10 20 10 41t-10 41l12 10q14 -25 14 -51t-14 -51zM958 682q-10 10 -16 14q21 32 21 64
t-21 63l16 15q25 -36 25 -78t-25 -78zM1020 627q-6 4 -16 14q38 50 38 119t-38 119l14 14q45 -57 45 -133q0 -71 -43 -133zM1106 551q-3 2 -8 7t-8 7q67 87 67 195t-70 194l17 15q74 -90 74 -209q0 -118 -72 -209zM1163 498q-10 10 -16 14q88 109 88 248t-88 248l16 14
q92 -116 92 -262t-92 -262zM1237 432q-6 4 -16 14q112 134 112 314q0 182 -112 313l16 14q117 -139 117 -327q0 -189 -117 -328zM1329 350q-2 2 -7 6t-7 6q141 175 141 398q0 227 -143 395l16 14q148 -179 148 -409q0 -231 -148 -410zM1446 246q-6 6 -16 14q180 215 180 500
t-180 500l16 14q88 -105 136 -237t48 -277q0 -144 -48 -276t-136 -238zM375 348q-148 182 -148 412q0 229 146 409q2 -2 7.5 -6.5t8.5 -7.5q-141 -170 -141 -395q0 -228 141 -398zM684 627q-43 59 -43 133t43 133q6 -4 16 -14q-38 -50 -38 -119q0 -67 38 -117zM745 682
q-24 34 -24 78t24 78q2 -3 4.5 -5.5t6 -5.5t4.5 -4q-19 -34 -19 -63q0 -30 19 -64zM809 825l-10 13q21 18 53 18t53 -18l-10 -13q-23 15 -43 15q-25 0 -43 -15zM786 852l-14 14q37 29 80 29q41 0 78 -29q-8 -8 -12 -14q-28 25 -66 25q-34 0 -66 -25zM760 881l-15 16
q45 39 107 39q61 0 106 -39l-14 -16q-37 34 -92 34t-92 -34zM604 1057l-14 16q112 98 262 98q151 0 262 -100q1 0 -2 -3.5t-6 -7.5l-4 -3q-108 94 -250 94q-143 0 -248 -94zM852 492q-100 0 -170 61l14 16q70 -57 156 -57q87 0 154 57l14 -14q-73 -63 -168 -63zM852 584
q-61 0 -109 39l15 16q47 -35 94 -35q51 0 92 35l14 -16q-45 -39 -106 -39zM852 625q-43 0 -82 28l14 15q36 -25 68 -25q34 0 66 25l14 -15q-36 -28 -80 -28zM698 950l-14 15q73 63 168 63q98 0 168 -61l-14 -17q-68 58 -154 58q-87 0 -154 -58zM655 997l-14 17q91 78 211 78
q119 0 209 -80l-12 -15q-83 74 -197 74q-110 0 -197 -74zM1249 1223q-166 153 -397 153q-227 0 -397 -151l-15 14q179 158 412 158t412 -158zM352 1339l-14 17q104 95 236 146.5t278 51.5q145 0 278 -52t238 -146l-14 -17q-102 93 -231 144t-271 51t-270 -51t-230 -144z
M1057 594l-15 14q52 69 52 152t-54 153l17 15q57 -72 57 -168q0 -97 -57 -166z" />
    <glyph glyph-name="registered" unicode="&#xae;" horiz-adv-x="1656" 
d="M829 -25q-186 0 -332 60t-238.5 167t-140.5 248.5t-48 309.5t48 309.5t140.5 248t238.5 166.5t332 60q149 0 273.5 -39t214 -109.5t151 -168.5t91.5 -215.5t30 -251.5t-30 -251.5t-91.5 -215.5t-151 -169t-214 -110t-273.5 -39zM829 92q134 0 241.5 34t180.5 93.5
t122 144.5t71 183.5t22 212.5t-22 212.5t-71 183t-122 144t-180.5 93.5t-241.5 34q-167 0 -292 -51t-199 -143.5t-109.5 -210.5t-35.5 -262q0 -115 21.5 -213t70.5 -183t121.5 -144.5t180.5 -93.5t242 -34zM1038 291l-176 321h-215v-321h-194v932h444q89 0 153.5 -14.5
t103.5 -39.5t62 -64.5t31 -82t8 -100.5q0 -54 -8 -95.5t-28 -81.5t-59.5 -69t-98.5 -45l188 -340h-211zM647 780h244q93 0 128.5 28t35.5 107t-35.5 107.5t-130.5 28.5h-242v-271z" />
    <glyph glyph-name="macron" unicode="&#xaf;" 
d="M289 1270l55 256h848l-53 -256h-850z" />
    <glyph glyph-name="macron" unicode="&#x2c9;" 
d="M289 1270l55 256h848l-53 -256h-850z" />
    <glyph glyph-name="degree" unicode="&#xb0;" horiz-adv-x="1155" 
d="M582 547q-117 0 -205 32.5t-140 89.5t-77 128t-25 155q0 168 68.5 301t200.5 211t307 78q113 0 198.5 -33.5t136 -91.5t75 -130.5t24.5 -156.5q0 -167 -69.5 -299.5t-198.5 -208t-295 -75.5zM604 780q133 0 205 89.5t72 230.5q0 87 -50 139.5t-161 52.5q-131 0 -202 -91
t-71 -232q0 -85 49 -137t158 -52z" />
    <glyph glyph-name="plusminus" unicode="&#xb1;" horiz-adv-x="2234" 
d="M739 -338l260 1223h-381l-260 -1223h-321l260 1223h-219l59 274h217l21 94q29 136 83.5 215t154 118.5t261.5 39.5q62 0 136 -4l-56 -262h-73q-96 0 -136.5 -32.5t-54.5 -106.5l-14 -62h381l20 94q29 136 83.5 215t154.5 118.5t262 39.5q61 0 135 -4l-57 -262h-72
q-96 0 -136 -32.5t-56 -106.5l-15 -62h238l-60 -274h-235l-258 -1223h-322zM1837 -4q-173 0 -229 91.5t-13 301.5l256 1200h322l-256 -1200q-14 -73 2 -97t86 -24h39l-57 -264q-50 -8 -150 -8z" />
    <glyph glyph-name="twosuperior" unicode="&#xb2;" horiz-adv-x="1052" 
d="M84 520l37 174l379 277q162 120 199.5 161.5t37.5 110.5q0 41 -37.5 59.5t-117.5 18.5q-51 0 -121.5 -12t-120.5 -31l-72 190q154 64 336 64q393 0 393 -242q0 -51 -5.5 -89.5t-22 -74.5t-35 -62.5t-56.5 -61t-74 -62t-99 -72.5l-201 -149h379l-41 -199h-758z" />
    <glyph glyph-name="threesuperior" unicode="&#xb3;" horiz-adv-x="1052" 
d="M524 504q-288 0 -456 125l139 174q149 -103 311 -103t162 154q0 50 -36.5 72t-127.5 22h-166l45 205h201q76 0 108.5 20.5t32.5 81.5q0 39 -35 57.5t-112 18.5q-56 0 -127.5 -13.5t-120.5 -37.5l-88 182q71 39 179 55.5t208 16.5q173 0 266.5 -56.5t93.5 -160.5
q0 -118 -43.5 -178t-123.5 -88q98 -45 98 -195q0 -96 -31 -166t-88 -109.5t-128 -58t-161 -18.5z" />
    <glyph glyph-name="acute" unicode="&#xb4;" 
d="M498 1270l368 375h398l-471 -375h-295z" />
    <glyph glyph-name="mu" unicode="&#xb5;" horiz-adv-x="1310" 
d="M-104 -338l317 1497h322l-127 -600q-27 -129 -22 -177q8 -87 100 -111q41 -11 102 -11q38 0 68 6t51 15.5t37.5 27t27 35t20 46.5t15.5 54t14 64q1 7 2 10l138 641h315l-139 -655q-44 -203 -111 -315t-177.5 -162t-293.5 -50q-179 0 -254 78l-84 -393h-321z" />
    <glyph glyph-name="mu" unicode="&#x3bc;" horiz-adv-x="1310" 
d="M-104 -338l317 1497h322l-127 -600q-27 -129 -22 -177q8 -87 100 -111q41 -11 102 -11q38 0 68 6t51 15.5t37.5 27t27 35t20 46.5t15.5 54t14 64q1 7 2 10l138 641h315l-139 -655q-44 -203 -111 -315t-177.5 -162t-293.5 -50q-179 0 -254 78l-84 -393h-321z" />
    <glyph glyph-name="paragraph" unicode="&#xb6;" horiz-adv-x="1380" 
d="M299 0l111 524q-287 81 -287 365q0 154 35.5 268t112 196t203.5 123.5t304 41.5h606l-323 -1518h-303l104 489h-155l-105 -489h-303zM729 745h186l107 494h-287q-137 0 -208.5 -74t-71.5 -235q0 -94 64 -139.5t210 -45.5z" />
    <glyph glyph-name="periodcentered" unicode="&#xb7;" horiz-adv-x="600" 
d="M72 561l80 377h372l-80 -377h-372z" />
    <glyph glyph-name="periodcentered" unicode="&#x2219;" horiz-adv-x="600" 
d="M72 561l80 377h372l-80 -377h-372z" />
    <glyph glyph-name="cedilla" unicode="&#xb8;" 
d="M395 -510q-189 0 -321 86l110 150q101 -68 207 -68q56 0 85.5 19.5t29.5 70.5q0 79 -168 66l-51 39l67 161h181l-41 -100q47 -3 82 -10t70 -23.5t54 -49t19 -79.5q0 -66 -20.5 -115t-51.5 -76.5t-76.5 -44t-86 -21.5t-89.5 -5z" />
    <glyph glyph-name="onesuperior" unicode="&#xb9;" horiz-adv-x="778" 
d="M242 520l166 783h-170l45 215h432l-213 -998h-260z" />
    <glyph glyph-name="ordmasculine" unicode="&#xba;" horiz-adv-x="1210" 
d="M639 565q-239 0 -351 99t-112 278q1 273 141.5 436.5t372.5 163.5q242 0 354.5 -99t112.5 -278q0 -277 -139.5 -438.5t-378.5 -161.5zM637 791q120 0 185 89.5t65 245.5q0 177 -195 177q-116 0 -182 -93t-66 -247q0 -172 193 -172zM84 233l49 230h819l-49 -230h-819z" />
    <glyph glyph-name="guillemotright" unicode="&#xbb;" horiz-adv-x="1570" 
d="M104 0l408 582l-162 577h281l186 -579l-432 -580h-281zM614 0l408 582l-160 577h281l186 -579l-432 -580h-283z" />
    <glyph glyph-name="onequarter" unicode="&#xbc;" horiz-adv-x="2119" 
d="M1049 184l38 178l572 635h274l-563 -622h209l94 235h189l-52 -235h156l-43 -191h-151l-39 -184h-236l39 184h-487zM256 0l1171 1518h281l-1169 -1518h-283zM199 522l166 781h-170l45 215h432l-213 -996h-260z" />
    <glyph glyph-name="onehalf" unicode="&#xbd;" horiz-adv-x="2240" 
d="M199 522l166 781h-170l45 215h432l-213 -996h-260zM256 0l1171 1518h281l-1169 -1518h-283zM1190 0l35 174l381 277q159 118 197 160.5t38 111.5q0 80 -153 80q-51 0 -122 -12.5t-122 -32.5l-72 190q159 66 338 66q188 0 290.5 -64t102.5 -180q0 -75 -14.5 -129t-53 -104
t-85 -89t-131.5 -100l-199 -149h367l-39 -199h-758z" />
    <glyph glyph-name="threequarters" unicode="&#xbe;" horiz-adv-x="2410" 
d="M514 508q-289 0 -457 125l140 174q142 -102 311 -102q162 0 162 153q0 52 -36.5 76t-125.5 24h-166l41 195h201q76 0 109.5 22t33.5 85q0 39 -34 56t-113 17q-58 0 -129 -12.5t-119 -36.5l-86 182q123 70 385 70q174 0 267 -55.5t93 -159.5q0 -80 -23 -136t-58 -84
t-87 -46q99 -46 99 -195q0 -96 -31 -166t-88 -109.5t-128 -58t-161 -18.5zM1341 184l39 178l572 635h274l-563 -622h209l94 235h188l-51 -235h156l-43 -191h-152l-39 -184h-235l39 184h-488zM549 0l1171 1518h281l-1172 -1518h-280z" />
    <glyph glyph-name="questiondown" unicode="&#xbf;" horiz-adv-x="1427" 
d="M600 -18q-288 0 -424.5 87t-136.5 259q0 135 38.5 224.5t118 147t218.5 101.5q82 27 124.5 46.5t71.5 53.5t39.5 71t22.5 113h311q-16 -121 -36 -193t-61.5 -129t-103 -90.5t-164.5 -64.5q-147 -43 -192 -79.5t-45 -125.5q0 -41 21.5 -69t86.5 -47t173 -19q186 0 393 70
l100 -264q-112 -48 -267.5 -70t-287.5 -22zM664 1202l69 322h373l-68 -322h-374z" />
    <glyph glyph-name="Agrave" unicode="&#xc0;" horiz-adv-x="1562" 
d="M-131 0l909 1528h326l254 -1528h-334l-39 250h-618l-144 -250h-354zM522 526h420l-90 574zM889 1600l-309 375h375l209 -375h-275z" />
    <glyph glyph-name="Aacute" unicode="&#xc1;" horiz-adv-x="1562" 
d="M-131 0l909 1528h326l254 -1528h-334l-39 250h-618l-144 -250h-354zM522 526h420l-90 574zM742 1600l368 375h398l-471 -375h-295z" />
    <glyph glyph-name="Acircumflex" unicode="&#xc2;" horiz-adv-x="1562" 
d="M-131 0l909 1528h326l254 -1528h-334l-39 250h-618l-144 -250h-354zM522 526h420l-90 574zM480 1600l391 375h334l231 -375h-295l-143 176l-219 -176h-299z" />
    <glyph glyph-name="Atilde" unicode="&#xc3;" horiz-adv-x="1562" 
d="M-131 0l909 1528h326l254 -1528h-334l-39 250h-618l-144 -250h-354zM522 526h420l-90 574zM1164 1600q-53 0 -107 17t-90 38t-78.5 38t-75.5 17q-75 0 -159 -98l-160 152q162 194 332 194q53 0 106.5 -17t89.5 -38t78.5 -38t75.5 -17q71 0 158 100l159 -150
q-165 -198 -329 -198z" />
    <glyph glyph-name="Adieresis" unicode="&#xc4;" horiz-adv-x="1562" 
d="M-131 0l909 1528h326l254 -1528h-334l-39 250h-618l-144 -250h-354zM522 526h420l-90 574zM586 1600l59 278h291l-59 -278h-291zM1041 1600l59 278h291l-60 -278h-290z" />
    <glyph glyph-name="Aring" unicode="&#xc5;" horiz-adv-x="1562" 
d="M-131 0l854 1436q-72 63 -72 176q0 163 89.5 260.5t238.5 97.5q135 0 204.5 -70.5t69.5 -179.5q0 -196 -133 -288l238 -1432h-334l-39 250h-618l-144 -250h-354zM522 526h420l-90 574zM934 1532q72 0 114 45.5t42 124.5q0 49 -29 79.5t-92 30.5q-70 0 -112 -49.5
t-42 -128.5q0 -46 29.5 -74t89.5 -28z" />
    <glyph glyph-name="AE" unicode="&#xc6;" horiz-adv-x="2310" 
d="M-158 0l1243 1518h1272l-63 -304h-764l-62 -294h742l-64 -293h-741l-72 -336h772l-63 -291h-1092l56 260h-588l-215 -260h-361zM639 532h426l145 693z" />
    <glyph glyph-name="Ccedilla" unicode="&#xc7;" horiz-adv-x="1521" 
d="M549 -510q-190 0 -322 86l111 150q101 -68 207 -68q56 0 85 19.5t29 70.5q0 79 -167 66l-52 39l62 149q-453 97 -453 569q0 129 29 265q35 163 97.5 287.5t140 203t177 127.5t200.5 68.5t218 19.5q134 0 241.5 -20t181.5 -56.5t122 -74.5t88 -86l-272 -222
q-122 152 -365 152q-200 0 -322.5 -105t-170.5 -335q-21 -95 -21 -179q0 -340 391 -340q209 0 369 127l188 -237q-113 -97 -251.5 -143t-335.5 -46q-15 0 -41.5 1.5t-38.5 1.5l-27 -66q47 -3 82 -10t70 -23.5t54 -49t19 -79.5q0 -66 -20.5 -115t-51.5 -76.5t-76 -44
t-85.5 -21.5t-89.5 -5z" />
    <glyph glyph-name="Egrave" unicode="&#xc8;" horiz-adv-x="1382" 
d="M-8 0l323 1518h1115l-66 -304h-778l-64 -294h760l-63 -293h-758l-72 -336h787l-62 -291h-1122zM801 1600l-309 375h375l209 -375h-275z" />
    <glyph glyph-name="Eacute" unicode="&#xc9;" horiz-adv-x="1382" 
d="M653 1599l369 375h397l-471 -375h-295zM-8 0l323 1518h1115l-66 -304h-778l-64 -294h760l-63 -293h-758l-72 -336h787l-62 -291h-1122z" />
    <glyph glyph-name="Ecircumflex" unicode="&#xca;" horiz-adv-x="1382" 
d="M391 1599l391 375h334l232 -375h-295l-144 177l-219 -177h-299zM-8 0l323 1518h1115l-66 -304h-778l-64 -294h760l-63 -293h-758l-72 -336h787l-62 -291h-1122z" />
    <glyph glyph-name="Edieresis" unicode="&#xcb;" horiz-adv-x="1382" 
d="M498 1599l59 279h291l-60 -279h-290zM952 1599l60 279h291l-60 -279h-291zM-8 0l323 1518h1115l-66 -304h-778l-64 -294h760l-63 -293h-758l-72 -336h787l-62 -291h-1122z" />
    <glyph glyph-name="Igrave" unicode="&#xcc;" horiz-adv-x="681" 
d="M389 1599l-248 377h375l146 -377h-273zM14 0l324 1518h334l-324 -1518h-334z" />
    <glyph glyph-name="Iacute" unicode="&#xcd;" horiz-adv-x="681" 
d="M369 1599l305 377h393l-405 -377h-293zM14 0l324 1518h334l-324 -1518h-334z" />
    <glyph glyph-name="Icircumflex" unicode="&#xce;" horiz-adv-x="681" 
d="M14 0l324 1518h334l-324 -1518h-334zM43 1600l391 375h334l231 -375h-295l-143 176l-219 -176h-299z" />
    <glyph glyph-name="Idieresis" unicode="&#xcf;" horiz-adv-x="681" 
d="M14 0l324 1518h334l-324 -1518h-334zM149 1600l59 278h291l-59 -278h-291zM604 1600l59 278h291l-60 -278h-290z" />
    <glyph glyph-name="Eth" unicode="&#xd0;" horiz-adv-x="1583" 
d="M-27 635l58 264h149l133 619h387q446 0 641 -128t195 -417q0 -143 -35 -301q-24 -110 -55 -199t-71 -156t-84.5 -117.5t-101.5 -85.5t-114.5 -57.5t-131 -35t-143.5 -17t-159 -4.5h-651l135 635h-152zM387 293h260q104 0 175 11.5t128 37.5t95.5 75.5t66.5 120t51 175.5
q27 135 27 211q0 103 -44 165.5t-153 95t-295 32.5h-114l-68 -318h283l-58 -264h-282z" />
    <glyph glyph-name="Ntilde" unicode="&#xd1;" horiz-adv-x="1642" 
d="M-8 0l323 1518h361l448 -979l209 979h322l-324 -1518h-309l-487 1047l-224 -1047h-319zM1205 1600q-53 0 -107 17t-90 38t-78.5 38t-75.5 17q-75 0 -159 -98l-160 152q162 194 332 194q53 0 106.5 -17t89.5 -38t78.5 -38t75.5 -17q71 0 158 100l159 -150
q-165 -198 -329 -198z" />
    <glyph glyph-name="Ograve" unicode="&#xd2;" horiz-adv-x="1722" 
d="M795 -25q-351 0 -547.5 159t-196.5 462q0 113 27 248q35 165 101 290t146.5 201t185 124t205.5 65.5t218 17.5q348 0 542.5 -156.5t194.5 -457.5q0 -120 -26 -244q-153 -709 -850 -709zM799 270q214 0 336 107.5t170 331.5q20 102 20 174q0 352 -407 352
q-214 0 -336 -106.5t-168 -327.5q-19 -93 -19 -174q0 -167 96.5 -262t307.5 -95zM969 1600l-309 375h375l209 -375h-275z" />
    <glyph glyph-name="Oacute" unicode="&#xd3;" horiz-adv-x="1722" 
d="M821 1599l369 375h397l-471 -375h-295zM795 -25q-351 0 -547.5 159t-196.5 462q0 113 27 248q35 165 101 290t146.5 201t185 124t205.5 65.5t218 17.5q348 0 542.5 -156.5t194.5 -457.5q0 -120 -26 -244q-153 -709 -850 -709zM799 270q214 0 336 107.5t170 331.5
q20 102 20 174q0 352 -407 352q-214 0 -336 -106.5t-168 -327.5q-19 -93 -19 -174q0 -167 96.5 -262t307.5 -95z" />
    <glyph glyph-name="Ocircumflex" unicode="&#xd4;" horiz-adv-x="1722" 
d="M559 1599l391 375h334l232 -375h-295l-144 177l-219 -177h-299zM795 -25q-351 0 -547.5 159t-196.5 462q0 113 27 248q35 165 101 290t146.5 201t185 124t205.5 65.5t218 17.5q348 0 542.5 -156.5t194.5 -457.5q0 -120 -26 -244q-153 -709 -850 -709zM799 270
q214 0 336 107.5t170 331.5q20 102 20 174q0 352 -407 352q-214 0 -336 -106.5t-168 -327.5q-19 -93 -19 -174q0 -167 96.5 -262t307.5 -95z" />
    <glyph glyph-name="Otilde" unicode="&#xd5;" horiz-adv-x="1722" 
d="M795 -25q-351 0 -547.5 159t-196.5 462q0 113 27 248q35 165 101 290t146.5 201t185 124t205.5 65.5t218 17.5q348 0 542.5 -156.5t194.5 -457.5q0 -120 -26 -244q-153 -709 -850 -709zM799 270q214 0 336 107.5t170 331.5q20 102 20 174q0 352 -407 352
q-214 0 -336 -106.5t-168 -327.5q-19 -93 -19 -174q0 -167 96.5 -262t307.5 -95zM1244 1600q-53 0 -107 17t-90 38t-78.5 38t-75.5 17q-75 0 -159 -98l-160 152q162 194 332 194q53 0 106.5 -17t89.5 -38t78.5 -38t75.5 -17q71 0 158 100l159 -150q-165 -198 -329 -198z" />
    <glyph glyph-name="Odieresis" unicode="&#xd6;" horiz-adv-x="1722" 
d="M666 1599l59 279h291l-60 -279h-290zM1120 1599l60 279h290l-59 -279h-291zM795 -25q-351 0 -547.5 159t-196.5 462q0 113 27 248q35 165 101 290t146.5 201t185 124t205.5 65.5t218 17.5q348 0 542.5 -156.5t194.5 -457.5q0 -120 -26 -244q-153 -709 -850 -709zM799 270
q214 0 336 107.5t170 331.5q20 102 20 174q0 352 -407 352q-214 0 -336 -106.5t-168 -327.5q-19 -93 -19 -174q0 -167 96.5 -262t307.5 -95z" />
    <glyph glyph-name="multiply" unicode="&#xd7;" horiz-adv-x="1478" 
d="M317 213l-151 203l371 305l-242 305l240 201l241 -305l369 305l151 -203l-368 -303l239 -305l-237 -201l-240 305z" />
    <glyph glyph-name="Oslash" unicode="&#xd8;" horiz-adv-x="1722" 
d="M795 -25q-213 0 -367 56l-92 -115h-316l197 242q-166 155 -166 438q-3 100 27 248q35 165 101 290t146.5 201t184.5 124t205 65.5t219 17.5q204 0 350 -51l90 113h314l-189 -236q172 -158 172 -440q0 -120 -26 -244q-153 -709 -850 -709zM797 256q221 0 346.5 110.5
t175.5 342.5q20 102 20 178q0 140 -63 225l-662 -833q84 -23 183 -23zM379 623q0 -130 53 -215l655 821q-82 20 -169 20q-220 0 -346 -109t-173 -339q-20 -98 -20 -178z" />
    <glyph glyph-name="Ugrave" unicode="&#xd9;" horiz-adv-x="1632" 
d="M721 -29q-149 0 -262 25t-182.5 66.5t-113 102t-59.5 122.5t-16 137q0 86 25 207l190 887h336l-184 -871q-21 -100 -21 -158q0 -110 72.5 -165.5t251.5 -55.5q178 0 256 74.5t116 257.5l195 918h326l-211 -981q-14 -69 -30.5 -123t-45 -115t-64.5 -106.5t-90.5 -89
t-122.5 -71.5t-161 -44.5t-205 -16.5zM924 1600l-309 375h375l209 -375h-275z" />
    <glyph glyph-name="Uacute" unicode="&#xda;" horiz-adv-x="1632" 
d="M776 1599l369 375h397l-471 -375h-295zM721 -29q-149 0 -262 25t-182.5 66.5t-113 102t-59.5 122.5t-16 137q0 86 25 207l190 887h336l-184 -871q-21 -100 -21 -158q0 -110 72.5 -165.5t251.5 -55.5q178 0 256 74.5t116 257.5l195 918h326l-211 -981q-14 -69 -30.5 -123
t-45 -115t-64.5 -106.5t-90.5 -89t-122.5 -71.5t-161 -44.5t-205 -16.5z" />
    <glyph glyph-name="Ucircumflex" unicode="&#xdb;" horiz-adv-x="1632" 
d="M514 1599l391 375h334l231 -375h-294l-144 177l-219 -177h-299zM721 -29q-149 0 -262 25t-182.5 66.5t-113 102t-59.5 122.5t-16 137q0 86 25 207l190 887h336l-184 -871q-21 -100 -21 -158q0 -110 72.5 -165.5t251.5 -55.5q178 0 256 74.5t116 257.5l195 918h326
l-211 -981q-14 -69 -30.5 -123t-45 -115t-64.5 -106.5t-90.5 -89t-122.5 -71.5t-161 -44.5t-205 -16.5z" />
    <glyph glyph-name="Udieresis" unicode="&#xdc;" horiz-adv-x="1632" 
d="M621 1599l59 279h291l-60 -279h-290zM1075 1599l60 279h290l-59 -279h-291zM721 -29q-149 0 -262 25t-182.5 66.5t-113 102t-59.5 122.5t-16 137q0 86 25 207l190 887h336l-184 -871q-21 -100 -21 -158q0 -110 72.5 -165.5t251.5 -55.5q178 0 256 74.5t116 257.5l195 918
h326l-211 -981q-14 -69 -30.5 -123t-45 -115t-64.5 -106.5t-90.5 -89t-122.5 -71.5t-161 -44.5t-205 -16.5z" />
    <glyph glyph-name="Yacute" unicode="&#xdd;" horiz-adv-x="1515" 
d="M426 0l117 551l-367 967h350l244 -660l520 660h369l-782 -973l-115 -545h-336zM719 1600l368 375h398l-471 -375h-295z" />
    <glyph glyph-name="Thorn" unicode="&#xde;" horiz-adv-x="1515" 
d="M-10 0l325 1518h326l-43 -203h289q592 0 592 -397q0 -144 -35 -258.5t-109.5 -203t-200 -136.5t-296.5 -48h-461l-60 -272h-327zM434 549h395q147 0 223 71.5t76 227.5q0 92 -66 136t-220 44h-305z" />
    <glyph glyph-name="germandbls" unicode="&#xdf;" horiz-adv-x="1376" 
d="M-104 -338l307 1438q19 89 46.5 160.5t73.5 137.5t108 110.5t152.5 71t202.5 26.5q260 0 380 -91t120 -253q0 -170 -65.5 -286.5t-184.5 -152.5q112 -33 169 -106.5t57 -198.5q0 -281 -146.5 -399.5t-460.5 -118.5h-221l60 272h143q168 0 240.5 56t72.5 180
q0 80 -76.5 115.5t-265.5 35.5l56 252q157 -2 227 51.5t70 188.5q0 143 -205 143q-104 0 -162 -57.5t-86 -185.5l-295 -1389h-317z" />
    <glyph glyph-name="agrave" unicode="&#xe0;" horiz-adv-x="1296" 
d="M393 -18q-125 0 -210.5 23t-132.5 68t-67 102.5t-20 137.5q0 102 33.5 177.5t92.5 124t149.5 78t193.5 41t236 11.5h147q8 33 8 66q0 49 -47 70.5t-178 21.5q-68 0 -154.5 -19t-142.5 -48l-117 241q78 46 205.5 77.5t272.5 31.5q179 0 285 -32.5t147 -95.5t43 -156.5
t-27 -215.5l-66 -313q-17 -62 -4.5 -86t82.5 -21l-57 -262q-27 -8 -137 -8q-84 0 -119.5 21t-52.5 85q-105 -120 -363 -120zM485 240q128 0 185 49.5t88 191.5l8 43h-148q-187 0 -260 -34t-73 -142q0 -55 43 -81.5t157 -26.5zM690 1270l-309 375h375l209 -375h-275z" />
    <glyph glyph-name="aacute" unicode="&#xe1;" horiz-adv-x="1296" 
d="M393 -18q-125 0 -210.5 23t-132.5 68t-67 102.5t-20 137.5q0 102 33.5 177.5t92.5 124t149.5 78t193.5 41t236 11.5h147q8 33 8 66q0 49 -47 70.5t-178 21.5q-68 0 -154.5 -19t-142.5 -48l-117 241q78 46 205.5 77.5t272.5 31.5q179 0 285 -32.5t147 -95.5t43 -156.5
t-27 -215.5l-66 -313q-17 -62 -4.5 -86t82.5 -21l-57 -262q-27 -8 -137 -8q-84 0 -119.5 21t-52.5 85q-105 -120 -363 -120zM485 240q128 0 185 49.5t88 191.5l8 43h-148q-187 0 -260 -34t-73 -142q0 -55 43 -81.5t157 -26.5zM543 1270l368 375h398l-471 -375h-295z" />
    <glyph glyph-name="acircumflex" unicode="&#xe2;" horiz-adv-x="1296" 
d="M393 -18q-125 0 -210.5 23t-132.5 68t-67 102.5t-20 137.5q0 102 33.5 177.5t92.5 124t149.5 78t193.5 41t236 11.5h147q8 33 8 66q0 49 -47 70.5t-178 21.5q-68 0 -154.5 -19t-142.5 -48l-117 241q78 46 205.5 77.5t272.5 31.5q179 0 285 -32.5t147 -95.5t43 -156.5
t-27 -215.5l-66 -313q-17 -62 -4.5 -86t82.5 -21l-57 -262q-27 -8 -137 -8q-84 0 -119.5 21t-52.5 85q-105 -120 -363 -120zM485 240q128 0 185 49.5t88 191.5l8 43h-148q-187 0 -260 -34t-73 -142q0 -55 43 -81.5t157 -26.5zM281 1270l391 375h334l231 -375h-295l-143 176
l-219 -176h-299z" />
    <glyph glyph-name="atilde" unicode="&#xe3;" horiz-adv-x="1296" 
d="M393 -18q-125 0 -210.5 23t-132.5 68t-67 102.5t-20 137.5q0 102 33.5 177.5t92.5 124t149.5 78t193.5 41t236 11.5h147q8 33 8 66q0 49 -47 70.5t-178 21.5q-68 0 -154.5 -19t-142.5 -48l-117 241q78 46 205.5 77.5t272.5 31.5q179 0 285 -32.5t147 -95.5t43 -156.5
t-27 -215.5l-66 -313q-17 -62 -4.5 -86t82.5 -21l-57 -262q-27 -8 -137 -8q-84 0 -119.5 21t-52.5 85q-105 -120 -363 -120zM485 240q128 0 185 49.5t88 191.5l8 43h-148q-187 0 -260 -34t-73 -142q0 -55 43 -81.5t157 -26.5zM965 1270q-53 0 -107 17t-90 38t-78.5 38
t-75.5 17q-75 0 -159 -98l-160 152q162 194 332 194q53 0 106.5 -17t89.5 -38t78.5 -38t75.5 -17q71 0 158 100l159 -150q-165 -198 -329 -198z" />
    <glyph glyph-name="adieresis" unicode="&#xe4;" horiz-adv-x="1296" 
d="M393 -18q-125 0 -210.5 23t-132.5 68t-67 102.5t-20 137.5q0 102 33.5 177.5t92.5 124t149.5 78t193.5 41t236 11.5h147q8 33 8 66q0 49 -47 70.5t-178 21.5q-68 0 -154.5 -19t-142.5 -48l-117 241q78 46 205.5 77.5t272.5 31.5q179 0 285 -32.5t147 -95.5t43 -156.5
t-27 -215.5l-66 -313q-17 -62 -4.5 -86t82.5 -21l-57 -262q-27 -8 -137 -8q-84 0 -119.5 21t-52.5 85q-105 -120 -363 -120zM485 240q128 0 185 49.5t88 191.5l8 43h-148q-187 0 -260 -34t-73 -142q0 -55 43 -81.5t157 -26.5zM387 1270l59 278h291l-59 -278h-291zM842 1270
l59 278h291l-60 -278h-290z" />
    <glyph glyph-name="aring" unicode="&#xe5;" horiz-adv-x="1296" 
d="M393 -18q-125 0 -210.5 23t-132.5 68t-67 102.5t-20 137.5q0 102 33.5 177.5t92.5 124t149.5 78t193.5 41t236 11.5h147q8 33 8 66q0 49 -47 70.5t-178 21.5q-68 0 -154.5 -19t-142.5 -48l-117 241q78 46 205.5 77.5t272.5 31.5q179 0 285 -32.5t147 -95.5t43 -156.5
t-27 -215.5l-66 -313q-17 -62 -4.5 -86t82.5 -21l-57 -262q-27 -8 -137 -8q-84 0 -119.5 21t-52.5 85q-105 -120 -363 -120zM485 240q128 0 185 49.5t88 191.5l8 43h-148q-187 0 -260 -34t-73 -142q0 -55 43 -81.5t157 -26.5zM788 1249q-139 0 -206.5 66t-67.5 172
q0 163 89.5 260.5t238.5 97.5q135 0 204.5 -70.5t69.5 -179.5q0 -160 -91.5 -253t-236.5 -93zM797 1407q72 0 113.5 45.5t41.5 124.5q0 49 -29 80t-92 31q-70 0 -111.5 -50t-41.5 -129q0 -46 29.5 -74t89.5 -28z" />
    <glyph glyph-name="ae" unicode="&#xe6;" horiz-adv-x="1957" 
d="M1272 -23q-310 0 -422 162q-66 -76 -174 -116.5t-285 -40.5q-230 0 -329 83.5t-99 247.5q0 105 36 182.5t96 124.5t152.5 75.5t192 39t228.5 10.5h147q8 50 8 66q0 48 -47 70t-178 22q-68 0 -154.5 -19t-142.5 -48l-117 241q78 46 205.5 77.5t272.5 31.5q295 0 389 -94
q136 94 358 94q109 0 192.5 -21t135 -55t84 -82.5t45 -98.5t12.5 -108q0 -142 -49 -362h-778v-4q0 -102 59.5 -159.5t200.5 -57.5q96 0 184.5 22t149.5 62l124 -224q-186 -121 -497 -121zM485 240q130 0 186 50.5t87 190.5l8 43h-148q-64 0 -105.5 -2t-83 -8.5t-65.5 -18.5
t-43.5 -31.5t-27.5 -49t-8 -70.5q0 -54 44.5 -79t155.5 -25zM1372 918q-113 0 -178.5 -58t-101.5 -172h479q8 50 8 78q0 73 -45.5 112.5t-161.5 39.5z" />
    <glyph glyph-name="ccedilla" unicode="&#xe7;" horiz-adv-x="1161" 
d="M371 -510q-190 0 -322 86l111 150q101 -68 207 -68q56 0 85 19.5t29 70.5q0 79 -168 66l-51 39l64 153q-314 78 -314 420q0 99 23 217q26 127 72 223t121.5 170t189.5 112t264 38q184 0 294.5 -52.5t184.5 -148.5l-262 -207q-17 24 -33.5 40t-44.5 35t-70.5 28.5
t-97.5 9.5q-125 0 -195.5 -70.5t-101.5 -226.5q-14 -75 -14 -135q0 -99 52.5 -153t176.5 -54q70 0 125 17.5t123 72.5l170 -203q-189 -157 -444 -157q-33 0 -49 2l-27 -70q47 -3 82 -10t70 -23.5t54 -49t19 -79.5q0 -66 -20.5 -115t-51.5 -76.5t-76 -44t-85.5 -21.5
t-89.5 -5z" />
    <glyph glyph-name="egrave" unicode="&#xe8;" horiz-adv-x="1226" 
d="M539 -23q-529 0 -529 447q0 90 25 219q53 264 206.5 403.5t434.5 139.5q109 0 192.5 -21t135 -55t84 -82.5t45 -98.5t12.5 -108q0 -142 -49 -362h-779v-4q0 -217 261 -217q203 0 333 84l125 -224q-186 -121 -497 -121zM639 918q-113 0 -179 -58t-102 -172h480q8 50 8 78
q0 73 -45.5 112.5t-161.5 39.5zM653 1270l-309 375h375l209 -375h-275z" />
    <glyph glyph-name="eacute" unicode="&#xe9;" horiz-adv-x="1226" 
d="M506 1270l368 375h398l-471 -375h-295zM539 -23q-529 0 -529 447q0 90 25 219q53 264 206.5 403.5t434.5 139.5q109 0 192.5 -21t135 -55t84 -82.5t45 -98.5t12.5 -108q0 -142 -49 -362h-779v-4q0 -217 261 -217q203 0 333 84l125 -224q-186 -121 -497 -121zM639 918
q-113 0 -179 -58t-102 -172h480q8 50 8 78q0 73 -45.5 112.5t-161.5 39.5z" />
    <glyph glyph-name="ecircumflex" unicode="&#xea;" horiz-adv-x="1226" 
d="M244 1270l391 375h334l231 -375h-295l-143 176l-219 -176h-299zM539 -23q-529 0 -529 447q0 90 25 219q53 264 206.5 403.5t434.5 139.5q109 0 192.5 -21t135 -55t84 -82.5t45 -98.5t12.5 -108q0 -142 -49 -362h-779v-4q0 -217 261 -217q203 0 333 84l125 -224
q-186 -121 -497 -121zM639 918q-113 0 -179 -58t-102 -172h480q8 50 8 78q0 73 -45.5 112.5t-161.5 39.5z" />
    <glyph glyph-name="edieresis" unicode="&#xeb;" horiz-adv-x="1226" 
d="M350 1270l60 278h290l-59 -278h-291zM805 1270l59 278h291l-59 -278h-291zM539 -23q-529 0 -529 447q0 90 25 219q53 264 206.5 403.5t434.5 139.5q109 0 192.5 -21t135 -55t84 -82.5t45 -98.5t12.5 -108q0 -142 -49 -362h-779v-4q0 -217 261 -217q203 0 333 84l125 -224
q-186 -121 -497 -121zM639 918q-113 0 -179 -58t-102 -172h480q8 50 8 78q0 73 -45.5 112.5t-161.5 39.5z" />
    <glyph glyph-name="igrave" unicode="&#xec;" horiz-adv-x="600" 
d="M260 1270l-231 375h374l132 -375h-275zM-23 0l248 1159h320l-246 -1159h-322z" />
    <glyph glyph-name="iacute" unicode="&#xed;" horiz-adv-x="600" 
d="M250 1270l309 375h395l-411 -375h-293zM-23 0l248 1159h320l-246 -1159h-322z" />
    <glyph glyph-name="icircumflex" unicode="&#xee;" horiz-adv-x="600" 
d="M-31 1270l353 375h331l191 -375h-295l-103 176l-176 -176h-301zM-23 0l248 1159h320l-246 -1159h-322z" />
    <glyph glyph-name="idieresis" unicode="&#xef;" horiz-adv-x="600" 
d="M72 1270l59 278h266l-59 -278h-266zM477 1270l60 278h266l-60 -278h-266zM-23 0l248 1159h320l-246 -1159h-322z" />
    <glyph glyph-name="eth" unicode="&#xf0;" horiz-adv-x="1316" 
d="M641 1151l47 227l113 23q-36 65 -80 131l332 100q48 -64 92 -164l309 62l-47 -230l-197 -38q41 -166 41 -355q0 -221 -49 -418q-37 -145 -92 -244t-133 -158t-174.5 -84.5t-227.5 -25.5q-152 0 -263 33.5t-176 96t-95.5 144t-30.5 185.5q0 99 23 207q53 234 185 355.5
t364 121.5q132 0 205 -21.5t122 -70.5q-3 99 -24 170zM575 252q135 0 201 62.5t98 201.5q17 76 17 123q0 199 -234 199q-135 0 -202 -64t-99 -203q-16 -72 -16 -127q0 -192 235 -192z" />
    <glyph glyph-name="ntilde" unicode="&#xf1;" horiz-adv-x="1318" 
d="M-35 0l242 1141l256 18v-86q136 113 350 113q90 0 158.5 -14.5t113 -38t72 -62.5t39.5 -79.5t12 -98t-7 -109t-21 -120.5l-144 -664h-319l133 629q6 28 8.5 42t6 38.5t3 37.5t-1.5 33t-7.5 30t-16 24t-25 21.5t-35.5 14.5t-47 10t-61 3q-63 0 -108 -16.5t-72 -50t-42 -71
t-26 -92.5l-139 -653h-322zM973 1270q-53 0 -107 17t-90 38t-78.5 38t-75.5 17q-75 0 -159 -98l-160 152q162 194 332 194q53 0 106.5 -17t89.5 -38t78.5 -38t75.5 -17q71 0 158 100l159 -150q-165 -198 -329 -198z" />
    <glyph glyph-name="ograve" unicode="&#xf2;" horiz-adv-x="1312" 
d="M557 -23q-281 0 -413 122t-132 339q0 87 23 205q62 286 222 414.5t427 128.5q281 0 413 -120.5t132 -336.5q0 -75 -25 -207q-60 -286 -219.5 -415.5t-427.5 -129.5zM575 252q135 0 204.5 71.5t101.5 223.5q16 75 16 135q0 101 -53.5 156t-179.5 55q-136 0 -206 -72.5
t-102 -226.5q-16 -75 -16 -135q0 -207 235 -207zM696 1270l-309 375h375l209 -375h-275z" />
    <glyph glyph-name="oacute" unicode="&#xf3;" horiz-adv-x="1312" 
d="M549 1270l369 375h397l-471 -375h-295zM557 -23q-281 0 -413 122t-132 339q0 87 23 205q62 286 222 414.5t427 128.5q281 0 413 -120.5t132 -336.5q0 -75 -25 -207q-60 -286 -219.5 -415.5t-427.5 -129.5zM575 252q135 0 204.5 71.5t101.5 223.5q16 75 16 135
q0 101 -53.5 156t-179.5 55q-136 0 -206 -72.5t-102 -226.5q-16 -75 -16 -135q0 -207 235 -207z" />
    <glyph glyph-name="ocircumflex" unicode="&#xf4;" horiz-adv-x="1312" 
d="M287 1270l391 375h334l231 -375h-295l-143 176l-219 -176h-299zM557 -23q-281 0 -413 122t-132 339q0 87 23 205q62 286 222 414.5t427 128.5q281 0 413 -120.5t132 -336.5q0 -75 -25 -207q-60 -286 -219.5 -415.5t-427.5 -129.5zM575 252q135 0 204.5 71.5t101.5 223.5
q16 75 16 135q0 101 -53.5 156t-179.5 55q-136 0 -206 -72.5t-102 -226.5q-16 -75 -16 -135q0 -207 235 -207z" />
    <glyph glyph-name="otilde" unicode="&#xf5;" horiz-adv-x="1312" 
d="M557 -23q-281 0 -413 122t-132 339q0 87 23 205q62 286 222 414.5t427 128.5q281 0 413 -120.5t132 -336.5q0 -75 -25 -207q-60 -286 -219.5 -415.5t-427.5 -129.5zM575 252q135 0 204.5 71.5t101.5 223.5q16 75 16 135q0 101 -53.5 156t-179.5 55q-136 0 -206 -72.5
t-102 -226.5q-16 -75 -16 -135q0 -207 235 -207zM971 1270q-53 0 -107 17t-90 38t-78.5 38t-75.5 17q-75 0 -159 -98l-160 152q162 194 332 194q53 0 106.5 -17t89.5 -38t78.5 -38t75.5 -17q71 0 158 100l159 -150q-165 -198 -329 -198z" />
    <glyph glyph-name="odieresis" unicode="&#xf6;" horiz-adv-x="1312" 
d="M393 1270l60 278h290l-59 -278h-291zM848 1270l59 278h291l-59 -278h-291zM557 -23q-281 0 -413 122t-132 339q0 87 23 205q62 286 222 414.5t427 128.5q281 0 413 -120.5t132 -336.5q0 -75 -25 -207q-60 -286 -219.5 -415.5t-427.5 -129.5zM575 252q135 0 204.5 71.5
t101.5 223.5q16 75 16 135q0 101 -53.5 156t-179.5 55q-136 0 -206 -72.5t-102 -226.5q-16 -75 -16 -135q0 -207 235 -207z" />
    <glyph glyph-name="divide" unicode="&#xf7;" horiz-adv-x="1478" 
d="M451 162l59 276h326l-60 -276h-325zM152 578l63 288h1098l-62 -288h-1099zM631 1006l57 276h326l-60 -276h-323z" />
    <glyph glyph-name="oslash" unicode="&#xf8;" horiz-adv-x="1312" 
d="M557 -23q-157 0 -278 43l-91 -108h-268l189 221q-97 111 -97 305q0 87 23 205q62 286 222 414.5t427 128.5q156 0 277 -43l90 108h270l-188 -221q96 -113 96 -301q0 -75 -25 -207q-60 -286 -219.5 -415.5t-427.5 -129.5zM573 233q144 0 217 75.5t107 236.5q18 77 18 143
q0 50 -12 90l-446 -530q50 -15 116 -15zM324 451q0 -41 8 -72l436 520q-44 12 -100 12q-146 0 -219 -76t-107 -239q-18 -92 -18 -145z" />
    <glyph glyph-name="ugrave" unicode="&#xf9;" horiz-adv-x="1302" 
d="M547 -23q-177 0 -286.5 39t-157 115.5t-51.5 190t30 262.5l123 575h321l-127 -600q-8 -39 -12 -62.5t-7.5 -55.5t-1 -51.5t9 -43t21 -37t36.5 -26t54.5 -18t75.5 -5.5q38 0 67.5 6t51.5 15.5t39.5 28.5t28.5 37t21.5 49t16.5 55.5t15 66.5l137 641h316l-140 -655
q-34 -155 -74.5 -251t-108 -160.5t-161.5 -90t-237 -25.5zM692 1270l-309 375h375l209 -375h-275z" />
    <glyph glyph-name="uacute" unicode="&#xfa;" horiz-adv-x="1302" 
d="M545 1270l368 375h398l-471 -375h-295zM547 -23q-177 0 -286.5 39t-157 115.5t-51.5 190t30 262.5l123 575h321l-127 -600q-8 -39 -12 -62.5t-7.5 -55.5t-1 -51.5t9 -43t21 -37t36.5 -26t54.5 -18t75.5 -5.5q38 0 67.5 6t51.5 15.5t39.5 28.5t28.5 37t21.5 49t16.5 55.5
t15 66.5l137 641h316l-140 -655q-34 -155 -74.5 -251t-108 -160.5t-161.5 -90t-237 -25.5z" />
    <glyph glyph-name="ucircumflex" unicode="&#xfb;" horiz-adv-x="1302" 
d="M283 1270l391 375h334l231 -375h-295l-143 176l-219 -176h-299zM547 -23q-177 0 -286.5 39t-157 115.5t-51.5 190t30 262.5l123 575h321l-127 -600q-8 -39 -12 -62.5t-7.5 -55.5t-1 -51.5t9 -43t21 -37t36.5 -26t54.5 -18t75.5 -5.5q38 0 67.5 6t51.5 15.5t39.5 28.5
t28.5 37t21.5 49t16.5 55.5t15 66.5l137 641h316l-140 -655q-34 -155 -74.5 -251t-108 -160.5t-161.5 -90t-237 -25.5z" />
    <glyph glyph-name="udieresis" unicode="&#xfc;" horiz-adv-x="1302" 
d="M389 1270l60 278h290l-59 -278h-291zM844 1270l59 278h291l-59 -278h-291zM547 -23q-177 0 -286.5 39t-157 115.5t-51.5 190t30 262.5l123 575h321l-127 -600q-8 -39 -12 -62.5t-7.5 -55.5t-1 -51.5t9 -43t21 -37t36.5 -26t54.5 -18t75.5 -5.5q38 0 67.5 6t51.5 15.5
t39.5 28.5t28.5 37t21.5 49t16.5 55.5t15 66.5l137 641h316l-140 -655q-34 -155 -74.5 -251t-108 -160.5t-161.5 -90t-237 -25.5z" />
    <glyph glyph-name="yacute" unicode="&#xfd;" horiz-adv-x="1155" 
d="M82 -348q-86 0 -156 4l51 242h86q65 0 97 8t46.5 23.5t35.5 54.5l28 55l-178 1120h338l90 -700l383 700h332l-715 -1233q-50 -86 -87.5 -134.5t-88 -82.5t-110.5 -45.5t-152 -11.5zM473 1270l368 375h398l-471 -375h-295z" />
    <glyph glyph-name="thorn" unicode="&#xfe;" horiz-adv-x="1353" 
d="M-104 -338l409 1927h320l-107 -499q96 96 326 96q430 0 430 -422q0 -106 -29 -238q-28 -130 -69 -225.5t-106.5 -169.5t-162.5 -111.5t-225 -37.5q-173 0 -256.5 29t-118.5 87l-90 -436h-321zM635 254q128 0 189 72t96 225q18 95 18 147q0 93 -50 144t-169 51
q-134 0 -203 -63.5t-104 -227.5q-19 -84 -19 -147q0 -100 57 -150.5t185 -50.5z" />
    <glyph glyph-name="ydieresis" unicode="&#xff;" horiz-adv-x="1155" 
d="M82 -348q-86 0 -156 4l51 242h86q65 0 97 8t46.5 23.5t35.5 54.5l28 55l-178 1120h338l90 -700l383 700h332l-715 -1233q-50 -86 -87.5 -134.5t-88 -82.5t-110.5 -45.5t-152 -11.5zM317 1270l59 278h291l-59 -278h-291zM772 1270l59 278h291l-60 -278h-290z" />
    <glyph glyph-name="dotlessi" unicode="&#x131;" horiz-adv-x="600" 
d="M-23 0l248 1159h320l-246 -1159h-322z" />
    <glyph glyph-name="Lslash" unicode="&#x141;" horiz-adv-x="1253" 
d="M-47 528l57 273l170 82l135 635h336l-96 -449l313 154l-59 -273l-311 -153l-109 -506h735l-61 -291h-1071l129 612z" />
    <glyph glyph-name="lslash" unicode="&#x142;" horiz-adv-x="829" 
d="M29 659l59 273l199 102l119 555h321l-80 -370l211 108l-59 -270l-209 -109l-119 -559q-15 -72 1.5 -96.5t86.5 -24.5h39l-57 -264q-50 -8 -150 -8q-173 0 -228.5 91.5t-12.5 301.5l79 373z" />
    <glyph glyph-name="OE" unicode="&#x152;" horiz-adv-x="2537" 
d="M795 -25q-357 0 -550.5 158.5t-193.5 462.5q-3 100 27 248q35 165 101 290t146.5 201t185 124t205.5 65.5t218 17.5q380 0 549 -184l35 160h1065l-66 -304h-762l-61 -294h741l-63 -293h-742l-71 -336h770l-62 -291h-1073l23 104q-168 -129 -422 -129zM799 270
q214 0 336 107.5t170 331.5q20 102 20 174q0 352 -407 352q-214 0 -336 -106.5t-168 -327.5q-19 -93 -19 -174q0 -167 96.5 -262t307.5 -95z" />
    <glyph glyph-name="oe" unicode="&#x153;" horiz-adv-x="2084" 
d="M1399 -23q-298 0 -410 148q-148 -148 -432 -148q-281 0 -413 122t-132 339q0 87 23 205q62 286 222 414.5t427 128.5q302 0 426 -152q146 152 426 152q109 0 192.5 -21t135 -55t84 -83t45 -98.5t12.5 -107.5q0 -142 -49 -362h-778v-4q0 -102 59.5 -159.5t200.5 -57.5
q96 0 184.5 22t149.5 62l124 -224q-186 -121 -497 -121zM575 252q135 0 204.5 71.5t101.5 223.5q16 75 16 135q0 101 -53.5 156t-179.5 55q-136 0 -206 -72.5t-102 -226.5q-16 -75 -16 -135q0 -207 235 -207zM1499 918q-113 0 -178.5 -58t-101.5 -172h479q8 50 8 78
q0 73 -45.5 112.5t-161.5 39.5z" />
    <glyph glyph-name="Scaron" unicode="&#x160;" horiz-adv-x="1476" 
d="M748 1599l-232 375h295l143 -176l217 176h302l-392 -375h-333zM680 -23q-468 0 -764 226l215 235q229 -182 565 -182q151 0 225 37.5t74 134.5q0 34 -11 58.5t-29 41t-56 32t-75.5 26.5t-104.5 29q-35 9 -53 14q-55 15 -90.5 25.5t-82.5 26t-77 29.5t-66 34.5t-58.5 41.5
t-45.5 49.5t-35.5 60.5t-20.5 72t-8 87q0 110 32.5 195t87 139.5t134 89.5t166 49t189.5 14q424 0 661 -180l-221 -250q-71 57 -188 97t-265 40q-132 0 -193 -36.5t-61 -129.5q0 -31 14.5 -55t35.5 -40t63.5 -32t78.5 -26t101 -25q61 -15 103 -26t95.5 -27.5t90 -33.5
t76.5 -40t66 -50.5t48 -62t32.5 -77t10.5 -92.5q0 -519 -659 -519z" />
    <glyph glyph-name="scaron" unicode="&#x161;" horiz-adv-x="1132" 
d="M510 1270l-231 375h294l144 -177l217 177h301l-391 -375h-334zM475 -18q-172 0 -320.5 50t-246.5 134l194 219q79 -61 192.5 -102t213.5 -41q92 0 130 17.5t38 80.5q0 23 -13.5 40.5t-46 31t-57 21t-76.5 20.5l-24 6q-44 10 -72.5 18t-70.5 22.5t-70 30t-59.5 39.5
t-49.5 52t-30.5 66.5t-12.5 84.5q0 414 518 414q154 0 282 -38.5t214 -98.5l-199 -240q-161 96 -327 96q-87 0 -121.5 -18.5t-34.5 -71.5q0 -16 5.5 -29t20.5 -24t29 -18.5t43 -16.5t49 -14l60 -15q49 -13 78 -21.5t72.5 -24t70 -31t57.5 -40t48 -52.5t28.5 -67t11.5 -85
q0 -111 -37 -189t-108.5 -122.5t-163.5 -64t-215 -19.5z" />
    <glyph glyph-name="Ydieresis" unicode="&#x178;" horiz-adv-x="1515" 
d="M426 0l117 551l-367 967h350l244 -660l520 660h369l-782 -973l-115 -545h-336zM563 1600l59 278h291l-59 -278h-291zM1018 1600l59 278h291l-60 -278h-290z" />
    <glyph glyph-name="Zcaron" unicode="&#x17d;" horiz-adv-x="1376" 
d="M698 1599l-231 375h295l143 -176l217 176h301l-391 -375h-334zM-96 0l55 250l981 964h-741l63 304h1184l-57 -275l-969 -952h786l-61 -291h-1241z" />
    <glyph glyph-name="zcaron" unicode="&#x17e;" horiz-adv-x="1064" 
d="M477 1270l-231 375h295l143 -177l217 177h301l-391 -375h-334zM-121 0l47 215l676 670h-500l58 274h934l-47 -219l-680 -682h559l-56 -258h-991z" />
    <glyph glyph-name="florin" unicode="&#x192;" horiz-adv-x="1259" 
d="M182 670l62 276h245l50 225q14 69 31 115.5t50.5 94t82 75t126.5 45t183 17.5h190l-61 -287h-109q-99 0 -137 -37t-53 -119l-29 -129h299l-59 -276h-299l-215 -1010h-322l215 1010h-250z" />
    <glyph glyph-name="circumflex" unicode="&#x2c6;" 
d="M236 1270l391 375h334l231 -375h-295l-143 176l-219 -176h-299z" />
    <glyph glyph-name="caron" unicode="&#x2c7;" 
d="M547 1270l-232 375h295l144 -177l217 177h301l-391 -375h-334z" />
    <glyph glyph-name="breve" unicode="&#x2d8;" 
d="M754 1249q-84 0 -148 14t-107 41.5t-71.5 63t-43.5 85.5t-20 100.5t-4 115.5l240 27q0 -112 33 -155.5t137 -43.5q96 0 148 45.5t90 153.5l225 -41q-55 -190 -174 -298t-305 -108z" />
    <glyph glyph-name="dotaccent" unicode="&#x2d9;" 
d="M551 1270l59 284h326l-59 -284h-326z" />
    <glyph glyph-name="ring" unicode="&#x2da;" 
d="M743 1249q-139 0 -206.5 66t-67.5 172q0 163 89.5 260.5t238.5 97.5q135 0 204.5 -70.5t69.5 -179.5q0 -160 -91.5 -253t-236.5 -93zM752 1407q72 0 113.5 45.5t41.5 124.5q0 49 -29 80t-92 31q-70 0 -111.5 -50t-41.5 -129q0 -46 29.5 -74t89.5 -28z" />
    <glyph glyph-name="ogonek" unicode="&#x2db;" 
d="M422 -492q-171 0 -240 45.5t-69 129.5q0 206 303 331h186q-129 -76 -193.5 -137t-64.5 -123q0 -33 30.5 -50t104.5 -17q82 0 166 34l64 -153q-51 -27 -128 -43.5t-159 -16.5z" />
    <glyph glyph-name="tilde" unicode="&#x2dc;" 
d="M920 1270q-53 0 -107 17t-90 38t-78.5 38t-75.5 17q-75 0 -159 -98l-160 152q162 194 332 194q53 0 106.5 -17t89.5 -38t78.5 -38t75.5 -17q71 0 158 100l159 -150q-165 -198 -329 -198z" />
    <glyph glyph-name="hungarumlaut" unicode="&#x2dd;" 
d="M236 1270l337 375h371l-438 -375h-270zM788 1270l340 375h369l-438 -375h-271z" />
    <glyph glyph-name="Delta" unicode="&#x394;" horiz-adv-x="1433" 
d="M78 885l59 274h217l21 94q29 136 83.5 215t154 118.5t261.5 39.5q62 0 136 -4l-56 -262h-73q-96 0 -136.5 -32.5t-54.5 -106.5l-14 -62h235l-57 -274h-236l-260 -1223h-321l260 1223h-219zM608 -346l51 244h25q71 0 94.5 27t44.5 122l236 1112h321l-243 -1145
q-25 -118 -55.5 -188.5t-80.5 -109t-110 -50.5t-160 -12h-123zM1081 1266l62 293h323l-61 -293h-324z" />
    <glyph glyph-name="Delta" unicode="&#x2206;" horiz-adv-x="1433" 
d="M78 885l59 274h217l21 94q29 136 83.5 215t154 118.5t261.5 39.5q62 0 136 -4l-56 -262h-73q-96 0 -136.5 -32.5t-54.5 -106.5l-14 -62h235l-57 -274h-236l-260 -1223h-321l260 1223h-219zM608 -346l51 244h25q71 0 94.5 27t44.5 122l236 1112h321l-243 -1145
q-25 -118 -55.5 -188.5t-80.5 -109t-110 -50.5t-160 -12h-123zM1081 1266l62 293h323l-61 -293h-324z" />
    <glyph glyph-name="Omega" unicode="&#x3a9;" horiz-adv-x="1703" 
d="M258 246q-88 105 -136 237t-48 277q0 144 48 276t136 236q6 -4 14 -12q-85 -103 -131.5 -231.5t-46.5 -268.5q0 -285 180 -500zM467 432q-117 143 -117 328q0 183 115 327q3 -2 8 -7t8 -7q-110 -136 -110 -313q0 -182 110 -314zM541 498q-92 116 -92 262t92 262
q3 -2 8 -7t8 -7q-88 -109 -88 -248t88 -248q-3 -2 -8 -7t-8 -7zM647 592q-57 72 -57 168q0 97 57 166l15 -15q-52 -69 -52 -151q0 -84 54 -154q-3 -2 -8.5 -7t-8.5 -7zM715 655q-33 48 -33 105q0 56 33 104q3 -2 8 -7t8 -7q-29 -44 -29 -90t29 -90q-3 -2 -16 -15zM774 709
q-14 25 -14 51t14 51l12 -10q-10 -20 -10 -41t10 -41q-4 -4 -12 -10zM852 123q-236 0 -412 158l2.5 2.5l5 5l5.5 5.5t2 1q171 -152 397 -152q227 0 395 152q2 -3 7.5 -8t7.5 -8q-177 -156 -410 -156zM852 664q-31 0 -55 18l12 12q21 -14 43 -14q26 0 43 14q4 -4 10 -12
q-21 -18 -53 -18zM987 653q-7 10 -14 15q28 42 28 92q0 51 -28 90l2.5 2.5t5 4.5t5.5 5t1 2q35 -44 35 -104t-35 -107zM598 551q-72 91 -72 209q0 119 74 209l14 -15q-67 -87 -67 -194q0 -108 67 -195q-10 -10 -16 -14zM852 -35q-145 0 -278 52.5t-238 146.5l14 16
q102 -92 231 -143t271 -51q285 0 500 192q0 1 3.5 -2.5t6.5 -7.5l4 -4q-104 -95 -236 -147t-278 -52zM852 248q-189 0 -330 125l15 16q134 -121 315 -121q182 0 313 121q2 -3 7.5 -8t7.5 -8q-138 -125 -328 -125zM852 348q-145 0 -264 101l14 14q108 -94 250 -94
q143 0 248 94q2 -3 7 -8.5t7 -8.5q-112 -98 -262 -98zM852 428q-116 0 -211 78l14 16q86 -73 197 -73t197 73q4 -4 12 -16q-91 -78 -209 -78zM852 543q-77 0 -135 49l14 16q51 -45 121 -45q68 0 119 45q2 -3 7 -8t7 -8q-58 -49 -133 -49zM733 911q-4 3 -7 6.5t-6 6.5l-3 4
q58 49 135 49t135 -49l-16 -17q-51 45 -119 45t-119 -45zM1167 1130q-134 121 -315 121q-179 0 -313 -118l-15 14q141 125 328 125q189 0 330 -125q-4 -6 -15 -17zM930 709l-12 10q10 20 10 41t-10 41l12 10q14 -25 14 -51t-14 -51zM958 682q-10 10 -16 14q21 32 21 64
t-21 63l16 15q25 -36 25 -78t-25 -78zM1020 627q-6 4 -16 14q38 50 38 119t-38 119l14 14q45 -57 45 -133q0 -71 -43 -133zM1106 551q-3 2 -8 7t-8 7q67 87 67 195t-70 194l17 15q74 -90 74 -209q0 -118 -72 -209zM1163 498q-10 10 -16 14q88 109 88 248t-88 248l16 14
q92 -116 92 -262t-92 -262zM1237 432q-6 4 -16 14q112 134 112 314q0 182 -112 313l16 14q117 -139 117 -327q0 -189 -117 -328zM1329 350q-2 2 -7 6t-7 6q141 175 141 398q0 227 -143 395l16 14q148 -179 148 -409q0 -231 -148 -410zM1446 246q-6 6 -16 14q180 215 180 500
t-180 500l16 14q88 -105 136 -237t48 -277q0 -144 -48 -276t-136 -238zM375 348q-148 182 -148 412q0 229 146 409q2 -2 7.5 -6.5t8.5 -7.5q-141 -170 -141 -395q0 -228 141 -398zM684 627q-43 59 -43 133t43 133q6 -4 16 -14q-38 -50 -38 -119q0 -67 38 -117zM745 682
q-24 34 -24 78t24 78q2 -3 4.5 -5.5t6 -5.5t4.5 -4q-19 -34 -19 -63q0 -30 19 -64zM809 825l-10 13q21 18 53 18t53 -18l-10 -13q-23 15 -43 15q-25 0 -43 -15zM786 852l-14 14q37 29 80 29q41 0 78 -29q-8 -8 -12 -14q-28 25 -66 25q-34 0 -66 -25zM760 881l-15 16
q45 39 107 39q61 0 106 -39l-14 -16q-37 34 -92 34t-92 -34zM604 1057l-14 16q112 98 262 98q151 0 262 -100q1 0 -2 -3.5t-6 -7.5l-4 -3q-108 94 -250 94q-143 0 -248 -94zM852 492q-100 0 -170 61l14 16q70 -57 156 -57q87 0 154 57l14 -14q-73 -63 -168 -63zM852 584
q-61 0 -109 39l15 16q47 -35 94 -35q51 0 92 35l14 -16q-45 -39 -106 -39zM852 625q-43 0 -82 28l14 15q36 -25 68 -25q34 0 66 25l14 -15q-36 -28 -80 -28zM698 950l-14 15q73 63 168 63q98 0 168 -61l-14 -17q-68 58 -154 58q-87 0 -154 -58zM655 997l-14 17q91 78 211 78
q119 0 209 -80l-12 -15q-83 74 -197 74q-110 0 -197 -74zM1249 1223q-166 153 -397 153q-227 0 -397 -151l-15 14q179 158 412 158t412 -158zM352 1339l-14 17q104 95 236 146.5t278 51.5q145 0 278 -52t238 -146l-14 -17q-102 93 -231 144t-271 51t-270 -51t-230 -144z
M1057 594l-15 14q52 69 52 152t-54 153l17 15q57 -72 57 -168q0 -97 -57 -166z" />
    <glyph glyph-name="Omega" unicode="&#x2126;" horiz-adv-x="1703" 
d="M258 246q-88 105 -136 237t-48 277q0 144 48 276t136 236q6 -4 14 -12q-85 -103 -131.5 -231.5t-46.5 -268.5q0 -285 180 -500zM467 432q-117 143 -117 328q0 183 115 327q3 -2 8 -7t8 -7q-110 -136 -110 -313q0 -182 110 -314zM541 498q-92 116 -92 262t92 262
q3 -2 8 -7t8 -7q-88 -109 -88 -248t88 -248q-3 -2 -8 -7t-8 -7zM647 592q-57 72 -57 168q0 97 57 166l15 -15q-52 -69 -52 -151q0 -84 54 -154q-3 -2 -8.5 -7t-8.5 -7zM715 655q-33 48 -33 105q0 56 33 104q3 -2 8 -7t8 -7q-29 -44 -29 -90t29 -90q-3 -2 -16 -15zM774 709
q-14 25 -14 51t14 51l12 -10q-10 -20 -10 -41t10 -41q-4 -4 -12 -10zM852 123q-236 0 -412 158l2.5 2.5l5 5l5.5 5.5t2 1q171 -152 397 -152q227 0 395 152q2 -3 7.5 -8t7.5 -8q-177 -156 -410 -156zM852 664q-31 0 -55 18l12 12q21 -14 43 -14q26 0 43 14q4 -4 10 -12
q-21 -18 -53 -18zM987 653q-7 10 -14 15q28 42 28 92q0 51 -28 90l2.5 2.5t5 4.5t5.5 5t1 2q35 -44 35 -104t-35 -107zM598 551q-72 91 -72 209q0 119 74 209l14 -15q-67 -87 -67 -194q0 -108 67 -195q-10 -10 -16 -14zM852 -35q-145 0 -278 52.5t-238 146.5l14 16
q102 -92 231 -143t271 -51q285 0 500 192q0 1 3.5 -2.5t6.5 -7.5l4 -4q-104 -95 -236 -147t-278 -52zM852 248q-189 0 -330 125l15 16q134 -121 315 -121q182 0 313 121q2 -3 7.5 -8t7.5 -8q-138 -125 -328 -125zM852 348q-145 0 -264 101l14 14q108 -94 250 -94
q143 0 248 94q2 -3 7 -8.5t7 -8.5q-112 -98 -262 -98zM852 428q-116 0 -211 78l14 16q86 -73 197 -73t197 73q4 -4 12 -16q-91 -78 -209 -78zM852 543q-77 0 -135 49l14 16q51 -45 121 -45q68 0 119 45q2 -3 7 -8t7 -8q-58 -49 -133 -49zM733 911q-4 3 -7 6.5t-6 6.5l-3 4
q58 49 135 49t135 -49l-16 -17q-51 45 -119 45t-119 -45zM1167 1130q-134 121 -315 121q-179 0 -313 -118l-15 14q141 125 328 125q189 0 330 -125q-4 -6 -15 -17zM930 709l-12 10q10 20 10 41t-10 41l12 10q14 -25 14 -51t-14 -51zM958 682q-10 10 -16 14q21 32 21 64
t-21 63l16 15q25 -36 25 -78t-25 -78zM1020 627q-6 4 -16 14q38 50 38 119t-38 119l14 14q45 -57 45 -133q0 -71 -43 -133zM1106 551q-3 2 -8 7t-8 7q67 87 67 195t-70 194l17 15q74 -90 74 -209q0 -118 -72 -209zM1163 498q-10 10 -16 14q88 109 88 248t-88 248l16 14
q92 -116 92 -262t-92 -262zM1237 432q-6 4 -16 14q112 134 112 314q0 182 -112 313l16 14q117 -139 117 -327q0 -189 -117 -328zM1329 350q-2 2 -7 6t-7 6q141 175 141 398q0 227 -143 395l16 14q148 -179 148 -409q0 -231 -148 -410zM1446 246q-6 6 -16 14q180 215 180 500
t-180 500l16 14q88 -105 136 -237t48 -277q0 -144 -48 -276t-136 -238zM375 348q-148 182 -148 412q0 229 146 409q2 -2 7.5 -6.5t8.5 -7.5q-141 -170 -141 -395q0 -228 141 -398zM684 627q-43 59 -43 133t43 133q6 -4 16 -14q-38 -50 -38 -119q0 -67 38 -117zM745 682
q-24 34 -24 78t24 78q2 -3 4.5 -5.5t6 -5.5t4.5 -4q-19 -34 -19 -63q0 -30 19 -64zM809 825l-10 13q21 18 53 18t53 -18l-10 -13q-23 15 -43 15q-25 0 -43 -15zM786 852l-14 14q37 29 80 29q41 0 78 -29q-8 -8 -12 -14q-28 25 -66 25q-34 0 -66 -25zM760 881l-15 16
q45 39 107 39q61 0 106 -39l-14 -16q-37 34 -92 34t-92 -34zM604 1057l-14 16q112 98 262 98q151 0 262 -100q1 0 -2 -3.5t-6 -7.5l-4 -3q-108 94 -250 94q-143 0 -248 -94zM852 492q-100 0 -170 61l14 16q70 -57 156 -57q87 0 154 57l14 -14q-73 -63 -168 -63zM852 584
q-61 0 -109 39l15 16q47 -35 94 -35q51 0 92 35l14 -16q-45 -39 -106 -39zM852 625q-43 0 -82 28l14 15q36 -25 68 -25q34 0 66 25l14 -15q-36 -28 -80 -28zM698 950l-14 15q73 63 168 63q98 0 168 -61l-14 -17q-68 58 -154 58q-87 0 -154 -58zM655 997l-14 17q91 78 211 78
q119 0 209 -80l-12 -15q-83 74 -197 74q-110 0 -197 -74zM1249 1223q-166 153 -397 153q-227 0 -397 -151l-15 14q179 158 412 158t412 -158zM352 1339l-14 17q104 95 236 146.5t278 51.5q145 0 278 -52t238 -146l-14 -17q-102 93 -231 144t-271 51t-270 -51t-230 -144z
M1057 594l-15 14q52 69 52 152t-54 153l17 15q57 -72 57 -168q0 -97 -57 -166z" />
    <glyph glyph-name="pi" unicode="&#x3c0;" horiz-adv-x="1656" 
d="M831 -25q-149 0 -273.5 39t-214 110t-151.5 169t-92 215.5t-30 251.5q0 168 48 309.5t141 248t239.5 166.5t332.5 60q185 0 331.5 -60t239 -166.5t141 -248t48.5 -309.5q0 -134 -30 -251.5t-92 -215.5t-151.5 -169t-213.5 -110t-273 -39zM831 92q134 0 241.5 34
t180.5 93.5t122 144.5t71 183.5t22 212.5t-22 212.5t-71 183t-122 144t-180.5 93.5t-241.5 34q-167 0 -292 -51t-199 -143.5t-109.5 -210.5t-35.5 -262q0 -115 21.5 -213t70.5 -183t121.5 -144.5t180.5 -93.5t242 -34zM461 266v973h463q92 0 160 -15t110.5 -41.5t68 -68
t35 -89t9.5 -110.5q0 -64 -9.5 -112.5t-35 -93t-69 -73t-114 -45t-166.5 -16.5h-247v-309h-205zM666 752h256q97 0 135.5 34t38.5 119q0 86 -38 119t-138 33h-254v-305z" />
    <glyph glyph-name="endash" unicode="&#x2013;" horiz-adv-x="1488" 
d="M31 528l61 287h1331l-61 -287h-1331z" />
    <glyph glyph-name="emdash" unicode="&#x2014;" horiz-adv-x="1929" 
d="M31 528l61 287h1774l-62 -287h-1773z" />
    <glyph glyph-name="quoteleft" unicode="&#x2018;" horiz-adv-x="600" 
d="M125 809l55 262q15 70 27 115t31.5 90.5t43 75t61 60.5t86.5 56.5t118 53.5l61 -158q-118 -51 -156 -84.5t-53 -101.5h176l-77 -369h-373z" />
    <glyph glyph-name="quoteright" unicode="&#x2019;" horiz-adv-x="600" 
d="M227 805l-61 158q117 49 154.5 82.5t52.5 101.5h-176l79 371h373l-55 -263q-15 -71 -27.5 -116t-32 -90.5t-43 -75t-61 -60.5t-86 -55.5t-117.5 -52.5z" />
    <glyph glyph-name="quotesinglbase" unicode="&#x201a;" horiz-adv-x="600" 
d="M-16 -332l-58 158q115 49 152.5 83.5t52.5 102.5h-176l80 369h373l-58 -264q-14 -65 -25.5 -106.5t-30 -87.5t-43 -77t-61.5 -64t-87.5 -60t-118.5 -54z" />
    <glyph glyph-name="quotedblleft" unicode="&#x201c;" horiz-adv-x="1087" 
d="M129 823l53 256q15 69 26.5 112t31 88t42.5 73.5t59.5 59t84 55t115.5 51.5l57 -154q-113 -47 -150 -80.5t-51 -99.5h170l-75 -361h-363zM627 823l55 256q14 69 25.5 112t30 88t41.5 73.5t59.5 59t84 55t115.5 51.5l58 -154q-113 -47 -150.5 -80.5t-52.5 -99.5h172
l-76 -361h-362z" />
    <glyph glyph-name="quotedblright" unicode="&#x201d;" horiz-adv-x="1087" 
d="M227 823l-57 152q115 52 151.5 84.5t49.5 99.5h-172l77 359h365l-55 -256q-15 -69 -26.5 -112t-30.5 -88t-42 -73.5t-59.5 -59t-84.5 -55t-116 -51.5zM727 823l-61 152q116 52 152.5 84.5t49.5 99.5h-172l78 359h363l-56 -256q-17 -83 -31.5 -132t-38.5 -98t-60 -81.5
t-89.5 -64t-134.5 -63.5z" />
    <glyph glyph-name="quotedblbase" unicode="&#x201e;" horiz-adv-x="1087" 
d="M-16 -322l-58 152q114 47 150.5 80.5t50.5 101.5h-172l76 359h364l-53 -254q-17 -78 -31 -124.5t-39 -97t-60.5 -84.5t-91.5 -68t-136 -65zM483 -322l-61 152q113 47 150.5 80.5t52.5 101.5h-172l75 359h363l-53 -254q-17 -78 -30.5 -124t-38.5 -97t-60.5 -85t-91 -68
t-134.5 -65z" />
    <glyph glyph-name="dagger" unicode="&#x2020;" horiz-adv-x="1224" 
d="M221 -340l248 1174h-356l61 288h356l101 467h317l-100 -467h358l-61 -288h-359l-247 -1174h-318z" />
    <glyph glyph-name="daggerdbl" unicode="&#x2021;" horiz-adv-x="1224" 
d="M221 -340l103 485h-357l62 289h356l84 400h-356l61 288h356l101 467h317l-100 -467h358l-61 -288h-359l-84 -400h359l-62 -289h-358l-102 -485h-318z" />
    <glyph glyph-name="bullet" unicode="&#x2022;" horiz-adv-x="794" 
d="M104 389l99 467h432l-98 -467h-433z" />
    <glyph glyph-name="ellipsis" unicode="&#x2026;" horiz-adv-x="1726" 
d="M-47 0l78 369h372l-77 -369h-373zM516 0l78 369h373l-78 -369h-373zM1079 0l78 369h373l-78 -369h-373z" />
    <glyph glyph-name="perthousand" unicode="&#x2030;" horiz-adv-x="3506" 
d="M537 539q-211 0 -319.5 102.5t-108.5 282.5q0 147 44.5 267t119.5 195t170.5 115.5t201.5 40.5q209 0 317.5 -107t108.5 -288q0 -141 -42.5 -257t-116 -192t-170 -117.5t-205.5 -41.5zM559 778q104 0 163.5 104t59.5 253q0 77 -35.5 118t-119.5 41q-102 0 -165 -97.5
t-63 -258.5q0 -160 160 -160zM1833 -23q-213 0 -320.5 102.5t-107.5 282.5q0 148 44 267.5t119 195t171 116t203 40.5q209 0 317 -106t108 -289q0 -140 -42.5 -256t-116 -192.5t-170 -118.5t-205.5 -42zM1855 217q70 0 122 51t77 130.5t25 174.5q0 162 -156 162
q-102 0 -164.5 -98t-62.5 -260q0 -160 159 -160zM2867 -23q-211 0 -318.5 102.5t-107.5 282.5q0 147 44 267t119 195.5t170.5 116t201.5 40.5q210 0 319 -106.5t109 -288.5q0 -140 -43 -256t-116.5 -192.5t-171 -118.5t-206.5 -42zM2892 217q69 0 120 51t76 130.5t25 174.5
q0 162 -156 162q-102 0 -164.5 -98t-62.5 -260q0 -160 162 -160zM510 0l1163 1518h297l-1161 -1518h-299z" />
    <glyph glyph-name="guilsinglleft" unicode="&#x2039;" horiz-adv-x="995" 
d="M319 0l-186 578l432 581h289l-408 -581l160 -578h-287z" />
    <glyph glyph-name="guilsinglright" unicode="&#x203a;" horiz-adv-x="995" 
d="M68 0l407 582l-160 577h287l186 -579l-432 -580h-288z" />
    <glyph glyph-name="fraction" unicode="&#x2044;" horiz-adv-x="1132" 
d="M-160 0l1174 1518h282l-1173 -1518h-283z" />
    <glyph glyph-name="fraction" unicode="&#x2215;" horiz-adv-x="1132" 
d="M-160 0l1174 1518h282l-1173 -1518h-283z" />
    <glyph glyph-name="Euro" unicode="&#x20ac;" horiz-adv-x="1429" 
d="M72 807l47 223h221q86 238 252 375t397 137q300 0 475 -119l-186 -252q-129 84 -295 84q-209 0 -317 -225h426l-45 -223h-451q-12 -56 -18 -119h442l-47 -225h-398q26 -213 254 -213q144 0 250 59l133 -235q-162 -99 -421 -99q-261 0 -390.5 128.5t-142.5 359.5h-260
l47 225h221q7 72 17 119h-211z" />
    <glyph glyph-name="trademark" unicode="&#x2122;" horiz-adv-x="2279" 
d="M987 575l203 943h270l111 -635l383 635h272l-201 -943h-233l115 547l-326 -547h-156l-92 547l-119 -547h-227zM365 575l155 730h-303l45 213h848l-45 -213h-305l-154 -730h-241z" />
    <glyph glyph-name="partialdiff" unicode="&#x2202;" horiz-adv-x="1703" 
d="M258 246q-88 105 -136 237t-48 277q0 144 48 276t136 236q6 -4 14 -12q-85 -103 -131.5 -231.5t-46.5 -268.5q0 -285 180 -500zM467 432q-117 143 -117 328q0 183 115 327q3 -2 8 -7t8 -7q-110 -136 -110 -313q0 -182 110 -314zM541 498q-92 116 -92 262t92 262
q3 -2 8 -7t8 -7q-88 -109 -88 -248t88 -248q-3 -2 -8 -7t-8 -7zM647 592q-57 72 -57 168q0 97 57 166l15 -15q-52 -69 -52 -151q0 -84 54 -154q-3 -2 -8.5 -7t-8.5 -7zM715 655q-33 48 -33 105q0 56 33 104q3 -2 8 -7t8 -7q-29 -44 -29 -90t29 -90q-3 -2 -16 -15zM774 709
q-14 25 -14 51t14 51l12 -10q-10 -20 -10 -41t10 -41q-4 -4 -12 -10zM852 123q-236 0 -412 158l2.5 2.5l5 5l5.5 5.5t2 1q171 -152 397 -152q227 0 395 152q2 -3 7.5 -8t7.5 -8q-177 -156 -410 -156zM852 664q-31 0 -55 18l12 12q21 -14 43 -14q26 0 43 14q4 -4 10 -12
q-21 -18 -53 -18zM987 653q-7 10 -14 15q28 42 28 92q0 51 -28 90l2.5 2.5t5 4.5t5.5 5t1 2q35 -44 35 -104t-35 -107zM598 551q-72 91 -72 209q0 119 74 209l14 -15q-67 -87 -67 -194q0 -108 67 -195q-10 -10 -16 -14zM852 -35q-145 0 -278 52.5t-238 146.5l14 16
q102 -92 231 -143t271 -51q285 0 500 192q0 1 3.5 -2.5t6.5 -7.5l4 -4q-104 -95 -236 -147t-278 -52zM852 248q-189 0 -330 125l15 16q134 -121 315 -121q182 0 313 121q2 -3 7.5 -8t7.5 -8q-138 -125 -328 -125zM852 348q-145 0 -264 101l14 14q108 -94 250 -94
q143 0 248 94q2 -3 7 -8.5t7 -8.5q-112 -98 -262 -98zM852 428q-116 0 -211 78l14 16q86 -73 197 -73t197 73q4 -4 12 -16q-91 -78 -209 -78zM852 543q-77 0 -135 49l14 16q51 -45 121 -45q68 0 119 45q2 -3 7 -8t7 -8q-58 -49 -133 -49zM733 911q-4 3 -7 6.5t-6 6.5l-3 4
q58 49 135 49t135 -49l-16 -17q-51 45 -119 45t-119 -45zM1167 1130q-134 121 -315 121q-179 0 -313 -118l-15 14q141 125 328 125q189 0 330 -125q-4 -6 -15 -17zM930 709l-12 10q10 20 10 41t-10 41l12 10q14 -25 14 -51t-14 -51zM958 682q-10 10 -16 14q21 32 21 64
t-21 63l16 15q25 -36 25 -78t-25 -78zM1020 627q-6 4 -16 14q38 50 38 119t-38 119l14 14q45 -57 45 -133q0 -71 -43 -133zM1106 551q-3 2 -8 7t-8 7q67 87 67 195t-70 194l17 15q74 -90 74 -209q0 -118 -72 -209zM1163 498q-10 10 -16 14q88 109 88 248t-88 248l16 14
q92 -116 92 -262t-92 -262zM1237 432q-6 4 -16 14q112 134 112 314q0 182 -112 313l16 14q117 -139 117 -327q0 -189 -117 -328zM1329 350q-2 2 -7 6t-7 6q141 175 141 398q0 227 -143 395l16 14q148 -179 148 -409q0 -231 -148 -410zM1446 246q-6 6 -16 14q180 215 180 500
t-180 500l16 14q88 -105 136 -237t48 -277q0 -144 -48 -276t-136 -238zM375 348q-148 182 -148 412q0 229 146 409q2 -2 7.5 -6.5t8.5 -7.5q-141 -170 -141 -395q0 -228 141 -398zM684 627q-43 59 -43 133t43 133q6 -4 16 -14q-38 -50 -38 -119q0 -67 38 -117zM745 682
q-24 34 -24 78t24 78q2 -3 4.5 -5.5t6 -5.5t4.5 -4q-19 -34 -19 -63q0 -30 19 -64zM809 825l-10 13q21 18 53 18t53 -18l-10 -13q-23 15 -43 15q-25 0 -43 -15zM786 852l-14 14q37 29 80 29q41 0 78 -29q-8 -8 -12 -14q-28 25 -66 25q-34 0 -66 -25zM760 881l-15 16
q45 39 107 39q61 0 106 -39l-14 -16q-37 34 -92 34t-92 -34zM604 1057l-14 16q112 98 262 98q151 0 262 -100q1 0 -2 -3.5t-6 -7.5l-4 -3q-108 94 -250 94q-143 0 -248 -94zM852 492q-100 0 -170 61l14 16q70 -57 156 -57q87 0 154 57l14 -14q-73 -63 -168 -63zM852 584
q-61 0 -109 39l15 16q47 -35 94 -35q51 0 92 35l14 -16q-45 -39 -106 -39zM852 625q-43 0 -82 28l14 15q36 -25 68 -25q34 0 66 25l14 -15q-36 -28 -80 -28zM698 950l-14 15q73 63 168 63q98 0 168 -61l-14 -17q-68 58 -154 58q-87 0 -154 -58zM655 997l-14 17q91 78 211 78
q119 0 209 -80l-12 -15q-83 74 -197 74q-110 0 -197 -74zM1249 1223q-166 153 -397 153q-227 0 -397 -151l-15 14q179 158 412 158t412 -158zM352 1339l-14 17q104 95 236 146.5t278 51.5q145 0 278 -52t238 -146l-14 -17q-102 93 -231 144t-271 51t-270 -51t-230 -144z
M1057 594l-15 14q52 69 52 152t-54 153l17 15q57 -72 57 -168q0 -97 -57 -166z" />
    <glyph glyph-name="product" unicode="&#x220f;" horiz-adv-x="1703" 
d="M258 246q-88 105 -136 237t-48 277q0 144 48 276t136 236q6 -4 14 -12q-85 -103 -131.5 -231.5t-46.5 -268.5q0 -285 180 -500zM467 432q-117 143 -117 328q0 183 115 327q3 -2 8 -7t8 -7q-110 -136 -110 -313q0 -182 110 -314zM541 498q-92 116 -92 262t92 262
q3 -2 8 -7t8 -7q-88 -109 -88 -248t88 -248q-3 -2 -8 -7t-8 -7zM647 592q-57 72 -57 168q0 97 57 166l15 -15q-52 -69 -52 -151q0 -84 54 -154q-3 -2 -8.5 -7t-8.5 -7zM715 655q-33 48 -33 105q0 56 33 104q3 -2 8 -7t8 -7q-29 -44 -29 -90t29 -90q-3 -2 -16 -15zM774 709
q-14 25 -14 51t14 51l12 -10q-10 -20 -10 -41t10 -41q-4 -4 -12 -10zM852 123q-236 0 -412 158l2.5 2.5l5 5l5.5 5.5t2 1q171 -152 397 -152q227 0 395 152q2 -3 7.5 -8t7.5 -8q-177 -156 -410 -156zM852 664q-31 0 -55 18l12 12q21 -14 43 -14q26 0 43 14q4 -4 10 -12
q-21 -18 -53 -18zM987 653q-7 10 -14 15q28 42 28 92q0 51 -28 90l2.5 2.5t5 4.5t5.5 5t1 2q35 -44 35 -104t-35 -107zM598 551q-72 91 -72 209q0 119 74 209l14 -15q-67 -87 -67 -194q0 -108 67 -195q-10 -10 -16 -14zM852 -35q-145 0 -278 52.5t-238 146.5l14 16
q102 -92 231 -143t271 -51q285 0 500 192q0 1 3.5 -2.5t6.5 -7.5l4 -4q-104 -95 -236 -147t-278 -52zM852 248q-189 0 -330 125l15 16q134 -121 315 -121q182 0 313 121q2 -3 7.5 -8t7.5 -8q-138 -125 -328 -125zM852 348q-145 0 -264 101l14 14q108 -94 250 -94
q143 0 248 94q2 -3 7 -8.5t7 -8.5q-112 -98 -262 -98zM852 428q-116 0 -211 78l14 16q86 -73 197 -73t197 73q4 -4 12 -16q-91 -78 -209 -78zM852 543q-77 0 -135 49l14 16q51 -45 121 -45q68 0 119 45q2 -3 7 -8t7 -8q-58 -49 -133 -49zM733 911q-4 3 -7 6.5t-6 6.5l-3 4
q58 49 135 49t135 -49l-16 -17q-51 45 -119 45t-119 -45zM1167 1130q-134 121 -315 121q-179 0 -313 -118l-15 14q141 125 328 125q189 0 330 -125q-4 -6 -15 -17zM930 709l-12 10q10 20 10 41t-10 41l12 10q14 -25 14 -51t-14 -51zM958 682q-10 10 -16 14q21 32 21 64
t-21 63l16 15q25 -36 25 -78t-25 -78zM1020 627q-6 4 -16 14q38 50 38 119t-38 119l14 14q45 -57 45 -133q0 -71 -43 -133zM1106 551q-3 2 -8 7t-8 7q67 87 67 195t-70 194l17 15q74 -90 74 -209q0 -118 -72 -209zM1163 498q-10 10 -16 14q88 109 88 248t-88 248l16 14
q92 -116 92 -262t-92 -262zM1237 432q-6 4 -16 14q112 134 112 314q0 182 -112 313l16 14q117 -139 117 -327q0 -189 -117 -328zM1329 350q-2 2 -7 6t-7 6q141 175 141 398q0 227 -143 395l16 14q148 -179 148 -409q0 -231 -148 -410zM1446 246q-6 6 -16 14q180 215 180 500
t-180 500l16 14q88 -105 136 -237t48 -277q0 -144 -48 -276t-136 -238zM375 348q-148 182 -148 412q0 229 146 409q2 -2 7.5 -6.5t8.5 -7.5q-141 -170 -141 -395q0 -228 141 -398zM684 627q-43 59 -43 133t43 133q6 -4 16 -14q-38 -50 -38 -119q0 -67 38 -117zM745 682
q-24 34 -24 78t24 78q2 -3 4.5 -5.5t6 -5.5t4.5 -4q-19 -34 -19 -63q0 -30 19 -64zM809 825l-10 13q21 18 53 18t53 -18l-10 -13q-23 15 -43 15q-25 0 -43 -15zM786 852l-14 14q37 29 80 29q41 0 78 -29q-8 -8 -12 -14q-28 25 -66 25q-34 0 -66 -25zM760 881l-15 16
q45 39 107 39q61 0 106 -39l-14 -16q-37 34 -92 34t-92 -34zM604 1057l-14 16q112 98 262 98q151 0 262 -100q1 0 -2 -3.5t-6 -7.5l-4 -3q-108 94 -250 94q-143 0 -248 -94zM852 492q-100 0 -170 61l14 16q70 -57 156 -57q87 0 154 57l14 -14q-73 -63 -168 -63zM852 584
q-61 0 -109 39l15 16q47 -35 94 -35q51 0 92 35l14 -16q-45 -39 -106 -39zM852 625q-43 0 -82 28l14 15q36 -25 68 -25q34 0 66 25l14 -15q-36 -28 -80 -28zM698 950l-14 15q73 63 168 63q98 0 168 -61l-14 -17q-68 58 -154 58q-87 0 -154 -58zM655 997l-14 17q91 78 211 78
q119 0 209 -80l-12 -15q-83 74 -197 74q-110 0 -197 -74zM1249 1223q-166 153 -397 153q-227 0 -397 -151l-15 14q179 158 412 158t412 -158zM352 1339l-14 17q104 95 236 146.5t278 51.5q145 0 278 -52t238 -146l-14 -17q-102 93 -231 144t-271 51t-270 -51t-230 -144z
M1057 594l-15 14q52 69 52 152t-54 153l17 15q57 -72 57 -168q0 -97 -57 -166z" />
    <glyph glyph-name="summation" unicode="&#x2211;" horiz-adv-x="1703" 
d="M258 246q-88 105 -136 237t-48 277q0 144 48 276t136 236q6 -4 14 -12q-85 -103 -131.5 -231.5t-46.5 -268.5q0 -285 180 -500zM467 432q-117 143 -117 328q0 183 115 327q3 -2 8 -7t8 -7q-110 -136 -110 -313q0 -182 110 -314zM541 498q-92 116 -92 262t92 262
q3 -2 8 -7t8 -7q-88 -109 -88 -248t88 -248q-3 -2 -8 -7t-8 -7zM647 592q-57 72 -57 168q0 97 57 166l15 -15q-52 -69 -52 -151q0 -84 54 -154q-3 -2 -8.5 -7t-8.5 -7zM715 655q-33 48 -33 105q0 56 33 104q3 -2 8 -7t8 -7q-29 -44 -29 -90t29 -90q-3 -2 -16 -15zM774 709
q-14 25 -14 51t14 51l12 -10q-10 -20 -10 -41t10 -41q-4 -4 -12 -10zM852 123q-236 0 -412 158l2.5 2.5l5 5l5.5 5.5t2 1q171 -152 397 -152q227 0 395 152q2 -3 7.5 -8t7.5 -8q-177 -156 -410 -156zM852 664q-31 0 -55 18l12 12q21 -14 43 -14q26 0 43 14q4 -4 10 -12
q-21 -18 -53 -18zM987 653q-7 10 -14 15q28 42 28 92q0 51 -28 90l2.5 2.5t5 4.5t5.5 5t1 2q35 -44 35 -104t-35 -107zM598 551q-72 91 -72 209q0 119 74 209l14 -15q-67 -87 -67 -194q0 -108 67 -195q-10 -10 -16 -14zM852 -35q-145 0 -278 52.5t-238 146.5l14 16
q102 -92 231 -143t271 -51q285 0 500 192q0 1 3.5 -2.5t6.5 -7.5l4 -4q-104 -95 -236 -147t-278 -52zM852 248q-189 0 -330 125l15 16q134 -121 315 -121q182 0 313 121q2 -3 7.5 -8t7.5 -8q-138 -125 -328 -125zM852 348q-145 0 -264 101l14 14q108 -94 250 -94
q143 0 248 94q2 -3 7 -8.5t7 -8.5q-112 -98 -262 -98zM852 428q-116 0 -211 78l14 16q86 -73 197 -73t197 73q4 -4 12 -16q-91 -78 -209 -78zM852 543q-77 0 -135 49l14 16q51 -45 121 -45q68 0 119 45q2 -3 7 -8t7 -8q-58 -49 -133 -49zM733 911q-4 3 -7 6.5t-6 6.5l-3 4
q58 49 135 49t135 -49l-16 -17q-51 45 -119 45t-119 -45zM1167 1130q-134 121 -315 121q-179 0 -313 -118l-15 14q141 125 328 125q189 0 330 -125q-4 -6 -15 -17zM930 709l-12 10q10 20 10 41t-10 41l12 10q14 -25 14 -51t-14 -51zM958 682q-10 10 -16 14q21 32 21 64
t-21 63l16 15q25 -36 25 -78t-25 -78zM1020 627q-6 4 -16 14q38 50 38 119t-38 119l14 14q45 -57 45 -133q0 -71 -43 -133zM1106 551q-3 2 -8 7t-8 7q67 87 67 195t-70 194l17 15q74 -90 74 -209q0 -118 -72 -209zM1163 498q-10 10 -16 14q88 109 88 248t-88 248l16 14
q92 -116 92 -262t-92 -262zM1237 432q-6 4 -16 14q112 134 112 314q0 182 -112 313l16 14q117 -139 117 -327q0 -189 -117 -328zM1329 350q-2 2 -7 6t-7 6q141 175 141 398q0 227 -143 395l16 14q148 -179 148 -409q0 -231 -148 -410zM1446 246q-6 6 -16 14q180 215 180 500
t-180 500l16 14q88 -105 136 -237t48 -277q0 -144 -48 -276t-136 -238zM375 348q-148 182 -148 412q0 229 146 409q2 -2 7.5 -6.5t8.5 -7.5q-141 -170 -141 -395q0 -228 141 -398zM684 627q-43 59 -43 133t43 133q6 -4 16 -14q-38 -50 -38 -119q0 -67 38 -117zM745 682
q-24 34 -24 78t24 78q2 -3 4.5 -5.5t6 -5.5t4.5 -4q-19 -34 -19 -63q0 -30 19 -64zM809 825l-10 13q21 18 53 18t53 -18l-10 -13q-23 15 -43 15q-25 0 -43 -15zM786 852l-14 14q37 29 80 29q41 0 78 -29q-8 -8 -12 -14q-28 25 -66 25q-34 0 -66 -25zM760 881l-15 16
q45 39 107 39q61 0 106 -39l-14 -16q-37 34 -92 34t-92 -34zM604 1057l-14 16q112 98 262 98q151 0 262 -100q1 0 -2 -3.5t-6 -7.5l-4 -3q-108 94 -250 94q-143 0 -248 -94zM852 492q-100 0 -170 61l14 16q70 -57 156 -57q87 0 154 57l14 -14q-73 -63 -168 -63zM852 584
q-61 0 -109 39l15 16q47 -35 94 -35q51 0 92 35l14 -16q-45 -39 -106 -39zM852 625q-43 0 -82 28l14 15q36 -25 68 -25q34 0 66 25l14 -15q-36 -28 -80 -28zM698 950l-14 15q73 63 168 63q98 0 168 -61l-14 -17q-68 58 -154 58q-87 0 -154 -58zM655 997l-14 17q91 78 211 78
q119 0 209 -80l-12 -15q-83 74 -197 74q-110 0 -197 -74zM1249 1223q-166 153 -397 153q-227 0 -397 -151l-15 14q179 158 412 158t412 -158zM352 1339l-14 17q104 95 236 146.5t278 51.5q145 0 278 -52t238 -146l-14 -17q-102 93 -231 144t-271 51t-270 -51t-230 -144z
M1057 594l-15 14q52 69 52 152t-54 153l17 15q57 -72 57 -168q0 -97 -57 -166z" />
    <glyph glyph-name="minus" unicode="&#x2212;" horiz-adv-x="1478" 
d="M152 578l63 288h1098l-62 -288h-1099z" />
    <glyph glyph-name="radical" unicode="&#x221a;" horiz-adv-x="1415" 
d="M266 -12l-168 925h332l88 -538l672 1143h323l-913 -1530h-334z" />
    <glyph glyph-name="infinity" unicode="&#x221e;" horiz-adv-x="2136" 
d="M739 -338l260 1223h-381l-260 -1223h-321l260 1223h-219l59 274h217l21 94q29 136 83.5 215t154 118.5t261.5 39.5q62 0 136 -4l-56 -262h-73q-96 0 -136.5 -32.5t-54.5 -106.5l-14 -62h381l20 94q29 136 83.5 215t154.5 118.5t262 39.5q61 0 135 -4l-57 -262h-72
q-96 0 -136 -32.5t-56 -106.5l-15 -62h238l-60 -274h-235l-258 -1223h-322zM1513 0l248 1159h320l-246 -1159h-322zM1782 1266l61 293h326l-64 -293h-323z" />
    <glyph glyph-name="integral" unicode="&#x222b;" horiz-adv-x="1703" 
d="M258 246q-88 105 -136 237t-48 277q0 144 48 276t136 236q6 -4 14 -12q-85 -103 -131.5 -231.5t-46.5 -268.5q0 -285 180 -500zM467 432q-117 143 -117 328q0 183 115 327q3 -2 8 -7t8 -7q-110 -136 -110 -313q0 -182 110 -314zM541 498q-92 116 -92 262t92 262
q3 -2 8 -7t8 -7q-88 -109 -88 -248t88 -248q-3 -2 -8 -7t-8 -7zM647 592q-57 72 -57 168q0 97 57 166l15 -15q-52 -69 -52 -151q0 -84 54 -154q-3 -2 -8.5 -7t-8.5 -7zM715 655q-33 48 -33 105q0 56 33 104q3 -2 8 -7t8 -7q-29 -44 -29 -90t29 -90q-3 -2 -16 -15zM774 709
q-14 25 -14 51t14 51l12 -10q-10 -20 -10 -41t10 -41q-4 -4 -12 -10zM852 123q-236 0 -412 158l2.5 2.5l5 5l5.5 5.5t2 1q171 -152 397 -152q227 0 395 152q2 -3 7.5 -8t7.5 -8q-177 -156 -410 -156zM852 664q-31 0 -55 18l12 12q21 -14 43 -14q26 0 43 14q4 -4 10 -12
q-21 -18 -53 -18zM987 653q-7 10 -14 15q28 42 28 92q0 51 -28 90l2.5 2.5t5 4.5t5.5 5t1 2q35 -44 35 -104t-35 -107zM598 551q-72 91 -72 209q0 119 74 209l14 -15q-67 -87 -67 -194q0 -108 67 -195q-10 -10 -16 -14zM852 -35q-145 0 -278 52.5t-238 146.5l14 16
q102 -92 231 -143t271 -51q285 0 500 192q0 1 3.5 -2.5t6.5 -7.5l4 -4q-104 -95 -236 -147t-278 -52zM852 248q-189 0 -330 125l15 16q134 -121 315 -121q182 0 313 121q2 -3 7.5 -8t7.5 -8q-138 -125 -328 -125zM852 348q-145 0 -264 101l14 14q108 -94 250 -94
q143 0 248 94q2 -3 7 -8.5t7 -8.5q-112 -98 -262 -98zM852 428q-116 0 -211 78l14 16q86 -73 197 -73t197 73q4 -4 12 -16q-91 -78 -209 -78zM852 543q-77 0 -135 49l14 16q51 -45 121 -45q68 0 119 45q2 -3 7 -8t7 -8q-58 -49 -133 -49zM733 911q-4 3 -7 6.5t-6 6.5l-3 4
q58 49 135 49t135 -49l-16 -17q-51 45 -119 45t-119 -45zM1167 1130q-134 121 -315 121q-179 0 -313 -118l-15 14q141 125 328 125q189 0 330 -125q-4 -6 -15 -17zM930 709l-12 10q10 20 10 41t-10 41l12 10q14 -25 14 -51t-14 -51zM958 682q-10 10 -16 14q21 32 21 64
t-21 63l16 15q25 -36 25 -78t-25 -78zM1020 627q-6 4 -16 14q38 50 38 119t-38 119l14 14q45 -57 45 -133q0 -71 -43 -133zM1106 551q-3 2 -8 7t-8 7q67 87 67 195t-70 194l17 15q74 -90 74 -209q0 -118 -72 -209zM1163 498q-10 10 -16 14q88 109 88 248t-88 248l16 14
q92 -116 92 -262t-92 -262zM1237 432q-6 4 -16 14q112 134 112 314q0 182 -112 313l16 14q117 -139 117 -327q0 -189 -117 -328zM1329 350q-2 2 -7 6t-7 6q141 175 141 398q0 227 -143 395l16 14q148 -179 148 -409q0 -231 -148 -410zM1446 246q-6 6 -16 14q180 215 180 500
t-180 500l16 14q88 -105 136 -237t48 -277q0 -144 -48 -276t-136 -238zM375 348q-148 182 -148 412q0 229 146 409q2 -2 7.5 -6.5t8.5 -7.5q-141 -170 -141 -395q0 -228 141 -398zM684 627q-43 59 -43 133t43 133q6 -4 16 -14q-38 -50 -38 -119q0 -67 38 -117zM745 682
q-24 34 -24 78t24 78q2 -3 4.5 -5.5t6 -5.5t4.5 -4q-19 -34 -19 -63q0 -30 19 -64zM809 825l-10 13q21 18 53 18t53 -18l-10 -13q-23 15 -43 15q-25 0 -43 -15zM786 852l-14 14q37 29 80 29q41 0 78 -29q-8 -8 -12 -14q-28 25 -66 25q-34 0 -66 -25zM760 881l-15 16
q45 39 107 39q61 0 106 -39l-14 -16q-37 34 -92 34t-92 -34zM604 1057l-14 16q112 98 262 98q151 0 262 -100q1 0 -2 -3.5t-6 -7.5l-4 -3q-108 94 -250 94q-143 0 -248 -94zM852 492q-100 0 -170 61l14 16q70 -57 156 -57q87 0 154 57l14 -14q-73 -63 -168 -63zM852 584
q-61 0 -109 39l15 16q47 -35 94 -35q51 0 92 35l14 -16q-45 -39 -106 -39zM852 625q-43 0 -82 28l14 15q36 -25 68 -25q34 0 66 25l14 -15q-36 -28 -80 -28zM698 950l-14 15q73 63 168 63q98 0 168 -61l-14 -17q-68 58 -154 58q-87 0 -154 -58zM655 997l-14 17q91 78 211 78
q119 0 209 -80l-12 -15q-83 74 -197 74q-110 0 -197 -74zM1249 1223q-166 153 -397 153q-227 0 -397 -151l-15 14q179 158 412 158t412 -158zM352 1339l-14 17q104 95 236 146.5t278 51.5q145 0 278 -52t238 -146l-14 -17q-102 93 -231 144t-271 51t-270 -51t-230 -144z
M1057 594l-15 14q52 69 52 152t-54 153l17 15q57 -72 57 -168q0 -97 -57 -166z" />
    <glyph glyph-name="approxequal" unicode="&#x2248;" horiz-adv-x="1478" 
d="M276 295l-159 151q172 203 352 203q73 0 151 -29.5t143.5 -58.5t110.5 -29q77 0 181 111l157 -151q-179 -207 -350 -207q-57 0 -117.5 18t-103.5 40t-94 40t-90 18q-85 0 -181 -106zM385 801l-158 151q84 97 174.5 150t176.5 53q59 0 121.5 -18.5t106 -40t92.5 -40
t85 -18.5q82 0 180 109l158 -152q-84 -98 -174 -151t-174 -53q-57 0 -118 18t-104.5 40t-94.5 40t-89 18q-86 0 -182 -106z" />
    <glyph glyph-name="notequal" unicode="&#x2260;" horiz-adv-x="1605" 
d="M739 -338l260 1223h-381l-260 -1223h-321l260 1223h-219l59 274h217l21 94q29 136 83.5 215t154 118.5t261.5 39.5q62 0 136 -4l-56 -262h-73q-96 0 -136.5 -32.5t-54.5 -106.5l-14 -62h381l20 94q29 136 83.5 215t154.5 118.5t262 39.5q92 0 166 -4l-55 -262h-105
q-96 0 -136 -32.5t-56 -106.5l-15 -62h269l-60 -274h-266l-258 -1223h-322z" />
    <glyph glyph-name="lessequal" unicode="&#x2264;" horiz-adv-x="1478" 
d="M70 12l57 277h719l-643 344l43 205l1040 450l-61 -293l-668 -268l553 -268l-59 -279h-2l-35 -168h-944z" />
    <glyph glyph-name="greaterequal" unicode="&#x2265;" horiz-adv-x="1478" 
d="M150 12l57 277h2l35 170l667 270l-553 268l62 291l850 -450l-43 -205l-791 -344h717l-59 -277h-944z" />
    <glyph glyph-name="lozenge" unicode="&#x25ca;" horiz-adv-x="1619" 
d="M78 885l59 274h217l21 94q29 136 83.5 215t154 118.5t261.5 39.5q76 0 146 -4l-55 -262h-84q-96 0 -136.5 -32.5t-54.5 -106.5l-14 -62h368l115 283l260 51l-71 -334h266l-60 -274h-264l-100 -477q-10 -45 -8.5 -76t31.5 -47.5t96 -16.5h114l-57 -268q-45 -4 -178 -4
q-160 0 -241.5 46t-94.5 135t14 218l105 490h-353l-260 -1223h-321l260 1223h-219z" />
    <glyph glyph-name="apple" unicode="&#xf8ff;" horiz-adv-x="1703" 
d="M258 246q-88 105 -136 237t-48 277q0 144 48 276t136 236q6 -4 14 -12q-85 -103 -131.5 -231.5t-46.5 -268.5q0 -285 180 -500zM467 432q-117 143 -117 328q0 183 115 327q3 -2 8 -7t8 -7q-110 -136 -110 -313q0 -182 110 -314zM541 498q-92 116 -92 262t92 262
q3 -2 8 -7t8 -7q-88 -109 -88 -248t88 -248q-3 -2 -8 -7t-8 -7zM647 592q-57 72 -57 168q0 97 57 166l15 -15q-52 -69 -52 -151q0 -84 54 -154q-3 -2 -8.5 -7t-8.5 -7zM715 655q-33 48 -33 105q0 56 33 104q3 -2 8 -7t8 -7q-29 -44 -29 -90t29 -90q-3 -2 -16 -15zM774 709
q-14 25 -14 51t14 51l12 -10q-10 -20 -10 -41t10 -41q-4 -4 -12 -10zM852 123q-236 0 -412 158l2.5 2.5l5 5l5.5 5.5t2 1q171 -152 397 -152q227 0 395 152q2 -3 7.5 -8t7.5 -8q-177 -156 -410 -156zM852 664q-31 0 -55 18l12 12q21 -14 43 -14q26 0 43 14q4 -4 10 -12
q-21 -18 -53 -18zM987 653q-7 10 -14 15q28 42 28 92q0 51 -28 90l2.5 2.5t5 4.5t5.5 5t1 2q35 -44 35 -104t-35 -107zM598 551q-72 91 -72 209q0 119 74 209l14 -15q-67 -87 -67 -194q0 -108 67 -195q-10 -10 -16 -14zM852 -35q-145 0 -278 52.5t-238 146.5l14 16
q102 -92 231 -143t271 -51q285 0 500 192q0 1 3.5 -2.5t6.5 -7.5l4 -4q-104 -95 -236 -147t-278 -52zM852 248q-189 0 -330 125l15 16q134 -121 315 -121q182 0 313 121q2 -3 7.5 -8t7.5 -8q-138 -125 -328 -125zM852 348q-145 0 -264 101l14 14q108 -94 250 -94
q143 0 248 94q2 -3 7 -8.5t7 -8.5q-112 -98 -262 -98zM852 428q-116 0 -211 78l14 16q86 -73 197 -73t197 73q4 -4 12 -16q-91 -78 -209 -78zM852 543q-77 0 -135 49l14 16q51 -45 121 -45q68 0 119 45q2 -3 7 -8t7 -8q-58 -49 -133 -49zM733 911q-4 3 -7 6.5t-6 6.5l-3 4
q58 49 135 49t135 -49l-16 -17q-51 45 -119 45t-119 -45zM1167 1130q-134 121 -315 121q-179 0 -313 -118l-15 14q141 125 328 125q189 0 330 -125q-4 -6 -15 -17zM930 709l-12 10q10 20 10 41t-10 41l12 10q14 -25 14 -51t-14 -51zM958 682q-10 10 -16 14q21 32 21 64
t-21 63l16 15q25 -36 25 -78t-25 -78zM1020 627q-6 4 -16 14q38 50 38 119t-38 119l14 14q45 -57 45 -133q0 -71 -43 -133zM1106 551q-3 2 -8 7t-8 7q67 87 67 195t-70 194l17 15q74 -90 74 -209q0 -118 -72 -209zM1163 498q-10 10 -16 14q88 109 88 248t-88 248l16 14
q92 -116 92 -262t-92 -262zM1237 432q-6 4 -16 14q112 134 112 314q0 182 -112 313l16 14q117 -139 117 -327q0 -189 -117 -328zM1329 350q-2 2 -7 6t-7 6q141 175 141 398q0 227 -143 395l16 14q148 -179 148 -409q0 -231 -148 -410zM1446 246q-6 6 -16 14q180 215 180 500
t-180 500l16 14q88 -105 136 -237t48 -277q0 -144 -48 -276t-136 -238zM375 348q-148 182 -148 412q0 229 146 409q2 -2 7.5 -6.5t8.5 -7.5q-141 -170 -141 -395q0 -228 141 -398zM684 627q-43 59 -43 133t43 133q6 -4 16 -14q-38 -50 -38 -119q0 -67 38 -117zM745 682
q-24 34 -24 78t24 78q2 -3 4.5 -5.5t6 -5.5t4.5 -4q-19 -34 -19 -63q0 -30 19 -64zM809 825l-10 13q21 18 53 18t53 -18l-10 -13q-23 15 -43 15q-25 0 -43 -15zM786 852l-14 14q37 29 80 29q41 0 78 -29q-8 -8 -12 -14q-28 25 -66 25q-34 0 -66 -25zM760 881l-15 16
q45 39 107 39q61 0 106 -39l-14 -16q-37 34 -92 34t-92 -34zM604 1057l-14 16q112 98 262 98q151 0 262 -100q1 0 -2 -3.5t-6 -7.5l-4 -3q-108 94 -250 94q-143 0 -248 -94zM852 492q-100 0 -170 61l14 16q70 -57 156 -57q87 0 154 57l14 -14q-73 -63 -168 -63zM852 584
q-61 0 -109 39l15 16q47 -35 94 -35q51 0 92 35l14 -16q-45 -39 -106 -39zM852 625q-43 0 -82 28l14 15q36 -25 68 -25q34 0 66 25l14 -15q-36 -28 -80 -28zM698 950l-14 15q73 63 168 63q98 0 168 -61l-14 -17q-68 58 -154 58q-87 0 -154 -58zM655 997l-14 17q91 78 211 78
q119 0 209 -80l-12 -15q-83 74 -197 74q-110 0 -197 -74zM1249 1223q-166 153 -397 153q-227 0 -397 -151l-15 14q179 158 412 158t412 -158zM352 1339l-14 17q104 95 236 146.5t278 51.5q145 0 278 -52t238 -146l-14 -17q-102 93 -231 144t-271 51t-270 -51t-230 -144z
M1057 594l-15 14q52 69 52 152t-54 153l17 15q57 -72 57 -168q0 -97 -57 -166z" />
    </font>
</defs>
</svg>
