<?xml version="1.0" standalone="no"?>
<!DOCTYPE svg PUBLIC "-//W3C//DTD SVG 1.1//EN" "http://www.w3.org/Graphics/SVG/1.1/DTD/svg11.dtd" >
<svg xmlns="http://www.w3.org/2000/svg" xmlns:xlink="http://www.w3.org/1999/xlink" version="1.1">
<metadata>
Created by FontForge 20201107 at Wed Dec 24 15:01:21 2025
 By 
Copyright (c) The Font Bureau, Inc., 2003. All rights reserved.
</metadata>
<defs>
<font id="AntennaCond-LightItalic" horiz-adv-x="952" >
  <font-face 
    font-family="AntennaCond LightItalic"
    font-weight="300"
    font-style="italic"
    font-stretch="normal"
    units-per-em="2048"
    panose-1="2 0 5 6 0 0 0 2 0 4"
    ascent="1638"
    descent="-410"
    x-height="1128"
    cap-height="1518"
    bbox="-238 -436 2402 1925"
    underline-thickness="102"
    underline-position="-204"
    slope="-10"
    unicode-range="U+0020-FB02"
  />
<missing-glyph horiz-adv-x="374" 
 />
    <glyph glyph-name="fi" unicode="fi" horiz-adv-x="1017" 
d="M84 997l27 131h170l30 175q26 145 99.5 210.5t232.5 65.5h98l-24 -133h-80q-50 0 -83.5 -12t-52.5 -39.5t-28 -54.5t-18 -74l-25 -138h234l-27 -131h-231l-232 -1321h-149l231 1321h-172zM606 0l201 1128h149l-200 -1128h-150zM831 1280l39 213h150l-37 -213h-152z" />
    <glyph glyph-name="fl" unicode="fl" horiz-adv-x="1103" 
d="M84 997l27 131h170l30 175q26 145 99.5 210.5t232.5 65.5h98l-24 -133h-80q-50 0 -83.5 -12t-52.5 -39.5t-28 -54.5t-18 -74l-25 -138h234l-27 -131h-231l-232 -1321h-149l231 1321h-172zM850 -2q-145 0 -185 61t-12 207l232 1309h149l-233 -1315q-9 -46 -6.5 -74.5
t30 -40.5t93.5 -12l-23 -133q-6 -2 -45 -2z" />
    <glyph glyph-name="f_f_l" unicode="ffl" horiz-adv-x="1630" 
d="M551 -324l231 1321h-376l-232 -1321h-149l231 1321h-172l27 131h170l30 175q26 145 99.5 210.5t232.5 65.5h98l-24 -133h-80q-50 0 -83.5 -12t-52.5 -39.5t-28 -54.5t-18 -74l-25 -138h377l31 175q17 97 52 155.5t102.5 89.5t174.5 31h101l-25 -133h-82q-40 0 -69.5 -9
t-47.5 -23t-30.5 -39.5t-19 -48.5t-13.5 -60l-25 -138h232l-25 -131h-231l-232 -1321h-149zM1376 -2q-145 0 -184.5 60.5t-13.5 207.5l233 1309h150l-234 -1315q-9 -46 -6.5 -74.5t30 -40.5t93.5 -12l-23 -133q-6 -2 -45 -2z" />
    <glyph glyph-name="f_f_i" unicode="ffi" horiz-adv-x="1544" 
d="M551 -324l231 1321h-376l-232 -1321h-149l231 1321h-172l27 131h170l30 175q26 145 99.5 210.5t232.5 65.5h98l-24 -133h-80q-50 0 -83.5 -12t-52.5 -39.5t-28 -54.5t-18 -74l-25 -138h377l31 175q17 97 52 155.5t102.5 89.5t174.5 31h101l-25 -133h-82q-40 0 -69.5 -9
t-47.5 -23t-30.5 -39.5t-19 -48.5t-13.5 -60l-25 -138h232l-25 -131h-231l-232 -1321h-149zM1133 0l198 1128h152l-201 -1128h-149zM1358 1280l37 213h151l-39 -213h-149z" />
    <glyph glyph-name="f_j" unicode="fj" horiz-adv-x="1017" 
d="M84 997l27 131h170l30 175q26 145 99.5 210.5t232.5 65.5h98l-24 -133h-80q-50 0 -83.5 -12t-52.5 -39.5t-28 -54.5t-18 -74l-25 -138h234l-27 -131h-231l-232 -1321h-149l231 1321h-172zM428 -324l23 125h14q67 0 92 27.5t39 108.5l211 1191h149l-215 -1214
q-25 -140 -81 -189t-199 -49h-33zM831 1280l39 213h150l-37 -213h-152z" />
    <glyph glyph-name="f_f" unicode="ff" horiz-adv-x="1167" 
d="M551 -324l231 1321h-376l-232 -1321h-149l231 1321h-172l27 131h170l30 175q26 145 99.5 210.5t232.5 65.5h98l-24 -133h-80q-50 0 -83.5 -12t-52.5 -39.5t-28 -54.5t-18 -74l-25 -138h377l31 175q26 146 99.5 211t236.5 65q104 0 116 -2l-24 -131h-97q-53 0 -87.5 -12
t-54 -39.5t-28.5 -54.5t-18 -74l-25 -138h254l-22 -131h-256l-232 -1321h-149z" />
    <glyph glyph-name=".notdef" horiz-adv-x="374" 
 />
    <glyph glyph-name=".null" horiz-adv-x="0" 
 />
    <glyph glyph-name="nonmarkingreturn" horiz-adv-x="682" 
 />
    <glyph glyph-name="space" unicode=" " horiz-adv-x="374" 
 />
    <glyph glyph-name="space" unicode="&#xa0;" horiz-adv-x="374" 
 />
    <glyph glyph-name="exclam" unicode="!" horiz-adv-x="598" 
d="M74 0l37 217h186l-37 -217h-186zM174 418l180 1100h164l-211 -1100h-133z" />
    <glyph glyph-name="quotedbl" unicode="&#x22;" horiz-adv-x="806" 
d="M197 934l96 584h153l-114 -584h-135zM539 934l96 584h151l-112 -584h-135z" />
    <glyph glyph-name="numbersign" unicode="#" horiz-adv-x="1173" 
d="M180 0l84 477h-194l22 139h197l47 275h-199l25 137h198l89 490h143l-88 -490h241l89 490h143l-88 -490h217l-25 -137h-217l-47 -275h217l-24 -139h-217l-84 -477h-144l84 477h-241l-84 -477h-144zM420 606h264l51 295h-264z" />
    <glyph glyph-name="dollar" unicode="$" horiz-adv-x="1056" 
d="M297 -186l33 188q-213 23 -336 127l90 111q112 -93 278 -109l109 617q-63 37 -102.5 66t-77 69t-55 90t-17.5 112q0 198 98.5 310t280.5 123l31 176h143l-33 -181q146 -15 262 -83l-77 -121q-96 57 -215 69l-97 -551q56 -33 91 -56t74.5 -57.5t61.5 -69t37 -83.5t15 -106
q0 -214 -110.5 -330.5t-309.5 -124.5l-31 -186h-143zM741 436q0 79 -37.5 133t-117.5 109l-99 -549q122 12 188 92t66 215zM367 1100q0 -63 32 -109.5t99 -91.5l84 479q-106 -13 -160.5 -85.5t-54.5 -192.5z" />
    <glyph glyph-name="percent" unicode="%" horiz-adv-x="1767" 
d="M379 580q-140 0 -208.5 72t-68.5 225q0 66 21 206q23 129 57.5 217.5t82.5 138.5t103.5 71.5t129.5 21.5q141 0 209.5 -72.5t68.5 -226.5q0 -84 -22 -207q-22 -130 -56.5 -218t-83 -137.5t-104 -70t-129.5 -20.5zM379 696q97 0 149 72.5t86 269.5q23 109 23 191
q0 95 -35.5 137.5t-112.5 42.5q-92 0 -143 -76t-86 -268q-20 -109 -20 -188q0 -94 33.5 -137.5t105.5 -43.5zM1274 -16q-141 0 -209 72.5t-68 226.5q0 76 23 204q23 130 57 219t82 140t103.5 72.5t128.5 21.5q140 0 209 -73.5t69 -227.5q0 -97 -22 -207q-22 -130 -56.5 -218
t-83 -138t-104 -71t-129.5 -21zM1274 102q97 0 150 73t87 269q21 114 21 191q0 95 -35 137.5t-111 42.5q-94 0 -145 -76.5t-86 -269.5q-20 -123 -20 -186q0 -93 34 -137t105 -44zM354 0l924 1518h141l-925 -1518h-140z" />
    <glyph glyph-name="ampersand" unicode="&#x26;" horiz-adv-x="1300" 
d="M436 -12q-424 0 -424 334q0 85 18 156.5t47.5 124.5t79.5 103t100.5 87t123.5 81q-62 143 -62 275q0 188 86.5 290.5t229.5 102.5q146 0 215.5 -66t69.5 -182q0 -73 -19.5 -136.5t-48 -108.5t-77.5 -90.5t-92 -75t-108 -68.5q20 -36 101 -160l174 -268q59 104 104 237
t95 320l133 -20q-56 -223 -115 -385t-137 -277l172 -262h-182l-91 139q-157 -151 -393 -151zM438 115q187 0 318 141l-209 326q-54 83 -111 178q-97 -63 -152.5 -117t-87.5 -129.5t-32 -175.5q0 -48 12 -85t41 -69.5t85 -50.5t136 -18zM465 1151q0 -101 53 -223
q129 79 193.5 157.5t64.5 196.5q0 129 -141 129q-86 0 -128 -68t-42 -192z" />
    <glyph glyph-name="quotesingle" unicode="'" horiz-adv-x="466" 
d="M197 934l96 584h153l-112 -584h-137z" />
    <glyph glyph-name="parenleft" unicode="(" horiz-adv-x="782" 
d="M332 -350q-85 119 -142 295.5t-57 402.5q0 186 44.5 376t119.5 351t172 295t205 221l98 -78q-97 -83 -185 -208.5t-156 -277t-108 -330.5t-40 -355q0 -376 170 -623z" />
    <glyph glyph-name="parenright" unicode=")" horiz-adv-x="782" 
d="M61 -350l-98 78q203 171 346.5 497t143.5 674q0 376 -170 623l120 69q201 -287 201 -698q0 -186 -44.5 -376t-120 -351t-173 -295t-205.5 -221z" />
    <glyph glyph-name="asterisk" unicode="*" horiz-adv-x="948" 
d="M506 651l-123 21l74 332l-291 -125l-45 118l305 105l-252 205l84 96l231 -219l46 338l120 -21l-71 -336l295 129l47 -116l-314 -109l256 -205l-82 -96l-235 221z" />
    <glyph glyph-name="plus" unicode="+" horiz-adv-x="1128" 
d="M408 268l67 385h-319l22 133h320l67 385h144l-68 -385h320l-23 -133h-320l-69 -385h-141z" />
    <glyph glyph-name="comma" unicode="," horiz-adv-x="409" 
d="M-25 -219l-28 80q69 36 89.5 59.5t29.5 79.5h-89l39 219h189l-37 -207q-18 -96 -55 -143t-138 -88z" />
    <glyph glyph-name="hyphen" unicode="-" horiz-adv-x="727" 
d="M49 561l25 139h561l-25 -139h-561z" />
    <glyph glyph-name="hyphen" unicode="&#xad;" horiz-adv-x="727" 
d="M49 561l25 139h561l-25 -139h-561z" />
    <glyph glyph-name="period" unicode="." horiz-adv-x="409" 
d="M-23 0l39 219h189l-39 -219h-189z" />
    <glyph glyph-name="slash" unicode="/" horiz-adv-x="821" 
d="M-137 0l942 1518h156l-941 -1518h-157z" />
    <glyph glyph-name="zero" unicode="0" horiz-adv-x="1144" 
d="M483 -16q-218 0 -311.5 102t-93.5 315q0 139 45 396q21 119 43 209.5t48.5 170t58.5 135.5t71 100t87.5 70t107 39t131.5 13q214 0 304.5 -104t90.5 -316q0 -149 -43 -397q-29 -168 -61 -284.5t-74.5 -206t-99.5 -141t-130.5 -76.5t-173.5 -25zM492 123q65 0 113 19.5
t87 61t69.5 115t56 173t50.5 243.5q43 218 43 365q0 151 -57.5 220t-189.5 69q-167 0 -247 -130t-141 -479q-40 -231 -40 -364q0 -153 60 -223t196 -70z" />
    <glyph glyph-name="one" unicode="1" horiz-adv-x="604" 
d="M141 0l242 1380h-227l24 138h377l-268 -1518h-148z" />
    <glyph glyph-name="two" unicode="2" horiz-adv-x="954" 
d="M-53 0l20 123l391 420q137 147 208.5 230.5t120.5 162t63 136.5t14 138q0 90 -53 135.5t-179 45.5q-139 0 -260 -56l-59 129q156 70 346 70q194 0 276.5 -79t82.5 -243q0 -73 -22 -147.5t-56.5 -140t-97 -147.5t-123.5 -151t-156 -169l-305 -324h579l-24 -133h-766z" />
    <glyph glyph-name="three" unicode="3" horiz-adv-x="942" 
d="M346 -16q-129 0 -219.5 28t-171.5 78l82 121q74 -43 144 -66.5t169 -23.5q128 0 195.5 66t97.5 245q12 86 12 119q0 48 -12.5 82t-42.5 61t-85 40.5t-136 13.5h-125l22 135h193q127 0 182 55.5t78 183.5q10 44 10 97q0 97 -52 134.5t-171 37.5q-130 0 -256 -56l-59 123
q158 76 344 76q182 0 266 -63t84 -214q0 -59 -12 -120q-13 -70 -27.5 -119.5t-39 -92.5t-61.5 -71t-89 -43q80 -30 109.5 -91.5t29.5 -164.5q0 -39 -17 -152q-22 -123 -61 -206t-96.5 -129t-125 -65t-159.5 -19z" />
    <glyph glyph-name="four" unicode="4" horiz-adv-x="1058" 
d="M8 360l25 123l712 1035h158l-710 -1029h415l115 480h111l-86 -480h210l-24 -129h-209l-63 -360h-140l62 360h-576z" />
    <glyph glyph-name="five" unicode="5" horiz-adv-x="987" 
d="M393 -16q-154 0 -252.5 29t-175.5 77l82 121q45 -27 81.5 -43.5t107 -31.5t155.5 -15q67 0 112 12.5t86.5 48.5t69 106t46.5 181q16 118 16 156q0 127 -60.5 176t-195.5 49q-116 0 -217 -70l-113 33l162 705h668l-27 -138h-535l-98 -436q77 41 217 41q184 0 267 -77.5
t83 -262.5q0 -75 -16 -190q-16 -89 -37.5 -158.5t-46.5 -118.5t-58.5 -84.5t-66.5 -56.5t-77 -33t-84 -16t-93 -4z" />
    <glyph glyph-name="six" unicode="6" horiz-adv-x="1077" 
d="M477 -16q-119 0 -201.5 24.5t-129.5 74t-67 114.5t-20 155q0 106 31 297q21 119 36 192.5t37 163.5t43.5 143t53.5 115t69.5 96t88 69t113.5 52t141.5 27.5t175.5 10.5h113l-27 -138h-90q-61 0 -112 -4t-94 -13.5t-77 -20.5t-63.5 -31.5t-51.5 -40t-42 -51.5t-34 -60.5
t-29.5 -73t-27 -83t-26.5 -95.5q58 61 138.5 84t188.5 23q100 0 170 -22.5t108.5 -65.5t55.5 -97t17 -127q0 -91 -21 -202q-47 -276 -151 -396t-316 -120zM471 119q77 0 131 22.5t91 74t60 121.5t42 177q18 89 18 158q0 106 -54.5 159.5t-180.5 53.5q-140 0 -227.5 -71
t-119.5 -247q-20 -127 -20 -202q0 -125 59.5 -185.5t200.5 -60.5z" />
    <glyph glyph-name="seven" unicode="7" horiz-adv-x="837" 
d="M68 0l690 1380h-606l24 138h770l-22 -119l-691 -1399h-165z" />
    <glyph glyph-name="eight" unicode="8" horiz-adv-x="1087" 
d="M461 -16q-123 0 -209 25t-132 72.5t-65.5 104t-19.5 131.5q0 97 13 175.5t45 152t93 125t148 76.5q-70 33 -96.5 94.5t-26.5 149.5q0 444 424 444q389 0 389 -295q0 -80 -11.5 -144t-36.5 -118.5t-70 -93t-109 -58.5q85 -37 114 -105t29 -177q0 -123 -24.5 -220.5
t-78.5 -175.5t-149 -120.5t-227 -42.5zM465 117q87 0 151 31t101.5 89.5t55.5 134.5t18 173q0 105 -59.5 161t-205.5 56q-336 0 -336 -420q0 -107 61.5 -166t213.5 -59zM594 893q276 0 276 324q0 89 -53 136.5t-182 47.5q-277 0 -277 -324q0 -90 53.5 -137t182.5 -47z" />
    <glyph glyph-name="nine" unicode="9" horiz-adv-x="1079" 
d="M119 0l24 133h90q77 0 137.5 6t109.5 21t86 33.5t67 51t51 64t41 83t34 98.5t32 118q-58 -61 -139 -83.5t-189 -22.5q-99 0 -168.5 22.5t-108 66t-55.5 98t-18 128.5q0 95 20 201q47 277 151.5 396.5t317.5 119.5q118 0 200.5 -25t129.5 -74.5t67.5 -114.5t20.5 -155
q0 -114 -33 -297q-23 -133 -39.5 -215t-42 -178.5t-52.5 -152.5t-67.5 -117t-90 -93.5t-118 -61t-154 -39.5t-194.5 -11h-110zM502 629q139 0 225.5 71t118.5 246q20 127 20 203q0 126 -58.5 187t-199.5 61q-78 0 -132 -23t-91 -75t-59.5 -121.5t-42.5 -176.5
q-17 -100 -17 -159q0 -107 54 -160t182 -53z" />
    <glyph glyph-name="colon" unicode=":" horiz-adv-x="442" 
d="M-6 0l39 215h188l-39 -215h-188zM154 913l41 215h186l-39 -215h-188z" />
    <glyph glyph-name="semicolon" unicode=";" horiz-adv-x="442" 
d="M154 913l41 215h186l-39 -215h-188zM-8 -219l-29 80q69 36 89.5 59.5t29.5 79.5h-88l39 215h188l-37 -203q-18 -96 -54.5 -143t-137.5 -88z" />
    <glyph glyph-name="less" unicode="&#x3c;" horiz-adv-x="1124" 
d="M801 238l-649 415l18 111l795 416l-23 -148l-631 -323l514 -326z" />
    <glyph glyph-name="equal" unicode="=" horiz-adv-x="1130" 
d="M125 444l25 140h772l-25 -140h-772zM190 829l27 138h772l-24 -138h-775z" />
    <glyph glyph-name="greater" unicode="&#x3e;" horiz-adv-x="1128" 
d="M143 238l23 149l631 322l-514 325l24 146l649 -416l-18 -111z" />
    <glyph glyph-name="question" unicode="?" horiz-adv-x="1019" 
d="M334 408q6 48 10 71t10.5 59.5t13 55.5t17.5 47.5t24.5 47t32.5 44t43.5 48t55.5 49.5t71 57q114 83 162.5 155t48.5 185q0 168 -233 168q-65 0 -144.5 -19t-134.5 -45l-63 125q65 33 171 55.5t197 22.5q365 0 365 -277q0 -81 -18 -146t-56 -118.5t-80 -92.5t-106 -87
q-146 -114 -181 -174.5t-58 -213.5q-2 -11 -3 -17h-145zM240 0l36 203h187l-35 -203h-188z" />
    <glyph glyph-name="at" unicode="@" horiz-adv-x="1714" 
d="M735 -338q-344 0 -511 152.5t-167 488.5q0 160 37 354q37 210 95.5 365t129.5 252t166 155.5t193.5 80.5t222.5 22q361 0 532 -152t171 -489q0 -151 -35 -356q-26 -147 -55 -238.5t-68 -141.5t-82.5 -67.5t-108.5 -17.5q-209 0 -227 137q-57 -69 -133 -102t-199 -33
q-87 0 -146.5 23.5t-91.5 69t-45.5 100t-13.5 128.5q0 88 27 242q16 91 33.5 156.5t48 132.5t69.5 108.5t99 67.5t137 26q129 0 197.5 -34.5t99.5 -102.5l45 125l102 -8l-124 -705q-23 -125 6 -178t118 -53q56 0 89 25.5t62.5 108t57.5 245.5q35 193 35 340
q0 295 -145.5 422t-454.5 127q-111 0 -198 -20.5t-168.5 -73.5t-142.5 -142t-111.5 -228t-83.5 -329q-35 -172 -35 -336q0 -294 138.5 -423.5t422.5 -129.5q227 0 455 76l28 -92q-227 -78 -471 -78zM729 193q47 0 84.5 10t64.5 26t49.5 45t36.5 56.5t27 72.5t21 81.5
t18 93.5q23 138 23 196q0 111 -47.5 168t-174.5 57q-53 0 -93.5 -18t-67.5 -47t-47.5 -80.5t-33 -102.5t-26.5 -128q-24 -134 -24 -211q0 -107 41.5 -163t148.5 -56z" />
    <glyph glyph-name="A" unicode="A" horiz-adv-x="1157" 
d="M-90 0l733 1528h143l191 -1528h-156l-41 348h-549l-163 -348h-158zM293 487h473l-94 797z" />
    <glyph glyph-name="B" unicode="B" horiz-adv-x="1110" 
d="M6 0l268 1518h357q238 0 343 -71.5t105 -227.5q0 -51 -10 -109q-28 -153 -81.5 -224t-147.5 -102q143 -56 143 -268q0 -64 -12 -129q-21 -113 -63 -189.5t-105.5 -119.5t-139 -60.5t-176.5 -17.5h-481zM180 135h326q65 0 110 10.5t87 38.5t70 83.5t44 140.5q10 49 10 100
q0 121 -69 166t-230 45h-243zM307 856h332q56 0 95.5 9t77 33.5t62 74.5t37.5 127q9 50 9 88q0 106 -70.5 148t-231.5 42h-217z" />
    <glyph glyph-name="C" unicode="C" horiz-adv-x="1009" 
d="M498 -16q-125 0 -215 33.5t-143.5 98t-78 149.5t-24.5 196q0 144 37 342q32 184 77 312t117 226t179 145.5t253 47.5q217 0 359 -98l-88 -131q-117 79 -291 79q-194 0 -296 -140.5t-157 -459.5q-34 -179 -34 -315q0 -171 76.5 -258.5t244.5 -87.5q156 0 272 70l70 -119
q-156 -90 -358 -90z" />
    <glyph glyph-name="D" unicode="D" horiz-adv-x="1173" 
d="M6 0l268 1518h355q140 0 239 -31t158.5 -93.5t86 -148t26.5 -201.5q0 -140 -37 -335q-27 -153 -60.5 -263t-84 -198t-119.5 -140.5t-163 -80t-218 -27.5h-451zM184 135h289q90 0 158 23t117.5 67t86.5 118t62.5 164t48.5 218q35 198 35 303q0 174 -81.5 261t-276.5 87
h-220z" />
    <glyph glyph-name="E" unicode="E" horiz-adv-x="1009" 
d="M6 0l268 1518h775l-27 -142h-623l-90 -518h586l-27 -141h-585l-101 -578h625l-23 -139h-778z" />
    <glyph glyph-name="F" unicode="F" horiz-adv-x="964" 
d="M6 0l268 1518h775l-27 -142h-621l-92 -528h584l-25 -139h-583l-125 -709h-154z" />
    <glyph glyph-name="G" unicode="G" horiz-adv-x="1128" 
d="M492 -16q-242 0 -348.5 120t-106.5 361q0 145 35 338q37 211 92.5 353.5t134.5 225.5t174.5 117.5t224.5 34.5q147 0 239 -31t163 -82l-101 -123q-115 88 -317 88q-123 0 -205.5 -51.5t-146 -185.5t-105.5 -367q-35 -184 -35 -317q0 -181 75 -264.5t243 -83.5
q91 0 150.5 24t103.5 87t71.5 158.5t53.5 252.5l10 63h-367l25 136h518l-33 -191q-23 -135 -48 -232t-58.5 -173t-73.5 -124t-95 -79t-120 -43t-153 -12z" />
    <glyph glyph-name="H" unicode="H" horiz-adv-x="1232" 
d="M6 0l268 1518h154l-115 -652h645l115 652h156l-268 -1518h-156l125 717h-643l-127 -717h-154z" />
    <glyph glyph-name="I" unicode="I" horiz-adv-x="454" 
d="M18 0l269 1518h153l-268 -1518h-154z" />
    <glyph glyph-name="J" unicode="J" horiz-adv-x="698" 
d="M-84 0l27 139h141q124 0 182 52.5t78 166.5l205 1160h153l-208 -1188q-33 -181 -128 -255.5t-268 -74.5h-182z" />
    <glyph glyph-name="K" unicode="K" horiz-adv-x="1132" 
d="M6 0l268 1518h152l-135 -758l721 758h178l-555 -582l307 -936h-158l-268 815l-266 -289l-92 -526h-152z" />
    <glyph glyph-name="L" unicode="L" horiz-adv-x="937" 
d="M6 0l268 1518h154l-244 -1379h607l-25 -139h-760z" />
    <glyph glyph-name="M" unicode="M" horiz-adv-x="1445" 
d="M6 0l268 1518h193l170 -1252l610 1252h195l-268 -1518h-150l211 1200l-588 -1200h-119l-168 1206l-208 -1206h-146z" />
    <glyph glyph-name="N" unicode="N" horiz-adv-x="1226" 
d="M6 0l268 1518h168l418 -1213l215 1213h148l-269 -1518h-143l-438 1255l-221 -1255h-146z" />
    <glyph glyph-name="O" unicode="O" horiz-adv-x="1232" 
d="M520 -16q-110 0 -194.5 25t-138.5 67.5t-88 105.5t-48 133t-14 156q0 147 37 332q23 137 52 240t78.5 199.5t116 157.5t164.5 97.5t224 36.5q112 0 197.5 -25t140 -68t89 -107t48.5 -135t14 -159q0 -128 -35 -333q-17 -97 -36.5 -173.5t-47.5 -154t-63 -135t-83 -108.5
t-107 -83t-136.5 -50.5t-169.5 -18.5zM526 123q69 0 126.5 14.5t101.5 40.5t79.5 67.5t61.5 88.5t47.5 111.5t36 128.5t29.5 147q34 189 34 307q0 82 -16 144.5t-53 112t-103.5 75.5t-160.5 26q-96 0 -170 -29.5t-123 -78t-86.5 -129.5t-59.5 -164.5t-43 -202.5
q-34 -189 -34 -307q0 -82 16 -143t52.5 -110t103 -74t161.5 -25z" />
    <glyph glyph-name="P" unicode="P" horiz-adv-x="1110" 
d="M6 0l268 1518h379q244 0 350.5 -89t106.5 -255q0 -60 -16 -142q-42 -218 -152 -322t-311 -104h-369l-104 -606h-152zM291 745h342q130 0 206 68.5t103 226.5q12 78 12 111q0 110 -71 167.5t-234 57.5h-248z" />
    <glyph glyph-name="Q" unicode="Q" horiz-adv-x="1232" 
d="M672 -338q-175 0 -250 70t-53 207q0 15 8 61q-77 14 -136 44.5t-97 72.5t-62.5 99t-34.5 119t-10 136q0 147 37 332q23 137 52 240t78.5 199.5t116 157.5t164.5 97.5t224 36.5q112 0 197.5 -25t140 -68t89 -107t48.5 -135t14 -159q0 -128 -35 -333q-20 -113 -43.5 -199.5
t-59 -171.5t-83 -145t-111.5 -107t-150 -70.5t-192 -23.5q-4 -24 -4 -29q-14 -80 20.5 -123t135.5 -43h102l-24 -133h-82zM526 123q69 0 126.5 14.5t101.5 40.5t79.5 67.5t61.5 88.5t47.5 111.5t36 128.5t29.5 147q34 189 34 307q0 82 -16 144.5t-53 112t-103.5 75.5
t-160.5 26q-96 0 -170 -29.5t-123 -78t-86.5 -129.5t-59.5 -164.5t-43 -202.5q-34 -189 -34 -307q0 -82 16 -143t52.5 -110t103 -74t161.5 -25z" />
    <glyph glyph-name="R" unicode="R" horiz-adv-x="1128" 
d="M727 0l-172 614h-289l-108 -614h-152l268 1518h388q124 0 211.5 -25.5t136.5 -74t70.5 -109.5t21.5 -140q0 -67 -12 -137q-31 -189 -126 -291.5t-259 -122.5l176 -618h-154zM291 754h336q133 0 208.5 66t102.5 220q8 49 8 107q0 113 -64.5 172t-224.5 59h-256z" />
    <glyph glyph-name="S" unicode="S" horiz-adv-x="1046" 
d="M426 -16q-278 0 -475 135l84 117q183 -119 393 -119q150 0 235 76.5t85 224.5q0 54 -17 96.5t-56 80.5t-83 67t-119 71q-150 83 -222.5 166.5t-72.5 206.5q0 206 125.5 317t329.5 111q230 0 387 -90l-74 -129q-133 76 -319 76q-141 0 -218 -73t-77 -200q0 -84 49 -138
t182 -132q73 -42 117.5 -71.5t91.5 -69t72 -77t41 -87.5t16 -109q0 -112 -35.5 -199t-100 -141.5t-150 -82t-189.5 -27.5z" />
    <glyph glyph-name="T" unicode="T" horiz-adv-x="1075" 
d="M328 0l241 1376h-419l24 142h995l-24 -142h-420l-244 -1376h-153z" />
    <glyph glyph-name="U" unicode="U" horiz-adv-x="1224" 
d="M539 -18q-248 0 -356.5 94.5t-108.5 275.5q0 76 16 170l176 996h154l-176 -996q-15 -80 -15 -143q0 -126 70 -191t244 -65q169 0 246.5 88.5t111.5 284.5l182 1022h148l-184 -1045q-21 -127 -57 -215.5t-95.5 -152t-147 -93.5t-208.5 -30z" />
    <glyph glyph-name="V" unicode="V" horiz-adv-x="1150" 
d="M369 -10l-189 1528h158l147 -1272l596 1272h160l-729 -1528h-143z" />
    <glyph glyph-name="W" unicode="W" horiz-adv-x="1710" 
d="M285 -10l-88 1528h155l64 -1203l506 1203h145l76 -1205l493 1205h154l-633 -1528h-137l-80 1231l-516 -1231h-139z" />
    <glyph glyph-name="X" unicode="X" horiz-adv-x="1124" 
d="M772 0l-233 653l-449 -653h-168l563 805l-252 713h158l205 -582l399 582h168l-512 -734l279 -784h-158z" />
    <glyph glyph-name="Y" unicode="Y" horiz-adv-x="1101" 
d="M342 0l98 569l-282 949h161l226 -785l506 785h161l-618 -949l-98 -569h-154z" />
    <glyph glyph-name="Z" unicode="Z" horiz-adv-x="1040" 
d="M-63 0l20 123l913 1253h-661l24 142h850l-24 -129l-912 -1250h709l-22 -139h-897z" />
    <glyph glyph-name="bracketleft" unicode="[" horiz-adv-x="770" 
d="M8 -324l336 1899h410l-23 -131h-262l-289 -1641h266l-22 -127h-416z" />
    <glyph glyph-name="backslash" unicode="\" horiz-adv-x="821" 
d="M541 0l-404 1518h144l405 -1518h-145z" />
    <glyph glyph-name="bracketright" unicode="]" horiz-adv-x="770" 
d="M-29 -324l23 127h264l291 1641h-264l22 131h416l-336 -1899h-416z" />
    <glyph glyph-name="asciicircum" unicode="^" 
d="M260 1237l287 317h143l172 -317h-123l-139 211l-211 -211h-129z" />
    <glyph glyph-name="underscore" unicode="_" horiz-adv-x="731" 
d="M-238 -238l23 119h854l-21 -119h-856z" />
    <glyph glyph-name="grave" unicode="`" 
d="M547 1249l-211 318h162l176 -318h-127z" />
    <glyph glyph-name="a" unicode="a" horiz-adv-x="993" 
d="M297 -12q-156 0 -231.5 67.5t-75.5 204.5q0 142 35.5 239.5t108 152t167.5 77.5t229 23h150q8 43 10.5 72.5t0.5 62t-13.5 53t-33 38.5t-58.5 26t-88 8q-154 0 -248 -43l-47 125q127 55 313 55q71 0 125 -10t91 -27.5t60 -47.5t34.5 -63t12.5 -80.5t-4 -94.5t-16 -111
l-80 -465q-15 -69 -3 -93t75 -24l-23 -133q-16 -2 -47 -2q-77 0 -108 26.5t-29 79.5q-52 -59 -133 -87.5t-174 -28.5zM334 115q231 0 284 276l39 232h-120q-107 0 -177.5 -14t-123 -50.5t-76 -103t-23.5 -168.5q0 -90 49.5 -131t147.5 -41z" />
    <glyph glyph-name="b" unicode="b" horiz-adv-x="1028" 
d="M100 -6l-112 10l278 1571h150l-94 -537q101 109 307 109q91 0 154.5 -25.5t98 -74.5t49.5 -109t15 -139q0 -113 -28 -271q-17 -99 -37 -173t-54 -147t-78 -119t-110 -74.5t-150 -28.5q-151 0 -229 37t-106 106zM463 119q60 0 105.5 20.5t76 53.5t54 89.5t38 114
t29.5 142.5q27 138 27 229q0 115 -48.5 177.5t-164.5 62.5q-51 0 -93 -10.5t-73 -28.5t-56 -48.5t-42 -62t-31.5 -79t-24 -90t-20.5 -103.5q-25 -136 -25 -217q0 -121 54.5 -185.5t193.5 -64.5z" />
    <glyph glyph-name="c" unicode="c" horiz-adv-x="815" 
d="M387 -16q-199 0 -284 95.5t-85 274.5q0 95 27 250q48 280 154.5 411.5t320.5 131.5q180 0 285 -66l-84 -123q-78 50 -201 50q-143 0 -213.5 -101.5t-111.5 -322.5q-23 -135 -23 -217q0 -123 55 -186.5t183 -63.5q96 0 192 37l41 -123q-119 -47 -256 -47z" />
    <glyph glyph-name="d" unicode="d" horiz-adv-x="1028" 
d="M334 -16q-90 0 -153.5 26.5t-98.5 76t-50.5 110.5t-15.5 141q0 103 29 270q17 99 37 172t54 146t78 118.5t110.5 74t150.5 28.5q271 0 328 -141l100 569h150l-277 -1569l-121 -10l13 108q-110 -120 -334 -120zM383 119q71 0 124 21t87 54t59.5 91.5t40 114t29.5 141.5
q25 163 25 219q0 58 -11.5 100.5t-38.5 77t-76.5 52.5t-121.5 18q-60 0 -105.5 -20t-76 -53t-54 -89t-38 -114t-29.5 -142q-27 -142 -27 -232q0 -113 48.5 -176t164.5 -63z" />
    <glyph glyph-name="e" unicode="e" horiz-adv-x="929" 
d="M403 -14q-109 0 -185 25.5t-118.5 76t-61 114.5t-18.5 150q0 111 25 252q48 274 156.5 408.5t314.5 134.5q99 0 167 -20.5t105.5 -60.5t53.5 -90.5t16 -119.5q0 -109 -47 -352h-635q-10 -66 -10 -144q0 -121 55.5 -182t194.5 -61q121 0 250 47l41 -123q-145 -55 -304 -55
zM510 1014q-74 0 -127 -25t-88 -77t-56.5 -115t-39.5 -156h491q25 150 25 195q0 89 -44 133.5t-161 44.5z" />
    <glyph glyph-name="f" unicode="f" horiz-adv-x="641" 
d="M84 997l27 131h170l30 175q26 146 100 211t238 65q103 0 117 -2l-27 -131h-96q-53 0 -87.5 -12t-54 -39.5t-28.5 -54.5t-18 -74l-25 -138h256l-24 -131h-256l-232 -1321h-149l231 1321h-172z" />
    <glyph glyph-name="g" unicode="g" horiz-adv-x="956" 
d="M440 406q-98 0 -172 22q-39 -39 -39 -86q0 -39 28 -57.5t95 -18.5q233 -3 323.5 -60t90.5 -188q0 -192 -112.5 -275t-334.5 -83q-228 0 -330 61t-102 185q0 119 65.5 202t190.5 113q-47 38 -47 109q0 87 76 151q-82 73 -82 213q0 106 23.5 187.5t62 131t92.5 80.5
t108 42.5t116 11.5q36 0 98 -4l362 43l-24 -129h-176q88 -69 88 -226q0 -102 -24 -179t-62 -123t-92.5 -74.5t-107.5 -38.5t-114 -10zM438 537q42 0 76.5 7t68.5 27t57 52.5t37.5 87t14.5 127.5q0 178 -198 178q-256 0 -256 -309q0 -90 48.5 -130t151.5 -40zM326 -219
q154 0 220 52t66 173q0 79 -64 106t-224 27q-80 0 -137.5 -17.5t-88 -48.5t-44 -67t-13.5 -80q0 -74 65 -109.5t220 -35.5z" />
    <glyph glyph-name="h" unicode="h" horiz-adv-x="1009" 
d="M-12 0l278 1575h148l-97 -545q101 117 291 117q69 0 121 -12.5t85.5 -33t54 -54.5t29 -67.5t8 -82t-5.5 -88.5t-15 -96l-125 -713h-150l123 700q17 99 17 167t-47.5 103.5t-153.5 35.5q-73 0 -124.5 -24.5t-86.5 -79.5t-56 -124t-40 -176l-105 -602h-149z" />
    <glyph glyph-name="i" unicode="i" horiz-adv-x="405" 
d="M-4 0l201 1128h147l-199 -1128h-149zM221 1280l39 213h150l-39 -213h-150z" />
    <glyph glyph-name="j" unicode="j" horiz-adv-x="405" 
d="M-182 -324l20 125h17q67 0 92 27.5t37 108.5l213 1191h147l-215 -1214q-23 -139 -80.5 -188.5t-200.5 -49.5h-30zM221 1280l39 213h150l-39 -213h-150z" />
    <glyph glyph-name="k" unicode="k" horiz-adv-x="884" 
d="M-12 0l278 1575h148l-178 -1006l485 559h168l-418 -483l252 -645h-154l-209 532l-165 -190l-60 -342h-147z" />
    <glyph glyph-name="l" unicode="l" horiz-adv-x="491" 
d="M283 0q-4 -2 -43 -2q-100 0 -149 28t-58 87.5t8 152.5l233 1309h150l-234 -1315q-10 -46 -8 -74.5t29.5 -40.5t93.5 -12z" />
    <glyph glyph-name="m" unicode="m" horiz-adv-x="1568" 
d="M-12 0l196 1120l121 8l-10 -102q99 121 303 121q122 0 182.5 -30.5t81.5 -106.5q47 65 133 101t205 36q53 0 95.5 -7.5t73 -20.5t52.5 -34.5t36 -43.5t21 -54t9 -60.5t-1 -67.5t-7.5 -71t-12.5 -75l-125 -713h-147l123 700q17 99 18 167t-44 103.5t-148 35.5
q-57 0 -100.5 -17.5t-74.5 -48t-54.5 -83t-39 -111.5t-30.5 -144l-105 -602h-149l123 700q18 99 19 167t-44 103.5t-149 35.5q-56 0 -99.5 -17.5t-73.5 -48t-53.5 -83t-39.5 -111.5t-31 -144l-105 -602h-149z" />
    <glyph glyph-name="n" unicode="n" horiz-adv-x="1009" 
d="M-12 0l196 1120l121 8l-10 -102q99 121 313 121q69 0 121 -12.5t85.5 -33t54 -54.5t29 -67.5t8 -82t-5.5 -88.5t-15 -96l-125 -713h-150l123 700q9 47 13.5 79t5.5 67t-5.5 57.5t-20 44t-37 33t-58.5 18.5t-82 7q-73 0 -124 -25t-86 -79.5t-56.5 -124t-40.5 -175.5
l-105 -602h-149z" />
    <glyph glyph-name="o" unicode="o" horiz-adv-x="999" 
d="M397 -16q-105 0 -180 28.5t-117 82t-61 120.5t-19 154t25 233q23 130 57 224t90.5 169.5t143.5 113.5t205 38q105 0 179.5 -27.5t116 -79.5t60 -117t18.5 -151q0 -100 -24 -244q-19 -106 -42.5 -184t-62 -149t-90 -115.5t-127 -70t-172.5 -25.5zM406 117q56 0 100.5 13.5
t77.5 41.5t57 62.5t42.5 86.5t31 102t24.5 120q25 143 25 219q0 117 -53 181.5t-181 64.5q-68 0 -120.5 -23t-86.5 -58.5t-59.5 -94t-40 -114t-28.5 -134.5q-23 -125 -23 -211q0 -120 53.5 -188t180.5 -68z" />
    <glyph glyph-name="p" unicode="p" horiz-adv-x="1028" 
d="M-68 -324l252 1444l121 8l-8 -96q106 115 332 115q91 0 154.5 -25.5t98 -74.5t49.5 -109t15 -139q0 -113 -28 -271q-17 -99 -37 -173t-54 -147t-78 -119t-110 -74.5t-150 -28.5q-146 0 -222.5 37t-106.5 106l-78 -453h-150zM463 119q60 0 105.5 20.5t76 53.5t54 89.5
t38 114t29.5 142.5q27 158 27 229q0 115 -48.5 177.5t-164.5 62.5q-51 0 -93 -11t-73 -28t-55.5 -48t-41.5 -62.5t-32 -79.5t-24.5 -89.5t-20.5 -103.5q-25 -136 -25 -217q0 -121 54.5 -185.5t193.5 -64.5z" />
    <glyph glyph-name="q" unicode="q" horiz-adv-x="1028" 
d="M569 -324l72 420q-54 -56 -125.5 -84t-181.5 -28q-90 0 -153.5 26.5t-98.5 76t-50.5 110.5t-15.5 141q0 103 29 270q17 99 37 172t54 146t78 118.5t110.5 74t150.5 28.5q150 0 226.5 -36t107.5 -105l53 137l113 -8l-258 -1459h-148zM383 119q71 0 124.5 21t87.5 54.5
t59.5 91.5t39.5 114t29 141q25 163 25 219q0 58 -11.5 100.5t-38.5 77t-76.5 52.5t-121.5 18q-60 0 -105.5 -20t-76 -53t-54 -89t-38 -114t-29.5 -142q-27 -142 -27 -232q0 -113 48.5 -176t164.5 -63z" />
    <glyph glyph-name="r" unicode="r" horiz-adv-x="581" 
d="M-12 0l196 1120l121 8l-12 -118q99 129 334 129l-25 -142q-46 0 -84.5 -7.5t-68.5 -18.5t-55.5 -31.5t-43.5 -40t-33.5 -50.5t-25.5 -56t-20 -64t-15.5 -66t-13.5 -71l-105 -592h-149z" />
    <glyph glyph-name="s" unicode="s" horiz-adv-x="768" 
d="M289 -14q-212 0 -369 96l80 115q127 -84 293 -84q89 0 145 46.5t56 151.5q0 66 -39.5 108.5t-145.5 108.5q-117 74 -172 138t-55 157q0 84 28 148t77 101.5t109.5 56t131.5 18.5q186 0 305 -70l-76 -119q-102 58 -237 58q-91 0 -141 -47.5t-50 -137.5q0 -30 12.5 -55.5
t42 -51.5t54.5 -44t74 -49q116 -72 170.5 -142t54.5 -172q0 -91 -29.5 -157.5t-80.5 -103t-110 -53.5t-128 -17z" />
    <glyph glyph-name="t" unicode="t" horiz-adv-x="704" 
d="M84 997l27 131h172l79 316l125 26l-61 -342h264l-24 -131h-263l-120 -700q-17 -89 3.5 -126.5t110.5 -37.5h117l-22 -133q-40 -4 -127 -4q-167 0 -213.5 72.5t-16.5 234.5l121 694h-172z" />
    <glyph glyph-name="u" unicode="u" horiz-adv-x="983" 
d="M395 -16q-130 0 -209.5 31t-111 88.5t-35 140.5t17.5 188l123 696h150l-123 -698q-8 -45 -11.5 -73.5t-5 -64.5t4.5 -58.5t20 -47t37.5 -37.5t60 -21.5t86.5 -8.5q71 0 115.5 14.5t73 51.5t42.5 82.5t29 125.5l129 735h148l-133 -747q-13 -74 -27.5 -127t-36.5 -99.5
t-51.5 -77t-71 -52.5t-96 -31.5t-125.5 -9.5z" />
    <glyph glyph-name="v" unicode="v" horiz-adv-x="878" 
d="M225 -8l-137 1136h152l104 -911l424 911h156l-541 -1136h-158z" />
    <glyph glyph-name="w" unicode="w" horiz-adv-x="1402" 
d="M188 -8l-94 1136h156l69 -874l386 874h141l72 -862l378 862h146l-498 -1136h-147l-74 858l-377 -858h-158z" />
    <glyph glyph-name="x" unicode="x" horiz-adv-x="870" 
d="M551 0l-172 455l-322 -455h-161l430 598l-199 530h154l151 -405l289 405h158l-394 -548l222 -580h-156z" />
    <glyph glyph-name="y" unicode="y" horiz-adv-x="854" 
d="M-59 -324l20 125h82q50 0 75.5 17.5t47.5 64.5l55 117l-133 1128h154l94 -905l414 905h149l-608 -1282q-49 -100 -104 -135t-144 -35h-102z" />
    <glyph glyph-name="z" unicode="z" horiz-adv-x="786" 
d="M-86 0l18 109l650 888h-461l24 131h643l-18 -106l-653 -897h512l-23 -125h-692z" />
    <glyph glyph-name="braceleft" unicode="{" horiz-adv-x="827" 
d="M375 -324q-146 0 -212.5 46t-66.5 141q0 60 30 156.5t65.5 180.5t65.5 166.5t30 118.5q0 46 -41 61t-148 15l23 129q53 0 85 2.5t60 11t42 22t24 39.5t13 59t3 85q0 39 -3 139.5t-3 149.5q0 212 77 294.5t263 82.5h137l-24 -131h-93q-121 0 -167 -56.5t-46 -216.5
q0 -38 4.5 -127.5t4.5 -132.5q0 -132 -26 -194.5t-101 -89.5q69 -34 69 -107q0 -59 -45.5 -182.5t-91 -245.5t-45.5 -178q0 -60 38.5 -85.5t117.5 -25.5h92l-23 -127h-108z" />
    <glyph glyph-name="bar" unicode="|" horiz-adv-x="542" 
d="M195 -324v1899h151v-1899h-151z" />
    <glyph glyph-name="braceright" unicode="}" horiz-adv-x="827" 
d="M-37 -324l27 127h92q119 0 165 56.5t46 216.5q0 38 -3 129.5t-3 134.5q0 132 26.5 195t102.5 90q-74 35 -74 108q0 59 46 181t92 242.5t46 176.5q0 60 -38 85.5t-117 25.5h-95l23 131h111q146 0 212 -45.5t66 -140.5q0 -76 -48 -208.5t-96 -252t-48 -162.5q0 -46 42 -61
t148 -15l-22 -129q-53 0 -85.5 -2.5t-61 -11t-42.5 -22t-24.5 -39.5t-13.5 -59t-3 -85q0 -40 4 -140t4 -147q0 -213 -77 -296t-263 -83h-139z" />
    <glyph glyph-name="asciitilde" unicode="~" 
d="M340 854l-98 66q90 141 209 141q42 0 88 -20t86.5 -40t68.5 -20q61 0 125 92l96 -63q-90 -152 -206 -152q-44 0 -90.5 20t-87 40t-70.5 20q-34 0 -62 -20.5t-59 -63.5z" />
    <glyph glyph-name="exclamdown" unicode="&#xa1;" horiz-adv-x="600" 
d="M84 0l211 1102h133l-178 -1102h-166zM303 1300l39 218h188l-38 -218h-189z" />
    <glyph glyph-name="cent" unicode="&#xa2;" horiz-adv-x="837" 
d="M248 -197l33 197q-134 25 -192 115t-58 239q0 112 24 250q46 263 142.5 393t283.5 144l33 174h143l-32 -178q106 -10 190 -58l-82 -121q-68 39 -139 46l-156 -887q88 3 172 43l43 -117q-107 -50 -229 -53l-33 -187h-143zM182 367q0 -94 30 -152t99 -82l156 868
q-108 -22 -166 -122.5t-94 -294.5q-25 -146 -25 -217z" />
    <glyph glyph-name="sterling" unicode="&#xa3;" 
d="M569 -10q-184 0 -323 92q-98 -88 -338 -82l24 133q66 0 107.5 4.5t76 20t51.5 38t29 67.5t15.5 99t3.5 140q0 37 -3 116t-3 93h-176l20 125h152q-2 37 -2 110q0 304 91.5 446t305.5 142q233 0 387 -94l-82 -117q-115 72 -303 72q-64 0 -109.5 -20.5t-73 -56t-43 -96
t-21 -126.5t-5.5 -162v-98h348l-22 -125h-324q0 -35 1 -105t1 -108q0 -205 -39 -305q113 -72 240 -72q63 0 89.5 36.5t39.5 121.5l18 114h136l-23 -137q-25 -145 -78.5 -205.5t-167.5 -60.5z" />
    <glyph glyph-name="currency" unicode="&#xa4;" horiz-adv-x="1079" 
d="M80 856l22 125h174q70 298 183 425.5t321 127.5q202 0 348 -98l-86 -121q-112 74 -268 74q-142 0 -216.5 -93t-127.5 -315h438l-22 -125h-443q-10 -62 -12 -76q-15 -85 -16 -96h442l-22 -125h-437q-8 -68 -8 -139q0 -151 58 -224t194 -73q105 0 229 57l58 -119
q-148 -77 -305 -77q-207 0 -296 102.5t-89 314.5q0 82 8 158h-180l22 125h172q19 109 19 111q2 10 5 30.5t5 30.5h-170z" />
    <glyph glyph-name="yen" unicode="&#xa5;" horiz-adv-x="997" 
d="M55 465l21 125h319l8 47l-235 881h156l178 -730l438 730h160l-551 -885l-8 -43h319l-22 -125h-320l-29 -172h318l-21 -125h-319l-29 -168h-145l29 168h-318l19 125h319l31 172h-318z" />
    <glyph glyph-name="brokenbar" unicode="&#xa6;" horiz-adv-x="542" 
d="M193 -324v787h151v-787h-151zM193 788v787h151v-787h-151z" />
    <glyph glyph-name="section" unicode="&#xa7;" horiz-adv-x="903" 
d="M104 -18q-86 0 -96 2l21 122h77q97 0 134.5 45t54.5 140l33 188q-120 19 -176 75.5t-56 154.5q0 337 330 348l35 188q14 73 34.5 122.5t57.5 89.5t96 58.5t144 18.5h96l-25 -127h-76q-51 0 -85.5 -12.5t-54.5 -40t-29.5 -56.5t-18.5 -77l-31 -172q240 -36 240 -238
q0 -79 -18 -139t-48 -97.5t-74.5 -61t-92.5 -32.5t-107 -10l-35 -201q-13 -72 -33.5 -121.5t-57.5 -89t-96 -58.5t-143 -19zM453 571q229 0 229 224q0 151 -236 151q-223 0 -223 -225q0 -150 230 -150z" />
    <glyph glyph-name="dieresis" unicode="&#xa8;" 
d="M322 1249l32 195h138l-35 -195h-135zM670 1249l37 195h135l-35 -195h-137z" />
    <glyph glyph-name="copyright" unicode="&#xa9;" horiz-adv-x="1366" 
d="M696 242q-88 0 -151.5 24.5t-103 66.5t-62.5 110.5t-31 144.5t-8 180q0 102 8 175.5t31 142.5t63 111.5t106 67.5t157 25q147 0 241 -61l-59 -86q-76 47 -185 47q-63 0 -108.5 -18t-74.5 -51t-45.5 -87.5t-23 -117.5t-6.5 -152q0 -88 6.5 -151t23 -117.5t45.5 -87.5
t74.5 -51.5t108.5 -18.5q67 0 113 13.5t92 43.5l54 -84q-58 -36 -115.5 -52.5t-149.5 -16.5zM686 -20q-137 0 -240.5 37.5t-170.5 103t-108.5 165t-58 213.5t-16.5 259t16.5 259.5t58 215t108.5 166.5t170.5 103.5t240.5 37.5t240.5 -37.5t170.5 -103.5t109 -166t59 -215
t17 -260q0 -144 -17 -258.5t-59 -214t-109 -165t-170.5 -103t-240.5 -37.5zM686 51q121 0 212 34t149.5 94t95 150.5t51 194t14.5 234.5q0 132 -14.5 236.5t-51 195t-95.5 150.5t-149.5 94t-211.5 34t-211.5 -34t-148.5 -93.5t-93.5 -151t-50 -195t-14.5 -236.5
q0 -109 10 -198t33 -170.5t62.5 -142t96 -105.5t136 -68t180.5 -23z" />
    <glyph glyph-name="ordfeminine" unicode="&#xaa;" horiz-adv-x="868" 
d="M354 592q-122 0 -181.5 53.5t-59.5 165.5q0 116 29 194.5t88 121.5t135 61t184 18h115q8 45 10.5 71.5t-1.5 56.5t-19.5 46t-46.5 26.5t-79 10.5q-128 0 -202 -35l-43 107q104 45 256 45q100 0 159 -24t81 -69t23 -110.5t-16 -148.5l-67 -377q-11 -57 -1.5 -74.5
t60.5 -17.5l-18 -113h-37q-69 0 -97 25.5t-28 79.5q-73 -113 -244 -113zM391 698q184 0 221 222l33 180h-88q-88 0 -143 -10.5t-96.5 -39.5t-59.5 -82t-18 -137q0 -72 36.5 -102.5t114.5 -30.5zM49 311l19 115h602l-19 -115h-602z" />
    <glyph glyph-name="guillemotleft" unicode="&#xab;" horiz-adv-x="1118" 
d="M254 0l-145 563l346 565h131l-334 -565l135 -563h-133zM672 0l-144 563l342 565h136l-336 -565l135 -563h-133z" />
    <glyph glyph-name="logicalnot" unicode="&#xac;" horiz-adv-x="1703" 
d="M258 246q-88 105 -136 237t-48 277q0 144 48 276t136 236q6 -4 14 -12q-85 -103 -131.5 -231.5t-46.5 -268.5q0 -285 180 -500zM467 432q-117 143 -117 328q0 183 115 327q3 -2 8 -7t8 -7q-110 -136 -110 -313q0 -182 110 -314zM541 498q-92 116 -92 262t92 262
q3 -2 8 -7t8 -7q-88 -109 -88 -248t88 -248q-3 -2 -8 -7t-8 -7zM647 592q-57 72 -57 168q0 97 57 166l15 -15q-52 -69 -52 -151q0 -84 54 -154q-3 -2 -8.5 -7t-8.5 -7zM715 655q-33 48 -33 105q0 56 33 104q3 -2 8 -7t8 -7q-29 -44 -29 -90t29 -90q-3 -2 -16 -15zM774 709
q-14 25 -14 51t14 51l12 -10q-10 -20 -10 -41t10 -41q-4 -4 -12 -10zM852 123q-236 0 -412 158l2.5 2.5l5 5l5.5 5.5t2 1q171 -152 397 -152q227 0 395 152q2 -3 7.5 -8t7.5 -8q-177 -156 -410 -156zM852 664q-31 0 -55 18l12 12q21 -14 43 -14q26 0 43 14q4 -4 10 -12
q-21 -18 -53 -18zM987 653q-7 10 -14 15q28 42 28 92q0 51 -28 90l2.5 2.5t5 4.5t5.5 5t1 2q35 -44 35 -104t-35 -107zM598 551q-72 91 -72 209q0 119 74 209l14 -15q-67 -87 -67 -194q0 -108 67 -195q-10 -10 -16 -14zM852 -35q-145 0 -278 52.5t-238 146.5l14 16
q102 -92 231 -143t271 -51q285 0 500 192q0 1 3.5 -2.5t6.5 -7.5l4 -4q-104 -95 -236 -147t-278 -52zM852 248q-189 0 -330 125l15 16q134 -121 315 -121q182 0 313 121q2 -3 7.5 -8t7.5 -8q-138 -125 -328 -125zM852 348q-145 0 -264 101l14 14q108 -94 250 -94
q143 0 248 94q2 -3 7 -8.5t7 -8.5q-112 -98 -262 -98zM852 428q-116 0 -211 78l14 16q86 -73 197 -73t197 73q4 -4 12 -16q-91 -78 -209 -78zM852 543q-77 0 -135 49l14 16q51 -45 121 -45q68 0 119 45q2 -3 7 -8t7 -8q-58 -49 -133 -49zM733 911q-4 3 -7 6.5t-6 6.5l-3 4
q58 49 135 49t135 -49l-16 -17q-51 45 -119 45t-119 -45zM1167 1130q-134 121 -315 121q-179 0 -313 -118l-15 14q141 125 328 125q189 0 330 -125q-4 -6 -15 -17zM930 709l-12 10q10 20 10 41t-10 41l12 10q14 -25 14 -51t-14 -51zM958 682q-10 10 -16 14q21 32 21 64
t-21 63l16 15q25 -36 25 -78t-25 -78zM1020 627q-6 4 -16 14q38 50 38 119t-38 119l14 14q45 -57 45 -133q0 -71 -43 -133zM1106 551q-3 2 -8 7t-8 7q67 87 67 195t-70 194l17 15q74 -90 74 -209q0 -118 -72 -209zM1163 498q-10 10 -16 14q88 109 88 248t-88 248l16 14
q92 -116 92 -262t-92 -262zM1237 432q-6 4 -16 14q112 134 112 314q0 182 -112 313l16 14q117 -139 117 -327q0 -189 -117 -328zM1329 350q-2 2 -7 6t-7 6q141 175 141 398q0 227 -143 395l16 14q148 -179 148 -409q0 -231 -148 -410zM1446 246q-6 6 -16 14q180 215 180 500
t-180 500l16 14q88 -105 136 -237t48 -277q0 -144 -48 -276t-136 -238zM375 348q-148 182 -148 412q0 229 146 409q2 -2 7.5 -6.5t8.5 -7.5q-141 -170 -141 -395q0 -228 141 -398zM684 627q-43 59 -43 133t43 133q6 -4 16 -14q-38 -50 -38 -119q0 -67 38 -117zM745 682
q-24 34 -24 78t24 78q2 -3 4.5 -5.5t6 -5.5t4.5 -4q-19 -34 -19 -63q0 -30 19 -64zM809 825l-10 13q21 18 53 18t53 -18l-10 -13q-23 15 -43 15q-25 0 -43 -15zM786 852l-14 14q37 29 80 29q41 0 78 -29q-8 -8 -12 -14q-28 25 -66 25q-34 0 -66 -25zM760 881l-15 16
q45 39 107 39q61 0 106 -39l-14 -16q-37 34 -92 34t-92 -34zM604 1057l-14 16q112 98 262 98q151 0 262 -100q1 0 -2 -3.5t-6 -7.5l-4 -3q-108 94 -250 94q-143 0 -248 -94zM852 492q-100 0 -170 61l14 16q70 -57 156 -57q87 0 154 57l14 -14q-73 -63 -168 -63zM852 584
q-61 0 -109 39l15 16q47 -35 94 -35q51 0 92 35l14 -16q-45 -39 -106 -39zM852 625q-43 0 -82 28l14 15q36 -25 68 -25q34 0 66 25l14 -15q-36 -28 -80 -28zM698 950l-14 15q73 63 168 63q98 0 168 -61l-14 -17q-68 58 -154 58q-87 0 -154 -58zM655 997l-14 17q91 78 211 78
q119 0 209 -80l-12 -15q-83 74 -197 74q-110 0 -197 -74zM1249 1223q-166 153 -397 153q-227 0 -397 -151l-15 14q179 158 412 158t412 -158zM352 1339l-14 17q104 95 236 146.5t278 51.5q145 0 278 -52t238 -146l-14 -17q-102 93 -231 144t-271 51t-270 -51t-230 -144z
M1057 594l-15 14q52 69 52 152t-54 153l17 15q57 -72 57 -168q0 -97 -57 -166z" />
    <glyph glyph-name="registered" unicode="&#xae;" horiz-adv-x="1366" 
d="M686 -20q-137 0 -240.5 37.5t-170.5 103t-108.5 165t-58 213.5t-16.5 259t16.5 259.5t58 215t108.5 166.5t170.5 103.5t240.5 37.5t240.5 -37.5t170.5 -103.5t109 -166t59 -215t17 -260q0 -144 -17 -258.5t-59 -214t-109 -165t-170.5 -103t-240.5 -37.5zM686 51
q121 0 212 34t149.5 94t95 150.5t51 194t14.5 234.5q0 132 -14.5 236.5t-51 195t-95.5 150.5t-149.5 94t-211.5 34t-211.5 -34t-148.5 -93.5t-93.5 -151t-50 -195t-14.5 -236.5q0 -109 10 -198t33 -170.5t62.5 -142t96 -105.5t136 -68t180.5 -23zM901 256l-194 420h-197
v-420h-102v1016h319q157 0 224 -70t67 -225q0 -136 -48.5 -207.5t-160.5 -89.5l199 -424h-107zM510 764h215q103 0 146.5 47t43.5 162q0 113 -43.5 160t-146.5 47h-215v-416z" />
    <glyph glyph-name="macron" unicode="&#xaf;" 
d="M266 1249l23 125h592l-21 -125h-594z" />
    <glyph glyph-name="macron" unicode="&#x2c9;" 
d="M266 1249l23 125h592l-21 -125h-594z" />
    <glyph glyph-name="degree" unicode="&#xb0;" horiz-adv-x="907" 
d="M453 575q-89 0 -151.5 22.5t-97.5 65t-50 95.5t-15 123q0 85 23 200q15 87 34 151.5t50.5 124t73.5 96.5t104 59t141 22q87 0 149 -23t96 -67t49 -97.5t15 -123.5q0 -95 -18 -203q-20 -108 -47 -183.5t-72.5 -137.5t-116 -93t-167.5 -31zM459 694q54 0 95 16t68 42.5
t48 72.5t33.5 92.5t25.5 116.5q16 81 16 172q0 96 -42 148.5t-146 52.5q-55 0 -96 -16.5t-68 -43t-48 -73.5t-33 -93t-25 -116q-21 -115 -21 -176q0 -94 43.5 -144.5t149.5 -50.5z" />
    <glyph glyph-name="plusminus" unicode="&#xb1;" horiz-adv-x="1630" 
d="M551 -324l231 1321h-376l-232 -1321h-149l231 1321h-172l27 131h170l30 175q26 145 99.5 210.5t232.5 65.5h98l-24 -133h-80q-50 0 -83.5 -12t-52.5 -39.5t-28 -54.5t-18 -74l-25 -138h377l31 175q17 97 52 155.5t102.5 89.5t174.5 31h101l-25 -133h-82q-40 0 -69.5 -9
t-47.5 -23t-30.5 -39.5t-19 -48.5t-13.5 -60l-25 -138h232l-25 -131h-231l-232 -1321h-149zM1376 -2q-145 0 -184.5 60.5t-13.5 207.5l233 1309h150l-234 -1315q-9 -46 -6.5 -74.5t30 -40.5t93.5 -12l-23 -133q-6 -2 -45 -2z" />
    <glyph glyph-name="twosuperior" unicode="&#xb2;" horiz-adv-x="735" 
d="M88 596l16 96l240 250q160 168 202 232.5t42 150.5q0 47 -33.5 68.5t-108.5 21.5q-87 0 -163 -33l-35 103q98 43 225 43t183.5 -45t56.5 -133q0 -81 -19 -136t-75.5 -128.5t-184.5 -206.5l-174 -181h346l-20 -102h-498z" />
    <glyph glyph-name="threesuperior" unicode="&#xb3;" horiz-adv-x="727" 
d="M346 586q-159 0 -262 67l68 97q84 -58 192 -58q99 0 141.5 58.5t42.5 171.5q0 66 -33.5 91t-129.5 25h-93l19 103h117q96 0 133 45.5t37 136.5q0 56 -30 75t-106 19q-97 0 -166 -28l-34 98q89 41 225 41q123 0 178 -37.5t55 -136.5q0 -44 -6.5 -83t-21 -76t-41.5 -64
t-64 -39q44 -20 63 -57.5t19 -104.5q0 -344 -303 -344z" />
    <glyph glyph-name="acute" unicode="&#xb4;" 
d="M440 1249l291 318h172l-325 -318h-138z" />
    <glyph glyph-name="mu" unicode="&#xb5;" horiz-adv-x="989" 
d="M-68 -324l254 1452h152l-123 -698q-8 -44 -12 -73t-5.5 -65t4.5 -59t19.5 -46.5t37.5 -37t60.5 -22t86.5 -8.5q71 0 115.5 14.5t73 51.5t42.5 82.5t29 125.5l129 735h147l-133 -747q-13 -74 -27.5 -126.5t-36.5 -100t-51 -77.5t-70 -52t-95.5 -31.5t-125.5 -9.5
q-196 0 -249 106l-72 -414h-150z" />
    <glyph glyph-name="mu" unicode="&#x3bc;" horiz-adv-x="989" 
d="M-68 -324l254 1452h152l-123 -698q-8 -44 -12 -73t-5.5 -65t4.5 -59t19.5 -46.5t37.5 -37t60.5 -22t86.5 -8.5q71 0 115.5 14.5t73 51.5t42.5 82.5t29 125.5l129 735h147l-133 -747q-13 -74 -27.5 -126.5t-36.5 -100t-51 -77.5t-70 -52t-95.5 -31.5t-125.5 -9.5
q-196 0 -249 106l-72 -414h-150z" />
    <glyph glyph-name="paragraph" unicode="&#xb6;" horiz-adv-x="1017" 
d="M285 0l110 635q-146 27 -210 106.5t-62 214.5q0 53 14 146q39 229 149 322.5t322 93.5h406l-269 -1518h-147l111 621h-170l-109 -621h-145zM571 745h160l113 637h-244q-135 0 -210.5 -66t-104.5 -237q-11 -79 -11 -114q0 -114 70 -167t227 -53z" />
    <glyph glyph-name="periodcentered" unicode="&#xb7;" horiz-adv-x="409" 
d="M78 571l39 224h188l-39 -224h-188z" />
    <glyph glyph-name="periodcentered" unicode="&#x2219;" horiz-adv-x="409" 
d="M78 571l39 224h188l-39 -224h-188z" />
    <glyph glyph-name="cedilla" unicode="&#xb8;" 
d="M338 -436q-123 0 -215 45l41 88q88 -39 166 -39q64 0 94.5 26.5t30.5 88.5q0 41 -34.5 56t-107.5 13l-37 31l52 141h94l-35 -104q174 3 174 -137q0 -114 -55.5 -161.5t-167.5 -47.5z" />
    <glyph glyph-name="onesuperior" unicode="&#xb9;" horiz-adv-x="526" 
d="M205 596l141 809h-137l20 113h265l-164 -922h-125z" />
    <glyph glyph-name="ordmasculine" unicode="&#xba;" horiz-adv-x="868" 
d="M428 588q-85 0 -145.5 22.5t-94 66t-48.5 97.5t-15 125q0 82 16 191q16 84 36 148t52 121.5t74.5 94.5t103.5 58.5t138 21.5q166 0 235.5 -81t69.5 -224q0 -87 -23 -199q-18 -107 -44 -182.5t-71 -137t-115.5 -92t-168.5 -30.5zM436 702q53 0 94 17t67.5 44.5t46.5 73.5
t31.5 92.5t22.5 112.5q23 108 23 179q0 92 -41 142t-143 50q-63 0 -109.5 -24t-76.5 -72.5t-48.5 -105.5t-32.5 -138q-16 -98 -16 -170q0 -95 41 -148t141 -53zM41 311l20 115h629l-18 -115h-631z" />
    <glyph glyph-name="guillemotright" unicode="&#xbb;" horiz-adv-x="1118" 
d="M45 0l338 565l-137 563h135l143 -563l-342 -565h-137zM465 0l336 565l-135 563h133l143 -563l-344 -565h-133z" />
    <glyph glyph-name="onequarter" unicode="&#xbc;" horiz-adv-x="1449" 
d="M168 0l922 1518h139l-924 -1518h-137zM684 199l18 98l437 625h125l-433 -621h230l69 264h91l-47 -264h126l-18 -102h-127l-35 -199h-112l32 199h-356zM221 596l144 809h-138l21 113h262l-164 -922h-125z" />
    <glyph glyph-name="onehalf" unicode="&#xbd;" horiz-adv-x="1554" 
d="M168 0l922 1518h139l-924 -1518h-137zM221 596l144 809h-138l21 113h262l-164 -922h-125zM799 0l16 96l240 250q160 167 201.5 232t41.5 151q0 47 -33 68.5t-108 21.5q-88 0 -164 -33l-35 103q98 43 226 43q126 0 182.5 -45t56.5 -133q0 -81 -18.5 -136t-75 -128.5
t-184.5 -206.5l-174 -181h346l-21 -102h-497z" />
    <glyph glyph-name="threequarters" unicode="&#xbe;" horiz-adv-x="1589" 
d="M305 0l924 1518h137l-924 -1518h-137zM352 586q-159 0 -262 67l68 97q84 -58 190 -58q100 0 143.5 58.5t43.5 171.5q0 66 -34.5 92t-129.5 26h-95l19 99h117q97 0 134.5 46t37.5 138q0 56 -30.5 75t-104.5 19q-97 0 -166 -28l-37 98q93 41 227 41q123 0 178.5 -37.5
t55.5 -136.5q0 -60 -11 -110t-42.5 -93t-80.5 -59q44 -20 63 -57.5t19 -104.5q0 -344 -303 -344zM825 199l19 98l432 625h127l-430 -621h227l70 264h92l-49 -264h127l-19 -102h-127l-34 -199h-115l35 199h-355z" />
    <glyph glyph-name="questiondown" unicode="&#xbf;" horiz-adv-x="1062" 
d="M451 -16q-367 0 -367 276q0 81 18 146.5t56 118.5t79.5 92.5t104.5 87.5q148 115 183 176t59 218q1 7 2 11h147q-7 -52 -11 -78.5t-12.5 -65t-16.5 -60t-23 -52.5t-33 -52.5t-45 -50.5t-60.5 -57.5t-78.5 -62.5q-114 -83 -162.5 -154.5t-48.5 -183.5q0 -170 233 -170
q65 0 144.5 18.5t136.5 44.5l61 -125q-65 -32 -170.5 -54.5t-195.5 -22.5zM602 1315l35 203h188l-37 -203h-186z" />
    <glyph glyph-name="Agrave" unicode="&#xc0;" horiz-adv-x="1157" 
d="M-90 0l733 1528h143l191 -1528h-156l-41 348h-549l-163 -348h-158zM293 487h473l-94 797zM711 1607l-211 318h162l176 -318h-127z" />
    <glyph glyph-name="Aacute" unicode="&#xc1;" horiz-adv-x="1157" 
d="M-90 0l733 1528h143l191 -1528h-156l-41 348h-549l-163 -348h-158zM293 487h473l-94 797zM604 1607l291 318h172l-325 -318h-138z" />
    <glyph glyph-name="Acircumflex" unicode="&#xc2;" horiz-adv-x="1157" 
d="M-90 0l733 1528h143l191 -1528h-156l-41 348h-549l-163 -348h-158zM293 487h473l-94 797zM424 1607l287 318h143l172 -318h-123l-139 211l-211 -211h-129z" />
    <glyph glyph-name="Atilde" unicode="&#xc3;" horiz-adv-x="1157" 
d="M-90 0l733 1528h143l191 -1528h-156l-41 348h-549l-163 -348h-158zM293 487h473l-94 797zM504 1601l-98 66q90 141 209 141q42 0 88 -20t86.5 -40t68.5 -20q61 0 125 92l96 -63q-90 -152 -206 -152q-44 0 -90.5 20t-87 40t-70.5 20q-34 0 -62 -20.5t-59 -63.5z" />
    <glyph glyph-name="Adieresis" unicode="&#xc4;" horiz-adv-x="1157" 
d="M-90 0l733 1528h143l191 -1528h-156l-41 348h-549l-163 -348h-158zM293 487h473l-94 797zM486 1607l32 195h138l-35 -195h-135zM834 1607l37 195h135l-35 -195h-137z" />
    <glyph glyph-name="Aring" unicode="&#xc5;" horiz-adv-x="1157" 
d="M-90 0l700 1458q-86 44 -86 160q0 127 60.5 202.5t169.5 75.5q96 0 140 -49.5t44 -132.5q0 -95 -38 -163.5t-105 -94.5l182 -1456h-156l-41 348h-549l-163 -348h-158zM293 487h473l-94 797zM614 1626q0 -87 74 -98h49q52 9 82.5 57.5t30.5 122.5q0 102 -100 102
q-64 0 -100 -50t-36 -134z" />
    <glyph glyph-name="AE" unicode="&#xc6;" horiz-adv-x="1716" 
d="M-102 0l1001 1518h856l-26 -142h-623l-90 -520h586l-25 -139h-586l-102 -578h624l-22 -139h-776l59 354h-481l-234 -354h-161zM377 485h422l153 871z" />
    <glyph glyph-name="Ccedilla" unicode="&#xc7;" horiz-adv-x="1009" 
d="M365 -436q-123 0 -215 45l40 88q88 -39 166 -39q64 0 94.5 26.5t30.5 88.5q0 41 -34 56t-107 13l-37 31l45 127q-311 67 -311 461q0 144 37 342q32 184 77 312t117 226t179 145.5t253 47.5q217 0 359 -98l-88 -131q-117 79 -291 79q-194 0 -296 -140.5t-157 -459.5
q-34 -179 -34 -315q0 -171 76.5 -258.5t244.5 -87.5q156 0 272 70l70 -119q-156 -90 -358 -90q-10 0 -30.5 1t-29.5 1l-24 -76q174 3 174 -137q0 -114 -55.5 -161.5t-167.5 -47.5z" />
    <glyph glyph-name="Egrave" unicode="&#xc8;" horiz-adv-x="1009" 
d="M6 0l268 1518h775l-27 -142h-623l-90 -518h586l-27 -141h-585l-101 -578h625l-23 -139h-778zM637 1607l-211 318h162l176 -318h-127z" />
    <glyph glyph-name="Eacute" unicode="&#xc9;" horiz-adv-x="1009" 
d="M530 1608l291 317h172l-325 -317h-138zM6 0l268 1518h775l-27 -142h-623l-90 -518h586l-27 -141h-585l-101 -578h625l-23 -139h-778z" />
    <glyph glyph-name="Ecircumflex" unicode="&#xca;" horiz-adv-x="1009" 
d="M350 1608l287 317h143l172 -317h-123l-139 211l-211 -211h-129zM6 0l268 1518h775l-27 -142h-623l-90 -518h586l-27 -141h-585l-101 -578h625l-23 -139h-778z" />
    <glyph glyph-name="Edieresis" unicode="&#xcb;" horiz-adv-x="1009" 
d="M412 1608l32 194h138l-35 -194h-135zM760 1608l37 194h135l-35 -194h-137zM6 0l268 1518h775l-27 -142h-623l-90 -518h586l-27 -141h-585l-101 -578h625l-23 -139h-778z" />
    <glyph glyph-name="Igrave" unicode="&#xcc;" horiz-adv-x="454" 
d="M299 1608l-164 317h164l129 -317h-129zM18 0l269 1518h153l-268 -1518h-154z" />
    <glyph glyph-name="Iacute" unicode="&#xcd;" horiz-adv-x="454" 
d="M305 1608l240 317h170l-273 -317h-137zM18 0l269 1518h153l-268 -1518h-154z" />
    <glyph glyph-name="Icircumflex" unicode="&#xce;" horiz-adv-x="454" 
d="M18 0l269 1518h153l-268 -1518h-154zM74 1607l287 318h143l172 -318h-123l-139 211l-211 -211h-129z" />
    <glyph glyph-name="Idieresis" unicode="&#xcf;" horiz-adv-x="454" 
d="M18 0l269 1518h153l-268 -1518h-154zM136 1607l32 195h138l-35 -195h-135zM484 1607l37 195h135l-35 -195h-137z" />
    <glyph glyph-name="Eth" unicode="&#xd0;" horiz-adv-x="1173" 
d="M-2 721l22 129h136l118 668h355q140 0 239 -31t158.5 -93.5t86 -148t26.5 -201.5q0 -140 -37 -335q-27 -153 -60.5 -263t-84 -198t-119.5 -140.5t-163 -80t-218 -27.5h-451l127 721h-135zM184 135h289q90 0 158 23t117.5 67t86.5 118t62.5 164t48.5 218q35 198 35 303
q0 174 -81.5 261t-276.5 87h-220l-94 -526h258l-24 -129h-256z" />
    <glyph glyph-name="Ntilde" unicode="&#xd1;" horiz-adv-x="1226" 
d="M6 0l268 1518h168l418 -1213l215 1213h148l-269 -1518h-143l-438 1255l-221 -1255h-146zM539 1601l-98 66q90 141 209 141q42 0 88 -20t86.5 -40t68.5 -20q61 0 125 92l96 -63q-90 -152 -206 -152q-44 0 -90.5 20t-87 40t-70.5 20q-34 0 -62 -20.5t-59 -63.5z" />
    <glyph glyph-name="Ograve" unicode="&#xd2;" horiz-adv-x="1232" 
d="M520 -16q-110 0 -194.5 25t-138.5 67.5t-88 105.5t-48 133t-14 156q0 147 37 332q23 137 52 240t78.5 199.5t116 157.5t164.5 97.5t224 36.5q112 0 197.5 -25t140 -68t89 -107t48.5 -135t14 -159q0 -128 -35 -333q-17 -97 -36.5 -173.5t-47.5 -154t-63 -135t-83 -108.5
t-107 -83t-136.5 -50.5t-169.5 -18.5zM526 123q69 0 126.5 14.5t101.5 40.5t79.5 67.5t61.5 88.5t47.5 111.5t36 128.5t29.5 147q34 189 34 307q0 82 -16 144.5t-53 112t-103.5 75.5t-160.5 26q-96 0 -170 -29.5t-123 -78t-86.5 -129.5t-59.5 -164.5t-43 -202.5
q-34 -189 -34 -307q0 -82 16 -143t52.5 -110t103 -74t161.5 -25zM750 1607l-211 318h162l176 -318h-127z" />
    <glyph glyph-name="Oacute" unicode="&#xd3;" horiz-adv-x="1232" 
d="M643 1608l291 317h172l-326 -317h-137zM520 -16q-110 0 -194.5 25t-138.5 67.5t-88 105.5t-48 133t-14 156q0 147 37 332q23 137 52 240t78.5 199.5t116 157.5t164.5 97.5t224 36.5q112 0 197.5 -25t140 -68t89 -107t48.5 -135t14 -159q0 -128 -35 -333
q-17 -97 -36.5 -173.5t-47.5 -154t-63 -135t-83 -108.5t-107 -83t-136.5 -50.5t-169.5 -18.5zM526 123q69 0 126.5 14.5t101.5 40.5t79.5 67.5t61.5 88.5t47.5 111.5t36 128.5t29.5 147q34 189 34 307q0 82 -16 144.5t-53 112t-103.5 75.5t-160.5 26q-96 0 -170 -29.5
t-123 -78t-86.5 -129.5t-59.5 -164.5t-43 -202.5q-34 -189 -34 -307q0 -82 16 -143t52.5 -110t103 -74t161.5 -25z" />
    <glyph glyph-name="Ocircumflex" unicode="&#xd4;" horiz-adv-x="1232" 
d="M463 1608l287 317h143l172 -317h-123l-139 211l-211 -211h-129zM520 -16q-110 0 -194.5 25t-138.5 67.5t-88 105.5t-48 133t-14 156q0 147 37 332q23 137 52 240t78.5 199.5t116 157.5t164.5 97.5t224 36.5q112 0 197.5 -25t140 -68t89 -107t48.5 -135t14 -159
q0 -128 -35 -333q-17 -97 -36.5 -173.5t-47.5 -154t-63 -135t-83 -108.5t-107 -83t-136.5 -50.5t-169.5 -18.5zM526 123q69 0 126.5 14.5t101.5 40.5t79.5 67.5t61.5 88.5t47.5 111.5t36 128.5t29.5 147q34 189 34 307q0 82 -16 144.5t-53 112t-103.5 75.5t-160.5 26
q-96 0 -170 -29.5t-123 -78t-86.5 -129.5t-59.5 -164.5t-43 -202.5q-34 -189 -34 -307q0 -82 16 -143t52.5 -110t103 -74t161.5 -25z" />
    <glyph glyph-name="Otilde" unicode="&#xd5;" horiz-adv-x="1232" 
d="M520 -16q-110 0 -194.5 25t-138.5 67.5t-88 105.5t-48 133t-14 156q0 147 37 332q23 137 52 240t78.5 199.5t116 157.5t164.5 97.5t224 36.5q112 0 197.5 -25t140 -68t89 -107t48.5 -135t14 -159q0 -128 -35 -333q-17 -97 -36.5 -173.5t-47.5 -154t-63 -135t-83 -108.5
t-107 -83t-136.5 -50.5t-169.5 -18.5zM526 123q69 0 126.5 14.5t101.5 40.5t79.5 67.5t61.5 88.5t47.5 111.5t36 128.5t29.5 147q34 189 34 307q0 82 -16 144.5t-53 112t-103.5 75.5t-160.5 26q-96 0 -170 -29.5t-123 -78t-86.5 -129.5t-59.5 -164.5t-43 -202.5
q-34 -189 -34 -307q0 -82 16 -143t52.5 -110t103 -74t161.5 -25zM543 1601l-98 66q90 141 209 141q42 0 88 -20t86.5 -40t68.5 -20q61 0 125 92l96 -63q-90 -152 -206 -152q-44 0 -90.5 20t-87 40t-70.5 20q-34 0 -62 -20.5t-59 -63.5z" />
    <glyph glyph-name="Odieresis" unicode="&#xd6;" horiz-adv-x="1232" 
d="M524 1608l33 194h137l-35 -194h-135zM872 1608l37 194h135l-34 -194h-138zM520 -16q-110 0 -194.5 25t-138.5 67.5t-88 105.5t-48 133t-14 156q0 147 37 332q23 137 52 240t78.5 199.5t116 157.5t164.5 97.5t224 36.5q112 0 197.5 -25t140 -68t89 -107t48.5 -135t14 -159
q0 -128 -35 -333q-17 -97 -36.5 -173.5t-47.5 -154t-63 -135t-83 -108.5t-107 -83t-136.5 -50.5t-169.5 -18.5zM526 123q69 0 126.5 14.5t101.5 40.5t79.5 67.5t61.5 88.5t47.5 111.5t36 128.5t29.5 147q34 189 34 307q0 82 -16 144.5t-53 112t-103.5 75.5t-160.5 26
q-96 0 -170 -29.5t-123 -78t-86.5 -129.5t-59.5 -164.5t-43 -202.5q-34 -189 -34 -307q0 -82 16 -143t52.5 -110t103 -74t161.5 -25z" />
    <glyph glyph-name="multiply" unicode="&#xd7;" horiz-adv-x="1128" 
d="M242 369l-78 94l301 258l-211 256l106 94l211 -258l303 258l78 -94l-303 -256l213 -256l-104 -94l-213 256z" />
    <glyph glyph-name="Oslash" unicode="&#xd8;" horiz-adv-x="1232" 
d="M520 -16q-150 0 -252 45l-67 -113h-150l109 182q-123 118 -123 373q0 147 37 332q23 137 52 240t78.5 199.5t116 157.5t164.5 97.5t224 36.5q155 0 258 -47l69 117h150l-115 -187q127 -119 127 -377q0 -128 -35 -333q-17 -97 -36.5 -173.5t-47.5 -154t-63 -135
t-83 -108.5t-107 -83t-136.5 -50.5t-169.5 -18.5zM524 117q98 0 172.5 29t124 77t87 128t59.5 164t43 204q34 192 34 313q0 163 -61 246l-649 -1124q73 -37 190 -37zM188 471q0 -154 58 -240l645 1125q-72 35 -182 35q-97 0 -171.5 -29.5t-124 -78.5t-87 -130t-60 -166
t-43.5 -205q-35 -220 -35 -311z" />
    <glyph glyph-name="Ugrave" unicode="&#xd9;" horiz-adv-x="1224" 
d="M539 -18q-248 0 -356.5 94.5t-108.5 275.5q0 76 16 170l176 996h154l-176 -996q-15 -80 -15 -143q0 -126 70 -191t244 -65q169 0 246.5 88.5t111.5 284.5l182 1022h148l-184 -1045q-21 -127 -57 -215.5t-95.5 -152t-147 -93.5t-208.5 -30zM744 1607l-211 318h162
l176 -318h-127z" />
    <glyph glyph-name="Uacute" unicode="&#xda;" horiz-adv-x="1224" 
d="M637 1608l291 317h172l-326 -317h-137zM539 -18q-248 0 -356.5 94.5t-108.5 275.5q0 76 16 170l176 996h154l-176 -996q-15 -80 -15 -143q0 -126 70 -191t244 -65q169 0 246.5 88.5t111.5 284.5l182 1022h148l-184 -1045q-21 -127 -57 -215.5t-95.5 -152t-147 -93.5
t-208.5 -30z" />
    <glyph glyph-name="Ucircumflex" unicode="&#xdb;" horiz-adv-x="1224" 
d="M457 1608l286 317h144l172 -317h-123l-139 211l-211 -211h-129zM539 -18q-248 0 -356.5 94.5t-108.5 275.5q0 76 16 170l176 996h154l-176 -996q-15 -80 -15 -143q0 -126 70 -191t244 -65q169 0 246.5 88.5t111.5 284.5l182 1022h148l-184 -1045q-21 -127 -57 -215.5
t-95.5 -152t-147 -93.5t-208.5 -30z" />
    <glyph glyph-name="Udieresis" unicode="&#xdc;" horiz-adv-x="1224" 
d="M518 1608l33 194h137l-35 -194h-135zM866 1608l37 194h135l-34 -194h-138zM539 -18q-248 0 -356.5 94.5t-108.5 275.5q0 76 16 170l176 996h154l-176 -996q-15 -80 -15 -143q0 -126 70 -191t244 -65q169 0 246.5 88.5t111.5 284.5l182 1022h148l-184 -1045
q-21 -127 -57 -215.5t-95.5 -152t-147 -93.5t-208.5 -30z" />
    <glyph glyph-name="Yacute" unicode="&#xdd;" horiz-adv-x="1101" 
d="M342 0l98 569l-282 949h161l226 -785l506 785h161l-618 -949l-98 -569h-154zM577 1607l291 318h172l-325 -318h-138z" />
    <glyph glyph-name="Thorn" unicode="&#xde;" horiz-adv-x="1081" 
d="M6 0l268 1518h152l-47 -263h227q247 0 352 -82.5t105 -254.5q0 -74 -14 -148q-40 -229 -148.5 -323.5t-312.5 -94.5h-369l-61 -352h-152zM244 483h344q134 0 206 63t101 234q14 63 14 115q0 116 -72 169.5t-235 53.5h-246z" />
    <glyph glyph-name="germandbls" unicode="&#xdf;" horiz-adv-x="1034" 
d="M-68 -324l269 1536q32 191 132.5 281t280.5 90q190 0 275.5 -74t85.5 -225q0 -41 -12 -131q-28 -154 -71.5 -231.5t-121.5 -106.5q83 -31 116.5 -98t33.5 -182q0 -65 -13 -148q-20 -114 -53.5 -187.5t-89.5 -118.5t-130.5 -63t-184.5 -18h-164l24 135h137
q149 -1 217.5 62t98.5 223q12 62 12 108q0 111 -62 164t-206 53h-27l23 129h69q101 0 158 57t82 204q12 64 12 112q0 101 -51.5 148t-165.5 47q-112 0 -175 -61t-87 -197l-264 -1508h-148z" />
    <glyph glyph-name="agrave" unicode="&#xe0;" horiz-adv-x="993" 
d="M297 -12q-156 0 -231.5 67.5t-75.5 204.5q0 142 35.5 239.5t108 152t167.5 77.5t229 23h150q8 43 10.5 72.5t0.5 62t-13.5 53t-33 38.5t-58.5 26t-88 8q-154 0 -248 -43l-47 125q127 55 313 55q71 0 125 -10t91 -27.5t60 -47.5t34.5 -63t12.5 -80.5t-4 -94.5t-16 -111
l-80 -465q-15 -69 -3 -93t75 -24l-23 -133q-16 -2 -47 -2q-77 0 -108 26.5t-29 79.5q-52 -59 -133 -87.5t-174 -28.5zM334 115q231 0 284 276l39 232h-120q-107 0 -177.5 -14t-123 -50.5t-76 -103t-23.5 -168.5q0 -90 49.5 -131t147.5 -41zM565 1249l-211 318h162l176 -318
h-127z" />
    <glyph glyph-name="aacute" unicode="&#xe1;" horiz-adv-x="993" 
d="M297 -12q-156 0 -231.5 67.5t-75.5 204.5q0 142 35.5 239.5t108 152t167.5 77.5t229 23h150q8 43 10.5 72.5t0.5 62t-13.5 53t-33 38.5t-58.5 26t-88 8q-154 0 -248 -43l-47 125q127 55 313 55q71 0 125 -10t91 -27.5t60 -47.5t34.5 -63t12.5 -80.5t-4 -94.5t-16 -111
l-80 -465q-15 -69 -3 -93t75 -24l-23 -133q-16 -2 -47 -2q-77 0 -108 26.5t-29 79.5q-52 -59 -133 -87.5t-174 -28.5zM334 115q231 0 284 276l39 232h-120q-107 0 -177.5 -14t-123 -50.5t-76 -103t-23.5 -168.5q0 -90 49.5 -131t147.5 -41zM458 1249l291 318h172l-325 -318
h-138z" />
    <glyph glyph-name="acircumflex" unicode="&#xe2;" horiz-adv-x="993" 
d="M297 -12q-156 0 -231.5 67.5t-75.5 204.5q0 142 35.5 239.5t108 152t167.5 77.5t229 23h150q8 43 10.5 72.5t0.5 62t-13.5 53t-33 38.5t-58.5 26t-88 8q-154 0 -248 -43l-47 125q127 55 313 55q71 0 125 -10t91 -27.5t60 -47.5t34.5 -63t12.5 -80.5t-4 -94.5t-16 -111
l-80 -465q-15 -69 -3 -93t75 -24l-23 -133q-16 -2 -47 -2q-77 0 -108 26.5t-29 79.5q-52 -59 -133 -87.5t-174 -28.5zM334 115q231 0 284 276l39 232h-120q-107 0 -177.5 -14t-123 -50.5t-76 -103t-23.5 -168.5q0 -90 49.5 -131t147.5 -41zM278 1249l287 318h143l172 -318
h-123l-139 211l-211 -211h-129z" />
    <glyph glyph-name="atilde" unicode="&#xe3;" horiz-adv-x="993" 
d="M297 -12q-156 0 -231.5 67.5t-75.5 204.5q0 142 35.5 239.5t108 152t167.5 77.5t229 23h150q8 43 10.5 72.5t0.5 62t-13.5 53t-33 38.5t-58.5 26t-88 8q-154 0 -248 -43l-47 125q127 55 313 55q71 0 125 -10t91 -27.5t60 -47.5t34.5 -63t12.5 -80.5t-4 -94.5t-16 -111
l-80 -465q-15 -69 -3 -93t75 -24l-23 -133q-16 -2 -47 -2q-77 0 -108 26.5t-29 79.5q-52 -59 -133 -87.5t-174 -28.5zM334 115q231 0 284 276l39 232h-120q-107 0 -177.5 -14t-123 -50.5t-76 -103t-23.5 -168.5q0 -90 49.5 -131t147.5 -41zM358 1243l-98 66q90 141 209 141
q42 0 88 -20t86.5 -40t68.5 -20q61 0 125 92l96 -63q-90 -152 -206 -152q-44 0 -90.5 20t-87 40t-70.5 20q-34 0 -62 -20.5t-59 -63.5z" />
    <glyph glyph-name="adieresis" unicode="&#xe4;" horiz-adv-x="993" 
d="M297 -12q-156 0 -231.5 67.5t-75.5 204.5q0 142 35.5 239.5t108 152t167.5 77.5t229 23h150q8 43 10.5 72.5t0.5 62t-13.5 53t-33 38.5t-58.5 26t-88 8q-154 0 -248 -43l-47 125q127 55 313 55q71 0 125 -10t91 -27.5t60 -47.5t34.5 -63t12.5 -80.5t-4 -94.5t-16 -111
l-80 -465q-15 -69 -3 -93t75 -24l-23 -133q-16 -2 -47 -2q-77 0 -108 26.5t-29 79.5q-52 -59 -133 -87.5t-174 -28.5zM334 115q231 0 284 276l39 232h-120q-107 0 -177.5 -14t-123 -50.5t-76 -103t-23.5 -168.5q0 -90 49.5 -131t147.5 -41zM340 1249l32 195h138l-35 -195
h-135zM688 1249l37 195h135l-35 -195h-137z" />
    <glyph glyph-name="aring" unicode="&#xe5;" horiz-adv-x="993" 
d="M297 -12q-156 0 -231.5 67.5t-75.5 204.5q0 142 35.5 239.5t108 152t167.5 77.5t229 23h150q8 43 10.5 72.5t0.5 62t-13.5 53t-33 38.5t-58.5 26t-88 8q-154 0 -248 -43l-47 125q127 55 313 55q71 0 125 -10t91 -27.5t60 -47.5t34.5 -63t12.5 -80.5t-4 -94.5t-16 -111
l-80 -465q-15 -69 -3 -93t75 -24l-23 -133q-16 -2 -47 -2q-77 0 -108 26.5t-29 79.5q-52 -59 -133 -87.5t-174 -28.5zM334 115q231 0 284 276l39 232h-120q-107 0 -177.5 -14t-123 -50.5t-76 -103t-23.5 -168.5q0 -90 49.5 -131t147.5 -41zM602 1323q64 0 100.5 49.5
t36.5 132.5q0 103 -100 103q-64 0 -100 -50.5t-36 -134.5q0 -45 24 -72.5t75 -27.5zM598 1237q-96 0 -140.5 49t-44.5 129q0 127 61 203t169 76q96 0 140 -50t44 -133q0 -124 -61.5 -199t-167.5 -75z" />
    <glyph glyph-name="ae" unicode="&#xe6;" horiz-adv-x="1533" 
d="M1008 -14q-148 0 -230 46.5t-114 135.5q-70 -97 -157.5 -138.5t-209.5 -41.5q-156 0 -231.5 67.5t-75.5 204.5q0 142 36 239.5t109 152t168 77.5t227 23h150q8 43 10.5 72.5t0.5 62t-13.5 53t-33 38.5t-58.5 26t-88 8q-154 0 -248 -43l-47 125q127 55 313 55
q133 0 203 -33.5t94 -101.5q111 133 309 133q188 0 264 -74.5t76 -216.5q0 -109 -47 -352h-637q-10 -88 -10 -144q0 -120 57 -181.5t197 -61.5q132 0 246 49l45 -119q-131 -61 -305 -61zM334 115q231 0 284 276l39 232h-120q-107 0 -177 -14t-122.5 -50.5t-76.5 -103
t-24 -168.5q0 -90 49.5 -131t147.5 -41zM1114 1014q-59 0 -105 -17.5t-77.5 -47t-56.5 -79t-41 -102.5t-31 -127h495q25 129 25 195q0 88 -45.5 133t-163.5 45z" />
    <glyph glyph-name="ccedilla" unicode="&#xe7;" horiz-adv-x="815" 
d="M268 -436q-123 0 -215 45l41 88q88 -39 166 -39q64 0 94.5 26.5t30.5 88.5q0 41 -34 56t-107 13l-37 31l45 125q-234 55 -234 356q0 95 27 250q48 280 154.5 411.5t320.5 131.5q180 0 285 -66l-84 -123q-78 50 -201 50q-143 0 -213.5 -101.5t-111.5 -322.5
q-23 -135 -23 -217q0 -123 55 -186.5t183 -63.5q96 0 192 37l41 -123q-119 -47 -256 -47q-31 0 -45 2l-25 -76q175 3 175 -137q0 -114 -55.5 -161.5t-168.5 -47.5z" />
    <glyph glyph-name="egrave" unicode="&#xe8;" horiz-adv-x="929" 
d="M403 -14q-109 0 -185 25.5t-118.5 76t-61 114.5t-18.5 150q0 111 25 252q48 274 156.5 408.5t314.5 134.5q99 0 167 -20.5t105.5 -60.5t53.5 -90.5t16 -119.5q0 -109 -47 -352h-635q-10 -66 -10 -144q0 -121 55.5 -182t194.5 -61q121 0 250 47l41 -123q-145 -55 -304 -55
zM510 1014q-74 0 -127 -25t-88 -77t-56.5 -115t-39.5 -156h491q25 150 25 195q0 89 -44 133.5t-161 44.5zM535 1249l-211 318h162l176 -318h-127z" />
    <glyph glyph-name="eacute" unicode="&#xe9;" horiz-adv-x="929" 
d="M428 1249l291 318h172l-326 -318h-137zM403 -14q-109 0 -185 25.5t-118.5 76t-61 114.5t-18.5 150q0 111 25 252q48 274 156.5 408.5t314.5 134.5q99 0 167 -20.5t105.5 -60.5t53.5 -90.5t16 -119.5q0 -109 -47 -352h-635q-10 -66 -10 -144q0 -121 55.5 -182t194.5 -61
q121 0 250 47l41 -123q-145 -55 -304 -55zM510 1014q-74 0 -127 -25t-88 -77t-56.5 -115t-39.5 -156h491q25 150 25 195q0 89 -44 133.5t-161 44.5z" />
    <glyph glyph-name="ecircumflex" unicode="&#xea;" horiz-adv-x="929" 
d="M248 1249l287 318h143l172 -318h-123l-139 211l-211 -211h-129zM403 -14q-109 0 -185 25.5t-118.5 76t-61 114.5t-18.5 150q0 111 25 252q48 274 156.5 408.5t314.5 134.5q99 0 167 -20.5t105.5 -60.5t53.5 -90.5t16 -119.5q0 -109 -47 -352h-635q-10 -66 -10 -144
q0 -121 55.5 -182t194.5 -61q121 0 250 47l41 -123q-145 -55 -304 -55zM510 1014q-74 0 -127 -25t-88 -77t-56.5 -115t-39.5 -156h491q25 150 25 195q0 89 -44 133.5t-161 44.5z" />
    <glyph glyph-name="edieresis" unicode="&#xeb;" horiz-adv-x="929" 
d="M309 1249l33 195h137l-35 -195h-135zM657 1249l37 195h135l-34 -195h-138zM403 -14q-109 0 -185 25.5t-118.5 76t-61 114.5t-18.5 150q0 111 25 252q48 274 156.5 408.5t314.5 134.5q99 0 167 -20.5t105.5 -60.5t53.5 -90.5t16 -119.5q0 -109 -47 -352h-635
q-10 -66 -10 -144q0 -121 55.5 -182t194.5 -61q121 0 250 47l41 -123q-145 -55 -304 -55zM510 1014q-74 0 -127 -25t-88 -77t-56.5 -115t-39.5 -156h491q25 150 25 195q0 89 -44 133.5t-161 44.5z" />
    <glyph glyph-name="igrave" unicode="&#xec;" horiz-adv-x="405" 
d="M207 1249l-135 318h164l100 -318h-129zM-4 0l201 1128h147l-199 -1128h-149z" />
    <glyph glyph-name="iacute" unicode="&#xed;" horiz-adv-x="405" 
d="M215 1249l229 318h172l-266 -318h-135zM-4 0l201 1128h147l-199 -1128h-149z" />
    <glyph glyph-name="icircumflex" unicode="&#xee;" horiz-adv-x="405" 
d="M12 1249l262 318h142l145 -318h-117l-116 211l-193 -211h-123zM-4 0l201 1128h147l-199 -1128h-149z" />
    <glyph glyph-name="idieresis" unicode="&#xef;" horiz-adv-x="405" 
d="M66 1249l34 195h123l-35 -195h-122zM389 1249l35 195h123l-35 -195h-123zM-4 0l201 1128h147l-199 -1128h-149z" />
    <glyph glyph-name="eth" unicode="&#xf0;" horiz-adv-x="1001" 
d="M514 1237l21 119l155 41q-43 69 -92 112l119 76q71 -65 117 -149l225 59l-21 -117l-159 -43q57 -160 57 -366q0 -186 -43 -420q-19 -110 -41 -189.5t-58.5 -154.5t-86 -120.5t-123.5 -73t-170 -27.5q-110 0 -188.5 27.5t-123 80t-64.5 118.5t-20 152q0 83 23 236
q21 121 53 209.5t84 161t132.5 110t187.5 37.5q230 0 290 -121q3 164 -49 301zM418 117q65 0 114.5 21t81.5 54.5t56.5 90t38.5 111.5t28 134q23 138 23 205q0 58 -11.5 101.5t-38 78.5t-75.5 53.5t-119 18.5q-66 0 -116.5 -21.5t-83 -55.5t-57 -90.5t-38.5 -111t-28 -133.5
q-23 -138 -23 -204q0 -120 55.5 -186t192.5 -66z" />
    <glyph glyph-name="ntilde" unicode="&#xf1;" horiz-adv-x="1009" 
d="M-12 0l196 1120l121 8l-10 -102q99 121 313 121q69 0 121 -12.5t85.5 -33t54 -54.5t29 -67.5t8 -82t-5.5 -88.5t-15 -96l-125 -713h-150l123 700q9 47 13.5 79t5.5 67t-5.5 57.5t-20 44t-37 33t-58.5 18.5t-82 7q-73 0 -124 -25t-86 -79.5t-56.5 -124t-40.5 -175.5
l-105 -602h-149zM367 1243l-98 66q90 141 209 141q42 0 88 -20t86.5 -40t68.5 -20q61 0 125 92l96 -63q-90 -152 -206 -152q-44 0 -90.5 20t-87 40t-70.5 20q-34 0 -62 -20.5t-59 -63.5z" />
    <glyph glyph-name="ograve" unicode="&#xf2;" horiz-adv-x="999" 
d="M397 -16q-105 0 -180 28.5t-117 82t-61 120.5t-19 154t25 233q23 130 57 224t90.5 169.5t143.5 113.5t205 38q105 0 179.5 -27.5t116 -79.5t60 -117t18.5 -151q0 -100 -24 -244q-19 -106 -42.5 -184t-62 -149t-90 -115.5t-127 -70t-172.5 -25.5zM406 117q56 0 100.5 13.5
t77.5 41.5t57 62.5t42.5 86.5t31 102t24.5 120q25 143 25 219q0 117 -53 181.5t-181 64.5q-68 0 -120.5 -23t-86.5 -58.5t-59.5 -94t-40 -114t-28.5 -134.5q-23 -125 -23 -211q0 -120 53.5 -188t180.5 -68zM567 1249l-211 318h162l176 -318h-127z" />
    <glyph glyph-name="oacute" unicode="&#xf3;" horiz-adv-x="999" 
d="M461 1249l291 318h172l-326 -318h-137zM397 -16q-105 0 -180 28.5t-117 82t-61 120.5t-19 154t25 233q23 130 57 224t90.5 169.5t143.5 113.5t205 38q105 0 179.5 -27.5t116 -79.5t60 -117t18.5 -151q0 -100 -24 -244q-19 -106 -42.5 -184t-62 -149t-90 -115.5t-127 -70
t-172.5 -25.5zM406 117q56 0 100.5 13.5t77.5 41.5t57 62.5t42.5 86.5t31 102t24.5 120q25 143 25 219q0 117 -53 181.5t-181 64.5q-68 0 -120.5 -23t-86.5 -58.5t-59.5 -94t-40 -114t-28.5 -134.5q-23 -125 -23 -211q0 -120 53.5 -188t180.5 -68z" />
    <glyph glyph-name="ocircumflex" unicode="&#xf4;" horiz-adv-x="999" 
d="M281 1249l286 318h144l172 -318h-123l-139 211l-211 -211h-129zM397 -16q-105 0 -180 28.5t-117 82t-61 120.5t-19 154t25 233q23 130 57 224t90.5 169.5t143.5 113.5t205 38q105 0 179.5 -27.5t116 -79.5t60 -117t18.5 -151q0 -100 -24 -244q-19 -106 -42.5 -184
t-62 -149t-90 -115.5t-127 -70t-172.5 -25.5zM406 117q56 0 100.5 13.5t77.5 41.5t57 62.5t42.5 86.5t31 102t24.5 120q25 143 25 219q0 117 -53 181.5t-181 64.5q-68 0 -120.5 -23t-86.5 -58.5t-59.5 -94t-40 -114t-28.5 -134.5q-23 -125 -23 -211q0 -120 53.5 -188
t180.5 -68z" />
    <glyph glyph-name="otilde" unicode="&#xf5;" horiz-adv-x="999" 
d="M397 -16q-105 0 -180 28.5t-117 82t-61 120.5t-19 154t25 233q23 130 57 224t90.5 169.5t143.5 113.5t205 38q105 0 179.5 -27.5t116 -79.5t60 -117t18.5 -151q0 -100 -24 -244q-19 -106 -42.5 -184t-62 -149t-90 -115.5t-127 -70t-172.5 -25.5zM406 117q56 0 100.5 13.5
t77.5 41.5t57 62.5t42.5 86.5t31 102t24.5 120q25 143 25 219q0 117 -53 181.5t-181 64.5q-68 0 -120.5 -23t-86.5 -58.5t-59.5 -94t-40 -114t-28.5 -134.5q-23 -125 -23 -211q0 -120 53.5 -188t180.5 -68zM360 1243l-98 66q90 141 209 141q42 0 88 -20t86.5 -40t68.5 -20
q61 0 125 92l96 -63q-90 -152 -206 -152q-44 0 -90.5 20t-87 40t-70.5 20q-34 0 -62 -20.5t-59 -63.5z" />
    <glyph glyph-name="odieresis" unicode="&#xf6;" horiz-adv-x="999" 
d="M342 1249l33 195h137l-35 -195h-135zM690 1249l37 195h135l-35 -195h-137zM397 -16q-105 0 -180 28.5t-117 82t-61 120.5t-19 154t25 233q23 130 57 224t90.5 169.5t143.5 113.5t205 38q105 0 179.5 -27.5t116 -79.5t60 -117t18.5 -151q0 -100 -24 -244
q-19 -106 -42.5 -184t-62 -149t-90 -115.5t-127 -70t-172.5 -25.5zM406 117q56 0 100.5 13.5t77.5 41.5t57 62.5t42.5 86.5t31 102t24.5 120q25 143 25 219q0 117 -53 181.5t-181 64.5q-68 0 -120.5 -23t-86.5 -58.5t-59.5 -94t-40 -114t-28.5 -134.5q-23 -125 -23 -211
q0 -120 53.5 -188t180.5 -68z" />
    <glyph glyph-name="divide" unicode="&#xf7;" horiz-adv-x="1128" 
d="M397 279l33 176h166l-33 -176h-166zM154 653l22 138h789l-25 -138h-786zM524 985l29 176h166l-29 -176h-166z" />
    <glyph glyph-name="oslash" unicode="&#xf8;" horiz-adv-x="999" 
d="M397 -16q-124 0 -207 39l-71 -111h-139l118 182q-78 93 -78 275q0 87 25 233q23 130 57 224t90.5 169.5t143.5 113.5t205 38q121 0 204 -39l70 106h139l-116 -176q77 -89 77 -266q0 -100 -24 -244q-19 -106 -42.5 -184t-62 -149t-90 -115.5t-127 -70t-172.5 -25.5z
M406 115q68 0 119.5 21t85 55.5t59.5 92.5t41 116t30 143q27 135 27 221q0 85 -25 139l-479 -756q56 -32 142 -32zM170 371q0 -88 25 -142l475 752q-54 31 -140 31q-68 0 -120.5 -23t-86.5 -58.5t-60 -95t-40.5 -115.5t-29.5 -136q-23 -150 -23 -213z" />
    <glyph glyph-name="ugrave" unicode="&#xf9;" horiz-adv-x="983" 
d="M395 -16q-130 0 -209.5 31t-111 88.5t-35 140.5t17.5 188l123 696h150l-123 -698q-8 -45 -11.5 -73.5t-5 -64.5t4.5 -58.5t20 -47t37.5 -37.5t60 -21.5t86.5 -8.5q71 0 115.5 14.5t73 51.5t42.5 82.5t29 125.5l129 735h148l-133 -747q-13 -74 -27.5 -127t-36.5 -99.5
t-51.5 -77t-71 -52.5t-96 -31.5t-125.5 -9.5zM559 1249l-211 318h162l176 -318h-127z" />
    <glyph glyph-name="uacute" unicode="&#xfa;" horiz-adv-x="983" 
d="M453 1249l290 318h172l-325 -318h-137zM395 -16q-130 0 -209.5 31t-111 88.5t-35 140.5t17.5 188l123 696h150l-123 -698q-8 -45 -11.5 -73.5t-5 -64.5t4.5 -58.5t20 -47t37.5 -37.5t60 -21.5t86.5 -8.5q71 0 115.5 14.5t73 51.5t42.5 82.5t29 125.5l129 735h148
l-133 -747q-13 -74 -27.5 -127t-36.5 -99.5t-51.5 -77t-71 -52.5t-96 -31.5t-125.5 -9.5z" />
    <glyph glyph-name="ucircumflex" unicode="&#xfb;" horiz-adv-x="983" 
d="M272 1249l287 318h143l172 -318h-122l-140 211l-211 -211h-129zM395 -16q-130 0 -209.5 31t-111 88.5t-35 140.5t17.5 188l123 696h150l-123 -698q-8 -45 -11.5 -73.5t-5 -64.5t4.5 -58.5t20 -47t37.5 -37.5t60 -21.5t86.5 -8.5q71 0 115.5 14.5t73 51.5t42.5 82.5
t29 125.5l129 735h148l-133 -747q-13 -74 -27.5 -127t-36.5 -99.5t-51.5 -77t-71 -52.5t-96 -31.5t-125.5 -9.5z" />
    <glyph glyph-name="udieresis" unicode="&#xfc;" horiz-adv-x="983" 
d="M334 1249l33 195h137l-35 -195h-135zM682 1249l37 195h135l-35 -195h-137zM395 -16q-130 0 -209.5 31t-111 88.5t-35 140.5t17.5 188l123 696h150l-123 -698q-8 -45 -11.5 -73.5t-5 -64.5t4.5 -58.5t20 -47t37.5 -37.5t60 -21.5t86.5 -8.5q71 0 115.5 14.5t73 51.5
t42.5 82.5t29 125.5l129 735h148l-133 -747q-13 -74 -27.5 -127t-36.5 -99.5t-51.5 -77t-71 -52.5t-96 -31.5t-125.5 -9.5z" />
    <glyph glyph-name="yacute" unicode="&#xfd;" horiz-adv-x="854" 
d="M-59 -324l20 125h82q50 0 75.5 17.5t47.5 64.5l55 117l-133 1128h154l94 -905l414 905h149l-608 -1282q-49 -100 -104 -135t-144 -35h-102zM391 1249l291 318h172l-325 -318h-138z" />
    <glyph glyph-name="thorn" unicode="&#xfe;" horiz-adv-x="1028" 
d="M-68 -324l334 1899h150l-94 -537q51 54 122.5 81.5t184.5 27.5q91 0 154.5 -25.5t98 -74.5t49.5 -109t15 -139q0 -113 -28 -271q-17 -99 -37 -173t-54 -147t-78 -119t-110 -74.5t-150 -28.5q-146 0 -222.5 37t-106.5 106l-78 -453h-150zM463 119q60 0 105.5 20.5t76 53.5
t54 89.5t38 114t29.5 142.5q27 138 27 229q0 115 -48.5 177.5t-164.5 62.5q-51 0 -93 -10.5t-73 -28.5t-56 -48.5t-42 -62t-31.5 -79t-24 -90t-20.5 -103.5q-25 -136 -25 -217q0 -121 54.5 -185.5t193.5 -64.5z" />
    <glyph glyph-name="ydieresis" unicode="&#xff;" horiz-adv-x="854" 
d="M-59 -324l20 125h82q50 0 75.5 17.5t47.5 64.5l55 117l-133 1128h154l94 -905l414 905h149l-608 -1282q-49 -100 -104 -135t-144 -35h-102zM273 1249l32 195h138l-35 -195h-135zM621 1249l37 195h135l-35 -195h-137z" />
    <glyph glyph-name="dotlessi" unicode="&#x131;" horiz-adv-x="405" 
d="M-4 0l201 1128h147l-199 -1128h-149z" />
    <glyph glyph-name="Lslash" unicode="&#x141;" horiz-adv-x="937" 
d="M-16 641l22 129l148 72l120 676h154l-104 -592l286 141l-22 -127l-287 -143l-117 -658h607l-25 -139h-760l125 715z" />
    <glyph glyph-name="lslash" unicode="&#x142;" horiz-adv-x="614" 
d="M57 836l23 131l184 96l92 512h150l-76 -426l205 108l-23 -133l-206 -106l-134 -758q-10 -46 -8 -74.5t29.5 -40.5t93.5 -12l-22 -133q-4 -2 -43 -2q-100 0 -149.5 27t-59 83.5t7.5 145.5l121 678z" />
    <glyph glyph-name="OE" unicode="&#x152;" horiz-adv-x="1884" 
d="M504 -12q-131 0 -224 36t-145 103.5t-75 151.5t-23 192q0 131 35 332q25 138 54 239.5t78.5 198t115.5 157t164 96.5t225 36q310 0 407 -193l33 181h760l-27 -142h-622l-91 -520h586l-26 -139h-586l-101 -578h627l-24 -139h-764l24 141q-147 -153 -401 -153zM524 123
q70 0 127.5 14.5t101.5 40.5t79.5 67.5t61 88.5t47 111.5t36 128.5t29.5 147q34 189 34 307q0 83 -15.5 145t-52 111.5t-102.5 75.5t-161 26q-69 0 -126.5 -15t-101.5 -41.5t-80 -68.5t-62 -89.5t-47.5 -112.5t-36 -129.5t-28.5 -147.5q-37 -205 -37 -307q0 -82 16 -143
t53 -110t103.5 -74t161.5 -25z" />
    <glyph glyph-name="oe" unicode="&#x153;" horiz-adv-x="1628" 
d="M1102 -14q-148 0 -230 47t-114 137q-53 -93 -139.5 -139.5t-221.5 -46.5q-105 0 -180 28.5t-117 82t-61 120.5t-19 154t25 233q23 130 57 224t90.5 169.5t143.5 113.5t205 38q142 0 220 -49t109 -142q112 191 347 191q190 0 266 -74.5t76 -216.5q0 -104 -48 -352h-637
q-10 -66 -10 -144q0 -120 57 -181.5t197 -61.5q133 0 244 49l45 -119q-131 -61 -305 -61zM406 117q56 0 100.5 13.5t77.5 41.5t57 62.5t42.5 86.5t31 102t24.5 120q25 143 25 219q0 117 -53 181.5t-181 64.5q-68 0 -120.5 -23t-86.5 -58.5t-59.5 -94t-40 -114t-28.5 -134.5
q-23 -125 -23 -211q0 -120 53.5 -188t180.5 -68zM1208 1014q-74 0 -126.5 -25t-87.5 -77.5t-56.5 -115t-40.5 -157.5h496q24 144 24 197q0 89 -45 133.5t-164 44.5z" />
    <glyph glyph-name="Scaron" unicode="&#x160;" horiz-adv-x="1046" 
d="M602 1608l-174 317h125l137 -211l213 211h127l-287 -317h-141zM426 -16q-278 0 -475 135l84 117q183 -119 393 -119q150 0 235 76.5t85 224.5q0 54 -17 96.5t-56 80.5t-83 67t-119 71q-150 83 -222.5 166.5t-72.5 206.5q0 206 125.5 317t329.5 111q230 0 387 -90
l-74 -129q-133 76 -319 76q-141 0 -218 -73t-77 -200q0 -84 49 -138t182 -132q73 -42 117.5 -71.5t91.5 -69t72 -77t41 -87.5t16 -109q0 -112 -35.5 -199t-100 -141.5t-150 -82t-189.5 -27.5z" />
    <glyph glyph-name="scaron" unicode="&#x161;" horiz-adv-x="768" 
d="M403 1249l-174 318h125l138 -211l213 211h126l-286 -318h-142zM289 -14q-212 0 -369 96l80 115q127 -84 293 -84q89 0 145 46.5t56 151.5q0 66 -39.5 108.5t-145.5 108.5q-117 74 -172 138t-55 157q0 84 28 148t77 101.5t109.5 56t131.5 18.5q186 0 305 -70l-76 -119
q-102 58 -237 58q-91 0 -141 -47.5t-50 -137.5q0 -30 12.5 -55.5t42 -51.5t54.5 -44t74 -49q116 -72 170.5 -142t54.5 -172q0 -91 -29.5 -157.5t-80.5 -103t-110 -53.5t-128 -17z" />
    <glyph glyph-name="Ydieresis" unicode="&#x178;" horiz-adv-x="1101" 
d="M342 0l98 569l-282 949h161l226 -785l506 785h161l-618 -949l-98 -569h-154zM459 1607l32 195h138l-35 -195h-135zM807 1607l37 195h135l-35 -195h-137z" />
    <glyph glyph-name="Zcaron" unicode="&#x17d;" horiz-adv-x="1040" 
d="M598 1608l-174 317h125l137 -211l213 211h127l-287 -317h-141zM-63 0l20 123l913 1253h-661l24 142h850l-24 -129l-912 -1250h709l-22 -139h-897z" />
    <glyph glyph-name="zcaron" unicode="&#x17e;" horiz-adv-x="786" 
d="M412 1249l-174 318h124l138 -211l213 211h127l-287 -318h-141zM-86 0l18 109l650 888h-461l24 131h643l-18 -106l-653 -897h512l-23 -125h-692z" />
    <glyph glyph-name="florin" unicode="&#x192;" horiz-adv-x="872" 
d="M125 788l25 134h188l51 290q8 45 14 72.5t17 63.5t23.5 58t33.5 46t47 36.5t63 21t83 8.5q11 0 55.5 -1t50.5 -1l-24 -132h-70q-33 0 -56.5 -10t-37.5 -23.5t-24 -39.5t-14.5 -46.5t-10.5 -56.5q-1 -8 -2 -12l-50 -274h285l-27 -134h-280l-197 -1112h-149l194 1112h-188z
" />
    <glyph glyph-name="circumflex" unicode="&#x2c6;" 
d="M260 1249l287 318h143l172 -318h-123l-139 211l-211 -211h-129z" />
    <glyph glyph-name="caron" unicode="&#x2c7;" 
d="M494 1249l-175 318h125l138 -211l213 211h127l-287 -318h-141z" />
    <glyph glyph-name="breve" unicode="&#x2d8;" 
d="M600 1241q-91 0 -150.5 19t-89 58t-41 81t-14.5 106l117 17q3 -79 41 -120.5t139 -41.5q154 0 201 168l115 -21q-74 -266 -318 -266z" />
    <glyph glyph-name="dotaccent" unicode="&#x2d9;" 
d="M487 1249l39 211h152l-39 -211h-152z" />
    <glyph glyph-name="ring" unicode="&#x2da;" 
d="M584 1323q64 0 100.5 49.5t36.5 132.5q0 103 -100 103q-64 0 -100 -50.5t-36 -134.5q0 -45 24 -72.5t75 -27.5zM580 1237q-96 0 -140.5 49t-44.5 129q0 127 61 203t169 76q96 0 140 -50t44 -133q0 -124 -61.5 -199t-167.5 -75z" />
    <glyph glyph-name="ogonek" unicode="&#x2db;" horiz-adv-x="956" 
d="M328 -430q-226 0 -226 147q0 56 23 107.5t61 90t74.5 65.5t75.5 47h129q-236 -148 -236 -281q0 -72 115 -72h45l-20 -104h-41z" />
    <glyph glyph-name="tilde" unicode="&#x2dc;" 
d="M340 1243l-98 66q90 141 209 141q42 0 88 -20t86.5 -40t68.5 -20q61 0 125 92l96 -63q-90 -152 -206 -152q-44 0 -90.5 20t-87 40t-70.5 20q-34 0 -62 -20.5t-59 -63.5z" />
    <glyph glyph-name="hungarumlaut" unicode="&#x2dd;" 
d="M279 1249l284 318h160l-322 -318h-122zM637 1249l285 318h159l-319 -318h-125z" />
    <glyph glyph-name="Delta" unicode="&#x394;" horiz-adv-x="1017" 
d="M84 997l27 131h170l30 175q26 145 99.5 210.5t232.5 65.5h98l-24 -133h-80q-50 0 -83.5 -12t-52.5 -39.5t-28 -54.5t-18 -74l-25 -138h234l-27 -131h-231l-232 -1321h-149l231 1321h-172zM428 -324l23 125h14q67 0 92 27.5t39 108.5l211 1191h149l-215 -1214
q-25 -140 -81 -189t-199 -49h-33zM831 1280l39 213h150l-37 -213h-152z" />
    <glyph glyph-name="Delta" unicode="&#x2206;" horiz-adv-x="1017" 
d="M84 997l27 131h170l30 175q26 145 99.5 210.5t232.5 65.5h98l-24 -133h-80q-50 0 -83.5 -12t-52.5 -39.5t-28 -54.5t-18 -74l-25 -138h234l-27 -131h-231l-232 -1321h-149l231 1321h-172zM428 -324l23 125h14q67 0 92 27.5t39 108.5l211 1191h149l-215 -1214
q-25 -140 -81 -189t-199 -49h-33zM831 1280l39 213h150l-37 -213h-152z" />
    <glyph glyph-name="Omega" unicode="&#x3a9;" horiz-adv-x="1703" 
d="M258 246q-88 105 -136 237t-48 277q0 144 48 276t136 236q6 -4 14 -12q-85 -103 -131.5 -231.5t-46.5 -268.5q0 -285 180 -500zM467 432q-117 143 -117 328q0 183 115 327q3 -2 8 -7t8 -7q-110 -136 -110 -313q0 -182 110 -314zM541 498q-92 116 -92 262t92 262
q3 -2 8 -7t8 -7q-88 -109 -88 -248t88 -248q-3 -2 -8 -7t-8 -7zM647 592q-57 72 -57 168q0 97 57 166l15 -15q-52 -69 -52 -151q0 -84 54 -154q-3 -2 -8.5 -7t-8.5 -7zM715 655q-33 48 -33 105q0 56 33 104q3 -2 8 -7t8 -7q-29 -44 -29 -90t29 -90q-3 -2 -16 -15zM774 709
q-14 25 -14 51t14 51l12 -10q-10 -20 -10 -41t10 -41q-4 -4 -12 -10zM852 123q-236 0 -412 158l2.5 2.5l5 5l5.5 5.5t2 1q171 -152 397 -152q227 0 395 152q2 -3 7.5 -8t7.5 -8q-177 -156 -410 -156zM852 664q-31 0 -55 18l12 12q21 -14 43 -14q26 0 43 14q4 -4 10 -12
q-21 -18 -53 -18zM987 653q-7 10 -14 15q28 42 28 92q0 51 -28 90l2.5 2.5t5 4.5t5.5 5t1 2q35 -44 35 -104t-35 -107zM598 551q-72 91 -72 209q0 119 74 209l14 -15q-67 -87 -67 -194q0 -108 67 -195q-10 -10 -16 -14zM852 -35q-145 0 -278 52.5t-238 146.5l14 16
q102 -92 231 -143t271 -51q285 0 500 192q0 1 3.5 -2.5t6.5 -7.5l4 -4q-104 -95 -236 -147t-278 -52zM852 248q-189 0 -330 125l15 16q134 -121 315 -121q182 0 313 121q2 -3 7.5 -8t7.5 -8q-138 -125 -328 -125zM852 348q-145 0 -264 101l14 14q108 -94 250 -94
q143 0 248 94q2 -3 7 -8.5t7 -8.5q-112 -98 -262 -98zM852 428q-116 0 -211 78l14 16q86 -73 197 -73t197 73q4 -4 12 -16q-91 -78 -209 -78zM852 543q-77 0 -135 49l14 16q51 -45 121 -45q68 0 119 45q2 -3 7 -8t7 -8q-58 -49 -133 -49zM733 911q-4 3 -7 6.5t-6 6.5l-3 4
q58 49 135 49t135 -49l-16 -17q-51 45 -119 45t-119 -45zM1167 1130q-134 121 -315 121q-179 0 -313 -118l-15 14q141 125 328 125q189 0 330 -125q-4 -6 -15 -17zM930 709l-12 10q10 20 10 41t-10 41l12 10q14 -25 14 -51t-14 -51zM958 682q-10 10 -16 14q21 32 21 64
t-21 63l16 15q25 -36 25 -78t-25 -78zM1020 627q-6 4 -16 14q38 50 38 119t-38 119l14 14q45 -57 45 -133q0 -71 -43 -133zM1106 551q-3 2 -8 7t-8 7q67 87 67 195t-70 194l17 15q74 -90 74 -209q0 -118 -72 -209zM1163 498q-10 10 -16 14q88 109 88 248t-88 248l16 14
q92 -116 92 -262t-92 -262zM1237 432q-6 4 -16 14q112 134 112 314q0 182 -112 313l16 14q117 -139 117 -327q0 -189 -117 -328zM1329 350q-2 2 -7 6t-7 6q141 175 141 398q0 227 -143 395l16 14q148 -179 148 -409q0 -231 -148 -410zM1446 246q-6 6 -16 14q180 215 180 500
t-180 500l16 14q88 -105 136 -237t48 -277q0 -144 -48 -276t-136 -238zM375 348q-148 182 -148 412q0 229 146 409q2 -2 7.5 -6.5t8.5 -7.5q-141 -170 -141 -395q0 -228 141 -398zM684 627q-43 59 -43 133t43 133q6 -4 16 -14q-38 -50 -38 -119q0 -67 38 -117zM745 682
q-24 34 -24 78t24 78q2 -3 4.5 -5.5t6 -5.5t4.5 -4q-19 -34 -19 -63q0 -30 19 -64zM809 825l-10 13q21 18 53 18t53 -18l-10 -13q-23 15 -43 15q-25 0 -43 -15zM786 852l-14 14q37 29 80 29q41 0 78 -29q-8 -8 -12 -14q-28 25 -66 25q-34 0 -66 -25zM760 881l-15 16
q45 39 107 39q61 0 106 -39l-14 -16q-37 34 -92 34t-92 -34zM604 1057l-14 16q112 98 262 98q151 0 262 -100q1 0 -2 -3.5t-6 -7.5l-4 -3q-108 94 -250 94q-143 0 -248 -94zM852 492q-100 0 -170 61l14 16q70 -57 156 -57q87 0 154 57l14 -14q-73 -63 -168 -63zM852 584
q-61 0 -109 39l15 16q47 -35 94 -35q51 0 92 35l14 -16q-45 -39 -106 -39zM852 625q-43 0 -82 28l14 15q36 -25 68 -25q34 0 66 25l14 -15q-36 -28 -80 -28zM698 950l-14 15q73 63 168 63q98 0 168 -61l-14 -17q-68 58 -154 58q-87 0 -154 -58zM655 997l-14 17q91 78 211 78
q119 0 209 -80l-12 -15q-83 74 -197 74q-110 0 -197 -74zM1249 1223q-166 153 -397 153q-227 0 -397 -151l-15 14q179 158 412 158t412 -158zM352 1339l-14 17q104 95 236 146.5t278 51.5q145 0 278 -52t238 -146l-14 -17q-102 93 -231 144t-271 51t-270 -51t-230 -144z
M1057 594l-15 14q52 69 52 152t-54 153l17 15q57 -72 57 -168q0 -97 -57 -166z" />
    <glyph glyph-name="Omega" unicode="&#x2126;" horiz-adv-x="1703" 
d="M258 246q-88 105 -136 237t-48 277q0 144 48 276t136 236q6 -4 14 -12q-85 -103 -131.5 -231.5t-46.5 -268.5q0 -285 180 -500zM467 432q-117 143 -117 328q0 183 115 327q3 -2 8 -7t8 -7q-110 -136 -110 -313q0 -182 110 -314zM541 498q-92 116 -92 262t92 262
q3 -2 8 -7t8 -7q-88 -109 -88 -248t88 -248q-3 -2 -8 -7t-8 -7zM647 592q-57 72 -57 168q0 97 57 166l15 -15q-52 -69 -52 -151q0 -84 54 -154q-3 -2 -8.5 -7t-8.5 -7zM715 655q-33 48 -33 105q0 56 33 104q3 -2 8 -7t8 -7q-29 -44 -29 -90t29 -90q-3 -2 -16 -15zM774 709
q-14 25 -14 51t14 51l12 -10q-10 -20 -10 -41t10 -41q-4 -4 -12 -10zM852 123q-236 0 -412 158l2.5 2.5l5 5l5.5 5.5t2 1q171 -152 397 -152q227 0 395 152q2 -3 7.5 -8t7.5 -8q-177 -156 -410 -156zM852 664q-31 0 -55 18l12 12q21 -14 43 -14q26 0 43 14q4 -4 10 -12
q-21 -18 -53 -18zM987 653q-7 10 -14 15q28 42 28 92q0 51 -28 90l2.5 2.5t5 4.5t5.5 5t1 2q35 -44 35 -104t-35 -107zM598 551q-72 91 -72 209q0 119 74 209l14 -15q-67 -87 -67 -194q0 -108 67 -195q-10 -10 -16 -14zM852 -35q-145 0 -278 52.5t-238 146.5l14 16
q102 -92 231 -143t271 -51q285 0 500 192q0 1 3.5 -2.5t6.5 -7.5l4 -4q-104 -95 -236 -147t-278 -52zM852 248q-189 0 -330 125l15 16q134 -121 315 -121q182 0 313 121q2 -3 7.5 -8t7.5 -8q-138 -125 -328 -125zM852 348q-145 0 -264 101l14 14q108 -94 250 -94
q143 0 248 94q2 -3 7 -8.5t7 -8.5q-112 -98 -262 -98zM852 428q-116 0 -211 78l14 16q86 -73 197 -73t197 73q4 -4 12 -16q-91 -78 -209 -78zM852 543q-77 0 -135 49l14 16q51 -45 121 -45q68 0 119 45q2 -3 7 -8t7 -8q-58 -49 -133 -49zM733 911q-4 3 -7 6.5t-6 6.5l-3 4
q58 49 135 49t135 -49l-16 -17q-51 45 -119 45t-119 -45zM1167 1130q-134 121 -315 121q-179 0 -313 -118l-15 14q141 125 328 125q189 0 330 -125q-4 -6 -15 -17zM930 709l-12 10q10 20 10 41t-10 41l12 10q14 -25 14 -51t-14 -51zM958 682q-10 10 -16 14q21 32 21 64
t-21 63l16 15q25 -36 25 -78t-25 -78zM1020 627q-6 4 -16 14q38 50 38 119t-38 119l14 14q45 -57 45 -133q0 -71 -43 -133zM1106 551q-3 2 -8 7t-8 7q67 87 67 195t-70 194l17 15q74 -90 74 -209q0 -118 -72 -209zM1163 498q-10 10 -16 14q88 109 88 248t-88 248l16 14
q92 -116 92 -262t-92 -262zM1237 432q-6 4 -16 14q112 134 112 314q0 182 -112 313l16 14q117 -139 117 -327q0 -189 -117 -328zM1329 350q-2 2 -7 6t-7 6q141 175 141 398q0 227 -143 395l16 14q148 -179 148 -409q0 -231 -148 -410zM1446 246q-6 6 -16 14q180 215 180 500
t-180 500l16 14q88 -105 136 -237t48 -277q0 -144 -48 -276t-136 -238zM375 348q-148 182 -148 412q0 229 146 409q2 -2 7.5 -6.5t8.5 -7.5q-141 -170 -141 -395q0 -228 141 -398zM684 627q-43 59 -43 133t43 133q6 -4 16 -14q-38 -50 -38 -119q0 -67 38 -117zM745 682
q-24 34 -24 78t24 78q2 -3 4.5 -5.5t6 -5.5t4.5 -4q-19 -34 -19 -63q0 -30 19 -64zM809 825l-10 13q21 18 53 18t53 -18l-10 -13q-23 15 -43 15q-25 0 -43 -15zM786 852l-14 14q37 29 80 29q41 0 78 -29q-8 -8 -12 -14q-28 25 -66 25q-34 0 -66 -25zM760 881l-15 16
q45 39 107 39q61 0 106 -39l-14 -16q-37 34 -92 34t-92 -34zM604 1057l-14 16q112 98 262 98q151 0 262 -100q1 0 -2 -3.5t-6 -7.5l-4 -3q-108 94 -250 94q-143 0 -248 -94zM852 492q-100 0 -170 61l14 16q70 -57 156 -57q87 0 154 57l14 -14q-73 -63 -168 -63zM852 584
q-61 0 -109 39l15 16q47 -35 94 -35q51 0 92 35l14 -16q-45 -39 -106 -39zM852 625q-43 0 -82 28l14 15q36 -25 68 -25q34 0 66 25l14 -15q-36 -28 -80 -28zM698 950l-14 15q73 63 168 63q98 0 168 -61l-14 -17q-68 58 -154 58q-87 0 -154 -58zM655 997l-14 17q91 78 211 78
q119 0 209 -80l-12 -15q-83 74 -197 74q-110 0 -197 -74zM1249 1223q-166 153 -397 153q-227 0 -397 -151l-15 14q179 158 412 158t412 -158zM352 1339l-14 17q104 95 236 146.5t278 51.5q145 0 278 -52t238 -146l-14 -17q-102 93 -231 144t-271 51t-270 -51t-230 -144z
M1057 594l-15 14q52 69 52 152t-54 153l17 15q57 -72 57 -168q0 -97 -57 -166z" />
    <glyph glyph-name="pi" unicode="&#x3c0;" horiz-adv-x="1366" 
d="M686 -20q-137 0 -240.5 37.5t-170.5 103t-108.5 165t-58 213.5t-16.5 259t16.5 259.5t58 215t108.5 166.5t170.5 103.5t240.5 37.5t240.5 -37.5t170.5 -103.5t109 -166t59 -215t17 -260q0 -144 -17 -258.5t-59 -214t-109 -165t-170.5 -103t-240.5 -37.5zM686 51
q121 0 212 34t149.5 94t95 150.5t51 194t14.5 234.5q0 132 -14.5 236.5t-51 195t-95.5 150.5t-149.5 94t-211.5 34t-211.5 -34t-148.5 -93.5t-93.5 -151t-50 -195t-14.5 -236.5q0 -109 10 -198t33 -170.5t62.5 -142t96 -105.5t136 -68t180.5 -23zM420 233v1037h330
q161 0 229 -71t68 -234q0 -162 -68 -235t-229 -73h-226v-424h-104zM524 745h224q105 0 149.5 49t44.5 167q0 120 -44.5 168.5t-149.5 48.5h-224v-433z" />
    <glyph glyph-name="endash" unicode="&#x2013;" horiz-adv-x="1112" 
d="M49 563l25 137h948l-23 -137h-950z" />
    <glyph glyph-name="emdash" unicode="&#x2014;" horiz-adv-x="1468" 
d="M49 563l25 137h1302l-22 -137h-1305z" />
    <glyph glyph-name="quoteleft" unicode="&#x2018;" horiz-adv-x="409" 
d="M166 1065l37 211q19 102 58.5 154t135.5 92l31 -80q-63 -34 -87.5 -63t-33.5 -83h88l-41 -231h-188z" />
    <glyph glyph-name="quoteright" unicode="&#x2019;" horiz-adv-x="409" 
d="M201 1061l-31 80q66 34 91 63.5t32 83.5h-88l41 230h188l-39 -209q-18 -103 -57.5 -155.5t-136.5 -92.5z" />
    <glyph glyph-name="quotesinglbase" unicode="&#x201a;" horiz-adv-x="409" 
d="M-25 -227l-30 82q64 32 88 60.5t33 84.5h-89l41 229h189l-37 -209q-19 -103 -59 -155t-136 -92z" />
    <glyph glyph-name="quotedblleft" unicode="&#x201c;" horiz-adv-x="720" 
d="M166 1073l37 209q19 101 58 151t134 89l29 -76q-62 -34 -86.5 -63.5t-34.5 -84.5h88l-39 -225h-186zM481 1073l37 209q19 101 57.5 151t133.5 89l30 -76q-63 -34 -87.5 -63.5t-33.5 -84.5h87l-39 -225h-185z" />
    <glyph glyph-name="quotedblright" unicode="&#x201d;" horiz-adv-x="718" 
d="M201 1069l-31 78q65 32 89.5 60.5t33.5 82.5h-88l41 228h184l-39 -209q-15 -101 -54 -151t-136 -89zM516 1069l-29 78q63 32 86.5 60.5t32.5 82.5h-88l43 228h184l-38 -209q-15 -100 -55 -150t-136 -90z" />
    <glyph glyph-name="quotedblbase" unicode="&#x201e;" horiz-adv-x="718" 
d="M63 -221l-32 78q59 33 79 61.5t23 83.5h-86l23 227h184l-21 -209q-8 -102 -42 -152t-128 -89zM377 -221l-33 78q61 34 81.5 62.5t23.5 82.5h-89l23 227h186l-20 -209q-9 -102 -44 -152t-128 -89z" />
    <glyph glyph-name="dagger" unicode="&#x2020;" horiz-adv-x="897" 
d="M184 -324l230 1299h-283l27 139h280l82 461h148l-80 -461h282l-26 -139h-283l-229 -1299h-148z" />
    <glyph glyph-name="daggerdbl" unicode="&#x2021;" horiz-adv-x="897" 
d="M184 -324l88 490h-282l24 139h281l121 676h-283l25 139h280l82 455h148l-80 -455h282l-24 -139h-283l-119 -676h283l-25 -139h-282l-88 -490h-148z" />
    <glyph glyph-name="bullet" unicode="&#x2022;" horiz-adv-x="577" 
d="M111 463l55 319h254l-55 -319h-254z" />
    <glyph glyph-name="ellipsis" unicode="&#x2026;" horiz-adv-x="1165" 
d="M-23 0l39 219h189l-39 -219h-189zM356 0l39 219h187l-37 -219h-189zM733 0l41 219h187l-41 -219h-187z" />
    <glyph glyph-name="perthousand" unicode="&#x2030;" horiz-adv-x="2500" 
d="M379 580q-140 0 -208.5 72t-68.5 225q0 66 21 206q23 129 57.5 217.5t82.5 138.5t103.5 71.5t129.5 21.5q141 0 209.5 -72.5t68.5 -226.5q0 -84 -22 -207q-22 -130 -56.5 -218t-83 -137.5t-104 -70t-129.5 -20.5zM379 696q97 0 149 72.5t86 269.5q23 109 23 191
q0 95 -35.5 137.5t-112.5 42.5q-92 0 -143 -76t-86 -268q-20 -109 -20 -188q0 -94 33.5 -137.5t105.5 -43.5zM1274 -16q-141 0 -209 72.5t-68 226.5q0 76 23 204q23 130 57 219t82 140t103.5 72.5t128.5 21.5q140 0 209 -73.5t69 -227.5q0 -97 -22 -207q-22 -130 -56.5 -218
t-83 -138t-104 -71t-129.5 -21zM1274 102q97 0 150 73t87 269q21 114 21 191q0 95 -35 137.5t-111 42.5q-94 0 -145 -76.5t-86 -269.5q-20 -123 -20 -186q0 -93 34 -137t105 -44zM2005 -16q-139 0 -206.5 72.5t-67.5 226.5q0 81 22 204q23 130 57 219t82 140t103.5 72.5
t128.5 21.5q140 0 209 -73.5t69 -227.5q0 -81 -22 -207q-23 -130 -57 -218t-82.5 -138t-104.5 -71t-131 -21zM2005 102q98 0 151 73t89 269q20 109 20 191q0 94 -35.5 137t-109.5 43q-95 0 -146 -76t-86 -270q-22 -116 -22 -186q0 -181 139 -181zM354 0l924 1518h141
l-925 -1518h-140z" />
    <glyph glyph-name="guilsinglleft" unicode="&#x2039;" horiz-adv-x="702" 
d="M254 0l-145 563l346 565h135l-334 -565l135 -563h-137z" />
    <glyph glyph-name="guilsinglright" unicode="&#x203a;" horiz-adv-x="702" 
d="M45 0l336 565l-135 563h137l145 -563l-344 -565h-139z" />
    <glyph glyph-name="fraction" unicode="&#x2044;" horiz-adv-x="811" 
d="M-125 0l924 1518h137l-922 -1518h-139z" />
    <glyph glyph-name="fraction" unicode="&#x2215;" horiz-adv-x="811" 
d="M-125 0l924 1518h137l-922 -1518h-139z" />
    <glyph glyph-name="Euro" unicode="&#x20ac;" horiz-adv-x="1079" 
d="M80 856l22 125h174q70 298 183 425.5t321 127.5q202 0 348 -98l-86 -121q-112 74 -268 74q-142 0 -216.5 -93t-127.5 -315h438l-22 -125h-443q-10 -62 -12 -76q-15 -85 -16 -96h442l-22 -125h-437q-8 -68 -8 -139q0 -151 58 -224t194 -73q105 0 229 57l58 -119
q-148 -77 -305 -77q-207 0 -296 102.5t-89 314.5q0 82 8 158h-180l22 125h172q19 109 19 111q2 10 5 30.5t5 30.5h-170z" />
    <glyph glyph-name="trademark" unicode="&#x2122;" horiz-adv-x="1724" 
d="M743 578l166 940h127l109 -750l373 750h131l-168 -940h-113l123 696l-344 -696h-76l-98 696l-123 -696h-107zM305 578l150 833h-258l18 107h635l-21 -107h-258l-147 -833h-119z" />
    <glyph glyph-name="partialdiff" unicode="&#x2202;" horiz-adv-x="1703" 
d="M258 246q-88 105 -136 237t-48 277q0 144 48 276t136 236q6 -4 14 -12q-85 -103 -131.5 -231.5t-46.5 -268.5q0 -285 180 -500zM467 432q-117 143 -117 328q0 183 115 327q3 -2 8 -7t8 -7q-110 -136 -110 -313q0 -182 110 -314zM541 498q-92 116 -92 262t92 262
q3 -2 8 -7t8 -7q-88 -109 -88 -248t88 -248q-3 -2 -8 -7t-8 -7zM647 592q-57 72 -57 168q0 97 57 166l15 -15q-52 -69 -52 -151q0 -84 54 -154q-3 -2 -8.5 -7t-8.5 -7zM715 655q-33 48 -33 105q0 56 33 104q3 -2 8 -7t8 -7q-29 -44 -29 -90t29 -90q-3 -2 -16 -15zM774 709
q-14 25 -14 51t14 51l12 -10q-10 -20 -10 -41t10 -41q-4 -4 -12 -10zM852 123q-236 0 -412 158l2.5 2.5l5 5l5.5 5.5t2 1q171 -152 397 -152q227 0 395 152q2 -3 7.5 -8t7.5 -8q-177 -156 -410 -156zM852 664q-31 0 -55 18l12 12q21 -14 43 -14q26 0 43 14q4 -4 10 -12
q-21 -18 -53 -18zM987 653q-7 10 -14 15q28 42 28 92q0 51 -28 90l2.5 2.5t5 4.5t5.5 5t1 2q35 -44 35 -104t-35 -107zM598 551q-72 91 -72 209q0 119 74 209l14 -15q-67 -87 -67 -194q0 -108 67 -195q-10 -10 -16 -14zM852 -35q-145 0 -278 52.5t-238 146.5l14 16
q102 -92 231 -143t271 -51q285 0 500 192q0 1 3.5 -2.5t6.5 -7.5l4 -4q-104 -95 -236 -147t-278 -52zM852 248q-189 0 -330 125l15 16q134 -121 315 -121q182 0 313 121q2 -3 7.5 -8t7.5 -8q-138 -125 -328 -125zM852 348q-145 0 -264 101l14 14q108 -94 250 -94
q143 0 248 94q2 -3 7 -8.5t7 -8.5q-112 -98 -262 -98zM852 428q-116 0 -211 78l14 16q86 -73 197 -73t197 73q4 -4 12 -16q-91 -78 -209 -78zM852 543q-77 0 -135 49l14 16q51 -45 121 -45q68 0 119 45q2 -3 7 -8t7 -8q-58 -49 -133 -49zM733 911q-4 3 -7 6.5t-6 6.5l-3 4
q58 49 135 49t135 -49l-16 -17q-51 45 -119 45t-119 -45zM1167 1130q-134 121 -315 121q-179 0 -313 -118l-15 14q141 125 328 125q189 0 330 -125q-4 -6 -15 -17zM930 709l-12 10q10 20 10 41t-10 41l12 10q14 -25 14 -51t-14 -51zM958 682q-10 10 -16 14q21 32 21 64
t-21 63l16 15q25 -36 25 -78t-25 -78zM1020 627q-6 4 -16 14q38 50 38 119t-38 119l14 14q45 -57 45 -133q0 -71 -43 -133zM1106 551q-3 2 -8 7t-8 7q67 87 67 195t-70 194l17 15q74 -90 74 -209q0 -118 -72 -209zM1163 498q-10 10 -16 14q88 109 88 248t-88 248l16 14
q92 -116 92 -262t-92 -262zM1237 432q-6 4 -16 14q112 134 112 314q0 182 -112 313l16 14q117 -139 117 -327q0 -189 -117 -328zM1329 350q-2 2 -7 6t-7 6q141 175 141 398q0 227 -143 395l16 14q148 -179 148 -409q0 -231 -148 -410zM1446 246q-6 6 -16 14q180 215 180 500
t-180 500l16 14q88 -105 136 -237t48 -277q0 -144 -48 -276t-136 -238zM375 348q-148 182 -148 412q0 229 146 409q2 -2 7.5 -6.5t8.5 -7.5q-141 -170 -141 -395q0 -228 141 -398zM684 627q-43 59 -43 133t43 133q6 -4 16 -14q-38 -50 -38 -119q0 -67 38 -117zM745 682
q-24 34 -24 78t24 78q2 -3 4.5 -5.5t6 -5.5t4.5 -4q-19 -34 -19 -63q0 -30 19 -64zM809 825l-10 13q21 18 53 18t53 -18l-10 -13q-23 15 -43 15q-25 0 -43 -15zM786 852l-14 14q37 29 80 29q41 0 78 -29q-8 -8 -12 -14q-28 25 -66 25q-34 0 -66 -25zM760 881l-15 16
q45 39 107 39q61 0 106 -39l-14 -16q-37 34 -92 34t-92 -34zM604 1057l-14 16q112 98 262 98q151 0 262 -100q1 0 -2 -3.5t-6 -7.5l-4 -3q-108 94 -250 94q-143 0 -248 -94zM852 492q-100 0 -170 61l14 16q70 -57 156 -57q87 0 154 57l14 -14q-73 -63 -168 -63zM852 584
q-61 0 -109 39l15 16q47 -35 94 -35q51 0 92 35l14 -16q-45 -39 -106 -39zM852 625q-43 0 -82 28l14 15q36 -25 68 -25q34 0 66 25l14 -15q-36 -28 -80 -28zM698 950l-14 15q73 63 168 63q98 0 168 -61l-14 -17q-68 58 -154 58q-87 0 -154 -58zM655 997l-14 17q91 78 211 78
q119 0 209 -80l-12 -15q-83 74 -197 74q-110 0 -197 -74zM1249 1223q-166 153 -397 153q-227 0 -397 -151l-15 14q179 158 412 158t412 -158zM352 1339l-14 17q104 95 236 146.5t278 51.5q145 0 278 -52t238 -146l-14 -17q-102 93 -231 144t-271 51t-270 -51t-230 -144z
M1057 594l-15 14q52 69 52 152t-54 153l17 15q57 -72 57 -168q0 -97 -57 -166z" />
    <glyph glyph-name="product" unicode="&#x220f;" horiz-adv-x="1703" 
d="M258 246q-88 105 -136 237t-48 277q0 144 48 276t136 236q6 -4 14 -12q-85 -103 -131.5 -231.5t-46.5 -268.5q0 -285 180 -500zM467 432q-117 143 -117 328q0 183 115 327q3 -2 8 -7t8 -7q-110 -136 -110 -313q0 -182 110 -314zM541 498q-92 116 -92 262t92 262
q3 -2 8 -7t8 -7q-88 -109 -88 -248t88 -248q-3 -2 -8 -7t-8 -7zM647 592q-57 72 -57 168q0 97 57 166l15 -15q-52 -69 -52 -151q0 -84 54 -154q-3 -2 -8.5 -7t-8.5 -7zM715 655q-33 48 -33 105q0 56 33 104q3 -2 8 -7t8 -7q-29 -44 -29 -90t29 -90q-3 -2 -16 -15zM774 709
q-14 25 -14 51t14 51l12 -10q-10 -20 -10 -41t10 -41q-4 -4 -12 -10zM852 123q-236 0 -412 158l2.5 2.5l5 5l5.5 5.5t2 1q171 -152 397 -152q227 0 395 152q2 -3 7.5 -8t7.5 -8q-177 -156 -410 -156zM852 664q-31 0 -55 18l12 12q21 -14 43 -14q26 0 43 14q4 -4 10 -12
q-21 -18 -53 -18zM987 653q-7 10 -14 15q28 42 28 92q0 51 -28 90l2.5 2.5t5 4.5t5.5 5t1 2q35 -44 35 -104t-35 -107zM598 551q-72 91 -72 209q0 119 74 209l14 -15q-67 -87 -67 -194q0 -108 67 -195q-10 -10 -16 -14zM852 -35q-145 0 -278 52.5t-238 146.5l14 16
q102 -92 231 -143t271 -51q285 0 500 192q0 1 3.5 -2.5t6.5 -7.5l4 -4q-104 -95 -236 -147t-278 -52zM852 248q-189 0 -330 125l15 16q134 -121 315 -121q182 0 313 121q2 -3 7.5 -8t7.5 -8q-138 -125 -328 -125zM852 348q-145 0 -264 101l14 14q108 -94 250 -94
q143 0 248 94q2 -3 7 -8.5t7 -8.5q-112 -98 -262 -98zM852 428q-116 0 -211 78l14 16q86 -73 197 -73t197 73q4 -4 12 -16q-91 -78 -209 -78zM852 543q-77 0 -135 49l14 16q51 -45 121 -45q68 0 119 45q2 -3 7 -8t7 -8q-58 -49 -133 -49zM733 911q-4 3 -7 6.5t-6 6.5l-3 4
q58 49 135 49t135 -49l-16 -17q-51 45 -119 45t-119 -45zM1167 1130q-134 121 -315 121q-179 0 -313 -118l-15 14q141 125 328 125q189 0 330 -125q-4 -6 -15 -17zM930 709l-12 10q10 20 10 41t-10 41l12 10q14 -25 14 -51t-14 -51zM958 682q-10 10 -16 14q21 32 21 64
t-21 63l16 15q25 -36 25 -78t-25 -78zM1020 627q-6 4 -16 14q38 50 38 119t-38 119l14 14q45 -57 45 -133q0 -71 -43 -133zM1106 551q-3 2 -8 7t-8 7q67 87 67 195t-70 194l17 15q74 -90 74 -209q0 -118 -72 -209zM1163 498q-10 10 -16 14q88 109 88 248t-88 248l16 14
q92 -116 92 -262t-92 -262zM1237 432q-6 4 -16 14q112 134 112 314q0 182 -112 313l16 14q117 -139 117 -327q0 -189 -117 -328zM1329 350q-2 2 -7 6t-7 6q141 175 141 398q0 227 -143 395l16 14q148 -179 148 -409q0 -231 -148 -410zM1446 246q-6 6 -16 14q180 215 180 500
t-180 500l16 14q88 -105 136 -237t48 -277q0 -144 -48 -276t-136 -238zM375 348q-148 182 -148 412q0 229 146 409q2 -2 7.5 -6.5t8.5 -7.5q-141 -170 -141 -395q0 -228 141 -398zM684 627q-43 59 -43 133t43 133q6 -4 16 -14q-38 -50 -38 -119q0 -67 38 -117zM745 682
q-24 34 -24 78t24 78q2 -3 4.5 -5.5t6 -5.5t4.5 -4q-19 -34 -19 -63q0 -30 19 -64zM809 825l-10 13q21 18 53 18t53 -18l-10 -13q-23 15 -43 15q-25 0 -43 -15zM786 852l-14 14q37 29 80 29q41 0 78 -29q-8 -8 -12 -14q-28 25 -66 25q-34 0 -66 -25zM760 881l-15 16
q45 39 107 39q61 0 106 -39l-14 -16q-37 34 -92 34t-92 -34zM604 1057l-14 16q112 98 262 98q151 0 262 -100q1 0 -2 -3.5t-6 -7.5l-4 -3q-108 94 -250 94q-143 0 -248 -94zM852 492q-100 0 -170 61l14 16q70 -57 156 -57q87 0 154 57l14 -14q-73 -63 -168 -63zM852 584
q-61 0 -109 39l15 16q47 -35 94 -35q51 0 92 35l14 -16q-45 -39 -106 -39zM852 625q-43 0 -82 28l14 15q36 -25 68 -25q34 0 66 25l14 -15q-36 -28 -80 -28zM698 950l-14 15q73 63 168 63q98 0 168 -61l-14 -17q-68 58 -154 58q-87 0 -154 -58zM655 997l-14 17q91 78 211 78
q119 0 209 -80l-12 -15q-83 74 -197 74q-110 0 -197 -74zM1249 1223q-166 153 -397 153q-227 0 -397 -151l-15 14q179 158 412 158t412 -158zM352 1339l-14 17q104 95 236 146.5t278 51.5q145 0 278 -52t238 -146l-14 -17q-102 93 -231 144t-271 51t-270 -51t-230 -144z
M1057 594l-15 14q52 69 52 152t-54 153l17 15q57 -72 57 -168q0 -97 -57 -166z" />
    <glyph glyph-name="summation" unicode="&#x2211;" horiz-adv-x="1703" 
d="M258 246q-88 105 -136 237t-48 277q0 144 48 276t136 236q6 -4 14 -12q-85 -103 -131.5 -231.5t-46.5 -268.5q0 -285 180 -500zM467 432q-117 143 -117 328q0 183 115 327q3 -2 8 -7t8 -7q-110 -136 -110 -313q0 -182 110 -314zM541 498q-92 116 -92 262t92 262
q3 -2 8 -7t8 -7q-88 -109 -88 -248t88 -248q-3 -2 -8 -7t-8 -7zM647 592q-57 72 -57 168q0 97 57 166l15 -15q-52 -69 -52 -151q0 -84 54 -154q-3 -2 -8.5 -7t-8.5 -7zM715 655q-33 48 -33 105q0 56 33 104q3 -2 8 -7t8 -7q-29 -44 -29 -90t29 -90q-3 -2 -16 -15zM774 709
q-14 25 -14 51t14 51l12 -10q-10 -20 -10 -41t10 -41q-4 -4 -12 -10zM852 123q-236 0 -412 158l2.5 2.5l5 5l5.5 5.5t2 1q171 -152 397 -152q227 0 395 152q2 -3 7.5 -8t7.5 -8q-177 -156 -410 -156zM852 664q-31 0 -55 18l12 12q21 -14 43 -14q26 0 43 14q4 -4 10 -12
q-21 -18 -53 -18zM987 653q-7 10 -14 15q28 42 28 92q0 51 -28 90l2.5 2.5t5 4.5t5.5 5t1 2q35 -44 35 -104t-35 -107zM598 551q-72 91 -72 209q0 119 74 209l14 -15q-67 -87 -67 -194q0 -108 67 -195q-10 -10 -16 -14zM852 -35q-145 0 -278 52.5t-238 146.5l14 16
q102 -92 231 -143t271 -51q285 0 500 192q0 1 3.5 -2.5t6.5 -7.5l4 -4q-104 -95 -236 -147t-278 -52zM852 248q-189 0 -330 125l15 16q134 -121 315 -121q182 0 313 121q2 -3 7.5 -8t7.5 -8q-138 -125 -328 -125zM852 348q-145 0 -264 101l14 14q108 -94 250 -94
q143 0 248 94q2 -3 7 -8.5t7 -8.5q-112 -98 -262 -98zM852 428q-116 0 -211 78l14 16q86 -73 197 -73t197 73q4 -4 12 -16q-91 -78 -209 -78zM852 543q-77 0 -135 49l14 16q51 -45 121 -45q68 0 119 45q2 -3 7 -8t7 -8q-58 -49 -133 -49zM733 911q-4 3 -7 6.5t-6 6.5l-3 4
q58 49 135 49t135 -49l-16 -17q-51 45 -119 45t-119 -45zM1167 1130q-134 121 -315 121q-179 0 -313 -118l-15 14q141 125 328 125q189 0 330 -125q-4 -6 -15 -17zM930 709l-12 10q10 20 10 41t-10 41l12 10q14 -25 14 -51t-14 -51zM958 682q-10 10 -16 14q21 32 21 64
t-21 63l16 15q25 -36 25 -78t-25 -78zM1020 627q-6 4 -16 14q38 50 38 119t-38 119l14 14q45 -57 45 -133q0 -71 -43 -133zM1106 551q-3 2 -8 7t-8 7q67 87 67 195t-70 194l17 15q74 -90 74 -209q0 -118 -72 -209zM1163 498q-10 10 -16 14q88 109 88 248t-88 248l16 14
q92 -116 92 -262t-92 -262zM1237 432q-6 4 -16 14q112 134 112 314q0 182 -112 313l16 14q117 -139 117 -327q0 -189 -117 -328zM1329 350q-2 2 -7 6t-7 6q141 175 141 398q0 227 -143 395l16 14q148 -179 148 -409q0 -231 -148 -410zM1446 246q-6 6 -16 14q180 215 180 500
t-180 500l16 14q88 -105 136 -237t48 -277q0 -144 -48 -276t-136 -238zM375 348q-148 182 -148 412q0 229 146 409q2 -2 7.5 -6.5t8.5 -7.5q-141 -170 -141 -395q0 -228 141 -398zM684 627q-43 59 -43 133t43 133q6 -4 16 -14q-38 -50 -38 -119q0 -67 38 -117zM745 682
q-24 34 -24 78t24 78q2 -3 4.5 -5.5t6 -5.5t4.5 -4q-19 -34 -19 -63q0 -30 19 -64zM809 825l-10 13q21 18 53 18t53 -18l-10 -13q-23 15 -43 15q-25 0 -43 -15zM786 852l-14 14q37 29 80 29q41 0 78 -29q-8 -8 -12 -14q-28 25 -66 25q-34 0 -66 -25zM760 881l-15 16
q45 39 107 39q61 0 106 -39l-14 -16q-37 34 -92 34t-92 -34zM604 1057l-14 16q112 98 262 98q151 0 262 -100q1 0 -2 -3.5t-6 -7.5l-4 -3q-108 94 -250 94q-143 0 -248 -94zM852 492q-100 0 -170 61l14 16q70 -57 156 -57q87 0 154 57l14 -14q-73 -63 -168 -63zM852 584
q-61 0 -109 39l15 16q47 -35 94 -35q51 0 92 35l14 -16q-45 -39 -106 -39zM852 625q-43 0 -82 28l14 15q36 -25 68 -25q34 0 66 25l14 -15q-36 -28 -80 -28zM698 950l-14 15q73 63 168 63q98 0 168 -61l-14 -17q-68 58 -154 58q-87 0 -154 -58zM655 997l-14 17q91 78 211 78
q119 0 209 -80l-12 -15q-83 74 -197 74q-110 0 -197 -74zM1249 1223q-166 153 -397 153q-227 0 -397 -151l-15 14q179 158 412 158t412 -158zM352 1339l-14 17q104 95 236 146.5t278 51.5q145 0 278 -52t238 -146l-14 -17q-102 93 -231 144t-271 51t-270 -51t-230 -144z
M1057 594l-15 14q52 69 52 152t-54 153l17 15q57 -72 57 -168q0 -97 -57 -166z" />
    <glyph glyph-name="minus" unicode="&#x2212;" horiz-adv-x="1128" 
d="M156 653l22 133h783l-23 -133h-782z" />
    <glyph glyph-name="radical" unicode="&#x221a;" horiz-adv-x="1069" 
d="M225 -8l-112 846h153l74 -637l625 1317h149l-733 -1526h-156z" />
    <glyph glyph-name="infinity" unicode="&#x221e;" horiz-adv-x="1544" 
d="M551 -324l231 1321h-376l-232 -1321h-149l231 1321h-172l27 131h170l30 175q26 145 99.5 210.5t232.5 65.5h98l-24 -133h-80q-50 0 -83.5 -12t-52.5 -39.5t-28 -54.5t-18 -74l-25 -138h377l31 175q17 97 52 155.5t102.5 89.5t174.5 31h101l-25 -133h-82q-40 0 -69.5 -9
t-47.5 -23t-30.5 -39.5t-19 -48.5t-13.5 -60l-25 -138h232l-25 -131h-231l-232 -1321h-149zM1133 0l198 1128h152l-201 -1128h-149zM1358 1280l37 213h151l-39 -213h-149z" />
    <glyph glyph-name="integral" unicode="&#x222b;" horiz-adv-x="1703" 
d="M258 246q-88 105 -136 237t-48 277q0 144 48 276t136 236q6 -4 14 -12q-85 -103 -131.5 -231.5t-46.5 -268.5q0 -285 180 -500zM467 432q-117 143 -117 328q0 183 115 327q3 -2 8 -7t8 -7q-110 -136 -110 -313q0 -182 110 -314zM541 498q-92 116 -92 262t92 262
q3 -2 8 -7t8 -7q-88 -109 -88 -248t88 -248q-3 -2 -8 -7t-8 -7zM647 592q-57 72 -57 168q0 97 57 166l15 -15q-52 -69 -52 -151q0 -84 54 -154q-3 -2 -8.5 -7t-8.5 -7zM715 655q-33 48 -33 105q0 56 33 104q3 -2 8 -7t8 -7q-29 -44 -29 -90t29 -90q-3 -2 -16 -15zM774 709
q-14 25 -14 51t14 51l12 -10q-10 -20 -10 -41t10 -41q-4 -4 -12 -10zM852 123q-236 0 -412 158l2.5 2.5l5 5l5.5 5.5t2 1q171 -152 397 -152q227 0 395 152q2 -3 7.5 -8t7.5 -8q-177 -156 -410 -156zM852 664q-31 0 -55 18l12 12q21 -14 43 -14q26 0 43 14q4 -4 10 -12
q-21 -18 -53 -18zM987 653q-7 10 -14 15q28 42 28 92q0 51 -28 90l2.5 2.5t5 4.5t5.5 5t1 2q35 -44 35 -104t-35 -107zM598 551q-72 91 -72 209q0 119 74 209l14 -15q-67 -87 -67 -194q0 -108 67 -195q-10 -10 -16 -14zM852 -35q-145 0 -278 52.5t-238 146.5l14 16
q102 -92 231 -143t271 -51q285 0 500 192q0 1 3.5 -2.5t6.5 -7.5l4 -4q-104 -95 -236 -147t-278 -52zM852 248q-189 0 -330 125l15 16q134 -121 315 -121q182 0 313 121q2 -3 7.5 -8t7.5 -8q-138 -125 -328 -125zM852 348q-145 0 -264 101l14 14q108 -94 250 -94
q143 0 248 94q2 -3 7 -8.5t7 -8.5q-112 -98 -262 -98zM852 428q-116 0 -211 78l14 16q86 -73 197 -73t197 73q4 -4 12 -16q-91 -78 -209 -78zM852 543q-77 0 -135 49l14 16q51 -45 121 -45q68 0 119 45q2 -3 7 -8t7 -8q-58 -49 -133 -49zM733 911q-4 3 -7 6.5t-6 6.5l-3 4
q58 49 135 49t135 -49l-16 -17q-51 45 -119 45t-119 -45zM1167 1130q-134 121 -315 121q-179 0 -313 -118l-15 14q141 125 328 125q189 0 330 -125q-4 -6 -15 -17zM930 709l-12 10q10 20 10 41t-10 41l12 10q14 -25 14 -51t-14 -51zM958 682q-10 10 -16 14q21 32 21 64
t-21 63l16 15q25 -36 25 -78t-25 -78zM1020 627q-6 4 -16 14q38 50 38 119t-38 119l14 14q45 -57 45 -133q0 -71 -43 -133zM1106 551q-3 2 -8 7t-8 7q67 87 67 195t-70 194l17 15q74 -90 74 -209q0 -118 -72 -209zM1163 498q-10 10 -16 14q88 109 88 248t-88 248l16 14
q92 -116 92 -262t-92 -262zM1237 432q-6 4 -16 14q112 134 112 314q0 182 -112 313l16 14q117 -139 117 -327q0 -189 -117 -328zM1329 350q-2 2 -7 6t-7 6q141 175 141 398q0 227 -143 395l16 14q148 -179 148 -409q0 -231 -148 -410zM1446 246q-6 6 -16 14q180 215 180 500
t-180 500l16 14q88 -105 136 -237t48 -277q0 -144 -48 -276t-136 -238zM375 348q-148 182 -148 412q0 229 146 409q2 -2 7.5 -6.5t8.5 -7.5q-141 -170 -141 -395q0 -228 141 -398zM684 627q-43 59 -43 133t43 133q6 -4 16 -14q-38 -50 -38 -119q0 -67 38 -117zM745 682
q-24 34 -24 78t24 78q2 -3 4.5 -5.5t6 -5.5t4.5 -4q-19 -34 -19 -63q0 -30 19 -64zM809 825l-10 13q21 18 53 18t53 -18l-10 -13q-23 15 -43 15q-25 0 -43 -15zM786 852l-14 14q37 29 80 29q41 0 78 -29q-8 -8 -12 -14q-28 25 -66 25q-34 0 -66 -25zM760 881l-15 16
q45 39 107 39q61 0 106 -39l-14 -16q-37 34 -92 34t-92 -34zM604 1057l-14 16q112 98 262 98q151 0 262 -100q1 0 -2 -3.5t-6 -7.5l-4 -3q-108 94 -250 94q-143 0 -248 -94zM852 492q-100 0 -170 61l14 16q70 -57 156 -57q87 0 154 57l14 -14q-73 -63 -168 -63zM852 584
q-61 0 -109 39l15 16q47 -35 94 -35q51 0 92 35l14 -16q-45 -39 -106 -39zM852 625q-43 0 -82 28l14 15q36 -25 68 -25q34 0 66 25l14 -15q-36 -28 -80 -28zM698 950l-14 15q73 63 168 63q98 0 168 -61l-14 -17q-68 58 -154 58q-87 0 -154 -58zM655 997l-14 17q91 78 211 78
q119 0 209 -80l-12 -15q-83 74 -197 74q-110 0 -197 -74zM1249 1223q-166 153 -397 153q-227 0 -397 -151l-15 14q179 158 412 158t412 -158zM352 1339l-14 17q104 95 236 146.5t278 51.5q145 0 278 -52t238 -146l-14 -17q-102 93 -231 144t-271 51t-270 -51t-230 -144z
M1057 594l-15 14q52 69 52 152t-54 153l17 15q57 -72 57 -168q0 -97 -57 -166z" />
    <glyph glyph-name="approxequal" unicode="&#x2248;" horiz-adv-x="1130" 
d="M270 801l-98 63q88 144 221 144q64 0 199 -40t180 -40q75 0 139 92l99 -64q-45 -74 -103.5 -113.5t-120.5 -39.5q-67 0 -200.5 41t-177.5 41q-78 0 -138 -84zM203 416l-97 63q92 146 222 146q62 0 197 -41t180 -41q75 0 139 92l98 -64q-92 -151 -223 -151
q-66 0 -199.5 40t-179.5 40q-77 0 -137 -84z" />
    <glyph glyph-name="notequal" unicode="&#x2260;" horiz-adv-x="1167" 
d="M551 -324l231 1321h-376l-232 -1321h-149l231 1321h-172l27 131h170l30 175q26 145 99.5 210.5t232.5 65.5h98l-24 -133h-80q-50 0 -83.5 -12t-52.5 -39.5t-28 -54.5t-18 -74l-25 -138h377l31 175q26 146 99.5 211t236.5 65q104 0 116 -2l-24 -131h-97q-53 0 -87.5 -12
t-54 -39.5t-28.5 -54.5t-18 -74l-25 -138h254l-22 -131h-256l-232 -1321h-149z" />
    <glyph glyph-name="lessequal" unicode="&#x2264;" horiz-adv-x="1128" 
d="M803 250l-651 409l20 111l793 410l-23 -148l-631 -319l516 -316zM41 33l22 133h723l-22 -133h-723z" />
    <glyph glyph-name="greaterequal" unicode="&#x2265;" horiz-adv-x="1128" 
d="M150 250l24 149l629 318l-514 319l22 144l652 -410l-19 -111zM111 33l24 133h721l-22 -133h-723z" />
    <glyph glyph-name="lozenge" unicode="&#x25ca;" horiz-adv-x="1224" 
d="M887 -4q-114 0 -171.5 34.5t-67.5 102.5t7 170l123 694h-372l-232 -1321h-149l231 1321h-172l27 131h170l30 175q26 145 99.5 210.5t232.5 65.5h84l-25 -133h-65q-50 0 -83.5 -12t-52.5 -39.5t-28 -54.5t-18 -74l-25 -138h375l80 316l123 26l-62 -342h266l-24 -131h-264
l-121 -700q-17 -88 4 -126t113 -38h116l-24 -133q-36 -4 -125 -4z" />
    <glyph glyph-name="apple" unicode="&#xf8ff;" horiz-adv-x="1703" 
d="M258 246q-88 105 -136 237t-48 277q0 144 48 276t136 236q6 -4 14 -12q-85 -103 -131.5 -231.5t-46.5 -268.5q0 -285 180 -500zM467 432q-117 143 -117 328q0 183 115 327q3 -2 8 -7t8 -7q-110 -136 -110 -313q0 -182 110 -314zM541 498q-92 116 -92 262t92 262
q3 -2 8 -7t8 -7q-88 -109 -88 -248t88 -248q-3 -2 -8 -7t-8 -7zM647 592q-57 72 -57 168q0 97 57 166l15 -15q-52 -69 -52 -151q0 -84 54 -154q-3 -2 -8.5 -7t-8.5 -7zM715 655q-33 48 -33 105q0 56 33 104q3 -2 8 -7t8 -7q-29 -44 -29 -90t29 -90q-3 -2 -16 -15zM774 709
q-14 25 -14 51t14 51l12 -10q-10 -20 -10 -41t10 -41q-4 -4 -12 -10zM852 123q-236 0 -412 158l2.5 2.5l5 5l5.5 5.5t2 1q171 -152 397 -152q227 0 395 152q2 -3 7.5 -8t7.5 -8q-177 -156 -410 -156zM852 664q-31 0 -55 18l12 12q21 -14 43 -14q26 0 43 14q4 -4 10 -12
q-21 -18 -53 -18zM987 653q-7 10 -14 15q28 42 28 92q0 51 -28 90l2.5 2.5t5 4.5t5.5 5t1 2q35 -44 35 -104t-35 -107zM598 551q-72 91 -72 209q0 119 74 209l14 -15q-67 -87 -67 -194q0 -108 67 -195q-10 -10 -16 -14zM852 -35q-145 0 -278 52.5t-238 146.5l14 16
q102 -92 231 -143t271 -51q285 0 500 192q0 1 3.5 -2.5t6.5 -7.5l4 -4q-104 -95 -236 -147t-278 -52zM852 248q-189 0 -330 125l15 16q134 -121 315 -121q182 0 313 121q2 -3 7.5 -8t7.5 -8q-138 -125 -328 -125zM852 348q-145 0 -264 101l14 14q108 -94 250 -94
q143 0 248 94q2 -3 7 -8.5t7 -8.5q-112 -98 -262 -98zM852 428q-116 0 -211 78l14 16q86 -73 197 -73t197 73q4 -4 12 -16q-91 -78 -209 -78zM852 543q-77 0 -135 49l14 16q51 -45 121 -45q68 0 119 45q2 -3 7 -8t7 -8q-58 -49 -133 -49zM733 911q-4 3 -7 6.5t-6 6.5l-3 4
q58 49 135 49t135 -49l-16 -17q-51 45 -119 45t-119 -45zM1167 1130q-134 121 -315 121q-179 0 -313 -118l-15 14q141 125 328 125q189 0 330 -125q-4 -6 -15 -17zM930 709l-12 10q10 20 10 41t-10 41l12 10q14 -25 14 -51t-14 -51zM958 682q-10 10 -16 14q21 32 21 64
t-21 63l16 15q25 -36 25 -78t-25 -78zM1020 627q-6 4 -16 14q38 50 38 119t-38 119l14 14q45 -57 45 -133q0 -71 -43 -133zM1106 551q-3 2 -8 7t-8 7q67 87 67 195t-70 194l17 15q74 -90 74 -209q0 -118 -72 -209zM1163 498q-10 10 -16 14q88 109 88 248t-88 248l16 14
q92 -116 92 -262t-92 -262zM1237 432q-6 4 -16 14q112 134 112 314q0 182 -112 313l16 14q117 -139 117 -327q0 -189 -117 -328zM1329 350q-2 2 -7 6t-7 6q141 175 141 398q0 227 -143 395l16 14q148 -179 148 -409q0 -231 -148 -410zM1446 246q-6 6 -16 14q180 215 180 500
t-180 500l16 14q88 -105 136 -237t48 -277q0 -144 -48 -276t-136 -238zM375 348q-148 182 -148 412q0 229 146 409q2 -2 7.5 -6.5t8.5 -7.5q-141 -170 -141 -395q0 -228 141 -398zM684 627q-43 59 -43 133t43 133q6 -4 16 -14q-38 -50 -38 -119q0 -67 38 -117zM745 682
q-24 34 -24 78t24 78q2 -3 4.5 -5.5t6 -5.5t4.5 -4q-19 -34 -19 -63q0 -30 19 -64zM809 825l-10 13q21 18 53 18t53 -18l-10 -13q-23 15 -43 15q-25 0 -43 -15zM786 852l-14 14q37 29 80 29q41 0 78 -29q-8 -8 -12 -14q-28 25 -66 25q-34 0 -66 -25zM760 881l-15 16
q45 39 107 39q61 0 106 -39l-14 -16q-37 34 -92 34t-92 -34zM604 1057l-14 16q112 98 262 98q151 0 262 -100q1 0 -2 -3.5t-6 -7.5l-4 -3q-108 94 -250 94q-143 0 -248 -94zM852 492q-100 0 -170 61l14 16q70 -57 156 -57q87 0 154 57l14 -14q-73 -63 -168 -63zM852 584
q-61 0 -109 39l15 16q47 -35 94 -35q51 0 92 35l14 -16q-45 -39 -106 -39zM852 625q-43 0 -82 28l14 15q36 -25 68 -25q34 0 66 25l14 -15q-36 -28 -80 -28zM698 950l-14 15q73 63 168 63q98 0 168 -61l-14 -17q-68 58 -154 58q-87 0 -154 -58zM655 997l-14 17q91 78 211 78
q119 0 209 -80l-12 -15q-83 74 -197 74q-110 0 -197 -74zM1249 1223q-166 153 -397 153q-227 0 -397 -151l-15 14q179 158 412 158t412 -158zM352 1339l-14 17q104 95 236 146.5t278 51.5q145 0 278 -52t238 -146l-14 -17q-102 93 -231 144t-271 51t-270 -51t-230 -144z
M1057 594l-15 14q52 69 52 152t-54 153l17 15q57 -72 57 -168q0 -97 -57 -166z" />
    </font>
</defs>
</svg>
