<?xml version="1.0" standalone="no"?>
<!DOCTYPE svg PUBLIC "-//W3C//DTD SVG 1.1//EN" "http://www.w3.org/Graphics/SVG/1.1/DTD/svg11.dtd" >
<svg xmlns="http://www.w3.org/2000/svg" xmlns:xlink="http://www.w3.org/1999/xlink" version="1.1">
<metadata>
Created by FontForge 20201107 at Wed Dec 24 15:01:16 2025
 By 
Copyright (c) The Font Bureau, Inc., 2003. All rights reserved.
</metadata>
<defs>
<font id="Antenna-RegularItalic" horiz-adv-x="1208" >
  <font-face 
    font-family="Antenna RegularItalic"
    font-weight="400"
    font-style="italic"
    font-stretch="normal"
    units-per-em="2048"
    panose-1="2 0 5 3 0 0 0 2 0 4"
    ascent="1638"
    descent="-410"
    x-height="1139"
    cap-height="1518"
    bbox="-291 -475 3074 1950"
    underline-thickness="102"
    underline-position="-204"
    slope="-12"
    unicode-range="U+0020-FB02"
  />
<missing-glyph horiz-adv-x="471" 
 />
    <glyph glyph-name="fi" unicode="fi" horiz-adv-x="1277" 
d="M102 958l39 181h215l25 114q18 88 47.5 148t79 103.5t122.5 64t175 20.5h113l-35 -174h-74q-60 0 -102 -12.5t-67.5 -38.5t-40 -57t-24.5 -76l-20 -92h266l-35 -181h-268l-276 -1296h-201l276 1296h-215zM760 0l241 1139h199l-242 -1139h-198zM1030 1276l51 242h199
l-49 -242h-201z" />
    <glyph glyph-name="fl" unicode="fl" horiz-adv-x="1384" 
d="M102 958l39 181h215l25 114q18 88 47.5 148t79 103.5t122.5 64t175 20.5h113l-35 -174h-74q-60 0 -102 -12.5t-67.5 -38.5t-40 -57t-24.5 -76l-20 -92h266l-35 -181h-268l-276 -1296h-201l276 1296h-215zM1026 -2q-152 0 -194 76.5t-5 251.5l271 1263h198l-272 -1272
q-20 -79 -2.5 -110t96.5 -31h49l-37 -174q-40 -4 -104 -4z" />
    <glyph glyph-name="f_f_l" unicode="ffl" horiz-adv-x="2029" 
d="M686 -338l277 1296h-445l-276 -1296h-201l276 1296h-215l39 181h215l25 114q18 88 47.5 148t79 103.5t122.5 64t175 20.5h113l-35 -174h-74q-60 0 -102 -12.5t-67.5 -38.5t-40 -57t-24.5 -76l-20 -92h446l25 114q26 118 71 188.5t131 109t222 38.5h111l-35 -174h-72
q-59 0 -101 -12.5t-68 -38.5t-40.5 -57t-25.5 -76l-21 -92h268l-36 -181h-269l-274 -1296h-201zM1671 -2q-153 0 -194.5 76t-6.5 252l271 1263h198l-272 -1272q-19 -79 -1.5 -110t95.5 -31h49l-36 -174q-36 -4 -103 -4z" />
    <glyph glyph-name="f_f_i" unicode="ffi" horiz-adv-x="1923" 
d="M686 -338l277 1296h-445l-276 -1296h-201l276 1296h-215l39 181h215l25 114q18 88 47.5 148t79 103.5t122.5 64t175 20.5h113l-35 -174h-74q-60 0 -102 -12.5t-67.5 -38.5t-40 -57t-24.5 -76l-20 -92h446l25 114q26 118 71 188.5t131 109t222 38.5h111l-35 -174h-72
q-59 0 -101 -12.5t-68 -38.5t-40.5 -57t-25.5 -76l-21 -92h268l-36 -181h-269l-274 -1296h-201zM1403 0l242 1139h198l-241 -1139h-199zM1675 1276l49 242h201l-51 -242h-199z" />
    <glyph glyph-name="f_j" unicode="fj" horiz-adv-x="1277" 
d="M102 958l39 181h215l25 114q18 88 47.5 148t79 103.5t122.5 64t175 20.5h113l-35 -174h-74q-60 0 -102 -12.5t-67.5 -38.5t-40 -57t-24.5 -76l-20 -92h266l-35 -181h-268l-276 -1296h-201l276 1296h-215zM535 -344l30 164h17q88 0 120 32.5t54 135.5l245 1151h199
l-250 -1174q-20 -98 -44.5 -156t-65 -93.5t-93.5 -47.5t-139 -12h-73zM1030 1276l51 242h199l-49 -242h-201z" />
    <glyph glyph-name="f_f" unicode="ff" horiz-adv-x="1452" 
d="M686 -338l277 1296h-445l-276 -1296h-201l276 1296h-215l39 181h215l25 114q18 88 47.5 148t79 103.5t122.5 64t175 20.5h113l-35 -174h-74q-60 0 -102 -12.5t-67.5 -38.5t-40 -57t-24.5 -76l-20 -92h446l25 114q26 118 71 188.5t131 109t222 38.5h129l-35 -174h-90
q-59 0 -101 -12.5t-68 -38.5t-40.5 -57t-25.5 -76l-21 -92h285l-37 -181h-285l-274 -1296h-201z" />
    <glyph glyph-name=".notdef" horiz-adv-x="471" 
 />
    <glyph glyph-name=".null" horiz-adv-x="0" 
 />
    <glyph glyph-name="nonmarkingreturn" horiz-adv-x="682" 
 />
    <glyph glyph-name="space" unicode=" " horiz-adv-x="471" 
 />
    <glyph glyph-name="space" unicode="&#xa0;" horiz-adv-x="471" 
 />
    <glyph glyph-name="exclam" unicode="!" horiz-adv-x="757" 
d="M94 0l53 266h250l-55 -266h-248zM219 434l213 1084h219l-254 -1084h-178z" />
    <glyph glyph-name="quotedbl" unicode="&#x22;" horiz-adv-x="1034" 
d="M242 897l114 621h207l-145 -621h-176zM682 897l115 621h209l-148 -621h-176z" />
    <glyph glyph-name="numbersign" unicode="#" horiz-adv-x="1509" 
d="M250 0l92 428h-279l37 182h279l61 279h-280l39 184h278l94 445h193l-96 -445h295l94 445h192l-94 -445h293l-39 -184h-291l-59 -279h289l-37 -182h-289l-92 -428h-193l92 428h-292l-95 -428h-192zM555 600h322l65 301h-321z" />
    <glyph glyph-name="dollar" unicode="$" horiz-adv-x="1331" 
d="M379 -193l43 203q-270 33 -432 183l116 141q154 -131 357 -158l119 545q-77 24 -131 49.5t-103.5 65.5t-74.5 98.5t-25 136.5q0 90 25 163.5t69 125.5t106.5 87.5t136 53t158.5 19.5l29 135h182l-28 -146q210 -27 327 -125l-116 -153q-93 74 -256 100l-105 -481
q68 -21 115.5 -40.5t97.5 -50t80.5 -66.5t50 -88.5t19.5 -117.5q0 -236 -146 -360.5t-389 -126.5l-39 -193h-186zM944 463q0 80 -48.5 125.5t-156.5 83.5l-108 -504q148 8 230.5 82.5t82.5 212.5zM446 1092q0 -72 43 -115t132 -76l94 438q-133 -6 -201 -69t-68 -178z" />
    <glyph glyph-name="percent" unicode="%" horiz-adv-x="2265" 
d="M498 569q-187 0 -278 95t-91 260q0 271 135 444.5t348 173.5q187 0 278 -97.5t91 -264.5q0 -276 -136.5 -443.5t-346.5 -167.5zM512 729q88 0 155 60t100.5 159.5t33.5 222.5q0 205 -197 205q-93 0 -161 -62t-100 -161t-32 -221q0 -203 201 -203zM1657 -23
q-190 0 -280.5 95t-90.5 260q0 178 60.5 318.5t171 220t251.5 79.5q187 0 278 -97.5t91 -264.5q0 -274 -136.5 -442.5t-344.5 -168.5zM1667 137q132 0 210.5 127.5t78.5 315.5q0 206 -197 206q-92 0 -159 -62t-99.5 -161.5t-32.5 -222.5q0 -203 199 -203zM477 0l1145 1518
h188l-1144 -1518h-189z" />
    <glyph glyph-name="ampersand" unicode="&#x26;" horiz-adv-x="1646" 
d="M541 -20q-281 0 -410 90t-129 264q0 97 24.5 178t63.5 137t98 103.5t116 77.5t130 59q-18 95 -18 186q0 125 30.5 217.5t85 145.5t121.5 78.5t148 25.5q163 0 244 -74.5t81 -207.5q0 -84 -24.5 -153.5t-63.5 -118.5t-101 -91.5t-122 -70.5t-143 -58q67 -185 182 -322
q64 -77 115 -122q170 173 319 563l162 -56q-153 -406 -338 -604q43 -21 90 -32t78.5 -13t79.5 -2h45l-37 -180h-29q-119 0 -210 20t-177 72q-177 -112 -411 -112zM559 147q137 0 250 58q-55 55 -127 143q-128 155 -203 373q-62 -29 -108 -59.5t-86 -74t-61 -102t-21 -131.5
q0 -46 16 -81.5t54.5 -65t110.5 -45t175 -15.5zM608 1087q0 -66 17 -159q73 25 127.5 53t99 65t67.5 85.5t23 107.5q0 127 -147 127q-187 0 -187 -279z" />
    <glyph glyph-name="quotesingle" unicode="'" horiz-adv-x="595" 
d="M242 897l114 623h207l-145 -623h-176z" />
    <glyph glyph-name="parenleft" unicode="(" horiz-adv-x="1001" 
d="M420 -381q-106 116 -180 307t-74 428q0 163 41.5 328.5t109.5 305.5t156.5 265t183 217t187.5 152l123 -117q-89 -64 -173.5 -150.5t-162 -200t-135.5 -238.5t-92.5 -273t-34.5 -295q0 -198 63.5 -369t147.5 -268z" />
    <glyph glyph-name="parenright" unicode=")" horiz-adv-x="1001" 
d="M98 -381l-121 115q112 80 215.5 198t190 265.5t138.5 329t52 364.5q0 199 -62 369.5t-146 267.5l159 94q105 -119 179.5 -310t74.5 -427q0 -163 -41.5 -329t-109.5 -305.5t-157 -264.5t-183.5 -216.5t-188.5 -150.5z" />
    <glyph glyph-name="asterisk" unicode="*" horiz-adv-x="1196" 
d="M629 524l-156 35l96 365l-356 -131l-51 157l368 99l-294 245l108 123l274 -268l60 377l158 -35l-99 -369l361 135l49 -157l-371 -103l299 -241l-108 -121l-277 264z" />
    <glyph glyph-name="plus" unicode="+" horiz-adv-x="1439" 
d="M508 219l86 408h-412l41 190h410l88 408h197l-87 -408h410l-41 -190h-407l-86 -408h-199z" />
    <glyph glyph-name="comma" unicode="," horiz-adv-x="518" 
d="M-33 -266l-33 104q86 38 117 69.5t45 92.5h-121l54 270h250l-46 -227q-21 -98 -51 -153t-77 -88t-138 -68z" />
    <glyph glyph-name="hyphen" unicode="-" horiz-adv-x="911" 
d="M55 549l39 186h711l-39 -186h-711z" />
    <glyph glyph-name="hyphen" unicode="&#xad;" horiz-adv-x="911" 
d="M55 549l39 186h711l-39 -186h-711z" />
    <glyph glyph-name="period" unicode="." horiz-adv-x="518" 
d="M-25 0l54 270h250l-56 -270h-248z" />
    <glyph glyph-name="slash" unicode="/" horiz-adv-x="1054" 
d="M-164 0l1172 1518h215l-1174 -1518h-213z" />
    <glyph glyph-name="zero" unicode="0" horiz-adv-x="1476" 
d="M641 -23q-280 0 -404 126.5t-124 367.5q0 154 41 350q77 366 239.5 543.5t452.5 177.5q516 0 516 -508q0 -156 -41 -340q-77 -363 -238.5 -540t-441.5 -177zM653 162q101 0 176.5 36.5t130 112t91 173.5t67.5 239q39 176 39 297q0 160 -75.5 246t-250.5 86
q-105 0 -183 -36t-132.5 -111t-91 -172.5t-66.5 -237.5q-39 -179 -39 -312q0 -159 76 -240t258 -81z" />
    <glyph glyph-name="one" unicode="1" horiz-adv-x="786" 
d="M193 0l284 1327h-282l41 191h477l-324 -1518h-196z" />
    <glyph glyph-name="two" unicode="2" horiz-adv-x="1196" 
d="M-86 0l35 166l598 487q208 169 247 205q104 94 134 174q22 57 22 139q0 90 -69 138.5t-228 48.5q-88 0 -185 -19t-173 -53l-66 168q199 88 447 88q477 0 477 -330q0 -73 -9.5 -131t-35.5 -111.5t-55.5 -95t-86 -95.5t-110 -98.5t-142.5 -116.5q-9 -7 -14 -11l-469 -377
h717l-35 -176h-999z" />
    <glyph glyph-name="three" unicode="3" horiz-adv-x="1234" 
d="M512 -25q-197 0 -335 43t-265 129l125 152q112 -74 221.5 -109.5t255.5 -35.5q166 0 257 87t91 271q0 113 -71.5 167t-247.5 54h-201l37 178h264q165 0 241.5 61t76.5 214q0 89 -69.5 132.5t-229.5 43.5q-79 0 -182 -19.5t-189 -62.5l-84 160q192 102 487 102
q473 0 473 -311q0 -183 -69.5 -284t-186.5 -128q148 -65 148 -303q0 -278 -143 -409.5t-404 -131.5z" />
    <glyph glyph-name="four" unicode="4" horiz-adv-x="1343" 
d="M16 360l33 162l891 996h227l-884 -986h501l144 482h143l-102 -482h258l-35 -172h-260l-76 -360h-186l75 360h-729z" />
    <glyph glyph-name="five" unicode="5" horiz-adv-x="1282" 
d="M547 -23q-336 0 -565 170l118 152q201 -145 465 -145q62 0 115 11t103.5 39t86 73t57 117t21.5 165q0 266 -332 266q-138 0 -286 -69l-158 51l190 711h885l-39 -181h-698l-109 -391q128 51 285 51q109 0 190.5 -19.5t146.5 -65t98.5 -128t33.5 -200.5q0 -141 -32.5 -249
t-86.5 -175t-134 -109t-165.5 -58t-189.5 -16z" />
    <glyph glyph-name="six" unicode="6" horiz-adv-x="1392" 
d="M641 -23q-551 0 -551 476q0 97 29 239q41 194 93.5 329t127 233.5t180 155t241 82.5t322.5 26h150l-37 -181h-121q-146 0 -256 -20.5t-182.5 -55t-125.5 -91.5t-83 -116.5t-57 -144.5q57 54 163.5 85.5t245.5 31.5q242 0 352.5 -104.5t110.5 -286.5q0 -307 -154 -482.5
t-448 -175.5zM645 152q106 0 184 33t124 93.5t67.5 139.5t21.5 178q0 124 -77.5 191t-259.5 67q-68 0 -126 -11.5t-112.5 -41t-92 -75.5t-60.5 -119.5t-23 -168.5q0 -286 354 -286z" />
    <glyph glyph-name="seven" unicode="7" horiz-adv-x="1081" 
d="M76 0l870 1337h-780l37 181h1005l-34 -158l-877 -1360h-221z" />
    <glyph glyph-name="eight" unicode="8" horiz-adv-x="1406" 
d="M606 -29q-149 0 -259 29t-174.5 81.5t-95 120t-30.5 150.5q0 203 92 324t260 162q-143 62 -143 268q0 213 134.5 324.5t400.5 111.5q120 0 212.5 -17t152 -46.5t98 -72.5t54 -92t15.5 -108q0 -162 -68.5 -262.5t-199.5 -128.5q92 -36 130 -115t38 -196
q0 -260 -162.5 -396.5t-454.5 -136.5zM627 143q85 0 154 19t124 59.5t85 111t30 165.5q0 241 -365 241q-90 0 -161 -19.5t-126 -61t-84.5 -112.5t-29.5 -167q0 -115 88.5 -175.5t284.5 -60.5zM778 901q171 0 257.5 64.5t86.5 212.5q0 93 -76.5 143.5t-252.5 50.5
q-172 0 -258 -64t-86 -212q0 -94 76.5 -144.5t252.5 -50.5z" />
    <glyph glyph-name="nine" unicode="9" horiz-adv-x="1392" 
d="M160 0l35 176h120q146 0 256 20.5t183 55t127 92t85 118t60 146.5q-56 -55 -163.5 -85.5t-250.5 -30.5q-242 0 -353.5 105t-111.5 286q0 306 156 482.5t449 176.5q548 0 548 -477q0 -114 -26 -238q-35 -162 -76 -281.5t-99 -214t-129.5 -156t-169.5 -101.5t-216.5 -57
t-274.5 -17h-149zM686 655q69 0 127 11.5t112.5 41t92.5 75.5t61 119.5t23 168.5q0 144 -90.5 216.5t-266.5 72.5q-106 0 -184 -33t-123 -94t-66.5 -140t-21.5 -178q0 -124 77 -192t259 -68z" />
    <glyph glyph-name="colon" unicode=":" horiz-adv-x="559" 
d="M-4 0l53 262h250l-55 -262h-248zM184 877l52 262h249l-53 -262h-248z" />
    <glyph glyph-name="semicolon" unicode=";" horiz-adv-x="559" 
d="M-12 -266l-35 104q87 38 118.5 69.5t43.5 92.5h-119l53 262h250l-45 -219q-23 -103 -53 -157.5t-75 -85t-138 -66.5zM184 877l52 262h249l-53 -262h-248z" />
    <glyph glyph-name="less" unicode="&#x3c;" horiz-adv-x="1439" 
d="M1018 170l-823 465l28 147l1022 461l-37 -196l-790 -347l639 -340z" />
    <glyph glyph-name="equal" unicode="=" horiz-adv-x="1439" 
d="M147 399l37 187h998l-39 -187h-996zM244 858l39 184h993l-37 -184h-995z" />
    <glyph glyph-name="greater" unicode="&#x3e;" horiz-adv-x="1439" 
d="M174 172l39 195l788 348l-639 340l39 190l824 -465l-27 -147z" />
    <glyph glyph-name="question" unicode="?" horiz-adv-x="1355" 
d="M459 412q13 81 25 135t31 105t41.5 83.5t58.5 63.5t81 53.5t109 46.5q74 27 114.5 44.5t78 40t54 48t26 59.5t9.5 83q0 32 -8.5 58t-31.5 49.5t-59.5 39t-95 24.5t-136.5 9q-185 0 -389 -72l-68 174q109 45 244.5 65.5t244.5 20.5q272 0 390 -82.5t118 -240.5
q0 -127 -37.5 -210t-115 -138t-217.5 -107q-53 -20 -87.5 -36t-64 -38t-46 -44t-31.5 -58t-24.5 -75.5t-19.5 -100.5h-194zM348 0l49 242h252l-51 -242h-250z" />
    <glyph glyph-name="at" unicode="@" horiz-adv-x="2209" 
d="M1081 -338q-480 0 -715 229.5t-235 706.5t238.5 711.5t691.5 234.5q458 0 697 -234t239 -712q0 -202 -38.5 -318.5t-119 -166.5t-219.5 -50q-290 0 -324 144q-66 -72 -157.5 -101.5t-235.5 -29.5q-199 0 -290 101.5t-91 275.5q0 110 17.5 209t57 187t98 152t144 101
t191.5 37q164 0 250.5 -35t124.5 -100l68 124l124 -10l-155 -725q-25 -118 22 -167.5t178 -49.5q138 0 186 91t48 331q0 421 -203 624t-612 203q-809 0 -809 -827q0 -413 205.5 -615t621.5 -202q316 0 559 117l54 -105q-262 -131 -611 -131zM950 238q72 0 126 16t100.5 53.5
t79.5 105.5t53 167q20 81 20 161q0 111 -65 169.5t-217 58.5q-87 0 -152.5 -38.5t-105 -107t-59 -155t-19.5 -189.5q0 -117 54.5 -179t184.5 -62z" />
    <glyph glyph-name="A" unicode="A" horiz-adv-x="1472" 
d="M-117 0l912 1528h204l261 -1528h-207l-54 319h-704l-189 -319h-223zM401 510h570l-125 752z" />
    <glyph glyph-name="B" unicode="B" horiz-adv-x="1433" 
d="M10 0l324 1518h524q155 0 263 -21t169.5 -63t88 -97t26.5 -131q0 -184 -74.5 -292t-206.5 -130q82 -27 124 -102.5t42 -183.5q0 -114 -25.5 -199.5t-72.5 -142t-120 -92t-160.5 -50t-200.5 -14.5h-701zM252 186h498q162 0 247.5 72.5t85.5 235.5q0 96 -72.5 143
t-236.5 47h-412zM401 877h488q160 0 228.5 70t68.5 208q0 85 -73.5 129.5t-260.5 44.5h-352z" />
    <glyph glyph-name="C" unicode="C" horiz-adv-x="1462" 
d="M721 -23q-333 0 -496.5 155.5t-163.5 436.5q0 124 27 265q34 158 93.5 280t135.5 202t173.5 131.5t201 73t223.5 21.5q381 0 568 -219l-176 -141q-138 161 -400 161q-497 0 -612 -538q-23 -106 -23 -209q0 -202 116 -313t351 -111q127 0 219.5 31t174.5 96l127 -154
q-101 -86 -230 -127t-309 -41z" />
    <glyph glyph-name="D" unicode="D" horiz-adv-x="1531" 
d="M10 0l324 1518h360q417 0 598 -125.5t181 -407.5q0 -149 -37 -307q-26 -123 -62.5 -220.5t-80.5 -168.5t-102 -122t-119 -83.5t-140 -51t-157.5 -25.5t-178.5 -7h-586zM256 190h344q115 0 198 13.5t155 47t122 92.5t88.5 148t65.5 216q33 152 33 249q0 192 -129 278.5
t-441 86.5h-190z" />
    <glyph glyph-name="E" unicode="E" horiz-adv-x="1300" 
d="M10 0l324 1518h1007l-41 -199h-800l-99 -436h781l-39 -197h-778l-109 -496h809l-39 -190h-1016z" />
    <glyph glyph-name="F" unicode="F" horiz-adv-x="1216" 
d="M10 0l324 1518h971l-43 -199h-762l-101 -457h744l-39 -196h-744l-143 -666h-207z" />
    <glyph glyph-name="G" unicode="G" horiz-adv-x="1572" 
d="M737 -23q-342 0 -509 153t-167 437q0 138 27 267q145 708 817 708q119 0 220.5 -20t172.5 -54t119 -71t82 -80l-176 -143q-22 26 -43 46t-58.5 44.5t-80.5 40.5t-107.5 27t-140.5 11q-488 0 -602 -538q-21 -102 -21 -211q0 -432 480 -432q102 0 175 17t124 49t87.5 90
t59.5 127t45 173l6 39h-456l38 189h668l-41 -207q-26 -128 -55 -221.5t-71 -170t-94.5 -126t-125.5 -83t-163.5 -47.5t-209.5 -14z" />
    <glyph glyph-name="H" unicode="H" horiz-adv-x="1579" 
d="M10 0l324 1518h207l-135 -627h823l135 627h207l-324 -1518h-207l146 686h-821l-148 -686h-207z" />
    <glyph glyph-name="I" unicode="I" horiz-adv-x="581" 
d="M27 0l323 1518h209l-323 -1518h-209z" />
    <glyph glyph-name="J" unicode="J" horiz-adv-x="806" 
d="M-102 0l39 190h135q133 0 201.5 56t97.5 190l231 1082h207l-238 -1112q-20 -98 -55 -170.5t-78 -117.5t-99.5 -72.5t-114.5 -37.5t-130 -10q-137 0 -196 2z" />
    <glyph glyph-name="K" unicode="K" horiz-adv-x="1431" 
d="M983 0l-326 782l-342 -313l-100 -469h-205l324 1518h205l-164 -764l817 764h258l-631 -592l381 -926h-217z" />
    <glyph glyph-name="L" unicode="L" horiz-adv-x="1177" 
d="M10 0l324 1518h207l-285 -1328h752l-39 -190h-959z" />
    <glyph glyph-name="M" unicode="M" horiz-adv-x="1865" 
d="M10 0l324 1518h268l229 -1199l744 1199h283l-324 -1518h-203l258 1200l-749 -1200h-154l-231 1192l-258 -1192h-187z" />
    <glyph glyph-name="N" unicode="N" horiz-adv-x="1576" 
d="M10 0l324 1518h225l559 -1170l254 1170h197l-324 -1518h-188l-588 1217l-262 -1217h-197z" />
    <glyph glyph-name="O" unicode="O" horiz-adv-x="1687" 
d="M764 -25q-341 0 -521 158t-180 455q-3 101 27 252q147 702 836 702q340 0 520 -157t180 -451q0 -122 -29 -250q-35 -161 -96.5 -285t-139 -203t-176.5 -129.5t-201 -71t-220 -20.5zM766 168q250 0 406.5 128.5t216.5 405.5q24 105 24 203q0 207 -122.5 322.5
t-375.5 115.5q-506 0 -618 -532q-23 -101 -23 -205q0 -206 121 -322t371 -116z" />
    <glyph glyph-name="P" unicode="P" horiz-adv-x="1433" 
d="M10 0l324 1518h565q533 0 533 -367q0 -135 -34.5 -244.5t-103.5 -190t-179.5 -124t-254.5 -43.5h-530l-117 -549h-203zM369 739h485q176 0 269.5 93t93.5 282q0 108 -81.5 159.5t-261.5 51.5h-376z" />
    <glyph glyph-name="Q" unicode="Q" horiz-adv-x="1687" 
d="M764 -14h-27q-29 -111 6 -150t166 -39h135l-36 -178q-29 -2 -131 -2q-168 0 -254 38t-107.5 124.5t19.5 226.5q-231 46 -351.5 193t-120.5 389q-3 101 27 252q34 160 95.5 283t139 201.5t177 128t202.5 69.5t222 20q340 0 520 -157t180 -451q0 -122 -29 -250
q-35 -161 -97 -284t-138.5 -200.5t-176 -126t-201 -68t-220.5 -19.5zM766 168q250 0 406.5 128.5t216.5 405.5q24 105 24 203q0 207 -122.5 322.5t-375.5 115.5q-506 0 -618 -532q-23 -101 -23 -205q0 -206 121 -322t371 -116z" />
    <glyph glyph-name="R" unicode="R" horiz-adv-x="1458" 
d="M944 0l-213 584h-393l-125 -584h-203l324 1518h538q150 0 259 -27.5t171.5 -78t91.5 -114.5t29 -145q0 -249 -120.5 -396.5t-360.5 -168.5l213 -588h-211zM377 774h483q348 0 348 338q0 109 -86 161t-266 52h-358z" />
    <glyph glyph-name="S" unicode="S" horiz-adv-x="1419" 
d="M631 -20q-224 0 -389 53.5t-299 152.5l131 154q235 -178 567 -178q391 0 391 260q0 26 -5 47.5t-11 39t-21.5 34t-27 27.5t-37.5 24t-42 20.5t-51.5 19.5t-56 18.5t-65.5 19.5q-35 10 -53 16q-97 29 -147 46t-119.5 51.5t-102.5 71.5t-58.5 96.5t-25.5 136.5
q0 101 30.5 180t82 129.5t124 83t151 46t169.5 13.5q372 0 590 -168l-135 -160q-177 138 -463 138q-336 0 -336 -246q0 -30 8.5 -55.5t22 -45t38 -37t48 -29.5t62.5 -25.5t70 -23t81 -22.5q65 -18 105.5 -30t93 -30t85 -35t70 -40t59.5 -49t41.5 -59t28 -73.5t8.5 -88.5
q0 -106 -31.5 -189t-86 -137.5t-132.5 -90.5t-167 -51t-195 -15z" />
    <glyph glyph-name="T" unicode="T" horiz-adv-x="1378" 
d="M426 0l283 1319h-539l41 199h1282l-41 -199h-537l-282 -1319h-207z" />
    <glyph glyph-name="U" unicode="U" horiz-adv-x="1574" 
d="M694 -27q-137 0 -242 23.5t-170.5 62.5t-106.5 96.5t-57 118.5t-16 134q0 84 25 196l197 914h206l-194 -908q-23 -113 -23 -166q0 -135 91.5 -205.5t310.5 -70.5q106 0 183.5 24.5t130.5 75.5t85 120.5t53 168.5l207 961h201l-217 -1002q-20 -96 -48.5 -171t-80 -147.5
t-121 -119.5t-175 -76t-239.5 -29z" />
    <glyph glyph-name="V" unicode="V" horiz-adv-x="1472" 
d="M473 -10l-258 1528h209l203 -1252l733 1252h227l-911 -1528h-203z" />
    <glyph glyph-name="W" unicode="W" horiz-adv-x="2177" 
d="M362 -10l-135 1528h211l101 -1158l614 1158h197l120 -1158l592 1158h213l-784 -1528h-182l-127 1202l-637 -1202h-183z" />
    <glyph glyph-name="X" unicode="X" horiz-adv-x="1449" 
d="M993 0l-297 639l-553 -639h-235l710 807l-327 711h215l262 -568l489 568h236l-647 -736l362 -782h-215z" />
    <glyph glyph-name="Y" unicode="Y" horiz-adv-x="1425" 
d="M444 0l125 584l-381 934h215l308 -736l614 736h229l-780 -940l-123 -578h-207z" />
    <glyph glyph-name="Z" unicode="Z" horiz-adv-x="1335" 
d="M-76 0l35 164l1116 1155h-833l41 199h1101l-34 -181l-1112 -1147h884l-39 -190h-1159z" />
    <glyph glyph-name="bracketleft" unicode="[" horiz-adv-x="974" 
d="M14 -338l410 1927h530l-34 -182h-332l-338 -1569h338l-37 -176h-537z" />
    <glyph glyph-name="backslash" unicode="\" horiz-adv-x="1054" 
d="M696 0l-526 1518h190l527 -1518h-191z" />
    <glyph glyph-name="bracketright" unicode="]" horiz-adv-x="974" 
d="M-37 -338l35 176h334l338 1569h-334l37 182h534l-409 -1927h-535z" />
    <glyph glyph-name="asciicircum" unicode="^" 
d="M301 1202l373 336h215l229 -336h-188l-172 207l-262 -207h-195z" />
    <glyph glyph-name="underscore" unicode="_" horiz-adv-x="927" 
d="M-291 -270l33 161h1079l-33 -161h-1079z" />
    <glyph glyph-name="grave" unicode="`" 
d="M702 1255l-288 336h231l234 -336h-177z" />
    <glyph glyph-name="a" unicode="a" horiz-adv-x="1251" 
d="M375 -20q-112 0 -190.5 21.5t-122 63.5t-62 95t-18.5 125q0 109 31.5 188.5t88.5 131t149.5 82t201 42.5t256.5 12h147q12 55 12 105q0 71 -56 102t-206 31q-73 0 -162 -21t-145 -51l-80 162q70 41 185 68.5t237 27.5q93 0 163 -10.5t118.5 -29.5t79 -51t45.5 -69
t16.5 -91t-6 -108.5t-23.5 -129.5l-80 -373q-21 -80 -6.5 -104t92.5 -23l-34 -174q-12 -4 -86 -4t-110 26t-40 91q-117 -135 -395 -135zM426 152q169 0 253.5 78.5t127.5 271.5l14 69h-139q-115 0 -190 -6t-139 -22t-98.5 -45.5t-53.5 -76.5t-19 -116q0 -76 54.5 -114.5
t189.5 -38.5z" />
    <glyph glyph-name="b" unicode="b" horiz-adv-x="1302" 
d="M627 -18q-361 0 -420 157l-72 -147l-145 14l338 1583h196l-118 -538q62 62 149.5 88t220.5 26q424 0 424 -411q0 -108 -31 -238q-29 -132 -69.5 -226t-103.5 -166t-154.5 -107t-214.5 -35zM600 162q159 0 242 89t127 284q22 121 22 180q0 126 -65 193t-217 67
q-85 0 -144.5 -16.5t-109.5 -58t-83.5 -115t-58.5 -185.5q-24 -102 -24 -182q0 -132 73.5 -194t237.5 -62z" />
    <glyph glyph-name="c" unicode="c" horiz-adv-x="1124" 
d="M506 -20q-475 0 -475 423q0 105 22 224q56 269 198 403.5t404 134.5q90 0 162 -15t122.5 -42.5t84.5 -57.5t63 -69l-167 -133q-21 27 -38.5 44t-50 38.5t-80.5 32t-110 10.5q-162 0 -255 -89.5t-134 -289.5q-19 -104 -19 -172q0 -264 287 -264q80 0 145 20t134 70
l112 -133q-94 -74 -191 -104.5t-214 -30.5z" />
    <glyph glyph-name="d" unicode="d" horiz-adv-x="1302" 
d="M451 -18q-424 0 -424 409q0 114 30 240q29 133 69 226.5t103 165.5t155 107t216 35q184 0 280 -39t126 -118l127 581h200l-338 -1581l-155 -14l14 108q-63 -66 -158.5 -93t-244.5 -27zM518 162q85 0 144.5 16.5t109 58t83 115t58.5 185.5q23 108 23 182q0 134 -73 196
t-238 62q-159 0 -241.5 -90t-125.5 -285q-22 -104 -22 -182q0 -124 64.5 -191t217.5 -67z" />
    <glyph glyph-name="e" unicode="e" horiz-adv-x="1187" 
d="M502 -23q-475 0 -475 420q0 107 26 230q53 264 194.5 401t399.5 137q101 0 178 -18t125 -48t78 -74t41.5 -92t11.5 -106q0 -133 -45 -333h-815q-4 -54 -4 -78q0 -124 70 -193t237 -69q205 0 344 86l82 -152q-96 -62 -203.5 -86.5t-244.5 -24.5zM627 985
q-151 0 -237.5 -79t-131.5 -236h619q16 75 16 127q0 44 -12 76.5t-41 58.5t-82 39.5t-131 13.5z" />
    <glyph glyph-name="f" unicode="f" horiz-adv-x="806" 
d="M102 958l39 181h215l25 114q18 88 47.5 148t79 103.5t122.5 64t175 20.5h129l-35 -174h-90q-60 0 -102 -12.5t-67.5 -38.5t-40 -57t-24.5 -76l-20 -92h283l-37 -181h-283l-276 -1296h-201l276 1296h-215z" />
    <glyph glyph-name="g" unicode="g" horiz-adv-x="1220" 
d="M571 416q-147 0 -241 30q-31 -36 -31 -86q0 -38 24 -55.5t97 -17.5q316 -3 450 -62t134 -217q0 -89 -26 -154.5t-73 -108t-123.5 -68t-167 -35.5t-213.5 -9q-278 0 -407 66.5t-129 214.5q0 133 80.5 209.5t218.5 99.5q-45 42 -45 127q0 95 76 168q-82 76 -82 211
q0 226 123.5 331t377.5 105q62 0 127 -6l443 66l-29 -174h-182q90 -81 90 -226q0 -209 -123 -309t-369 -100zM430 -209q196 -2 280.5 38.5t84.5 154.5q0 84 -93 111.5t-323 27.5q-90 0 -150.5 -12t-92.5 -37t-45 -56.5t-13 -76.5q0 -150 352 -150zM573 582q291 0 291 241
q0 82 -61.5 122t-200.5 40q-146 0 -218.5 -59.5t-72.5 -188.5q0 -78 58.5 -116.5t203.5 -38.5z" />
    <glyph glyph-name="h" unicode="h" horiz-adv-x="1253" 
d="M-14 0l338 1589h198l-114 -536q120 112 331 112q78 0 139.5 -10t103 -30.5t70.5 -45.5t43.5 -63t21 -74t2.5 -87.5t-10.5 -94.5t-18.5 -103l-142 -657h-198l137 635q27 134 24 185q-8 101 -109 132q-54 17 -138 17q-83 0 -143.5 -24t-98.5 -70.5t-60 -99t-38 -126.5
l-138 -649h-200z" />
    <glyph glyph-name="i" unicode="i" horiz-adv-x="516" 
d="M-2 0l242 1139h198l-241 -1139h-199zM268 1276l51 242h201l-51 -242h-201z" />
    <glyph glyph-name="j" unicode="j" horiz-adv-x="516" 
d="M-229 -344l34 164h17q88 0 118.5 32t53.5 136l246 1151h198l-248 -1174q-21 -98 -45.5 -156t-65.5 -93.5t-94 -47.5t-139 -12h-75zM268 1276l51 242h201l-51 -242h-201z" />
    <glyph glyph-name="k" unicode="k" horiz-adv-x="1101" 
d="M-10 0l338 1589h196l-215 -1007l578 557h223l-485 -471l286 -668h-209l-227 520l-225 -217l-64 -303h-196z" />
    <glyph glyph-name="l" unicode="l" horiz-adv-x="624" 
d="M266 -2q-153 0 -194 76t-6 252l270 1263h199l-271 -1272q-22 -79 -4 -110t98 -31h45l-34 -174q-36 -4 -103 -4z" />
    <glyph glyph-name="m" unicode="m" horiz-adv-x="1984" 
d="M-14 0l239 1128l160 11l-10 -95q61 56 142.5 88.5t213.5 32.5q151 0 233.5 -30.5t110.5 -108.5q55 63 156.5 101t247.5 38q63 0 114.5 -6.5t89.5 -20t67.5 -30t48 -42t31 -50t16 -60t4.5 -65.5t-5 -73.5t-12 -77.5t-16 -83l-140 -657h-200l137 635q29 133 27 183
q-4 101 -101 133q-53 18 -139 18q-67 0 -118.5 -16.5t-85.5 -43.5t-59.5 -70.5t-40 -86.5t-28.5 -103l-137 -649h-199l135 635q29 133 27 183q-4 101 -101 133q-53 18 -139 18q-67 0 -118.5 -17t-85.5 -44t-59.5 -70.5t-40 -86.5t-27.5 -102l-138 -649h-200z" />
    <glyph glyph-name="n" unicode="n" horiz-adv-x="1253" 
d="M-14 0l239 1128l160 11l-10 -95q131 121 364 121q78 0 139.5 -10t103 -30.5t70.5 -45.5t43.5 -63t21 -74t2.5 -87.5t-10.5 -94.5t-18.5 -103l-142 -657h-198l135 635q29 134 25 187q-7 100 -110 131q-53 16 -136 16t-143.5 -24t-98.5 -70.5t-60 -99t-38 -126.5l-138 -649
h-200z" />
    <glyph glyph-name="o" unicode="o" horiz-adv-x="1267" 
d="M526 -23q-256 0 -375.5 115t-119.5 324q0 92 22 211q62 285 211 411.5t398 126.5q258 0 378.5 -114t120.5 -322q0 -83 -24 -213q-60 -285 -210 -412t-401 -127zM537 158q167 0 262.5 90.5t136.5 286.5q18 86 18 165q0 275 -303 275q-169 0 -263 -91.5t-136 -289.5
q-19 -90 -19 -168q0 -268 304 -268z" />
    <glyph glyph-name="p" unicode="p" horiz-adv-x="1302" 
d="M-82 -338l309 1466l158 11l-10 -99q62 67 157.5 96t243.5 29q424 0 424 -411q0 -108 -31 -238q-29 -132 -69.5 -226t-103.5 -166t-154.5 -107t-214.5 -35q-189 0 -285 38t-125 117l-102 -475h-197zM600 162q159 0 242 89t127 284q22 121 22 180q0 126 -65 193t-217 67
q-85 0 -144.5 -16.5t-109.5 -58t-83.5 -115t-58.5 -185.5q-24 -102 -24 -182q0 -132 73.5 -194t237.5 -62z" />
    <glyph glyph-name="q" unicode="q" horiz-adv-x="1302" 
d="M723 -338l88 422q-61 -57 -145 -79.5t-215 -22.5q-424 0 -424 409q0 114 30 240q29 133 69 226.5t103 165.5t155 107t216 35q186 0 284.5 -37.5t135.5 -119.5l76 145l139 -12l-313 -1479h-199zM518 162q85 0 144.5 16.5t109 58t83 115t58.5 185.5q23 108 23 182
q0 134 -73 196t-238 62q-159 0 -241.5 -90t-125.5 -285q-22 -104 -22 -182q0 -124 64.5 -191t217.5 -67z" />
    <glyph glyph-name="r" unicode="r" horiz-adv-x="720" 
d="M-10 0l237 1128l160 11l-16 -123q103 137 385 137l-41 -197q-97 0 -167 -23.5t-115 -71t-71.5 -106t-44.5 -141.5l-131 -614h-196z" />
    <glyph glyph-name="s" unicode="s" horiz-adv-x="1056" 
d="M442 -20q-154 0 -287 45t-227 125l129 141q81 -64 187 -100.5t217 -36.5q54 0 94 7.5t74.5 26t52.5 55.5t18 91q0 28 -14.5 52t-34 39.5t-56.5 31t-64.5 24t-75.5 21.5q-44 13 -69 20.5t-66 23t-65 30t-54 37.5t-45.5 49t-27 61.5t-11.5 77.5q0 95 32.5 166t92.5 114
t139.5 63.5t179.5 20.5q276 0 449 -127l-127 -155q-152 98 -336 98q-225 0 -225 -156q0 -27 13.5 -49t32 -37t54.5 -30.5t63.5 -24t75.5 -22.5q63 -18 101.5 -31.5t89.5 -40t79.5 -56t49 -76t20.5 -104.5q0 -85 -23.5 -150.5t-64 -107t-100 -68.5t-125.5 -37.5t-146 -10.5z
" />
    <glyph glyph-name="t" unicode="t" horiz-adv-x="833" 
d="M102 958l39 181h207l107 323l159 31l-75 -354h276l-35 -181h-280l-131 -620q-12 -50 -11 -86t35 -56t107 -20h110l-35 -176q-25 -2 -141 -2q-104 0 -167.5 24t-88 68t-26.5 107.5t16 142.5l135 618h-201z" />
    <glyph glyph-name="u" unicode="u" horiz-adv-x="1239" 
d="M522 -23q-102 0 -179 14t-129 38t-85 63t-49 82.5t-18 103.5t5 118.5t23 135.5l129 607h201l-131 -625q-9 -39 -14 -65.5t-9 -60t-2.5 -55.5t7.5 -48t19 -42.5t34 -33.5t51 -26t71 -15t93 -6q48 0 86.5 8t66 19t49.5 34.5t35.5 44t26 58t19.5 65t18 76.5l143 672h195
l-146 -684q-19 -90 -38 -152t-47 -119.5t-63.5 -93t-86.5 -63t-118.5 -39t-156.5 -11.5z" />
    <glyph glyph-name="v" unicode="v" horiz-adv-x="1110" 
d="M289 -10l-191 1149h205l135 -899l516 899h217l-675 -1149h-207z" />
    <glyph glyph-name="w" unicode="w" horiz-adv-x="1777" 
d="M246 -10l-137 1149h204l99 -836l452 836h205l102 -836l449 836h209l-623 -1149h-192l-107 868l-469 -868h-192z" />
    <glyph glyph-name="x" unicode="x" horiz-adv-x="1097" 
d="M688 0l-211 449l-389 -449h-223l541 604l-250 535h206l185 -398l344 398h221l-491 -553l274 -586h-207z" />
    <glyph glyph-name="y" unicode="y" horiz-adv-x="1073" 
d="M53 -344q-104 0 -129 2l33 162h88q55 0 85 10.5t48 30.5t45 69l56 93l-181 1116h207l127 -867l492 867h215l-736 -1252q-53 -92 -98.5 -140t-104 -69.5t-147.5 -21.5z" />
    <glyph glyph-name="z" unicode="z" horiz-adv-x="1007" 
d="M-100 0l30 145l781 813h-570l35 181h834l-29 -150l-782 -819h628l-34 -170h-893z" />
    <glyph glyph-name="braceleft" unicode="{" horiz-adv-x="1050" 
d="M465 -338q-177 0 -256.5 48t-79.5 147q0 56 36 150.5t78.5 177.5t78.5 164t36 114q0 46 -50.5 61t-192.5 15l35 172q75 0 117.5 3t80 13t54.5 30.5t26.5 52.5t9.5 83q0 43 -7 156t-7 168q0 188 96.5 280t292.5 92h223l-35 -182h-141q-135 0 -187 -49.5t-52 -169.5
q0 -38 7 -146t7 -161q0 -106 -35 -168t-125 -88q49 -18 69.5 -48.5t20.5 -76.5q0 -41 -34.5 -124.5t-76 -163t-76 -163t-34.5 -123.5q0 -46 39.5 -67t128.5 -21h152l-37 -176h-162z" />
    <glyph glyph-name="bar" unicode="|" horiz-adv-x="692" 
d="M244 -338v1927h200v-1927h-200z" />
    <glyph glyph-name="braceright" unicode="}" horiz-adv-x="1050" 
d="M-39 -338l35 176h139q134 0 188 52.5t54 172.5q0 39 -7.5 147t-7.5 161q0 105 35 167.5t123 88.5q-88 33 -88 125q0 41 34.5 124t76 161.5t76 161t34.5 122.5q0 46 -39.5 66t-130.5 20h-149l37 182h161q178 0 258 -47.5t80 -146.5q0 -56 -36 -150.5t-79.5 -177.5
t-79.5 -163.5t-36 -112.5q0 -48 50.5 -63t193.5 -15l-35 -172q-62 0 -100.5 -2t-74.5 -8.5t-55.5 -18.5t-34.5 -33t-20.5 -50t-5.5 -71q0 -43 8 -155.5t8 -167.5q0 -188 -96 -280.5t-293 -92.5h-223z" />
    <glyph glyph-name="asciitilde" unicode="~" 
d="M893 838q-47 0 -93.5 16t-77 36t-68.5 36t-72 16q-72 0 -160 -96l-103 102q132 158 271 158q60 0 116 -25.5t104 -51t89 -25.5q37 0 73 25t83 77l104 -102q-144 -166 -266 -166z" />
    <glyph glyph-name="exclamdown" unicode="&#xa1;" horiz-adv-x="757" 
d="M109 0l251 1083h179l-211 -1083h-219zM362 1251l56 267h248l-54 -267h-250z" />
    <glyph glyph-name="cent" unicode="&#xa2;" horiz-adv-x="1118" 
d="M328 -193l41 193q-338 65 -338 420q0 154 37 284.5t108.5 230.5t184 159.5t255.5 66.5l27 125h191l-29 -135q186 -38 282 -168l-157 -131q-66 88 -178 115l-174 -813q129 12 231 90l102 -131q-149 -122 -356 -129l-35 -177h-192zM236 438q0 -216 180 -268l174 803
q-167 -23 -260.5 -168.5t-93.5 -366.5z" />
    <glyph glyph-name="sterling" unicode="&#xa3;" horiz-adv-x="1243" 
d="M717 -16q-229 0 -398 104q-122 -94 -387 -88l29 172q78 0 133.5 9.5t89.5 25t56 43.5t32.5 56.5t18.5 72.5q19 98 8 321h-236l35 170h193v82q0 138 28 245.5t85.5 186t150 119.5t217.5 41q253 0 440 -106l-110 -166q-60 35 -149 59.5t-189 24.5q-78 0 -133 -29.5
t-86.5 -87t-45.5 -132.5t-14 -175v-62h414l-33 -170h-374q4 -218 -19 -323q-20 -93 -45 -146q134 -69 285 -69q104 0 141 37.5t59 167.5l9 49h176l-17 -78q-38 -204 -116 -279t-248 -75z" />
    <glyph glyph-name="currency" unicode="&#xa4;" horiz-adv-x="1345" 
d="M96 844l31 160h211q53 160 135.5 277.5t206 189t274.5 71.5q257 0 412 -104l-121 -162q-120 78 -295 78q-147 0 -249 -94.5t-162 -255.5h499l-30 -160h-516q-23 -121 -27 -158h506l-33 -162h-483v-41q0 -159 71.5 -242t235.5 -83q139 0 244 57l90 -154q-153 -86 -357 -86
q-479 0 -479 500v49h-231l30 162h211q8 72 25 158h-199z" />
    <glyph glyph-name="yen" unicode="&#xa5;" horiz-adv-x="1269" 
d="M86 502l29 162h399l-324 854h209l248 -680l541 680h215l-690 -854h397l-31 -162h-403l-33 -158h399l-30 -162h-402l-39 -182h-198l39 182h-394l31 162h397l33 158h-393z" />
    <glyph glyph-name="brokenbar" unicode="&#xa6;" horiz-adv-x="692" 
d="M244 -338v803h200v-803h-200zM244 786v803h200v-803h-200z" />
    <glyph glyph-name="section" unicode="&#xa7;" horiz-adv-x="1146" 
d="M182 -16q-123 0 -159 4l30 166h111q52 0 88.5 9t60 23t40 41.5t25 55t17.5 71.5l23 109q-309 47 -309 266q0 95 32.5 163t92 105t129.5 54.5t159 19.5l23 96q14 69 31 118.5t48 98.5t73 79.5t107 49.5t150 19q122 0 162 -4l-35 -172h-108q-43 0 -76 -5.5t-56.5 -18.5
t-39.5 -27.5t-27.5 -39.5t-18 -47t-14.5 -57l-22 -100q164 -23 243.5 -93t79.5 -180q0 -79 -23.5 -139t-62.5 -96.5t-96 -59t-115.5 -31t-130.5 -9.5l-22 -103q-13 -69 -30 -119t-48 -99t-73.5 -80t-108 -49.5t-150.5 -18.5zM600 584q48 0 85.5 4t74 16.5t60.5 32.5t39 55
t15 82q0 152 -319 152q-51 0 -88.5 -3.5t-75.5 -15t-61.5 -32t-38.5 -55.5t-15 -83q0 -153 324 -153z" />
    <glyph glyph-name="dieresis" unicode="&#xa8;" 
d="M412 1255l47 230h182l-47 -230h-182zM827 1255l47 230h183l-47 -230h-183z" />
    <glyph glyph-name="copyright" unicode="&#xa9;" horiz-adv-x="1691" 
d="M866 250q-247 0 -374 132t-127 386q0 258 134.5 387t372.5 129q228 0 363 -129l-94 -100q-109 98 -269 98q-176 0 -271 -98t-95 -287q0 -190 92.5 -288.5t273.5 -98.5q172 0 279 100l90 -92q-135 -139 -375 -139zM854 -25q-187 0 -333.5 58.5t-239.5 164t-141 248
t-48 314.5t48 314.5t141 248t239.5 163.5t333.5 58q186 0 331.5 -58.5t238.5 -163.5t141.5 -247.5t48.5 -314.5t-48.5 -315t-141.5 -248t-238.5 -163.5t-331.5 -58.5zM854 63q170 0 300 51.5t210 145.5t120 219.5t40 280.5t-40 280.5t-120 219.5t-209.5 145t-300.5 51
q-172 0 -302 -51t-209.5 -145t-119 -219.5t-39.5 -280.5t39.5 -280.5t119 -219.5t209.5 -145.5t302 -51.5z" />
    <glyph glyph-name="ordfeminine" unicode="&#xaa;" horiz-adv-x="1179" 
d="M451 578q-310 0 -310 235q0 93 27 160.5t74 109t124 66t162 33t203 8.5h119q12 50 12 92q0 58 -45 82.5t-166 24.5q-59 0 -130.5 -18t-121.5 -42l-63 131q56 34 149.5 58t192.5 24q174 0 255.5 -44t90.5 -132t-20 -221l-68 -303q-14 -64 -1.5 -82.5t73.5 -18.5l-31 -145
q-8 -2 -66 -2q-83 0 -110 39q-21 27 -21 72q-109 -127 -329 -127zM500 723q122 0 198.5 64.5t110.5 216.5l12 53h-112q-77 0 -128 -2.5t-100.5 -10.5t-78.5 -23t-52.5 -39t-33 -59t-9.5 -83q2 -59 45.5 -88t147.5 -29zM117 287l30 151h699l-31 -151h-698z" />
    <glyph glyph-name="guillemotleft" unicode="&#xab;" horiz-adv-x="1435" 
d="M346 0l-186 567l428 572h176l-416 -572l174 -567h-176zM850 0l-191 567l431 572h178l-418 -572l174 -567h-174z" />
    <glyph glyph-name="logicalnot" unicode="&#xac;" horiz-adv-x="1703" 
d="M258 246q-88 105 -136 237t-48 277q0 144 48 276t136 236q6 -4 14 -12q-85 -103 -131.5 -231.5t-46.5 -268.5q0 -285 180 -500zM467 432q-117 143 -117 328q0 183 115 327q3 -2 8 -7t8 -7q-110 -136 -110 -313q0 -182 110 -314zM541 498q-92 116 -92 262t92 262
q3 -2 8 -7t8 -7q-88 -109 -88 -248t88 -248q-3 -2 -8 -7t-8 -7zM647 592q-57 72 -57 168q0 97 57 166l15 -15q-52 -69 -52 -151q0 -84 54 -154q-3 -2 -8.5 -7t-8.5 -7zM715 655q-33 48 -33 105q0 56 33 104q3 -2 8 -7t8 -7q-29 -44 -29 -90t29 -90q-3 -2 -16 -15zM774 709
q-14 25 -14 51t14 51l12 -10q-10 -20 -10 -41t10 -41q-4 -4 -12 -10zM852 123q-236 0 -412 158l2.5 2.5l5 5l5.5 5.5t2 1q171 -152 397 -152q227 0 395 152q2 -3 7.5 -8t7.5 -8q-177 -156 -410 -156zM852 664q-31 0 -55 18l12 12q21 -14 43 -14q26 0 43 14q4 -4 10 -12
q-21 -18 -53 -18zM987 653q-7 10 -14 15q28 42 28 92q0 51 -28 90l2.5 2.5t5 4.5t5.5 5t1 2q35 -44 35 -104t-35 -107zM598 551q-72 91 -72 209q0 119 74 209l14 -15q-67 -87 -67 -194q0 -108 67 -195q-10 -10 -16 -14zM852 -35q-145 0 -278 52.5t-238 146.5l14 16
q102 -92 231 -143t271 -51q285 0 500 192q0 1 3.5 -2.5t6.5 -7.5l4 -4q-104 -95 -236 -147t-278 -52zM852 248q-189 0 -330 125l15 16q134 -121 315 -121q182 0 313 121q2 -3 7.5 -8t7.5 -8q-138 -125 -328 -125zM852 348q-145 0 -264 101l14 14q108 -94 250 -94
q143 0 248 94q2 -3 7 -8.5t7 -8.5q-112 -98 -262 -98zM852 428q-116 0 -211 78l14 16q86 -73 197 -73t197 73q4 -4 12 -16q-91 -78 -209 -78zM852 543q-77 0 -135 49l14 16q51 -45 121 -45q68 0 119 45q2 -3 7 -8t7 -8q-58 -49 -133 -49zM733 911q-4 3 -7 6.5t-6 6.5l-3 4
q58 49 135 49t135 -49l-16 -17q-51 45 -119 45t-119 -45zM1167 1130q-134 121 -315 121q-179 0 -313 -118l-15 14q141 125 328 125q189 0 330 -125q-4 -6 -15 -17zM930 709l-12 10q10 20 10 41t-10 41l12 10q14 -25 14 -51t-14 -51zM958 682q-10 10 -16 14q21 32 21 64
t-21 63l16 15q25 -36 25 -78t-25 -78zM1020 627q-6 4 -16 14q38 50 38 119t-38 119l14 14q45 -57 45 -133q0 -71 -43 -133zM1106 551q-3 2 -8 7t-8 7q67 87 67 195t-70 194l17 15q74 -90 74 -209q0 -118 -72 -209zM1163 498q-10 10 -16 14q88 109 88 248t-88 248l16 14
q92 -116 92 -262t-92 -262zM1237 432q-6 4 -16 14q112 134 112 314q0 182 -112 313l16 14q117 -139 117 -327q0 -189 -117 -328zM1329 350q-2 2 -7 6t-7 6q141 175 141 398q0 227 -143 395l16 14q148 -179 148 -409q0 -231 -148 -410zM1446 246q-6 6 -16 14q180 215 180 500
t-180 500l16 14q88 -105 136 -237t48 -277q0 -144 -48 -276t-136 -238zM375 348q-148 182 -148 412q0 229 146 409q2 -2 7.5 -6.5t8.5 -7.5q-141 -170 -141 -395q0 -228 141 -398zM684 627q-43 59 -43 133t43 133q6 -4 16 -14q-38 -50 -38 -119q0 -67 38 -117zM745 682
q-24 34 -24 78t24 78q2 -3 4.5 -5.5t6 -5.5t4.5 -4q-19 -34 -19 -63q0 -30 19 -64zM809 825l-10 13q21 18 53 18t53 -18l-10 -13q-23 15 -43 15q-25 0 -43 -15zM786 852l-14 14q37 29 80 29q41 0 78 -29q-8 -8 -12 -14q-28 25 -66 25q-34 0 -66 -25zM760 881l-15 16
q45 39 107 39q61 0 106 -39l-14 -16q-37 34 -92 34t-92 -34zM604 1057l-14 16q112 98 262 98q151 0 262 -100q1 0 -2 -3.5t-6 -7.5l-4 -3q-108 94 -250 94q-143 0 -248 -94zM852 492q-100 0 -170 61l14 16q70 -57 156 -57q87 0 154 57l14 -14q-73 -63 -168 -63zM852 584
q-61 0 -109 39l15 16q47 -35 94 -35q51 0 92 35l14 -16q-45 -39 -106 -39zM852 625q-43 0 -82 28l14 15q36 -25 68 -25q34 0 66 25l14 -15q-36 -28 -80 -28zM698 950l-14 15q73 63 168 63q98 0 168 -61l-14 -17q-68 58 -154 58q-87 0 -154 -58zM655 997l-14 17q91 78 211 78
q119 0 209 -80l-12 -15q-83 74 -197 74q-110 0 -197 -74zM1249 1223q-166 153 -397 153q-227 0 -397 -151l-15 14q179 158 412 158t412 -158zM352 1339l-14 17q104 95 236 146.5t278 51.5q145 0 278 -52t238 -146l-14 -17q-102 93 -231 144t-271 51t-270 -51t-230 -144z
M1057 594l-15 14q52 69 52 152t-54 153l17 15q57 -72 57 -168q0 -97 -57 -166z" />
    <glyph glyph-name="registered" unicode="&#xae;" horiz-adv-x="1691" 
d="M850 -25q-186 0 -332 58.5t-238.5 164t-140 248t-47.5 314.5q0 137 29.5 256t91 216.5t151 166.5t213 107t273.5 38q187 0 333.5 -58t239.5 -163.5t141 -248t48 -314.5t-48 -314.5t-141 -248t-239.5 -164t-333.5 -58.5zM850 63q171 0 301.5 51.5t210.5 145.5t120 219.5
t40 280.5t-40 280.5t-120.5 219.5t-210.5 145t-301 51q-138 0 -249 -33.5t-189 -94.5t-130.5 -148t-77 -191.5t-24.5 -228.5q0 -155 39.5 -280.5t119.5 -219.5t210 -145.5t301 -51.5zM1120 262l-225 391h-281v-391h-129v987h437q190 0 266 -72.5t76 -222.5
q0 -127 -54.5 -199t-181.5 -93l234 -400h-142zM614 770h308q111 0 161 39.5t50 140.5q0 100 -49.5 139t-165.5 39h-304v-358z" />
    <glyph glyph-name="macron" unicode="&#xaf;" 
d="M338 1255l35 170h743l-33 -170h-745z" />
    <glyph glyph-name="macron" unicode="&#x2c9;" 
d="M338 1255l35 170h743l-33 -170h-745z" />
    <glyph glyph-name="degree" unicode="&#xb0;" horiz-adv-x="1140" 
d="M573 563q-105 0 -184.5 29.5t-126 82t-69.5 119.5t-23 148q0 169 61.5 304t183 215.5t285.5 80.5q104 0 183 -30t125.5 -83.5t69 -121.5t22.5 -150q0 -169 -62.5 -303.5t-183.5 -212.5t-281 -78zM588 721q163 0 253.5 117t90.5 301q0 109 -61 173t-193 64
q-161 0 -250.5 -120.5t-89.5 -303.5q0 -107 60 -169t190 -62z" />
    <glyph glyph-name="plusminus" unicode="&#xb1;" horiz-adv-x="2029" 
d="M686 -338l277 1296h-445l-276 -1296h-201l276 1296h-215l39 181h215l25 114q18 88 47.5 148t79 103.5t122.5 64t175 20.5h113l-35 -174h-74q-60 0 -102 -12.5t-67.5 -38.5t-40 -57t-24.5 -76l-20 -92h446l25 114q26 118 71 188.5t131 109t222 38.5h111l-35 -174h-72
q-59 0 -101 -12.5t-68 -38.5t-40.5 -57t-25.5 -76l-21 -92h268l-36 -181h-269l-274 -1296h-201zM1671 -2q-153 0 -194.5 76t-6.5 252l271 1263h198l-272 -1272q-19 -79 -1.5 -110t95.5 -31h49l-36 -174q-36 -4 -103 -4z" />
    <glyph glyph-name="twosuperior" unicode="&#xb2;" horiz-adv-x="962" 
d="M115 567l24 121l367 295q150 124 180 155q53 54 61 112q3 18 3 42q0 94 -170 94q-125 0 -226 -43l-49 132q132 55 287 55q166 0 243.5 -52.5t77.5 -158.5q0 -46 -4 -80t-19 -67.5t-31.5 -57.5t-53.5 -60t-71.5 -65t-98.5 -80l-256 -207h409l-24 -135h-649z" />
    <glyph glyph-name="threesuperior" unicode="&#xb3;" horiz-adv-x="962" 
d="M492 553q-230 0 -388 113l89 116q72 -47 140.5 -70.5t155.5 -23.5q197 0 197 203q0 63 -39.5 93t-144.5 30h-137l30 137h172q94 0 136 32t42 115q0 97 -167 97q-51 0 -117 -13t-119 -41l-57 123q118 68 319 68q153 0 231 -51t78 -148q0 -111 -42.5 -169.5t-125.5 -84.5
q103 -43 103 -186q0 -174 -95 -257t-261 -83z" />
    <glyph glyph-name="acute" unicode="&#xb4;" 
d="M535 1255l374 336h250l-432 -336h-192z" />
    <glyph glyph-name="mu" unicode="&#xb5;" horiz-adv-x="1247" 
d="M-82 -338l311 1477h201l-133 -625q-12 -54 -17 -83.5t-8 -73t4.5 -67.5t25 -52t49 -42t81 -24t117.5 -10q85 0 138 17t84 66t43 86.5t32 127.5q1 5 2 8l143 672h195l-146 -684q-19 -89 -38 -152t-47.5 -120t-64.5 -93t-87 -63t-117.5 -38.5t-153.5 -11.5q-257 0 -323 121
l-94 -436h-197z" />
    <glyph glyph-name="mu" unicode="&#x3bc;" horiz-adv-x="1247" 
d="M-82 -338l311 1477h201l-133 -625q-12 -54 -17 -83.5t-8 -73t4.5 -67.5t25 -52t49 -42t81 -24t117.5 -10q85 0 138 17t84 66t43 86.5t32 127.5q1 5 2 8l143 672h195l-146 -684q-19 -89 -38 -152t-47.5 -120t-64.5 -93t-87 -63t-117.5 -38.5t-153.5 -11.5q-257 0 -323 121
l-94 -436h-197z" />
    <glyph glyph-name="paragraph" unicode="&#xb6;" horiz-adv-x="1277" 
d="M348 0l123 582q-172 32 -248 121t-76 231q0 292 143.5 438t436.5 146h528l-323 -1518h-189l119 565h-205l-120 -565h-189zM690 733h209l129 600h-321q-355 0 -355 -377q0 -112 80.5 -167.5t257.5 -55.5z" />
    <glyph glyph-name="periodcentered" unicode="&#xb7;" horiz-adv-x="518" 
d="M94 561l56 275h249l-57 -275h-248z" />
    <glyph glyph-name="periodcentered" unicode="&#x2219;" horiz-adv-x="518" 
d="M94 561l56 275h249l-57 -275h-248z" />
    <glyph glyph-name="cedilla" unicode="&#xb8;" 
d="M408 -475q-172 0 -289 80l76 106q94 -67 208 -67q146 0 146 110q0 87 -174 76l-41 35l59 149h123l-43 -104q215 0 215 -152q0 -233 -280 -233z" />
    <glyph glyph-name="onesuperior" unicode="&#xb9;" horiz-adv-x="706" 
d="M270 567l170 805h-178l31 146h344l-201 -951h-166z" />
    <glyph glyph-name="ordmasculine" unicode="&#xba;" horiz-adv-x="1181" 
d="M610 582q-208 0 -308.5 94.5t-100.5 267.5q2 271 135 434.5t358 163.5q212 0 313 -94.5t101 -267.5q0 -274 -133 -436t-365 -162zM608 735q156 0 242 113.5t86 308.5q0 225 -240 225q-149 0 -236 -116.5t-87 -309.5q0 -221 235 -221zM115 283l30 155h754l-31 -155h-753z
" />
    <glyph glyph-name="guillemotright" unicode="&#xbb;" horiz-adv-x="1435" 
d="M92 0l418 571l-174 568h174l188 -570l-430 -569h-176zM592 0l418 571l-174 568h176l188 -570l-428 -569h-180z" />
    <glyph glyph-name="onequarter" unicode="&#xbc;" horiz-adv-x="1869" 
d="M899 205l25 125l551 620h176l-549 -614h284l89 270h122l-57 -270h156l-29 -131h-156l-43 -205h-151l41 205h-459zM211 0l1169 1518h179l-1168 -1518h-180zM246 567l170 805h-178l28 146h346l-202 -951h-164z" />
    <glyph glyph-name="onehalf" unicode="&#xbd;" horiz-adv-x="2009" 
d="M246 567l170 805h-178l28 146h346l-202 -951h-164zM211 0l1169 1518h179l-1168 -1518h-180zM1044 0l23 121l369 295q149 122 184 159q49 53 55 114q2 15 2 34q0 96 -170 96q-121 0 -225 -43l-49 129q136 60 287 60q161 0 241 -55t80 -158q0 -56 -9 -97.5t-24 -74.5
t-53 -73t-76 -73t-112 -92l-254 -207h405l-26 -135h-648z" />
    <glyph glyph-name="threequarters" unicode="&#xbe;" horiz-adv-x="2093" 
d="M469 561q-227 0 -391 109l88 118q140 -94 299 -94q95 0 147 50.5t52 152.5q0 63 -40.5 95t-146.5 32h-135l29 131h170q96 0 139 32.5t43 117.5q0 50 -40 72t-130 22q-135 0 -236 -49l-57 123q119 65 320 65q153 0 231 -51t78 -148q0 -111 -42 -169t-124 -83
q98 -46 98 -188q0 -174 -93.5 -256t-258.5 -82zM1122 205l27 125l551 620h176l-549 -614h285l86 270h123l-58 -270h156l-29 -131h-153l-43 -205h-152l41 205h-461zM436 0l1170 1518h178l-1172 -1518h-176z" />
    <glyph glyph-name="questiondown" unicode="&#xbf;" horiz-adv-x="1355" 
d="M569 -20q-273 0 -391.5 83t-118.5 242q0 126 38 208.5t115 138t218 108.5q79 30 122.5 54t74.5 65t46.5 90.5t31.5 140.5h192q-13 -81 -25 -134.5t-31 -104.5t-41.5 -83.5t-58.5 -63.5t-81 -53.5t-109 -45.5q-62 -22 -98 -37t-72 -34t-54 -36.5t-33.5 -42.5t-20.5 -54.5
t-5 -70.5t15 -72t51 -57t103.5 -39.5t164.5 -13.5q185 0 387 74l68 -176q-109 -45 -244 -65.5t-244 -20.5zM709 1280l49 242h250l-50 -242h-249z" />
    <glyph glyph-name="Agrave" unicode="&#xc0;" horiz-adv-x="1472" 
d="M-117 0l912 1528h204l261 -1528h-207l-54 319h-704l-189 -319h-223zM401 510h570l-125 752zM903 1603l-288 336h231l234 -336h-177z" />
    <glyph glyph-name="Aacute" unicode="&#xc1;" horiz-adv-x="1472" 
d="M-117 0l912 1528h204l261 -1528h-207l-54 319h-704l-189 -319h-223zM401 510h570l-125 752zM736 1603l374 336h250l-432 -336h-192z" />
    <glyph glyph-name="Acircumflex" unicode="&#xc2;" horiz-adv-x="1472" 
d="M-117 0l912 1528h204l261 -1528h-207l-54 319h-704l-189 -319h-223zM401 510h570l-125 752zM502 1603l373 336h215l229 -336h-188l-172 207l-262 -207h-195z" />
    <glyph glyph-name="Atilde" unicode="&#xc3;" horiz-adv-x="1472" 
d="M-117 0l912 1528h204l261 -1528h-207l-54 319h-704l-189 -319h-223zM401 510h570l-125 752zM1094 1608q-47 0 -93.5 16t-77 36t-68.5 36t-72 16q-72 0 -160 -96l-103 102q132 158 271 158q47 0 93.5 -16t76.5 -35.5t68 -35.5t71 -16q37 0 73 25.5t83 77.5l104 -103
q-143 -165 -266 -165z" />
    <glyph glyph-name="Adieresis" unicode="&#xc4;" horiz-adv-x="1472" 
d="M-117 0l912 1528h204l261 -1528h-207l-54 319h-704l-189 -319h-223zM401 510h570l-125 752zM613 1603l47 230h182l-47 -230h-182zM1028 1603l47 230h183l-47 -230h-183z" />
    <glyph glyph-name="Aring" unicode="&#xc5;" horiz-adv-x="1472" 
d="M-117 0l862 1446q-100 56 -100 184q0 144 80.5 232t210.5 88q119 0 179.5 -63.5t60.5 -160.5q0 -104 -43.5 -176.5t-118.5 -107.5l246 -1442h-207l-54 319h-704l-189 -319h-223zM401 510h570l-125 752zM893 1530q76 0 123 49t47 135q0 54 -31.5 88.5t-99.5 34.5
q-77 0 -125.5 -53.5t-48.5 -138.5q0 -52 33.5 -83.5t101.5 -31.5z" />
    <glyph glyph-name="AE" unicode="&#xc6;" horiz-adv-x="2193" 
d="M-141 0l1259 1518h1114l-41 -199h-790l-96 -440h770l-39 -191h-770l-109 -498h799l-39 -190h-997l69 319h-633l-264 -319h-233zM502 498h524l176 835z" />
    <glyph glyph-name="Ccedilla" unicode="&#xc7;" horiz-adv-x="1462" 
d="M530 -475q-171 0 -288 80l75 106q94 -67 209 -67q146 0 146 110q0 87 -174 76l-41 35l51 133q-225 45 -336 192.5t-111 378.5q0 124 27 265q34 158 93.5 280t135.5 202t173.5 131.5t201 73t223.5 21.5q381 0 568 -219l-176 -141q-138 161 -400 161q-497 0 -612 -538
q-23 -106 -23 -209q0 -202 116 -313t351 -111q127 0 219.5 31t174.5 96l127 -154q-101 -86 -230 -127t-309 -41q-19 0 -96 5l-29 -72q215 0 215 -152q0 -233 -281 -233z" />
    <glyph glyph-name="Egrave" unicode="&#xc8;" horiz-adv-x="1300" 
d="M10 0l324 1518h1007l-41 -199h-800l-99 -436h781l-39 -197h-778l-109 -496h809l-39 -190h-1016zM821 1603l-288 336h231l234 -336h-177z" />
    <glyph glyph-name="Eacute" unicode="&#xc9;" horiz-adv-x="1300" 
d="M653 1604l375 335h250l-432 -335h-193zM10 0l324 1518h1007l-41 -199h-800l-99 -436h781l-39 -197h-778l-109 -496h809l-39 -190h-1016z" />
    <glyph glyph-name="Ecircumflex" unicode="&#xca;" horiz-adv-x="1300" 
d="M420 1604l373 335h215l229 -335h-188l-172 206l-263 -206h-194zM10 0l324 1518h1007l-41 -199h-800l-99 -436h781l-39 -197h-778l-109 -496h809l-39 -190h-1016z" />
    <glyph glyph-name="Edieresis" unicode="&#xcb;" horiz-adv-x="1300" 
d="M530 1604l48 229h182l-47 -229h-183zM946 1604l47 229h183l-48 -229h-182zM10 0l324 1518h1007l-41 -199h-800l-99 -436h781l-39 -197h-778l-109 -496h809l-39 -190h-1016z" />
    <glyph glyph-name="Igrave" unicode="&#xcc;" horiz-adv-x="581" 
d="M383 1606l-209 338h232l147 -338h-170zM27 0l323 1518h209l-323 -1518h-209z" />
    <glyph glyph-name="Iacute" unicode="&#xcd;" horiz-adv-x="581" 
d="M375 1606l297 338h246l-357 -338h-186zM27 0l323 1518h209l-323 -1518h-209z" />
    <glyph glyph-name="Icircumflex" unicode="&#xce;" horiz-adv-x="581" 
d="M27 0l323 1518h209l-323 -1518h-209zM63 1603l373 336h215l229 -336h-188l-172 207l-262 -207h-195z" />
    <glyph glyph-name="Idieresis" unicode="&#xcf;" horiz-adv-x="581" 
d="M27 0l323 1518h209l-323 -1518h-209zM174 1603l47 230h182l-47 -230h-182zM589 1603l47 230h183l-47 -230h-183z" />
    <glyph glyph-name="Eth" unicode="&#xd0;" horiz-adv-x="1531" 
d="M-12 694l37 172h170l139 652h360q417 0 598 -125.5t181 -407.5q0 -149 -37 -307q-26 -123 -62.5 -220.5t-80.5 -168.5t-102 -122t-119 -83.5t-140 -51t-157.5 -25.5t-178.5 -7h-586l148 694h-170zM256 190h344q115 0 198 13.5t155 47t122 92.5t88.5 148t65.5 216
q33 152 33 249q0 192 -129 278.5t-441 86.5h-190l-99 -455h326l-37 -172h-327z" />
    <glyph glyph-name="Ntilde" unicode="&#xd1;" horiz-adv-x="1576" 
d="M10 0l324 1518h225l559 -1170l254 1170h197l-324 -1518h-188l-588 1217l-262 -1217h-197zM1147 1608q-47 0 -93.5 16t-77 36t-68.5 36t-72 16q-72 0 -160 -96l-103 102q132 158 271 158q47 0 93.5 -16t76.5 -35.5t68 -35.5t71 -16q37 0 73 25.5t83 77.5l104 -103
q-143 -165 -266 -165z" />
    <glyph glyph-name="Ograve" unicode="&#xd2;" horiz-adv-x="1687" 
d="M764 -25q-341 0 -521 158t-180 455q-3 101 27 252q147 702 836 702q340 0 520 -157t180 -451q0 -122 -29 -250q-35 -161 -96.5 -285t-139 -203t-176.5 -129.5t-201 -71t-220 -20.5zM766 168q250 0 406.5 128.5t216.5 405.5q24 105 24 203q0 207 -122.5 322.5
t-375.5 115.5q-506 0 -618 -532q-23 -101 -23 -205q0 -206 121 -322t371 -116zM1013 1603l-288 336h231l234 -336h-177z" />
    <glyph glyph-name="Oacute" unicode="&#xd3;" horiz-adv-x="1687" 
d="M842 1604l375 335h249l-432 -335h-192zM764 -25q-341 0 -521 158t-180 455q-3 101 27 252q147 702 836 702q340 0 520 -157t180 -451q0 -122 -29 -250q-35 -161 -96.5 -285t-139 -203t-176.5 -129.5t-201 -71t-220 -20.5zM766 168q250 0 406.5 128.5t216.5 405.5
q24 105 24 203q0 207 -122.5 322.5t-375.5 115.5q-506 0 -618 -532q-23 -101 -23 -205q0 -206 121 -322t371 -116z" />
    <glyph glyph-name="Ocircumflex" unicode="&#xd4;" horiz-adv-x="1687" 
d="M608 1604l373 335h215l229 -335h-188l-172 206l-262 -206h-195zM764 -25q-341 0 -521 158t-180 455q-3 101 27 252q147 702 836 702q340 0 520 -157t180 -451q0 -122 -29 -250q-35 -161 -96.5 -285t-139 -203t-176.5 -129.5t-201 -71t-220 -20.5zM766 168
q250 0 406.5 128.5t216.5 405.5q24 105 24 203q0 207 -122.5 322.5t-375.5 115.5q-506 0 -618 -532q-23 -101 -23 -205q0 -206 121 -322t371 -116z" />
    <glyph glyph-name="Otilde" unicode="&#xd5;" horiz-adv-x="1687" 
d="M764 -25q-341 0 -521 158t-180 455q-3 101 27 252q147 702 836 702q340 0 520 -157t180 -451q0 -122 -29 -250q-35 -161 -96.5 -285t-139 -203t-176.5 -129.5t-201 -71t-220 -20.5zM766 168q250 0 406.5 128.5t216.5 405.5q24 105 24 203q0 207 -122.5 322.5
t-375.5 115.5q-506 0 -618 -532q-23 -101 -23 -205q0 -206 121 -322t371 -116zM1204 1608q-47 0 -93.5 16t-77 36t-68.5 36t-72 16q-72 0 -160 -96l-103 102q132 158 271 158q47 0 93.5 -16t76.5 -35.5t68 -35.5t71 -16q37 0 73 25.5t83 77.5l104 -103q-143 -165 -266 -165z
" />
    <glyph glyph-name="Odieresis" unicode="&#xd6;" horiz-adv-x="1687" 
d="M723 1604l47 229h182l-47 -229h-182zM1139 1604l47 229h182l-47 -229h-182zM764 -25q-341 0 -521 158t-180 455q-3 101 27 252q147 702 836 702q340 0 520 -157t180 -451q0 -122 -29 -250q-35 -161 -96.5 -285t-139 -203t-176.5 -129.5t-201 -71t-220 -20.5zM766 168
q250 0 406.5 128.5t216.5 405.5q24 105 24 203q0 207 -122.5 322.5t-375.5 115.5q-506 0 -618 -532q-23 -101 -23 -205q0 -206 121 -322t371 -116z" />
    <glyph glyph-name="multiply" unicode="&#xd7;" horiz-adv-x="1439" 
d="M295 276l-94 125l387 320l-250 319l145 125l254 -319l387 319l95 -127l-388 -317l252 -320l-147 -125l-250 320z" />
    <glyph glyph-name="Oslash" unicode="&#xd8;" horiz-adv-x="1687" 
d="M764 -25q-234 0 -391 74l-101 -133h-202l170 219q-177 160 -177 453q-3 101 27 252q34 160 95.5 283t139 201.5t177 128t202.5 69.5t222 20q210 0 364 -63l96 125h201l-157 -205q196 -158 196 -465q0 -122 -29 -250q-35 -161 -96.5 -285t-139 -203t-176.5 -129.5
t-201 -71t-220 -20.5zM766 162q254 0 412 129t219 411q24 105 24 207q0 213 -127 328l-802 -1026q110 -49 274 -49zM264 602q0 -199 107 -309l796 1018q-103 41 -252 41q-511 0 -626 -541q-25 -109 -25 -209z" />
    <glyph glyph-name="Ugrave" unicode="&#xd9;" horiz-adv-x="1574" 
d="M694 -27q-137 0 -242 23.5t-170.5 62.5t-106.5 96.5t-57 118.5t-16 134q0 84 25 196l197 914h206l-194 -908q-23 -113 -23 -166q0 -135 91.5 -205.5t310.5 -70.5q106 0 183.5 24.5t130.5 75.5t85 120.5t53 168.5l207 961h201l-217 -1002q-20 -96 -48.5 -171t-80 -147.5
t-121 -119.5t-175 -76t-239.5 -29zM956 1603l-288 336h231l234 -336h-177z" />
    <glyph glyph-name="Uacute" unicode="&#xda;" horiz-adv-x="1574" 
d="M788 1604l375 335h250l-432 -335h-193zM694 -27q-137 0 -242 23.5t-170.5 62.5t-106.5 96.5t-57 118.5t-16 134q0 84 25 196l197 914h206l-194 -908q-23 -113 -23 -166q0 -135 91.5 -205.5t310.5 -70.5q106 0 183.5 24.5t130.5 75.5t85 120.5t53 168.5l207 961h201
l-217 -1002q-20 -96 -48.5 -171t-80 -147.5t-121 -119.5t-175 -76t-239.5 -29z" />
    <glyph glyph-name="Ucircumflex" unicode="&#xdb;" horiz-adv-x="1574" 
d="M555 1604l373 335h215l229 -335h-188l-172 206l-262 -206h-195zM694 -27q-137 0 -242 23.5t-170.5 62.5t-106.5 96.5t-57 118.5t-16 134q0 84 25 196l197 914h206l-194 -908q-23 -113 -23 -166q0 -135 91.5 -205.5t310.5 -70.5q106 0 183.5 24.5t130.5 75.5t85 120.5
t53 168.5l207 961h201l-217 -1002q-20 -96 -48.5 -171t-80 -147.5t-121 -119.5t-175 -76t-239.5 -29z" />
    <glyph glyph-name="Udieresis" unicode="&#xdc;" horiz-adv-x="1574" 
d="M666 1604l47 229h182l-47 -229h-182zM1081 1604l47 229h183l-47 -229h-183zM694 -27q-137 0 -242 23.5t-170.5 62.5t-106.5 96.5t-57 118.5t-16 134q0 84 25 196l197 914h206l-194 -908q-23 -113 -23 -166q0 -135 91.5 -205.5t310.5 -70.5q106 0 183.5 24.5t130.5 75.5
t85 120.5t53 168.5l207 961h201l-217 -1002q-20 -96 -48.5 -171t-80 -147.5t-121 -119.5t-175 -76t-239.5 -29z" />
    <glyph glyph-name="Yacute" unicode="&#xdd;" horiz-adv-x="1425" 
d="M444 0l125 584l-381 934h215l308 -736l614 736h229l-780 -940l-123 -578h-207zM713 1603l374 336h250l-432 -336h-192z" />
    <glyph glyph-name="Thorn" unicode="&#xde;" horiz-adv-x="1433" 
d="M10 0l324 1518h203l-54 -236h365q534 0 534 -367q0 -277 -143 -436.5t-430 -159.5h-528l-68 -319h-203zM317 504h488q175 0 268.5 92t93.5 278q0 111 -81.5 165.5t-262.5 54.5h-377z" />
    <glyph glyph-name="germandbls" unicode="&#xdf;" horiz-adv-x="1308" 
d="M-82 -338l309 1460q23 109 63 193t102.5 149.5t156.5 100t215 34.5q237 0 347 -88t110 -243q0 -178 -77 -290.5t-210 -148.5q127 -34 188.5 -112.5t61.5 -208.5q0 -259 -141 -383.5t-439 -124.5h-205l37 180h158q206 0 301.5 82.5t95.5 239.5q0 109 -90 165t-287 56
l35 168q175 -2 272 70.5t97 242.5q0 89 -65 141t-205 52q-139 0 -218 -75.5t-112 -231.5l-303 -1428h-197z" />
    <glyph glyph-name="agrave" unicode="&#xe0;" horiz-adv-x="1251" 
d="M375 -20q-112 0 -190.5 21.5t-122 63.5t-62 95t-18.5 125q0 109 31.5 188.5t88.5 131t149.5 82t201 42.5t256.5 12h147q12 55 12 105q0 71 -56 102t-206 31q-73 0 -162 -21t-145 -51l-80 162q70 41 185 68.5t237 27.5q93 0 163 -10.5t118.5 -29.5t79 -51t45.5 -69
t16.5 -91t-6 -108.5t-23.5 -129.5l-80 -373q-21 -80 -6.5 -104t92.5 -23l-34 -174q-12 -4 -86 -4t-110 26t-40 91q-117 -135 -395 -135zM426 152q169 0 253.5 78.5t127.5 271.5l14 69h-139q-115 0 -190 -6t-139 -22t-98.5 -45.5t-53.5 -76.5t-19 -116q0 -76 54.5 -114.5
t189.5 -38.5zM725 1255l-288 336h231l234 -336h-177z" />
    <glyph glyph-name="aacute" unicode="&#xe1;" horiz-adv-x="1251" 
d="M375 -20q-112 0 -190.5 21.5t-122 63.5t-62 95t-18.5 125q0 109 31.5 188.5t88.5 131t149.5 82t201 42.5t256.5 12h147q12 55 12 105q0 71 -56 102t-206 31q-73 0 -162 -21t-145 -51l-80 162q70 41 185 68.5t237 27.5q93 0 163 -10.5t118.5 -29.5t79 -51t45.5 -69
t16.5 -91t-6 -108.5t-23.5 -129.5l-80 -373q-21 -80 -6.5 -104t92.5 -23l-34 -174q-12 -4 -86 -4t-110 26t-40 91q-117 -135 -395 -135zM426 152q169 0 253.5 78.5t127.5 271.5l14 69h-139q-115 0 -190 -6t-139 -22t-98.5 -45.5t-53.5 -76.5t-19 -116q0 -76 54.5 -114.5
t189.5 -38.5zM558 1255l374 336h250l-432 -336h-192z" />
    <glyph glyph-name="acircumflex" unicode="&#xe2;" horiz-adv-x="1251" 
d="M375 -20q-112 0 -190.5 21.5t-122 63.5t-62 95t-18.5 125q0 109 31.5 188.5t88.5 131t149.5 82t201 42.5t256.5 12h147q12 55 12 105q0 71 -56 102t-206 31q-73 0 -162 -21t-145 -51l-80 162q70 41 185 68.5t237 27.5q93 0 163 -10.5t118.5 -29.5t79 -51t45.5 -69
t16.5 -91t-6 -108.5t-23.5 -129.5l-80 -373q-21 -80 -6.5 -104t92.5 -23l-34 -174q-12 -4 -86 -4t-110 26t-40 91q-117 -135 -395 -135zM426 152q169 0 253.5 78.5t127.5 271.5l14 69h-139q-115 0 -190 -6t-139 -22t-98.5 -45.5t-53.5 -76.5t-19 -116q0 -76 54.5 -114.5
t189.5 -38.5zM324 1255l373 336h215l229 -336h-188l-172 207l-262 -207h-195z" />
    <glyph glyph-name="atilde" unicode="&#xe3;" horiz-adv-x="1251" 
d="M375 -20q-112 0 -190.5 21.5t-122 63.5t-62 95t-18.5 125q0 109 31.5 188.5t88.5 131t149.5 82t201 42.5t256.5 12h147q12 55 12 105q0 71 -56 102t-206 31q-73 0 -162 -21t-145 -51l-80 162q70 41 185 68.5t237 27.5q93 0 163 -10.5t118.5 -29.5t79 -51t45.5 -69
t16.5 -91t-6 -108.5t-23.5 -129.5l-80 -373q-21 -80 -6.5 -104t92.5 -23l-34 -174q-12 -4 -86 -4t-110 26t-40 91q-117 -135 -395 -135zM426 152q169 0 253.5 78.5t127.5 271.5l14 69h-139q-115 0 -190 -6t-139 -22t-98.5 -45.5t-53.5 -76.5t-19 -116q0 -76 54.5 -114.5
t189.5 -38.5zM916 1260q-47 0 -93.5 16t-77 36t-68.5 36t-72 16q-72 0 -160 -96l-103 102q132 158 271 158q47 0 93.5 -16t76.5 -35.5t68 -35.5t71 -16q37 0 73 25.5t83 77.5l104 -103q-143 -165 -266 -165z" />
    <glyph glyph-name="adieresis" unicode="&#xe4;" horiz-adv-x="1251" 
d="M375 -20q-112 0 -190.5 21.5t-122 63.5t-62 95t-18.5 125q0 109 31.5 188.5t88.5 131t149.5 82t201 42.5t256.5 12h147q12 55 12 105q0 71 -56 102t-206 31q-73 0 -162 -21t-145 -51l-80 162q70 41 185 68.5t237 27.5q93 0 163 -10.5t118.5 -29.5t79 -51t45.5 -69
t16.5 -91t-6 -108.5t-23.5 -129.5l-80 -373q-21 -80 -6.5 -104t92.5 -23l-34 -174q-12 -4 -86 -4t-110 26t-40 91q-117 -135 -395 -135zM426 152q169 0 253.5 78.5t127.5 271.5l14 69h-139q-115 0 -190 -6t-139 -22t-98.5 -45.5t-53.5 -76.5t-19 -116q0 -76 54.5 -114.5
t189.5 -38.5zM435 1255l47 230h182l-47 -230h-182zM850 1255l47 230h183l-47 -230h-183z" />
    <glyph glyph-name="aring" unicode="&#xe5;" horiz-adv-x="1251" 
d="M375 -20q-112 0 -190.5 21.5t-122 63.5t-62 95t-18.5 125q0 109 31.5 188.5t88.5 131t149.5 82t201 42.5t256.5 12h147q12 55 12 105q0 71 -56 102t-206 31q-73 0 -162 -21t-145 -51l-80 162q70 41 185 68.5t237 27.5q93 0 163 -10.5t118.5 -29.5t79 -51t45.5 -69
t16.5 -91t-6 -108.5t-23.5 -129.5l-80 -373q-21 -80 -6.5 -104t92.5 -23l-34 -174q-12 -4 -86 -4t-110 26t-40 91q-117 -135 -395 -135zM426 152q169 0 253.5 78.5t127.5 271.5l14 69h-139q-115 0 -190 -6t-139 -22t-98.5 -45.5t-53.5 -76.5t-19 -116q0 -76 54.5 -114.5
t189.5 -38.5zM760 1237q-124 0 -183.5 59t-59.5 154q0 144 80 231.5t210 87.5q119 0 179.5 -63.5t60.5 -159.5q0 -144 -80.5 -226.5t-206.5 -82.5zM764 1350q76 0 123 49t47 135q0 54 -31.5 88.5t-99.5 34.5q-76 0 -125 -54t-49 -139q0 -52 33.5 -83t101.5 -31z" />
    <glyph glyph-name="ae" unicode="&#xe6;" horiz-adv-x="1949" 
d="M1268 -23q-329 0 -416 203q-70 -99 -186 -149.5t-299 -50.5q-189 0 -287 73.5t-98 231.5q0 107 31 185.5t88.5 130.5t149 83t201.5 44t257 13h147q12 56 12 105q0 70 -56 101.5t-206 31.5q-73 0 -162 -21t-145 -51l-80 162q71 42 185 69t237 27q169 0 259.5 -33.5
t123.5 -103.5q140 137 389 137q125 0 212.5 -26.5t134 -75t66 -106t19.5 -130.5q0 -125 -43 -333h-815q-4 -54 -4 -78q0 -124 70 -193t235 -69q207 0 346 86l82 -152q-97 -62 -204.5 -86.5t-243.5 -24.5zM426 152q118 0 192 36.5t116.5 110t72.5 203.5l14 69h-139
q-82 0 -137.5 -2t-112.5 -8.5t-93 -18.5t-68.5 -31.5t-50.5 -48.5t-28 -68.5t-10 -92.5q0 -77 57.5 -113t186.5 -36zM1393 985q-152 0 -239 -79.5t-132 -237.5h620q15 92 15 129q0 44 -12 76.5t-40.5 58.5t-81.5 39.5t-130 13.5z" />
    <glyph glyph-name="ccedilla" unicode="&#xe7;" horiz-adv-x="1124" 
d="M369 -475q-172 0 -289 80l76 106q94 -67 209 -67q145 0 145 110q0 87 -174 76l-41 35l51 129q-315 63 -315 409q0 105 22 224q56 269 198 403.5t404 134.5q90 0 162 -15t122.5 -42.5t84.5 -57.5t63 -69l-167 -133q-21 27 -38.5 44t-50 38.5t-80.5 32t-110 10.5
q-162 0 -255 -89.5t-134 -289.5q-19 -104 -19 -172q0 -264 287 -264q80 0 145 20t134 70l112 -133q-94 -74 -191 -104.5t-214 -30.5q-29 0 -43 2l-29 -72q215 0 215 -152q0 -233 -280 -233z" />
    <glyph glyph-name="egrave" unicode="&#xe8;" horiz-adv-x="1187" 
d="M502 -23q-475 0 -475 420q0 107 26 230q53 264 194.5 401t399.5 137q101 0 178 -18t125 -48t78 -74t41.5 -92t11.5 -106q0 -133 -45 -333h-815q-4 -54 -4 -78q0 -124 70 -193t237 -69q205 0 344 86l82 -152q-96 -62 -203.5 -86.5t-244.5 -24.5zM627 985
q-151 0 -237.5 -79t-131.5 -236h619q16 75 16 127q0 44 -12 76.5t-41 58.5t-82 39.5t-131 13.5zM694 1255l-288 336h231l234 -336h-177z" />
    <glyph glyph-name="eacute" unicode="&#xe9;" horiz-adv-x="1187" 
d="M526 1255l375 336h250l-432 -336h-193zM502 -23q-475 0 -475 420q0 107 26 230q53 264 194.5 401t399.5 137q101 0 178 -18t125 -48t78 -74t41.5 -92t11.5 -106q0 -133 -45 -333h-815q-4 -54 -4 -78q0 -124 70 -193t237 -69q205 0 344 86l82 -152q-96 -62 -203.5 -86.5
t-244.5 -24.5zM627 985q-151 0 -237.5 -79t-131.5 -236h619q16 75 16 127q0 44 -12 76.5t-41 58.5t-82 39.5t-131 13.5z" />
    <glyph glyph-name="ecircumflex" unicode="&#xea;" horiz-adv-x="1187" 
d="M293 1255l373 336h215l229 -336h-188l-172 207l-263 -207h-194zM502 -23q-475 0 -475 420q0 107 26 230q53 264 194.5 401t399.5 137q101 0 178 -18t125 -48t78 -74t41.5 -92t11.5 -106q0 -133 -45 -333h-815q-4 -54 -4 -78q0 -124 70 -193t237 -69q205 0 344 86l82 -152
q-96 -62 -203.5 -86.5t-244.5 -24.5zM627 985q-151 0 -237.5 -79t-131.5 -236h619q16 75 16 127q0 44 -12 76.5t-41 58.5t-82 39.5t-131 13.5z" />
    <glyph glyph-name="edieresis" unicode="&#xeb;" horiz-adv-x="1187" 
d="M403 1255l48 230h182l-47 -230h-183zM819 1255l47 230h183l-48 -230h-182zM502 -23q-475 0 -475 420q0 107 26 230q53 264 194.5 401t399.5 137q101 0 178 -18t125 -48t78 -74t41.5 -92t11.5 -106q0 -133 -45 -333h-815q-4 -54 -4 -78q0 -124 70 -193t237 -69
q205 0 344 86l82 -152q-96 -62 -203.5 -86.5t-244.5 -24.5zM627 985q-151 0 -237.5 -79t-131.5 -236h619q16 75 16 127q0 44 -12 76.5t-41 58.5t-82 39.5t-131 13.5z" />
    <glyph glyph-name="igrave" unicode="&#xec;" horiz-adv-x="516" 
d="M262 1255l-196 336h233l137 -336h-174zM-2 0l242 1139h198l-241 -1139h-199z" />
    <glyph glyph-name="iacute" unicode="&#xed;" horiz-adv-x="516" 
d="M262 1255l299 336h246l-358 -336h-187zM-2 0l242 1139h198l-241 -1139h-199z" />
    <glyph glyph-name="icircumflex" unicode="&#xee;" horiz-adv-x="516" 
d="M-6 1255l332 336h215l188 -336h-188l-131 207l-222 -207h-194zM-2 0l242 1139h198l-241 -1139h-199z" />
    <glyph glyph-name="idieresis" unicode="&#xef;" horiz-adv-x="516" 
d="M92 1255l47 230h170l-47 -230h-170zM463 1255l47 230h170l-47 -230h-170zM-2 0l242 1139h198l-241 -1139h-199z" />
    <glyph glyph-name="eth" unicode="&#xf0;" horiz-adv-x="1267" 
d="M674 1196l33 170l143 35q-53 76 -109 137l195 78q72 -79 121 -164l325 80l-30 -172l-228 -55q62 -169 62 -379q0 -209 -51 -430q-67 -284 -209.5 -401.5t-388.5 -117.5q-264 0 -386 115t-122 322q0 105 24 213q56 255 190 378t363 123q153 0 238 -28.5t129 -91.5
q6 126 -45 249zM537 158q167 0 260.5 85t134.5 273q20 81 20 160q0 266 -303 266q-169 0 -262 -86t-135 -274q-19 -90 -19 -164q0 -260 304 -260z" />
    <glyph glyph-name="ntilde" unicode="&#xf1;" horiz-adv-x="1253" 
d="M-14 0l239 1128l160 11l-10 -95q131 121 364 121q78 0 139.5 -10t103 -30.5t70.5 -45.5t43.5 -63t21 -74t2.5 -87.5t-10.5 -94.5t-18.5 -103l-142 -657h-198l135 635q29 134 25 187q-7 100 -110 131q-53 16 -136 16t-143.5 -24t-98.5 -70.5t-60 -99t-38 -126.5l-138 -649
h-200zM911 1260q-47 0 -93.5 16t-77 36t-68.5 36t-72 16q-72 0 -160 -96l-103 102q132 158 271 158q47 0 93.5 -16t76.5 -35.5t68 -35.5t71 -16q37 0 73 25.5t83 77.5l104 -103q-143 -165 -266 -165z" />
    <glyph glyph-name="ograve" unicode="&#xf2;" horiz-adv-x="1267" 
d="M526 -23q-256 0 -375.5 115t-119.5 324q0 92 22 211q62 285 211 411.5t398 126.5q258 0 378.5 -114t120.5 -322q0 -83 -24 -213q-60 -285 -210 -412t-401 -127zM537 158q167 0 262.5 90.5t136.5 286.5q18 86 18 165q0 275 -303 275q-169 0 -263 -91.5t-136 -289.5
q-19 -90 -19 -168q0 -268 304 -268zM729 1255l-288 336h231l234 -336h-177z" />
    <glyph glyph-name="oacute" unicode="&#xf3;" horiz-adv-x="1267" 
d="M561 1255l375 336h250l-432 -336h-193zM526 -23q-256 0 -375.5 115t-119.5 324q0 92 22 211q62 285 211 411.5t398 126.5q258 0 378.5 -114t120.5 -322q0 -83 -24 -213q-60 -285 -210 -412t-401 -127zM537 158q167 0 262.5 90.5t136.5 286.5q18 86 18 165q0 275 -303 275
q-169 0 -263 -91.5t-136 -289.5q-19 -90 -19 -168q0 -268 304 -268z" />
    <glyph glyph-name="ocircumflex" unicode="&#xf4;" horiz-adv-x="1267" 
d="M328 1255l372 336h215l230 -336h-189l-172 207l-262 -207h-194zM526 -23q-256 0 -375.5 115t-119.5 324q0 92 22 211q62 285 211 411.5t398 126.5q258 0 378.5 -114t120.5 -322q0 -83 -24 -213q-60 -285 -210 -412t-401 -127zM537 158q167 0 262.5 90.5t136.5 286.5
q18 86 18 165q0 275 -303 275q-169 0 -263 -91.5t-136 -289.5q-19 -90 -19 -168q0 -268 304 -268z" />
    <glyph glyph-name="otilde" unicode="&#xf5;" horiz-adv-x="1267" 
d="M526 -23q-256 0 -375.5 115t-119.5 324q0 92 22 211q62 285 211 411.5t398 126.5q258 0 378.5 -114t120.5 -322q0 -83 -24 -213q-60 -285 -210 -412t-401 -127zM537 158q167 0 262.5 90.5t136.5 286.5q18 86 18 165q0 275 -303 275q-169 0 -263 -91.5t-136 -289.5
q-19 -90 -19 -168q0 -268 304 -268zM920 1260q-47 0 -93.5 16t-77 36t-68.5 36t-72 16q-72 0 -160 -96l-103 102q132 158 271 158q47 0 93.5 -16t76.5 -35.5t68 -35.5t71 -16q37 0 73 25.5t83 77.5l104 -103q-143 -165 -266 -165z" />
    <glyph glyph-name="odieresis" unicode="&#xf6;" horiz-adv-x="1267" 
d="M438 1255l47 230h183l-47 -230h-183zM854 1255l47 230h182l-47 -230h-182zM526 -23q-256 0 -375.5 115t-119.5 324q0 92 22 211q62 285 211 411.5t398 126.5q258 0 378.5 -114t120.5 -322q0 -83 -24 -213q-60 -285 -210 -412t-401 -127zM537 158q167 0 262.5 90.5
t136.5 286.5q18 86 18 165q0 275 -303 275q-169 0 -263 -91.5t-136 -289.5q-19 -90 -19 -168q0 -268 304 -268z" />
    <glyph glyph-name="divide" unicode="&#xf7;" horiz-adv-x="1439" 
d="M492 205l45 215h225l-47 -215h-223zM182 627l41 190h1018l-41 -190h-1018zM666 1026l45 215h223l-45 -215h-223z" />
    <glyph glyph-name="oslash" unicode="&#xf8;" horiz-adv-x="1267" 
d="M526 -23q-169 0 -282 52l-94 -115h-175l158 195q-102 108 -102 307q0 92 22 211q62 285 211 411.5t398 126.5q172 0 284 -53l92 117h176l-157 -195q104 -107 104 -305q0 -83 -24 -213q-60 -285 -210 -412t-401 -127zM535 147q173 0 269.5 92.5t139.5 292.5q21 91 21 173
q0 107 -45 172l-566 -697q67 -33 181 -33zM223 422q0 -99 39 -164l561 696q-70 31 -170 31q-173 0 -269.5 -93.5t-139.5 -295.5q-21 -107 -21 -174z" />
    <glyph glyph-name="ugrave" unicode="&#xf9;" horiz-adv-x="1239" 
d="M522 -23q-102 0 -179 14t-129 38t-85 63t-49 82.5t-18 103.5t5 118.5t23 135.5l129 607h201l-131 -625q-9 -39 -14 -65.5t-9 -60t-2.5 -55.5t7.5 -48t19 -42.5t34 -33.5t51 -26t71 -15t93 -6q48 0 86.5 8t66 19t49.5 34.5t35.5 44t26 58t19.5 65t18 76.5l143 672h195
l-146 -684q-19 -90 -38 -152t-47 -119.5t-63.5 -93t-86.5 -63t-118.5 -39t-156.5 -11.5zM714 1255l-288 336h231l234 -336h-177z" />
    <glyph glyph-name="uacute" unicode="&#xfa;" horiz-adv-x="1239" 
d="M547 1255l375 336h249l-432 -336h-192zM522 -23q-102 0 -179 14t-129 38t-85 63t-49 82.5t-18 103.5t5 118.5t23 135.5l129 607h201l-131 -625q-9 -39 -14 -65.5t-9 -60t-2.5 -55.5t7.5 -48t19 -42.5t34 -33.5t51 -26t71 -15t93 -6q48 0 86.5 8t66 19t49.5 34.5t35.5 44
t26 58t19.5 65t18 76.5l143 672h195l-146 -684q-19 -90 -38 -152t-47 -119.5t-63.5 -93t-86.5 -63t-118.5 -39t-156.5 -11.5z" />
    <glyph glyph-name="ucircumflex" unicode="&#xfb;" horiz-adv-x="1239" 
d="M313 1255l373 336h215l229 -336h-188l-172 207l-262 -207h-195zM522 -23q-102 0 -179 14t-129 38t-85 63t-49 82.5t-18 103.5t5 118.5t23 135.5l129 607h201l-131 -625q-9 -39 -14 -65.5t-9 -60t-2.5 -55.5t7.5 -48t19 -42.5t34 -33.5t51 -26t71 -15t93 -6q48 0 86.5 8
t66 19t49.5 34.5t35.5 44t26 58t19.5 65t18 76.5l143 672h195l-146 -684q-19 -90 -38 -152t-47 -119.5t-63.5 -93t-86.5 -63t-118.5 -39t-156.5 -11.5z" />
    <glyph glyph-name="udieresis" unicode="&#xfc;" horiz-adv-x="1239" 
d="M424 1255l47 230h182l-47 -230h-182zM840 1255l47 230h182l-47 -230h-182zM522 -23q-102 0 -179 14t-129 38t-85 63t-49 82.5t-18 103.5t5 118.5t23 135.5l129 607h201l-131 -625q-9 -39 -14 -65.5t-9 -60t-2.5 -55.5t7.5 -48t19 -42.5t34 -33.5t51 -26t71 -15t93 -6
q48 0 86.5 8t66 19t49.5 34.5t35.5 44t26 58t19.5 65t18 76.5l143 672h195l-146 -684q-19 -90 -38 -152t-47 -119.5t-63.5 -93t-86.5 -63t-118.5 -39t-156.5 -11.5z" />
    <glyph glyph-name="yacute" unicode="&#xfd;" horiz-adv-x="1073" 
d="M53 -344q-104 0 -129 2l33 162h88q55 0 85 10.5t48 30.5t45 69l56 93l-181 1116h207l127 -867l492 867h215l-736 -1252q-53 -92 -98.5 -140t-104 -69.5t-147.5 -21.5zM472 1255l374 336h250l-432 -336h-192z" />
    <glyph glyph-name="thorn" unicode="&#xfe;" horiz-adv-x="1302" 
d="M-82 -338l410 1927h196l-116 -538q52 58 138.5 86t229.5 28q424 0 424 -411q0 -108 -31 -238q-29 -132 -69.5 -226t-103.5 -166t-154.5 -107t-214.5 -35q-189 0 -286.5 38t-125.5 117l-100 -475h-197zM600 162q159 0 242 89t127 284q22 121 22 180q0 126 -65 193t-217 67
q-85 0 -144.5 -16.5t-109.5 -58t-83.5 -115t-58.5 -185.5q-24 -102 -24 -182q0 -132 73.5 -194t237.5 -62z" />
    <glyph glyph-name="ydieresis" unicode="&#xff;" horiz-adv-x="1073" 
d="M53 -344q-104 0 -129 2l33 162h88q55 0 85 10.5t48 30.5t45 69l56 93l-181 1116h207l127 -867l492 867h215l-736 -1252q-53 -92 -98.5 -140t-104 -69.5t-147.5 -21.5zM349 1255l47 230h182l-47 -230h-182zM764 1255l47 230h183l-47 -230h-183z" />
    <glyph glyph-name="dotlessi" unicode="&#x131;" horiz-adv-x="516" 
d="M-2 0l242 1139h198l-241 -1139h-199z" />
    <glyph glyph-name="Lslash" unicode="&#x141;" horiz-adv-x="1193" 
d="M-31 594l37 182l189 94l139 648h207l-115 -533l369 184l-39 -182l-369 -184l-131 -613h766l-37 -190h-975l146 688z" />
    <glyph glyph-name="lslash" unicode="&#x142;" horiz-adv-x="751" 
d="M47 760l37 172l221 115l117 542h201l-93 -428l244 127l-37 -174l-243 -125l-146 -678q-20 -82 -2 -112.5t98 -30.5h48l-37 -166q-36 -4 -103 -4q-152 0 -194.5 75.5t-5.5 245.5l116 555z" />
    <glyph glyph-name="OE" unicode="&#x152;" horiz-adv-x="2529" 
d="M764 -25q-341 0 -521 158t-180 455q-3 101 27 252q147 702 836 702q458 0 606 -293l57 269h977l-43 -199h-788l-95 -440h768l-38 -191h-771l-108 -498h799l-39 -190h-985l41 193q-200 -218 -543 -218zM766 168q250 0 406.5 128.5t216.5 405.5q24 105 24 203
q0 207 -122.5 322.5t-375.5 115.5q-506 0 -618 -532q-23 -101 -23 -205q0 -206 121 -322t371 -116z" />
    <glyph glyph-name="oe" unicode="&#x153;" horiz-adv-x="2082" 
d="M1399 -23q-329 0 -416 203q-75 -106 -188 -154.5t-271 -48.5q-255 0 -375 115.5t-120 323.5q0 81 24 211q62 285 211 411.5t398 126.5q337 0 434 -209q145 209 448 209q101 0 177.5 -17.5t124.5 -47.5t77.5 -74t41 -92t11.5 -107q0 -125 -43 -333h-815q-4 -54 -4 -78
q0 -124 70 -193t235 -69q207 0 346 86l80 -152q-96 -62 -203 -86.5t-243 -24.5zM535 158q168 0 263 90.5t136 286.5q20 81 20 165q0 275 -303 275q-169 0 -263 -91.5t-136 -289.5q-21 -86 -21 -168q0 -268 304 -268zM1524 985q-153 0 -240.5 -79.5t-130.5 -237.5h621
q14 82 14 129q0 44 -12 76.5t-40.5 58.5t-81.5 39.5t-130 13.5z" />
    <glyph glyph-name="Scaron" unicode="&#x160;" horiz-adv-x="1419" 
d="M778 1604l-229 335h186l174 -206l260 206h197l-371 -335h-217zM631 -20q-224 0 -389 53.5t-299 152.5l131 154q235 -178 567 -178q391 0 391 260q0 26 -5 47.5t-11 39t-21.5 34t-27 27.5t-37.5 24t-42 20.5t-51.5 19.5t-56 18.5t-65.5 19.5q-35 10 -53 16q-97 29 -147 46
t-119.5 51.5t-102.5 71.5t-58.5 96.5t-25.5 136.5q0 101 30.5 180t82 129.5t124 83t151 46t169.5 13.5q372 0 590 -168l-135 -160q-177 138 -463 138q-336 0 -336 -246q0 -30 8.5 -55.5t22 -45t38 -37t48 -29.5t62.5 -25.5t70 -23t81 -22.5q65 -18 105.5 -30t93 -30t85 -35
t70 -40t59.5 -49t41.5 -59t28 -73.5t8.5 -88.5q0 -106 -31.5 -189t-86 -137.5t-132.5 -90.5t-167 -51t-195 -15z" />
    <glyph glyph-name="scaron" unicode="&#x161;" horiz-adv-x="1056" 
d="M526 1255l-229 336h186l174 -207l261 207h196l-371 -336h-217zM442 -20q-154 0 -287 45t-227 125l129 141q81 -64 187 -100.5t217 -36.5q54 0 94 7.5t74.5 26t52.5 55.5t18 91q0 28 -14.5 52t-34 39.5t-56.5 31t-64.5 24t-75.5 21.5q-44 13 -69 20.5t-66 23t-65 30
t-54 37.5t-45.5 49t-27 61.5t-11.5 77.5q0 95 32.5 166t92.5 114t139.5 63.5t179.5 20.5q276 0 449 -127l-127 -155q-152 98 -336 98q-225 0 -225 -156q0 -27 13.5 -49t32 -37t54.5 -30.5t63.5 -24t75.5 -22.5q63 -18 101.5 -31.5t89.5 -40t79.5 -56t49 -76t20.5 -104.5
q0 -85 -23.5 -150.5t-64 -107t-100 -68.5t-125.5 -37.5t-146 -10.5z" />
    <glyph glyph-name="Ydieresis" unicode="&#x178;" horiz-adv-x="1425" 
d="M444 0l125 584l-381 934h215l308 -736l614 736h229l-780 -940l-123 -578h-207zM590 1603l47 230h182l-47 -230h-182zM1005 1603l47 230h183l-47 -230h-183z" />
    <glyph glyph-name="Zcaron" unicode="&#x17d;" horiz-adv-x="1335" 
d="M737 1604l-229 335h186l174 -206l260 206h197l-371 -335h-217zM-76 0l35 164l1116 1155h-833l41 199h1101l-34 -181l-1112 -1147h884l-39 -190h-1159z" />
    <glyph glyph-name="zcaron" unicode="&#x17e;" horiz-adv-x="1007" 
d="M506 1255l-230 336h187l174 -207l260 207h197l-371 -336h-217zM-100 0l30 145l781 813h-570l35 181h834l-29 -150l-782 -819h628l-34 -170h-893z" />
    <glyph glyph-name="florin" unicode="&#x192;" horiz-adv-x="1132" 
d="M195 750l41 180h233l55 256q10 46 18.5 78t24 69.5t34 62.5t48 50t67 39.5t89.5 23.5t117 9h122l-38 -189h-72q-50 0 -87 -11t-58.5 -26.5t-37.5 -45t-23 -54.5t-15 -66l-43 -196h325l-39 -180h-325l-232 -1090h-198l231 1090h-237z" />
    <glyph glyph-name="circumflex" unicode="&#x2c6;" 
d="M301 1255l373 336h215l229 -336h-188l-172 207l-262 -207h-195z" />
    <glyph glyph-name="caron" unicode="&#x2c7;" 
d="M602 1255l-229 336h186l174 -207l260 207h197l-371 -336h-217z" />
    <glyph glyph-name="breve" unicode="&#x2d8;" 
d="M737 1237q-86 0 -150 18.5t-101.5 48.5t-59.5 76t-29.5 93t-7.5 108l156 21q0 -51 6.5 -83.5t26.5 -61t60.5 -41.5t104.5 -13q82 0 137 25.5t84.5 66t55.5 107.5l145 -29q-110 -336 -428 -336z" />
    <glyph glyph-name="dotaccent" unicode="&#x2d9;" 
d="M608 1255l51 240h201l-49 -240h-203z" />
    <glyph glyph-name="ring" unicode="&#x2da;" 
d="M737 1237q-124 0 -183.5 59t-59.5 154q0 144 80 231.5t210 87.5q119 0 179.5 -63.5t60.5 -159.5q0 -144 -80.5 -226.5t-206.5 -82.5zM741 1350q76 0 123 49t47 135q0 54 -31.5 88.5t-99.5 34.5q-76 0 -125 -54t-49 -139q0 -52 33.5 -83t101.5 -31z" />
    <glyph glyph-name="ogonek" unicode="&#x2db;" 
d="M408 -463q-150 0 -208.5 41.5t-58.5 114.5q0 196 277 321h139q-126 -68 -195 -134t-69 -138q0 -38 33 -60t118 -22q72 0 160 31l21 -105q-90 -49 -217 -49z" />
    <glyph glyph-name="tilde" unicode="&#x2dc;" 
d="M893 1260q-47 0 -93.5 16t-77 36t-68.5 36t-72 16q-72 0 -160 -96l-103 102q132 158 271 158q47 0 93.5 -16t76.5 -35.5t68 -35.5t71 -16q37 0 73 25.5t83 77.5l104 -103q-143 -165 -266 -165z" />
    <glyph glyph-name="hungarumlaut" unicode="&#x2dd;" 
d="M264 1255l330 336h235l-389 -336h-176zM754 1255l329 336h234l-389 -336h-174z" />
    <glyph glyph-name="Delta" unicode="&#x394;" horiz-adv-x="1277" 
d="M102 958l39 181h215l25 114q18 88 47.5 148t79 103.5t122.5 64t175 20.5h113l-35 -174h-74q-60 0 -102 -12.5t-67.5 -38.5t-40 -57t-24.5 -76l-20 -92h266l-35 -181h-268l-276 -1296h-201l276 1296h-215zM535 -344l30 164h17q88 0 120 32.5t54 135.5l245 1151h199
l-250 -1174q-20 -98 -44.5 -156t-65 -93.5t-93.5 -47.5t-139 -12h-73zM1030 1276l51 242h199l-49 -242h-201z" />
    <glyph glyph-name="Delta" unicode="&#x2206;" horiz-adv-x="1277" 
d="M102 958l39 181h215l25 114q18 88 47.5 148t79 103.5t122.5 64t175 20.5h113l-35 -174h-74q-60 0 -102 -12.5t-67.5 -38.5t-40 -57t-24.5 -76l-20 -92h266l-35 -181h-268l-276 -1296h-201l276 1296h-215zM535 -344l30 164h17q88 0 120 32.5t54 135.5l245 1151h199
l-250 -1174q-20 -98 -44.5 -156t-65 -93.5t-93.5 -47.5t-139 -12h-73zM1030 1276l51 242h199l-49 -242h-201z" />
    <glyph glyph-name="Omega" unicode="&#x3a9;" horiz-adv-x="1703" 
d="M258 246q-88 105 -136 237t-48 277q0 144 48 276t136 236q6 -4 14 -12q-85 -103 -131.5 -231.5t-46.5 -268.5q0 -285 180 -500zM467 432q-117 143 -117 328q0 183 115 327q3 -2 8 -7t8 -7q-110 -136 -110 -313q0 -182 110 -314zM541 498q-92 116 -92 262t92 262
q3 -2 8 -7t8 -7q-88 -109 -88 -248t88 -248q-3 -2 -8 -7t-8 -7zM647 592q-57 72 -57 168q0 97 57 166l15 -15q-52 -69 -52 -151q0 -84 54 -154q-3 -2 -8.5 -7t-8.5 -7zM715 655q-33 48 -33 105q0 56 33 104q3 -2 8 -7t8 -7q-29 -44 -29 -90t29 -90q-3 -2 -16 -15zM774 709
q-14 25 -14 51t14 51l12 -10q-10 -20 -10 -41t10 -41q-4 -4 -12 -10zM852 123q-236 0 -412 158l2.5 2.5l5 5l5.5 5.5t2 1q171 -152 397 -152q227 0 395 152q2 -3 7.5 -8t7.5 -8q-177 -156 -410 -156zM852 664q-31 0 -55 18l12 12q21 -14 43 -14q26 0 43 14q4 -4 10 -12
q-21 -18 -53 -18zM987 653q-7 10 -14 15q28 42 28 92q0 51 -28 90l2.5 2.5t5 4.5t5.5 5t1 2q35 -44 35 -104t-35 -107zM598 551q-72 91 -72 209q0 119 74 209l14 -15q-67 -87 -67 -194q0 -108 67 -195q-10 -10 -16 -14zM852 -35q-145 0 -278 52.5t-238 146.5l14 16
q102 -92 231 -143t271 -51q285 0 500 192q0 1 3.5 -2.5t6.5 -7.5l4 -4q-104 -95 -236 -147t-278 -52zM852 248q-189 0 -330 125l15 16q134 -121 315 -121q182 0 313 121q2 -3 7.5 -8t7.5 -8q-138 -125 -328 -125zM852 348q-145 0 -264 101l14 14q108 -94 250 -94
q143 0 248 94q2 -3 7 -8.5t7 -8.5q-112 -98 -262 -98zM852 428q-116 0 -211 78l14 16q86 -73 197 -73t197 73q4 -4 12 -16q-91 -78 -209 -78zM852 543q-77 0 -135 49l14 16q51 -45 121 -45q68 0 119 45q2 -3 7 -8t7 -8q-58 -49 -133 -49zM733 911q-4 3 -7 6.5t-6 6.5l-3 4
q58 49 135 49t135 -49l-16 -17q-51 45 -119 45t-119 -45zM1167 1130q-134 121 -315 121q-179 0 -313 -118l-15 14q141 125 328 125q189 0 330 -125q-4 -6 -15 -17zM930 709l-12 10q10 20 10 41t-10 41l12 10q14 -25 14 -51t-14 -51zM958 682q-10 10 -16 14q21 32 21 64
t-21 63l16 15q25 -36 25 -78t-25 -78zM1020 627q-6 4 -16 14q38 50 38 119t-38 119l14 14q45 -57 45 -133q0 -71 -43 -133zM1106 551q-3 2 -8 7t-8 7q67 87 67 195t-70 194l17 15q74 -90 74 -209q0 -118 -72 -209zM1163 498q-10 10 -16 14q88 109 88 248t-88 248l16 14
q92 -116 92 -262t-92 -262zM1237 432q-6 4 -16 14q112 134 112 314q0 182 -112 313l16 14q117 -139 117 -327q0 -189 -117 -328zM1329 350q-2 2 -7 6t-7 6q141 175 141 398q0 227 -143 395l16 14q148 -179 148 -409q0 -231 -148 -410zM1446 246q-6 6 -16 14q180 215 180 500
t-180 500l16 14q88 -105 136 -237t48 -277q0 -144 -48 -276t-136 -238zM375 348q-148 182 -148 412q0 229 146 409q2 -2 7.5 -6.5t8.5 -7.5q-141 -170 -141 -395q0 -228 141 -398zM684 627q-43 59 -43 133t43 133q6 -4 16 -14q-38 -50 -38 -119q0 -67 38 -117zM745 682
q-24 34 -24 78t24 78q2 -3 4.5 -5.5t6 -5.5t4.5 -4q-19 -34 -19 -63q0 -30 19 -64zM809 825l-10 13q21 18 53 18t53 -18l-10 -13q-23 15 -43 15q-25 0 -43 -15zM786 852l-14 14q37 29 80 29q41 0 78 -29q-8 -8 -12 -14q-28 25 -66 25q-34 0 -66 -25zM760 881l-15 16
q45 39 107 39q61 0 106 -39l-14 -16q-37 34 -92 34t-92 -34zM604 1057l-14 16q112 98 262 98q151 0 262 -100q1 0 -2 -3.5t-6 -7.5l-4 -3q-108 94 -250 94q-143 0 -248 -94zM852 492q-100 0 -170 61l14 16q70 -57 156 -57q87 0 154 57l14 -14q-73 -63 -168 -63zM852 584
q-61 0 -109 39l15 16q47 -35 94 -35q51 0 92 35l14 -16q-45 -39 -106 -39zM852 625q-43 0 -82 28l14 15q36 -25 68 -25q34 0 66 25l14 -15q-36 -28 -80 -28zM698 950l-14 15q73 63 168 63q98 0 168 -61l-14 -17q-68 58 -154 58q-87 0 -154 -58zM655 997l-14 17q91 78 211 78
q119 0 209 -80l-12 -15q-83 74 -197 74q-110 0 -197 -74zM1249 1223q-166 153 -397 153q-227 0 -397 -151l-15 14q179 158 412 158t412 -158zM352 1339l-14 17q104 95 236 146.5t278 51.5q145 0 278 -52t238 -146l-14 -17q-102 93 -231 144t-271 51t-270 -51t-230 -144z
M1057 594l-15 14q52 69 52 152t-54 153l17 15q57 -72 57 -168q0 -97 -57 -166z" />
    <glyph glyph-name="Omega" unicode="&#x2126;" horiz-adv-x="1703" 
d="M258 246q-88 105 -136 237t-48 277q0 144 48 276t136 236q6 -4 14 -12q-85 -103 -131.5 -231.5t-46.5 -268.5q0 -285 180 -500zM467 432q-117 143 -117 328q0 183 115 327q3 -2 8 -7t8 -7q-110 -136 -110 -313q0 -182 110 -314zM541 498q-92 116 -92 262t92 262
q3 -2 8 -7t8 -7q-88 -109 -88 -248t88 -248q-3 -2 -8 -7t-8 -7zM647 592q-57 72 -57 168q0 97 57 166l15 -15q-52 -69 -52 -151q0 -84 54 -154q-3 -2 -8.5 -7t-8.5 -7zM715 655q-33 48 -33 105q0 56 33 104q3 -2 8 -7t8 -7q-29 -44 -29 -90t29 -90q-3 -2 -16 -15zM774 709
q-14 25 -14 51t14 51l12 -10q-10 -20 -10 -41t10 -41q-4 -4 -12 -10zM852 123q-236 0 -412 158l2.5 2.5l5 5l5.5 5.5t2 1q171 -152 397 -152q227 0 395 152q2 -3 7.5 -8t7.5 -8q-177 -156 -410 -156zM852 664q-31 0 -55 18l12 12q21 -14 43 -14q26 0 43 14q4 -4 10 -12
q-21 -18 -53 -18zM987 653q-7 10 -14 15q28 42 28 92q0 51 -28 90l2.5 2.5t5 4.5t5.5 5t1 2q35 -44 35 -104t-35 -107zM598 551q-72 91 -72 209q0 119 74 209l14 -15q-67 -87 -67 -194q0 -108 67 -195q-10 -10 -16 -14zM852 -35q-145 0 -278 52.5t-238 146.5l14 16
q102 -92 231 -143t271 -51q285 0 500 192q0 1 3.5 -2.5t6.5 -7.5l4 -4q-104 -95 -236 -147t-278 -52zM852 248q-189 0 -330 125l15 16q134 -121 315 -121q182 0 313 121q2 -3 7.5 -8t7.5 -8q-138 -125 -328 -125zM852 348q-145 0 -264 101l14 14q108 -94 250 -94
q143 0 248 94q2 -3 7 -8.5t7 -8.5q-112 -98 -262 -98zM852 428q-116 0 -211 78l14 16q86 -73 197 -73t197 73q4 -4 12 -16q-91 -78 -209 -78zM852 543q-77 0 -135 49l14 16q51 -45 121 -45q68 0 119 45q2 -3 7 -8t7 -8q-58 -49 -133 -49zM733 911q-4 3 -7 6.5t-6 6.5l-3 4
q58 49 135 49t135 -49l-16 -17q-51 45 -119 45t-119 -45zM1167 1130q-134 121 -315 121q-179 0 -313 -118l-15 14q141 125 328 125q189 0 330 -125q-4 -6 -15 -17zM930 709l-12 10q10 20 10 41t-10 41l12 10q14 -25 14 -51t-14 -51zM958 682q-10 10 -16 14q21 32 21 64
t-21 63l16 15q25 -36 25 -78t-25 -78zM1020 627q-6 4 -16 14q38 50 38 119t-38 119l14 14q45 -57 45 -133q0 -71 -43 -133zM1106 551q-3 2 -8 7t-8 7q67 87 67 195t-70 194l17 15q74 -90 74 -209q0 -118 -72 -209zM1163 498q-10 10 -16 14q88 109 88 248t-88 248l16 14
q92 -116 92 -262t-92 -262zM1237 432q-6 4 -16 14q112 134 112 314q0 182 -112 313l16 14q117 -139 117 -327q0 -189 -117 -328zM1329 350q-2 2 -7 6t-7 6q141 175 141 398q0 227 -143 395l16 14q148 -179 148 -409q0 -231 -148 -410zM1446 246q-6 6 -16 14q180 215 180 500
t-180 500l16 14q88 -105 136 -237t48 -277q0 -144 -48 -276t-136 -238zM375 348q-148 182 -148 412q0 229 146 409q2 -2 7.5 -6.5t8.5 -7.5q-141 -170 -141 -395q0 -228 141 -398zM684 627q-43 59 -43 133t43 133q6 -4 16 -14q-38 -50 -38 -119q0 -67 38 -117zM745 682
q-24 34 -24 78t24 78q2 -3 4.5 -5.5t6 -5.5t4.5 -4q-19 -34 -19 -63q0 -30 19 -64zM809 825l-10 13q21 18 53 18t53 -18l-10 -13q-23 15 -43 15q-25 0 -43 -15zM786 852l-14 14q37 29 80 29q41 0 78 -29q-8 -8 -12 -14q-28 25 -66 25q-34 0 -66 -25zM760 881l-15 16
q45 39 107 39q61 0 106 -39l-14 -16q-37 34 -92 34t-92 -34zM604 1057l-14 16q112 98 262 98q151 0 262 -100q1 0 -2 -3.5t-6 -7.5l-4 -3q-108 94 -250 94q-143 0 -248 -94zM852 492q-100 0 -170 61l14 16q70 -57 156 -57q87 0 154 57l14 -14q-73 -63 -168 -63zM852 584
q-61 0 -109 39l15 16q47 -35 94 -35q51 0 92 35l14 -16q-45 -39 -106 -39zM852 625q-43 0 -82 28l14 15q36 -25 68 -25q34 0 66 25l14 -15q-36 -28 -80 -28zM698 950l-14 15q73 63 168 63q98 0 168 -61l-14 -17q-68 58 -154 58q-87 0 -154 -58zM655 997l-14 17q91 78 211 78
q119 0 209 -80l-12 -15q-83 74 -197 74q-110 0 -197 -74zM1249 1223q-166 153 -397 153q-227 0 -397 -151l-15 14q179 158 412 158t412 -158zM352 1339l-14 17q104 95 236 146.5t278 51.5q145 0 278 -52t238 -146l-14 -17q-102 93 -231 144t-271 51t-270 -51t-230 -144z
M1057 594l-15 14q52 69 52 152t-54 153l17 15q57 -72 57 -168q0 -97 -57 -166z" />
    <glyph glyph-name="pi" unicode="&#x3c0;" horiz-adv-x="1691" 
d="M854 -25q-187 0 -333.5 58.5t-239.5 164t-141 248t-48 314.5t48 314.5t141 248t239.5 163.5t333.5 58q186 0 331.5 -58.5t238.5 -163.5t141.5 -247.5t48.5 -314.5t-48.5 -315t-141.5 -248t-238.5 -163.5t-331.5 -58.5zM854 63q170 0 300 51.5t210 145.5t120 219.5
t40 280.5t-40 280.5t-120 219.5t-209.5 145t-300.5 51q-172 0 -302 -51t-209.5 -145t-119 -219.5t-39.5 -280.5t39.5 -280.5t119 -219.5t209.5 -145.5t302 -51.5zM504 236v1019h454q198 0 277.5 -75t79.5 -238q0 -166 -80.5 -247t-278.5 -81h-317v-378h-135zM639 739h322
q115 0 165 44.5t50 152.5q0 106 -50 149t-170 43h-317v-389z" />
    <glyph glyph-name="endash" unicode="&#x2013;" horiz-adv-x="1419" 
d="M55 549l39 186h1221l-39 -186h-1221z" />
    <glyph glyph-name="emdash" unicode="&#x2014;" horiz-adv-x="1867" 
d="M55 549l39 186h1669l-37 -186h-1671z" />
    <glyph glyph-name="quoteleft" unicode="&#x2018;" horiz-adv-x="518" 
d="M182 969l43 205q30 152 80.5 220.5t186.5 129.5l43 -107q-89 -41 -121.5 -75t-46.5 -99h122l-57 -274h-250z" />
    <glyph glyph-name="quoteright" unicode="&#x2019;" horiz-adv-x="518" 
d="M238 963l-41 106q87 39 119 73t46 99h-122l59 277h248l-43 -203q-30 -155 -79.5 -223.5t-186.5 -128.5z" />
    <glyph glyph-name="quotesinglbase" unicode="&#x201a;" horiz-adv-x="518" 
d="M-23 -252l-38 105q86 41 117 74.5t46 101.5h-122l57 272h250l-43 -205q-31 -146 -82.5 -218.5t-184.5 -129.5z" />
    <glyph glyph-name="quotedblleft" unicode="&#x201c;" horiz-adv-x="917" 
d="M184 975l41 199q32 151 81 218.5t181 125.5l39 -105q-85 -40 -116.5 -73t-44.5 -97h118l-53 -268h-246zM588 975l43 199q32 151 80.5 218.5t179.5 125.5l41 -105q-85 -40 -117 -73t-47 -97h121l-55 -268h-246z" />
    <glyph glyph-name="quotedblright" unicode="&#x201d;" horiz-adv-x="917" 
d="M238 975l-39 102q86 40 118 73t45 99h-120l57 269h244l-43 -201q-30 -150 -79 -217t-183 -125zM643 975l-41 102q86 40 118.5 73.5t45.5 98.5h-121l57 269h242l-39 -201q-30 -150 -79 -217t-183 -125z" />
    <glyph glyph-name="quotedblbase" unicode="&#x201e;" horiz-adv-x="917" 
d="M-23 -246l-38 103q85 38 116.5 71.5t44.5 100.5h-120l55 266h246l-41 -199q-31 -145 -81.5 -215.5t-181.5 -126.5zM381 -246l-39 103q85 39 117 72t45 100h-119l53 266h246l-41 -199q-16 -74 -32 -119.5t-44.5 -88.5t-72.5 -74t-113 -60z" />
    <glyph glyph-name="dagger" unicode="&#x2020;" horiz-adv-x="1138" 
d="M240 -340l270 1268h-356l36 188h357l102 473h197l-103 -473h359l-37 -188h-358l-271 -1268h-196z" />
    <glyph glyph-name="daggerdbl" unicode="&#x2021;" horiz-adv-x="1138" 
d="M240 -340l108 516h-356l37 189h356l125 563h-356l36 188h357l102 473h197l-103 -473h359l-37 -188h-358l-123 -563h358l-39 -189h-358l-109 -516h-196z" />
    <glyph glyph-name="bullet" unicode="&#x2022;" horiz-adv-x="724" 
d="M133 438l74 369h330l-74 -369h-330z" />
    <glyph glyph-name="ellipsis" unicode="&#x2026;" horiz-adv-x="1484" 
d="M-25 0l54 270h250l-56 -270h-248zM457 0l55 270h252l-57 -270h-250zM942 0l55 270h250l-55 -270h-250z" />
    <glyph glyph-name="perthousand" unicode="&#x2030;" horiz-adv-x="3196" 
d="M498 569q-187 0 -278 95t-91 260q0 271 135 444.5t348 173.5q187 0 278 -97.5t91 -264.5q0 -276 -136.5 -443.5t-346.5 -167.5zM512 729q88 0 155 60t100.5 159.5t33.5 222.5q0 205 -197 205q-93 0 -161 -62t-100 -161t-32 -221q0 -203 201 -203zM1657 -23
q-190 0 -280.5 95t-90.5 260q0 178 60.5 318.5t171 220t251.5 79.5q187 0 278 -97.5t91 -264.5q0 -274 -136.5 -442.5t-344.5 -168.5zM1667 137q132 0 210.5 127.5t78.5 315.5q0 206 -197 206q-92 0 -159 -62t-99.5 -161.5t-32.5 -222.5q0 -203 199 -203zM2589 -23
q-187 0 -278 95t-91 260q0 178 60.5 318.5t171 220t251.5 79.5q186 0 278.5 -98t92.5 -264q0 -274 -138 -442.5t-347 -168.5zM2603 137q131 0 210 127.5t79 315.5q0 206 -199 206q-93 0 -160.5 -62.5t-99 -161.5t-31.5 -222q0 -203 201 -203zM477 0l1145 1518h188
l-1144 -1518h-189z" />
    <glyph glyph-name="guilsinglleft" unicode="&#x2039;" horiz-adv-x="899" 
d="M328 0l-189 567l430 572h181l-416 -572l172 -567h-178z" />
    <glyph glyph-name="guilsinglright" unicode="&#x203a;" horiz-adv-x="899" 
d="M72 0l415 571l-172 568h181l188 -570l-430 -569h-182z" />
    <glyph glyph-name="fraction" unicode="&#x2044;" horiz-adv-x="1032" 
d="M-160 0l1174 1518h180l-1174 -1518h-180z" />
    <glyph glyph-name="fraction" unicode="&#x2215;" horiz-adv-x="1032" 
d="M-160 0l1174 1518h180l-1174 -1518h-180z" />
    <glyph glyph-name="Euro" unicode="&#x20ac;" horiz-adv-x="1345" 
d="M96 844l31 160h211q53 160 135.5 277.5t206 189t274.5 71.5q257 0 412 -104l-121 -162q-120 78 -295 78q-147 0 -249 -94.5t-162 -255.5h499l-30 -160h-516q-23 -121 -27 -158h506l-33 -162h-483v-41q0 -159 71.5 -242t235.5 -83q139 0 244 57l90 -154q-153 -86 -357 -86
q-479 0 -479 500v49h-231l30 162h211q8 72 25 158h-199z" />
    <glyph glyph-name="trademark" unicode="&#x2122;" horiz-adv-x="2236" 
d="M969 586l198 932h174l144 -727l459 727h176l-199 -932h-152l144 661l-418 -661h-104l-131 661l-148 -661h-143zM406 586l167 788h-315l29 144h788l-31 -144h-317l-168 -788h-153z" />
    <glyph glyph-name="partialdiff" unicode="&#x2202;" horiz-adv-x="1703" 
d="M258 246q-88 105 -136 237t-48 277q0 144 48 276t136 236q6 -4 14 -12q-85 -103 -131.5 -231.5t-46.5 -268.5q0 -285 180 -500zM467 432q-117 143 -117 328q0 183 115 327q3 -2 8 -7t8 -7q-110 -136 -110 -313q0 -182 110 -314zM541 498q-92 116 -92 262t92 262
q3 -2 8 -7t8 -7q-88 -109 -88 -248t88 -248q-3 -2 -8 -7t-8 -7zM647 592q-57 72 -57 168q0 97 57 166l15 -15q-52 -69 -52 -151q0 -84 54 -154q-3 -2 -8.5 -7t-8.5 -7zM715 655q-33 48 -33 105q0 56 33 104q3 -2 8 -7t8 -7q-29 -44 -29 -90t29 -90q-3 -2 -16 -15zM774 709
q-14 25 -14 51t14 51l12 -10q-10 -20 -10 -41t10 -41q-4 -4 -12 -10zM852 123q-236 0 -412 158l2.5 2.5l5 5l5.5 5.5t2 1q171 -152 397 -152q227 0 395 152q2 -3 7.5 -8t7.5 -8q-177 -156 -410 -156zM852 664q-31 0 -55 18l12 12q21 -14 43 -14q26 0 43 14q4 -4 10 -12
q-21 -18 -53 -18zM987 653q-7 10 -14 15q28 42 28 92q0 51 -28 90l2.5 2.5t5 4.5t5.5 5t1 2q35 -44 35 -104t-35 -107zM598 551q-72 91 -72 209q0 119 74 209l14 -15q-67 -87 -67 -194q0 -108 67 -195q-10 -10 -16 -14zM852 -35q-145 0 -278 52.5t-238 146.5l14 16
q102 -92 231 -143t271 -51q285 0 500 192q0 1 3.5 -2.5t6.5 -7.5l4 -4q-104 -95 -236 -147t-278 -52zM852 248q-189 0 -330 125l15 16q134 -121 315 -121q182 0 313 121q2 -3 7.5 -8t7.5 -8q-138 -125 -328 -125zM852 348q-145 0 -264 101l14 14q108 -94 250 -94
q143 0 248 94q2 -3 7 -8.5t7 -8.5q-112 -98 -262 -98zM852 428q-116 0 -211 78l14 16q86 -73 197 -73t197 73q4 -4 12 -16q-91 -78 -209 -78zM852 543q-77 0 -135 49l14 16q51 -45 121 -45q68 0 119 45q2 -3 7 -8t7 -8q-58 -49 -133 -49zM733 911q-4 3 -7 6.5t-6 6.5l-3 4
q58 49 135 49t135 -49l-16 -17q-51 45 -119 45t-119 -45zM1167 1130q-134 121 -315 121q-179 0 -313 -118l-15 14q141 125 328 125q189 0 330 -125q-4 -6 -15 -17zM930 709l-12 10q10 20 10 41t-10 41l12 10q14 -25 14 -51t-14 -51zM958 682q-10 10 -16 14q21 32 21 64
t-21 63l16 15q25 -36 25 -78t-25 -78zM1020 627q-6 4 -16 14q38 50 38 119t-38 119l14 14q45 -57 45 -133q0 -71 -43 -133zM1106 551q-3 2 -8 7t-8 7q67 87 67 195t-70 194l17 15q74 -90 74 -209q0 -118 -72 -209zM1163 498q-10 10 -16 14q88 109 88 248t-88 248l16 14
q92 -116 92 -262t-92 -262zM1237 432q-6 4 -16 14q112 134 112 314q0 182 -112 313l16 14q117 -139 117 -327q0 -189 -117 -328zM1329 350q-2 2 -7 6t-7 6q141 175 141 398q0 227 -143 395l16 14q148 -179 148 -409q0 -231 -148 -410zM1446 246q-6 6 -16 14q180 215 180 500
t-180 500l16 14q88 -105 136 -237t48 -277q0 -144 -48 -276t-136 -238zM375 348q-148 182 -148 412q0 229 146 409q2 -2 7.5 -6.5t8.5 -7.5q-141 -170 -141 -395q0 -228 141 -398zM684 627q-43 59 -43 133t43 133q6 -4 16 -14q-38 -50 -38 -119q0 -67 38 -117zM745 682
q-24 34 -24 78t24 78q2 -3 4.5 -5.5t6 -5.5t4.5 -4q-19 -34 -19 -63q0 -30 19 -64zM809 825l-10 13q21 18 53 18t53 -18l-10 -13q-23 15 -43 15q-25 0 -43 -15zM786 852l-14 14q37 29 80 29q41 0 78 -29q-8 -8 -12 -14q-28 25 -66 25q-34 0 -66 -25zM760 881l-15 16
q45 39 107 39q61 0 106 -39l-14 -16q-37 34 -92 34t-92 -34zM604 1057l-14 16q112 98 262 98q151 0 262 -100q1 0 -2 -3.5t-6 -7.5l-4 -3q-108 94 -250 94q-143 0 -248 -94zM852 492q-100 0 -170 61l14 16q70 -57 156 -57q87 0 154 57l14 -14q-73 -63 -168 -63zM852 584
q-61 0 -109 39l15 16q47 -35 94 -35q51 0 92 35l14 -16q-45 -39 -106 -39zM852 625q-43 0 -82 28l14 15q36 -25 68 -25q34 0 66 25l14 -15q-36 -28 -80 -28zM698 950l-14 15q73 63 168 63q98 0 168 -61l-14 -17q-68 58 -154 58q-87 0 -154 -58zM655 997l-14 17q91 78 211 78
q119 0 209 -80l-12 -15q-83 74 -197 74q-110 0 -197 -74zM1249 1223q-166 153 -397 153q-227 0 -397 -151l-15 14q179 158 412 158t412 -158zM352 1339l-14 17q104 95 236 146.5t278 51.5q145 0 278 -52t238 -146l-14 -17q-102 93 -231 144t-271 51t-270 -51t-230 -144z
M1057 594l-15 14q52 69 52 152t-54 153l17 15q57 -72 57 -168q0 -97 -57 -166z" />
    <glyph glyph-name="product" unicode="&#x220f;" horiz-adv-x="1703" 
d="M258 246q-88 105 -136 237t-48 277q0 144 48 276t136 236q6 -4 14 -12q-85 -103 -131.5 -231.5t-46.5 -268.5q0 -285 180 -500zM467 432q-117 143 -117 328q0 183 115 327q3 -2 8 -7t8 -7q-110 -136 -110 -313q0 -182 110 -314zM541 498q-92 116 -92 262t92 262
q3 -2 8 -7t8 -7q-88 -109 -88 -248t88 -248q-3 -2 -8 -7t-8 -7zM647 592q-57 72 -57 168q0 97 57 166l15 -15q-52 -69 -52 -151q0 -84 54 -154q-3 -2 -8.5 -7t-8.5 -7zM715 655q-33 48 -33 105q0 56 33 104q3 -2 8 -7t8 -7q-29 -44 -29 -90t29 -90q-3 -2 -16 -15zM774 709
q-14 25 -14 51t14 51l12 -10q-10 -20 -10 -41t10 -41q-4 -4 -12 -10zM852 123q-236 0 -412 158l2.5 2.5l5 5l5.5 5.5t2 1q171 -152 397 -152q227 0 395 152q2 -3 7.5 -8t7.5 -8q-177 -156 -410 -156zM852 664q-31 0 -55 18l12 12q21 -14 43 -14q26 0 43 14q4 -4 10 -12
q-21 -18 -53 -18zM987 653q-7 10 -14 15q28 42 28 92q0 51 -28 90l2.5 2.5t5 4.5t5.5 5t1 2q35 -44 35 -104t-35 -107zM598 551q-72 91 -72 209q0 119 74 209l14 -15q-67 -87 -67 -194q0 -108 67 -195q-10 -10 -16 -14zM852 -35q-145 0 -278 52.5t-238 146.5l14 16
q102 -92 231 -143t271 -51q285 0 500 192q0 1 3.5 -2.5t6.5 -7.5l4 -4q-104 -95 -236 -147t-278 -52zM852 248q-189 0 -330 125l15 16q134 -121 315 -121q182 0 313 121q2 -3 7.5 -8t7.5 -8q-138 -125 -328 -125zM852 348q-145 0 -264 101l14 14q108 -94 250 -94
q143 0 248 94q2 -3 7 -8.5t7 -8.5q-112 -98 -262 -98zM852 428q-116 0 -211 78l14 16q86 -73 197 -73t197 73q4 -4 12 -16q-91 -78 -209 -78zM852 543q-77 0 -135 49l14 16q51 -45 121 -45q68 0 119 45q2 -3 7 -8t7 -8q-58 -49 -133 -49zM733 911q-4 3 -7 6.5t-6 6.5l-3 4
q58 49 135 49t135 -49l-16 -17q-51 45 -119 45t-119 -45zM1167 1130q-134 121 -315 121q-179 0 -313 -118l-15 14q141 125 328 125q189 0 330 -125q-4 -6 -15 -17zM930 709l-12 10q10 20 10 41t-10 41l12 10q14 -25 14 -51t-14 -51zM958 682q-10 10 -16 14q21 32 21 64
t-21 63l16 15q25 -36 25 -78t-25 -78zM1020 627q-6 4 -16 14q38 50 38 119t-38 119l14 14q45 -57 45 -133q0 -71 -43 -133zM1106 551q-3 2 -8 7t-8 7q67 87 67 195t-70 194l17 15q74 -90 74 -209q0 -118 -72 -209zM1163 498q-10 10 -16 14q88 109 88 248t-88 248l16 14
q92 -116 92 -262t-92 -262zM1237 432q-6 4 -16 14q112 134 112 314q0 182 -112 313l16 14q117 -139 117 -327q0 -189 -117 -328zM1329 350q-2 2 -7 6t-7 6q141 175 141 398q0 227 -143 395l16 14q148 -179 148 -409q0 -231 -148 -410zM1446 246q-6 6 -16 14q180 215 180 500
t-180 500l16 14q88 -105 136 -237t48 -277q0 -144 -48 -276t-136 -238zM375 348q-148 182 -148 412q0 229 146 409q2 -2 7.5 -6.5t8.5 -7.5q-141 -170 -141 -395q0 -228 141 -398zM684 627q-43 59 -43 133t43 133q6 -4 16 -14q-38 -50 -38 -119q0 -67 38 -117zM745 682
q-24 34 -24 78t24 78q2 -3 4.5 -5.5t6 -5.5t4.5 -4q-19 -34 -19 -63q0 -30 19 -64zM809 825l-10 13q21 18 53 18t53 -18l-10 -13q-23 15 -43 15q-25 0 -43 -15zM786 852l-14 14q37 29 80 29q41 0 78 -29q-8 -8 -12 -14q-28 25 -66 25q-34 0 -66 -25zM760 881l-15 16
q45 39 107 39q61 0 106 -39l-14 -16q-37 34 -92 34t-92 -34zM604 1057l-14 16q112 98 262 98q151 0 262 -100q1 0 -2 -3.5t-6 -7.5l-4 -3q-108 94 -250 94q-143 0 -248 -94zM852 492q-100 0 -170 61l14 16q70 -57 156 -57q87 0 154 57l14 -14q-73 -63 -168 -63zM852 584
q-61 0 -109 39l15 16q47 -35 94 -35q51 0 92 35l14 -16q-45 -39 -106 -39zM852 625q-43 0 -82 28l14 15q36 -25 68 -25q34 0 66 25l14 -15q-36 -28 -80 -28zM698 950l-14 15q73 63 168 63q98 0 168 -61l-14 -17q-68 58 -154 58q-87 0 -154 -58zM655 997l-14 17q91 78 211 78
q119 0 209 -80l-12 -15q-83 74 -197 74q-110 0 -197 -74zM1249 1223q-166 153 -397 153q-227 0 -397 -151l-15 14q179 158 412 158t412 -158zM352 1339l-14 17q104 95 236 146.5t278 51.5q145 0 278 -52t238 -146l-14 -17q-102 93 -231 144t-271 51t-270 -51t-230 -144z
M1057 594l-15 14q52 69 52 152t-54 153l17 15q57 -72 57 -168q0 -97 -57 -166z" />
    <glyph glyph-name="summation" unicode="&#x2211;" horiz-adv-x="1703" 
d="M258 246q-88 105 -136 237t-48 277q0 144 48 276t136 236q6 -4 14 -12q-85 -103 -131.5 -231.5t-46.5 -268.5q0 -285 180 -500zM467 432q-117 143 -117 328q0 183 115 327q3 -2 8 -7t8 -7q-110 -136 -110 -313q0 -182 110 -314zM541 498q-92 116 -92 262t92 262
q3 -2 8 -7t8 -7q-88 -109 -88 -248t88 -248q-3 -2 -8 -7t-8 -7zM647 592q-57 72 -57 168q0 97 57 166l15 -15q-52 -69 -52 -151q0 -84 54 -154q-3 -2 -8.5 -7t-8.5 -7zM715 655q-33 48 -33 105q0 56 33 104q3 -2 8 -7t8 -7q-29 -44 -29 -90t29 -90q-3 -2 -16 -15zM774 709
q-14 25 -14 51t14 51l12 -10q-10 -20 -10 -41t10 -41q-4 -4 -12 -10zM852 123q-236 0 -412 158l2.5 2.5l5 5l5.5 5.5t2 1q171 -152 397 -152q227 0 395 152q2 -3 7.5 -8t7.5 -8q-177 -156 -410 -156zM852 664q-31 0 -55 18l12 12q21 -14 43 -14q26 0 43 14q4 -4 10 -12
q-21 -18 -53 -18zM987 653q-7 10 -14 15q28 42 28 92q0 51 -28 90l2.5 2.5t5 4.5t5.5 5t1 2q35 -44 35 -104t-35 -107zM598 551q-72 91 -72 209q0 119 74 209l14 -15q-67 -87 -67 -194q0 -108 67 -195q-10 -10 -16 -14zM852 -35q-145 0 -278 52.5t-238 146.5l14 16
q102 -92 231 -143t271 -51q285 0 500 192q0 1 3.5 -2.5t6.5 -7.5l4 -4q-104 -95 -236 -147t-278 -52zM852 248q-189 0 -330 125l15 16q134 -121 315 -121q182 0 313 121q2 -3 7.5 -8t7.5 -8q-138 -125 -328 -125zM852 348q-145 0 -264 101l14 14q108 -94 250 -94
q143 0 248 94q2 -3 7 -8.5t7 -8.5q-112 -98 -262 -98zM852 428q-116 0 -211 78l14 16q86 -73 197 -73t197 73q4 -4 12 -16q-91 -78 -209 -78zM852 543q-77 0 -135 49l14 16q51 -45 121 -45q68 0 119 45q2 -3 7 -8t7 -8q-58 -49 -133 -49zM733 911q-4 3 -7 6.5t-6 6.5l-3 4
q58 49 135 49t135 -49l-16 -17q-51 45 -119 45t-119 -45zM1167 1130q-134 121 -315 121q-179 0 -313 -118l-15 14q141 125 328 125q189 0 330 -125q-4 -6 -15 -17zM930 709l-12 10q10 20 10 41t-10 41l12 10q14 -25 14 -51t-14 -51zM958 682q-10 10 -16 14q21 32 21 64
t-21 63l16 15q25 -36 25 -78t-25 -78zM1020 627q-6 4 -16 14q38 50 38 119t-38 119l14 14q45 -57 45 -133q0 -71 -43 -133zM1106 551q-3 2 -8 7t-8 7q67 87 67 195t-70 194l17 15q74 -90 74 -209q0 -118 -72 -209zM1163 498q-10 10 -16 14q88 109 88 248t-88 248l16 14
q92 -116 92 -262t-92 -262zM1237 432q-6 4 -16 14q112 134 112 314q0 182 -112 313l16 14q117 -139 117 -327q0 -189 -117 -328zM1329 350q-2 2 -7 6t-7 6q141 175 141 398q0 227 -143 395l16 14q148 -179 148 -409q0 -231 -148 -410zM1446 246q-6 6 -16 14q180 215 180 500
t-180 500l16 14q88 -105 136 -237t48 -277q0 -144 -48 -276t-136 -238zM375 348q-148 182 -148 412q0 229 146 409q2 -2 7.5 -6.5t8.5 -7.5q-141 -170 -141 -395q0 -228 141 -398zM684 627q-43 59 -43 133t43 133q6 -4 16 -14q-38 -50 -38 -119q0 -67 38 -117zM745 682
q-24 34 -24 78t24 78q2 -3 4.5 -5.5t6 -5.5t4.5 -4q-19 -34 -19 -63q0 -30 19 -64zM809 825l-10 13q21 18 53 18t53 -18l-10 -13q-23 15 -43 15q-25 0 -43 -15zM786 852l-14 14q37 29 80 29q41 0 78 -29q-8 -8 -12 -14q-28 25 -66 25q-34 0 -66 -25zM760 881l-15 16
q45 39 107 39q61 0 106 -39l-14 -16q-37 34 -92 34t-92 -34zM604 1057l-14 16q112 98 262 98q151 0 262 -100q1 0 -2 -3.5t-6 -7.5l-4 -3q-108 94 -250 94q-143 0 -248 -94zM852 492q-100 0 -170 61l14 16q70 -57 156 -57q87 0 154 57l14 -14q-73 -63 -168 -63zM852 584
q-61 0 -109 39l15 16q47 -35 94 -35q51 0 92 35l14 -16q-45 -39 -106 -39zM852 625q-43 0 -82 28l14 15q36 -25 68 -25q34 0 66 25l14 -15q-36 -28 -80 -28zM698 950l-14 15q73 63 168 63q98 0 168 -61l-14 -17q-68 58 -154 58q-87 0 -154 -58zM655 997l-14 17q91 78 211 78
q119 0 209 -80l-12 -15q-83 74 -197 74q-110 0 -197 -74zM1249 1223q-166 153 -397 153q-227 0 -397 -151l-15 14q179 158 412 158t412 -158zM352 1339l-14 17q104 95 236 146.5t278 51.5q145 0 278 -52t238 -146l-14 -17q-102 93 -231 144t-271 51t-270 -51t-230 -144z
M1057 594l-15 14q52 69 52 152t-54 153l17 15q57 -72 57 -168q0 -97 -57 -166z" />
    <glyph glyph-name="minus" unicode="&#x2212;" horiz-adv-x="1439" 
d="M182 627l41 190h1018l-41 -190h-1018z" />
    <glyph glyph-name="radical" unicode="&#x221a;" horiz-adv-x="1370" 
d="M291 -10l-156 868h203l108 -616l775 1276h200l-923 -1528h-207z" />
    <glyph glyph-name="infinity" unicode="&#x221e;" horiz-adv-x="1923" 
d="M686 -338l277 1296h-445l-276 -1296h-201l276 1296h-215l39 181h215l25 114q18 88 47.5 148t79 103.5t122.5 64t175 20.5h113l-35 -174h-74q-60 0 -102 -12.5t-67.5 -38.5t-40 -57t-24.5 -76l-20 -92h446l25 114q26 118 71 188.5t131 109t222 38.5h111l-35 -174h-72
q-59 0 -101 -12.5t-68 -38.5t-40.5 -57t-25.5 -76l-21 -92h268l-36 -181h-269l-274 -1296h-201zM1403 0l242 1139h198l-241 -1139h-199zM1675 1276l49 242h201l-51 -242h-199z" />
    <glyph glyph-name="integral" unicode="&#x222b;" horiz-adv-x="1703" 
d="M258 246q-88 105 -136 237t-48 277q0 144 48 276t136 236q6 -4 14 -12q-85 -103 -131.5 -231.5t-46.5 -268.5q0 -285 180 -500zM467 432q-117 143 -117 328q0 183 115 327q3 -2 8 -7t8 -7q-110 -136 -110 -313q0 -182 110 -314zM541 498q-92 116 -92 262t92 262
q3 -2 8 -7t8 -7q-88 -109 -88 -248t88 -248q-3 -2 -8 -7t-8 -7zM647 592q-57 72 -57 168q0 97 57 166l15 -15q-52 -69 -52 -151q0 -84 54 -154q-3 -2 -8.5 -7t-8.5 -7zM715 655q-33 48 -33 105q0 56 33 104q3 -2 8 -7t8 -7q-29 -44 -29 -90t29 -90q-3 -2 -16 -15zM774 709
q-14 25 -14 51t14 51l12 -10q-10 -20 -10 -41t10 -41q-4 -4 -12 -10zM852 123q-236 0 -412 158l2.5 2.5l5 5l5.5 5.5t2 1q171 -152 397 -152q227 0 395 152q2 -3 7.5 -8t7.5 -8q-177 -156 -410 -156zM852 664q-31 0 -55 18l12 12q21 -14 43 -14q26 0 43 14q4 -4 10 -12
q-21 -18 -53 -18zM987 653q-7 10 -14 15q28 42 28 92q0 51 -28 90l2.5 2.5t5 4.5t5.5 5t1 2q35 -44 35 -104t-35 -107zM598 551q-72 91 -72 209q0 119 74 209l14 -15q-67 -87 -67 -194q0 -108 67 -195q-10 -10 -16 -14zM852 -35q-145 0 -278 52.5t-238 146.5l14 16
q102 -92 231 -143t271 -51q285 0 500 192q0 1 3.5 -2.5t6.5 -7.5l4 -4q-104 -95 -236 -147t-278 -52zM852 248q-189 0 -330 125l15 16q134 -121 315 -121q182 0 313 121q2 -3 7.5 -8t7.5 -8q-138 -125 -328 -125zM852 348q-145 0 -264 101l14 14q108 -94 250 -94
q143 0 248 94q2 -3 7 -8.5t7 -8.5q-112 -98 -262 -98zM852 428q-116 0 -211 78l14 16q86 -73 197 -73t197 73q4 -4 12 -16q-91 -78 -209 -78zM852 543q-77 0 -135 49l14 16q51 -45 121 -45q68 0 119 45q2 -3 7 -8t7 -8q-58 -49 -133 -49zM733 911q-4 3 -7 6.5t-6 6.5l-3 4
q58 49 135 49t135 -49l-16 -17q-51 45 -119 45t-119 -45zM1167 1130q-134 121 -315 121q-179 0 -313 -118l-15 14q141 125 328 125q189 0 330 -125q-4 -6 -15 -17zM930 709l-12 10q10 20 10 41t-10 41l12 10q14 -25 14 -51t-14 -51zM958 682q-10 10 -16 14q21 32 21 64
t-21 63l16 15q25 -36 25 -78t-25 -78zM1020 627q-6 4 -16 14q38 50 38 119t-38 119l14 14q45 -57 45 -133q0 -71 -43 -133zM1106 551q-3 2 -8 7t-8 7q67 87 67 195t-70 194l17 15q74 -90 74 -209q0 -118 -72 -209zM1163 498q-10 10 -16 14q88 109 88 248t-88 248l16 14
q92 -116 92 -262t-92 -262zM1237 432q-6 4 -16 14q112 134 112 314q0 182 -112 313l16 14q117 -139 117 -327q0 -189 -117 -328zM1329 350q-2 2 -7 6t-7 6q141 175 141 398q0 227 -143 395l16 14q148 -179 148 -409q0 -231 -148 -410zM1446 246q-6 6 -16 14q180 215 180 500
t-180 500l16 14q88 -105 136 -237t48 -277q0 -144 -48 -276t-136 -238zM375 348q-148 182 -148 412q0 229 146 409q2 -2 7.5 -6.5t8.5 -7.5q-141 -170 -141 -395q0 -228 141 -398zM684 627q-43 59 -43 133t43 133q6 -4 16 -14q-38 -50 -38 -119q0 -67 38 -117zM745 682
q-24 34 -24 78t24 78q2 -3 4.5 -5.5t6 -5.5t4.5 -4q-19 -34 -19 -63q0 -30 19 -64zM809 825l-10 13q21 18 53 18t53 -18l-10 -13q-23 15 -43 15q-25 0 -43 -15zM786 852l-14 14q37 29 80 29q41 0 78 -29q-8 -8 -12 -14q-28 25 -66 25q-34 0 -66 -25zM760 881l-15 16
q45 39 107 39q61 0 106 -39l-14 -16q-37 34 -92 34t-92 -34zM604 1057l-14 16q112 98 262 98q151 0 262 -100q1 0 -2 -3.5t-6 -7.5l-4 -3q-108 94 -250 94q-143 0 -248 -94zM852 492q-100 0 -170 61l14 16q70 -57 156 -57q87 0 154 57l14 -14q-73 -63 -168 -63zM852 584
q-61 0 -109 39l15 16q47 -35 94 -35q51 0 92 35l14 -16q-45 -39 -106 -39zM852 625q-43 0 -82 28l14 15q36 -25 68 -25q34 0 66 25l14 -15q-36 -28 -80 -28zM698 950l-14 15q73 63 168 63q98 0 168 -61l-14 -17q-68 58 -154 58q-87 0 -154 -58zM655 997l-14 17q91 78 211 78
q119 0 209 -80l-12 -15q-83 74 -197 74q-110 0 -197 -74zM1249 1223q-166 153 -397 153q-227 0 -397 -151l-15 14q179 158 412 158t412 -158zM352 1339l-14 17q104 95 236 146.5t278 51.5q145 0 278 -52t238 -146l-14 -17q-102 93 -231 144t-271 51t-270 -51t-230 -144z
M1057 594l-15 14q52 69 52 152t-54 153l17 15q57 -72 57 -168q0 -97 -57 -166z" />
    <glyph glyph-name="approxequal" unicode="&#x2248;" horiz-adv-x="1439" 
d="M250 340l-105 102q71 82 154.5 130.5t165.5 48.5q59 0 117.5 -19t96.5 -41.5t85 -41.5t86 -19q80 0 207 127l102 -105q-171 -186 -315 -186q-55 0 -109.5 18.5t-92 41t-88 41t-97.5 18.5q-50 0 -105.5 -32.5t-101.5 -82.5zM350 813l-102 105q70 81 154 129.5t165 48.5
q60 0 118.5 -18.5t96.5 -41t84 -41t84 -18.5q88 0 209 125l103 -107q-73 -81 -157.5 -132.5t-158.5 -51.5q-55 0 -109.5 18.5t-92 41t-87.5 41t-96 18.5q-51 0 -107.5 -33.5t-103.5 -83.5z" />
    <glyph glyph-name="notequal" unicode="&#x2260;" horiz-adv-x="1452" 
d="M686 -338l277 1296h-445l-276 -1296h-201l276 1296h-215l39 181h215l25 114q18 88 47.5 148t79 103.5t122.5 64t175 20.5h113l-35 -174h-74q-60 0 -102 -12.5t-67.5 -38.5t-40 -57t-24.5 -76l-20 -92h446l25 114q26 118 71 188.5t131 109t222 38.5h129l-35 -174h-90
q-59 0 -101 -12.5t-68 -38.5t-40.5 -57t-25.5 -76l-21 -92h285l-37 -181h-285l-274 -1296h-201z" />
    <glyph glyph-name="lessequal" unicode="&#x2264;" horiz-adv-x="1439" 
d="M1026 211l-827 448l26 136l1020 448l-37 -184l-794 -338l649 -338zM63 29l35 172h924l-35 -172h-924z" />
    <glyph glyph-name="greaterequal" unicode="&#x2265;" horiz-adv-x="1439" 
d="M184 211l35 176l793 338l-650 336l39 182l830 -448l-29 -136zM145 29l35 172h922l-35 -172h-922z" />
    <glyph glyph-name="lozenge" unicode="&#x25ca;" horiz-adv-x="1470" 
d="M102 958l39 181h215l25 114q18 88 47.5 148t79 103.5t122.5 64t175 20.5h108l-34 -174h-70q-60 0 -102 -12.5t-67.5 -38.5t-40 -57t-24.5 -76l-20 -92h430l107 323l159 31l-75 -354h278l-37 -181h-280l-131 -620q-11 -50 -10 -86t34.5 -56t106.5 -20h110l-35 -176
q-27 -2 -141 -2q-104 0 -167.5 24t-87.5 68t-26 107.5t17 142.5l131 618h-420l-276 -1296h-201l276 1296h-215z" />
    <glyph glyph-name="apple" unicode="&#xf8ff;" horiz-adv-x="1703" 
d="M258 246q-88 105 -136 237t-48 277q0 144 48 276t136 236q6 -4 14 -12q-85 -103 -131.5 -231.5t-46.5 -268.5q0 -285 180 -500zM467 432q-117 143 -117 328q0 183 115 327q3 -2 8 -7t8 -7q-110 -136 -110 -313q0 -182 110 -314zM541 498q-92 116 -92 262t92 262
q3 -2 8 -7t8 -7q-88 -109 -88 -248t88 -248q-3 -2 -8 -7t-8 -7zM647 592q-57 72 -57 168q0 97 57 166l15 -15q-52 -69 -52 -151q0 -84 54 -154q-3 -2 -8.5 -7t-8.5 -7zM715 655q-33 48 -33 105q0 56 33 104q3 -2 8 -7t8 -7q-29 -44 -29 -90t29 -90q-3 -2 -16 -15zM774 709
q-14 25 -14 51t14 51l12 -10q-10 -20 -10 -41t10 -41q-4 -4 -12 -10zM852 123q-236 0 -412 158l2.5 2.5l5 5l5.5 5.5t2 1q171 -152 397 -152q227 0 395 152q2 -3 7.5 -8t7.5 -8q-177 -156 -410 -156zM852 664q-31 0 -55 18l12 12q21 -14 43 -14q26 0 43 14q4 -4 10 -12
q-21 -18 -53 -18zM987 653q-7 10 -14 15q28 42 28 92q0 51 -28 90l2.5 2.5t5 4.5t5.5 5t1 2q35 -44 35 -104t-35 -107zM598 551q-72 91 -72 209q0 119 74 209l14 -15q-67 -87 -67 -194q0 -108 67 -195q-10 -10 -16 -14zM852 -35q-145 0 -278 52.5t-238 146.5l14 16
q102 -92 231 -143t271 -51q285 0 500 192q0 1 3.5 -2.5t6.5 -7.5l4 -4q-104 -95 -236 -147t-278 -52zM852 248q-189 0 -330 125l15 16q134 -121 315 -121q182 0 313 121q2 -3 7.5 -8t7.5 -8q-138 -125 -328 -125zM852 348q-145 0 -264 101l14 14q108 -94 250 -94
q143 0 248 94q2 -3 7 -8.5t7 -8.5q-112 -98 -262 -98zM852 428q-116 0 -211 78l14 16q86 -73 197 -73t197 73q4 -4 12 -16q-91 -78 -209 -78zM852 543q-77 0 -135 49l14 16q51 -45 121 -45q68 0 119 45q2 -3 7 -8t7 -8q-58 -49 -133 -49zM733 911q-4 3 -7 6.5t-6 6.5l-3 4
q58 49 135 49t135 -49l-16 -17q-51 45 -119 45t-119 -45zM1167 1130q-134 121 -315 121q-179 0 -313 -118l-15 14q141 125 328 125q189 0 330 -125q-4 -6 -15 -17zM930 709l-12 10q10 20 10 41t-10 41l12 10q14 -25 14 -51t-14 -51zM958 682q-10 10 -16 14q21 32 21 64
t-21 63l16 15q25 -36 25 -78t-25 -78zM1020 627q-6 4 -16 14q38 50 38 119t-38 119l14 14q45 -57 45 -133q0 -71 -43 -133zM1106 551q-3 2 -8 7t-8 7q67 87 67 195t-70 194l17 15q74 -90 74 -209q0 -118 -72 -209zM1163 498q-10 10 -16 14q88 109 88 248t-88 248l16 14
q92 -116 92 -262t-92 -262zM1237 432q-6 4 -16 14q112 134 112 314q0 182 -112 313l16 14q117 -139 117 -327q0 -189 -117 -328zM1329 350q-2 2 -7 6t-7 6q141 175 141 398q0 227 -143 395l16 14q148 -179 148 -409q0 -231 -148 -410zM1446 246q-6 6 -16 14q180 215 180 500
t-180 500l16 14q88 -105 136 -237t48 -277q0 -144 -48 -276t-136 -238zM375 348q-148 182 -148 412q0 229 146 409q2 -2 7.5 -6.5t8.5 -7.5q-141 -170 -141 -395q0 -228 141 -398zM684 627q-43 59 -43 133t43 133q6 -4 16 -14q-38 -50 -38 -119q0 -67 38 -117zM745 682
q-24 34 -24 78t24 78q2 -3 4.5 -5.5t6 -5.5t4.5 -4q-19 -34 -19 -63q0 -30 19 -64zM809 825l-10 13q21 18 53 18t53 -18l-10 -13q-23 15 -43 15q-25 0 -43 -15zM786 852l-14 14q37 29 80 29q41 0 78 -29q-8 -8 -12 -14q-28 25 -66 25q-34 0 -66 -25zM760 881l-15 16
q45 39 107 39q61 0 106 -39l-14 -16q-37 34 -92 34t-92 -34zM604 1057l-14 16q112 98 262 98q151 0 262 -100q1 0 -2 -3.5t-6 -7.5l-4 -3q-108 94 -250 94q-143 0 -248 -94zM852 492q-100 0 -170 61l14 16q70 -57 156 -57q87 0 154 57l14 -14q-73 -63 -168 -63zM852 584
q-61 0 -109 39l15 16q47 -35 94 -35q51 0 92 35l14 -16q-45 -39 -106 -39zM852 625q-43 0 -82 28l14 15q36 -25 68 -25q34 0 66 25l14 -15q-36 -28 -80 -28zM698 950l-14 15q73 63 168 63q98 0 168 -61l-14 -17q-68 58 -154 58q-87 0 -154 -58zM655 997l-14 17q91 78 211 78
q119 0 209 -80l-12 -15q-83 74 -197 74q-110 0 -197 -74zM1249 1223q-166 153 -397 153q-227 0 -397 -151l-15 14q179 158 412 158t412 -158zM352 1339l-14 17q104 95 236 146.5t278 51.5q145 0 278 -52t238 -146l-14 -17q-102 93 -231 144t-271 51t-270 -51t-230 -144z
M1057 594l-15 14q52 69 52 152t-54 153l17 15q57 -72 57 -168q0 -97 -57 -166z" />
    </font>
</defs>
</svg>
