<?xml version="1.0" standalone="no"?>
<!DOCTYPE svg PUBLIC "-//W3C//DTD SVG 1.1//EN" "http://www.w3.org/Graphics/SVG/1.1/DTD/svg11.dtd" >
<svg xmlns="http://www.w3.org/2000/svg" xmlns:xlink="http://www.w3.org/1999/xlink" version="1.1">
<metadata>
Created by FontForge 20201107 at Wed Dec 24 15:02:16 2025
 By 
Copyright (c) The Font Bureau, Inc., 2003. All rights reserved.
</metadata>
<defs>
<font id="AntennaExtraCond-BoldItalic" horiz-adv-x="792" >
  <font-face 
    font-family="AntennaExtraCond BoldItalic"
    font-weight="700"
    font-style="italic"
    font-stretch="normal"
    units-per-em="2048"
    panose-1="2 0 5 6 0 0 0 2 0 4"
    ascent="1638"
    descent="-410"
    x-height="1159"
    cap-height="1518"
    bbox="-197 -475 2398 1919"
    underline-thickness="102"
    underline-position="-204"
    slope="-8"
    unicode-range="U+0020-FB02"
  />
<missing-glyph horiz-adv-x="264" 
 />
    <glyph glyph-name="fi" unicode="fi" horiz-adv-x="989" 
d="M37 911l37 248h139l14 98q23 168 110 239t275 71q32 0 56 -4l-33 -242h-39q-50 0 -69.5 -18.5t-26.5 -75.5l-11 -68h123l-34 -248h-123l-170 -1222h-277l170 1222h-141zM524 0l164 1159h279l-164 -1159h-279zM702 1266l39 272h279l-39 -272h-279z" />
    <glyph glyph-name="fl" unicode="fl" horiz-adv-x="1046" 
d="M37 911l37 248h139l14 98q23 168 110 239t275 71q32 0 56 -4l-33 -242h-39q-50 0 -69.5 -18.5t-26.5 -75.5l-11 -68h123l-34 -248h-123l-170 -1222h-277l170 1222h-141zM840 -4q-182 0 -239.5 65t-31.5 246l174 1256h279l-172 -1225q-8 -61 2.5 -76.5t65.5 -15.5h12
l-35 -246q-12 -4 -55 -4z" />
    <glyph glyph-name="f_f_l" unicode="ffl" horiz-adv-x="1523" 
d="M483 -311l172 1222h-200l-170 -1222h-277l170 1222h-141l37 248h139l14 98q23 168 110.5 239t274.5 71q44 0 68 -4l-33 -242h-51q-50 0 -69.5 -18.5t-26.5 -75.5l-11 -68h201l15 98q23 169 109.5 239.5t275.5 70.5q31 0 55 -4l-35 -242h-37q-51 0 -69.5 -18.5
t-26.5 -75.5l-10 -68h123l-35 -248h-123l-172 -1222h-277zM1317 -4q-183 0 -240.5 64.5t-32.5 246.5l177 1256h278l-172 -1225q-9 -60 1.5 -76t66.5 -16h12l-35 -246q-16 -4 -55 -4z" />
    <glyph glyph-name="f_f_i" unicode="ffi" horiz-adv-x="1466" 
d="M483 -311l172 1222h-200l-170 -1222h-277l170 1222h-141l37 248h139l14 98q23 168 110.5 239t274.5 71q44 0 68 -4l-33 -242h-51q-50 0 -69.5 -18.5t-26.5 -75.5l-11 -68h201l15 98q23 169 109.5 239.5t275.5 70.5q31 0 55 -4l-35 -242h-37q-51 0 -69.5 -18.5
t-26.5 -75.5l-10 -68h123l-35 -248h-123l-172 -1222h-277zM1001 0l164 1159h279l-164 -1159h-279zM1180 1266l37 272h278l-39 -272h-276z" />
    <glyph glyph-name="f_j" unicode="fj" horiz-adv-x="989" 
d="M37 911l37 248h139l14 98q23 168 110 239t275 71q32 0 56 -4l-33 -242h-39q-50 0 -69.5 -18.5t-26.5 -75.5l-11 -68h123l-34 -248h-123l-170 -1222h-277l170 1222h-141zM416 -311l33 241q45 0 58 17.5t21 79.5l160 1132h279l-164 -1163q-12 -82 -32.5 -137t-48 -89
t-75 -51.5t-99 -23.5t-132.5 -6zM702 1266l39 272h279l-39 -272h-279z" />
    <glyph glyph-name="f_f" unicode="ff" horiz-adv-x="1116" 
d="M483 -311l172 1222h-200l-170 -1222h-277l170 1222h-141l37 248h139l14 98q23 168 110.5 239t274.5 71q44 0 68 -4l-33 -242h-51q-50 0 -69.5 -18.5t-26.5 -75.5l-11 -68h201l15 98q24 170 111.5 240t285.5 70q89 0 117 -4l-33 -250h-82q-74 -1 -98 -20t-33 -81l-8 -53
h198l-35 -248h-198l-170 -1222h-277z" />
    <glyph glyph-name=".notdef" horiz-adv-x="264" 
 />
    <glyph glyph-name=".null" horiz-adv-x="0" 
 />
    <glyph glyph-name="nonmarkingreturn" horiz-adv-x="682" 
 />
    <glyph glyph-name="space" unicode=" " horiz-adv-x="264" 
 />
    <glyph glyph-name="space" unicode="&#xa0;" horiz-adv-x="264" 
 />
    <glyph glyph-name="exclam" unicode="!" horiz-adv-x="583" 
d="M29 0l47 342h313l-49 -342h-311zM123 461l125 1057h301l-172 -1057h-254z" />
    <glyph glyph-name="quotedbl" unicode="&#x22;" horiz-adv-x="886" 
d="M141 854l78 664h285l-105 -664h-258zM518 854l78 664h289l-109 -664h-258z" />
    <glyph glyph-name="numbersign" unicode="#" horiz-adv-x="1062" 
d="M111 0l53 389h-152l37 264h152l22 154h-151l37 264h151l64 447h256l-64 -447h109l63 447h256l-63 -447h170l-37 -264h-170l-23 -154h170l-37 -264h-170l-53 -389h-256l53 389h-108l-53 -389h-256zM440 633h138l28 194h-139z" />
    <glyph glyph-name="dollar" unicode="$" horiz-adv-x="872" 
d="M178 -190l27 192q-88 8 -150 28t-131 56l121 231q49 -28 124 -50.5t157 -22.5q78 0 123 41.5t45 124.5q0 42 -33 92.5t-150 197.5q-7 10 -33 43t-33 41.5t-28 36.5t-27 38.5t-21.5 35t-20 37.5t-14 36t-12.5 40t-6 39t-3 45q0 100 32 185t101.5 148.5t169.5 87.5l24 164
h267l-23 -159q113 -10 213 -56l-131 -243q-92 49 -223 49q-67 0 -108.5 -39.5t-41.5 -112.5q0 -43 29.5 -90.5t128.5 -171.5q116 -147 145 -191q73 -116 74 -229q0 -158 -75.5 -271.5t-221.5 -150.5l-29 -202h-266z" />
    <glyph glyph-name="percent" unicode="%" horiz-adv-x="1740" 
d="M360 545q-154 0 -226.5 79t-72.5 220q0 63 19 215q9 68 18 116t24 101.5t33.5 89.5t46.5 70.5t63.5 55t84 32.5t109.5 12q146 0 223.5 -80t77.5 -223q0 -70 -21 -217q-9 -67 -18 -113.5t-23.5 -100t-33 -88.5t-46.5 -70t-63.5 -55t-84.5 -32t-110 -12zM373 760
q54 0 72 46t42 211q1 9 2 13q3 27 9.5 74.5t9 74t2.5 46.5q0 47 -14.5 66.5t-51.5 19.5q-58 0 -76 -47.5t-42 -221.5q-21 -150 -21 -192q0 -49 15.5 -69.5t52.5 -20.5zM1282 -10q-155 0 -228 79.5t-73 221.5q0 67 18 215q9 68 18 116t24 101.5t33.5 89t46.5 70t64 54.5
t85 32t110 12q146 0 222.5 -79.5t76.5 -221.5q0 -76 -20 -219q-8 -58 -15.5 -100t-19 -89.5t-26 -81t-35 -68t-46.5 -56.5t-60 -40.5t-78 -27t-97 -8.5zM1292 207q55 0 74.5 49t42.5 221q21 151 21 193q0 48 -15 68t-51 20q-56 0 -74 -45t-42 -206q-2 -13 -3 -20
q-20 -140 -20 -192q0 -49 15 -68.5t52 -19.5zM369 0l759 1518h240l-760 -1518h-239z" />
    <glyph glyph-name="ampersand" unicode="&#x26;" horiz-adv-x="1191" 
d="M442 -10q-249 0 -358 88t-109 258q0 96 24 176.5t70 143t99.5 109.5t124.5 91q-41 122 -41 242q0 436 360 436q166 0 238 -66.5t72 -189.5q0 -174 -73 -297t-212 -225q14 -29 43 -78l100 -184q47 136 78 366h250q-57 -399 -195 -612l138 -248h-316l-28 51
q-111 -61 -265 -61zM455 221q79 0 145 29l-154 285q-29 44 -57 102q-68 -60 -101.5 -118.5t-33.5 -143.5q0 -75 43.5 -114.5t157.5 -39.5zM510 1118q0 -69 31 -160q69 59 99 120.5t30 146.5q0 34 -14.5 51.5t-51.5 17.5q-94 0 -94 -176z" />
    <glyph glyph-name="quotesingle" unicode="'" horiz-adv-x="509" 
d="M141 854l78 664h289l-105 -664h-262z" />
    <glyph glyph-name="parenleft" unicode="(" horiz-adv-x="751" 
d="M252 -340q-69 109 -115.5 276.5t-46.5 391.5q0 127 23 313q24 166 70.5 320t105 271.5t116.5 204.5t117 150l197 -127q-43 -59 -74.5 -107.5t-73 -127.5t-71.5 -160t-58.5 -195.5t-46.5 -242.5q-22 -171 -22 -299q0 -311 108 -541z" />
    <glyph glyph-name="parenright" unicode=")" horiz-adv-x="751" 
d="M188 -340l-194 129q54 73 93.5 139t87 167t84 234t58.5 292q21 167 21 299q0 322 -109 540l230 127q166 -251 166 -657q0 -130 -25 -307q-22 -166 -69.5 -322t-107 -276.5t-118 -210.5t-117.5 -154z" />
    <glyph glyph-name="asterisk" unicode="*" horiz-adv-x="919" 
d="M541 569l-219 31l61 279l-205 -142l-102 219l258 115l-217 186l159 181l156 -195l21 285l221 -31l-62 -283l207 148l103 -217l-263 -121l222 -182l-160 -180l-158 194z" />
    <glyph glyph-name="plus" unicode="+" horiz-adv-x="1011" 
d="M297 272l47 342h-246l39 265h246l49 340h275l-48 -340h248l-39 -265h-247l-48 -342h-276z" />
    <glyph glyph-name="comma" unicode="," horiz-adv-x="452" 
d="M12 -293l-65 139q94 57 115 78t28 76h-127l51 348h310l-50 -336q-13 -103 -65.5 -170.5t-196.5 -134.5z" />
    <glyph glyph-name="hyphen" unicode="-" horiz-adv-x="561" 
d="M18 555l37 262h465l-37 -262h-465z" />
    <glyph glyph-name="hyphen" unicode="&#xad;" horiz-adv-x="561" 
d="M18 555l37 262h465l-37 -262h-465z" />
    <glyph glyph-name="period" unicode="." horiz-adv-x="452" 
d="M-37 0l51 348h310l-50 -348h-311z" />
    <glyph glyph-name="slash" unicode="/" horiz-adv-x="835" 
d="M-113 0l768 1518h291l-768 -1518h-291z" />
    <glyph glyph-name="zero" unicode="0" horiz-adv-x="1005" 
d="M424 -10q-107 0 -183 28.5t-119.5 83.5t-63 126t-19.5 165q0 109 37 398q16 115 30 194t35.5 163.5t47 139t62.5 106t84.5 80t110.5 45.5t142 17q204 0 291.5 -100t87.5 -289q0 -33 -2 -66.5t-7.5 -85t-8 -73t-12 -95.5t-11.5 -86q-11 -81 -20.5 -141t-22.5 -125.5
t-26 -113t-31 -97t-39 -84t-47.5 -67.5t-58 -54t-70.5 -37.5t-85.5 -24t-101.5 -7.5zM440 248q91 0 121.5 84.5t77.5 417.5q41 292 41 374q0 80 -25.5 113t-89.5 33q-93 0 -124 -85t-76 -415q-43 -299 -43 -373q0 -83 26.5 -116t91.5 -33z" />
    <glyph glyph-name="one" unicode="1" horiz-adv-x="610" 
d="M94 0l176 1251h-166l37 267h447l-213 -1518h-281z" />
    <glyph glyph-name="two" unicode="2" horiz-adv-x="837" 
d="M-63 0l32 236l500 733q39 59 55.5 102t16.5 94q0 56 -26 83.5t-97 27.5q-88 0 -193 -37l-96 238q142 59 358 59q349 0 349 -293q0 -111 -33 -196t-119 -211l-397 -586h405l-35 -250h-720z" />
    <glyph glyph-name="three" unicode="3" horiz-adv-x="802" 
d="M281 -10q-87 0 -161.5 14t-110.5 28.5t-83 37.5l121 231q41 -23 101.5 -41t117.5 -18q84 0 114 44.5t50 174.5q8 74 8 94q0 72 -46 97.5t-183 25.5h-45l35 256h92q64 0 102 7.5t60.5 29t32 49t16.5 78.5q8 54 8 73q0 54 -29 80.5t-106 26.5q-83 0 -168 -27l-86 234
q122 51 325 51q192 0 271.5 -66t79.5 -200q0 -42 -11 -125q-22 -144 -53.5 -210.5t-105.5 -100.5q100 -43 100 -197q0 -68 -20 -205q-33 -238 -125.5 -340t-300.5 -102z" />
    <glyph glyph-name="four" unicode="4" horiz-adv-x="958" 
d="M-18 293l32 235l535 990h282l-524 -971h191l104 375h205l-53 -375h141l-37 -254h-139l-41 -293h-260l41 293h-477z" />
    <glyph glyph-name="five" unicode="5" horiz-adv-x="854" 
d="M330 -10q-145 0 -232 21t-168 59l123 231q120 -59 256 -59q86 0 118.5 49t55.5 211q15 111 15 141q0 69 -25.5 95t-87.5 26q-60 0 -121 -37l-190 61l125 730h639l-37 -267h-398l-45 -258q68 33 152 33q151 0 213.5 -69t62.5 -222q0 -72 -22 -252q-21 -145 -49.5 -235
t-78.5 -150.5t-122.5 -84t-183.5 -23.5z" />
    <glyph glyph-name="six" unicode="6" horiz-adv-x="962" 
d="M432 -10q-397 0 -397 399q0 115 26 299l17 117q32 234 79 375.5t134 224.5q75 68 185 90.5t312 22.5h97l-37 -267h-94q-47 0 -85.5 -2.5t-70 -9t-55.5 -13t-44 -20t-33.5 -23.5t-25 -30t-18.5 -34t-14 -40.5t-11 -44t-10 -49.5q71 68 217 68q86 0 145 -20t91 -59.5
t45.5 -89.5t13.5 -118q0 -104 -22 -242q-20 -143 -48.5 -236.5t-78.5 -164t-127.5 -102t-190.5 -31.5zM436 236q33 0 55.5 9.5t38 26.5t27 55.5t19.5 81t18 117.5q14 115 14 154q0 65 -22.5 92t-79.5 27q-36 0 -59 -8.5t-45.5 -33.5t-38 -76t-27.5 -132q-17 -133 -17 -182
q0 -71 26.5 -101t90.5 -30z" />
    <glyph glyph-name="seven" unicode="7" horiz-adv-x="772" 
d="M2 0l520 1251h-444l37 267h741l-35 -240l-528 -1278h-291z" />
    <glyph glyph-name="eight" unicode="8" horiz-adv-x="978" 
d="M412 -16q-211 0 -307.5 78t-96.5 239q0 77 10 141q9 67 17.5 111t23.5 94t35 82.5t51.5 61.5t73.5 47q-78 52 -78 186q0 56 15 170q25 180 123 262t284 82q198 0 290.5 -69t92.5 -216q0 -30 -8 -96q-20 -140 -53 -217t-111 -115q59 -28 83 -83t24 -138q0 -61 -19 -198
q-16 -111 -44.5 -186.5t-80.5 -130.5t-131.5 -80t-193.5 -25zM416 217q82 0 114 50t52 182q10 59 10 120q0 65 -26 94t-93 29q-81 0 -113.5 -50t-50.5 -181q-10 -59 -10 -123q0 -63 27 -92t90 -29zM516 934q66 0 95.5 40.5t43.5 139.5q9 50 9 84q0 56 -24.5 80.5t-82.5 24.5
q-65 0 -94 -39t-43 -140q-8 -66 -8 -88q0 -53 24 -77.5t80 -24.5z" />
    <glyph glyph-name="nine" unicode="9" horiz-adv-x="962" 
d="M92 0l35 260h96q93 0 154.5 12t98 28.5t59.5 58.5t32 75.5t23 106.5q-73 -70 -215 -70q-163 0 -230 74t-67 213q0 105 22 243q16 114 36.5 194.5t54 148.5t81 108t115 62t158.5 22q113 0 191.5 -27.5t122.5 -82t63.5 -124.5t19.5 -165q0 -108 -27 -299l-16 -117
q-32 -236 -79 -380.5t-134 -227.5q-75 -68 -185.5 -90.5t-312.5 -22.5h-96zM471 717q37 0 60 8t45.5 33t38 76t26.5 133q18 114 18 180q0 71 -26 101t-90 30q-33 0 -55.5 -9.5t-38 -26.5t-27 -55t-19.5 -80.5t-18 -117.5q-14 -115 -14 -153q0 -65 22 -92t78 -27z" />
    <glyph glyph-name="colon" unicode=":" horiz-adv-x="479" 
d="M-20 0l49 344h305l-49 -344h-305zM94 815l49 344h306l-50 -344h-305z" />
    <glyph glyph-name="semicolon" unicode=";" horiz-adv-x="479" 
d="M27 -293l-62 139q88 52 111 75.5t30 78.5h-126l49 344h305l-47 -332q-7 -49 -19 -84t-39 -74.5t-77 -75.5t-125 -71zM94 815l49 344h306l-50 -344h-305z" />
    <glyph glyph-name="less" unicode="&#x3c;" horiz-adv-x="1011" 
d="M725 229l-584 410l27 195l700 407l-39 -287l-387 -221l324 -223z" />
    <glyph glyph-name="equal" unicode="=" horiz-adv-x="1011" 
d="M78 389l37 264h753l-37 -264h-753zM137 821l37 264h756l-37 -264h-756z" />
    <glyph glyph-name="greater" unicode="&#x3e;" horiz-adv-x="1011" 
d="M133 229l41 285l389 223l-325 224l41 280l581 -410l-26 -196z" />
    <glyph glyph-name="question" unicode="?" horiz-adv-x="907" 
d="M248 449q28 179 54.5 259t100.5 166l136 158q53 61 53 139q0 46 -29.5 75.5t-93.5 29.5q-99 0 -207 -31l-92 240q132 51 350 51q98 0 170.5 -25t112.5 -69t59 -95.5t19 -111.5q0 -88 -30.5 -161.5t-92.5 -147.5l-121 -146q-60 -72 -79 -127t-40 -204h-270zM166 0l43 309
h309l-43 -309h-309z" />
    <glyph glyph-name="at" unicode="@" horiz-adv-x="1298" 
d="M569 -311q-137 0 -238.5 25.5t-165 69.5t-102.5 112t-54 144t-15 175q0 139 43 438q15 108 25 170.5t27.5 152.5t34.5 141.5t44.5 119.5t60 106t78 80.5t101 63.5t127 35t157.5 14q137 0 238.5 -25t166 -69t104 -110.5t54.5 -141.5t15 -172q0 -148 -45 -443l-35 -256
q-9 -67 -27.5 -108.5t-51.5 -63t-71.5 -29t-99.5 -7.5q-123 0 -174 77q-39 -39 -93 -57t-149 -18q-143 0 -197.5 67.5t-54.5 194.5q0 54 25 250q10 70 18.5 118.5t21 101.5t27 87.5t36 68t48 52t62.5 30t80 11.5q99 0 143 -15t68 -47l35 51l176 -12l-101 -729
q-2 -24 -3 -45.5t12 -37t41 -15.5q41 0 57 19.5t24 74.5l35 248q4 30 14.5 111t15 117t9 91t4.5 96q0 73 -11.5 129.5t-41 105t-77 80t-122.5 49t-176 17.5q-227 0 -332 -118q-82 -92 -125 -303q-17 -82 -51 -318q-3 -24 -14.5 -109t-15.5 -119t-8.5 -90.5t-4.5 -97.5
q0 -75 11.5 -132t41 -106t78 -80.5t124.5 -49t179 -17.5h291l-20 -153h-277zM586 313q29 0 48 8t31.5 24.5t21.5 49t16 73.5t16 106q1 10 2 16q18 120 18 180q0 57 -19 82t-69 25q-61 0 -82.5 -49.5t-46.5 -217.5q-18 -114 -18 -182q0 -60 18.5 -87.5t63.5 -27.5z" />
    <glyph glyph-name="A" unicode="A" horiz-adv-x="1021" 
d="M-92 0l551 1522h313l133 -1522h-299l-16 229h-318l-77 -229h-287zM358 487h211l-18 334l-12 217l-68 -215z" />
    <glyph glyph-name="B" unicode="B" horiz-adv-x="989" 
d="M-20 0l215 1518h372q120 0 201.5 -19.5t128.5 -59.5t66.5 -93t19.5 -129q0 -57 -8 -109q-9 -68 -20.5 -114t-30.5 -88.5t-50 -70.5t-75 -44q59 -22 84.5 -77t25.5 -145q0 -46 -16 -178q-30 -213 -132 -302t-290 -89h-491zM291 250h172q38 0 62.5 6.5t45.5 25t33 54.5
t19 94q6 50 6 82q0 73 -34 98t-116 25h-135zM381 889h162q74 0 107.5 39.5t43.5 142.5q6 43 6 72q0 68 -32 92.5t-113 24.5h-121z" />
    <glyph glyph-name="C" unicode="C" horiz-adv-x="825" 
d="M444 -10q-432 0 -432 444q0 118 33 344q14 102 28.5 181t34.5 154t43 131t53.5 105.5t68 82.5t84.5 57.5t104.5 35.5t126.5 11q185 0 307 -51l-113 -266q-82 38 -192 38q-41 0 -69.5 -7.5t-53 -30.5t-40.5 -55t-32.5 -92t-28.5 -130.5t-28 -179.5q-31 -209 -31 -311
q0 -108 38 -150.5t134 -42.5q75 0 154 29l84 -242q-123 -55 -273 -55z" />
    <glyph glyph-name="D" unicode="D" horiz-adv-x="1024" 
d="M-20 0l215 1518h331q140 0 236 -29.5t149.5 -88t76 -134.5t22.5 -181t-33 -356q-14 -101 -26.5 -171.5t-30 -146.5t-38.5 -126.5t-50.5 -101t-66.5 -81.5t-86 -56t-110.5 -35.5t-138.5 -10.5h-450zM303 250h121q34 0 59.5 4t47.5 16.5t37.5 28t30 46.5t24 63t20.5 87
t19.5 109.5t19.5 138.5q33 226 33 316q0 110 -44 154t-161 44h-66z" />
    <glyph glyph-name="E" unicode="E" horiz-adv-x="876" 
d="M-18 0l213 1518h731l-37 -267h-445l-49 -350h424l-37 -264h-424l-55 -377h445l-35 -260h-731z" />
    <glyph glyph-name="F" unicode="F" horiz-adv-x="849" 
d="M-18 0l213 1518h727l-37 -267h-441l-53 -381h420l-39 -266h-420l-84 -604h-286z" />
    <glyph glyph-name="G" unicode="G" horiz-adv-x="966" 
d="M432 -10q-96 0 -168.5 19.5t-120 54.5t-77 88.5t-42 117.5t-12.5 146q0 111 33 377q16 113 31 193.5t38 163t51 138t69 105.5t93 79t121 45.5t156 16.5q220 0 354 -61l-120 -254q-95 43 -236 43q-44 0 -75 -7.5t-58 -30t-44.5 -55.5t-34.5 -91.5t-30 -130t-28 -179.5
q-35 -254 -35 -338q0 -100 33 -146t116 -46q87 0 121.5 61.5t61.5 251.5l14 100h-190l36 260h465l-47 -321q-19 -128 -37 -213t-44.5 -156.5t-58.5 -112t-80.5 -69.5t-108.5 -39t-146 -10z" />
    <glyph glyph-name="H" unicode="H" horiz-adv-x="1062" 
d="M-18 0l213 1518h286l-84 -596h314l82 596h288l-213 -1518h-288l90 635h-312l-90 -635h-286z" />
    <glyph glyph-name="I" unicode="I" horiz-adv-x="491" 
d="M-4 0l213 1518h287l-213 -1518h-287z" />
    <glyph glyph-name="J" unicode="J" horiz-adv-x="638" 
d="M-72 0l37 260h115q68 0 97 25.5t38 89.5l160 1143h291l-166 -1172q-47 -346 -357 -346h-215z" />
    <glyph glyph-name="K" unicode="K" horiz-adv-x="999" 
d="M-18 0l213 1518h282l-80 -562l353 562h301l-375 -584l194 -934h-292l-127 629l-129 -223l-58 -406h-282z" />
    <glyph glyph-name="L" unicode="L" horiz-adv-x="811" 
d="M-18 0l213 1518h286l-178 -1258h420l-37 -260h-704z" />
    <glyph glyph-name="M" unicode="M" horiz-adv-x="1277" 
d="M-18 0l213 1518h358l47 -723l12 -222l70 220l256 725h358l-213 -1518h-272l125 889l-86 -264l-217 -625h-223l-45 641l-9 246l-125 -887h-249z" />
    <glyph glyph-name="N" unicode="N" horiz-adv-x="1046" 
d="M-18 0l213 1518h294l138 -553l55 -256l115 809h268l-213 -1518h-260l-166 639l-53 240l-125 -879h-266z" />
    <glyph glyph-name="O" unicode="O" horiz-adv-x="1054" 
d="M451 -10q-439 0 -439 446q0 96 35 355q11 83 22 146.5t26.5 131.5t33.5 118.5t42.5 101.5t54 87t68 68t85 51t104 30t125.5 11q434 0 434 -444q0 -99 -36 -361q-13 -92 -25.5 -162t-31 -143.5t-41 -127.5t-52.5 -106t-69 -87t-88 -62t-111 -40t-137 -13zM471 254
q47 0 79.5 15t56 44t42 91.5t32.5 136.5t32 200q32 222 32 322q0 105 -36 151t-125 46q-40 0 -69 -8.5t-53 -33.5t-40 -58t-31 -93.5t-26.5 -127t-26.5 -171.5q-33 -251 -33 -317q0 -106 37 -151.5t129 -45.5z" />
    <glyph glyph-name="P" unicode="P" horiz-adv-x="991" 
d="M-18 0l213 1518h368q166 0 264 -40t137.5 -114t39.5 -195q0 -79 -15 -178q-21 -138 -52 -227.5t-86 -150.5t-135 -87t-198 -26h-182l-72 -500h-282zM371 760h153q59 0 92 18t56 70t37 153q10 61 10 117q0 81 -37 109t-135 28h-105z" />
    <glyph glyph-name="Q" unicode="Q" horiz-adv-x="1052" 
d="M664 -356h-107q-144 0 -218 42.5t-89.5 127t6.5 211.5q-244 83 -244 411q0 96 35 355q11 83 22 146.5t26.5 131.5t33.5 118.5t42.5 101.5t54 87t68 68t85 51t104 30t125.5 11q434 0 434 -444q0 -99 -36 -361q-14 -98 -27.5 -172t-34 -150.5t-45.5 -131.5t-60.5 -106
t-80 -84t-103 -55.5t-129.5 -29.5q-6 -66 9 -88.5t73 -22.5h90zM469 248q48 0 80.5 15.5t56.5 45.5t42.5 93.5t32.5 138t32 200.5q32 222 32 322q0 105 -36 151t-125 46q-40 0 -69 -8.5t-53 -33.5t-40 -58t-31 -93.5t-26.5 -127t-26.5 -171.5q-33 -251 -33 -324
q0 -106 36.5 -151t127.5 -45z" />
    <glyph glyph-name="R" unicode="R" horiz-adv-x="991" 
d="M539 0l-88 535h-115l-76 -535h-278l213 1518h368q124 0 207.5 -20t132.5 -62.5t69.5 -102t20.5 -145.5q0 -56 -14 -166q-23 -172 -81.5 -280t-176.5 -162l102 -580h-284zM373 795h137q90 0 128 43.5t58 181.5q11 71 11 102q0 80 -35.5 106.5t-130.5 26.5h-103z" />
    <glyph glyph-name="S" unicode="S" horiz-adv-x="866" 
d="M319 -10q-228 0 -399 92l146 240q117 -70 258 -70q155 0 155 160q0 47 -33.5 103.5t-140.5 191.5q-104 133 -149 219t-45 192q0 89 25.5 163.5t77.5 131.5t137 89t196 32q109 0 178.5 -12t148.5 -43l-116 -265q-98 46 -217 46q-62 0 -98.5 -36t-36.5 -100q0 -45 31 -97
t122 -169q114 -147 161.5 -240t47.5 -204q0 -93 -25 -168t-77.5 -133.5t-140.5 -90.5t-206 -32z" />
    <glyph glyph-name="T" unicode="T" horiz-adv-x="911" 
d="M203 0l176 1251h-295l37 267h880l-36 -267h-297l-174 -1251h-291z" />
    <glyph glyph-name="U" unicode="U" horiz-adv-x="1042" 
d="M453 -18q-143 0 -235 33.5t-134.5 97t-53.5 156t9 210.5l145 1039h289l-143 -1026q-20 -131 6 -187.5t123 -56.5q90 0 127.5 52t58.5 196l143 1022h281l-145 -1039q-15 -107 -34.5 -180t-53.5 -137t-84 -101.5t-124 -58t-175 -20.5z" />
    <glyph glyph-name="V" unicode="V" horiz-adv-x="1015" 
d="M246 -4l-123 1522h291l43 -748l14 -283l88 275l254 756h295l-549 -1522h-313z" />
    <glyph glyph-name="W" unicode="W" horiz-adv-x="1458" 
d="M168 -4l-21 1522h289l-2 -625l-4 -254l76 252l196 627h281l21 -629l4 -250l67 248l174 631h271l-447 -1522h-297l-24 655l-7 234l-69 -234l-205 -655h-303z" />
    <glyph glyph-name="X" unicode="X" horiz-adv-x="1019" 
d="M600 0l-139 487l-258 -487h-293l455 817l-201 701h291l114 -404l209 404h293l-405 -740l225 -778h-291z" />
    <glyph glyph-name="Y" unicode="Y" horiz-adv-x="980" 
d="M238 0l71 514l-213 1004h301l111 -623l289 623h299l-500 -1014l-72 -504h-286z" />
    <glyph glyph-name="Z" unicode="Z" horiz-adv-x="872" 
d="M-76 0l31 219l608 1032h-440l37 267h770l-35 -244l-598 -1014h471l-35 -260h-809z" />
    <glyph glyph-name="bracketleft" unicode="[" horiz-adv-x="751" 
d="M-8 -311l262 1874h498l-35 -252h-215l-197 -1385h221l-32 -237h-502z" />
    <glyph glyph-name="backslash" unicode="\" horiz-adv-x="835" 
d="M451 0l-340 1518h270l342 -1518h-272z" />
    <glyph glyph-name="bracketright" unicode="]" horiz-adv-x="751" 
d="M-43 -311l33 237h221l195 1385h-216l33 252h498l-262 -1874h-502z" />
    <glyph glyph-name="asciicircum" unicode="^" 
d="M115 1198l256 340h280l160 -340h-238l-86 156l-129 -156h-243z" />
    <glyph glyph-name="underscore" unicode="_" horiz-adv-x="604" 
d="M-197 -283l27 201h705l-29 -201h-703z" />
    <glyph glyph-name="grave" unicode="`" 
d="M367 1249l-185 340h322l106 -340h-243z" />
    <glyph glyph-name="a" unicode="a" horiz-adv-x="878" 
d="M256 -10q-150 0 -218.5 69t-70.5 203q0 48 10 123q14 99 38.5 167.5t59.5 114t89.5 70.5t120 35t159.5 10h68q7 64 -12.5 93.5t-87.5 29.5q-111 0 -193 -26l-84 247q119 48 338 48q203 0 274 -84t44 -265l-70 -503q-3 -27 -3 -44t12 -24.5t42 -7.5l-33 -246
q-20 -4 -116 -4q-65 0 -94 16t-42 51q-79 -73 -231 -73zM317 223q72 0 102 39t40 119l24 182q-58 0 -90.5 -3t-61.5 -11t-43 -26.5t-24.5 -46t-17.5 -73.5q-8 -47 -8 -90q0 -45 17 -67.5t62 -22.5z" />
    <glyph glyph-name="b" unicode="b" horiz-adv-x="911" 
d="M182 -8l-217 16l217 1555h277l-64 -449q73 60 199 60q81 0 138 -23.5t87.5 -68.5t44 -99t13.5 -125q0 -80 -31 -299q-12 -84 -22 -143.5t-25.5 -123t-33.5 -106t-44 -82t-58 -62.5t-75 -36.5t-96 -13.5q-119 0 -177 16.5t-86 52.5zM406 240q73 0 102.5 62.5t54.5 256.5
q23 145 23 213q0 70 -23 101.5t-78 31.5q-25 0 -43.5 -5t-33 -13.5t-25.5 -29t-19 -40.5t-16 -60.5t-14 -76.5t-15 -100q-22 -172 -22 -213q0 -66 24.5 -96.5t84.5 -30.5z" />
    <glyph glyph-name="c" unicode="c" horiz-adv-x="669" 
d="M342 -8q-350 0 -350 368q0 95 20 248q16 111 37 193.5t55.5 155t81 118t113.5 71t154 25.5q142 0 235 -38l-113 -252q-57 22 -116 22q-72 0 -103 -62.5t-59 -258.5q-21 -158 -21 -209q0 -76 26 -104.5t89 -28.5q49 0 98 14l58 -236q-94 -26 -205 -26z" />
    <glyph glyph-name="d" unicode="d" horiz-adv-x="913" 
d="M268 -8q-81 0 -137.5 23.5t-87.5 67.5t-44 98t-13 124q0 91 30 303q14 98 26.5 165t31.5 137t44 114t60.5 80.5t83 53t109.5 16.5q186 0 241 -68l66 457h276l-217 -1553l-233 -14v67q-73 -71 -236 -71zM371 240q29 0 49.5 5t36.5 23t26 37t20 63t16.5 83.5t17.5 115.5
q22 145 22 211q0 67 -23 97t-83 30q-73 0 -103 -62t-57 -255q-21 -157 -21 -215q0 -70 23 -101.5t76 -31.5z" />
    <glyph glyph-name="e" unicode="e" horiz-adv-x="825" 
d="M356 -10q-364 0 -364 375q0 93 20 243q22 148 53 248.5t83 174.5t128 108.5t183 34.5q179 0 255.5 -79t76.5 -241q0 -115 -50 -399h-477q-6 -59 -6 -95q0 -76 29 -102.5t106 -26.5q125 0 219 31l72 -225q-81 -27 -152.5 -37t-175.5 -10zM442 920q-66 0 -95.5 -48.5
t-53.5 -189.5h231q15 105 15 139q0 56 -21 77.5t-76 21.5z" />
    <glyph glyph-name="f" unicode="f" horiz-adv-x="638" 
d="M37 911l37 248h139l16 107q23 166 115 233.5t281 67.5q86 0 118 -4l-34 -250h-80q-74 0 -98.5 -19.5t-32.5 -81.5l-9 -53h199l-37 -248h-196l-170 -1222h-277l170 1222h-141z" />
    <glyph glyph-name="g" unicode="g" horiz-adv-x="878" 
d="M401 428q-49 0 -96 6q-8 -21 -8 -49q0 -25 19.5 -36.5t78.5 -12.5q203 -1 291 -63t88 -185q0 -118 -32.5 -200.5t-95.5 -127.5t-141 -64.5t-183 -19.5q-232 0 -332.5 58t-100.5 186q0 123 56 202t164 107q-39 42 -39 123q0 95 53 166q-73 76 -70 209q0 41 6 88
q52 363 398 363q28 0 98 -4l367 69l-31 -211h-129q48 -64 51 -174q0 -44 -6 -94q-28 -185 -131 -260.5t-275 -75.5zM324 -129q86 0 128 35t42 121q0 49 -41.5 70.5t-133.5 21.5q-90 0 -120.5 -38t-30.5 -112q0 -49 34 -73.5t122 -24.5zM412 629q59 0 84 32.5t39 120.5
q8 58 8 80q0 47 -20.5 66.5t-73.5 19.5q-57 0 -82 -33.5t-37 -121.5q-8 -44 -8 -84q2 -44 21 -62t69 -18z" />
    <glyph glyph-name="h" unicode="h" horiz-adv-x="911" 
d="M-35 0l219 1563h275l-64 -447q67 58 205 58q77 0 130.5 -18.5t80.5 -51.5t41 -77.5t11.5 -96t-7.5 -107.5l-117 -823h-278l102 721q13 105 -2 144.5t-82 39.5q-66 0 -94 -38.5t-43 -153.5l-100 -713h-277z" />
    <glyph glyph-name="i" unicode="i" horiz-adv-x="436" 
d="M-29 0l164 1159h279l-164 -1159h-279zM150 1266l36 272h279l-39 -272h-276z" />
    <glyph glyph-name="j" unicode="j" horiz-adv-x="436" 
d="M-139 -311l33 241q47 0 60 17.5t21 79.5l160 1132h279l-164 -1163q-12 -82 -32.5 -137t-48.5 -89t-75.5 -51.5t-99 -23.5t-133.5 -6zM150 1266l36 272h279l-39 -272h-276z" />
    <glyph glyph-name="k" unicode="k" horiz-adv-x="856" 
d="M-37 0l219 1563h269l-115 -807l268 403h285l-326 -495l178 -664h-280l-111 406l-80 -127l-39 -279h-268z" />
    <glyph glyph-name="l" unicode="l" horiz-adv-x="493" 
d="M287 -4q-181 0 -239.5 64.5t-33.5 246.5l176 1256h279l-172 -1225q-9 -60 1.5 -76t66.5 -16h12l-35 -246q-16 -4 -55 -4z" />
    <glyph glyph-name="m" unicode="m" horiz-adv-x="1382" 
d="M-35 0l160 1145l233 14l2 -55q27 31 93 49t143 18q84 0 139 -18.5t78 -67.5q38 45 97 65.5t161 20.5q75 0 127.5 -18t80.5 -50t42 -75.5t12.5 -95t-8.5 -109.5l-115 -823h-278l102 721q7 58 8 99t-18 63t-63 22q-67 0 -93 -37.5t-43 -154.5l-100 -713h-279l103 721
q17 94 4 139t-78 45q-66 0 -92 -38t-41 -154l-100 -713h-277z" />
    <glyph glyph-name="n" unicode="n" horiz-adv-x="911" 
d="M-35 0l160 1145l233 14l2 -55q67 70 240 70q77 0 130.5 -18.5t80.5 -51.5t41 -77.5t11.5 -96t-7.5 -107.5l-117 -823h-278l102 721q13 105 -2 144.5t-82 39.5q-66 0 -94 -38.5t-43 -153.5l-100 -713h-277z" />
    <glyph glyph-name="o" unicode="o" horiz-adv-x="886" 
d="M360 -10q-368 0 -368 372q0 97 20 244q13 91 28.5 160t40 137t58.5 114.5t80.5 83.5t110.5 55t145 18q369 0 369 -369q0 -75 -23 -248q-15 -110 -34.5 -189.5t-54 -155t-82.5 -121.5t-121 -73.5t-169 -27.5zM377 240q28 0 48 5.5t36 24t26 38.5t20 63t16.5 82t17.5 112
q20 131 20 211q0 70 -22.5 99.5t-81.5 29.5q-29 0 -49 -6t-36.5 -23.5t-27 -38t-20.5 -62t-16.5 -83t-16.5 -112.5q-23 -151 -23 -211q0 -69 24.5 -99t84.5 -30z" />
    <glyph glyph-name="p" unicode="p" horiz-adv-x="913" 
d="M-80 -311l205 1456l231 14l2 -57q74 72 236 72q81 0 138 -23.5t87.5 -68.5t44 -99t13.5 -125q0 -80 -31 -299q-12 -84 -22 -143.5t-25.5 -123t-33.5 -106t-44 -82t-58 -62.5t-75 -36.5t-96 -13.5q-188 0 -242 69l-53 -372h-277zM406 240q73 0 102.5 62.5t54.5 256.5
q23 145 23 213q0 70 -23 101.5t-78 31.5q-25 0 -43.5 -5t-33 -13.5t-25.5 -29t-19 -40.5t-16 -60.5t-14 -76.5t-15 -100q-22 -172 -22 -213q0 -66 24.5 -96.5t84.5 -30.5z" />
    <glyph glyph-name="q" unicode="q" horiz-adv-x="913" 
d="M416 -311l51 358q-73 -55 -199 -55q-81 0 -137.5 23.5t-87.5 67.5t-44 98t-13 124q0 91 30 303q14 98 26.5 165t31.5 137t44 114t60.5 80.5t83 53t109.5 16.5q120 0 178.5 -18.5t87.5 -55.5l41 61l217 -14l-203 -1458h-276zM371 240q29 0 49.5 5t36.5 23t26 37t20 63
t16.5 83.5t17.5 115.5q22 145 22 211q0 67 -23 97t-83 30q-73 0 -103 -62t-57 -255q-21 -157 -21 -215q0 -70 23 -101.5t76 -31.5z" />
    <glyph glyph-name="r" unicode="r" horiz-adv-x="563" 
d="M-37 0l162 1145l231 14l2 -74q68 68 246 74l-39 -272q-107 -3 -159.5 -50t-65.5 -153l-96 -684h-281z" />
    <glyph glyph-name="s" unicode="s" horiz-adv-x="747" 
d="M268 -10q-184 0 -336 57l101 238q143 -54 250 -54q46 0 69 19t23 63q0 33 -25.5 68.5t-113.5 128.5q-85 89 -123.5 167.5t-38.5 160.5q0 157 90.5 247.5t279.5 90.5q161 0 265 -41l-93 -258q-93 34 -190 34q-86 0 -86 -71q0 -28 23.5 -63.5t89.5 -104.5
q105 -111 147.5 -188.5t42.5 -161.5q0 -332 -375 -332z" />
    <glyph glyph-name="t" unicode="t" horiz-adv-x="671" 
d="M37 911l37 248h147l72 236l233 55l-41 -291h193l-37 -248h-192l-78 -555q-7 -59 8 -80.5t80 -21.5h90l-35 -254q-37 -4 -125 -4q-139 0 -208.5 34.5t-88 112t1.5 201.5l78 567h-135z" />
    <glyph glyph-name="u" unicode="u" horiz-adv-x="899" 
d="M387 -10q-119 0 -199.5 27.5t-121.5 80t-54.5 128t2.5 171.5l109 762h276l-106 -749q-13 -91 5.5 -131.5t84.5 -40.5q61 0 88 38t41 136l104 747h273l-111 -788q-27 -192 -119 -286.5t-272 -94.5z" />
    <glyph glyph-name="v" unicode="v" horiz-adv-x="833" 
d="M156 0l-99 1159h287l23 -514l8 -229l67 229l170 514h277l-424 -1159h-309z" />
    <glyph glyph-name="w" unicode="w" horiz-adv-x="1206" 
d="M86 0l-14 1159h280l-10 -442l-10 -234l74 236l143 440h242l20 -444l6 -226l55 224l113 446h262l-342 -1159h-289l-22 436l-8 213l-64 -213l-137 -436h-299z" />
    <glyph glyph-name="x" unicode="x" horiz-adv-x="811" 
d="M420 0l-94 313l-158 -313h-274l342 623l-160 536h280l82 -278l148 278h272l-330 -584l172 -575h-280z" />
    <glyph glyph-name="y" unicode="y" horiz-adv-x="815" 
d="M35 -315q-82 0 -98 4l34 243h78q57 1 77.5 9.5t31.5 33.5l14 43l-117 1141h281l24 -411l13 -283l82 274l139 420h276l-479 -1237q-55 -142 -131.5 -189.5t-224.5 -47.5z" />
    <glyph glyph-name="z" unicode="z" horiz-adv-x="702" 
d="M-94 0l24 182l435 729h-310l35 248h643l-26 -186l-441 -744h350l-32 -229h-678z" />
    <glyph glyph-name="braceleft" unicode="{" horiz-adv-x="802" 
d="M326 -311q-139 0 -202 70.5t-44 205.5q7 53 65.5 223t65.5 218q9 65 -21 81.5t-139 16.5l33 244q106 0 141.5 15.5t44.5 76.5q6 45 -2.5 222.5t-1.5 235.5q20 139 97.5 202t220.5 63h221l-33 -252h-102q-60 0 -90 -21.5t-39 -77.5q-4 -33 4 -192t-2 -229
q-17 -127 -121 -164q91 -40 74 -160q-9 -71 -62.5 -236.5t-58.5 -201.5q-7 -56 16.5 -79.5t83.5 -23.5h100l-32 -237h-217z" />
    <glyph glyph-name="bar" unicode="|" horiz-adv-x="565" 
d="M139 -311v1874h281v-1874h-281z" />
    <glyph glyph-name="braceright" unicode="}" horiz-adv-x="802" 
d="M-41 -311l33 237h100q58 0 89 23.5t40 79.5q5 39 -1.5 203t1.5 235q17 117 121 160q-52 20 -67 61t-7 103q10 72 62 229.5t57 191.5q7 57 -16 78t-84 21h-101l35 252h217q143 0 204 -74t42 -215q-8 -57 -66.5 -222.5t-64.5 -211.5q-9 -61 21.5 -76.5t136.5 -15.5
l-33 -244q-110 0 -143.5 -16.5t-42.5 -81.5q-6 -46 3 -228t1 -237q-20 -132 -98.5 -192t-219.5 -60h-219z" />
    <glyph glyph-name="asciitilde" unicode="~" 
d="M332 721l-209 35q16 69 34 115t47 82t71.5 52.5t101.5 16.5q46 0 112 -32t80 -32q27 0 40.5 14.5t25.5 59.5l207 -35q-30 -138 -84.5 -202t-167.5 -64q-47 0 -113.5 32t-79.5 32q-27 0 -40 -14.5t-25 -59.5z" />
    <glyph glyph-name="exclamdown" unicode="&#xa1;" horiz-adv-x="581" 
d="M33 0l172 1057h254l-125 -1057h-301zM195 1176l49 342h309l-47 -342h-311z" />
    <glyph glyph-name="cent" unicode="&#xa2;" horiz-adv-x="753" 
d="M168 -195l31 222q-181 73 -181 333q0 87 21 248q35 240 105.5 372.5t211.5 170.5l25 170h229l-22 -162q60 -7 123 -31l-109 -247q-57 22 -117 22q-49 0 -77 -27.5t-46.5 -93t-37.5 -200.5q-21 -158 -21 -209q0 -76 26 -104.5t89 -28.5q49 0 98 14l55 -229
q-73 -22 -147 -25l-27 -195h-229z" />
    <glyph glyph-name="sterling" unicode="&#xa3;" horiz-adv-x="935" 
d="M532 -6q-152 0 -253 53q-102 -48 -349 -45l35 248q89 0 131.5 14.5t54.5 40t13 80.5l6 279h-145l30 213h121l8 251q12 408 389 408q192 0 338 -61l-118 -242q-87 41 -215 41q-125 0 -129 -162l-7 -235h215l-28 -213h-193l-8 -299q-3 -69 -12 -121q35 -15 76 -15
q54 0 75.5 31t32.5 113l12 90h244l-14 -109q-14 -103 -39.5 -173.5t-65.5 -111.5t-89 -58t-116 -17z" />
    <glyph glyph-name="currency" unicode="&#xa4;" horiz-adv-x="923" 
d="M41 809l29 215h157q27 135 60.5 226t86 158t128 97.5t180.5 30.5q147 0 279 -49l-113 -246q-74 29 -174 29q-74 0 -108 -50t-60 -196h250l-31 -215h-252q-1 -6 -2 -18.5t-2 -18.5q-3 -14 -8 -53h252l-31 -215h-248q-4 -37 -4 -96q0 -88 28.5 -127t98.5 -39q77 0 150 24
l77 -231q-117 -45 -247 -45q-387 0 -387 399q0 72 4 115h-156l31 215h149q2 21 10 72q0 3 1 9t1 9h-149z" />
    <glyph glyph-name="yen" unicode="&#xa5;" horiz-adv-x="952" 
d="M53 424l29 213h227l-188 881h282l95 -613l262 613h284l-438 -881h223l-30 -213h-240l-12 -92h239l-28 -213h-242l-16 -119h-267l17 119h-240l31 213h238l14 92h-240z" />
    <glyph glyph-name="brokenbar" unicode="&#xa6;" horiz-adv-x="565" 
d="M139 -311v772h281v-772h-281zM139 791v772h281v-772h-281z" />
    <glyph glyph-name="section" unicode="&#xa7;" horiz-adv-x="890" 
d="M143 0q-38 0 -66.5 1t-43 2t-19.5 1l35 234h66q72 1 96.5 22.5t32.5 79.5l8 63q-105 26 -147 87t-42 159q0 54 13 137q11 82 27 136.5t46.5 100t80 71t122.5 36.5l13 80q23 170 108.5 244t261.5 74q87 0 115 -4l-31 -234h-65q-74 -1 -98.5 -21.5t-32.5 -78.5l-11 -68
q119 -23 167 -86.5t48 -165.5q0 -39 -12 -137q-13 -83 -30.5 -138t-51 -101t-87.5 -71.5t-134 -33.5l-10 -72q-25 -169 -108.5 -243t-250.5 -74zM428 575q74 0 104 34.5t43 142.5q9 50 9 77q0 61 -28.5 86t-92.5 25q-72 0 -103.5 -35.5t-46.5 -140.5q-6 -52 -6 -84
q0 -59 27.5 -82t93.5 -23z" />
    <glyph glyph-name="dieresis" unicode="&#xa8;" 
d="M180 1249l37 262h240l-37 -262h-240zM514 1249l37 262h240l-39 -262h-238z" />
    <glyph glyph-name="copyright" unicode="&#xa9;" horiz-adv-x="1075" 
d="M567 274q-137 0 -211 74q-55 54 -73.5 148.5t-18.5 263.5q0 167 16.5 259t69.5 148q72 78 217 78q92 0 187 -31l-72 -170q-55 19 -107 19q-80 0 -99 -56.5t-19 -250.5q0 -192 19 -248.5t99 -56.5q55 0 115 26l68 -164q-83 -39 -191 -39zM537 -16q-79 0 -142.5 11.5
t-112.5 37t-85.5 59t-62.5 85t-42.5 108t-26 134.5t-13 157.5t-3.5 183.5t3.5 183t13 157.5t26 135t42 108t62 85.5t85.5 60t112.5 37.5t143.5 11.5q92 0 162.5 -16.5t122.5 -46t88.5 -80.5t59.5 -109.5t36 -144.5t17.5 -173.5t4.5 -207.5t-4.5 -208t-17.5 -173.5t-36 -144
t-59.5 -109t-88.5 -79.5t-122.5 -45.5t-162.5 -16.5zM537 90q64 0 114.5 10t89 32t67 51t48 74.5t32 93t19 116t9 135.5t2.5 158t-2.5 158t-9 135.5t-19 116t-32 93t-48 74.5t-67 51t-89 32t-114.5 10q-84 0 -145.5 -17.5t-103 -57.5t-67 -90.5t-39 -132.5t-18 -165.5
t-4.5 -206.5q0 -91 2.5 -158t9 -135.5t19 -116.5t32 -93t47.5 -74t66 -51t88 -32t113 -10z" />
    <glyph glyph-name="ordfeminine" unicode="&#xaa;" horiz-adv-x="808" 
d="M291 575q-209 0 -209 226q0 26 8 100q14 98 43 160.5t79.5 96t110.5 45t152 11.5h45q6 62 -5 82.5t-64 20.5q-95 0 -181 -19l-49 201q117 37 268 37q168 0 224 -66t35 -217l-60 -407q-5 -40 1.5 -52t41.5 -12l-29 -198q-14 -2 -77 -2q-122 0 -133 80q-62 -87 -201 -87z
M45 276l31 201h579l-28 -201h-582zM367 766q58 0 79.5 35.5t34.5 126.5l15 110h-13q-52 0 -78 -3t-47.5 -17t-31 -38.5t-17.5 -70.5q-8 -54 -8 -71q0 -38 15 -55t51 -17z" />
    <glyph glyph-name="guillemotleft" unicode="&#xab;" horiz-adv-x="1085" 
d="M188 0l-122 578l286 581h244l-268 -581l104 -578h-244zM606 0l-123 578l287 581h242l-267 -581l103 -578h-242z" />
    <glyph glyph-name="logicalnot" unicode="&#xac;" horiz-adv-x="1703" 
d="M258 246q-88 105 -136 237t-48 277q0 144 48 276t136 236q6 -4 14 -12q-85 -103 -131.5 -231.5t-46.5 -268.5q0 -285 180 -500zM467 432q-117 143 -117 328q0 183 115 327q3 -2 8 -7t8 -7q-110 -136 -110 -313q0 -182 110 -314zM541 498q-92 116 -92 262t92 262
q3 -2 8 -7t8 -7q-88 -109 -88 -248t88 -248q-3 -2 -8 -7t-8 -7zM647 592q-57 72 -57 168q0 97 57 166l15 -15q-52 -69 -52 -151q0 -84 54 -154q-3 -2 -8.5 -7t-8.5 -7zM715 655q-33 48 -33 105q0 56 33 104q3 -2 8 -7t8 -7q-29 -44 -29 -90t29 -90q-3 -2 -16 -15zM774 709
q-14 25 -14 51t14 51l12 -10q-10 -20 -10 -41t10 -41q-4 -4 -12 -10zM852 123q-236 0 -412 158l2.5 2.5l5 5l5.5 5.5t2 1q171 -152 397 -152q227 0 395 152q2 -3 7.5 -8t7.5 -8q-177 -156 -410 -156zM852 664q-31 0 -55 18l12 12q21 -14 43 -14q26 0 43 14q4 -4 10 -12
q-21 -18 -53 -18zM987 653q-7 10 -14 15q28 42 28 92q0 51 -28 90l2.5 2.5t5 4.5t5.5 5t1 2q35 -44 35 -104t-35 -107zM598 551q-72 91 -72 209q0 119 74 209l14 -15q-67 -87 -67 -194q0 -108 67 -195q-10 -10 -16 -14zM852 -35q-145 0 -278 52.5t-238 146.5l14 16
q102 -92 231 -143t271 -51q285 0 500 192q0 1 3.5 -2.5t6.5 -7.5l4 -4q-104 -95 -236 -147t-278 -52zM852 248q-189 0 -330 125l15 16q134 -121 315 -121q182 0 313 121q2 -3 7.5 -8t7.5 -8q-138 -125 -328 -125zM852 348q-145 0 -264 101l14 14q108 -94 250 -94
q143 0 248 94q2 -3 7 -8.5t7 -8.5q-112 -98 -262 -98zM852 428q-116 0 -211 78l14 16q86 -73 197 -73t197 73q4 -4 12 -16q-91 -78 -209 -78zM852 543q-77 0 -135 49l14 16q51 -45 121 -45q68 0 119 45q2 -3 7 -8t7 -8q-58 -49 -133 -49zM733 911q-4 3 -7 6.5t-6 6.5l-3 4
q58 49 135 49t135 -49l-16 -17q-51 45 -119 45t-119 -45zM1167 1130q-134 121 -315 121q-179 0 -313 -118l-15 14q141 125 328 125q189 0 330 -125q-4 -6 -15 -17zM930 709l-12 10q10 20 10 41t-10 41l12 10q14 -25 14 -51t-14 -51zM958 682q-10 10 -16 14q21 32 21 64
t-21 63l16 15q25 -36 25 -78t-25 -78zM1020 627q-6 4 -16 14q38 50 38 119t-38 119l14 14q45 -57 45 -133q0 -71 -43 -133zM1106 551q-3 2 -8 7t-8 7q67 87 67 195t-70 194l17 15q74 -90 74 -209q0 -118 -72 -209zM1163 498q-10 10 -16 14q88 109 88 248t-88 248l16 14
q92 -116 92 -262t-92 -262zM1237 432q-6 4 -16 14q112 134 112 314q0 182 -112 313l16 14q117 -139 117 -327q0 -189 -117 -328zM1329 350q-2 2 -7 6t-7 6q141 175 141 398q0 227 -143 395l16 14q148 -179 148 -409q0 -231 -148 -410zM1446 246q-6 6 -16 14q180 215 180 500
t-180 500l16 14q88 -105 136 -237t48 -277q0 -144 -48 -276t-136 -238zM375 348q-148 182 -148 412q0 229 146 409q2 -2 7.5 -6.5t8.5 -7.5q-141 -170 -141 -395q0 -228 141 -398zM684 627q-43 59 -43 133t43 133q6 -4 16 -14q-38 -50 -38 -119q0 -67 38 -117zM745 682
q-24 34 -24 78t24 78q2 -3 4.5 -5.5t6 -5.5t4.5 -4q-19 -34 -19 -63q0 -30 19 -64zM809 825l-10 13q21 18 53 18t53 -18l-10 -13q-23 15 -43 15q-25 0 -43 -15zM786 852l-14 14q37 29 80 29q41 0 78 -29q-8 -8 -12 -14q-28 25 -66 25q-34 0 -66 -25zM760 881l-15 16
q45 39 107 39q61 0 106 -39l-14 -16q-37 34 -92 34t-92 -34zM604 1057l-14 16q112 98 262 98q151 0 262 -100q1 0 -2 -3.5t-6 -7.5l-4 -3q-108 94 -250 94q-143 0 -248 -94zM852 492q-100 0 -170 61l14 16q70 -57 156 -57q87 0 154 57l14 -14q-73 -63 -168 -63zM852 584
q-61 0 -109 39l15 16q47 -35 94 -35q51 0 92 35l14 -16q-45 -39 -106 -39zM852 625q-43 0 -82 28l14 15q36 -25 68 -25q34 0 66 25l14 -15q-36 -28 -80 -28zM698 950l-14 15q73 63 168 63q98 0 168 -61l-14 -17q-68 58 -154 58q-87 0 -154 -58zM655 997l-14 17q91 78 211 78
q119 0 209 -80l-12 -15q-83 74 -197 74q-110 0 -197 -74zM1249 1223q-166 153 -397 153q-227 0 -397 -151l-15 14q179 158 412 158t412 -158zM352 1339l-14 17q104 95 236 146.5t278 51.5q145 0 278 -52t238 -146l-14 -17q-102 93 -231 144t-271 51t-270 -51t-230 -144z
M1057 594l-15 14q52 69 52 152t-54 153l17 15q57 -72 57 -168q0 -97 -57 -166z" />
    <glyph glyph-name="registered" unicode="&#xae;" horiz-adv-x="1075" 
d="M537 -16q-79 0 -142.5 11.5t-112.5 37t-85.5 59t-62.5 85t-42.5 108t-26 134.5t-13 157.5t-3.5 183.5t3.5 183t13 157.5t26 135t42 108t62 85.5t85.5 60t112.5 37.5t143.5 11.5q92 0 162.5 -16.5t122.5 -46t88.5 -80.5t59.5 -109.5t36 -144.5t17.5 -173.5t4.5 -207.5
t-4.5 -208t-17.5 -173.5t-36 -144t-59.5 -109t-88.5 -79.5t-122.5 -45.5t-162.5 -16.5zM537 90q64 0 114.5 10t89 32t67 51t48 74.5t32 93t19 116t9 135.5t2.5 158t-2.5 158t-9 135.5t-19 116t-32 93t-48 74.5t-67 51t-89 32t-114.5 10q-84 0 -145.5 -17.5t-103 -57.5
t-67 -90.5t-39 -132.5t-18 -165.5t-4.5 -206.5q0 -91 2.5 -158t9 -135.5t19 -116.5t32 -93t47.5 -74t66 -51t88 -32t113 -10zM625 305l-101 326h-57v-326h-174v909h246q157 0 213.5 -63t56.5 -219q0 -97 -26.5 -162.5t-92.5 -101.5l115 -363h-180zM467 788h61
q64 0 85.5 25.5t21.5 110.5t-21 109t-86 24h-61v-269z" />
    <glyph glyph-name="macron" unicode="&#xaf;" 
d="M164 1249l35 244h602l-33 -244h-604z" />
    <glyph glyph-name="macron" unicode="&#x2c9;" 
d="M164 1249l35 244h602l-33 -244h-604z" />
    <glyph glyph-name="degree" unicode="&#xb0;" horiz-adv-x="776" 
d="M377 553q-89 0 -150 21t-93.5 63t-46 93.5t-13.5 121.5q0 100 18 217q9 68 18 116t24 100.5t33.5 87.5t47 68.5t65 52.5t86.5 30.5t113 11.5q88 0 149 -21.5t94 -62.5t46.5 -92.5t13.5 -120.5q0 -59 -20 -219q-10 -70 -18.5 -116.5t-23.5 -100t-33 -87.5t-46.5 -68
t-64.5 -53t-86 -30.5t-113 -11.5zM387 750q71 0 95.5 52t47.5 222q19 144 19 180q0 57 -19.5 82t-66.5 25q-71 0 -95 -52t-49 -221q-18 -137 -18 -182q0 -57 19.5 -81.5t66.5 -24.5z" />
    <glyph glyph-name="plusminus" unicode="&#xb1;" horiz-adv-x="1523" 
d="M483 -311l172 1222h-200l-170 -1222h-277l170 1222h-141l37 248h139l14 98q23 168 110.5 239t274.5 71q44 0 68 -4l-33 -242h-51q-50 0 -69.5 -18.5t-26.5 -75.5l-11 -68h201l15 98q23 169 109.5 239.5t275.5 70.5q31 0 55 -4l-35 -242h-37q-51 0 -69.5 -18.5
t-26.5 -75.5l-10 -68h123l-35 -248h-123l-172 -1222h-277zM1317 -4q-183 0 -240.5 64.5t-32.5 246.5l177 1256h278l-172 -1225q-9 -60 1.5 -76t66.5 -16h12l-35 -246q-16 -4 -55 -4z" />
    <glyph glyph-name="twosuperior" unicode="&#xb2;" horiz-adv-x="722" 
d="M57 524l29 195l324 424q34 44 43.5 69.5t9.5 57.5q0 30 -20.5 43.5t-71.5 13.5q-57 0 -131 -22l-58 192q104 33 244 33t206 -52t66 -145q0 -74 -20.5 -133t-75.5 -131l-268 -350h274l-26 -195h-525z" />
    <glyph glyph-name="threesuperior" unicode="&#xb3;" horiz-adv-x="700" 
d="M334 518q-193 0 -293 51l106 185q79 -41 144 -41q52 0 71 22.5t31 95.5q4 46 4 58q0 43 -29 56t-122 13h-37l24 187h76q75 0 97.5 15t31.5 75q2 14 2 41q0 30 -17 41.5t-67 11.5q-71 0 -123 -16l-57 188q81 29 223 29q150 0 211.5 -47.5t61.5 -143.5q0 -35 -6 -73
q-12 -90 -32.5 -129t-70.5 -62q66 -32 66 -131q0 -40 -15 -143q-23 -152 -88 -217.5t-192 -65.5z" />
    <glyph glyph-name="acute" unicode="&#xb4;" 
d="M303 1249l203 340h319l-280 -340h-242z" />
    <glyph glyph-name="mu" unicode="&#xb5;" horiz-adv-x="903" 
d="M-80 -311l207 1470h276l-106 -749q-13 -93 4 -132.5t86 -39.5q64 0 89.5 37t39.5 137l105 747h274l-113 -788q-27 -191 -119 -283t-272 -92q-100 0 -147 47l-47 -354h-277z" />
    <glyph glyph-name="mu" unicode="&#x3bc;" horiz-adv-x="903" 
d="M-80 -311l207 1470h276l-106 -749q-13 -93 4 -132.5t86 -39.5q64 0 89.5 37t39.5 137l105 747h274l-113 -788q-27 -191 -119 -283t-272 -92q-100 0 -147 47l-47 -354h-277z" />
    <glyph glyph-name="paragraph" unicode="&#xb6;" horiz-adv-x="946" 
d="M147 0l78 569q-143 77 -143 301q0 61 14 168q19 138 50 226.5t87.5 147t137.5 82.5t202 24h373l-213 -1518h-260l72 520h-66l-71 -520h-261zM518 760h62l69 502h-98q-63 0 -97.5 -18t-57.5 -70.5t-38 -157.5q-10 -68 -10 -107q0 -85 38 -117t132 -32z" />
    <glyph glyph-name="periodcentered" unicode="&#xb7;" horiz-adv-x="452" 
d="M45 573l49 353h309l-49 -353h-309z" />
    <glyph glyph-name="periodcentered" unicode="&#x2219;" horiz-adv-x="452" 
d="M45 573l49 353h309l-49 -353h-309z" />
    <glyph glyph-name="cedilla" unicode="&#xb8;" 
d="M246 -475q-117 0 -209 53l82 137q69 -32 119 -32q49 0 67.5 18t18.5 66q0 37 -27 47t-78 8l-39 37l60 186h151l-43 -139q69 2 108.5 -26.5t39.5 -104.5q0 -143 -62 -196.5t-188 -53.5z" />
    <glyph glyph-name="onesuperior" unicode="&#xb9;" horiz-adv-x="579" 
d="M162 524l110 787h-108l29 207h350l-142 -994h-239z" />
    <glyph glyph-name="ordmasculine" unicode="&#xba;" horiz-adv-x="811" 
d="M395 575q-293 0 -293 297q0 80 17 199q12 89 28 154.5t44.5 127t68 99.5t99.5 61t139 23q293 0 293 -297q0 -81 -19 -201q-10 -73 -22 -128.5t-31.5 -111t-47 -94t-66 -69t-91 -45.5t-119.5 -15zM408 778q67 0 89.5 49.5t47.5 214.5q18 137 18 175q0 54 -18.5 78
t-63.5 24q-67 0 -90 -51t-45 -215q-18 -114 -18 -174q0 -52 18.5 -76.5t61.5 -24.5zM45 276l29 201h581l-28 -201h-582z" />
    <glyph glyph-name="guillemotright" unicode="&#xbb;" horiz-adv-x="1085" 
d="M20 0l269 580l-105 579h246l119 -579l-283 -580h-246zM438 0l269 580l-105 579h244l121 -579l-285 -580h-244z" />
    <glyph glyph-name="onequarter" unicode="&#xbc;" horiz-adv-x="1443" 
d="M188 0l760 1518h232l-760 -1518h-232zM692 162l27 184l352 647h225l-344 -635h92l78 197h162l-29 -197h88l-28 -196h-86l-23 -162h-217l23 162h-320zM125 524l111 787h-111l31 207h348l-139 -994h-240z" />
    <glyph glyph-name="onehalf" unicode="&#xbd;" horiz-adv-x="1533" 
d="M188 0l760 1518h232l-760 -1518h-232zM125 524l111 787h-111l31 207h348l-139 -994h-240zM827 0l29 195l324 423q34 44 43.5 69.5t9.5 57.5q0 30 -20.5 44t-71.5 14q-54 0 -131 -23l-58 193q104 33 244 33t206 -52t66 -145q0 -74 -20.5 -133t-75.5 -131l-268 -350h274
l-26 -195h-525z" />
    <glyph glyph-name="threequarters" unicode="&#xbe;" horiz-adv-x="1562" 
d="M305 0l760 1518h233l-759 -1518h-234zM319 518q-192 0 -292 51l106 185q79 -41 143 -41q52 0 71.5 22.5t31.5 95.5q4 46 4 58q0 43 -29.5 56t-122.5 13h-36l24 187h76q75 0 97.5 15t31.5 75q2 14 2 41q0 30 -17 41.5t-67 11.5q-71 0 -123 -16l-57 188q81 29 223 29
q150 0 211 -47.5t61 -143.5q0 -35 -6 -73q-12 -90 -32 -129t-70 -62q65 -32 65 -131q0 -47 -14 -143q-23 -152 -88 -217.5t-193 -65.5zM811 162l27 184l350 647h227l-344 -635h92l78 197h162l-29 -197h88l-28 -196h-88l-23 -162h-217l24 162h-319z" />
    <glyph glyph-name="questiondown" unicode="&#xbf;" horiz-adv-x="907" 
d="M391 -18q-98 0 -170.5 25t-112.5 69t-58.5 95.5t-18.5 111.5q0 88 30.5 161.5t92.5 147.5l120 145q60 71 79 126.5t40 205.5h271q-28 -178 -55 -259t-101 -167l-135 -158q-54 -62 -54 -139q0 -46 29.5 -75t93.5 -29q102 0 207 30l92 -239q-132 -51 -350 -51zM393 1208
l43 310h309l-43 -310h-309z" />
    <glyph glyph-name="Agrave" unicode="&#xc0;" horiz-adv-x="1021" 
d="M-92 0l551 1522h313l133 -1522h-299l-16 229h-318l-77 -229h-287zM358 487h211l-18 334l-12 217l-68 -215zM527 1577l-185 340h322l106 -340h-243z" />
    <glyph glyph-name="Aacute" unicode="&#xc1;" horiz-adv-x="1021" 
d="M-92 0l551 1522h313l133 -1522h-299l-16 229h-318l-77 -229h-287zM358 487h211l-18 334l-12 217l-68 -215zM463 1577l203 340h319l-280 -340h-242z" />
    <glyph glyph-name="Acircumflex" unicode="&#xc2;" horiz-adv-x="1021" 
d="M-92 0l551 1522h313l133 -1522h-299l-16 229h-318l-77 -229h-287zM358 487h211l-18 334l-12 217l-68 -215zM275 1577l256 340h280l160 -340h-238l-86 156l-129 -156h-243z" />
    <glyph glyph-name="Atilde" unicode="&#xc3;" horiz-adv-x="1021" 
d="M-92 0l551 1522h313l133 -1522h-299l-16 229h-318l-77 -229h-287zM358 487h211l-18 334l-12 217l-68 -215zM492 1567l-209 35q16 69 34 115t47 82t71.5 52.5t101.5 16.5q46 0 112 -31.5t80 -31.5q27 0 40.5 14.5t25.5 58.5l207 -34q-15 -68 -33 -114.5t-47 -82.5
t-71.5 -53t-100.5 -17q-47 0 -113.5 32t-79.5 32q-27 0 -40 -14.5t-25 -59.5z" />
    <glyph glyph-name="Adieresis" unicode="&#xc4;" horiz-adv-x="1021" 
d="M-92 0l551 1522h313l133 -1522h-299l-16 229h-318l-77 -229h-287zM358 487h211l-18 334l-12 217l-68 -215zM340 1577l37 262h240l-37 -262h-240zM674 1577l37 262h240l-39 -262h-238z" />
    <glyph glyph-name="Aring" unicode="&#xc5;" horiz-adv-x="1021" 
d="M-92 0l528 1458q-31 45 -28 125q0 22 4 72q16 121 66 181t161 60t156 -51t45 -143q0 -38 -6 -76q-13 -108 -58 -164l129 -1462h-299l-16 229h-318l-77 -229h-287zM358 487h211l-18 334l-12 217l-68 -215zM610 1524q44 0 61 25.5t25 86.5q4 36 4 52q0 75 -65 75
q-44 0 -62 -27.5t-26 -90.5q-4 -32 -4 -46q0 -38 15.5 -56.5t51.5 -18.5z" />
    <glyph glyph-name="AE" unicode="&#xc6;" horiz-adv-x="1398" 
d="M-125 0l698 1518h904l-37 -267h-445l-49 -350h422l-37 -264h-422l-53 -377h444l-36 -260h-715l45 317h-285l-141 -317h-293zM416 559h211l96 682z" />
    <glyph glyph-name="Ccedilla" unicode="&#xc7;" horiz-adv-x="825" 
d="M262 -475q-117 0 -209 53l82 137q69 -32 119 -32q49 0 67.5 18t18.5 66q0 37 -26.5 47t-77.5 8l-39 37l51 161q-236 84 -236 414q0 118 33 344q14 102 28.5 181t34.5 154t43 131t53.5 105.5t68 82.5t84.5 57.5t104.5 35.5t126.5 11q185 0 307 -51l-113 -266
q-82 38 -192 38q-41 0 -69.5 -7.5t-53 -30.5t-40.5 -55t-32.5 -92t-28.5 -130.5t-28 -179.5q-31 -209 -31 -311q0 -108 38 -150.5t134 -42.5q75 0 154 29l84 -242q-123 -55 -273 -55q-9 0 -27 1t-26 1l-26 -86q69 2 108 -26.5t39 -104.5q0 -143 -62 -196.5t-188 -53.5z" />
    <glyph glyph-name="Egrave" unicode="&#xc8;" horiz-adv-x="876" 
d="M-18 0l213 1518h731l-37 -267h-445l-49 -350h424l-37 -264h-424l-55 -377h445l-35 -260h-731zM455 1577l-185 340h322l106 -340h-243z" />
    <glyph glyph-name="Eacute" unicode="&#xc9;" horiz-adv-x="876" 
d="M391 1577l203 340h319l-280 -340h-242zM-18 0l213 1518h731l-37 -267h-445l-49 -350h424l-37 -264h-424l-55 -377h445l-35 -260h-731z" />
    <glyph glyph-name="Ecircumflex" unicode="&#xca;" horiz-adv-x="876" 
d="M203 1577l256 340h280l160 -340h-237l-87 156l-129 -156h-243zM-18 0l213 1518h731l-37 -267h-445l-49 -350h424l-37 -264h-424l-55 -377h445l-35 -260h-731z" />
    <glyph glyph-name="Edieresis" unicode="&#xcb;" horiz-adv-x="876" 
d="M268 1577l37 262h240l-37 -262h-240zM602 1577l37 262h240l-39 -262h-238zM-18 0l213 1518h731l-37 -267h-445l-49 -350h424l-37 -264h-424l-55 -377h445l-35 -260h-731z" />
    <glyph glyph-name="Igrave" unicode="&#xcc;" horiz-adv-x="491" 
d="M242 1579l-158 340h322l79 -340h-243zM-4 0l213 1518h287l-213 -1518h-287z" />
    <glyph glyph-name="Iacute" unicode="&#xcd;" horiz-adv-x="491" 
d="M229 1579l179 340h319l-256 -340h-242zM-4 0l213 1518h287l-213 -1518h-287z" />
    <glyph glyph-name="Icircumflex" unicode="&#xce;" horiz-adv-x="491" 
d="M-4 0l213 1518h287l-213 -1518h-287zM11 1577l256 340h280l160 -340h-238l-86 156l-129 -156h-243z" />
    <glyph glyph-name="Idieresis" unicode="&#xcf;" horiz-adv-x="491" 
d="M-4 0l213 1518h287l-213 -1518h-287zM76 1577l37 262h240l-37 -262h-240zM410 1577l37 262h240l-39 -262h-238z" />
    <glyph glyph-name="Eth" unicode="&#xd0;" horiz-adv-x="1024" 
d="M-16 641l34 242h86l91 635h331q140 0 236 -29.5t149.5 -88t76 -134.5t22.5 -181t-33 -356q-14 -101 -26.5 -171.5t-30 -146.5t-38.5 -126.5t-50.5 -101t-66.5 -81.5t-86 -56t-110.5 -35.5t-138.5 -10.5h-450l90 641h-86zM303 250h121q34 0 59.5 4t47.5 16.5t37.5 28
t30 46.5t24 63t20.5 87t19.5 109.5t19.5 138.5q33 226 33 316q0 110 -44 154t-161 44h-66l-53 -374h144l-35 -242h-142z" />
    <glyph glyph-name="Ntilde" unicode="&#xd1;" horiz-adv-x="1046" 
d="M-18 0l213 1518h294l138 -553l55 -256l115 809h268l-213 -1518h-260l-166 639l-53 240l-125 -879h-266zM504 1567l-209 35q16 69 34 115t47 82t71.5 52.5t101.5 16.5q46 0 112 -31.5t80 -31.5q27 0 40.5 14.5t25.5 58.5l207 -34q-15 -68 -33 -114.5t-47 -82.5t-71.5 -53
t-100.5 -17q-47 0 -113.5 32t-79.5 32q-27 0 -40 -14.5t-25 -59.5z" />
    <glyph glyph-name="Ograve" unicode="&#xd2;" horiz-adv-x="1054" 
d="M451 -10q-439 0 -439 446q0 96 35 355q11 83 22 146.5t26.5 131.5t33.5 118.5t42.5 101.5t54 87t68 68t85 51t104 30t125.5 11q434 0 434 -444q0 -99 -36 -361q-13 -92 -25.5 -162t-31 -143.5t-41 -127.5t-52.5 -106t-69 -87t-88 -62t-111 -40t-137 -13zM471 254
q47 0 79.5 15t56 44t42 91.5t32.5 136.5t32 200q32 222 32 322q0 105 -36 151t-125 46q-40 0 -69 -8.5t-53 -33.5t-40 -58t-31 -93.5t-26.5 -127t-26.5 -171.5q-33 -251 -33 -317q0 -106 37 -151.5t129 -45.5zM541 1577l-185 340h322l106 -340h-243z" />
    <glyph glyph-name="Oacute" unicode="&#xd3;" horiz-adv-x="1054" 
d="M477 1577l203 340h319l-280 -340h-242zM451 -10q-439 0 -439 446q0 96 35 355q11 83 22 146.5t26.5 131.5t33.5 118.5t42.5 101.5t54 87t68 68t85 51t104 30t125.5 11q434 0 434 -444q0 -99 -36 -361q-13 -92 -25.5 -162t-31 -143.5t-41 -127.5t-52.5 -106t-69 -87
t-88 -62t-111 -40t-137 -13zM471 254q47 0 79.5 15t56 44t42 91.5t32.5 136.5t32 200q32 222 32 322q0 105 -36 151t-125 46q-40 0 -69 -8.5t-53 -33.5t-40 -58t-31 -93.5t-26.5 -127t-26.5 -171.5q-33 -251 -33 -317q0 -106 37 -151.5t129 -45.5z" />
    <glyph glyph-name="Ocircumflex" unicode="&#xd4;" horiz-adv-x="1054" 
d="M289 1577l256 340h280l160 -340h-237l-86 156l-130 -156h-243zM451 -10q-439 0 -439 446q0 96 35 355q11 83 22 146.5t26.5 131.5t33.5 118.5t42.5 101.5t54 87t68 68t85 51t104 30t125.5 11q434 0 434 -444q0 -99 -36 -361q-13 -92 -25.5 -162t-31 -143.5t-41 -127.5
t-52.5 -106t-69 -87t-88 -62t-111 -40t-137 -13zM471 254q47 0 79.5 15t56 44t42 91.5t32.5 136.5t32 200q32 222 32 322q0 105 -36 151t-125 46q-40 0 -69 -8.5t-53 -33.5t-40 -58t-31 -93.5t-26.5 -127t-26.5 -171.5q-33 -251 -33 -317q0 -106 37 -151.5t129 -45.5z" />
    <glyph glyph-name="Otilde" unicode="&#xd5;" horiz-adv-x="1054" 
d="M451 -10q-439 0 -439 446q0 96 35 355q11 83 22 146.5t26.5 131.5t33.5 118.5t42.5 101.5t54 87t68 68t85 51t104 30t125.5 11q434 0 434 -444q0 -99 -36 -361q-13 -92 -25.5 -162t-31 -143.5t-41 -127.5t-52.5 -106t-69 -87t-88 -62t-111 -40t-137 -13zM471 254
q47 0 79.5 15t56 44t42 91.5t32.5 136.5t32 200q32 222 32 322q0 105 -36 151t-125 46q-40 0 -69 -8.5t-53 -33.5t-40 -58t-31 -93.5t-26.5 -127t-26.5 -171.5q-33 -251 -33 -317q0 -106 37 -151.5t129 -45.5zM506 1567l-209 35q16 69 34 115t47 82t71.5 52.5t101.5 16.5
q46 0 112 -31.5t80 -31.5q27 0 40.5 14.5t25.5 58.5l207 -34q-15 -68 -33 -114.5t-47 -82.5t-71.5 -53t-100.5 -17q-47 0 -113.5 32t-79.5 32q-27 0 -40 -14.5t-25 -59.5z" />
    <glyph glyph-name="Odieresis" unicode="&#xd6;" horiz-adv-x="1054" 
d="M354 1577l37 262h240l-37 -262h-240zM688 1577l37 262h240l-39 -262h-238zM451 -10q-439 0 -439 446q0 96 35 355q11 83 22 146.5t26.5 131.5t33.5 118.5t42.5 101.5t54 87t68 68t85 51t104 30t125.5 11q434 0 434 -444q0 -99 -36 -361q-13 -92 -25.5 -162t-31 -143.5
t-41 -127.5t-52.5 -106t-69 -87t-88 -62t-111 -40t-137 -13zM471 254q47 0 79.5 15t56 44t42 91.5t32.5 136.5t32 200q32 222 32 322q0 105 -36 151t-125 46q-40 0 -69 -8.5t-53 -33.5t-40 -58t-31 -93.5t-26.5 -127t-26.5 -171.5q-33 -251 -33 -317q0 -106 37 -151.5
t129 -45.5z" />
    <glyph glyph-name="multiply" unicode="&#xd7;" horiz-adv-x="1011" 
d="M285 422l-133 151l198 175l-145 172l162 145l147 -174l207 180l131 -151l-207 -181l150 -172l-164 -145l-150 172z" />
    <glyph glyph-name="Oslash" unicode="&#xd8;" horiz-adv-x="1054" 
d="M451 -10q-43 0 -105 8l-31 -82h-215l58 154q-146 110 -146 366q0 96 35 355q11 83 22 146.5t26.5 131.5t33.5 118.5t42.5 101.5t54 87t68 68t85 51t104 30t125.5 11q39 0 97 -8l28 76h217l-55 -148q147 -108 147 -364q0 -99 -36 -361q-13 -92 -25.5 -162t-31 -143.5
t-41 -127.5t-52.5 -106t-69 -87t-88 -62t-111 -40t-137 -13zM467 233q41 0 70 9t53.5 34t41.5 59.5t33 95.5t28.5 132t27.5 178q35 250 35 334q0 8 -1 24.5t-1 24.5l-334 -888q21 -3 47 -3zM295 438v-45l330 883q-5 0 -17 1t-18 1q-42 0 -72 -9t-55.5 -34.5t-42.5 -60
t-33.5 -96t-29 -132t-27.5 -178.5q-4 -28 -10.5 -79t-10 -77t-7.5 -62t-5.5 -62.5t-1.5 -49.5z" />
    <glyph glyph-name="Ugrave" unicode="&#xd9;" horiz-adv-x="1042" 
d="M453 -18q-143 0 -235 33.5t-134.5 97t-53.5 156t9 210.5l145 1039h289l-143 -1026q-20 -131 6 -187.5t123 -56.5q90 0 127.5 52t58.5 196l143 1022h281l-145 -1039q-15 -107 -34.5 -180t-53.5 -137t-84 -101.5t-124 -58t-175 -20.5zM537 1577l-185 340h322l106 -340h-243
z" />
    <glyph glyph-name="Uacute" unicode="&#xda;" horiz-adv-x="1042" 
d="M473 1577l203 340h319l-280 -340h-242zM453 -18q-143 0 -235 33.5t-134.5 97t-53.5 156t9 210.5l145 1039h289l-143 -1026q-20 -131 6 -187.5t123 -56.5q90 0 127.5 52t58.5 196l143 1022h281l-145 -1039q-15 -107 -34.5 -180t-53.5 -137t-84 -101.5t-124 -58t-175 -20.5
z" />
    <glyph glyph-name="Ucircumflex" unicode="&#xdb;" horiz-adv-x="1042" 
d="M285 1577l256 340h280l160 -340h-238l-86 156l-129 -156h-243zM453 -18q-143 0 -235 33.5t-134.5 97t-53.5 156t9 210.5l145 1039h289l-143 -1026q-20 -131 6 -187.5t123 -56.5q90 0 127.5 52t58.5 196l143 1022h281l-145 -1039q-15 -107 -34.5 -180t-53.5 -137
t-84 -101.5t-124 -58t-175 -20.5z" />
    <glyph glyph-name="Udieresis" unicode="&#xdc;" horiz-adv-x="1042" 
d="M350 1577l37 262h240l-37 -262h-240zM684 1577l37 262h240l-39 -262h-238zM453 -18q-143 0 -235 33.5t-134.5 97t-53.5 156t9 210.5l145 1039h289l-143 -1026q-20 -131 6 -187.5t123 -56.5q90 0 127.5 52t58.5 196l143 1022h281l-145 -1039q-15 -107 -34.5 -180
t-53.5 -137t-84 -101.5t-124 -58t-175 -20.5z" />
    <glyph glyph-name="Yacute" unicode="&#xdd;" horiz-adv-x="980" 
d="M238 0l71 514l-213 1004h301l111 -623l289 623h299l-500 -1014l-72 -504h-286zM442 1577l203 340h319l-280 -340h-242z" />
    <glyph glyph-name="Thorn" unicode="&#xde;" horiz-adv-x="991" 
d="M-18 0l213 1518h282l-31 -226h78q125 0 210 -21t135.5 -66t72 -108t21.5 -153q0 -79 -15 -178q-20 -138 -51 -227t-86 -148.5t-134.5 -84.5t-197.5 -25h-174l-41 -281h-282zM340 535h145q59 0 92 18t56 70t37 153q10 82 10 117q0 82 -38.5 112.5t-133.5 30.5h-98z" />
    <glyph glyph-name="germandbls" unicode="&#xdf;" horiz-adv-x="927" 
d="M-80 -311l213 1513q27 194 124 288.5t290 94.5q195 0 276.5 -70.5t81.5 -216.5q0 -55 -10 -133q-27 -174 -54 -239t-100 -92q70 -24 97.5 -75.5t27.5 -142.5q0 -62 -18 -202q-15 -108 -40 -181.5t-58 -119.5t-84.5 -71t-108 -33.5t-141.5 -8.5h-101l33 246h66
q85 0 120.5 41t55.5 174q8 78 8 98q0 74 -31.5 97.5t-122.5 23.5h-16l33 231h39q68 0 97 41t44 156q8 52 8 98q0 65 -25 92t-89 27q-28 0 -49.5 -8.5t-34.5 -20.5t-22.5 -33t-14 -40t-8.5 -47l-209 -1487h-277z" />
    <glyph glyph-name="agrave" unicode="&#xe0;" horiz-adv-x="878" 
d="M256 -10q-150 0 -218.5 69t-70.5 203q0 48 10 123q14 99 38.5 167.5t59.5 114t89.5 70.5t120 35t159.5 10h68q7 64 -12.5 93.5t-87.5 29.5q-111 0 -193 -26l-84 247q119 48 338 48q203 0 274 -84t44 -265l-70 -503q-3 -27 -3 -44t12 -24.5t42 -7.5l-33 -246
q-20 -4 -116 -4q-65 0 -94 16t-42 51q-79 -73 -231 -73zM317 223q72 0 102 39t40 119l24 182q-58 0 -90.5 -3t-61.5 -11t-43 -26.5t-24.5 -46t-17.5 -73.5q-8 -47 -8 -90q0 -45 17 -67.5t62 -22.5zM410 1249l-185 340h322l106 -340h-243z" />
    <glyph glyph-name="aacute" unicode="&#xe1;" horiz-adv-x="878" 
d="M256 -10q-150 0 -218.5 69t-70.5 203q0 48 10 123q14 99 38.5 167.5t59.5 114t89.5 70.5t120 35t159.5 10h68q7 64 -12.5 93.5t-87.5 29.5q-111 0 -193 -26l-84 247q119 48 338 48q203 0 274 -84t44 -265l-70 -503q-3 -27 -3 -44t12 -24.5t42 -7.5l-33 -246
q-20 -4 -116 -4q-65 0 -94 16t-42 51q-79 -73 -231 -73zM317 223q72 0 102 39t40 119l24 182q-58 0 -90.5 -3t-61.5 -11t-43 -26.5t-24.5 -46t-17.5 -73.5q-8 -47 -8 -90q0 -45 17 -67.5t62 -22.5zM346 1249l203 340h319l-280 -340h-242z" />
    <glyph glyph-name="acircumflex" unicode="&#xe2;" horiz-adv-x="878" 
d="M256 -10q-150 0 -218.5 69t-70.5 203q0 48 10 123q14 99 38.5 167.5t59.5 114t89.5 70.5t120 35t159.5 10h68q7 64 -12.5 93.5t-87.5 29.5q-111 0 -193 -26l-84 247q119 48 338 48q203 0 274 -84t44 -265l-70 -503q-3 -27 -3 -44t12 -24.5t42 -7.5l-33 -246
q-20 -4 -116 -4q-65 0 -94 16t-42 51q-79 -73 -231 -73zM317 223q72 0 102 39t40 119l24 182q-58 0 -90.5 -3t-61.5 -11t-43 -26.5t-24.5 -46t-17.5 -73.5q-8 -47 -8 -90q0 -45 17 -67.5t62 -22.5zM158 1249l256 340h280l160 -340h-238l-86 156l-129 -156h-243z" />
    <glyph glyph-name="atilde" unicode="&#xe3;" horiz-adv-x="878" 
d="M256 -10q-150 0 -218.5 69t-70.5 203q0 48 10 123q14 99 38.5 167.5t59.5 114t89.5 70.5t120 35t159.5 10h68q7 64 -12.5 93.5t-87.5 29.5q-111 0 -193 -26l-84 247q119 48 338 48q203 0 274 -84t44 -265l-70 -503q-3 -27 -3 -44t12 -24.5t42 -7.5l-33 -246
q-20 -4 -116 -4q-65 0 -94 16t-42 51q-79 -73 -231 -73zM317 223q72 0 102 39t40 119l24 182q-58 0 -90.5 -3t-61.5 -11t-43 -26.5t-24.5 -46t-17.5 -73.5q-8 -47 -8 -90q0 -45 17 -67.5t62 -22.5zM375 1239l-209 35q16 69 34 115t47 82t71.5 52.5t101.5 16.5
q46 0 112 -31.5t80 -31.5q27 0 40.5 14.5t25.5 58.5l207 -34q-15 -68 -33 -114.5t-47 -82.5t-71.5 -53t-100.5 -17q-47 0 -113.5 32t-79.5 32q-27 0 -40 -14.5t-25 -59.5z" />
    <glyph glyph-name="adieresis" unicode="&#xe4;" horiz-adv-x="878" 
d="M256 -10q-150 0 -218.5 69t-70.5 203q0 48 10 123q14 99 38.5 167.5t59.5 114t89.5 70.5t120 35t159.5 10h68q7 64 -12.5 93.5t-87.5 29.5q-111 0 -193 -26l-84 247q119 48 338 48q203 0 274 -84t44 -265l-70 -503q-3 -27 -3 -44t12 -24.5t42 -7.5l-33 -246
q-20 -4 -116 -4q-65 0 -94 16t-42 51q-79 -73 -231 -73zM317 223q72 0 102 39t40 119l24 182q-58 0 -90.5 -3t-61.5 -11t-43 -26.5t-24.5 -46t-17.5 -73.5q-8 -47 -8 -90q0 -45 17 -67.5t62 -22.5zM223 1249l37 262h240l-37 -262h-240zM557 1249l37 262h240l-39 -262h-238z
" />
    <glyph glyph-name="aring" unicode="&#xe5;" horiz-adv-x="878" 
d="M256 -10q-150 0 -218.5 69t-70.5 203q0 48 10 123q14 99 38.5 167.5t59.5 114t89.5 70.5t120 35t159.5 10h68q7 64 -12.5 93.5t-87.5 29.5q-111 0 -193 -26l-84 247q119 48 338 48q203 0 274 -84t44 -265l-70 -503q-3 -27 -3 -44t12 -24.5t42 -7.5l-33 -246
q-20 -4 -116 -4q-65 0 -94 16t-42 51q-79 -73 -231 -73zM317 223q72 0 102 39t40 119l24 182q-58 0 -90.5 -3t-61.5 -11t-43 -26.5t-24.5 -46t-17.5 -73.5q-8 -47 -8 -90q0 -45 17 -67.5t62 -22.5zM516 1237q-107 0 -149.5 49t-40.5 139q0 22 4 72q16 121 66 181.5t161 60.5
t156 -51.5t45 -143.5q0 -38 -6 -76q-15 -116 -66.5 -173.5t-169.5 -57.5zM528 1366q44 0 61 25.5t25 87.5q4 36 4 51q0 76 -65 76q-44 0 -62 -28t-26 -91q-4 -32 -4 -45q0 -76 67 -76z" />
    <glyph glyph-name="ae" unicode="&#xe6;" horiz-adv-x="1294" 
d="M825 -10q-188 0 -264 98q-55 -60 -121.5 -79t-183.5 -19q-150 0 -218.5 69t-70.5 203q0 48 10 123q14 99 38.5 167.5t59.5 114t89.5 70.5t120 35t159.5 10h68q7 64 -12.5 93.5t-87.5 29.5q-111 0 -193 -26l-84 247q119 48 338 48q168 0 236 -62q80 62 219 62
q179 0 255.5 -79t76.5 -241q0 -115 -50 -399h-479q-6 -59 -6 -95q0 -75 29.5 -101t107.5 -26q125 0 219 31l72 -227q-81 -27 -152.5 -37t-175.5 -10zM317 223q72 0 101.5 41.5t42.5 136.5l22 162q-58 0 -90 -3t-61 -11t-43.5 -26.5t-25 -46t-17.5 -73.5q-8 -47 -8 -90
q0 -45 17 -67.5t62 -22.5zM911 920q-66 0 -94.5 -47t-52.5 -187h229q15 114 15 135q0 56 -21 77.5t-76 21.5z" />
    <glyph glyph-name="ccedilla" unicode="&#xe7;" horiz-adv-x="669" 
d="M186 -475q-117 0 -209 53l82 137q69 -32 119 -32q49 0 67.5 18t18.5 66q0 37 -26.5 47t-77.5 8l-39 37l51 161q-180 76 -180 340q0 95 20 248q16 111 37 193.5t55.5 155t81 118t113.5 71t154 25.5q142 0 235 -38l-113 -252q-57 22 -116 22q-72 0 -103 -62.5t-59 -258.5
q-21 -158 -21 -209q0 -76 26 -104.5t89 -28.5q49 0 98 14l58 -236q-94 -26 -205 -26h-27l-26 -86q69 2 108 -26.5t39 -104.5q0 -143 -62 -196.5t-188 -53.5z" />
    <glyph glyph-name="egrave" unicode="&#xe8;" horiz-adv-x="825" 
d="M356 -10q-364 0 -364 375q0 93 20 243q22 148 53 248.5t83 174.5t128 108.5t183 34.5q179 0 255.5 -79t76.5 -241q0 -115 -50 -399h-477q-6 -59 -6 -95q0 -76 29 -102.5t106 -26.5q125 0 219 31l72 -225q-81 -27 -152.5 -37t-175.5 -10zM442 920q-66 0 -95.5 -48.5
t-53.5 -189.5h231q15 105 15 139q0 56 -21 77.5t-76 21.5zM383 1249l-185 340h322l106 -340h-243z" />
    <glyph glyph-name="eacute" unicode="&#xe9;" horiz-adv-x="825" 
d="M319 1249l203 340h320l-281 -340h-242zM356 -10q-364 0 -364 375q0 93 20 243q22 148 53 248.5t83 174.5t128 108.5t183 34.5q179 0 255.5 -79t76.5 -241q0 -115 -50 -399h-477q-6 -59 -6 -95q0 -76 29 -102.5t106 -26.5q125 0 219 31l72 -225q-81 -27 -152.5 -37
t-175.5 -10zM442 920q-66 0 -95.5 -48.5t-53.5 -189.5h231q15 105 15 139q0 56 -21 77.5t-76 21.5z" />
    <glyph glyph-name="ecircumflex" unicode="&#xea;" horiz-adv-x="825" 
d="M131 1249l256 340h281l159 -340h-237l-86 156l-129 -156h-244zM356 -10q-364 0 -364 375q0 93 20 243q22 148 53 248.5t83 174.5t128 108.5t183 34.5q179 0 255.5 -79t76.5 -241q0 -115 -50 -399h-477q-6 -59 -6 -95q0 -76 29 -102.5t106 -26.5q125 0 219 31l72 -225
q-81 -27 -152.5 -37t-175.5 -10zM442 920q-66 0 -95.5 -48.5t-53.5 -189.5h231q15 105 15 139q0 56 -21 77.5t-76 21.5z" />
    <glyph glyph-name="edieresis" unicode="&#xeb;" horiz-adv-x="825" 
d="M197 1249l36 262h240l-37 -262h-239zM530 1249l37 262h240l-39 -262h-238zM356 -10q-364 0 -364 375q0 93 20 243q22 148 53 248.5t83 174.5t128 108.5t183 34.5q179 0 255.5 -79t76.5 -241q0 -115 -50 -399h-477q-6 -59 -6 -95q0 -76 29 -102.5t106 -26.5q125 0 219 31
l72 -225q-81 -27 -152.5 -37t-175.5 -10zM442 920q-66 0 -95.5 -48.5t-53.5 -189.5h231q15 105 15 139q0 56 -21 77.5t-76 21.5z" />
    <glyph glyph-name="igrave" unicode="&#xec;" horiz-adv-x="436" 
d="M174 1249l-108 340h305l47 -340h-244zM-29 0l164 1159h279l-164 -1159h-279z" />
    <glyph glyph-name="iacute" unicode="&#xed;" horiz-adv-x="436" 
d="M158 1249l137 340h305l-199 -340h-243zM-29 0l164 1159h279l-164 -1159h-279z" />
    <glyph glyph-name="icircumflex" unicode="&#xee;" horiz-adv-x="436" 
d="M-45 1249l235 340h281l141 -340h-237l-68 156l-108 -156h-244zM-29 0l164 1159h279l-164 -1159h-279z" />
    <glyph glyph-name="idieresis" unicode="&#xef;" horiz-adv-x="436" 
d="M-2 1249l37 262h239l-36 -262h-240zM326 1249l36 262h240l-37 -262h-239zM-29 0l164 1159h279l-164 -1159h-279z" />
    <glyph glyph-name="eth" unicode="&#xf0;" horiz-adv-x="886" 
d="M412 1171l30 222l72 14q-11 30 -43 100l229 80q34 -55 64 -125l186 41l-30 -221l-95 -20q29 -142 29 -304q0 -163 -29 -376q-26 -163 -58.5 -269.5t-85.5 -182t-127.5 -108t-182.5 -32.5q-106 0 -181 26.5t-117.5 77t-61.5 114.5t-19 148q0 97 22 248q14 101 29 172
t43 142t66.5 114t98.5 69.5t140 26.5q154 0 205 -63q-5 47 -23 141zM377 240q25 0 43 5.5t32 14t25 30t19 40.5t15.5 59t13 73t14.5 95q22 141 22 209q0 67 -23 96t-83 29q-30 0 -50.5 -5.5t-37 -24.5t-26.5 -37.5t-20 -62t-16 -80.5t-16 -110q-21 -154 -21 -206
q0 -67 24 -96t85 -29z" />
    <glyph glyph-name="ntilde" unicode="&#xf1;" horiz-adv-x="911" 
d="M-35 0l160 1145l233 14l2 -55q67 70 240 70q77 0 130.5 -18.5t80.5 -51.5t41 -77.5t11.5 -96t-7.5 -107.5l-117 -823h-278l102 721q13 105 -2 144.5t-82 39.5q-66 0 -94 -38.5t-43 -153.5l-100 -713h-277zM391 1239l-209 35q16 69 34 115t47 82t71.5 52.5t101.5 16.5
q46 0 112 -31.5t80 -31.5q27 0 40.5 14.5t25.5 58.5l207 -34q-15 -68 -33 -114.5t-47 -82.5t-71.5 -53t-100.5 -17q-47 0 -113.5 32t-79.5 32q-27 0 -40 -14.5t-25 -59.5z" />
    <glyph glyph-name="ograve" unicode="&#xf2;" horiz-adv-x="886" 
d="M360 -10q-368 0 -368 372q0 97 20 244q13 91 28.5 160t40 137t58.5 114.5t80.5 83.5t110.5 55t145 18q369 0 369 -369q0 -75 -23 -248q-15 -110 -34.5 -189.5t-54 -155t-82.5 -121.5t-121 -73.5t-169 -27.5zM377 240q28 0 48 5.5t36 24t26 38.5t20 63t16.5 82t17.5 112
q20 131 20 211q0 70 -22.5 99.5t-81.5 29.5q-29 0 -49 -6t-36.5 -23.5t-27 -38t-20.5 -62t-16.5 -83t-16.5 -112.5q-23 -151 -23 -211q0 -69 24.5 -99t84.5 -30zM412 1249l-185 340h322l106 -340h-243z" />
    <glyph glyph-name="oacute" unicode="&#xf3;" horiz-adv-x="886" 
d="M348 1249l203 340h319l-280 -340h-242zM360 -10q-368 0 -368 372q0 97 20 244q13 91 28.5 160t40 137t58.5 114.5t80.5 83.5t110.5 55t145 18q369 0 369 -369q0 -75 -23 -248q-15 -110 -34.5 -189.5t-54 -155t-82.5 -121.5t-121 -73.5t-169 -27.5zM377 240q28 0 48 5.5
t36 24t26 38.5t20 63t16.5 82t17.5 112q20 131 20 211q0 70 -22.5 99.5t-81.5 29.5q-29 0 -49 -6t-36.5 -23.5t-27 -38t-20.5 -62t-16.5 -83t-16.5 -112.5q-23 -151 -23 -211q0 -69 24.5 -99t84.5 -30z" />
    <glyph glyph-name="ocircumflex" unicode="&#xf4;" horiz-adv-x="886" 
d="M160 1249l256 340h280l160 -340h-238l-86 156l-129 -156h-243zM360 -10q-368 0 -368 372q0 97 20 244q13 91 28.5 160t40 137t58.5 114.5t80.5 83.5t110.5 55t145 18q369 0 369 -369q0 -75 -23 -248q-15 -110 -34.5 -189.5t-54 -155t-82.5 -121.5t-121 -73.5t-169 -27.5z
M377 240q28 0 48 5.5t36 24t26 38.5t20 63t16.5 82t17.5 112q20 131 20 211q0 70 -22.5 99.5t-81.5 29.5q-29 0 -49 -6t-36.5 -23.5t-27 -38t-20.5 -62t-16.5 -83t-16.5 -112.5q-23 -151 -23 -211q0 -69 24.5 -99t84.5 -30z" />
    <glyph glyph-name="otilde" unicode="&#xf5;" horiz-adv-x="886" 
d="M360 -10q-368 0 -368 372q0 97 20 244q13 91 28.5 160t40 137t58.5 114.5t80.5 83.5t110.5 55t145 18q369 0 369 -369q0 -75 -23 -248q-15 -110 -34.5 -189.5t-54 -155t-82.5 -121.5t-121 -73.5t-169 -27.5zM377 240q28 0 48 5.5t36 24t26 38.5t20 63t16.5 82t17.5 112
q20 131 20 211q0 70 -22.5 99.5t-81.5 29.5q-29 0 -49 -6t-36.5 -23.5t-27 -38t-20.5 -62t-16.5 -83t-16.5 -112.5q-23 -151 -23 -211q0 -69 24.5 -99t84.5 -30zM377 1239l-209 35q16 69 34 115t47 82t71.5 52.5t101.5 16.5q46 0 112 -31.5t80 -31.5q27 0 40.5 14.5
t25.5 58.5l207 -34q-15 -68 -33 -114.5t-47 -82.5t-71.5 -53t-100.5 -17q-47 0 -113.5 32t-79.5 32q-27 0 -40 -14.5t-25 -59.5z" />
    <glyph glyph-name="odieresis" unicode="&#xf6;" horiz-adv-x="886" 
d="M225 1249l37 262h240l-37 -262h-240zM559 1249l37 262h240l-39 -262h-238zM360 -10q-368 0 -368 372q0 97 20 244q13 91 28.5 160t40 137t58.5 114.5t80.5 83.5t110.5 55t145 18q369 0 369 -369q0 -75 -23 -248q-15 -110 -34.5 -189.5t-54 -155t-82.5 -121.5t-121 -73.5
t-169 -27.5zM377 240q28 0 48 5.5t36 24t26 38.5t20 63t16.5 82t17.5 112q20 131 20 211q0 70 -22.5 99.5t-81.5 29.5q-29 0 -49 -6t-36.5 -23.5t-27 -38t-20.5 -62t-16.5 -83t-16.5 -112.5q-23 -151 -23 -211q0 -69 24.5 -99t84.5 -30z" />
    <glyph glyph-name="divide" unicode="&#xf7;" horiz-adv-x="1011" 
d="M299 256l35 246h272l-35 -246h-272zM98 614l39 265h770l-39 -265h-770zM401 987l35 248h273l-35 -248h-273z" />
    <glyph glyph-name="oslash" unicode="&#xf8;" horiz-adv-x="886" 
d="M360 -10q-34 0 -92 8l-35 -86h-192l63 151q-112 89 -112 299q0 97 20 244q13 91 28.5 160t40 137t58.5 114.5t80.5 83.5t110.5 55t145 18q27 0 92 -9l35 84h193l-64 -151q113 -91 113 -293q0 -75 -23 -248q-15 -110 -34.5 -189.5t-54 -155t-82.5 -121.5t-121 -73.5
t-169 -27.5zM375 227q35 0 59 11t41 31.5t30.5 64.5t23 94t22.5 137q15 114 18 187l-221 -525h27zM281 580q-21 -156 -23 -185l221 520q-9 3 -20 3q-86 0 -117.5 -65.5t-60.5 -272.5z" />
    <glyph glyph-name="ugrave" unicode="&#xf9;" horiz-adv-x="899" 
d="M387 -10q-119 0 -199.5 27.5t-121.5 80t-54.5 128t2.5 171.5l109 762h276l-106 -749q-13 -91 5.5 -131.5t84.5 -40.5q61 0 88 38t41 136l104 747h273l-111 -788q-27 -192 -119 -286.5t-272 -94.5zM420 1249l-185 340h322l106 -340h-243z" />
    <glyph glyph-name="uacute" unicode="&#xfa;" horiz-adv-x="899" 
d="M356 1249l203 340h320l-281 -340h-242zM387 -10q-119 0 -199.5 27.5t-121.5 80t-54.5 128t2.5 171.5l109 762h276l-106 -749q-13 -91 5.5 -131.5t84.5 -40.5q61 0 88 38t41 136l104 747h273l-111 -788q-27 -192 -119 -286.5t-272 -94.5z" />
    <glyph glyph-name="ucircumflex" unicode="&#xfb;" horiz-adv-x="899" 
d="M168 1249l256 340h281l159 -340h-237l-86 156l-129 -156h-244zM387 -10q-119 0 -199.5 27.5t-121.5 80t-54.5 128t2.5 171.5l109 762h276l-106 -749q-13 -91 5.5 -131.5t84.5 -40.5q61 0 88 38t41 136l104 747h273l-111 -788q-27 -192 -119 -286.5t-272 -94.5z" />
    <glyph glyph-name="udieresis" unicode="&#xfc;" horiz-adv-x="899" 
d="M233 1249l37 262h240l-37 -262h-240zM567 1249l37 262h240l-39 -262h-238zM387 -10q-119 0 -199.5 27.5t-121.5 80t-54.5 128t2.5 171.5l109 762h276l-106 -749q-13 -91 5.5 -131.5t84.5 -40.5q61 0 88 38t41 136l104 747h273l-111 -788q-27 -192 -119 -286.5t-272 -94.5
z" />
    <glyph glyph-name="yacute" unicode="&#xfd;" horiz-adv-x="815" 
d="M35 -315q-82 0 -98 4l34 243h78q57 1 77.5 9.5t31.5 33.5l14 43l-117 1141h281l24 -411l13 -283l82 274l139 420h276l-479 -1237q-55 -142 -131.5 -189.5t-224.5 -47.5zM313 1249l203 340h319l-280 -340h-242z" />
    <glyph glyph-name="thorn" unicode="&#xfe;" horiz-adv-x="913" 
d="M-80 -311l262 1874h277l-66 -449q73 60 201 60q81 0 138 -23.5t87.5 -68.5t44 -99t13.5 -125q0 -80 -31 -299q-12 -84 -22 -143.5t-25.5 -123t-33.5 -106t-44 -82t-58 -62.5t-75 -36.5t-96 -13.5q-188 0 -242 69l-53 -372h-277zM406 240q73 0 102.5 62.5t54.5 256.5
q23 145 23 213q0 70 -23 101.5t-78 31.5q-25 0 -43.5 -5t-33 -13.5t-25.5 -29t-19 -40.5t-16 -60.5t-14 -76.5t-15 -100q-22 -172 -22 -213q0 -66 24.5 -96.5t84.5 -30.5z" />
    <glyph glyph-name="ydieresis" unicode="&#xff;" horiz-adv-x="815" 
d="M35 -315q-82 0 -98 4l34 243h78q57 1 77.5 9.5t31.5 33.5l14 43l-117 1141h281l24 -411l13 -283l82 274l139 420h276l-479 -1237q-55 -142 -131.5 -189.5t-224.5 -47.5zM190 1249l37 262h240l-37 -262h-240zM524 1249l37 262h240l-39 -262h-238z" />
    <glyph glyph-name="dotlessi" unicode="&#x131;" horiz-adv-x="436" 
d="M-29 0l164 1159h279l-164 -1159h-279z" />
    <glyph glyph-name="Lslash" unicode="&#x141;" horiz-adv-x="811" 
d="M-23 586l33 241l90 23l95 668h286l-84 -594l166 43l-35 -242l-166 -43l-59 -422h420l-37 -260h-704l84 608z" />
    <glyph glyph-name="lslash" unicode="&#x142;" horiz-adv-x="575" 
d="M0 760l35 244l127 67l69 492h279l-47 -332l145 78l-35 -244l-145 -78l-90 -649q-9 -60 1.5 -76t66.5 -16h12l-35 -246q-16 -4 -55 -4q-181 0 -239.5 64.5t-33.5 246.5l72 520z" />
    <glyph glyph-name="OE" unicode="&#x152;" horiz-adv-x="1490" 
d="M612 0v8q-85 -18 -161 -18q-439 0 -439 446q0 96 35 355q11 83 22 146.5t26.5 131.5t33.5 118.5t42.5 101.5t54 87t68 68t85 51t104 30t125.5 11q131 0 215 -35l2 17h713l-37 -267h-444l-49 -350h426l-39 -264h-424l-53 -377h444l-37 -260h-713zM471 254q47 0 79.5 15
t56 44t42 91.5t32.5 136.5t32 200q32 222 32 322q0 105 -36 151t-125 46q-40 0 -69 -8.5t-53 -33.5t-40 -58t-31 -93.5t-26.5 -127t-26.5 -171.5q-33 -251 -33 -317q0 -106 37 -151.5t129 -45.5z" />
    <glyph glyph-name="oe" unicode="&#x153;" horiz-adv-x="1345" 
d="M877 -10q-174 0 -254 86q-92 -86 -263 -86q-368 0 -368 372q0 97 20 244q13 91 28.5 160t40 137t58.5 114.5t80.5 83.5t110.5 55t145 18q174 0 254 -87q90 87 250 87q179 0 255.5 -79t76.5 -241q0 -121 -49 -399h-480q-6 -59 -6 -95q0 -76 30 -103.5t107 -27.5
q126 0 220 31l71 -223q-82 -27 -152.5 -37t-174.5 -10zM377 240q28 0 48 5.5t36 24t26 38.5t20 63t16.5 82t17.5 112q20 131 20 211q0 70 -22.5 99.5t-81.5 29.5q-29 0 -49 -6t-36.5 -23.5t-27 -38t-20.5 -62t-16.5 -83t-16.5 -112.5q-23 -151 -23 -211q0 -69 24.5 -99
t84.5 -30zM963 920q-68 0 -97 -49.5t-53 -196.5h231q15 114 15 147q0 56 -20.5 77.5t-75.5 21.5z" />
    <glyph glyph-name="Scaron" unicode="&#x160;" horiz-adv-x="866" 
d="M406 1577l-160 340h239l84 -158l131 158h244l-256 -340h-282zM319 -10q-228 0 -399 92l146 240q117 -70 258 -70q155 0 155 160q0 47 -33.5 103.5t-140.5 191.5q-104 133 -149 219t-45 192q0 89 25.5 163.5t77.5 131.5t137 89t196 32q109 0 178.5 -12t148.5 -43
l-116 -265q-98 46 -217 46q-62 0 -98.5 -36t-36.5 -100q0 -45 31 -97t122 -169q114 -147 161.5 -240t47.5 -204q0 -93 -25 -168t-77.5 -133.5t-140.5 -90.5t-206 -32z" />
    <glyph glyph-name="scaron" unicode="&#x161;" horiz-adv-x="747" 
d="M301 1249l-160 340h240l84 -157l131 157h244l-256 -340h-283zM268 -10q-184 0 -336 57l101 238q143 -54 250 -54q46 0 69 19t23 63q0 33 -25.5 68.5t-113.5 128.5q-85 89 -123.5 167.5t-38.5 160.5q0 157 90.5 247.5t279.5 90.5q161 0 265 -41l-93 -258q-93 34 -190 34
q-86 0 -86 -71q0 -28 23.5 -63.5t89.5 -104.5q105 -111 147.5 -188.5t42.5 -161.5q0 -332 -375 -332z" />
    <glyph glyph-name="Ydieresis" unicode="&#x178;" horiz-adv-x="980" 
d="M238 0l71 514l-213 1004h301l111 -623l289 623h299l-500 -1014l-72 -504h-286zM319 1577l37 262h240l-37 -262h-240zM653 1577l37 262h240l-39 -262h-238z" />
    <glyph glyph-name="Zcaron" unicode="&#x17d;" horiz-adv-x="872" 
d="M408 1577l-160 340h239l84 -158l131 158h244l-256 -340h-282zM-76 0l31 219l608 1032h-440l37 267h770l-35 -244l-598 -1014h471l-35 -260h-809z" />
    <glyph glyph-name="zcaron" unicode="&#x17e;" horiz-adv-x="702" 
d="M279 1249l-160 340h239l84 -157l131 157h244l-256 -340h-282zM-94 0l24 182l435 729h-310l35 248h643l-26 -186l-441 -744h350l-32 -229h-678z" />
    <glyph glyph-name="florin" unicode="&#x192;" horiz-adv-x="856" 
d="M76 676l30 233h150l41 291q13 88 32 142.5t58.5 97t104 60.5t163.5 18q19 0 58 -2.5t45 -2.5l-35 -249h-49q-59 0 -81 -29t-28 -100l-30 -226h217l-31 -233h-219l-137 -987h-277l135 987h-147z" />
    <glyph glyph-name="circumflex" unicode="&#x2c6;" 
d="M115 1249l256 340h280l160 -340h-238l-86 156l-129 -156h-243z" />
    <glyph glyph-name="caron" unicode="&#x2c7;" 
d="M324 1249l-160 340h239l84 -157l131 157h244l-256 -340h-282z" />
    <glyph glyph-name="breve" unicode="&#x2d8;" 
d="M487 1239q-93 0 -151.5 20.5t-88.5 66.5t-39 106t-5 153l196 14q-2 -84 15 -119.5t78 -35.5q60 0 85.5 33.5t45.5 121.5l196 -14q-26 -181 -104.5 -263.5t-227.5 -82.5z" />
    <glyph glyph-name="dotaccent" unicode="&#x2d9;" 
d="M326 1249l36 281h281l-39 -281h-278z" />
    <glyph glyph-name="ring" unicode="&#x2da;" 
d="M473 1237q-107 0 -149.5 49t-40.5 139q0 22 4 72q16 121 66 181.5t161 60.5t156 -51.5t45 -143.5q0 -38 -6 -76q-15 -116 -66.5 -173.5t-169.5 -57.5zM485 1366q44 0 61 25.5t25 87.5q4 36 4 51q0 76 -65 76q-44 0 -62 -28t-26 -91q-4 -32 -4 -45q0 -76 67 -76z" />
    <glyph glyph-name="ogonek" unicode="&#x2db;" 
d="M305 -428q-124 0 -177.5 39.5t-53.5 124.5q0 25 2.5 47t10 43.5t12.5 36.5t19.5 35t20 29.5t25 29t24.5 25t28 27t26 24.5h176q-92 -103 -117 -143q-37 -58 -37 -107q0 -55 60 -55h86l-23 -156h-82z" />
    <glyph glyph-name="tilde" unicode="&#x2dc;" 
d="M332 1239l-209 35q16 69 34 115t47 82t71.5 52.5t101.5 16.5q46 0 112 -31.5t80 -31.5q27 0 40.5 14.5t25.5 58.5l207 -34q-15 -68 -33 -114.5t-47 -82.5t-71.5 -53t-100.5 -17q-47 0 -113.5 32t-79.5 32q-27 0 -40 -14.5t-25 -59.5z" />
    <glyph glyph-name="hungarumlaut" unicode="&#x2dd;" 
d="M170 1249l168 355h266l-246 -355h-188zM522 1249l168 355h266l-245 -355h-189z" />
    <glyph glyph-name="Delta" unicode="&#x394;" horiz-adv-x="989" 
d="M37 911l37 248h139l14 98q23 168 110 239t275 71q32 0 56 -4l-33 -242h-39q-50 0 -69.5 -18.5t-26.5 -75.5l-11 -68h123l-34 -248h-123l-170 -1222h-277l170 1222h-141zM416 -311l33 241q45 0 58 17.5t21 79.5l160 1132h279l-164 -1163q-12 -82 -32.5 -137t-48 -89
t-75 -51.5t-99 -23.5t-132.5 -6zM702 1266l39 272h279l-39 -272h-279z" />
    <glyph glyph-name="Delta" unicode="&#x2206;" horiz-adv-x="989" 
d="M37 911l37 248h139l14 98q23 168 110 239t275 71q32 0 56 -4l-33 -242h-39q-50 0 -69.5 -18.5t-26.5 -75.5l-11 -68h123l-34 -248h-123l-170 -1222h-277l170 1222h-141zM416 -311l33 241q45 0 58 17.5t21 79.5l160 1132h279l-164 -1163q-12 -82 -32.5 -137t-48 -89
t-75 -51.5t-99 -23.5t-132.5 -6zM702 1266l39 272h279l-39 -272h-279z" />
    <glyph glyph-name="Omega" unicode="&#x3a9;" horiz-adv-x="1703" 
d="M258 246q-88 105 -136 237t-48 277q0 144 48 276t136 236q6 -4 14 -12q-85 -103 -131.5 -231.5t-46.5 -268.5q0 -285 180 -500zM467 432q-117 143 -117 328q0 183 115 327q3 -2 8 -7t8 -7q-110 -136 -110 -313q0 -182 110 -314zM541 498q-92 116 -92 262t92 262
q3 -2 8 -7t8 -7q-88 -109 -88 -248t88 -248q-3 -2 -8 -7t-8 -7zM647 592q-57 72 -57 168q0 97 57 166l15 -15q-52 -69 -52 -151q0 -84 54 -154q-3 -2 -8.5 -7t-8.5 -7zM715 655q-33 48 -33 105q0 56 33 104q3 -2 8 -7t8 -7q-29 -44 -29 -90t29 -90q-3 -2 -16 -15zM774 709
q-14 25 -14 51t14 51l12 -10q-10 -20 -10 -41t10 -41q-4 -4 -12 -10zM852 123q-236 0 -412 158l2.5 2.5l5 5l5.5 5.5t2 1q171 -152 397 -152q227 0 395 152q2 -3 7.5 -8t7.5 -8q-177 -156 -410 -156zM852 664q-31 0 -55 18l12 12q21 -14 43 -14q26 0 43 14q4 -4 10 -12
q-21 -18 -53 -18zM987 653q-7 10 -14 15q28 42 28 92q0 51 -28 90l2.5 2.5t5 4.5t5.5 5t1 2q35 -44 35 -104t-35 -107zM598 551q-72 91 -72 209q0 119 74 209l14 -15q-67 -87 -67 -194q0 -108 67 -195q-10 -10 -16 -14zM852 -35q-145 0 -278 52.5t-238 146.5l14 16
q102 -92 231 -143t271 -51q285 0 500 192q0 1 3.5 -2.5t6.5 -7.5l4 -4q-104 -95 -236 -147t-278 -52zM852 248q-189 0 -330 125l15 16q134 -121 315 -121q182 0 313 121q2 -3 7.5 -8t7.5 -8q-138 -125 -328 -125zM852 348q-145 0 -264 101l14 14q108 -94 250 -94
q143 0 248 94q2 -3 7 -8.5t7 -8.5q-112 -98 -262 -98zM852 428q-116 0 -211 78l14 16q86 -73 197 -73t197 73q4 -4 12 -16q-91 -78 -209 -78zM852 543q-77 0 -135 49l14 16q51 -45 121 -45q68 0 119 45q2 -3 7 -8t7 -8q-58 -49 -133 -49zM733 911q-4 3 -7 6.5t-6 6.5l-3 4
q58 49 135 49t135 -49l-16 -17q-51 45 -119 45t-119 -45zM1167 1130q-134 121 -315 121q-179 0 -313 -118l-15 14q141 125 328 125q189 0 330 -125q-4 -6 -15 -17zM930 709l-12 10q10 20 10 41t-10 41l12 10q14 -25 14 -51t-14 -51zM958 682q-10 10 -16 14q21 32 21 64
t-21 63l16 15q25 -36 25 -78t-25 -78zM1020 627q-6 4 -16 14q38 50 38 119t-38 119l14 14q45 -57 45 -133q0 -71 -43 -133zM1106 551q-3 2 -8 7t-8 7q67 87 67 195t-70 194l17 15q74 -90 74 -209q0 -118 -72 -209zM1163 498q-10 10 -16 14q88 109 88 248t-88 248l16 14
q92 -116 92 -262t-92 -262zM1237 432q-6 4 -16 14q112 134 112 314q0 182 -112 313l16 14q117 -139 117 -327q0 -189 -117 -328zM1329 350q-2 2 -7 6t-7 6q141 175 141 398q0 227 -143 395l16 14q148 -179 148 -409q0 -231 -148 -410zM1446 246q-6 6 -16 14q180 215 180 500
t-180 500l16 14q88 -105 136 -237t48 -277q0 -144 -48 -276t-136 -238zM375 348q-148 182 -148 412q0 229 146 409q2 -2 7.5 -6.5t8.5 -7.5q-141 -170 -141 -395q0 -228 141 -398zM684 627q-43 59 -43 133t43 133q6 -4 16 -14q-38 -50 -38 -119q0 -67 38 -117zM745 682
q-24 34 -24 78t24 78q2 -3 4.5 -5.5t6 -5.5t4.5 -4q-19 -34 -19 -63q0 -30 19 -64zM809 825l-10 13q21 18 53 18t53 -18l-10 -13q-23 15 -43 15q-25 0 -43 -15zM786 852l-14 14q37 29 80 29q41 0 78 -29q-8 -8 -12 -14q-28 25 -66 25q-34 0 -66 -25zM760 881l-15 16
q45 39 107 39q61 0 106 -39l-14 -16q-37 34 -92 34t-92 -34zM604 1057l-14 16q112 98 262 98q151 0 262 -100q1 0 -2 -3.5t-6 -7.5l-4 -3q-108 94 -250 94q-143 0 -248 -94zM852 492q-100 0 -170 61l14 16q70 -57 156 -57q87 0 154 57l14 -14q-73 -63 -168 -63zM852 584
q-61 0 -109 39l15 16q47 -35 94 -35q51 0 92 35l14 -16q-45 -39 -106 -39zM852 625q-43 0 -82 28l14 15q36 -25 68 -25q34 0 66 25l14 -15q-36 -28 -80 -28zM698 950l-14 15q73 63 168 63q98 0 168 -61l-14 -17q-68 58 -154 58q-87 0 -154 -58zM655 997l-14 17q91 78 211 78
q119 0 209 -80l-12 -15q-83 74 -197 74q-110 0 -197 -74zM1249 1223q-166 153 -397 153q-227 0 -397 -151l-15 14q179 158 412 158t412 -158zM352 1339l-14 17q104 95 236 146.5t278 51.5q145 0 278 -52t238 -146l-14 -17q-102 93 -231 144t-271 51t-270 -51t-230 -144z
M1057 594l-15 14q52 69 52 152t-54 153l17 15q57 -72 57 -168q0 -97 -57 -166z" />
    <glyph glyph-name="Omega" unicode="&#x2126;" horiz-adv-x="1703" 
d="M258 246q-88 105 -136 237t-48 277q0 144 48 276t136 236q6 -4 14 -12q-85 -103 -131.5 -231.5t-46.5 -268.5q0 -285 180 -500zM467 432q-117 143 -117 328q0 183 115 327q3 -2 8 -7t8 -7q-110 -136 -110 -313q0 -182 110 -314zM541 498q-92 116 -92 262t92 262
q3 -2 8 -7t8 -7q-88 -109 -88 -248t88 -248q-3 -2 -8 -7t-8 -7zM647 592q-57 72 -57 168q0 97 57 166l15 -15q-52 -69 -52 -151q0 -84 54 -154q-3 -2 -8.5 -7t-8.5 -7zM715 655q-33 48 -33 105q0 56 33 104q3 -2 8 -7t8 -7q-29 -44 -29 -90t29 -90q-3 -2 -16 -15zM774 709
q-14 25 -14 51t14 51l12 -10q-10 -20 -10 -41t10 -41q-4 -4 -12 -10zM852 123q-236 0 -412 158l2.5 2.5l5 5l5.5 5.5t2 1q171 -152 397 -152q227 0 395 152q2 -3 7.5 -8t7.5 -8q-177 -156 -410 -156zM852 664q-31 0 -55 18l12 12q21 -14 43 -14q26 0 43 14q4 -4 10 -12
q-21 -18 -53 -18zM987 653q-7 10 -14 15q28 42 28 92q0 51 -28 90l2.5 2.5t5 4.5t5.5 5t1 2q35 -44 35 -104t-35 -107zM598 551q-72 91 -72 209q0 119 74 209l14 -15q-67 -87 -67 -194q0 -108 67 -195q-10 -10 -16 -14zM852 -35q-145 0 -278 52.5t-238 146.5l14 16
q102 -92 231 -143t271 -51q285 0 500 192q0 1 3.5 -2.5t6.5 -7.5l4 -4q-104 -95 -236 -147t-278 -52zM852 248q-189 0 -330 125l15 16q134 -121 315 -121q182 0 313 121q2 -3 7.5 -8t7.5 -8q-138 -125 -328 -125zM852 348q-145 0 -264 101l14 14q108 -94 250 -94
q143 0 248 94q2 -3 7 -8.5t7 -8.5q-112 -98 -262 -98zM852 428q-116 0 -211 78l14 16q86 -73 197 -73t197 73q4 -4 12 -16q-91 -78 -209 -78zM852 543q-77 0 -135 49l14 16q51 -45 121 -45q68 0 119 45q2 -3 7 -8t7 -8q-58 -49 -133 -49zM733 911q-4 3 -7 6.5t-6 6.5l-3 4
q58 49 135 49t135 -49l-16 -17q-51 45 -119 45t-119 -45zM1167 1130q-134 121 -315 121q-179 0 -313 -118l-15 14q141 125 328 125q189 0 330 -125q-4 -6 -15 -17zM930 709l-12 10q10 20 10 41t-10 41l12 10q14 -25 14 -51t-14 -51zM958 682q-10 10 -16 14q21 32 21 64
t-21 63l16 15q25 -36 25 -78t-25 -78zM1020 627q-6 4 -16 14q38 50 38 119t-38 119l14 14q45 -57 45 -133q0 -71 -43 -133zM1106 551q-3 2 -8 7t-8 7q67 87 67 195t-70 194l17 15q74 -90 74 -209q0 -118 -72 -209zM1163 498q-10 10 -16 14q88 109 88 248t-88 248l16 14
q92 -116 92 -262t-92 -262zM1237 432q-6 4 -16 14q112 134 112 314q0 182 -112 313l16 14q117 -139 117 -327q0 -189 -117 -328zM1329 350q-2 2 -7 6t-7 6q141 175 141 398q0 227 -143 395l16 14q148 -179 148 -409q0 -231 -148 -410zM1446 246q-6 6 -16 14q180 215 180 500
t-180 500l16 14q88 -105 136 -237t48 -277q0 -144 -48 -276t-136 -238zM375 348q-148 182 -148 412q0 229 146 409q2 -2 7.5 -6.5t8.5 -7.5q-141 -170 -141 -395q0 -228 141 -398zM684 627q-43 59 -43 133t43 133q6 -4 16 -14q-38 -50 -38 -119q0 -67 38 -117zM745 682
q-24 34 -24 78t24 78q2 -3 4.5 -5.5t6 -5.5t4.5 -4q-19 -34 -19 -63q0 -30 19 -64zM809 825l-10 13q21 18 53 18t53 -18l-10 -13q-23 15 -43 15q-25 0 -43 -15zM786 852l-14 14q37 29 80 29q41 0 78 -29q-8 -8 -12 -14q-28 25 -66 25q-34 0 -66 -25zM760 881l-15 16
q45 39 107 39q61 0 106 -39l-14 -16q-37 34 -92 34t-92 -34zM604 1057l-14 16q112 98 262 98q151 0 262 -100q1 0 -2 -3.5t-6 -7.5l-4 -3q-108 94 -250 94q-143 0 -248 -94zM852 492q-100 0 -170 61l14 16q70 -57 156 -57q87 0 154 57l14 -14q-73 -63 -168 -63zM852 584
q-61 0 -109 39l15 16q47 -35 94 -35q51 0 92 35l14 -16q-45 -39 -106 -39zM852 625q-43 0 -82 28l14 15q36 -25 68 -25q34 0 66 25l14 -15q-36 -28 -80 -28zM698 950l-14 15q73 63 168 63q98 0 168 -61l-14 -17q-68 58 -154 58q-87 0 -154 -58zM655 997l-14 17q91 78 211 78
q119 0 209 -80l-12 -15q-83 74 -197 74q-110 0 -197 -74zM1249 1223q-166 153 -397 153q-227 0 -397 -151l-15 14q179 158 412 158t412 -158zM352 1339l-14 17q104 95 236 146.5t278 51.5q145 0 278 -52t238 -146l-14 -17q-102 93 -231 144t-271 51t-270 -51t-230 -144z
M1057 594l-15 14q52 69 52 152t-54 153l17 15q57 -72 57 -168q0 -97 -57 -166z" />
    <glyph glyph-name="pi" unicode="&#x3c0;" horiz-adv-x="1075" 
d="M537 -16q-79 0 -142.5 11.5t-112.5 37t-85.5 59t-62.5 85t-42.5 108t-26 134.5t-13 157.5t-3.5 183.5t3.5 183t13 157.5t26 135t42 108t62 85.5t85.5 60t112.5 37.5t143.5 11.5q92 0 162.5 -16.5t122.5 -46t88.5 -80.5t59.5 -109.5t36 -144.5t17.5 -173.5t4.5 -207.5
t-4.5 -208t-17.5 -173.5t-36 -144t-59.5 -109t-88.5 -79.5t-122.5 -45.5t-162.5 -16.5zM537 90q64 0 114.5 10t89 32t67 51t48 74.5t32 93t19 116t9 135.5t2.5 158t-2.5 158t-9 135.5t-19 116t-32 93t-48 74.5t-67 51t-89 32t-114.5 10q-84 0 -145.5 -17.5t-103 -57.5
t-67 -90.5t-39 -132.5t-18 -165.5t-4.5 -206.5q0 -91 2.5 -158t9 -135.5t19 -116.5t32 -93t47.5 -74t66 -51t88 -32t113 -10zM289 279v952h260q167 0 226 -70.5t59 -245.5q0 -88 -12.5 -144.5t-44.5 -97t-87 -58t-141 -17.5h-74v-319h-186zM475 756h72q65 0 83.5 30
t18.5 123q0 95 -18 124.5t-84 29.5h-72v-307z" />
    <glyph glyph-name="endash" unicode="&#x2013;" horiz-adv-x="1005" 
d="M18 553l37 264h910l-35 -264h-912z" />
    <glyph glyph-name="emdash" unicode="&#x2014;" horiz-adv-x="1302" 
d="M18 553l37 264h1209l-37 -264h-1209z" />
    <glyph glyph-name="quoteleft" unicode="&#x2018;" horiz-adv-x="452" 
d="M90 872l47 338q7 56 19.5 93.5t41 77t77 74t124.5 73.5l68 -139q-90 -55 -114 -81.5t-31 -84.5h127l-50 -351h-309z" />
    <glyph glyph-name="quoteright" unicode="&#x2019;" horiz-adv-x="452" 
d="M178 862l-65 139q90 55 114 81.5t31 84.5h-127l49 351h309l-47 -338q-14 -110 -66 -177t-198 -141z" />
    <glyph glyph-name="quotesinglbase" unicode="&#x201a;" horiz-adv-x="452" 
d="M16 -305l-67 139q89 54 112.5 81t30.5 85h-125l49 350h310l-47 -338q-11 -74 -32.5 -121.5t-76 -96t-154.5 -99.5z" />
    <glyph glyph-name="quotedblleft" unicode="&#x201c;" horiz-adv-x="831" 
d="M90 879l47 331q7 50 19 86t39.5 75.5t76.5 76.5t123 74l62 -131q-91 -56 -116 -82.5t-32 -83.5h129l-49 -346h-299zM475 879l47 331q8 50 20.5 86t40 75.5t76.5 76.5t123 74l64 -131q-92 -55 -116.5 -82t-31.5 -84h129l-49 -346h-303z" />
    <glyph glyph-name="quotedblright" unicode="&#x201d;" horiz-adv-x="831" 
d="M176 874l-63 134q91 54 115.5 80t33.5 83h-131l49 347h301l-45 -330q-7 -50 -20 -86.5t-40.5 -76t-76.5 -76.5t-123 -75zM563 874l-63 134q91 54 115.5 80t33.5 83h-129l47 347h301l-47 -330q-13 -102 -64.5 -171.5t-193.5 -142.5z" />
    <glyph glyph-name="quotedblbase" unicode="&#x201e;" horiz-adv-x="831" 
d="M10 -297l-61 131q91 56 115.5 82.5t31.5 83.5h-129l49 346h301l-47 -330q-13 -101 -65.5 -170.5t-194.5 -142.5zM399 -297l-63 131q91 55 115.5 82t31.5 84h-129l49 346h302l-48 -330q-15 -103 -66 -172t-192 -141z" />
    <glyph glyph-name="dagger" unicode="&#x2020;" horiz-adv-x="864" 
d="M141 -311l164 1167h-233l37 266h233l61 441h277l-62 -441h236l-39 -266h-233l-164 -1167h-277z" />
    <glyph glyph-name="daggerdbl" unicode="&#x2021;" horiz-adv-x="864" 
d="M141 -313l62 444h-234l39 266h232l65 459h-233l37 266h233l61 441h277l-62 -441h236l-39 -266h-233l-66 -459h236l-37 -266h-236l-61 -444h-277z" />
    <glyph glyph-name="bullet" unicode="&#x2022;" horiz-adv-x="579" 
d="M63 391l66 463h346l-65 -463h-347z" />
    <glyph glyph-name="ellipsis" unicode="&#x2026;" horiz-adv-x="1304" 
d="M-37 0l49 348h312l-52 -348h-309zM391 0l49 348h310l-50 -348h-309zM817 0l49 348h310l-50 -348h-309z" />
    <glyph glyph-name="perthousand" unicode="&#x2030;" horiz-adv-x="2457" 
d="M360 545q-154 0 -226.5 79t-72.5 220q0 63 19 215q9 68 18 116t24 101.5t33.5 89.5t46.5 70.5t63.5 55t84 32.5t109.5 12q146 0 223.5 -80t77.5 -223q0 -70 -21 -217q-9 -67 -18 -113.5t-23.5 -100t-33 -88.5t-46.5 -70t-63.5 -55t-84.5 -32t-110 -12zM373 760
q54 0 72 46t42 211q1 9 2 13q3 27 9.5 74.5t9 74t2.5 46.5q0 47 -14.5 66.5t-51.5 19.5q-58 0 -76 -47.5t-42 -221.5q-21 -150 -21 -192q0 -49 15.5 -69.5t52.5 -20.5zM1282 -10q-155 0 -228 79.5t-73 221.5q0 67 18 215q9 68 18 116t24 101.5t33.5 89t46.5 70t64 54.5
t85 32t110 12q146 0 222.5 -79.5t76.5 -221.5q0 -76 -20 -219q-8 -58 -15.5 -100t-19 -89.5t-26 -81t-35 -68t-46.5 -56.5t-60 -40.5t-78 -27t-97 -8.5zM1292 207q55 0 74.5 49t42.5 221q21 151 21 193q0 48 -15 68t-51 20q-56 0 -74 -45t-42 -206q-2 -13 -3 -20
q-20 -140 -20 -192q0 -49 15 -68.5t52 -19.5zM1999 -10q-154 0 -227.5 80t-73.5 221q0 67 18 215q9 67 18 116t24 101.5t34 88.5t47 70.5t64 54.5t84.5 32t109.5 12q146 0 223.5 -79.5t77.5 -221.5q0 -61 -22 -219q-8 -58 -15.5 -100t-19 -89.5t-26 -81t-35 -68t-46.5 -56.5
t-60 -40.5t-78 -27t-97 -8.5zM2009 207q55 0 74.5 49t42.5 221q22 158 22 193q0 48 -15 68t-52 20q-56 0 -74 -45t-42 -206q-2 -13 -3 -20q-20 -140 -20 -192q0 -49 15 -68.5t52 -19.5zM369 0l759 1518h240l-760 -1518h-239z" />
    <glyph glyph-name="guilsinglleft" unicode="&#x2039;" horiz-adv-x="677" 
d="M188 0l-122 578l286 581h254l-268 -581l104 -578h-254z" />
    <glyph glyph-name="guilsinglright" unicode="&#x203a;" horiz-adv-x="677" 
d="M20 0l267 580l-103 579h254l121 -579l-283 -580h-256z" />
    <glyph glyph-name="fraction" unicode="&#x2044;" horiz-adv-x="808" 
d="M-102 0l774 1518h250l-775 -1518h-249z" />
    <glyph glyph-name="fraction" unicode="&#x2215;" horiz-adv-x="808" 
d="M-102 0l774 1518h250l-775 -1518h-249z" />
    <glyph glyph-name="Euro" unicode="&#x20ac;" horiz-adv-x="923" 
d="M41 809l29 215h157q27 135 60.5 226t86 158t128 97.5t180.5 30.5q147 0 279 -49l-113 -246q-74 29 -174 29q-74 0 -108 -50t-60 -196h250l-31 -215h-252q-1 -6 -2 -18.5t-2 -18.5q-3 -14 -8 -53h252l-31 -215h-248q-4 -37 -4 -96q0 -88 28.5 -127t98.5 -39q77 0 150 24
l77 -231q-117 -45 -247 -45q-387 0 -387 399q0 72 4 115h-156l31 215h149q2 21 10 72q0 3 1 9t1 9h-149z" />
    <glyph glyph-name="trademark" unicode="&#x2122;" horiz-adv-x="1488" 
d="M614 518l142 1000h237l41 -596l209 596h238l-140 -1000h-192l80 567l-193 -567h-129l-30 569l-80 -569h-183zM182 518l115 809h-176l26 191h562l-27 -191h-180l-115 -809h-205z" />
    <glyph glyph-name="partialdiff" unicode="&#x2202;" horiz-adv-x="1703" 
d="M258 246q-88 105 -136 237t-48 277q0 144 48 276t136 236q6 -4 14 -12q-85 -103 -131.5 -231.5t-46.5 -268.5q0 -285 180 -500zM467 432q-117 143 -117 328q0 183 115 327q3 -2 8 -7t8 -7q-110 -136 -110 -313q0 -182 110 -314zM541 498q-92 116 -92 262t92 262
q3 -2 8 -7t8 -7q-88 -109 -88 -248t88 -248q-3 -2 -8 -7t-8 -7zM647 592q-57 72 -57 168q0 97 57 166l15 -15q-52 -69 -52 -151q0 -84 54 -154q-3 -2 -8.5 -7t-8.5 -7zM715 655q-33 48 -33 105q0 56 33 104q3 -2 8 -7t8 -7q-29 -44 -29 -90t29 -90q-3 -2 -16 -15zM774 709
q-14 25 -14 51t14 51l12 -10q-10 -20 -10 -41t10 -41q-4 -4 -12 -10zM852 123q-236 0 -412 158l2.5 2.5l5 5l5.5 5.5t2 1q171 -152 397 -152q227 0 395 152q2 -3 7.5 -8t7.5 -8q-177 -156 -410 -156zM852 664q-31 0 -55 18l12 12q21 -14 43 -14q26 0 43 14q4 -4 10 -12
q-21 -18 -53 -18zM987 653q-7 10 -14 15q28 42 28 92q0 51 -28 90l2.5 2.5t5 4.5t5.5 5t1 2q35 -44 35 -104t-35 -107zM598 551q-72 91 -72 209q0 119 74 209l14 -15q-67 -87 -67 -194q0 -108 67 -195q-10 -10 -16 -14zM852 -35q-145 0 -278 52.5t-238 146.5l14 16
q102 -92 231 -143t271 -51q285 0 500 192q0 1 3.5 -2.5t6.5 -7.5l4 -4q-104 -95 -236 -147t-278 -52zM852 248q-189 0 -330 125l15 16q134 -121 315 -121q182 0 313 121q2 -3 7.5 -8t7.5 -8q-138 -125 -328 -125zM852 348q-145 0 -264 101l14 14q108 -94 250 -94
q143 0 248 94q2 -3 7 -8.5t7 -8.5q-112 -98 -262 -98zM852 428q-116 0 -211 78l14 16q86 -73 197 -73t197 73q4 -4 12 -16q-91 -78 -209 -78zM852 543q-77 0 -135 49l14 16q51 -45 121 -45q68 0 119 45q2 -3 7 -8t7 -8q-58 -49 -133 -49zM733 911q-4 3 -7 6.5t-6 6.5l-3 4
q58 49 135 49t135 -49l-16 -17q-51 45 -119 45t-119 -45zM1167 1130q-134 121 -315 121q-179 0 -313 -118l-15 14q141 125 328 125q189 0 330 -125q-4 -6 -15 -17zM930 709l-12 10q10 20 10 41t-10 41l12 10q14 -25 14 -51t-14 -51zM958 682q-10 10 -16 14q21 32 21 64
t-21 63l16 15q25 -36 25 -78t-25 -78zM1020 627q-6 4 -16 14q38 50 38 119t-38 119l14 14q45 -57 45 -133q0 -71 -43 -133zM1106 551q-3 2 -8 7t-8 7q67 87 67 195t-70 194l17 15q74 -90 74 -209q0 -118 -72 -209zM1163 498q-10 10 -16 14q88 109 88 248t-88 248l16 14
q92 -116 92 -262t-92 -262zM1237 432q-6 4 -16 14q112 134 112 314q0 182 -112 313l16 14q117 -139 117 -327q0 -189 -117 -328zM1329 350q-2 2 -7 6t-7 6q141 175 141 398q0 227 -143 395l16 14q148 -179 148 -409q0 -231 -148 -410zM1446 246q-6 6 -16 14q180 215 180 500
t-180 500l16 14q88 -105 136 -237t48 -277q0 -144 -48 -276t-136 -238zM375 348q-148 182 -148 412q0 229 146 409q2 -2 7.5 -6.5t8.5 -7.5q-141 -170 -141 -395q0 -228 141 -398zM684 627q-43 59 -43 133t43 133q6 -4 16 -14q-38 -50 -38 -119q0 -67 38 -117zM745 682
q-24 34 -24 78t24 78q2 -3 4.5 -5.5t6 -5.5t4.5 -4q-19 -34 -19 -63q0 -30 19 -64zM809 825l-10 13q21 18 53 18t53 -18l-10 -13q-23 15 -43 15q-25 0 -43 -15zM786 852l-14 14q37 29 80 29q41 0 78 -29q-8 -8 -12 -14q-28 25 -66 25q-34 0 -66 -25zM760 881l-15 16
q45 39 107 39q61 0 106 -39l-14 -16q-37 34 -92 34t-92 -34zM604 1057l-14 16q112 98 262 98q151 0 262 -100q1 0 -2 -3.5t-6 -7.5l-4 -3q-108 94 -250 94q-143 0 -248 -94zM852 492q-100 0 -170 61l14 16q70 -57 156 -57q87 0 154 57l14 -14q-73 -63 -168 -63zM852 584
q-61 0 -109 39l15 16q47 -35 94 -35q51 0 92 35l14 -16q-45 -39 -106 -39zM852 625q-43 0 -82 28l14 15q36 -25 68 -25q34 0 66 25l14 -15q-36 -28 -80 -28zM698 950l-14 15q73 63 168 63q98 0 168 -61l-14 -17q-68 58 -154 58q-87 0 -154 -58zM655 997l-14 17q91 78 211 78
q119 0 209 -80l-12 -15q-83 74 -197 74q-110 0 -197 -74zM1249 1223q-166 153 -397 153q-227 0 -397 -151l-15 14q179 158 412 158t412 -158zM352 1339l-14 17q104 95 236 146.5t278 51.5q145 0 278 -52t238 -146l-14 -17q-102 93 -231 144t-271 51t-270 -51t-230 -144z
M1057 594l-15 14q52 69 52 152t-54 153l17 15q57 -72 57 -168q0 -97 -57 -166z" />
    <glyph glyph-name="product" unicode="&#x220f;" horiz-adv-x="1703" 
d="M258 246q-88 105 -136 237t-48 277q0 144 48 276t136 236q6 -4 14 -12q-85 -103 -131.5 -231.5t-46.5 -268.5q0 -285 180 -500zM467 432q-117 143 -117 328q0 183 115 327q3 -2 8 -7t8 -7q-110 -136 -110 -313q0 -182 110 -314zM541 498q-92 116 -92 262t92 262
q3 -2 8 -7t8 -7q-88 -109 -88 -248t88 -248q-3 -2 -8 -7t-8 -7zM647 592q-57 72 -57 168q0 97 57 166l15 -15q-52 -69 -52 -151q0 -84 54 -154q-3 -2 -8.5 -7t-8.5 -7zM715 655q-33 48 -33 105q0 56 33 104q3 -2 8 -7t8 -7q-29 -44 -29 -90t29 -90q-3 -2 -16 -15zM774 709
q-14 25 -14 51t14 51l12 -10q-10 -20 -10 -41t10 -41q-4 -4 -12 -10zM852 123q-236 0 -412 158l2.5 2.5l5 5l5.5 5.5t2 1q171 -152 397 -152q227 0 395 152q2 -3 7.5 -8t7.5 -8q-177 -156 -410 -156zM852 664q-31 0 -55 18l12 12q21 -14 43 -14q26 0 43 14q4 -4 10 -12
q-21 -18 -53 -18zM987 653q-7 10 -14 15q28 42 28 92q0 51 -28 90l2.5 2.5t5 4.5t5.5 5t1 2q35 -44 35 -104t-35 -107zM598 551q-72 91 -72 209q0 119 74 209l14 -15q-67 -87 -67 -194q0 -108 67 -195q-10 -10 -16 -14zM852 -35q-145 0 -278 52.5t-238 146.5l14 16
q102 -92 231 -143t271 -51q285 0 500 192q0 1 3.5 -2.5t6.5 -7.5l4 -4q-104 -95 -236 -147t-278 -52zM852 248q-189 0 -330 125l15 16q134 -121 315 -121q182 0 313 121q2 -3 7.5 -8t7.5 -8q-138 -125 -328 -125zM852 348q-145 0 -264 101l14 14q108 -94 250 -94
q143 0 248 94q2 -3 7 -8.5t7 -8.5q-112 -98 -262 -98zM852 428q-116 0 -211 78l14 16q86 -73 197 -73t197 73q4 -4 12 -16q-91 -78 -209 -78zM852 543q-77 0 -135 49l14 16q51 -45 121 -45q68 0 119 45q2 -3 7 -8t7 -8q-58 -49 -133 -49zM733 911q-4 3 -7 6.5t-6 6.5l-3 4
q58 49 135 49t135 -49l-16 -17q-51 45 -119 45t-119 -45zM1167 1130q-134 121 -315 121q-179 0 -313 -118l-15 14q141 125 328 125q189 0 330 -125q-4 -6 -15 -17zM930 709l-12 10q10 20 10 41t-10 41l12 10q14 -25 14 -51t-14 -51zM958 682q-10 10 -16 14q21 32 21 64
t-21 63l16 15q25 -36 25 -78t-25 -78zM1020 627q-6 4 -16 14q38 50 38 119t-38 119l14 14q45 -57 45 -133q0 -71 -43 -133zM1106 551q-3 2 -8 7t-8 7q67 87 67 195t-70 194l17 15q74 -90 74 -209q0 -118 -72 -209zM1163 498q-10 10 -16 14q88 109 88 248t-88 248l16 14
q92 -116 92 -262t-92 -262zM1237 432q-6 4 -16 14q112 134 112 314q0 182 -112 313l16 14q117 -139 117 -327q0 -189 -117 -328zM1329 350q-2 2 -7 6t-7 6q141 175 141 398q0 227 -143 395l16 14q148 -179 148 -409q0 -231 -148 -410zM1446 246q-6 6 -16 14q180 215 180 500
t-180 500l16 14q88 -105 136 -237t48 -277q0 -144 -48 -276t-136 -238zM375 348q-148 182 -148 412q0 229 146 409q2 -2 7.5 -6.5t8.5 -7.5q-141 -170 -141 -395q0 -228 141 -398zM684 627q-43 59 -43 133t43 133q6 -4 16 -14q-38 -50 -38 -119q0 -67 38 -117zM745 682
q-24 34 -24 78t24 78q2 -3 4.5 -5.5t6 -5.5t4.5 -4q-19 -34 -19 -63q0 -30 19 -64zM809 825l-10 13q21 18 53 18t53 -18l-10 -13q-23 15 -43 15q-25 0 -43 -15zM786 852l-14 14q37 29 80 29q41 0 78 -29q-8 -8 -12 -14q-28 25 -66 25q-34 0 -66 -25zM760 881l-15 16
q45 39 107 39q61 0 106 -39l-14 -16q-37 34 -92 34t-92 -34zM604 1057l-14 16q112 98 262 98q151 0 262 -100q1 0 -2 -3.5t-6 -7.5l-4 -3q-108 94 -250 94q-143 0 -248 -94zM852 492q-100 0 -170 61l14 16q70 -57 156 -57q87 0 154 57l14 -14q-73 -63 -168 -63zM852 584
q-61 0 -109 39l15 16q47 -35 94 -35q51 0 92 35l14 -16q-45 -39 -106 -39zM852 625q-43 0 -82 28l14 15q36 -25 68 -25q34 0 66 25l14 -15q-36 -28 -80 -28zM698 950l-14 15q73 63 168 63q98 0 168 -61l-14 -17q-68 58 -154 58q-87 0 -154 -58zM655 997l-14 17q91 78 211 78
q119 0 209 -80l-12 -15q-83 74 -197 74q-110 0 -197 -74zM1249 1223q-166 153 -397 153q-227 0 -397 -151l-15 14q179 158 412 158t412 -158zM352 1339l-14 17q104 95 236 146.5t278 51.5q145 0 278 -52t238 -146l-14 -17q-102 93 -231 144t-271 51t-270 -51t-230 -144z
M1057 594l-15 14q52 69 52 152t-54 153l17 15q57 -72 57 -168q0 -97 -57 -166z" />
    <glyph glyph-name="summation" unicode="&#x2211;" horiz-adv-x="1703" 
d="M258 246q-88 105 -136 237t-48 277q0 144 48 276t136 236q6 -4 14 -12q-85 -103 -131.5 -231.5t-46.5 -268.5q0 -285 180 -500zM467 432q-117 143 -117 328q0 183 115 327q3 -2 8 -7t8 -7q-110 -136 -110 -313q0 -182 110 -314zM541 498q-92 116 -92 262t92 262
q3 -2 8 -7t8 -7q-88 -109 -88 -248t88 -248q-3 -2 -8 -7t-8 -7zM647 592q-57 72 -57 168q0 97 57 166l15 -15q-52 -69 -52 -151q0 -84 54 -154q-3 -2 -8.5 -7t-8.5 -7zM715 655q-33 48 -33 105q0 56 33 104q3 -2 8 -7t8 -7q-29 -44 -29 -90t29 -90q-3 -2 -16 -15zM774 709
q-14 25 -14 51t14 51l12 -10q-10 -20 -10 -41t10 -41q-4 -4 -12 -10zM852 123q-236 0 -412 158l2.5 2.5l5 5l5.5 5.5t2 1q171 -152 397 -152q227 0 395 152q2 -3 7.5 -8t7.5 -8q-177 -156 -410 -156zM852 664q-31 0 -55 18l12 12q21 -14 43 -14q26 0 43 14q4 -4 10 -12
q-21 -18 -53 -18zM987 653q-7 10 -14 15q28 42 28 92q0 51 -28 90l2.5 2.5t5 4.5t5.5 5t1 2q35 -44 35 -104t-35 -107zM598 551q-72 91 -72 209q0 119 74 209l14 -15q-67 -87 -67 -194q0 -108 67 -195q-10 -10 -16 -14zM852 -35q-145 0 -278 52.5t-238 146.5l14 16
q102 -92 231 -143t271 -51q285 0 500 192q0 1 3.5 -2.5t6.5 -7.5l4 -4q-104 -95 -236 -147t-278 -52zM852 248q-189 0 -330 125l15 16q134 -121 315 -121q182 0 313 121q2 -3 7.5 -8t7.5 -8q-138 -125 -328 -125zM852 348q-145 0 -264 101l14 14q108 -94 250 -94
q143 0 248 94q2 -3 7 -8.5t7 -8.5q-112 -98 -262 -98zM852 428q-116 0 -211 78l14 16q86 -73 197 -73t197 73q4 -4 12 -16q-91 -78 -209 -78zM852 543q-77 0 -135 49l14 16q51 -45 121 -45q68 0 119 45q2 -3 7 -8t7 -8q-58 -49 -133 -49zM733 911q-4 3 -7 6.5t-6 6.5l-3 4
q58 49 135 49t135 -49l-16 -17q-51 45 -119 45t-119 -45zM1167 1130q-134 121 -315 121q-179 0 -313 -118l-15 14q141 125 328 125q189 0 330 -125q-4 -6 -15 -17zM930 709l-12 10q10 20 10 41t-10 41l12 10q14 -25 14 -51t-14 -51zM958 682q-10 10 -16 14q21 32 21 64
t-21 63l16 15q25 -36 25 -78t-25 -78zM1020 627q-6 4 -16 14q38 50 38 119t-38 119l14 14q45 -57 45 -133q0 -71 -43 -133zM1106 551q-3 2 -8 7t-8 7q67 87 67 195t-70 194l17 15q74 -90 74 -209q0 -118 -72 -209zM1163 498q-10 10 -16 14q88 109 88 248t-88 248l16 14
q92 -116 92 -262t-92 -262zM1237 432q-6 4 -16 14q112 134 112 314q0 182 -112 313l16 14q117 -139 117 -327q0 -189 -117 -328zM1329 350q-2 2 -7 6t-7 6q141 175 141 398q0 227 -143 395l16 14q148 -179 148 -409q0 -231 -148 -410zM1446 246q-6 6 -16 14q180 215 180 500
t-180 500l16 14q88 -105 136 -237t48 -277q0 -144 -48 -276t-136 -238zM375 348q-148 182 -148 412q0 229 146 409q2 -2 7.5 -6.5t8.5 -7.5q-141 -170 -141 -395q0 -228 141 -398zM684 627q-43 59 -43 133t43 133q6 -4 16 -14q-38 -50 -38 -119q0 -67 38 -117zM745 682
q-24 34 -24 78t24 78q2 -3 4.5 -5.5t6 -5.5t4.5 -4q-19 -34 -19 -63q0 -30 19 -64zM809 825l-10 13q21 18 53 18t53 -18l-10 -13q-23 15 -43 15q-25 0 -43 -15zM786 852l-14 14q37 29 80 29q41 0 78 -29q-8 -8 -12 -14q-28 25 -66 25q-34 0 -66 -25zM760 881l-15 16
q45 39 107 39q61 0 106 -39l-14 -16q-37 34 -92 34t-92 -34zM604 1057l-14 16q112 98 262 98q151 0 262 -100q1 0 -2 -3.5t-6 -7.5l-4 -3q-108 94 -250 94q-143 0 -248 -94zM852 492q-100 0 -170 61l14 16q70 -57 156 -57q87 0 154 57l14 -14q-73 -63 -168 -63zM852 584
q-61 0 -109 39l15 16q47 -35 94 -35q51 0 92 35l14 -16q-45 -39 -106 -39zM852 625q-43 0 -82 28l14 15q36 -25 68 -25q34 0 66 25l14 -15q-36 -28 -80 -28zM698 950l-14 15q73 63 168 63q98 0 168 -61l-14 -17q-68 58 -154 58q-87 0 -154 -58zM655 997l-14 17q91 78 211 78
q119 0 209 -80l-12 -15q-83 74 -197 74q-110 0 -197 -74zM1249 1223q-166 153 -397 153q-227 0 -397 -151l-15 14q179 158 412 158t412 -158zM352 1339l-14 17q104 95 236 146.5t278 51.5q145 0 278 -52t238 -146l-14 -17q-102 93 -231 144t-271 51t-270 -51t-230 -144z
M1057 594l-15 14q52 69 52 152t-54 153l17 15q57 -72 57 -168q0 -97 -57 -166z" />
    <glyph glyph-name="minus" unicode="&#x2212;" horiz-adv-x="1011" 
d="M98 614l39 265h770l-39 -265h-770z" />
    <glyph glyph-name="radical" unicode="&#x221a;" horiz-adv-x="970" 
d="M166 -10l-113 925h293l29 -520l403 1123h275l-598 -1528h-289z" />
    <glyph glyph-name="infinity" unicode="&#x221e;" horiz-adv-x="1466" 
d="M483 -311l172 1222h-200l-170 -1222h-277l170 1222h-141l37 248h139l14 98q23 168 110.5 239t274.5 71q44 0 68 -4l-33 -242h-51q-50 0 -69.5 -18.5t-26.5 -75.5l-11 -68h201l15 98q23 169 109.5 239.5t275.5 70.5q31 0 55 -4l-35 -242h-37q-51 0 -69.5 -18.5
t-26.5 -75.5l-10 -68h123l-35 -248h-123l-172 -1222h-277zM1001 0l164 1159h279l-164 -1159h-279zM1180 1266l37 272h278l-39 -272h-276z" />
    <glyph glyph-name="integral" unicode="&#x222b;" horiz-adv-x="1703" 
d="M258 246q-88 105 -136 237t-48 277q0 144 48 276t136 236q6 -4 14 -12q-85 -103 -131.5 -231.5t-46.5 -268.5q0 -285 180 -500zM467 432q-117 143 -117 328q0 183 115 327q3 -2 8 -7t8 -7q-110 -136 -110 -313q0 -182 110 -314zM541 498q-92 116 -92 262t92 262
q3 -2 8 -7t8 -7q-88 -109 -88 -248t88 -248q-3 -2 -8 -7t-8 -7zM647 592q-57 72 -57 168q0 97 57 166l15 -15q-52 -69 -52 -151q0 -84 54 -154q-3 -2 -8.5 -7t-8.5 -7zM715 655q-33 48 -33 105q0 56 33 104q3 -2 8 -7t8 -7q-29 -44 -29 -90t29 -90q-3 -2 -16 -15zM774 709
q-14 25 -14 51t14 51l12 -10q-10 -20 -10 -41t10 -41q-4 -4 -12 -10zM852 123q-236 0 -412 158l2.5 2.5l5 5l5.5 5.5t2 1q171 -152 397 -152q227 0 395 152q2 -3 7.5 -8t7.5 -8q-177 -156 -410 -156zM852 664q-31 0 -55 18l12 12q21 -14 43 -14q26 0 43 14q4 -4 10 -12
q-21 -18 -53 -18zM987 653q-7 10 -14 15q28 42 28 92q0 51 -28 90l2.5 2.5t5 4.5t5.5 5t1 2q35 -44 35 -104t-35 -107zM598 551q-72 91 -72 209q0 119 74 209l14 -15q-67 -87 -67 -194q0 -108 67 -195q-10 -10 -16 -14zM852 -35q-145 0 -278 52.5t-238 146.5l14 16
q102 -92 231 -143t271 -51q285 0 500 192q0 1 3.5 -2.5t6.5 -7.5l4 -4q-104 -95 -236 -147t-278 -52zM852 248q-189 0 -330 125l15 16q134 -121 315 -121q182 0 313 121q2 -3 7.5 -8t7.5 -8q-138 -125 -328 -125zM852 348q-145 0 -264 101l14 14q108 -94 250 -94
q143 0 248 94q2 -3 7 -8.5t7 -8.5q-112 -98 -262 -98zM852 428q-116 0 -211 78l14 16q86 -73 197 -73t197 73q4 -4 12 -16q-91 -78 -209 -78zM852 543q-77 0 -135 49l14 16q51 -45 121 -45q68 0 119 45q2 -3 7 -8t7 -8q-58 -49 -133 -49zM733 911q-4 3 -7 6.5t-6 6.5l-3 4
q58 49 135 49t135 -49l-16 -17q-51 45 -119 45t-119 -45zM1167 1130q-134 121 -315 121q-179 0 -313 -118l-15 14q141 125 328 125q189 0 330 -125q-4 -6 -15 -17zM930 709l-12 10q10 20 10 41t-10 41l12 10q14 -25 14 -51t-14 -51zM958 682q-10 10 -16 14q21 32 21 64
t-21 63l16 15q25 -36 25 -78t-25 -78zM1020 627q-6 4 -16 14q38 50 38 119t-38 119l14 14q45 -57 45 -133q0 -71 -43 -133zM1106 551q-3 2 -8 7t-8 7q67 87 67 195t-70 194l17 15q74 -90 74 -209q0 -118 -72 -209zM1163 498q-10 10 -16 14q88 109 88 248t-88 248l16 14
q92 -116 92 -262t-92 -262zM1237 432q-6 4 -16 14q112 134 112 314q0 182 -112 313l16 14q117 -139 117 -327q0 -189 -117 -328zM1329 350q-2 2 -7 6t-7 6q141 175 141 398q0 227 -143 395l16 14q148 -179 148 -409q0 -231 -148 -410zM1446 246q-6 6 -16 14q180 215 180 500
t-180 500l16 14q88 -105 136 -237t48 -277q0 -144 -48 -276t-136 -238zM375 348q-148 182 -148 412q0 229 146 409q2 -2 7.5 -6.5t8.5 -7.5q-141 -170 -141 -395q0 -228 141 -398zM684 627q-43 59 -43 133t43 133q6 -4 16 -14q-38 -50 -38 -119q0 -67 38 -117zM745 682
q-24 34 -24 78t24 78q2 -3 4.5 -5.5t6 -5.5t4.5 -4q-19 -34 -19 -63q0 -30 19 -64zM809 825l-10 13q21 18 53 18t53 -18l-10 -13q-23 15 -43 15q-25 0 -43 -15zM786 852l-14 14q37 29 80 29q41 0 78 -29q-8 -8 -12 -14q-28 25 -66 25q-34 0 -66 -25zM760 881l-15 16
q45 39 107 39q61 0 106 -39l-14 -16q-37 34 -92 34t-92 -34zM604 1057l-14 16q112 98 262 98q151 0 262 -100q1 0 -2 -3.5t-6 -7.5l-4 -3q-108 94 -250 94q-143 0 -248 -94zM852 492q-100 0 -170 61l14 16q70 -57 156 -57q87 0 154 57l14 -14q-73 -63 -168 -63zM852 584
q-61 0 -109 39l15 16q47 -35 94 -35q51 0 92 35l14 -16q-45 -39 -106 -39zM852 625q-43 0 -82 28l14 15q36 -25 68 -25q34 0 66 25l14 -15q-36 -28 -80 -28zM698 950l-14 15q73 63 168 63q98 0 168 -61l-14 -17q-68 58 -154 58q-87 0 -154 -58zM655 997l-14 17q91 78 211 78
q119 0 209 -80l-12 -15q-83 74 -197 74q-110 0 -197 -74zM1249 1223q-166 153 -397 153q-227 0 -397 -151l-15 14q179 158 412 158t412 -158zM352 1339l-14 17q104 95 236 146.5t278 51.5q145 0 278 -52t238 -146l-14 -17q-102 93 -231 144t-271 51t-270 -51t-230 -144z
M1057 594l-15 14q52 69 52 152t-54 153l17 15q57 -72 57 -168q0 -97 -57 -166z" />
    <glyph glyph-name="approxequal" unicode="&#x2248;" horiz-adv-x="1011" 
d="M279 774l-148 125q102 215 234 215q61 0 175.5 -43t147.5 -43q51 0 109 96l147 -125q-102 -217 -223 -217q-62 0 -181.5 43t-152.5 43q-29 0 -53 -20t-55 -74zM215 305l-147 123q103 217 231 217q61 0 176 -43t148 -43q27 0 52 21t58 75l148 -125q-102 -217 -226 -217
q-61 0 -179.5 43t-153.5 43q-28 0 -52 -20.5t-55 -73.5z" />
    <glyph glyph-name="notequal" unicode="&#x2260;" horiz-adv-x="1116" 
d="M483 -311l172 1222h-200l-170 -1222h-277l170 1222h-141l37 248h139l14 98q23 168 110.5 239t274.5 71q44 0 68 -4l-33 -242h-51q-50 0 -69.5 -18.5t-26.5 -75.5l-11 -68h201l15 98q24 170 111.5 240t285.5 70q89 0 117 -4l-33 -250h-82q-74 -1 -98 -20t-33 -81l-8 -53
h198l-35 -248h-198l-170 -1222h-277z" />
    <glyph glyph-name="lessequal" unicode="&#x2264;" horiz-adv-x="1011" 
d="M53 12l37 264h617l-564 379l29 193l696 393l-39 -283l-385 -206l328 -209l-41 -283l-35 -248h-643z" />
    <glyph glyph-name="greaterequal" unicode="&#x2265;" horiz-adv-x="1011" 
d="M104 12l35 248l2 16l39 269l385 207l-327 206l41 283l585 -393l-26 -193l-670 -379h616l-36 -264h-644z" />
    <glyph glyph-name="lozenge" unicode="&#x25ca;" horiz-adv-x="1136" 
d="M854 -4q-138 0 -207 34.5t-88.5 112t0.5 201.5l78 567h-182l-170 -1222h-277l170 1222h-141l37 248h139l14 98q23 168 110.5 239t274.5 71q44 0 68 -4l-33 -242h-51q-50 0 -69.5 -18.5t-26.5 -75.5l-11 -68h197l72 236l233 55l-41 -291h193l-35 -248h-193l-77 -555
q-8 -59 7.5 -80.5t80.5 -21.5h90l-37 -254q-35 -4 -125 -4z" />
    <glyph glyph-name="apple" unicode="&#xf8ff;" horiz-adv-x="1703" 
d="M258 246q-88 105 -136 237t-48 277q0 144 48 276t136 236q6 -4 14 -12q-85 -103 -131.5 -231.5t-46.5 -268.5q0 -285 180 -500zM467 432q-117 143 -117 328q0 183 115 327q3 -2 8 -7t8 -7q-110 -136 -110 -313q0 -182 110 -314zM541 498q-92 116 -92 262t92 262
q3 -2 8 -7t8 -7q-88 -109 -88 -248t88 -248q-3 -2 -8 -7t-8 -7zM647 592q-57 72 -57 168q0 97 57 166l15 -15q-52 -69 -52 -151q0 -84 54 -154q-3 -2 -8.5 -7t-8.5 -7zM715 655q-33 48 -33 105q0 56 33 104q3 -2 8 -7t8 -7q-29 -44 -29 -90t29 -90q-3 -2 -16 -15zM774 709
q-14 25 -14 51t14 51l12 -10q-10 -20 -10 -41t10 -41q-4 -4 -12 -10zM852 123q-236 0 -412 158l2.5 2.5l5 5l5.5 5.5t2 1q171 -152 397 -152q227 0 395 152q2 -3 7.5 -8t7.5 -8q-177 -156 -410 -156zM852 664q-31 0 -55 18l12 12q21 -14 43 -14q26 0 43 14q4 -4 10 -12
q-21 -18 -53 -18zM987 653q-7 10 -14 15q28 42 28 92q0 51 -28 90l2.5 2.5t5 4.5t5.5 5t1 2q35 -44 35 -104t-35 -107zM598 551q-72 91 -72 209q0 119 74 209l14 -15q-67 -87 -67 -194q0 -108 67 -195q-10 -10 -16 -14zM852 -35q-145 0 -278 52.5t-238 146.5l14 16
q102 -92 231 -143t271 -51q285 0 500 192q0 1 3.5 -2.5t6.5 -7.5l4 -4q-104 -95 -236 -147t-278 -52zM852 248q-189 0 -330 125l15 16q134 -121 315 -121q182 0 313 121q2 -3 7.5 -8t7.5 -8q-138 -125 -328 -125zM852 348q-145 0 -264 101l14 14q108 -94 250 -94
q143 0 248 94q2 -3 7 -8.5t7 -8.5q-112 -98 -262 -98zM852 428q-116 0 -211 78l14 16q86 -73 197 -73t197 73q4 -4 12 -16q-91 -78 -209 -78zM852 543q-77 0 -135 49l14 16q51 -45 121 -45q68 0 119 45q2 -3 7 -8t7 -8q-58 -49 -133 -49zM733 911q-4 3 -7 6.5t-6 6.5l-3 4
q58 49 135 49t135 -49l-16 -17q-51 45 -119 45t-119 -45zM1167 1130q-134 121 -315 121q-179 0 -313 -118l-15 14q141 125 328 125q189 0 330 -125q-4 -6 -15 -17zM930 709l-12 10q10 20 10 41t-10 41l12 10q14 -25 14 -51t-14 -51zM958 682q-10 10 -16 14q21 32 21 64
t-21 63l16 15q25 -36 25 -78t-25 -78zM1020 627q-6 4 -16 14q38 50 38 119t-38 119l14 14q45 -57 45 -133q0 -71 -43 -133zM1106 551q-3 2 -8 7t-8 7q67 87 67 195t-70 194l17 15q74 -90 74 -209q0 -118 -72 -209zM1163 498q-10 10 -16 14q88 109 88 248t-88 248l16 14
q92 -116 92 -262t-92 -262zM1237 432q-6 4 -16 14q112 134 112 314q0 182 -112 313l16 14q117 -139 117 -327q0 -189 -117 -328zM1329 350q-2 2 -7 6t-7 6q141 175 141 398q0 227 -143 395l16 14q148 -179 148 -409q0 -231 -148 -410zM1446 246q-6 6 -16 14q180 215 180 500
t-180 500l16 14q88 -105 136 -237t48 -277q0 -144 -48 -276t-136 -238zM375 348q-148 182 -148 412q0 229 146 409q2 -2 7.5 -6.5t8.5 -7.5q-141 -170 -141 -395q0 -228 141 -398zM684 627q-43 59 -43 133t43 133q6 -4 16 -14q-38 -50 -38 -119q0 -67 38 -117zM745 682
q-24 34 -24 78t24 78q2 -3 4.5 -5.5t6 -5.5t4.5 -4q-19 -34 -19 -63q0 -30 19 -64zM809 825l-10 13q21 18 53 18t53 -18l-10 -13q-23 15 -43 15q-25 0 -43 -15zM786 852l-14 14q37 29 80 29q41 0 78 -29q-8 -8 -12 -14q-28 25 -66 25q-34 0 -66 -25zM760 881l-15 16
q45 39 107 39q61 0 106 -39l-14 -16q-37 34 -92 34t-92 -34zM604 1057l-14 16q112 98 262 98q151 0 262 -100q1 0 -2 -3.5t-6 -7.5l-4 -3q-108 94 -250 94q-143 0 -248 -94zM852 492q-100 0 -170 61l14 16q70 -57 156 -57q87 0 154 57l14 -14q-73 -63 -168 -63zM852 584
q-61 0 -109 39l15 16q47 -35 94 -35q51 0 92 35l14 -16q-45 -39 -106 -39zM852 625q-43 0 -82 28l14 15q36 -25 68 -25q34 0 66 25l14 -15q-36 -28 -80 -28zM698 950l-14 15q73 63 168 63q98 0 168 -61l-14 -17q-68 58 -154 58q-87 0 -154 -58zM655 997l-14 17q91 78 211 78
q119 0 209 -80l-12 -15q-83 74 -197 74q-110 0 -197 -74zM1249 1223q-166 153 -397 153q-227 0 -397 -151l-15 14q179 158 412 158t412 -158zM352 1339l-14 17q104 95 236 146.5t278 51.5q145 0 278 -52t238 -146l-14 -17q-102 93 -231 144t-271 51t-270 -51t-230 -144z
M1057 594l-15 14q52 69 52 152t-54 153l17 15q57 -72 57 -168q0 -97 -57 -166z" />
    </font>
</defs>
</svg>
