<?xml version="1.0" standalone="no"?>
<!DOCTYPE svg PUBLIC "-//W3C//DTD SVG 1.1//EN" "http://www.w3.org/Graphics/SVG/1.1/DTD/svg11.dtd" >
<svg xmlns="http://www.w3.org/2000/svg" xmlns:xlink="http://www.w3.org/1999/xlink" version="1.1">
<metadata>
Created by FontForge 20201107 at Wed Dec 24 15:01:12 2025
 By 
Copyright (c) The Font Bureau, Inc., 2003. All rights reserved.
</metadata>
<defs>
<font id="AntennaComp-Thin" horiz-adv-x="378" >
  <font-face 
    font-family="AntennaComp Thin"
    font-weight="100"
    font-stretch="normal"
    units-per-em="2048"
    panose-1="2 0 5 8 0 0 0 2 0 4"
    ascent="1638"
    descent="-410"
    x-height="1110"
    cap-height="1518"
    bbox="-25 -338 1630 1835"
    underline-thickness="102"
    underline-position="-204"
    unicode-range="U+0020-FB02"
  />
<missing-glyph horiz-adv-x="167" 
 />
    <glyph glyph-name="fi" unicode="fi" horiz-adv-x="423" 
d="M23 1065v45h71v264q0 93 29 133.5t106 40.5h7v-47h-5q-55 0 -72.5 -27.5t-17.5 -99.5v-264h95v-45h-95v-1065h-47v1065h-71zM313 0v1110h47v-1110h-47zM313 1288v164h47v-164h-47z" />
    <glyph glyph-name="fl" unicode="fl" horiz-adv-x="458" 
d="M23 1065v45h71v264q0 93 29 133.5t106 40.5h7v-47h-5q-55 0 -72.5 -27.5t-17.5 -99.5v-264h95v-45h-95v-1065h-47v1065h-71zM416 0q-65 0 -84 32t-19 107v1409h47v-1409q0 -58 10.5 -75t47.5 -17h4v-47h-6z" />
    <glyph glyph-name="f_f_l" unicode="ffl" horiz-adv-x="677" 
d="M313 0v1065h-172v-1065h-47v1065h-71v45h71v264q0 93 29 133.5t106 40.5h7v-47h-5q-55 0 -72.5 -27.5t-17.5 -99.5v-264h172v264q0 93 29.5 133.5t106.5 40.5h6v-47h-4q-55 0 -73 -27.5t-18 -99.5v-264h95v-45h-95v-1065h-47zM635 0q-65 0 -84 32t-19 107v1409h48v-1409
q0 -59 10 -75.5t47 -16.5h4v-47h-6z" />
    <glyph glyph-name="f_f_i" unicode="ffi" horiz-adv-x="643" 
d="M313 0v1065h-172v-1065h-47v1065h-71v45h71v264q0 93 29 133.5t106 40.5h7v-47h-5q-55 0 -72.5 -27.5t-17.5 -99.5v-264h172v264q0 93 29.5 133.5t106.5 40.5h6v-47h-4q-55 0 -73 -27.5t-18 -99.5v-264h95v-45h-95v-1065h-47zM532 0v1110h48v-1110h-48zM532 1288v164h48
v-164h-48z" />
    <glyph glyph-name="f_j" unicode="fj" horiz-adv-x="423" 
d="M23 1065v45h71v264q0 93 29 133.5t106 40.5h7v-47h-5q-55 0 -72.5 -27.5t-17.5 -99.5v-264h95v-45h-95v-1065h-47v1065h-71zM276 -297v47q25 1 31 11.5t6 41.5v1307h47v-1305q0 -24 -2.5 -39t-10 -31t-25.5 -24t-46 -8zM313 1288v164h47v-164h-47z" />
    <glyph glyph-name="f_f" unicode="ff" horiz-adv-x="468" 
d="M313 0v1065h-172v-1065h-47v1065h-71v45h71v264q0 93 29 133.5t106 40.5h7v-47h-5q-55 0 -72.5 -27.5t-17.5 -99.5v-264h172v264q0 93 29.5 133.5t106.5 40.5h6v-47h-4q-55 0 -73 -27.5t-18 -99.5v-264h95v-45h-95v-1065h-47z" />
    <glyph glyph-name=".notdef" horiz-adv-x="167" 
 />
    <glyph glyph-name=".null" horiz-adv-x="0" 
 />
    <glyph glyph-name="nonmarkingreturn" horiz-adv-x="682" 
 />
    <glyph glyph-name="space" unicode=" " horiz-adv-x="167" 
 />
    <glyph glyph-name="space" unicode="&#xa0;" horiz-adv-x="167" 
 />
    <glyph glyph-name="exclam" unicode="!" horiz-adv-x="249" 
d="M106 393l-10 1125h60l-11 -1125h-39zM94 0v123h58v-123h-58z" />
    <glyph glyph-name="quotedbl" unicode="&#x22;" horiz-adv-x="303" 
d="M78 1014l-6 504h47l-6 -504h-35zM190 1014l-6 504h47l-6 -504h-35z" />
    <glyph glyph-name="numbersign" unicode="#" horiz-adv-x="407" 
d="M68 0l43 600h-64v43h68l16 221h-84v43h86l45 611h47l-45 -611h70l45 611h47l-45 -611h63v-43h-65l-16 -221h81v-43h-86l-43 -600h-47l43 600h-69l-43 -600h-47zM162 643h69l17 221h-70z" />
    <glyph glyph-name="dollar" unicode="$" horiz-adv-x="342" 
d="M145 -184v184q-44 0 -98 12l10 47q58 -12 97 -12q26 0 43 3.5t33.5 16.5t24 36t7 63t-11.5 96l-195 989q-45 229 90 260v191h48v-184q51 0 90 -13l-15 -45q-27 10 -75 10q-131 0 -91 -210l195 -990q25 -131 0 -194t-104 -74v-186h-48z" />
    <glyph glyph-name="percent" unicode="%" horiz-adv-x="618" 
d="M139 614q-47 0 -71 33q-23 32 -28 107t-5 319q0 241 5 314t28 106q27 31 71 31q48 0 72 -31q23 -32 28 -105.5t5 -314.5q0 -243 -5 -318t-28 -108q-24 -33 -72 -33zM479 -8q-47 0 -71 33q-23 32 -28 107t-5 319q0 241 5 313.5t28 105.5q27 31 71 31q48 0 72 -31
q23 -32 28 -105t5 -314q0 -243 -5 -318t-28 -108q-24 -33 -72 -33zM139 659q41 0 49.5 69.5t8.5 344.5q0 270 -9 338t-49 68q-41 0 -49 -65.5t-8 -340.5q0 -277 8 -345.5t49 -68.5zM479 37q41 0 49.5 69.5t8.5 344.5q0 270 -9 337.5t-49 67.5q-41 0 -49 -65t-8 -340
q0 -277 8 -345.5t49 -68.5zM180 0l211 1518h47l-211 -1518h-47z" />
    <glyph glyph-name="ampersand" unicode="&#x26;" horiz-adv-x="440" 
d="M178 -6q-46 0 -75.5 12t-47 31.5t-26 61.5t-11 84t-2.5 116q0 143 33 271t94 286q-77 272 -77 449q0 52 2 82.5t8.5 60.5t19 45t34.5 24t54 9q76 0 96.5 -47.5t20.5 -173.5q0 -119 -25 -217.5t-79 -243.5q38 -132 53 -178l74 -246l26 502h43l-28 -547l-5 -78l91 -297h-50
l-53 174q-15 -102 -52 -141t-118 -39zM178 39q48 0 73.5 17.5t41 69t22.5 153.5l-112 378q-10 30 -39 125q-101 -273 -101 -483q0 -151 20.5 -205.5t94.5 -54.5zM113 1305q0 -160 61 -387q80 201 80 387q0 108 -12.5 142t-57.5 34t-58 -34t-13 -142z" />
    <glyph glyph-name="quotesingle" unicode="'" horiz-adv-x="190" 
d="M78 1014l-6 504h47l-6 -504h-35z" />
    <glyph glyph-name="parenleft" unicode="(" horiz-adv-x="276" 
d="M209 -297q-131 367 -131 922q0 556 131 923l45 -14q-129 -357 -129 -909q0 -551 129 -908z" />
    <glyph glyph-name="parenright" unicode=")" horiz-adv-x="276" 
d="M68 -297l-45 14q129 357 129 910q0 550 -129 907l45 14q131 -367 131 -921q0 -557 -131 -924z" />
    <glyph glyph-name="asterisk" unicode="*" horiz-adv-x="339" 
d="M147 1034l5 217l-129 -86l-23 37l137 72l-135 74l21 38l129 -86l-5 218h43l-6 -218l138 89l22 -37l-145 -76l143 -74l-20 -39l-138 86l6 -215h-43z" />
    <glyph glyph-name="plus" unicode="+" horiz-adv-x="409" 
d="M182 502v231h-106v45h106v228h47v-228h105v-45h-105v-231h-47z" />
    <glyph glyph-name="comma" unicode="," horiz-adv-x="163" 
d="M61 -104l-10 34q18 6 22.5 16t4.5 54h-25v123h58v-123q0 -56 -9 -75.5t-41 -28.5z" />
    <glyph glyph-name="hyphen" unicode="-" horiz-adv-x="301" 
d="M39 580v45h223v-45h-223z" />
    <glyph glyph-name="hyphen" unicode="&#xad;" horiz-adv-x="301" 
d="M39 580v45h223v-45h-223z" />
    <glyph glyph-name="period" unicode="." horiz-adv-x="163" 
d="M53 0v123h58v-123h-58z" />
    <glyph glyph-name="slash" unicode="/" horiz-adv-x="303" 
d="M0 0l258 1518h45l-258 -1518h-45z" />
    <glyph glyph-name="zero" unicode="0" horiz-adv-x="393" 
d="M197 -8q-82 0 -111 67q-22 53 -26.5 169t-4.5 530t4.5 529.5t26.5 168.5q30 68 111 68q39 0 66 -14.5t44 -53.5q22 -54 26.5 -169t4.5 -529t-4.5 -530t-26.5 -169q-17 -39 -44 -53t-66 -14zM197 37q45 0 62 36q26 53 30 284q2 100 2 401q0 481 -10 584q-10 108 -45 128
q-14 9 -39 9q-45 0 -63 -36q-26 -53 -30 -286q-2 -104 -2 -399q0 -482 11 -587q10 -105 45 -125q14 -9 39 -9z" />
    <glyph glyph-name="one" unicode="1" horiz-adv-x="243" 
d="M117 0v1473h-99v45h146v-1518h-47z" />
    <glyph glyph-name="two" unicode="2" horiz-adv-x="315" 
d="M23 0v43l204 1221q21 114 4 164.5t-84 50.5q-55 0 -104 -19l-18 41q50 23 122 23q140 0 140 -146q0 -50 -13 -123l-202 -1210h209v-45h-258z" />
    <glyph glyph-name="three" unicode="3" horiz-adv-x="319" 
d="M123 -8q-56 0 -111 16l15 45q56 -16 96 -16q70 0 85 69.5t15 313.5q0 289 -18.5 346t-120.5 57h-27v45h31q90 0 107.5 53t17.5 279q0 94 -1.5 133t-9.5 80.5t-25.5 53.5t-49.5 12q-39 0 -94 -17l-15 43q62 19 109 19q63 0 92 -29q28 -28 34.5 -89.5t6.5 -205.5
q0 -198 -11 -261t-54 -89q18 -7 29 -15.5t20.5 -29t13.5 -45.5t7.5 -76t4 -109t0.5 -155q0 -207 -8 -286t-45 -114q-28 -28 -94 -28z" />
    <glyph glyph-name="four" unicode="4" horiz-adv-x="385" 
d="M31 344v45l227 1129h45l-227 -1129h155l15 510h33v-510h83v-45h-83v-344h-48v344h-200z" />
    <glyph glyph-name="five" unicode="5" horiz-adv-x="325" 
d="M143 -8q-59 0 -112 16l14 45q48 -16 98 -16q72 0 86.5 74t14.5 368q0 307 -11 369.5t-71 62.5q-39 0 -57 -11.5t-29 -33.5l-45 6l14 646h217v-45h-174l-10 -547q19 30 90 30q61 0 86 -28q26 -30 31.5 -111.5t5.5 -337.5q0 -264 -7.5 -342.5t-45.5 -116.5q-28 -28 -95 -28
z" />
    <glyph glyph-name="six" unicode="6" horiz-adv-x="374" 
d="M194 -8q-82 0 -109 67q-21 50 -26 147.5t-5 381.5v60q0 536 9 659t59 170q43 41 147 41h25v-45h-25q-89 0 -118 -31q-34 -34 -42 -142t-8 -382q20 61 103 61q67 0 94 -31t33 -103.5t6 -256.5q0 -292 -5 -384.5t-26 -144.5q-29 -67 -112 -67zM196 37q34 0 50.5 15.5
t27.5 80.5t13.5 162t2.5 293q0 227 -14 286.5t-76 59.5q-43 0 -63 -27.5t-28 -98.5t-8 -220q0 -130 1 -210t5 -147.5t10 -101t17.5 -56.5t25.5 -29.5t36 -6.5z" />
    <glyph glyph-name="seven" unicode="7" horiz-adv-x="292" 
d="M16 1473v45h250v-41l-147 -1477h-47l147 1473h-203z" />
    <glyph glyph-name="eight" unicode="8" horiz-adv-x="374" 
d="M188 -8q-63 0 -92 26q-31 30 -38 107.5t-7 294.5q0 230 8.5 311.5t46.5 108.5q-28 24 -34 85.5t-6 239.5q0 97 0.5 133.5t4 87.5t11.5 73.5t22 37.5q27 27 84 27q60 0 86 -29q26 -28 31.5 -93.5t5.5 -236.5q0 -175 -6.5 -238t-36.5 -87q39 -27 48.5 -112t9.5 -308
q0 -216 -7 -294t-38 -108q-29 -26 -93 -26zM188 37q65 0 78 62t13 321q0 260 -14 329.5t-77 69.5q-64 0 -77 -67.5t-13 -331.5q0 -260 12.5 -321.5t77.5 -61.5zM188 862q54 0 65 50t11 253q0 205 -11 259.5t-65 54.5q-53 0 -64 -52.5t-11 -251.5v-10q0 -204 9 -247
q10 -47 43 -54q10 -2 23 -2z" />
    <glyph glyph-name="nine" unicode="9" horiz-adv-x="374" 
d="M80 0v45h24q90 0 119 31q34 34 41.5 139.5t7.5 382.5q-20 -61 -102 -61q-68 0 -94 30q-27 31 -33 104t-6 257q0 292 5 384t26 144q29 68 112 68q81 0 109 -68q21 -50 25.5 -145t4.5 -383v-88q0 -516 -9 -634.5t-58 -164.5q-43 -41 -148 -41h-24zM174 582q43 0 62.5 27.5
t27.5 98t8 220.5q0 196 -2.5 293t-13.5 162t-27.5 80.5t-50.5 15.5t-50.5 -15.5t-27.5 -80.5t-13.5 -162t-2.5 -293q0 -227 14 -286.5t76 -59.5z" />
    <glyph glyph-name="colon" unicode=":" horiz-adv-x="172" 
d="M57 0v123h58v-123h-58zM57 987v123h58v-123h-58z" />
    <glyph glyph-name="semicolon" unicode=";" horiz-adv-x="172" 
d="M57 987v123h58v-123h-58zM66 -104l-11 34q18 6 22.5 16t4.5 54h-25v123h58v-123q0 -57 -8.5 -76t-40.5 -28z" />
    <glyph glyph-name="less" unicode="&#x3c;" horiz-adv-x="409" 
d="M305 465l-237 266v49l237 267v-66l-201 -225l201 -226v-65z" />
    <glyph glyph-name="equal" unicode="=" horiz-adv-x="409" 
d="M74 799v45h262v-45h-262zM74 602v45h262v-45h-262z" />
    <glyph glyph-name="greater" unicode="&#x3e;" horiz-adv-x="409" 
d="M104 465v65l201 226l-201 225v66l238 -267v-49z" />
    <glyph glyph-name="question" unicode="?" horiz-adv-x="327" 
d="M123 393q0 12 -0.5 62.5t0 70.5t2 61t5.5 77t11 75l88 529q8 60 10.5 107t-19 75.5t-70.5 28.5q-58 0 -105 -19l-18 41q57 23 123 23q34 0 59.5 -9t41 -22.5t24 -36.5t12 -44t2 -51.5t-4.5 -52t-8 -53.5l-88 -526q-7 -38 -11 -73t-5.5 -75t-2 -59.5t0 -68.5t0.5 -60h-47z
M123 0v123h57v-123h-57z" />
    <glyph glyph-name="at" unicode="@" horiz-adv-x="653" 
d="M520 -297h-192q-108 0 -158 47q-69 62 -86.5 238t-17.5 628q0 444 16.5 618t81.5 239q54 51 164 51q116 0 170 -60q59 -67 74.5 -241.5t15.5 -606.5v-421q0 -58 -17 -83.5t-65 -25.5q-42 0 -58 18t-16 68q-15 -86 -117 -86q-60 0 -86 33q-33 36 -41 133t-8 352
q0 259 8.5 355.5t44.5 132.5q28 28 82 28q93 0 115 -67l6 59l35 -2v-920q0 -37 6.5 -51t28.5 -14t28.5 14t6.5 51v426q0 566 -33 714.5t-180 148.5q-99 0 -141 -55q-51 -66 -65 -277q-9 -142 -9 -531q0 -565 33.5 -716.5t181.5 -151.5h192v-45zM317 131q76 0 91.5 77.5
t15.5 395.5q0 317 -15.5 395t-91.5 78q-30 0 -44 -9.5t-26.5 -56.5t-16 -140.5t-3.5 -266.5t3.5 -267t16 -140.5t26 -56t44.5 -9.5z" />
    <glyph glyph-name="A" unicode="A" horiz-adv-x="382" 
d="M16 0l152 1522h47l152 -1522h-45l-43 430h-179l-41 -430h-43zM170 1122l-66 -649h170l-63 649l-21 262z" />
    <glyph glyph-name="B" unicode="B" horiz-adv-x="407" 
d="M66 0v1518h116q30 0 53 -5t40.5 -18t29.5 -27t20 -41.5t12.5 -51t7 -66.5t3 -77.5t0.5 -92.5q0 -183 -14.5 -257t-73.5 -98q67 -22 82.5 -97.5t15.5 -261.5v-24q0 -67 -1 -106t-4 -87.5t-10 -75.5t-19 -56t-30 -43t-44 -23.5t-60 -9.5h-124zM113 45h77q22 0 39 4.5t30 18
t21.5 26t14.5 40t9 48.5t4.5 62.5t2 71.5t0.5 85t-0.5 85t-2 71.5t-4.5 63t-9 49t-14.5 41t-21 26.5t-30 18t-39.5 5h-77v-715zM113 805h67q79 0 100 68t21 266q0 73 -0.5 109.5t-4 82.5t-11 66t-21 41t-34 28t-50.5 7h-67v-668z" />
    <glyph glyph-name="C" unicode="C" horiz-adv-x="315" 
d="M211 -8q-46 0 -77 13t-52 54q-30 62 -35.5 169.5t-5.5 529.5q0 416 6 530t35 168q38 68 131 68q54 0 96 -11l-8 -43q-45 9 -88 9q-60 0 -84 -38q-32 -53 -38 -254q-3 -104 -3 -429q0 -466 14 -579q13 -107 52 -130q20 -12 57 -12q40 0 86 12l12 -41q-50 -16 -98 -16z" />
    <glyph glyph-name="D" unicode="D" horiz-adv-x="432" 
d="M68 0v1518h147q95 0 133 -70q30 -57 36.5 -172.5t6.5 -517.5t-6.5 -516.5t-36.5 -171.5q-38 -70 -133 -70h-147zM115 45h100q62 0 87 39q32 52 39 251q3 102 3 423q0 444 -11 550q-12 121 -53 149q-23 16 -65 16h-100v-1428z" />
    <glyph glyph-name="E" unicode="E" horiz-adv-x="368" 
d="M66 0v1518h251v-45h-204v-668h200v-45h-200v-715h206v-45h-253z" />
    <glyph glyph-name="F" unicode="F" horiz-adv-x="331" 
d="M66 0v1518h249v-45h-202v-668h198v-45h-198v-760h-47z" />
    <glyph glyph-name="G" unicode="G" horiz-adv-x="395" 
d="M211 -8q-97 0 -129 67q-30 62 -35.5 173.5t-5.5 525.5q0 415 6 530t35 168q38 68 131 68q50 0 113 -13l-11 -43q-53 11 -102 11q-60 0 -84 -38q-32 -53 -38 -254q-3 -104 -3 -429q0 -447 11 -555q12 -122 53 -151q22 -15 61 -15q72 0 87 85.5t15 403.5v234h-145v45h190
v-279q0 -264 -4 -343.5t-24 -123.5q-32 -67 -121 -67z" />
    <glyph glyph-name="H" unicode="H" horiz-adv-x="464" 
d="M66 0v1518h47v-713h239v713h47v-1518h-47v760h-239v-760h-47z" />
    <glyph glyph-name="I" unicode="I" horiz-adv-x="194" 
d="M74 0v1518h47v-1518h-47z" />
    <glyph glyph-name="J" unicode="J" horiz-adv-x="225" 
d="M18 0h-2v47h2q65 0 81 20t16 72v1379h47v-1375q0 -34 -3.5 -54.5t-16.5 -43.5t-44 -34t-80 -11z" />
    <glyph glyph-name="K" unicode="K" horiz-adv-x="368" 
d="M66 0v1518h47v-846l192 846h47l-137 -590l145 -928h-47l-127 815l-73 -326v-489h-47z" />
    <glyph glyph-name="L" unicode="L" horiz-adv-x="337" 
d="M66 0v1518h47v-1473h209v-45h-256z" />
    <glyph glyph-name="M" unicode="M" horiz-adv-x="530" 
d="M66 0v1518h63l123 -1211l12 -143l12 143l125 1211h64v-1518h-47v1303l-15 -183l-116 -1120h-45l-117 1120l-14 183v-1303h-45z" />
    <glyph glyph-name="N" unicode="N" horiz-adv-x="454" 
d="M66 0v1518h63l188 -1100l27 -187v1287h45v-1518h-45l-211 1231l-22 162v-1393h-45z" />
    <glyph glyph-name="O" unicode="O" horiz-adv-x="434" 
d="M217 -8q-48 0 -81 14t-54 53q-29 56 -35 171t-6 528t6 527.5t35 170.5q37 68 135 68t135 -68q29 -56 35 -170.5t6 -527.5t-6 -528t-35 -171q-21 -39 -54 -53t-81 -14zM217 37q62 0 85 35q33 49 40 239q4 105 4 447q0 452 -11 558q-11 119 -51 147q-23 16 -67 16
q-62 0 -85 -35q-33 -49 -40 -239q-4 -105 -4 -447q0 -454 12 -563q12 -116 53 -143q22 -15 64 -15z" />
    <glyph glyph-name="P" unicode="P" horiz-adv-x="399" 
d="M66 0v1518h127q27 0 48 -5.5t37.5 -13.5t28.5 -25.5t20.5 -33.5t14.5 -46.5t9 -55.5t4.5 -69t2 -78.5t0.5 -92.5q0 -74 -1 -116t-4 -94t-9.5 -78.5t-18.5 -56.5t-29.5 -43.5t-43 -22.5t-59.5 -9h-80v-678h-47zM113 723h77q30 0 50.5 8t34 31.5t21 46.5t11 75t4 92.5
t0.5 121.5t-0.5 121.5t-4 92.5t-11 75t-21 46.5t-34 31.5t-50.5 8h-77v-750z" />
    <glyph glyph-name="Q" unicode="Q" horiz-adv-x="434" 
d="M324 -240h-5q-74 0 -103.5 30.5t-29.5 119.5v84q-73 7 -104 65q-29 56 -35 171t-6 528t6 527.5t35 170.5q37 68 135 68t135 -68q29 -56 35 -170.5t6 -527.5t-6 -528t-35 -171q-36 -63 -119 -67v-82q0 -66 17.5 -85.5t68.5 -19.5h5v-45zM217 37q62 0 85 35q33 49 40 239
q4 105 4 447q0 452 -11 558q-11 119 -51 147q-23 16 -67 16q-62 0 -85 -35q-33 -49 -40 -239q-4 -105 -4 -447q0 -454 12 -563q12 -116 53 -143q22 -15 64 -15z" />
    <glyph glyph-name="R" unicode="R" horiz-adv-x="401" 
d="M66 0v1518h127q27 0 48 -5.5t37.5 -13.5t28.5 -25.5t20.5 -33.5t14.5 -46t9 -54.5t4.5 -67t2 -76t0.5 -88.5q0 -63 -0.5 -102t-3.5 -85t-8 -73.5t-14 -56.5t-22.5 -45t-33 -28.5t-45.5 -17.5l107 -700h-47l-107 698h-71v-698h-47zM113 743h77q22 0 39 4.5t30 17.5
t21.5 25.5t14.5 40.5t9 49.5t4.5 64.5t2 74t0.5 89t-0.5 89t-2 74t-4.5 64.5t-9 49.5t-14.5 40.5t-21.5 25.5t-30 17.5t-39 4.5h-77v-730z" />
    <glyph glyph-name="S" unicode="S" horiz-adv-x="344" 
d="M154 -10q-49 0 -107 12l10 47q58 -12 97 -12q25 0 43 4t34 17t23.5 36t7 63t-11.5 95l-195 1005q-27 140 12.5 203.5t125.5 63.5q51 0 90 -13l-15 -45q-29 11 -75 11q-131 0 -91 -211l195 -1006q28 -142 -6.5 -206t-136.5 -64z" />
    <glyph glyph-name="T" unicode="T" horiz-adv-x="344" 
d="M147 0v1473h-131v45h312v-45h-133v-1473h-48z" />
    <glyph glyph-name="U" unicode="U" horiz-adv-x="464" 
d="M233 -8q-50 0 -83 18t-50.5 41t-25.5 76.5t-9.5 91t-1.5 117.5v1182h48v-1182q0 -65 0.5 -95.5t4 -72.5t11 -60t21 -38t34.5 -26.5t51 -6.5t50.5 7t34 25.5t21.5 38t11.5 60t4.5 73.5t1 95v1182h45v-1182v-66.5t-1.5 -59t-4.5 -55.5t-8.5 -46t-14 -41.5t-21 -31
t-29.5 -25.5t-39 -13.5t-50 -5.5z" />
    <glyph glyph-name="V" unicode="V" horiz-adv-x="382" 
d="M168 -4l-152 1522h45l113 -1149l19 -228l18 228l113 1149h43l-152 -1522h-47z" />
    <glyph glyph-name="W" unicode="W" horiz-adv-x="589" 
d="M162 -4l-142 1522h46l98 -1067l18 -254l15 254l75 1067h47l76 -1067l15 -254l18 254l98 1067h43l-141 -1522h-43l-78 1073l-12 227l-12 -227l-78 -1073h-43z" />
    <glyph glyph-name="X" unicode="X" horiz-adv-x="370" 
d="M313 0l-131 680l-127 -680h-45l152 793l-139 725h47l118 -619l115 619h45l-139 -730l151 -788h-47z" />
    <glyph glyph-name="Y" unicode="Y" horiz-adv-x="356" 
d="M154 0v541l-150 977h45l129 -861l131 861h43l-151 -990v-528h-47z" />
    <glyph glyph-name="Z" unicode="Z" horiz-adv-x="370" 
d="M41 0v45l235 1428h-225v45h271v-45l-236 -1428h246v-45h-291z" />
    <glyph glyph-name="bracketleft" unicode="[" horiz-adv-x="307" 
d="M86 -297v1845h150v-45h-103v-1755h107v-45h-154z" />
    <glyph glyph-name="backslash" unicode="\" horiz-adv-x="303" 
d="M258 0l-258 1518h45l258 -1518h-45z" />
    <glyph glyph-name="bracketright" unicode="]" horiz-adv-x="307" 
d="M86 -297v45h107v1755h-103v45h150v-1845h-154z" />
    <glyph glyph-name="asciicircum" unicode="^" 
d="M63 1235l103 221h45l102 -221h-45l-80 174l-77 -174h-48z" />
    <glyph glyph-name="underscore" unicode="_" horiz-adv-x="288" 
d="M-25 -190v43h340v-43h-340z" />
    <glyph glyph-name="grave" unicode="`" 
d="M188 1235l-96 221h51l90 -221h-45z" />
    <glyph glyph-name="a" unicode="a" horiz-adv-x="370" 
d="M160 -6q-84 0 -103.5 74t-19.5 297q0 75 1 119.5t4 95t9 77.5t17.5 57t27 43.5t39 27t53.5 18t70 6.5v78q0 43 -0.5 62t-2.5 46t-6.5 37t-13 22t-21.5 15.5t-32 3.5q-46 0 -102 -14l-12 45q47 14 114 14q23 0 40.5 -3t30.5 -12t22 -17t14.5 -26.5t9 -31t5 -41t1.5 -46
v-54.5v-748q0 -58 9 -75t42 -17v-47h-10q-38 0 -55.5 14t-22.5 47q-25 -67 -108 -67zM164 39q35 0 54.5 15t28 64t10 94t1.5 153v397q-33 -1 -55.5 -3.5t-42 -12t-31 -20t-21 -35.5t-13.5 -48.5t-7 -70.5t-3.5 -90t-0.5 -117t1 -119.5t4 -86t8 -61t14.5 -35.5t21.5 -19.5
t31 -4.5z" />
    <glyph glyph-name="b" unicode="b" horiz-adv-x="409" 
d="M219 -8q-94 0 -121 69l-6 -63l-33 2v1548h47v-493q25 63 113 63q73 0 107 -37q32 -35 38.5 -127.5t6.5 -394.5q0 -303 -6.5 -398.5t-38.5 -129.5q-34 -39 -107 -39zM217 37q77 0 92 79t15 443q0 350 -15 432t-92 82t-94 -89.5t-17 -424.5q0 -352 17 -437t94 -85z" />
    <glyph glyph-name="c" unicode="c" horiz-adv-x="286" 
d="M188 -8q-66 0 -100 39q-35 39 -42 131.5t-7 396.5q0 299 7.5 389.5t43.5 130.5q33 39 98 39q47 0 82 -12l-16 -43q-33 10 -66 10q-73 0 -87.5 -88t-14.5 -426q0 -351 14.5 -436.5t87.5 -85.5q38 0 68 12l16 -39q-41 -18 -84 -18z" />
    <glyph glyph-name="d" unicode="d" horiz-adv-x="409" 
d="M190 -8q-72 0 -106 37q-32 36 -38.5 128.5t-6.5 393.5q0 303 6.5 398.5t38.5 129.5q34 39 106 39q88 0 113 -57v487h47v-1546l-33 -2l-6 72q-26 -80 -121 -80zM193 37q76 0 93 89t17 425q0 353 -16.5 437.5t-93.5 84.5t-92 -79t-15 -443q0 -352 15 -433t92 -81z" />
    <glyph glyph-name="e" unicode="e" horiz-adv-x="329" 
d="M188 -8q-66 0 -100 39q-35 40 -42 132t-7 396t5.5 393t33.5 127q27 39 88 39q65 0 92 -39q26 -35 31.5 -125t5.5 -395v-20h-209q0 -332 15.5 -417t86.5 -85q37 0 74 22l25 -39q-46 -28 -99 -28zM166 1073q-56 0 -68 -80.5t-12 -408.5h162q0 337 -11.5 413t-70.5 76z" />
    <glyph glyph-name="f" unicode="f" horiz-adv-x="249" 
d="M23 1065v45h71v264q0 93 29 133.5t106 40.5h7v-47h-5q-55 0 -72.5 -27.5t-17.5 -99.5v-264h95v-45h-95v-1065h-47v1065h-71z" />
    <glyph glyph-name="g" unicode="g" horiz-adv-x="380" 
d="M190 391q-28 0 -40 2q-29 -42 -29 -84q0 -39 18 -58.5t72 -39.5q59 -22 88.5 -46t45 -72.5t15.5 -133.5q0 -57 -3 -94t-13 -73t-28.5 -56.5t-50.5 -32.5t-77 -12t-76 13t-49 33.5t-27.5 57t-12.5 73t-3 91.5q0 101 22.5 152.5t82.5 91.5q-49 33 -49 106q0 55 33 101
q-39 26 -49.5 99t-10.5 247q0 79 1.5 125.5t6 92.5t13.5 69t25 42t38 25t55 6q35 0 56 -8l116 8v-43h-67q23 -35 31 -106.5t8 -212.5q0 -78 -1.5 -126.5t-6.5 -93.5t-14.5 -69t-25.5 -42.5t-38.5 -25t-55.5 -6.5zM190 434q62 0 78.5 61.5t16.5 258.5q0 69 -1 111.5t-4.5 82
t-10 60.5t-17.5 37.5t-26.5 22t-37.5 5.5q-62 0 -77 -60t-15 -257q0 -201 15.5 -261.5t78.5 -60.5zM193 172q-6 1 -15 4l-12 4q-60 -38 -79 -84.5t-19 -136.5q0 -59 3.5 -94.5t15.5 -67t36.5 -45.5t64.5 -14q35 0 58 10t36.5 25.5t20 46t8.5 60t2 79.5q0 102 -22 144t-98 69
z" />
    <glyph glyph-name="h" unicode="h" horiz-adv-x="413" 
d="M59 0v1548h47v-489q32 59 113 59q25 0 44.5 -3t33.5 -12t24 -17t16 -26t9.5 -30.5t5 -40t2 -44t0.5 -52.5v-6v-887h-47v887v48.5t-1.5 39t-3.5 33t-6.5 24t-10.5 19.5t-16 11.5t-22.5 8.5t-29.5 2q-66 0 -88.5 -53t-22.5 -176v-844h-47z" />
    <glyph glyph-name="i" unicode="i" horiz-adv-x="174" 
d="M63 0v1110h48v-1110h-48zM63 1288v164h48v-164h-48z" />
    <glyph glyph-name="j" unicode="j" horiz-adv-x="174" 
d="M27 -297v47q25 1 30.5 11t5.5 42v1307h48v-1305q0 -24 -2.5 -39t-10 -31t-25.5 -24t-46 -8zM63 1288v164h48v-164h-48z" />
    <glyph glyph-name="k" unicode="k" horiz-adv-x="333" 
d="M59 0v1548h47v-1024l152 586h45l-127 -481l158 -629h-47l-135 537l-46 -179v-358h-47z" />
    <glyph glyph-name="l" unicode="l" horiz-adv-x="208" 
d="M166 0q-65 0 -84 32t-19 107v1409h48v-1409q0 -59 10 -75.5t47 -16.5h4v-47h-6z" />
    <glyph glyph-name="m" unicode="m" horiz-adv-x="645" 
d="M59 0v1104l33 2l6 -62q28 74 117 74q50 0 78 -16t41 -60q28 76 121 76q22 0 39.5 -3.5t30.5 -7.5t23 -16t16.5 -19t10.5 -27.5t6.5 -30.5t3.5 -38t1 -41v-48v-887h-47v887v48.5t-1 39t-3.5 33t-6.5 24t-10 19.5t-15 11.5t-21.5 8.5t-28.5 2q-64 0 -85.5 -55.5
t-21.5 -173.5v-844h-47v887v48.5t-1 39t-3.5 33t-6.5 24t-10 19.5t-15 11.5t-21.5 8.5t-28.5 2q-64 0 -85.5 -55t-21.5 -172v-846h-47z" />
    <glyph glyph-name="n" unicode="n" horiz-adv-x="413" 
d="M59 0v1104l33 2l6 -62q27 74 121 74q25 0 44.5 -3t33.5 -12t24 -17t16 -26t9.5 -30.5t5 -40t2 -44t0.5 -52.5v-6v-887h-47v887v48.5t-1.5 39t-3.5 33t-6.5 24t-10.5 19.5t-16 11.5t-22.5 8.5t-29.5 2q-66 0 -88.5 -53t-22.5 -176v-844h-47z" />
    <glyph glyph-name="o" unicode="o" horiz-adv-x="393" 
d="M197 -8q-73 0 -109 41q-35 39 -42 132t-7 394q0 299 7.5 389.5t43.5 130.5q36 39 107 39q72 0 108 -39q35 -39 42 -129.5t7 -390.5q0 -301 -7 -393.5t-42 -132.5q-36 -41 -108 -41zM197 37q80 0 95 78.5t15 431.5v12q0 326 -10 401q-11 85 -50 104q-18 9 -50 9
q-80 0 -95.5 -82.5t-15.5 -431.5q0 -361 15.5 -441.5t95.5 -80.5z" />
    <glyph glyph-name="p" unicode="p" horiz-adv-x="409" 
d="M59 -297v1401l33 2l6 -68q26 80 121 80q73 0 107 -37q32 -35 38.5 -127.5t6.5 -394.5q0 -303 -6.5 -398.5t-38.5 -129.5q-34 -39 -107 -39q-90 0 -113 57v-346h-47zM217 37q77 0 92 79t15 443q0 350 -15 432t-92 82t-94 -89.5t-17 -424.5q0 -352 17 -437t94 -85z" />
    <glyph glyph-name="q" unicode="q" horiz-adv-x="409" 
d="M303 -297v348q-33 -59 -113 -59q-72 0 -106 37q-31 34 -38 123t-7 399q0 303 6.5 398.5t38.5 129.5q34 39 106 39q101 0 121 -71l6 61l33 -2v-1403h-47zM193 37q76 0 93 89t17 425q0 353 -16.5 437.5t-93.5 84.5t-92 -79t-15 -443q0 -352 15 -433t92 -81z" />
    <glyph glyph-name="r" unicode="r" horiz-adv-x="233" 
d="M59 0v1104l33 2l6 -74q27 82 119 82v-45q-44 0 -66.5 -24t-33.5 -90.5t-11 -196.5v-758h-47z" />
    <glyph glyph-name="s" unicode="s" horiz-adv-x="288" 
d="M119 -8q-54 0 -99 10l11 45q50 -10 88 -10q41 0 62.5 16t28.5 58t-11 114l-152 676q-24 101 4.5 159t110.5 58q49 0 82 -8l-11 -43q-27 6 -71 6q-110 0 -70 -164l152 -673q56 -244 -125 -244z" />
    <glyph glyph-name="t" unicode="t" horiz-adv-x="262" 
d="M231 0q-78 0 -107.5 35t-29.5 119v911h-71v45h71l4 311l43 21v-332h95v-45h-95v-911q0 -63 17 -85t73 -22h5v-47h-5z" />
    <glyph glyph-name="u" unicode="u" horiz-adv-x="401" 
d="M201 -8q-30 0 -52.5 6.5t-37.5 15t-25 27t-15.5 33.5t-8 44.5t-3 49t-0.5 57.5v885h47v-885q0 -40 0.5 -59.5t3 -46t8.5 -38t16.5 -24t27 -16.5t39.5 -4q24 0 41 4t28 17t17 24t8.5 38t3 45.5t0.5 59.5v885h45v-885v-42.5t-1 -37.5t-3 -35.5t-5.5 -29.5t-8.5 -27t-13 -21
t-18.5 -17.5t-24 -12t-31 -8.5t-38.5 -2z" />
    <glyph glyph-name="v" unicode="v" horiz-adv-x="307" 
d="M127 -2l-117 1112h45l78 -772l21 -234l20 234l80 772h43l-117 -1112h-53z" />
    <glyph glyph-name="w" unicode="w" horiz-adv-x="550" 
d="M125 -2l-117 1112h45l76 -752l21 -235l20 233l82 754h49l82 -760l18 -223l19 223l80 760h43l-117 -1112h-49l-86 797l-17 192l-16 -194l-84 -795h-49z" />
    <glyph glyph-name="x" unicode="x" horiz-adv-x="317" 
d="M0 0l135 600l-115 510h46l94 -422l94 422h43l-117 -512l137 -598h-45l-114 506l-113 -506h-45z" />
    <glyph glyph-name="y" unicode="y" horiz-adv-x="307" 
d="M53 -297v47h4q34 0 45.5 11t14.5 40l16 154l-123 1155h45l80 -772l19 -223l20 229l80 766h43l-139 -1321q-8 -86 -103 -86h-2z" />
    <glyph glyph-name="z" unicode="z" horiz-adv-x="299" 
d="M31 0v45l194 1020h-184v45h227v-45l-194 -1020h192v-45h-235z" />
    <glyph glyph-name="braceleft" unicode="{" horiz-adv-x="329" 
d="M236 -297q-42 0 -64.5 5.5t-40 24.5t-23.5 55t-6 99q0 75 19.5 319t19.5 304t-15 77t-67 17v43q52 0 67 17t15 77t-19.5 304t-19.5 319q0 63 6 99t23.5 55t40 24.5t64.5 5.5h26v-45h-26q-36 0 -52.5 -8.5t-25 -38t-8.5 -92.5q0 -66 19 -310t19 -313q0 -52 -9.5 -77.5
t-35.5 -38.5q45 -16 45 -115q0 -69 -19 -313t-19 -310q0 -63 8.5 -92.5t25 -38t52.5 -8.5h26v-45h-26z" />
    <glyph glyph-name="bar" unicode="|" horiz-adv-x="210" 
d="M82 -297v1845h47v-1845h-47z" />
    <glyph glyph-name="braceright" unicode="}" horiz-adv-x="329" 
d="M68 -297v45h26q36 0 52.5 8.5t25 38t8.5 92.5q0 66 -19.5 310t-19.5 313q0 99 45 115q-26 13 -35.5 38.5t-9.5 77.5q0 69 19.5 313t19.5 310q0 63 -8.5 92.5t-25 38t-52.5 8.5h-26v45h26q56 0 81.5 -11.5t38.5 -50.5t13 -122q0 -75 -19.5 -319t-19.5 -304t15 -77t67 -17
v-43q-52 0 -67 -17t-15 -77t19.5 -304t19.5 -319q0 -83 -13 -122t-38.5 -50.5t-81.5 -11.5h-26z" />
    <glyph glyph-name="asciitilde" unicode="~" 
d="M63 909q0 101 62 101q26 0 70 -30t55 -30q12 0 15 11.5t3 46.5h45q0 -59 -14 -80t-47 -21q-26 0 -70 30t-55 30q-18 0 -18 -58h-46z" />
    <glyph glyph-name="exclamdown" unicode="&#xa1;" horiz-adv-x="249" 
d="M94 0l10 1124h39l11 -1124h-60zM98 1395v123h58v-123h-58z" />
    <glyph glyph-name="cent" unicode="&#xa2;" horiz-adv-x="327" 
d="M174 -199v193q-50 7 -74 37q-35 39 -42 131.5t-7 396.5q0 299 7.5 389.5t43.5 130.5q24 30 72 37v195h45v-193q37 -3 64 -12l-17 -43q-33 10 -65 10q-73 0 -88 -88.5t-15 -425.5q0 -350 15 -436t88 -86q37 0 67 12l17 -39q-35 -16 -66 -18v-191h-45z" />
    <glyph glyph-name="sterling" unicode="&#xa3;" horiz-adv-x="372" 
d="M221 -2q-45 0 -90 27q-28 -25 -108 -25v45q74 0 85.5 24t4.5 146v6l-33 535h-55v45h51l-33 532q-6 98 26.5 144.5t106.5 46.5q67 0 123 -23l-18 -41q-47 19 -105 19q-54 0 -71.5 -37t-14.5 -101l33 -540h141v-45h-137l33 -533q7 -127 -4 -164q33 -16 65 -16q37 0 47.5 22
t10.5 99v74h47v-74q0 -101 -22 -133.5t-83 -32.5z" />
    <glyph glyph-name="currency" unicode="&#xa4;" horiz-adv-x="393" 
d="M25 809v43h75q0 340 6.5 446t34.5 158q38 68 131 68q42 0 76 -6l-8 -43q-40 4 -68 4q-61 0 -84 -41q-32 -55 -38 -264q-3 -96 -3 -322h164v-43h-164v-107h164v-43h-164q0 -226 3 -335t17.5 -182t36 -89t66.5 -16q35 0 66 8l12 -41q-38 -12 -78 -12q-46 0 -77 13t-52 54
q-29 57 -35 158.5t-6 441.5h-75v43h75v107h-75z" />
    <glyph glyph-name="yen" unicode="&#xa5;" horiz-adv-x="360" 
d="M47 393v43h109v160l-109 922h45l88 -809l90 809h43l-110 -938v-144h110v-43h-110v-106h110v-43h-110v-244h-47v244h-109v43h109v106h-109z" />
    <glyph glyph-name="brokenbar" unicode="&#xa6;" horiz-adv-x="210" 
d="M82 784v764h47v-764h-47zM82 -297v764h47v-764h-47z" />
    <glyph glyph-name="section" unicode="&#xa7;" horiz-adv-x="393" 
d="M84 0v47q58 0 76 26.5t18 100.5v186q-46 3 -69 29q-32 30 -41 114.5t-9 289.5q0 199 8.5 280t38.5 113q25 25 70 28v129q0 94 30 134.5t111 40.5v-48q-58 0 -76 -26.5t-18 -100.5v-129q39 -3 64 -28q29 -32 38 -115.5t9 -277.5q0 -206 -10 -291.5t-43 -116.5
q-18 -18 -56 -25v-186q0 -94 -30 -134t-111 -40zM197 406q61 0 75.5 67t14.5 320q0 249 -14.5 313.5t-75.5 64.5q-22 0 -36 -5t-25 -22.5t-16.5 -40t-8.5 -70.5t-4 -99.5t-1 -140.5q0 -90 1 -142.5t4 -101.5t8.5 -72.5t16.5 -42t25 -23.5t36 -5z" />
    <glyph glyph-name="dieresis" unicode="&#xa8;" 
d="M94 1235v123h47v-123h-47zM238 1235v123h47v-123h-47z" />
    <glyph glyph-name="copyright" unicode="&#xa9;" horiz-adv-x="507" 
d="M268 238q-48 0 -69 24q-33 33 -42.5 135.5t-9.5 350.5t9 347.5t43 135.5q26 26 69 26q41 0 74 -8l-10 -45q-38 6 -64 6q-50 0 -61.5 -84t-11.5 -378q0 -299 11.5 -382t61.5 -83q29 0 62 10l12 -43q-38 -12 -74 -12zM264 -8q-83 0 -127 39q-61 54 -81.5 211t-20.5 518
q0 339 18 494t70 216q46 54 141 54q96 0 142 -54q52 -61 70 -216t18 -494q0 -356 -20.5 -514t-80.5 -213q-44 -41 -129 -41zM264 35q41 0 68 11t49 43.5t34 81t20.5 134t11 191.5t2.5 264t-2.5 263.5t-11 191t-20.5 133.5t-34 80t-49 42.5t-68 10.5t-68 -10.5t-49 -43
t-34 -80t-20 -133t-10.5 -190.5t-2.5 -264t2.5 -264.5t10.5 -191.5t20 -134t34 -80.5t49 -43.5t68 -11z" />
    <glyph glyph-name="ordfeminine" unicode="&#xaa;" horiz-adv-x="362" 
d="M160 608q-25 0 -42 6.5t-28.5 24.5t-18 38t-9.5 59.5t-4 75t-1 97.5q0 61 0.5 98t3.5 78t8 63.5t14 46.5t21.5 35.5t32 22t43 14.5t56.5 5v63q0 99 -8 119q-10 27 -50 27q-47 0 -86 -13l-10 43q35 13 96 13q30 0 49.5 -8.5t30.5 -21.5t16.5 -39.5t7 -51t1.5 -68.5v-608
q0 -45 7.5 -57.5t33.5 -12.5v-45h-17q-31 0 -44.5 10.5t-18.5 36.5q-6 -18 -15.5 -29.5t-23 -15.5t-22.5 -5t-23 -1zM164 651q51 0 61.5 51t10.5 230v35v260q-97 -3 -115.5 -51t-18.5 -267q0 -173 9.5 -215.5t52.5 -42.5zM78 440v47h211v-47h-211z" />
    <glyph glyph-name="guillemotleft" unicode="&#xab;" horiz-adv-x="413" 
d="M170 0l-94 555l94 555h45l-94 -555l94 -555h-45zM293 0l-94 555l94 555h45l-94 -555l94 -555h-45z" />
    <glyph glyph-name="logicalnot" unicode="&#xac;" horiz-adv-x="1703" 
d="M258 246q-88 105 -136 237t-48 277q0 144 48 276t136 236q6 -4 14 -12q-85 -103 -131.5 -231.5t-46.5 -268.5q0 -285 180 -500zM467 432q-117 143 -117 328q0 183 115 327q3 -2 8 -7t8 -7q-110 -136 -110 -313q0 -182 110 -314zM541 498q-92 116 -92 262t92 262
q3 -2 8 -7t8 -7q-88 -109 -88 -248t88 -248q-3 -2 -8 -7t-8 -7zM647 592q-57 72 -57 168q0 97 57 166l15 -15q-52 -69 -52 -151q0 -84 54 -154q-3 -2 -8.5 -7t-8.5 -7zM715 655q-33 48 -33 105q0 56 33 104q3 -2 8 -7t8 -7q-29 -44 -29 -90t29 -90q-3 -2 -16 -15zM774 709
q-14 25 -14 51t14 51l12 -10q-10 -20 -10 -41t10 -41q-4 -4 -12 -10zM852 123q-236 0 -412 158l2.5 2.5l5 5l5.5 5.5t2 1q171 -152 397 -152q227 0 395 152q2 -3 7.5 -8t7.5 -8q-177 -156 -410 -156zM852 664q-31 0 -55 18l12 12q21 -14 43 -14q26 0 43 14q4 -4 10 -12
q-21 -18 -53 -18zM987 653q-7 10 -14 15q28 42 28 92q0 51 -28 90l2.5 2.5t5 4.5t5.5 5t1 2q35 -44 35 -104t-35 -107zM598 551q-72 91 -72 209q0 119 74 209l14 -15q-67 -87 -67 -194q0 -108 67 -195q-10 -10 -16 -14zM852 -35q-145 0 -278 52.5t-238 146.5l14 16
q102 -92 231 -143t271 -51q285 0 500 192q0 1 3.5 -2.5t6.5 -7.5l4 -4q-104 -95 -236 -147t-278 -52zM852 248q-189 0 -330 125l15 16q134 -121 315 -121q182 0 313 121q2 -3 7.5 -8t7.5 -8q-138 -125 -328 -125zM852 348q-145 0 -264 101l14 14q108 -94 250 -94
q143 0 248 94q2 -3 7 -8.5t7 -8.5q-112 -98 -262 -98zM852 428q-116 0 -211 78l14 16q86 -73 197 -73t197 73q4 -4 12 -16q-91 -78 -209 -78zM852 543q-77 0 -135 49l14 16q51 -45 121 -45q68 0 119 45q2 -3 7 -8t7 -8q-58 -49 -133 -49zM733 911q-4 3 -7 6.5t-6 6.5l-3 4
q58 49 135 49t135 -49l-16 -17q-51 45 -119 45t-119 -45zM1167 1130q-134 121 -315 121q-179 0 -313 -118l-15 14q141 125 328 125q189 0 330 -125q-4 -6 -15 -17zM930 709l-12 10q10 20 10 41t-10 41l12 10q14 -25 14 -51t-14 -51zM958 682q-10 10 -16 14q21 32 21 64
t-21 63l16 15q25 -36 25 -78t-25 -78zM1020 627q-6 4 -16 14q38 50 38 119t-38 119l14 14q45 -57 45 -133q0 -71 -43 -133zM1106 551q-3 2 -8 7t-8 7q67 87 67 195t-70 194l17 15q74 -90 74 -209q0 -118 -72 -209zM1163 498q-10 10 -16 14q88 109 88 248t-88 248l16 14
q92 -116 92 -262t-92 -262zM1237 432q-6 4 -16 14q112 134 112 314q0 182 -112 313l16 14q117 -139 117 -327q0 -189 -117 -328zM1329 350q-2 2 -7 6t-7 6q141 175 141 398q0 227 -143 395l16 14q148 -179 148 -409q0 -231 -148 -410zM1446 246q-6 6 -16 14q180 215 180 500
t-180 500l16 14q88 -105 136 -237t48 -277q0 -144 -48 -276t-136 -238zM375 348q-148 182 -148 412q0 229 146 409q2 -2 7.5 -6.5t8.5 -7.5q-141 -170 -141 -395q0 -228 141 -398zM684 627q-43 59 -43 133t43 133q6 -4 16 -14q-38 -50 -38 -119q0 -67 38 -117zM745 682
q-24 34 -24 78t24 78q2 -3 4.5 -5.5t6 -5.5t4.5 -4q-19 -34 -19 -63q0 -30 19 -64zM809 825l-10 13q21 18 53 18t53 -18l-10 -13q-23 15 -43 15q-25 0 -43 -15zM786 852l-14 14q37 29 80 29q41 0 78 -29q-8 -8 -12 -14q-28 25 -66 25q-34 0 -66 -25zM760 881l-15 16
q45 39 107 39q61 0 106 -39l-14 -16q-37 34 -92 34t-92 -34zM604 1057l-14 16q112 98 262 98q151 0 262 -100q1 0 -2 -3.5t-6 -7.5l-4 -3q-108 94 -250 94q-143 0 -248 -94zM852 492q-100 0 -170 61l14 16q70 -57 156 -57q87 0 154 57l14 -14q-73 -63 -168 -63zM852 584
q-61 0 -109 39l15 16q47 -35 94 -35q51 0 92 35l14 -16q-45 -39 -106 -39zM852 625q-43 0 -82 28l14 15q36 -25 68 -25q34 0 66 25l14 -15q-36 -28 -80 -28zM698 950l-14 15q73 63 168 63q98 0 168 -61l-14 -17q-68 58 -154 58q-87 0 -154 -58zM655 997l-14 17q91 78 211 78
q119 0 209 -80l-12 -15q-83 74 -197 74q-110 0 -197 -74zM1249 1223q-166 153 -397 153q-227 0 -397 -151l-15 14q179 158 412 158t412 -158zM352 1339l-14 17q104 95 236 146.5t278 51.5q145 0 278 -52t238 -146l-14 -17q-102 93 -231 144t-271 51t-270 -51t-230 -144z
M1057 594l-15 14q52 69 52 152t-54 153l17 15q57 -72 57 -168q0 -97 -57 -166z" />
    <glyph glyph-name="registered" unicode="&#xae;" horiz-adv-x="507" 
d="M264 -8q-83 0 -127 39q-61 54 -81.5 211t-20.5 518q0 339 18 494t70 216q46 54 141 54q96 0 142 -54q52 -61 70 -216t18 -494q0 -356 -20.5 -514t-80.5 -213q-44 -41 -129 -41zM264 35q41 0 68 11t49 43.5t34 81t20.5 134t11 191.5t2.5 264t-2.5 263.5t-11 191
t-20.5 133.5t-34 80t-49 42.5t-68 10.5t-68 -10.5t-49 -43t-34 -80t-20 -133t-10.5 -190.5t-2.5 -264t2.5 -264.5t10.5 -191.5t20 -134t34 -80.5t49 -43.5t68 -11zM311 248l-73 457h-29v-457h-47v1009h92q34 0 56 -12t34 -29.5t18 -57.5t7.5 -75t1.5 -102q0 -144 -14.5 -203
t-69.5 -71l71 -459h-47zM209 752h45q17 0 29.5 5t20.5 19t12.5 28.5t6.5 45.5t2.5 57t0.5 74t-0.5 74t-2.5 57t-6.5 46t-12.5 29.5t-20.5 19.5t-29.5 5h-45v-460z" />
    <glyph glyph-name="macron" unicode="&#xaf;" 
d="M78 1235v43h223v-43h-223z" />
    <glyph glyph-name="macron" unicode="&#x2c9;" 
d="M78 1235v43h223v-43h-223z" />
    <glyph glyph-name="degree" unicode="&#xb0;" horiz-adv-x="376" 
d="M188 616q-58 0 -88 33q-27 32 -33 107t-6 317q0 241 6 314t35 106q31 31 86 31q57 0 88 -31q28 -32 33.5 -105.5t5.5 -314.5q0 -242 -5.5 -316.5t-33.5 -107.5q-30 -33 -88 -33zM188 662q58 0 69 62.5t11 348.5q0 285 -11 345.5t-69 60.5t-68.5 -58.5t-10.5 -334.5v-13
v-13q0 -277 11 -337.5t68 -60.5z" />
    <glyph glyph-name="plusminus" unicode="&#xb1;" horiz-adv-x="677" 
d="M313 0v1065h-172v-1065h-47v1065h-71v45h71v264q0 93 29 133.5t106 40.5h7v-47h-5q-55 0 -72.5 -27.5t-17.5 -99.5v-264h172v264q0 93 29.5 133.5t106.5 40.5h6v-47h-4q-55 0 -73 -27.5t-18 -99.5v-264h95v-45h-95v-1065h-47zM635 0q-65 0 -84 32t-19 107v1409h48v-1409
q0 -59 10 -75.5t47 -16.5h4v-47h-6z" />
    <glyph glyph-name="twosuperior" unicode="&#xb2;" horiz-adv-x="321" 
d="M74 639v43l119 692q4 18 4 47q0 58 -52 58q-37 0 -59 -11l-20 39q29 15 79 15q55 0 77 -22.5t22 -69.5q0 -30 -6 -64l-119 -684h121v-43h-166z" />
    <glyph glyph-name="threesuperior" unicode="&#xb3;" horiz-adv-x="323" 
d="M131 635q-37 0 -72 12l17 41q33 -10 55 -10q42 0 50.5 33t8.5 170q0 162 -8 191t-36 33q-9 1 -25 1h-27v43h31q43 0 51 27.5t8 156.5q0 95 -7.5 119.5t-43.5 24.5q-23 0 -53 -9l-12 41q36 11 65 11q53 0 74 -21q8 -9 13 -21t7 -38.5t2 -42.5v-64q0 -60 -0.5 -81t-3 -52.5
t-8 -45.5t-16.5 -24q24 -15 29.5 -59.5t5.5 -166.5v-23q0 -117 -4.5 -161.5t-24.5 -64.5q-23 -20 -76 -20z" />
    <glyph glyph-name="acute" unicode="&#xb4;" 
d="M145 1235l91 221h51l-97 -221h-45z" />
    <glyph glyph-name="mu" unicode="&#xb5;" horiz-adv-x="401" 
d="M59 -297v1407h47v-866q0 -57 2.5 -88t11.5 -62t28.5 -44t52.5 -13q27 0 45.5 10t29 25t15.5 44t6.5 56t1.5 72v866h45v-866q0 -93 -8.5 -143.5t-38.5 -77.5q-34 -31 -96 -31q-71 0 -95 41v-330h-47z" />
    <glyph glyph-name="mu" unicode="&#x3bc;" horiz-adv-x="401" 
d="M59 -297v1407h47v-866q0 -57 2.5 -88t11.5 -62t28.5 -44t52.5 -13q27 0 45.5 10t29 25t15.5 44t6.5 56t1.5 72v866h45v-866q0 -93 -8.5 -143.5t-38.5 -77.5q-34 -31 -96 -31q-71 0 -95 41v-330h-47z" />
    <glyph glyph-name="paragraph" unicode="&#xb6;" 
d="M172 0v680q-24 3 -42 11.5t-32 24.5t-23.5 32.5t-15.5 47t-10 56.5t-5.5 71t-2 80t-0.5 95q0 74 1 116.5t4 94t10 79t18.5 56.5t29.5 42.5t43.5 22.5t59.5 9h106v-1518h-47v678h-47v-678h-47zM209 723h57v750h-57q-30 0 -50.5 -8t-34 -31.5t-21 -46.5t-11 -75t-4 -92.5
t-0.5 -121.5t0.5 -121.5t4 -92.5t11 -75t21 -46.5t34 -31.5t50.5 -8z" />
    <glyph glyph-name="periodcentered" unicode="&#xb7;" horiz-adv-x="163" 
d="M53 600v123h58v-123h-58z" />
    <glyph glyph-name="periodcentered" unicode="&#x2219;" horiz-adv-x="163" 
d="M53 600v123h58v-123h-58z" />
    <glyph glyph-name="cedilla" unicode="&#xb8;" 
d="M207 -338q-35 0 -70 12l15 43q23 -10 55 -10q38 0 47.5 15.5t9.5 78.5q0 46 -11.5 57.5t-39.5 8.5l-33 22l23 127h41l-21 -110q47 6 67.5 -18t20.5 -87q0 -86 -19.5 -112.5t-84.5 -26.5z" />
    <glyph glyph-name="onesuperior" unicode="&#xb9;" horiz-adv-x="284" 
d="M131 639v836h-59v43h104v-879h-45z" />
    <glyph glyph-name="ordmasculine" unicode="&#xba;" horiz-adv-x="356" 
d="M70 436v47h223v-47h-223zM178 600q-62 0 -88 33q-29 33 -35 109t-6 323q0 245 6.5 319t36.5 107q26 33 86 33t90 -33q28 -32 33.5 -106t5.5 -320q0 -247 -5.5 -323t-33.5 -109q-30 -33 -90 -33zM178 645q60 0 71 62.5t11 357.5q0 281 -11.5 347.5t-70.5 66.5t-70.5 -66.5
t-11.5 -347.5q0 -295 11 -357.5t71 -62.5z" />
    <glyph glyph-name="guillemotright" unicode="&#xbb;" horiz-adv-x="413" 
d="M76 0l94 555l-94 555h45l94 -555l-94 -555h-45zM199 0l94 555l-94 555h45l94 -555l-94 -555h-45z" />
    <glyph glyph-name="onequarter" unicode="&#xbc;" horiz-adv-x="491" 
d="M102 0l211 1518h45l-211 -1518h-45zM252 182v43l133 654h41l-131 -654h74l12 254h31v-254h51v-43h-51v-182h-43v182h-117zM96 639v836h-59v43h104v-879h-45z" />
    <glyph glyph-name="onehalf" unicode="&#xbd;" horiz-adv-x="512" 
d="M102 0l211 1518h45l-211 -1518h-45zM96 639v836h-59v43h104v-879h-45zM301 0v43l119 692q4 18 4 47t-11.5 43.5t-39.5 14.5q-38 0 -60 -11l-20 39q29 15 80 15q55 0 76.5 -22.5t21.5 -69.5q0 -30 -6 -64l-119 -684h121v-43h-166z" />
    <glyph glyph-name="threequarters" unicode="&#xbe;" horiz-adv-x="542" 
d="M154 0l211 1518h45l-211 -1518h-45zM303 182v43l133 654h41l-131 -654h74l12 254h31v-254h51v-43h-51v-182h-43v182h-117zM94 635q-36 0 -71 12l16 41q33 -10 55 -10q42 0 51 33.5t9 169.5q0 162 -9.5 193.5t-60.5 31.5h-27v43h31q43 0 51 27.5t8 156.5q0 95 -7.5 119.5
t-43.5 24.5q-23 0 -53 -9l-12 41q36 11 65 11q53 0 74 -21q16 -17 19.5 -50.5t3.5 -115.5q0 -103 -4.5 -143.5t-24.5 -59.5q24 -15 29.5 -59.5t5.5 -166.5v-23q0 -117 -4.5 -161.5t-24.5 -64.5q-23 -20 -76 -20z" />
    <glyph glyph-name="questiondown" unicode="&#xbf;" horiz-adv-x="327" 
d="M178 -6q-40 0 -68 11t-42.5 33t-22 45.5t-7 57.5t3.5 59.5t9 61.5l88 526q6 32 9.5 65t5.5 56t3 58.5t1 50.5v55v51h47v-53v-57t-1 -51.5t-3 -60t-5.5 -57.5t-9.5 -67l-88 -528q-8 -60 -10.5 -107t19.5 -75.5t71 -28.5q60 0 105 18l18 -41q-55 -22 -123 -22zM147 1395
v123h58v-123h-58z" />
    <glyph glyph-name="Agrave" unicode="&#xc0;" horiz-adv-x="382" 
d="M16 0l152 1522h47l152 -1522h-45l-43 430h-179l-41 -430h-43zM170 1122l-66 -649h170l-63 649l-21 262zM190 1614l-96 221h51l90 -221h-45z" />
    <glyph glyph-name="Aacute" unicode="&#xc1;" horiz-adv-x="382" 
d="M16 0l152 1522h47l152 -1522h-45l-43 430h-179l-41 -430h-43zM170 1122l-66 -649h170l-63 649l-21 262zM147 1614l91 221h51l-97 -221h-45z" />
    <glyph glyph-name="Acircumflex" unicode="&#xc2;" horiz-adv-x="382" 
d="M16 0l152 1522h47l152 -1522h-45l-43 430h-179l-41 -430h-43zM170 1122l-66 -649h170l-63 649l-21 262zM65 1614l103 221h45l102 -221h-45l-80 174l-77 -174h-48z" />
    <glyph glyph-name="Atilde" unicode="&#xc3;" horiz-adv-x="382" 
d="M16 0l152 1522h47l152 -1522h-45l-43 430h-179l-41 -430h-43zM170 1122l-66 -649h170l-63 649l-21 262zM65 1614q0 100 62 100q26 0 70 -29.5t55 -29.5q12 0 15 11t3 46h45q0 -59 -14 -79.5t-47 -20.5q-26 0 -70 29.5t-55 29.5q-18 0 -18 -57h-46z" />
    <glyph glyph-name="Adieresis" unicode="&#xc4;" horiz-adv-x="382" 
d="M16 0l152 1522h47l152 -1522h-45l-43 430h-179l-41 -430h-43zM170 1122l-66 -649h170l-63 649l-21 262zM96 1614v123h47v-123h-47zM240 1614v123h47v-123h-47z" />
    <glyph glyph-name="Aring" unicode="&#xc5;" horiz-adv-x="382" 
d="M16 0l148 1485q-18 4 -29 15t-16 30t-6.5 38.5t-1.5 51.5q0 75 14 107t65 32t65.5 -32.5t14.5 -106.5q0 -62 -10.5 -94.5t-42.5 -40.5l150 -1485h-45l-43 430h-179l-41 -430h-43zM170 1122l-66 -649h170l-63 649l-21 262zM190 1524q23 0 30 18t7 78t-7 79t-30 19
t-29.5 -18.5t-6.5 -79.5t6.5 -78.5t29.5 -17.5z" />
    <glyph glyph-name="AE" unicode="&#xc6;" horiz-adv-x="579" 
d="M0 0l238 1518h290v-45h-204v-668h186v-45h-186v-715h206v-45h-254v428h-163l-68 -428h-45zM119 471h157v1008z" />
    <glyph glyph-name="Ccedilla" unicode="&#xc7;" horiz-adv-x="315" 
d="M176 -338q-36 0 -70 12l15 43q23 -10 55 -10q38 0 47.5 15.5t9.5 78.5q0 46 -11.5 57.5t-39.5 8.5l-32 22l18 105q-62 11 -86 65q-30 62 -35.5 169.5t-5.5 529.5q0 416 6 530t35 168q38 68 131 68q54 0 96 -11l-8 -43q-45 9 -88 9q-60 0 -84 -38q-32 -53 -38 -254
q-3 -104 -3 -429q0 -466 14 -579q13 -107 52 -130q20 -12 57 -12q40 0 86 12l12 -41q-50 -16 -98 -16h-2l-16 -86q47 6 67.5 -18t20.5 -87q0 -86 -20 -112.5t-85 -26.5z" />
    <glyph glyph-name="Egrave" unicode="&#xc8;" horiz-adv-x="368" 
d="M66 0v1518h251v-45h-204v-668h200v-45h-200v-715h206v-45h-253zM184 1614l-96 221h51l90 -221h-45z" />
    <glyph glyph-name="Eacute" unicode="&#xc9;" horiz-adv-x="368" 
d="M66 0v1518h251v-45h-204v-668h200v-45h-200v-715h206v-45h-253zM141 1614l91 221h51l-97 -221h-45z" />
    <glyph glyph-name="Ecircumflex" unicode="&#xca;" horiz-adv-x="368" 
d="M66 0v1518h251v-45h-204v-668h200v-45h-200v-715h206v-45h-253zM59 1614l103 221h45l102 -221h-45l-80 174l-77 -174h-48z" />
    <glyph glyph-name="Edieresis" unicode="&#xcb;" horiz-adv-x="368" 
d="M66 0v1518h251v-45h-204v-668h200v-45h-200v-715h206v-45h-253zM90 1614v123h47v-123h-47zM234 1614v123h47v-123h-47z" />
    <glyph glyph-name="Igrave" unicode="&#xcc;" horiz-adv-x="194" 
d="M74 1614l-74 221h51l68 -221h-45zM74 0v1518h47v-1518h-47z" />
    <glyph glyph-name="Iacute" unicode="&#xcd;" horiz-adv-x="194" 
d="M74 1614l69 221h52l-76 -221h-45zM74 0v1518h47v-1518h-47z" />
    <glyph glyph-name="Icircumflex" unicode="&#xce;" horiz-adv-x="194" 
d="M-23 1614l97 221h45l96 -221h-45l-74 174l-71 -174h-48zM74 0v1518h47v-1518h-47z" />
    <glyph glyph-name="Idieresis" unicode="&#xcf;" horiz-adv-x="194" 
d="M74 0v1518h47v-1518h-47zM2 1614v123h47v-123h-47zM146 1614v123h47v-123h-47z" />
    <glyph glyph-name="Eth" unicode="&#xd0;" horiz-adv-x="432" 
d="M10 766v45h58v707h147q95 0 133 -70q30 -57 36.5 -172.5t6.5 -517.5t-6.5 -516.5t-36.5 -171.5q-38 -70 -133 -70h-147v766h-58zM115 45h100q62 0 87 39q32 52 39 251q3 102 3 423q0 444 -11 550q-12 121 -53 149q-23 16 -65 16h-100v-662h118v-45h-118v-721z" />
    <glyph glyph-name="Ntilde" unicode="&#xd1;" horiz-adv-x="454" 
d="M66 0v1518h63l188 -1100l27 -187v1287h45v-1518h-45l-211 1231l-22 162v-1393h-45zM102 1614q0 100 62 100q26 0 70 -29.5t55 -29.5q12 0 15 11t3 46h45q0 -59 -14 -79.5t-47 -20.5q-26 0 -70 29.5t-55 29.5q-18 0 -18 -57h-46z" />
    <glyph glyph-name="Ograve" unicode="&#xd2;" horiz-adv-x="434" 
d="M217 -8q-48 0 -81 14t-54 53q-29 56 -35 171t-6 528t6 527.5t35 170.5q37 68 135 68t135 -68q29 -56 35 -170.5t6 -527.5t-6 -528t-35 -171q-21 -39 -54 -53t-81 -14zM217 37q62 0 85 35q33 49 40 239q4 105 4 447q0 452 -11 558q-11 119 -51 147q-23 16 -67 16
q-62 0 -85 -35q-33 -49 -40 -239q-4 -105 -4 -447q0 -454 12 -563q12 -116 53 -143q22 -15 64 -15zM217 1614l-96 221h51l90 -221h-45z" />
    <glyph glyph-name="Oacute" unicode="&#xd3;" horiz-adv-x="434" 
d="M217 -8q-48 0 -81 14t-54 53q-29 56 -35 171t-6 528t6 527.5t35 170.5q37 68 135 68t135 -68q29 -56 35 -170.5t6 -527.5t-6 -528t-35 -171q-21 -39 -54 -53t-81 -14zM217 37q62 0 85 35q33 49 40 239q4 105 4 447q0 452 -11 558q-11 119 -51 147q-23 16 -67 16
q-62 0 -85 -35q-33 -49 -40 -239q-4 -105 -4 -447q0 -454 12 -563q12 -116 53 -143q22 -15 64 -15zM174 1614l91 221h51l-97 -221h-45z" />
    <glyph glyph-name="Ocircumflex" unicode="&#xd4;" horiz-adv-x="434" 
d="M217 -8q-48 0 -81 14t-54 53q-29 56 -35 171t-6 528t6 527.5t35 170.5q37 68 135 68t135 -68q29 -56 35 -170.5t6 -527.5t-6 -528t-35 -171q-21 -39 -54 -53t-81 -14zM217 37q62 0 85 35q33 49 40 239q4 105 4 447q0 452 -11 558q-11 119 -51 147q-23 16 -67 16
q-62 0 -85 -35q-33 -49 -40 -239q-4 -105 -4 -447q0 -454 12 -563q12 -116 53 -143q22 -15 64 -15zM92 1614l103 221h45l102 -221h-45l-80 174l-77 -174h-48z" />
    <glyph glyph-name="Otilde" unicode="&#xd5;" horiz-adv-x="434" 
d="M217 -8q-48 0 -81 14t-54 53q-29 56 -35 171t-6 528t6 527.5t35 170.5q37 68 135 68t135 -68q29 -56 35 -170.5t6 -527.5t-6 -528t-35 -171q-21 -39 -54 -53t-81 -14zM217 37q62 0 85 35q33 49 40 239q4 105 4 447q0 452 -11 558q-11 119 -51 147q-23 16 -67 16
q-62 0 -85 -35q-33 -49 -40 -239q-4 -105 -4 -447q0 -454 12 -563q12 -116 53 -143q22 -15 64 -15zM92 1614q0 100 62 100q26 0 70 -29.5t55 -29.5q12 0 15 11t3 46h45q0 -59 -14 -79.5t-47 -20.5q-26 0 -70 29.5t-55 29.5q-18 0 -18 -57h-46z" />
    <glyph glyph-name="Odieresis" unicode="&#xd6;" horiz-adv-x="434" 
d="M217 -8q-48 0 -81 14t-54 53q-29 56 -35 171t-6 528t6 527.5t35 170.5q37 68 135 68t135 -68q29 -56 35 -170.5t6 -527.5t-6 -528t-35 -171q-21 -39 -54 -53t-81 -14zM217 37q62 0 85 35q33 49 40 239q4 105 4 447q0 452 -11 558q-11 119 -51 147q-23 16 -67 16
q-62 0 -85 -35q-33 -49 -40 -239q-4 -105 -4 -447q0 -454 12 -563q12 -116 53 -143q22 -15 64 -15zM123 1614v123h47v-123h-47zM267 1614v123h47v-123h-47z" />
    <glyph glyph-name="multiply" unicode="&#xd7;" horiz-adv-x="409" 
d="M98 621l-26 26l106 107l-106 108l26 27l107 -109l108 109l27 -27l-109 -108l109 -107l-27 -26l-108 106z" />
    <glyph glyph-name="Oslash" unicode="&#xd8;" horiz-adv-x="434" 
d="M88 -84l14 115q-12 12 -20 28q-29 56 -35 171t-6 528t6 527.5t35 170.5q37 68 135 68q41 0 68 -11l12 91h47l-14 -117q4 -4 22 -31q29 -56 35 -170.5t6 -527.5t-6 -528t-35 -171q-21 -39 -54 -53t-81 -14q-43 0 -70 8l-12 -84h-47zM217 37q62 0 85 35q33 49 40 239
q4 105 4 447q0 333 -4.5 470t-22.5 193l-169 -1370q21 -14 67 -14zM88 758q0 -321 4.5 -459t20.5 -197l168 1362q-24 15 -64 15q-62 0 -85 -35q-33 -49 -40 -239q-4 -105 -4 -447z" />
    <glyph glyph-name="Ugrave" unicode="&#xd9;" horiz-adv-x="464" 
d="M233 -8q-50 0 -83 18t-50.5 41t-25.5 76.5t-9.5 91t-1.5 117.5v1182h48v-1182q0 -65 0.5 -95.5t4 -72.5t11 -60t21 -38t34.5 -26.5t51 -6.5t50.5 7t34 25.5t21.5 38t11.5 60t4.5 73.5t1 95v1182h45v-1182v-66.5t-1.5 -59t-4.5 -55.5t-8.5 -46t-14 -41.5t-21 -31
t-29.5 -25.5t-39 -13.5t-50 -5.5zM231 1614l-96 221h51l90 -221h-45z" />
    <glyph glyph-name="Uacute" unicode="&#xda;" horiz-adv-x="464" 
d="M233 -8q-50 0 -83 18t-50.5 41t-25.5 76.5t-9.5 91t-1.5 117.5v1182h48v-1182q0 -65 0.5 -95.5t4 -72.5t11 -60t21 -38t34.5 -26.5t51 -6.5t50.5 7t34 25.5t21.5 38t11.5 60t4.5 73.5t1 95v1182h45v-1182v-66.5t-1.5 -59t-4.5 -55.5t-8.5 -46t-14 -41.5t-21 -31
t-29.5 -25.5t-39 -13.5t-50 -5.5zM188 1614l91 221h51l-97 -221h-45z" />
    <glyph glyph-name="Ucircumflex" unicode="&#xdb;" horiz-adv-x="464" 
d="M233 -8q-50 0 -83 18t-50.5 41t-25.5 76.5t-9.5 91t-1.5 117.5v1182h48v-1182q0 -65 0.5 -95.5t4 -72.5t11 -60t21 -38t34.5 -26.5t51 -6.5t50.5 7t34 25.5t21.5 38t11.5 60t4.5 73.5t1 95v1182h45v-1182v-66.5t-1.5 -59t-4.5 -55.5t-8.5 -46t-14 -41.5t-21 -31
t-29.5 -25.5t-39 -13.5t-50 -5.5zM106 1614l103 221h45l102 -221h-45l-80 174l-77 -174h-48z" />
    <glyph glyph-name="Udieresis" unicode="&#xdc;" horiz-adv-x="464" 
d="M233 -8q-50 0 -83 18t-50.5 41t-25.5 76.5t-9.5 91t-1.5 117.5v1182h48v-1182q0 -65 0.5 -95.5t4 -72.5t11 -60t21 -38t34.5 -26.5t51 -6.5t50.5 7t34 25.5t21.5 38t11.5 60t4.5 73.5t1 95v1182h45v-1182v-66.5t-1.5 -59t-4.5 -55.5t-8.5 -46t-14 -41.5t-21 -31
t-29.5 -25.5t-39 -13.5t-50 -5.5zM137 1614v123h47v-123h-47zM281 1614v123h47v-123h-47z" />
    <glyph glyph-name="Yacute" unicode="&#xdd;" horiz-adv-x="356" 
d="M154 0v541l-150 977h45l129 -861l131 861h43l-151 -990v-528h-47zM135 1614l91 221h51l-97 -221h-45z" />
    <glyph glyph-name="Thorn" unicode="&#xde;" horiz-adv-x="399" 
d="M66 0v1518h47v-301h80q27 0 48 -5.5t37.5 -13.5t28.5 -25.5t20.5 -33.5t14.5 -46.5t9 -55.5t4.5 -69t2 -78.5t0.5 -92.5q0 -74 -1 -116t-4 -94t-9.5 -78.5t-18.5 -56.5t-29.5 -43.5t-43 -22.5t-59.5 -9h-80v-377h-47zM113 422h77q30 0 50.5 8t34 31.5t21 46.5t11 75
t4 92.5t0.5 121.5t-0.5 121.5t-4 92.5t-11 74.5t-21 46t-34 31.5t-50.5 8h-77v-749z" />
    <glyph glyph-name="germandbls" unicode="&#xdf;" horiz-adv-x="393" 
d="M59 0v1266q0 59 1 92.5t5.5 70t13.5 55t25 35.5t39.5 23t57.5 6t55 -4.5t38 -22t25.5 -41t14 -72.5t7 -105.5t1.5 -149.5q0 -210 -12.5 -281t-50.5 -86q33 -16 48.5 -44.5t23 -105.5t7.5 -235q0 -257 -23.5 -329t-133.5 -72h-35v45h35q29 0 43.5 4t30 21.5t22 56
t10.5 104.5t4 170t-4 170.5t-10.5 106t-22 57.5t-30 22.5t-43.5 4.5h-31v43h31q22 0 35.5 3.5t25 17.5t17.5 35t10 63t5 94t1 135t-1 133t-5 93.5t-9.5 64.5t-17 36t-25.5 19t-36 4q-61 0 -78 -44t-17 -193v-1266h-47z" />
    <glyph glyph-name="agrave" unicode="&#xe0;" horiz-adv-x="370" 
d="M160 -6q-84 0 -103.5 74t-19.5 297q0 75 1 119.5t4 95t9 77.5t17.5 57t27 43.5t39 27t53.5 18t70 6.5v78q0 43 -0.5 62t-2.5 46t-6.5 37t-13 22t-21.5 15.5t-32 3.5q-46 0 -102 -14l-12 45q47 14 114 14q23 0 40.5 -3t30.5 -12t22 -17t14.5 -26.5t9 -31t5 -41t1.5 -46
v-54.5v-748q0 -58 9 -75t42 -17v-47h-10q-38 0 -55.5 14t-22.5 47q-25 -67 -108 -67zM164 39q35 0 54.5 15t28 64t10 94t1.5 153v397q-33 -1 -55.5 -3.5t-42 -12t-31 -20t-21 -35.5t-13.5 -48.5t-7 -70.5t-3.5 -90t-0.5 -117t1 -119.5t4 -86t8 -61t14.5 -35.5t21.5 -19.5
t31 -4.5zM184 1235l-96 221h51l90 -221h-45z" />
    <glyph glyph-name="aacute" unicode="&#xe1;" horiz-adv-x="370" 
d="M160 -6q-84 0 -103.5 74t-19.5 297q0 75 1 119.5t4 95t9 77.5t17.5 57t27 43.5t39 27t53.5 18t70 6.5v78q0 43 -0.5 62t-2.5 46t-6.5 37t-13 22t-21.5 15.5t-32 3.5q-46 0 -102 -14l-12 45q47 14 114 14q23 0 40.5 -3t30.5 -12t22 -17t14.5 -26.5t9 -31t5 -41t1.5 -46
v-54.5v-748q0 -58 9 -75t42 -17v-47h-10q-38 0 -55.5 14t-22.5 47q-25 -67 -108 -67zM164 39q35 0 54.5 15t28 64t10 94t1.5 153v397q-33 -1 -55.5 -3.5t-42 -12t-31 -20t-21 -35.5t-13.5 -48.5t-7 -70.5t-3.5 -90t-0.5 -117t1 -119.5t4 -86t8 -61t14.5 -35.5t21.5 -19.5
t31 -4.5zM141 1235l91 221h51l-97 -221h-45z" />
    <glyph glyph-name="acircumflex" unicode="&#xe2;" horiz-adv-x="370" 
d="M160 -6q-84 0 -103.5 74t-19.5 297q0 75 1 119.5t4 95t9 77.5t17.5 57t27 43.5t39 27t53.5 18t70 6.5v78q0 43 -0.5 62t-2.5 46t-6.5 37t-13 22t-21.5 15.5t-32 3.5q-46 0 -102 -14l-12 45q47 14 114 14q23 0 40.5 -3t30.5 -12t22 -17t14.5 -26.5t9 -31t5 -41t1.5 -46
v-54.5v-748q0 -58 9 -75t42 -17v-47h-10q-38 0 -55.5 14t-22.5 47q-25 -67 -108 -67zM164 39q35 0 54.5 15t28 64t10 94t1.5 153v397q-33 -1 -55.5 -3.5t-42 -12t-31 -20t-21 -35.5t-13.5 -48.5t-7 -70.5t-3.5 -90t-0.5 -117t1 -119.5t4 -86t8 -61t14.5 -35.5t21.5 -19.5
t31 -4.5zM59 1235l103 221h45l102 -221h-45l-80 174l-77 -174h-48z" />
    <glyph glyph-name="atilde" unicode="&#xe3;" horiz-adv-x="370" 
d="M160 -6q-84 0 -103.5 74t-19.5 297q0 75 1 119.5t4 95t9 77.5t17.5 57t27 43.5t39 27t53.5 18t70 6.5v78q0 43 -0.5 62t-2.5 46t-6.5 37t-13 22t-21.5 15.5t-32 3.5q-46 0 -102 -14l-12 45q47 14 114 14q23 0 40.5 -3t30.5 -12t22 -17t14.5 -26.5t9 -31t5 -41t1.5 -46
v-54.5v-748q0 -58 9 -75t42 -17v-47h-10q-38 0 -55.5 14t-22.5 47q-25 -67 -108 -67zM164 39q35 0 54.5 15t28 64t10 94t1.5 153v397q-33 -1 -55.5 -3.5t-42 -12t-31 -20t-21 -35.5t-13.5 -48.5t-7 -70.5t-3.5 -90t-0.5 -117t1 -119.5t4 -86t8 -61t14.5 -35.5t21.5 -19.5
t31 -4.5zM59 1235q0 100 62 100q26 0 70 -29.5t55 -29.5q12 0 15 11t3 46h45q0 -59 -14 -79.5t-47 -20.5q-26 0 -70 29.5t-55 29.5q-18 0 -18 -57h-46z" />
    <glyph glyph-name="adieresis" unicode="&#xe4;" horiz-adv-x="370" 
d="M160 -6q-84 0 -103.5 74t-19.5 297q0 75 1 119.5t4 95t9 77.5t17.5 57t27 43.5t39 27t53.5 18t70 6.5v78q0 43 -0.5 62t-2.5 46t-6.5 37t-13 22t-21.5 15.5t-32 3.5q-46 0 -102 -14l-12 45q47 14 114 14q23 0 40.5 -3t30.5 -12t22 -17t14.5 -26.5t9 -31t5 -41t1.5 -46
v-54.5v-748q0 -58 9 -75t42 -17v-47h-10q-38 0 -55.5 14t-22.5 47q-25 -67 -108 -67zM164 39q35 0 54.5 15t28 64t10 94t1.5 153v397q-33 -1 -55.5 -3.5t-42 -12t-31 -20t-21 -35.5t-13.5 -48.5t-7 -70.5t-3.5 -90t-0.5 -117t1 -119.5t4 -86t8 -61t14.5 -35.5t21.5 -19.5
t31 -4.5zM90 1235v123h47v-123h-47zM234 1235v123h47v-123h-47z" />
    <glyph glyph-name="aring" unicode="&#xe5;" horiz-adv-x="370" 
d="M160 -6q-84 0 -103.5 74t-19.5 297q0 75 1 119.5t4 95t9 77.5t17.5 57t27 43.5t39 27t53.5 18t70 6.5v78q0 43 -0.5 62t-2.5 46t-6.5 37t-13 22t-21.5 15.5t-32 3.5q-46 0 -102 -14l-12 45q47 14 114 14q23 0 40.5 -3t30.5 -12t22 -17t14.5 -26.5t9 -31t5 -41t1.5 -46
v-54.5v-748q0 -58 9 -75t42 -17v-47h-10q-38 0 -55.5 14t-22.5 47q-25 -67 -108 -67zM164 39q35 0 54.5 15t28 64t10 94t1.5 153v397q-33 -1 -55.5 -3.5t-42 -12t-31 -20t-21 -35.5t-13.5 -48.5t-7 -70.5t-3.5 -90t-0.5 -117t1 -119.5t4 -86t8 -61t14.5 -35.5t21.5 -19.5
t31 -4.5zM184 1231q-51 0 -65 32t-14 105q0 75 14 107t65 32t65.5 -32.5t14.5 -106.5q0 -73 -14.5 -105t-65.5 -32zM184 1272q23 0 30 18t7 78t-7 79t-30 19t-29.5 -18.5t-6.5 -79.5t6.5 -78.5t29.5 -17.5z" />
    <glyph glyph-name="ae" unicode="&#xe6;" horiz-adv-x="548" 
d="M408 -8q-65 0 -99 39q-19 19 -28 57q-18 -55 -45.5 -74.5t-75.5 -19.5q-23 0 -40 4.5t-30 18t-22 26.5t-15 41t-9 50t-4.5 65.5t-2 75t-0.5 90.5q0 75 1 119.5t4 95t9 77.5t17.5 57t27 43.5t39 27t53.5 18t70 6.5v82q0 113 -12.5 147.5t-63.5 34.5q-46 0 -102 -14l-12 45
q47 14 114 14q85 0 107 -59q1 3 12 20q27 39 84 39q65 0 92 -39q26 -35 31.5 -125t5.5 -395v-20h-209q0 -331 16 -416.5t87 -85.5q36 0 73 22l25 -39q-46 -28 -98 -28zM164 39q66 0 80 73.5t14 321.5v328q-33 -1 -55.5 -3.5t-42 -12t-31 -20t-21 -35.5t-13.5 -48.5t-7 -70.5
t-3.5 -90t-0.5 -117q0 -202 12.5 -264t67.5 -62zM385 1073q-56 0 -68 -80.5t-12 -408.5h162q0 337 -11.5 413t-70.5 76z" />
    <glyph glyph-name="ccedilla" unicode="&#xe7;" horiz-adv-x="286" 
d="M162 -338q-36 0 -70 12l14 43q23 -10 56 -10q38 0 47.5 15.5t9.5 78.5q0 46 -11.5 57.5t-39.5 8.5l-33 22l19 107q-40 6 -66 35q-35 39 -42 131.5t-7 396.5q0 299 7.5 389.5t43.5 130.5q33 39 98 39q47 0 82 -12l-16 -43q-33 10 -66 10q-73 0 -87.5 -88t-14.5 -426
q0 -351 14.5 -436.5t87.5 -85.5q38 0 68 12l16 -39q-36 -16 -77 -18l-17 -86q47 6 67.5 -18t20.5 -87q0 -86 -19.5 -112.5t-84.5 -26.5z" />
    <glyph glyph-name="egrave" unicode="&#xe8;" horiz-adv-x="329" 
d="M188 -8q-66 0 -100 39q-35 40 -42 132t-7 396t5.5 393t33.5 127q27 39 88 39q65 0 92 -39q26 -35 31.5 -125t5.5 -395v-20h-209q0 -332 15.5 -417t86.5 -85q37 0 74 22l25 -39q-46 -28 -99 -28zM166 1073q-56 0 -68 -80.5t-12 -408.5h162q0 337 -11.5 413t-70.5 76z
M163 1235l-96 221h51l90 -221h-45z" />
    <glyph glyph-name="eacute" unicode="&#xe9;" horiz-adv-x="329" 
d="M188 -8q-66 0 -100 39q-35 40 -42 132t-7 396t5.5 393t33.5 127q27 39 88 39q65 0 92 -39q26 -35 31.5 -125t5.5 -395v-20h-209q0 -332 15.5 -417t86.5 -85q37 0 74 22l25 -39q-46 -28 -99 -28zM166 1073q-56 0 -68 -80.5t-12 -408.5h162q0 337 -11.5 413t-70.5 76z
M120 1235l91 221h51l-97 -221h-45z" />
    <glyph glyph-name="ecircumflex" unicode="&#xea;" horiz-adv-x="329" 
d="M188 -8q-66 0 -100 39q-35 40 -42 132t-7 396t5.5 393t33.5 127q27 39 88 39q65 0 92 -39q26 -35 31.5 -125t5.5 -395v-20h-209q0 -332 15.5 -417t86.5 -85q37 0 74 22l25 -39q-46 -28 -99 -28zM166 1073q-56 0 -68 -80.5t-12 -408.5h162q0 337 -11.5 413t-70.5 76z
M38 1235l103 221h45l102 -221h-45l-80 174l-77 -174h-48z" />
    <glyph glyph-name="edieresis" unicode="&#xeb;" horiz-adv-x="329" 
d="M188 -8q-66 0 -100 39q-35 40 -42 132t-7 396t5.5 393t33.5 127q27 39 88 39q65 0 92 -39q26 -35 31.5 -125t5.5 -395v-20h-209q0 -332 15.5 -417t86.5 -85q37 0 74 22l25 -39q-46 -28 -99 -28zM166 1073q-56 0 -68 -80.5t-12 -408.5h162q0 337 -11.5 413t-70.5 76z
M69 1235v123h47v-123h-47zM213 1235v123h47v-123h-47z" />
    <glyph glyph-name="igrave" unicode="&#xec;" horiz-adv-x="174" 
d="M66 1235l-76 221h51l70 -221h-45zM63 0v1110h48v-1110h-48z" />
    <glyph glyph-name="iacute" unicode="&#xed;" horiz-adv-x="174" 
d="M63 1235l70 221h51l-75 -221h-46zM63 0v1110h48v-1110h-48z" />
    <glyph glyph-name="icircumflex" unicode="&#xee;" horiz-adv-x="174" 
d="M-23 1235l86 221h46l86 -221h-45l-64 170l-61 -170h-48zM63 0v1110h48v-1110h-48z" />
    <glyph glyph-name="idieresis" unicode="&#xef;" horiz-adv-x="174" 
d="M0 1255v123h47v-123h-47zM127 1255v123h47v-123h-47zM63 0v1110h48v-1110h-48z" />
    <glyph glyph-name="eth" unicode="&#xf0;" horiz-adv-x="393" 
d="M158 1268v47l78 35q-14 55 -58 184l45 14q50 -148 58 -178l92 41v-47l-82 -37q63 -258 63 -700v-68q0 -293 -7.5 -390.5t-41.5 -135.5q-33 -41 -108 -41q-73 0 -109 41q-35 39 -42 131.5t-7 394.5q0 303 7.5 391.5t43.5 128.5q36 39 107 39q62 0 90 -28q-14 95 -41 217z
M197 37q80 0 95 78.5t15 431.5v12q0 326 -10 401q-11 85 -50 104q-18 9 -50 9q-80 0 -95.5 -82.5t-15.5 -431.5q0 -361 15.5 -441.5t95.5 -80.5z" />
    <glyph glyph-name="ntilde" unicode="&#xf1;" horiz-adv-x="413" 
d="M59 0v1104l33 2l6 -62q27 74 121 74q25 0 44.5 -3t33.5 -12t24 -17t16 -26t9.5 -30.5t5 -40t2 -44t0.5 -52.5v-6v-887h-47v887v48.5t-1.5 39t-3.5 33t-6.5 24t-10.5 19.5t-16 11.5t-22.5 8.5t-29.5 2q-66 0 -88.5 -53t-22.5 -176v-844h-47zM81 1235q0 100 62 100
q26 0 70 -29.5t55 -29.5q12 0 15 11t3 46h45q0 -59 -14 -79.5t-47 -20.5q-26 0 -70 29.5t-55 29.5q-18 0 -18 -57h-46z" />
    <glyph glyph-name="ograve" unicode="&#xf2;" horiz-adv-x="393" 
d="M197 -8q-73 0 -109 41q-35 39 -42 132t-7 394q0 299 7.5 389.5t43.5 130.5q36 39 107 39q72 0 108 -39q35 -39 42 -129.5t7 -390.5q0 -301 -7 -393.5t-42 -132.5q-36 -41 -108 -41zM197 37q80 0 95 78.5t15 431.5v12q0 326 -10 401q-11 85 -50 104q-18 9 -50 9
q-80 0 -95.5 -82.5t-15.5 -431.5q0 -361 15.5 -441.5t95.5 -80.5zM196 1235l-96 221h51l90 -221h-45z" />
    <glyph glyph-name="oacute" unicode="&#xf3;" horiz-adv-x="393" 
d="M197 -8q-73 0 -109 41q-35 39 -42 132t-7 394q0 299 7.5 389.5t43.5 130.5q36 39 107 39q72 0 108 -39q35 -39 42 -129.5t7 -390.5q0 -301 -7 -393.5t-42 -132.5q-36 -41 -108 -41zM197 37q80 0 95 78.5t15 431.5v12q0 326 -10 401q-11 85 -50 104q-18 9 -50 9
q-80 0 -95.5 -82.5t-15.5 -431.5q0 -361 15.5 -441.5t95.5 -80.5zM153 1235l91 221h51l-97 -221h-45z" />
    <glyph glyph-name="ocircumflex" unicode="&#xf4;" horiz-adv-x="393" 
d="M197 -8q-73 0 -109 41q-35 39 -42 132t-7 394q0 299 7.5 389.5t43.5 130.5q36 39 107 39q72 0 108 -39q35 -39 42 -129.5t7 -390.5q0 -301 -7 -393.5t-42 -132.5q-36 -41 -108 -41zM197 37q80 0 95 78.5t15 431.5v12q0 326 -10 401q-11 85 -50 104q-18 9 -50 9
q-80 0 -95.5 -82.5t-15.5 -431.5q0 -361 15.5 -441.5t95.5 -80.5zM71 1235l103 221h45l102 -221h-45l-80 174l-77 -174h-48z" />
    <glyph glyph-name="otilde" unicode="&#xf5;" horiz-adv-x="393" 
d="M197 -8q-73 0 -109 41q-35 39 -42 132t-7 394q0 299 7.5 389.5t43.5 130.5q36 39 107 39q72 0 108 -39q35 -39 42 -129.5t7 -390.5q0 -301 -7 -393.5t-42 -132.5q-36 -41 -108 -41zM197 37q80 0 95 78.5t15 431.5v12q0 326 -10 401q-11 85 -50 104q-18 9 -50 9
q-80 0 -95.5 -82.5t-15.5 -431.5q0 -361 15.5 -441.5t95.5 -80.5zM71 1235q0 100 62 100q26 0 70 -29.5t55 -29.5q12 0 15 11t3 46h45q0 -59 -14 -79.5t-47 -20.5q-26 0 -70 29.5t-55 29.5q-18 0 -18 -57h-46z" />
    <glyph glyph-name="odieresis" unicode="&#xf6;" horiz-adv-x="393" 
d="M197 -8q-73 0 -109 41q-35 39 -42 132t-7 394q0 299 7.5 389.5t43.5 130.5q36 39 107 39q72 0 108 -39q35 -39 42 -129.5t7 -390.5q0 -301 -7 -393.5t-42 -132.5q-36 -41 -108 -41zM197 37q80 0 95 78.5t15 431.5v12q0 326 -10 401q-11 85 -50 104q-18 9 -50 9
q-80 0 -95.5 -82.5t-15.5 -431.5q0 -361 15.5 -441.5t95.5 -80.5zM102 1235v123h47v-123h-47zM246 1235v123h47v-123h-47z" />
    <glyph glyph-name="divide" unicode="&#xf7;" horiz-adv-x="409" 
d="M184 502v98h43v-98h-43zM76 733v43h258v-43h-258zM184 901v98h43v-98h-43z" />
    <glyph glyph-name="oslash" unicode="&#xf8;" horiz-adv-x="393" 
d="M51 -82l25 129q-26 41 -31.5 136t-5.5 376q0 299 7.5 389.5t43.5 130.5q36 39 107 39q48 0 79 -16l19 90h47l-25 -129q26 -41 31.5 -133.5t5.5 -370.5q0 -301 -7 -393.5t-42 -132.5q-36 -41 -108 -41q-51 0 -82 16l-17 -90h-47zM86 559q0 -350 8 -424l176 914
q-24 24 -73 24q-80 0 -95.5 -82.5t-15.5 -431.5zM197 37q80 0 95 78.5t15 431.5v12q0 350 -8 422l-176 -922q22 -22 74 -22z" />
    <glyph glyph-name="ugrave" unicode="&#xf9;" horiz-adv-x="401" 
d="M201 -8q-30 0 -52.5 6.5t-37.5 15t-25 27t-15.5 33.5t-8 44.5t-3 49t-0.5 57.5v885h47v-885q0 -40 0.5 -59.5t3 -46t8.5 -38t16.5 -24t27 -16.5t39.5 -4q24 0 41 4t28 17t17 24t8.5 38t3 45.5t0.5 59.5v885h45v-885v-42.5t-1 -37.5t-3 -35.5t-5.5 -29.5t-8.5 -27t-13 -21
t-18.5 -17.5t-24 -12t-31 -8.5t-38.5 -2zM200 1235l-96 221h51l90 -221h-45z" />
    <glyph glyph-name="uacute" unicode="&#xfa;" horiz-adv-x="401" 
d="M201 -8q-30 0 -52.5 6.5t-37.5 15t-25 27t-15.5 33.5t-8 44.5t-3 49t-0.5 57.5v885h47v-885q0 -40 0.5 -59.5t3 -46t8.5 -38t16.5 -24t27 -16.5t39.5 -4q24 0 41 4t28 17t17 24t8.5 38t3 45.5t0.5 59.5v885h45v-885v-42.5t-1 -37.5t-3 -35.5t-5.5 -29.5t-8.5 -27t-13 -21
t-18.5 -17.5t-24 -12t-31 -8.5t-38.5 -2zM157 1235l91 221h51l-97 -221h-45z" />
    <glyph glyph-name="ucircumflex" unicode="&#xfb;" horiz-adv-x="401" 
d="M201 -8q-30 0 -52.5 6.5t-37.5 15t-25 27t-15.5 33.5t-8 44.5t-3 49t-0.5 57.5v885h47v-885q0 -40 0.5 -59.5t3 -46t8.5 -38t16.5 -24t27 -16.5t39.5 -4q24 0 41 4t28 17t17 24t8.5 38t3 45.5t0.5 59.5v885h45v-885v-42.5t-1 -37.5t-3 -35.5t-5.5 -29.5t-8.5 -27t-13 -21
t-18.5 -17.5t-24 -12t-31 -8.5t-38.5 -2zM75 1235l103 221h45l102 -221h-45l-80 174l-77 -174h-48z" />
    <glyph glyph-name="udieresis" unicode="&#xfc;" horiz-adv-x="401" 
d="M201 -8q-30 0 -52.5 6.5t-37.5 15t-25 27t-15.5 33.5t-8 44.5t-3 49t-0.5 57.5v885h47v-885q0 -40 0.5 -59.5t3 -46t8.5 -38t16.5 -24t27 -16.5t39.5 -4q24 0 41 4t28 17t17 24t8.5 38t3 45.5t0.5 59.5v885h45v-885v-42.5t-1 -37.5t-3 -35.5t-5.5 -29.5t-8.5 -27t-13 -21
t-18.5 -17.5t-24 -12t-31 -8.5t-38.5 -2zM106 1235v123h47v-123h-47zM250 1235v123h47v-123h-47z" />
    <glyph glyph-name="yacute" unicode="&#xfd;" horiz-adv-x="307" 
d="M53 -297v47h4q34 0 45.5 11t14.5 40l16 154l-123 1155h45l80 -772l19 -223l20 229l80 766h43l-139 -1321q-8 -86 -103 -86h-2zM110 1235l91 221h51l-97 -221h-45z" />
    <glyph glyph-name="thorn" unicode="&#xfe;" horiz-adv-x="409" 
d="M59 -297v1845h47v-497q29 67 113 67q73 0 107 -37q32 -35 38.5 -127.5t6.5 -394.5q0 -303 -6.5 -398.5t-38.5 -129.5q-34 -39 -107 -39q-81 0 -113 57v-346h-47zM217 37q77 0 92 79t15 443q0 350 -15 432t-92 82t-94 -89.5t-17 -424.5q0 -352 17 -437t94 -85z" />
    <glyph glyph-name="ydieresis" unicode="&#xff;" horiz-adv-x="307" 
d="M53 -297v47h4q34 0 45.5 11t14.5 40l16 154l-123 1155h45l80 -772l19 -223l20 229l80 766h43l-139 -1321q-8 -86 -103 -86h-2zM59 1235v123h47v-123h-47zM203 1235v123h47v-123h-47z" />
    <glyph glyph-name="dotlessi" unicode="&#x131;" horiz-adv-x="174" 
d="M63 0v1110h48v-1110h-48z" />
    <glyph glyph-name="Lslash" unicode="&#x141;" horiz-adv-x="337" 
d="M10 674v49l56 31v764h47v-736l112 66v-49l-112 -66v-688h209v-45h-256v705z" />
    <glyph glyph-name="lslash" unicode="&#x142;" horiz-adv-x="290" 
d="M31 993v49l73 43v463h48v-436l94 55v-49l-94 -55v-924q0 -59 10 -75.5t47 -16.5h4v-47h-6q-65 0 -84 32t-19 107v897z" />
    <glyph glyph-name="OE" unicode="&#x152;" horiz-adv-x="647" 
d="M244 0q-95 0 -133 70q-30 57 -36.5 172.5t-6.5 517.5t6.5 516.5t36.5 171.5q38 70 133 70h352v-45h-205v-668h201v-45h-201v-715h207v-45h-354zM244 45h100v1428h-100q-62 0 -87 -39q-32 -52 -39 -251q-3 -102 -3 -423q0 -444 11 -550q12 -121 53 -149q23 -16 65 -16z
" />
    <glyph glyph-name="oe" unicode="&#x153;" horiz-adv-x="598" 
d="M457 -8q-67 0 -101 39q-16 16 -26 49q-8 -27 -25 -47q-36 -41 -108 -41q-73 0 -109 41q-35 39 -42 132t-7 394q0 299 7.5 389.5t43.5 130.5q36 39 107 39q72 0 108 -39q16 -20 23 -39q6 24 18 39q27 39 88 39q65 0 92 -39q26 -35 31.5 -125t5.5 -395v-20h-209
q0 -331 16 -416.5t87 -85.5q36 0 73 22l25 -39q-46 -28 -98 -28zM197 37q80 0 95 78.5t15 431.5v12q0 326 -10 401q-11 85 -50 104q-18 9 -50 9q-80 0 -95.5 -82.5t-15.5 -431.5q0 -361 15.5 -441.5t95.5 -80.5zM434 1073q-56 0 -68 -80.5t-12 -408.5h162q0 337 -11.5 413
t-70.5 76z" />
    <glyph glyph-name="Scaron" unicode="&#x160;" horiz-adv-x="344" 
d="M154 -10q-49 0 -107 12l10 47q58 -12 97 -12q25 0 43 4t34 17t23.5 36t7 63t-11.5 95l-195 1005q-27 140 12.5 203.5t125.5 63.5q51 0 90 -13l-15 -45q-29 11 -75 11q-131 0 -91 -211l195 -1006q28 -142 -6.5 -206t-136.5 -64zM150 1614l-103 221h46l79 -174l78 174h47
l-102 -221h-45z" />
    <glyph glyph-name="scaron" unicode="&#x161;" horiz-adv-x="288" 
d="M119 -8q-54 0 -99 10l11 45q50 -10 88 -10q41 0 62.5 16t28.5 58t-11 114l-152 676q-24 101 4.5 159t110.5 58q49 0 82 -8l-11 -43q-27 6 -71 6q-110 0 -70 -164l152 -673q56 -244 -125 -244zM121 1235l-103 221h46l79 -174l78 174h47l-102 -221h-45z" />
    <glyph glyph-name="Ydieresis" unicode="&#x178;" horiz-adv-x="356" 
d="M154 0v541l-150 977h45l129 -861l131 861h43l-151 -990v-528h-47zM84 1614v123h47v-123h-47zM228 1614v123h47v-123h-47z" />
    <glyph glyph-name="Zcaron" unicode="&#x17d;" horiz-adv-x="370" 
d="M41 0v45l235 1428h-225v45h271v-45l-236 -1428h246v-45h-291zM162 1614l-103 221h46l79 -174l78 174h47l-102 -221h-45z" />
    <glyph glyph-name="zcaron" unicode="&#x17e;" horiz-adv-x="299" 
d="M31 0v45l194 1020h-184v45h227v-45l-194 -1020h192v-45h-235zM127 1235l-103 221h46l79 -174l78 174h47l-102 -221h-45z" />
    <glyph glyph-name="florin" unicode="&#x192;" horiz-adv-x="364" 
d="M63 860v45h89l20 438q5 95 32 135t103 40h6v-48h-4q-54 0 -70.5 -26.5t-19.5 -100.5l-20 -438h114v-45h-116l-56 -1157h-47l56 1157h-87z" />
    <glyph glyph-name="circumflex" unicode="&#x2c6;" 
d="M63 1235l103 221h45l102 -221h-45l-80 174l-77 -174h-48z" />
    <glyph glyph-name="caron" unicode="&#x2c7;" 
d="M166 1235l-103 221h46l79 -174l78 174h47l-102 -221h-45z" />
    <glyph glyph-name="breve" unicode="&#x2d8;" 
d="M188 1231q-58 0 -75 34t-17 113h47q0 -59 8 -81.5t37 -22.5q30 0 39 22.5t9 81.5h47q0 -78 -18 -112.5t-77 -34.5z" />
    <glyph glyph-name="dotaccent" unicode="&#x2d9;" 
d="M166 1235v164h47v-164h-47z" />
    <glyph glyph-name="ring" unicode="&#x2da;" 
d="M188 1231q-51 0 -65 32t-14 105q0 75 14 107t65 32t65.5 -32.5t14.5 -106.5q0 -73 -14.5 -105t-65.5 -32zM188 1272q23 0 30 18t7 78t-7 79t-30 19t-29.5 -18.5t-6.5 -79.5t6.5 -78.5t29.5 -17.5z" />
    <glyph glyph-name="ogonek" unicode="&#x2db;" 
d="M252 -317h-8q-84 0 -117 33t-33 106q0 85 94 186h56q-60 -63 -81.5 -103t-21.5 -83q0 -54 20.5 -74t82.5 -20h8v-45z" />
    <glyph glyph-name="tilde" unicode="&#x2dc;" 
d="M63 1235q0 100 62 100q26 0 70 -29.5t55 -29.5q12 0 15 11t3 46h45q0 -59 -14 -79.5t-47 -20.5q-26 0 -70 29.5t-55 29.5q-18 0 -18 -57h-46z" />
    <glyph glyph-name="hungarumlaut" unicode="&#x2dd;" 
d="M78 1235l39 221h53l-45 -221h-47zM244 1235l39 221h53l-45 -221h-47z" />
    <glyph glyph-name="Delta" unicode="&#x394;" horiz-adv-x="423" 
d="M23 1065v45h71v264q0 93 29 133.5t106 40.5h7v-47h-5q-55 0 -72.5 -27.5t-17.5 -99.5v-264h95v-45h-95v-1065h-47v1065h-71zM276 -297v47q25 1 31 11.5t6 41.5v1307h47v-1305q0 -24 -2.5 -39t-10 -31t-25.5 -24t-46 -8zM313 1288v164h47v-164h-47z" />
    <glyph glyph-name="Delta" unicode="&#x2206;" horiz-adv-x="423" 
d="M23 1065v45h71v264q0 93 29 133.5t106 40.5h7v-47h-5q-55 0 -72.5 -27.5t-17.5 -99.5v-264h95v-45h-95v-1065h-47v1065h-71zM276 -297v47q25 1 31 11.5t6 41.5v1307h47v-1305q0 -24 -2.5 -39t-10 -31t-25.5 -24t-46 -8zM313 1288v164h47v-164h-47z" />
    <glyph glyph-name="Omega" unicode="&#x3a9;" horiz-adv-x="1703" 
d="M258 246q-88 105 -136 237t-48 277q0 144 48 276t136 236q6 -4 14 -12q-85 -103 -131.5 -231.5t-46.5 -268.5q0 -285 180 -500zM467 432q-117 143 -117 328q0 183 115 327q3 -2 8 -7t8 -7q-110 -136 -110 -313q0 -182 110 -314zM541 498q-92 116 -92 262t92 262
q3 -2 8 -7t8 -7q-88 -109 -88 -248t88 -248q-3 -2 -8 -7t-8 -7zM647 592q-57 72 -57 168q0 97 57 166l15 -15q-52 -69 -52 -151q0 -84 54 -154q-3 -2 -8.5 -7t-8.5 -7zM715 655q-33 48 -33 105q0 56 33 104q3 -2 8 -7t8 -7q-29 -44 -29 -90t29 -90q-3 -2 -16 -15zM774 709
q-14 25 -14 51t14 51l12 -10q-10 -20 -10 -41t10 -41q-4 -4 -12 -10zM852 123q-236 0 -412 158l2.5 2.5l5 5l5.5 5.5t2 1q171 -152 397 -152q227 0 395 152q2 -3 7.5 -8t7.5 -8q-177 -156 -410 -156zM852 664q-31 0 -55 18l12 12q21 -14 43 -14q26 0 43 14q4 -4 10 -12
q-21 -18 -53 -18zM987 653q-7 10 -14 15q28 42 28 92q0 51 -28 90l2.5 2.5t5 4.5t5.5 5t1 2q35 -44 35 -104t-35 -107zM598 551q-72 91 -72 209q0 119 74 209l14 -15q-67 -87 -67 -194q0 -108 67 -195q-10 -10 -16 -14zM852 -35q-145 0 -278 52.5t-238 146.5l14 16
q102 -92 231 -143t271 -51q285 0 500 192q0 1 3.5 -2.5t6.5 -7.5l4 -4q-104 -95 -236 -147t-278 -52zM852 248q-189 0 -330 125l15 16q134 -121 315 -121q182 0 313 121q2 -3 7.5 -8t7.5 -8q-138 -125 -328 -125zM852 348q-145 0 -264 101l14 14q108 -94 250 -94
q143 0 248 94q2 -3 7 -8.5t7 -8.5q-112 -98 -262 -98zM852 428q-116 0 -211 78l14 16q86 -73 197 -73t197 73q4 -4 12 -16q-91 -78 -209 -78zM852 543q-77 0 -135 49l14 16q51 -45 121 -45q68 0 119 45q2 -3 7 -8t7 -8q-58 -49 -133 -49zM733 911q-4 3 -7 6.5t-6 6.5l-3 4
q58 49 135 49t135 -49l-16 -17q-51 45 -119 45t-119 -45zM1167 1130q-134 121 -315 121q-179 0 -313 -118l-15 14q141 125 328 125q189 0 330 -125q-4 -6 -15 -17zM930 709l-12 10q10 20 10 41t-10 41l12 10q14 -25 14 -51t-14 -51zM958 682q-10 10 -16 14q21 32 21 64
t-21 63l16 15q25 -36 25 -78t-25 -78zM1020 627q-6 4 -16 14q38 50 38 119t-38 119l14 14q45 -57 45 -133q0 -71 -43 -133zM1106 551q-3 2 -8 7t-8 7q67 87 67 195t-70 194l17 15q74 -90 74 -209q0 -118 -72 -209zM1163 498q-10 10 -16 14q88 109 88 248t-88 248l16 14
q92 -116 92 -262t-92 -262zM1237 432q-6 4 -16 14q112 134 112 314q0 182 -112 313l16 14q117 -139 117 -327q0 -189 -117 -328zM1329 350q-2 2 -7 6t-7 6q141 175 141 398q0 227 -143 395l16 14q148 -179 148 -409q0 -231 -148 -410zM1446 246q-6 6 -16 14q180 215 180 500
t-180 500l16 14q88 -105 136 -237t48 -277q0 -144 -48 -276t-136 -238zM375 348q-148 182 -148 412q0 229 146 409q2 -2 7.5 -6.5t8.5 -7.5q-141 -170 -141 -395q0 -228 141 -398zM684 627q-43 59 -43 133t43 133q6 -4 16 -14q-38 -50 -38 -119q0 -67 38 -117zM745 682
q-24 34 -24 78t24 78q2 -3 4.5 -5.5t6 -5.5t4.5 -4q-19 -34 -19 -63q0 -30 19 -64zM809 825l-10 13q21 18 53 18t53 -18l-10 -13q-23 15 -43 15q-25 0 -43 -15zM786 852l-14 14q37 29 80 29q41 0 78 -29q-8 -8 -12 -14q-28 25 -66 25q-34 0 -66 -25zM760 881l-15 16
q45 39 107 39q61 0 106 -39l-14 -16q-37 34 -92 34t-92 -34zM604 1057l-14 16q112 98 262 98q151 0 262 -100q1 0 -2 -3.5t-6 -7.5l-4 -3q-108 94 -250 94q-143 0 -248 -94zM852 492q-100 0 -170 61l14 16q70 -57 156 -57q87 0 154 57l14 -14q-73 -63 -168 -63zM852 584
q-61 0 -109 39l15 16q47 -35 94 -35q51 0 92 35l14 -16q-45 -39 -106 -39zM852 625q-43 0 -82 28l14 15q36 -25 68 -25q34 0 66 25l14 -15q-36 -28 -80 -28zM698 950l-14 15q73 63 168 63q98 0 168 -61l-14 -17q-68 58 -154 58q-87 0 -154 -58zM655 997l-14 17q91 78 211 78
q119 0 209 -80l-12 -15q-83 74 -197 74q-110 0 -197 -74zM1249 1223q-166 153 -397 153q-227 0 -397 -151l-15 14q179 158 412 158t412 -158zM352 1339l-14 17q104 95 236 146.5t278 51.5q145 0 278 -52t238 -146l-14 -17q-102 93 -231 144t-271 51t-270 -51t-230 -144z
M1057 594l-15 14q52 69 52 152t-54 153l17 15q57 -72 57 -168q0 -97 -57 -166z" />
    <glyph glyph-name="Omega" unicode="&#x2126;" horiz-adv-x="1703" 
d="M258 246q-88 105 -136 237t-48 277q0 144 48 276t136 236q6 -4 14 -12q-85 -103 -131.5 -231.5t-46.5 -268.5q0 -285 180 -500zM467 432q-117 143 -117 328q0 183 115 327q3 -2 8 -7t8 -7q-110 -136 -110 -313q0 -182 110 -314zM541 498q-92 116 -92 262t92 262
q3 -2 8 -7t8 -7q-88 -109 -88 -248t88 -248q-3 -2 -8 -7t-8 -7zM647 592q-57 72 -57 168q0 97 57 166l15 -15q-52 -69 -52 -151q0 -84 54 -154q-3 -2 -8.5 -7t-8.5 -7zM715 655q-33 48 -33 105q0 56 33 104q3 -2 8 -7t8 -7q-29 -44 -29 -90t29 -90q-3 -2 -16 -15zM774 709
q-14 25 -14 51t14 51l12 -10q-10 -20 -10 -41t10 -41q-4 -4 -12 -10zM852 123q-236 0 -412 158l2.5 2.5l5 5l5.5 5.5t2 1q171 -152 397 -152q227 0 395 152q2 -3 7.5 -8t7.5 -8q-177 -156 -410 -156zM852 664q-31 0 -55 18l12 12q21 -14 43 -14q26 0 43 14q4 -4 10 -12
q-21 -18 -53 -18zM987 653q-7 10 -14 15q28 42 28 92q0 51 -28 90l2.5 2.5t5 4.5t5.5 5t1 2q35 -44 35 -104t-35 -107zM598 551q-72 91 -72 209q0 119 74 209l14 -15q-67 -87 -67 -194q0 -108 67 -195q-10 -10 -16 -14zM852 -35q-145 0 -278 52.5t-238 146.5l14 16
q102 -92 231 -143t271 -51q285 0 500 192q0 1 3.5 -2.5t6.5 -7.5l4 -4q-104 -95 -236 -147t-278 -52zM852 248q-189 0 -330 125l15 16q134 -121 315 -121q182 0 313 121q2 -3 7.5 -8t7.5 -8q-138 -125 -328 -125zM852 348q-145 0 -264 101l14 14q108 -94 250 -94
q143 0 248 94q2 -3 7 -8.5t7 -8.5q-112 -98 -262 -98zM852 428q-116 0 -211 78l14 16q86 -73 197 -73t197 73q4 -4 12 -16q-91 -78 -209 -78zM852 543q-77 0 -135 49l14 16q51 -45 121 -45q68 0 119 45q2 -3 7 -8t7 -8q-58 -49 -133 -49zM733 911q-4 3 -7 6.5t-6 6.5l-3 4
q58 49 135 49t135 -49l-16 -17q-51 45 -119 45t-119 -45zM1167 1130q-134 121 -315 121q-179 0 -313 -118l-15 14q141 125 328 125q189 0 330 -125q-4 -6 -15 -17zM930 709l-12 10q10 20 10 41t-10 41l12 10q14 -25 14 -51t-14 -51zM958 682q-10 10 -16 14q21 32 21 64
t-21 63l16 15q25 -36 25 -78t-25 -78zM1020 627q-6 4 -16 14q38 50 38 119t-38 119l14 14q45 -57 45 -133q0 -71 -43 -133zM1106 551q-3 2 -8 7t-8 7q67 87 67 195t-70 194l17 15q74 -90 74 -209q0 -118 -72 -209zM1163 498q-10 10 -16 14q88 109 88 248t-88 248l16 14
q92 -116 92 -262t-92 -262zM1237 432q-6 4 -16 14q112 134 112 314q0 182 -112 313l16 14q117 -139 117 -327q0 -189 -117 -328zM1329 350q-2 2 -7 6t-7 6q141 175 141 398q0 227 -143 395l16 14q148 -179 148 -409q0 -231 -148 -410zM1446 246q-6 6 -16 14q180 215 180 500
t-180 500l16 14q88 -105 136 -237t48 -277q0 -144 -48 -276t-136 -238zM375 348q-148 182 -148 412q0 229 146 409q2 -2 7.5 -6.5t8.5 -7.5q-141 -170 -141 -395q0 -228 141 -398zM684 627q-43 59 -43 133t43 133q6 -4 16 -14q-38 -50 -38 -119q0 -67 38 -117zM745 682
q-24 34 -24 78t24 78q2 -3 4.5 -5.5t6 -5.5t4.5 -4q-19 -34 -19 -63q0 -30 19 -64zM809 825l-10 13q21 18 53 18t53 -18l-10 -13q-23 15 -43 15q-25 0 -43 -15zM786 852l-14 14q37 29 80 29q41 0 78 -29q-8 -8 -12 -14q-28 25 -66 25q-34 0 -66 -25zM760 881l-15 16
q45 39 107 39q61 0 106 -39l-14 -16q-37 34 -92 34t-92 -34zM604 1057l-14 16q112 98 262 98q151 0 262 -100q1 0 -2 -3.5t-6 -7.5l-4 -3q-108 94 -250 94q-143 0 -248 -94zM852 492q-100 0 -170 61l14 16q70 -57 156 -57q87 0 154 57l14 -14q-73 -63 -168 -63zM852 584
q-61 0 -109 39l15 16q47 -35 94 -35q51 0 92 35l14 -16q-45 -39 -106 -39zM852 625q-43 0 -82 28l14 15q36 -25 68 -25q34 0 66 25l14 -15q-36 -28 -80 -28zM698 950l-14 15q73 63 168 63q98 0 168 -61l-14 -17q-68 58 -154 58q-87 0 -154 -58zM655 997l-14 17q91 78 211 78
q119 0 209 -80l-12 -15q-83 74 -197 74q-110 0 -197 -74zM1249 1223q-166 153 -397 153q-227 0 -397 -151l-15 14q179 158 412 158t412 -158zM352 1339l-14 17q104 95 236 146.5t278 51.5q145 0 278 -52t238 -146l-14 -17q-102 93 -231 144t-271 51t-270 -51t-230 -144z
M1057 594l-15 14q52 69 52 152t-54 153l17 15q57 -72 57 -168q0 -97 -57 -166z" />
    <glyph glyph-name="pi" unicode="&#x3c0;" horiz-adv-x="507" 
d="M264 -8q-83 0 -127 39q-61 54 -81.5 211t-20.5 518q0 339 18 494t70 216q46 54 141 54q96 0 142 -54q52 -61 70 -216t18 -494q0 -356 -20.5 -514t-80.5 -213q-44 -41 -129 -41zM264 35q41 0 68 11t49 43.5t34 81t20.5 134t11 191.5t2.5 264t-2.5 263.5t-11 191
t-20.5 133.5t-34 80t-49 42.5t-68 10.5t-68 -10.5t-49 -43t-34 -80t-20 -133t-10.5 -190.5t-2.5 -264t2.5 -264.5t10.5 -191.5t20 -134t34 -80.5t49 -43.5t68 -11zM168 244v1009h92q28 0 48 -6.5t33 -24t20 -36t10.5 -56t4.5 -69.5t1 -90t-1 -90t-4.5 -70.5t-11 -57
t-20 -36.5t-32.5 -24.5t-48 -6.5h-45v-442h-47zM215 733h45q18 0 30 5t20 20t12.5 29.5t6.5 47t2.5 59t0.5 77.5q0 50 -0.5 76.5t-2.5 58.5t-6.5 47t-12.5 30t-20.5 20t-29.5 5h-45v-475z" />
    <glyph glyph-name="endash" unicode="&#x2013;" horiz-adv-x="425" 
d="M39 580v45h350v-45h-350z" />
    <glyph glyph-name="emdash" unicode="&#x2014;" horiz-adv-x="569" 
d="M39 580v45h491v-45h-491z" />
    <glyph glyph-name="quoteleft" unicode="&#x2018;" horiz-adv-x="163" 
d="M53 1270v143q0 57 8.5 76.5t40.5 28.5l11 -35q-18 -6 -22.5 -16t-4.5 -54h25v-143h-58z" />
    <glyph glyph-name="quoteright" unicode="&#x2019;" horiz-adv-x="163" 
d="M61 1270l-10 35q18 6 22.5 15.5t4.5 53.5h-25v144h58v-144q0 -56 -9 -75.5t-41 -28.5z" />
    <glyph glyph-name="quotesinglbase" unicode="&#x201a;" horiz-adv-x="163" 
d="M61 -104l-10 34q18 6 22.5 16t4.5 54h-25v143h58v-143q0 -56 -9 -75.5t-41 -28.5z" />
    <glyph glyph-name="quotedblleft" unicode="&#x201c;" horiz-adv-x="278" 
d="M53 1270v143q0 57 8.5 76.5t40.5 28.5l11 -35q-18 -6 -22.5 -16t-4.5 -54h25v-143h-58zM164 1270v143q0 57 8.5 76.5t40.5 28.5l10 -35q-18 -6 -22 -16t-4 -54h24v-143h-57z" />
    <glyph glyph-name="quotedblright" unicode="&#x201d;" horiz-adv-x="274" 
d="M61 1270l-10 35q18 6 22.5 15.5t4.5 53.5h-25v144h58v-144q0 -56 -9 -75.5t-41 -28.5zM172 1270l-10 35q18 6 22 15.5t4 53.5h-24v144h57v-144q0 -57 -8.5 -76t-40.5 -28z" />
    <glyph glyph-name="quotedblbase" unicode="&#x201e;" horiz-adv-x="274" 
d="M61 -104l-10 34q18 6 22.5 16t4.5 54h-25v143h58v-143q0 -56 -9 -75.5t-41 -28.5zM172 -104l-10 34q18 6 22 16t4 54h-24v143h57v-143q0 -57 -8.5 -76t-40.5 -28z" />
    <glyph glyph-name="dagger" unicode="&#x2020;" horiz-adv-x="358" 
d="M45 1065v45h111v438h47v-438h110v-45h-110v-1364h-47v1364h-111z" />
    <glyph glyph-name="daggerdbl" unicode="&#x2021;" horiz-adv-x="356" 
d="M156 -297v436h-111v45h111v881h-111v45h111v438h47v-438h110v-45h-110v-881h110v-45h-110v-436h-47z" />
    <glyph glyph-name="bullet" unicode="&#x2022;" horiz-adv-x="237" 
d="M72 508v229h94v-229h-94z" />
    <glyph glyph-name="ellipsis" unicode="&#x2026;" horiz-adv-x="438" 
d="M53 0v123h58v-123h-58zM197 0v123h57v-123h-57zM328 0v123h57v-123h-57z" />
    <glyph glyph-name="perthousand" unicode="&#x2030;" horiz-adv-x="876" 
d="M139 614q-47 0 -71 33q-23 32 -28 107t-5 319q0 241 5 314t28 106q27 31 71 31q48 0 72 -31q23 -32 28 -105.5t5 -314.5q0 -243 -5 -318t-28 -108q-24 -33 -72 -33zM479 -8q-47 0 -71 33q-23 32 -28 107t-5 319q0 241 5 313.5t28 105.5q27 31 71 31q48 0 72 -31
q23 -32 28 -105t5 -314q0 -243 -5 -318t-28 -108q-24 -33 -72 -33zM737 -8q-47 0 -71 33q-23 32 -28 107t-5 319q0 241 5 313.5t28 105.5q27 31 71 31q48 0 72 -31q23 -32 28 -105t5 -314q0 -243 -5 -318t-28 -108q-24 -33 -72 -33zM139 659q41 0 49.5 69.5t8.5 344.5
q0 270 -9 338t-49 68q-41 0 -49 -65.5t-8 -340.5q0 -277 8 -345.5t49 -68.5zM479 37q41 0 49.5 69.5t8.5 344.5q0 270 -9 337.5t-49 67.5q-41 0 -49 -65t-8 -340q0 -277 8 -345.5t49 -68.5zM737 37q41 0 49.5 69.5t8.5 344.5q0 270 -9 337.5t-49 67.5q-41 0 -49 -65t-8 -340
q0 -277 8 -345.5t49 -68.5zM180 0l211 1518h47l-211 -1518h-47z" />
    <glyph glyph-name="guilsinglleft" unicode="&#x2039;" horiz-adv-x="290" 
d="M170 0l-94 555l94 555h45l-94 -555l94 -555h-45z" />
    <glyph glyph-name="guilsinglright" unicode="&#x203a;" horiz-adv-x="290" 
d="M76 0l94 555l-94 555h45l94 -555l-94 -555h-45z" />
    <glyph glyph-name="fraction" unicode="&#x2044;" horiz-adv-x="317" 
d="M0 0l272 1518h45l-272 -1518h-45z" />
    <glyph glyph-name="fraction" unicode="&#x2215;" horiz-adv-x="317" 
d="M0 0l272 1518h45l-272 -1518h-45z" />
    <glyph glyph-name="Euro" unicode="&#x20ac;" horiz-adv-x="393" 
d="M25 809v43h75q0 340 6.5 446t34.5 158q38 68 131 68q42 0 76 -6l-8 -43q-40 4 -68 4q-61 0 -84 -41q-32 -55 -38 -264q-3 -96 -3 -322h164v-43h-164v-107h164v-43h-164q0 -226 3 -335t17.5 -182t36 -89t66.5 -16q35 0 66 8l12 -41q-38 -12 -78 -12q-46 0 -77 13t-52 54
q-29 57 -35 158.5t-6 441.5h-75v43h75v107h-75z" />
    <glyph glyph-name="trademark" unicode="&#x2122;" horiz-adv-x="616" 
d="M121 680v795h-74v43h193v-43h-74v-795h-45zM260 680v838h59l64 -562l12 -155l13 153l63 564h59v-838h-41v702l-18 -213l-55 -489h-41l-58 491l-16 213v-704h-41z" />
    <glyph glyph-name="partialdiff" unicode="&#x2202;" horiz-adv-x="1703" 
d="M258 246q-88 105 -136 237t-48 277q0 144 48 276t136 236q6 -4 14 -12q-85 -103 -131.5 -231.5t-46.5 -268.5q0 -285 180 -500zM467 432q-117 143 -117 328q0 183 115 327q3 -2 8 -7t8 -7q-110 -136 -110 -313q0 -182 110 -314zM541 498q-92 116 -92 262t92 262
q3 -2 8 -7t8 -7q-88 -109 -88 -248t88 -248q-3 -2 -8 -7t-8 -7zM647 592q-57 72 -57 168q0 97 57 166l15 -15q-52 -69 -52 -151q0 -84 54 -154q-3 -2 -8.5 -7t-8.5 -7zM715 655q-33 48 -33 105q0 56 33 104q3 -2 8 -7t8 -7q-29 -44 -29 -90t29 -90q-3 -2 -16 -15zM774 709
q-14 25 -14 51t14 51l12 -10q-10 -20 -10 -41t10 -41q-4 -4 -12 -10zM852 123q-236 0 -412 158l2.5 2.5l5 5l5.5 5.5t2 1q171 -152 397 -152q227 0 395 152q2 -3 7.5 -8t7.5 -8q-177 -156 -410 -156zM852 664q-31 0 -55 18l12 12q21 -14 43 -14q26 0 43 14q4 -4 10 -12
q-21 -18 -53 -18zM987 653q-7 10 -14 15q28 42 28 92q0 51 -28 90l2.5 2.5t5 4.5t5.5 5t1 2q35 -44 35 -104t-35 -107zM598 551q-72 91 -72 209q0 119 74 209l14 -15q-67 -87 -67 -194q0 -108 67 -195q-10 -10 -16 -14zM852 -35q-145 0 -278 52.5t-238 146.5l14 16
q102 -92 231 -143t271 -51q285 0 500 192q0 1 3.5 -2.5t6.5 -7.5l4 -4q-104 -95 -236 -147t-278 -52zM852 248q-189 0 -330 125l15 16q134 -121 315 -121q182 0 313 121q2 -3 7.5 -8t7.5 -8q-138 -125 -328 -125zM852 348q-145 0 -264 101l14 14q108 -94 250 -94
q143 0 248 94q2 -3 7 -8.5t7 -8.5q-112 -98 -262 -98zM852 428q-116 0 -211 78l14 16q86 -73 197 -73t197 73q4 -4 12 -16q-91 -78 -209 -78zM852 543q-77 0 -135 49l14 16q51 -45 121 -45q68 0 119 45q2 -3 7 -8t7 -8q-58 -49 -133 -49zM733 911q-4 3 -7 6.5t-6 6.5l-3 4
q58 49 135 49t135 -49l-16 -17q-51 45 -119 45t-119 -45zM1167 1130q-134 121 -315 121q-179 0 -313 -118l-15 14q141 125 328 125q189 0 330 -125q-4 -6 -15 -17zM930 709l-12 10q10 20 10 41t-10 41l12 10q14 -25 14 -51t-14 -51zM958 682q-10 10 -16 14q21 32 21 64
t-21 63l16 15q25 -36 25 -78t-25 -78zM1020 627q-6 4 -16 14q38 50 38 119t-38 119l14 14q45 -57 45 -133q0 -71 -43 -133zM1106 551q-3 2 -8 7t-8 7q67 87 67 195t-70 194l17 15q74 -90 74 -209q0 -118 -72 -209zM1163 498q-10 10 -16 14q88 109 88 248t-88 248l16 14
q92 -116 92 -262t-92 -262zM1237 432q-6 4 -16 14q112 134 112 314q0 182 -112 313l16 14q117 -139 117 -327q0 -189 -117 -328zM1329 350q-2 2 -7 6t-7 6q141 175 141 398q0 227 -143 395l16 14q148 -179 148 -409q0 -231 -148 -410zM1446 246q-6 6 -16 14q180 215 180 500
t-180 500l16 14q88 -105 136 -237t48 -277q0 -144 -48 -276t-136 -238zM375 348q-148 182 -148 412q0 229 146 409q2 -2 7.5 -6.5t8.5 -7.5q-141 -170 -141 -395q0 -228 141 -398zM684 627q-43 59 -43 133t43 133q6 -4 16 -14q-38 -50 -38 -119q0 -67 38 -117zM745 682
q-24 34 -24 78t24 78q2 -3 4.5 -5.5t6 -5.5t4.5 -4q-19 -34 -19 -63q0 -30 19 -64zM809 825l-10 13q21 18 53 18t53 -18l-10 -13q-23 15 -43 15q-25 0 -43 -15zM786 852l-14 14q37 29 80 29q41 0 78 -29q-8 -8 -12 -14q-28 25 -66 25q-34 0 -66 -25zM760 881l-15 16
q45 39 107 39q61 0 106 -39l-14 -16q-37 34 -92 34t-92 -34zM604 1057l-14 16q112 98 262 98q151 0 262 -100q1 0 -2 -3.5t-6 -7.5l-4 -3q-108 94 -250 94q-143 0 -248 -94zM852 492q-100 0 -170 61l14 16q70 -57 156 -57q87 0 154 57l14 -14q-73 -63 -168 -63zM852 584
q-61 0 -109 39l15 16q47 -35 94 -35q51 0 92 35l14 -16q-45 -39 -106 -39zM852 625q-43 0 -82 28l14 15q36 -25 68 -25q34 0 66 25l14 -15q-36 -28 -80 -28zM698 950l-14 15q73 63 168 63q98 0 168 -61l-14 -17q-68 58 -154 58q-87 0 -154 -58zM655 997l-14 17q91 78 211 78
q119 0 209 -80l-12 -15q-83 74 -197 74q-110 0 -197 -74zM1249 1223q-166 153 -397 153q-227 0 -397 -151l-15 14q179 158 412 158t412 -158zM352 1339l-14 17q104 95 236 146.5t278 51.5q145 0 278 -52t238 -146l-14 -17q-102 93 -231 144t-271 51t-270 -51t-230 -144z
M1057 594l-15 14q52 69 52 152t-54 153l17 15q57 -72 57 -168q0 -97 -57 -166z" />
    <glyph glyph-name="product" unicode="&#x220f;" horiz-adv-x="1703" 
d="M258 246q-88 105 -136 237t-48 277q0 144 48 276t136 236q6 -4 14 -12q-85 -103 -131.5 -231.5t-46.5 -268.5q0 -285 180 -500zM467 432q-117 143 -117 328q0 183 115 327q3 -2 8 -7t8 -7q-110 -136 -110 -313q0 -182 110 -314zM541 498q-92 116 -92 262t92 262
q3 -2 8 -7t8 -7q-88 -109 -88 -248t88 -248q-3 -2 -8 -7t-8 -7zM647 592q-57 72 -57 168q0 97 57 166l15 -15q-52 -69 -52 -151q0 -84 54 -154q-3 -2 -8.5 -7t-8.5 -7zM715 655q-33 48 -33 105q0 56 33 104q3 -2 8 -7t8 -7q-29 -44 -29 -90t29 -90q-3 -2 -16 -15zM774 709
q-14 25 -14 51t14 51l12 -10q-10 -20 -10 -41t10 -41q-4 -4 -12 -10zM852 123q-236 0 -412 158l2.5 2.5l5 5l5.5 5.5t2 1q171 -152 397 -152q227 0 395 152q2 -3 7.5 -8t7.5 -8q-177 -156 -410 -156zM852 664q-31 0 -55 18l12 12q21 -14 43 -14q26 0 43 14q4 -4 10 -12
q-21 -18 -53 -18zM987 653q-7 10 -14 15q28 42 28 92q0 51 -28 90l2.5 2.5t5 4.5t5.5 5t1 2q35 -44 35 -104t-35 -107zM598 551q-72 91 -72 209q0 119 74 209l14 -15q-67 -87 -67 -194q0 -108 67 -195q-10 -10 -16 -14zM852 -35q-145 0 -278 52.5t-238 146.5l14 16
q102 -92 231 -143t271 -51q285 0 500 192q0 1 3.5 -2.5t6.5 -7.5l4 -4q-104 -95 -236 -147t-278 -52zM852 248q-189 0 -330 125l15 16q134 -121 315 -121q182 0 313 121q2 -3 7.5 -8t7.5 -8q-138 -125 -328 -125zM852 348q-145 0 -264 101l14 14q108 -94 250 -94
q143 0 248 94q2 -3 7 -8.5t7 -8.5q-112 -98 -262 -98zM852 428q-116 0 -211 78l14 16q86 -73 197 -73t197 73q4 -4 12 -16q-91 -78 -209 -78zM852 543q-77 0 -135 49l14 16q51 -45 121 -45q68 0 119 45q2 -3 7 -8t7 -8q-58 -49 -133 -49zM733 911q-4 3 -7 6.5t-6 6.5l-3 4
q58 49 135 49t135 -49l-16 -17q-51 45 -119 45t-119 -45zM1167 1130q-134 121 -315 121q-179 0 -313 -118l-15 14q141 125 328 125q189 0 330 -125q-4 -6 -15 -17zM930 709l-12 10q10 20 10 41t-10 41l12 10q14 -25 14 -51t-14 -51zM958 682q-10 10 -16 14q21 32 21 64
t-21 63l16 15q25 -36 25 -78t-25 -78zM1020 627q-6 4 -16 14q38 50 38 119t-38 119l14 14q45 -57 45 -133q0 -71 -43 -133zM1106 551q-3 2 -8 7t-8 7q67 87 67 195t-70 194l17 15q74 -90 74 -209q0 -118 -72 -209zM1163 498q-10 10 -16 14q88 109 88 248t-88 248l16 14
q92 -116 92 -262t-92 -262zM1237 432q-6 4 -16 14q112 134 112 314q0 182 -112 313l16 14q117 -139 117 -327q0 -189 -117 -328zM1329 350q-2 2 -7 6t-7 6q141 175 141 398q0 227 -143 395l16 14q148 -179 148 -409q0 -231 -148 -410zM1446 246q-6 6 -16 14q180 215 180 500
t-180 500l16 14q88 -105 136 -237t48 -277q0 -144 -48 -276t-136 -238zM375 348q-148 182 -148 412q0 229 146 409q2 -2 7.5 -6.5t8.5 -7.5q-141 -170 -141 -395q0 -228 141 -398zM684 627q-43 59 -43 133t43 133q6 -4 16 -14q-38 -50 -38 -119q0 -67 38 -117zM745 682
q-24 34 -24 78t24 78q2 -3 4.5 -5.5t6 -5.5t4.5 -4q-19 -34 -19 -63q0 -30 19 -64zM809 825l-10 13q21 18 53 18t53 -18l-10 -13q-23 15 -43 15q-25 0 -43 -15zM786 852l-14 14q37 29 80 29q41 0 78 -29q-8 -8 -12 -14q-28 25 -66 25q-34 0 -66 -25zM760 881l-15 16
q45 39 107 39q61 0 106 -39l-14 -16q-37 34 -92 34t-92 -34zM604 1057l-14 16q112 98 262 98q151 0 262 -100q1 0 -2 -3.5t-6 -7.5l-4 -3q-108 94 -250 94q-143 0 -248 -94zM852 492q-100 0 -170 61l14 16q70 -57 156 -57q87 0 154 57l14 -14q-73 -63 -168 -63zM852 584
q-61 0 -109 39l15 16q47 -35 94 -35q51 0 92 35l14 -16q-45 -39 -106 -39zM852 625q-43 0 -82 28l14 15q36 -25 68 -25q34 0 66 25l14 -15q-36 -28 -80 -28zM698 950l-14 15q73 63 168 63q98 0 168 -61l-14 -17q-68 58 -154 58q-87 0 -154 -58zM655 997l-14 17q91 78 211 78
q119 0 209 -80l-12 -15q-83 74 -197 74q-110 0 -197 -74zM1249 1223q-166 153 -397 153q-227 0 -397 -151l-15 14q179 158 412 158t412 -158zM352 1339l-14 17q104 95 236 146.5t278 51.5q145 0 278 -52t238 -146l-14 -17q-102 93 -231 144t-271 51t-270 -51t-230 -144z
M1057 594l-15 14q52 69 52 152t-54 153l17 15q57 -72 57 -168q0 -97 -57 -166z" />
    <glyph glyph-name="summation" unicode="&#x2211;" horiz-adv-x="1703" 
d="M258 246q-88 105 -136 237t-48 277q0 144 48 276t136 236q6 -4 14 -12q-85 -103 -131.5 -231.5t-46.5 -268.5q0 -285 180 -500zM467 432q-117 143 -117 328q0 183 115 327q3 -2 8 -7t8 -7q-110 -136 -110 -313q0 -182 110 -314zM541 498q-92 116 -92 262t92 262
q3 -2 8 -7t8 -7q-88 -109 -88 -248t88 -248q-3 -2 -8 -7t-8 -7zM647 592q-57 72 -57 168q0 97 57 166l15 -15q-52 -69 -52 -151q0 -84 54 -154q-3 -2 -8.5 -7t-8.5 -7zM715 655q-33 48 -33 105q0 56 33 104q3 -2 8 -7t8 -7q-29 -44 -29 -90t29 -90q-3 -2 -16 -15zM774 709
q-14 25 -14 51t14 51l12 -10q-10 -20 -10 -41t10 -41q-4 -4 -12 -10zM852 123q-236 0 -412 158l2.5 2.5l5 5l5.5 5.5t2 1q171 -152 397 -152q227 0 395 152q2 -3 7.5 -8t7.5 -8q-177 -156 -410 -156zM852 664q-31 0 -55 18l12 12q21 -14 43 -14q26 0 43 14q4 -4 10 -12
q-21 -18 -53 -18zM987 653q-7 10 -14 15q28 42 28 92q0 51 -28 90l2.5 2.5t5 4.5t5.5 5t1 2q35 -44 35 -104t-35 -107zM598 551q-72 91 -72 209q0 119 74 209l14 -15q-67 -87 -67 -194q0 -108 67 -195q-10 -10 -16 -14zM852 -35q-145 0 -278 52.5t-238 146.5l14 16
q102 -92 231 -143t271 -51q285 0 500 192q0 1 3.5 -2.5t6.5 -7.5l4 -4q-104 -95 -236 -147t-278 -52zM852 248q-189 0 -330 125l15 16q134 -121 315 -121q182 0 313 121q2 -3 7.5 -8t7.5 -8q-138 -125 -328 -125zM852 348q-145 0 -264 101l14 14q108 -94 250 -94
q143 0 248 94q2 -3 7 -8.5t7 -8.5q-112 -98 -262 -98zM852 428q-116 0 -211 78l14 16q86 -73 197 -73t197 73q4 -4 12 -16q-91 -78 -209 -78zM852 543q-77 0 -135 49l14 16q51 -45 121 -45q68 0 119 45q2 -3 7 -8t7 -8q-58 -49 -133 -49zM733 911q-4 3 -7 6.5t-6 6.5l-3 4
q58 49 135 49t135 -49l-16 -17q-51 45 -119 45t-119 -45zM1167 1130q-134 121 -315 121q-179 0 -313 -118l-15 14q141 125 328 125q189 0 330 -125q-4 -6 -15 -17zM930 709l-12 10q10 20 10 41t-10 41l12 10q14 -25 14 -51t-14 -51zM958 682q-10 10 -16 14q21 32 21 64
t-21 63l16 15q25 -36 25 -78t-25 -78zM1020 627q-6 4 -16 14q38 50 38 119t-38 119l14 14q45 -57 45 -133q0 -71 -43 -133zM1106 551q-3 2 -8 7t-8 7q67 87 67 195t-70 194l17 15q74 -90 74 -209q0 -118 -72 -209zM1163 498q-10 10 -16 14q88 109 88 248t-88 248l16 14
q92 -116 92 -262t-92 -262zM1237 432q-6 4 -16 14q112 134 112 314q0 182 -112 313l16 14q117 -139 117 -327q0 -189 -117 -328zM1329 350q-2 2 -7 6t-7 6q141 175 141 398q0 227 -143 395l16 14q148 -179 148 -409q0 -231 -148 -410zM1446 246q-6 6 -16 14q180 215 180 500
t-180 500l16 14q88 -105 136 -237t48 -277q0 -144 -48 -276t-136 -238zM375 348q-148 182 -148 412q0 229 146 409q2 -2 7.5 -6.5t8.5 -7.5q-141 -170 -141 -395q0 -228 141 -398zM684 627q-43 59 -43 133t43 133q6 -4 16 -14q-38 -50 -38 -119q0 -67 38 -117zM745 682
q-24 34 -24 78t24 78q2 -3 4.5 -5.5t6 -5.5t4.5 -4q-19 -34 -19 -63q0 -30 19 -64zM809 825l-10 13q21 18 53 18t53 -18l-10 -13q-23 15 -43 15q-25 0 -43 -15zM786 852l-14 14q37 29 80 29q41 0 78 -29q-8 -8 -12 -14q-28 25 -66 25q-34 0 -66 -25zM760 881l-15 16
q45 39 107 39q61 0 106 -39l-14 -16q-37 34 -92 34t-92 -34zM604 1057l-14 16q112 98 262 98q151 0 262 -100q1 0 -2 -3.5t-6 -7.5l-4 -3q-108 94 -250 94q-143 0 -248 -94zM852 492q-100 0 -170 61l14 16q70 -57 156 -57q87 0 154 57l14 -14q-73 -63 -168 -63zM852 584
q-61 0 -109 39l15 16q47 -35 94 -35q51 0 92 35l14 -16q-45 -39 -106 -39zM852 625q-43 0 -82 28l14 15q36 -25 68 -25q34 0 66 25l14 -15q-36 -28 -80 -28zM698 950l-14 15q73 63 168 63q98 0 168 -61l-14 -17q-68 58 -154 58q-87 0 -154 -58zM655 997l-14 17q91 78 211 78
q119 0 209 -80l-12 -15q-83 74 -197 74q-110 0 -197 -74zM1249 1223q-166 153 -397 153q-227 0 -397 -151l-15 14q179 158 412 158t412 -158zM352 1339l-14 17q104 95 236 146.5t278 51.5q145 0 278 -52t238 -146l-14 -17q-102 93 -231 144t-271 51t-270 -51t-230 -144z
M1057 594l-15 14q52 69 52 152t-54 153l17 15q57 -72 57 -168q0 -97 -57 -166z" />
    <glyph glyph-name="minus" unicode="&#x2212;" horiz-adv-x="409" 
d="M76 733v43h258v-43h-258z" />
    <glyph glyph-name="radical" unicode="&#x221a;" horiz-adv-x="358" 
d="M133 -2l-86 801h43l68 -654l143 1373h41l-160 -1520h-49z" />
    <glyph glyph-name="infinity" unicode="&#x221e;" horiz-adv-x="643" 
d="M313 0v1065h-172v-1065h-47v1065h-71v45h71v264q0 93 29 133.5t106 40.5h7v-47h-5q-55 0 -72.5 -27.5t-17.5 -99.5v-264h172v264q0 93 29.5 133.5t106.5 40.5h6v-47h-4q-55 0 -73 -27.5t-18 -99.5v-264h95v-45h-95v-1065h-47zM532 0v1110h48v-1110h-48zM532 1288v164h48
v-164h-48z" />
    <glyph glyph-name="integral" unicode="&#x222b;" horiz-adv-x="1703" 
d="M258 246q-88 105 -136 237t-48 277q0 144 48 276t136 236q6 -4 14 -12q-85 -103 -131.5 -231.5t-46.5 -268.5q0 -285 180 -500zM467 432q-117 143 -117 328q0 183 115 327q3 -2 8 -7t8 -7q-110 -136 -110 -313q0 -182 110 -314zM541 498q-92 116 -92 262t92 262
q3 -2 8 -7t8 -7q-88 -109 -88 -248t88 -248q-3 -2 -8 -7t-8 -7zM647 592q-57 72 -57 168q0 97 57 166l15 -15q-52 -69 -52 -151q0 -84 54 -154q-3 -2 -8.5 -7t-8.5 -7zM715 655q-33 48 -33 105q0 56 33 104q3 -2 8 -7t8 -7q-29 -44 -29 -90t29 -90q-3 -2 -16 -15zM774 709
q-14 25 -14 51t14 51l12 -10q-10 -20 -10 -41t10 -41q-4 -4 -12 -10zM852 123q-236 0 -412 158l2.5 2.5l5 5l5.5 5.5t2 1q171 -152 397 -152q227 0 395 152q2 -3 7.5 -8t7.5 -8q-177 -156 -410 -156zM852 664q-31 0 -55 18l12 12q21 -14 43 -14q26 0 43 14q4 -4 10 -12
q-21 -18 -53 -18zM987 653q-7 10 -14 15q28 42 28 92q0 51 -28 90l2.5 2.5t5 4.5t5.5 5t1 2q35 -44 35 -104t-35 -107zM598 551q-72 91 -72 209q0 119 74 209l14 -15q-67 -87 -67 -194q0 -108 67 -195q-10 -10 -16 -14zM852 -35q-145 0 -278 52.5t-238 146.5l14 16
q102 -92 231 -143t271 -51q285 0 500 192q0 1 3.5 -2.5t6.5 -7.5l4 -4q-104 -95 -236 -147t-278 -52zM852 248q-189 0 -330 125l15 16q134 -121 315 -121q182 0 313 121q2 -3 7.5 -8t7.5 -8q-138 -125 -328 -125zM852 348q-145 0 -264 101l14 14q108 -94 250 -94
q143 0 248 94q2 -3 7 -8.5t7 -8.5q-112 -98 -262 -98zM852 428q-116 0 -211 78l14 16q86 -73 197 -73t197 73q4 -4 12 -16q-91 -78 -209 -78zM852 543q-77 0 -135 49l14 16q51 -45 121 -45q68 0 119 45q2 -3 7 -8t7 -8q-58 -49 -133 -49zM733 911q-4 3 -7 6.5t-6 6.5l-3 4
q58 49 135 49t135 -49l-16 -17q-51 45 -119 45t-119 -45zM1167 1130q-134 121 -315 121q-179 0 -313 -118l-15 14q141 125 328 125q189 0 330 -125q-4 -6 -15 -17zM930 709l-12 10q10 20 10 41t-10 41l12 10q14 -25 14 -51t-14 -51zM958 682q-10 10 -16 14q21 32 21 64
t-21 63l16 15q25 -36 25 -78t-25 -78zM1020 627q-6 4 -16 14q38 50 38 119t-38 119l14 14q45 -57 45 -133q0 -71 -43 -133zM1106 551q-3 2 -8 7t-8 7q67 87 67 195t-70 194l17 15q74 -90 74 -209q0 -118 -72 -209zM1163 498q-10 10 -16 14q88 109 88 248t-88 248l16 14
q92 -116 92 -262t-92 -262zM1237 432q-6 4 -16 14q112 134 112 314q0 182 -112 313l16 14q117 -139 117 -327q0 -189 -117 -328zM1329 350q-2 2 -7 6t-7 6q141 175 141 398q0 227 -143 395l16 14q148 -179 148 -409q0 -231 -148 -410zM1446 246q-6 6 -16 14q180 215 180 500
t-180 500l16 14q88 -105 136 -237t48 -277q0 -144 -48 -276t-136 -238zM375 348q-148 182 -148 412q0 229 146 409q2 -2 7.5 -6.5t8.5 -7.5q-141 -170 -141 -395q0 -228 141 -398zM684 627q-43 59 -43 133t43 133q6 -4 16 -14q-38 -50 -38 -119q0 -67 38 -117zM745 682
q-24 34 -24 78t24 78q2 -3 4.5 -5.5t6 -5.5t4.5 -4q-19 -34 -19 -63q0 -30 19 -64zM809 825l-10 13q21 18 53 18t53 -18l-10 -13q-23 15 -43 15q-25 0 -43 -15zM786 852l-14 14q37 29 80 29q41 0 78 -29q-8 -8 -12 -14q-28 25 -66 25q-34 0 -66 -25zM760 881l-15 16
q45 39 107 39q61 0 106 -39l-14 -16q-37 34 -92 34t-92 -34zM604 1057l-14 16q112 98 262 98q151 0 262 -100q1 0 -2 -3.5t-6 -7.5l-4 -3q-108 94 -250 94q-143 0 -248 -94zM852 492q-100 0 -170 61l14 16q70 -57 156 -57q87 0 154 57l14 -14q-73 -63 -168 -63zM852 584
q-61 0 -109 39l15 16q47 -35 94 -35q51 0 92 35l14 -16q-45 -39 -106 -39zM852 625q-43 0 -82 28l14 15q36 -25 68 -25q34 0 66 25l14 -15q-36 -28 -80 -28zM698 950l-14 15q73 63 168 63q98 0 168 -61l-14 -17q-68 58 -154 58q-87 0 -154 -58zM655 997l-14 17q91 78 211 78
q119 0 209 -80l-12 -15q-83 74 -197 74q-110 0 -197 -74zM1249 1223q-166 153 -397 153q-227 0 -397 -151l-15 14q179 158 412 158t412 -158zM352 1339l-14 17q104 95 236 146.5t278 51.5q145 0 278 -52t238 -146l-14 -17q-102 93 -231 144t-271 51t-270 -51t-230 -144z
M1057 594l-15 14q52 69 52 152t-54 153l17 15q57 -72 57 -168q0 -97 -57 -166z" />
    <glyph glyph-name="approxequal" unicode="&#x2248;" horiz-adv-x="409" 
d="M74 578q0 57 16 77.5t45 20.5q26 0 76 -26.5t61 -26.5q12 0 15.5 9.5t3.5 43.5h45q0 -58 -14.5 -77t-47.5 -19q-26 0 -76 26.5t-61 26.5q-18 0 -18 -55h-45zM74 768q0 57 16 77.5t45 20.5q26 0 76 -26.5t61 -26.5q12 0 15.5 9.5t3.5 43.5h45q0 -58 -14.5 -77t-47.5 -19
q-26 0 -76 26.5t-61 26.5q-18 0 -18 -55h-45z" />
    <glyph glyph-name="notequal" unicode="&#x2260;" horiz-adv-x="468" 
d="M313 0v1065h-172v-1065h-47v1065h-71v45h71v264q0 93 29 133.5t106 40.5h7v-47h-5q-55 0 -72.5 -27.5t-17.5 -99.5v-264h172v264q0 93 29.5 133.5t106.5 40.5h6v-47h-4q-55 0 -73 -27.5t-18 -99.5v-264h95v-45h-95v-1065h-47z" />
    <glyph glyph-name="lessequal" unicode="&#x2264;" horiz-adv-x="409" 
d="M305 465l-237 266v49l237 267v-66l-201 -225l201 -226v-65zM68 301v45h237v-45h-237z" />
    <glyph glyph-name="greaterequal" unicode="&#x2265;" horiz-adv-x="409" 
d="M104 465v65l201 226l-201 225v66l238 -267v-49zM104 301v45h238v-45h-238z" />
    <glyph glyph-name="lozenge" unicode="&#x25ca;" horiz-adv-x="477" 
d="M94 0v1065h-71v45h71v264q0 93 29 133.5t106 40.5h7v-47h-5q-55 0 -72.5 -27.5t-17.5 -99.5v-264h168l4 291l43 20v-311h95v-45h-95v-911q0 -63 17 -85t73 -22h5v-47h-5q-78 0 -107.5 35t-29.5 119v911h-168v-1065h-47z" />
    <glyph glyph-name="apple" unicode="&#xf8ff;" horiz-adv-x="1703" 
d="M258 246q-88 105 -136 237t-48 277q0 144 48 276t136 236q6 -4 14 -12q-85 -103 -131.5 -231.5t-46.5 -268.5q0 -285 180 -500zM467 432q-117 143 -117 328q0 183 115 327q3 -2 8 -7t8 -7q-110 -136 -110 -313q0 -182 110 -314zM541 498q-92 116 -92 262t92 262
q3 -2 8 -7t8 -7q-88 -109 -88 -248t88 -248q-3 -2 -8 -7t-8 -7zM647 592q-57 72 -57 168q0 97 57 166l15 -15q-52 -69 -52 -151q0 -84 54 -154q-3 -2 -8.5 -7t-8.5 -7zM715 655q-33 48 -33 105q0 56 33 104q3 -2 8 -7t8 -7q-29 -44 -29 -90t29 -90q-3 -2 -16 -15zM774 709
q-14 25 -14 51t14 51l12 -10q-10 -20 -10 -41t10 -41q-4 -4 -12 -10zM852 123q-236 0 -412 158l2.5 2.5l5 5l5.5 5.5t2 1q171 -152 397 -152q227 0 395 152q2 -3 7.5 -8t7.5 -8q-177 -156 -410 -156zM852 664q-31 0 -55 18l12 12q21 -14 43 -14q26 0 43 14q4 -4 10 -12
q-21 -18 -53 -18zM987 653q-7 10 -14 15q28 42 28 92q0 51 -28 90l2.5 2.5t5 4.5t5.5 5t1 2q35 -44 35 -104t-35 -107zM598 551q-72 91 -72 209q0 119 74 209l14 -15q-67 -87 -67 -194q0 -108 67 -195q-10 -10 -16 -14zM852 -35q-145 0 -278 52.5t-238 146.5l14 16
q102 -92 231 -143t271 -51q285 0 500 192q0 1 3.5 -2.5t6.5 -7.5l4 -4q-104 -95 -236 -147t-278 -52zM852 248q-189 0 -330 125l15 16q134 -121 315 -121q182 0 313 121q2 -3 7.5 -8t7.5 -8q-138 -125 -328 -125zM852 348q-145 0 -264 101l14 14q108 -94 250 -94
q143 0 248 94q2 -3 7 -8.5t7 -8.5q-112 -98 -262 -98zM852 428q-116 0 -211 78l14 16q86 -73 197 -73t197 73q4 -4 12 -16q-91 -78 -209 -78zM852 543q-77 0 -135 49l14 16q51 -45 121 -45q68 0 119 45q2 -3 7 -8t7 -8q-58 -49 -133 -49zM733 911q-4 3 -7 6.5t-6 6.5l-3 4
q58 49 135 49t135 -49l-16 -17q-51 45 -119 45t-119 -45zM1167 1130q-134 121 -315 121q-179 0 -313 -118l-15 14q141 125 328 125q189 0 330 -125q-4 -6 -15 -17zM930 709l-12 10q10 20 10 41t-10 41l12 10q14 -25 14 -51t-14 -51zM958 682q-10 10 -16 14q21 32 21 64
t-21 63l16 15q25 -36 25 -78t-25 -78zM1020 627q-6 4 -16 14q38 50 38 119t-38 119l14 14q45 -57 45 -133q0 -71 -43 -133zM1106 551q-3 2 -8 7t-8 7q67 87 67 195t-70 194l17 15q74 -90 74 -209q0 -118 -72 -209zM1163 498q-10 10 -16 14q88 109 88 248t-88 248l16 14
q92 -116 92 -262t-92 -262zM1237 432q-6 4 -16 14q112 134 112 314q0 182 -112 313l16 14q117 -139 117 -327q0 -189 -117 -328zM1329 350q-2 2 -7 6t-7 6q141 175 141 398q0 227 -143 395l16 14q148 -179 148 -409q0 -231 -148 -410zM1446 246q-6 6 -16 14q180 215 180 500
t-180 500l16 14q88 -105 136 -237t48 -277q0 -144 -48 -276t-136 -238zM375 348q-148 182 -148 412q0 229 146 409q2 -2 7.5 -6.5t8.5 -7.5q-141 -170 -141 -395q0 -228 141 -398zM684 627q-43 59 -43 133t43 133q6 -4 16 -14q-38 -50 -38 -119q0 -67 38 -117zM745 682
q-24 34 -24 78t24 78q2 -3 4.5 -5.5t6 -5.5t4.5 -4q-19 -34 -19 -63q0 -30 19 -64zM809 825l-10 13q21 18 53 18t53 -18l-10 -13q-23 15 -43 15q-25 0 -43 -15zM786 852l-14 14q37 29 80 29q41 0 78 -29q-8 -8 -12 -14q-28 25 -66 25q-34 0 -66 -25zM760 881l-15 16
q45 39 107 39q61 0 106 -39l-14 -16q-37 34 -92 34t-92 -34zM604 1057l-14 16q112 98 262 98q151 0 262 -100q1 0 -2 -3.5t-6 -7.5l-4 -3q-108 94 -250 94q-143 0 -248 -94zM852 492q-100 0 -170 61l14 16q70 -57 156 -57q87 0 154 57l14 -14q-73 -63 -168 -63zM852 584
q-61 0 -109 39l15 16q47 -35 94 -35q51 0 92 35l14 -16q-45 -39 -106 -39zM852 625q-43 0 -82 28l14 15q36 -25 68 -25q34 0 66 25l14 -15q-36 -28 -80 -28zM698 950l-14 15q73 63 168 63q98 0 168 -61l-14 -17q-68 58 -154 58q-87 0 -154 -58zM655 997l-14 17q91 78 211 78
q119 0 209 -80l-12 -15q-83 74 -197 74q-110 0 -197 -74zM1249 1223q-166 153 -397 153q-227 0 -397 -151l-15 14q179 158 412 158t412 -158zM352 1339l-14 17q104 95 236 146.5t278 51.5q145 0 278 -52t238 -146l-14 -17q-102 93 -231 144t-271 51t-270 -51t-230 -144z
M1057 594l-15 14q52 69 52 152t-54 153l17 15q57 -72 57 -168q0 -97 -57 -166z" />
    </font>
</defs>
</svg>
