<?xml version="1.0" standalone="no"?>
<!DOCTYPE svg PUBLIC "-//W3C//DTD SVG 1.1//EN" "http://www.w3.org/Graphics/SVG/1.1/DTD/svg11.dtd" >
<svg xmlns="http://www.w3.org/2000/svg" xmlns:xlink="http://www.w3.org/1999/xlink" version="1.1">
<metadata>
Created by FontForge 20201107 at Wed Dec 24 15:02:14 2025
 By 
Copyright (c) The Font Bureau, Inc., 2003. All rights reserved.
</metadata>
<defs>
<font id="AntennaComp-LightItalic" horiz-adv-x="450" >
  <font-face 
    font-family="AntennaComp LightItalic"
    font-weight="300"
    font-style="italic"
    font-stretch="normal"
    units-per-em="2048"
    panose-1="2 0 5 8 0 0 0 2 0 4"
    ascent="1638"
    descent="-410"
    x-height="1128"
    cap-height="1518"
    bbox="-133 -365 1630 1843"
    underline-thickness="102"
    underline-position="-204"
    slope="-6"
    unicode-range="U+0020-FB02"
  />
<missing-glyph horiz-adv-x="174" 
 />
    <glyph glyph-name="fi" unicode="fi" horiz-adv-x="542" 
d="M47 1020l10 108h80l23 209q11 119 53 166t145 47q19 0 23 -2l-10 -112h-6q-50 0 -67.5 -22.5t-25.5 -86.5l-20 -199h86l-10 -108h-88l-138 -1317h-114l137 1317h-78zM287 0l116 1128h117l-119 -1128h-114zM420 1278l22 197h115l-20 -197h-117z" />
    <glyph glyph-name="fl" unicode="fl" horiz-adv-x="577" 
d="M47 1020l10 108h80l23 209q11 119 53 166t145 47q19 0 23 -2l-10 -112h-6q-50 0 -67.5 -22.5t-25.5 -86.5l-20 -199h86l-10 -108h-88l-138 -1317h-114l137 1317h-78zM426 -2q-84 0 -107.5 44t-13.5 144l144 1362h114l-141 -1360q-5 -48 1.5 -61.5t35.5 -13.5h16l-10 -113
q-6 -2 -39 -2z" />
    <glyph glyph-name="f_f_l" unicode="ffl" horiz-adv-x="841" 
d="M252 -297l137 1317h-151l-138 -1317h-116l139 1317h-78l10 108h80l23 209q12 120 54 166.5t146 46.5q17 0 23 -2l-12 -112h-7q-50 0 -67 -22.5t-25 -86.5l-20 -199h151l23 209q12 119 54.5 166t146.5 47q16 0 22 -2l-10 -112h-6q-52 0 -69 -22.5t-23 -86.5l-21 -199h86
l-10 -108h-88l-137 -1317h-117zM692 -2q-85 0 -108 43.5t-13 144.5l142 1362h116l-143 -1360q-4 -47 2.5 -61t34.5 -14h18l-12 -113q-6 -2 -37 -2z" />
    <glyph glyph-name="f_f_i" unicode="ffi" horiz-adv-x="808" 
d="M254 -297l137 1317h-151l-138 -1317h-114l137 1317h-78l10 108h80l23 209q11 119 53 166t145 47q19 0 23 -2l-10 -112h-6q-50 0 -67.5 -22.5t-25.5 -86.5l-20 -199h151l23 209q12 119 54.5 166t146.5 47q16 0 22 -2l-12 -112h-4q-50 0 -68 -23t-26 -86l-21 -199h86
l-10 -108h-88l-137 -1317h-115zM553 0l119 1128h114l-116 -1128h-117zM688 1278l21 201h116l-22 -201h-115z" />
    <glyph glyph-name="f_j" unicode="fj" horiz-adv-x="538" 
d="M45 1020l10 108h80l23 209q12 120 54 166.5t146 46.5q17 0 23 -2l-12 -112h-7q-50 0 -67 -22.5t-25 -86.5l-20 -199h86l-10 -108h-88l-138 -1317h-116l139 1317h-78zM209 -297l12 111q30 1 38 11.5t13 47.5l131 1255h115l-133 -1267q-8 -86 -45.5 -122t-130.5 -36z
M418 1278l22 201h117l-22 -201h-117z" />
    <glyph glyph-name="f_f" unicode="ff" horiz-adv-x="591" 
d="M252 -297l137 1317h-151l-138 -1317h-116l139 1317h-78l10 108h80l23 209q12 120 54 166.5t146 46.5q17 0 23 -2l-12 -112h-7q-50 0 -67 -22.5t-25 -86.5l-20 -199h151l23 209q12 119 57 166t154 47q23 0 29 -2l-11 -112h-18q-54 0 -72 -22.5t-24 -86.5l-21 -199h103
l-11 -108h-104l-137 -1317h-117z" />
    <glyph glyph-name=".notdef" horiz-adv-x="174" 
 />
    <glyph glyph-name=".null" horiz-adv-x="0" 
 />
    <glyph glyph-name="nonmarkingreturn" horiz-adv-x="682" 
 />
    <glyph glyph-name="space" unicode=" " horiz-adv-x="174" 
 />
    <glyph glyph-name="space" unicode="&#xa0;" horiz-adv-x="174" 
 />
    <glyph glyph-name="exclam" unicode="!" horiz-adv-x="323" 
d="M72 414l104 1104h131l-131 -1104h-104zM14 0l19 193h131l-21 -193h-129z" />
    <glyph glyph-name="quotedbl" unicode="&#x22;" 
d="M106 973l50 545h116l-63 -545h-103zM287 973l49 545h119l-66 -545h-102z" />
    <glyph glyph-name="numbersign" unicode="#" horiz-adv-x="542" 
d="M49 0l55 535h-86l15 114h84l20 195h-84l13 114h84l57 560h110l-59 -560h72l57 560h109l-58 -560h86l-12 -114h-86l-20 -195h83l-12 -114h-84l-55 -535h-109l56 535h-72l-55 -535h-109zM219 641h80l23 211h-80z" />
    <glyph glyph-name="dollar" unicode="$" horiz-adv-x="421" 
d="M47 -186l16 180q-35 2 -104 16l37 111q66 -17 110 -17q70 0 88 39t5 164l-93 871q-15 141 7.5 224t109.5 109l21 183h102l-18 -170q31 -2 100 -17l-35 -112q-35 12 -86 12q-46 0 -68 -26t-22.5 -69.5t4.5 -101.5l90 -862q4 -44 6 -67.5t3.5 -61t-1 -58t-8 -49
t-17.5 -44.5t-28.5 -32.5t-42 -26t-57.5 -13.5l-16 -182h-103z" />
    <glyph glyph-name="percent" unicode="%" horiz-adv-x="886" 
d="M178 592q-78 0 -107.5 36.5t-29.5 133.5q0 84 25 307q27 258 45 328q24 91 77 115q30 14 78 14q78 0 109 -36.5t31 -131.5q0 -84 -25 -307q-32 -293 -64 -376t-139 -83zM184 690q19 0 29 8.5t20.5 51t18.5 106t22 197.5q25 234 25 295q0 47 -8.5 62t-30.5 15
q-19 0 -29 -8.5t-20.5 -50.5t-18.5 -105.5t-22 -197.5q-23 -216 -23 -295q0 -48 8 -63t29 -15zM618 -10q-76 0 -106.5 38.5t-30.5 133.5q0 84 25 307q28 258 47 329q25 91 78 115q30 13 78 13q78 0 107.5 -36.5t29.5 -131.5q0 -84 -25 -307q-28 -259 -47 -329
q-25 -94 -80 -118q-29 -14 -76 -14zM627 90q19 0 29 8.5t20 51t18 106t21 197.5q26 244 26 295q0 47 -9.5 62t-31.5 15q-18 0 -27.5 -8.5t-20 -50.5t-18.5 -105.5t-22 -197.5q-24 -225 -24 -295q0 -47 8.5 -62.5t30.5 -15.5zM170 0l436 1518h109l-436 -1518h-109z" />
    <glyph glyph-name="ampersand" unicode="&#x26;" horiz-adv-x="591" 
d="M172 -8q-115 0 -163 49t-48 164q0 185 56.5 336.5t156.5 308.5q-43 179 -43 334q0 195 43 268q44 76 148 76q97 0 132 -43t35 -142q0 -144 -49 -272t-141 -272q21 -74 39 -133l47 -177l72 410h102l-88 -491q-17 -87 -29 -136l72 -272h-123l-22 86q-61 -94 -197 -94z
M182 96q56 0 90 28.5t60 111.5l-96 385q-28 94 -29 96q-129 -249 -129 -500q0 -64 22.5 -92.5t81.5 -28.5zM242 1188q0 -112 28 -252q111 196 111 399q0 50 -12 69t-47 19q-46 0 -62 -37q-18 -46 -18 -198z" />
    <glyph glyph-name="quotesingle" unicode="'" horiz-adv-x="270" 
d="M106 973l50 545h118l-63 -545h-105z" />
    <glyph glyph-name="parenleft" unicode="(" horiz-adv-x="385" 
d="M129 -303q-80 229 -80 553q0 160 21 375q58 563 252 929l94 -49q-75 -149 -135.5 -352t-94.5 -526q-20 -204 -20 -369q0 -303 63 -512z" />
    <glyph glyph-name="parenright" unicode=")" horiz-adv-x="385" 
d="M33 -303l-94 49q172 342 229 881q20 201 20 368q0 301 -63 510l102 49q78 -223 78 -553q0 -170 -20 -374q-58 -564 -252 -930z" />
    <glyph glyph-name="asterisk" unicode="*" horiz-adv-x="483" 
d="M307 938l-96 10l31 221l-142 -92l-51 84l170 70l-149 115l65 75l121 -121l14 224l97 -13l-33 -221l147 94l51 -84l-176 -81l156 -105l-66 -76l-124 121z" />
    <glyph glyph-name="plus" unicode="+" horiz-adv-x="536" 
d="M178 440l27 250h-131l12 115h131l25 246h116l-26 -246h129l-10 -115h-132l-26 -250h-115z" />
    <glyph glyph-name="comma" unicode="," horiz-adv-x="235" 
d="M-8 -164l-33 66q41 25 50.5 38t13.5 60h-52l21 195h131l-17 -158q-11 -99 -31.5 -136.5t-82.5 -64.5z" />
    <glyph glyph-name="hyphen" unicode="-" horiz-adv-x="339" 
d="M18 578l11 112h266l-12 -112h-265z" />
    <glyph glyph-name="hyphen" unicode="&#xad;" horiz-adv-x="339" 
d="M18 578l11 112h266l-12 -112h-265z" />
    <glyph glyph-name="period" unicode="." horiz-adv-x="235" 
d="M-29 0l21 195h131l-21 -195h-131z" />
    <glyph glyph-name="slash" unicode="/" horiz-adv-x="425" 
d="M-84 0l471 1518h119l-469 -1518h-121z" />
    <glyph glyph-name="zero" unicode="0" horiz-adv-x="503" 
d="M180 -10q-98 0 -136 49.5t-38 171.5q0 123 49 559q45 412 59 495q27 165 77 217q42 44 133 44q97 0 134.5 -49t37.5 -170q0 -111 -50 -562q-7 -61 -18 -168q-42 -392 -78.5 -489.5t-169.5 -97.5zM184 102q39 0 56 33q26 48 52 272q7 62 38 347q49 466 49 546q0 65 -14 88
t-48 23q-24 0 -38 -9t-27 -44t-21 -90.5t-20.5 -164.5t-27.5 -249q-6 -59 -9 -90q-49 -438 -49 -551q0 -65 13.5 -88t45.5 -23z" />
    <glyph glyph-name="one" unicode="1" horiz-adv-x="325" 
d="M43 0l150 1403h-109l12 115h226l-160 -1518h-119z" />
    <glyph glyph-name="two" unicode="2" horiz-adv-x="401" 
d="M-57 0l12 109l336 1095q16 51 23 84t6 64t-19.5 46t-54.5 15q-53 0 -111 -20l-41 104q74 29 174 29q92 0 131 -41t39 -115q0 -69 -43 -211l-321 -1048h229l-12 -111h-348z" />
    <glyph glyph-name="three" unicode="3" horiz-adv-x="403" 
d="M76 -10q-91 0 -148 24l45 107q55 -21 103 -21q23 0 39 6t29 24t21 39.5t16 64.5t13 85t13 115q21 211 18 255q-4 57 -38 71q-22 9 -76 10h-35l14 113h31q27 0 45.5 4.5t33 10.5t24.5 24.5t17 34t12.5 53t9 67.5t9.5 90q19 131 11 189.5t-64 58.5q-53 0 -98 -14l-35 106
q69 19 158 19q87 0 123 -42.5t36 -137.5q0 -26 -12 -162q-19 -183 -37 -251t-65 -95q32 -14 43.5 -45t11.5 -93q0 -65 -22 -276q-9 -89 -17 -146t-21 -110.5t-29 -83.5t-41.5 -53.5t-58.5 -32t-79 -8.5z" />
    <glyph glyph-name="four" unicode="4" horiz-adv-x="491" 
d="M-12 330l10 100l340 1088h113l-336 -1082h121l71 463h86l-49 -463h88l-10 -106h-88l-35 -330h-111l35 330h-235z" />
    <glyph glyph-name="five" unicode="5" horiz-adv-x="421" 
d="M113 -10q-93 0 -162 26l43 105q57 -21 108 -21q69 0 91.5 66.5t48.5 316.5q24 264 24 297q0 49 -14 66.5t-49 17.5q-23 0 -39.5 -7t-21.5 -12t-19 -20l-80 17l86 676h299l-12 -115h-187l-59 -440q30 18 84 18q72 0 101.5 -39t29.5 -135q0 -57 -27 -332
q-11 -109 -20 -174.5t-22.5 -126.5t-28.5 -91.5t-40.5 -54t-56.5 -31t-77 -7.5z" />
    <glyph glyph-name="six" unicode="6" horiz-adv-x="483" 
d="M176 -10q-85 0 -127.5 48t-42.5 171q0 30 3 75.5t6.5 79.5t12.5 121.5t13 132.5q45 451 58 540q30 203 85 276q50 67 160 80q37 4 88 4h31l-10 -115h-29q-35 0 -58 -2t-45 -11.5t-34.5 -19.5t-26 -38t-20.5 -53.5t-16 -78.5t-15 -101.5t-16 -133.5q30 39 120 39
q74 0 105 -39t31 -131q0 -52 -23 -269q-32 -299 -49 -378q-28 -129 -88 -169q-41 -28 -113 -28zM182 100q53 0 73.5 77.5t53.5 393.5q21 194 21 234q0 52 -13 70t-47 18q-19 0 -32 -4.5t-24 -20t-18 -34.5t-14 -60t-12.5 -83.5t-13.5 -117.5q-31 -288 -31 -370
q0 -62 12.5 -82.5t44.5 -20.5z" />
    <glyph glyph-name="seven" unicode="7" horiz-adv-x="399" 
d="M90 1403l10 115h349l-11 -103l-327 -1415h-121l327 1403h-227z" />
    <glyph glyph-name="eight" unicode="8" horiz-adv-x="479" 
d="M164 -10q-92 0 -132 43t-40 143q0 51 20 256q24 224 34 273q22 108 77 139q-35 30 -35 121q0 39 18 215q8 67 13 104.5t13.5 80.5t18 64.5t24 44t34 31.5t45.5 15t61 6q88 0 124 -39.5t36 -128.5q0 -52 -16 -199q-19 -171 -34.5 -236.5t-51.5 -88.5q45 -34 45 -146
q0 -78 -21 -276q-8 -75 -13.5 -119t-13.5 -93.5t-15.5 -75.5t-20.5 -53.5t-27 -39.5t-36 -23.5t-47 -14.5t-60 -3zM170 96q54 0 69.5 48t37.5 250q3 22 4 34q20 205 20 260q0 51 -13.5 71.5t-45.5 20.5q-52 0 -68.5 -53t-36.5 -250q-2 -28 -4 -43q-22 -229 -22 -252
q0 -49 13 -67.5t46 -18.5zM252 887q45 0 58.5 38.5t30.5 190.5q2 20 3 31q16 147 16 196q0 43 -11 59.5t-40 16.5q-45 0 -58 -44t-32 -222q-16 -150 -16 -197q0 -39 11 -54t38 -15z" />
    <glyph glyph-name="nine" unicode="9" horiz-adv-x="483" 
d="M20 2l11 109h26q35 0 58.5 2t45.5 12t35 20.5t26.5 38t21 54.5t16.5 79.5t15 102t16 133.5q-33 -41 -121 -41q-74 0 -104.5 39t-30.5 131q0 63 22 270q32 298 49 377q28 129 87 169q42 28 114 28q85 0 127.5 -47.5t42.5 -169.5q0 -24 -1.5 -53t-5.5 -71t-7 -76t-10 -100
t-11 -110q-45 -451 -59 -541q-30 -201 -84 -273q-50 -66 -160 -79q-37 -4 -88 -4h-31zM213 625q23 0 37.5 8t25.5 25.5t20 57t16 89.5t16 137q30 307 30 369t-13 82t-46 20q-53 0 -72.5 -76t-52.5 -393q-20 -188 -20 -235q0 -50 13 -67t46 -17z" />
    <glyph glyph-name="colon" unicode=":" horiz-adv-x="245" 
d="M-23 0l21 195h129l-21 -195h-129zM76 934l20 194h129l-20 -194h-129z" />
    <glyph glyph-name="semicolon" unicode=";" horiz-adv-x="245" 
d="M76 934l20 194h129l-20 -194h-129zM-2 -164l-31 68q39 23 47 35q11 16 15 61h-52l21 195h129l-16 -158q-11 -99 -31 -136.5t-82 -64.5z" />
    <glyph glyph-name="less" unicode="&#x3c;" horiz-adv-x="536" 
d="M375 389l-299 307l8 95l367 307l-17 -137l-241 -218l196 -215z" />
    <glyph glyph-name="equal" unicode="=" horiz-adv-x="536" 
d="M84 801l12 112h375l-10 -112h-377zM57 535l11 112h376l-12 -112h-375z" />
    <glyph glyph-name="greater" unicode="&#x3e;" horiz-adv-x="536" 
d="M82 389l14 137l244 217l-199 218l17 137l299 -307l-11 -95z" />
    <glyph glyph-name="question" unicode="?" horiz-adv-x="428" 
d="M102 414q11 123 24 195.5t44 172.5l135 432q15 49 21.5 82t3.5 61.5t-22.5 42t-55.5 13.5q-63 0 -119 -18l-37 106q66 25 170 25q183 0 183 -150q0 -45 -8.5 -84t-32.5 -116l-132 -420q-28 -91 -39.5 -158.5t-21.5 -183.5h-113zM55 0l19 180h129l-19 -180h-129z" />
    <glyph glyph-name="at" unicode="@" horiz-adv-x="778" 
d="M299 -297q-169 0 -233 80t-64 278q0 165 43 557q13 124 22 206.5t21.5 172t23 145t25.5 115.5t30.5 93.5t38 68.5t46.5 51.5t56.5 31.5t69 19.5t83.5 4.5q166 0 226.5 -75t60.5 -267q0 -165 -39 -533l-45 -426q-8 -77 -33 -110t-90 -33q-82 0 -101 43q-40 -43 -139 -43
q-81 0 -111 36.5t-30 133.5q0 73 30 356q36 342 65 430t124 88q89 0 117 -43l18 33l90 -4l-92 -883q-6 -46 1 -65t34 -19q24 0 33 16.5t14 65.5l45 428q41 390 41 525q0 161 -47.5 220.5t-173.5 59.5q-47 0 -81.5 -6.5t-65 -29t-50.5 -47t-39.5 -80.5t-31.5 -108t-26 -150
t-24.5 -186.5t-25.5 -236.5q-3 -33 -11.5 -117t-11.5 -114t-8.5 -91.5t-7.5 -92.5t-4 -71t-2 -71q0 -168 49 -229t188 -61h187l-7 -66h-188zM328 180q53 0 69.5 59t40.5 300q4 41 6 63q5 51 13 130t11 119.5t3 70.5q0 61 -14 80.5t-54 19.5q-24 0 -34.5 -7.5t-23.5 -51.5
t-22.5 -122.5t-25.5 -238.5q-27 -280 -27 -330q0 -62 12 -77t46 -15z" />
    <glyph glyph-name="A" unicode="A" horiz-adv-x="491" 
d="M-68 0l326 1524h133l8 -1524h-118l2 356h-162l-72 -356h-117zM145 473h138l4 549l6 201l-39 -201z" />
    <glyph glyph-name="B" unicode="B" horiz-adv-x="499" 
d="M-16 0l159 1518h154q114 0 157.5 -48.5t43.5 -156.5q0 -41 -15 -189q-16 -161 -41.5 -237.5t-83.5 -102.5q76 -33 76 -176q0 -81 -16 -215q-10 -90 -20.5 -148t-28 -109t-42.5 -78t-62 -42.5t-89 -15.5h-192zM113 109h57q68 0 90 58t43 241q14 115 14 180
q0 70 -21.5 100.5t-76.5 30.5h-43zM188 834h50q65 0 89 56t40 224q14 129 14 176q0 64 -20 90.5t-72 26.5h-39z" />
    <glyph glyph-name="C" unicode="C" horiz-adv-x="387" 
d="M197 -10q-120 0 -161.5 54.5t-41.5 193.5q0 120 45 536q39 386 52 463q28 182 81 236q53 53 164 53q75 0 125 -15l-35 -112q-38 10 -90 10q-35 0 -54.5 -10.5t-36.5 -45t-27.5 -101t-24 -178.5t-30.5 -277l-3 -33q-45 -387 -45 -520q0 -84 20 -112t74 -28q48 0 78 9
l18 -107q-40 -16 -108 -16z" />
    <glyph glyph-name="D" unicode="D" horiz-adv-x="526" 
d="M-16 0l159 1518h195q99 0 145.5 -54.5t46.5 -189.5q0 -125 -45 -526q-39 -377 -60.5 -497.5t-66.5 -180.5q-52 -70 -174 -70h-200zM115 106h63q65 0 88 41q29 39 47.5 150.5t55.5 456.5q43 432 43 510q0 84 -22.5 114.5t-65.5 30.5h-74z" />
    <glyph glyph-name="E" unicode="E" horiz-adv-x="430" 
d="M-16 0l159 1518h322l-12 -115h-205l-60 -567h199l-10 -115h-201l-65 -610h206l-10 -111h-323z" />
    <glyph glyph-name="F" unicode="F" horiz-adv-x="395" 
d="M-16 0l159 1518h316l-10 -115h-201l-62 -578h195l-10 -112h-195l-76 -713h-116z" />
    <glyph glyph-name="G" unicode="G" horiz-adv-x="487" 
d="M190 -8q-116 0 -156 51t-40 193q0 128 45 538q41 400 58 498q28 154 77 203q48 51 160 51q93 0 164 -23l-37 -110q-56 18 -123 18q-84 0 -108.5 -90t-69.5 -523q-3 -22 -4 -34q-45 -423 -45 -528q0 -82 18 -111t66 -29q53 0 69.5 52.5t37.5 258.5q7 66 11 103l25 217
h-113l15 113h223l-35 -330q-30 -280 -50 -359q-27 -107 -85 -139q-38 -20 -103 -20z" />
    <glyph glyph-name="H" unicode="H" horiz-adv-x="555" 
d="M-16 0l159 1518h117l-72 -676h193l72 676h118l-159 -1518h-119l76 721h-193l-76 -721h-116z" />
    <glyph glyph-name="I" unicode="I" horiz-adv-x="258" 
d="M-10 0l160 1518h118l-159 -1518h-119z" />
    <glyph glyph-name="J" unicode="J" horiz-adv-x="296" 
d="M-20 0h-48l13 113h16q57 0 75 19t23 67l140 1319h118l-139 -1328q-10 -95 -54.5 -142.5t-143.5 -47.5z" />
    <glyph glyph-name="K" unicode="K" horiz-adv-x="477" 
d="M-18 0l161 1518h117l-70 -654l228 654h117l-209 -582l65 -936h-119l-45 737l-71 -217l-56 -520h-118z" />
    <glyph glyph-name="L" unicode="L" horiz-adv-x="393" 
d="M-16 0l159 1518h117l-149 -1407h198l-10 -111h-315z" />
    <glyph glyph-name="M" unicode="M" horiz-adv-x="657" 
d="M-16 0l159 1518h160l-8 -914l-6 -205l37 201l186 918h162l-160 -1518h-115l93 868l26 254l-49 -254l-176 -868h-96l6 885l6 237l-25 -239l-94 -883h-106z" />
    <glyph glyph-name="N" unicode="N" horiz-adv-x="546" 
d="M-16 0l159 1518h133l58 -760l12 -228l107 988h110l-160 -1518h-112l-70 881l-12 211l-115 -1092h-110z" />
    <glyph glyph-name="O" unicode="O" horiz-adv-x="524" 
d="M190 -10q-115 0 -156.5 53.5t-41.5 192.5q0 113 47 538q42 407 61 507q26 143 74 192q45 53 158 53q117 0 157.5 -53t40.5 -193q0 -110 -45 -535q-40 -389 -63.5 -523.5t-73.5 -184.5q-50 -47 -158 -47zM197 102q21 0 34 3t26 14t21.5 28.5t17 50t15.5 75t15 106.5
t16.5 141.5t19.5 183.5q3 32 5 48q47 441 47 526q0 77 -19 104t-67 27q-51 0 -73 -29q-31 -41 -54 -221q-11 -85 -43 -395q-45 -425 -45 -528q0 -79 18.5 -106.5t65.5 -27.5z" />
    <glyph glyph-name="P" unicode="P" horiz-adv-x="491" 
d="M-16 0l159 1518h154q118 0 163.5 -55.5t45.5 -176.5q0 -58 -19 -225q-9 -87 -16 -139t-19 -109.5t-28 -89t-40.5 -59.5t-58 -39t-79.5 -11h-80l-66 -614h-116zM176 727h62q24 0 40.5 6.5t29.5 26.5t21.5 40.5t16 66t12.5 83t13 111.5q16 144 16 217q0 69 -21 98t-77 29
h-39z" />
    <glyph glyph-name="Q" unicode="Q" horiz-adv-x="524" 
d="M270 -270q-108 0 -142.5 45.5t-21.5 169.5l7 55q-69 15 -95 68.5t-26 167.5q0 113 47 538q42 408 61 510q26 141 74 191q46 51 158 51q117 0 157.5 -53t40.5 -193q0 -110 -45 -535q-43 -417 -63 -520q-26 -137 -74 -184q-43 -41 -131 -47l-6 -66q-6 -57 8 -74.5t64 -17.5
h26l-10 -106h-29zM197 102q21 0 34 3t26 14t21.5 28.5t17 50t15.5 75t15 106.5t16.5 141.5t19.5 183.5q3 32 5 48q47 441 47 526q0 77 -19 104t-67 27q-51 0 -73 -29q-31 -41 -54 -221q-11 -85 -43 -395q-45 -425 -45 -528q0 -79 19 -106.5t65 -27.5z" />
    <glyph glyph-name="R" unicode="R" horiz-adv-x="493" 
d="M244 0l-37 635h-41l-68 -635h-114l159 1518h162q112 0 154.5 -55t42.5 -175q0 -89 -15 -215q-11 -102 -20 -158.5t-27.5 -117t-47.5 -94.5t-73 -52l41 -651h-116zM176 748h62q65 0 88.5 67t42.5 258q16 141 16 209q0 66 -19.5 94.5t-70.5 28.5h-47z" />
    <glyph glyph-name="S" unicode="S" horiz-adv-x="425" 
d="M119 -12q-88 0 -162 16l37 113q66 -15 123 -15q34 0 54 7t36 29t16 61t-6 104l-117 875q-10 65 -10 108q0 116 54 178t161 62q79 0 137 -15l-39 -114q-41 12 -88 12q-71 0 -91.5 -50.5t-8.5 -146.5l115 -860q12 -99 12 -129q0 -235 -223 -235z" />
    <glyph glyph-name="T" unicode="T" horiz-adv-x="425" 
d="M70 0l149 1405h-137l12 113h395l-12 -113h-139l-148 -1405h-120z" />
    <glyph glyph-name="U" unicode="U" horiz-adv-x="548" 
d="M199 -10q-103 0 -148.5 45.5t-45.5 129.5t13 204l119 1149h119l-121 -1151q-17 -159 -9 -201q9 -54 57 -62q11 -2 24 -2q64 0 88 52q19 40 34 188q1 5 3 25l121 1151h114l-121 -1149q-5 -45 -7.5 -70t-8 -62t-10.5 -57t-13 -48.5t-17.5 -43.5t-22.5 -34t-29 -28.5
t-37 -19t-46 -13t-56 -3.5z" />
    <glyph glyph-name="V" unicode="V" horiz-adv-x="489" 
d="M94 -6l-2 1524h119l-8 -945l-6 -292l55 288l186 949h119l-319 -1524h-144z" />
    <glyph glyph-name="W" unicode="W" horiz-adv-x="739" 
d="M76 -6l26 1524h121l-20 -721l-10 -348l61 350l133 719h119l-8 -732l-6 -327l55 327l125 732h112l-274 -1524h-123l4 782l4 254l-47 -254l-149 -782h-123z" />
    <glyph glyph-name="X" unicode="X" horiz-adv-x="479" 
d="M279 0l-66 555l-172 -555h-115l258 801l-82 717h115l55 -480l148 480h115l-236 -725l92 -793h-112z" />
    <glyph glyph-name="Y" unicode="Y" horiz-adv-x="458" 
d="M90 0l53 526l-61 992h121l30 -738l187 738h117l-277 -1012l-53 -506h-117z" />
    <glyph glyph-name="Z" unicode="Z" horiz-adv-x="438" 
d="M-49 0l10 96l381 1307h-229l10 115h352l-10 -105l-377 -1302h250l-10 -111h-377z" />
    <glyph glyph-name="bracketleft" unicode="[" horiz-adv-x="407" 
d="M-18 -297l192 1845h238l-11 -104h-120l-172 -1641h124l-10 -100h-241z" />
    <glyph glyph-name="backslash" unicode="\" horiz-adv-x="425" 
d="M231 0l-149 1518h111l151 -1518h-113z" />
    <glyph glyph-name="bracketright" unicode="]" horiz-adv-x="407" 
d="M-27 -297l11 100h127l172 1641h-123l10 104h240l-193 -1845h-244z" />
    <glyph glyph-name="asciicircum" unicode="^" 
d="M102 1241l140 240h114l86 -240h-94l-59 154l-86 -154h-101z" />
    <glyph glyph-name="underscore" unicode="_" horiz-adv-x="346" 
d="M-133 -217l8 90h406l-9 -90h-405z" />
    <glyph glyph-name="grave" unicode="`" 
d="M252 1241l-94 240h125l63 -240h-94z" />
    <glyph glyph-name="a" unicode="a" horiz-adv-x="458" 
d="M102 -8q-70 0 -98.5 41t-28.5 131q0 63 13 190q11 102 21 166.5t26 119.5t35 84t51 50t69.5 28t94.5 9q15 146 10 174q-5 34 -36 39q-9 2 -23 2q-49 0 -103 -12l-24 106q55 19 145 19q84 0 118.5 -31.5t35.5 -100.5t-11 -178l-65 -634q-6 -55 1 -69.5t40 -14.5l-13 -111
q-6 -2 -30 -2q-47 0 -63.5 9t-24.5 32q-36 -47 -140 -47zM135 98q55 0 70 48.5t39 283.5l28 272q-34 -1 -54.5 -5t-39.5 -19t-28.5 -34.5t-19.5 -63.5t-15.5 -92.5t-14.5 -133.5q-12 -117 -12 -172q0 -46 10.5 -65t36.5 -19z" />
    <glyph glyph-name="b" unicode="b" horiz-adv-x="491" 
d="M219 -10q-97 0 -127 47l-20 -41l-99 6l164 1546h115l-47 -450q35 41 125 41q70 0 105.5 -43t35.5 -142q0 -94 -35 -397q-32 -295 -49 -391.5t-57 -134.5q-41 -41 -111 -41zM188 98q27 0 42 7t27.5 32.5t20 71t17 126.5t21.5 195l3 33q33 304 33 361q0 61 -14.5 80.5
t-52.5 19.5q-22 0 -37 -7.5t-27 -24t-20.5 -49.5t-15.5 -78.5t-15.5 -117.5t-17.5 -159q-1 -14 -2 -21q-31 -303 -31 -356q0 -64 15.5 -88.5t53.5 -24.5z" />
    <glyph glyph-name="c" unicode="c" horiz-adv-x="352" 
d="M154 -8q-99 0 -135.5 53.5t-36.5 161.5q0 73 30 375q38 360 76 457.5t170 97.5q58 0 111 -17l-39 -108q-38 10 -68 10q-61 0 -80 -70.5t-51 -382.5q-31 -321 -31 -358q0 -56 15.5 -83.5t54.5 -27.5q36 0 70 9l16 -103q-47 -14 -102 -14z" />
    <glyph glyph-name="d" unicode="d" horiz-adv-x="491" 
d="M125 -10q-72 0 -107.5 43t-35.5 143q0 126 34 397q29 283 48 385t61 142q39 39 111 39q91 0 120 -39l50 448h114l-162 -1544l-94 -6v49q-15 -24 -51 -40.5t-88 -16.5zM168 98q26 0 42 10t29 38t21.5 75.5t18 125t20.5 184.5q1 15 2 22q31 307 31 358q0 63 -15 87t-53 24
q-17 0 -28 -2t-21.5 -10t-17 -19t-13.5 -34t-11.5 -50t-10.5 -72t-11.5 -95t-13.5 -124q-4 -37 -6 -57q-31 -317 -31 -362q0 -59 15 -79t53 -20z" />
    <glyph glyph-name="e" unicode="e" horiz-adv-x="421" 
d="M156 -10q-91 0 -132.5 50t-41.5 165q0 88 32 373q29 278 46.5 374t56.5 140q44 47 131 47q93 0 125.5 -44t32.5 -145q0 -46 -35 -387l-4 -55h-244q-25 -240 -25 -297q0 -64 18.5 -87.5t53.5 -23.5q46 0 109 17l24 -103q-61 -24 -147 -24zM201 1012q-21 -25 -34 -103.5
t-34 -292.5h133q29 279 29 324q0 48 -10 67t-41 19q-29 0 -43 -14z" />
    <glyph glyph-name="f" unicode="f" horiz-adv-x="327" 
d="M47 1020l10 108h80l23 209q11 120 55 166.5t156 46.5q22 0 26 -2l-10 -112h-16q-54 0 -72.5 -22.5t-26.5 -86.5l-20 -199h102l-10 -108h-104l-138 -1317h-114l137 1317h-78z" />
    <glyph glyph-name="g" unicode="g" horiz-adv-x="462" 
d="M201 401q-33 0 -47 2q-21 -35 -21 -77q0 -26 16.5 -41t57.5 -29q103 -36 135 -77.5t29 -125.5q-4 -105 -15.5 -170t-38.5 -110t-71.5 -62.5t-114.5 -17.5q-116 0 -162 52.5t-43 152.5q6 143 34 220.5t95 106.5q-22 32 -22 80q0 80 39 135q-41 41 -41 148q0 44 14 194
q10 91 18.5 144.5t23 99.5t37 68t54.5 33.5t80 11.5q34 0 68 -9l159 27l-8 -100h-67q20 -41 20 -127q0 -61 -12 -178q-22 -216 -62 -283.5t-155 -67.5zM205 510q50 0 65 42.5t35 209.5q12 117 12 178q0 51 -12.5 70.5t-48.5 19.5q-48 0 -62.5 -39t-31.5 -180q-2 -24 -4 -37
q-15 -123 -15 -180q0 -46 13.5 -65t48.5 -19zM182 150q-5 2 -21.5 7.5t-23.5 8.5q-56 -19 -75.5 -75.5t-22.5 -174.5q-2 -60 17.5 -90.5t76.5 -30.5q73 0 96 47t31 193q3 52 -11.5 74.5t-66.5 40.5z" />
    <glyph glyph-name="h" unicode="h" horiz-adv-x="497" 
d="M-27 0l164 1548h115l-51 -452q40 43 127 43q70 0 102.5 -29.5t34 -84t-5.5 -132.5l-97 -893h-114l90 860q14 95 6 129.5t-57 34.5q-54 0 -76.5 -52t-40.5 -206l-80 -766h-117z" />
    <glyph glyph-name="i" unicode="i" horiz-adv-x="233" 
d="M-23 0l121 1128h115l-119 -1128h-117zM113 1278l22 197h115l-21 -197h-116z" />
    <glyph glyph-name="j" unicode="j" horiz-adv-x="233" 
d="M-96 -297l10 111q30 1 38 11.5t13 47.5l133 1255h115l-133 -1267q-9 -86 -46.5 -122t-129.5 -36zM113 1278l22 197h115l-21 -197h-116z" />
    <glyph glyph-name="k" unicode="k" horiz-adv-x="434" 
d="M-27 0l162 1548h113l-90 -864l174 444h112l-186 -464l94 -664h-114l-68 487l-45 -114l-39 -373h-113z" />
    <glyph glyph-name="l" unicode="l" horiz-adv-x="270" 
d="M119 -2q-83 0 -107 44t-16 144l143 1362h117l-141 -1360q-5 -48 1.5 -61.5t33.5 -13.5h18l-10 -113q-8 -2 -39 -2z" />
    <glyph glyph-name="m" unicode="m" horiz-adv-x="761" 
d="M-27 0l121 1120l94 6v-45q30 58 136 58q55 0 84 -13.5t41 -44.5q41 58 145 58q70 0 101 -28.5t32.5 -83.5t-6.5 -134l-94 -893h-117l92 858q10 110 6 131q-6 31 -43 35h-12q-54 0 -77 -53t-38 -207l-80 -764h-114l90 858q15 95 8 130.5t-57 35.5q-54 0 -77 -53t-38 -207
l-80 -764h-117z" />
    <glyph glyph-name="n" unicode="n" horiz-adv-x="497" 
d="M-27 0l121 1120l94 6v-45q32 58 140 58q70 0 102.5 -29.5t34 -84t-5.5 -132.5l-97 -893h-114l90 860q14 95 6 129.5t-57 34.5q-54 0 -76.5 -52t-40.5 -206l-80 -766h-117z" />
    <glyph glyph-name="o" unicode="o" horiz-adv-x="473" 
d="M164 -10q-104 0 -143 48.5t-39 166.5q0 96 30 377q32 300 51 383q28 114 85 149q41 25 116 25q104 0 144.5 -50.5t40.5 -166.5q0 -80 -31 -369q-32 -306 -50 -386q-26 -115 -81 -151q-42 -26 -123 -26zM168 98q28 0 43.5 8t28.5 30.5t21.5 72t17.5 124t21 194.5
q2 21 3 32q29 287 29 354q0 64 -16 87.5t-56 23.5q-27 0 -42.5 -8.5t-28 -31.5t-20.5 -70.5t-16.5 -118t-19.5 -182.5q-3 -28 -4 -42q-5 -54 -12.5 -124t-11 -106.5t-6.5 -74.5t-3 -61q0 -61 16.5 -84t55.5 -23z" />
    <glyph glyph-name="p" unicode="p" horiz-adv-x="491" 
d="M-55 -297l149 1417l94 6v-45q40 58 142 58q70 0 105.5 -43t35.5 -142q0 -94 -35 -397q-32 -295 -49 -391.5t-57 -134.5q-23 -23 -48 -31t-63 -8q-92 0 -123 39l-37 -328h-114zM188 98q27 0 42 7t27.5 32.5t20 71t17 126.5t21.5 195l3 33q33 304 33 361q0 61 -14.5 80.5
t-52.5 19.5q-22 0 -37 -7.5t-27 -24t-20.5 -49.5t-15.5 -78.5t-15.5 -117.5t-17.5 -159q-1 -14 -2 -21q-31 -303 -31 -356q0 -64 15.5 -88.5t53.5 -24.5z" />
    <glyph glyph-name="q" unicode="q" horiz-adv-x="491" 
d="M211 -297l35 324q-43 -37 -123 -37q-72 0 -106.5 41.5t-34.5 144.5q0 79 32 397q31 291 49.5 389t59.5 138q39 39 110 39q95 0 127 -49l19 38l94 -6l-147 -1419h-115zM166 98q27 0 43.5 11t29 36t21.5 77.5t18 123t21 186.5q1 14 2 21q31 307 31 358q0 63 -16 87t-54 24
q-23 0 -36 -4.5t-25.5 -21t-19.5 -43t-14.5 -77.5t-15 -117.5t-17.5 -168.5q-2 -21 -3 -31q-33 -304 -33 -362q0 -59 15 -79t53 -20z" />
    <glyph glyph-name="r" unicode="r" horiz-adv-x="303" 
d="M-27 0l119 1120l94 6v-49q40 53 144 56l-11 -113q-80 -4 -105.5 -52t-43.5 -208l-80 -760h-117z" />
    <glyph glyph-name="s" unicode="s" horiz-adv-x="358" 
d="M86 -10q-90 0 -152 16l37 107q63 -15 99 -15q59 0 79 36t5 130l-95 570q-12 80 -12 112q0 88 42 140.5t134 52.5q75 0 129 -13l-37 -108q-36 8 -77 8q-53 0 -67.5 -38.5t-2.5 -108.5l94 -564q12 -76 12 -133q0 -192 -188 -192z" />
    <glyph glyph-name="t" unicode="t" horiz-adv-x="342" 
d="M195 -2q-101 0 -134 47.5t-22 151.5l86 823h-78l10 108h82l43 283l103 35l-33 -318h102l-12 -108h-102l-84 -815q-6 -56 5.5 -74t57.5 -18h27l-10 -113q-8 -2 -41 -2z" />
    <glyph glyph-name="u" unicode="u" horiz-adv-x="485" 
d="M170 -10q-88 0 -129 33.5t-43.5 95.5t6.5 151l90 858h115l-88 -852q-14 -112 -9 -138q8 -37 53 -40h11q53 0 67.5 31t24.5 128q1 14 2 22l90 849h111l-88 -858q-5 -47 -8.5 -73.5t-11 -61t-16.5 -52.5t-24.5 -39t-36 -31t-49.5 -16.5t-67 -6.5z" />
    <glyph glyph-name="v" unicode="v" horiz-adv-x="401" 
d="M51 -6l-4 1134h117l-6 -673l-6 -197l36 195l131 675h113l-239 -1134h-142z" />
    <glyph glyph-name="w" unicode="w" horiz-adv-x="653" 
d="M39 -6l12 1134h111l-10 -495l-7 -273l58 273l110 495h105v-499l-2 -271l51 269l102 501h105l-236 -1134h-114l-5 561l3 203l-41 -203l-123 -561h-119z" />
    <glyph glyph-name="x" unicode="x" horiz-adv-x="421" 
d="M-78 0l211 610l-74 518h113l47 -331l111 331h108l-188 -542l86 -586h-113l-59 397l-131 -397h-111z" />
    <glyph glyph-name="y" unicode="y" horiz-adv-x="405" 
d="M-45 -297l10 111h19q26 0 37 5t15 12.5t11 33.5l21 110l-21 1153h115l2 -557l-4 -245l49 243l117 559h110l-286 -1290q-17 -75 -55 -105t-113 -30h-27z" />
    <glyph glyph-name="z" unicode="z" horiz-adv-x="358" 
d="M-59 0l8 86l291 934h-181l11 108h303l-8 -86l-293 -940h194l-10 -102h-315z" />
    <glyph glyph-name="braceleft" unicode="{" horiz-adv-x="434" 
d="M176 -299q-93 0 -127.5 44.5t-21.5 168.5q7 71 51.5 289.5t50.5 275.5q6 59 -10.5 75.5t-77.5 16.5l10 109q61 0 82 16.5t27 75.5q6 57 7.5 278t8.5 291q13 124 55.5 165.5t137.5 41.5h75l-12 -104h-43q-49 0 -68 -22t-28 -99q-7 -61 -10.5 -281.5t-10.5 -287.5
q-5 -53 -19.5 -82.5t-47.5 -44.5q53 -27 41 -129q-7 -68 -51 -290.5t-50 -283.5q-7 -77 7 -99t65 -22h45l-10 -102h-76z" />
    <glyph glyph-name="bar" unicode="|" horiz-adv-x="294" 
d="M88 -297v1847h115v-1847h-115z" />
    <glyph glyph-name="braceright" unicode="}" horiz-adv-x="434" 
d="M-41 -299l10 102h45q51 0 70.5 22t28.5 99q6 59 8.5 281.5t9.5 292.5q9 102 68 129q-28 14 -37 44t-4 83q7 69 50.5 289t49.5 280q9 76 -6.5 98.5t-65.5 22.5h-43l11 104h73q94 0 129 -43.5t21 -167.5q-6 -71 -51.5 -290t-51.5 -275q-6 -59 10.5 -75.5t77.5 -16.5
l-10 -109q-61 0 -81.5 -16.5t-26.5 -75.5q-4 -53 -6.5 -275t-10.5 -296q-13 -123 -55 -165t-137 -42h-76z" />
    <glyph glyph-name="asciitilde" unicode="~" 
d="M109 852q8 86 33 116.5t63 30.5q33 0 77.5 -25.5t55.5 -25.5q14 0 19 9.5t8 41.5h90q-7 -88 -30.5 -117.5t-66.5 -29.5q-33 0 -76.5 26.5t-54.5 26.5q-13 0 -19 -11t-9 -42h-90z" />
    <glyph glyph-name="exclamdown" unicode="&#xa1;" horiz-adv-x="323" 
d="M14 0l131 1106h103l-103 -1106h-131zM158 1325l20 193h129l-20 -193h-129z" />
    <glyph glyph-name="cent" unicode="&#xa2;" horiz-adv-x="391" 
d="M78 -199l20 201q-56 18 -77 68.5t-21 136.5q0 84 33 375q9 88 14 136t13 110t14.5 93t16.5 70t21 57.5t26.5 38.5t34 29t42.5 14l21 185h102l-19 -180q27 -2 70 -15l-41 -106q-33 10 -65 10q-62 0 -81.5 -71t-51.5 -384q-31 -321 -31 -358q0 -57 15 -85t54 -28q30 0 70 8
l16 -98q-27 -11 -73 -14l-21 -193h-102z" />
    <glyph glyph-name="sterling" unicode="&#xa3;" horiz-adv-x="481" 
d="M221 -4q-75 0 -125 27q-47 -23 -147 -23l10 111q30 0 46.5 1t31 9t20 15.5t10 32t5.5 46.5t2 70l14 442h-63l10 100h57l17 441q5 142 50.5 200t157.5 58q87 0 152 -29l-53 -102q-40 18 -97 18q-55 0 -74.5 -35.5t-21.5 -107.5l-16 -443h131l-8 -100h-127l-17 -451
q-4 -130 -18 -172q14 -4 41 -4q38 0 50.5 21.5t21.5 103.5l8 74h98l-10 -82q-14 -135 -43.5 -178t-112.5 -43z" />
    <glyph glyph-name="currency" unicode="&#xa4;" horiz-adv-x="495" 
d="M29 801l10 100h88q30 286 50.5 389t62.5 160q53 76 168 76q66 0 116 -15l-35 -110q-33 10 -81 10q-75 0 -103 -97.5t-61 -412.5h166l-11 -100h-166q-4 -24 -4 -39q-1 -9 -6 -49h166l-10 -101h-166q-29 -273 -29 -366q0 -84 19.5 -114t68.5 -30q32 0 76 11l23 -103
q-56 -18 -109 -18q-112 0 -153 55.5t-41 188.5q0 96 28 376h-88l10 101h91q1 9 6 59q0 5 1 14.5t1 14.5h-88z" />
    <glyph glyph-name="yen" unicode="&#xa5;" horiz-adv-x="479" 
d="M18 397l9 99h127l10 102l-47 920h116l13 -703l157 703h117l-248 -949l-8 -73h125l-8 -99h-127l-10 -88h129l-13 -100h-127l-20 -209h-111l21 209h-125l12 100h123l10 88h-125z" />
    <glyph glyph-name="brokenbar" unicode="&#xa6;" horiz-adv-x="294" 
d="M88 788v760h115v-760h-115zM88 -297v762h115v-762h-115z" />
    <glyph glyph-name="section" unicode="&#xa7;" horiz-adv-x="489" 
d="M12 0l11 111q66 0 88 22.5t28 89.5l15 152q-63 9 -93 49t-30 129q0 65 20 238q24 225 57 304.5t119 92.5l13 119q12 123 62.5 167t176.5 44l-14 -109q-64 0 -85.5 -24t-29.5 -91l-10 -106q61 -9 91 -48.5t30 -125.5q0 -40 -19 -234q-26 -237 -57 -314.5t-119 -90.5
l-16 -164q-10 -122 -61 -166.5t-177 -44.5zM213 463q20 0 33 4t24.5 19t18.5 34t14.5 59t13 84t13.5 119q16 160 16 217q0 60 -14.5 79.5t-52.5 19.5q-19 0 -32 -4t-24 -18.5t-18 -33.5t-14.5 -58.5t-13 -83.5t-13.5 -118q-17 -173 -17 -221q0 -58 14.5 -78t51.5 -20z" />
    <glyph glyph-name="dieresis" unicode="&#xa8;" 
d="M131 1241l19 168h102l-19 -168h-102zM315 1241l19 168h102l-18 -168h-103z" />
    <glyph glyph-name="copyright" unicode="&#xa9;" horiz-adv-x="606" 
d="M315 252q-67 0 -100 33q-35 37 -44 133t-9 334q0 237 8.5 330t44.5 132q30 35 100 35q50 0 88 -10l-18 -82q-34 6 -68 6q-47 0 -58 -73t-11 -340q0 -270 11.5 -343t59.5 -73q36 0 66 10l21 -76q-54 -16 -91 -16zM303 -8q-104 0 -164 51q-64 58 -87 217t-23 500
q0 323 20.5 479.5t77.5 220.5q55 66 176 66q120 0 176 -68q55 -64 75.5 -220.5t20.5 -477.5q0 -336 -22.5 -494.5t-83.5 -218.5q-55 -55 -166 -55zM303 55q47 0 78 11.5t55.5 45t38 80.5t22 131.5t11 184t2.5 252.5t-2.5 252.5t-11 184t-22 131t-38 79.5t-55.5 44t-78 11
q-40 0 -68.5 -9.5t-51.5 -28.5t-38 -57.5t-25.5 -88t-15.5 -128.5t-7.5 -169.5t-2.5 -220.5q0 -153 2.5 -252t11 -184.5t22.5 -132t38 -80t56 -45t79 -11.5z" />
    <glyph glyph-name="ordfeminine" unicode="&#xaa;" horiz-adv-x="430" 
d="M166 596q-59 0 -83 36.5t-24 110.5q0 58 13 154q8 75 15 120.5t18.5 90.5t26.5 69t39 44t56 28t78 11q12 109 6 140.5t-43 31.5q-39 0 -86 -13l-24 90q44 17 127 17q68 0 96.5 -25t30 -81t-8.5 -146l-55 -512q-3 -41 3.5 -52.5t33.5 -11.5l-12 -96q-4 -2 -31 -2
q-37 0 -55 10t-21 37q-11 -29 -34.5 -40t-65.5 -11zM190 686q41 0 51.5 32t25.5 185q3 30 5 47l23 224q-67 -4 -88 -54.5t-39 -226.5q-10 -83 -10 -141q0 -37 6.5 -51.5t25.5 -14.5zM43 391l10 94h269l-11 -94h-268z" />
    <glyph glyph-name="guillemotleft" unicode="&#xab;" horiz-adv-x="559" 
d="M102 0l-55 563l172 565h105l-168 -565l51 -563h-105zM297 0l-55 563l172 565h104l-168 -565l49 -563h-102z" />
    <glyph glyph-name="logicalnot" unicode="&#xac;" horiz-adv-x="1703" 
d="M258 246q-88 105 -136 237t-48 277q0 144 48 276t136 236q6 -4 14 -12q-85 -103 -131.5 -231.5t-46.5 -268.5q0 -285 180 -500zM467 432q-117 143 -117 328q0 183 115 327q3 -2 8 -7t8 -7q-110 -136 -110 -313q0 -182 110 -314zM541 498q-92 116 -92 262t92 262
q3 -2 8 -7t8 -7q-88 -109 -88 -248t88 -248q-3 -2 -8 -7t-8 -7zM647 592q-57 72 -57 168q0 97 57 166l15 -15q-52 -69 -52 -151q0 -84 54 -154q-3 -2 -8.5 -7t-8.5 -7zM715 655q-33 48 -33 105q0 56 33 104q3 -2 8 -7t8 -7q-29 -44 -29 -90t29 -90q-3 -2 -16 -15zM774 709
q-14 25 -14 51t14 51l12 -10q-10 -20 -10 -41t10 -41q-4 -4 -12 -10zM852 123q-236 0 -412 158l2.5 2.5l5 5l5.5 5.5t2 1q171 -152 397 -152q227 0 395 152q2 -3 7.5 -8t7.5 -8q-177 -156 -410 -156zM852 664q-31 0 -55 18l12 12q21 -14 43 -14q26 0 43 14q4 -4 10 -12
q-21 -18 -53 -18zM987 653q-7 10 -14 15q28 42 28 92q0 51 -28 90l2.5 2.5t5 4.5t5.5 5t1 2q35 -44 35 -104t-35 -107zM598 551q-72 91 -72 209q0 119 74 209l14 -15q-67 -87 -67 -194q0 -108 67 -195q-10 -10 -16 -14zM852 -35q-145 0 -278 52.5t-238 146.5l14 16
q102 -92 231 -143t271 -51q285 0 500 192q0 1 3.5 -2.5t6.5 -7.5l4 -4q-104 -95 -236 -147t-278 -52zM852 248q-189 0 -330 125l15 16q134 -121 315 -121q182 0 313 121q2 -3 7.5 -8t7.5 -8q-138 -125 -328 -125zM852 348q-145 0 -264 101l14 14q108 -94 250 -94
q143 0 248 94q2 -3 7 -8.5t7 -8.5q-112 -98 -262 -98zM852 428q-116 0 -211 78l14 16q86 -73 197 -73t197 73q4 -4 12 -16q-91 -78 -209 -78zM852 543q-77 0 -135 49l14 16q51 -45 121 -45q68 0 119 45q2 -3 7 -8t7 -8q-58 -49 -133 -49zM733 911q-4 3 -7 6.5t-6 6.5l-3 4
q58 49 135 49t135 -49l-16 -17q-51 45 -119 45t-119 -45zM1167 1130q-134 121 -315 121q-179 0 -313 -118l-15 14q141 125 328 125q189 0 330 -125q-4 -6 -15 -17zM930 709l-12 10q10 20 10 41t-10 41l12 10q14 -25 14 -51t-14 -51zM958 682q-10 10 -16 14q21 32 21 64
t-21 63l16 15q25 -36 25 -78t-25 -78zM1020 627q-6 4 -16 14q38 50 38 119t-38 119l14 14q45 -57 45 -133q0 -71 -43 -133zM1106 551q-3 2 -8 7t-8 7q67 87 67 195t-70 194l17 15q74 -90 74 -209q0 -118 -72 -209zM1163 498q-10 10 -16 14q88 109 88 248t-88 248l16 14
q92 -116 92 -262t-92 -262zM1237 432q-6 4 -16 14q112 134 112 314q0 182 -112 313l16 14q117 -139 117 -327q0 -189 -117 -328zM1329 350q-2 2 -7 6t-7 6q141 175 141 398q0 227 -143 395l16 14q148 -179 148 -409q0 -231 -148 -410zM1446 246q-6 6 -16 14q180 215 180 500
t-180 500l16 14q88 -105 136 -237t48 -277q0 -144 -48 -276t-136 -238zM375 348q-148 182 -148 412q0 229 146 409q2 -2 7.5 -6.5t8.5 -7.5q-141 -170 -141 -395q0 -228 141 -398zM684 627q-43 59 -43 133t43 133q6 -4 16 -14q-38 -50 -38 -119q0 -67 38 -117zM745 682
q-24 34 -24 78t24 78q2 -3 4.5 -5.5t6 -5.5t4.5 -4q-19 -34 -19 -63q0 -30 19 -64zM809 825l-10 13q21 18 53 18t53 -18l-10 -13q-23 15 -43 15q-25 0 -43 -15zM786 852l-14 14q37 29 80 29q41 0 78 -29q-8 -8 -12 -14q-28 25 -66 25q-34 0 -66 -25zM760 881l-15 16
q45 39 107 39q61 0 106 -39l-14 -16q-37 34 -92 34t-92 -34zM604 1057l-14 16q112 98 262 98q151 0 262 -100q1 0 -2 -3.5t-6 -7.5l-4 -3q-108 94 -250 94q-143 0 -248 -94zM852 492q-100 0 -170 61l14 16q70 -57 156 -57q87 0 154 57l14 -14q-73 -63 -168 -63zM852 584
q-61 0 -109 39l15 16q47 -35 94 -35q51 0 92 35l14 -16q-45 -39 -106 -39zM852 625q-43 0 -82 28l14 15q36 -25 68 -25q34 0 66 25l14 -15q-36 -28 -80 -28zM698 950l-14 15q73 63 168 63q98 0 168 -61l-14 -17q-68 58 -154 58q-87 0 -154 -58zM655 997l-14 17q91 78 211 78
q119 0 209 -80l-12 -15q-83 74 -197 74q-110 0 -197 -74zM1249 1223q-166 153 -397 153q-227 0 -397 -151l-15 14q179 158 412 158t412 -158zM352 1339l-14 17q104 95 236 146.5t278 51.5q145 0 278 -52t238 -146l-14 -17q-102 93 -231 144t-271 51t-270 -51t-230 -144z
M1057 594l-15 14q52 69 52 152t-54 153l17 15q57 -72 57 -168q0 -97 -57 -166z" />
    <glyph glyph-name="registered" unicode="&#xae;" horiz-adv-x="606" 
d="M303 -8q-104 0 -164 51q-64 58 -87 217t-23 500q0 323 20.5 479.5t77.5 220.5q55 66 176 66q120 0 176 -68q55 -64 75.5 -220.5t20.5 -477.5q0 -336 -22.5 -494.5t-83.5 -218.5q-55 -55 -166 -55zM303 55q47 0 78 11.5t55.5 45t38 80.5t22 131.5t11 184t2.5 252.5
t-2.5 252.5t-11 184t-22 131t-38 79.5t-55.5 44t-78 11q-40 0 -68.5 -9.5t-51.5 -28.5t-38 -57.5t-25.5 -88t-15.5 -128.5t-7.5 -169.5t-2.5 -220.5q0 -153 2.5 -252t11 -184.5t22.5 -132t38 -80t56 -45t79 -11.5zM346 274l-67 410h-25v-410h-78v965h125q37 0 62 -12
t39.5 -31t22 -57t9.5 -75.5t2 -100.5q0 -128 -14.5 -188t-65.5 -81l70 -420h-80zM254 756h41q15 0 25 4t17 16.5t10.5 25t5.5 39.5t2.5 50.5t0.5 66.5q0 44 -0.5 67t-2.5 50.5t-5.5 40.5t-10.5 25.5t-17 17t-25 4.5h-41v-407z" />
    <glyph glyph-name="macron" unicode="&#xaf;" 
d="M127 1241l12 107h295l-12 -107h-295z" />
    <glyph glyph-name="macron" unicode="&#x2c9;" 
d="M127 1241l12 107h295l-12 -107h-295z" />
    <glyph glyph-name="degree" unicode="&#xb0;" 
d="M209 594q-80 0 -114 39t-34 141q0 50 23 289q11 106 19 168.5t20 121t25.5 87t35.5 51t49.5 29t67.5 6.5q85 0 117.5 -39t32.5 -141q0 -76 -23 -291q-9 -79 -15 -129.5t-14.5 -102.5t-16 -81.5t-20 -59t-25.5 -43.5t-32.5 -26t-42 -15.5t-53.5 -3.5zM217 694q25 0 39 11
t26 55.5t20 106.5t22 190q22 206 22 270q0 55 -11.5 73.5t-41.5 18.5q-17 0 -27.5 -4.5t-20.5 -20.5t-16.5 -37.5t-14 -67t-13.5 -96t-15 -136.5q-22 -240 -22 -269q0 -56 12 -75t41 -19z" />
    <glyph glyph-name="plusminus" unicode="&#xb1;" horiz-adv-x="841" 
d="M252 -297l137 1317h-151l-138 -1317h-116l139 1317h-78l10 108h80l23 209q12 120 54 166.5t146 46.5q17 0 23 -2l-12 -112h-7q-50 0 -67 -22.5t-25 -86.5l-20 -199h151l23 209q12 119 54.5 166t146.5 47q16 0 22 -2l-10 -112h-6q-52 0 -69 -22.5t-23 -86.5l-21 -199h86
l-10 -108h-88l-137 -1317h-117zM692 -2q-85 0 -108 43.5t-13 144.5l142 1362h116l-143 -1360q-4 -47 2.5 -61t34.5 -14h18l-12 -113q-6 -2 -37 -2z" />
    <glyph glyph-name="twosuperior" unicode="&#xb2;" horiz-adv-x="411" 
d="M59 592l9 88l219 645q14 47 14 64q0 22 -12 32.5t-41 10.5q-44 0 -76 -13l-25 86q43 19 115 19q74 0 105.5 -26t31.5 -83q0 -41 -26 -125l-205 -610h154l-9 -88h-254z" />
    <glyph glyph-name="threesuperior" unicode="&#xb3;" horiz-adv-x="401" 
d="M152 586q-59 0 -109 18l35 88q47 -14 69 -14q46 0 59 29.5t25 150.5q16 135 7 163t-68 28h-29l9 92h36q50 0 62.5 24.5t23.5 134.5q10 82 3.5 106t-44.5 24q-44 0 -71 -7l-15 86q44 13 109 13q78 0 100 -31q18 -21 20.5 -64.5t-5.5 -109.5q-12 -109 -22.5 -150.5
t-37.5 -60.5q30 -17 32 -74.5t-13 -177.5q-12 -114 -24 -164t-40 -74q-37 -30 -112 -30z" />
    <glyph glyph-name="acute" unicode="&#xb4;" 
d="M201 1241l116 240h127l-145 -240h-98z" />
    <glyph glyph-name="mu" unicode="&#xb5;" horiz-adv-x="489" 
d="M-57 -297l149 1425h115l-84 -813q-14 -139 -9 -170q7 -42 46 -46q5 -1 12 -1q55 0 71.5 34t28.5 165l88 831h113l-88 -839q-7 -71 -14 -113t-21 -82.5t-36.5 -60t-58 -31.5t-87.5 -12q-54 0 -78 28l-31 -315h-116z" />
    <glyph glyph-name="mu" unicode="&#x3bc;" horiz-adv-x="489" 
d="M-57 -297l149 1425h115l-84 -813q-14 -139 -9 -170q7 -42 46 -46q5 -1 12 -1q55 0 71.5 34t28.5 165l88 831h113l-88 -839q-7 -71 -14 -113t-21 -82.5t-36.5 -60t-58 -31.5t-87.5 -12q-54 0 -78 28l-31 -315h-116z" />
    <glyph glyph-name="paragraph" unicode="&#xb6;" horiz-adv-x="495" 
d="M86 0l68 641q-55 22 -77 77.5t-22 149.5q0 40 17 219q7 71 13 116t15 96t20.5 80.5t29 59.5t40.5 45t54 24.5t71 9.5h197l-160 -1518h-110l65 629h-45l-65 -629h-111zM258 727h61l70 682h-59q-26 0 -45 -7.5t-33.5 -27t-24 -43t-17.5 -67t-13.5 -86t-12.5 -113.5
q-14 -159 -14 -195q0 -76 19 -109.5t69 -33.5z" />
    <glyph glyph-name="periodcentered" unicode="&#xb7;" horiz-adv-x="235" 
d="M35 598l20 195h131l-20 -195h-131z" />
    <glyph glyph-name="periodcentered" unicode="&#x2219;" horiz-adv-x="235" 
d="M35 598l20 195h131l-20 -195h-131z" />
    <glyph glyph-name="cedilla" unicode="&#xb8;" 
d="M135 -365q-56 0 -108 17l30 76q32 -11 68 -11q37 0 48 14.5t17 69.5q4 44 -8 56t-47 10l-31 27l33 122h74l-29 -98q53 5 75 -24t15 -103q-10 -95 -38.5 -125.5t-98.5 -30.5z" />
    <glyph glyph-name="onesuperior" unicode="&#xb9;" horiz-adv-x="354" 
d="M123 592l88 831h-70l11 95h170l-99 -926h-100z" />
    <glyph glyph-name="ordmasculine" unicode="&#xba;" horiz-adv-x="436" 
d="M211 592q-89 0 -121.5 40.5t-32.5 141.5q0 58 25 295q8 77 13.5 123.5t13 98.5t15 80.5t18.5 59.5t24 45.5t31 27.5t39.5 17.5t50.5 4.5q85 0 116 -40t31 -140q0 -98 -22 -291q-11 -104 -19.5 -164.5t-20 -119.5t-24 -88t-32.5 -52.5t-44.5 -31t-60.5 -7.5zM207 686
q15 0 25 4.5t19.5 21t16 39t14 68.5t14 99.5t15.5 140.5q23 230 23 276q0 57 -11 76t-38 19q-16 0 -26 -4t-19.5 -20.5t-15.5 -38.5t-13.5 -68t-13.5 -99t-15 -141q-24 -205 -24 -281q0 -54 11.5 -73t37.5 -19zM37 391l10 94h279l-11 -94h-278z" />
    <glyph glyph-name="guillemotright" unicode="&#xbb;" horiz-adv-x="559" 
d="M-2 0l168 563l-49 565h102l53 -565l-170 -563h-104zM193 0l165 563l-49 565h105l53 -565l-172 -563h-102z" />
    <glyph glyph-name="onequarter" unicode="&#xbc;" horiz-adv-x="737" 
d="M76 0l436 1518h106l-436 -1518h-106zM332 182l8 84l221 662h92l-217 -658h70l53 238h64l-25 -238h51l-8 -88h-53l-19 -182h-92l19 182h-164zM88 592l88 831h-67l10 95h170l-99 -926h-102z" />
    <glyph glyph-name="onehalf" unicode="&#xbd;" horiz-adv-x="774" 
d="M76 0l436 1518h106l-436 -1518h-106zM88 592l88 831h-67l10 95h170l-99 -926h-102zM385 0l10 88l219 645q15 51 15 66q0 22 -12.5 31.5t-41.5 9.5q-47 0 -75 -11l-27 84q46 19 117 19q74 0 105.5 -25.5t31.5 -81.5q0 -58 -27 -127l-204 -610h153l-8 -88h-256z" />
    <glyph glyph-name="threequarters" unicode="&#xbe;" horiz-adv-x="798" 
d="M137 0l436 1518h107l-436 -1518h-107zM395 182l8 84l220 662h92l-217 -658h67l51 238h64l-25 -238h58l-11 -88h-57l-18 -182h-92l20 182h-160zM125 586q-62 0 -109 18l35 88q47 -14 70 -14q46 0 59 29.5t25 150.5q15 135 6.5 163t-66.5 28h-32l10 92h37q49 0 62 25
t24 134q10 82 3.5 106t-44.5 24q-47 0 -72 -7l-14 86q44 13 108 13q79 0 101 -31q17 -20 19 -64t-5 -110q-12 -110 -22 -151t-37 -60q30 -17 31 -74.5t-15 -177.5q-10 -114 -21.5 -164t-39.5 -74q-38 -30 -113 -30z" />
    <glyph glyph-name="questiondown" unicode="&#xbf;" horiz-adv-x="428" 
d="M164 -8q-182 0 -182 149q0 45 9 84.5t32 116.5l131 420q28 91 39.5 158.5t21.5 183.5h113q-11 -123 -24 -196t-44 -173l-135 -432q-15 -49 -21.5 -82t-3.5 -61.5t22.5 -42t55.5 -13.5q60 0 119 19l37 -107q-63 -24 -170 -24zM227 1337l19 181h129l-19 -181h-129z" />
    <glyph glyph-name="Agrave" unicode="&#xc0;" horiz-adv-x="491" 
d="M-68 0l326 1524h133l8 -1524h-118l2 356h-162l-72 -356h-117zM145 473h138l4 549l6 201l-39 -201zM309 1601l-94 240h125l63 -240h-94z" />
    <glyph glyph-name="Aacute" unicode="&#xc1;" horiz-adv-x="491" 
d="M-68 0l326 1524h133l8 -1524h-118l2 356h-162l-72 -356h-117zM145 473h138l4 549l6 201l-39 -201zM258 1601l116 240h127l-145 -240h-98z" />
    <glyph glyph-name="Acircumflex" unicode="&#xc2;" horiz-adv-x="491" 
d="M-68 0l326 1524h133l8 -1524h-118l2 356h-162l-72 -356h-117zM145 473h138l4 549l6 201l-39 -201zM159 1601l140 240h114l86 -240h-94l-59 154l-86 -154h-101z" />
    <glyph glyph-name="Atilde" unicode="&#xc3;" horiz-adv-x="491" 
d="M-68 0l326 1524h133l8 -1524h-118l2 356h-162l-72 -356h-117zM145 473h138l4 549l6 201l-39 -201zM166 1601q8 86 33 117t63 31q33 0 77.5 -26t55.5 -26q14 0 19 10t8 42h90q-7 -88 -30.5 -118t-66.5 -30q-33 0 -76.5 26.5t-54.5 26.5q-13 0 -19 -11t-9 -42h-90z" />
    <glyph glyph-name="Adieresis" unicode="&#xc4;" horiz-adv-x="491" 
d="M-68 0l326 1524h133l8 -1524h-118l2 356h-162l-72 -356h-117zM145 473h138l4 549l6 201l-39 -201zM188 1601l19 168h102l-19 -168h-102zM372 1601l19 168h102l-18 -168h-103z" />
    <glyph glyph-name="Aring" unicode="&#xc5;" horiz-adv-x="491" 
d="M-68 0l324 1520q-27 17 -33 58.5t2 92.5q9 84 33 122t90 38q50 0 74 -22t25.5 -59t-3.5 -87q-5 -57 -16 -90.5t-37 -50.5l8 -1522h-118l2 356h-162l-72 -356h-117zM145 473h138l4 549l6 201l-39 -201zM326 1569q26 0 35.5 19t15.5 77q5 61 -0.5 80.5t-32.5 19.5
q-26 0 -35 -20t-14 -80q-7 -57 -1.5 -76.5t32.5 -19.5z" />
    <glyph glyph-name="AE" unicode="&#xc6;" horiz-adv-x="714" 
d="M-68 0l420 1518h398l-13 -115h-205l-59 -569h189l-13 -113h-188l-64 -610h205l-10 -111h-322l39 377h-159l-99 -377h-119zM176 475h143l97 911z" />
    <glyph glyph-name="Ccedilla" unicode="&#xc7;" horiz-adv-x="387" 
d="M106 -365q-56 0 -108 17l31 76q32 -11 67 -11q37 0 48.5 14.5t17.5 69.5q4 44 -8 56t-48 10l-30 27l28 106q-64 19 -87 74t-23 164q0 120 45 536q39 386 52 463q28 182 81 236q53 53 164 53q75 0 125 -15l-35 -112q-38 10 -90 10q-35 0 -54.5 -10.5t-36.5 -45t-27.5 -101
t-24 -178.5t-30.5 -277l-3 -33q-45 -387 -45 -520q0 -84 20 -112t74 -28q48 0 78 9l18 -107q-40 -16 -108 -16h-23l-20 -72q53 5 75 -24t15 -103q-10 -95 -39 -125.5t-99 -30.5z" />
    <glyph glyph-name="Egrave" unicode="&#xc8;" horiz-adv-x="430" 
d="M-16 0l159 1518h322l-12 -115h-205l-60 -567h199l-10 -115h-201l-65 -610h206l-10 -111h-323zM281 1601l-94 240h125l63 -240h-94z" />
    <glyph glyph-name="Eacute" unicode="&#xc9;" horiz-adv-x="430" 
d="M229 1602l117 239h127l-145 -239h-99zM-16 0l159 1518h322l-12 -115h-205l-60 -567h199l-10 -115h-201l-65 -610h206l-10 -111h-323z" />
    <glyph glyph-name="Ecircumflex" unicode="&#xca;" horiz-adv-x="430" 
d="M131 1602l139 239h115l86 -239h-94l-60 153l-86 -153h-100zM-16 0l159 1518h322l-12 -115h-205l-60 -567h199l-10 -115h-201l-65 -610h206l-10 -111h-323z" />
    <glyph glyph-name="Edieresis" unicode="&#xcb;" horiz-adv-x="430" 
d="M160 1602l18 167h103l-19 -167h-102zM344 1602l18 167h103l-19 -167h-102zM-16 0l159 1518h322l-12 -115h-205l-60 -567h199l-10 -115h-201l-65 -610h206l-10 -111h-323z" />
    <glyph glyph-name="Igrave" unicode="&#xcc;" horiz-adv-x="258" 
d="M170 1602l-70 241h125l41 -241h-96zM-12 0l159 1518h119l-160 -1518h-118z" />
    <glyph glyph-name="Iacute" unicode="&#xcd;" horiz-adv-x="258" 
d="M164 1602l94 241h131l-127 -241h-98zM-12 0l159 1518h119l-160 -1518h-118z" />
    <glyph glyph-name="Icircumflex" unicode="&#xce;" horiz-adv-x="258" 
d="M-12 0l159 1518h119l-160 -1518h-118zM43 1602l139 239h115l86 -239h-94l-60 153l-86 -153h-100z" />
    <glyph glyph-name="Idieresis" unicode="&#xcf;" horiz-adv-x="258" 
d="M-12 0l159 1518h119l-160 -1518h-118zM72 1602l18 167h103l-19 -167h-102zM256 1602l18 167h103l-19 -167h-102z" />
    <glyph glyph-name="Eth" unicode="&#xd0;" horiz-adv-x="526" 
d="M2 727l14 107h56l71 684h195q99 0 145.5 -54.5t46.5 -189.5q0 -125 -45 -526q-39 -377 -60.5 -497.5t-66.5 -180.5q-52 -70 -174 -70h-200l75 727h-57zM115 106h63q65 0 88 41q29 39 47.5 150.5t55.5 456.5q43 432 43 510q0 84 -22.5 114.5t-65.5 30.5h-74l-60 -575h93
l-13 -107h-92z" />
    <glyph glyph-name="Ntilde" unicode="&#xd1;" horiz-adv-x="546" 
d="M-16 0l159 1518h133l58 -760l12 -228l107 988h110l-160 -1518h-112l-70 881l-12 211l-115 -1092h-110zM195 1601q8 86 33 117t63 31q33 0 77.5 -26t55.5 -26q14 0 19 10t8 42h90q-7 -88 -30.5 -118t-66.5 -30q-33 0 -76.5 26.5t-54.5 26.5q-13 0 -19 -11t-9 -42h-90z" />
    <glyph glyph-name="Ograve" unicode="&#xd2;" horiz-adv-x="524" 
d="M190 -10q-115 0 -156.5 53.5t-41.5 192.5q0 113 47 538q42 407 61 507q26 143 74 192q45 53 158 53q117 0 157.5 -53t40.5 -193q0 -110 -45 -535q-40 -389 -63.5 -523.5t-73.5 -184.5q-50 -47 -158 -47zM197 102q21 0 34 3t26 14t21.5 28.5t17 50t15.5 75t15 106.5
t16.5 141.5t19.5 183.5q3 32 5 48q47 441 47 526q0 77 -19 104t-67 27q-51 0 -73 -29q-31 -41 -54 -221q-11 -85 -43 -395q-45 -425 -45 -528q0 -79 18.5 -106.5t65.5 -27.5zM326 1601l-94 240h125l63 -240h-94z" />
    <glyph glyph-name="Oacute" unicode="&#xd3;" horiz-adv-x="524" 
d="M274 1602l117 239h127l-145 -239h-99zM190 -10q-115 0 -156.5 53.5t-41.5 192.5q0 113 47 538q42 407 61 507q26 143 74 192q45 53 158 53q117 0 157.5 -53t40.5 -193q0 -110 -45 -535q-40 -389 -63.5 -523.5t-73.5 -184.5q-50 -47 -158 -47zM197 102q21 0 34 3t26 14
t21.5 28.5t17 50t15.5 75t15 106.5t16.5 141.5t19.5 183.5q3 32 5 48q47 441 47 526q0 77 -19 104t-67 27q-51 0 -73 -29q-31 -41 -54 -221q-11 -85 -43 -395q-45 -425 -45 -528q0 -79 18.5 -106.5t65.5 -27.5z" />
    <glyph glyph-name="Ocircumflex" unicode="&#xd4;" horiz-adv-x="524" 
d="M176 1602l139 239h115l86 -239h-94l-60 153l-86 -153h-100zM190 -10q-115 0 -156.5 53.5t-41.5 192.5q0 113 47 538q42 407 61 507q26 143 74 192q45 53 158 53q117 0 157.5 -53t40.5 -193q0 -110 -45 -535q-40 -389 -63.5 -523.5t-73.5 -184.5q-50 -47 -158 -47z
M197 102q21 0 34 3t26 14t21.5 28.5t17 50t15.5 75t15 106.5t16.5 141.5t19.5 183.5q3 32 5 48q47 441 47 526q0 77 -19 104t-67 27q-51 0 -73 -29q-31 -41 -54 -221q-11 -85 -43 -395q-45 -425 -45 -528q0 -79 18.5 -106.5t65.5 -27.5z" />
    <glyph glyph-name="Otilde" unicode="&#xd5;" horiz-adv-x="524" 
d="M190 -10q-115 0 -156.5 53.5t-41.5 192.5q0 113 47 538q42 407 61 507q26 143 74 192q45 53 158 53q117 0 157.5 -53t40.5 -193q0 -110 -45 -535q-40 -389 -63.5 -523.5t-73.5 -184.5q-50 -47 -158 -47zM197 102q21 0 34 3t26 14t21.5 28.5t17 50t15.5 75t15 106.5
t16.5 141.5t19.5 183.5q3 32 5 48q47 441 47 526q0 77 -19 104t-67 27q-51 0 -73 -29q-31 -41 -54 -221q-11 -85 -43 -395q-45 -425 -45 -528q0 -79 18.5 -106.5t65.5 -27.5zM183 1601q8 86 33 117t63 31q33 0 77.5 -26t55.5 -26q14 0 19 10t8 42h90q-7 -88 -30.5 -118
t-66.5 -30q-33 0 -76.5 26.5t-54.5 26.5q-13 0 -19 -11t-9 -42h-90z" />
    <glyph glyph-name="Odieresis" unicode="&#xd6;" horiz-adv-x="524" 
d="M205 1602l18 167h103l-19 -167h-102zM389 1602l19 167h102l-18 -167h-103zM190 -10q-115 0 -156.5 53.5t-41.5 192.5q0 113 47 538q42 407 61 507q26 143 74 192q45 53 158 53q117 0 157.5 -53t40.5 -193q0 -110 -45 -535q-40 -389 -63.5 -523.5t-73.5 -184.5
q-50 -47 -158 -47zM197 102q21 0 34 3t26 14t21.5 28.5t17 50t15.5 75t15 106.5t16.5 141.5t19.5 183.5q3 32 5 48q47 441 47 526q0 77 -19 104t-67 27q-51 0 -73 -29q-31 -41 -54 -221q-11 -85 -43 -395q-45 -425 -45 -528q0 -79 18.5 -106.5t65.5 -27.5z" />
    <glyph glyph-name="multiply" unicode="&#xd7;" horiz-adv-x="536" 
d="M123 553l-64 70l138 122l-111 125l78 70l110 -125l138 125l61 -70l-137 -125l110 -122l-75 -70l-113 123z" />
    <glyph glyph-name="Oslash" unicode="&#xd8;" horiz-adv-x="524" 
d="M188 -10q-27 0 -63 4l-19 -78h-96l29 121q-45 48 -45 199q0 121 43 538q43 412 64 520q26 132 71 179q48 53 160 53q25 0 61 -4l21 82h98l-33 -123q51 -48 51 -201q0 -91 -47 -535q-43 -419 -63 -521q-26 -140 -74 -187q-50 -47 -158 -47zM195 90q51 0 73 30
q32 43 57 228q12 89 46 404q43 431 45 483l-271 -1137q16 -8 50 -8zM152 764q-42 -411 -46 -471l267 1120q-16 8 -45 8q-52 0 -74 -29q-33 -43 -58 -230q-13 -99 -44 -398z" />
    <glyph glyph-name="Ugrave" unicode="&#xd9;" horiz-adv-x="548" 
d="M199 -10q-103 0 -148.5 45.5t-45.5 129.5t13 204l119 1149h119l-121 -1151q-17 -159 -9 -201q9 -54 57 -62q11 -2 24 -2q64 0 88 52q19 40 34 188q1 5 3 25l121 1151h114l-121 -1149q-5 -45 -7.5 -70t-8 -62t-10.5 -57t-13 -48.5t-17.5 -43.5t-22.5 -34t-29 -28.5
t-37 -19t-46 -13t-56 -3.5zM338 1601l-94 240h125l63 -240h-94z" />
    <glyph glyph-name="Uacute" unicode="&#xda;" horiz-adv-x="548" 
d="M287 1602l116 239h127l-145 -239h-98zM199 -10q-103 0 -148.5 45.5t-45.5 129.5t13 204l119 1149h119l-121 -1151q-17 -159 -9 -201q9 -54 57 -62q11 -2 24 -2q64 0 88 52q19 40 34 188q1 5 3 25l121 1151h114l-121 -1149q-5 -45 -7.5 -70t-8 -62t-10.5 -57t-13 -48.5
t-17.5 -43.5t-22.5 -34t-29 -28.5t-37 -19t-46 -13t-56 -3.5z" />
    <glyph glyph-name="Ucircumflex" unicode="&#xdb;" horiz-adv-x="548" 
d="M188 1602l140 239h114l86 -239h-94l-59 153l-86 -153h-101zM199 -10q-103 0 -148.5 45.5t-45.5 129.5t13 204l119 1149h119l-121 -1151q-17 -159 -9 -201q9 -54 57 -62q11 -2 24 -2q64 0 88 52q19 40 34 188q1 5 3 25l121 1151h114l-121 -1149q-5 -45 -7.5 -70t-8 -62
t-10.5 -57t-13 -48.5t-17.5 -43.5t-22.5 -34t-29 -28.5t-37 -19t-46 -13t-56 -3.5z" />
    <glyph glyph-name="Udieresis" unicode="&#xdc;" horiz-adv-x="548" 
d="M217 1602l19 167h102l-19 -167h-102zM401 1602l19 167h102l-18 -167h-103zM199 -10q-103 0 -148.5 45.5t-45.5 129.5t13 204l119 1149h119l-121 -1151q-17 -159 -9 -201q9 -54 57 -62q11 -2 24 -2q64 0 88 52q19 40 34 188q1 5 3 25l121 1151h114l-121 -1149
q-5 -45 -7.5 -70t-8 -62t-10.5 -57t-13 -48.5t-17.5 -43.5t-22.5 -34t-29 -28.5t-37 -19t-46 -13t-56 -3.5z" />
    <glyph glyph-name="Yacute" unicode="&#xdd;" horiz-adv-x="458" 
d="M90 0l53 526l-61 992h121l30 -738l187 738h117l-277 -1012l-53 -506h-117zM244 1601l116 240h127l-145 -240h-98z" />
    <glyph glyph-name="Thorn" unicode="&#xde;" horiz-adv-x="493" 
d="M-16 0l159 1518h117l-31 -275h39q118 0 163.5 -55.5t45.5 -175.5q0 -50 -16 -226q-7 -65 -12.5 -106t-13.5 -89t-17 -77t-22 -60.5t-29 -48.5t-38 -32t-49.5 -21t-62.5 -6h-82l-35 -346h-116zM147 451h62q18 0 31.5 3.5t25 14.5t19.5 22t15.5 35t12.5 44t10.5 59.5
t9 70.5t9.5 86q16 144 16 215q0 70 -21.5 101t-76.5 31h-41z" />
    <glyph glyph-name="germandbls" unicode="&#xdf;" horiz-adv-x="487" 
d="M-57 -297l172 1634q11 120 57 169.5t158 49.5q92 0 128 -38.5t36 -145.5q0 -55 -17 -225q-19 -182 -38 -253t-58 -97q30 -19 42.5 -55t12.5 -107q0 -70 -16 -240q-10 -97 -19.5 -160t-25 -109t-30 -69.5t-43 -37t-55 -16.5t-75.5 -3h-25l13 104h20q32 0 47 5.5t32.5 35
t28.5 92.5t23 177q13 146 13 200q0 74 -15.5 97.5t-58.5 23.5h-23l13 107h16q39 0 56 18t29.5 75.5t27.5 199.5q18 187 18 221q0 56 -14.5 75t-50.5 19q-53 0 -69.5 -26t-23.5 -93l-170 -1628h-116z" />
    <glyph glyph-name="agrave" unicode="&#xe0;" horiz-adv-x="458" 
d="M102 -8q-70 0 -98.5 41t-28.5 131q0 63 13 190q11 102 21 166.5t26 119.5t35 84t51 50t69.5 28t94.5 9q15 146 10 174q-5 34 -36 39q-9 2 -23 2q-49 0 -103 -12l-24 106q55 19 145 19q84 0 118.5 -31.5t35.5 -100.5t-11 -178l-65 -634q-6 -55 1 -69.5t40 -14.5l-13 -111
q-6 -2 -30 -2q-47 0 -63.5 9t-24.5 32q-36 -47 -140 -47zM135 98q55 0 70 48.5t39 283.5l28 272q-34 -1 -54.5 -5t-39.5 -19t-28.5 -34.5t-19.5 -63.5t-15.5 -92.5t-14.5 -133.5q-12 -117 -12 -172q0 -46 10.5 -65t36.5 -19zM254 1241l-94 240h125l63 -240h-94z" />
    <glyph glyph-name="aacute" unicode="&#xe1;" horiz-adv-x="458" 
d="M102 -8q-70 0 -98.5 41t-28.5 131q0 63 13 190q11 102 21 166.5t26 119.5t35 84t51 50t69.5 28t94.5 9q15 146 10 174q-5 34 -36 39q-9 2 -23 2q-49 0 -103 -12l-24 106q55 19 145 19q84 0 118.5 -31.5t35.5 -100.5t-11 -178l-65 -634q-6 -55 1 -69.5t40 -14.5l-13 -111
q-6 -2 -30 -2q-47 0 -63.5 9t-24.5 32q-36 -47 -140 -47zM135 98q55 0 70 48.5t39 283.5l28 272q-34 -1 -54.5 -5t-39.5 -19t-28.5 -34.5t-19.5 -63.5t-15.5 -92.5t-14.5 -133.5q-12 -117 -12 -172q0 -46 10.5 -65t36.5 -19zM203 1241l116 240h127l-145 -240h-98z" />
    <glyph glyph-name="acircumflex" unicode="&#xe2;" horiz-adv-x="458" 
d="M102 -8q-70 0 -98.5 41t-28.5 131q0 63 13 190q11 102 21 166.5t26 119.5t35 84t51 50t69.5 28t94.5 9q15 146 10 174q-5 34 -36 39q-9 2 -23 2q-49 0 -103 -12l-24 106q55 19 145 19q84 0 118.5 -31.5t35.5 -100.5t-11 -178l-65 -634q-6 -55 1 -69.5t40 -14.5l-13 -111
q-6 -2 -30 -2q-47 0 -63.5 9t-24.5 32q-36 -47 -140 -47zM135 98q55 0 70 48.5t39 283.5l28 272q-34 -1 -54.5 -5t-39.5 -19t-28.5 -34.5t-19.5 -63.5t-15.5 -92.5t-14.5 -133.5q-12 -117 -12 -172q0 -46 10.5 -65t36.5 -19zM104 1241l140 240h114l86 -240h-94l-59 154
l-86 -154h-101z" />
    <glyph glyph-name="atilde" unicode="&#xe3;" horiz-adv-x="458" 
d="M102 -8q-70 0 -98.5 41t-28.5 131q0 63 13 190q11 102 21 166.5t26 119.5t35 84t51 50t69.5 28t94.5 9q15 146 10 174q-5 34 -36 39q-9 2 -23 2q-49 0 -103 -12l-24 106q55 19 145 19q84 0 118.5 -31.5t35.5 -100.5t-11 -178l-65 -634q-6 -55 1 -69.5t40 -14.5l-13 -111
q-6 -2 -30 -2q-47 0 -63.5 9t-24.5 32q-36 -47 -140 -47zM135 98q55 0 70 48.5t39 283.5l28 272q-34 -1 -54.5 -5t-39.5 -19t-28.5 -34.5t-19.5 -63.5t-15.5 -92.5t-14.5 -133.5q-12 -117 -12 -172q0 -46 10.5 -65t36.5 -19zM111 1241q8 86 33 117t63 31q33 0 77.5 -26
t55.5 -26q14 0 19 10t8 42h90q-7 -88 -30.5 -118t-66.5 -30q-33 0 -76.5 26.5t-54.5 26.5q-13 0 -19 -11t-9 -42h-90z" />
    <glyph glyph-name="adieresis" unicode="&#xe4;" horiz-adv-x="458" 
d="M102 -8q-70 0 -98.5 41t-28.5 131q0 63 13 190q11 102 21 166.5t26 119.5t35 84t51 50t69.5 28t94.5 9q15 146 10 174q-5 34 -36 39q-9 2 -23 2q-49 0 -103 -12l-24 106q55 19 145 19q84 0 118.5 -31.5t35.5 -100.5t-11 -178l-65 -634q-6 -55 1 -69.5t40 -14.5l-13 -111
q-6 -2 -30 -2q-47 0 -63.5 9t-24.5 32q-36 -47 -140 -47zM135 98q55 0 70 48.5t39 283.5l28 272q-34 -1 -54.5 -5t-39.5 -19t-28.5 -34.5t-19.5 -63.5t-15.5 -92.5t-14.5 -133.5q-12 -117 -12 -172q0 -46 10.5 -65t36.5 -19zM133 1241l19 168h102l-19 -168h-102zM317 1241
l19 168h102l-18 -168h-103z" />
    <glyph glyph-name="aring" unicode="&#xe5;" horiz-adv-x="458" 
d="M102 -8q-70 0 -98.5 41t-28.5 131q0 63 13 190q11 102 21 166.5t26 119.5t35 84t51 50t69.5 28t94.5 9q15 146 10 174q-5 34 -36 39q-9 2 -23 2q-49 0 -103 -12l-24 106q55 19 145 19q84 0 118.5 -31.5t35.5 -100.5t-11 -178l-65 -634q-6 -55 1 -69.5t40 -14.5l-13 -111
q-6 -2 -30 -2q-47 0 -63.5 9t-24.5 32q-36 -47 -140 -47zM135 98q55 0 70 48.5t39 283.5l28 272q-34 -1 -54.5 -5t-39.5 -19t-28.5 -34.5t-19.5 -63.5t-15.5 -92.5t-14.5 -133.5q-12 -117 -12 -172q0 -46 10.5 -65t36.5 -19zM281 1237q-49 0 -73.5 21.5t-26 58.5t2.5 86
q9 84 33 122t90 38q50 0 74 -22t25.5 -59t-3.5 -87q-7 -83 -31 -120.5t-91 -37.5zM285 1300q26 0 35.5 19t15.5 78q5 61 -0.5 80.5t-32.5 19.5q-26 0 -35 -20t-14 -80q-7 -57 -1.5 -77t32.5 -20z" />
    <glyph glyph-name="ae" unicode="&#xe6;" horiz-adv-x="661" 
d="M100 -8q-69 0 -97 41t-28 131q0 63 13 190q11 101 21 166.5t26.5 119.5t35.5 83.5t50.5 50.5t68.5 28t93 9q15 147 10 175q-5 33 -35 38q-9 2 -22 2q-49 0 -103 -12l-24 106q52 19 143 19t121 -41q41 41 114 41q92 0 124 -44.5t32 -144.5q0 -69 -33 -387l-6 -55h-244
q-24 -230 -24 -297q0 -65 18.5 -88t53.5 -23q52 0 110 15l25 -101q-68 -24 -150 -24q-55 0 -87.5 17t-51.5 56q-21 -37 -56.5 -54t-97.5 -17zM133 98q55 0 70 46.5t40 277.5q1 5 1 8l28 272q-34 -1 -54.5 -5t-39 -19t-28 -35t-19.5 -63t-16.5 -92.5t-14.5 -133.5
q-12 -117 -12 -172q0 -47 9.5 -65.5t35.5 -18.5zM438 1012q-20 -26 -33 -105.5t-34 -288.5h133q28 269 28 322q0 49 -9.5 67.5t-41.5 18.5q-29 0 -43 -14z" />
    <glyph glyph-name="ccedilla" unicode="&#xe7;" horiz-adv-x="352" 
d="M88 -365q-56 0 -108 17l30 76q32 -11 68 -11q37 0 48 14.5t17 69.5q4 44 -8 56t-47 10l-31 27l29 106q-59 18 -81.5 69t-22.5 138q0 73 30 375q38 360 76 457.5t170 97.5q58 0 111 -17l-39 -108q-38 10 -68 10q-61 0 -80 -70.5t-51 -382.5q-31 -321 -31 -358
q0 -56 15.5 -83.5t54.5 -27.5q36 0 70 9l16 -103q-47 -14 -100 -14l-21 -74q53 5 75 -24t15 -103q-10 -95 -38.5 -125.5t-98.5 -30.5z" />
    <glyph glyph-name="egrave" unicode="&#xe8;" horiz-adv-x="421" 
d="M156 -10q-91 0 -132.5 50t-41.5 165q0 88 32 373q29 278 46.5 374t56.5 140q44 47 131 47q93 0 125.5 -44t32.5 -145q0 -46 -35 -387l-4 -55h-244q-25 -240 -25 -297q0 -64 18.5 -87.5t53.5 -23.5q46 0 109 17l24 -103q-61 -24 -147 -24zM201 1012q-21 -25 -34 -103.5
t-34 -292.5h133q29 279 29 324q0 48 -10 67t-41 19q-29 0 -43 -14zM238 1241l-94 240h125l63 -240h-94z" />
    <glyph glyph-name="eacute" unicode="&#xe9;" horiz-adv-x="421" 
d="M186 1241l117 240h127l-145 -240h-99zM156 -10q-91 0 -132.5 50t-41.5 165q0 88 32 373q29 278 46.5 374t56.5 140q44 47 131 47q93 0 125.5 -44t32.5 -145q0 -46 -35 -387l-4 -55h-244q-25 -240 -25 -297q0 -64 18.5 -87.5t53.5 -23.5q46 0 109 17l24 -103
q-61 -24 -147 -24zM201 1012q-21 -25 -34 -103.5t-34 -292.5h133q29 279 29 324q0 48 -10 67t-41 19q-29 0 -43 -14z" />
    <glyph glyph-name="ecircumflex" unicode="&#xea;" horiz-adv-x="421" 
d="M88 1241l139 240h115l86 -240h-94l-60 154l-86 -154h-100zM156 -10q-91 0 -132.5 50t-41.5 165q0 88 32 373q29 278 46.5 374t56.5 140q44 47 131 47q93 0 125.5 -44t32.5 -145q0 -46 -35 -387l-4 -55h-244q-25 -240 -25 -297q0 -64 18.5 -87.5t53.5 -23.5q46 0 109 17
l24 -103q-61 -24 -147 -24zM201 1012q-21 -25 -34 -103.5t-34 -292.5h133q29 279 29 324q0 48 -10 67t-41 19q-29 0 -43 -14z" />
    <glyph glyph-name="edieresis" unicode="&#xeb;" horiz-adv-x="421" 
d="M117 1241l18 168h103l-19 -168h-102zM301 1241l18 168h103l-19 -168h-102zM156 -10q-91 0 -132.5 50t-41.5 165q0 88 32 373q29 278 46.5 374t56.5 140q44 47 131 47q93 0 125.5 -44t32.5 -145q0 -46 -35 -387l-4 -55h-244q-25 -240 -25 -297q0 -64 18.5 -87.5
t53.5 -23.5q46 0 109 17l24 -103q-61 -24 -147 -24zM201 1012q-21 -25 -34 -103.5t-34 -292.5h133q29 279 29 324q0 48 -10 67t-41 19q-29 0 -43 -14z" />
    <glyph glyph-name="igrave" unicode="&#xec;" horiz-adv-x="233" 
d="M119 1241l-68 240h125l37 -240h-94zM-23 0l121 1128h115l-119 -1128h-117z" />
    <glyph glyph-name="iacute" unicode="&#xed;" horiz-adv-x="233" 
d="M113 1241l98 240h131l-129 -240h-100zM-23 0l121 1128h115l-119 -1128h-117z" />
    <glyph glyph-name="icircumflex" unicode="&#xee;" horiz-adv-x="233" 
d="M6 1241l129 240h115l76 -240h-95l-49 150l-78 -150h-98zM-23 0l121 1128h115l-119 -1128h-117z" />
    <glyph glyph-name="idieresis" unicode="&#xef;" horiz-adv-x="233" 
d="M23 1241l18 168h102l-18 -168h-102zM207 1241l18 168h103l-19 -168h-102zM-23 0l121 1128h115l-119 -1128h-117z" />
    <glyph glyph-name="eth" unicode="&#xf0;" horiz-adv-x="473" 
d="M221 1239l10 96l82 27q-20 95 -43 162l101 30q32 -109 41 -159l110 39l-10 -97l-88 -30q25 -191 20 -408q-3 -120 -26 -344q-8 -79 -14 -127.5t-13.5 -106t-14 -90.5t-15.5 -71.5t-18.5 -58.5t-23 -43t-28 -33t-34.5 -19.5t-42 -12.5t-51 -3q-101 0 -139.5 54t-38.5 177
q0 64 26 357q13 124 22.5 198t23 143t28 103.5t38 61.5t52 35.5t70.5 8.5q67 0 98 -28q-7 117 -16 174zM168 98q60 0 80.5 75t54.5 386q27 277 27 340q0 70 -16 97.5t-54 27.5q-31 0 -47 -11.5t-31 -65t-25 -133.5t-28 -249q-29 -264 -29 -344q0 -68 15.5 -95.5t52.5 -27.5z
" />
    <glyph glyph-name="ntilde" unicode="&#xf1;" horiz-adv-x="497" 
d="M-27 0l121 1120l94 6v-45q32 58 140 58q70 0 102.5 -29.5t34 -84t-5.5 -132.5l-97 -893h-114l90 860q14 95 6 129.5t-57 34.5q-54 0 -76.5 -52t-40.5 -206l-80 -766h-117zM132 1241q8 86 33 117t63 31q33 0 77.5 -26t55.5 -26q14 0 19 10t8 42h90q-7 -88 -30.5 -118
t-66.5 -30q-33 0 -76.5 26.5t-54.5 26.5q-13 0 -19 -11t-9 -42h-90z" />
    <glyph glyph-name="ograve" unicode="&#xf2;" horiz-adv-x="473" 
d="M164 -10q-104 0 -143 48.5t-39 166.5q0 96 30 377q32 300 51 383q28 114 85 149q41 25 116 25q104 0 144.5 -50.5t40.5 -166.5q0 -80 -31 -369q-32 -306 -50 -386q-26 -115 -81 -151q-42 -26 -123 -26zM168 98q28 0 43.5 8t28.5 30.5t21.5 72t17.5 124t21 194.5
q2 21 3 32q29 287 29 354q0 64 -16 87.5t-56 23.5q-27 0 -42.5 -8.5t-28 -31.5t-20.5 -70.5t-16.5 -118t-19.5 -182.5q-3 -28 -4 -42q-5 -54 -12.5 -124t-11 -106.5t-6.5 -74.5t-3 -61q0 -61 16.5 -84t55.5 -23zM262 1241l-94 240h125l63 -240h-94z" />
    <glyph glyph-name="oacute" unicode="&#xf3;" horiz-adv-x="473" 
d="M211 1241l117 240h127l-146 -240h-98zM164 -10q-104 0 -143 48.5t-39 166.5q0 96 30 377q32 300 51 383q28 114 85 149q41 25 116 25q104 0 144.5 -50.5t40.5 -166.5q0 -80 -31 -369q-32 -306 -50 -386q-26 -115 -81 -151q-42 -26 -123 -26zM168 98q28 0 43.5 8
t28.5 30.5t21.5 72t17.5 124t21 194.5q2 21 3 32q29 287 29 354q0 64 -16 87.5t-56 23.5q-27 0 -42.5 -8.5t-28 -31.5t-20.5 -70.5t-16.5 -118t-19.5 -182.5q-3 -28 -4 -42q-5 -54 -12.5 -124t-11 -106.5t-6.5 -74.5t-3 -61q0 -61 16.5 -84t55.5 -23z" />
    <glyph glyph-name="ocircumflex" unicode="&#xf4;" horiz-adv-x="473" 
d="M113 1241l139 240h115l86 -240h-95l-59 154l-86 -154h-100zM164 -10q-104 0 -143 48.5t-39 166.5q0 96 30 377q32 300 51 383q28 114 85 149q41 25 116 25q104 0 144.5 -50.5t40.5 -166.5q0 -80 -31 -369q-32 -306 -50 -386q-26 -115 -81 -151q-42 -26 -123 -26zM168 98
q28 0 43.5 8t28.5 30.5t21.5 72t17.5 124t21 194.5q2 21 3 32q29 287 29 354q0 64 -16 87.5t-56 23.5q-27 0 -42.5 -8.5t-28 -31.5t-20.5 -70.5t-16.5 -118t-19.5 -182.5q-3 -28 -4 -42q-5 -54 -12.5 -124t-11 -106.5t-6.5 -74.5t-3 -61q0 -61 16.5 -84t55.5 -23z" />
    <glyph glyph-name="otilde" unicode="&#xf5;" horiz-adv-x="473" 
d="M164 -10q-104 0 -143 48.5t-39 166.5q0 96 30 377q32 300 51 383q28 114 85 149q41 25 116 25q104 0 144.5 -50.5t40.5 -166.5q0 -80 -31 -369q-32 -306 -50 -386q-26 -115 -81 -151q-42 -26 -123 -26zM168 98q28 0 43.5 8t28.5 30.5t21.5 72t17.5 124t21 194.5
q2 21 3 32q29 287 29 354q0 64 -16 87.5t-56 23.5q-27 0 -42.5 -8.5t-28 -31.5t-20.5 -70.5t-16.5 -118t-19.5 -182.5q-3 -28 -4 -42q-5 -54 -12.5 -124t-11 -106.5t-6.5 -74.5t-3 -61q0 -61 16.5 -84t55.5 -23zM119 1241q8 86 33 117t63 31q33 0 77.5 -26t55.5 -26
q14 0 19 10t8 42h90q-7 -88 -30.5 -118t-66.5 -30q-33 0 -76.5 26.5t-54.5 26.5q-13 0 -19 -11t-9 -42h-90z" />
    <glyph glyph-name="odieresis" unicode="&#xf6;" horiz-adv-x="473" 
d="M141 1241l19 168h102l-18 -168h-103zM326 1241l18 168h102l-18 -168h-102zM164 -10q-104 0 -143 48.5t-39 166.5q0 96 30 377q32 300 51 383q28 114 85 149q41 25 116 25q104 0 144.5 -50.5t40.5 -166.5q0 -80 -31 -369q-32 -306 -50 -386q-26 -115 -81 -151
q-42 -26 -123 -26zM168 98q28 0 43.5 8t28.5 30.5t21.5 72t17.5 124t21 194.5q2 21 3 32q29 287 29 354q0 64 -16 87.5t-56 23.5q-27 0 -42.5 -8.5t-28 -31.5t-20.5 -70.5t-16.5 -118t-19.5 -182.5q-3 -28 -4 -42q-5 -54 -12.5 -124t-11 -106.5t-6.5 -74.5t-3 -61
q0 -61 16.5 -84t55.5 -23z" />
    <glyph glyph-name="divide" unicode="&#xf7;" horiz-adv-x="536" 
d="M178 426l15 141h110l-14 -141h-111zM74 690l10 113h377l-12 -113h-375zM229 920l15 143h110l-14 -143h-111z" />
    <glyph glyph-name="oslash" unicode="&#xf8;" horiz-adv-x="473" 
d="M174 -10q-36 0 -82 8l-22 -82h-101l41 133q-28 49 -28 154q0 51 30 379q38 362 76 459.5t172 97.5q24 0 76 -9l24 82h99l-41 -137q31 -50 31 -153q0 -78 -31 -367q-33 -311 -53 -395q-26 -113 -81 -147q-39 -23 -110 -23zM168 90q65 0 86.5 73.5t54.5 395.5
q21 200 25 270l-217 -725q14 -14 51 -14zM123 571q-19 -175 -27 -260l215 707q-17 14 -51 14q-63 0 -84.5 -74t-52.5 -387z" />
    <glyph glyph-name="ugrave" unicode="&#xf9;" horiz-adv-x="485" 
d="M170 -10q-88 0 -129 33.5t-43.5 95.5t6.5 151l90 858h115l-88 -852q-14 -112 -9 -138q8 -37 53 -40h11q53 0 67.5 31t24.5 128q1 14 2 22l90 849h111l-88 -858q-5 -47 -8.5 -73.5t-11 -61t-16.5 -52.5t-24.5 -39t-36 -31t-49.5 -16.5t-67 -6.5zM268 1241l-94 240h125
l63 -240h-94z" />
    <glyph glyph-name="uacute" unicode="&#xfa;" horiz-adv-x="485" 
d="M217 1241l117 240h127l-146 -240h-98zM170 -10q-88 0 -129 33.5t-43.5 95.5t6.5 151l90 858h115l-88 -852q-14 -112 -9 -138q8 -37 53 -40h11q53 0 67.5 31t24.5 128q1 14 2 22l90 849h111l-88 -858q-5 -47 -8.5 -73.5t-11 -61t-16.5 -52.5t-24.5 -39t-36 -31
t-49.5 -16.5t-67 -6.5z" />
    <glyph glyph-name="ucircumflex" unicode="&#xfb;" horiz-adv-x="485" 
d="M119 1241l139 240h115l86 -240h-94l-60 154l-86 -154h-100zM170 -10q-88 0 -129 33.5t-43.5 95.5t6.5 151l90 858h115l-88 -852q-14 -112 -9 -138q8 -37 53 -40h11q53 0 67.5 31t24.5 128q1 14 2 22l90 849h111l-88 -858q-5 -47 -8.5 -73.5t-11 -61t-16.5 -52.5
t-24.5 -39t-36 -31t-49.5 -16.5t-67 -6.5z" />
    <glyph glyph-name="udieresis" unicode="&#xfc;" horiz-adv-x="485" 
d="M147 1241l19 168h102l-18 -168h-103zM332 1241l18 168h103l-19 -168h-102zM170 -10q-88 0 -129 33.5t-43.5 95.5t6.5 151l90 858h115l-88 -852q-14 -112 -9 -138q8 -37 53 -40h11q53 0 67.5 31t24.5 128q1 14 2 22l90 849h111l-88 -858q-5 -47 -8.5 -73.5t-11 -61
t-16.5 -52.5t-24.5 -39t-36 -31t-49.5 -16.5t-67 -6.5z" />
    <glyph glyph-name="yacute" unicode="&#xfd;" horiz-adv-x="405" 
d="M-45 -297l10 111h19q26 0 37 5t15 12.5t11 33.5l21 110l-21 1153h115l2 -557l-4 -245l49 243l117 559h110l-286 -1290q-17 -75 -55 -105t-113 -30h-27zM178 1241l116 240h127l-145 -240h-98z" />
    <glyph glyph-name="thorn" unicode="&#xfe;" horiz-adv-x="491" 
d="M-57 -297l192 1845h115l-47 -448q45 39 125 39q71 0 106 -42.5t35 -142.5q0 -69 -33 -397q-31 -289 -49.5 -388.5t-58.5 -137.5q-22 -23 -47 -31t-64 -8q-89 0 -123 39l-35 -328h-116zM186 98q27 0 41.5 6.5t27.5 31t20.5 66.5t17 119t20.5 182q4 39 6 60q31 317 31 361
q0 61 -14 80.5t-51 19.5q-22 0 -37 -7.5t-27 -24t-20.5 -49.5t-15.5 -78.5t-15.5 -117.5t-17.5 -159q-1 -14 -2 -21q-5 -49 -12.5 -117.5t-11 -103t-6.5 -72.5t-3 -63q0 -64 15.5 -88.5t53.5 -24.5z" />
    <glyph glyph-name="ydieresis" unicode="&#xff;" horiz-adv-x="405" 
d="M-45 -297l10 111h19q26 0 37 5t15 12.5t11 33.5l21 110l-21 1153h115l2 -557l-4 -245l49 243l117 559h110l-286 -1290q-17 -75 -55 -105t-113 -30h-27zM108 1241l19 168h102l-19 -168h-102zM292 1241l19 168h102l-18 -168h-103z" />
    <glyph glyph-name="dotlessi" unicode="&#x131;" horiz-adv-x="233" 
d="M-23 0l121 1128h115l-119 -1128h-117z" />
    <glyph glyph-name="Lslash" unicode="&#x141;" horiz-adv-x="395" 
d="M2 694l10 109l60 33l71 682h117l-65 -615l112 62l-12 -109l-113 -61l-71 -684h198l-10 -111h-315l75 725z" />
    <glyph glyph-name="lslash" unicode="&#x142;" horiz-adv-x="352" 
d="M45 932l10 108l76 41l49 467h117l-41 -399l92 51l-12 -108l-92 -52l-88 -852q-5 -48 1 -61.5t33 -13.5h19l-10 -113q-8 -2 -39 -2q-84 0 -107.5 44t-13.5 144l82 787z" />
    <glyph glyph-name="OE" unicode="&#x152;" horiz-adv-x="704" 
d="M186 0q-100 0 -146 54t-46 188q0 125 45 530q39 373 60 492.5t65 179.5q54 74 176 74h397l-10 -115h-205l-61 -569h201l-13 -113h-200l-64 -610h207l-12 -111h-394zM201 106h71l138 1303h-64q-62 0 -90 -43q-28 -41 -45 -151t-53 -453q-45 -430 -45 -512
q0 -83 22.5 -113.5t65.5 -30.5z" />
    <glyph glyph-name="oe" unicode="&#x153;" horiz-adv-x="706" 
d="M166 -10q-104 0 -144 48.5t-40 166.5q0 115 32 377q32 300 51 383q28 114 85 149q41 25 116 25q105 0 142 -58q1 1 3.5 5t4.5 6q41 47 119 47q93 0 124 -44t31 -145q0 -69 -33 -387l-6 -55h-243q-25 -240 -25 -297q0 -65 18.5 -88t53.5 -23q57 0 110 15l25 -101
q-57 -24 -148 -24q-93 0 -131 55q-23 -30 -56.5 -42.5t-88.5 -12.5zM170 98q28 0 43 7t28 32.5t20.5 70t17.5 126t21 192.5l3 33q31 307 31 354q0 64 -16 87.5t-58 23.5q-60 0 -78 -62.5t-48 -344.5q-3 -30 -5 -46q-31 -320 -31 -366q0 -62 16 -84.5t56 -22.5zM487 1012
q-21 -26 -34.5 -105t-34.5 -289h133q29 263 29 322q0 49 -10 67.5t-42 18.5q-27 0 -41 -14z" />
    <glyph glyph-name="Scaron" unicode="&#x160;" horiz-adv-x="425" 
d="M242 1602l-86 241h96l57 -153l88 153h99l-140 -241h-114zM119 -12q-88 0 -162 16l37 113q66 -15 123 -15q34 0 54 7t36 29t16 61t-6 104l-117 875q-10 65 -10 108q0 116 54 178t161 62q79 0 137 -15l-39 -114q-41 12 -88 12q-71 0 -91.5 -50.5t-8.5 -146.5l115 -860
q12 -99 12 -129q0 -235 -223 -235z" />
    <glyph glyph-name="scaron" unicode="&#x161;" horiz-adv-x="358" 
d="M172 1241l-86 242h96l58 -154l88 154h98l-139 -242h-115zM86 -10q-90 0 -152 16l37 107q63 -15 99 -15q59 0 79 36t5 130l-95 570q-12 80 -12 112q0 88 42 140.5t134 52.5q75 0 129 -13l-37 -108q-36 8 -77 8q-53 0 -67.5 -38.5t-2.5 -108.5l94 -564q12 -76 12 -133
q0 -192 -188 -192z" />
    <glyph glyph-name="Ydieresis" unicode="&#x178;" horiz-adv-x="458" 
d="M90 0l53 526l-61 992h121l30 -738l187 738h117l-277 -1012l-53 -506h-117zM174 1601l19 168h102l-19 -168h-102zM358 1601l19 168h102l-18 -168h-103z" />
    <glyph glyph-name="Zcaron" unicode="&#x17d;" horiz-adv-x="438" 
d="M250 1602l-86 241h96l57 -153l89 153h98l-139 -241h-115zM-49 0l10 96l381 1307h-229l10 115h352l-10 -105l-377 -1302h250l-10 -111h-377z" />
    <glyph glyph-name="zcaron" unicode="&#x17e;" horiz-adv-x="358" 
d="M174 1241l-86 242h96l58 -154l88 154h98l-139 -242h-115zM-59 0l8 86l291 934h-181l11 108h303l-8 -86l-293 -940h194l-10 -102h-315z" />
    <glyph glyph-name="florin" unicode="&#x192;" horiz-adv-x="479" 
d="M51 811l15 107h94l39 389q12 121 51 166t143 45h35l-14 -115h-13q-51 0 -65.5 -21t-22.5 -88l-39 -376h125l-12 -107h-125l-112 -1108h-115l112 1108h-96z" />
    <glyph glyph-name="circumflex" unicode="&#x2c6;" 
d="M102 1241l140 240h114l86 -240h-94l-59 154l-86 -154h-101z" />
    <glyph glyph-name="caron" unicode="&#x2c7;" 
d="M217 1241l-86 242h96l58 -154l88 154h98l-139 -242h-115z" />
    <glyph glyph-name="breve" unicode="&#x2d8;" 
d="M285 1237q-93 0 -118.5 45t-12.5 158h90q-10 -58 -2.5 -86.5t41.5 -28.5q36 0 48 25t19 90h90q-13 -113 -44 -158t-111 -45z" />
    <glyph glyph-name="dotaccent" unicode="&#x2d9;" 
d="M217 1241l23 203h114l-22 -203h-115z" />
    <glyph glyph-name="ring" unicode="&#x2da;" 
d="M279 1237q-49 0 -73.5 21.5t-26 58.5t2.5 86q9 84 33 122t90 38q50 0 74 -22t25.5 -59t-3.5 -87q-7 -83 -31 -120.5t-91 -37.5zM283 1300q26 0 35.5 19t15.5 78q5 61 -0.5 80.5t-32.5 19.5q-26 0 -35 -20t-14 -80q-7 -57 -1.5 -77t32.5 -20z" />
    <glyph glyph-name="ogonek" unicode="&#x2db;" horiz-adv-x="464" 
d="M199 -348h-27q-97 0 -130 40.5t-24 129.5q10 94 111 188h94q-58 -61 -82 -100.5t-28 -83.5q-6 -52 11 -70t73 -18h10z" />
    <glyph glyph-name="tilde" unicode="&#x2dc;" 
d="M109 1241q8 86 33 117t63 31q33 0 77.5 -26t55.5 -26q14 0 19 10t8 42h90q-7 -88 -30.5 -118t-66.5 -30q-33 0 -76.5 26.5t-54.5 26.5q-13 0 -19 -11t-9 -42h-90z" />
    <glyph glyph-name="hungarumlaut" unicode="&#x2dd;" 
d="M117 1241l67 242h121l-92 -242h-96zM328 1241l67 242h121l-94 -242h-94z" />
    <glyph glyph-name="Delta" unicode="&#x394;" horiz-adv-x="538" 
d="M45 1020l10 108h80l23 209q12 120 54 166.5t146 46.5q17 0 23 -2l-12 -112h-7q-50 0 -67 -22.5t-25 -86.5l-20 -199h86l-10 -108h-88l-138 -1317h-116l139 1317h-78zM209 -297l12 111q30 1 38 11.5t13 47.5l131 1255h115l-133 -1267q-8 -86 -45.5 -122t-130.5 -36z
M418 1278l22 201h117l-22 -201h-117z" />
    <glyph glyph-name="Delta" unicode="&#x2206;" horiz-adv-x="538" 
d="M45 1020l10 108h80l23 209q12 120 54 166.5t146 46.5q17 0 23 -2l-12 -112h-7q-50 0 -67 -22.5t-25 -86.5l-20 -199h86l-10 -108h-88l-138 -1317h-116l139 1317h-78zM209 -297l12 111q30 1 38 11.5t13 47.5l131 1255h115l-133 -1267q-8 -86 -45.5 -122t-130.5 -36z
M418 1278l22 201h117l-22 -201h-117z" />
    <glyph glyph-name="Omega" unicode="&#x3a9;" horiz-adv-x="1703" 
d="M258 246q-88 105 -136 237t-48 277q0 144 48 276t136 236q6 -4 14 -12q-85 -103 -131.5 -231.5t-46.5 -268.5q0 -285 180 -500zM467 432q-117 143 -117 328q0 183 115 327q3 -2 8 -7t8 -7q-110 -136 -110 -313q0 -182 110 -314zM541 498q-92 116 -92 262t92 262
q3 -2 8 -7t8 -7q-88 -109 -88 -248t88 -248q-3 -2 -8 -7t-8 -7zM647 592q-57 72 -57 168q0 97 57 166l15 -15q-52 -69 -52 -151q0 -84 54 -154q-3 -2 -8.5 -7t-8.5 -7zM715 655q-33 48 -33 105q0 56 33 104q3 -2 8 -7t8 -7q-29 -44 -29 -90t29 -90q-3 -2 -16 -15zM774 709
q-14 25 -14 51t14 51l12 -10q-10 -20 -10 -41t10 -41q-4 -4 -12 -10zM852 123q-236 0 -412 158l2.5 2.5l5 5l5.5 5.5t2 1q171 -152 397 -152q227 0 395 152q2 -3 7.5 -8t7.5 -8q-177 -156 -410 -156zM852 664q-31 0 -55 18l12 12q21 -14 43 -14q26 0 43 14q4 -4 10 -12
q-21 -18 -53 -18zM987 653q-7 10 -14 15q28 42 28 92q0 51 -28 90l2.5 2.5t5 4.5t5.5 5t1 2q35 -44 35 -104t-35 -107zM598 551q-72 91 -72 209q0 119 74 209l14 -15q-67 -87 -67 -194q0 -108 67 -195q-10 -10 -16 -14zM852 -35q-145 0 -278 52.5t-238 146.5l14 16
q102 -92 231 -143t271 -51q285 0 500 192q0 1 3.5 -2.5t6.5 -7.5l4 -4q-104 -95 -236 -147t-278 -52zM852 248q-189 0 -330 125l15 16q134 -121 315 -121q182 0 313 121q2 -3 7.5 -8t7.5 -8q-138 -125 -328 -125zM852 348q-145 0 -264 101l14 14q108 -94 250 -94
q143 0 248 94q2 -3 7 -8.5t7 -8.5q-112 -98 -262 -98zM852 428q-116 0 -211 78l14 16q86 -73 197 -73t197 73q4 -4 12 -16q-91 -78 -209 -78zM852 543q-77 0 -135 49l14 16q51 -45 121 -45q68 0 119 45q2 -3 7 -8t7 -8q-58 -49 -133 -49zM733 911q-4 3 -7 6.5t-6 6.5l-3 4
q58 49 135 49t135 -49l-16 -17q-51 45 -119 45t-119 -45zM1167 1130q-134 121 -315 121q-179 0 -313 -118l-15 14q141 125 328 125q189 0 330 -125q-4 -6 -15 -17zM930 709l-12 10q10 20 10 41t-10 41l12 10q14 -25 14 -51t-14 -51zM958 682q-10 10 -16 14q21 32 21 64
t-21 63l16 15q25 -36 25 -78t-25 -78zM1020 627q-6 4 -16 14q38 50 38 119t-38 119l14 14q45 -57 45 -133q0 -71 -43 -133zM1106 551q-3 2 -8 7t-8 7q67 87 67 195t-70 194l17 15q74 -90 74 -209q0 -118 -72 -209zM1163 498q-10 10 -16 14q88 109 88 248t-88 248l16 14
q92 -116 92 -262t-92 -262zM1237 432q-6 4 -16 14q112 134 112 314q0 182 -112 313l16 14q117 -139 117 -327q0 -189 -117 -328zM1329 350q-2 2 -7 6t-7 6q141 175 141 398q0 227 -143 395l16 14q148 -179 148 -409q0 -231 -148 -410zM1446 246q-6 6 -16 14q180 215 180 500
t-180 500l16 14q88 -105 136 -237t48 -277q0 -144 -48 -276t-136 -238zM375 348q-148 182 -148 412q0 229 146 409q2 -2 7.5 -6.5t8.5 -7.5q-141 -170 -141 -395q0 -228 141 -398zM684 627q-43 59 -43 133t43 133q6 -4 16 -14q-38 -50 -38 -119q0 -67 38 -117zM745 682
q-24 34 -24 78t24 78q2 -3 4.5 -5.5t6 -5.5t4.5 -4q-19 -34 -19 -63q0 -30 19 -64zM809 825l-10 13q21 18 53 18t53 -18l-10 -13q-23 15 -43 15q-25 0 -43 -15zM786 852l-14 14q37 29 80 29q41 0 78 -29q-8 -8 -12 -14q-28 25 -66 25q-34 0 -66 -25zM760 881l-15 16
q45 39 107 39q61 0 106 -39l-14 -16q-37 34 -92 34t-92 -34zM604 1057l-14 16q112 98 262 98q151 0 262 -100q1 0 -2 -3.5t-6 -7.5l-4 -3q-108 94 -250 94q-143 0 -248 -94zM852 492q-100 0 -170 61l14 16q70 -57 156 -57q87 0 154 57l14 -14q-73 -63 -168 -63zM852 584
q-61 0 -109 39l15 16q47 -35 94 -35q51 0 92 35l14 -16q-45 -39 -106 -39zM852 625q-43 0 -82 28l14 15q36 -25 68 -25q34 0 66 25l14 -15q-36 -28 -80 -28zM698 950l-14 15q73 63 168 63q98 0 168 -61l-14 -17q-68 58 -154 58q-87 0 -154 -58zM655 997l-14 17q91 78 211 78
q119 0 209 -80l-12 -15q-83 74 -197 74q-110 0 -197 -74zM1249 1223q-166 153 -397 153q-227 0 -397 -151l-15 14q179 158 412 158t412 -158zM352 1339l-14 17q104 95 236 146.5t278 51.5q145 0 278 -52t238 -146l-14 -17q-102 93 -231 144t-271 51t-270 -51t-230 -144z
M1057 594l-15 14q52 69 52 152t-54 153l17 15q57 -72 57 -168q0 -97 -57 -166z" />
    <glyph glyph-name="Omega" unicode="&#x2126;" horiz-adv-x="1703" 
d="M258 246q-88 105 -136 237t-48 277q0 144 48 276t136 236q6 -4 14 -12q-85 -103 -131.5 -231.5t-46.5 -268.5q0 -285 180 -500zM467 432q-117 143 -117 328q0 183 115 327q3 -2 8 -7t8 -7q-110 -136 -110 -313q0 -182 110 -314zM541 498q-92 116 -92 262t92 262
q3 -2 8 -7t8 -7q-88 -109 -88 -248t88 -248q-3 -2 -8 -7t-8 -7zM647 592q-57 72 -57 168q0 97 57 166l15 -15q-52 -69 -52 -151q0 -84 54 -154q-3 -2 -8.5 -7t-8.5 -7zM715 655q-33 48 -33 105q0 56 33 104q3 -2 8 -7t8 -7q-29 -44 -29 -90t29 -90q-3 -2 -16 -15zM774 709
q-14 25 -14 51t14 51l12 -10q-10 -20 -10 -41t10 -41q-4 -4 -12 -10zM852 123q-236 0 -412 158l2.5 2.5l5 5l5.5 5.5t2 1q171 -152 397 -152q227 0 395 152q2 -3 7.5 -8t7.5 -8q-177 -156 -410 -156zM852 664q-31 0 -55 18l12 12q21 -14 43 -14q26 0 43 14q4 -4 10 -12
q-21 -18 -53 -18zM987 653q-7 10 -14 15q28 42 28 92q0 51 -28 90l2.5 2.5t5 4.5t5.5 5t1 2q35 -44 35 -104t-35 -107zM598 551q-72 91 -72 209q0 119 74 209l14 -15q-67 -87 -67 -194q0 -108 67 -195q-10 -10 -16 -14zM852 -35q-145 0 -278 52.5t-238 146.5l14 16
q102 -92 231 -143t271 -51q285 0 500 192q0 1 3.5 -2.5t6.5 -7.5l4 -4q-104 -95 -236 -147t-278 -52zM852 248q-189 0 -330 125l15 16q134 -121 315 -121q182 0 313 121q2 -3 7.5 -8t7.5 -8q-138 -125 -328 -125zM852 348q-145 0 -264 101l14 14q108 -94 250 -94
q143 0 248 94q2 -3 7 -8.5t7 -8.5q-112 -98 -262 -98zM852 428q-116 0 -211 78l14 16q86 -73 197 -73t197 73q4 -4 12 -16q-91 -78 -209 -78zM852 543q-77 0 -135 49l14 16q51 -45 121 -45q68 0 119 45q2 -3 7 -8t7 -8q-58 -49 -133 -49zM733 911q-4 3 -7 6.5t-6 6.5l-3 4
q58 49 135 49t135 -49l-16 -17q-51 45 -119 45t-119 -45zM1167 1130q-134 121 -315 121q-179 0 -313 -118l-15 14q141 125 328 125q189 0 330 -125q-4 -6 -15 -17zM930 709l-12 10q10 20 10 41t-10 41l12 10q14 -25 14 -51t-14 -51zM958 682q-10 10 -16 14q21 32 21 64
t-21 63l16 15q25 -36 25 -78t-25 -78zM1020 627q-6 4 -16 14q38 50 38 119t-38 119l14 14q45 -57 45 -133q0 -71 -43 -133zM1106 551q-3 2 -8 7t-8 7q67 87 67 195t-70 194l17 15q74 -90 74 -209q0 -118 -72 -209zM1163 498q-10 10 -16 14q88 109 88 248t-88 248l16 14
q92 -116 92 -262t-92 -262zM1237 432q-6 4 -16 14q112 134 112 314q0 182 -112 313l16 14q117 -139 117 -327q0 -189 -117 -328zM1329 350q-2 2 -7 6t-7 6q141 175 141 398q0 227 -143 395l16 14q148 -179 148 -409q0 -231 -148 -410zM1446 246q-6 6 -16 14q180 215 180 500
t-180 500l16 14q88 -105 136 -237t48 -277q0 -144 -48 -276t-136 -238zM375 348q-148 182 -148 412q0 229 146 409q2 -2 7.5 -6.5t8.5 -7.5q-141 -170 -141 -395q0 -228 141 -398zM684 627q-43 59 -43 133t43 133q6 -4 16 -14q-38 -50 -38 -119q0 -67 38 -117zM745 682
q-24 34 -24 78t24 78q2 -3 4.5 -5.5t6 -5.5t4.5 -4q-19 -34 -19 -63q0 -30 19 -64zM809 825l-10 13q21 18 53 18t53 -18l-10 -13q-23 15 -43 15q-25 0 -43 -15zM786 852l-14 14q37 29 80 29q41 0 78 -29q-8 -8 -12 -14q-28 25 -66 25q-34 0 -66 -25zM760 881l-15 16
q45 39 107 39q61 0 106 -39l-14 -16q-37 34 -92 34t-92 -34zM604 1057l-14 16q112 98 262 98q151 0 262 -100q1 0 -2 -3.5t-6 -7.5l-4 -3q-108 94 -250 94q-143 0 -248 -94zM852 492q-100 0 -170 61l14 16q70 -57 156 -57q87 0 154 57l14 -14q-73 -63 -168 -63zM852 584
q-61 0 -109 39l15 16q47 -35 94 -35q51 0 92 35l14 -16q-45 -39 -106 -39zM852 625q-43 0 -82 28l14 15q36 -25 68 -25q34 0 66 25l14 -15q-36 -28 -80 -28zM698 950l-14 15q73 63 168 63q98 0 168 -61l-14 -17q-68 58 -154 58q-87 0 -154 -58zM655 997l-14 17q91 78 211 78
q119 0 209 -80l-12 -15q-83 74 -197 74q-110 0 -197 -74zM1249 1223q-166 153 -397 153q-227 0 -397 -151l-15 14q179 158 412 158t412 -158zM352 1339l-14 17q104 95 236 146.5t278 51.5q145 0 278 -52t238 -146l-14 -17q-102 93 -231 144t-271 51t-270 -51t-230 -144z
M1057 594l-15 14q52 69 52 152t-54 153l17 15q57 -72 57 -168q0 -97 -57 -166z" />
    <glyph glyph-name="pi" unicode="&#x3c0;" horiz-adv-x="606" 
d="M303 -8q-104 0 -164 51q-64 58 -87 217t-23 500q0 323 20.5 479.5t77.5 220.5q55 66 176 66q120 0 176 -68q55 -64 75.5 -220.5t20.5 -477.5q0 -336 -22.5 -494.5t-83.5 -218.5q-55 -55 -166 -55zM303 55q47 0 78 11.5t55.5 45t38 80.5t22 131.5t11 184t2.5 252.5
t-2.5 252.5t-11 184t-22 131t-38 79.5t-55.5 44t-78 11q-40 0 -68.5 -9.5t-51.5 -28.5t-38 -57.5t-25.5 -88t-15.5 -128.5t-7.5 -169.5t-2.5 -220.5q0 -153 2.5 -252t11 -184.5t22.5 -132t38 -80t56 -45t79 -11.5zM176 258v985h131q40 0 66 -12t41.5 -31.5t23 -59.5t9.5 -79
t2 -107t-2 -108t-9.5 -80.5t-22.5 -61t-41 -33t-65 -12.5h-49v-401h-84zM260 737h43q43 0 53.5 42t10.5 171t-10.5 172t-53.5 43h-43v-428z" />
    <glyph glyph-name="endash" unicode="&#x2013;" horiz-adv-x="538" 
d="M18 578l11 112h465l-13 -112h-463z" />
    <glyph glyph-name="emdash" unicode="&#x2014;" horiz-adv-x="690" 
d="M18 578l11 112h616l-12 -112h-615z" />
    <glyph glyph-name="quoteleft" unicode="&#x2018;" horiz-adv-x="235" 
d="M92 1147l21 176q8 96 29 134t85 67l29 -68q-38 -23 -46.5 -36t-12.5 -60h49l-23 -213h-131z" />
    <glyph glyph-name="quoteright" unicode="&#x2019;" horiz-adv-x="235" 
d="M127 1141l-29 65q29 19 37 26t15.5 23.5t11.5 49.5h-51l22 213h129l-18 -179q-9 -95 -30.5 -132t-86.5 -66z" />
    <glyph glyph-name="quotesinglbase" unicode="&#x201a;" horiz-adv-x="235" 
d="M-8 -164l-33 66q41 25 50.5 38t13.5 60h-52l23 215h131l-19 -178q-11 -98 -31.5 -135t-82.5 -66z" />
    <glyph glyph-name="quotedblleft" unicode="&#x201c;" horiz-adv-x="421" 
d="M92 1147l21 176q8 96 28 133t84 66l29 -66q-38 -23 -46.5 -36t-14.5 -60h51l-23 -213h-129zM276 1147l21 176q9 96 30 133t85 66l26 -66q-38 -23 -46.5 -36t-14.5 -60h51l-22 -213h-130z" />
    <glyph glyph-name="quotedblright" unicode="&#x201d;" horiz-adv-x="417" 
d="M125 1143l-27 63q29 19 37 26t15.5 23.5t11.5 49.5h-51l22 213h127l-18 -179q-11 -97 -31.5 -132t-85.5 -64zM311 1143l-28 63q28 18 36.5 26t14.5 23.5t10 49.5h-49l22 213h127l-18 -179q-11 -96 -31 -131.5t-84 -64.5z" />
    <glyph glyph-name="quotedblbase" unicode="&#x201e;" horiz-adv-x="417" 
d="M-10 -162l-31 64q41 25 50.5 38t13.5 60h-52l23 215h129l-19 -178q-11 -98 -31.5 -134t-82.5 -65zM174 -162l-29 64q40 25 49 38t13 60h-49l20 215h129l-18 -178q-11 -97 -31.5 -133.5t-83.5 -65.5z" />
    <glyph glyph-name="dagger" unicode="&#x2020;" horiz-adv-x="468" 
d="M70 1001l12 113h131l45 434h115l-45 -434h133l-12 -113h-134l-135 -1300h-114l135 1300h-131z" />
    <glyph glyph-name="daggerdbl" unicode="&#x2021;" horiz-adv-x="466" 
d="M66 -299l45 434h-134l13 115h131l80 751h-131l12 113h131l45 434h115l-45 -434h133l-12 -113h-132l-79 -751h131l-13 -115h-131l-45 -434h-114z" />
    <glyph glyph-name="bullet" unicode="&#x2022;" horiz-adv-x="317" 
d="M45 469l33 307h164l-33 -307h-164z" />
    <glyph glyph-name="ellipsis" unicode="&#x2026;" horiz-adv-x="659" 
d="M-29 0l21 195h131l-21 -195h-131zM188 0l21 195h129l-19 -195h-131zM395 0l21 195h129l-19 -195h-131z" />
    <glyph glyph-name="perthousand" unicode="&#x2030;" horiz-adv-x="1245" 
d="M178 592q-78 0 -107.5 36.5t-29.5 133.5q0 84 25 307q27 258 45 328q24 91 77 115q30 14 78 14q78 0 109 -36.5t31 -131.5q0 -84 -25 -307q-32 -293 -64 -376t-139 -83zM184 690q19 0 29 8.5t20.5 51t18.5 106t22 197.5q25 234 25 295q0 47 -8.5 62t-30.5 15
q-19 0 -29 -8.5t-20.5 -50.5t-18.5 -105.5t-22 -197.5q-23 -216 -23 -295q0 -48 8 -63t29 -15zM618 -10q-76 0 -106.5 38.5t-30.5 133.5q0 84 25 307q28 258 47 329q25 91 78 115q30 13 78 13q78 0 107.5 -36.5t29.5 -131.5q0 -84 -25 -307q-28 -259 -47 -329
q-25 -94 -80 -118q-29 -14 -76 -14zM627 90q19 0 29 8.5t20 51t18 106t21 197.5q26 244 26 295q0 47 -9.5 62t-31.5 15q-18 0 -27.5 -8.5t-20 -50.5t-18.5 -105.5t-22 -197.5q-24 -225 -24 -295q0 -47 8.5 -62.5t30.5 -15.5zM979 -10q-78 0 -108.5 38t-30.5 134q0 92 24 307
q28 258 47 329q25 91 78 115q30 13 78 13q77 0 107 -36.5t30 -131.5q0 -93 -24 -307q-28 -259 -47 -329q-25 -94 -79 -119q-29 -13 -75 -13zM985 90q19 0 29 8.5t20 51t18 106t21 197.5q27 253 27 295q0 47 -9.5 62t-31.5 15q-35 0 -48 -55.5t-40 -306.5q-25 -234 -25 -295
q0 -48 8 -63t31 -15zM170 0l436 1518h109l-436 -1518h-109z" />
    <glyph glyph-name="guilsinglleft" unicode="&#x2039;" horiz-adv-x="368" 
d="M102 0l-55 563l172 565h109l-168 -565l49 -563h-107z" />
    <glyph glyph-name="guilsinglright" unicode="&#x203a;" horiz-adv-x="368" 
d="M-2 0l166 563l-47 565h106l53 -565l-172 -563h-106z" />
    <glyph glyph-name="fraction" unicode="&#x2044;" horiz-adv-x="428" 
d="M-82 0l483 1518h107l-481 -1518h-109z" />
    <glyph glyph-name="fraction" unicode="&#x2215;" horiz-adv-x="428" 
d="M-82 0l483 1518h107l-481 -1518h-109z" />
    <glyph glyph-name="Euro" unicode="&#x20ac;" horiz-adv-x="495" 
d="M29 801l10 100h88q30 286 50.5 389t62.5 160q53 76 168 76q66 0 116 -15l-35 -110q-33 10 -81 10q-75 0 -103 -97.5t-61 -412.5h166l-11 -100h-166q-4 -24 -4 -39q-1 -9 -6 -49h166l-10 -101h-166q-29 -273 -29 -366q0 -84 19.5 -114t68.5 -30q32 0 76 11l23 -103
q-56 -18 -109 -18q-112 0 -153 55.5t-41 188.5q0 96 28 376h-88l10 101h91q1 9 6 59q0 5 1 14.5t1 14.5h-88z" />
    <glyph glyph-name="trademark" unicode="&#x2122;" horiz-adv-x="782" 
d="M88 547l92 885h-88l8 86h271l-9 -86h-90l-92 -885h-92zM295 547l100 971h117v-693l145 693h117l-100 -971h-88l71 686l-141 -686h-70v688l-71 -688h-80z" />
    <glyph glyph-name="partialdiff" unicode="&#x2202;" horiz-adv-x="1703" 
d="M258 246q-88 105 -136 237t-48 277q0 144 48 276t136 236q6 -4 14 -12q-85 -103 -131.5 -231.5t-46.5 -268.5q0 -285 180 -500zM467 432q-117 143 -117 328q0 183 115 327q3 -2 8 -7t8 -7q-110 -136 -110 -313q0 -182 110 -314zM541 498q-92 116 -92 262t92 262
q3 -2 8 -7t8 -7q-88 -109 -88 -248t88 -248q-3 -2 -8 -7t-8 -7zM647 592q-57 72 -57 168q0 97 57 166l15 -15q-52 -69 -52 -151q0 -84 54 -154q-3 -2 -8.5 -7t-8.5 -7zM715 655q-33 48 -33 105q0 56 33 104q3 -2 8 -7t8 -7q-29 -44 -29 -90t29 -90q-3 -2 -16 -15zM774 709
q-14 25 -14 51t14 51l12 -10q-10 -20 -10 -41t10 -41q-4 -4 -12 -10zM852 123q-236 0 -412 158l2.5 2.5l5 5l5.5 5.5t2 1q171 -152 397 -152q227 0 395 152q2 -3 7.5 -8t7.5 -8q-177 -156 -410 -156zM852 664q-31 0 -55 18l12 12q21 -14 43 -14q26 0 43 14q4 -4 10 -12
q-21 -18 -53 -18zM987 653q-7 10 -14 15q28 42 28 92q0 51 -28 90l2.5 2.5t5 4.5t5.5 5t1 2q35 -44 35 -104t-35 -107zM598 551q-72 91 -72 209q0 119 74 209l14 -15q-67 -87 -67 -194q0 -108 67 -195q-10 -10 -16 -14zM852 -35q-145 0 -278 52.5t-238 146.5l14 16
q102 -92 231 -143t271 -51q285 0 500 192q0 1 3.5 -2.5t6.5 -7.5l4 -4q-104 -95 -236 -147t-278 -52zM852 248q-189 0 -330 125l15 16q134 -121 315 -121q182 0 313 121q2 -3 7.5 -8t7.5 -8q-138 -125 -328 -125zM852 348q-145 0 -264 101l14 14q108 -94 250 -94
q143 0 248 94q2 -3 7 -8.5t7 -8.5q-112 -98 -262 -98zM852 428q-116 0 -211 78l14 16q86 -73 197 -73t197 73q4 -4 12 -16q-91 -78 -209 -78zM852 543q-77 0 -135 49l14 16q51 -45 121 -45q68 0 119 45q2 -3 7 -8t7 -8q-58 -49 -133 -49zM733 911q-4 3 -7 6.5t-6 6.5l-3 4
q58 49 135 49t135 -49l-16 -17q-51 45 -119 45t-119 -45zM1167 1130q-134 121 -315 121q-179 0 -313 -118l-15 14q141 125 328 125q189 0 330 -125q-4 -6 -15 -17zM930 709l-12 10q10 20 10 41t-10 41l12 10q14 -25 14 -51t-14 -51zM958 682q-10 10 -16 14q21 32 21 64
t-21 63l16 15q25 -36 25 -78t-25 -78zM1020 627q-6 4 -16 14q38 50 38 119t-38 119l14 14q45 -57 45 -133q0 -71 -43 -133zM1106 551q-3 2 -8 7t-8 7q67 87 67 195t-70 194l17 15q74 -90 74 -209q0 -118 -72 -209zM1163 498q-10 10 -16 14q88 109 88 248t-88 248l16 14
q92 -116 92 -262t-92 -262zM1237 432q-6 4 -16 14q112 134 112 314q0 182 -112 313l16 14q117 -139 117 -327q0 -189 -117 -328zM1329 350q-2 2 -7 6t-7 6q141 175 141 398q0 227 -143 395l16 14q148 -179 148 -409q0 -231 -148 -410zM1446 246q-6 6 -16 14q180 215 180 500
t-180 500l16 14q88 -105 136 -237t48 -277q0 -144 -48 -276t-136 -238zM375 348q-148 182 -148 412q0 229 146 409q2 -2 7.5 -6.5t8.5 -7.5q-141 -170 -141 -395q0 -228 141 -398zM684 627q-43 59 -43 133t43 133q6 -4 16 -14q-38 -50 -38 -119q0 -67 38 -117zM745 682
q-24 34 -24 78t24 78q2 -3 4.5 -5.5t6 -5.5t4.5 -4q-19 -34 -19 -63q0 -30 19 -64zM809 825l-10 13q21 18 53 18t53 -18l-10 -13q-23 15 -43 15q-25 0 -43 -15zM786 852l-14 14q37 29 80 29q41 0 78 -29q-8 -8 -12 -14q-28 25 -66 25q-34 0 -66 -25zM760 881l-15 16
q45 39 107 39q61 0 106 -39l-14 -16q-37 34 -92 34t-92 -34zM604 1057l-14 16q112 98 262 98q151 0 262 -100q1 0 -2 -3.5t-6 -7.5l-4 -3q-108 94 -250 94q-143 0 -248 -94zM852 492q-100 0 -170 61l14 16q70 -57 156 -57q87 0 154 57l14 -14q-73 -63 -168 -63zM852 584
q-61 0 -109 39l15 16q47 -35 94 -35q51 0 92 35l14 -16q-45 -39 -106 -39zM852 625q-43 0 -82 28l14 15q36 -25 68 -25q34 0 66 25l14 -15q-36 -28 -80 -28zM698 950l-14 15q73 63 168 63q98 0 168 -61l-14 -17q-68 58 -154 58q-87 0 -154 -58zM655 997l-14 17q91 78 211 78
q119 0 209 -80l-12 -15q-83 74 -197 74q-110 0 -197 -74zM1249 1223q-166 153 -397 153q-227 0 -397 -151l-15 14q179 158 412 158t412 -158zM352 1339l-14 17q104 95 236 146.5t278 51.5q145 0 278 -52t238 -146l-14 -17q-102 93 -231 144t-271 51t-270 -51t-230 -144z
M1057 594l-15 14q52 69 52 152t-54 153l17 15q57 -72 57 -168q0 -97 -57 -166z" />
    <glyph glyph-name="product" unicode="&#x220f;" horiz-adv-x="1703" 
d="M258 246q-88 105 -136 237t-48 277q0 144 48 276t136 236q6 -4 14 -12q-85 -103 -131.5 -231.5t-46.5 -268.5q0 -285 180 -500zM467 432q-117 143 -117 328q0 183 115 327q3 -2 8 -7t8 -7q-110 -136 -110 -313q0 -182 110 -314zM541 498q-92 116 -92 262t92 262
q3 -2 8 -7t8 -7q-88 -109 -88 -248t88 -248q-3 -2 -8 -7t-8 -7zM647 592q-57 72 -57 168q0 97 57 166l15 -15q-52 -69 -52 -151q0 -84 54 -154q-3 -2 -8.5 -7t-8.5 -7zM715 655q-33 48 -33 105q0 56 33 104q3 -2 8 -7t8 -7q-29 -44 -29 -90t29 -90q-3 -2 -16 -15zM774 709
q-14 25 -14 51t14 51l12 -10q-10 -20 -10 -41t10 -41q-4 -4 -12 -10zM852 123q-236 0 -412 158l2.5 2.5l5 5l5.5 5.5t2 1q171 -152 397 -152q227 0 395 152q2 -3 7.5 -8t7.5 -8q-177 -156 -410 -156zM852 664q-31 0 -55 18l12 12q21 -14 43 -14q26 0 43 14q4 -4 10 -12
q-21 -18 -53 -18zM987 653q-7 10 -14 15q28 42 28 92q0 51 -28 90l2.5 2.5t5 4.5t5.5 5t1 2q35 -44 35 -104t-35 -107zM598 551q-72 91 -72 209q0 119 74 209l14 -15q-67 -87 -67 -194q0 -108 67 -195q-10 -10 -16 -14zM852 -35q-145 0 -278 52.5t-238 146.5l14 16
q102 -92 231 -143t271 -51q285 0 500 192q0 1 3.5 -2.5t6.5 -7.5l4 -4q-104 -95 -236 -147t-278 -52zM852 248q-189 0 -330 125l15 16q134 -121 315 -121q182 0 313 121q2 -3 7.5 -8t7.5 -8q-138 -125 -328 -125zM852 348q-145 0 -264 101l14 14q108 -94 250 -94
q143 0 248 94q2 -3 7 -8.5t7 -8.5q-112 -98 -262 -98zM852 428q-116 0 -211 78l14 16q86 -73 197 -73t197 73q4 -4 12 -16q-91 -78 -209 -78zM852 543q-77 0 -135 49l14 16q51 -45 121 -45q68 0 119 45q2 -3 7 -8t7 -8q-58 -49 -133 -49zM733 911q-4 3 -7 6.5t-6 6.5l-3 4
q58 49 135 49t135 -49l-16 -17q-51 45 -119 45t-119 -45zM1167 1130q-134 121 -315 121q-179 0 -313 -118l-15 14q141 125 328 125q189 0 330 -125q-4 -6 -15 -17zM930 709l-12 10q10 20 10 41t-10 41l12 10q14 -25 14 -51t-14 -51zM958 682q-10 10 -16 14q21 32 21 64
t-21 63l16 15q25 -36 25 -78t-25 -78zM1020 627q-6 4 -16 14q38 50 38 119t-38 119l14 14q45 -57 45 -133q0 -71 -43 -133zM1106 551q-3 2 -8 7t-8 7q67 87 67 195t-70 194l17 15q74 -90 74 -209q0 -118 -72 -209zM1163 498q-10 10 -16 14q88 109 88 248t-88 248l16 14
q92 -116 92 -262t-92 -262zM1237 432q-6 4 -16 14q112 134 112 314q0 182 -112 313l16 14q117 -139 117 -327q0 -189 -117 -328zM1329 350q-2 2 -7 6t-7 6q141 175 141 398q0 227 -143 395l16 14q148 -179 148 -409q0 -231 -148 -410zM1446 246q-6 6 -16 14q180 215 180 500
t-180 500l16 14q88 -105 136 -237t48 -277q0 -144 -48 -276t-136 -238zM375 348q-148 182 -148 412q0 229 146 409q2 -2 7.5 -6.5t8.5 -7.5q-141 -170 -141 -395q0 -228 141 -398zM684 627q-43 59 -43 133t43 133q6 -4 16 -14q-38 -50 -38 -119q0 -67 38 -117zM745 682
q-24 34 -24 78t24 78q2 -3 4.5 -5.5t6 -5.5t4.5 -4q-19 -34 -19 -63q0 -30 19 -64zM809 825l-10 13q21 18 53 18t53 -18l-10 -13q-23 15 -43 15q-25 0 -43 -15zM786 852l-14 14q37 29 80 29q41 0 78 -29q-8 -8 -12 -14q-28 25 -66 25q-34 0 -66 -25zM760 881l-15 16
q45 39 107 39q61 0 106 -39l-14 -16q-37 34 -92 34t-92 -34zM604 1057l-14 16q112 98 262 98q151 0 262 -100q1 0 -2 -3.5t-6 -7.5l-4 -3q-108 94 -250 94q-143 0 -248 -94zM852 492q-100 0 -170 61l14 16q70 -57 156 -57q87 0 154 57l14 -14q-73 -63 -168 -63zM852 584
q-61 0 -109 39l15 16q47 -35 94 -35q51 0 92 35l14 -16q-45 -39 -106 -39zM852 625q-43 0 -82 28l14 15q36 -25 68 -25q34 0 66 25l14 -15q-36 -28 -80 -28zM698 950l-14 15q73 63 168 63q98 0 168 -61l-14 -17q-68 58 -154 58q-87 0 -154 -58zM655 997l-14 17q91 78 211 78
q119 0 209 -80l-12 -15q-83 74 -197 74q-110 0 -197 -74zM1249 1223q-166 153 -397 153q-227 0 -397 -151l-15 14q179 158 412 158t412 -158zM352 1339l-14 17q104 95 236 146.5t278 51.5q145 0 278 -52t238 -146l-14 -17q-102 93 -231 144t-271 51t-270 -51t-230 -144z
M1057 594l-15 14q52 69 52 152t-54 153l17 15q57 -72 57 -168q0 -97 -57 -166z" />
    <glyph glyph-name="summation" unicode="&#x2211;" horiz-adv-x="1703" 
d="M258 246q-88 105 -136 237t-48 277q0 144 48 276t136 236q6 -4 14 -12q-85 -103 -131.5 -231.5t-46.5 -268.5q0 -285 180 -500zM467 432q-117 143 -117 328q0 183 115 327q3 -2 8 -7t8 -7q-110 -136 -110 -313q0 -182 110 -314zM541 498q-92 116 -92 262t92 262
q3 -2 8 -7t8 -7q-88 -109 -88 -248t88 -248q-3 -2 -8 -7t-8 -7zM647 592q-57 72 -57 168q0 97 57 166l15 -15q-52 -69 -52 -151q0 -84 54 -154q-3 -2 -8.5 -7t-8.5 -7zM715 655q-33 48 -33 105q0 56 33 104q3 -2 8 -7t8 -7q-29 -44 -29 -90t29 -90q-3 -2 -16 -15zM774 709
q-14 25 -14 51t14 51l12 -10q-10 -20 -10 -41t10 -41q-4 -4 -12 -10zM852 123q-236 0 -412 158l2.5 2.5l5 5l5.5 5.5t2 1q171 -152 397 -152q227 0 395 152q2 -3 7.5 -8t7.5 -8q-177 -156 -410 -156zM852 664q-31 0 -55 18l12 12q21 -14 43 -14q26 0 43 14q4 -4 10 -12
q-21 -18 -53 -18zM987 653q-7 10 -14 15q28 42 28 92q0 51 -28 90l2.5 2.5t5 4.5t5.5 5t1 2q35 -44 35 -104t-35 -107zM598 551q-72 91 -72 209q0 119 74 209l14 -15q-67 -87 -67 -194q0 -108 67 -195q-10 -10 -16 -14zM852 -35q-145 0 -278 52.5t-238 146.5l14 16
q102 -92 231 -143t271 -51q285 0 500 192q0 1 3.5 -2.5t6.5 -7.5l4 -4q-104 -95 -236 -147t-278 -52zM852 248q-189 0 -330 125l15 16q134 -121 315 -121q182 0 313 121q2 -3 7.5 -8t7.5 -8q-138 -125 -328 -125zM852 348q-145 0 -264 101l14 14q108 -94 250 -94
q143 0 248 94q2 -3 7 -8.5t7 -8.5q-112 -98 -262 -98zM852 428q-116 0 -211 78l14 16q86 -73 197 -73t197 73q4 -4 12 -16q-91 -78 -209 -78zM852 543q-77 0 -135 49l14 16q51 -45 121 -45q68 0 119 45q2 -3 7 -8t7 -8q-58 -49 -133 -49zM733 911q-4 3 -7 6.5t-6 6.5l-3 4
q58 49 135 49t135 -49l-16 -17q-51 45 -119 45t-119 -45zM1167 1130q-134 121 -315 121q-179 0 -313 -118l-15 14q141 125 328 125q189 0 330 -125q-4 -6 -15 -17zM930 709l-12 10q10 20 10 41t-10 41l12 10q14 -25 14 -51t-14 -51zM958 682q-10 10 -16 14q21 32 21 64
t-21 63l16 15q25 -36 25 -78t-25 -78zM1020 627q-6 4 -16 14q38 50 38 119t-38 119l14 14q45 -57 45 -133q0 -71 -43 -133zM1106 551q-3 2 -8 7t-8 7q67 87 67 195t-70 194l17 15q74 -90 74 -209q0 -118 -72 -209zM1163 498q-10 10 -16 14q88 109 88 248t-88 248l16 14
q92 -116 92 -262t-92 -262zM1237 432q-6 4 -16 14q112 134 112 314q0 182 -112 313l16 14q117 -139 117 -327q0 -189 -117 -328zM1329 350q-2 2 -7 6t-7 6q141 175 141 398q0 227 -143 395l16 14q148 -179 148 -409q0 -231 -148 -410zM1446 246q-6 6 -16 14q180 215 180 500
t-180 500l16 14q88 -105 136 -237t48 -277q0 -144 -48 -276t-136 -238zM375 348q-148 182 -148 412q0 229 146 409q2 -2 7.5 -6.5t8.5 -7.5q-141 -170 -141 -395q0 -228 141 -398zM684 627q-43 59 -43 133t43 133q6 -4 16 -14q-38 -50 -38 -119q0 -67 38 -117zM745 682
q-24 34 -24 78t24 78q2 -3 4.5 -5.5t6 -5.5t4.5 -4q-19 -34 -19 -63q0 -30 19 -64zM809 825l-10 13q21 18 53 18t53 -18l-10 -13q-23 15 -43 15q-25 0 -43 -15zM786 852l-14 14q37 29 80 29q41 0 78 -29q-8 -8 -12 -14q-28 25 -66 25q-34 0 -66 -25zM760 881l-15 16
q45 39 107 39q61 0 106 -39l-14 -16q-37 34 -92 34t-92 -34zM604 1057l-14 16q112 98 262 98q151 0 262 -100q1 0 -2 -3.5t-6 -7.5l-4 -3q-108 94 -250 94q-143 0 -248 -94zM852 492q-100 0 -170 61l14 16q70 -57 156 -57q87 0 154 57l14 -14q-73 -63 -168 -63zM852 584
q-61 0 -109 39l15 16q47 -35 94 -35q51 0 92 35l14 -16q-45 -39 -106 -39zM852 625q-43 0 -82 28l14 15q36 -25 68 -25q34 0 66 25l14 -15q-36 -28 -80 -28zM698 950l-14 15q73 63 168 63q98 0 168 -61l-14 -17q-68 58 -154 58q-87 0 -154 -58zM655 997l-14 17q91 78 211 78
q119 0 209 -80l-12 -15q-83 74 -197 74q-110 0 -197 -74zM1249 1223q-166 153 -397 153q-227 0 -397 -151l-15 14q179 158 412 158t412 -158zM352 1339l-14 17q104 95 236 146.5t278 51.5q145 0 278 -52t238 -146l-14 -17q-102 93 -231 144t-271 51t-270 -51t-230 -144z
M1057 594l-15 14q52 69 52 152t-54 153l17 15q57 -72 57 -168q0 -97 -57 -166z" />
    <glyph glyph-name="minus" unicode="&#x2212;" horiz-adv-x="536" 
d="M74 690l10 113h377l-12 -113h-375z" />
    <glyph glyph-name="radical" unicode="&#x221a;" horiz-adv-x="491" 
d="M74 -6l-29 846h117l-2 -609l284 1287h111l-360 -1524h-121z" />
    <glyph glyph-name="infinity" unicode="&#x221e;" horiz-adv-x="808" 
d="M254 -297l137 1317h-151l-138 -1317h-114l137 1317h-78l10 108h80l23 209q11 119 53 166t145 47q19 0 23 -2l-10 -112h-6q-50 0 -67.5 -22.5t-25.5 -86.5l-20 -199h151l23 209q12 119 54.5 166t146.5 47q16 0 22 -2l-12 -112h-4q-50 0 -68 -23t-26 -86l-21 -199h86
l-10 -108h-88l-137 -1317h-115zM553 0l119 1128h114l-116 -1128h-117zM688 1278l21 201h116l-22 -201h-115z" />
    <glyph glyph-name="integral" unicode="&#x222b;" horiz-adv-x="1703" 
d="M258 246q-88 105 -136 237t-48 277q0 144 48 276t136 236q6 -4 14 -12q-85 -103 -131.5 -231.5t-46.5 -268.5q0 -285 180 -500zM467 432q-117 143 -117 328q0 183 115 327q3 -2 8 -7t8 -7q-110 -136 -110 -313q0 -182 110 -314zM541 498q-92 116 -92 262t92 262
q3 -2 8 -7t8 -7q-88 -109 -88 -248t88 -248q-3 -2 -8 -7t-8 -7zM647 592q-57 72 -57 168q0 97 57 166l15 -15q-52 -69 -52 -151q0 -84 54 -154q-3 -2 -8.5 -7t-8.5 -7zM715 655q-33 48 -33 105q0 56 33 104q3 -2 8 -7t8 -7q-29 -44 -29 -90t29 -90q-3 -2 -16 -15zM774 709
q-14 25 -14 51t14 51l12 -10q-10 -20 -10 -41t10 -41q-4 -4 -12 -10zM852 123q-236 0 -412 158l2.5 2.5l5 5l5.5 5.5t2 1q171 -152 397 -152q227 0 395 152q2 -3 7.5 -8t7.5 -8q-177 -156 -410 -156zM852 664q-31 0 -55 18l12 12q21 -14 43 -14q26 0 43 14q4 -4 10 -12
q-21 -18 -53 -18zM987 653q-7 10 -14 15q28 42 28 92q0 51 -28 90l2.5 2.5t5 4.5t5.5 5t1 2q35 -44 35 -104t-35 -107zM598 551q-72 91 -72 209q0 119 74 209l14 -15q-67 -87 -67 -194q0 -108 67 -195q-10 -10 -16 -14zM852 -35q-145 0 -278 52.5t-238 146.5l14 16
q102 -92 231 -143t271 -51q285 0 500 192q0 1 3.5 -2.5t6.5 -7.5l4 -4q-104 -95 -236 -147t-278 -52zM852 248q-189 0 -330 125l15 16q134 -121 315 -121q182 0 313 121q2 -3 7.5 -8t7.5 -8q-138 -125 -328 -125zM852 348q-145 0 -264 101l14 14q108 -94 250 -94
q143 0 248 94q2 -3 7 -8.5t7 -8.5q-112 -98 -262 -98zM852 428q-116 0 -211 78l14 16q86 -73 197 -73t197 73q4 -4 12 -16q-91 -78 -209 -78zM852 543q-77 0 -135 49l14 16q51 -45 121 -45q68 0 119 45q2 -3 7 -8t7 -8q-58 -49 -133 -49zM733 911q-4 3 -7 6.5t-6 6.5l-3 4
q58 49 135 49t135 -49l-16 -17q-51 45 -119 45t-119 -45zM1167 1130q-134 121 -315 121q-179 0 -313 -118l-15 14q141 125 328 125q189 0 330 -125q-4 -6 -15 -17zM930 709l-12 10q10 20 10 41t-10 41l12 10q14 -25 14 -51t-14 -51zM958 682q-10 10 -16 14q21 32 21 64
t-21 63l16 15q25 -36 25 -78t-25 -78zM1020 627q-6 4 -16 14q38 50 38 119t-38 119l14 14q45 -57 45 -133q0 -71 -43 -133zM1106 551q-3 2 -8 7t-8 7q67 87 67 195t-70 194l17 15q74 -90 74 -209q0 -118 -72 -209zM1163 498q-10 10 -16 14q88 109 88 248t-88 248l16 14
q92 -116 92 -262t-92 -262zM1237 432q-6 4 -16 14q112 134 112 314q0 182 -112 313l16 14q117 -139 117 -327q0 -189 -117 -328zM1329 350q-2 2 -7 6t-7 6q141 175 141 398q0 227 -143 395l16 14q148 -179 148 -409q0 -231 -148 -410zM1446 246q-6 6 -16 14q180 215 180 500
t-180 500l16 14q88 -105 136 -237t48 -277q0 -144 -48 -276t-136 -238zM375 348q-148 182 -148 412q0 229 146 409q2 -2 7.5 -6.5t8.5 -7.5q-141 -170 -141 -395q0 -228 141 -398zM684 627q-43 59 -43 133t43 133q6 -4 16 -14q-38 -50 -38 -119q0 -67 38 -117zM745 682
q-24 34 -24 78t24 78q2 -3 4.5 -5.5t6 -5.5t4.5 -4q-19 -34 -19 -63q0 -30 19 -64zM809 825l-10 13q21 18 53 18t53 -18l-10 -13q-23 15 -43 15q-25 0 -43 -15zM786 852l-14 14q37 29 80 29q41 0 78 -29q-8 -8 -12 -14q-28 25 -66 25q-34 0 -66 -25zM760 881l-15 16
q45 39 107 39q61 0 106 -39l-14 -16q-37 34 -92 34t-92 -34zM604 1057l-14 16q112 98 262 98q151 0 262 -100q1 0 -2 -3.5t-6 -7.5l-4 -3q-108 94 -250 94q-143 0 -248 -94zM852 492q-100 0 -170 61l14 16q70 -57 156 -57q87 0 154 57l14 -14q-73 -63 -168 -63zM852 584
q-61 0 -109 39l15 16q47 -35 94 -35q51 0 92 35l14 -16q-45 -39 -106 -39zM852 625q-43 0 -82 28l14 15q36 -25 68 -25q34 0 66 25l14 -15q-36 -28 -80 -28zM698 950l-14 15q73 63 168 63q98 0 168 -61l-14 -17q-68 58 -154 58q-87 0 -154 -58zM655 997l-14 17q91 78 211 78
q119 0 209 -80l-12 -15q-83 74 -197 74q-110 0 -197 -74zM1249 1223q-166 153 -397 153q-227 0 -397 -151l-15 14q179 158 412 158t412 -158zM352 1339l-14 17q104 95 236 146.5t278 51.5q145 0 278 -52t238 -146l-14 -17q-102 93 -231 144t-271 51t-270 -51t-230 -144z
M1057 594l-15 14q52 69 52 152t-54 153l17 15q57 -72 57 -168q0 -97 -57 -166z" />
    <glyph glyph-name="approxequal" unicode="&#x2248;" horiz-adv-x="536" 
d="M68 756q10 92 36 122.5t70 30.5q28 0 92 -25.5t76 -25.5q14 0 20 10t9 41h88q-7 -92 -31 -121.5t-72 -29.5q-30 0 -93 25.5t-75 25.5t-19 -11t-11 -42h-90zM68 532q8 90 35 122t71 32q28 0 92 -26.5t76 -26.5q13 0 18.5 10.5t8.5 42.5h90q-7 -91 -32 -121t-73 -30
q-28 0 -92 25.5t-76 25.5q-11 0 -17.5 -11.5t-10.5 -42.5h-90z" />
    <glyph glyph-name="notequal" unicode="&#x2260;" horiz-adv-x="591" 
d="M252 -297l137 1317h-151l-138 -1317h-116l139 1317h-78l10 108h80l23 209q12 120 54 166.5t146 46.5q17 0 23 -2l-12 -112h-7q-50 0 -67 -22.5t-25 -86.5l-20 -199h151l23 209q12 119 57 166t154 47q23 0 29 -2l-11 -112h-18q-54 0 -72 -22.5t-24 -86.5l-21 -199h103
l-11 -108h-104l-137 -1317h-117z" />
    <glyph glyph-name="lessequal" unicode="&#x2264;" horiz-adv-x="536" 
d="M375 389l-299 307l8 95l367 307l-17 -137l-241 -218l196 -215zM25 223l12 113h334l-15 -113h-331z" />
    <glyph glyph-name="greaterequal" unicode="&#x2265;" horiz-adv-x="536" 
d="M82 389l14 137l244 217l-199 218l17 137l299 -307l-11 -95zM63 223l15 113h332l-13 -113h-334z" />
    <glyph glyph-name="lozenge" unicode="&#x25ca;" horiz-adv-x="602" 
d="M-16 -297l141 1317h-80l10 108h80l23 209q12 120 54 166.5t146 46.5q19 0 23 -2l-12 -112h-7q-50 0 -67 -22.5t-25 -86.5l-20 -199h151l41 283l105 35l-35 -318h102l-10 -108h-102l-86 -815q-6 -56 5.5 -74t57.5 -18h27l-10 -113q-8 -2 -41 -2q-102 0 -134.5 47.5
t-21.5 151.5l88 823h-147l-140 -1317h-116z" />
    <glyph glyph-name="apple" unicode="&#xf8ff;" horiz-adv-x="1703" 
d="M258 246q-88 105 -136 237t-48 277q0 144 48 276t136 236q6 -4 14 -12q-85 -103 -131.5 -231.5t-46.5 -268.5q0 -285 180 -500zM467 432q-117 143 -117 328q0 183 115 327q3 -2 8 -7t8 -7q-110 -136 -110 -313q0 -182 110 -314zM541 498q-92 116 -92 262t92 262
q3 -2 8 -7t8 -7q-88 -109 -88 -248t88 -248q-3 -2 -8 -7t-8 -7zM647 592q-57 72 -57 168q0 97 57 166l15 -15q-52 -69 -52 -151q0 -84 54 -154q-3 -2 -8.5 -7t-8.5 -7zM715 655q-33 48 -33 105q0 56 33 104q3 -2 8 -7t8 -7q-29 -44 -29 -90t29 -90q-3 -2 -16 -15zM774 709
q-14 25 -14 51t14 51l12 -10q-10 -20 -10 -41t10 -41q-4 -4 -12 -10zM852 123q-236 0 -412 158l2.5 2.5l5 5l5.5 5.5t2 1q171 -152 397 -152q227 0 395 152q2 -3 7.5 -8t7.5 -8q-177 -156 -410 -156zM852 664q-31 0 -55 18l12 12q21 -14 43 -14q26 0 43 14q4 -4 10 -12
q-21 -18 -53 -18zM987 653q-7 10 -14 15q28 42 28 92q0 51 -28 90l2.5 2.5t5 4.5t5.5 5t1 2q35 -44 35 -104t-35 -107zM598 551q-72 91 -72 209q0 119 74 209l14 -15q-67 -87 -67 -194q0 -108 67 -195q-10 -10 -16 -14zM852 -35q-145 0 -278 52.5t-238 146.5l14 16
q102 -92 231 -143t271 -51q285 0 500 192q0 1 3.5 -2.5t6.5 -7.5l4 -4q-104 -95 -236 -147t-278 -52zM852 248q-189 0 -330 125l15 16q134 -121 315 -121q182 0 313 121q2 -3 7.5 -8t7.5 -8q-138 -125 -328 -125zM852 348q-145 0 -264 101l14 14q108 -94 250 -94
q143 0 248 94q2 -3 7 -8.5t7 -8.5q-112 -98 -262 -98zM852 428q-116 0 -211 78l14 16q86 -73 197 -73t197 73q4 -4 12 -16q-91 -78 -209 -78zM852 543q-77 0 -135 49l14 16q51 -45 121 -45q68 0 119 45q2 -3 7 -8t7 -8q-58 -49 -133 -49zM733 911q-4 3 -7 6.5t-6 6.5l-3 4
q58 49 135 49t135 -49l-16 -17q-51 45 -119 45t-119 -45zM1167 1130q-134 121 -315 121q-179 0 -313 -118l-15 14q141 125 328 125q189 0 330 -125q-4 -6 -15 -17zM930 709l-12 10q10 20 10 41t-10 41l12 10q14 -25 14 -51t-14 -51zM958 682q-10 10 -16 14q21 32 21 64
t-21 63l16 15q25 -36 25 -78t-25 -78zM1020 627q-6 4 -16 14q38 50 38 119t-38 119l14 14q45 -57 45 -133q0 -71 -43 -133zM1106 551q-3 2 -8 7t-8 7q67 87 67 195t-70 194l17 15q74 -90 74 -209q0 -118 -72 -209zM1163 498q-10 10 -16 14q88 109 88 248t-88 248l16 14
q92 -116 92 -262t-92 -262zM1237 432q-6 4 -16 14q112 134 112 314q0 182 -112 313l16 14q117 -139 117 -327q0 -189 -117 -328zM1329 350q-2 2 -7 6t-7 6q141 175 141 398q0 227 -143 395l16 14q148 -179 148 -409q0 -231 -148 -410zM1446 246q-6 6 -16 14q180 215 180 500
t-180 500l16 14q88 -105 136 -237t48 -277q0 -144 -48 -276t-136 -238zM375 348q-148 182 -148 412q0 229 146 409q2 -2 7.5 -6.5t8.5 -7.5q-141 -170 -141 -395q0 -228 141 -398zM684 627q-43 59 -43 133t43 133q6 -4 16 -14q-38 -50 -38 -119q0 -67 38 -117zM745 682
q-24 34 -24 78t24 78q2 -3 4.5 -5.5t6 -5.5t4.5 -4q-19 -34 -19 -63q0 -30 19 -64zM809 825l-10 13q21 18 53 18t53 -18l-10 -13q-23 15 -43 15q-25 0 -43 -15zM786 852l-14 14q37 29 80 29q41 0 78 -29q-8 -8 -12 -14q-28 25 -66 25q-34 0 -66 -25zM760 881l-15 16
q45 39 107 39q61 0 106 -39l-14 -16q-37 34 -92 34t-92 -34zM604 1057l-14 16q112 98 262 98q151 0 262 -100q1 0 -2 -3.5t-6 -7.5l-4 -3q-108 94 -250 94q-143 0 -248 -94zM852 492q-100 0 -170 61l14 16q70 -57 156 -57q87 0 154 57l14 -14q-73 -63 -168 -63zM852 584
q-61 0 -109 39l15 16q47 -35 94 -35q51 0 92 35l14 -16q-45 -39 -106 -39zM852 625q-43 0 -82 28l14 15q36 -25 68 -25q34 0 66 25l14 -15q-36 -28 -80 -28zM698 950l-14 15q73 63 168 63q98 0 168 -61l-14 -17q-68 58 -154 58q-87 0 -154 -58zM655 997l-14 17q91 78 211 78
q119 0 209 -80l-12 -15q-83 74 -197 74q-110 0 -197 -74zM1249 1223q-166 153 -397 153q-227 0 -397 -151l-15 14q179 158 412 158t412 -158zM352 1339l-14 17q104 95 236 146.5t278 51.5q145 0 278 -52t238 -146l-14 -17q-102 93 -231 144t-271 51t-270 -51t-230 -144z
M1057 594l-15 14q52 69 52 152t-54 153l17 15q57 -72 57 -168q0 -97 -57 -166z" />
    </font>
</defs>
</svg>
