<svg preserveAspectRatio="none" width="100%" height="100%" overflow="visible" style="display: block;" viewBox="0 0 89 139" fill="none" xmlns="http://www.w3.org/2000/svg">
<g id="Mask Group" filter="url(#filter0_f_118_58)">
<mask id="mask0_118_58" style="mask-type:alpha" maskUnits="userSpaceOnUse" x="4" y="4" width="76" height="131">
<path id="Vector 161" opacity="0.8" d="M78.0854 20.4243L35.8342 4.3859L4.03931 49.295L12.3923 134.087L41.2404 105.413L50.181 99.9409L79.2133 31.8743L78.0854 20.4243Z" fill="url(#paint0_linear_118_58)"/>
</mask>
<g mask="url(#mask0_118_58)">
<g id="Group 47196" opacity="0.8">
<path id="Vector" d="M14.2859 126.746C9.68316 117.636 7.69836 127.501 6.56503 116.142C6.04276 110.907 17.4975 69.544 17.8396 64.5366C22.9484 42.8696 36.4697 27.0214 53.7227 22.8017C57.225 21.9369 60.7513 21.6642 64.3525 21.6732C46.1108 21.6081 34.5302 45.5419 31.193 66.1035C26.4515 95.2021 35.8088 127.48 61.5517 144.15C41.4341 144.028 17.6291 113.274 20.2007 119.249L14.2859 126.746Z" fill="var(--fill-0, #B0CB14)"/>
<g id="Vector_2" filter="url(#filter1_f_118_58)">
<path d="M18.7836 125.948C14.1808 116.838 12.196 126.703 11.0627 115.344C10.5404 110.109 21.9952 68.746 22.3372 63.7387C27.4461 42.0716 40.9673 26.2234 58.2203 22.0037C61.7226 21.1389 65.2489 20.8662 68.8501 20.8752C50.6085 20.8101 32.3212 50.3224 28.984 70.8839C24.2425 99.9825 25.1866 130.032 50.9296 146.702C30.812 146.58 22.1268 112.476 24.6983 118.451L18.7836 125.948Z" fill="var(--fill-0, #B0CB14)"/>
</g>
<g id="Vector_3" filter="url(#filter2_f_118_58)">
<path d="M18.7836 125.948C14.1808 116.838 12.196 126.703 11.0627 115.344C10.5404 110.109 21.9952 68.746 22.3372 63.7387C27.4461 42.0716 40.9673 26.2234 58.2203 22.0037C61.7226 21.1389 65.2489 20.8662 68.8501 20.8752C50.6085 20.8101 32.3212 50.3224 28.984 70.8839C24.2425 99.9825 25.1866 130.032 50.9296 146.702C30.812 146.58 22.1268 112.476 24.6983 118.451L18.7836 125.948Z" fill="var(--fill-0, #B0CB14)"/>
</g>
<g id="Vector_4" filter="url(#filter3_f_118_58)">
<path d="M18.7836 125.948C14.1808 116.838 12.196 126.703 11.0627 115.344C10.5404 110.109 21.9952 68.746 22.3372 63.7387C27.4461 42.0716 40.9673 26.2234 58.2203 22.0037C61.7226 21.1389 65.2489 20.8662 68.8501 20.8752C50.6085 20.8101 32.3212 50.3224 28.984 70.8839C24.2425 99.9825 25.1866 130.032 50.9296 146.702C30.812 146.58 22.1268 112.476 24.6983 118.451L18.7836 125.948Z" fill="var(--fill-0, #B0CB14)"/>
</g>
<g id="Vector_5" filter="url(#filter4_f_118_58)">
<path d="M18.7836 125.948C14.1808 116.838 12.196 126.703 11.0627 115.344C10.5404 110.109 21.9952 68.746 22.3372 63.7387C27.4461 42.0716 40.9673 26.2234 58.2203 22.0037C61.7226 21.1389 65.2489 20.8662 68.8501 20.8752C50.6085 20.8101 30.1473 46.1706 26.81 66.7322C22.0686 95.8308 25.1866 130.032 50.9296 146.702C30.812 146.58 22.1268 112.476 24.6983 118.451L18.7836 125.948Z" fill="var(--fill-0, #B0CB14)"/>
</g>
<g id="Vector_6" filter="url(#filter5_f_118_58)">
<path d="M18.7842 125.948C14.1814 116.837 12.1966 126.702 11.0633 115.343C10.541 110.109 21.9958 68.7456 22.3378 63.7382C27.4467 42.0712 40.968 26.223 58.221 22.0033C61.7233 21.1385 66.2267 19.7931 69.8278 19.8021C51.5862 19.737 30.1588 45.0723 26.8216 65.6339C22.0801 94.7325 25.1873 130.032 50.9303 146.702C30.8126 146.579 22.1274 112.475 24.699 118.45L18.7842 125.948Z" fill="var(--fill-0, #B0CB14)"/>
</g>
<g id="Vector_7" filter="url(#filter6_f_118_58)">
<path d="M14.2859 126.746C9.68316 117.636 7.69836 127.501 6.56503 116.142C6.04276 110.907 19.0513 70.6302 19.3934 65.6228C24.5023 43.9558 36.4697 27.0214 53.7227 22.8017C57.225 21.9369 60.7513 21.6642 64.3525 21.6732C46.1108 21.6081 33.3385 45.6702 30.0012 66.2317C25.2598 95.3303 28.1816 128.3 53.9246 144.971C33.807 144.848 17.6291 113.274 20.2007 119.249L14.2859 126.746Z" fill="var(--fill-0, #B0CB14)"/>
</g>
<g id="Vector_8" filter="url(#filter7_f_118_58)">
<path d="M16.1002 125.61C11.4974 116.5 9.51266 126.365 8.37932 115.006C7.85705 109.771 20.8656 69.4942 21.2077 64.4868C26.3165 42.8198 38.2839 25.8854 55.537 21.6657C59.0393 20.8009 62.5656 20.5282 66.1667 20.5371C47.9251 20.4721 33.4843 44.7137 30.1471 65.2752C25.4056 94.3738 28.3275 127.344 54.0705 144.014C33.9529 143.892 19.4434 112.138 22.015 118.113L16.1002 125.61Z" fill="var(--fill-0, #B0CB14)"/>
</g>
<g id="Vector_9" filter="url(#filter8_f_118_58)">
<path d="M17.592 126.076C12.9893 116.966 11.0045 126.831 9.87113 115.472C9.34886 110.237 22.3574 69.9604 22.6995 64.953C27.8084 43.286 39.7758 26.3516 57.0288 22.1319C60.5311 21.2671 64.0574 20.9944 67.6586 21.0034C49.4169 20.9383 30.7168 45.9515 27.3796 66.5131C22.6381 95.6117 25.56 128.582 51.303 145.252C31.1853 145.13 20.9352 112.604 23.5068 118.579L17.592 126.076Z" fill="var(--fill-0, #B0CB14)"/>
</g>
<g id="Vector_10" filter="url(#filter9_f_118_58)">
<path d="M17.5917 126.077C12.9889 116.966 11.0042 126.831 9.87082 115.472C9.34855 110.238 22.0321 73.1573 22.3741 68.1499C27.483 46.4829 42.517 24.6348 59.77 20.415C63.2723 19.5503 64.0571 20.9948 67.6582 21.0038C49.4166 20.9387 30.1571 36.613 26.8199 57.1746C22.0784 86.2732 10.3826 112.042 36.1255 128.712C16.0079 128.589 20.9349 112.605 23.5065 118.579L17.5917 126.077Z" fill="var(--fill-0, #B0CB14)"/>
</g>
<g id="Vector_11" filter="url(#filter10_f_118_58)">
<path d="M17.5917 126.077C12.9889 116.966 11.0042 126.831 9.87082 115.472C9.34855 110.238 24.2937 68.0571 24.6357 63.0497C29.7446 41.3827 42.517 24.6348 59.77 20.415C63.2723 19.5503 64.0571 20.9948 67.6582 21.0038C49.4166 20.9387 33.2229 39.5732 29.8857 60.1348C25.1442 89.2334 10.3826 112.042 36.1255 128.712C16.0079 128.589 20.9349 112.605 23.5065 118.579L17.5917 126.077Z" fill="var(--fill-0, #B0CB14)"/>
</g>
</g>
</g>
</g>
<defs>
<filter id="filter0_f_118_58" x="1.63332" y="14.8876" width="73.1089" height="124.114" filterUnits="userSpaceOnUse" color-interpolation-filters="sRGB">
<feFlood flood-opacity="0" result="BackgroundImageFix"/>
<feBlend mode="normal" in="SourceGraphic" in2="BackgroundImageFix" result="shape"/>
<feGaussianBlur stdDeviation="2.45719" result="effect1_foregroundBlur_118_58"/>
</filter>
<filter id="filter1_f_118_58" x="6.13096" y="15.9606" width="67.6335" height="135.656" filterUnits="userSpaceOnUse" color-interpolation-filters="sRGB">
<feFlood flood-opacity="0" result="BackgroundImageFix"/>
<feBlend mode="normal" in="SourceGraphic" in2="BackgroundImageFix" result="shape"/>
<feGaussianBlur stdDeviation="2.45719" result="effect1_foregroundBlur_118_58"/>
</filter>
<filter id="filter2_f_118_58" x="-41.0471" y="-31.2174" width="161.99" height="230.012" filterUnits="userSpaceOnUse" color-interpolation-filters="sRGB">
<feFlood flood-opacity="0" result="BackgroundImageFix"/>
<feBlend mode="normal" in="SourceGraphic" in2="BackgroundImageFix" result="shape"/>
<feGaussianBlur stdDeviation="26.0462" result="effect1_foregroundBlur_118_58"/>
</filter>
<filter id="filter3_f_118_58" x="-17.458" y="-7.62841" width="114.812" height="182.834" filterUnits="userSpaceOnUse" color-interpolation-filters="sRGB">
<feFlood flood-opacity="0" result="BackgroundImageFix"/>
<feBlend mode="normal" in="SourceGraphic" in2="BackgroundImageFix" result="shape"/>
<feGaussianBlur stdDeviation="14.2517" result="effect1_foregroundBlur_118_58"/>
</filter>
<filter id="filter4_f_118_58" x="-17.458" y="-7.62841" width="114.812" height="182.834" filterUnits="userSpaceOnUse" color-interpolation-filters="sRGB">
<feFlood flood-opacity="0" result="BackgroundImageFix"/>
<feBlend mode="normal" in="SourceGraphic" in2="BackgroundImageFix" result="shape"/>
<feGaussianBlur stdDeviation="14.2517" result="effect1_foregroundBlur_118_58"/>
</filter>
<filter id="filter5_f_118_58" x="-17.4574" y="-8.70144" width="115.789" height="183.907" filterUnits="userSpaceOnUse" color-interpolation-filters="sRGB">
<feFlood flood-opacity="0" result="BackgroundImageFix"/>
<feBlend mode="normal" in="SourceGraphic" in2="BackgroundImageFix" result="shape"/>
<feGaussianBlur stdDeviation="14.2517" result="effect1_foregroundBlur_118_58"/>
</filter>
<filter id="filter6_f_118_58" x="-6.22767" y="8.89558" width="83.3575" height="148.852" filterUnits="userSpaceOnUse" color-interpolation-filters="sRGB">
<feFlood flood-opacity="0" result="BackgroundImageFix"/>
<feBlend mode="normal" in="SourceGraphic" in2="BackgroundImageFix" result="shape"/>
<feGaussianBlur stdDeviation="6.38869" result="effect1_foregroundBlur_118_58"/>
</filter>
<filter id="filter7_f_118_58" x="-6.37913" y="5.7938" width="87.289" height="152.963" filterUnits="userSpaceOnUse" color-interpolation-filters="sRGB">
<feFlood flood-opacity="0" result="BackgroundImageFix"/>
<feBlend mode="normal" in="SourceGraphic" in2="BackgroundImageFix" result="shape"/>
<feGaussianBlur stdDeviation="7.37157" result="effect1_foregroundBlur_118_58"/>
</filter>
<filter id="filter8_f_118_58" x="1.99282" y="13.1402" width="73.5288" height="139.975" filterUnits="userSpaceOnUse" color-interpolation-filters="sRGB">
<feFlood flood-opacity="0" result="BackgroundImageFix"/>
<feBlend mode="normal" in="SourceGraphic" in2="BackgroundImageFix" result="shape"/>
<feGaussianBlur stdDeviation="3.9315" result="effect1_foregroundBlur_118_58"/>
</filter>
<filter id="filter9_f_118_58" x="-13.7339" y="-3.44975" width="104.981" height="155.75" filterUnits="userSpaceOnUse" color-interpolation-filters="sRGB">
<feFlood flood-opacity="0" result="BackgroundImageFix"/>
<feBlend mode="normal" in="SourceGraphic" in2="BackgroundImageFix" result="shape"/>
<feGaussianBlur stdDeviation="11.7945" result="effect1_foregroundBlur_118_58"/>
</filter>
<filter id="filter10_f_118_58" x="-13.7316" y="-3.44975" width="104.979" height="155.75" filterUnits="userSpaceOnUse" color-interpolation-filters="sRGB">
<feFlood flood-opacity="0" result="BackgroundImageFix"/>
<feBlend mode="normal" in="SourceGraphic" in2="BackgroundImageFix" result="shape"/>
<feGaussianBlur stdDeviation="11.7945" result="effect1_foregroundBlur_118_58"/>
</filter>
<linearGradient id="paint0_linear_118_58" x1="30.8176" y1="101.934" x2="86.4061" y2="42.318" gradientUnits="userSpaceOnUse">
<stop stop-color="#C4C4C4" stop-opacity="0"/>
<stop offset="0.565737" stop-color="#C4C4C4"/>
<stop offset="1" stop-color="#C4C4C4" stop-opacity="0"/>
</linearGradient>
</defs>
</svg>
