<svg preserveAspectRatio="none" width="100%" height="100%" overflow="visible" style="display: block;" viewBox="0 0 691 954" fill="none" xmlns="http://www.w3.org/2000/svg">
<g id="Group 46890">
<path id="Vector" d="M475.21 475.37C475.345 593.508 394.364 689.186 294.348 689.055C283.858 689.041 273.539 687.974 263.518 685.946C348.828 668.788 413.678 581.059 413.557 475.289C413.436 369.519 348.385 281.666 263.035 264.239C273.051 262.237 283.368 261.197 293.858 261.211C393.874 261.342 475.075 357.232 475.21 475.37Z" fill="var(--fill-0, #43A58B)"/>
<g id="Vector_2" filter="url(#filter0_f_118_116)">
<path d="M468.36 475.361C468.495 593.499 394.364 689.186 294.348 689.055C283.858 689.041 273.539 687.974 263.518 685.946C348.828 668.788 420.528 581.068 420.407 475.298C420.286 369.528 348.385 281.666 263.035 264.239C273.051 262.237 283.368 261.197 293.858 261.211C393.874 261.342 468.224 357.223 468.36 475.361Z" fill="var(--fill-0, #43A58B)"/>
</g>
<g id="Vector_3" filter="url(#filter1_f_118_116)">
<path d="M464.935 475.356C465.07 593.495 387.518 692.842 287.502 692.711C277.012 692.697 266.693 691.63 256.672 689.601C341.982 672.443 423.953 581.073 423.832 475.303C423.711 369.533 339.394 282.113 254.044 264.686C264.061 262.683 274.378 261.643 284.868 261.657C384.883 261.788 464.799 357.218 464.935 475.356Z" fill="var(--fill-0, #43A58B)"/>
</g>
<g id="Vector_4" filter="url(#filter2_f_118_116)">
<path d="M464.935 475.356C465.07 593.495 387.518 692.842 287.502 692.711C277.012 692.697 266.693 691.63 256.672 689.601C341.982 672.443 423.953 581.073 423.832 475.303C423.711 369.533 339.394 282.113 254.044 264.686C264.061 262.683 274.378 261.643 284.868 261.657C384.883 261.788 464.799 357.218 464.935 475.356Z" fill="var(--fill-0, #43A58B)"/>
</g>
<g id="Vector_5" filter="url(#filter3_f_118_116)">
<path d="M464.935 475.356C465.07 593.495 387.518 692.842 287.502 692.711C277.012 692.697 266.693 691.63 256.672 689.601C341.982 672.443 423.953 581.073 423.832 475.303C423.711 369.533 339.394 282.113 254.044 264.686C264.061 262.683 274.378 261.643 284.868 261.657C384.883 261.788 464.799 357.218 464.935 475.356Z" fill="var(--fill-0, #43A58B)"/>
</g>
<g id="Vector_6" filter="url(#filter4_f_118_116)">
<path d="M446.105 482.89C446.24 601.028 387.518 692.842 287.502 692.711C277.012 692.697 266.693 691.63 256.672 689.601C341.982 672.443 435.089 584.074 434.964 475.317C434.808 339.049 339.394 282.113 254.044 264.686C264.061 262.683 274.378 261.643 284.868 261.657C384.883 261.788 445.969 364.752 446.105 482.89Z" fill="var(--fill-0, #43A58B)"/>
</g>
<g id="Vector_7" filter="url(#filter5_f_118_116)">
<path d="M446.135 482.862C446.284 600.999 399.796 709.554 299.779 709.436C289.289 709.424 254.533 683.227 244.512 681.2C329.821 664.031 435.131 584.047 434.993 475.291C434.821 339.023 329.353 293.907 244 276.491C244.014 287.164 260.871 243.988 271.361 244C371.377 244.118 445.985 364.725 446.135 482.862Z" fill="var(--fill-0, #43A58B)"/>
</g>
<g id="Vector_8" filter="url(#filter6_f_118_116)">
<path d="M446.135 482.862C446.284 600.999 399.796 709.554 299.779 709.436C289.289 709.424 254.533 683.227 244.512 681.2C329.821 664.031 435.131 584.047 434.993 475.291C434.821 339.023 329.353 293.907 244 276.491C244.014 287.164 260.871 243.988 271.361 244C371.377 244.118 445.985 364.725 446.135 482.862Z" fill="var(--fill-0, #43A58B)"/>
</g>
<g id="Vector_9" filter="url(#filter7_f_118_116)">
<path d="M446.135 482.862C446.284 600.999 399.796 709.554 299.779 709.436C289.289 709.424 254.533 683.227 244.512 681.2C329.821 664.031 435.131 584.047 434.993 475.291C434.821 339.023 329.353 293.907 244 276.491C244.014 287.164 260.871 243.988 271.361 244C371.377 244.118 445.985 364.725 446.135 482.862Z" fill="var(--fill-0, #43A58B)"/>
</g>
</g>
<defs>
<filter id="filter0_f_118_116" x="251.035" y="249.211" width="229.325" height="451.845" filterUnits="userSpaceOnUse" color-interpolation-filters="sRGB">
<feFlood flood-opacity="0" result="BackgroundImageFix"/>
<feBlend mode="normal" in="SourceGraphic" in2="BackgroundImageFix" result="shape"/>
<feGaussianBlur stdDeviation="6" result="effect1_foregroundBlur_118_116"/>
</filter>
<filter id="filter1_f_118_116" x="218.044" y="225.657" width="282.89" height="503.054" filterUnits="userSpaceOnUse" color-interpolation-filters="sRGB">
<feFlood flood-opacity="0" result="BackgroundImageFix"/>
<feBlend mode="normal" in="SourceGraphic" in2="BackgroundImageFix" result="shape"/>
<feGaussianBlur stdDeviation="18" result="effect1_foregroundBlur_118_116"/>
</filter>
<filter id="filter2_f_118_116" x="202.044" y="209.657" width="314.89" height="535.054" filterUnits="userSpaceOnUse" color-interpolation-filters="sRGB">
<feFlood flood-opacity="0" result="BackgroundImageFix"/>
<feBlend mode="normal" in="SourceGraphic" in2="BackgroundImageFix" result="shape"/>
<feGaussianBlur stdDeviation="26" result="effect1_foregroundBlur_118_116"/>
</filter>
<filter id="filter3_f_118_116" x="202.044" y="209.657" width="314.89" height="535.054" filterUnits="userSpaceOnUse" color-interpolation-filters="sRGB">
<feFlood flood-opacity="0" result="BackgroundImageFix"/>
<feBlend mode="normal" in="SourceGraphic" in2="BackgroundImageFix" result="shape"/>
<feGaussianBlur stdDeviation="26" result="effect1_foregroundBlur_118_116"/>
</filter>
<filter id="filter4_f_118_116" x="130.044" y="137.657" width="440.06" height="679.054" filterUnits="userSpaceOnUse" color-interpolation-filters="sRGB">
<feFlood flood-opacity="0" result="BackgroundImageFix"/>
<feBlend mode="normal" in="SourceGraphic" in2="BackgroundImageFix" result="shape"/>
<feGaussianBlur stdDeviation="62" result="effect1_foregroundBlur_118_116"/>
</filter>
<filter id="filter5_f_118_116" x="168" y="168" width="354.135" height="617.436" filterUnits="userSpaceOnUse" color-interpolation-filters="sRGB">
<feFlood flood-opacity="0" result="BackgroundImageFix"/>
<feBlend mode="normal" in="SourceGraphic" in2="BackgroundImageFix" result="shape"/>
<feGaussianBlur stdDeviation="38" result="effect1_foregroundBlur_118_116"/>
</filter>
<filter id="filter6_f_118_116" x="80" y="80" width="530.135" height="793.436" filterUnits="userSpaceOnUse" color-interpolation-filters="sRGB">
<feFlood flood-opacity="0" result="BackgroundImageFix"/>
<feBlend mode="normal" in="SourceGraphic" in2="BackgroundImageFix" result="shape"/>
<feGaussianBlur stdDeviation="82" result="effect1_foregroundBlur_118_116"/>
</filter>
<filter id="filter7_f_118_116" x="3.39746e-06" y="-2.63751e-06" width="690.135" height="953.436" filterUnits="userSpaceOnUse" color-interpolation-filters="sRGB">
<feFlood flood-opacity="0" result="BackgroundImageFix"/>
<feBlend mode="normal" in="SourceGraphic" in2="BackgroundImageFix" result="shape"/>
<feGaussianBlur stdDeviation="122" result="effect1_foregroundBlur_118_116"/>
</filter>
</defs>
</svg>
