<svg preserveAspectRatio="none" width="100%" height="100%" overflow="visible" style="display: block;" viewBox="0 0 193 289" fill="none" xmlns="http://www.w3.org/2000/svg">
<g id="Mask Group" filter="url(#filter0_f_118_90)">
<mask id="mask0_118_90" style="mask-type:alpha" maskUnits="userSpaceOnUse" x="8" y="9" width="165" height="275">
<path id="Vector 161" opacity="0.8" d="M170.169 43.2556L78.0925 9.2887L8.80278 104.4L27.0062 283.976L89.8741 223.249L109.358 211.66L172.627 67.5049L170.169 43.2556Z" fill="url(#paint0_linear_118_90)"/>
</mask>
<g mask="url(#mask0_118_90)">
<g id="Group 47196" opacity="0.8">
<path id="Vector" d="M48.5453 289.458C38.5146 270.163 34.1892 291.056 31.7194 266.999C30.5812 255.913 55.5443 168.312 56.2896 157.707C67.4233 111.82 96.8897 78.2554 134.489 69.3186C142.121 67.4872 149.806 66.9096 157.654 66.9286C117.9 66.7908 92.6631 117.479 85.3904 161.025C75.0574 222.652 95.4494 291.011 151.55 326.316C107.709 326.057 55.831 260.925 61.4352 273.579L48.5453 289.458Z" fill="var(--fill-0, #B0CB14)"/>
<g id="Vector_2" filter="url(#filter1_f_118_90)">
<path d="M58.3464 287.768C48.3157 268.474 43.9903 289.366 41.5205 265.309C40.3823 254.223 65.3454 166.622 66.0907 156.017C77.2244 110.13 106.691 76.5658 144.29 67.629C151.922 65.7976 159.607 65.22 167.455 65.239C127.702 65.1012 87.8486 127.604 80.5759 171.15C70.2429 232.777 72.3005 296.417 128.401 331.722C84.5596 331.463 65.6321 259.236 71.2363 271.889L58.3464 287.768Z" fill="var(--fill-0, #B0CB14)"/>
</g>
<g id="Vector_3" filter="url(#filter2_f_118_90)">
<path d="M58.3464 287.768C48.3157 268.474 43.9903 289.366 41.5205 265.309C40.3823 254.223 65.3454 166.622 66.0907 156.017C77.2244 110.13 106.691 76.5658 144.29 67.629C151.922 65.7976 159.607 65.22 167.455 65.239C127.702 65.1012 87.8486 127.604 80.5759 171.15C70.2429 232.777 72.3005 296.417 128.401 331.722C84.5596 331.463 65.6321 259.236 71.2363 271.889L58.3464 287.768Z" fill="var(--fill-0, #B0CB14)"/>
</g>
<g id="Vector_4" filter="url(#filter3_f_118_90)">
<path d="M58.3464 287.768C48.3157 268.474 43.9903 289.366 41.5205 265.309C40.3823 254.223 65.3454 166.622 66.0907 156.017C77.2244 110.13 106.691 76.5658 144.29 67.629C151.922 65.7976 159.607 65.22 167.455 65.239C127.702 65.1012 87.8486 127.604 80.5759 171.15C70.2429 232.777 72.3005 296.417 128.401 331.722C84.5596 331.463 65.6321 259.236 71.2363 271.889L58.3464 287.768Z" fill="var(--fill-0, #B0CB14)"/>
</g>
<g id="Vector_5" filter="url(#filter4_f_118_90)">
<path d="M58.3464 287.768C48.3157 268.474 43.9903 289.366 41.5205 265.309C40.3823 254.223 65.3454 166.622 66.0907 156.017C77.2244 110.13 106.691 76.5658 144.29 67.629C151.922 65.7976 159.607 65.22 167.455 65.239C127.702 65.1012 83.111 118.811 75.8383 162.357C65.5053 223.984 72.3005 296.417 128.401 331.722C84.5596 331.463 65.6321 259.236 71.2363 271.889L58.3464 287.768Z" fill="var(--fill-0, #B0CB14)"/>
</g>
<g id="Vector_6" filter="url(#filter5_f_118_90)">
<path d="M58.3467 287.768C48.316 268.473 43.9906 289.366 41.5208 265.309C40.3826 254.223 65.3457 166.622 66.091 156.017C77.2247 110.13 106.691 76.5658 144.29 67.629C151.923 65.7976 161.737 62.9483 169.584 62.9672C129.831 62.8294 83.1351 116.486 75.8623 160.032C65.5294 221.659 72.3007 296.417 128.402 331.722C84.5599 331.463 65.6324 259.236 71.2366 271.889L58.3467 287.768Z" fill="var(--fill-0, #B0CB14)"/>
</g>
<g id="Vector_7" filter="url(#filter6_f_118_90)">
<path d="M48.5453 289.458C38.5146 270.163 34.1892 291.056 31.7194 266.999C30.5812 255.913 58.9304 170.612 59.6758 160.007C70.8095 114.12 96.8897 78.2554 134.489 69.3186C142.121 67.4872 149.806 66.9096 157.654 66.9286C117.9 66.7908 90.066 117.751 82.7932 161.297C72.4603 222.924 78.8279 292.749 134.929 328.054C91.087 327.795 55.831 260.925 61.4352 273.579L48.5453 289.458Z" fill="var(--fill-0, #B0CB14)"/>
</g>
<g id="Vector_8" filter="url(#filter7_f_118_90)">
<path d="M52.4982 287.053C42.4675 267.758 38.1421 288.651 35.6723 264.594C34.5341 253.508 62.8833 168.207 63.6287 157.602C74.7623 111.715 100.843 75.8502 138.442 66.9135C146.074 65.082 153.759 64.5045 161.607 64.5234C121.853 64.3856 90.3829 115.726 83.1101 159.272C72.7772 220.899 79.1448 290.724 135.246 326.029C91.4039 325.77 59.7839 258.52 65.388 271.174L52.4982 287.053Z" fill="var(--fill-0, #B0CB14)"/>
</g>
<g id="Vector_9" filter="url(#filter8_f_118_90)">
<path d="M55.7497 288.04C45.7191 268.745 41.3937 289.638 38.9238 265.581C37.7857 254.495 66.1349 169.194 66.8802 158.589C78.0139 112.702 104.094 76.8373 141.693 67.9005C149.326 66.0691 157.01 65.4915 164.858 65.5105C125.105 65.3726 84.3522 118.347 77.0795 161.893C66.7465 223.52 73.1141 293.346 129.215 328.651C85.3732 328.391 63.0354 259.507 68.6396 272.161L55.7497 288.04Z" fill="var(--fill-0, #B0CB14)"/>
</g>
<g id="Vector_10" filter="url(#filter9_f_118_90)">
<path d="M55.7497 288.04C45.719 268.745 41.3936 289.638 38.9238 265.581C37.7856 254.495 65.4265 175.964 66.1719 165.359C77.3055 119.471 110.069 73.2004 147.668 64.2636C155.3 62.4322 157.01 65.4915 164.858 65.5105C125.105 65.3726 83.1332 98.5686 75.8605 142.115C65.5275 203.741 40.0391 258.315 96.14 293.62C52.2982 293.361 63.0354 259.507 68.6396 272.161L55.7497 288.04Z" fill="var(--fill-0, #B0CB14)"/>
</g>
<g id="Vector_11" filter="url(#filter10_f_118_90)">
<path d="M55.7497 288.04C45.719 268.745 41.3936 289.638 38.9238 265.581C37.7856 254.495 70.3551 165.162 71.1004 154.558C82.2341 108.67 110.069 73.2004 147.668 64.2636C155.3 62.4322 157.01 65.4915 164.858 65.5105C125.105 65.3726 89.8144 104.838 82.5416 148.384C72.2087 210.011 40.0391 258.315 96.14 293.62C52.2982 293.361 63.0354 259.507 68.6396 272.161L55.7497 288.04Z" fill="var(--fill-0, #B0CB14)"/>
</g>
</g>
</g>
</g>
<defs>
<filter id="filter0_f_118_90" x="26.7673" y="58.0526" width="147.732" height="230.838" filterUnits="userSpaceOnUse" color-interpolation-filters="sRGB">
<feFlood flood-opacity="0" result="BackgroundImageFix"/>
<feBlend mode="normal" in="SourceGraphic" in2="BackgroundImageFix" result="shape"/>
<feGaussianBlur stdDeviation="2.45719" result="effect1_foregroundBlur_118_90"/>
</filter>
<filter id="filter1_f_118_90" x="36.5684" y="60.3242" width="135.801" height="276.312" filterUnits="userSpaceOnUse" color-interpolation-filters="sRGB">
<feFlood flood-opacity="0" result="BackgroundImageFix"/>
<feBlend mode="normal" in="SourceGraphic" in2="BackgroundImageFix" result="shape"/>
<feGaussianBlur stdDeviation="2.45719" result="effect1_foregroundBlur_118_90"/>
</filter>
<filter id="filter2_f_118_90" x="-10.6097" y="13.1461" width="230.157" height="370.668" filterUnits="userSpaceOnUse" color-interpolation-filters="sRGB">
<feFlood flood-opacity="0" result="BackgroundImageFix"/>
<feBlend mode="normal" in="SourceGraphic" in2="BackgroundImageFix" result="shape"/>
<feGaussianBlur stdDeviation="26.0462" result="effect1_foregroundBlur_118_90"/>
</filter>
<filter id="filter3_f_118_90" x="12.9793" y="36.7351" width="182.979" height="323.49" filterUnits="userSpaceOnUse" color-interpolation-filters="sRGB">
<feFlood flood-opacity="0" result="BackgroundImageFix"/>
<feBlend mode="normal" in="SourceGraphic" in2="BackgroundImageFix" result="shape"/>
<feGaussianBlur stdDeviation="14.2517" result="effect1_foregroundBlur_118_90"/>
</filter>
<filter id="filter4_f_118_90" x="12.9793" y="36.7351" width="182.979" height="323.49" filterUnits="userSpaceOnUse" color-interpolation-filters="sRGB">
<feFlood flood-opacity="0" result="BackgroundImageFix"/>
<feBlend mode="normal" in="SourceGraphic" in2="BackgroundImageFix" result="shape"/>
<feGaussianBlur stdDeviation="14.2517" result="effect1_foregroundBlur_118_90"/>
</filter>
<filter id="filter5_f_118_90" x="12.9796" y="34.4636" width="185.108" height="325.762" filterUnits="userSpaceOnUse" color-interpolation-filters="sRGB">
<feFlood flood-opacity="0" result="BackgroundImageFix"/>
<feBlend mode="normal" in="SourceGraphic" in2="BackgroundImageFix" result="shape"/>
<feGaussianBlur stdDeviation="14.2517" result="effect1_foregroundBlur_118_90"/>
</filter>
<filter id="filter6_f_118_90" x="18.9086" y="54.1507" width="151.523" height="286.681" filterUnits="userSpaceOnUse" color-interpolation-filters="sRGB">
<feFlood flood-opacity="0" result="BackgroundImageFix"/>
<feBlend mode="normal" in="SourceGraphic" in2="BackgroundImageFix" result="shape"/>
<feGaussianBlur stdDeviation="6.38869" result="effect1_foregroundBlur_118_90"/>
</filter>
<filter id="filter7_f_118_90" x="20.8957" y="49.7798" width="155.454" height="290.993" filterUnits="userSpaceOnUse" color-interpolation-filters="sRGB">
<feFlood flood-opacity="0" result="BackgroundImageFix"/>
<feBlend mode="normal" in="SourceGraphic" in2="BackgroundImageFix" result="shape"/>
<feGaussianBlur stdDeviation="7.37157" result="effect1_foregroundBlur_118_90"/>
</filter>
<filter id="filter8_f_118_90" x="31.0274" y="57.647" width="141.694" height="278.867" filterUnits="userSpaceOnUse" color-interpolation-filters="sRGB">
<feFlood flood-opacity="0" result="BackgroundImageFix"/>
<feBlend mode="normal" in="SourceGraphic" in2="BackgroundImageFix" result="shape"/>
<feGaussianBlur stdDeviation="3.9315" result="effect1_foregroundBlur_118_90"/>
</filter>
<filter id="filter9_f_118_90" x="15.3006" y="40.0906" width="173.147" height="277.118" filterUnits="userSpaceOnUse" color-interpolation-filters="sRGB">
<feFlood flood-opacity="0" result="BackgroundImageFix"/>
<feBlend mode="normal" in="SourceGraphic" in2="BackgroundImageFix" result="shape"/>
<feGaussianBlur stdDeviation="11.7945" result="effect1_foregroundBlur_118_90"/>
</filter>
<filter id="filter10_f_118_90" x="15.3056" y="40.0906" width="173.142" height="277.118" filterUnits="userSpaceOnUse" color-interpolation-filters="sRGB">
<feFlood flood-opacity="0" result="BackgroundImageFix"/>
<feBlend mode="normal" in="SourceGraphic" in2="BackgroundImageFix" result="shape"/>
<feGaussianBlur stdDeviation="11.7945" result="effect1_foregroundBlur_118_90"/>
</filter>
<linearGradient id="paint0_linear_118_90" x1="67.1598" y1="215.881" x2="184.606" y2="86.2734" gradientUnits="userSpaceOnUse">
<stop stop-color="#C4C4C4" stop-opacity="0"/>
<stop offset="0.565737" stop-color="#C4C4C4"/>
<stop offset="1" stop-color="#C4C4C4" stop-opacity="0"/>
</linearGradient>
</defs>
</svg>
