<svg preserveAspectRatio="none" width="100%" height="100%" overflow="visible" style="display: block;" viewBox="0 0 578 714" fill="none" xmlns="http://www.w3.org/2000/svg">
<g id="Group 46890">
<path id="Vector" d="M346.612 356.006C346.672 413.196 310.732 459.514 266.345 459.451C261.69 459.444 257.11 458.927 252.662 457.945C290.523 449.639 319.304 407.17 319.25 355.967C319.196 304.763 290.327 262.234 252.448 253.798C256.893 252.828 261.472 252.325 266.128 252.331C310.515 252.395 346.552 298.815 346.612 356.006Z" fill="var(--fill-0, #43A58B)"/>
<g id="Vector_2" filter="url(#filter0_f_118_73)">
<path d="M343.572 356.001C343.632 413.192 310.732 459.514 266.345 459.451C261.69 459.444 257.11 458.927 252.662 457.945C290.523 449.639 322.344 407.174 322.29 355.971C322.237 304.768 290.327 262.234 252.448 253.798C256.893 252.828 261.472 252.325 266.128 252.331C310.515 252.395 343.512 298.811 343.572 356.001Z" fill="var(--fill-0, #43A58B)"/>
</g>
<g id="Vector_3" filter="url(#filter1_f_118_73)">
<path d="M342.051 356C342.111 413.19 307.693 461.284 263.306 461.221C258.651 461.214 254.071 460.697 249.624 459.715C287.485 451.409 323.864 407.177 323.81 355.973C323.756 304.77 286.336 262.45 248.458 254.014C252.903 253.045 257.482 252.541 262.137 252.548C306.524 252.611 341.991 298.809 342.051 356Z" fill="var(--fill-0, #43A58B)"/>
</g>
<g id="Vector_4" filter="url(#filter2_f_118_73)">
<path d="M342.051 356C342.111 413.19 307.693 461.284 263.306 461.221C258.651 461.214 254.071 460.697 249.624 459.715C287.485 451.409 323.864 407.177 323.81 355.973C323.756 304.77 286.336 262.45 248.458 254.014C252.903 253.045 257.482 252.541 262.137 252.548C306.524 252.611 341.991 298.809 342.051 356Z" fill="var(--fill-0, #43A58B)"/>
</g>
<g id="Vector_5" filter="url(#filter3_f_118_73)">
<path d="M342.051 356C342.111 413.19 307.693 461.284 263.306 461.221C258.651 461.214 254.071 460.697 249.624 459.715C287.485 451.409 323.864 407.177 323.81 355.973C323.756 304.77 286.336 262.45 248.458 254.014C252.903 253.045 257.482 252.541 262.137 252.548C306.524 252.611 341.991 298.809 342.051 356Z" fill="var(--fill-0, #43A58B)"/>
</g>
<g id="Vector_6" filter="url(#filter4_f_118_73)">
<path d="M333.695 359.647C333.755 416.837 307.693 461.284 263.306 461.221C258.651 461.214 254.071 460.697 249.624 459.715C287.485 451.409 328.806 408.63 328.75 355.981C328.681 290.013 286.336 262.45 248.458 254.014C252.903 253.045 257.482 252.541 262.137 252.548C306.524 252.611 333.635 302.456 333.695 359.647Z" fill="var(--fill-0, #43A58B)"/>
</g>
<g id="Vector_7" filter="url(#filter5_f_118_73)">
<path d="M333.707 359.634C333.773 416.824 313.141 469.375 268.754 469.318C264.098 469.312 248.673 456.63 244.226 455.648C282.086 447.337 328.824 408.617 328.763 355.968C328.687 290.001 281.88 268.16 244 259.729C244.006 264.896 251.487 243.994 256.143 244C300.531 244.057 333.642 302.443 333.707 359.634Z" fill="var(--fill-0, #43A58B)"/>
</g>
<g id="Vector_8" filter="url(#filter6_f_118_73)">
<path d="M333.707 359.634C333.773 416.824 313.141 469.375 268.754 469.318C264.098 469.312 248.673 456.63 244.226 455.648C282.086 447.337 328.824 408.617 328.763 355.968C328.687 290.001 281.88 268.16 244 259.729C244.006 264.896 251.487 243.994 256.143 244C300.531 244.057 333.642 302.443 333.707 359.634Z" fill="var(--fill-0, #43A58B)"/>
</g>
<g id="Vector_9" filter="url(#filter7_f_118_73)">
<path d="M333.707 359.634C333.773 416.824 313.141 469.375 268.754 469.318C264.098 469.312 248.673 456.63 244.226 455.648C282.086 447.337 328.824 408.617 328.763 355.968C328.687 290.001 281.88 268.16 244 259.729C244.006 264.896 251.487 243.994 256.143 244C300.531 244.057 333.642 302.443 333.707 359.634Z" fill="var(--fill-0, #43A58B)"/>
</g>
</g>
<defs>
<filter id="filter0_f_118_73" x="240.448" y="240.331" width="115.124" height="231.119" filterUnits="userSpaceOnUse" color-interpolation-filters="sRGB">
<feFlood flood-opacity="0" result="BackgroundImageFix"/>
<feBlend mode="normal" in="SourceGraphic" in2="BackgroundImageFix" result="shape"/>
<feGaussianBlur stdDeviation="6" result="effect1_foregroundBlur_118_73"/>
</filter>
<filter id="filter1_f_118_73" x="212.458" y="216.548" width="165.594" height="280.673" filterUnits="userSpaceOnUse" color-interpolation-filters="sRGB">
<feFlood flood-opacity="0" result="BackgroundImageFix"/>
<feBlend mode="normal" in="SourceGraphic" in2="BackgroundImageFix" result="shape"/>
<feGaussianBlur stdDeviation="18" result="effect1_foregroundBlur_118_73"/>
</filter>
<filter id="filter2_f_118_73" x="196.458" y="200.548" width="197.594" height="312.673" filterUnits="userSpaceOnUse" color-interpolation-filters="sRGB">
<feFlood flood-opacity="0" result="BackgroundImageFix"/>
<feBlend mode="normal" in="SourceGraphic" in2="BackgroundImageFix" result="shape"/>
<feGaussianBlur stdDeviation="26" result="effect1_foregroundBlur_118_73"/>
</filter>
<filter id="filter3_f_118_73" x="196.458" y="200.548" width="197.594" height="312.673" filterUnits="userSpaceOnUse" color-interpolation-filters="sRGB">
<feFlood flood-opacity="0" result="BackgroundImageFix"/>
<feBlend mode="normal" in="SourceGraphic" in2="BackgroundImageFix" result="shape"/>
<feGaussianBlur stdDeviation="26" result="effect1_foregroundBlur_118_73"/>
</filter>
<filter id="filter4_f_118_73" x="124.458" y="128.548" width="333.237" height="456.673" filterUnits="userSpaceOnUse" color-interpolation-filters="sRGB">
<feFlood flood-opacity="0" result="BackgroundImageFix"/>
<feBlend mode="normal" in="SourceGraphic" in2="BackgroundImageFix" result="shape"/>
<feGaussianBlur stdDeviation="62" result="effect1_foregroundBlur_118_73"/>
</filter>
<filter id="filter5_f_118_73" x="168" y="168" width="241.708" height="377.318" filterUnits="userSpaceOnUse" color-interpolation-filters="sRGB">
<feFlood flood-opacity="0" result="BackgroundImageFix"/>
<feBlend mode="normal" in="SourceGraphic" in2="BackgroundImageFix" result="shape"/>
<feGaussianBlur stdDeviation="38" result="effect1_foregroundBlur_118_73"/>
</filter>
<filter id="filter6_f_118_73" x="80" y="80" width="417.708" height="553.318" filterUnits="userSpaceOnUse" color-interpolation-filters="sRGB">
<feFlood flood-opacity="0" result="BackgroundImageFix"/>
<feBlend mode="normal" in="SourceGraphic" in2="BackgroundImageFix" result="shape"/>
<feGaussianBlur stdDeviation="82" result="effect1_foregroundBlur_118_73"/>
</filter>
<filter id="filter7_f_118_73" x="-7.41892e-06" y="5.91204e-06" width="577.708" height="713.318" filterUnits="userSpaceOnUse" color-interpolation-filters="sRGB">
<feFlood flood-opacity="0" result="BackgroundImageFix"/>
<feBlend mode="normal" in="SourceGraphic" in2="BackgroundImageFix" result="shape"/>
<feGaussianBlur stdDeviation="122" result="effect1_foregroundBlur_118_73"/>
</filter>
</defs>
</svg>
