<svg preserveAspectRatio="none" width="100%" height="100%" overflow="visible" style="display: block;" viewBox="0 0 1584 514" fill="none" xmlns="http://www.w3.org/2000/svg">
<g id="Line">
<path id="Vector 2" d="M70.8009 137.554L196.643 305.872C255.713 384.88 363.569 409.017 450.68 362.723L481.829 346.17C543.505 313.393 617.812 315.166 677.855 350.846L707.836 368.661C790.085 417.537 895.441 401.232 959.067 329.779L997.799 286.283C1049.6 228.108 1138.71 222.811 1197.03 274.439C1263.41 333.191 1366.87 317.045 1412.19 240.859L1512.8 71.7192" stroke="var(--stroke-0, white)" stroke-opacity="0.1"/>
<g id="Vector 1" filter="url(#filter0_f_118_127)">
<path d="M70.8009 136.346L299.296 441.965L481.829 344.962C530.357 319.172 554.621 306.277 580.806 306.902C606.99 307.527 630.612 321.564 677.855 349.638L707.836 367.454C775.53 407.68 809.377 427.793 844.792 422.372C844.902 422.355 845.011 422.338 845.121 422.321C880.518 416.783 906.701 387.379 959.067 328.571L997.799 285.075C1023.32 256.414 1036.08 242.084 1050.27 233.972C1077.37 218.488 1110.14 216.54 1138.88 228.705C1153.93 235.078 1168.3 247.795 1197.03 273.231C1231.14 303.419 1248.2 318.513 1265.39 325.005C1298.29 337.427 1335.31 331.65 1362.86 309.793C1377.26 298.37 1388.9 278.797 1412.19 239.651L1512.8 70.5112" stroke="var(--stroke-0, white)" stroke-width="2"/>
</g>
</g>
<defs>
<filter id="filter0_f_118_127" x="-2.98023e-07" y="-3.33786e-06" width="1583.66" height="513.25" filterUnits="userSpaceOnUse" color-interpolation-filters="sRGB">
<feFlood flood-opacity="0" result="BackgroundImageFix"/>
<feBlend mode="normal" in="SourceGraphic" in2="BackgroundImageFix" result="shape"/>
<feGaussianBlur stdDeviation="35" result="effect1_foregroundBlur_118_127"/>
</filter>
</defs>
</svg>
